# Exported by Lightwave Blender addon
v 1520.0274658203125 2922.60498046875 166.99290466308594
v 1580.4818115234375 3023.73681640625 166.992919921875
v 1520.0274658203125 2922.60498046875 169.0559844970703
v 1580.4818115234375 3023.73681640625 169.05599975585938
v 1514.8076171875 2921.326171875 166.99281311035156
v 1579.136474609375 3028.93994140625 166.99282836914062
v 1514.3953857421875 2921.225341796875 167.41712951660156
v 1579.0303955078125 3029.350830078125 167.41714477539062
v 1579.0303955078125 3029.350830078125 169.05589294433594
v 1514.3953857421875 2921.225341796875 169.05587768554688
v 1599.9307861328125 3012.7705078125 169.0558319091797
v 1581.340576171875 3023.951904296875 169.0559844970703
v 1599.9307861328125 3012.7705078125 166.9927520751953
v 1581.340576171875 3023.951904296875 166.99290466308594
v 1601.8350830078125 3015.95654296875 166.9927520751953
v 1579.99609375 3029.15625 166.99282836914062
v 1579.8902587890625 3029.5673828125 167.41714477539062
v 1602.052978515625 3016.32080078125 167.41708374023438
v 1602.052978515625 3016.32080078125 169.0558319091797
v 1579.8902587890625 3029.5673828125 169.05589294433594
v 1538.8951416015625 2910.66650390625 169.05581665039062
v 1538.8951416015625 2910.66650390625 166.99273681640625
v 1520.2447509765625 2921.746826171875 169.05596923828125
v 1520.2447509765625 2921.746826171875 166.99288940429688
v 1536.9906005859375 2907.48046875 166.99273681640625
v 1515.0240478515625 2920.466552734375 166.99281311035156
v 1536.7728271484375 2907.1162109375 167.4170684814453
v 1514.61181640625 2920.365478515625 167.41712951660156
v 1536.7728271484375 2907.1162109375 169.05581665039062
v 1514.61181640625 2920.365478515625 169.05587768554688
v 1578.8494873046875 3030.724609375 169.6073760986328
v 1513.0997314453125 2920.734130859375 169.60736083984375
v 1578.654296875 3032.209228515625 170.55294799804688
v 1511.6998291015625 2920.203369140625 170.5529327392578
v 1511.3089599609375 2920.05517578125 171.7074432373047
v 1578.599609375 3032.623779296875 171.70745849609375
v 1512.064208984375 2920.34130859375 172.71278381347656
v 1578.7052001953125 3031.82275390625 172.71279907226562
v 1514.3953857421875 2921.225341796875 173.18211364746094
v 1579.0303955078125 3029.350830078125 173.18212890625
v 1520.4366455078125 2922.7021484375 173.18222045898438
v 1580.5902099609375 3023.330078125 173.18223571777344
v 1521.602783203125 2922.978515625 172.97727966308594
v 1580.8985595703125 3022.17236328125 172.977294921875
v 1522.3851318359375 2923.164306640625 172.4463348388672
v 1581.10546875 3021.3955078125 172.44635009765625
v 1522.7786865234375 2923.25732421875 171.70748901367188
v 1581.2095947265625 3021.00439453125 171.70750427246094
v 1522.74658203125 2923.249755859375 170.89988708496094
v 1581.201171875 3021.03662109375 170.89990234375
v 1522.1668701171875 2923.1123046875 170.2063446044922
v 1581.0478515625 3021.6123046875 170.20635986328125
v 1521.1951904296875 2922.8818359375 169.6074981689453
v 1580.7906494140625 3022.5771484375 169.60751342773438
v 1602.6092529296875 3017.251953125 169.60733032226562
v 1579.709228515625 3030.941162109375 169.6073760986328
v 1603.2158203125 3018.2666015625 170.55291748046875
v 1579.5140380859375 3032.425537109375 170.55294799804688
v 1603.3831787109375 3018.546142578125 171.7074432373047
v 1579.45947265625 3032.840087890625 171.70745849609375
v 1579.564697265625 3032.0390625 172.71279907226562
v 1603.05517578125 3017.997802734375 172.71278381347656
v 1579.8902587890625 3029.5673828125 173.18212890625
v 1602.052978515625 3016.32080078125 173.18206787109375
v 1581.4486083984375 3023.544921875 173.18223571777344
v 1599.776123046875 3012.51171875 173.18206787109375
v 1581.7568359375 3022.386474609375 172.977294921875
v 1599.3353271484375 3011.7744140625 172.97711181640625
v 1581.963623046875 3021.60888671875 172.44635009765625
v 1599.03955078125 3011.27978515625 172.44615173339844
v 1582.0675048828125 3021.218017578125 171.70748901367188
v 1598.890869140625 3011.03076171875 171.70729064941406
v 1598.903076171875 3011.05126953125 170.89968872070312
v 1582.0589599609375 3021.25 170.89988708496094
v 1599.1221923828125 3011.417724609375 170.20616149902344
v 1581.90576171875 3021.826171875 170.20635986328125
v 1599.4892578125 3012.0322265625 169.60733032226562
v 1581.64892578125 3022.79150390625 169.60751342773438
v 1536.21630859375 2906.185302734375 169.60731506347656
v 1513.316162109375 2919.87451171875 169.60736083984375
v 1535.6097412109375 2905.17041015625 170.5529022216797
v 1511.916015625 2919.34326171875 170.5529327392578
v 1535.4425048828125 2904.890869140625 171.70742797851562
v 1511.5252685546875 2919.195068359375 171.7074432373047
v 1512.280517578125 2919.481689453125 172.71278381347656
v 1535.7703857421875 2905.439208984375 172.7127685546875
v 1514.61181640625 2920.365478515625 173.18211364746094
v 1536.7728271484375 2907.1162109375 173.1820526123047
v 1520.654296875 2921.843994140625 173.18222045898438
v 1539.0501708984375 2910.92529296875 173.1820526123047
v 1521.8206787109375 2922.121337890625 172.97727966308594
v 1539.4908447265625 2911.662353515625 172.9770965576172
v 1522.6031494140625 2922.30712890625 172.4463348388672
v 1539.786376953125 2912.1572265625 172.44613647460938
v 1522.9969482421875 2922.40087890625 171.7074737548828
v 1539.9351806640625 2912.406005859375 171.707275390625
v 1539.9232177734375 2912.385498046875 170.89967346191406
v 1522.9647216796875 2922.393310546875 170.89987182617188
v 1539.7041015625 2912.01904296875 170.20614624023438
v 1522.384765625 2922.25537109375 170.2063446044922
v 1539.3365478515625 2911.40478515625 169.60731506347656
v 1521.412841796875 2922.0244140625 169.6074981689453
vt 0.79443359375 0.1611328125
vt 0.2054443359375 0.1611328125
vt 0.79443359375 0.15087890625
vt 0.2054443359375 0.1611328125
vt 0.2054443359375 0.15087890625
vt 0.79443359375 0.15087890625
vt 0.79443359375 0.037109375
vt 0.8134765625 0.056640625
vt 0.205322265625 0.037109375
vt 0.8134765625 0.056640625
vt 0.1864013671875 0.056640625
vt 0.205322265625 0.037109375
vt 0.1864013671875 0.056640625
vt 0.8134765625 0.056640625
vt 0.81494140625 0.05908203125
vt 0.1849365234375 0.05908203125
vt 0.1864013671875 0.056640625
vt 0.81494140625 0.05908203125
vt 0.1849365234375 0.05908203125
vt 0.81494140625 0.05908203125
vt 0.1849365234375 0.0673828125
vt 0.81494140625 0.05908203125
vt 0.81494140625 0.0673828125
vt 0.1849365234375 0.0673828125
vt 0.04345703125 0.4365234375
vt 0.1510009765625 0.4365234375
vt 0.043548583984375 0.44677734375
vt 0.1510009765625 0.4365234375
vt 0.151611328125 0.44677734375
vt 0.043548583984375 0.44677734375
vt 0.1510009765625 0.4365234375
vt 0.155029296875 0.435546875
vt 0.151611328125 0.44677734375
vt 0.043548583984375 0.44677734375
vt 0.151611328125 0.44677734375
vt 0.043670654296875 0.4658203125
vt 0.155029296875 0.435546875
vt 0.1556396484375 0.4453125
vt 0.151611328125 0.44677734375
vt 0.151611328125 0.44677734375
vt 0.1556396484375 0.4453125
vt 0.170654296875 0.46630859375
vt 0.151611328125 0.44677734375
vt 0.170654296875 0.46630859375
vt 0.043670654296875 0.4658203125
vt 0.1556396484375 0.4453125
vt 0.1741943359375 0.4638671875
vt 0.170654296875 0.46630859375
vt 0.1741943359375 0.4638671875
vt 0.17578125 0.466796875
vt 0.170654296875 0.46630859375
vt 0.170654296875 0.46630859375
vt 0.171875 0.46826171875
vt 0.043670654296875 0.4658203125
vt 0.17578125 0.466796875
vt 0.171875 0.46826171875
vt 0.170654296875 0.46630859375
vt 0.171875 0.46826171875
vt 0.043731689453125 0.46875
vt 0.043670654296875 0.4658203125
vt 0.043731689453125 0.46875
vt 0.171875 0.46826171875
vt 0.043853759765625 0.4765625
vt 0.171875 0.46826171875
vt 0.172607421875 0.4765625
vt 0.043853759765625 0.4765625
vt 0.171875 0.46826171875
vt 0.17578125 0.466796875
vt 0.172607421875 0.4765625
vt 0.17578125 0.466796875
vt 0.177001953125 0.47509765625
vt 0.172607421875 0.4765625
vt 0.1776123046875 0.234375
vt 0.177490234375 0.2451171875
vt 0.06964111328125 0.234375
vt 0.0650634765625 0.2431640625
vt 0.06561279296875 0.23388671875
vt 0.06964111328125 0.234375
vt 0.177490234375 0.2451171875
vt 0.06903076171875 0.2451171875
vt 0.06964111328125 0.234375
vt 0.06903076171875 0.2451171875
vt 0.0650634765625 0.2431640625
vt 0.06964111328125 0.234375
vt 0.177490234375 0.2451171875
vt 0.1773681640625 0.263671875
vt 0.06903076171875 0.2451171875
vt 0.04644775390625 0.26171875
vt 0.0650634765625 0.2431640625
vt 0.06903076171875 0.2451171875
vt 0.1773681640625 0.263671875
vt 0.050048828125 0.26416015625
vt 0.06903076171875 0.2451171875
vt 0.050048828125 0.26416015625
vt 0.04644775390625 0.26171875
vt 0.06903076171875 0.2451171875
vt 0.1773681640625 0.263671875
vt 0.1773681640625 0.2666015625
vt 0.050048828125 0.26416015625
vt 0.04644775390625 0.26171875
vt 0.050048828125 0.26416015625
vt 0.048797607421875 0.2666015625
vt 0.1773681640625 0.2666015625
vt 0.048797607421875 0.2666015625
vt 0.050048828125 0.26416015625
vt 0.044891357421875 0.26513671875
vt 0.04644775390625 0.26171875
vt 0.048797607421875 0.2666015625
vt 0.1773681640625 0.2666015625
vt 0.17724609375 0.27490234375
vt 0.048797607421875 0.2666015625
vt 0.044891357421875 0.26513671875
vt 0.048797607421875 0.2666015625
vt 0.043701171875 0.27294921875
vt 0.17724609375 0.27490234375
vt 0.048095703125 0.27490234375
vt 0.048797607421875 0.2666015625
vt 0.048797607421875 0.2666015625
vt 0.048095703125 0.27490234375
vt 0.043701171875 0.27294921875
vn 0.5878710746765137 -0.08608388900756836 -0.8043614029884338
vn 0.3542286455631256 -0.4770488739013672 -0.8043298125267029
vn 0.9894476532936096 -0.1448911726474762 0.0
vn 0.5961721539497375 -0.8028566241264343 0.0
vn -0.47406238317489624 0.11224034428596497 -0.8733079433441162
vn -0.32343199849128723 0.36447471380233765 -0.8732410669326782
vn -0.9322750568389893 0.1178382933139801 -0.3420194089412689
vn -0.5451858043670654 0.7653831839561462 -0.3419957458972931
vn -0.5966864228248596 0.8024745583534241 0.0
vn -0.9893455505371094 0.1455862820148468 0.0
vn -0.5154197216033936 -0.856937825679779 0.0
vn -0.14750134944915771 -0.9890619516372681 0.0
vn -0.36478370428085327 -0.6064804196357727 -0.7064802646636963
vn -0.08764897286891937 -0.5876116752624512 -0.8043818473815918
vn 0.1963353455066681 0.3284410238265991 -0.9238932728767395
vn 0.11578855663537979 0.4759962260723114 -0.8717915415763855
vn 0.11782713234424591 0.9323737621307373 -0.3417539596557617
vn 0.47397977113723755 0.7930124998092651 -0.38271987438201904
vn 0.5130411982536316 0.8583640456199646 0.0
vn 0.14549033343791962 0.9893596768379211 0.0
vn 0.5107654929161072 0.8597200512886047 0.0
vn 0.36147406697273254 0.6084426045417786 -0.706494152545929
vn 0.8012804388999939 0.5982889533042908 0.0
vn 0.47608309984207153 0.3554808497428894 -0.8043496608734131
vn -0.1942179650068283 -0.3285193145275116 -0.9243130087852478
vn -0.3650067448616028 -0.3255973756313324 -0.8722134232521057
vn -0.47269508242607117 -0.7942744493484497 -0.3816901445388794
vn -0.7659962177276611 -0.5447814464569092 -0.34126678109169006
vn -0.5131469368934631 -0.8583007454872131 0.0
vn -0.8025346398353577 -0.596605658531189 0.0
vn 0.4614463150501251 0.8857821226119995 0.0495707131922245
vn 0.45938220620155334 0.8867447972297668 0.05149336904287338
vn 0.4612177908420563 0.8858867287635803 0.04982855170965195
vn 0.45910564064979553 0.8868703842163086 0.05179719626903534
vn 0.4590218961238861 0.8868929743766785 0.052151795476675034
vn 0.4611479640007019 0.8859043717384338 0.0501599945127964
vn 0.459160178899765 0.886803925037384 0.05244673788547516
vn 0.46126100420951843 0.8858282566070557 0.050462670624256134
vn 0.4596058428287506 0.8865665197372437 0.0525592677295208
vn 0.4616279602050781 0.8856276869773865 0.050629623234272
vn 0.4608672857284546 0.8859151005744934 0.05249414220452309
vn 0.4627074599266052 0.8850601315498352 0.050697967410087585
vn 0.461112916469574 0.8857917189598083 0.052419763058423996
vn 0.4629186987876892 0.8849524855613708 0.05065120756626129
vn 0.46128049492836 0.8857145309448242 0.05225098878145218
vn 0.46306312084198 0.8848851919174194 0.050504881888628006
vn 0.46136823296546936 0.885682225227356 0.052023567259311676
vn 0.4631390869617462 0.8848575353622437 0.05029343068599701
vn 0.46136730909347534 0.8856968879699707 0.05177987366914749
vn 0.46313878893852234 0.8848710656166077 0.05005711689591408
vn 0.46125108003616333 0.8857693076133728 0.05157638341188431
vn 0.4630390703678131 0.8849349617958069 0.049848075956106186
vn 0.4610520899295807 0.8858829140663147 0.05140556022524834
vn 0.46286818385124207 0.8850348591804504 0.04966244101524353
vn 0.46850842237472534 0.8820664882659912 0.049583181738853455
vn 0.46161818504333496 0.8856930732727051 0.04956218972802162
vn 0.46851781010627747 0.8820469975471497 0.0498417504131794
vn 0.4613896906375885 0.8857976794242859 0.04981998726725578
vn 0.4685143232345581 0.8820300102233887 0.05017353221774101
vn 0.46131986379623413 0.8858153223991394 0.05015137419104576
vn 0.46143287420272827 0.8857393264770508 0.05045400559902191
vn 0.46849876642227173 0.8820209503173828 0.05047594755887985
vn 0.46179983019828796 0.8855385184288025 0.0506209060549736
vn 0.46846944093704224 0.8820270895957947 0.05064158886671066
vn 0.4628791809082031 0.8849709033966064 0.05068925395607948
vn 0.468409925699234 0.88205486536026 0.050707217305898666
vn 0.4630904197692871 0.8848630785942078 0.050642505288124084
vn 0.4683998227119446 0.8820630311965942 0.05066007748246193
vn 0.46323493123054504 0.8847958445549011 0.050496213138103485
vn 0.4683957099914551 0.8820735812187195 0.05051347240805626
vn 0.46331074833869934 0.8847680687904358 0.05028478428721428
vn 0.46839702129364014 0.8820850849151611 0.05030185729265213
vn 0.46840283274650574 0.8820953369140625 0.05006550997495651
vn 0.46331045031547546 0.8847816586494446 0.05004851892590523
vn 0.4684133529663086 0.8821016550064087 0.049856629222631454
vn 0.4632107615470886 0.8848456144332886 0.04983951523900032
vn 0.46842697262763977 0.8821048140525818 0.04967126250267029
vn 0.46303990483283997 0.8849455118179321 0.049653906375169754
vn 0.46670785546302795 0.8829091787338257 0.05152729153633118
vn 0.45954039692878723 0.8866622447967529 0.051503736525774
vn 0.46668383479118347 0.882904052734375 0.05183236300945282
vn 0.4592638313770294 0.8867878317832947 0.05180763453245163
vn 0.46667060256004333 0.8828902244567871 0.05218743532896042
vn 0.45918014645576477 0.8868104815483093 0.05216230824589729
vn 0.4593183994293213 0.8867214918136597 0.0524573028087616
vn 0.4666723608970642 0.882871687412262 0.05248198285698891
vn 0.4597639739513397 0.8864837884902954 0.052569836378097534
vn 0.46669718623161316 0.8828519582748413 0.05259305238723755
vn 0.4610254764556885 0.8858321905136108 0.05250464752316475
vn 0.4667614698410034 0.8828222751617432 0.05252246558666229
vn 0.4612710475921631 0.8857088088989258 0.052430231124162674
vn 0.46677538752555847 0.8828193545341492 0.05244685336947441
vn 0.4614385962486267 0.8856315016746521 0.052261415868997574
vn 0.4667876064777374 0.8828230500221252 0.05227719992399216
vn 0.4615263342857361 0.8855992555618286 0.052033931016922
vn 0.46679726243019104 0.8828313946723938 0.05204926058650017
vn 0.4668028950691223 0.8828427195549011 0.05180548131465912
vn 0.46152544021606445 0.8856139779090881 0.05179019272327423
vn 0.4668017625808716 0.8828551173210144 0.05160246789455414
vn 0.46140924096107483 0.885686457157135 0.05158668011426926
vn 0.4667957127094269 0.8828681707382202 0.0514325276017189
vn 0.4612102210521698 0.8858000040054321 0.051415834575891495
f 1/1/1 2/2/2 3/3/3
f 2/4/2 4/5/4 3/6/3
f 1/7/1 5/8/5 2/9/2
f 5/10/5 6/11/6 2/12/2
f 6/13/6 5/14/5 7/15/7
f 8/16/8 6/17/6 7/18/7
f 8/19/8 7/20/7 9/21/9
f 7/22/7 10/23/10 9/24/9
f 11/25/11 12/26/12 13/27/13
f 12/28/12 14/29/14 13/30/13
f 12/31/12 4/32/4 14/33/14
f 13/34/13 14/35/14 15/36/15
f 4/37/4 2/38/2 14/39/14
f 14/40/14 2/41/2 16/42/16
f 14/43/14 16/44/16 15/45/15
f 2/46/2 6/47/6 16/48/16
f 6/49/6 8/50/8 16/51/16
f 16/52/16 17/53/17 15/54/15
f 8/55/8 17/56/17 16/57/16
f 17/58/17 18/59/18 15/60/15
f 18/61/18 17/62/17 19/63/19
f 17/64/17 20/65/20 19/66/19
f 17/67/17 8/68/8 20/69/20
f 8/70/8 9/71/9 20/72/20
f 21/73/21 22/74/22 23/75/23
f 1/76/1 3/77/3 23/78/23
f 22/79/22 24/80/24 23/81/23
f 24/82/24 1/83/1 23/84/23
f 22/85/22 25/86/25 24/87/24
f 5/88/5 1/89/1 24/90/24
f 25/91/25 26/92/26 24/93/24
f 26/94/26 5/95/5 24/96/24
f 25/97/25 27/98/27 26/99/26
f 5/100/5 26/101/26 28/102/28
f 27/103/27 28/104/28 26/105/26
f 7/106/7 5/107/5 28/108/28
f 27/109/27 29/110/29 28/111/28
f 7/112/7 28/113/28 10/114/10
f 29/115/29 30/116/30 28/117/28
f 28/118/28 30/119/30 10/120/10
