# Exported by Lightwave Blender addon
v 105.15132904052734 780.7344360351562 496.44451904296875
v 105.20476531982422 780.7340698242188 548.8687744140625
v 105.79474639892578 781.8973999023438 496.44451904296875
v 105.8234634399414 781.8523559570312 548.8687744140625
v 106.7782211303711 779.7685546875 496.44451904296875
v 106.8061294555664 779.8189697265625 548.89501953125
v 107.44953918457031 780.9818725585938 548.89501953125
v 107.47740936279297 781.0323486328125 496.44451904296875
v 60.197593688964844 699.48193359375 496.4444885253906
v 60.25102996826172 699.4815063476562 548.8687744140625
v 60.84100341796875 700.6448974609375 496.4444885253906
v 60.869728088378906 700.5997924804688 548.8687744140625
v 61.824493408203125 698.5160522460938 496.4444885253906
v 61.852394104003906 698.56640625 548.8949584960938
v 62.49580383300781 699.7293701171875 548.8949584960938
v 62.52367401123047 699.77978515625 496.4444885253906
v 112.19351196289062 787.9567260742188 539.9951782226562
v 58.8057746887207 691.4599609375 539.9951782226562
v 109.25907135009766 789.5802612304688 540.0186767578125
v 55.87134552001953 693.0834350585938 540.0186767578125
v 58.80577850341797 691.4599609375 541.57421875
v 112.1935043334961 787.9567260742188 541.5742797851562
v 55.87134552001953 693.08349609375 541.5507202148438
v 109.25907897949219 789.5802612304688 541.55078125
v 112.19351196289062 787.9567260742188 495.18829345703125
v 58.8057746887207 691.4599609375 495.1882629394531
v 109.25907897949219 789.5802612304688 495.2117919921875
v 55.871341705322266 693.0834350585938 495.2117919921875
v 58.8057746887207 691.4599609375 496.7673645019531
v 112.19351196289062 787.9567260742188 496.7673645019531
v 55.871337890625 693.0834350585938 496.74383544921875
v 109.25907135009766 789.5802612304688 496.74383544921875
v 55.61476516723633 693.2254028320312 540.2340698242188
v 109.00250244140625 789.7222290039062 540.2340698242188
v 109.00249481201172 789.7222290039062 541.3353271484375
v 55.61476516723633 693.2254028320312 541.3352661132812
v 55.61476516723633 693.2254028320312 495.42718505859375
v 109.00250244140625 789.72216796875 495.4271545410156
v 109.00248718261719 789.72216796875 496.5284118652344
v 55.61476516723633 693.2254028320312 496.5284423828125
v 114.4894790649414 787.8651123046875 548.7239990234375
v 59.92021942138672 689.2327880859375 548.7239990234375
v 109.61402893066406 790.5625 548.7239990234375
v 55.044769287109375 691.93017578125 548.7239990234375
v 113.7864990234375 788.2540283203125 552.47021484375
v 112.0517578125 789.2138061523438 553.0781860351562
v 59.21722412109375 689.6217041015625 552.47021484375
v 57.48249435424805 690.5814819335938 553.0781860351562
v 110.3170166015625 790.173583984375 552.47021484375
v 55.747764587402344 691.5411987304688 552.4702758789062
v 114.5949478149414 787.8067626953125 550.7335815429688
v 60.02568817138672 689.1744384765625 550.7335815429688
v 114.43688201904297 787.8942260742188 551.324951171875
v 59.86762237548828 689.2618408203125 551.324951171875
v 109.6666259765625 790.5333862304688 551.324951171875
v 55.09736633300781 691.9010620117188 551.324951171875
v 109.50856018066406 790.620849609375 550.7335815429688
v 54.939300537109375 691.988525390625 550.7335815429688
vt 0.9013671875 0.14697265625
vt 0.38427734375 0.146484375
vt 0.9013671875 0.13330078125
vt 0.38427734375 0.146484375
vt 0.38427734375 0.1337890625
vt 0.9013671875 0.13330078125
vt 1.1416015625 0.509033203125
vt 0.4404296875 0.509033203125
vt 1.1416015625 0.4951171875
vt 0.4404296875 0.509033203125
vt 0.440673828125 0.49560546875
vt 1.1416015625 0.4951171875
vt 0.51513671875 0.660888671875
vt 0.4970703125 0.660888671875
vt 0.5146484375 0.647216796875
vt 0.4970703125 0.660888671875
vt 0.497314453125 0.647216796875
vt 0.5146484375 0.647216796875
vt 0.50146484375 0.532958984375
vt -0.199462890625 0.532958984375
vt 0.5009765625 0.51904296875
vt -0.199462890625 0.532958984375
vt -0.199462890625 0.518798828125
vt 0.5009765625 0.51904296875
vt 1.048828125 0.41845703125
vt 0.5322265625 0.41845703125
vt 1.048828125 0.40478515625
vt 0.5322265625 0.41845703125
vt 0.5322265625 0.4052734375
vt 1.048828125 0.40478515625
vt 1.1279296875 0.455078125
vt 0.4267578125 0.455078125
vt 1.1279296875 0.44091796875
vt 0.4267578125 0.455078125
vt 0.42724609375 0.44140625
vt 1.1279296875 0.44091796875
vt 0.1475830078125 0.9154052734375
vt 0.1295166015625 0.9154052734375
vt 0.147216796875 0.90185546875
vt 0.1295166015625 0.9154052734375
vt 0.1298828125 0.90185546875
vt 0.147216796875 0.90185546875
vt 1.1279296875 0.48193359375
vt 0.427001953125 0.48193359375
vt 1.126953125 0.46826171875
vt 0.427001953125 0.48193359375
vt 0.427001953125 0.4677734375
vt 1.126953125 0.46826171875
vt 1.30859375 0.36865234375
vt -0.1868896484375 0.36865234375
vt 1.30859375 0.34423828125
vt -0.1868896484375 0.36865234375
vt -0.1868896484375 0.34423828125
vt 1.30859375 0.34423828125
vt 1.0625 0.48974609375
vt -0.432861328125 0.48974609375
vt 1.0625 0.46484375
vt -0.432861328125 0.48974609375
vt -0.432861328125 0.46484375
vt 1.0625 0.46484375
vt 1.30859375 0.287109375
vt -0.186767578125 0.287109375
vt 1.30859375 0.2626953125
vt -0.186767578125 0.287109375
vt -0.186767578125 0.2626953125
vt 1.30859375 0.2626953125
vt 1.0625 0.46240234375
vt -0.432861328125 0.46240234375
vt 1.0625 0.43798828125
vt -0.432861328125 0.46240234375
vt -0.432861328125 0.43798828125
vt 1.0625 0.43798828125
vt -0.294189453125 -0.017578125
vt 0.923828125 0.07666015625
vt 0.923828125 0.0791015625
vt -0.29443359375 -0.0146484375
vt -0.294189453125 -0.017578125
vt 0.923828125 0.0791015625
vt -0.29443359375 -0.0146484375
vt 0.923828125 0.0791015625
vt -0.295166015625 -0.0029296875
vt 0.923828125 0.0791015625
vt 0.9228515625 0.0908203125
vt -0.295166015625 -0.0029296875
vt 0.9228515625 0.0908203125
vt 0.92236328125 0.09326171875
vt -0.295166015625 -0.0029296875
vt 0.92236328125 0.09326171875
vt -0.29541015625 -0.0009765625
vt -0.295166015625 -0.0029296875
vt 0.92529296875 0.0830078125
vt -0.29541015625 0.12939453125
vt -0.29541015625 0.12744140625
vt 0.92529296875 0.0810546875
vt 0.92529296875 0.0830078125
vt -0.29541015625 0.12744140625
vt 0.92529296875 0.0810546875
vt -0.29541015625 0.12744140625
vt 0.9248046875 0.06884765625
vt -0.29541015625 0.12744140625
vt -0.2958984375 0.115234375
vt 0.9248046875 0.06884765625
vt -0.2958984375 0.115234375
vt -0.2958984375 0.11328125
vt 0.9248046875 0.06884765625
vt -0.2958984375 0.11328125
vt 0.9248046875 0.06689453125
vt 0.9248046875 0.06884765625
vn -0.965114176273346 -0.2618255317211151 0.001379498397000134
vn -0.7890844345092773 -0.21895980834960938 0.573935866355896
vn -0.29114651679992676 0.9566779136657715 0.000981492456048727
vn -0.23384159803390503 0.7847021222114563 0.5740736722946167
vn -0.5105049014091492 -0.8598742485046387 0.0010981387458741665
vn -0.35970547795295715 -0.6086297035217285 0.7072353363037109
vn 0.32465699315071106 0.6277934908866882 0.7074413895606995
vn 0.4575459659099579 0.8891857862472534 0.0005268053500913084
vn -0.9651136994361877 -0.26182788610458374 0.0013791435630992055
vn -0.7890751957893372 -0.21896401047706604 0.5739468336105347
vn -0.2911345064640045 0.9566816091537476 0.000982560683041811
vn -0.23384615778923035 0.7846918106079102 0.5740858912467957
vn -0.5105031132698059 -0.8598752021789551 0.0010970645816996694
vn -0.35969147086143494 -0.6086528301239014 0.707222580909729
vn 0.32466375827789307 0.6278002262115479 0.7074322700500488
vn 0.4575686752796173 0.8891740441322327 0.0005277061136439443
vn -0.006130953785032034 0.0033920076675713062 -0.9999755024909973
vn -0.006131024099886417 0.0033920439891517162 -0.9999754428863525
vn -0.27548179030418396 0.1524127870798111 -0.9491469860076904
vn -0.27546927332878113 0.15240579843521118 -0.9491517543792725
vn -0.006131228990852833 0.003391526872292161 0.9999753832817078
vn -0.006131244823336601 0.00339153571985662 0.9999754428863525
vn -0.27555757761001587 0.15245409309864044 0.9491184949874878
vn -0.2755281925201416 0.1524379402399063 0.9491294622421265
vn -0.0061308289878070354 0.0033922544680535793 -0.9999755024909973
vn -0.006138823460787535 0.0033963657915592194 -0.9999753832817078
vn -0.27545592188835144 0.15239860117435455 -0.9491568207740784
vn -0.2754749059677124 0.15240895748138428 -0.9491496086120605
vn -0.0061389729380607605 0.003396444022655487 0.9999754428863525
vn -0.006138917524367571 0.003396410495042801 0.9999753832817078
vn -0.27547910809516907 0.15241147577762604 0.9491481184959412
vn -0.2755109965801239 0.15242889523506165 0.949135959148407
vn -0.7806697487831116 0.43191251158714294 -0.4516705870628357
vn -0.7806761860847473 0.43191611766815186 -0.45165616273880005
vn -0.7806965112686157 0.4319271445274353 0.4516103267669678
vn -0.7807149291038513 0.43193721771240234 0.4515688717365265
vn -0.7806724309921265 0.4319140911102295 -0.4516645669937134
vn -0.7806582450866699 0.4319062829017639 -0.45169633626937866
vn -0.7806868553161621 0.43192216753959656 0.4516318738460541
vn -0.7806705236434937 0.43191325664520264 0.45166856050491333
vn 0.11840617656707764 0.8148180246353149 0.5674958825111389
vn 0.067858025431633 0.7805374264717102 0.6214150786399841
vn 0.11317253857851028 0.8162273168563843 0.5665377378463745
vn 0.0622105710208416 0.782006561756134 0.6201576590538025
vn 0.11739209294319153 0.8132317066192627 0.5699765682220459
vn 0.11549214273691177 0.8134454488754272 0.5700596570968628
vn 0.06686590611934662 0.7786953449249268 0.6238289475440979
vn 0.06483298540115356 0.7788885831832886 0.6238022446632385
vn 0.11367648839950562 0.8142366409301758 0.5692945122718811
vn 0.06285811960697174 0.7797439098358154 0.6229351758956909
vn 0.11837973445653915 0.8138260841369629 0.5689229369163513
vn 0.06788429617881775 0.7794016599655151 0.6228359937667847
vn 0.11816895753145218 0.8135894536972046 0.5693050622940063
vn 0.06767294555902481 0.7791252732276917 0.6232047080993652
vn 0.11305662989616394 0.8149703145027161 0.5683674812316895
vn 0.06215791031718254 0.7805658578872681 0.6219754219055176
vn 0.11292658746242523 0.8152980208396912 0.5679233074188232
vn 0.06200121343135834 0.7809368968009949 0.62152498960495
f 1/1/1 2/2/2 3/3/3
f 2/4/2 4/5/4 3/6/3
f 5/7/5 6/8/6 1/9/1
f 6/10/6 2/11/2 1/12/1
f 6/13/6 7/14/7 2/15/2
f 7/16/7 4/17/4 2/18/2
f 7/19/7 8/20/8 4/21/4
f 8/22/8 3/23/3 4/24/4
f 9/25/9 10/26/10 11/27/11
f 10/28/10 12/29/12 11/30/11
f 13/31/13 14/32/14 9/33/9
f 14/34/14 10/35/10 9/36/9
f 14/37/14 15/38/15 10/39/10
f 15/40/15 12/41/12 10/42/10
f 15/43/15 16/44/16 12/45/12
f 16/46/16 11/47/11 12/48/12
f 17/49/17 18/50/18 19/51/19
f 18/52/18 20/53/20 19/54/19
f 21/55/21 22/56/22 23/57/23
f 22/58/22 24/59/24 23/60/23
f 25/61/25 26/62/26 27/63/27
f 26/64/26 28/65/28 27/66/27
f 29/67/29 30/68/30 31/69/31
f 30/70/30 32/71/32 31/72/31
f 19/73/19 20/74/20 33/75/33
f 34/76/34 19/77/19 33/78/33
f 34/79/34 33/80/33 35/81/35
f 33/82/33 36/83/36 35/84/35
f 36/85/36 23/86/23 35/87/35
f 23/88/23 24/89/24 35/90/35
f 27/91/27 28/92/28 37/93/37
f 38/94/38 27/95/27 37/96/37
f 38/97/38 37/98/37 39/99/39
f 37/100/37 40/101/40 39/102/39
f 40/103/40 31/104/31 39/105/39
f 31/106/31 32/107/32 39/108/39
