# Exported by Lightwave Blender addon
v 2617.87109375 -1151.0035400390625 166.99273681640625
v 2508.580810546875 -1106.9803466796875 166.99273681640625
v 2617.87109375 -1151.0035400390625 169.05581665039062
v 2508.580810546875 -1106.9803466796875 169.05581665039062
v 2619.944580078125 -1155.9615478515625 166.99264526367188
v 2503.6494140625 -1109.116943359375 166.99264526367188
v 2620.108154296875 -1156.35302734375 167.41696166992188
v 2503.26025390625 -1109.28564453125 167.41696166992188
v 2503.26025390625 -1109.28564453125 169.0557098388672
v 2620.108154296875 -1156.35302734375 169.0557098388672
v 2516.3955078125 -1086.06494140625 169.05564880371094
v 2508.2353515625 -1106.16552734375 169.05580139160156
v 2516.3955078125 -1086.06494140625 166.99256896972656
v 2508.2353515625 -1106.16552734375 166.9927215576172
v 2512.9521484375 -1084.67822265625 166.99256896972656
v 2503.302490234375 -1108.30126953125 166.99264526367188
v 2502.912841796875 -1108.469970703125 167.41696166992188
v 2512.55859375 -1084.5196533203125 167.41690063476562
v 2512.55859375 -1084.5196533203125 169.05564880371094
v 2502.912841796875 -1108.469970703125 169.0557098388672
v 2626.736083984375 -1130.51123046875 169.05564880371094
v 2626.736083984375 -1130.51123046875 166.99256896972656
v 2618.685302734375 -1150.6556396484375 169.05580139160156
v 2618.685302734375 -1150.6556396484375 166.9927215576172
v 2630.17919921875 -1131.898193359375 166.99256896972656
v 2620.76025390625 -1155.6143798828125 166.99264526367188
v 2630.57275390625 -1132.0567626953125 167.41690063476562
v 2620.924072265625 -1156.005859375 167.41696166992188
v 2630.57275390625 -1132.0567626953125 169.05564880371094
v 2620.924072265625 -1156.005859375 169.0557098388672
v 2501.93115234375 -1109.677490234375 169.60719299316406
v 2620.794677734375 -1157.556884765625 169.60719299316406
v 2500.4951171875 -1110.1009521484375 170.55276489257812
v 2621.536376953125 -1158.857421875 170.55276489257812
v 2621.743408203125 -1159.220703125 171.707275390625
v 2500.093994140625 -1110.21923828125 171.707275390625
v 2621.34326171875 -1158.5189208984375 172.71261596679688
v 2500.86865234375 -1109.99072265625 172.71261596679688
v 2620.108154296875 -1156.35302734375 173.18194580078125
v 2503.26025390625 -1109.28564453125 173.18194580078125
v 2617.71142578125 -1150.614013671875 173.1820526123047
v 2508.9658203125 -1106.810302734375 173.1820526123047
v 2617.257568359375 -1149.50537109375 172.97711181640625
v 2510.0615234375 -1106.325927734375 172.97711181640625
v 2616.95263671875 -1148.76123046875 172.4461669921875
v 2510.797119140625 -1106.0008544921875 172.4461669921875
v 2616.79931640625 -1148.3868408203125 171.7073211669922
v 2511.1669921875 -1105.8372802734375 171.7073211669922
v 2616.811767578125 -1148.4176025390625 170.89971923828125
v 2511.13671875 -1105.8507080078125 170.89971923828125
v 2617.03759765625 -1148.9688720703125 170.2061767578125
v 2510.591796875 -1106.091552734375 170.2061767578125
v 2617.416015625 -1149.89306640625 169.60733032226562
v 2509.678466796875 -1106.495361328125 169.60733032226562
v 2511.552490234375 -1084.114501953125 169.60714721679688
v 2501.583740234375 -1108.8619384765625 169.60719299316406
v 2510.455810546875 -1083.6727294921875 170.552734375
v 2500.1474609375 -1109.2852783203125 170.55276489257812
v 2510.153564453125 -1083.551025390625 171.70726013183594
v 2499.74658203125 -1109.4033203125 171.707275390625
v 2500.521484375 -1109.175048828125 172.71261596679688
v 2510.746337890625 -1083.789794921875 172.7126007080078
v 2502.912841796875 -1108.469970703125 173.18194580078125
v 2512.55859375 -1084.5196533203125 173.181884765625
v 2508.6201171875 -1105.995361328125 173.1820526123047
v 2516.675048828125 -1086.1776123046875 173.181884765625
v 2509.717041015625 -1105.51123046875 172.97711181640625
v 2517.4716796875 -1086.4984130859375 172.9769287109375
v 2510.452880859375 -1105.186279296875 172.4461669921875
v 2518.006103515625 -1086.7137451171875 172.4459686279297
v 2510.822998046875 -1105.02294921875 171.70730590820312
v 2518.275146484375 -1086.8221435546875 171.7071075439453
v 2518.253173828125 -1086.8133544921875 170.89950561523438
v 2510.79296875 -1105.0362548828125 170.8997039794922
v 2517.857177734375 -1086.6536865234375 170.2059783935547
v 2510.247314453125 -1105.277099609375 170.2061767578125
v 2517.193115234375 -1086.38623046875 169.60714721679688
v 2509.33349609375 -1105.680419921875 169.60733032226562
v 2631.578857421875 -1132.462158203125 169.60714721679688
v 2621.6103515625 -1157.2095947265625 169.60719299316406
v 2632.67529296875 -1132.9039306640625 170.552734375
v 2622.352294921875 -1158.51025390625 170.55276489257812
v 2632.9775390625 -1133.0255126953125 171.70726013183594
v 2622.559326171875 -1158.8734130859375 171.707275390625
v 2622.158935546875 -1158.171630859375 172.71261596679688
v 2632.384765625 -1132.7869873046875 172.7126007080078
v 2620.924072265625 -1156.005859375 173.18194580078125
v 2630.57275390625 -1132.0567626953125 173.181884765625
v 2618.525390625 -1150.26611328125 173.1820526123047
v 2626.456298828125 -1130.3985595703125 173.181884765625
v 2618.070556640625 -1149.156982421875 172.97711181640625
v 2625.659912109375 -1130.0775146484375 172.9769287109375
v 2617.765380859375 -1148.4127197265625 172.4461669921875
v 2625.125244140625 -1129.8621826171875 172.4459686279297
v 2617.61181640625 -1148.038330078125 171.70730590820312
v 2624.856201171875 -1129.7537841796875 171.7071075439453
v 2624.87841796875 -1129.7626953125 170.89950561523438
v 2617.62451171875 -1148.06884765625 170.8997039794922
v 2625.2744140625 -1129.9222412109375 170.2059783935547
v 2617.8505859375 -1148.6204833984375 170.2061767578125
v 2625.938232421875 -1130.189697265625 169.60714721679688
v 2618.2294921875 -1149.5447998046875 169.60733032226562
vt 0.79443359375 0.1611328125
vt 0.2054443359375 0.1611328125
vt 0.79443359375 0.15087890625
vt 0.2054443359375 0.1611328125
vt 0.2054443359375 0.15087890625
vt 0.79443359375 0.15087890625
vt 0.79443359375 0.037109375
vt 0.8134765625 0.056640625
vt 0.205322265625 0.037109375
vt 0.8134765625 0.056640625
vt 0.1864013671875 0.056640625
vt 0.205322265625 0.037109375
vt 0.1864013671875 0.056640625
vt 0.8134765625 0.056640625
vt 0.81494140625 0.05908203125
vt 0.1849365234375 0.05908203125
vt 0.1864013671875 0.056640625
vt 0.81494140625 0.05908203125
vt 0.1849365234375 0.05908203125
vt 0.81494140625 0.05908203125
vt 0.1849365234375 0.0673828125
vt 0.81494140625 0.05908203125
vt 0.81494140625 0.0673828125
vt 0.1849365234375 0.0673828125
vt 0.04345703125 0.4365234375
vt 0.1510009765625 0.4365234375
vt 0.043548583984375 0.44677734375
vt 0.1510009765625 0.4365234375
vt 0.151611328125 0.44677734375
vt 0.043548583984375 0.44677734375
vt 0.1510009765625 0.4365234375
vt 0.155029296875 0.435546875
vt 0.151611328125 0.44677734375
vt 0.043548583984375 0.44677734375
vt 0.151611328125 0.44677734375
vt 0.043670654296875 0.4658203125
vt 0.155029296875 0.435546875
vt 0.1556396484375 0.4453125
vt 0.151611328125 0.44677734375
vt 0.151611328125 0.44677734375
vt 0.1556396484375 0.4453125
vt 0.170654296875 0.46630859375
vt 0.151611328125 0.44677734375
vt 0.170654296875 0.46630859375
vt 0.043670654296875 0.4658203125
vt 0.1556396484375 0.4453125
vt 0.1741943359375 0.4638671875
vt 0.170654296875 0.46630859375
vt 0.1741943359375 0.4638671875
vt 0.17578125 0.466796875
vt 0.170654296875 0.46630859375
vt 0.170654296875 0.46630859375
vt 0.171875 0.46826171875
vt 0.043670654296875 0.4658203125
vt 0.17578125 0.466796875
vt 0.171875 0.46826171875
vt 0.170654296875 0.46630859375
vt 0.171875 0.46826171875
vt 0.043731689453125 0.46875
vt 0.043670654296875 0.4658203125
vt 0.043731689453125 0.46875
vt 0.171875 0.46826171875
vt 0.043853759765625 0.4765625
vt 0.171875 0.46826171875
vt 0.172607421875 0.4765625
vt 0.043853759765625 0.4765625
vt 0.171875 0.46826171875
vt 0.17578125 0.466796875
vt 0.172607421875 0.4765625
vt 0.17578125 0.466796875
vt 0.177001953125 0.47509765625
vt 0.172607421875 0.4765625
vt 0.1776123046875 0.234375
vt 0.177490234375 0.2451171875
vt 0.06964111328125 0.234375
vt 0.0650634765625 0.2431640625
vt 0.06561279296875 0.23388671875
vt 0.06964111328125 0.234375
vt 0.177490234375 0.2451171875
vt 0.06903076171875 0.2451171875
vt 0.06964111328125 0.234375
vt 0.06903076171875 0.2451171875
vt 0.0650634765625 0.2431640625
vt 0.06964111328125 0.234375
vt 0.177490234375 0.2451171875
vt 0.1773681640625 0.263671875
vt 0.06903076171875 0.2451171875
vt 0.04644775390625 0.26171875
vt 0.0650634765625 0.2431640625
vt 0.06903076171875 0.2451171875
vt 0.1773681640625 0.263671875
vt 0.050048828125 0.26416015625
vt 0.06903076171875 0.2451171875
vt 0.050048828125 0.26416015625
vt 0.04644775390625 0.26171875
vt 0.06903076171875 0.2451171875
vt 0.1773681640625 0.263671875
vt 0.1773681640625 0.2666015625
vt 0.050048828125 0.26416015625
vt 0.04644775390625 0.26171875
vt 0.050048828125 0.26416015625
vt 0.048797607421875 0.2666015625
vt 0.1773681640625 0.2666015625
vt 0.048797607421875 0.2666015625
vt 0.050048828125 0.26416015625
vt 0.044891357421875 0.26513671875
vt 0.04644775390625 0.26171875
vt 0.048797607421875 0.2666015625
vt 0.1773681640625 0.2666015625
vt 0.17724609375 0.27490234375
vt 0.048797607421875 0.2666015625
vt 0.044891357421875 0.26513671875
vt 0.048797607421875 0.2666015625
vt 0.043701171875 0.27294921875
vt 0.17724609375 0.27490234375
vt 0.048095703125 0.27490234375
vt 0.048797607421875 0.2666015625
vt 0.048797607421875 0.2666015625
vt 0.048095703125 0.27490234375
vt 0.043701171875 0.27294921875
vn -0.006201107054948807 0.5941152572631836 -0.804356038570404
vn 0.4163042902946472 0.42389360070228577 -0.8043661713600159
vn -0.010434987023472786 0.9999456405639648 0.0
vn 0.7006802558898926 0.7134755253791809 0.0
vn -0.037325456738471985 -0.48579683899879456 -0.8732745051383972
vn -0.30997058749198914 -0.37604212760925293 -0.8732185363769531
vn 0.028240110725164413 -0.9392877817153931 -0.341966450214386
vn -0.6714618802070618 -0.6574186682701111 -0.34196436405181885
vn -0.7000988125801086 -0.7140459418296814 0.0
vn 0.009677156805992126 -0.9999531507492065 0.0
vn 0.926558256149292 -0.37615126371383667 0.0
vn 0.999970555305481 0.00767989968881011 0.0
vn 0.6557574272155762 -0.26622065901756287 -0.7064762115478516
vn 0.594143807888031 0.004546333570033312 -0.8043459057807922
vn -0.35499703884124756 0.14299678802490234 -0.923866331577301
vn -0.48828816413879395 0.04059518128633499 -0.8717377185821533
vn -0.9393662810325623 -0.02840760536491871 -0.34173673391342163
vn -0.857000470161438 0.34514743089675903 -0.38265305757522583
vn -0.9275976419448853 0.3735807240009308 0.0
vn -0.9999510645866394 -0.009887715801596642 0.0
vn -0.9285876154899597 0.3711131811141968 0.0
vn -0.6571851372718811 0.2626408636569977 -0.7064895033836365
vn -0.7154068350791931 0.698708176612854 0.0
vn -0.42506033182144165 0.41513240337371826 -0.8043561577796936
vn 0.3547287583351135 -0.14088654518127441 -0.9242934584617615
vn 0.3783201575279236 -0.31008943915367126 -0.8721917271614075
vn 0.8580405116081238 -0.3436797857284546 -0.38164207339286804
vn 0.6570447683334351 -0.6722005605697632 -0.3412308096885681
vn 0.9275517463684082 -0.3736947178840637 0.0
vn 0.7138970494270325 -0.7002506852149963 0.0
vn 0.9123718738555908 -0.4046628475189209 0.061850156635046005
vn 0.9131484031677246 -0.40332087874412537 0.05909525975584984
vn 0.9122074842453003 -0.4049767553806305 0.06221948191523552
vn 0.9130066633224487 -0.4035971164703369 0.05939868465065956
vn 0.9129500985145569 -0.40366676449775696 0.05979234352707863
vn 0.9121430516242981 -0.40505626797676086 0.06264628469944
vn 0.912997841835022 -0.4035050570964813 0.0601547509431839
vn 0.9122002720832825 -0.4048728346824646 0.06299750506877899
vn 0.9131951928138733 -0.40302762389183044 0.060359690338373184
vn 0.9124314785003662 -0.4043315649032593 0.06312434375286102
vn 0.9137925505638123 -0.4016571640968323 0.060454513877630234
vn 0.9131103754043579 -0.4028113782405853 0.06302769482135773
vn 0.9139124155044556 -0.4013923704624176 0.06040136516094208
vn 0.9132456183433533 -0.40251895785331726 0.06293494999408722
vn 0.914000391960144 -0.40121787786483765 0.060228776186704636
vn 0.9133446216583252 -0.402326375246048 0.06273019313812256
vn 0.9140536785125732 -0.40113401412963867 0.05997774004936218
vn 0.913404107093811 -0.4022338390350342 0.062456291168928146
vn 0.9140658378601074 -0.4011482000350952 0.05969615280628204
vn 0.9134172797203064 -0.40224936604499817 0.06216417998075485
vn 0.9140214323997498 -0.40128663182258606 0.05944587662816048
vn 0.9133665561676025 -0.40240195393562317 0.06192190572619438
vn 0.9139361381530762 -0.40151384472846985 0.05922263115644455
vn 0.9132696986198425 -0.40265265107154846 0.061719950288534164
vn 0.9163585901260376 -0.3955472409725189 0.06188242882490158
vn 0.9124605059623718 -0.4044608473777771 0.06186475232243538
vn 0.9163331985473633 -0.3955478072166443 0.062252890318632126
vn 0.9122961759567261 -0.40477481484413147 0.06223418563604355
vn 0.9163073897361755 -0.39553987979888916 0.06268008053302765
vn 0.9122316241264343 -0.4048541486263275 0.0626610741019249
vn 0.9122889041900635 -0.4046708047389984 0.06301237642765045
vn 0.9162894487380981 -0.39552587270736694 0.06303095072507858
vn 0.9125199913978577 -0.4041295349597931 0.06313923001289368
vn 0.9162891507148743 -0.3955066204071045 0.0631566047668457
vn 0.9131985306739807 -0.4026091396808624 0.06304246932268143
vn 0.9163107872009277 -0.3954727053642273 0.06305479258298874
vn 0.9133338928222656 -0.4023166298866272 0.06294967234134674
vn 0.9163193106651306 -0.39546799659729004 0.06296082586050034
vn 0.913432776927948 -0.40212398767471313 0.06274484843015671
vn 0.9163331985473633 -0.39546841382980347 0.06275519728660583
vn 0.9134922027587891 -0.40203148126602173 0.06247086822986603
vn 0.9163500666618347 -0.3954728841781616 0.06248078867793083
vn 0.916366696357727 -0.39548030495643616 0.06218859180808067
vn 0.9135054349899292 -0.40204691886901855 0.06217868626117706
vn 0.9163790345191956 -0.39548972249031067 0.061946798115968704
vn 0.9134545922279358 -0.4021995961666107 0.06193637475371361
vn 0.9163879752159119 -0.3955005705356598 0.061745740473270416
vn 0.9133579134941101 -0.4024502635002136 0.0617344006896019
vn 0.9169517755508423 -0.39459702372550964 0.059098199009895325
vn 0.9132401347160339 -0.403114914894104 0.05908280611038208
vn 0.9169390797615051 -0.3945810794830322 0.05940210819244385
vn 0.9130983948707581 -0.4033912122249603 0.05938617140054703
vn 0.9169185161590576 -0.3945692777633667 0.059796012938022614
vn 0.9130419492721558 -0.40346086025238037 0.05977975204586983
vn 0.9130896329879761 -0.40329915285110474 0.06014208123087883
vn 0.916896402835846 -0.39456552267074585 0.06015821173787117
vn 0.9132869243621826 -0.40282168984413147 0.06034696474671364
vn 0.9168788194656372 -0.39457523822784424 0.060362063348293304
vn 0.9138839840888977 -0.401451051235199 0.0604417659342289
vn 0.9168593287467957 -0.3946063816547394 0.060455381870269775
vn 0.9140037894248962 -0.4011862277984619 0.06038864701986313
vn 0.9168594479560852 -0.394614040851593 0.06040216237306595
vn 0.9140917062759399 -0.40101170539855957 0.06021609529852867
vn 0.916867196559906 -0.3946225345134735 0.060229524970054626
vn 0.9141450524330139 -0.400927871465683 0.0599651113152504
vn 0.916880190372467 -0.39463070034980774 0.059978462755680084
vn 0.9168957471847534 -0.39463716745376587 0.05969687178730965
vn 0.9141572713851929 -0.40094193816185 0.059683579951524734
vn 0.9169108271598816 -0.39463984966278076 0.05944662541151047
vn 0.9141128659248352 -0.401080459356308 0.059433359652757645
vn 0.916925311088562 -0.3946397304534912 0.05922343581914902
vn 0.9140275120735168 -0.4013076722621918 0.0592101514339447
f 1/1/1 2/2/2 3/3/3
f 2/4/2 4/5/4 3/6/3
f 1/7/1 5/8/5 2/9/2
f 5/10/5 6/11/6 2/12/2
f 6/13/6 5/14/5 7/15/7
f 8/16/8 6/17/6 7/18/7
f 8/19/8 7/20/7 9/21/9
f 7/22/7 10/23/10 9/24/9
f 11/25/11 12/26/12 13/27/13
f 12/28/12 14/29/14 13/30/13
f 12/31/12 4/32/4 14/33/14
f 13/34/13 14/35/14 15/36/15
f 4/37/4 2/38/2 14/39/14
f 14/40/14 2/41/2 16/42/16
f 14/43/14 16/44/16 15/45/15
f 2/46/2 6/47/6 16/48/16
f 6/49/6 8/50/8 16/51/16
f 16/52/16 17/53/17 15/54/15
f 8/55/8 17/56/17 16/57/16
f 17/58/17 18/59/18 15/60/15
f 18/61/18 17/62/17 19/63/19
f 17/64/17 20/65/20 19/66/19
f 17/67/17 8/68/8 20/69/20
f 8/70/8 9/71/9 20/72/20
f 21/73/21 22/74/22 23/75/23
f 1/76/1 3/77/3 23/78/23
f 22/79/22 24/80/24 23/81/23
f 24/82/24 1/83/1 23/84/23
f 22/85/22 25/86/25 24/87/24
f 5/88/5 1/89/1 24/90/24
f 25/91/25 26/92/26 24/93/24
f 26/94/26 5/95/5 24/96/24
f 25/97/25 27/98/27 26/99/26
f 5/100/5 26/101/26 28/102/28
f 27/103/27 28/104/28 26/105/26
f 7/106/7 5/107/5 28/108/28
f 27/109/27 29/110/29 28/111/28
f 7/112/7 28/113/28 10/114/10
f 29/115/29 30/116/30 28/117/28
f 28/118/28 30/119/30 10/120/10
