# Exported by Lightwave Blender addon
v 1777.66552734375 3216.497802734375 1511.24853515625
v 1608.681396484375 2933.810302734375 1511.24853515625
v 1936.86474609375 3121.332763671875 1511.24853515625
v 1767.880615234375 2838.644775390625 1511.24853515625
v 1817.0762939453125 3192.939208984375 1698.87158203125
v 1936.86474609375 3121.332275390625 1698.87158203125
v 1648.091796875 2910.25146484375 1698.87158203125
v 1767.880615234375 2838.644775390625 1698.87158203125
v 1547.454345703125 2831.38525390625 1511.24853515625
v 1378.469970703125 2548.697509765625 1511.24853515625
v 1706.6533203125 2736.2197265625 1511.24853515625
v 1537.6689453125 2453.531982421875 1511.24853515625
v 1586.86474609375 2807.826416015625 1698.87158203125
v 1706.6533203125 2736.2197265625 1698.87158203125
v 1417.880615234375 2525.138671875 1698.87158203125
v 1537.6689453125 2453.531982421875 1698.87158203125
v 1313.698486328125 2440.343505859375 1511.24853515625
v 1144.714111328125 2157.655517578125 1511.24853515625
v 1472.8975830078125 2345.177978515625 1511.24853515625
v 1303.913330078125 2062.489990234375 1511.24853515625
v 1353.109130859375 2416.78466796875 1698.87158203125
v 1472.8975830078125 2345.177978515625 1698.87158203125
v 1184.124755859375 2134.0966796875 1698.87158203125
v 1303.913330078125 2062.489990234375 1698.87158203125
v 1379.0980224609375 2604.09326171875 21.602092742919922
v 1379.09814453125 2604.093505859375 334.3186950683594
v 1487.6160888671875 2785.468017578125 21.602100372314453
v 1487.615966796875 2785.468017578125 334.3187561035156
v 1333.385986328125 2427.94921875 321.6020812988281
v 1333.3857421875 2427.948974609375 21.60232925415039
v 1115.333984375 2063.177734375 321.60205078125
v 1115.333984375 2063.177490234375 21.602313995361328
v 1260.9783935546875 2471.25537109375 21.602331161499023
v 1260.979248046875 2471.25927734375 321.6020812988281
v 1331.486328125 2589.208251953125 21.602336883544922
v 1331.486328125 2589.20849609375 321.6020812988281
v 1350.5791015625 2621.148193359375 334.3187561035156
v 1350.5792236328125 2621.14794921875 21.602092742919922
v 1260.979248046875 2471.259521484375 458.9579772949219
v 1331.486328125 2589.208251953125 458.9579772949219
v 1018.706298828125 2065.9697265625 459.040771484375
v 1459.023193359375 2802.560302734375 334.3187561035156
v 1467.0673828125 2816.124755859375 458.9579772949219
v 1459.023193359375 2802.56005859375 21.602100372314453
v 1467.0673828125 2816.124755859375 21.602163314819336
v 1018.706298828125 2065.9697265625 21.602558135986328
v 1042.915283203125 2106.4677734375 21.602439880371094
v 1042.9154052734375 2106.468017578125 323.635498046875
v 1047.4285888671875 2087.697265625 1172.0123291015625
v 1047.4285888671875 2087.697509765625 1431.628662109375
v 1247.4915771484375 1968.104248046875 1172.0123291015625
v 1247.4915771484375 1968.104248046875 1431.628662109375
v 1988.8387451171875 3208.27783203125 1172.0123291015625
v 1788.775634765625 3327.87109375 1172.0123291015625
v 1988.8388671875 3208.2783203125 1431.628662109375
v 1788.7760009765625 3327.871337890625 1431.628662109375
v 1047.4285888671875 2087.697509765625 848.5084228515625
v 1047.4285888671875 2087.697509765625 1108.124755859375
v 1247.4915771484375 1968.104248046875 848.5084228515625
v 1247.49169921875 1968.1041259765625 1108.124755859375
v 1988.8388671875 3208.27783203125 848.5084838867188
v 1788.7760009765625 3327.871337890625 848.5084838867188
v 1988.8388671875 3208.2783203125 1108.124755859375
v 1788.7760009765625 3327.871337890625 1108.124755859375
v 1047.4285888671875 2087.697509765625 521.3573608398438
v 1047.4287109375 2087.697509765625 780.9736938476562
v 1247.49169921875 1968.104248046875 521.3573608398438
v 1247.49169921875 1968.104248046875 780.9736938476562
v 1988.8388671875 3208.2783203125 521.357421875
v 1788.7760009765625 3327.871337890625 521.357421875
v 1988.8388671875 3208.2783203125 780.9737548828125
v 1788.7760009765625 3327.871337890625 780.9737548828125
v 1511.7152099609375 2864.38623046875 104.85076141357422
v 1511.7152099609375 2864.385986328125 364.4670715332031
v 1711.778076171875 2744.793212890625 104.85075378417969
v 1711.778076171875 2744.79296875 364.4670715332031
v 1988.8388671875 3208.2783203125 104.85077667236328
v 1788.7760009765625 3327.871337890625 104.85077667236328
v 1988.8388671875 3208.2783203125 364.46710205078125
v 1788.7760009765625 3327.871337890625 364.46710205078125
v 1586.50732421875 3016.0390625 332.50665283203125
v 1530.074462890625 2921.634765625 332.50665283203125
v 1530.074462890625 2921.634765625 134.2394256591797
v 1635.636474609375 3098.225830078125 458.9580078125
v 1635.636474609375 3098.225830078125 21.602481842041016
v 1586.50732421875 3016.0390625 134.23944091796875
v 1684.2808837890625 3179.601318359375 134.23944091796875
v 1786.267578125 3352.341796875 21.602493286132812
v 1684.2808837890625 3179.601318359375 317.51483154296875
v 1740.7138671875 3274.005126953125 134.23944091796875
v 1740.7138671875 3274.005615234375 317.51483154296875
v 1786.26953125 3352.344482421875 458.9580078125
vt 1.1171875 -0.1171875
vt -0.11785888671875 -0.1171875
vt 1.1171875 1.11785888671875
vt -0.11785888671875 -0.1171875
vt -0.11785888671875 1.11785888671875
vt 1.1171875 1.11785888671875
vt -0.03594970703125 -0.03515625
vt -0.03594970703125 1.03594970703125
vt 1.03515625 -0.03515625
vt -0.03594970703125 1.03594970703125
vt 1.03515625 1.03594970703125
vt 1.03515625 -0.03515625
vt 0.06341552734375 0.0634765625
vt 0.06341552734375 0.93658447265625
vt 0.9365234375 0.0634765625
vt 0.06341552734375 0.93658447265625
vt 0.9365234375 0.93658447265625
vt 0.9365234375 0.0634765625
vt -0.12139892578125 -0.12109375
vt -0.12139892578125 1.12139892578125
vt 1.12109375 -0.12109375
vt -0.12139892578125 1.12139892578125
vt 1.12109375 1.12139892578125
vt 1.12109375 -0.12109375
vt 0.06341552734375 0.0634765625
vt 0.06341552734375 0.93658447265625
vt 0.9365234375 0.0634765625
vt 0.06341552734375 0.93658447265625
vt 0.9365234375 0.93658447265625
vt 0.9365234375 0.0634765625
vt 1.0 0.0
vt 0.0 0.0
vt 1.0 1.0
vt 0.0 0.0
vt 0.0 1.0
vt 1.0 1.0
vt 0.0 0.0
vt 0.0 1.0
vt 1.0 0.0
vt 0.0 1.0
vt 1.0 1.0
vt 1.0 0.0
vt 0.0 0.0
vt 0.0 1.0
vt 1.0 0.0
vt 0.0 1.0
vt 1.0 1.0
vt 1.0 0.0
vt 0.0 0.0
vt 0.0 1.0
vt 1.0 0.0
vt 0.0 1.0
vt 1.0 1.0
vt 1.0 0.0
vt 0.0 0.0
vt 0.0 1.0
vt 1.0 0.0
vt 0.0 1.0
vt 1.0 1.0
vt 1.0 0.0
vt 1.0 0.0
vt 0.0 0.0
vt 1.0 1.0
vt 0.0 0.0
vt 0.0 1.0
vt 1.0 1.0
vt 0.0 0.0
vt 0.0 1.0
vt 1.0 0.0
vt 0.0 1.0
vt 1.0 1.0
vt 1.0 0.0
vt 0.0 0.0
vt 0.0 1.0
vt 1.0 0.0
vt 0.0 1.0
vt 1.0 1.0
vt 1.0 0.0
vt 0.0 0.0
vt 0.0 1.0
vt 1.0 0.0
vt 0.0 1.0
vt 1.0 1.0
vt 1.0 0.0
vt 0.0 0.0
vt 0.0 1.0
vt 1.0 0.0
vt 0.0 1.0
vt 1.0 1.0
vt 1.0 0.0
vt -0.54638671875 0.90045166015625
vt -0.54638671875 -0.6630859375
vt 0.51025390625 0.90045166015625
vt -0.54638671875 -0.6630859375
vt 0.51025390625 -0.6630859375
vt 0.51025390625 0.90045166015625
vt 1.8310546875 0.8387451171875
vt 1.8310546875 -0.6611328125
vt 3.955078125 0.8388671875
vt 1.8310546875 -0.6611328125
vt 3.955078125 -0.6611328125
vt 3.955078125 0.8388671875
vt 1.1416015625 -0.7666015625
vt 1.1416015625 0.694091796875
vt 0.73095703125 -0.7841796875
vt 1.1416015625 0.694091796875
vt 0.73095703125 0.71142578125
vt 0.73095703125 -0.7841796875
vt 0.73095703125 -0.7841796875
vt 0.73095703125 0.71142578125
vt 0.040924072265625 -0.7900390625
vt 0.73095703125 0.71142578125
vt 0.040924072265625 0.717041015625
vt 0.040924072265625 -0.7900390625
vt 0.040924072265625 0.717041015625
vt -0.14599609375 0.7808837890625
vt 0.040924072265625 -0.7900390625
vt -0.14599609375 0.7808837890625
vt -0.14599609375 -0.7900390625
vt 0.040924072265625 -0.7900390625
vt -0.14599609375 -0.7900390625
vt -0.14599609375 0.7808837890625
vt -0.312744140625 -0.7900390625
vt -0.14599609375 0.7808837890625
vt -0.312744140625 0.7808837890625
vt -0.312744140625 -0.7900390625
vt 0.040924072265625 0.717041015625
vt 0.73095703125 0.71142578125
vt 0.73095703125 1.386474609375
vt 0.040924072265625 1.386474609375
vt 0.040924072265625 0.717041015625
vt 0.73095703125 1.386474609375
vt 0.040924072265625 0.717041015625
vt 0.040924072265625 1.386474609375
vt -0.14599609375 0.7808837890625
vt 0.73095703125 1.386474609375
vt 0.73095703125 0.71142578125
vt 3.1171875 1.386474609375
vt -1.20703125 0.7808837890625
vt -0.14599609375 0.7808837890625
vt 0.040924072265625 1.386474609375
vt -0.14599609375 0.7808837890625
vt -1.20703125 0.7808837890625
vt -0.14599609375 0.614013671875
vt -1.20703125 0.7808837890625
vt -1.20703125 0.613525390625
vt -0.14599609375 0.614013671875
vt -1.287109375 1.386474609375
vt -1.20703125 0.7808837890625
vt 0.040924072265625 1.386474609375
vt -1.20703125 -0.7900390625
vt -1.20703125 0.7808837890625
vt -1.287109375 1.386474609375
vt -1.287109375 -0.7900390625
vt -1.20703125 -0.7900390625
vt -1.287109375 1.386474609375
vt -1.20703125 0.7808837890625
vt -1.20703125 -0.7900390625
vt -1.0400390625 0.7808837890625
vt -1.20703125 -0.7900390625
vt -1.0400390625 -0.7900390625
vt -1.0400390625 0.7808837890625
vt 3.1171875 -0.7900390625
vt 3.1171875 1.386474609375
vt 2.865234375 -0.7900390625
vt 3.1171875 1.386474609375
vt 2.865234375 0.71142578125
vt 2.865234375 -0.7900390625
vt 0.73095703125 0.71142578125
vt 2.865234375 0.71142578125
vt 3.1171875 1.386474609375
vt 2.443359375 -0.7900390625
vt 2.865234375 -0.7900390625
vt 2.865234375 0.71142578125
vt 2.443359375 0.717529296875
vt 2.443359375 -0.7900390625
vt 2.865234375 0.71142578125
vt 2.865234375 0.71142578125
vt 0.73095703125 0.71142578125
vt 0.73095703125 0.28759765625
vt 2.865234375 0.28759765625
vt 2.865234375 0.71142578125
vt 0.73095703125 0.28759765625
vt -4.49609375 0.8253173828125
vt -4.49609375 -0.47265625
vt -3.33203125 0.8253173828125
vt -4.49609375 -0.47265625
vt -3.33203125 -0.47265625
vt -3.33203125 0.8253173828125
vt -3.33203125 0.8253173828125
vt -3.33203125 -0.47265625
vt 3.890625 0.8253173828125
vt -3.33203125 1.990234375
vt -3.33203125 0.8253173828125
vt 3.890625 0.8253173828125
vt 3.890625 1.990234375
vt -3.33203125 1.990234375
vt 3.890625 0.8253173828125
vt -3.33203125 -0.47265625
vt 3.890625 -0.47265625
vt 3.890625 0.8253173828125
vt 3.890625 -0.47265625
vt -3.33203125 -0.47265625
vt -3.33203125 -1.63671875
vt 3.890625 -1.63671875
vt 3.890625 -0.47265625
vt -3.33203125 -1.63671875
vt 3.890625 0.8253173828125
vt 3.890625 -0.47265625
vt 5.0546875 0.8253173828125
vt 3.890625 -0.47265625
vt 5.0546875 -0.47265625
vt 5.0546875 0.8253173828125
vt -4.49609375 0.70751953125
vt -4.49609375 -0.58984375
vt -3.33203125 0.70751953125
vt -4.49609375 -0.58984375
vt -3.33203125 -0.58984375
vt -3.33203125 0.70751953125
vt -3.33203125 0.70751953125
vt -3.33203125 -0.58984375
vt 3.890625 0.70751953125
vt -3.33203125 1.87255859375
vt -3.33203125 0.70751953125
vt 3.890625 0.70751953125
vt 3.890625 1.87255859375
vt -3.33203125 1.87255859375
vt 3.890625 0.70751953125
vt -3.33203125 -0.58984375
vt 3.890625 -0.58984375
vt 3.890625 0.70751953125
vt 3.890625 -0.58984375
vt -3.33203125 -0.58984375
vt -3.33203125 -1.755859375
vt 3.890625 -1.755859375
vt 3.890625 -0.58984375
vt -3.33203125 -1.755859375
vt 3.890625 0.70751953125
vt 3.890625 -0.58984375
vt 5.0546875 0.70751953125
vt 3.890625 -0.58984375
vt 5.0546875 -0.58984375
vt 5.0546875 0.70751953125
vt -4.49609375 0.943115234375
vt -4.49609375 -0.3544921875
vt -3.33203125 0.943115234375
vt -4.49609375 -0.3544921875
vt -3.33203125 -0.3544921875
vt -3.33203125 0.943115234375
vt -3.33203125 0.943115234375
vt -3.33203125 -0.3544921875
vt 3.890625 0.943115234375
vt -3.33203125 2.1083984375
vt -3.33203125 0.943115234375
vt 3.890625 0.943115234375
vt 3.890625 2.1083984375
vt -3.33203125 2.1083984375
vt 3.890625 0.943115234375
vt -3.33203125 -0.3544921875
vt 3.890625 -0.3544921875
vt 3.890625 0.943115234375
vt 3.890625 -0.3544921875
vt -3.33203125 -0.3544921875
vt -3.33203125 -1.51953125
vt 3.890625 -1.51953125
vt 3.890625 -0.3544921875
vt -3.33203125 -1.51953125
vt 3.890625 0.943115234375
vt 3.890625 -0.3544921875
vt 5.0546875 0.943115234375
vt 3.890625 -0.3544921875
vt 5.0546875 -0.3544921875
vt 5.0546875 0.943115234375
vt -4.49609375 0.943115234375
vt -4.49609375 -0.3544921875
vt -0.316162109375 0.943115234375
vt -4.49609375 -0.3544921875
vt -0.316162109375 -0.3544921875
vt -0.316162109375 0.943115234375
vt -0.316162109375 0.943115234375
vt -0.316162109375 -0.3544921875
vt 3.890625 0.943115234375
vt 1.19140625 2.1083984375
vt -0.316162109375 0.943115234375
vt 3.890625 0.943115234375
vt 3.890625 2.1083984375
vt 1.19140625 2.1083984375
vt 3.890625 0.943115234375
vt -0.316162109375 -0.3544921875
vt 3.890625 -0.3544921875
vt 3.890625 0.943115234375
vt 3.890625 -0.3544921875
vt -0.316162109375 -0.3544921875
vt 1.19140625 -1.51953125
vt 3.890625 -1.51953125
vt 3.890625 -0.3544921875
vt 1.19140625 -1.51953125
vt 3.890625 0.943115234375
vt 3.890625 -0.3544921875
vt 5.0546875 0.943115234375
vt 3.890625 -0.3544921875
vt 5.0546875 -0.3544921875
vt 5.0546875 0.943115234375
vn -0.3316746950149536 -0.5548484921455383 0.7629777789115906
vn 0.3316689729690552 0.5548378825187683 0.7629879713058472
vn -0.791793704032898 -0.19933301210403442 0.5773466229438782
vn -0.1993144452571869 0.7918000221252441 0.5773441791534424
vn -0.38758814334869385 -0.6483810544013977 -0.6552689671516418
vn -0.7918074727058411 -0.19935208559036255 -0.5773211717605591
vn 0.3875979781150818 0.6484007239341736 -0.6552436351776123
vn -0.1993207484483719 0.7917923331260681 -0.5773528218269348
vn -0.33167564868927 -0.554848849773407 0.7629769444465637
vn 0.33166927099227905 0.5548375248908997 0.7629880905151367
vn -0.7917938828468323 -0.1993306577205658 0.5773469805717468
vn -0.19931361079216003 0.791800320148468 0.5773442387580872
vn -0.38758617639541626 -0.6483807563781738 -0.6552704572677612
vn -0.791807234287262 -0.19935275614261627 -0.5773212909698486
vn 0.3875984847545624 0.6483997702598572 -0.6552443504333496
vn -0.19931964576244354 0.7917925715446472 -0.5773527026176453
vn -0.3316754698753357 -0.5548484921455383 0.7629774212837219
vn 0.3316688537597656 0.5548377633094788 0.7629880905151367
vn -0.7917937636375427 -0.1993311494588852 0.5773471593856812
vn -0.1993141770362854 0.7918001413345337 0.5773442387580872
vn -0.3875867426395416 -0.6483809947967529 -0.6552699208259583
vn -0.7918071746826172 -0.19935302436351776 -0.5773212909698486
vn 0.3875981271266937 0.6484003067016602 -0.6552439332008362
vn -0.19932027161121368 0.7917923927307129 -0.5773528218269348
vn -0.2438421994447708 0.9698149561882019 -3.9774263882463856e-07
vn -0.19910816848278046 0.7918435335159302 -0.577355682849884
vn -0.9697937369346619 -0.24392661452293396 -2.6025043098343303e-07
vn -0.7918465733528137 -0.19917644560337067 -0.5773282051086426
vn -0.7926470637321472 -0.19990481436252594 -0.5759762525558472
vn -0.9697757363319397 -0.24399781227111816 7.945051265778602e-07
vn -0.20406362414360046 0.796101987361908 -0.5697188973426819
vn -0.2441449612379074 0.969738781452179 -9.076335913960065e-07
vn -0.9697768092155457 -0.2439936399459839 -7.844469109841157e-07
vn -0.9314318299293518 0.20370526611804962 -0.3015606701374054
vn -0.8583350777626038 0.5130894780158997 -1.951846343217767e-06
vn -0.8583341240882874 0.5130912065505981 -5.1446015447709215e-08
vn -0.621661901473999 0.7229101061820984 -0.3015582859516144
vn -0.24403439462184906 0.9697665572166443 -8.523650194547372e-07
vn -0.8583336472511292 0.5130918025970459 -4.5613208499162283e-07
vn -0.8583493232727051 0.5130656361579895 -6.071374082239345e-05
vn -0.8583332896232605 0.5130926370620728 -7.822814609426132e-07
vn -0.9315479397773743 0.2033957540988922 -0.301410973072052
vn -0.8585759997367859 0.5126861333847046 -0.00038319462328217924
vn -0.9693146347999573 -0.24582356214523315 -1.0632704317004027e-07
vn -0.8601288199424744 0.5100769400596619 0.0
vn -0.8583318591117859 0.513094961643219 0.0
vn -0.24412444233894348 0.9697439074516296 -6.405105068552075e-07
vn -0.6271967887878418 0.7188174724578857 -0.29987597465515137
vn 0.36281272768974304 0.6069368124008179 0.7071030735969543
vn 0.36282214522361755 0.6069518327713013 -0.7070852518081665
vn -0.19930599629878998 0.7918053269386292 0.5773399472236633
vn -0.19931820034980774 0.7917925715446472 -0.577353298664093
vn -0.7917917966842651 -0.19933077692985535 0.5773500204086304
vn -0.3628203868865967 -0.6069489121437073 0.7070885896682739
vn -0.7917972207069397 -0.19934923946857452 -0.5773362517356873
vn -0.3628113567829132 -0.6069340705871582 -0.7071060538291931
vn 0.36281296610832214 0.606935977935791 0.7071036100387573
vn 0.362822562456131 0.6069518327713013 -0.7070850133895874
vn -0.19930557906627655 0.7918052077293396 0.5773401856422424
vn -0.1993183046579361 0.7917926907539368 -0.5773530006408691
vn -0.7917919754981995 -0.19933030009269714 0.5773499608039856
vn -0.3628212511539459 -0.6069493293762207 0.7070879340171814
vn -0.7917969226837158 -0.19934898614883423 -0.5773366689682007
vn -0.36281099915504456 -0.6069334745407104 -0.7071067094802856
vn 0.36281275749206543 0.6069360375404358 0.7071037292480469
vn 0.3628225028514862 0.6069519519805908 -0.7070850729942322
vn -0.19930586218833923 0.7918053865432739 0.5773400068283081
vn -0.1993182748556137 0.7917925715446472 -0.5773531794548035
vn -0.7917916774749756 -0.1993316411972046 0.5773499011993408
vn -0.3628206253051758 -0.6069495677947998 0.707088053226471
vn -0.7917970418930054 -0.19934864342212677 -0.5773366689682007
vn -0.36281096935272217 -0.6069334745407104 -0.7071066498756409
vn 0.362819105386734 0.6069470047950745 0.7070909738540649
vn 0.3628290891647339 0.6069637537002563 -0.7070714831352234
vn -0.1993059515953064 0.7918050289154053 0.5773403644561768
vn -0.19930961728096008 0.791792094707489 -0.57735675573349
vn -0.7917966842651367 -0.19934141635894775 0.5773395895957947
vn -0.3628206253051758 -0.6069495677947998 0.707088053226471
vn -0.791806697845459 -0.19935108721256256 -0.5773224830627441
vn -0.36281099915504456 -0.6069334745407104 -0.7071067094802856
vn 0.4633435010910034 0.880841851234436 0.09710941463708878
vn 0.46159425377845764 0.8814014196395874 0.10031090676784515
vn 0.4635504484176636 0.8851367235183716 0.04066909849643707
vn 0.46290653944015503 0.8768385052680969 0.12989112734794617
vn 0.4668528139591217 0.8843135237693787 0.006165904924273491
vn 0.4651830494403839 0.8843389749526978 0.03936062008142471
vn 0.4677712023258209 0.8830628991127014 0.03728199005126953
vn 0.47024279832839966 0.8825187087059021 0.005686951335519552
vn 0.46628469228744507 0.8802566528320312 0.08790238946676254
vn 0.46914201974868774 0.8823813199996948 0.03617904335260391
vn 0.4677375853061676 0.8797399401664734 0.08531764894723892
vn 0.46685513854026794 0.876160740852356 0.11995216459035873
f 1/1/1 2/2/2 3/3/3
f 2/4/2 4/5/4 3/6/3
f 5/7/5 6/8/6 7/9/7
f 6/10/6 8/11/8 7/12/7
f 2/13/2 7/14/7 4/15/4
f 7/16/7 8/17/8 4/18/4
f 4/19/4 8/20/8 3/21/3
f 8/22/8 6/23/6 3/24/3
f 3/25/3 6/26/6 1/27/1
f 6/28/6 5/29/5 1/30/1
f 9/31/9 10/32/10 11/33/11
f 10/34/10 12/35/12 11/36/11
f 13/37/13 14/38/14 15/39/15
f 14/40/14 16/41/16 15/42/15
f 10/43/10 15/44/15 12/45/12
f 15/46/15 16/47/16 12/48/12
f 12/49/12 16/50/16 11/51/11
f 16/52/16 14/53/14 11/54/11
f 11/55/11 14/56/14 9/57/9
f 14/58/14 13/59/13 9/60/9
f 17/61/17 18/62/18 19/63/19
f 18/64/18 20/65/20 19/66/19
f 21/67/21 22/68/22 23/69/23
f 22/70/22 24/71/24 23/72/23
f 18/73/18 23/74/23 20/75/20
f 23/76/23 24/77/24 20/78/20
f 20/79/20 24/80/24 19/81/19
f 24/82/24 22/83/22 19/84/19
f 19/85/19 22/86/22 17/87/17
f 22/88/22 21/89/21 17/90/17
f 25/91/25 26/92/26 27/93/27
f 26/94/26 28/95/28 27/96/27
f 29/97/29 30/98/30 31/99/31
f 30/100/30 32/101/32 31/102/31
f 30/103/30 29/104/29 33/105/33
f 29/106/29 34/107/34 33/108/33
f 33/109/33 34/110/34 35/111/35
f 34/112/34 36/113/36 35/114/35
f 36/115/36 37/116/37 35/117/35
f 37/118/37 38/119/38 35/120/35
f 38/121/38 37/122/37 25/123/25
f 37/124/37 26/125/26 25/126/25
f 36/127/36 34/128/34 39/129/39
f 40/130/40 36/131/36 39/132/39
f 36/133/36 40/134/40 37/135/37
f 39/136/39 34/137/34 41/138/41
f 42/139/42 37/140/37 40/141/40
f 37/142/37 42/143/42 26/144/26
f 42/145/42 28/146/28 26/147/26
f 43/148/43 42/149/42 40/150/40
f 44/151/44 42/152/42 43/153/43
f 45/154/45 44/155/44 43/156/43
f 42/157/42 44/158/44 28/159/28
f 44/160/44 27/161/27 28/162/28
f 46/163/46 41/164/41 47/165/47
f 41/166/41 48/167/48 47/168/47
f 34/169/34 48/170/48 41/171/41
f 32/172/32 47/173/47 48/174/48
f 31/175/31 32/176/32 48/177/48
f 48/178/48 34/179/34 29/180/29
f 31/181/31 48/182/48 29/183/29
f 49/184/49 50/185/50 51/186/51
f 50/187/50 52/188/52 51/189/51
f 51/190/51 52/191/52 53/192/53
f 49/193/49 51/194/51 53/195/53
f 54/196/54 49/197/49 53/198/53
f 52/199/52 55/200/55 53/201/53
f 55/202/55 52/203/52 50/204/50
f 56/205/56 55/206/55 50/207/50
f 53/208/53 55/209/55 54/210/54
f 55/211/55 56/212/56 54/213/54
f 57/214/57 58/215/58 59/216/59
f 58/217/58 60/218/60 59/219/59
f 59/220/59 60/221/60 61/222/61
f 57/223/57 59/224/59 61/225/61
f 62/226/62 57/227/57 61/228/61
f 60/229/60 63/230/63 61/231/61
f 63/232/63 60/233/60 58/234/58
f 64/235/64 63/236/63 58/237/58
f 61/238/61 63/239/63 62/240/62
f 63/241/63 64/242/64 62/243/62
f 65/244/65 66/245/66 67/246/67
f 66/247/66 68/248/68 67/249/67
f 67/250/67 68/251/68 69/252/69
f 65/253/65 67/254/67 69/255/69
f 70/256/70 65/257/65 69/258/69
f 68/259/68 71/260/71 69/261/69
f 71/262/71 68/263/68 66/264/66
f 72/265/72 71/266/71 66/267/66
f 69/268/69 71/269/71 70/270/70
f 71/271/71 72/272/72 70/273/70
f 73/274/73 74/275/74 75/276/75
f 74/277/74 76/278/76 75/279/75
f 75/280/75 76/281/76 77/282/77
f 73/283/73 75/284/75 77/285/77
f 78/286/78 73/287/73 77/288/77
f 76/289/76 79/290/79 77/291/77
f 79/292/79 76/293/76 74/294/74
f 80/295/80 79/296/79 74/297/74
f 77/298/77 79/299/79 78/300/78
f 79/301/79 80/302/80 78/303/78
