# Exported by Lightwave Blender addon
v 1674.807861328125 3181.53173828125 166.992919921875
v 1735.2620849609375 3282.66357421875 166.992919921875
v 1674.807861328125 3181.53173828125 169.05599975585938
v 1735.2620849609375 3282.66357421875 169.05599975585938
v 1669.588134765625 3180.2529296875 166.99282836914062
v 1733.9171142578125 3287.866943359375 166.99282836914062
v 1669.1759033203125 3180.152099609375 167.41714477539062
v 1733.810791015625 3288.27734375 167.41714477539062
v 1733.810791015625 3288.27734375 169.05589294433594
v 1669.1759033203125 3180.152099609375 169.05589294433594
v 1754.7109375 3271.697021484375 169.0558319091797
v 1736.1209716796875 3282.878662109375 169.0559844970703
v 1754.7109375 3271.697021484375 166.9927520751953
v 1736.1209716796875 3282.878662109375 166.99290466308594
v 1756.615478515625 3274.88330078125 166.9927520751953
v 1734.776611328125 3288.0830078125 166.99282836914062
v 1734.6705322265625 3288.494384765625 167.41714477539062
v 1756.8331298828125 3275.24755859375 167.41708374023438
v 1756.8331298828125 3275.24755859375 169.0558319091797
v 1734.6705322265625 3288.494384765625 169.05589294433594
v 1693.6756591796875 3169.59326171875 169.0558319091797
v 1693.6756591796875 3169.59326171875 166.9927520751953
v 1675.025146484375 3180.673583984375 169.0559844970703
v 1675.025146484375 3180.673583984375 166.99290466308594
v 1691.77099609375 3166.4072265625 166.9927520751953
v 1669.80419921875 3179.393310546875 166.99282836914062
v 1691.5531005859375 3166.043212890625 167.41708374023438
v 1669.3922119140625 3179.29248046875 167.41714477539062
v 1691.5531005859375 3166.043212890625 169.0558319091797
v 1669.3922119140625 3179.29248046875 169.05589294433594
v 1733.6298828125 3289.651123046875 169.6073760986328
v 1667.880126953125 3179.660888671875 169.6073760986328
v 1733.4346923828125 3291.135986328125 170.55294799804688
v 1666.480224609375 3179.130126953125 170.55294799804688
v 1666.0892333984375 3178.98193359375 171.70745849609375
v 1733.3800048828125 3291.550537109375 171.70745849609375
v 1666.844482421875 3179.26806640625 172.71279907226562
v 1733.485595703125 3290.749267578125 172.71279907226562
v 1669.1759033203125 3180.152099609375 173.18212890625
v 1733.810791015625 3288.27734375 173.18212890625
v 1675.21728515625 3181.62890625 173.18223571777344
v 1735.370361328125 3282.256591796875 173.18223571777344
v 1676.3831787109375 3181.9052734375 172.977294921875
v 1735.6787109375 3281.09912109375 172.977294921875
v 1677.1654052734375 3182.091064453125 172.44635009765625
v 1735.8857421875 3280.322021484375 172.44635009765625
v 1677.55908203125 3182.18408203125 171.70750427246094
v 1735.9901123046875 3279.930908203125 171.70750427246094
v 1677.52685546875 3182.176513671875 170.89990234375
v 1735.9815673828125 3279.96337890625 170.89990234375
v 1676.9473876953125 3182.0390625 170.20635986328125
v 1735.828125 3280.539306640625 170.20635986328125
v 1675.9754638671875 3181.80859375 169.60751342773438
v 1735.571044921875 3281.50390625 169.60751342773438
v 1757.3896484375 3276.1787109375 169.60733032226562
v 1734.489501953125 3289.8681640625 169.6073760986328
v 1757.99609375 3277.193115234375 170.55291748046875
v 1734.29443359375 3291.352294921875 170.55294799804688
v 1758.163330078125 3277.472900390625 171.7074432373047
v 1734.2398681640625 3291.766845703125 171.70745849609375
v 1734.3453369140625 3290.96630859375 172.71279907226562
v 1757.8355712890625 3276.924560546875 172.71278381347656
v 1734.6705322265625 3288.494384765625 173.18212890625
v 1756.8331298828125 3275.24755859375 173.18206787109375
v 1736.229248046875 3282.4716796875 173.18223571777344
v 1754.556396484375 3271.4384765625 173.18206787109375
v 1736.5372314453125 3281.313232421875 172.977294921875
v 1754.1156005859375 3270.701171875 172.97711181640625
v 1736.7437744140625 3280.5361328125 172.44635009765625
v 1753.820068359375 3270.206787109375 172.44615173339844
v 1736.847900390625 3280.144775390625 171.70748901367188
v 1753.6712646484375 3269.95751953125 171.70729064941406
v 1753.6834716796875 3269.978271484375 170.89968872070312
v 1736.83935546875 3280.1767578125 170.89988708496094
v 1753.9024658203125 3270.344482421875 170.20616149902344
v 1736.6861572265625 3280.753173828125 170.20635986328125
v 1754.2696533203125 3270.958984375 169.60733032226562
v 1736.4295654296875 3281.71826171875 169.60751342773438
v 1690.9967041015625 3165.112060546875 169.60733032226562
v 1668.0965576171875 3178.80126953125 169.6073760986328
v 1690.3900146484375 3164.09716796875 170.55291748046875
v 1666.6964111328125 3178.27001953125 170.55294799804688
v 1690.222900390625 3163.817626953125 171.7074432373047
v 1666.3055419921875 3178.121826171875 171.70745849609375
v 1667.06103515625 3178.408447265625 172.71279907226562
v 1690.5506591796875 3164.365966796875 172.71278381347656
v 1669.3922119140625 3179.29248046875 173.18212890625
v 1691.5531005859375 3166.043212890625 173.18206787109375
v 1675.4345703125 3180.77099609375 173.18223571777344
v 1693.8304443359375 3169.85205078125 173.18206787109375
v 1676.60107421875 3181.048095703125 172.977294921875
v 1694.271240234375 3170.58935546875 172.97711181640625
v 1677.3834228515625 3181.23388671875 172.44635009765625
v 1694.56689453125 3171.083984375 172.44615173339844
v 1677.77734375 3181.32763671875 171.70748901367188
v 1694.7156982421875 3171.332763671875 171.70729064941406
v 1694.7034912109375 3171.312255859375 170.89968872070312
v 1677.7449951171875 3181.320068359375 170.89988708496094
v 1694.4844970703125 3170.94580078125 170.20616149902344
v 1677.1651611328125 3181.18212890625 170.20635986328125
v 1694.1171875 3170.33154296875 169.60733032226562
v 1676.1932373046875 3180.951171875 169.60751342773438
vt 0.79443359375 0.1611328125
vt 0.2054443359375 0.1611328125
vt 0.79443359375 0.15087890625
vt 0.2054443359375 0.1611328125
vt 0.2054443359375 0.15087890625
vt 0.79443359375 0.15087890625
vt 0.79443359375 0.037109375
vt 0.81298828125 0.056640625
vt 0.2054443359375 0.037109375
vt 0.81298828125 0.056640625
vt 0.1865234375 0.056640625
vt 0.2054443359375 0.037109375
vt 0.1865234375 0.056640625
vt 0.81298828125 0.056640625
vt 0.814453125 0.05908203125
vt 0.18505859375 0.05908203125
vt 0.1865234375 0.056640625
vt 0.814453125 0.05908203125
vt 0.18505859375 0.05908203125
vt 0.814453125 0.05908203125
vt 0.18505859375 0.0673828125
vt 0.814453125 0.05908203125
vt 0.814453125 0.0673828125
vt 0.18505859375 0.0673828125
vt 0.04296875 0.4365234375
vt 0.150634765625 0.4365234375
vt 0.04302978515625 0.447265625
vt 0.150634765625 0.4365234375
vt 0.1512451171875 0.447265625
vt 0.04302978515625 0.447265625
vt 0.150634765625 0.4365234375
vt 0.1546630859375 0.43603515625
vt 0.1512451171875 0.447265625
vt 0.04302978515625 0.447265625
vt 0.1512451171875 0.447265625
vt 0.04315185546875 0.4658203125
vt 0.1546630859375 0.43603515625
vt 0.1552734375 0.4453125
vt 0.1512451171875 0.447265625
vt 0.1512451171875 0.447265625
vt 0.1552734375 0.4453125
vt 0.1702880859375 0.46630859375
vt 0.1512451171875 0.447265625
vt 0.1702880859375 0.46630859375
vt 0.04315185546875 0.4658203125
vt 0.1552734375 0.4453125
vt 0.1739501953125 0.4638671875
vt 0.1702880859375 0.46630859375
vt 0.1739501953125 0.4638671875
vt 0.175537109375 0.46728515625
vt 0.1702880859375 0.46630859375
vt 0.1702880859375 0.46630859375
vt 0.171630859375 0.46875
vt 0.04315185546875 0.4658203125
vt 0.175537109375 0.46728515625
vt 0.171630859375 0.46875
vt 0.1702880859375 0.46630859375
vt 0.171630859375 0.46875
vt 0.043212890625 0.46875
vt 0.04315185546875 0.4658203125
vt 0.043212890625 0.46875
vt 0.171630859375 0.46875
vt 0.043365478515625 0.4765625
vt 0.171630859375 0.46875
vt 0.17236328125 0.4765625
vt 0.043365478515625 0.4765625
vt 0.171630859375 0.46875
vt 0.175537109375 0.46728515625
vt 0.17236328125 0.4765625
vt 0.175537109375 0.46728515625
vt 0.1767578125 0.47509765625
vt 0.17236328125 0.4765625
vt 0.177978515625 0.234375
vt 0.1778564453125 0.2451171875
vt 0.0701904296875 0.234375
vt 0.06561279296875 0.2431640625
vt 0.06610107421875 0.23388671875
vt 0.0701904296875 0.234375
vt 0.1778564453125 0.2451171875
vt 0.06951904296875 0.2451171875
vt 0.0701904296875 0.234375
vt 0.06951904296875 0.2451171875
vt 0.06561279296875 0.2431640625
vt 0.0701904296875 0.234375
vt 0.1778564453125 0.2451171875
vt 0.177734375 0.263671875
vt 0.06951904296875 0.2451171875
vt 0.046966552734375 0.26171875
vt 0.06561279296875 0.2431640625
vt 0.06951904296875 0.2451171875
vt 0.177734375 0.263671875
vt 0.050537109375 0.26416015625
vt 0.06951904296875 0.2451171875
vt 0.050537109375 0.26416015625
vt 0.046966552734375 0.26171875
vt 0.06951904296875 0.2451171875
vt 0.177734375 0.263671875
vt 0.1776123046875 0.2666015625
vt 0.050537109375 0.26416015625
vt 0.046966552734375 0.26171875
vt 0.050537109375 0.26416015625
vt 0.04925537109375 0.2666015625
vt 0.1776123046875 0.2666015625
vt 0.04925537109375 0.2666015625
vt 0.050537109375 0.26416015625
vt 0.045379638671875 0.26513671875
vt 0.046966552734375 0.26171875
vt 0.04925537109375 0.2666015625
vt 0.1776123046875 0.2666015625
vt 0.177490234375 0.2744140625
vt 0.04925537109375 0.2666015625
vt 0.045379638671875 0.26513671875
vt 0.04925537109375 0.2666015625
vt 0.04412841796875 0.27294921875
vt 0.177490234375 0.2744140625
vt 0.048492431640625 0.2744140625
vt 0.04925537109375 0.2666015625
vt 0.04925537109375 0.2666015625
vt 0.048492431640625 0.2744140625
vt 0.04412841796875 0.27294921875
vn 0.587871253490448 -0.08608375489711761 -0.8043612241744995
vn 0.3542165160179138 -0.4770498275756836 -0.8043345808982849
vn 0.9894477725028992 -0.14488986134529114 0.0
vn 0.5961591005325317 -0.8028663396835327 0.0
vn -0.47405651211738586 0.11228013783693314 -0.873306155204773
vn -0.32337573170661926 0.3646657168865204 -0.8731821179389954
vn -0.9322713017463684 0.11786866188049316 -0.34201908111572266
vn -0.5453836917877197 0.765265941619873 -0.3419424295425415
vn -0.5969140529632568 0.8023051023483276 0.0
vn -0.9893407821655273 0.14561918377876282 0.0
vn -0.5154330134391785 -0.8569298386573792 0.0
vn -0.1475253850221634 -0.9890581965446472 0.0
vn -0.3647921085357666 -0.6064732074737549 -0.7064821124076843
vn -0.08766381442546844 -0.5876126289367676 -0.8043795228004456
vn 0.1963522881269455 0.32846152782440186 -0.9238824248313904
vn 0.11576760560274124 0.4759290814399719 -0.8718311190605164
vn 0.11754251271486282 0.932366669178009 -0.34187158942222595
vn 0.4739934504032135 0.7930163145065308 -0.3826950490474701
vn 0.5130502581596375 0.8583585619926453 0.0
vn 0.14521481096744537 0.9894001483917236 0.0
vn 0.5107629895210266 0.8597216010093689 0.0
vn 0.3614759147167206 0.6084496974945068 -0.7064870595932007
vn 0.8012795448303223 0.5982901453971863 0.0
vn 0.47608205676078796 0.3554810881614685 -0.8043501377105713
vn -0.19423125684261322 -0.32854536175727844 -0.9243008494377136
vn -0.36523374915122986 -0.32570648193359375 -0.8720777630805969
vn -0.47270190715789795 -0.7942878007888794 -0.38165393471717834
vn -0.7660825848579407 -0.5447391271591187 -0.3411403000354767
vn -0.513149082660675 -0.8582994937896729 0.0
vn -0.8025550842285156 -0.5965781211853027 0.0
vn 0.46573272347450256 0.8837515711784363 0.04556434229016304
vn 0.4640016555786133 0.8845767378807068 0.04718450829386711
vn 0.4655221700668335 0.8838502764701843 0.04580280929803848
vn 0.46375083923339844 0.8846935033798218 0.047461751848459244
vn 0.46367523074150085 0.8847156763076782 0.04778645560145378
vn 0.4654581844806671 0.8838680386543274 0.046107977628707886
vn 0.4638013243675232 0.8846348524093628 0.04805752635002136
vn 0.4655631482601166 0.8837982416152954 0.046385567635297775
vn 0.46420639753341675 0.8844166398048401 0.04816284030675888
vn 0.4659021198749542 0.8836116194725037 0.046536751091480255
vn 0.46535417437553406 0.8838163018226624 0.04810783639550209
vn 0.46689721941947937 0.8830832242965698 0.04659426584839821
vn 0.46557754278182983 0.883702278137207 0.04804053530097008
vn 0.46709170937538147 0.8829826712608337 0.046550240367650986
vn 0.465729683637619 0.8836303353309631 0.047886382788419724
vn 0.4672246277332306 0.882919430732727 0.04641502723097801
vn 0.46580925583839417 0.8835997581481934 0.04767816886305809
vn 0.4672943651676178 0.8828927874565125 0.04622028023004532
vn 0.46580809354782104 0.8836123943328857 0.04745471477508545
vn 0.4672936201095581 0.8829045295715332 0.04600304365158081
vn 0.46570202708244324 0.8836783170700073 0.04726770147681236
vn 0.4672013819217682 0.8829632997512817 0.04581136256456375
vn 0.46552062034606934 0.8837823271751404 0.04711035266518593
vn 0.4670436680316925 0.8830555081367493 0.04564152657985687
vn 0.4722096025943756 0.8803073167800903 0.045573391020298004
vn 0.46588948369026184 0.8836692571640015 0.045557089149951935
vn 0.47221747040748596 0.8802908062934875 0.04581242427229881
vn 0.4656790792942047 0.8837679624557495 0.04579553380608559
vn 0.47221440076828003 0.8802765011787415 0.04611785709857941
vn 0.4656151533126831 0.8837857842445374 0.04610065370798111
vn 0.46571993827819824 0.8837159276008606 0.04637818783521652
vn 0.47220131754875183 0.880268931388855 0.04639523848891258
vn 0.4660589396953583 0.8835292458534241 0.046529341489076614
vn 0.47217652201652527 0.8802742958068848 0.04654540494084358
vn 0.4670540392398834 0.8830006718635559 0.04658685624599457
vn 0.4721265435218811 0.8802982568740845 0.04660086706280708
vn 0.4672485589981079 0.8829001188278198 0.04654284939169884
vn 0.47211799025535583 0.8803050518035889 0.04655656963586807
vn 0.46738138794898987 0.8828368782997131 0.046407658606767654
vn 0.47211459279060364 0.8803139925003052 0.046421151608228683
vn 0.4674510359764099 0.8828102350234985 0.04621293768286705
vn 0.47211572527885437 0.8803237080574036 0.04622628912329674
vn 0.4721207022666931 0.8803324103355408 0.04600903391838074
vn 0.4674503803253174 0.8828219175338745 0.045995742082595825
vn 0.47212958335876465 0.880337655544281 0.04581746459007263
vn 0.46735817193984985 0.8828808069229126 0.04580409452319145
vn 0.4721411168575287 0.8803402781486511 0.04564782604575157
vn 0.46720045804977417 0.8829728960990906 0.045634277164936066
vn 0.47069984674453735 0.8810293674468994 0.04721129685640335
vn 0.4641471207141876 0.8845000267028809 0.04719317704439163
vn 0.4706796407699585 0.8810251355171204 0.047489505261182785
vn 0.4638962745666504 0.8846167922019958 0.04747048020362854
vn 0.4706685245037079 0.8810136318206787 0.04781457409262657
vn 0.4638206958770752 0.8846389055252075 0.047795239835977554
vn 0.46394675970077515 0.8845580816268921 0.04806635156273842
vn 0.4706699252128601 0.8809980750083923 0.04808534309267998
vn 0.4643517732620239 0.8843398690223694 0.04817168042063713
vn 0.4706905782222748 0.8809813857078552 0.048189543187618256
vn 0.46549949049949646 0.8837392330169678 0.048116616904735565
vn 0.4707443118095398 0.8809558153152466 0.04813024401664734
vn 0.465722918510437 0.8836252093315125 0.04804928973317146
vn 0.4707559645175934 0.880953311920166 0.04806196689605713
vn 0.46587511897087097 0.8835533261299133 0.04789511114358902
vn 0.4707663059234619 0.8809563517570496 0.04790712893009186
vn 0.46595463156700134 0.8835226893424988 0.04768684133887291
vn 0.47077444195747375 0.8809633255004883 0.047698505222797394
vn 0.470779150724411 0.8809728026390076 0.047474976629018784
vn 0.46595340967178345 0.8835353255271912 0.04746334254741669
vn 0.47077831625938416 0.880983293056488 0.04728834703564644
vn 0.46584734320640564 0.8836012482643127 0.04727631062269211
vn 0.4707733690738678 0.8809943199157715 0.04713169485330582
vn 0.4656659662723541 0.8837052583694458 0.04711893945932388
f 1/1/1 2/2/2 3/3/3
f 2/4/2 4/5/4 3/6/3
f 1/7/1 5/8/5 2/9/2
f 5/10/5 6/11/6 2/12/2
f 6/13/6 5/14/5 7/15/7
f 8/16/8 6/17/6 7/18/7
f 8/19/8 7/20/7 9/21/9
f 7/22/7 10/23/10 9/24/9
f 11/25/11 12/26/12 13/27/13
f 12/28/12 14/29/14 13/30/13
f 12/31/12 4/32/4 14/33/14
f 13/34/13 14/35/14 15/36/15
f 4/37/4 2/38/2 14/39/14
f 14/40/14 2/41/2 16/42/16
f 14/43/14 16/44/16 15/45/15
f 2/46/2 6/47/6 16/48/16
f 6/49/6 8/50/8 16/51/16
f 16/52/16 17/53/17 15/54/15
f 8/55/8 17/56/17 16/57/16
f 17/58/17 18/59/18 15/60/15
f 18/61/18 17/62/17 19/63/19
f 17/64/17 20/65/20 19/66/19
f 17/67/17 8/68/8 20/69/20
f 8/70/8 9/71/9 20/72/20
f 21/73/21 22/74/22 23/75/23
f 1/76/1 3/77/3 23/78/23
f 22/79/22 24/80/24 23/81/23
f 24/82/24 1/83/1 23/84/23
f 22/85/22 25/86/25 24/87/24
f 5/88/5 1/89/1 24/90/24
f 25/91/25 26/92/26 24/93/24
f 26/94/26 5/95/5 24/96/24
f 25/97/25 27/98/27 26/99/26
f 5/100/5 26/101/26 28/102/28
f 27/103/27 28/104/28 26/105/26
f 7/106/7 5/107/5 28/108/28
f 27/109/27 29/110/29 28/111/28
f 7/112/7 28/113/28 10/114/10
f 29/115/29 30/116/30 28/117/28
f 28/118/28 30/119/30 10/120/10
