# Exported by Lightwave Blender addon
v 162.82305908203125 669.2418823242188 1575.73583984375
v 71.30804443359375 718.9354248046875 1562.2215576171875
v 163.367431640625 670.228759765625 1572.7412109375
v 72.45918273925781 719.5928955078125 1559.2269287109375
v 164.15541076660156 671.6572875976562 1570.526123046875
v 74.12525939941406 720.544677734375 1557.01171875
v 164.15541076660156 671.6572875976562 1567.2799072265625
v 74.12525939941406 720.544677734375 1553.7655029296875
v 75.19945526123047 720.8814697265625 1552.9539794921875
v 163.83419799804688 672.7551879882812 1566.4683837890625
v 122.36748504638672 812.9608154296875 1562.2215576171875
v 214.50003051757812 762.9266967773438 1575.7359619140625
v 122.4428939819336 811.6371459960938 1559.2269287109375
v 213.9556121826172 761.939697265625 1572.7412109375
v 122.5519027709961 809.7216796875 1557.01171875
v 213.1676788330078 760.5112915039062 1570.526123046875
v 122.5519027709961 809.7216796875 1553.7655029296875
v 213.1676788330078 760.5112915039062 1567.2799072265625
v 212.0625 760.18798828125 1566.4683837890625
v 122.6795883178711 808.7269287109375 1552.9539794921875
v 74.67296600341797 721.5532836914062 1552.9539794921875
v 121.55205535888672 808.6144409179688 1552.9539794921875
v 606.9659423828125 -233.4025115966797 1575.73583984375
v 570.2330322265625 -330.8454284667969 1562.221435546875
v 605.913818359375 -232.9979705810547 1572.7412109375
v 569.424560546875 -329.7947692871094 1559.226806640625
v 604.39111328125 -232.4122772216797 1570.526123046875
v 568.254150390625 -328.2743835449219 1557.01171875
v 604.39111328125 -232.4122772216797 1567.2799072265625
v 568.254150390625 -328.2743835449219 1553.7655029296875
v 567.7738037109375 -327.2561950683594 1552.953857421875
v 603.347412109375 -232.88047790527344 1566.46826171875
v 470.1165466308594 -293.1022644042969 1562.221435546875
v 507.1025390625 -195.00096130371094 1575.73583984375
v 471.4176025390625 -292.8467712402344 1559.226806640625
v 508.15460205078125 -195.4055633544922 1572.7412109375
v 473.3002624511719 -292.4772644042969 1557.01171875
v 509.67718505859375 -195.99107360839844 1570.526123046875
v 473.3002624511719 -292.4772644042969 1553.7655029296875
v 509.67718505859375 -195.99107360839844 1567.27978515625
v 510.1484375 -197.04173278808594 1566.46826171875
v 474.2682189941406 -292.2150573730469 1552.953857421875
v 567.18017578125 -327.8694763183594 1552.953857421875
v 474.5335388183594 -293.3166198730469 1552.953857421875
v 70.98213195800781 720.0358276367188 1562.2215576171875
v 72.1332778930664 720.6932983398438 1559.2269287109375
v 121.26702117919922 812.6349487304688 1562.2215576171875
v 121.3424301147461 811.311279296875 1559.2269287109375
v 73.79935455322266 721.6451416015625 1557.01171875
v 121.4514389038086 809.3958129882812 1557.01171875
v 121.4514389038086 809.3958129882812 1553.7655029296875
v 73.79935455322266 721.6451416015625 1553.7655029296875
v 569.1873779296875 -331.3185729980469 1562.221435546875
v 568.3788452148438 -330.2679138183594 1559.226806640625
v 470.58966064453125 -294.1479187011719 1562.221435546875
v 471.8906555175781 -293.8924255371094 1559.226806640625
v 567.2086181640625 -328.7474060058594 1557.01171875
v 473.7733154296875 -293.5229187011719 1557.01171875
v 473.7733154296875 -293.5229187011719 1553.7655029296875
v 567.2086181640625 -328.7474060058594 1553.7655029296875
v 216.04612731933594 765.7296142578125 1575.7359619140625
v 119.88484954833984 819.1112670898438 1562.2203369140625
v 65.15731048583984 718.2694091796875 1562.2203369140625
v 160.93955993652344 665.8272705078125 1575.73583984375
v 504.11480712890625 -193.8519744873047 1575.73583984375
v 464.3627014160156 -296.4014587402344 1562.2203369140625
v 571.7326049804688 -336.8476257324219 1562.2203369140625
v 610.6055908203125 -234.80198669433594 1575.73583984375
v 64.83257293701172 719.3724365234375 1562.2203369140625
v 118.78819274902344 818.7918701171875 1562.2203369140625
v 570.6842041015625 -337.3199157714844 1562.2203369140625
v 464.828857421875 -297.4441833496094 1562.22021484375
v 119.5808334350586 819.8671264648438 1563.03173828125
v 119.5719223022461 819.8720092773438 1565.0794677734375
v 216.43809509277344 766.440185546875 1578.5950927734375
v 216.43809509277344 766.440185546875 1576.5474853515625
v 160.54757690429688 665.1166381835938 1576.5474853515625
v 160.54757690429688 665.1166381835938 1578.5950927734375
v 64.34632873535156 718.1817016601562 1565.079345703125
v 64.34869384765625 718.1803588867188 1563.03173828125
v 463.6554870605469 -296.8057556152344 1563.03173828125
v 463.65185546875 -296.8152770996094 1565.079345703125
v 503.3573303222656 -193.5607147216797 1578.594970703125
v 503.3573303222656 -193.5607147216797 1576.54736328125
v 611.3631591796875 -235.09336853027344 1576.54736328125
v 611.3631591796875 -235.09336853027344 1578.5950927734375
v 571.93017578125 -337.6390075683594 1565.079345703125
v 571.93115234375 -337.6365661621094 1563.03173828125
v 64.02300262451172 719.286865234375 1565.079345703125
v 64.02542877197266 719.2855224609375 1563.03173828125
v 118.47401428222656 819.5508422851562 1565.0794677734375
v 118.48286437988281 819.5459594726562 1563.03173828125
v 570.8795166015625 -338.1101989746094 1565.079345703125
v 570.880615234375 -338.1076354980469 1563.03173828125
v 464.1199035644531 -297.8589782714844 1565.079345703125
v 464.12353515625 -297.8495788574219 1563.0316162109375
v 160.93955993652344 665.8272705078125 1579.4066162109375
v 65.44373321533203 718.503173828125 1565.8909912109375
v 216.04611206054688 765.7296142578125 1579.4066162109375
v 65.12042236328125 719.6083374023438 1565.8909912109375
v 118.79537963867188 818.4467163085938 1565.8909912109375
v 119.8932876586914 818.7679443359375 1565.8909912109375
v 610.6055908203125 -234.80198669433594 1579.4066162109375
v 571.4618530273438 -336.5957946777344 1565.890869140625
v 504.11480712890625 -193.8519744873047 1579.4066162109375
v 570.4111938476562 -337.0669860839844 1565.890869140625
v 465.1697998046875 -297.3898620605469 1565.890869140625
v 464.7017517089844 -296.3461608886719 1565.890869140625
vt -1.505859375 0.712890625
vt -1.505859375 0.09521484375
vt -1.4873046875 0.71142578125
vt -1.505859375 0.09521484375
vt -1.4873046875 0.09814453125
vt -1.4873046875 0.71142578125
vt -1.470703125 0.71044921875
vt -1.4873046875 0.71142578125
vt -1.4873046875 0.09814453125
vt -1.470703125 0.103515625
vt -1.470703125 0.71044921875
vt -1.4873046875 0.09814453125
vt -1.470703125 0.71044921875
vt -1.470703125 0.103515625
vt -1.4521484375 0.709228515625
vt -1.470703125 0.103515625
vt -1.4521484375 0.10302734375
vt -1.4521484375 0.709228515625
vt -1.4521484375 0.10302734375
vt -1.4453125 0.10791015625
vt -1.4521484375 0.709228515625
vt -1.4453125 0.10791015625
vt -1.4453125 0.704345703125
vt -1.4521484375 0.709228515625
vt -2.46875 0.09765625
vt -2.46875 0.718994140625
vt -2.48828125 0.10107421875
vt -2.46875 0.718994140625
vt -2.48828125 0.717529296875
vt -2.48828125 0.10107421875
vt -2.50390625 0.1064453125
vt -2.48828125 0.10107421875
vt -2.48828125 0.717529296875
vt -2.50390625 0.716796875
vt -2.50390625 0.1064453125
vt -2.48828125 0.717529296875
vt -2.50390625 0.1064453125
vt -2.50390625 0.716796875
vt -2.5234375 0.10595703125
vt -2.50390625 0.716796875
vt -2.5234375 0.715576171875
vt -2.5234375 0.10595703125
vt -2.5234375 0.715576171875
vt -2.53125 0.710693359375
vt -2.5234375 0.10595703125
vt -2.53125 0.710693359375
vt -2.53125 0.109375
vt -2.5234375 0.10595703125
vt 2.044921875 0.703369140625
vt 2.044921875 0.1083984375
vt 2.080078125 0.11328125
vt 2.080078125 0.698486328125
vt 2.044921875 0.703369140625
vt 2.080078125 0.11328125
vt 2.080078125 0.11328125
vt 2.69921875 0.10888671875
vt 2.080078125 0.698486328125
vt 2.69921875 0.10888671875
vt 2.705078125 0.694580078125
vt 2.080078125 0.698486328125
vt 2.69921875 0.10888671875
vt 2.703125 0.11083984375
vt 2.705078125 0.694580078125
vt 2.703125 0.11083984375
vt 2.708984375 0.69091796875
vt 2.705078125 0.694580078125
vt -1.505859375 0.712890625
vt -1.505859375 0.09521484375
vt -1.4873046875 0.71142578125
vt -1.505859375 0.09521484375
vt -1.4873046875 0.09814453125
vt -1.4873046875 0.71142578125
vt -1.470703125 0.71044921875
vt -1.4873046875 0.71142578125
vt -1.4873046875 0.09814453125
vt -1.470703125 0.103515625
vt -1.470703125 0.71044921875
vt -1.4873046875 0.09814453125
vt -1.470703125 0.71044921875
vt -1.470703125 0.103515625
vt -1.4521484375 0.709228515625
vt -1.470703125 0.103515625
vt -1.4521484375 0.10302734375
vt -1.4521484375 0.709228515625
vt -1.4521484375 0.10302734375
vt -1.4453125 0.10791015625
vt -1.4521484375 0.709228515625
vt -1.4453125 0.10791015625
vt -1.4453125 0.704345703125
vt -1.4521484375 0.709228515625
vt -2.46875 0.09765625
vt -2.46875 0.718994140625
vt -2.48828125 0.10107421875
vt -2.46875 0.718994140625
vt -2.48828125 0.717529296875
vt -2.48828125 0.10107421875
vt -2.50390625 0.1064453125
vt -2.48828125 0.10107421875
vt -2.48828125 0.717529296875
vt -2.50390625 0.716796875
vt -2.50390625 0.1064453125
vt -2.48828125 0.717529296875
vt -2.50390625 0.1064453125
vt -2.50390625 0.716796875
vt -2.5234375 0.10595703125
vt -2.50390625 0.716796875
vt -2.5234375 0.715576171875
vt -2.5234375 0.10595703125
vt -2.5234375 0.715576171875
vt -2.53125 0.710693359375
vt -2.5234375 0.10595703125
vt -2.53125 0.710693359375
vt -2.53125 0.109375
vt -2.5234375 0.10595703125
vt 2.044921875 0.703369140625
vt 2.044921875 0.1083984375
vt 2.080078125 0.11328125
vt 2.080078125 0.698486328125
vt 2.044921875 0.703369140625
vt 2.080078125 0.11328125
vt 2.080078125 0.11328125
vt 2.69921875 0.10888671875
vt 2.080078125 0.698486328125
vt 2.69921875 0.10888671875
vt 2.705078125 0.694580078125
vt 2.080078125 0.698486328125
vt 2.69921875 0.10888671875
vt 2.703125 0.11083984375
vt 2.705078125 0.694580078125
vt 2.703125 0.11083984375
vt 2.708984375 0.69091796875
vt 2.705078125 0.694580078125
vt -1.7685546875 -0.013671875
vt -1.76171875 0.00341796875
vt -1.767578125 0.00634765625
vt -1.7744140625 -0.01171875
vt -1.7685546875 -0.013671875
vt -1.767578125 0.00634765625
vt -1.767578125 0.00634765625
vt -2.388671875 0.00927734375
vt -1.7744140625 -0.01171875
vt -1.7685546875 -0.013671875
vt -1.7744140625 -0.01171875
vt -1.77734375 -0.0283203125
vt -2.388671875 0.00927734375
vt -2.380859375 -0.0087890625
vt -1.7744140625 -0.01171875
vt -2.380859375 -0.0087890625
vt -2.388671875 0.00927734375
vt -2.39453125 0.005859375
vt -2.38671875 -0.0107421875
vt -2.380859375 -0.0087890625
vt -2.39453125 0.005859375
vt -1.7744140625 -0.01171875
vt -1.7841796875 -0.0263671875
vt -1.77734375 -0.0283203125
vt -2.37109375 -0.0234375
vt -2.380859375 -0.0087890625
vt -2.38671875 -0.0107421875
vt -2.380859375 -0.0087890625
vt -2.37109375 -0.0234375
vt -1.7744140625 -0.01171875
vt -2.37109375 -0.0234375
vt -1.7841796875 -0.0263671875
vt -1.7744140625 -0.01171875
vt -2.37890625 -0.025390625
vt -2.37109375 -0.0234375
vt -2.38671875 -0.0107421875
vt -1.77734375 -0.0283203125
vt -1.7841796875 -0.0263671875
vt -1.7783203125 -0.046875
vt -2.37109375 -0.0234375
vt -2.37890625 -0.025390625
vt -2.37109375 -0.04296875
vt -2.37890625 -0.025390625
vt -2.376953125 -0.0439453125
vt -2.37109375 -0.04296875
vt -2.376953125 -0.0439453125
vt -2.375 -0.0517578125
vt -2.37109375 -0.04296875
vt -2.375 -0.0517578125
vt -2.3671875 -0.048828125
vt -2.37109375 -0.04296875
vt -1.7841796875 -0.0263671875
vt -2.37109375 -0.0234375
vt -1.7841796875 -0.0458984375
vt -2.37109375 -0.0234375
vt -2.37109375 -0.04296875
vt -1.7841796875 -0.0458984375
vt -2.37109375 -0.04296875
vt -2.3671875 -0.048828125
vt -1.7841796875 -0.0458984375
vt -1.7841796875 -0.0263671875
vt -1.7841796875 -0.0458984375
vt -1.7783203125 -0.046875
vt -2.3671875 -0.048828125
vt -1.7861328125 -0.0517578125
vt -1.7841796875 -0.0458984375
vt -1.7841796875 -0.0458984375
vt -1.7861328125 -0.0517578125
vt -1.7783203125 -0.046875
vt -1.7861328125 -0.0517578125
vt -1.78125 -0.0546875
vt -1.7783203125 -0.046875
vt -1.7685546875 -0.013671875
vt -1.76171875 0.00341796875
vt -1.767578125 0.00634765625
vt -1.7744140625 -0.01171875
vt -1.7685546875 -0.013671875
vt -1.767578125 0.00634765625
vt -1.767578125 0.00634765625
vt -2.388671875 0.00927734375
vt -1.7744140625 -0.01171875
vt -1.7685546875 -0.013671875
vt -1.7744140625 -0.01171875
vt -1.77734375 -0.0283203125
vt -2.388671875 0.00927734375
vt -2.380859375 -0.0087890625
vt -1.7744140625 -0.01171875
vt -2.380859375 -0.0087890625
vt -2.388671875 0.00927734375
vt -2.39453125 0.005859375
vt -2.38671875 -0.0107421875
vt -2.380859375 -0.0087890625
vt -2.39453125 0.005859375
vt -1.7744140625 -0.01171875
vt -1.7841796875 -0.0263671875
vt -1.77734375 -0.0283203125
vt -2.37109375 -0.0234375
vt -2.380859375 -0.0087890625
vt -2.38671875 -0.0107421875
vt -2.380859375 -0.0087890625
vt -2.37109375 -0.0234375
vt -1.7744140625 -0.01171875
vt -2.37109375 -0.0234375
vt -1.7841796875 -0.0263671875
vt -1.7744140625 -0.01171875
vt -2.37890625 -0.025390625
vt -2.37109375 -0.0234375
vt -2.38671875 -0.0107421875
vt -1.77734375 -0.0283203125
vt -1.7841796875 -0.0263671875
vt -1.7783203125 -0.046875
vt -2.37109375 -0.0234375
vt -2.37890625 -0.025390625
vt -2.37109375 -0.04296875
vt -2.37890625 -0.025390625
vt -2.376953125 -0.0439453125
vt -2.37109375 -0.04296875
vt -2.376953125 -0.0439453125
vt -2.375 -0.0517578125
vt -2.37109375 -0.04296875
vt -2.375 -0.0517578125
vt -2.3671875 -0.048828125
vt -2.37109375 -0.04296875
vt -1.7841796875 -0.0263671875
vt -2.37109375 -0.0234375
vt -1.7841796875 -0.0458984375
vt -2.37109375 -0.0234375
vt -2.37109375 -0.04296875
vt -1.7841796875 -0.0458984375
vt -2.37109375 -0.04296875
vt -2.3671875 -0.048828125
vt -1.7841796875 -0.0458984375
vt -1.7841796875 -0.0263671875
vt -1.7841796875 -0.0458984375
vt -1.7783203125 -0.046875
vt -2.3671875 -0.048828125
vt -1.7861328125 -0.0517578125
vt -1.7841796875 -0.0458984375
vt -1.7841796875 -0.0458984375
vt -1.7861328125 -0.0517578125
vt -1.7783203125 -0.046875
vt -1.7861328125 -0.0517578125
vt -1.78125 -0.0546875
vt -1.7783203125 -0.046875
vn -0.4060479402542114 -0.8434368968009949 -0.3517659902572632
vn -0.6958561539649963 -0.5973162651062012 -0.39874503016471863
vn -0.36733946204185486 -0.8041099905967712 -0.4674064517021179
vn -0.6452738642692566 -0.562197744846344 -0.5172573924064636
vn -0.4109097719192505 -0.8482235670089722 -0.33417052030563354
vn -0.6991161108016968 -0.6182076930999756 -0.3592434227466583
vn -0.15045858919620514 -0.8615522980690002 -0.4848605990409851
vn -0.7073491215705872 -0.592799186706543 -0.385027676820755
vn -0.18125560879707336 -0.36312225461006165 -0.9139413237571716
vn 0.18997932970523834 -0.4167840778827667 -0.8889312744140625
vn 0.12169893831014633 0.9089658260345459 -0.3987109661102295
vn 0.486310213804245 0.7998397946357727 -0.3517935276031494
vn 0.11976898461580276 0.8474400639533997 -0.5172047019004822
vn 0.4745313823223114 0.746025025844574 -0.4671902358531952
vn 0.13745909929275513 0.9229736924171448 -0.3594781160354614
vn 0.48773863911628723 0.8060522079467773 -0.33524736762046814
vn 0.10266577452421188 0.9106183052062988 -0.40029221773147583
vn 0.6401222348213196 0.5957860350608826 -0.4850592315196991
vn 0.45201578736305237 0.06537872552871704 -0.8896108269691467
vn 0.15022292733192444 0.38469016551971436 -0.9107396006584167
vn -0.43283510208129883 -0.004942452535033226 -0.9014596343040466
vn -0.34618785977363586 0.397911936044693 -0.8495999574661255
vn 0.8909651041030884 -0.28707319498062134 -0.3518097400665283
vn 0.6867305636405945 -0.6077796220779419 -0.3987545073032379
vn 0.846724271774292 -0.2540997564792633 -0.46743044257164
vn 0.6450361013412476 -0.562460720539093 -0.5172681212425232
vn 0.8963861465454102 -0.29124656319618225 -0.33416664600372314
vn 0.7078611254692078 -0.6081675887107849 -0.3592557907104492
vn 0.8740441203117371 -0.03139324486255646 -0.4848313629627228
vn 0.6838275790214539 -0.6197974681854248 -0.3850078880786896
vn 0.38448426127433777 -0.12998998165130615 -0.913933515548706
vn 0.38699784874916077 0.2450924515724182 -0.8889107704162598
vn -0.9170628190040588 -0.0035629498306661844 -0.39872676134109497
vn -0.8587445616722107 0.3725472688674927 -0.35180434584617615
vn -0.8558434844017029 0.002948353998363018 -0.5172263979911804
vn -0.803829550743103 0.36822623014450073 -0.46719110012054443
vn -0.9330921769142151 0.01015673577785492 -0.35949382185935974
vn -0.8651005029678345 0.37311339378356934 -0.3352426588535309
vn -0.9161248207092285 -0.022621959447860718 -0.4002545177936554
vn -0.6776098608970642 0.5527775287628174 -0.4850586950778961
vn -0.12646189332008362 0.4388646185398102 -0.8896096348762512
vn -0.4016427993774414 0.09628552198410034 -0.9107206463813782
vn 0.06398005038499832 -0.4281565248966217 -0.9014368653297424
vn -0.34697985649108887 -0.3973177671432495 -0.8495548963546753
vn -0.9358614087104797 0.04957697167992592 -0.34886327385902405
vn -0.8870380520820618 0.09948494285345078 -0.45085039734840393
vn -0.5511765480041504 0.7579402327537537 -0.3488996624946594
vn -0.5664718151092529 0.6898130178451538 -0.4508521556854248
vn -0.9407608509063721 0.15531039237976074 -0.3014093041419983
vn -0.6425296068191528 0.7044991254806519 -0.3013914227485657
vn -0.5580734610557556 0.7543377876281738 -0.34572890400886536
vn -0.9245812892913818 0.09671751409769058 -0.36850395798683167
vn 0.07867255061864853 -0.9338594079017639 -0.34887975454330444
vn 0.02255319617688656 -0.8923080563545227 -0.4508631229400635
vn -0.6755680441856384 -0.64951491355896 -0.34891003370285034
vn -0.6060023903846741 -0.6553420424461365 -0.45087456703186035
vn -0.025409065186977386 -0.9531511664390564 -0.30142542719841003
vn -0.6101698875427246 -0.7326992154121399 -0.30140456557273865
vn -0.6710960865020752 -0.6558504700660706 -0.34567344188690186
vn 0.03042738512158394 -0.9291425943374634 -0.36846745014190674
vn 0.12239127606153488 0.4337898790836334 0.892662763595581
vn 0.06780791282653809 0.46329644322395325 0.8836053609848022
vn 0.037867508828639984 0.41743701696395874 0.9079164266586304
vn 0.09366817772388458 0.3875170648097992 0.9170914888381958
vn 0.30263909697532654 -0.11637663841247559 0.9459735155105591
vn 0.280326247215271 -0.17893148958683014 0.9430804252624512
vn 0.33684539794921875 -0.19845914840698242 0.9204070568084717
vn 0.3578870892524719 -0.13762173056602478 0.923567533493042
vn 0.03766896203160286 0.41796910762786865 0.9076798558235168
vn 0.0671960711479187 0.4631739854812622 0.8837164044380188
vn 0.336279034614563 -0.198767751455307 0.9205475449562073
vn 0.2805539071559906 -0.17952655255794525 0.9428996443748474
vn 0.0675959438085556 0.4634495973587036 0.8835412859916687
vn 0.06752177327871323 0.4629783630371094 0.8837940096855164
vn 0.12241163104772568 0.4334781765937805 0.8928114175796509
vn 0.12253830581903458 0.4339267611503601 0.8925760388374329
vn 0.09341651201248169 0.387006014585495 0.9173328876495361
vn 0.0933145210146904 0.38658347725868225 0.9175214767456055
vn 0.03734130412340164 0.4167734682559967 0.9082430601119995
vn 0.037383027374744415 0.4172230362892151 0.9080349206924438
vn 0.27979129552841187 -0.17910641431808472 0.9432061314582825
vn 0.2794632911682129 -0.17890357971191406 0.9433419108390808
vn 0.30174192786216736 -0.11603165417909622 0.9463024735450745
vn 0.3020927906036377 -0.11616656929254532 0.9461739659309387
vn 0.3581084907054901 -0.1377069056034088 0.9234691262245178
vn 0.3577122092247009 -0.13755452632904053 0.9236453175544739
vn 0.33639591932296753 -0.19859133660793304 0.9205429553985596
vn 0.33676981925964355 -0.19881029427051544 0.9203588366508484
vn 0.037143997848033905 0.417306125164032 0.9080065488815308
vn 0.03718552365899086 0.417756050825119 0.9077979922294617
vn 0.06691019982099533 0.46285516023635864 0.8839050531387329
vn 0.06698372215032578 0.4633263945579529 0.8836525082588196
vn 0.3358291685581207 -0.19889883697032928 0.9206834435462952
vn 0.3362026512622833 -0.19911813735961914 0.9204996824264526
vn 0.27969181537628174 -0.17949825525283813 0.9431611895561218
vn 0.28001996874809265 -0.1797017902135849 0.9430249333381653
vn 0.09348497539758682 0.3867591321468353 0.91743004322052
vn 0.0379580520093441 0.4167393743991852 0.9082331657409668
vn 0.12216444313526154 0.43298596143722534 0.8930839896202087
vn 0.03776070103049278 0.41727179288864136 0.9079968929290771
vn 0.06708304584026337 0.4621720016002655 0.8842493295669556
vn 0.0676945298910141 0.4622953534126282 0.8841383457183838
vn 0.3571772277355194 -0.13734877109527588 0.9238829612731934
vn 0.3360447883605957 -0.19793318212032318 0.9208129048347473
vn 0.3020094633102417 -0.11613452434539795 0.9462046027183533
vn 0.3354780972003937 -0.1982404887676239 0.9209533929824829
vn 0.2801598608493805 -0.17911028861999512 0.9430959224700928
vn 0.27993151545524597 -0.17851585149765015 0.9432764053344727
f 1/1/1 2/2/2 3/3/3
f 2/4/2 4/5/4 3/6/3
f 5/7/5 3/8/3 4/9/4
f 6/10/6 5/11/5 4/12/4
f 5/13/5 6/14/6 7/15/7
f 6/16/6 8/17/8 7/18/7
f 8/19/8 9/20/9 7/21/7
f 9/22/9 10/23/10 7/24/7
f 11/25/11 12/26/12 13/27/13
f 12/28/12 14/29/14 13/30/13
f 15/31/15 13/32/13 14/33/14
f 16/34/16 15/35/15 14/36/14
f 15/37/15 16/38/16 17/39/17
f 16/40/16 18/41/18 17/42/17
f 18/43/18 19/44/19 17/45/17
f 19/46/19 20/47/20 17/48/17
f 18/49/18 7/50/7 10/51/10
f 19/52/19 18/53/18 10/54/10
f 10/55/10 9/56/9 19/57/19
f 9/58/9 20/59/20 19/60/19
f 9/61/9 21/62/21 20/63/20
f 21/64/21 22/65/22 20/66/20
f 23/67/23 24/68/24 25/69/25
f 24/70/24 26/71/26 25/72/25
f 27/73/27 25/74/25 26/75/26
f 28/76/28 27/77/27 26/78/26
f 27/79/27 28/80/28 29/81/29
f 28/82/28 30/83/30 29/84/29
f 30/85/30 31/86/31 29/87/29
f 31/88/31 32/89/32 29/90/29
f 33/91/33 34/92/34 35/93/35
f 34/94/34 36/95/36 35/96/35
f 37/97/37 35/98/35 36/99/36
f 38/100/38 37/101/37 36/102/36
f 37/103/37 38/104/38 39/105/39
f 38/106/38 40/107/40 39/108/39
f 40/109/40 41/110/41 39/111/39
f 41/112/41 42/113/42 39/114/39
f 40/115/40 29/116/29 32/117/32
f 41/118/41 40/119/40 32/120/32
f 32/121/32 31/122/31 41/123/41
f 31/124/31 42/125/42 41/126/41
f 31/127/31 43/128/43 42/129/42
f 43/130/43 44/131/44 42/132/42
f 4/133/4 2/134/2 45/135/45
f 46/136/46 4/137/4 45/138/45
f 45/139/45 47/140/47 46/141/46
f 4/142/4 46/143/46 6/144/6
f 47/145/47 48/146/48 46/147/46
f 48/148/48 47/149/47 11/150/11
f 13/151/13 48/152/48 11/153/11
f 46/154/46 49/155/49 6/156/6
f 50/157/50 48/158/48 13/159/13
f 48/160/48 50/161/50 46/162/46
f 50/163/50 49/164/49 46/165/46
f 15/166/15 50/167/50 13/168/13
f 6/169/6 49/170/49 8/171/8
f 50/172/50 15/173/15 51/174/51
f 15/175/15 17/176/17 51/177/51
f 17/178/17 20/179/20 51/180/51
f 20/181/20 22/182/22 51/183/51
f 49/184/49 50/185/50 52/186/52
f 50/187/50 51/188/51 52/189/52
f 51/190/51 22/191/22 52/192/52
f 49/193/49 52/194/52 8/195/8
f 22/196/22 21/197/21 52/198/52
f 52/199/52 21/200/21 8/201/8
f 21/202/21 9/203/9 8/204/8
f 26/205/26 24/206/24 53/207/53
f 54/208/54 26/209/26 53/210/53
f 53/211/53 55/212/55 54/213/54
f 26/214/26 54/215/54 28/216/28
f 55/217/55 56/218/56 54/219/54
f 56/220/56 55/221/55 33/222/33
f 35/223/35 56/224/56 33/225/33
f 54/226/54 57/227/57 28/228/28
f 58/229/58 56/230/56 35/231/35
f 56/232/56 58/233/58 54/234/54
f 58/235/58 57/236/57 54/237/54
f 37/238/37 58/239/58 35/240/35
f 28/241/28 57/242/57 30/243/30
f 58/244/58 37/245/37 59/246/59
f 37/247/37 39/248/39 59/249/59
f 39/250/39 42/251/42 59/252/59
f 42/253/42 44/254/44 59/255/59
f 57/256/57 58/257/58 60/258/60
f 58/259/58 59/260/59 60/261/60
f 59/262/59 44/263/44 60/264/60
f 57/265/57 60/266/60 30/267/30
f 44/268/44 43/269/43 60/270/60
f 60/271/60 43/272/43 30/273/30
f 43/274/43 31/275/31 30/276/30
