# Exported by Lightwave Blender addon
v 109.23165130615234 777.525390625 818.6492309570312
v 109.28508758544922 777.5250244140625 871.0735473632812
v 109.87506866455078 778.6883544921875 818.6492309570312
v 109.9037857055664 778.643310546875 871.0735473632812
v 110.8585433959961 776.5595092773438 818.6492919921875
v 110.8864517211914 776.6099243164062 871.0997314453125
v 111.52986145019531 777.7728271484375 871.0997314453125
v 111.55773162841797 777.8233032226562 818.6492919921875
v 64.27791595458984 696.2728881835938 818.6492919921875
v 64.33135223388672 696.2724609375 871.0735473632812
v 64.92131042480469 697.4358520507812 818.6492919921875
v 64.95005798339844 697.3907470703125 871.0735473632812
v 65.90480041503906 695.3070068359375 818.649169921875
v 65.9327163696289 695.3573608398438 871.0997314453125
v 66.57612609863281 696.5203247070312 871.0997314453125
v 66.60400390625 696.5707397460938 818.649169921875
v 116.27383422851562 784.7476806640625 862.199951171875
v 62.8860969543457 688.2509155273438 862.199951171875
v 113.33939361572266 786.3712158203125 862.2234497070312
v 59.95166778564453 689.8743896484375 862.2234497070312
v 62.88610076904297 688.2509155273438 863.779052734375
v 116.2738265991211 784.7476806640625 863.779052734375
v 59.95166778564453 689.8744506835938 863.7554931640625
v 113.33940124511719 786.3712158203125 863.755615234375
v 116.27383422851562 784.7476806640625 817.3930053710938
v 62.8860969543457 688.2509155273438 817.39306640625
v 113.33940124511719 786.3712158203125 817.41650390625
v 59.951663970947266 689.8743896484375 817.4165649414062
v 62.8860969543457 688.2509155273438 818.97216796875
v 116.27383422851562 784.7476806640625 818.9721069335938
v 59.95166015625 689.8743896484375 818.9486694335938
v 113.33939361572266 786.3712158203125 818.9486083984375
v 59.69508743286133 690.016357421875 862.4389038085938
v 113.08282470703125 786.51318359375 862.4388427734375
v 113.08281707763672 786.51318359375 863.5400390625
v 59.69508743286133 690.016357421875 863.5401000976562
v 59.69508743286133 690.016357421875 817.6320190429688
v 113.08282470703125 786.5131225585938 817.6320190429688
v 113.08280944824219 786.5131225585938 818.7332153320312
v 59.69508743286133 690.016357421875 818.7332153320312
v 118.5698013305664 784.6560668945312 870.9287719726562
v 64.00054168701172 686.0237426757812 870.9287719726562
v 113.69435119628906 787.3534545898438 870.9287719726562
v 59.125091552734375 688.7211303710938 870.9287719726562
v 117.8668212890625 785.0449829101562 874.675048828125
v 116.132080078125 786.0047607421875 875.2830200195312
v 63.29754638671875 686.4126586914062 874.675048828125
v 61.56281661987305 687.3724365234375 875.2830200195312
v 114.3973388671875 786.9645385742188 874.6749877929688
v 59.828086853027344 688.3321533203125 874.6751098632812
v 118.6752700805664 784.5977172851562 872.9383544921875
v 64.10601043701172 685.9653930664062 872.9383544921875
v 118.51720428466797 784.6851806640625 873.5297241210938
v 63.94794464111328 686.0527954101562 873.5297241210938
v 113.7469482421875 787.3243408203125 873.5296630859375
v 59.17768859863281 688.6920166015625 873.5296630859375
v 113.58888244628906 787.4118041992188 872.9382934570312
v 59.019622802734375 688.7794799804688 872.9382934570312
vt 0.9013671875 0.14697265625
vt 0.38427734375 0.146484375
vt 0.9013671875 0.13330078125
vt 0.38427734375 0.146484375
vt 0.38427734375 0.1337890625
vt 0.9013671875 0.13330078125
vt 1.1416015625 0.509033203125
vt 0.4404296875 0.509033203125
vt 1.1416015625 0.4951171875
vt 0.4404296875 0.509033203125
vt 0.440673828125 0.49560546875
vt 1.1416015625 0.4951171875
vt 0.51513671875 0.660888671875
vt 0.4970703125 0.660888671875
vt 0.5146484375 0.647216796875
vt 0.4970703125 0.660888671875
vt 0.497314453125 0.647216796875
vt 0.5146484375 0.647216796875
vt 0.50146484375 0.532958984375
vt -0.199462890625 0.532958984375
vt 0.5009765625 0.51904296875
vt -0.199462890625 0.532958984375
vt -0.199462890625 0.518798828125
vt 0.5009765625 0.51904296875
vt 1.048828125 0.41845703125
vt 0.5322265625 0.41845703125
vt 1.048828125 0.40478515625
vt 0.5322265625 0.41845703125
vt 0.5322265625 0.4052734375
vt 1.048828125 0.40478515625
vt 1.1279296875 0.455078125
vt 0.4267578125 0.455078125
vt 1.1279296875 0.44091796875
vt 0.4267578125 0.455078125
vt 0.42724609375 0.44140625
vt 1.1279296875 0.44091796875
vt 0.1475830078125 0.9154052734375
vt 0.1295166015625 0.9154052734375
vt 0.147216796875 0.90185546875
vt 0.1295166015625 0.9154052734375
vt 0.1298828125 0.90185546875
vt 0.147216796875 0.90185546875
vt 1.1279296875 0.48193359375
vt 0.427001953125 0.48193359375
vt 1.126953125 0.46826171875
vt 0.427001953125 0.48193359375
vt 0.427001953125 0.4677734375
vt 1.126953125 0.46826171875
vt 1.30859375 0.36865234375
vt -0.1868896484375 0.36865234375
vt 1.30859375 0.34423828125
vt -0.1868896484375 0.36865234375
vt -0.1868896484375 0.34423828125
vt 1.30859375 0.34423828125
vt 1.0625 0.48974609375
vt -0.432861328125 0.48974609375
vt 1.0625 0.46484375
vt -0.432861328125 0.48974609375
vt -0.432861328125 0.46484375
vt 1.0625 0.46484375
vt 1.30859375 0.287109375
vt -0.186767578125 0.287109375
vt 1.30859375 0.2626953125
vt -0.186767578125 0.287109375
vt -0.186767578125 0.2626953125
vt 1.30859375 0.2626953125
vt 1.0625 0.46240234375
vt -0.432861328125 0.46240234375
vt 1.0625 0.43798828125
vt -0.432861328125 0.46240234375
vt -0.432861328125 0.43798828125
vt 1.0625 0.43798828125
vt -0.294189453125 -0.017578125
vt 0.923828125 0.07666015625
vt 0.923828125 0.0791015625
vt -0.29443359375 -0.0146484375
vt -0.294189453125 -0.017578125
vt 0.923828125 0.0791015625
vt -0.29443359375 -0.0146484375
vt 0.923828125 0.0791015625
vt -0.295166015625 -0.0029296875
vt 0.923828125 0.0791015625
vt 0.9228515625 0.0908203125
vt -0.295166015625 -0.0029296875
vt 0.9228515625 0.0908203125
vt 0.92236328125 0.09326171875
vt -0.295166015625 -0.0029296875
vt 0.92236328125 0.09326171875
vt -0.29541015625 -0.0009765625
vt -0.295166015625 -0.0029296875
vt 0.92529296875 0.0830078125
vt -0.29541015625 0.12939453125
vt -0.29541015625 0.12744140625
vt 0.92529296875 0.0810546875
vt 0.92529296875 0.0830078125
vt -0.29541015625 0.12744140625
vt 0.92529296875 0.0810546875
vt -0.29541015625 0.12744140625
vt 0.9248046875 0.06884765625
vt -0.29541015625 0.12744140625
vt -0.2958984375 0.115234375
vt 0.9248046875 0.06884765625
vt -0.2958984375 0.115234375
vt -0.2958984375 0.11328125
vt 0.9248046875 0.06884765625
vt -0.2958984375 0.11328125
vt 0.9248046875 0.06689453125
vt 0.9248046875 0.06884765625
vn -0.9651169776916504 -0.26181530952453613 0.0013794974656775594
vn -0.7890755534172058 -0.21896307170391083 0.5739467144012451
vn -0.2911553978919983 0.9566753506660461 0.000981493853032589
vn -0.23383520543575287 0.7846962213516235 0.5740845203399658
vn -0.510504961013794 -0.8598741292953491 0.0010981400264427066
vn -0.3596886992454529 -0.6086477637290955 0.7072283625602722
vn 0.3246811032295227 0.627788782119751 0.707434356212616
vn 0.4575459063053131 0.8891858458518982 0.0005268045933917165
vn -0.9651074409484863 -0.2618505358695984 0.0013792403042316437
vn -0.7890763878822327 -0.21896149218082428 0.5739463567733765
vn -0.2911236584186554 0.956684947013855 0.0009824299486353993
vn -0.2338426113128662 0.7846928834915161 0.5740859508514404
vn -0.5105066299438477 -0.8598731160163879 0.0010972110321745276
vn -0.3596915006637573 -0.6086527705192566 0.7072226405143738
vn 0.32466477155685425 0.6277990341186523 0.707432746887207
vn 0.45756393671035767 0.8891765475273132 0.0005275186849758029
vn -0.006130953785032034 0.0033920076675713062 -0.9999755024909973
vn -0.006131024099886417 0.0033920439891517162 -0.9999754428863525
vn -0.27548202872276306 0.15241265296936035 -0.9491469860076904
vn -0.27552539110183716 0.15243686735630035 -0.9491305351257324
vn -0.006146884988993406 0.003400821005925536 0.9999753832817078
vn -0.006116195116192102 0.00338260130956769 0.9999756217002869
vn -0.2755086421966553 0.15242788195610046 0.9491367936134338
vn -0.2756330966949463 0.1524953693151474 0.9490898251533508
vn -0.006131230387836695 0.0033915278036147356 -0.9999755024909973
vn -0.006131286267191172 0.003391557140275836 -0.9999754428863525
vn -0.27559611201286316 0.15247580409049988 -0.9491037726402283
vn -0.2755275368690491 0.1524375081062317 -0.9491298198699951
vn -0.006130743771791458 0.003392523154616356 0.9999755024909973
vn -0.006130686495453119 0.0033924896270036697 0.9999753832817078
vn -0.275531142950058 0.15244047343730927 0.9491283297538757
vn -0.27547886967658997 0.15241174399852753 0.9491479992866516
vn -0.780696451663971 0.43192726373672485 -0.4516102075576782
vn -0.7806761860847473 0.43191590905189514 -0.4516562819480896
vn -0.7807499766349792 0.4319564700126648 0.4514898657798767
vn -0.7806878685951233 0.4319228231906891 0.4516294002532959
vn -0.7806993722915649 0.43192875385284424 -0.4516039490699768
vn -0.7807250022888184 0.431943416595459 -0.4515455365180969
vn -0.7806735038757324 0.4319150745868683 0.45166170597076416
vn -0.7806973457336426 0.43192797899246216 0.45160815119743347
vn 0.10063256323337555 0.6659533381462097 0.7391746640205383
vn 0.05763145536184311 0.6177533268928528 0.7842572927474976
vn 0.09638684242963791 0.6674959063529968 0.738348662853241
vn 0.0531742237508297 0.6194022297859192 0.7832708954811096
vn 0.09978526085615158 0.6646138429641724 0.7404940128326416
vn 0.09824042022228241 0.6649104356765747 0.7404342293739319
vn 0.05683770775794983 0.6163607239723206 0.7854099869728088
vn 0.05523180961608887 0.6166843175888062 0.7852705121040344
vn 0.09677135944366455 0.665711522102356 0.7399078011512756
vn 0.05367448553442955 0.6175339818000793 0.7847106456756592
vn 0.10059759020805359 0.6650807857513428 0.7399646043777466
vn 0.05764612928032875 0.6168415546417236 0.7849735021591187
vn 0.10042275488376617 0.6648845076560974 0.7401648163795471
vn 0.0574776828289032 0.6166378855705261 0.7851458787918091
vn 0.09627576917409897 0.6663937568664551 0.7393581867218018
vn 0.05312487110495567 0.6182511448860168 0.7841832041740417
vn 0.09617405384778976 0.6666901111602783 0.739104151725769
vn 0.05300286039710045 0.6185617446899414 0.7839464545249939
f 1/1/1 2/2/2 3/3/3
f 2/4/2 4/5/4 3/6/3
f 5/7/5 6/8/6 1/9/1
f 6/10/6 2/11/2 1/12/1
f 6/13/6 7/14/7 2/15/2
f 7/16/7 4/17/4 2/18/2
f 7/19/7 8/20/8 4/21/4
f 8/22/8 3/23/3 4/24/4
f 9/25/9 10/26/10 11/27/11
f 10/28/10 12/29/12 11/30/11
f 13/31/13 14/32/14 9/33/9
f 14/34/14 10/35/10 9/36/9
f 14/37/14 15/38/15 10/39/10
f 15/40/15 12/41/12 10/42/10
f 15/43/15 16/44/16 12/45/12
f 16/46/16 11/47/11 12/48/12
f 17/49/17 18/50/18 19/51/19
f 18/52/18 20/53/20 19/54/19
f 21/55/21 22/56/22 23/57/23
f 22/58/22 24/59/24 23/60/23
f 25/61/25 26/62/26 27/63/27
f 26/64/26 28/65/28 27/66/27
f 29/67/29 30/68/30 31/69/31
f 30/70/30 32/71/32 31/72/31
f 19/73/19 20/74/20 33/75/33
f 34/76/34 19/77/19 33/78/33
f 34/79/34 33/80/33 35/81/35
f 33/82/33 36/83/36 35/84/35
f 36/85/36 23/86/23 35/87/35
f 23/88/23 24/89/24 35/90/35
f 27/91/27 28/92/28 37/93/37
f 38/94/38 27/95/27 37/96/37
f 38/97/38 37/98/37 39/99/39
f 37/100/37 40/101/40 39/102/39
f 40/103/40 31/104/31 39/105/39
f 31/106/31 32/107/32 39/108/39
