# Exported by Lightwave Blender addon
v 143.69361877441406 220.80960083007812 1111.6885986328125
v 143.72792053222656 220.85055541992188 1164.1129150390625
v 143.2058868408203 222.04592895507812 1111.6885986328125
v 143.25892639160156 222.0394287109375 1164.1129150390625
v 145.4739532470703 221.45001220703125 1111.6885986328125
v 145.45285034179688 221.5035858154297 1164.13916015625
v 144.96511840820312 222.73992919921875 1164.13916015625
v 144.94395446777344 222.79351806640625 1111.6885986328125
v 177.76976013183594 134.42886352539062 1111.6885986328125
v 177.80406188964844 134.46981811523438 1164.1129150390625
v 177.2820281982422 135.66519165039062 1111.6885986328125
v 177.33506774902344 135.65869140625 1164.1129150390625
v 179.5501251220703 135.06927490234375 1111.6885986328125
v 179.52899169921875 135.1228485107422 1164.13916015625
v 179.041259765625 136.3591766357422 1164.13916015625
v 179.02012634277344 136.4127655029297 1111.6885986328125
v 142.6031494140625 230.8377685546875 1155.2392578125
v 183.072509765625 128.25070190429688 1155.2392578125
v 139.4835205078125 229.6071014404297 1155.2628173828125
v 179.952880859375 127.02001190185547 1155.2628173828125
v 183.072509765625 128.25070190429688 1156.818359375
v 142.60316467285156 230.8377685546875 1156.818359375
v 179.95286560058594 127.02001190185547 1156.794921875
v 139.48353576660156 229.6071014404297 1156.794921875
v 142.60316467285156 230.8377685546875 1110.432373046875
v 183.072509765625 128.25070190429688 1110.432373046875
v 139.48350524902344 229.60711669921875 1110.4559326171875
v 179.952880859375 127.02001953125 1110.4559326171875
v 183.072509765625 128.25070190429688 1112.011474609375
v 142.6031494140625 230.8377685546875 1112.011474609375
v 179.95286560058594 127.02001953125 1111.988037109375
v 139.48350524902344 229.60711669921875 1111.988037109375
v 179.6800994873047 126.91240692138672 1155.478271484375
v 139.2107391357422 229.49949645996094 1155.478271484375
v 139.21075439453125 229.49949645996094 1156.5794677734375
v 179.6800994873047 126.91240692138672 1156.5794677734375
v 179.68011474609375 126.91241455078125 1110.67138671875
v 139.2107391357422 229.49951171875 1110.67138671875
v 139.2107391357422 229.49951171875 1111.7725830078125
v 179.6800994873047 126.91241455078125 1111.7725830078125
v 144.1348114013672 232.55062866210938 1163.9681396484375
v 185.49978637695312 127.69316864013672 1163.9681396484375
v 138.95164489746094 230.5059356689453 1163.9681396484375
v 180.31661987304688 125.64849090576172 1163.9681396484375
v 143.38743591308594 232.2558135986328 1167.71435546875
v 141.543212890625 231.52828979492188 1168.3223876953125
v 184.75242614746094 127.39835357666016 1167.71435546875
v 182.908203125 126.67082977294922 1168.3223876953125
v 139.69898986816406 230.80076599121094 1167.71435546875
v 181.06398010253906 125.94332122802734 1167.71435546875
v 144.24693298339844 232.59486389160156 1165.9776611328125
v 185.61190795898438 127.73741912841797 1165.9776611328125
v 144.0789031982422 232.52857971191406 1166.569091796875
v 185.44386291503906 127.6711196899414 1166.569091796875
v 139.007568359375 230.5279998779297 1166.569091796875
v 180.37254333496094 125.6705551147461 1166.569091796875
v 138.8395233154297 230.46170043945312 1165.977783203125
v 180.20449829101562 125.60424041748047 1165.9776611328125
vt 1.3310546875 0.3466796875
vt -0.1966552734375 0.3466796875
vt 1.3310546875 0.3056640625
vt -0.1966552734375 0.3466796875
vt -0.1966552734375 0.3056640625
vt 1.3310546875 0.3056640625
vt -0.164306640625 0.39013671875
vt -0.164306640625 0.3740234375
vt 1.298828125 0.39013671875
vt -0.164306640625 0.3740234375
vt 1.298828125 0.3740234375
vt 1.298828125 0.39013671875
vt -0.41015625 0.510498046875
vt -0.41015625 0.49462890625
vt 1.052734375 0.510498046875
vt -0.41015625 0.49462890625
vt 1.052734375 0.49462890625
vt 1.052734375 0.510498046875
vt -0.02276611328125 0.25732421875
vt -0.02276611328125 0.23681640625
vt 1.1572265625 0.25732421875
vt -0.02276611328125 0.23681640625
vt 1.1572265625 0.23681640625
vt 1.1572265625 0.25732421875
vt -0.02276611328125 0.23681640625
vt -0.02276611328125 0.23095703125
vt 1.1572265625 0.23681640625
vt -0.02276611328125 0.23095703125
vt 1.1572265625 0.23095703125
vt 1.1572265625 0.23681640625
vt 1.1572265625 0.23095703125
vt -0.02276611328125 0.23095703125
vt 1.1572265625 0.21923828125
vt -0.02276611328125 0.23095703125
vt -0.02276611328125 0.21923828125
vt 1.1572265625 0.21923828125
vt 0.9130859375 0.39990234375
vt 0.9130859375 0.41162109375
vt -0.27001953125 0.39990234375
vt 0.9130859375 0.41162109375
vt -0.27001953125 0.41162109375
vt -0.27001953125 0.39990234375
vt -0.27001953125 0.41162109375
vt 0.9130859375 0.41162109375
vt 0.9130859375 0.41748046875
vt -0.27001953125 0.41748046875
vt -0.27001953125 0.41162109375
vt 0.9130859375 0.41748046875
vt -0.27001953125 0.43798828125
vt -0.27001953125 0.41748046875
vt 0.9130859375 0.41748046875
vt 0.9130859375 0.43798828125
vt -0.27001953125 0.43798828125
vt 0.9130859375 0.41748046875
vn 0.125773623585701 0.19327248632907867 0.9730501770973206
vn 0.12041926383972168 0.18503476679325104 0.9753262996673584
vn 0.12532715499401093 0.1943242996931076 0.9728983044624329
vn 0.12000982463359833 0.18600524961948395 0.9751921892166138
vn 0.12729303538799286 0.19377382099628448 0.9727529287338257
vn 0.12182816118001938 0.18552660942077637 0.9750577807426453
vn 0.1214023008942604 0.18653549253940582 0.9749184846878052
vn 0.12680776417255402 0.19491636753082275 0.9725880026817322
vn 0.15678974986076355 0.11856386065483093 0.9804894924163818
vn 0.15001197159290314 0.11345118284225464 0.9821534156799316
vn 0.1563498079776764 0.11964679509401321 0.980428159236908
vn 0.14960803091526031 0.11444792151451111 0.9820992946624756
vn 0.15831021964550018 0.11909123510122299 0.9801812171936035
vn 0.15142126381397247 0.11396751552820206 0.9818772077560425
vn 0.15100127458572388 0.11500371247529984 0.9818211793899536
vn 0.15783219039440155 0.12026762962341309 0.9801146388053894
vn 0.12017027288675308 0.19452472031116486 0.9735087752342224
vn 0.1555858701467514 0.10899505019187927 0.9817907810211182
vn 0.11759952455759048 0.19358333945274353 0.9740101099014282
vn 0.15301157534122467 0.10800345242023468 0.9823048710823059
vn 0.15538112819194794 0.10885161906480789 0.9818390607833862
vn 0.12001480162143707 0.19427302479743958 0.973578155040741
vn 0.15281599760055542 0.10786540806293488 0.9823504090309143
vn 0.11745176464319229 0.19334009289741516 0.9740762710571289
vn 0.12475106120109558 0.20193982124328613 0.9714203476905823
vn 0.1616239696741104 0.11322501301765442 0.980335533618927
vn 0.12208709120750427 0.20097047090530396 0.9719595909118652
vn 0.15895621478557587 0.11219949275255203 0.9808894395828247
vn 0.1614033728837967 0.11307048052549362 0.9803897142410278
vn 0.12458385527133942 0.20166917145252228 0.9714980125427246
vn 0.15874548256397247 0.11205074936151505 0.980940580368042
vn 0.12192817032337189 0.20070886611938477 0.972033679485321
vn 0.15275906026363373 0.10789742320775986 0.9823557138442993
vn 0.11735402047634125 0.19346703588962555 0.974062979221344
vn 0.11724800616502762 0.19329224526882172 0.9741103649139404
vn 0.15261869132518768 0.10779827833175659 0.9823883771896362
vn 0.15869343280792236 0.11208900809288025 0.9809446930885315
vn 0.12183187901973724 0.20084913074970245 0.9720168113708496
vn 0.12171784788370132 0.20066115260124207 0.9720699191093445
vn 0.15854215621948242 0.11198217421770096 0.9809813499450684
vn 0.6377800703048706 0.2515963613986969 -0.7279670238494873
vn 0.6377738118171692 0.2515939474105835 -0.727973222732544
vn -0.6377753615379333 -0.25159451365470886 -0.7279716730117798
vn -0.6377841830253601 -0.25159794092178345 -0.7279627323150635
vn 0.5602514743804932 0.22101238369941711 0.7982929944992065
vn 1.915029542942648e-06 7.54104860334337e-07 1.0
vn 0.5602577924728394 0.22101475298404694 0.7982878684997559
vn -1.6669725937390467e-06 -6.648045314250339e-07 1.0
vn -0.5602590441703796 -0.22101542353630066 0.7982867956161499
vn -0.5602599382400513 -0.22101569175720215 0.7982861399650574
vn 0.9237377643585205 0.36440321803092957 0.11797767132520676
vn 0.9237361550331116 0.3644024729728699 0.11799346655607224
vn 0.84318608045578 0.33262667059898376 0.4223703444004059
vn 0.843183696269989 0.33262547850608826 0.42237621545791626
vn -0.8431733846664429 -0.33262160420417786 0.42239946126937866
vn -0.8431829810142517 -0.33262547850608826 0.42237749695777893
vn -0.9237326979637146 -0.3644012212753296 0.11802414059638977
vn -0.9237358570098877 -0.36440253257751465 0.11799485981464386
f 41/1/41 42/2/42 43/3/43
f 42/4/42 44/5/44 43/6/43
f 45/7/45 46/8/46 47/9/47
f 46/10/46 48/11/48 47/12/47
f 46/13/46 49/14/49 48/15/48
f 49/16/49 50/17/50 48/18/48
f 41/19/41 51/20/51 42/21/42
f 51/22/51 52/23/52 42/24/42
f 51/25/51 53/26/53 52/27/52
f 53/28/53 54/29/54 52/30/52
f 54/31/54 53/32/53 47/33/47
f 53/34/53 45/35/45 47/36/47
f 49/37/49 55/38/55 50/39/50
f 55/40/55 56/41/56 50/42/50
f 56/43/56 55/44/55 57/45/57
f 58/46/58 56/47/56 57/48/57
f 44/49/44 58/50/58 57/51/57
f 43/52/43 44/53/44 57/54/57
