# Exported by Lightwave Blender addon
v 241.21754455566406 1032.161376953125 496.4445495605469
v 241.27098083496094 1032.1610107421875 548.8687744140625
v 241.86094665527344 1033.3243408203125 496.4445495605469
v 241.88970947265625 1033.279296875 548.8687744140625
v 242.8444366455078 1031.1954345703125 496.4445495605469
v 242.87234497070312 1031.2459716796875 548.89501953125
v 243.51576232910156 1032.4088134765625 548.89501953125
v 243.5436248779297 1032.459228515625 496.4445495605469
v 196.26380920410156 950.9087524414062 496.44451904296875
v 196.31724548339844 950.908447265625 548.8687744140625
v 196.90724182128906 952.0718383789062 496.44451904296875
v 196.9359588623047 952.0266723632812 548.8687744140625
v 197.8907012939453 949.9429321289062 496.44451904296875
v 197.91860961914062 949.9932861328125 548.8949584960938
v 198.56202697753906 951.15625 548.8949584960938
v 198.5898895263672 951.2066650390625 496.44451904296875
v 248.25973510742188 1039.383544921875 539.9951782226562
v 194.8719940185547 942.8868408203125 539.9951782226562
v 245.3252716064453 1041.007080078125 540.0186767578125
v 191.93756103515625 944.5103759765625 540.0186767578125
v 194.8719940185547 942.8868408203125 541.57421875
v 248.2597198486328 1039.383544921875 541.5742797851562
v 191.93756103515625 944.5103759765625 541.5507202148438
v 245.32530212402344 1041.007080078125 541.55078125
v 248.25975036621094 1039.3836669921875 495.1883239746094
v 194.8720245361328 942.8868408203125 495.18829345703125
v 245.32530212402344 1041.0072021484375 495.2118225097656
v 191.93756103515625 944.5103759765625 495.2118225097656
v 194.87200927734375 942.8868408203125 496.76739501953125
v 248.2597198486328 1039.3836669921875 496.76739501953125
v 191.93756103515625 944.5103759765625 496.7438659667969
v 245.32530212402344 1041.0072021484375 496.7438659667969
v 191.6809844970703 944.65234375 540.2340698242188
v 245.06871032714844 1041.149169921875 540.2340698242188
v 245.06871032714844 1041.149169921875 541.3353271484375
v 191.6809844970703 944.65234375 541.3352661132812
v 191.6809844970703 944.65234375 495.4272155761719
v 245.0687255859375 1041.1490478515625 495.42718505859375
v 245.0687255859375 1041.1490478515625 496.5284423828125
v 191.6809844970703 944.65234375 496.5284729003906
v 250.55567932128906 1039.2919921875 548.7239990234375
v 195.98643493652344 940.6597900390625 548.7239990234375
v 245.6802520751953 1041.989501953125 548.7239990234375
v 191.11099243164062 943.35693359375 548.7239990234375
v 249.8527374267578 1039.6810302734375 552.47021484375
v 248.11798095703125 1040.6407470703125 553.0781860351562
v 195.283447265625 941.048583984375 552.47021484375
v 193.54872131347656 942.008544921875 553.0781860351562
v 246.38323974609375 1041.6005859375 552.47021484375
v 191.81398010253906 942.9681396484375 552.4702758789062
v 250.6611785888672 1039.233642578125 550.7335815429688
v 196.09190368652344 940.601318359375 550.7335815429688
v 250.5030975341797 1039.321044921875 551.324951171875
v 195.93385314941406 940.6887817382812 551.324951171875
v 245.7328643798828 1041.960205078125 551.324951171875
v 191.16358947753906 943.327880859375 551.324951171875
v 245.57479858398438 1042.047607421875 550.7335815429688
v 191.00552368164062 943.4154052734375 550.7335815429688
vt 1.3310546875 0.3466796875
vt -0.1966552734375 0.3466796875
vt 1.3310546875 0.3056640625
vt -0.1966552734375 0.3466796875
vt -0.1966552734375 0.3056640625
vt 1.3310546875 0.3056640625
vt -0.164306640625 0.39013671875
vt -0.164306640625 0.3740234375
vt 1.298828125 0.39013671875
vt -0.164306640625 0.3740234375
vt 1.298828125 0.3740234375
vt 1.298828125 0.39013671875
vt -0.41015625 0.510498046875
vt -0.41015625 0.49462890625
vt 1.052734375 0.510498046875
vt -0.41015625 0.49462890625
vt 1.052734375 0.49462890625
vt 1.052734375 0.510498046875
vt -0.02276611328125 0.25732421875
vt -0.02276611328125 0.23681640625
vt 1.1572265625 0.25732421875
vt -0.02276611328125 0.23681640625
vt 1.1572265625 0.23681640625
vt 1.1572265625 0.25732421875
vt -0.02276611328125 0.23681640625
vt -0.02276611328125 0.23095703125
vt 1.1572265625 0.23681640625
vt -0.02276611328125 0.23095703125
vt 1.1572265625 0.23095703125
vt 1.1572265625 0.23681640625
vt 1.1572265625 0.23095703125
vt -0.02276611328125 0.23095703125
vt 1.1572265625 0.21923828125
vt -0.02276611328125 0.23095703125
vt -0.02276611328125 0.21923828125
vt 1.1572265625 0.21923828125
vt 0.9130859375 0.39990234375
vt 0.9130859375 0.41162109375
vt -0.27001953125 0.39990234375
vt 0.9130859375 0.41162109375
vt -0.27001953125 0.41162109375
vt -0.27001953125 0.39990234375
vt -0.27001953125 0.41162109375
vt 0.9130859375 0.41162109375
vt 0.9130859375 0.41748046875
vt -0.27001953125 0.41748046875
vt -0.27001953125 0.41162109375
vt 0.9130859375 0.41748046875
vt -0.27001953125 0.43798828125
vt -0.27001953125 0.41748046875
vt 0.9130859375 0.41748046875
vt 0.9130859375 0.43798828125
vt -0.27001953125 0.43798828125
vt 0.9130859375 0.41748046875
vn 0.20608603954315186 0.8818349242210388 0.42414116859436035
vn 0.20212700963020325 0.8647024631500244 0.4598199129104614
vn 0.20643143355846405 0.8819556832313538 0.4237218201160431
vn 0.20246009528636932 0.8648479580879211 0.459399551153183
vn 0.20756733417510986 0.881397545337677 0.42432790994644165
vn 0.20354600250720978 0.864264726638794 0.4600169360637665
vn 0.2038911134004593 0.864416241645813 0.45957934856414795
vn 0.20794114470481873 0.881528913974762 0.4238716959953308
vn 0.17997494339942932 0.8719882965087891 0.45524221658706665
vn 0.17601269483566284 0.8525586128234863 0.4921008050441742
vn 0.1803780049085617 0.8721508979797363 0.45477086305618286
vn 0.1763993799686432 0.8527488708496094 0.49163246154785156
vn 0.1815580129623413 0.8715404868125916 0.4554710388183594
vn 0.17752549052238464 0.8521080017089844 0.49233800172805786
vn 0.1779261976480484 0.852306067943573 0.4918503165245056
vn 0.18199434876441956 0.8717172741889954 0.4549582004547119
vn 0.2073483169078827 0.8681005835533142 0.4510078430175781
vn 0.17652973532676697 0.8541379570960999 0.48916831612586975
vn 0.20475788414478302 0.8688644766807556 0.45072031021118164
vn 0.1737322360277176 0.8549233675003052 0.48879778385162354
vn 0.1764061599969864 0.8535400032997131 0.49025529623031616
vn 0.20722489058971405 0.8675839304924011 0.45205751061439514
vn 0.17361442744731903 0.8543436527252197 0.4898521304130554
vn 0.20463982224464417 0.8683633208274841 0.4517383575439453
vn 0.21078641712665558 0.8824948668479919 0.4204425811767578
vn 0.17998839914798737 0.8708724975585938 0.45736756920814514
vn 0.20814846456050873 0.883251965045929 0.420166939496994
vn 0.17713060975074768 0.871646523475647 0.45700889825820923
vn 0.17986825108528137 0.8702912330627441 0.4585198163986206
vn 0.2106674760580063 0.8819970488548279 0.4215453565120697
vn 0.17701609432697296 0.8710829019546509 0.45812636613845825
vn 0.2080346941947937 0.8827691674232483 0.42123645544052124
vn 0.1734713912010193 0.8549109101295471 0.4889121353626251
vn 0.20451505482196808 0.868861198425293 0.45083683729171753
vn 0.20443028211593628 0.8685010075569153 0.451568603515625
vn 0.1733868569135666 0.8544942736625671 0.48966994881629944
vn 0.17686498165130615 0.8716353178024292 0.45713311433792114
vn 0.20790211856365204 0.8832505345344543 0.4202917218208313
vn 0.20782043039798737 0.882903516292572 0.4210604727268219
vn 0.1767827868461609 0.8712302446365356 0.4579363167285919
vn 0.5999100208282471 -0.33190616965293884 -0.7279740571975708
vn 0.599907398223877 -0.3319045305252075 -0.7279769778251648
vn -0.5999173521995544 0.33190909028053284 -0.7279667258262634
vn -0.5999068021774292 0.3319045305252075 -0.7279775738716125
vn 0.5269707441329956 -0.29155129194259644 0.7983105182647705
vn 2.986581421282608e-06 -1.5131350892261253e-06 1.0
vn 0.5269880294799805 -0.29156121611595154 0.7982954978942871
vn 2.6094421627931297e-06 -1.3196038253227016e-06 1.0
vn -0.527001678943634 0.29156866669654846 0.7982837557792664
vn -0.5270105004310608 0.29157376289367676 0.7982760667800903
vn 0.8688971996307373 -0.48072585463523865 0.11798407137393951
vn 0.8688971996307373 -0.48072561621665955 0.1179853230714798
vn 0.7931196093559265 -0.43880078196525574 0.42239221930503845
vn 0.7931248545646667 -0.43880394101142883 0.42237919569015503
vn -0.793138861656189 0.4388115406036377 0.42234474420547485
vn -0.7931214570999146 0.4388023018836975 0.4223870038986206
vn -0.8688942193984985 0.48072341084480286 0.118016317486763
vn -0.8688934445381165 0.48072415590286255 0.11801917850971222
f 41/1/41 42/2/42 43/3/43
f 42/4/42 44/5/44 43/6/43
f 45/7/45 46/8/46 47/9/47
f 46/10/46 48/11/48 47/12/47
f 46/13/46 49/14/49 48/15/48
f 49/16/49 50/17/50 48/18/48
f 41/19/41 51/20/51 42/21/42
f 51/22/51 52/23/52 42/24/42
f 51/25/51 53/26/53 52/27/52
f 53/28/53 54/29/54 52/30/52
f 54/31/54 53/32/53 47/33/47
f 53/34/53 45/35/45 47/36/47
f 49/37/49 55/38/55 50/39/50
f 55/40/55 56/41/56 50/42/50
f 56/43/56 55/44/55 57/45/57
f 58/46/58 56/47/56 57/48/57
f 44/49/44 58/50/58 57/51/57
f 43/52/43 44/53/44 57/54/57
