# Exported by Lightwave Blender addon
v -68.95584869384766 463.12255859375 496.4444885253906
v -68.90240478515625 463.12213134765625 548.8687133789062
v -68.31243896484375 464.2854919433594 496.4444885253906
v -68.2837142944336 464.2403869628906 548.8687133789062
v -67.32894897460938 462.1566162109375 496.4444274902344
v -67.3010482788086 462.2070007324219 548.8949584960938
v -66.65763854980469 463.36993408203125 548.8949584960938
v -66.62976837158203 463.4203796386719 496.4444274902344
v -113.90958404541016 381.8699951171875 496.4444274902344
v -113.85615539550781 381.86956787109375 548.8687133789062
v -113.26617431640625 383.0329284667969 496.4444274902344
v -113.23744201660156 382.9879150390625 548.8687133789062
v -112.28268432617188 380.904052734375 496.4444580078125
v -112.25479125976562 380.9544677734375 548.8948974609375
v -111.61137390136719 382.1174011230469 548.8948974609375
v -111.58350372314453 382.1678161621094 496.4444580078125
v -61.913665771484375 470.34478759765625 539.9951171875
v -115.30140686035156 373.8480224609375 539.9951171875
v -64.84810638427734 471.9682922363281 540.0186157226562
v -118.23583984375 375.4715576171875 540.0186157226562
v -115.30140686035156 373.8480224609375 541.5741577148438
v -61.91366958618164 470.34478759765625 541.57421875
v -118.23583984375 375.4715576171875 541.5506591796875
v -64.84809875488281 471.9682922363281 541.5507202148438
v -61.91366195678711 470.34478759765625 495.1882019042969
v -115.30140686035156 373.8480224609375 495.1882019042969
v -64.84809875488281 471.96832275390625 495.2117614746094
v -118.23583984375 375.4715576171875 495.2117614746094
v -115.30140686035156 373.8480224609375 496.7672424316406
v -61.91366195678711 470.34478759765625 496.7673034667969
v -118.23583984375 375.4715576171875 496.7437744140625
v -64.84809875488281 471.96832275390625 496.7437744140625
v -118.49241638183594 375.613525390625 540.2340698242188
v -65.10467529296875 472.1102294921875 540.2340087890625
v -65.10468292236328 472.1102294921875 541.3352661132812
v -118.49241638183594 375.613525390625 541.3352661132812
v -118.49241638183594 375.61346435546875 495.4271545410156
v -65.10468292236328 472.11029052734375 495.4271240234375
v -65.10467529296875 472.11029052734375 496.52838134765625
v -118.49241638183594 375.61346435546875 496.5284118652344
v -59.61769485473633 470.2531433105469 548.7239379882812
v -114.18696594238281 371.6208190917969 548.7239379882812
v -64.49314880371094 472.9505310058594 548.7239379882812
v -119.06240844726562 374.31817626953125 548.7239379882812
v -60.320674896240234 470.6420593261719 552.4701538085938
v -62.05541229248047 471.6018371582031 553.078125
v -114.88995361328125 372.009765625 552.4701538085938
v -116.62467956542969 372.969482421875 553.078125
v -63.790157318115234 472.5616149902344 552.4701538085938
v -118.35941314697266 373.92926025390625 552.47021484375
v -59.51222610473633 470.1947937011719 550.7335205078125
v -114.08149719238281 371.56243896484375 550.7335205078125
v -59.670291900634766 470.2822265625 551.3248901367188
v -114.23955535888672 371.6499328613281 551.3248901367188
v -64.4405517578125 472.9214172363281 551.3248901367188
v -119.00980377197266 374.2891540527344 551.3248901367188
v -64.59861755371094 473.0088806152344 550.7335205078125
v -119.16787719726562 374.3765563964844 550.7335205078125
vt 1.3310546875 0.3466796875
vt -0.1966552734375 0.3466796875
vt 1.3310546875 0.3056640625
vt -0.1966552734375 0.3466796875
vt -0.1966552734375 0.3056640625
vt 1.3310546875 0.3056640625
vt -0.164306640625 0.39013671875
vt -0.164306640625 0.3740234375
vt 1.298828125 0.39013671875
vt -0.164306640625 0.3740234375
vt 1.298828125 0.3740234375
vt 1.298828125 0.39013671875
vt -0.41015625 0.510498046875
vt -0.41015625 0.49462890625
vt 1.052734375 0.510498046875
vt -0.41015625 0.49462890625
vt 1.052734375 0.49462890625
vt 1.052734375 0.510498046875
vt -0.02276611328125 0.25732421875
vt -0.02276611328125 0.23681640625
vt 1.1572265625 0.25732421875
vt -0.02276611328125 0.23681640625
vt 1.1572265625 0.23681640625
vt 1.1572265625 0.25732421875
vt -0.02276611328125 0.23681640625
vt -0.02276611328125 0.23095703125
vt 1.1572265625 0.23681640625
vt -0.02276611328125 0.23095703125
vt 1.1572265625 0.23095703125
vt 1.1572265625 0.23681640625
vt 1.1572265625 0.23095703125
vt -0.02276611328125 0.23095703125
vt 1.1572265625 0.21923828125
vt -0.02276611328125 0.23095703125
vt -0.02276611328125 0.21923828125
vt 1.1572265625 0.21923828125
vt 0.9130859375 0.39990234375
vt 0.9130859375 0.41162109375
vt -0.27001953125 0.39990234375
vt 0.9130859375 0.41162109375
vt -0.27001953125 0.41162109375
vt -0.27001953125 0.39990234375
vt -0.27001953125 0.41162109375
vt 0.9130859375 0.41162109375
vt 0.9130859375 0.41748046875
vt -0.27001953125 0.41748046875
vt -0.27001953125 0.41162109375
vt 0.9130859375 0.41748046875
vt -0.27001953125 0.43798828125
vt -0.27001953125 0.41748046875
vt 0.9130859375 0.41748046875
vt 0.9130859375 0.43798828125
vt -0.27001953125 0.43798828125
vt 0.9130859375 0.41748046875
vn -0.10104632377624512 0.6786492466926575 0.7274784445762634
vn -0.09550577402114868 0.6419345736503601 0.7607881426811218
vn -0.09999722987413406 0.6796311736106873 0.7267062067985535
vn -0.09456174820661545 0.642896831035614 0.7600931525230408
vn -0.09878068417310715 0.6780463457107544 0.7283511757850647
vn -0.09337911009788513 0.6413047313690186 0.7615828514099121
vn -0.09239837527275085 0.642306387424469 0.7608580589294434
vn -0.09764188528060913 0.6791144609451294 0.7275092005729675
vn -0.17893484234809875 0.599860429763794 0.7798396348953247
vn -0.1678636372089386 0.5630087852478027 0.8092237114906311
vn -0.17776118218898773 0.6011360883712769 0.7791253328323364
vn -0.16682186722755432 0.5642193555831909 0.8085956573486328
vn -0.17662014067173004 0.5991603136062622 0.7809048295021057
vn -0.16568851470947266 0.5622903108596802 0.8101710081100464
vn -0.16460558772087097 0.5635506510734558 0.8095157742500305
vn -0.17534518241882324 0.6005483269691467 0.7801255583763123
vn -0.08613652735948563 0.6543606519699097 0.7512606978416443
vn -0.1729118376970291 0.5606414675712585 0.8098040819168091
vn -0.09005123376846313 0.6553981304168701 0.7498961091041565
vn -0.17692945897579193 0.5618599057197571 0.8080900311470032
vn -0.172580748796463 0.559567928314209 0.8106169104576111
vn -0.08599451929330826 0.6532818078994751 0.7522153854370117
vn -0.17660211026668549 0.5608204007148743 0.8088832497596741
vn -0.0899076908826828 0.6543534994125366 0.7508249878883362
vn -0.09028453379869461 0.6858722567558289 0.7220997214317322
vn -0.18270348012447357 0.5923894047737122 0.7846617698669434
vn -0.09437066316604614 0.6868352890014648 0.7206604480743408
vn -0.18690212070941925 0.593529224395752 0.7828093767166138
vn -0.18234525620937347 0.5912279486656189 0.7856205105781555
vn -0.09013455361127853 0.6847328543663025 0.7231990098953247
vn -0.18654826283454895 0.5924054980278015 0.7837444543838501
vn -0.0942191630601883 0.6857326626777649 0.7217294573783875
vn -0.1772340089082718 0.5618206858634949 0.8080504536628723
vn -0.09037266671657562 0.6553425192832947 0.749906063079834
vn -0.09026914834976196 0.6545917391777039 0.7505738735198975
vn -0.1769983470439911 0.5610736608505249 0.8086209297180176
vn -0.18721866607666016 0.593471348285675 0.7827776074409485
vn -0.09470587968826294 0.6867650747299194 0.7206833958625793
vn -0.09459659457206726 0.6859726309776306 0.7214519381523132
vn -0.18696393072605133 0.5926638245582581 0.783450186252594
vn 0.5999169945716858 -0.33190980553627014 -0.7279666662216187
vn 0.5999126434326172 -0.3319072723388672 -0.7279713749885559
vn -0.5999112725257874 0.33190643787384033 -0.7279729843139648
vn -0.5999162793159485 0.33190932869911194 -0.7279675006866455
vn 0.526987612247467 -0.2915610074996948 0.798295795917511
vn 1.07161326923233e-06 -6.449524789786665e-07 1.0
vn 0.526984453201294 -0.2915591597557068 0.7982984781265259
vn 1.2154921023466159e-05 -6.439627668441972e-06 1.0
vn -0.5269854664802551 0.29155975580215454 0.7982977032661438
vn -0.5269769430160522 0.29155534505844116 0.7983049750328064
vn 0.8688962459564209 -0.4807250201702118 0.11799466609954834
vn 0.8688948154449463 -0.4807242453098297 0.11800827085971832
vn 0.7931260466575623 -0.4388045072555542 0.42237618565559387
vn 0.7931187748908997 -0.43880051374435425 0.42239415645599365
vn -0.7931215763092041 0.43880215287208557 0.42238688468933105
vn -0.7931290864944458 0.4388062357902527 0.4223686456680298
vn -0.8688949942588806 0.48072439432144165 0.11800645291805267
vn -0.8688976168632507 0.4807257354259491 0.1179819405078888
f 41/1/41 42/2/42 43/3/43
f 42/4/42 44/5/44 43/6/43
f 45/7/45 46/8/46 47/9/47
f 46/10/46 48/11/48 47/12/47
f 46/13/46 49/14/49 48/15/48
f 49/16/49 50/17/50 48/18/48
f 41/19/41 51/20/51 42/21/42
f 51/22/51 52/23/52 42/24/42
f 51/25/51 53/26/53 52/27/52
f 53/28/53 54/29/54 52/30/52
f 54/31/54 53/32/53 47/33/47
f 53/34/53 45/35/45 47/36/47
f 49/37/49 55/38/55 50/39/50
f 55/40/55 56/41/56 50/42/50
f 56/43/56 55/44/55 57/45/57
f 58/46/58 56/47/56 57/48/57
f 44/49/44 58/50/58 57/51/57
f 43/52/43 44/53/44 57/54/57
