# Exported by Lightwave Blender addon
v 239.4923858642578 981.5674438476562 823.9089965820312
v 239.49234008789062 981.5673217773438 1008.107666015625
v 241.10130310058594 980.6927490234375 823.9089965820312
v 241.10411071777344 980.6910400390625 1008.107666015625
v 239.17440795898438 982.3501586914062 823.9089965820312
v 239.5036163330078 981.5880737304688 823.9090576171875
v 239.17431640625 982.3499145507812 1008.107666015625
v 239.50335693359375 981.5875244140625 1008.107666015625
v 241.75511169433594 985.7293701171875 823.9089965820312
v 241.7550506591797 985.729248046875 1008.107666015625
v 245.50924682617188 983.688232421875 823.9089965820312
v 245.50924682617188 983.6881103515625 1008.107666015625
v 240.9881134033203 975.3931884765625 823.9091186523438
v 240.9881134033203 975.3931884765625 1008.1077270507812
v 240.98770141601562 975.3928833007812 1008.1077270507812
v 240.9877471923828 975.3929443359375 823.9091186523438
v 237.24090576171875 977.4255981445312 1008.107666015625
v 237.2411651611328 977.426025390625 823.9090576171875
v 236.91746520996094 978.1849975585938 1008.107666015625
v 236.9175567626953 978.1852416992188 823.9089965820312
v 238.73138427734375 981.5213623046875 1008.107666015625
v 238.73153686523438 981.5215454101562 823.9089965820312
v 240.9882354736328 985.686279296875 1008.107666015625
v 240.98837280273438 985.6865844726562 823.9089965820312
v 242.84136962890625 979.777099609375 823.9091186523438
v 242.84133911132812 979.7770385742188 1008.1077270507812
v 243.20216369628906 979.5813598632812 823.9091186523438
v 243.20216369628906 979.5813598632812 1008.1077270507812
v 218.83665466308594 938.4517211914062 818.8759155273438
v 215.28659057617188 940.3927612304688 818.8761596679688
v 218.83665466308594 938.4517211914062 1013.1409912109375
v 215.4050750732422 940.3184204101562 1013.1412963867188
v 214.1162872314453 940.0494995117188 818.8761596679688
v 214.2339324951172 939.9735717773438 1013.1412963867188
v 211.2412872314453 934.49365234375 1013.1408081054688
v 211.10955810546875 934.5437622070312 818.8759155273438
v 216.9420928955078 935.5548706054688 1005.750732421875
v 214.09188842773438 937.1053466796875 1006.0057983398438
v 241.1752471923828 980.7133178710938 1005.750732421875
v 238.41726684570312 982.218505859375 1006.003173828125
v 213.33494567871094 937.51708984375 1006.9359130859375
v 237.66015625 982.6317138671875 1006.934814453125
v 237.64315795898438 982.6409912109375 1013.135986328125
v 213.323974609375 937.5226440429688 1013.1411743164062
v 218.7923126220703 934.2357177734375 959.8655395507812
v 215.84002685546875 935.7354125976562 960.0036010742188
v 243.02560424804688 979.3944702148438 959.865966796875
v 240.1662139892578 980.8496704101562 960.0030517578125
v 215.48194885253906 935.932373046875 960.4310302734375
v 239.80752563476562 981.0474243164062 960.4307250976562
v 239.8522491455078 981.1243286132812 963.1231079101562
v 215.53221130371094 936.0065307617188 963.125732421875
v 215.9004669189453 935.8215942382812 963.5359497070312
v 240.21929931640625 980.939208984375 963.5305786132812
v 243.27244567871094 979.2710571289062 963.5068359375
v 219.0399169921875 934.11376953125 963.5357666015625
v 218.80760192871094 934.26318359375 911.9547119140625
v 216.02001953125 935.9591674804688 912.0924072265625
v 243.0413360595703 979.4224853515625 911.955078125
v 240.3457794189453 981.07275390625 912.0916748046875
v 215.6544952392578 936.154296875 912.5195922851562
v 239.9800262451172 981.2692260742188 912.519287109375
v 239.8750457763672 981.1536254882812 915.2124633789062
v 215.5549774169922 936.0358276367188 915.215087890625
v 215.9004669189453 935.8215942382812 915.6248168945312
v 240.21929931640625 980.939208984375 915.6194458007812
v 243.27244567871094 979.2710571289062 915.5957641601562
v 219.0399169921875 934.11376953125 915.624755859375
v 218.8107452392578 934.2682495117188 864.0435180664062
v 216.02125549316406 936.0217895507812 864.1814575195312
v 243.04457092285156 979.4277954101562 864.0440063476562
v 240.34693908691406 981.1353149414062 864.1807861328125
v 215.65838623046875 936.2141723632812 864.6079711914062
v 239.98391723632812 981.3291015625 864.6077270507812
v 239.8755340576172 981.1615600585938 867.3018798828125
v 215.5554656982422 936.043701171875 867.304443359375
v 215.9004669189453 935.8215942382812 867.7138671875
v 240.21929931640625 980.939208984375 867.70849609375
v 243.27244567871094 979.2710571289062 867.6846923828125
v 219.0399169921875 934.11376953125 867.7136840820312
v 263.7776184082031 1021.6713256835938 1013.1410522460938
v 260.52471923828125 1023.4529418945312 1013.1412353515625
v 263.7777404785156 1021.6713256835938 818.8759765625
v 260.3955993652344 1023.5078735351562 818.876220703125
v 260.18157958984375 1024.62451171875 1013.1411743164062
v 260.0509338378906 1024.6766357421875 818.876220703125
v 263.08026123046875 1030.2239990234375 818.8756713867188
v 263.1856384277344 1030.1256103515625 1013.1406860351562
v 265.4295959472656 1024.70068359375 826.2036743164062
v 262.72869873046875 1026.1732177734375 826.2036743164062
v 241.41781616210938 980.5810546875 826.2036743164062
v 238.43350219726562 982.2125854492188 826.2036743164062
v 261.9298095703125 1026.6077880859375 825.34228515625
v 237.65554809570312 982.6367797851562 825.3413696289062
v 237.4979248046875 982.7136840820312 818.9020385742188
v 261.6182556152344 1026.770263671875 818.8804321289062
v 267.2835693359375 1023.389404296875 963.47802734375
v 264.31671142578125 1025.01806640625 963.5250244140625
v 263.9508972167969 1025.2034912109375 963.1204223632812
v 263.91168212890625 1025.1236572265625 960.430419921875
v 264.27105712890625 1024.925048828125 960.002197265625
v 267.0374755859375 1023.514404296875 959.8663330078125
v 267.2835693359375 1023.389404296875 915.5669555664062
v 264.31671142578125 1025.01806640625 915.614013671875
v 263.97369384765625 1025.232666015625 915.2098999023438
v 264.0841979980469 1025.345458984375 912.5189208984375
v 264.45013427734375 1025.1474609375 912.0909423828125
v 267.0537109375 1023.5431518554688 911.95556640625
v 267.2835693359375 1023.389404296875 867.6558837890625
v 264.31671142578125 1025.01806640625 867.7029418945312
v 263.9742126464844 1025.2406005859375 867.2992553710938
v 264.08807373046875 1025.4052734375 864.6074829101562
v 264.451171875 1025.2098388671875 864.1799926757812
v 267.0570373535156 1023.5484619140625 864.0443725585938
v 213.53201293945312 936.9715576171875 818.8759155273438
v 209.98194885253906 938.9125366210938 818.876220703125
v 213.53201293945312 936.9715576171875 1013.1409301757812
v 210.10043334960938 938.8382568359375 1013.1412963867188
v 208.8116455078125 938.5692138671875 818.876220703125
v 208.92926025390625 938.4933471679688 1013.1412963867188
v 205.93663024902344 933.0133666992188 1013.1408081054688
v 205.80491638183594 933.0635375976562 818.8759155273438
v 211.8798828125 935.451904296875 1009.18701171875
v 209.0296630859375 937.002197265625 1009.44189453125
v 264.3468017578125 1032.541259765625 1009.18701171875
v 261.5888366699219 1034.0465087890625 1009.4393920898438
v 208.272705078125 937.4140014648438 1010.3720703125
v 260.83172607421875 1034.459716796875 1010.3709716796875
v 260.81475830078125 1034.468994140625 1016.5721435546875
v 208.26174926757812 937.4195556640625 1016.5773315429688
v 262.07476806640625 1026.8160400390625 1013.1410522460938
v 258.82183837890625 1028.59765625 1013.1412353515625
v 262.0748596191406 1026.8160400390625 818.8759765625
v 258.6927185058594 1028.6524658203125 818.8762817382812
v 258.47869873046875 1029.76904296875 1013.1411743164062
v 258.3481140136719 1029.8211669921875 818.876220703125
v 261.37738037109375 1035.368408203125 818.875732421875
v 261.4827575683594 1035.270263671875 1013.1406860351562
v 213.91700744628906 937.2135009765625 826.2036743164062
v 217.18463134765625 935.422607421875 826.2036743164062
v 213.16006469726562 937.626953125 825.3410034179688
v 213.15623474121094 937.6185302734375 818.9236450195312
v 262.52117919921875 1026.29296875 1006.0005493164062
v 265.18695068359375 1024.8328857421875 1005.750732421875
v 261.76397705078125 1026.707763671875 1006.9336547851562
v 261.7409973144531 1026.720458984375 1013.1307373046875
v 239.6234893798828 977.3660278320312 1009.1901245117188
v 239.6234893798828 977.3660278320312 822.7532958984375
v 217.18463134765625 935.422607421875 1009.1901245117188
v 217.18463134765625 935.422607421875 822.7532958984375
v 243.2838897705078 984.0801391601562 823.6159057617188
v 243.2838897705078 984.0801391601562 1009.1901245117188
v 265.42950439453125 1024.70068359375 1009.1901245117188
v 265.4295959472656 1024.70068359375 823.6159057617188
v 265.4295959472656 1024.70068359375 822.7532958984375
v 243.2838897705078 984.0801391601562 822.7532958984375
vt 1.0458984375 0.738037109375
vt -0.017852783203125 0.738037109375
vt 1.0458984375 0.4365234375
vt -0.017852783203125 0.738037109375
vt -0.017852783203125 0.4365234375
vt 1.0458984375 0.4365234375
vt 0.0626220703125 0.380859375
vt 1.1220703125 0.380859375
vt 1.1220703125 0.6826171875
vt 0.0626220703125 0.6826171875
vt 0.0626220703125 0.380859375
vt 1.1220703125 0.6826171875
vt 0.0626220703125 0.6826171875
vt 0.057708740234375 0.6826171875
vt 0.0626220703125 0.380859375
vt 0.057708740234375 0.6826171875
vt 0.057708740234375 0.380859375
vt 0.0626220703125 0.380859375
vn 0.1837007999420166 0.7529037594795227 0.6319730877876282
vn 0.1677969992160797 0.6877216100692749 0.7063167095184326
vn 0.18498623371124268 0.7524415850639343 0.6321484446525574
vn 0.1689654290676117 0.6872669458389282 0.7064805030822754
vn 0.18338219821453094 0.7531973123550415 0.631715714931488
vn 0.18370692431926727 0.7529093623161316 0.6319645643234253
vn 0.16751724481582642 0.6880360245704651 0.7060766816139221
vn 0.1678028702735901 0.6877281665802002 0.706308901309967
vn 0.1849323958158493 0.7540411353111267 0.630255401134491
vn 0.16899795830249786 0.6890703439712524 0.7047138810157776
vn 0.18792463839054108 0.7529625296592712 0.6306597590446472
vn 0.17171424627304077 0.6880118250846863 0.7050913572311401
vn 0.1854691505432129 0.7506815791130066 0.6340965032577515
vn 0.16931790113449097 0.6853098273277283 0.7082949876785278
vn 0.16931764781475067 0.6853097677230835 0.7082951664924622
vn 0.1854689121246338 0.7506815791130066 0.634096622467041
vn 0.16659562289714813 0.6863691210746765 0.7079147100448608
vn 0.18246778845787048 0.7517614364624023 0.6336879134178162
vn 0.16631391644477844 0.6866770386695862 0.7076824903488159
vn 0.18214717507362366 0.7520492672920227 0.6334384679794312
vn 0.16728247702121735 0.6877660155296326 0.7063953876495361
vn 0.18314164876937866 0.7529691457748413 0.6320574879646301
vn 0.16848066449165344 0.6891169548034668 0.7047922611236572
vn 0.18437041342258453 0.7541087865829468 0.6303393244743347
vn 0.18637359142303467 0.7519500255584717 0.6323259472846985
vn 0.17022264003753662 0.6867868304252625 0.7066456079483032
vn 0.18666192889213562 0.7518458962440491 0.6323646903038025
vn 0.1704842895269394 0.686684787273407 0.7066817283630371
vn 0.1730521321296692 0.7421109080314636 0.647552490234375
vn 0.1701328158378601 0.7431566715240479 0.6471267342567444
vn 0.15651021897792816 0.6711731553077698 0.7245903611183167
vn 0.15397655963897705 0.6721614599227905 0.7242169380187988
vn 0.1692686527967453 0.743151843547821 0.647358775138855
vn 0.15318447351455688 0.672112762928009 0.7244301438331604
vn 0.1514924317598343 0.6701754331588745 0.7265775203704834
vn 0.16749994456768036 0.7414919137954712 0.6497179865837097
vn 0.15600235760211945 0.6727544665336609 0.723232090473175
vn 0.1538657546043396 0.6734884977340698 0.7230066061019897
vn 0.16920939087867737 0.6880718469619751 0.7056382298469543
vn 0.16718636453151703 0.6887653470039368 0.7054439783096313
vn 0.1532299518585205 0.673380970954895 0.7232417464256287
vn 0.16656018793582916 0.6886611580848694 0.7056936025619507
vn 0.16603784263134003 0.6865571141242981 0.7078635096549988
vn 0.15272879600524902 0.671217143535614 0.7253560423851013
vn 0.1612078845500946 0.6883521676063538 0.7072364091873169
vn 0.15895555913448334 0.6891230940818787 0.7069953680038452
vn 0.17449940741062164 0.703233540058136 0.6892115473747253
vn 0.17236924171447754 0.7039638161659241 0.6890019774436951
vn 0.1586473286151886 0.6890747547149658 0.7071117758750916
vn 0.172065868973732 0.7039177417755127 0.6891249418258667
vn 0.17186138033866882 0.7030051946640015 0.6901068091392517
vn 0.1584549993276596 0.6881334185600281 0.7080709338188171
vn 0.1586998701095581 0.6878853440284729 0.7082570791244507
vn 0.17209795117378235 0.702764630317688 0.6902927756309509
vn 0.17436763644218445 0.7019010186195374 0.6906018853187561
vn 0.16108714044094086 0.6869693994522095 0.708607017993927
vn 0.16529037058353424 0.7057556509971619 0.6889035105705261
vn 0.16308175027370453 0.7065912485122681 0.6885733008384705
vn 0.17868757247924805 0.720085859298706 0.6704828143119812
vn 0.17660166323184967 0.7208742499351501 0.6701881885528564
vn 0.16276003420352936 0.7065398693084717 0.6887021660804749
vn 0.1762857884168625 0.7208259105682373 0.6703232526779175
vn 0.17598827183246613 0.7198394536972046 0.6714606285095215
vn 0.16246932744979858 0.7055142521858215 0.6898211240768433
vn 0.16270670294761658 0.705253005027771 0.6900323033332825
vn 0.17621758580207825 0.7195872664451599 0.67167067527771
vn 0.17854556441307068 0.7187188863754272 0.6719855070114136
vn 0.16515842080116272 0.7043316960334778 0.6903908252716064
vn 0.1694575548171997 0.7235422134399414 0.6691567897796631
vn 0.16718170046806335 0.7243996262550354 0.668801486492157
vn 0.182946115732193 0.7372413873672485 0.6503889560699463
vn 0.18079881370067596 0.7380501627922058 0.6500721573829651
vn 0.1668538600206375 0.7243444323539734 0.6689430475234985
vn 0.18047751486301422 0.7379987835884094 0.6502196788787842
vn 0.18017782270908356 0.7369803190231323 0.6514568328857422
vn 0.16655969619750977 0.7232809066772461 0.6701660752296448
vn 0.16680419445037842 0.7230135798454285 0.670393705368042
vn 0.18041391670703888 0.736723005771637 0.6516823768615723
vn 0.18280158936977386 0.7358511090278625 0.6520020961761475
vn 0.1693221479654312 0.7220882177352905 0.6707596778869629
vn 0.18032117187976837 0.69842529296875 0.6925939321517944
vn 0.17801684141159058 0.6993265748023987 0.6922805309295654
vn 0.19749082624912262 0.7649269700050354 0.6130937933921814
vn 0.19485032558441162 0.7658764123916626 0.6127534508705139
vn 0.1776902675628662 0.6997644305229187 0.6919218897819519
vn 0.19447186589241028 0.766275942325592 0.6123738288879395
vn 0.19602693617343903 0.7676427364349365 0.6101623773574829
vn 0.17920462787151337 0.7014185190200806 0.6898533701896667
vn 0.19767066836357117 0.763114869594574 0.6152902245521545
vn 0.1955728530883789 0.7638739943504333 0.6150184869766235
vn 0.18502658605575562 0.7515334486961365 0.6332160830497742
vn 0.18264442682266235 0.7523928284645081 0.6328871250152588
vn 0.19502949714660645 0.7643986940383911 0.6145390272140503
vn 0.182099848985672 0.7529300451278687 0.6324049234390259
vn 0.18254323303699493 0.7553233504295349 0.6294161677360535
vn 0.19536449015140533 0.76674485206604 0.6115022897720337
vn 0.1868131160736084 0.7152798771858215 0.6734058856964111
vn 0.1846560835838318 0.7160947918891907 0.6731346845626831
vn 0.1844271868467331 0.7163279056549072 0.6729493737220764
vn 0.18464148044586182 0.7172109484672546 0.6719493865966797
vn 0.18493998050689697 0.7172545790672302 0.6718208193778992
vn 0.18695290386676788 0.7165622711181641 0.6720022559165955
vn 0.19106169044971466 0.7315470576286316 0.6544725894927979
vn 0.18885189294815063 0.732366144657135 0.6541979312896729
vn 0.18862996995449066 0.7326093912124634 0.6539894938468933
vn 0.18893234431743622 0.733557403087616 0.6528385281562805
vn 0.18924224376678467 0.7336022257804871 0.652698278427124
vn 0.19121067225933075 0.7328577041625977 0.6529608964920044
vn 0.19537390768527985 0.7480579018592834 0.6342227458953857
vn 0.19311030209064484 0.7488802075386047 0.6339454650878906
vn 0.19288195669651031 0.7491277456283569 0.6337224245071411
vn 0.19318516552448273 0.7501024007797241 0.6324759125709534
vn 0.1934998780488968 0.7501497268676758 0.6323236227035522
vn 0.19552455842494965 0.7493862509727478 0.632606029510498
vn 0.16912561655044556 0.742117702960968 0.6485813856124878
vn 0.16620241105556488 0.7431568503379822 0.6481471061706543
vn 0.15291477739810944 0.6709851026535034 0.7255316376686096
vn 0.15037837624549866 0.6719689965248108 0.725151002407074
vn 0.16533486545085907 0.7431492209434509 0.6483775973320007
vn 0.14958374202251434 0.6719180345535278 0.7253625392913818
vn 0.14787757396697998 0.6699719429016113 0.7275092601776123
vn 0.16354747116565704 0.7414798140525818 0.6507380604743958
vn 0.15218281745910645 0.6718887090682983 0.7248489856719971
vn 0.1500498205423355 0.6726175546646118 0.7246176600456238
vn 0.18009552359580994 0.7034549117088318 0.687544047832489
vn 0.17812690138816833 0.7041259407997131 0.6873699426651001
vn 0.14941659569740295 0.672508716583252 0.7248494625091553
vn 0.17751504480838776 0.704025387763977 0.6876312494277954
vn 0.1769886016845703 0.701989471912384 0.6898447275161743
vn 0.1489272564649582 0.6703454852104187 0.7269509434700012
vn 0.1787547618150711 0.7003660202026367 0.6910386681556702
vn 0.17645525932312012 0.7012602090835571 0.6907225847244263
vn 0.1956876963376999 0.7667093873023987 0.6114434003829956
vn 0.1930539309978485 0.76764976978302 0.6111006736755371
vn 0.17612990736961365 0.701694667339325 0.6903642416000366
vn 0.192677304148674 0.7680457830429077 0.6107219457626343
vn 0.1942339688539505 0.7693998217582703 0.6085204482078552
vn 0.1776447892189026 0.7033365368843079 0.688302218914032
vn 0.16876104474067688 0.7393761277198792 0.6517994999885559
vn 0.17144270241260529 0.7384103536605835 0.6521943807601929
vn 0.1682148277759552 0.7399263978004456 0.6513161659240723
vn 0.16876813769340515 0.7423668503761292 0.6483892798423767
vn 0.1796981245279312 0.7025068402290344 0.6886164546012878
vn 0.1816118359565735 0.7018512487411499 0.6887829303741455
vn 0.1790819764137268 0.7024070024490356 0.6888788342475891
vn 0.17854337394237518 0.7003646492958069 0.6910945773124695
vn -0.8817496299743652 0.4717177152633667 0.0
vn -0.88174968957901 0.4717177748680115 0.0
vn -0.88174968957901 0.4717177748680115 0.0
vn -0.8817496299743652 0.4717177152633667 0.0
vn -0.8779951930046082 0.47866955399513245 -1.8309933125237876e-07
vn -0.8779959082603455 0.47866809368133545 0.0
vn -0.8779957890510559 0.47866836190223694 -6.74415332468925e-08
vn -0.8779950737953186 0.4786696135997772 -2.1682460271676973e-07
vn -0.8779950737953186 0.4786696434020996 0.0
vn -0.8779951333999634 0.478669673204422 0.0
f 147/1/147 148/2/148 149/3/149
f 148/4/148 150/5/150 149/6/149
f 151/7/151 152/8/152 153/9/153
f 154/10/154 151/11/151 153/12/153
f 154/13/154 155/14/155 151/15/151
f 155/16/155 156/17/156 151/18/151
