# Exported by Lightwave Blender addon
v 179.18115234375 187.045166015625 1116.9483642578125
v 179.1811981201172 187.04502868652344 1301.1470947265625
v 180.88327026367188 187.72080993652344 1116.9483642578125
v 180.8863525390625 187.7218780517578 1301.1470947265625
v 178.37640380859375 187.30209350585938 1116.9483642578125
v 179.1725616455078 187.0669403076172 1116.9483642578125
v 178.37648010253906 187.30189514160156 1301.1470947265625
v 179.17276000976562 187.06640625 1301.1470947265625
v 177.43353271484375 191.44815063476562 1116.9483642578125
v 177.43357849121094 191.44801330566406 1301.1470947265625
v 181.4051971435547 193.02462768554688 1116.9483642578125
v 181.40530395507812 193.02452087402344 1301.1470947265625
v 184.8813018798828 184.2401885986328 1116.948486328125
v 184.8813018798828 184.24017333984375 1301.147216796875
v 184.88124084472656 184.23971557617188 1301.1470947265625
v 184.88121032714844 184.23977661132812 1116.948486328125
v 180.92068481445312 182.66354370117188 1301.1470947265625
v 180.92047119140625 182.66407775878906 1116.9483642578125
v 180.1303253173828 182.9013671875 1301.1470947265625
v 180.1302490234375 182.90158081054688 1116.9483642578125
v 178.7292938232422 186.4311065673828 1301.1470947265625
v 178.72918701171875 186.43136596679688 1116.9483642578125
v 176.97544860839844 190.8316192626953 1301.1470947265625
v 176.975341796875 190.83187866210938 1116.9483642578125
v 182.7008056640625 188.4709930419922 1116.948486328125
v 182.70083618164062 188.47091674804688 1301.147216796875
v 183.0821990966797 188.62274169921875 1116.948486328125
v 183.0821990966797 188.6227264404297 1301.147216796875
v 199.0701904296875 143.57046508789062 1111.9154052734375
v 195.30606079101562 142.08663940429688 1111.915771484375
v 199.0701904296875 143.57044982910156 1306.1805419921875
v 195.43899536132812 142.1300811767578 1306.1807861328125
v 194.82028198242188 140.96795654296875 1111.915771484375
v 194.9539031982422 141.00967407226562 1306.1807861328125
v 197.24658203125 135.20199584960938 1306.1802978515625
v 197.1237335205078 135.13290405273438 1111.915283203125
v 200.08201599121094 140.26023864746094 1298.790283203125
v 197.0659942626953 139.0638885498047 1299.045166015625
v 180.91485595703125 187.7907257080078 1298.790283203125
v 177.9925994873047 186.63629150390625 1299.0426025390625
v 196.26504516601562 138.74615478515625 1299.975341796875
v 177.19041442871094 186.3193817138672 1299.974365234375
v 177.17247009277344 186.3122100830078 1306.1754150390625
v 196.25367736816406 138.74134826660156 1306.1807861328125
v 202.280029296875 140.83660888671875 1252.9051513671875
v 199.2376251220703 139.5293426513672 1253.0430908203125
v 183.11276245117188 188.3673858642578 1252.905517578125
v 180.16400146484375 187.10302734375 1253.0423583984375
v 198.8570098876953 139.38052368164062 1253.4705810546875
v 179.78240966796875 186.9541473388672 1253.47021484375
v 179.75196838378906 187.0377655029297 1256.16259765625
v 198.83230590820312 139.46653747558594 1256.1651611328125
v 199.2101287841797 139.63099670410156 1256.575439453125
v 180.12918090820312 187.201171875 1256.570068359375
v 183.36558532714844 188.47796630859375 1256.54638671875
v 202.5322265625 140.94871520996094 1256.5751953125
v 202.2687530517578 140.86593627929688 1204.9942626953125
v 199.1810302734375 139.81088256835938 1205.1318359375
v 183.1012420654297 188.39747619628906 1204.9945068359375
v 180.10768127441406 187.38377380371094 1205.131103515625
v 198.79708862304688 139.6551055908203 1205.55908203125
v 179.72250366210938 187.2287139892578 1205.5587158203125
v 179.74404907226562 187.0740509033203 1208.251953125
v 198.8243865966797 139.50279235839844 1208.2545166015625
v 199.2101287841797 139.63101196289062 1208.6644287109375
v 180.12918090820312 187.201171875 1208.6590576171875
v 183.36558532714844 188.47796630859375 1208.6353759765625
v 202.5322265625 140.94873046875 1208.664306640625
v 202.266845703125 140.87161254882812 1157.0830078125
v 199.13369750976562 139.85195922851562 1157.2208251953125
v 183.09930419921875 188.4033203125 1157.0833740234375
v 180.06036376953125 187.4247283935547 1157.2203369140625
v 198.75357055664062 139.6964569091797 1157.647705078125
v 179.67897033691406 187.2700653076172 1157.6473388671875
v 179.73831176757812 187.07949829101562 1160.3414306640625
v 198.8186492919922 139.5082244873047 1160.3438720703125
v 199.2101287841797 139.63101196289062 1160.7532958984375
v 180.12918090820312 187.20118713378906 1160.7479248046875
v 183.36558532714844 188.4779815673828 1160.7242431640625
v 202.5322265625 140.94873046875 1160.753173828125
v 163.92965698242188 231.37893676757812 1306.1805419921875
v 160.47817993164062 230.0213165283203 1306.1807861328125
v 163.92971801757812 231.3790283203125 1111.9154052734375
v 160.35337829589844 229.95729064941406 1111.915771484375
v 159.35870361328125 230.5078887939453 1306.1807861328125
v 159.23504638671875 230.44094848632812 1111.9156494140625
v 156.91409301757812 236.3199920654297 1111.9151611328125
v 157.0570526123047 236.3380126953125 1306.1802978515625
v 162.6608123779297 234.58761596679688 1119.2431640625
v 159.80026245117188 233.45603942871094 1119.2431640625
v 181.1717987060547 187.892333984375 1119.2431640625
v 178.00755310058594 186.64500427246094 1119.2431640625
v 158.9549102783203 233.12071228027344 1118.3818359375
v 177.18362426757812 186.3190460205078 1118.380859375
v 177.02354431152344 186.24728393554688 1111.9415283203125
v 158.630615234375 232.98541259765625 1111.9197998046875
v 164.85507202148438 235.17198181152344 1256.517578125
v 161.7043914794922 233.93603515625 1256.564453125
v 161.32777404785156 233.77374267578125 1256.159912109375
v 161.3639373779297 233.69253540039062 1253.4698486328125
v 161.74652099609375 233.84144592285156 1253.041748046875
v 164.6016082763672 235.06292724609375 1252.90576171875
v 164.85507202148438 235.17198181152344 1208.6064453125
v 161.7043914794922 233.93603515625 1208.6534423828125
v 161.31985473632812 233.81005859375 1208.2493896484375
v 161.3040313720703 233.96707153320312 1205.5584716796875
v 161.69046020507812 234.1213836669922 1205.1304931640625
v 164.58984375 235.0938262939453 1204.9951171875
v 164.85507202148438 235.1719970703125 1160.6954345703125
v 161.7043914794922 233.93605041503906 1160.7423095703125
v 161.31411743164062 233.81549072265625 1160.3387451171875
v 161.26052856445312 234.0084228515625 1157.64697265625
v 161.64317321777344 234.16220092773438 1157.219482421875
v 164.587890625 235.09982299804688 1157.0838623046875
v 196.81024169921875 138.5482177734375 1111.9154052734375
v 193.0460968017578 137.06439208984375 1111.915771484375
v 196.81024169921875 138.54820251464844 1306.1805419921875
v 193.17904663085938 137.1078338623047 1306.1807861328125
v 192.5603485107422 135.94570922851562 1111.915771484375
v 192.69395446777344 135.9874267578125 1306.1807861328125
v 194.9866180419922 130.17974853515625 1306.1802978515625
v 194.86378479003906 130.1106719970703 1111.915283203125
v 196.9195556640625 136.3060760498047 1302.2264404296875
v 193.90353393554688 135.10972595214844 1302.4814453125
v 155.9452362060547 238.77674865722656 1302.2264404296875
v 153.02296447753906 237.622314453125 1302.478759765625
v 193.1025848388672 134.79197692871094 1303.4114990234375
v 152.22079467773438 237.30538940429688 1303.4105224609375
v 152.2028350830078 237.29824829101562 1309.611572265625
v 193.09120178222656 134.78717041015625 1309.616943359375
v 158.88775634765625 233.3654022216797 1306.1805419921875
v 155.43629455566406 232.00779724121094 1306.1807861328125
v 158.88783264160156 233.36550903320312 1111.91552734375
v 155.3114776611328 231.94375610351562 1111.915771484375
v 154.3168182373047 232.49435424804688 1306.1807861328125
v 154.19314575195312 232.42742919921875 1111.915771484375
v 151.8721923828125 238.3064727783203 1111.9151611328125
v 152.01515197753906 238.32447814941406 1306.1802978515625
v 196.87094116210938 138.99884033203125 1119.2431640625
v 200.33892822265625 140.36183166503906 1119.2431640625
v 196.06866455078125 138.68222045898438 1118.380615234375
v 196.0726318359375 138.6739044189453 1111.963134765625
v 159.57534790039062 233.37335205078125 1299.0400390625
v 162.40382385253906 234.48594665527344 1298.790283203125
v 158.7719268798828 233.05734252929688 1299.97314453125
v 158.74742126464844 233.04783630371094 1306.170166015625
v 182.49215698242188 184.4553680419922 1302.2296142578125
v 182.49215698242188 184.45538330078125 1115.792724609375
v 200.33892822265625 140.36181640625 1302.2296142578125
v 200.33892822265625 140.36183166503906 1115.792724609375
v 179.67918395996094 191.56631469726562 1116.6553955078125
v 179.67918395996094 191.56629943847656 1302.2296142578125
v 162.66075134277344 234.58750915527344 1302.2296142578125
v 162.6608123779297 234.58761596679688 1116.6553955078125
v 162.6608123779297 234.58761596679688 1115.792724609375
v 179.67918395996094 191.56631469726562 1115.792724609375
vt 1.0458984375 0.738037109375
vt -0.017852783203125 0.738037109375
vt 1.0458984375 0.4365234375
vt -0.017852783203125 0.738037109375
vt -0.017852783203125 0.4365234375
vt 1.0458984375 0.4365234375
vt 0.0626220703125 0.380859375
vt 1.1220703125 0.380859375
vt 1.1220703125 0.6826171875
vt 0.0626220703125 0.6826171875
vt 0.0626220703125 0.380859375
vt 1.1220703125 0.6826171875
vt 0.0626220703125 0.6826171875
vt 0.057708740234375 0.6826171875
vt 0.0626220703125 0.380859375
vt 0.057708740234375 0.6826171875
vt 0.057708740234375 0.380859375
vt 0.0626220703125 0.380859375
vn 0.1562732756137848 0.16313189268112183 0.9741491675376892
vn 0.13506001234054565 0.14098747074604034 0.9807555079460144
vn 0.15770584344863892 0.16366726160049438 0.9738285541534424
vn 0.13631169497966766 0.1414627879858017 0.9805138111114502
vn 0.1555827409029007 0.1633678674697876 0.9742200970649719
vn 0.1562654823064804 0.16315056383609772 0.9741473197937012
vn 0.13446076214313507 0.14118877053260803 0.9808087944984436
vn 0.13505345582962036 0.14100338518619537 0.9807540774345398
vn 0.15468771755695343 0.1669057458639145 0.9737628698348999
vn 0.1337030977010727 0.14426352083683014 0.9804648756980896
vn 0.15802828967571259 0.1681503802537918 0.9730120897293091
vn 0.13661718368530273 0.14536766707897186 0.9799000024795532
vn 0.16118130087852478 0.16062237322330475 0.9737664461135864
vn 0.13931560516357422 0.13883249461650848 0.9804675579071045
vn 0.13931559026241302 0.13883216679096222 0.9804676175117493
vn 0.16118124127388 0.1606220304965973 0.973766565322876
vn 0.1364096850156784 0.13772375881671906 0.9810324907302856
vn 0.15784987807273865 0.15937115252017975 0.9745175242424011
vn 0.1358214169740677 0.13791082799434662 0.9810876846313477
vn 0.157172292470932 0.15959040820598602 0.974591076374054
vn 0.1347343474626541 0.14054033160209656 0.980864405632019
vn 0.15590228140354156 0.16262075304985046 0.974294126033783
vn 0.133372962474823 0.1438153088092804 0.9805757999420166
vn 0.15431159734725952 0.16639365255832672 0.9739102125167847
vn 0.15923340618610382 0.16426242887973785 0.9734796285629272
vn 0.1376422494649887 0.14198929071426392 0.9802518486976624
vn 0.1595539003610611 0.16438241302967072 0.973406970500946
vn 0.13792185485363007 0.14209571480751038 0.980197012424469
vn 0.174825057387352 0.12608474493026733 0.9764931797981262
vn 0.17164567112922668 0.12487352639436722 0.9772125482559204
vn 0.1497848778963089 0.10802562534809113 0.9827995300292969
vn 0.14712949097156525 0.10699771344661713 0.9833130240440369
vn 0.17125223577022552 0.12391459941864014 0.9774036407470703
vn 0.14678537845611572 0.10616949200630188 0.983454167842865
vn 0.14854131639003754 0.10181713104248047 0.9836506843566895
vn 0.17332452535629272 0.118817999958992 0.977671205997467
vn 0.15139657258987427 0.10613107681274414 0.9827589988708496
vn 0.14915157854557037 0.10525204241275787 0.9831966757774353
vn 0.13656960427761078 0.14176008105278015 0.9804350733757019
vn 0.13439524173736572 0.14092175662517548 0.9808562397956848
vn 0.1484597623348236 0.10495103895664215 0.9833336472511292
vn 0.13371263444423676 0.14060159027576447 0.9809954166412354
vn 0.13308842480182648 0.13995401561260223 0.9811729192733765
vn 0.1477692872285843 0.10446535050868988 0.9834893345832825
vn 0.15841251611709595 0.11029403656721115 0.9811935424804688
vn 0.15608936548233032 0.10931192338466644 0.9816755652427673
vn 0.14304004609584808 0.14714474976062775 0.9787175059318542
vn 0.14078828692436218 0.14621075987815857 0.9791839122772217
vn 0.15574921667575836 0.10916591435670853 0.9817458987236023
vn 0.14045238494873047 0.1460551917552948 0.9792553186416626
vn 0.14013907313346863 0.1458192616701126 0.979335367679596
vn 0.15540717542171478 0.10900693386793137 0.9818176627159119
vn 0.15564414858818054 0.10909458994865417 0.9817704558372498
vn 0.1403810828924179 0.14589253067970276 0.979289710521698
vn 0.14283409714698792 0.1468164175748825 0.9787968993186951
vn 0.15815749764442444 0.11006691306829453 0.9812601208686829
vn 0.16445337235927582 0.11453018337488174 0.9797132015228271
vn 0.1620074063539505 0.11371765285730362 0.9802152514457703
vn 0.1484643667936325 0.15275871753692627 0.9770482182502747
vn 0.1460917741060257 0.15199367702007294 0.9775249361991882
vn 0.16165053844451904 0.11355962604284286 0.9802923798561096
vn 0.1457393616437912 0.15182624757289886 0.977603554725647
vn 0.1454486846923828 0.15138010680675507 0.9777161478996277
vn 0.1613277941942215 0.11319374293088913 0.9803879261016846
vn 0.16157802939414978 0.11325379461050034 0.980339765548706
vn 0.1457045078277588 0.15142495930194855 0.9776710271835327
vn 0.14824488759040833 0.15237806737422943 0.9771409034729004
vn 0.16418056190013885 0.11425856500864029 0.9797906279563904
vn 0.17097124457359314 0.11907534301280975 0.9780541062355042
vn 0.16839659214019775 0.11826523393392563 0.9785990715026855
vn 0.15431441366672516 0.15878458321094513 0.9751792550086975
vn 0.1518154740333557 0.1580246388912201 0.9756947755813599
vn 0.16802746057510376 0.11810021847486496 0.978682279586792
vn 0.1514512151479721 0.1578497439622879 0.9757797718048096
vn 0.15116891264915466 0.15734322369098663 0.9759052395820618
vn 0.16770994663238525 0.11767968535423279 0.9787874817848206
vn 0.16797202825546265 0.11773549765348434 0.9787358045578003
vn 0.1514371633529663 0.15738269686698914 0.9758572578430176
vn 0.1540708988904953 0.15836654603481293 0.9752857089042664
vn 0.170669823884964 0.1187746524810791 0.9781432747840881
vn 0.12264616787433624 0.1731092482805252 0.9772364497184753
vn 0.12012258917093277 0.17217764258384705 0.9777143001556396
vn 0.1428576558828354 0.20163682103157043 0.9689862132072449
vn 0.13983744382858276 0.2005360871553421 0.9696550369262695
vn 0.1192891076207161 0.1725483387708664 0.9777510762214661
vn 0.13886931538581848 0.2009681761264801 0.9697046279907227
vn 0.1367407590150833 0.20593799650669098 0.9689640998840332
vn 0.11750062555074692 0.17681385576725006 0.9772053956985474
vn 0.1408229023218155 0.20309321582317352 0.9689799547195435
vn 0.13842172920703888 0.20222361385822296 0.9695075750350952
vn 0.15764014422893524 0.1634877771139145 0.9738693237304688
vn 0.15498098731040955 0.16250112652778625 0.9744609594345093
vn 0.13781119883060455 0.20211169123649597 0.969618022441864
vn 0.15440087020397186 0.16236162185668945 0.9745763540267944
vn 0.15511445701122284 0.1631966382265091 0.9743235111236572
vn 0.13828980922698975 0.20311027765274048 0.9693411588668823
vn 0.12790153920650482 0.182456374168396 0.9748594760894775
vn 0.12551343441009521 0.18157894909381866 0.9753335118293762
vn 0.1252669245004654 0.18151938915252686 0.975376307964325
vn 0.12555178999900818 0.18182820081710815 0.9752821922302246
vn 0.12588296830654144 0.1819925159215927 0.9752087593078613
vn 0.12805989384651184 0.18287873268127441 0.9747595191001892
vn 0.1327056735754013 0.18930964171886444 0.9729086756706238
vn 0.13023251295089722 0.18840600550174713 0.9734180569648743
vn 0.1299716979265213 0.18837539851665497 0.9734587669372559
vn 0.13023090362548828 0.18889634311199188 0.9733232259750366
vn 0.13057841360569 0.1890723705291748 0.9732425212860107
vn 0.1328732967376709 0.18979111313819885 0.9727919101715088
vn 0.1378733515739441 0.19668154418468475 0.9707251787185669
vn 0.13530932366847992 0.19575057923793793 0.9712738990783691
vn 0.1350356936454773 0.1957264244556427 0.9713169932365417
vn 0.13528341054916382 0.19631250202655792 0.9711641073226929
vn 0.13564233481884003 0.19649642705917358 0.9710768461227417
vn 0.1380605697631836 0.19720779359340668 0.9705917835235596
vn 0.17299462854862213 0.12178277969360352 0.9773647785186768
vn 0.16980905830860138 0.12056589126586914 0.9780740141868591
vn 0.14818142354488373 0.10431504994630814 0.9834432005882263
vn 0.14552222192287445 0.10328364372253418 0.9839490056037903
vn 0.16941407322883606 0.11960466206073761 0.9782604575157166
vn 0.14517712593078613 0.10245398432016373 0.9840867519378662
vn 0.14693188667297363 0.09809676557779312 0.9842703342437744
vn 0.17148451507091522 0.11450031399726868 0.9785104393959045
vn 0.14872339367866516 0.10294508934020996 0.9835058450698853
vn 0.14648059010505676 0.10206597298383713 0.9839338660240173
vn 0.11698034405708313 0.17911535501480103 0.9768486618995667
vn 0.11481393873691559 0.1782892793416977 0.977256715297699
vn 0.1457912027835846 0.10176707059144974 0.9840672612190247
vn 0.11414677649736404 0.1779497116804123 0.9773967266082764
vn 0.11361715942621231 0.17713962495326996 0.9776056408882141
vn 0.1451137661933899 0.1012965515255928 0.9842159748077393
vn 0.118897445499897 0.17462988197803497 0.977429211139679
vn 0.11637060344219208 0.17369744181632996 0.9778993129730225
vn 0.13850091397762299 0.20342235267162323 0.9692454934120178
vn 0.13547533750534058 0.20232026278972626 0.9699035882949829
vn 0.1155363917350769 0.17406760156154633 0.9779323935508728
vn 0.13450606167316437 0.2027515321969986 0.9699484705924988
vn 0.13237792253494263 0.20771753787994385 0.9691901206970215
vn 0.11374817788600922 0.17833074927330017 0.9773737788200378
vn 0.17195549607276917 0.12140753120183945 0.977594792842865
vn 0.17486731708049774 0.12251586467027664 0.9769396781921387
vn 0.17140735685825348 0.12123892456293106 0.9777119159698486
vn 0.17235620319843292 0.12190026789903641 0.9774629473686218
vn 0.12003126740455627 0.17554152011871338 0.9771273136138916
vn 0.12213179469108582 0.17633937299251556 0.9767231941223145
vn 0.11935868114233017 0.17520363628864288 0.977270245552063
vn 0.11879975348711014 0.17440298199653625 0.9774816632270813
vn -0.9269512295722961 -0.3751815855503082 -3.070645959724061e-08
vn -0.9269512891769409 -0.37518155574798584 -3.070645249181325e-08
vn -0.9269512891769409 -0.375181645154953 -3.070645959724061e-08
vn -0.9269513487815857 -0.37518155574798584 -3.070645604452693e-08
vn -0.9298871159553528 -0.3678450584411621 -2.184699070539864e-07
vn -0.9298864006996155 -0.36784669756889343 -3.024609185331428e-08
vn -0.9298865795135498 -0.36784642934799194 -1.0514528980820614e-07
vn -0.9298871755599976 -0.3678448796272278 -2.559243057476124e-07
vn -0.9298871159553528 -0.36784490942955017 0.0
vn -0.9298871159553528 -0.3678448498249054 0.0
f 147/1/147 148/2/148 149/3/149
f 148/4/148 150/5/150 149/6/149
f 151/7/151 152/8/152 153/9/153
f 154/10/154 151/11/151 153/12/153
f 154/13/154 155/14/155 151/15/151
f 155/16/155 156/17/156 151/18/151
