# Exported by Lightwave Blender addon
v 103.0451889038086 731.0396118164062 823.9089965820312
v 103.04512786865234 731.03955078125 1008.107666015625
v 104.65411376953125 730.1649169921875 823.9089965820312
v 104.65690612792969 730.1632690429688 1008.107666015625
v 102.7271957397461 731.8223266601562 823.9089965820312
v 103.056396484375 731.0602416992188 823.9090576171875
v 102.72711181640625 731.8220825195312 1008.107666015625
v 103.05614471435547 731.0597534179688 1008.107666015625
v 105.30791473388672 735.2014770507812 823.9089965820312
v 105.30784606933594 735.2013549804688 1008.107666015625
v 109.06204986572266 733.160400390625 823.9089965820312
v 109.06204986572266 733.1602783203125 1008.107666015625
v 104.54090118408203 724.8652954101562 823.9091186523438
v 104.54090118408203 724.8652954101562 1008.1077270507812
v 104.54049682617188 724.8650512695312 1008.1077270507812
v 104.54051971435547 724.8651123046875 823.9091186523438
v 100.79370880126953 726.8977661132812 1008.107666015625
v 100.79397583007812 726.8982543945312 823.9090576171875
v 100.47026062011719 727.6571044921875 1008.107666015625
v 100.47037506103516 727.6573486328125 823.9089965820312
v 102.28421020507812 730.9935302734375 1008.107666015625
v 102.2843246459961 730.9937744140625 823.9089965820312
v 104.54103088378906 735.1585083007812 1008.107666015625
v 104.54117584228516 735.1587524414062 823.9089965820312
v 106.39414978027344 729.2493286132812 823.9091186523438
v 106.39413452148438 729.249267578125 1008.1077270507812
v 106.75495147705078 729.0535888671875 823.9091186523438
v 106.75495147705078 729.0535888671875 1008.1077270507812
v 82.38945007324219 687.9238891601562 818.8759155273438
v 78.83938598632812 689.8649291992188 818.8761596679688
v 82.38945007324219 687.9238891601562 1013.1409912109375
v 78.9578628540039 689.7905883789062 1013.1412963867188
v 77.66909790039062 689.5216064453125 818.8761596679688
v 77.78668975830078 689.4457397460938 1013.1412963867188
v 74.7940902709961 683.9657592773438 1013.1408081054688
v 74.66236877441406 684.0159301757812 818.8759155273438
v 80.49490356445312 685.0270385742188 1005.750732421875
v 77.6446762084961 686.5775146484375 1006.0057983398438
v 104.72804260253906 730.1854858398438 1005.750732421875
v 101.97004699707031 731.6907348632812 1006.003173828125
v 76.88773345947266 686.9892578125 1006.9359130859375
v 101.21294403076172 732.1039428710938 1006.934814453125
v 101.19598388671875 732.1131591796875 1013.135986328125
v 76.87677001953125 686.994873046875 1013.1411743164062
v 82.3451156616211 683.7078857421875 959.8655395507812
v 79.39280700683594 685.2075805664062 960.0036010742188
v 106.57839965820312 728.8666381835938 959.865966796875
v 103.7190170288086 730.3218383789062 960.0030517578125
v 79.03477478027344 685.4046020507812 960.4310302734375
v 103.3603286743164 730.5195922851562 960.4307250976562
v 103.40504455566406 730.5964965820312 963.1231079101562
v 79.08499908447266 685.4786987304688 963.125732421875
v 79.4532699584961 685.2937622070312 963.5359497070312
v 103.7720947265625 730.411376953125 963.5305786132812
v 106.8252182006836 728.7432250976562 963.5068359375
v 82.59272766113281 683.5859985351562 963.5357666015625
v 82.36040496826172 683.7353515625 911.9547119140625
v 79.57280731201172 685.4313354492188 912.0924072265625
v 106.59412384033203 728.8947143554688 911.955078125
v 103.89859008789062 730.5448608398438 912.0916748046875
v 79.2072982788086 685.62646484375 912.5195922851562
v 103.53282165527344 730.7413940429688 912.519287109375
v 103.4278335571289 730.6257934570312 915.2124633789062
v 79.10778045654297 685.5079956054688 915.215087890625
v 79.4532699584961 685.2937622070312 915.6248168945312
v 103.7720947265625 730.411376953125 915.6194458007812
v 106.8252182006836 728.7432250976562 915.5957641601562
v 82.59272766113281 683.5859985351562 915.624755859375
v 82.36356353759766 683.740478515625 864.0435180664062
v 79.57403564453125 685.4939575195312 864.1814575195312
v 106.5973892211914 728.8999633789062 864.0440063476562
v 103.89973449707031 730.607421875 864.1807861328125
v 79.21118927001953 685.6863403320312 864.6079711914062
v 103.53672790527344 730.80126953125 864.6077270507812
v 103.4283218383789 730.6337280273438 867.3018798828125
v 79.1082763671875 685.515869140625 867.304443359375
v 79.4532699584961 685.2937622070312 867.7138671875
v 103.7720947265625 730.411376953125 867.70849609375
v 106.8252182006836 728.7432250976562 867.6846923828125
v 82.59272766113281 683.5859985351562 867.7136840820312
v 127.33043670654297 771.1434936523438 1013.1410522460938
v 124.07750701904297 772.9251098632812 1013.1412353515625
v 127.3305435180664 771.1434936523438 818.8759765625
v 123.94839477539062 772.97998046875 818.876220703125
v 123.73436737060547 774.0965576171875 1013.1411743164062
v 123.603759765625 774.148681640625 818.876220703125
v 126.633056640625 779.696044921875 818.8756713867188
v 126.73844146728516 779.5977783203125 1013.1406860351562
v 128.982421875 774.1727905273438 826.2036743164062
v 126.28150939941406 775.645263671875 826.2036743164062
v 104.97061157226562 730.0531616210938 826.2036743164062
v 101.9863052368164 731.6847534179688 826.2036743164062
v 125.48262786865234 776.079833984375 825.34228515625
v 101.20833587646484 732.1089477539062 825.3413696289062
v 101.05072021484375 732.1859130859375 818.9020385742188
v 125.17105102539062 776.2423095703125 818.8804321289062
v 130.83639526367188 772.8616333007812 963.47802734375
v 127.86952209472656 774.4901733398438 963.5250244140625
v 127.50370788574219 774.6754760742188 963.1204223632812
v 127.46449279785156 774.595703125 960.430419921875
v 127.82386016845703 774.397216796875 960.002197265625
v 130.59031677246094 772.9865112304688 959.8663330078125
v 130.83639526367188 772.8616333007812 915.5669555664062
v 127.86952209472656 774.4901733398438 915.614013671875
v 127.52651977539062 774.7047729492188 915.2098999023438
v 127.6369857788086 774.8175048828125 912.5189208984375
v 128.00296020507812 774.6195678710938 912.0909423828125
v 130.6065216064453 773.0153198242188 911.95556640625
v 130.83639526367188 772.8616333007812 867.6558837890625
v 127.86952209472656 774.4901733398438 867.7029418945312
v 127.52700805664062 774.7127075195312 867.2992553710938
v 127.640869140625 774.8773803710938 864.6074829101562
v 128.00401306152344 774.6820068359375 864.1799926757812
v 130.60986328125 773.0206298828125 864.0443725585938
v 77.0848159790039 686.4436645507812 818.8759155273438
v 73.53472137451172 688.3847045898438 818.876220703125
v 77.0848159790039 686.4436645507812 1013.1409301757812
v 73.65322875976562 688.3104248046875 1013.1412963867188
v 72.36444091796875 688.0414428710938 818.876220703125
v 72.4820556640625 687.9655151367188 1013.1412963867188
v 69.48944091796875 682.485595703125 1013.1408081054688
v 69.35771942138672 682.5357055664062 818.8759155273438
v 75.43267822265625 684.9240112304688 1009.18701171875
v 72.58245849609375 686.4744262695312 1009.44189453125
v 127.89961242675781 782.013427734375 1009.18701171875
v 125.14163208007812 783.5186767578125 1009.4393920898438
v 71.82551574707031 686.8861694335938 1010.3720703125
v 124.38452911376953 783.931884765625 1010.3709716796875
v 124.3675537109375 783.9411010742188 1016.5721435546875
v 71.81452941894531 686.8917846679688 1016.5773315429688
v 125.62757110595703 776.2880859375 1013.1410522460938
v 122.37464141845703 778.0697021484375 1013.1412353515625
v 125.62767791748047 776.2880859375 818.8759765625
v 122.24552917480469 778.1245727539062 818.8762817382812
v 122.03150177001953 779.2411499023438 1013.1411743164062
v 121.90089416503906 779.2932739257812 818.876220703125
v 124.93019104003906 784.8406372070312 818.875732421875
v 125.03557586669922 784.742431640625 1013.1406860351562
v 77.46980285644531 686.6856689453125 826.2036743164062
v 80.7374267578125 684.894775390625 826.2036743164062
v 76.71285247802734 687.09912109375 825.3410034179688
v 76.7090072631836 687.0907592773438 818.9236450195312
v 126.0739974975586 775.7650756835938 1006.0005493164062
v 128.7397918701172 774.3051147460938 1005.750732421875
v 125.31678009033203 776.1798706054688 1006.9336547851562
v 125.29380798339844 776.1925048828125 1013.1307373046875
v 103.17626953125 726.8381958007812 1009.1901245117188
v 103.17626953125 726.8381958007812 822.7532958984375
v 80.7374267578125 684.894775390625 1009.1901245117188
v 80.7374267578125 684.894775390625 822.7532958984375
v 106.8366928100586 733.5523071289062 823.6159057617188
v 106.8366928100586 733.5523071289062 1009.1901245117188
v 128.98231506347656 774.1727905273438 1009.1901245117188
v 128.982421875 774.1727905273438 823.6159057617188
v 128.982421875 774.1727905273438 822.7532958984375
v 106.8366928100586 733.5523071289062 822.7532958984375
vt 1.0458984375 0.738037109375
vt -0.017852783203125 0.738037109375
vt 1.0458984375 0.4365234375
vt -0.017852783203125 0.738037109375
vt -0.017852783203125 0.4365234375
vt 1.0458984375 0.4365234375
vt 0.0626220703125 0.380859375
vt 1.1220703125 0.380859375
vt 1.1220703125 0.6826171875
vt 0.0626220703125 0.6826171875
vt 0.0626220703125 0.380859375
vt 1.1220703125 0.6826171875
vt 0.0626220703125 0.6826171875
vt 0.057708740234375 0.6826171875
vt 0.0626220703125 0.380859375
vt 0.057708740234375 0.6826171875
vt 0.057708740234375 0.380859375
vt 0.0626220703125 0.380859375
vn 0.09314537048339844 0.6608067154884338 0.744753897190094
vn 0.08246729522943497 0.5850529670715332 0.8067913055419922
vn 0.0946362242102623 0.6602707505226135 0.7450413107872009
vn 0.08378258347511292 0.5845286846160889 0.8070357441902161
vn 0.09281700104475021 0.6612226963043213 0.7444256544113159
vn 0.09315425902605057 0.6608166098594666 0.744744062423706
vn 0.08218438178300858 0.5854768753051758 0.8065125942230225
vn 0.08247527480125427 0.5850631594657898 0.8067830801010132
vn 0.09493608772754669 0.6627911329269409 0.7427618503570557
vn 0.08410129696130753 0.587148904800415 0.8050982356071472
vn 0.09840817004442215 0.6615406274795532 0.7434242963790894
vn 0.08716044574975967 0.5859286189079285 0.805661678314209
vn 0.09483423084020615 0.657561182975769 0.7474087476730347
vn 0.08389785885810852 0.5817306637763977 0.8090429306030273
vn 0.08389755338430405 0.5817305445671082 0.8090431094169617
vn 0.09483388066291809 0.6575610637664795 0.7474087476730347
vn 0.08083385229110718 0.5829524993896484 0.8084753155708313
vn 0.09135323017835617 0.6588141918182373 0.746738612651825
vn 0.0805475264787674 0.5833664536476135 0.8082051277160645
vn 0.0910211056470871 0.6592209339141846 0.7464200854301453
vn 0.08186419308185577 0.5850579738616943 0.8068490624427795
vn 0.09246603399515152 0.6608255505561829 0.7448218464851379
vn 0.08349485695362091 0.5871565937995911 0.8051556944847107
vn 0.09425343573093414 0.6628128886222839 0.7428293228149414
vn 0.0962478294968605 0.6597041487693787 0.7453367114067078
vn 0.08519971370697021 0.5839779376983643 0.8072859644889832
vn 0.09658246487379074 0.6595833897590637 0.7454003095626831
vn 0.08549436926841736 0.5838602781295776 0.8073399662971497
vn 0.07680902630090714 0.6413292288780212 0.7634115815162659
vn 0.07343235611915588 0.6425520181655884 0.7627152800559998
vn 0.0671258270740509 0.5604777932167053 0.8254445791244507
vn 0.06428692489862442 0.5616225600242615 0.8248923420906067
vn 0.07236294448375702 0.6424152851104736 0.7629326581954956
vn 0.06334719806909561 0.5614644289016724 0.8250725865364075
vn 0.06107201799750328 0.5584822297096252 0.8272652626037598
vn 0.06980505585670471 0.6395158767700195 0.7656022310256958
vn 0.06600435823202133 0.5617097020149231 0.8246973156929016
vn 0.0636204183101654 0.5625672340393066 0.8243001103401184
vn 0.08396606147289276 0.5854286551475525 0.8063640594482422
vn 0.0816987007856369 0.5862327814102173 0.8060126900672913
vn 0.06295117735862732 0.562466561794281 0.824420154094696
vn 0.08103162795305252 0.5861263871192932 0.8061574697494507
vn 0.08069447427988052 0.5837928056716919 0.8078826069831848
vn 0.06267928332090378 0.5601216554641724 0.826035737991333
vn 0.06970446556806564 0.5787531137466431 0.8125183582305908
vn 0.06716109067201614 0.5796405076980591 0.8120998740196228
vn 0.08808588981628418 0.6024003624916077 0.7933188080787659
vn 0.08567041903734207 0.6032353639602661 0.7929487228393555
vn 0.0668334886431694 0.579592764377594 0.8121609687805176
vn 0.08534399420022964 0.6031855344772339 0.7930217981338501
vn 0.08522705733776093 0.6021620035171509 0.7938118577003479
vn 0.06674977391958237 0.5785616636276245 0.8129028677940369
vn 0.0670463815331459 0.5782829523086548 0.8130766749382019
vn 0.0855124294757843 0.6018887162208557 0.7939884662628174
vn 0.08808327466249466 0.6008889079093933 0.7944644093513489
vn 0.06974104046821594 0.5772178769111633 0.8136066198348999
vn 0.07207042723894119 0.5983105301856995 0.7980164885520935
vn 0.06957460939884186 0.5993079543113708 0.7974894046783447
vn 0.09092653542757034 0.6217591166496277 0.7779126167297363
vn 0.08855987340211868 0.6226933002471924 0.7774381041526794
vn 0.06922885775566101 0.5992520451545715 0.7975614666938782
vn 0.08821633458137512 0.6226366758346558 0.777522623538971
vn 0.08797590434551239 0.621471643447876 0.7784813642501831
vn 0.06901680678129196 0.5980647802352905 0.7984704375267029
vn 0.06930474936962128 0.5977616310119629 0.798672616481781
vn 0.08825267106294632 0.6211761832237244 0.7786858677864075
vn 0.09090951830148697 0.6201690435409546 0.7791827917098999
vn 0.07209338992834091 0.5966873168945312 0.799228847026825
vn 0.07454231381416321 0.6188124418258667 0.7819939255714417
vn 0.07195325195789337 0.619844377040863 0.781419038772583
vn 0.09388177841901779 0.6419521570205688 0.7609753608703613
vn 0.09142934530973434 0.6429174542427063 0.7604589462280273
vn 0.07159754633903503 0.6197793483734131 0.7815033197402954
vn 0.0910765528678894 0.6428526639938354 0.7605561017990112
vn 0.09082674235105515 0.6416141986846924 0.7616308927536011
vn 0.0713757574558258 0.6185094714164734 0.7825289368629456
vn 0.07167359441518784 0.6181931495666504 0.7827516198158264
vn 0.09111276268959045 0.6413072347640991 0.7618553042411804
vn 0.09385975450277328 0.6402950286865234 0.7623730897903442
vn 0.07456117123365402 0.6171121001243591 0.7833346724510193
vn 0.09950939565896988 0.6026526689529419 0.7917749881744385
vn 0.0969100072979927 0.6036885976791382 0.7913080453872681
vn 0.11248241364955902 0.681219756603241 0.7233861088752747
vn 0.1094098836183548 0.6823133826255798 0.7228262424468994
vn 0.09659113734960556 0.6042853593826294 0.7908915281295776
vn 0.1090325340628624 0.6828869581222534 0.7223417162895203
vn 0.11129940301179886 0.6852847337722778 0.7197202444076538
vn 0.09865709394216537 0.6068628430366516 0.7886598110198975
vn 0.11318635940551758 0.6793623566627502 0.7250211834907532
vn 0.11074832081794739 0.6802374720573425 0.7245769500732422
vn 0.09477955102920532 0.6591760516166687 0.7459918260574341
vn 0.09201870858669281 0.6601738333702087 0.7454549670219421
vn 0.11008790880441666 0.6808671951293945 0.7240859270095825
vn 0.09135253727436066 0.6608152389526367 0.7449685335159302
vn 0.09160318225622177 0.6637316346168518 0.7423403859138489
vn 0.11025889962911606 0.6837652921676636 0.7213237285614014
vn 0.10533788055181503 0.6222397089004517 0.7757071852684021
vn 0.10288777202367783 0.6231787204742432 0.7752820253372192
vn 0.10261289030313492 0.6234461069107056 0.7751035094261169
vn 0.10275812447071075 0.6244562864303589 0.7742707133293152
vn 0.10308261215686798 0.624506950378418 0.7741867303848267
vn 0.10537286102771759 0.6237200498580933 0.7745127081871033
vn 0.10855283588171005 0.6412307620048523 0.7596310377120972
vn 0.10602419823408127 0.6421757340431213 0.7591898441314697
vn 0.10575778782367706 0.642462968826294 0.7589839100837708
vn 0.1060214564204216 0.6436009407043457 0.7579823732376099
vn 0.10636194050312042 0.6436573266983032 0.7578868865966797
vn 0.10860244184732437 0.6427807211875916 0.7583128809928894
vn 0.11189302057027817 0.6609615087509155 0.7420307993888855
vn 0.10928244888782501 0.6619105339050293 0.7415739297866821
vn 0.10900735855102539 0.662207841873169 0.7413488626480103
vn 0.1092795878648758 0.6634104251861572 0.7402327656745911
vn 0.10962863266468048 0.6634739637374878 0.7401242256164551
vn 0.11194796860218048 0.6625692844390869 0.7405873537063599
vn 0.07195380330085754 0.6407517790794373 0.7643688917160034
vn 0.06857627630233765 0.6419669389724731 0.7636594176292419
vn 0.06286405771970749 0.5598072409629822 0.826234757900238
vn 0.06002464145421982 0.5609473586082458 0.825672447681427
vn 0.06750379502773285 0.6418263912200928 0.7638731598854065
vn 0.05908285453915596 0.5607866048812866 0.8258496522903442
vn 0.056793391704559326 0.5577922463417053 0.8280351758003235
vn 0.06492463499307632 0.6389105916023254 0.7665364146232605
vn 0.061729174107313156 0.5604970455169678 0.8258526921272278
vn 0.059352658689022064 0.5613488554954529 0.825448215007782
vn 0.09967966377735138 0.6094688773155212 0.7865185737609863
vn 0.09746606647968292 0.6102403998374939 0.78619784116745
vn 0.05868788808584213 0.5612475872039795 0.8255646228790283
vn 0.09680770337581635 0.6101292967796326 0.7863654494285583
vn 0.0964277908205986 0.607824981212616 0.7881943583488464
vn 0.058433957397937775 0.5589092969894409 0.8271673917770386
vn 0.09795361757278442 0.6052829623222351 0.7899605631828308
vn 0.09536036849021912 0.6063103675842285 0.7894896864891052
vn 0.11065347492694855 0.6837583780288696 0.721269965171814
vn 0.10759031027555466 0.6848403215408325 0.720706582069397
vn 0.09504278004169464 0.6069026589393616 0.7890729308128357
vn 0.10721494257450104 0.6854082942008972 0.720222532749176
vn 0.10948096215724945 0.6877849698066711 0.7176111936569214
vn 0.09710761904716492 0.6094622611999512 0.7868455052375793
vn 0.07192421704530716 0.6375300884246826 0.7670608758926392
vn 0.07502066344022751 0.6363995671272278 0.7677028179168701
vn 0.07125135511159897 0.638181746006012 0.766581654548645
vn 0.07157465815544128 0.6411018967628479 0.764110803604126
vn 0.09875655174255371 0.6076739430427551 0.788022518157959
vn 0.10090933740139008 0.6069189310073853 0.7883315682411194
vn 0.09809326380491257 0.6075644493103027 0.7881898283958435
vn 0.09770088642835617 0.6052549481391907 0.790013313293457
vn -0.8817497491836548 0.4717174768447876 0.0
vn -0.8817497491836548 0.4717174470424652 0.0
vn -0.8817497491836548 0.4717174470424652 0.0
vn -0.8817497491836548 0.4717174768447876 0.0
vn -0.87799471616745 0.4786704480648041 -2.1311625175712834e-07
vn -0.877995491027832 0.47866880893707275 0.0
vn -0.877995491027832 0.478669136762619 -7.849759242617438e-08
vn -0.8779945969581604 0.47867056727409363 -2.523698299228272e-07
vn -0.8779945969581604 0.478670597076416 0.0
vn -0.8779945373535156 0.47867050766944885 0.0
f 147/1/147 148/2/148 149/3/149
f 148/4/148 150/5/150 149/6/149
f 151/7/151 152/8/152 153/9/153
f 154/10/154 151/11/151 153/12/153
f 154/13/154 155/14/155 151/15/151
f 155/16/155 156/17/156 151/18/151
