# Exported by Lightwave Blender addon
v 1777.66552734375 3216.497802734375 1511.24853515625
v 1608.681396484375 2933.810302734375 1511.24853515625
v 1936.86474609375 3121.332763671875 1511.24853515625
v 1767.880615234375 2838.644775390625 1511.24853515625
v 1817.0762939453125 3192.939208984375 1698.87158203125
v 1936.86474609375 3121.332275390625 1698.87158203125
v 1648.091796875 2910.25146484375 1698.87158203125
v 1767.880615234375 2838.644775390625 1698.87158203125
v 1547.454345703125 2831.38525390625 1511.24853515625
v 1378.469970703125 2548.697509765625 1511.24853515625
v 1706.6533203125 2736.2197265625 1511.24853515625
v 1537.6689453125 2453.531982421875 1511.24853515625
v 1586.86474609375 2807.826416015625 1698.87158203125
v 1706.6533203125 2736.2197265625 1698.87158203125
v 1417.880615234375 2525.138671875 1698.87158203125
v 1537.6689453125 2453.531982421875 1698.87158203125
v 1313.698486328125 2440.343505859375 1511.24853515625
v 1144.714111328125 2157.655517578125 1511.24853515625
v 1472.8975830078125 2345.177978515625 1511.24853515625
v 1303.913330078125 2062.489990234375 1511.24853515625
v 1353.109130859375 2416.78466796875 1698.87158203125
v 1472.8975830078125 2345.177978515625 1698.87158203125
v 1184.124755859375 2134.0966796875 1698.87158203125
v 1303.913330078125 2062.489990234375 1698.87158203125
v 1379.0980224609375 2604.09326171875 21.602092742919922
v 1379.09814453125 2604.093505859375 334.3186950683594
v 1487.6160888671875 2785.468017578125 21.602100372314453
v 1487.615966796875 2785.468017578125 334.3187561035156
v 1333.385986328125 2427.94921875 321.6020812988281
v 1333.3857421875 2427.948974609375 21.60232925415039
v 1115.333984375 2063.177734375 321.60205078125
v 1115.333984375 2063.177490234375 21.602313995361328
v 1260.9783935546875 2471.25537109375 21.602331161499023
v 1260.979248046875 2471.25927734375 321.6020812988281
v 1331.486328125 2589.208251953125 21.602336883544922
v 1331.486328125 2589.20849609375 321.6020812988281
v 1350.5791015625 2621.148193359375 334.3187561035156
v 1350.5792236328125 2621.14794921875 21.602092742919922
v 1260.979248046875 2471.259521484375 458.9579772949219
v 1331.486328125 2589.208251953125 458.9579772949219
v 1018.706298828125 2065.9697265625 459.040771484375
v 1459.023193359375 2802.560302734375 334.3187561035156
v 1467.0673828125 2816.124755859375 458.9579772949219
v 1459.023193359375 2802.56005859375 21.602100372314453
v 1467.0673828125 2816.124755859375 21.602163314819336
v 1018.706298828125 2065.9697265625 21.602558135986328
v 1042.915283203125 2106.4677734375 21.602439880371094
v 1042.9154052734375 2106.468017578125 323.635498046875
v 1047.4285888671875 2087.697265625 1172.0123291015625
v 1047.4285888671875 2087.697509765625 1431.628662109375
v 1247.4915771484375 1968.104248046875 1172.0123291015625
v 1247.4915771484375 1968.104248046875 1431.628662109375
v 1988.8387451171875 3208.27783203125 1172.0123291015625
v 1788.775634765625 3327.87109375 1172.0123291015625
v 1988.8388671875 3208.2783203125 1431.628662109375
v 1788.7760009765625 3327.871337890625 1431.628662109375
v 1047.4285888671875 2087.697509765625 848.5084228515625
v 1047.4285888671875 2087.697509765625 1108.124755859375
v 1247.4915771484375 1968.104248046875 848.5084228515625
v 1247.49169921875 1968.1041259765625 1108.124755859375
v 1988.8388671875 3208.27783203125 848.5084838867188
v 1788.7760009765625 3327.871337890625 848.5084838867188
v 1988.8388671875 3208.2783203125 1108.124755859375
v 1788.7760009765625 3327.871337890625 1108.124755859375
v 1047.4285888671875 2087.697509765625 521.3573608398438
v 1047.4287109375 2087.697509765625 780.9736938476562
v 1247.49169921875 1968.104248046875 521.3573608398438
v 1247.49169921875 1968.104248046875 780.9736938476562
v 1988.8388671875 3208.2783203125 521.357421875
v 1788.7760009765625 3327.871337890625 521.357421875
v 1988.8388671875 3208.2783203125 780.9737548828125
v 1788.7760009765625 3327.871337890625 780.9737548828125
v 1511.7152099609375 2864.38623046875 104.85076141357422
v 1511.7152099609375 2864.385986328125 364.4670715332031
v 1711.778076171875 2744.793212890625 104.85075378417969
v 1711.778076171875 2744.79296875 364.4670715332031
v 1988.8388671875 3208.2783203125 104.85077667236328
v 1788.7760009765625 3327.871337890625 104.85077667236328
v 1988.8388671875 3208.2783203125 364.46710205078125
v 1788.7760009765625 3327.871337890625 364.46710205078125
v 1586.50732421875 3016.0390625 332.50665283203125
v 1530.074462890625 2921.634765625 332.50665283203125
v 1530.074462890625 2921.634765625 134.2394256591797
v 1635.636474609375 3098.225830078125 458.9580078125
v 1635.636474609375 3098.225830078125 21.602481842041016
v 1586.50732421875 3016.0390625 134.23944091796875
v 1684.2808837890625 3179.601318359375 134.23944091796875
v 1786.267578125 3352.341796875 21.602493286132812
v 1684.2808837890625 3179.601318359375 317.51483154296875
v 1740.7138671875 3274.005126953125 134.23944091796875
v 1740.7138671875 3274.005615234375 317.51483154296875
v 1786.26953125 3352.344482421875 458.9580078125
vt 1.642578125 2.2470703125
vt 2.18359375 2.2470703125
vt 2.890625 2.8515625
vt 2.18359375 2.2470703125
vt 2.185546875 1.269775390625
vt 2.890625 2.8515625
vt 2.185546875 1.269775390625
vt 2.892578125 0.71533203125
vt 2.890625 2.8515625
vt 1.169921875 2.849609375
vt 1.642578125 2.2470703125
vt 2.890625 2.8515625
vt 1.171875 0.713623046875
vt 2.892578125 0.71533203125
vt 2.185546875 1.269775390625
vt 1.642578125 2.2470703125
vt 1.169921875 2.849609375
vt 1.6435546875 1.269287109375
vt 1.6435546875 1.269287109375
vt 1.171875 0.713623046875
vt 2.185546875 1.269775390625
vt 1.169921875 2.849609375
vt 1.171875 0.713623046875
vt 1.6435546875 1.269287109375
vt 0.70361328125 1.2685546875
vt 1.171875 0.713623046875
vt 1.169921875 2.849609375
vt -0.2861328125 0.71240234375
vt 1.171875 0.713623046875
vt 0.70361328125 1.2685546875
vt 0.703125 2.171875
vt 0.70361328125 1.2685546875
vt 1.169921875 2.849609375
vt 0.1614990234375 1.26806640625
vt -0.2861328125 0.71240234375
vt 0.70361328125 1.2685546875
vt 0.1607666015625 2.1708984375
vt 0.703125 2.171875
vt 1.169921875 2.849609375
vt -0.2880859375 2.8486328125
vt -0.2861328125 0.71240234375
vt 0.1614990234375 1.26806640625
vt -0.2880859375 2.8486328125
vt 0.1607666015625 2.1708984375
vt 1.169921875 2.849609375
vt 0.1607666015625 2.1708984375
vt -0.2880859375 2.8486328125
vt 0.1614990234375 1.26806640625
vn 0.44736436009407043 0.8094584941864014 0.3803183138370514
vn 0.438169002532959 0.799104630947113 0.41163045167922974
vn 0.48761025071144104 0.7858028411865234 0.38046038150787354
vn 0.48174214363098145 0.773522138595581 0.41181066632270813
vn 0.448930561542511 0.7888540625572205 0.4197266697883606
vn 0.4785618185997009 0.771220862865448 0.41975831985473633
vn 0.43934381008148193 0.7758068442344666 0.45288053154945374
vn 0.47131797671318054 0.7567843198776245 0.452920138835907
vn 0.434307724237442 0.7946550846099854 0.42414620518684387
vn 0.4218067228794098 0.7798920273780823 0.4624364674091339
vn 0.47921109199523926 0.7683029770851135 0.42434337735176086
vn 0.4707810580730438 0.7511866688728333 0.4626920521259308
vn 0.4353182911872864 0.7702597975730896 0.46604466438293457
vn 0.46822285652160645 0.7506859302520752 0.4660879373550415
vn 0.42230117321014404 0.7520865797996521 0.5059914588928223
vn 0.45802903175354004 0.7308392524719238 0.5060468316078186
vn 0.4161578416824341 0.7730602622032166 0.4787384271621704
vn 0.3985450565814972 0.751211941242218 0.5261580944061279
vn 0.46686577796936035 0.7433533668518066 0.47902193665504456
vn 0.45429688692092896 0.7185928225517273 0.5265346169471741
vn 0.41643160581588745 0.743787407875061 0.5228431224822998
vn 0.4533505141735077 0.7218340635299683 0.5229042172431946
vn 0.3982037901878357 0.717665433883667 0.5713055729866028
vn 0.4385480582714081 0.6936818361282349 0.5713852643966675
vn 0.4679971933364868 0.8836995363235474 0.007330674212425947
vn 0.4650264382362366 0.8780900239944458 0.11273094266653061
vn 0.47107839584350586 0.8820648193359375 0.006840664427727461
vn 0.4684712886810303 0.877183198928833 0.10528169572353363
vn 0.4781562387943268 0.8706699013710022 0.11532747745513916
vn 0.4813535213470459 0.8764918446540833 0.007798461243510246
vn 0.4711421728134155 0.8715327382087708 0.13585194945335388
vn 0.47553083300590515 0.879650890827179 0.009210305288434029
vn 0.454494833946228 0.8907153010368347 0.007786134723573923
vn 0.4514850974082947 0.8848176598548889 0.11514744907617569
vn 0.45730653405189514 0.8892782330513 0.007419445086270571
vn 0.45455440878868103 0.8839265704154968 0.10979132354259491
vn 0.4551185071468353 0.8832752108573914 0.11265882849693298
vn 0.45802223682403564 0.8889105319976807 0.007325922604650259
vn 0.44841399788856506 0.8787990212440491 0.1632090061903
vn 0.4517408609390259 0.8784552812576294 0.1557132601737976
vn 0.4337193965911865 0.8795971274375916 0.195438951253891
vn 0.45921069383621216 0.8820735216140747 0.10522297024726868
vn -0.8584740161895752 0.5128570199012756 0.0001241969148395583
vn 0.4617633819580078 0.8869767189025879 0.006836806423962116
vn -0.8584960699081421 0.5128201842308044 -0.00014496533549390733
vn 0.4422283172607422 0.896853506565094 0.009377838112413883
vn 0.44367942214012146 0.8961383700370789 0.009190159849822521
vn 0.4395512342453003 0.8878003358840942 0.13640069961547852
vn 0.4008108973503113 0.7988819479942322 0.4484843313694
vn 0.3823356628417969 0.7620578408241272 0.5225775837898254
vn 0.47827574610710144 0.7545514106750488 0.44933778047561646
vn 0.4561515748500824 0.719647228717804 0.5234822034835815
vn 0.5031869411468506 0.8117116093635559 0.2965254485607147
vn 0.4521948993206024 0.841271698474884 0.2962797284126282
vn 0.492641806602478 0.7947008609771729 0.35461902618408203
vn 0.44273364543914795 0.8236697316169739 0.3543373644351959
vn 0.4214892089366913 0.8400973081588745 0.3414429724216461
vn 0.40515533089637756 0.8075411915779114 0.4286331832408905
vn 0.5030520558357239 0.7936397194862366 0.34216174483299255
vn 0.48347997665405273 0.7627617716789246 0.42946669459342957
vn 0.5140561461448669 0.8292450904846191 0.21931439638137817
vn 0.46194595098495483 0.859412670135498 0.21912473440170288
vn 0.505549430847168 0.8155227303504944 0.28167784214019775
vn 0.45431455969810486 0.8452150821685791 0.2814422845840454
vn 0.4376688301563263 0.8723459839820862 0.21784956753253937
vn 0.4252955913543701 0.8476840257644653 0.3171048164367676
vn 0.5224488377571106 0.8242409229278564 0.21834416687488556
vn 0.5076144337654114 0.8008374571800232 0.31778448820114136
vn 0.5219286680221558 0.8419447541236877 0.13681921362876892
vn 0.4690079987049103 0.8725509643554688 0.13669726252555847
vn 0.5159562230110168 0.8323103189468384 0.2026047706604004
vn 0.46365052461624146 0.8625838160514832 0.20242829620838165
vn 0.4665035605430603 0.8839272856712341 0.032356128096580505
vn 0.46382051706314087 0.8788434267044067 0.11182483285665512
vn 0.5288944840431213 0.8480690121650696 0.03239613026380539
vn 0.5258451700210571 0.8431794047355652 0.1119614988565445
vn 0.5266802906990051 0.8496098518371582 0.02776637300848961
vn 0.47327014803886414 0.8804804086685181 0.027741173282265663
vn 0.5244444608688354 0.8460031151771545 0.09610771387815475
vn 0.47126469016075134 0.8767493963241577 0.09602123498916626
vn -0.8583655953407288 0.5130385756492615 9.22847175388597e-05
vn -0.8584492802619934 0.5128983855247498 0.00021771389583591372
vn -0.8584815263748169 0.5128445625305176 -0.00012339942622929811
vn -0.8587236404418945 0.512438178062439 -0.0009937939466908574
vn -0.8588732481002808 0.512187659740448 0.00081510009476915
vn -0.8583338260650635 0.5130917429924011 1.2560392406157916e-06
vn -0.8590391278266907 0.511905312538147 0.0022171197924762964
vn -0.8615996241569519 0.5075772404670715 0.003374801017343998
vn -0.8583330512046814 0.5130929946899414 6.046102498658001e-07
vn -0.8615438938140869 0.5076621174812317 0.004634237382560968
vn -0.8623018860816956 0.5063914060592651 -0.0017472007311880589
vn -0.8617638349533081 0.5072980523109436 -0.003414767561480403
f 81/1/81 82/2/82 43/3/43
f 82/4/82 83/5/83 43/6/43
f 83/7/83 45/8/45 43/9/43
f 84/10/84 81/11/81 43/12/43
f 85/13/85 45/14/45 83/15/83
f 81/16/81 84/17/84 86/18/86
f 86/19/86 85/20/85 83/21/83
f 84/22/84 85/23/85 86/24/86
f 87/25/87 85/26/85 84/27/84
f 88/28/88 85/29/85 87/30/87
f 89/31/89 87/32/87 84/33/84
f 90/34/90 88/35/88 87/36/87
f 91/37/91 89/38/89 84/39/84
f 92/40/92 88/41/88 90/42/90
f 92/43/92 91/44/91 84/45/84
f 91/46/91 92/47/92 90/48/90
