# Exported by Lightwave Blender addon
v 1013.0957641601562 -478.53729248046875 501.7039489746094
v 1013.095947265625 -478.537353515625 685.902587890625
v 1013.7713012695312 -476.8351745605469 501.7039489746094
v 1013.7725219726562 -476.8321838378906 685.902587890625
v 1012.3568725585938 -478.9468078613281 501.7039794921875
v 1013.073974609375 -478.5286560058594 501.7040100097656
v 1012.3571166992188 -478.94696044921875 685.902587890625
v 1013.074462890625 -478.52886962890625 685.902587890625
v 1008.6927490234375 -476.7898254394531 501.7039489746094
v 1008.69287109375 -476.7898254394531 685.902587890625
v 1010.2691040039062 -472.8180847167969 501.7039489746094
v 1010.2691040039062 -472.81805419921875 685.902587890625
v 1019.0462646484375 -476.3122253417969 501.7040710449219
v 1019.0462646484375 -476.3122253417969 685.9027099609375
v 1019.0465698242188 -476.3125915527344 685.902587890625
v 1019.0464477539062 -476.3125305175781 501.7040710449219
v 1017.4776611328125 -480.2760314941406 685.902587890625
v 1017.4771728515625 -480.27587890625 501.7040100097656
v 1016.7626342773438 -480.6882019042969 685.902587890625
v 1016.7623901367188 -480.6880798339844 501.7039794921875
v 1013.2327880859375 -479.28729248046875 685.902587890625
v 1013.2326049804688 -479.2872009277344 501.7039489746094
v 1008.8273315429688 -477.5460205078125 685.902587890625
v 1008.8270874023438 -477.5458984375 501.7039489746094
v 1014.4716796875 -474.9978942871094 501.7040710449219
v 1014.4716796875 -474.99786376953125 685.9026489257812
v 1014.6228637695312 -474.6162109375 501.7040710449219
v 1014.6228637695312 -474.6162109375 685.9027099609375
v 1058.376708984375 -493.8753356933594 496.6709289550781
v 1056.87548828125 -497.6325378417969 496.6712646484375
v 1058.376708984375 -493.8753356933594 690.93603515625
v 1056.9349365234375 -497.5059814453125 690.936279296875
v 1057.3564453125 -498.75323486328125 496.6712646484375
v 1057.417724609375 -498.62738037109375 690.936279296875
v 1063.216796875 -500.94146728515625 690.9358520507812
v 1063.182861328125 -501.0782775878906 496.67083740234375
v 1061.4798583984375 -495.4090270996094 683.5457153320312
v 1060.2822265625 -498.424560546875 683.8007202148438
v 1013.7420654296875 -476.76422119140625 683.5457153320312
v 1012.5783081054688 -479.6827392578125 683.7981567382812
v 1059.96435546875 -499.2253112792969 684.7308349609375
v 1012.2587890625 -480.48394775390625 684.729736328125
v 1012.2518310546875 -480.5018615722656 690.9309692382812
v 1059.9599609375 -499.2369384765625 690.9361572265625
v 1062.5677490234375 -493.41400146484375 637.6605224609375
v 1061.4327392578125 -496.5247497558594 637.7986450195312
v 1014.8295288085938 -474.7690734863281 637.6609497070312
v 1013.7276611328125 -477.7822570800781 637.7979736328125
v 1061.280029296875 -496.9038391113281 638.2260131835938
v 1013.5743408203125 -478.1621398925781 638.2257080078125
v 1013.4925537109375 -478.12689208984375 640.9180908203125
v 1061.2005615234375 -496.8629150390625 640.920654296875
v 1061.33984375 -496.4750671386719 641.3309326171875
v 1013.6322631835938 -477.74029541015625 641.3255615234375
v 1014.9225463867188 -474.50921630859375 641.3018188476562
v 1062.6590576171875 -493.153564453125 641.3307495117188
v 1062.53857421875 -493.402099609375 589.7496948242188
v 1061.1890869140625 -496.37286376953125 589.8873291015625
v 1014.7998046875 -474.7568359375 589.7501220703125
v 1013.484619140625 -477.6307373046875 589.8866577148438
v 1061.0390625 -496.7591552734375 590.3145141601562
v 1013.3334350585938 -478.0174560546875 590.314208984375
v 1013.460693359375 -478.1078186035156 593.0074462890625
v 1061.168701171875 -496.84375 593.0100708007812
v 1061.33984375 -496.4750671386719 593.4198608398438
v 1013.6322631835938 -477.74029541015625 593.4144897460938
v 1014.9225463867188 -474.50921630859375 593.3907470703125
v 1062.6590576171875 -493.153564453125 593.4197387695312
v 1062.533203125 -493.3995666503906 541.8385009765625
v 1061.1265869140625 -496.379150390625 541.9764404296875
v 1014.7942504882812 -474.7542419433594 541.8388671875
v 1013.4224243164062 -477.6370849609375 541.9757690429688
v 1060.9791259765625 -496.76251220703125 542.4030151367188
v 1013.2733764648438 -478.0207214355469 542.4027099609375
v 1013.4528198242188 -478.1082763671875 545.0968017578125
v 1061.1607666015625 -496.8442077636719 545.0994262695312
v 1061.33984375 -496.4750671386719 545.5087890625
v 1013.6322631835938 -477.74029541015625 545.50341796875
v 1014.9225463867188 -474.50921630859375 545.4796752929688
v 1062.6590576171875 -493.153564453125 545.5086669921875
v 970.3698120117188 -459.2348937988281 690.9360961914062
v 968.990966796875 -462.6778869628906 690.9362182617188
v 970.3698120117188 -459.2347412109375 496.6709899902344
v 968.9520263671875 -462.81268310546875 496.6712341308594
v 967.869140625 -463.1589660644531 690.9361572265625
v 967.8330688476562 -463.294921875 496.6712341308594
v 961.9625244140625 -460.95245361328125 496.670654296875
v 962.0474243164062 -460.8360900878906 690.9357299804688
v 967.164306640625 -457.9579162597656 503.9986877441406
v 966.0262451171875 -460.81591796875 503.9986877441406
v 1013.8443603515625 -476.50750732421875 503.9986877441406
v 1012.5821533203125 -479.6658935546875 503.9986877441406
v 965.6905517578125 -461.6611328125 503.13739013671875
v 1012.2544555664062 -480.4891052246094 503.13641357421875
v 1012.197021484375 -480.6548156738281 496.697021484375
v 965.566650390625 -461.9898986816406 496.6754455566406
v 968.2437744140625 -455.96014404296875 641.2730102539062
v 966.9826049804688 -459.1008605957031 641.3200073242188
v 966.842529296875 -459.4862365722656 640.9154052734375
v 966.926513671875 -459.515625 638.2254638671875
v 967.0803833007812 -459.1350402832031 637.7971801757812
v 968.1492919921875 -456.2194519042969 637.661376953125
v 968.2437744140625 -455.96014404296875 593.3619384765625
v 966.9826049804688 -459.1008605957031 593.4089965820312
v 966.8107299804688 -459.4671630859375 593.0048217773438
v 966.685546875 -459.3709411621094 590.3139038085938
v 966.8382568359375 -458.9839172363281 589.8859252929688
v 968.1187744140625 -456.2067565917969 589.7505493164062
v 968.2437744140625 -455.96014404296875 545.4508666992188
v 966.9826049804688 -459.1008605957031 545.4979248046875
v 966.8028564453125 -459.46759033203125 545.09423828125
v 966.6256103515625 -459.374267578125 542.4024658203125
v 966.7760620117188 -458.9903259277344 541.9750366210938
v 968.1130981445312 -456.2041015625 541.83935546875
v 1060.482177734375 -498.96429443359375 496.67095947265625
v 1058.98095703125 -502.7214660644531 496.6712951660156
v 1060.482177734375 -498.96429443359375 690.93603515625
v 1059.0404052734375 -502.59490966796875 690.936279296875
v 1059.4619140625 -503.8421936035156 496.6712951660156
v 1059.523193359375 -503.71630859375 690.936279296875
v 1065.3223876953125 -506.0304260253906 690.9358520507812
v 1065.2884521484375 -506.16717529296875 496.6708679199219
v 1062.1890869140625 -500.4223327636719 686.98193359375
v 1060.991455078125 -503.4378662109375 687.2368774414062
v 959.5101318359375 -459.97283935546875 686.98193359375
v 958.34619140625 -462.8913879394531 687.2343139648438
v 1060.6734619140625 -504.23870849609375 688.1670532226562
v 958.0267944335938 -463.69256591796875 688.1659545898438
v 958.0196533203125 -463.7105407714844 694.3671264648438
v 1060.669189453125 -504.25030517578125 694.3723754882812
v 965.4664916992188 -461.5421447753906 690.9360961914062
v 964.0875244140625 -464.9851989746094 690.9362182617188
v 965.4663696289062 -461.5420837402344 496.6709899902344
v 964.048583984375 -465.1199951171875 496.6712646484375
v 962.9657592773438 -465.46636962890625 690.9361572265625
v 962.9296875 -465.60223388671875 496.6712341308594
v 957.0592041015625 -463.25982666015625 496.670654296875
v 957.1441040039062 -463.1434020996094 690.9357299804688
v 1060.1959228515625 -498.611083984375 503.99871826171875
v 1061.5821533203125 -495.15234375 503.99871826171875
v 1059.876220703125 -499.4121398925781 503.1361083984375
v 1059.8848876953125 -499.41497802734375 496.71868896484375
v 965.93212890625 -461.0362548828125 683.7954711914062
v 967.0620727539062 -458.2146911621094 683.5457153320312
v 965.6112060546875 -461.8377380371094 684.7286987304688
v 965.601318359375 -461.8620910644531 690.9257202148438
v 1017.2512817382812 -477.9035339355469 686.9850463867188
v 1017.2512817382812 -477.9035339355469 500.5483093261719
v 1061.5821533203125 -495.15234375 686.9850463867188
v 1061.5821533203125 -495.15234375 500.54833984375
v 1010.1466064453125 -475.0743713378906 501.4109191894531
v 1010.1466064453125 -475.0743713378906 686.9850463867188
v 967.164306640625 -457.95806884765625 686.9850463867188
v 967.164306640625 -457.9579162597656 501.4109191894531
v 967.164306640625 -457.9579162597656 500.5483093261719
v 1010.1466064453125 -475.0743713378906 500.5483093261719
vt 1.0458984375 0.738037109375
vt -0.017852783203125 0.738037109375
vt 1.0458984375 0.4365234375
vt -0.017852783203125 0.738037109375
vt -0.017852783203125 0.4365234375
vt 1.0458984375 0.4365234375
vt 0.0626220703125 0.380859375
vt 1.1220703125 0.380859375
vt 1.1220703125 0.6826171875
vt 0.0626220703125 0.6826171875
vt 0.0626220703125 0.380859375
vt 1.1220703125 0.6826171875
vt 0.0626220703125 0.6826171875
vt 0.057708740234375 0.6826171875
vt 0.0626220703125 0.380859375
vt 0.057708740234375 0.6826171875
vt 0.057708740234375 0.380859375
vt 0.0626220703125 0.380859375
vn 0.8252472877502441 -0.3898067772388458 0.408677875995636
vn 0.7711739540100098 -0.3642651438713074 0.5221126675605774
vn 0.8258680105209351 -0.3884533941745758 0.4087127447128296
vn 0.7717465758323669 -0.3629942536354065 0.5221516489982605
vn 0.824947714805603 -0.39028340578079224 0.4088277220726013
vn 0.8252438306808472 -0.38980650901794434 0.40868499875068665
vn 0.7708581686019897 -0.36469361186027527 0.5222797393798828
vn 0.771169126033783 -0.3642641305923462 0.522120475769043
vn 0.8245577216148376 -0.38975271582603455 0.41011878848075867
vn 0.7701848149299622 -0.36405161023139954 0.5237191319465637
vn 0.8260088562965393 -0.38658207654953003 0.41019952297210693
vn 0.7715208530426025 -0.36108100414276123 0.5238091349601746
vn 0.8273627758026123 -0.3867174983024597 0.407333105802536
vn 0.7734730243682861 -0.3615289032459259 0.5206115245819092
vn 0.7734730243682861 -0.36152905225753784 0.5206112861633301
vn 0.8273628354072571 -0.38671767711639404 0.40733304619789124
vn 0.7721496820449829 -0.3644748032093048 0.5205219388008118
vn 0.825926661491394 -0.38985902070999146 0.40725308656692505
vn 0.771842360496521 -0.36489883065223694 0.5206806659698486
vn 0.8256343007087708 -0.3903296887874603 0.4073950946331024
vn 0.7710558176040649 -0.3647308349609375 0.5219621658325195
vn 0.825086236000061 -0.39028874039649963 0.4085429310798645
vn 0.7700645923614502 -0.3645235300064087 0.5235676169395447
vn 0.824394166469574 -0.3902413547039032 0.4099828600883484
vn 0.8265285491943359 -0.3869988024234772 0.4087573289871216
vn 0.7723521590232849 -0.36163219809532166 0.5222012400627136
vn 0.8266669511795044 -0.3866949677467346 0.40876486897468567
vn 0.772479772567749 -0.361347496509552 0.5222097635269165
vn 0.8339219093322754 -0.38913694024086 0.39133965969085693
vn 0.8325968384742737 -0.39203035831451416 0.3912730813026428
vn 0.779934823513031 -0.3639446794986725 0.5091618895530701
vn 0.7787560820579529 -0.36656543612480164 0.5090860724449158
vn 0.8324248194694519 -0.39265337586402893 0.39101430773735046
vn 0.7786601781845093 -0.36717870831489563 0.508790910243988
vn 0.7798473834991455 -0.3674301207065582 0.5067870616912842
vn 0.8332300186157227 -0.3927014470100403 0.38924726843833923
vn 0.7826600074768066 -0.36527949571609497 0.5039981603622437
vn 0.7816060781478882 -0.36742261052131653 0.5040760040283203
vn 0.7724745869636536 -0.3632957935333252 0.520863950252533
vn 0.7714135050773621 -0.3654371500015259 0.5209385752677917
vn 0.7810752391815186 -0.36787325143814087 0.5045700669288635
vn 0.770857572555542 -0.3658992052078247 0.5214369297027588
vn 0.7689518928527832 -0.3650107681751251 0.5248621702194214
vn 0.779267430305481 -0.36703187227249146 0.5079663991928101
vn 0.7966254949569702 -0.3699210286140442 0.47806516289711
vn 0.7955856919288635 -0.37216487526893616 0.4780552089214325
vn 0.7872110605239868 -0.3682819902896881 0.49463847279548645
vn 0.7861648201942444 -0.3705291152000427 0.4946242868900299
vn 0.7953377366065979 -0.37238651514053345 0.4782952666282654
vn 0.785904586315155 -0.37075701355934143 0.4948669970035553
vn 0.7850757837295532 -0.370368629693985 0.4964706003665924
vn 0.7945560812950134 -0.3720177412033081 0.4798785448074341
vn 0.7945631146430969 -0.3716818690299988 0.4801269769668579
vn 0.7850813269615173 -0.3700207769870758 0.4967212975025177
vn 0.7861961722373962 -0.36757221817970276 0.49677589535713196
vn 0.7956590056419373 -0.3692454993724823 0.4801921844482422
vn 0.8101218938827515 -0.3761894702911377 0.44964873790740967
vn 0.8090373873710632 -0.37842851877212524 0.4497227668762207
vn 0.801514208316803 -0.37497478723526 0.46579936146736145
vn 0.8004178404808044 -0.37721753120422363 0.46587368845939636
vn 0.808789074420929 -0.37866029143333435 0.4499739408493042
vn 0.800156831741333 -0.3774561285972595 0.4661288559436798
vn 0.7993776202201843 -0.3771125078201294 0.4677407741546631
vn 0.8080551624298096 -0.3783349096775055 0.4515633285045624
vn 0.8080723285675049 -0.37800121307373047 0.45181208848953247
vn 0.7993938326835632 -0.37676647305488586 0.4679920971393585
vn 0.8005328178405762 -0.3742750585079193 0.46804434061050415
vn 0.8091904520988464 -0.3755251169204712 0.4518755078315735
vn 0.8231971859931946 -0.38226112723350525 0.4197891652584076
vn 0.8220798373222351 -0.38455668091773987 0.4198819696903229
vn 0.8154211044311523 -0.3814809024333954 0.43538564443588257
vn 0.8142894506454468 -0.3837835490703583 0.4354799687862396
vn 0.8218348026275635 -0.38479241728782654 0.42014557123184204
vn 0.8140311241149902 -0.3840264081954956 0.435748815536499
vn 0.8132894039154053 -0.3836788237094879 0.43743669986724854
vn 0.8211386799812317 -0.384463906288147 0.4218043386936188
vn 0.8211641311645508 -0.38412535190582275 0.4220629930496216
vn 0.8133141398429871 -0.38332733511924744 0.4376988410949707
vn 0.814476728439331 -0.3807942867279053 0.43774816393852234
vn 0.8223041892051697 -0.3816108703613281 0.4221241772174835
vn 0.7600739598274231 -0.35971078276634216 0.5411983728408813
vn 0.7588774561882019 -0.36235201358795166 0.541115403175354
vn 0.8203477263450623 -0.3882356882095337 0.41988417506217957
vn 0.8189882040023804 -0.3911835849285126 0.41980189085006714
vn 0.7584007978439331 -0.3629211187362671 0.541402280330658
vn 0.8185456991195679 -0.3918321132659912 0.4200601577758789
vn 0.8175358772277832 -0.3917462229728699 0.422101765871048
vn 0.7569553256034851 -0.3625936806201935 0.5436400175094604
vn 0.8176522254943848 -0.38716307282447815 0.4260864853858948
vn 0.8165658116340637 -0.38951998949050903 0.42602166533470154
vn 0.8253406882286072 -0.3879106640815735 0.4102904200553894
vn 0.8241869211196899 -0.390421986579895 0.41022756695747375
vn 0.8164967894554138 -0.3903370797634125 0.42540550231933594
vn 0.8241226077079773 -0.3911881446838379 0.4096263647079468
vn 0.8258281350135803 -0.39215514063835144 0.4052436053752899
vn 0.8182650804519653 -0.3915112316608429 0.42090535163879395
vn 0.7760549783706665 -0.36545562744140625 0.5139853358268738
vn 0.7749212384223938 -0.3679145872592926 0.5139414668083191
vn 0.7749173641204834 -0.3682749271392822 0.5136891007423401
vn 0.7757953405380249 -0.36868375539779663 0.5120682120323181
vn 0.776068389415741 -0.3684493899345398 0.5118232369422913
vn 0.7771196961402893 -0.36620086431503296 0.5118417143821716
vn 0.7912341952323914 -0.37260374426841736 0.48488643765449524
vn 0.7900745868682861 -0.3751090466976166 0.48484572768211365
vn 0.790059506893158 -0.3754678964614868 0.48459234833717346
vn 0.790885865688324 -0.3758305609226227 0.48296046257019043
vn 0.791160523891449 -0.37558501958847046 0.48270168900489807
vn 0.7922676801681519 -0.3733403980731964 0.4826270341873169
vn 0.8060551881790161 -0.3795831501483917 0.45408347249031067
vn 0.804870069026947 -0.3821335732936859 0.454046368598938
vn 0.8048461675643921 -0.3824985921382904 0.45378124713897705
vn 0.8056359887123108 -0.38286635279655457 0.4520663917064667
vn 0.8059083819389343 -0.38261619210243225 0.45179256796836853
vn 0.8070537447929382 -0.38030806183815 0.4516966938972473
vn 0.8331241011619568 -0.3919907212257385 0.3901890516281128
vn 0.831795334815979 -0.39487147331237793 0.3901192545890808
vn 0.7794754505157471 -0.3667486608028412 0.5078517198562622
vn 0.7782936692237854 -0.3693593144416809 0.5077722668647766
vn 0.8316225409507751 -0.3954899311065674 0.389861136674881
vn 0.7781965136528015 -0.36996856331825256 0.5074775218963623
vn 0.7793804407119751 -0.37020736932754517 0.50548255443573
vn 0.8324276804924011 -0.39552441239356995 0.3881038725376129
vn 0.7808077931404114 -0.3678569793701172 0.5049956440925598
vn 0.7797515988349915 -0.3699902296066284 0.5050691366195679
vn 0.7575706839561462 -0.3631665110588074 0.5423990488052368
vn 0.7564612627029419 -0.36537882685661316 0.5424617528915405
vn 0.7792208790779114 -0.3704375922679901 0.505560040473938
vn 0.7558767795562744 -0.3658503592014313 0.5429583787918091
vn 0.7538614273071289 -0.36489176750183105 0.546394407749176
vn 0.77741938829422 -0.3695911765098572 0.5089414715766907
vn 0.7579482793807983 -0.3623378574848175 0.5424256920814514
vn 0.7567422389984131 -0.3649813234806061 0.5423372983932495
vn 0.8183597922325134 -0.3912176489830017 0.42099401354789734
vn 0.8169878125190735 -0.39416825771331787 0.42090654373168945
vn 0.7562611699104309 -0.36555206775665283 0.5426238179206848
vn 0.8165403008460999 -0.394819051027298 0.4211648106575012
vn 0.8155147433280945 -0.39474591612815857 0.42321544885635376
vn 0.7547997832298279 -0.365232914686203 0.5448690056800842
vn 0.8312659859657288 -0.39094510674476624 0.3951694071292877
vn 0.83247971534729 -0.3882924020290375 0.39522960782051086
vn 0.831206202507019 -0.391663134098053 0.39458367228507996
vn 0.8328525424003601 -0.3924379348754883 0.39031919836997986
vn 0.7605162858963013 -0.36299192905426025 0.5383790135383606
vn 0.761583149433136 -0.3608543872833252 0.5383076667785645
vn 0.7599346041679382 -0.36346563696861267 0.538880467414856
vn 0.757927656173706 -0.36252856254577637 0.5423270463943481
vn -0.3626110851764679 -0.9319405555725098 0.0
vn -0.3626110851764679 -0.9319405555725098 0.0
vn -0.3626110851764679 -0.9319406151771545 0.0
vn -0.3626111149787903 -0.931940495967865 0.0
vn -0.36996522545814514 -0.9290456175804138 -3.2117489467964333e-07
vn -0.36996257305145264 -0.929046630859375 0.0
vn -0.36996302008628845 -0.9290465116500854 -1.182992619419565e-07
vn -0.36996543407440186 -0.929045557975769 -3.80332750182788e-07
vn -0.36996546387672424 -0.929045557975769 0.0
vn -0.36996546387672424 -0.9290454983711243 0.0
f 147/1/147 148/2/148 149/3/149
f 148/4/148 150/5/150 149/6/149
f 151/7/151 152/8/152 153/9/153
f 154/10/154 151/11/151 153/12/153
f 154/13/154 155/14/155 151/15/151
f 155/16/155 156/17/156 151/18/151
