# Exported by Lightwave Blender addon
v 0.20103351771831512 0.21737170219421387 -0.0463298037648201
v 0.14914195239543915 0.2148224115371704 -0.0463298037648201
v 0.09775013476610184 0.20719915628433228 -0.0463298037648201
v 0.047352999448776245 0.19457536935806274 -0.0463298037648201
v -0.0015641450881958008 0.17707252502441406 -0.0463298037648201
v -0.04853011667728424 0.1548592448234558 -0.0463298037648201
v -0.09309269487857819 0.12814950942993164 -0.0463298000395298
v -0.13482262194156647 0.09720048308372498 -0.0463298000395298
v -0.17331810295581818 0.062310218811035156 -0.0463298000395298
v -0.208208367228508 0.023814737796783447 -0.0463298000395298
v -0.23915742337703705 -0.017915189266204834 -0.0463298000395298
v -0.2658671736717224 -0.06247776746749878 -0.0463298000395298
v -0.28808045387268066 -0.1094437837600708 -0.0463298000395298
v -0.30558329820632935 -0.15836091339588165 -0.0463298000395298
v -0.31820714473724365 -0.20875808596611023 -0.0463297963142395
v -0.325830340385437 -0.26014989614486694 -0.0463297963142395
v 0.7304466962814331 -0.31204164028167725 -0.0463297963142395
v 0.7278974652290344 -0.2601501941680908 -0.0463297963142395
v 0.7202742695808411 -0.20875847339630127 -0.0463297963142395
v 0.7076504826545715 -0.15836143493652344 -0.0463298000395298
v 0.6901477575302124 -0.10944439470767975 -0.0463298000395298
v 0.6679345965385437 -0.06247846782207489 -0.0463298000395298
v 0.6412249803543091 -0.017915964126586914 -0.0463298000395298
v 0.6102760434150696 0.023813962936401367 -0.0463298000395298
v 0.5753859281539917 0.062309443950653076 -0.0463298000395298
v 0.5368905663490295 0.0971997082233429 -0.0463298000395298
v 0.4951608180999756 0.12814876437187195 -0.0463298000395298
v 0.4505983889102936 0.15485861897468567 -0.0463298037648201
v 0.4036325514316559 0.1770719587802887 -0.0463298037648201
v 0.35471558570861816 0.19457489252090454 -0.0463298037648201
v 0.3043185770511627 0.2071988582611084 -0.0463298037648201
v 0.25292688608169556 0.21482223272323608 -0.0463298037648201
v 0.20103351771831512 0.21737170219421387 -0.14824068546295166
v 0.14914195239543915 0.2148224115371704 -0.14824068546295166
v 0.09775013476610184 0.20719915628433228 -0.14824068546295166
v 0.047352999448776245 0.19457536935806274 -0.14824068546295166
v -0.0015641450881958008 0.17707252502441406 -0.14824068546295166
v -0.04853011667728424 0.1548592448234558 -0.14824068546295166
v -0.09309269487857819 0.12814950942993164 -0.14824068546295166
v -0.13482262194156647 0.09720048308372498 -0.14824068546295166
v -0.17331810295581818 0.062310218811035156 -0.14824068546295166
v -0.208208367228508 0.023814737796783447 -0.14824068546295166
v -0.23915742337703705 -0.017915189266204834 -0.14824068546295166
v -0.2658671736717224 -0.06247776746749878 -0.14824068546295166
v -0.28808045387268066 -0.1094437837600708 -0.14824068546295166
v -0.30558329820632935 -0.15836091339588165 -0.14824068546295166
v -0.31820714473724365 -0.20875807106494904 -0.14824068546295166
v -0.325830340385437 -0.26014989614486694 -0.14824068546295166
v 0.7304466962814331 -0.31204164028167725 -0.14824068546295166
v 0.7278974652290344 -0.2601501941680908 -0.14824068546295166
v 0.7202742695808411 -0.20875847339630127 -0.14824068546295166
v 0.7076504826545715 -0.15836143493652344 -0.14824068546295166
v 0.6901477575302124 -0.10944439470767975 -0.14824068546295166
v 0.6679345965385437 -0.06247846782207489 -0.14824068546295166
v 0.6412249803543091 -0.017915964126586914 -0.14824068546295166
v 0.6102760434150696 0.023813962936401367 -0.14824068546295166
v 0.5753859281539917 0.062309443950653076 -0.14824068546295166
v 0.5368905663490295 0.0971997082233429 -0.14824068546295166
v 0.4951608180999756 0.12814876437187195 -0.14824068546295166
v 0.4505983889102936 0.15485861897468567 -0.14824068546295166
v 0.4036325514316559 0.1770719587802887 -0.14824068546295166
v 0.35471558570861816 0.19457489252090454 -0.14824068546295166
v 0.3043185770511627 0.2071988582611084 -0.14824068546295166
v 0.25292688608169556 0.21482223272323608 -0.14824068546295166
v -0.32837963104248047 -1.4177873134613037 -0.14824071526527405
v -0.32837963104248047 -0.31204164028167725 -0.046329718083143234
v 0.7304466366767883 -1.417786955833435 -0.14824071526527405
v 1.3808945417404175 -1.417786955833435 -0.14824071526527405
v 1.3808945417404175 1.946489691734314 -0.14824043214321136
v -1.735050916671753 -1.4177875518798828 -0.14824071526527405
v -0.32837963104248047 -0.31204158067703247 -0.14824062585830688
v -1.735050916671753 -1.4177875518798828 -0.0463298037648201
v -1.735050916671753 0.43743568658828735 -0.04632966220378876
v 1.3808945417404175 0.43743568658828735 -0.04632966220378876
v 1.3808945417404175 -1.417786955833435 -0.0463298037648201
v 0.7304466366767883 -1.417786955833435 -0.0463298037648201
v -0.32837963104248047 -1.4177873134613037 -0.0463298037648201
v -1.735050916671753 0.4374355673789978 1.7853254079818726
v 1.3237512111663818 0.4374355673789978 1.7853254079818726
v -1.735050916671753 1.946489691734314 -0.14824043214321136
v 0.14914195239543915 0.2148224115371704 -0.0463298037648201
v 0.20103351771831512 0.21737170219421387 -0.0463298037648201
v 0.09775013476610184 0.20719915628433228 -0.0463298037648201
v 0.047352999448776245 0.19457536935806274 -0.0463298037648201
v -0.0015641450881958008 0.17707252502441406 -0.0463298037648201
v -0.04853011667728424 0.1548592448234558 -0.0463298037648201
v -0.09309269487857819 0.12814950942993164 -0.0463298000395298
v -0.13482262194156647 0.09720048308372498 -0.0463298000395298
v -0.17331810295581818 0.062310218811035156 -0.0463298000395298
v -0.208208367228508 0.023814737796783447 -0.0463298000395298
v -0.23915742337703705 -0.017915189266204834 -0.0463298000395298
v -0.2658671736717224 -0.06247776746749878 -0.0463298000395298
v -0.28808045387268066 -0.1094437837600708 -0.0463298000395298
v -0.30558329820632935 -0.15836091339588165 -0.0463298000395298
v -0.31820714473724365 -0.20875808596611023 -0.0463297963142395
v -0.325830340385437 -0.26014989614486694 -0.0463297963142395
v 0.7278974652290344 -0.2601501941680908 -0.0463297963142395
v 0.7304466962814331 -0.31204164028167725 -0.0463297963142395
v 0.7202742695808411 -0.20875847339630127 -0.0463297963142395
v 0.7076504826545715 -0.15836143493652344 -0.0463298000395298
v 0.6901477575302124 -0.10944439470767975 -0.0463298000395298
v 0.6679345965385437 -0.06247846782207489 -0.0463298000395298
v 0.6412249803543091 -0.017915964126586914 -0.0463298000395298
v 0.6102760434150696 0.023813962936401367 -0.0463298000395298
v 0.5753859281539917 0.062309443950653076 -0.0463298000395298
v 0.5368905663490295 0.0971997082233429 -0.0463298000395298
v 0.4951608180999756 0.12814876437187195 -0.0463298000395298
v 0.4505983889102936 0.15485861897468567 -0.0463298037648201
v 0.4036325514316559 0.1770719587802887 -0.0463298037648201
v 0.35471558570861816 0.19457489252090454 -0.0463298037648201
v 0.3043185770511627 0.2071988582611084 -0.0463298037648201
v 0.25292688608169556 0.21482223272323608 -0.0463298037648201
v 0.14914195239543915 0.2148224115371704 -0.14824068546295166
v 0.20103351771831512 0.21737170219421387 -0.14824068546295166
v 0.09775013476610184 0.20719915628433228 -0.14824068546295166
v 0.047352999448776245 0.19457536935806274 -0.14824068546295166
v -0.0015641450881958008 0.17707252502441406 -0.14824068546295166
v -0.04853011667728424 0.1548592448234558 -0.14824068546295166
v -0.09309269487857819 0.12814950942993164 -0.14824068546295166
v -0.13482262194156647 0.09720048308372498 -0.14824068546295166
v -0.17331810295581818 0.062310218811035156 -0.14824068546295166
v -0.208208367228508 0.023814737796783447 -0.14824068546295166
v -0.23915742337703705 -0.017915189266204834 -0.14824068546295166
v -0.2658671736717224 -0.06247776746749878 -0.14824068546295166
v -0.28808045387268066 -0.1094437837600708 -0.14824068546295166
v -0.30558329820632935 -0.15836091339588165 -0.14824068546295166
v -0.31820714473724365 -0.20875807106494904 -0.14824068546295166
v -0.325830340385437 -0.26014989614486694 -0.14824068546295166
v 0.7278974652290344 -0.2601501941680908 -0.14824068546295166
v 0.7304466962814331 -0.31204164028167725 -0.14824068546295166
v 0.7202742695808411 -0.20875847339630127 -0.14824068546295166
v 0.7076504826545715 -0.15836143493652344 -0.14824068546295166
v 0.6901477575302124 -0.10944439470767975 -0.14824068546295166
v 0.6679345965385437 -0.06247846782207489 -0.14824068546295166
v 0.6412249803543091 -0.017915964126586914 -0.14824068546295166
v 0.6102760434150696 0.023813962936401367 -0.14824068546295166
v 0.5753859281539917 0.062309443950653076 -0.14824068546295166
v 0.5368905663490295 0.0971997082233429 -0.14824068546295166
v 0.4951608180999756 0.12814876437187195 -0.14824068546295166
v 0.4505983889102936 0.15485861897468567 -0.14824068546295166
v 0.4036325514316559 0.1770719587802887 -0.14824068546295166
v 0.35471558570861816 0.19457489252090454 -0.14824068546295166
v 0.3043185770511627 0.2071988582611084 -0.14824068546295166
v 0.25292688608169556 0.21482223272323608 -0.14824068546295166
v -0.32837963104248047 -1.4177873134613037 -0.14824071526527405
v -0.32837963104248047 -0.31204158067703247 -0.14824062585830688
v 1.3808945417404175 0.43743568658828735 -0.04632966220378876
v -1.735050916671753 0.43743568658828735 -0.04632966220378876
v -0.32837963104248047 -1.4177873134613037 -0.0463298037648201
v -0.32837963104248047 -0.31204164028167725 -0.046329718083143234
v 0.7304466366767883 -1.417786955833435 -0.14824071526527405
v 0.7304466366767883 -1.417786955833435 -0.0463298037648201
vt 2.8030314445495605 4.90070915222168
vt 3.1275086402893066 4.884768486022949
vt 10.180441856384277 6.2767205238342285
vt -9.302878379821777 -5.323582649230957
vt -0.5072728991508484 1.5904051065444946
vt -9.302878379821777 6.2767205238342285
vt 3.1275086402893066 4.884768486022949
vt 3.448849678039551 4.837099075317383
vt 10.180441856384277 6.2767205238342285
vt 3.448849678039551 4.837099075317383
vt 3.763972043991089 4.7581658363342285
vt 10.180441856384277 6.2767205238342285
vt -9.302878379821777 6.2767205238342285
vt 1.8420995473861694 4.758169174194336
vt 2.157221794128418 4.837100505828857
vt -9.302878379821777 6.2767205238342285
vt 1.536231517791748 4.648730754852295
vt 1.8420995473861694 4.758169174194336
vt 3.763972043991089 4.7581658363342285
vt 4.06983757019043 4.64872407913208
vt 10.180441856384277 6.2767205238342285
vt 4.06983757019043 4.64872407913208
vt 4.363504409790039 4.509829044342041
vt 10.180441856384277 6.2767205238342285
vt -9.302878379821777 6.2767205238342285
vt 1.2425651550292969 4.509832859039307
vt 1.536231517791748 4.648730754852295
vt -9.302878379821777 6.2767205238342285
vt 0.9639240503311157 4.342822551727295
vt 1.2425651550292969 4.509832859039307
vt 4.363504409790039 4.509829044342041
vt 4.642144203186035 4.3428192138671875
vt 10.180441856384277 6.2767205238342285
vt 4.642144203186035 4.3428192138671875
vt 4.903071880340576 4.149301052093506
vt 10.180441856384277 6.2767205238342285
vt -9.302878379821777 6.2767205238342285
vt 0.7029961347579956 4.149304389953613
vt 0.9639240503311157 4.342822551727295
vt -9.302878379821777 6.2767205238342285
vt 0.4622924029827118 3.931143045425415
vt 0.7029961347579956 4.149304389953613
vt 4.903071880340576 4.149301052093506
vt 5.143773555755615 3.931138753890991
vt 10.180441856384277 6.2767205238342285
vt 5.143773555755615 3.931138753890991
vt 5.36193323135376 3.6904349327087402
vt 10.180441856384277 6.2767205238342285
vt -9.302878379821777 6.2767205238342285
vt 0.24413162469863892 3.690438747406006
vt 0.4622924029827118 3.931143045425415
vt -9.302878379821777 6.2767205238342285
vt 0.05061379075050354 3.4295148849487305
vt 0.24413162469863892 3.690438747406006
vt 5.36193323135376 3.6904349327087402
vt 5.555450916290283 3.429506301879883
vt 10.180441856384277 6.2767205238342285
vt 5.555450916290283 3.429506301879883
vt 5.722460746765137 3.1508662700653076
vt 10.180441856384277 6.2767205238342285
vt -9.302878379821777 6.2767205238342285
vt -0.11639612913131714 3.1508727073669434
vt 0.05061379075050354 3.4295148849487305
vt -9.302878379821777 6.2767205238342285
vt -0.25529128313064575 2.8572020530700684
vt -0.11639612913131714 3.1508727073669434
vt 5.722460746765137 3.1508662700653076
vt 5.861354351043701 2.8572001457214355
vt 10.180441856384277 6.2767205238342285
vt 5.861354351043701 2.8572001457214355
vt 5.97079610824585 2.5513312816619873
vt 10.180441856384277 6.2767205238342285
vt -9.302878379821777 6.2767205238342285
vt -0.3647322654724121 2.551337718963623
vt -0.25529128313064575 2.8572020530700684
vt -9.302878379821777 6.2767205238342285
vt -0.44366681575775146 2.236212968826294
vt -0.3647322654724121 2.551337718963623
vt 5.97079610824585 2.5513312816619873
vt 6.049729347229004 2.236210823059082
vt 10.180441856384277 6.2767205238342285
vt 6.049729347229004 2.236210823059082
vt 6.0973968505859375 1.9148722887039185
vt 10.180441856384277 6.2767205238342285
vt -9.302878379821777 6.2767205238342285
vt -0.4913319945335388 1.9148722887039185
vt -0.44366681575775146 2.236212968826294
vt -9.302878379821777 6.2767205238342285
vt -0.5072728991508484 1.5904051065444946
vt -0.4913319945335388 1.9148722887039185
vt 6.0973968505859375 1.9148722887039185
vt 6.113335132598877 1.5904051065444946
vt 10.180441856384277 6.2767205238342285
vt 10.180441856384277 -5.323578834533691
vt 10.180441856384277 6.2767205238342285
vt 6.113335132598877 1.5904051065444946
vt -9.302878379821777 6.2767205238342285
vt 2.157221794128418 4.837100505828857
vt 2.4785642623901367 4.884768486022949
vt 10.180441856384277 -5.323578834533691
vt 6.113335132598877 1.5904051065444946
vt 6.113335132598877 -5.323578834533691
vt 2.4785642623901367 4.884768486022949
vt 2.8030314445495605 4.90070915222168
vt 10.180441856384277 6.2767205238342285
vt -9.302878379821777 -5.323582649230957
vt -0.5072728991508484 -5.323581695556641
vt -0.5072728991508484 1.5904051065444946
vt -9.302878379821777 6.2767205238342285
vt 2.4785642623901367 4.884768486022949
vt 10.180441856384277 6.2767205238342285
vn 3.800858650038208e-08 -8.470531156490324e-07 1.0
vn 5.135779357345882e-09 -6.164735850688885e-07 1.0
vn 4.29206110652558e-08 -2.731803760980256e-07 1.0
vn 5.2338769762627635e-08 -1.9876536327956273e-07 1.0
vn 5.833196681237496e-08 -1.5533440489434724e-07 1.0
vn 6.674863328726133e-08 -1.0258489879788613e-07 1.0
vn 7.955745928711622e-08 -2.3297891615925437e-08 1.0
vn 6.776828342935914e-08 -8.638440363029076e-08 0.9999999403953552
vn 7.066385165899192e-08 -7.324933193331162e-08 1.0
vn 7.347428265802591e-08 -6.201831581620354e-08 1.0
vn 7.629912346374113e-08 -5.204861963648e-08 1.0
vn 7.922369604784762e-08 -4.289057287110154e-08 0.9999999403953552
vn 8.233162418491702e-08 -3.420189997882517e-08 1.0
vn 1.0052753651734747e-07 9.844187687235717e-09 1.0
vn 1.0003361694543855e-07 1.179454400812574e-08 1.0
vn 5.368335109778855e-07 8.922294227886596e-07 1.0
vn -1.1695757251573013e-07 -4.8738016289462394e-08 1.0
vn -1.901783406310642e-07 -1.4226994693444794e-08 1.0
vn -1.9138435902732454e-07 -1.1881962080906305e-08 1.0
vn -1.9702424935985619e-07 -8.71157546100676e-09 1.0
vn -1.5122111562959617e-07 -6.103759631059802e-08 1.0
vn -1.4098883127644513e-07 -7.464554130365286e-08 0.9999999403953552
vn -1.319345983574749e-07 -8.838825493739932e-08 1.0
vn -1.2367490853648633e-07 -1.0282237639103187e-07 1.0
vn -1.1589513349008485e-07 -1.1857663650971517e-07 1.0
vn -1.0830245855686371e-07 -1.3645836816067458e-07 1.0
vn -1.2209906685711758e-07 -9.599006745020233e-08 1.0
vn -1.0205189227008304e-07 -1.6499053856477985e-07 1.0
vn -8.511776883324274e-08 -2.2421967571517598e-07 1.0
vn -7.30833420448107e-08 -2.7408475489210105e-07 1.0
vn -5.6257089653399817e-08 -3.5179425594833447e-07 1.0
vn -2.8059387702228378e-08 -4.937300559504365e-07 1.0
vn 0.6071325540542603 0.656474769115448 -0.44769519567489624
vn 0.49612852931022644 0.7146180272102356 -0.4931304156780243
vn 0.3582204580307007 0.7593132853507996 -0.5432508587837219
vn 0.1900559663772583 0.7809475660324097 -0.5949787497520447
vn -0.006773003842681646 0.7667529582977295 -0.6419063806533813
vn -0.22079257667064667 0.7045474648475647 -0.6744356751441956
vn -0.4291132092475891 0.5907084941864014 -0.6833193302154541
vn -0.6053691506385803 0.43644142150878906 -0.665617823600769
vn -0.7330769300460815 0.26355114579200745 -0.6270079016685486
vn -0.8111066818237305 0.09277385473251343 -0.5774936676025391
vn -0.8482438921928406 -0.06354161351919174 -0.5257802605628967
vn -0.855572521686554 -0.20105627179145813 -0.4770452082157135
vn -0.8424140214920044 -0.3200390040874481 -0.433490127325058
vn -0.8154409527778625 -0.42258191108703613 -0.3955763280391693
vn -0.7791078686714172 -0.5111294984817505 -0.3629569113254547
vn -0.7363163828849792 -0.5878906846046448 -0.3349965512752533
vn 0.9039949774742126 -0.38618022203445435 -0.1834614872932434
vn 0.9248124957084656 -0.33052754402160645 -0.1883436143398285
vn 0.9422393441200256 -0.27309104800224304 -0.19392363727092743
vn 0.9560899138450623 -0.21395841240882874 -0.20028451085090637
vn 0.9661564230918884 -0.15321415662765503 -0.20752611756324768
vn 0.9722004532814026 -0.09093943983316422 -0.21576912701129913
vn 0.9739419221878052 -0.027212146669626236 -0.22515937685966492
vn 0.9710446000099182 0.03789173811674118 -0.23587411642074585
vn 0.9630962610244751 0.10429520159959793 -0.248129203915596
vn 0.9495803117752075 0.17191386222839355 -0.2621883153915405
vn 0.9298377633094788 0.2406441569328308 -0.2783737778663635
vn 0.9030129909515381 0.31034141778945923 -0.2970788776874542
vn 0.8679788112640381 0.38077878952026367 -0.31877946853637695
vn 0.8232346177101135 0.45157527923583984 -0.3440414369106293
vn 0.7667707204818726 0.5220648050308228 -0.3735119104385376
vn 0.6959056258201599 0.5910640954971313 -0.40787094831466675
vn -0.22447939217090607 -0.9691954255104065 -0.10133694112300873
vn 2.9067308560115634e-07 4.7016703774716007e-07 1.0
vn 0.4560264050960541 -0.8851410746574402 -0.0925484225153923
vn 0.6957760453224182 -0.7143645882606506 -0.07469240576028824
vn 0.5774987936019897 0.8140342831611633 -0.06199508160352707
vn -0.772661566734314 -0.6313762664794922 -0.06601529568433762
vn -0.688957929611206 -0.6546798348426819 -0.311016708612442
vn -5.358071208938497e-10 -7.68060388622871e-08 0.9999999403953552
vn 3.207148324690934e-08 -8.438290421963757e-08 1.0
vn -1.1102293484555048e-07 -1.555431055066947e-07 0.9999999403953552
vn -4.003291564913525e-08 -3.028717543429593e-08 0.9999999403953552
vn 0.45779892802238464 -0.8885815143585205 -0.029036665335297585
vn -0.22552670538425446 -0.973717212677002 -0.031818684190511703
vn -0.686421811580658 0.17305849492549896 0.7063114047050476
vn 0.58439040184021 0.19311268627643585 0.7881594896316528
vn -0.6643269658088684 0.7452839016914368 -0.05675920844078064
vn 0.5615479946136475 0.8088474869728088 -0.17444057762622833
vn 0.6708149909973145 0.7253327369689941 -0.15459474921226501
vn 0.41820549964904785 0.8864625096321106 -0.19821332395076752
vn 0.2303788959980011 0.9466361403465271 -0.225400909781456
vn -0.008545381017029285 0.9673988223075867 -0.2531132400035858
vn -0.2875533103942871 0.9175804853439331 -0.27451589703559875
vn -0.564094603061676 0.7765212059020996 -0.2807351350784302
vn -0.7813798785209656 0.5633364915847778 -0.2685096561908722
vn -0.9126028418540955 0.32809314131736755 -0.24394859373569489
vn -0.9700985550880432 0.1109592467546463 -0.2158629447221756
vn -0.9791041016578674 -0.07334430515766144 -0.18967296183109283
vn -0.9597700238227844 -0.22554227709770203 -0.16724875569343567
vn -0.9244239926338196 -0.35119515657424927 -0.148668110370636
vn -0.8799248337745667 -0.45599907636642456 -0.13340631127357483
vn -0.8299990296363831 -0.544516384601593 -0.12084482610225677
vn -0.7766900062561035 -0.6201258301734924 -0.11043750494718552
vn 0.9399785399436951 -0.3359478712081909 -0.0598285011947155
vn 0.9180431962013245 -0.39218154549598694 -0.05822841823101044
vn 0.958644688129425 -0.2778458297252655 -0.06166236102581024
vn 0.973877489566803 -0.21793900430202484 -0.06375965476036072
vn 0.9854945540428162 -0.15628081560134888 -0.06615650653839111
vn 0.9932877421379089 -0.09291193634271622 -0.06889720261096954
vn 0.9970129132270813 -0.02785675600171089 -0.07203619927167892
vn 0.9963768124580383 0.03888024017214775 -0.07564108073711395
vn 0.9910172820091248 0.10731881111860275 -0.07979623973369598
vn 0.9804757237434387 0.177507221698761 -0.08460801094770432
vn 0.9641569256782532 0.2495260387659073 -0.09021149575710297
vn 0.9412696361541748 0.3234892189502716 -0.09677983075380325
vn 0.9107373952865601 0.39953678846359253 -0.10453637689352036
vn 0.8710639476776123 0.4778114855289459 -0.11377064883708954
vn 0.8201268911361694 0.5583929419517517 -0.12485703825950623
vn 0.7548642158508301 0.6411402821540833 -0.1382720172405243
vn 0.49612852931022644 0.7146180272102356 -0.4931304156780243
vn 0.6071325540542603 0.656474769115448 -0.44769519567489624
vn 0.3582204580307007 0.7593132853507996 -0.5432508587837219
vn 0.1900559663772583 0.7809475660324097 -0.5949787497520447
vn -0.006773003842681646 0.7667529582977295 -0.6419063806533813
vn -0.22079257667064667 0.7045474648475647 -0.6744356751441956
vn -0.4291132092475891 0.5907084941864014 -0.6833193302154541
vn -0.6053691506385803 0.43644142150878906 -0.665617823600769
vn -0.7330769300460815 0.26355114579200745 -0.6270079016685486
vn -0.8111066818237305 0.09277385473251343 -0.5774936676025391
vn -0.8482438921928406 -0.06354161351919174 -0.5257802605628967
vn -0.855572521686554 -0.20105627179145813 -0.4770452082157135
vn -0.8424140214920044 -0.3200390040874481 -0.433490127325058
vn -0.8154409527778625 -0.42258191108703613 -0.3955763280391693
vn -0.7791078686714172 -0.5111294984817505 -0.3629569113254547
vn -0.7363163828849792 -0.5878906846046448 -0.3349965512752533
vn 0.9248124957084656 -0.33052754402160645 -0.1883436143398285
vn 0.9039949774742126 -0.38618022203445435 -0.1834614872932434
vn 0.9422393441200256 -0.27309104800224304 -0.19392363727092743
vn 0.9560899138450623 -0.21395841240882874 -0.20028451085090637
vn 0.9661564230918884 -0.15321415662765503 -0.20752611756324768
vn 0.9722004532814026 -0.09093943983316422 -0.21576912701129913
vn 0.9739419221878052 -0.027212146669626236 -0.22515937685966492
vn 0.9710446000099182 0.03789173811674118 -0.23587411642074585
vn 0.9630962610244751 0.10429520159959793 -0.248129203915596
vn 0.9495803117752075 0.17191386222839355 -0.2621883153915405
vn 0.9298377633094788 0.2406441569328308 -0.2783737778663635
vn 0.9030129909515381 0.31034141778945923 -0.2970788776874542
vn 0.8679788112640381 0.38077878952026367 -0.31877946853637695
vn 0.8232346177101135 0.45157527923583984 -0.3440414369106293
vn 0.7667707204818726 0.5220648050308228 -0.3735119104385376
vn 0.6959056258201599 0.5910640954971313 -0.40787094831466675
vn -0.22447939217090607 -0.9691954255104065 -0.10133694112300873
vn -0.688957929611206 -0.6546798348426819 -0.311016708612442
vn 0.9528246521949768 0.30183297395706177 -0.03196771442890167
vn -0.969332754611969 0.24438518285751343 -0.025883309543132782
vn 1.313349148673263e-14 -7.748769803583855e-08 1.0
vn -0.7211483120918274 -0.685268759727478 -0.10174382477998734
vn 0.4560264050960541 -0.8851410746574402 -0.0925484225153923
vn 0.0 -6.738062996447525e-09 1.0
f 1/3/1 32/3/32 74/3/74
f 72/6/72 66/6/66 73/6/73
f 32/9/32 31/9/31 74/9/74
f 31/12/31 30/12/30 74/12/74
f 73/15/73 4/15/4 3/15/3
f 73/18/73 5/18/5 4/18/4
f 30/21/30 29/21/29 74/21/74
f 29/24/29 28/24/28 74/24/74
f 73/27/73 6/27/6 5/27/5
f 73/30/73 7/30/7 6/30/6
f 28/33/28 27/33/27 74/33/74
f 27/36/27 26/36/26 74/36/74
f 73/39/73 8/39/8 7/39/7
f 73/42/73 9/42/9 8/42/8
f 26/45/26 25/45/25 74/45/74
f 25/48/25 24/48/24 74/48/74
f 73/51/73 10/51/10 9/51/9
f 73/54/73 11/54/11 10/54/10
f 24/57/24 23/57/23 74/57/74
f 23/60/23 22/60/22 74/60/74
f 73/63/73 12/63/12 11/63/11
f 73/66/73 13/66/13 12/66/12
f 22/69/22 21/69/21 74/69/74
f 21/72/21 20/72/20 74/72/74
f 73/75/73 14/75/14 13/75/13
f 73/78/73 15/78/15 14/78/14
f 20/81/20 19/81/19 74/81/74
f 19/84/19 18/84/18 74/84/74
f 73/87/73 16/87/16 15/87/15
f 73/90/73 66/90/66 16/90/16
f 18/93/18 17/93/17 74/93/74
f 75/96/75 74/96/74 17/96/17
f 73/99/73 3/99/3 2/99/2
f 75/102/75 17/102/17 152/102/152
f 2/105/2 1/105/1 74/105/74
f 72/108/72 149/108/149 66/108/66
f 73/111/73 2/111/2 74/111/74
