# Exported by Lightwave Blender addon
v 98.9645004272461 734.2486572265625 501.7039794921875
v 98.96443939208984 734.2485961914062 685.9026489257812
v 100.57341766357422 733.3739624023438 501.7039794921875
v 100.57621765136719 733.372314453125 685.9026489257812
v 98.6465072631836 735.0313720703125 501.7040100097656
v 98.97571563720703 734.269287109375 501.70404052734375
v 98.64641571044922 735.0311279296875 685.9026489257812
v 98.97545623779297 734.268798828125 685.9026489257812
v 101.22721862792969 738.4105224609375 501.7039794921875
v 101.22715759277344 738.410400390625 685.9026489257812
v 104.98136138916016 736.3694458007812 501.7039794921875
v 104.98136138916016 736.3693237304688 685.9026489257812
v 100.46021270751953 728.0743408203125 501.7041015625
v 100.46021270751953 728.0743408203125 685.9027709960938
v 100.4598159790039 728.0740966796875 685.9026489257812
v 100.4598388671875 728.0741577148438 501.7041015625
v 96.71302032470703 730.1068115234375 685.9026489257812
v 96.7132797241211 730.1072998046875 501.70404052734375
v 96.38957214355469 730.8661499023438 685.9026489257812
v 96.38967895507812 730.8663940429688 501.7040100097656
v 98.2035140991211 734.2025756835938 685.9026489257812
v 98.2036361694336 734.2028198242188 501.7039794921875
v 100.4603500366211 738.3675537109375 685.9026489257812
v 100.46047973632812 738.3677978515625 501.7039794921875
v 102.31346893310547 732.4583740234375 501.7041015625
v 102.31344604492188 732.4583129882812 685.9027099609375
v 102.67427062988281 732.2626342773438 501.7041015625
v 102.67427062988281 732.2626342773438 685.9027709960938
v 78.30876159667969 691.1329345703125 496.67095947265625
v 74.75869750976562 693.073974609375 496.6712951660156
v 78.30876159667969 691.1329345703125 690.9360961914062
v 74.8771743774414 692.9996337890625 690.9363403320312
v 73.58840942382812 692.7306518554688 496.6712951660156
v 73.70600128173828 692.65478515625 690.9363403320312
v 70.7134017944336 687.1748046875 690.9359130859375
v 70.58168029785156 687.2249755859375 496.6708679199219
v 76.41421508789062 688.236083984375 683.5457763671875
v 73.5639877319336 689.7865600585938 683.80078125
v 100.64734649658203 733.39453125 683.5457763671875
v 97.88935852050781 734.8997802734375 683.7982177734375
v 72.80706024169922 690.1983032226562 684.7308959960938
v 97.13226318359375 735.31298828125 684.7297973632812
v 97.11528778076172 735.3222045898438 690.9310302734375
v 72.79608154296875 690.2039184570312 690.9362182617188
v 78.2644271850586 686.9169311523438 637.6605834960938
v 75.31211853027344 688.4166259765625 637.7987060546875
v 102.49771118164062 732.07568359375 637.6610107421875
v 99.6383285522461 733.5308837890625 637.7980346679688
v 74.95408630371094 688.6136474609375 638.22607421875
v 99.27963256835938 733.7286376953125 638.2257690429688
v 99.32435607910156 733.8055419921875 640.9181518554688
v 75.00431060791016 688.687744140625 640.9207153320312
v 75.37256622314453 688.5028076171875 641.3309936523438
v 99.69140625 733.6204223632812 641.3256225585938
v 102.74453735351562 731.9522705078125 641.3018798828125
v 78.51203918457031 686.7950439453125 641.330810546875
v 78.27971649169922 686.9443969726562 589.749755859375
v 75.49211883544922 688.640380859375 589.8873901367188
v 102.51344299316406 732.103759765625 589.7501831054688
v 99.81790161132812 733.75390625 589.88671875
v 75.1266098022461 688.8355102539062 590.3145751953125
v 99.45214080810547 733.950439453125 590.3142700195312
v 99.3471450805664 733.8348388671875 593.0075073242188
v 75.02709197998047 688.717041015625 593.0101318359375
v 75.37256622314453 688.5028076171875 593.419921875
v 99.69140625 733.6204223632812 593.41455078125
v 102.74453735351562 731.9522705078125 593.3908081054688
v 78.51203918457031 686.7950439453125 593.4197998046875
v 78.28287506103516 686.9495239257812 541.8385620117188
v 75.49337768554688 688.7030029296875 541.9765014648438
v 102.51669311523438 732.1090087890625 541.8389282226562
v 99.81904602050781 733.8164672851562 541.975830078125
v 75.13050079345703 688.8953857421875 542.403076171875
v 99.4560317993164 734.0103149414062 542.4027709960938
v 99.34764099121094 733.8427734375 545.0968627929688
v 75.027587890625 688.7249145507812 545.0994873046875
v 75.37256622314453 688.5028076171875 545.5088500976562
v 99.69140625 733.6204223632812 545.5034790039062
v 102.74453735351562 731.9522705078125 545.479736328125
v 78.51203918457031 686.7950439453125 545.5087280273438
v 123.24974822998047 774.3525390625 690.9361572265625
v 119.99681854248047 776.1341552734375 690.936279296875
v 123.2498550415039 774.3525390625 496.6710205078125
v 119.86770629882812 776.1890258789062 496.6712646484375
v 119.65367889404297 777.3056030273438 690.9362182617188
v 119.5230712890625 777.3577270507812 496.6712646484375
v 122.5523681640625 782.9050903320312 496.6706848144531
v 122.65775299072266 782.8068237304688 690.935791015625
v 124.9017333984375 777.3818359375 503.99871826171875
v 122.20082092285156 778.8543090820312 503.99871826171875
v 100.88992309570312 733.26220703125 503.99871826171875
v 97.9056167602539 734.893798828125 503.99871826171875
v 121.40193939208984 779.2888793945312 503.1374206542969
v 97.12765502929688 735.3179931640625 503.1364440917969
v 96.97003173828125 735.3949584960938 496.6970520019531
v 121.09036254882812 779.4513549804688 496.67547607421875
v 126.75570678710938 776.0706787109375 641.2730712890625
v 123.78883361816406 777.69921875 641.320068359375
v 123.42301940917969 777.884521484375 640.9154663085938
v 123.38380432128906 777.8047485351562 638.2255249023438
v 123.74317169189453 777.6062622070312 637.7972412109375
v 126.50963592529297 776.195556640625 637.6614379882812
v 126.75570678710938 776.0706787109375 593.3619995117188
v 123.78883361816406 777.69921875 593.4090576171875
v 123.44583129882812 777.913818359375 593.0048828125
v 123.5562973022461 778.0265502929688 590.31396484375
v 123.92227172851562 777.82861328125 589.885986328125
v 126.52583312988281 776.224365234375 589.7506103515625
v 126.75570678710938 776.0706787109375 545.450927734375
v 123.78883361816406 777.69921875 545.4979858398438
v 123.44631958007812 777.9217529296875 545.0942993164062
v 123.5601806640625 778.08642578125 542.4025268554688
v 123.9233169555664 777.8910522460938 541.97509765625
v 126.5291748046875 776.2296752929688 541.8394165039062
v 73.0041275024414 689.6527099609375 496.6709899902344
v 69.45404815673828 691.59375 496.67132568359375
v 73.0041275024414 689.6527099609375 690.9360961914062
v 69.57254028320312 691.5194702148438 690.9363403320312
v 68.28375244140625 691.25048828125 496.67132568359375
v 68.4013671875 691.174560546875 690.9363403320312
v 65.40875244140625 685.6946411132812 690.9359130859375
v 65.27702331542969 685.7447509765625 496.6708984375
v 71.35198974609375 688.133056640625 686.9819946289062
v 68.50177001953125 689.6834716796875 687.2369384765625
v 123.81893157958984 785.2224731445312 686.9819946289062
v 121.06094360351562 786.7277221679688 687.234375
v 67.74482727050781 690.09521484375 688.1671142578125
v 120.30384063720703 787.1409301757812 688.166015625
v 120.286865234375 787.150146484375 694.3671875
v 67.73384094238281 690.100830078125 694.3724365234375
v 121.54688262939453 779.4971313476562 690.9361572265625
v 118.29395294189453 781.2787475585938 690.936279296875
v 121.54698944091797 779.4971313476562 496.6710205078125
v 118.16484069824219 781.3336181640625 496.6712951660156
v 117.95081329345703 782.4501953125 690.9362182617188
v 117.82020568847656 782.5023193359375 496.6712646484375
v 120.84950256347656 788.0496826171875 496.6706848144531
v 120.95488739013672 787.9514770507812 690.935791015625
v 73.38911437988281 689.8947143554688 503.9987487792969
v 76.65673828125 688.1038208007812 503.9987487792969
v 72.63216400146484 690.3081665039062 503.1361389160156
v 72.6283187866211 690.2998046875 496.7187194824219
v 121.9933090209961 778.97412109375 683.7955322265625
v 124.65910339355469 777.51416015625 683.5457763671875
v 121.23609161376953 779.388916015625 684.728759765625
v 121.21311950683594 779.4015502929688 690.92578125
v 99.0955810546875 730.0472412109375 686.985107421875
v 99.0955810546875 730.0472412109375 500.54833984375
v 76.65673828125 688.1038208007812 686.985107421875
v 76.65673828125 688.1038208007812 500.5483703613281
v 102.75599670410156 736.7613525390625 501.41094970703125
v 102.75599670410156 736.7613525390625 686.985107421875
v 124.90162658691406 777.3818359375 686.985107421875
v 124.9017333984375 777.3818359375 501.41094970703125
v 124.9017333984375 777.3818359375 500.54833984375
v 102.75599670410156 736.7613525390625 500.54833984375
vt 1.0458984375 0.738037109375
vt -0.017852783203125 0.738037109375
vt 1.0458984375 0.4365234375
vt -0.017852783203125 0.738037109375
vt -0.017852783203125 0.4365234375
vt 1.0458984375 0.4365234375
vt 0.0626220703125 0.380859375
vt 1.1220703125 0.380859375
vt 1.1220703125 0.6826171875
vt 0.0626220703125 0.6826171875
vt 0.0626220703125 0.380859375
vt 1.1220703125 0.6826171875
vt 0.0626220703125 0.6826171875
vt 0.057708740234375 0.6826171875
vt 0.0626220703125 0.380859375
vt 0.057708740234375 0.6826171875
vt 0.057708740234375 0.380859375
vt 0.0626220703125 0.380859375
vn 0.11060269176959991 0.8205960392951965 0.5607041716575623
vn 0.0980193242430687 0.7272364497184753 0.6793522238731384
vn 0.11246845871210098 0.8201116919517517 0.5610415935516357
vn 0.09966285526752472 0.7267123460769653 0.6796737909317017
vn 0.11017251759767532 0.8209136128425598 0.5603238940238953
vn 0.11061298102140427 0.8206024169921875 0.5606929063796997
vn 0.09765227884054184 0.7276236414909363 0.6789902448654175
vn 0.09802869707345963 0.7272450923919678 0.6793416142463684
vn 0.11266931891441345 0.8218759298324585 0.5584135055541992
vn 0.099938303232193 0.7290087342262268 0.6771695613861084
vn 0.11700998991727829 0.8207417130470276 0.5591885447502136
vn 0.103757843375206 0.7277871966362 0.677908718585968
vn 0.11289149522781372 0.8181686997413635 0.5637866258621216
vn 0.09992964565753937 0.724229097366333 0.6822802424430847
vn 0.09992927312850952 0.7242290377616882 0.6822803020477295
vn 0.11289110034704208 0.8181686997413635 0.5637867450714111
vn 0.09609652310609818 0.725452721118927 0.6815303564071655
vn 0.1085285171866417 0.8193027973175049 0.5629960894584656
vn 0.09572568535804749 0.7258322834968567 0.6811784505844116
vn 0.10809417068958282 0.8196147084236145 0.5626254081726074
vn 0.09727603942155838 0.7272685170173645 0.6794247031211853
vn 0.10976725071668625 0.8206561803817749 0.5607802867889404
vn 0.09919179975986481 0.7290439009666443 0.6772415041923523
vn 0.11183100193738937 0.82193922996521 0.5584888458251953
vn 0.11448511481285095 0.8195947408676147 0.5613889694213867
vn 0.10143348574638367 0.7261587381362915 0.6800035238265991
vn 0.11490415036678314 0.8194849491119385 0.5614637732505798
vn 0.10180183500051498 0.7260405421257019 0.6800745725631714
vn 0.09162341803312302 0.8086446523666382 0.5811187624931335
vn 0.08734168112277985 0.8097284436225891 0.5802683234214783
vn 0.07987406849861145 0.7049479484558105 0.7047471404075623
vn 0.0762922391295433 0.7060962319374084 0.7039939761161804
vn 0.08601253479719162 0.8096861839294434 0.5805256366729736
vn 0.0751243606209755 0.7059838771820068 0.704232394695282
vn 0.0723753273487091 0.7033250331878662 0.70717453956604
vn 0.082954540848732 0.8076944351196289 0.5837365388870239
vn 0.0785340741276741 0.7073289155960083 0.7025085091590881
vn 0.07552275061607361 0.7081533074378967 0.7020081281661987
vn 0.09988945722579956 0.7278719544410706 0.6783985495567322
vn 0.0970563068985939 0.7286456823348999 0.6779789924621582
vn 0.07467760145664215 0.7079306840896606 0.7023228406906128
vn 0.09622363746166229 0.7284345030784607 0.6783244609832764
vn 0.09580613672733307 0.7254098057746887 0.681617021560669
vn 0.0743330717086792 0.7047765851020813 0.7055243849754333
vn 0.08321336656808853 0.7303531765937805 0.6779821515083313
vn 0.07999369502067566 0.7312102317810059 0.6774457693099976
vn 0.10499191284179688 0.7498902082443237 0.6531779766082764
vn 0.10197045654058456 0.7506998777389526 0.6527262926101685
vn 0.07957916706800461 0.7311049103736877 0.6776081323623657
vn 0.10156271606683731 0.7506018280982971 0.6529027223587036
vn 0.10141941905021667 0.7492837905883789 0.6544371247291565
vn 0.0794733464717865 0.7297223210334778 0.6791091561317444
vn 0.07984890043735504 0.7293925881385803 0.6794192790985107
vn 0.10177701711654663 0.748968243598938 0.6547425985336304
vn 0.10499570518732071 0.7479895949363708 0.6553530097007751
vn 0.08326204866170883 0.7283464074134827 0.6801315546035767
vn 0.08614006638526917 0.7559229731559753 0.6489686369895935
vn 0.0829688087105751 0.756842851638794 0.6483094692230225
vn 0.10840307176113129 0.7741647958755493 0.6236326694488525
vn 0.10543280839920044 0.775028645992279 0.6230686902999878
vn 0.08253131806850433 0.756729245185852 0.6484978199005127
vn 0.10500428825616837 0.7749249339103699 0.6232699751853943
vn 0.10471867769956589 0.773512065410614 0.6250704526901245
vn 0.08227261900901794 0.7552279233932495 0.6502783894538879
vn 0.08263938128948212 0.7548826932907104 0.6506326794624329
vn 0.10506772994995117 0.7731843590736389 0.6254172325134277
vn 0.10839724540710449 0.7722221612930298 0.6260374784469604
vn 0.08617822825908661 0.7538561224937439 0.6513633728027344
vn 0.0891181007027626 0.7820310592651367 0.6168351173400879
vn 0.08582397550344467 0.7829459309577942 0.6161412000656128
vn 0.11184936761856079 0.798757016658783 0.5911656022071838
vn 0.10876992344856262 0.7996185421943665 0.5905753970146179
vn 0.08537433296442032 0.7828243374824524 0.61635822057724
vn 0.10833094269037247 0.7995093464851379 0.5908038020133972
vn 0.10804237425327301 0.7980674505233765 0.5928028225898743
vn 0.0851101279258728 0.7812787890434265 0.6183523535728455
vn 0.085490882396698 0.78093022108078 0.6187401413917542
vn 0.10840433090925217 0.7977380752563477 0.5931799411773682
vn 0.11184687912464142 0.7967973947525024 0.5938048958778381
vn 0.08915887773036957 0.7799297571182251 0.6194839477539062
vn 0.11793261021375656 0.7409461140632629 0.6611284017562866
vn 0.114716537296772 0.741981565952301 0.6605326533317566
vn 0.13278840482234955 0.8342812657356262 0.5351094007492065
vn 0.1289929449558258 0.8352784514427185 0.5344816446304321
vn 0.11429779976606369 0.7425122261047363 0.6600088477134705
vn 0.12849320471286774 0.8356979489326477 0.53394615650177
vn 0.13104087114334106 0.837132453918457 0.531072199344635
vn 0.11667287349700928 0.7446110844612122 0.6572227478027344
vn 0.1336067020893097 0.8315610885620117 0.5391246676445007
vn 0.13059626519680023 0.8323631286621094 0.5386244058609009
vn 0.11266697198152542 0.8188571333885193 0.5628313422203064
vn 0.10921165347099304 0.8197585344314575 0.5621999502182007
vn 0.12977100908756256 0.8330106139183044 0.5378221273422241
vn 0.1083705797791481 0.8204340934753418 0.5613765716552734
vn 0.10862530022859573 0.8237854242324829 0.5563973188400269
vn 0.129905104637146 0.8361913561820984 0.5328308343887329
vn 0.12492134422063828 0.7648396492004395 0.631992757320404
vn 0.12188810855150223 0.7657579779624939 0.6314728856086731
vn 0.12154681980609894 0.7660596370697021 0.6311726570129395
vn 0.12171938270330429 0.7673122882843018 0.6296159625053406
vn 0.12211944907903671 0.7674027681350708 0.6294282674789429
vn 0.12495143711566925 0.7666352987289429 0.6298074722290039
vn 0.12867233157157898 0.7878053784370422 0.6023340225219727
vn 0.12554143369197845 0.7887098789215088 0.6018105745315552
vn 0.12520842254161835 0.7890210747718811 0.6014719605445862
vn 0.12551310658454895 0.790348470211029 0.5996630191802979
vn 0.12593182921409607 0.7904420495033264 0.5994517207145691
vn 0.12871064245700836 0.7896279692649841 0.5999342203140259
vn 0.13244964182376862 0.8109321594238281 0.5699528455734253
vn 0.12921985983848572 0.8118194341659546 0.5694307684898376
vn 0.12887486815452576 0.812130868434906 0.5690647959709167
vn 0.129179909825325 0.8134751915931702 0.5670719742774963
vn 0.12960757315158844 0.8135722875595093 0.5668350458145142
vn 0.13248351216316223 0.8127582669258118 0.5673378109931946
vn 0.08558375388383865 0.8084895014762878 0.5822543501853943
vn 0.08130049705505371 0.8095555901527405 0.5813862085342407
vn 0.07457391172647476 0.7044820785522461 0.7057930827140808
vn 0.07099118828773499 0.7056201696395874 0.7050251364707947
vn 0.07996542751789093 0.8095065355300903 0.5816396474838257
vn 0.06981934607028961 0.7055027484893799 0.7052596211433411
vn 0.06704279035329819 0.7028246521949768 0.7081968188285828
vn 0.0768662691116333 0.8074914813041687 0.5848495960235596
vn 0.07318393141031265 0.7058007121086121 0.7046200633049011
vn 0.07018350064754486 0.7066153287887573 0.704108715057373
vn 0.11785066872835159 0.7473735213279724 0.6538683772087097
vn 0.11511941999197006 0.7481160759925842 0.6535057425498962
vn 0.06934452056884766 0.7063907980918884 0.7044171690940857
vn 0.11430912464857101 0.747917890548706 0.6538748741149902
vn 0.11385268718004227 0.7450452446937561 0.6572253108024597
vn 0.0690235123038292 0.7032405138015747 0.7075934410095215
vn 0.1159018874168396 0.7432949542999268 0.6588470339775085
vn 0.11269756406545639 0.7443171143531799 0.6582486629486084
vn 0.13038164377212524 0.8361549973487854 0.5327715873718262
vn 0.12660399079322815 0.8371351957321167 0.5321427583694458
vn 0.11228148639202118 0.7448415756225586 0.6577262282371521
vn 0.12610839307308197 0.8375483155250549 0.5316101312637329
vn 0.12865734100341797 0.8389639854431152 0.5287595987319946
vn 0.11465614289045334 0.746918797492981 0.6549552083015442
vn 0.08558210730552673 0.80451500415802 0.5877339839935303
vn 0.08951307088136673 0.8035077452659607 0.5885258913040161
vn 0.08472294360399246 0.8052209615707397 0.5868911743164062
vn 0.08509141951799393 0.8087560534477234 0.5819562077522278
vn 0.11688811331987381 0.7463755011558533 0.6551799178123474
vn 0.11954975128173828 0.7456465363502502 0.6555295586585999
vn 0.11606995016336441 0.7461773753166199 0.6555508971214294
vn 0.1155964657664299 0.7432863712310791 0.65891033411026
vn -0.8817497491836548 0.4717174470424652 0.0
vn -0.8817497491836548 0.47171750664711 0.0
vn -0.8817497491836548 0.4717174768447876 0.0
vn -0.8817497491836548 0.4717174768447876 0.0
vn -0.8779945969581604 0.47867053747177124 -2.1611788270092802e-07
vn -0.8779954314231873 0.4786688983440399 0.0
vn -0.8779953718185425 0.47866925597190857 -7.960328929357274e-08
vn -0.8779945373535156 0.4786706864833832 -2.559244194344501e-07
vn -0.8779945969581604 0.47867074608802795 0.0
vn -0.8779945373535156 0.4786706864833832 0.0
f 147/1/147 148/2/148 149/3/149
f 148/4/148 150/5/150 149/6/149
f 151/7/151 152/8/152 153/9/153
f 154/10/154 151/11/151 153/12/153
f 154/13/154 155/14/155 151/15/151
f 155/16/155 156/17/156 151/18/151
