# Exported by Lightwave Blender addon
v 162.82305908203125 669.2418823242188 1575.73583984375
v 71.30804443359375 718.9354248046875 1562.2215576171875
v 163.367431640625 670.228759765625 1572.7412109375
v 72.45918273925781 719.5928955078125 1559.2269287109375
v 164.15541076660156 671.6572875976562 1570.526123046875
v 74.12525939941406 720.544677734375 1557.01171875
v 164.15541076660156 671.6572875976562 1567.2799072265625
v 74.12525939941406 720.544677734375 1553.7655029296875
v 75.19945526123047 720.8814697265625 1552.9539794921875
v 163.83419799804688 672.7551879882812 1566.4683837890625
v 122.36748504638672 812.9608154296875 1562.2215576171875
v 214.50003051757812 762.9266967773438 1575.7359619140625
v 122.4428939819336 811.6371459960938 1559.2269287109375
v 213.9556121826172 761.939697265625 1572.7412109375
v 122.5519027709961 809.7216796875 1557.01171875
v 213.1676788330078 760.5112915039062 1570.526123046875
v 122.5519027709961 809.7216796875 1553.7655029296875
v 213.1676788330078 760.5112915039062 1567.2799072265625
v 212.0625 760.18798828125 1566.4683837890625
v 122.6795883178711 808.7269287109375 1552.9539794921875
v 74.67296600341797 721.5532836914062 1552.9539794921875
v 121.55205535888672 808.6144409179688 1552.9539794921875
v 606.9659423828125 -233.4025115966797 1575.73583984375
v 570.2330322265625 -330.8454284667969 1562.221435546875
v 605.913818359375 -232.9979705810547 1572.7412109375
v 569.424560546875 -329.7947692871094 1559.226806640625
v 604.39111328125 -232.4122772216797 1570.526123046875
v 568.254150390625 -328.2743835449219 1557.01171875
v 604.39111328125 -232.4122772216797 1567.2799072265625
v 568.254150390625 -328.2743835449219 1553.7655029296875
v 567.7738037109375 -327.2561950683594 1552.953857421875
v 603.347412109375 -232.88047790527344 1566.46826171875
v 470.1165466308594 -293.1022644042969 1562.221435546875
v 507.1025390625 -195.00096130371094 1575.73583984375
v 471.4176025390625 -292.8467712402344 1559.226806640625
v 508.15460205078125 -195.4055633544922 1572.7412109375
v 473.3002624511719 -292.4772644042969 1557.01171875
v 509.67718505859375 -195.99107360839844 1570.526123046875
v 473.3002624511719 -292.4772644042969 1553.7655029296875
v 509.67718505859375 -195.99107360839844 1567.27978515625
v 510.1484375 -197.04173278808594 1566.46826171875
v 474.2682189941406 -292.2150573730469 1552.953857421875
v 567.18017578125 -327.8694763183594 1552.953857421875
v 474.5335388183594 -293.3166198730469 1552.953857421875
v 70.98213195800781 720.0358276367188 1562.2215576171875
v 72.1332778930664 720.6932983398438 1559.2269287109375
v 121.26702117919922 812.6349487304688 1562.2215576171875
v 121.3424301147461 811.311279296875 1559.2269287109375
v 73.79935455322266 721.6451416015625 1557.01171875
v 121.4514389038086 809.3958129882812 1557.01171875
v 121.4514389038086 809.3958129882812 1553.7655029296875
v 73.79935455322266 721.6451416015625 1553.7655029296875
v 569.1873779296875 -331.3185729980469 1562.221435546875
v 568.3788452148438 -330.2679138183594 1559.226806640625
v 470.58966064453125 -294.1479187011719 1562.221435546875
v 471.8906555175781 -293.8924255371094 1559.226806640625
v 567.2086181640625 -328.7474060058594 1557.01171875
v 473.7733154296875 -293.5229187011719 1557.01171875
v 473.7733154296875 -293.5229187011719 1553.7655029296875
v 567.2086181640625 -328.7474060058594 1553.7655029296875
v 216.04612731933594 765.7296142578125 1575.7359619140625
v 119.88484954833984 819.1112670898438 1562.2203369140625
v 65.15731048583984 718.2694091796875 1562.2203369140625
v 160.93955993652344 665.8272705078125 1575.73583984375
v 504.11480712890625 -193.8519744873047 1575.73583984375
v 464.3627014160156 -296.4014587402344 1562.2203369140625
v 571.7326049804688 -336.8476257324219 1562.2203369140625
v 610.6055908203125 -234.80198669433594 1575.73583984375
v 64.83257293701172 719.3724365234375 1562.2203369140625
v 118.78819274902344 818.7918701171875 1562.2203369140625
v 570.6842041015625 -337.3199157714844 1562.2203369140625
v 464.828857421875 -297.4441833496094 1562.22021484375
v 119.5808334350586 819.8671264648438 1563.03173828125
v 119.5719223022461 819.8720092773438 1565.0794677734375
v 216.43809509277344 766.440185546875 1578.5950927734375
v 216.43809509277344 766.440185546875 1576.5474853515625
v 160.54757690429688 665.1166381835938 1576.5474853515625
v 160.54757690429688 665.1166381835938 1578.5950927734375
v 64.34632873535156 718.1817016601562 1565.079345703125
v 64.34869384765625 718.1803588867188 1563.03173828125
v 463.6554870605469 -296.8057556152344 1563.03173828125
v 463.65185546875 -296.8152770996094 1565.079345703125
v 503.3573303222656 -193.5607147216797 1578.594970703125
v 503.3573303222656 -193.5607147216797 1576.54736328125
v 611.3631591796875 -235.09336853027344 1576.54736328125
v 611.3631591796875 -235.09336853027344 1578.5950927734375
v 571.93017578125 -337.6390075683594 1565.079345703125
v 571.93115234375 -337.6365661621094 1563.03173828125
v 64.02300262451172 719.286865234375 1565.079345703125
v 64.02542877197266 719.2855224609375 1563.03173828125
v 118.47401428222656 819.5508422851562 1565.0794677734375
v 118.48286437988281 819.5459594726562 1563.03173828125
v 570.8795166015625 -338.1101989746094 1565.079345703125
v 570.880615234375 -338.1076354980469 1563.03173828125
v 464.1199035644531 -297.8589782714844 1565.079345703125
v 464.12353515625 -297.8495788574219 1563.0316162109375
v 160.93955993652344 665.8272705078125 1579.4066162109375
v 65.44373321533203 718.503173828125 1565.8909912109375
v 216.04611206054688 765.7296142578125 1579.4066162109375
v 65.12042236328125 719.6083374023438 1565.8909912109375
v 118.79537963867188 818.4467163085938 1565.8909912109375
v 119.8932876586914 818.7679443359375 1565.8909912109375
v 610.6055908203125 -234.80198669433594 1579.4066162109375
v 571.4618530273438 -336.5957946777344 1565.890869140625
v 504.11480712890625 -193.8519744873047 1579.4066162109375
v 570.4111938476562 -337.0669860839844 1565.890869140625
v 465.1697998046875 -297.3898620605469 1565.890869140625
v 464.7017517089844 -296.3461608886719 1565.890869140625
vt -2.28125 0.71630859375
vt -2.28125 0.20703125
vt -2.263671875 0.7158203125
vt -2.28125 0.20703125
vt -2.263671875 0.181640625
vt -2.263671875 0.7158203125
vt -1.6435546875 0.208984375
vt -1.6435546875 0.71533203125
vt -1.6611328125 0.18408203125
vt -1.6435546875 0.71533203125
vt -1.6611328125 0.714599609375
vt -1.6611328125 0.18408203125
vt -2.28125 0.71630859375
vt -2.28125 0.20703125
vt -2.263671875 0.7158203125
vt -2.28125 0.20703125
vt -2.263671875 0.181640625
vt -2.263671875 0.7158203125
vt -1.6435546875 0.208984375
vt -1.6435546875 0.71533203125
vt -1.6611328125 0.18408203125
vt -1.6435546875 0.71533203125
vt -1.6611328125 0.714599609375
vt -1.6611328125 0.18408203125
vt -1.701171875 0.1298828125
vt -1.68359375 0.15478515625
vt -1.6884765625 0.1572265625
vt -1.7060546875 0.13232421875
vt -1.701171875 0.1298828125
vt -1.6884765625 0.1572265625
vt -1.7060546875 0.13232421875
vt -1.6884765625 0.1572265625
vt -2.234375 0.1591796875
vt -2.21484375 0.134765625
vt -1.7060546875 0.13232421875
vt -2.234375 0.1591796875
vt -2.21484375 0.134765625
vt -2.234375 0.1591796875
vt -2.23828125 0.15576171875
vt -2.21875 0.1318359375
vt -2.21484375 0.134765625
vt -2.23828125 0.15576171875
vt -1.701171875 0.1298828125
vt -1.68359375 0.15478515625
vt -1.6884765625 0.1572265625
vt -1.7060546875 0.13232421875
vt -1.701171875 0.1298828125
vt -1.6884765625 0.1572265625
vt -1.7060546875 0.13232421875
vt -1.6884765625 0.1572265625
vt -2.234375 0.1591796875
vt -2.21484375 0.134765625
vt -1.7060546875 0.13232421875
vt -2.234375 0.1591796875
vt -2.21484375 0.134765625
vt -2.234375 0.1591796875
vt -2.23828125 0.15576171875
vt -2.21875 0.1318359375
vt -2.21484375 0.134765625
vt -2.23828125 0.15576171875
vt -2.2578125 0.1787109375
vt -2.244140625 0.1767578125
vt -2.244140625 0.717529296875
vt -2.2578125 0.71630859375
vt -2.2578125 0.1787109375
vt -2.244140625 0.717529296875
vt -2.2578125 0.71630859375
vt -2.263671875 0.7158203125
vt -2.2578125 0.1787109375
vt -2.263671875 0.7158203125
vt -2.263671875 0.181640625
vt -2.2578125 0.1787109375
vt -1.666015625 0.715087890625
vt -1.6787109375 0.716064453125
vt -1.6787109375 0.17919921875
vt -1.666015625 0.18115234375
vt -1.666015625 0.715087890625
vt -1.6787109375 0.17919921875
vt -1.666015625 0.18115234375
vt -1.6611328125 0.18408203125
vt -1.666015625 0.715087890625
vt -1.6611328125 0.18408203125
vt -1.6611328125 0.714599609375
vt -1.666015625 0.715087890625
vt -2.2578125 0.1787109375
vt -2.244140625 0.1767578125
vt -2.244140625 0.717529296875
vt -2.2578125 0.71630859375
vt -2.2578125 0.1787109375
vt -2.244140625 0.717529296875
vt -2.2578125 0.71630859375
vt -2.263671875 0.7158203125
vt -2.2578125 0.1787109375
vt -2.263671875 0.7158203125
vt -2.263671875 0.181640625
vt -2.2578125 0.1787109375
vt -1.666015625 0.715087890625
vt -1.6787109375 0.716064453125
vt -1.6787109375 0.17919921875
vt -1.666015625 0.18115234375
vt -1.666015625 0.715087890625
vt -1.6787109375 0.17919921875
vt -1.666015625 0.18115234375
vt -1.6611328125 0.18408203125
vt -1.666015625 0.715087890625
vt -1.6611328125 0.18408203125
vt -1.6611328125 0.714599609375
vt -1.666015625 0.715087890625
vt -1.681640625 0.162109375
vt -1.6787109375 0.17919921875
vt -1.6865234375 0.173828125
vt -1.6875 0.16259765625
vt -1.681640625 0.162109375
vt -1.6865234375 0.173828125
vt -1.681640625 0.162109375
vt -1.6875 0.16259765625
vt -1.68359375 0.15478515625
vt -1.6875 0.16259765625
vt -1.6884765625 0.1572265625
vt -1.68359375 0.15478515625
vt -1.6875 0.16259765625
vt -1.6865234375 0.173828125
vt -2.23828125 0.173828125
vt -2.234375 0.1591796875
vt -1.6884765625 0.1572265625
vt -1.6875 0.16259765625
vt -2.236328125 0.1630859375
vt -1.6875 0.16259765625
vt -2.23828125 0.173828125
vt -2.236328125 0.1630859375
vt -2.234375 0.1591796875
vt -1.6875 0.16259765625
vt -2.236328125 0.1630859375
vt -2.23828125 0.173828125
vt -2.244140625 0.1767578125
vt -2.2421875 0.16162109375
vt -2.236328125 0.1630859375
vt -2.244140625 0.1767578125
vt -2.236328125 0.1630859375
vt -2.2421875 0.16162109375
vt -2.234375 0.1591796875
vt -2.2421875 0.16162109375
vt -2.23828125 0.15576171875
vt -2.234375 0.1591796875
vt -1.681640625 0.162109375
vt -1.6787109375 0.17919921875
vt -1.6865234375 0.173828125
vt -1.6875 0.16259765625
vt -1.681640625 0.162109375
vt -1.6865234375 0.173828125
vt -1.681640625 0.162109375
vt -1.6875 0.16259765625
vt -1.68359375 0.15478515625
vt -1.6875 0.16259765625
vt -1.6884765625 0.1572265625
vt -1.68359375 0.15478515625
vt -1.6875 0.16259765625
vt -1.6865234375 0.173828125
vt -2.23828125 0.173828125
vt -2.234375 0.1591796875
vt -1.6884765625 0.1572265625
vt -1.6875 0.16259765625
vt -2.236328125 0.1630859375
vt -1.6875 0.16259765625
vt -2.23828125 0.173828125
vt -2.236328125 0.1630859375
vt -2.234375 0.1591796875
vt -1.6875 0.16259765625
vt -2.236328125 0.1630859375
vt -2.23828125 0.173828125
vt -2.244140625 0.1767578125
vt -2.2421875 0.16162109375
vt -2.236328125 0.1630859375
vt -2.244140625 0.1767578125
vt -2.236328125 0.1630859375
vt -2.2421875 0.16162109375
vt -2.234375 0.1591796875
vt -2.2421875 0.16162109375
vt -2.23828125 0.15576171875
vt -2.234375 0.1591796875
vt -1.6787109375 0.716064453125
vt -1.6865234375 0.717529296875
vt -1.6787109375 0.17919921875
vt -1.6865234375 0.717529296875
vt -1.6865234375 0.1865234375
vt -1.6787109375 0.17919921875
vt -1.6865234375 0.717529296875
vt -2.23828125 0.718017578125
vt -1.6865234375 0.1865234375
vt -1.6865234375 0.1865234375
vt -1.6904296875 0.1826171875
vt -1.6787109375 0.17919921875
vt -1.6904296875 0.1826171875
vt -1.6865234375 0.173828125
vt -1.6787109375 0.17919921875
vt -1.6865234375 0.173828125
vt -1.6904296875 0.1826171875
vt -2.23828125 0.173828125
vt -2.234375 0.18017578125
vt -1.6904296875 0.1826171875
vt -1.6865234375 0.1865234375
vt -1.6904296875 0.1826171875
vt -2.234375 0.18017578125
vt -2.23828125 0.173828125
vt -2.23828125 0.718017578125
vt -2.23828125 0.18408203125
vt -1.6865234375 0.1865234375
vt -2.23828125 0.18408203125
vt -2.234375 0.18017578125
vt -1.6865234375 0.1865234375
vt -2.234375 0.18017578125
vt -2.23828125 0.18408203125
vt -2.23828125 0.173828125
vt -2.23828125 0.18408203125
vt -2.23828125 0.718017578125
vt -2.244140625 0.717529296875
vt -2.23828125 0.18408203125
vt -2.244140625 0.1767578125
vt -2.23828125 0.173828125
vt -2.244140625 0.1767578125
vt -2.23828125 0.18408203125
vt -2.244140625 0.717529296875
vt -1.6787109375 0.716064453125
vt -1.6865234375 0.717529296875
vt -1.6787109375 0.17919921875
vt -1.6865234375 0.717529296875
vt -1.6865234375 0.1865234375
vt -1.6787109375 0.17919921875
vt -1.6865234375 0.717529296875
vt -2.23828125 0.718017578125
vt -1.6865234375 0.1865234375
vt -1.6865234375 0.1865234375
vt -1.6904296875 0.1826171875
vt -1.6787109375 0.17919921875
vt -1.6904296875 0.1826171875
vt -1.6865234375 0.173828125
vt -1.6787109375 0.17919921875
vt -1.6865234375 0.173828125
vt -1.6904296875 0.1826171875
vt -2.23828125 0.173828125
vt -2.234375 0.18017578125
vt -1.6904296875 0.1826171875
vt -1.6865234375 0.1865234375
vt -1.6904296875 0.1826171875
vt -2.234375 0.18017578125
vt -2.23828125 0.173828125
vt -2.23828125 0.718017578125
vt -2.23828125 0.18408203125
vt -1.6865234375 0.1865234375
vt -2.23828125 0.18408203125
vt -2.234375 0.18017578125
vt -1.6865234375 0.1865234375
vt -2.234375 0.18017578125
vt -2.23828125 0.18408203125
vt -2.23828125 0.173828125
vt -2.23828125 0.18408203125
vt -2.23828125 0.718017578125
vt -2.244140625 0.717529296875
vt -2.23828125 0.18408203125
vt -2.244140625 0.1767578125
vt -2.23828125 0.173828125
vt -2.244140625 0.1767578125
vt -2.23828125 0.18408203125
vt -2.244140625 0.717529296875
vn 0.10585710406303406 -0.06270362436771393 -0.9924024343490601
vn 0.015697944909334183 -0.14315810799598694 -0.9895753860473633
vn 0.0951256975531578 0.3902612626552582 0.9157768487930298
vn 0.042156994342803955 0.41866153478622437 0.9071633815765381
vn 0.0956621989607811 0.3914108872413635 0.9152301549911499
vn 0.043164968490600586 0.41959095001220703 0.9066863656044006
vn 0.0958280861377716 0.3920896053314209 0.9149222373962402
vn 0.04323906451463699 0.42031121253967285 0.9063491821289062
vn 0.0438796766102314 0.4206419587135315 0.9061650633811951
vn 0.09565968066453934 0.3928090035915375 0.914631187915802
vn 0.11075462400913239 0.04368099942803383 -0.9928873777389526
vn 0.11194628477096558 -0.06174973398447037 -0.9917938709259033
vn 0.06948760151863098 0.460612416267395 0.8848772644996643
vn 0.12152168899774551 0.43276357650756836 0.893279492855072
vn 0.06966152787208557 0.4602658152580261 0.8850439190864563
vn 0.12125959247350693 0.4326138496398926 0.8933876156806946
vn 0.06977544724941254 0.46101850271224976 0.884643018245697
vn 0.12145993858575821 0.4333285987377167 0.8930139541625977
vn 0.1208990141749382 0.4333909749984741 0.8930597305297852
vn 0.06989460438489914 0.46075838804244995 0.884769082069397
vn 0.04356585815548897 0.4209701120853424 0.906027615070343
vn 0.06925735622644424 0.4607285261154175 0.8848348259925842
vn 0.04766039922833443 0.11342810839414597 -0.9924023747444153
vn 0.1396990865468979 0.035083141177892685 -0.9895722270011902
vn 0.35611599683761597 -0.13694077730178833 0.9243531227111816
vn 0.33646100759506226 -0.194868803024292 0.9213143587112427
vn 0.3557793200016022 -0.13681121170520782 0.924501895904541
vn 0.33631208539009094 -0.19428390264511108 0.921492338180542
vn 0.35640889406204224 -0.13705331087112427 0.9242235422134399
vn 0.33690840005874634 -0.19462840259075165 0.9212016463279724
vn 0.3368447721004486 -0.19415222108364105 0.9213253855705261
vn 0.35601547360420227 -0.1374151110649109 0.9243214130401611
vn -0.05841721594333649 0.10375510901212692 -0.9928857684135437
vn 0.04588999226689339 0.11932795494794846 -0.9917938113212585
vn 0.2848362922668457 -0.1769416183233261 0.9421039819717407
vn 0.3053249418735504 -0.11740952730178833 0.9449823498725891
vn 0.28625303506851196 -0.17689087986946106 0.9416840672492981
vn 0.3065267503261566 -0.11787168681621552 0.9445356726646423
vn 0.2867831587791443 -0.1772184818983078 0.9414610862731934
vn 0.3070930242538452 -0.11808943748474121 0.9443245530128479
vn 0.30746904015541077 -0.11875804513692856 0.944118320941925
vn 0.287462443113327 -0.1771167665719986 0.9412730932235718
vn 0.33650872111320496 -0.19452537596225739 0.9213694930076599
vn 0.287575900554657 -0.17775516211986542 0.941118061542511
vn 0.00020258681615814567 -3.798467150772922e-05 -0.9999998807907104
vn 0.04195645824074745 0.4191926419734955 0.9069273471832275
vn 0.00014296277367975563 -0.00014076568186283112 -0.9999999403953552
vn 0.06887190788984299 0.4604865610599518 0.8849908113479614
vn 0.04296397790312767 0.4201222062110901 0.9064499139785767
vn 0.06904488056898117 0.46013975143432617 0.8851577639579773
vn 0.06915782392024994 0.4608924686908722 0.8847572803497314
vn 0.043037693947553635 0.4208430051803589 0.906112015247345
vn 9.760493412613869e-06 0.00018572677799966186 -1.0
vn 0.3358945846557617 -0.19517827033996582 0.9214555025100708
vn 0.0001111781966756098 0.0001620428665773943 -1.0
vn 0.28506699204444885 -0.17753908038139343 0.9419218301773071
vn 0.33574479818344116 -0.19459371268749237 0.9216337203979492
vn 0.2864835560321808 -0.17748886346817017 0.9415014386177063
vn 0.2870139181613922 -0.1778174489736557 0.9412778615951538
vn 0.3363403379917145 -0.19493888318538666 0.9213435649871826
vn 0.2904234528541565 0.2885707914829254 -0.912349283695221
vn 0.1536068171262741 0.49371111392974854 -0.8559523224830627
vn -0.34226953983306885 -0.4076573848724365 -0.8465619087219238
vn -0.08851651847362518 -0.3970983922481537 -0.9134974479675293
vn -0.32551637291908264 0.2483002096414566 -0.9123519659042358
vn -0.5100985765457153 0.08478245884180069 -0.8559272885322571
vn 0.45059385895729065 -0.2834117114543915 -0.8465477824211121
vn 0.4054020047187805 -0.03344006836414337 -0.913526713848114
vn -0.46091198921203613 0.07158505916595459 -0.8845539093017578
vn -0.32199910283088684 0.34850236773490906 -0.8802629113197327
vn -0.008001076988875866 -0.46637675166130066 -0.8845500349998474
vn -0.3013025224208832 -0.36653873324394226 -0.8802648186683655
vn 0.09067641943693161 0.9353523850440979 -0.3418971300125122
vn 0.06760764122009277 0.9136592745780945 0.4008190333843231
vn 0.3966454565525055 0.8227954506874084 0.40703821182250977
vn 0.48891159892082214 0.7961533069610596 -0.3565182089805603
vn -0.4114278554916382 -0.8392661213874817 -0.35547077655792236
vn -0.48435676097869873 -0.7744121551513672 0.40704354643821716
vn -0.7347612380981445 -0.5473737716674805 0.40063437819480896
vn -0.7467498183250427 -0.5751399397850037 -0.3340340256690979
vn -0.938984215259552 -0.03785756230354309 -0.34187051653862
vn -0.9143298864364624 -0.05777931585907936 0.4008270800113678
vn -0.8692556023597717 0.28059327602386475 0.40701618790626526
vn -0.8554479479789734 0.37562671303749084 -0.35652974247932434
vn 0.8875610828399658 -0.29296618700027466 -0.35553646087646484
vn 0.8332744836807251 -0.37408238649368286 0.40708231925964355
vn 0.6425648927688599 -0.6531270742416382 0.4006686806678772
vn 0.6717060804367065 -0.6612406373023987 -0.3340238332748413
vn -0.9094868302345276 0.07873841375112534 0.40820813179016113
vn -0.9322565197944641 0.08890464156866074 -0.35070452094078064
vn -0.5590235590934753 0.7222154140472412 0.4073050618171692
vn -0.5768231153488159 0.7384193539619446 -0.34930211305618286
vn 0.046171411871910095 -0.9117078185081482 0.4082365334033966
vn 0.03922616317868233 -0.9356659054756165 -0.3507000803947449
vn -0.6391202211380005 -0.6523964405059814 0.4073134958744049
vn -0.6527605056762695 -0.6722277402877808 -0.34930455684661865
vn -0.2784087359905243 -0.2688298523426056 0.922073245048523
vn -0.33359023928642273 -0.23392492532730103 0.9132341146469116
vn 0.07910635322332382 0.37885239720344543 0.9220699667930603
vn -0.39372605085372925 0.08508431166410446 0.9152815937995911
vn -0.2855827808380127 0.28413525223731995 0.9152648448944092
vn 0.01998819410800934 0.40624311566352844 0.9135463237762451
vn 0.3042905926704407 -0.2390851229429245 0.9220876097679138
vn 0.2772468030452728 -0.29850083589553833 0.9132532477378845
vn -0.3861238360404968 0.026644568890333176 0.92206209897995
vn -0.030531613156199455 -0.4016280770301819 0.9152937531471252
vn -0.24248895049095154 -0.32170015573501587 0.9152640104293823
vn -0.40515607595443726 -0.035665977746248245 0.9135515689849854
f 12/1/12 11/2/11 61/3/61
f 11/4/11 62/5/62 61/6/61
f 2/7/2 1/8/1 63/9/63
f 1/10/1 64/11/64 63/12/63
f 34/13/34 33/14/33 65/15/65
f 33/16/33 66/17/66 65/18/65
f 24/19/24 23/20/23 67/21/67
f 23/22/23 68/23/68 67/24/67
f 2/25/2 63/26/63 69/27/69
f 45/28/45 2/29/2 69/30/69
f 45/31/45 69/32/69 70/33/70
f 47/34/47 45/35/45 70/36/70
f 47/37/47 70/38/70 62/39/62
f 11/40/11 47/41/47 62/42/62
f 24/43/24 67/44/67 71/45/71
f 53/46/53 24/47/24 71/48/71
f 53/49/53 71/50/71 72/51/72
f 55/52/55 53/53/53 72/54/72
f 55/55/55 72/56/72 66/57/66
f 33/58/33 55/59/55 66/60/66
f 73/61/73 74/62/74 75/63/75
f 76/64/76 73/65/73 75/66/75
f 76/67/76 61/68/61 73/69/73
f 61/70/61 62/71/62 73/72/73
f 77/73/77 78/74/78 79/75/79
f 80/76/80 77/77/77 79/78/79
f 80/79/80 63/80/63 77/81/77
f 63/82/63 64/83/64 77/84/77
f 81/85/81 82/86/82 83/87/83
f 84/88/84 81/89/81 83/90/83
f 84/91/84 65/92/65 81/93/81
f 65/94/65 66/95/66 81/96/81
f 85/97/85 86/98/86 87/99/87
f 88/100/88 85/101/85 87/102/87
f 88/103/88 67/104/67 85/105/85
f 67/106/67 68/107/68 85/108/85
f 80/109/80 79/110/79 89/111/89
f 90/112/90 80/113/80 89/114/89
f 80/115/80 90/116/90 63/117/63
f 90/118/90 69/119/69 63/120/63
f 90/121/90 89/122/89 91/123/91
f 70/124/70 69/125/69 90/126/90
f 92/127/92 90/128/90 91/129/91
f 92/130/92 70/131/70 90/132/90
f 92/133/92 91/134/91 74/135/74
f 73/136/73 92/137/92 74/138/74
f 92/139/92 73/140/73 70/141/70
f 73/142/73 62/143/62 70/144/70
f 88/145/88 87/146/87 93/147/93
f 94/148/94 88/149/88 93/150/93
f 88/151/88 94/152/94 67/153/67
f 94/154/94 71/155/71 67/156/67
f 94/157/94 93/158/93 95/159/95
f 72/160/72 71/161/71 94/162/94
f 96/163/96 94/164/94 95/165/95
f 96/166/96 72/167/72 94/168/94
f 96/169/96 95/170/95 82/171/82
f 81/172/81 96/173/96 82/174/82
f 96/175/96 81/176/81 72/177/72
f 81/178/81 66/179/66 72/180/72
f 78/181/78 97/182/97 79/183/79
f 97/184/97 98/185/98 79/186/79
f 97/187/97 99/188/99 98/189/98
f 98/190/98 100/191/100 79/192/79
f 100/193/100 89/194/89 79/195/79
f 89/196/89 100/197/100 91/198/91
f 101/199/101 100/200/100 98/201/98
f 100/202/100 101/203/101 91/204/91
f 99/205/99 102/206/102 98/207/98
f 102/208/102 101/209/101 98/210/98
f 101/211/101 102/212/102 91/213/91
f 102/214/102 99/215/99 75/216/75
f 102/217/102 74/218/74 91/219/91
f 74/220/74 102/221/102 75/222/75
f 86/223/86 103/224/103 87/225/87
f 103/226/103 104/227/104 87/228/87
f 103/229/103 105/230/105 104/231/104
f 104/232/104 106/233/106 87/234/87
f 106/235/106 93/236/93 87/237/87
f 93/238/93 106/239/106 95/240/95
f 107/241/107 106/242/106 104/243/104
f 106/244/106 107/245/107 95/246/95
f 105/247/105 108/248/108 104/249/104
f 108/250/108 107/251/107 104/252/104
f 107/253/107 108/254/108 95/255/95
f 108/256/108 105/257/105 83/258/83
f 108/259/108 82/260/82 95/261/95
f 82/262/82 108/263/108 83/264/83
