# Exported by Lightwave Blender addon
v -78.69483184814453 412.76251220703125 685.9026489257812
v -82.42374420166016 414.827880859375 685.9026489257812
v -78.6948013305664 412.76263427734375 501.7041015625
v -82.42347717285156 414.828369140625 501.70404052734375
v -101.16740417480469 376.0161437988281 496.67095947265625
v -104.70039367675781 377.988037109375 496.6712951660156
v -101.16740417480469 376.01611328125 690.9360961914062
v -104.58256530761719 377.9126892089844 690.9363403320312
v -103.087158203125 373.13592529296875 683.5457763671875
v -105.92374420166016 374.71112060546875 683.80078125
v -78.46087646484375 418.0811462402344 683.5457763671875
v -81.20561981201172 419.6103820800781 683.7982177734375
v -104.49307250976562 373.5997619628906 640.9207153320312
v -79.78022766113281 418.5036926269531 640.9181518554688
v -104.54393768310547 373.52618408203125 638.22607421875
v -79.82562255859375 418.4271240234375 638.2257690429688
v -104.47003173828125 373.6288757324219 593.0101318359375
v -79.75718688964844 418.53277587890625 593.0075073242188
v -104.36949157714844 373.7464904785156 590.3145751953125
v -79.65118408203125 418.6474914550781 590.3142700195312
v -104.46946716308594 373.6368103027344 545.0994873046875
v -79.75662231445312 418.5406494140625 545.0968627929688
v -104.36507415771484 373.806396484375 542.403076171875
v -79.64677429199219 418.7073669433594 542.4027709960938
v -82.12059783935547 420.1136169433594 496.6970520019531
v -106.85490417480469 375.2325744628906 496.7187194824219
v -81.96365356445312 420.0352783203125 503.1364440917969
v -106.85099029541016 375.24090576171875 503.1361389160156
v -57.616722106933594 463.9577941894531 496.67547607421875
v -57.30657958984375 463.7926330566406 503.1374206542969
v -81.97598266601562 420.03948974609375 690.9310302734375
v -57.494407653808594 463.9070129394531 690.92578125
v -81.9590835571289 420.03021240234375 684.7297973632812
v -57.47154235839844 463.89404296875 684.728759765625
v -55.29782485961914 462.37066650390625 640.9154663085938
v -55.337738037109375 462.2912292480469 638.2255249023438
v -55.27476501464844 462.3998107910156 593.0048828125
v -55.16331481933594 462.5115661621094 590.31396484375
v -55.27419662475586 462.4076843261719 545.0942993164062
v -55.15890884399414 462.5714111328125 542.4025268554688
v -78.6944351196289 412.7628173828125 501.7041015625
v -78.6944351196289 412.7627868652344 685.9027709960938
v -82.74044799804688 415.59027099609375 501.7040100097656
v -82.74055480957031 415.59002685546875 685.9026489257812
v -53.82355880737305 461.8551330566406 501.41094970703125
v -53.82355880737305 461.8551330566406 500.54833984375
v -76.32292175292969 421.429443359375 501.41094970703125
v -76.32292175292969 421.429443359375 500.54833984375
v -80.44734954833984 419.7353820800781 501.7040100097656
v -80.12480926513672 418.9704284667969 501.70404052734375
v -80.44744873046875 419.7351379394531 685.9026489257812
v -80.12507629394531 418.96990966796875 685.9026489257812
v -106.4847640991211 374.582275390625 496.6709899902344
v -110.01776123046875 376.55413818359375 496.67132568359375
v -106.4847640991211 374.5822448730469 690.9360961914062
v -109.8999252319336 376.4788513183594 690.9363403320312
v -111.75093078613281 375.0763244628906 694.3724365234375
v -58.35300064086914 471.663330078125 694.3671875
v -111.73999786376953 375.070556640625 688.1671142578125
v -58.33610916137695 471.6539611816406 688.166015625
v -80.89756774902344 418.91046142578125 685.9026489257812
v -80.8974380493164 418.9107360839844 501.7039794921875
v -80.13626098632812 418.9498596191406 685.9026489257812
v -80.13619995117188 418.9499816894531 501.7039794921875
v -78.53498077392578 418.0613098144531 501.7039794921875
v -78.53219604492188 418.0596008300781 685.9026489257812
v -79.46866607666016 418.22625732421875 637.7980346679688
v -104.1876449584961 373.3260192871094 637.7987060546875
v -76.62208557128906 416.74609375 637.6610107421875
v -101.24853515625 371.8006286621094 637.6605834960938
v -79.28715515136719 418.4477233886719 589.88671875
v -104.00568389892578 373.5482177734375 589.8873901367188
v -76.60610961914062 416.77410888671875 589.7501831054688
v -101.23300170898438 371.8279113769531 589.749755859375
v -79.28546142578125 418.5102844238281 541.975830078125
v -104.00390625 373.61090087890625 541.9765014648438
v -76.60282135009766 416.7793273925781 541.8389282226562
v -101.22981262207031 371.8330383300781 541.8385620117188
v -81.18941497802734 419.6043395996094 503.99871826171875
v -56.51152038574219 463.35113525390625 503.99871826171875
v -78.21946716308594 417.9467468261719 503.99871826171875
v -53.82355880737305 461.8551330566406 503.99871826171875
v -78.6044692993164 423.0556335449219 685.9026489257812
v -78.60433959960938 423.0558776855469 501.7039794921875
v -77.83731079101562 423.09173583984375 685.9026489257812
v -77.83724975585938 423.0918884277344 501.7039794921875
v -74.10106658935547 421.0181884765625 501.7039794921875
v -74.10106658935547 421.01800537109375 685.9026489257812
v -76.802978515625 417.1305236816406 501.7041015625
v -76.80300903320312 417.1304016113281 685.9027099609375
v -76.44390106201172 416.9316101074219 501.7041015625
v -76.44390106201172 416.93157958984375 685.9027709960938
v -57.5826416015625 471.234130859375 687.234375
v -110.9866714477539 374.6522521972656 687.2369384765625
v -54.83789825439453 469.7048645019531 686.9819946289062
v -108.15008544921875 373.0769958496094 686.9819946289062
v -55.50190734863281 458.8403625488281 690.9361572265625
v -58.73917007446289 460.6502990722656 690.936279296875
v -55.501808166503906 458.84039306640625 496.6710205078125
v -58.867801666259766 460.70635986328125 496.6712646484375
v -59.07207107543945 461.82470703125 690.9362182617188
v -59.20222091674805 461.8779602050781 496.6712646484375
v -56.1246337890625 467.398681640625 496.6706848144531
v -56.020111083984375 467.2994689941406 690.935791015625
v -51.9810905456543 460.5278015136719 641.2730712890625
v -54.933650970458984 462.1821594238281 641.320068359375
v -76.37635040283203 416.62060546875 641.3018798828125
v -79.41480255126953 418.31536865234375 641.3256225585938
v -51.9810905456543 460.5278015136719 593.3619995117188
v -54.933650970458984 462.1821594238281 593.4090576171875
v -76.37635040283203 416.62060546875 593.3908081054688
v -79.41480255126953 418.31536865234375 593.41455078125
v -51.9810905456543 460.5278015136719 545.450927734375
v -54.933650970458984 462.1821594238281 545.4979858398438
v -76.37635040283203 416.6206359863281 545.479736328125
v -79.41480255126953 418.3153991699219 545.5034790039062
v -57.159820556640625 463.9996032714844 690.9361572265625
v -60.39707565307617 465.8095703125 690.936279296875
v -57.15971374511719 463.9996337890625 496.6710205078125
v -60.52570343017578 465.8656005859375 496.6712951660156
v -60.729976654052734 466.9839172363281 690.9362182617188
v -60.86012649536133 467.0372314453125 496.6712646484375
v -57.78253936767578 472.55792236328125 496.6706848144531
v -57.678016662597656 472.4587707519531 690.935791015625
v -108.92831420898438 372.1756896972656 496.6708679199219
v -108.79702758789062 372.12445068359375 690.9359130859375
v -105.87364196777344 377.655029296875 496.6712951660156
v -105.75670623779297 377.5780334472656 690.9363403320312
v -106.68798828125 375.13519287109375 690.9362182617188
v -106.67706298828125 375.12945556640625 684.7308959960938
v -106.09767150878906 374.82086181640625 503.9987487792969
v -102.84579467773438 373.00152587890625 503.9987487792969
v -104.1264419555664 373.4117126464844 641.3309936523438
v -101.00199890136719 371.67657470703125 641.330810546875
v -104.1264419555664 373.4117126464844 593.419921875
v -101.00199890136719 371.67657470703125 593.4197998046875
v -104.1264419555664 373.4117431640625 545.5088500976562
v -101.00199890136719 371.6766052246094 545.5087280273438
v -56.71797180175781 463.47271728515625 683.7955322265625
v -54.065025329589844 461.989501953125 683.5457763671875
v -54.98011016845703 462.08966064453125 637.7972412109375
v -52.22606658935547 460.65484619140625 637.6614379882812
v -54.79907989501953 462.31036376953125 589.885986328125
v -52.20961380004883 460.6835021972656 589.7506103515625
v -54.79749298095703 462.372802734375 541.97509765625
v -52.20622634887695 460.6888122558594 541.8394165039062
v -114.24566650390625 370.7418518066406 496.6708984375
v -114.11439514160156 370.6905517578125 690.9359130859375
v -111.19100952148438 376.22113037109375 496.67132568359375
v -111.07406616210938 376.1441650390625 690.9363403320312
v -80.04179382324219 414.7474670410156 686.985107421875
v -80.04179382324219 414.74749755859375 500.54833984375
v -102.84579467773438 373.0014953613281 686.985107421875
v -102.84579467773438 373.00152587890625 500.5483703613281
v -53.823665618896484 461.8551025390625 686.985107421875
v -76.32292175292969 421.4294128417969 686.985107421875
vt 0.95654296875 0.71240234375
vt 0.072265625 0.71240234375
vt 0.95654296875 0.4619140625
vt 0.072265625 0.71240234375
vt 0.072265625 0.4619140625
vt 0.95654296875 0.4619140625
vt 0.1583251953125 0.6552734375
vt 0.1583251953125 0.408203125
vt 1.0263671875 0.6552734375
vt 0.1583251953125 0.408203125
vt 1.0263671875 0.408203125
vt 1.0263671875 0.6552734375
vn -0.0978328287601471 0.5131433010101318 0.8527091145515442
vn -0.10228615999221802 0.514792799949646 0.851190984249115
vn -0.12025018781423569 0.630725085735321 0.7666327953338623
vn -0.12560948729515076 0.632178783416748 0.7645732164382935
vn -0.16029970347881317 0.5957973599433899 0.7869749069213867
vn -0.1654384583234787 0.5972638130187988 0.7847968339920044
vn -0.127558633685112 0.4741063117980957 0.8711785078048706
vn -0.1316417008638382 0.4756917953491211 0.8697054982185364
vn -0.13122890889644623 0.47499826550483704 0.8701468706130981
vn -0.13460887968540192 0.4761863946914673 0.8689804077148438
vn -0.09745506197214127 0.5192922353744507 0.8490217924118042
vn -0.10070402920246124 0.5203636884689331 0.8479860424995422
vn -0.13947606086730957 0.4986763298511505 0.8554930090904236
vn -0.1036643460392952 0.5437927842140198 0.832792341709137
vn -0.13997997343540192 0.5001359581947327 0.8545581102371216
vn -0.10403123497962952 0.5453072190284729 0.8317556977272034
vn -0.14742286503314972 0.5272462964057922 0.8368260860443115
vn -0.10922682285308838 0.5731772780418396 0.8121190071105957
vn -0.14774106442928314 0.5290598273277283 0.8356244564056396
vn -0.10940096527338028 0.5750126838684082 0.8107970952987671
vn -0.15614181756973267 0.5584438443183899 0.814714789390564
vn -0.11527883261442184 0.6049513816833496 0.7878735065460205
vn -0.15648074448108673 0.5604701042175293 0.813257098197937
vn -0.11545918881893158 0.6069751381874084 0.7862890362739563
vn -0.12524041533470154 0.6407065391540527 0.7575023770332336
vn -0.16917528212070465 0.5940773487091064 0.7864171266555786
vn -0.12408855557441711 0.6359107494354248 0.7617214322090149
vn -0.16782371699810028 0.5893658399581909 0.7902423739433289
vn -0.08446937054395676 0.6801883578300476 0.7281543612480164
vn -0.08345407247543335 0.6754090785980225 0.7327058911323547
vn -0.10086428374052048 0.5168219208717346 0.8501302599906921
vn -0.06892140954732895 0.5561084151268005 0.8282471299171448
vn -0.10150188207626343 0.5201846361160278 0.848000705242157
vn -0.06932064145803452 0.5595366358757019 0.8259015679359436
vn -0.06980083882808685 0.5836370587348938 0.8090089559555054
vn -0.07004736363887787 0.5851753950119019 0.8078757524490356
vn -0.07330821454524994 0.6132582426071167 0.7864733934402466
vn -0.07336024194955826 0.6150819659233093 0.7850430011749268
vn -0.07709731161594391 0.6449734568595886 0.7603060603141785
vn -0.07714605331420898 0.646959125995636 0.7586120963096619
vn -0.12024961411952972 0.6307252645492554 0.7666326761245728
vn -0.09783230721950531 0.5131434798240662 0.8527089953422546
vn -0.12599235773086548 0.6328367590904236 0.7639657855033875
vn -0.10262517631053925 0.5154666900634766 0.8507421612739563
vn -0.8737839460372925 0.4863140881061554 -4.194316431949119e-07
vn -0.0787821039557457 0.6760221719741821 0.7326578497886658
vn -0.8737841844558716 0.4863138496875763 -3.417636094127374e-07
vn -0.11585687100887299 0.6397225856781006 0.759823739528656
vn -0.12206428498029709 0.636872410774231 0.7612449526786804
vn -0.12167203426361084 0.6362197399139404 0.7618533372879028
vn -0.09954478591680527 0.5193756222724915 0.848728358745575
vn -0.09919856488704681 0.5187042355537415 0.8491793274879456
vn -0.16871914267539978 0.5935046076774597 0.7869473695755005
vn -0.17382752895355225 0.594953715801239 0.784738302230835
vn -0.1342601329088211 0.4722878932952881 0.8711591362953186
vn -0.1383284032344818 0.47386491298675537 0.8696650266647339
vn -0.14020182192325592 0.4705677330493927 0.8711540699005127
vn -0.06934917718172073 0.5605446696281433 0.8252153396606445
vn -0.14114506542682648 0.47377270460128784 0.8692625164985657
vn -0.0697532445192337 0.5639627575874329 0.8228490352630615
vn -0.1001492291688919 0.5186010003089905 0.8491308689117432
vn -0.12283475697040558 0.6360745429992676 0.7617878913879395
vn -0.09921354800462723 0.5186853408813477 0.8491891026496887
vn -0.12169148027896881 0.6361998915672302 0.7618666291236877
vn -0.11939738690853119 0.6355820894241333 0.7627447247505188
vn -0.09730220586061478 0.51798015832901 0.8498404622077942
vn -0.10363388806581497 0.5454025268554688 0.8317427635192871
vn -0.13959920406341553 0.5002130270004272 0.8545753359794617
vn -0.10007969290018082 0.5443316102027893 0.8328789472579956
vn -0.13589513301849365 0.49902841448783875 0.8558639287948608
vn -0.10897599160671234 0.5751342177391052 0.8107680678367615
vn -0.14733360707759857 0.5291653275489807 0.8356296420097351
vn -0.10548820346593857 0.5739066004753113 0.8120982050895691
vn -0.14369645714759827 0.5277957916259766 0.8371277451515198
vn -0.11501827090978622 0.6071268320083618 0.7862365245819092
vn -0.15605925023555756 0.5606081485748291 0.8132429718971252
vn -0.11136266589164734 0.6059001088142395 0.7877076268196106
vn -0.15224742889404297 0.559228777885437 0.8149133324623108
vn -0.12286286056041718 0.6349816918373108 0.7626945972442627
vn -0.08226419985294342 0.6745033264160156 0.7336742877960205
vn -0.11862161755561829 0.6338258385658264 0.7643256187438965
vn -0.0784912034869194 0.6735259890556335 0.7349842190742493
vn -0.09707828611135483 0.522483229637146 0.8471051454544067
vn -0.11892536282539368 0.6400673985481262 0.759058952331543
vn -0.0961373895406723 0.5225634574890137 0.8471629619598389
vn -0.11777684837579727 0.6401874423027039 0.7591366767883301
vn -0.11242229491472244 0.638746976852417 0.7611592411994934
vn -0.0916849821805954 0.5209240317344666 0.8486648797988892
vn -0.11690567433834076 0.6349353194236755 0.7636690139770508
vn -0.09523611515760422 0.5172438025474548 0.8505228161811829
vn -0.11638888716697693 0.6347950100898743 0.7638645172119141
vn -0.09480690956115723 0.5170850157737732 0.8506672382354736
vn -0.06893932819366455 0.5641728639602661 0.8227735757827759
vn -0.14039084315299988 0.47391048073768616 0.8693096041679382
vn -0.06575202196836472 0.5631879568099976 0.823708713054657
vn -0.13703866302967072 0.47273167967796326 0.8704856038093567
vn -0.06676770746707916 0.5519759654998779 0.8311826586723328
vn -0.07055828720331192 0.5533393621444702 0.8299620151519775
vn -0.08180654048919678 0.6763049364089966 0.7320651412010193
vn -0.08657047897577286 0.6775107383728027 0.7304004430770874
vn -0.07090078294277191 0.5543014407157898 0.8292907476425171
vn -0.08695698529481888 0.6784123182296753 0.7295171618461609
vn -0.08201523870229721 0.6830123066902161 0.7257876396179199
vn -0.06700954586267471 0.5589693188667297 0.8264762759208679
vn -0.06569791585206985 0.5820524096488953 0.8104929327964783
vn -0.06932434439659119 0.5832577347755432 0.8093234896659851
vn -0.09937678277492523 0.5420842170715332 0.8344273567199707
vn -0.10316282510757446 0.5434074401855469 0.8331061601638794
vn -0.0690406784415245 0.6116676330566406 0.7880964875221252
vn -0.07284039258956909 0.6128398776054382 0.7868428230285645
vn -0.10476098954677582 0.5714542269706726 0.8139196038246155
vn -0.10873280465602875 0.5727471709251404 0.8124886751174927
vn -0.07262418419122696 0.6434158086776733 0.7620641589164734
vn -0.0766078382730484 0.644537091255188 0.7607253193855286
vn -0.11059118062257767 0.6032570004463196 0.7898420095443726
vn -0.11476073414087296 0.6044991612434387 0.788296103477478
vn -0.0685172751545906 0.5561946630477905 0.8282226920127869
vn -0.07229065895080566 0.5575382709503174 0.8269976377487183
vn -0.08380099385976791 0.6802628636360168 0.7281619310379028
vn -0.08853324502706528 0.6814393401145935 0.7264999747276306
vn -0.07263006269931793 0.5584897994995117 0.8263257145881653
vn -0.088914655148983 0.6823261380195618 0.7256205081939697
vn -0.08398735523223877 0.6868664622306824 0.721914529800415
vn -0.06874539703130722 0.563115119934082 0.8235139846801758
vn -0.1728667914867401 0.5906344652175903 0.7882055640220642
vn -0.1373216211795807 0.4696887135505676 0.8720867037773132
vn -0.16729328036308289 0.5967410206794739 0.7848012447357178
vn -0.13312025368213654 0.4752727746963501 0.8697096109390259
vn -0.13446743786334991 0.4728129804134369 0.8708423972129822
vn -0.13537541031837463 0.4760470390319824 0.8689376711845398
vn -0.16655975580215454 0.5884207487106323 0.7912134528160095
vn -0.16186213493347168 0.5870422124862671 0.7932100296020508
vn -0.1389484405517578 0.4982881546020508 0.8558050990104675
vn -0.13501179218292236 0.49682897329330444 0.8572822213172913
vn -0.14690110087394714 0.5268075466156006 0.8371940851211548
vn -0.14276818931102753 0.5253716707229614 0.8388098478317261
vn -0.15559318661689758 0.5579785704612732 0.8151383996009827
vn -0.15125133097171783 0.5565887689590454 0.816903829574585
vn -0.06849915534257889 0.5597429871559143 0.8258302211761475
vn -0.06539098173379898 0.5587705969810486 0.8267402052879333
vn -0.06963776797056198 0.5852824449539185 0.8078335523605347
vn -0.06624481081962585 0.5843058228492737 0.8088252544403076
vn -0.07292302697896957 0.6152123212814331 0.7849816083908081
vn -0.06959667801856995 0.6141022443771362 0.7861517667770386
vn -0.0766921192407608 0.6471163034439087 0.7585240602493286
vn -0.07320751249790192 0.6460126638412476 0.7598081231117249
vn -0.1812775731086731 0.5882689952850342 0.7880849838256836
vn -0.14401932060718536 0.4678340554237366 0.8720032572746277
vn -0.1756793111562729 0.5944209694862366 0.7847295999526978
vn -0.13980542123317719 0.4734407961368561 0.8696597814559937
vn -0.8775995969772339 0.4793943762779236 7.847140182093426e-08
vn -0.8775995969772339 0.4793943464756012 7.847140892636162e-08
vn -0.8775995373725891 0.4793942868709564 7.847138761007955e-08
vn -0.8775995373725891 0.4793943166732788 7.847140892636162e-08
vn -0.8737848401069641 0.4863126277923584 2.3057069586940315e-09
vn -0.8737850785255432 0.4863123893737793 7.997383022484428e-08
f 151/1/151 152/2/152 153/3/153
f 152/4/152 154/5/154 153/6/153
f 45/7/45 47/8/47 155/9/155
f 47/10/47 156/11/156 155/12/155
