# Exported by Lightwave Blender addon
v -1.5668272972106934 0.01422029733657837 -1.8240854740142822
v 1.5642189979553223 0.01422029733657837 -1.8240857124328613
v -1.5668272972106934 0.01422029733657837 1.7913388013839722
v 1.5642189979553223 0.01422029733657837 1.7913384437561035
v -1.1719319820404053 0.01422029733657837 -1.4610567092895508
v 1.1693238019943237 0.01422029733657837 -1.4610569477081299
v -1.1719319820404053 0.01422029733657837 1.4283099174499512
v 1.1693238019943237 0.01422029733657837 1.428309679031372
v -1.1315938234329224 0.03272923827171326 -1.4140186309814453
v 1.1289856433868408 0.03272923827171326 -1.4140188694000244
v -1.1315938234329224 0.03272923827171326 1.3812718391418457
v 1.1289856433868408 0.03272923827171326 1.3812716007232666
v -1.1315938234329224 0.04191771149635315 -1.4140186309814453
v 1.1289856433868408 0.04191771149635315 -1.4140188694000244
v -1.1315938234329224 0.04191771149635315 1.3812718391418457
v 1.1289856433868408 0.04191771149635315 1.3812716007232666
v -1.9584628343582153 -0.0162523090839386 -2.171682357788086
v 1.947862148284912 -0.0162523090839386 -2.171682834625244
v -1.9584628343582153 -0.0162523090839386 2.1885557174682617
v 1.947862148284912 -0.0162523090839386 2.1885552406311035
v -1.5635675191879272 -0.0162523090839386 -1.8086538314819336
v 1.552966833114624 -0.0162523090839386 -1.8086540699005127
v -1.5635675191879272 -0.0162523090839386 1.8255268335342407
v 1.552966833114624 -0.0162523090839386 1.825526475906372
v -1.5232293605804443 -0.00015425682067871094 -1.761615514755249
v 1.5126285552978516 -0.00015425682067871094 -1.7616157531738281
v -1.5232293605804443 -0.00015425682067871094 1.7784886360168457
v 1.5126285552978516 -0.00015425682067871094 1.7784883975982666
v -1.5232293605804443 0.00783732533454895 -1.761615514755249
v 1.5126285552978516 0.00783732533454895 -1.7616157531738281
v -1.5232293605804443 0.00783732533454895 1.7784886360168457
v 1.5126285552978516 0.00783732533454895 1.7784883975982666
v -1.1558219194412231 0.04396519064903259 -1.5018079280853271
v 1.168005108833313 0.04396519064903259 -1.5018079280853271
v -1.1558219194412231 0.04396519064903259 1.4250037670135498
v 1.168005108833313 0.04396519064903259 1.4250037670135498
v -2.115379571914673 -0.08157885074615479 -2.270472288131714
v -2.103886842727661 -0.09176820516586304 -2.260287046432495
v -2.0923938751220703 -0.09020045399665833 -2.2501018047332764
v -2.057936906814575 -0.06558719277381897 -2.219564437866211
v -2.028618335723877 -0.054305851459503174 -2.1935813426971436
v -1.9983536005020142 -0.05497705936431885 -2.1667592525482178
v -1.9777679443359375 -0.06777486205101013 -2.1485157012939453
v -1.9632092714309692 -0.07036861777305603 -2.135613203048706
v -1.948650598526001 -0.06260755658149719 -2.122710704803467
v -1.9357304573059082 -0.04623273015022278 -2.111260414123535
v -1.9230246543884277 -0.04282209277153015 -2.0999996662139893
v -1.9152485132217407 -0.05191206932067871 -2.0931084156036377
v -1.9028756618499756 -0.05409875512123108 -2.0821430683135986
v -1.8899413347244263 -0.04358986020088196 -2.0706801414489746
v -1.8889555931091309 -0.01967182755470276 -2.0698065757751465
v -2.115379571914673 0.081870436668396 -2.270472526550293
v 2.1152026653289795 -0.08157891035079956 -2.2704737186431885
v 2.1037099361419678 -0.09176826477050781 -2.2602884769439697
v 2.092217206954956 -0.0902005136013031 -2.250103235244751
v 2.0577595233917236 -0.06558722257614136 -2.2195656299591064
v 2.0284411907196045 -0.05430588126182556 -2.193582534790039
v 1.9981763362884521 -0.054977089166641235 -2.1667606830596924
v 1.977590799331665 -0.06777489185333252 -2.148516893386841
v 1.9630320072174072 -0.07036864757537842 -2.1356143951416016
v 1.9484732151031494 -0.06260758638381958 -2.1227118968963623
v 1.9355533123016357 -0.046232759952545166 -2.1112616062164307
v 1.9228472709655762 -0.04282212257385254 -2.100001096725464
v 1.9150712490081787 -0.0519120991230011 -2.093109607696533
v 1.902698278427124 -0.05409875512123108 -2.082144260406494
v 1.8897640705108643 -0.04358986020088196 -2.07068133354187
v 1.8887784481048584 -0.01967182755470276 -2.069807767868042
v 2.1152026653289795 0.08187040686607361 -2.2704737186431885
v 2.1152026653289795 -0.0815783143043518 2.3480281829833984
v 2.1037099361419678 -0.09176766872406006 2.3378429412841797
v 2.092217206954956 -0.09019991755485535 2.327657699584961
v 2.0577595233917236 -0.06558665633201599 2.2971200942993164
v 2.0284411907196045 -0.054305315017700195 2.271136999130249
v 1.9981763362884521 -0.05497649312019348 2.2443151473999023
v 1.977590799331665 -0.06777429580688477 2.226071357727051
v 1.9630320072174072 -0.07036808133125305 2.2131686210632324
v 1.9484732151031494 -0.06260702013969421 2.2002663612365723
v 1.9355533123016357 -0.04623216390609741 2.1888160705566406
v 1.9228472709655762 -0.04282155632972717 2.177555561065674
v 1.9150712490081787 -0.051911503076553345 2.170664072036743
v 1.902698278427124 -0.05409818887710571 2.159698724746704
v 1.8897640705108643 -0.04358929395675659 2.14823579788208
v 1.8887784481048584 -0.019671231508255005 2.147362232208252
v 2.1152026653289795 0.08187100291252136 2.3480281829833984
v -2.1153793334960938 -0.08157828450202942 2.3480286598205566
v -2.103886604309082 -0.09176763892173767 2.337843418121338
v -2.0923938751220703 -0.09019988775253296 2.327658176422119
v -2.057936906814575 -0.0655866265296936 2.2971208095550537
v -2.028618335723877 -0.05430528521537781 2.2711377143859863
v -1.998353362083435 -0.054976463317871094 2.2443156242370605
v -1.9777679443359375 -0.06777429580688477 2.226071834564209
v -1.9632092714309692 -0.07036808133125305 2.213169574737549
v -1.948650598526001 -0.06260699033737183 2.2002668380737305
v -1.9357304573059082 -0.04623216390609741 2.188816547393799
v -1.9230244159698486 -0.042821526527404785 2.177556037902832
v -1.9152485132217407 -0.051911503076553345 2.1706647872924805
v -1.9028756618499756 -0.05409818887710571 2.1596994400024414
v -1.8899413347244263 -0.04358929395675659 2.1482365131378174
v -1.8889555931091309 -0.019671231508255005 2.1473629474639893
v -2.115379571914673 0.08187100291252136 2.3480286598205566
vt 0.99990314245224 9.684989345259964e-05
vt 9.684989345259964e-05 9.694004984339699e-05
vt 9.684989345259964e-05 9.694004984339699e-05
vt 0.99990314245224 9.684989345259964e-05
vt 9.684989345259964e-05 9.694004984339699e-05
vt 9.684989345259964e-05 9.694004984339699e-05
vt 9.684989345259964e-05 0.9965468049049377
vt 0.9999029636383057 0.9965469241142273
vt 0.9999029636383057 0.9965469241142273
vt 0.9999029636383057 0.9965469241142273
vt 0.99990314245224 9.684989345259964e-05
vt 0.99990314245224 9.684989345259964e-05
vt 9.684989345259964e-05 9.694004984339699e-05
vt 9.684989345259964e-05 0.9965468049049377
vt 9.684989345259964e-05 0.9965468049049377
vt 0.99990314245224 9.684989345259964e-05
vt 9.684989345259964e-05 9.694004984339699e-05
vt 9.684989345259964e-05 9.694004984339699e-05
vt 9.684989345259964e-05 0.9965468049049377
vt 0.9999029636383057 0.9965469241142273
vt 0.9999029636383057 0.9965469241142273
vt 0.9999029636383057 0.9965469241142273
vt 0.99990314245224 9.684989345259964e-05
vt 0.99990314245224 9.684989345259964e-05
vt 9.684989345259964e-05 9.694004984339699e-05
vt 9.684989345259964e-05 0.9965468049049377
vt 9.684989345259964e-05 0.9965468049049377
vt 9.684989345259964e-05 0.9965468049049377
vt 0.9999029636383057 0.9965469241142273
vt 0.9999029636383057 0.9965469241142273
vt 0.9999029636383057 0.9965469241142273
vt 0.99990314245224 9.684989345259964e-05
vt 0.99990314245224 9.684989345259964e-05
vt 9.684989345259964e-05 9.694004984339699e-05
vt 9.684989345259964e-05 0.9965468049049377
vt 9.684989345259964e-05 0.9965468049049377
vt 9.684989345259964e-05 9.694004984339699e-05
vt 9.684989345259964e-05 9.694004984339699e-05
vt 9.684989345259964e-05 0.9965468049049377
vt 0.9999029636383057 0.9965469241142273
vt 0.9999029636383057 0.9965469241142273
vt 0.99990314245224 9.684989345259964e-05
vt 9.684989345259964e-05 0.9965468049049377
vt 9.684989345259964e-05 0.9965468049049377
vt 0.9999029636383057 0.9965469241142273
vt 9.684989345259964e-05 9.694004984339699e-05
vt 9.684989345259964e-05 9.694004984339699e-05
vt 9.684989345259964e-05 0.9965468049049377
vt 0.9999029636383057 0.9965469241142273
vt 0.9999029636383057 0.9965469241142273
vt 0.99990314245224 9.684989345259964e-05
vt 9.684989345259964e-05 0.9965468049049377
vt 9.684989345259964e-05 0.9965468049049377
vt 0.9999029636383057 0.9965469241142273
vt 0.99990314245224 9.684989345259964e-05
vt 0.99990314245224 9.684989345259964e-05
vt 9.684989345259964e-05 9.694004984339699e-05
vt 9.684989345259964e-05 9.694004984339699e-05
vt 9.684989345259964e-05 9.694004984339699e-05
vt 9.684989345259964e-05 0.9965468049049377
vt 0.9999029636383057 0.9965469241142273
vt 0.9999029636383057 0.9965469241142273
vt 0.99990314245224 9.684989345259964e-05
vt 9.684989345259964e-05 0.9965468049049377
vt 9.684989345259964e-05 0.9965468049049377
vt 0.9999029636383057 0.9965469241142273
vt 0.99990314245224 9.684989345259964e-05
vt 0.99990314245224 9.684989345259964e-05
vt 9.684989345259964e-05 9.694004984339699e-05
vt 0.99990314245224 9.684989345259964e-05
vt 0.99990314245224 9.684989345259964e-05
vt 9.684989345259964e-05 9.694004984339699e-05
vn 0.0 -1.0 0.0
vn 0.0 -1.0 0.0
vn 0.0 -1.0 0.0
vn 0.0 -1.0 0.0
vn 0.05045994743704796 -0.9973422884941101 0.05255764350295067
vn -0.05046027898788452 -0.9973421692848206 0.05255734547972679
vn 0.05046027898788452 -0.9973421692848206 -0.05255734547972679
vn -0.05045994743704796 -0.9973422884941101 -0.05255764350295067
vn 0.4651351273059845 -0.7716774344444275 0.4337778389453888
vn -0.4651337265968323 -0.7716782689094543 0.4337780177593231
vn 0.4651337265968323 -0.7716782689094543 -0.4337780177593231
vn -0.4651351273059845 -0.7716774344444275 -0.4337778389453888
vn 0.7071078419685364 0.0 0.7071057558059692
vn -0.7071088552474976 0.0 0.7071045637130737
vn 0.7071088552474976 0.0 -0.7071045637130737
vn -0.7071078419685364 0.0 -0.7071057558059692
vn -0.6697000861167908 -0.005557508207857609 -0.7426109313964844
vn 0.6676934957504272 -0.005571010988205671 -0.7444154024124146
vn -0.6668378710746765 -0.005533755756914616 0.7451822757720947
vn 0.6648262143135071 -0.005547087173908949 0.7469773292541504
vn -0.6539756059646606 -0.006797668524086475 -0.756485104560852
vn 0.6514269709587097 -0.00681739766150713 -0.7586807012557983
vn -0.6504959464073181 -0.006761499214917421 0.7594797015190125
vn 0.6479408740997314 -0.0067809149622917175 0.7616603374481201
vn -0.6540708541870117 -6.62374950479716e-05 -0.7564333081245422
vn 0.6514545679092407 -6.643488450208679e-05 -0.7586876153945923
vn -0.6504984498023987 -6.587571260752156e-05 0.7595074772834778
vn 0.6478755474090576 -6.60699006402865e-05 0.7617462277412415
vn -0.6540672183036804 0.003365308977663517 -0.7564290165901184
vn 0.6514508724212646 0.00337533769197762 -0.7586833238601685
vn -0.6504949331283569 0.0033469288609921932 0.7595033645629883
vn 0.6478718519210815 0.0033567938953638077 0.7617418766021729
vn -0.6097406148910522 0.02319333329796791 -0.79226154088974
vn 0.6137545704841614 0.023102499544620514 -0.789158821105957
vn -0.6297571659088135 0.0239547211676836 0.7764226198196411
vn 0.6337375640869141 0.023854684084653854 0.7731801867485046
vn -0.681440532207489 -0.02627950720489025 -0.7314015030860901
vn -0.6810279488563538 -0.029705358669161797 -0.7316546440124512
vn -0.6806843876838684 -0.029343442991375923 -0.7319889068603516
vn -0.6797436475753784 -0.02166367508471012 -0.7331297397613525
vn -0.6788496971130371 -0.018172718584537506 -0.7340523600578308
vn -0.6778448820114136 -0.018648309633135796 -0.7349683046340942
vn -0.6770843863487244 -0.023202570155262947 -0.7355394959449768
vn -0.6765671372413635 -0.02425064705312252 -0.7359814643859863
vn -0.6760990619659424 -0.02172216586768627 -0.7364905476570129
vn -0.6757141351699829 -0.01613866724073887 -0.7369871139526367
vn -0.6752712726593018 -0.01503700390458107 -0.73741614818573
vn -0.6749536395072937 -0.018294356763362885 -0.7376332879066467
vn -0.6744910478591919 -0.019175780937075615 -0.7380339503288269
vn -0.6740556955337524 -0.015546510927379131 -0.7385169267654419
vn -0.6740838885307312 -0.007019996643066406 -0.7386215329170227
vn -0.6814388036727905 0.026373371481895447 -0.7313997745513916
vn 0.6814098358154297 -0.026280540972948074 -0.731430172920227
vn 0.6809970140457153 -0.029706526547670364 -0.7316834330558777
vn 0.6806533336639404 -0.029344601556658745 -0.7320178151130676
vn 0.6797118782997131 -0.021664541214704514 -0.7331591248512268
vn 0.6788175106048584 -0.018173454329371452 -0.734082043170929
vn 0.6778121590614319 -0.01864907518029213 -0.7349985837936401
vn 0.677051305770874 -0.023203525692224503 -0.7355698943138123
vn 0.6765338182449341 -0.024251652881503105 -0.7360121607780457
vn 0.6760653853416443 -0.021723071113228798 -0.736521303653717
vn 0.6756802201271057 -0.01613934524357319 -0.7370180487632751
vn 0.6752371191978455 -0.015037640929222107 -0.7374473810195923
vn 0.6749194860458374 -0.018295133486390114 -0.7376646995544434
vn 0.6744565963745117 -0.019176587462425232 -0.7380654811859131
vn 0.6740209460258484 -0.015547167509794235 -0.7385485768318176
vn 0.6740491390228271 -0.007020293269306421 -0.7386531233787537
vn 0.6814080476760864 0.02637437731027603 -0.7314282655715942
vn 0.6690874695777893 -0.02580510452389717 0.7427355647087097
vn 0.6686188578605652 -0.02916637621819973 0.7430329918861389
vn 0.6682149767875671 -0.028808163478970528 0.7434102892875671
vn 0.6670835614204407 -0.021261854097247124 0.7446793913841248
vn 0.6660268306732178 -0.017830833792686462 0.7457146048545837
vn 0.6648527979850769 -0.018292317166924477 0.7467504739761353
vn 0.663978099822998 -0.02275528758764267 0.7474056482315063
vn 0.6633772850036621 -0.023779839277267456 0.7479072213172913
vn 0.6628211736679077 -0.02129732072353363 0.7484748363494873
vn 0.6623551845550537 -0.015820857137441635 0.7490228414535522
vn 0.6618351340293884 -0.014738981612026691 0.7495045065879822
vn 0.6614724397659302 -0.017930418252944946 0.7497551441192627
vn 0.6609346270561218 -0.0187919270247221 0.7502080798149109
vn 0.6604166030883789 -0.015233168378472328 0.7507448196411133
vn 0.6604348421096802 -0.0068782903254032135 0.7508518695831299
vn 0.6690858006477356 0.02589762583374977 0.7427337169647217
vn -0.6691182851791382 -0.025804128497838974 0.7427078485488892
vn -0.6686498522758484 -0.029165269806981087 0.7430052161216736
vn -0.6682461500167847 -0.02880706638097763 0.7433823347091675
vn -0.6671154499053955 -0.021261027082800865 0.7446510195732117
vn -0.666059136390686 -0.017830131575465202 0.745685875415802
vn -0.6648855209350586 -0.018291587010025978 0.7467212677001953
vn -0.6640112996101379 -0.022754386067390442 0.7473762631416321
vn -0.6634106636047363 -0.02377888932824135 0.7478776574134827
vn -0.6628549098968506 -0.021296456456184387 0.7484449744224548
vn -0.6623891592025757 -0.015820221975445747 0.7489928603172302
vn -0.6618692874908447 -0.014738373458385468 0.7494743466377258
vn -0.661506712436676 -0.017929688096046448 0.749724805355072
vn -0.6609691977500916 -0.018791157752275467 0.7501776814460754
vn -0.6604514122009277 -0.015232542529702187 0.7507142424583435
vn -0.660469651222229 -0.006878008134663105 0.7508212924003601
vn -0.6691166758537292 0.025896655395627022 0.7427060604095459
f 6/3/6 9/3/9 5/3/5
f 2/6/2 5/6/5 1/6/1
f 3/9/3 8/9/8 4/9/4
f 4/12/4 6/12/6 2/12/2
f 1/15/1 7/15/7 3/15/3
f 10/18/10 13/18/13 9/18/9
f 7/21/7 12/21/12 8/21/8
f 8/24/8 10/24/10 6/24/6
f 5/27/5 11/27/11 7/27/7
f 11/30/11 16/30/16 12/30/12
f 12/33/12 14/33/14 10/33/10
f 9/36/9 15/36/15 11/36/11
f 9/39/9 13/39/13 15/39/15
f 12/42/12 16/42/16 14/42/14
f 11/45/11 15/45/15 16/45/16
f 5/48/5 9/48/9 11/48/11
f 8/51/8 12/51/12 10/51/10
f 7/54/7 11/54/11 12/54/12
f 10/57/10 14/57/14 13/57/13
f 1/60/1 5/60/5 7/60/7
f 4/63/4 8/63/8 6/63/6
f 3/66/3 7/66/7 8/66/8
f 2/69/2 6/69/6 5/69/5
f 6/72/6 10/72/10 9/72/9
