# Exported by Lightwave Blender addon
v -1.5668272972106934 0.01422029733657837 -1.8240854740142822
v 1.5642189979553223 0.01422029733657837 -1.8240857124328613
v -1.5668272972106934 0.01422029733657837 1.7913388013839722
v 1.5642189979553223 0.01422029733657837 1.7913384437561035
v -1.1719319820404053 0.01422029733657837 -1.4610567092895508
v 1.1693238019943237 0.01422029733657837 -1.4610569477081299
v -1.1719319820404053 0.01422029733657837 1.4283099174499512
v 1.1693238019943237 0.01422029733657837 1.428309679031372
v -1.1315938234329224 0.03272923827171326 -1.4140186309814453
v 1.1289856433868408 0.03272923827171326 -1.4140188694000244
v -1.1315938234329224 0.03272923827171326 1.3812718391418457
v 1.1289856433868408 0.03272923827171326 1.3812716007232666
v -1.1315938234329224 0.04191771149635315 -1.4140186309814453
v 1.1289856433868408 0.04191771149635315 -1.4140188694000244
v -1.1315938234329224 0.04191771149635315 1.3812718391418457
v 1.1289856433868408 0.04191771149635315 1.3812716007232666
v -1.9584628343582153 -0.0162523090839386 -2.171682357788086
v 1.947862148284912 -0.0162523090839386 -2.171682834625244
v -1.9584628343582153 -0.0162523090839386 2.1885557174682617
v 1.947862148284912 -0.0162523090839386 2.1885552406311035
v -1.5635675191879272 -0.0162523090839386 -1.8086538314819336
v 1.552966833114624 -0.0162523090839386 -1.8086540699005127
v -1.5635675191879272 -0.0162523090839386 1.8255268335342407
v 1.552966833114624 -0.0162523090839386 1.825526475906372
v -1.5232293605804443 -0.00015425682067871094 -1.761615514755249
v 1.5126285552978516 -0.00015425682067871094 -1.7616157531738281
v -1.5232293605804443 -0.00015425682067871094 1.7784886360168457
v 1.5126285552978516 -0.00015425682067871094 1.7784883975982666
v -1.5232293605804443 0.00783732533454895 -1.761615514755249
v 1.5126285552978516 0.00783732533454895 -1.7616157531738281
v -1.5232293605804443 0.00783732533454895 1.7784886360168457
v 1.5126285552978516 0.00783732533454895 1.7784883975982666
v -1.1558219194412231 0.04396519064903259 -1.5018079280853271
v 1.168005108833313 0.04396519064903259 -1.5018079280853271
v -1.1558219194412231 0.04396519064903259 1.4250037670135498
v 1.168005108833313 0.04396519064903259 1.4250037670135498
v -2.115379571914673 -0.08157885074615479 -2.270472288131714
v -2.103886842727661 -0.09176820516586304 -2.260287046432495
v -2.0923938751220703 -0.09020045399665833 -2.2501018047332764
v -2.057936906814575 -0.06558719277381897 -2.219564437866211
v -2.028618335723877 -0.054305851459503174 -2.1935813426971436
v -1.9983536005020142 -0.05497705936431885 -2.1667592525482178
v -1.9777679443359375 -0.06777486205101013 -2.1485157012939453
v -1.9632092714309692 -0.07036861777305603 -2.135613203048706
v -1.948650598526001 -0.06260755658149719 -2.122710704803467
v -1.9357304573059082 -0.04623273015022278 -2.111260414123535
v -1.9230246543884277 -0.04282209277153015 -2.0999996662139893
v -1.9152485132217407 -0.05191206932067871 -2.0931084156036377
v -1.9028756618499756 -0.05409875512123108 -2.0821430683135986
v -1.8899413347244263 -0.04358986020088196 -2.0706801414489746
v -1.8889555931091309 -0.01967182755470276 -2.0698065757751465
v -2.115379571914673 0.081870436668396 -2.270472526550293
v 2.1152026653289795 -0.08157891035079956 -2.2704737186431885
v 2.1037099361419678 -0.09176826477050781 -2.2602884769439697
v 2.092217206954956 -0.0902005136013031 -2.250103235244751
v 2.0577595233917236 -0.06558722257614136 -2.2195656299591064
v 2.0284411907196045 -0.05430588126182556 -2.193582534790039
v 1.9981763362884521 -0.054977089166641235 -2.1667606830596924
v 1.977590799331665 -0.06777489185333252 -2.148516893386841
v 1.9630320072174072 -0.07036864757537842 -2.1356143951416016
v 1.9484732151031494 -0.06260758638381958 -2.1227118968963623
v 1.9355533123016357 -0.046232759952545166 -2.1112616062164307
v 1.9228472709655762 -0.04282212257385254 -2.100001096725464
v 1.9150712490081787 -0.0519120991230011 -2.093109607696533
v 1.902698278427124 -0.05409875512123108 -2.082144260406494
v 1.8897640705108643 -0.04358986020088196 -2.07068133354187
v 1.8887784481048584 -0.01967182755470276 -2.069807767868042
v 2.1152026653289795 0.08187040686607361 -2.2704737186431885
v 2.1152026653289795 -0.0815783143043518 2.3480281829833984
v 2.1037099361419678 -0.09176766872406006 2.3378429412841797
v 2.092217206954956 -0.09019991755485535 2.327657699584961
v 2.0577595233917236 -0.06558665633201599 2.2971200942993164
v 2.0284411907196045 -0.054305315017700195 2.271136999130249
v 1.9981763362884521 -0.05497649312019348 2.2443151473999023
v 1.977590799331665 -0.06777429580688477 2.226071357727051
v 1.9630320072174072 -0.07036808133125305 2.2131686210632324
v 1.9484732151031494 -0.06260702013969421 2.2002663612365723
v 1.9355533123016357 -0.04623216390609741 2.1888160705566406
v 1.9228472709655762 -0.04282155632972717 2.177555561065674
v 1.9150712490081787 -0.051911503076553345 2.170664072036743
v 1.902698278427124 -0.05409818887710571 2.159698724746704
v 1.8897640705108643 -0.04358929395675659 2.14823579788208
v 1.8887784481048584 -0.019671231508255005 2.147362232208252
v 2.1152026653289795 0.08187100291252136 2.3480281829833984
v -2.1153793334960938 -0.08157828450202942 2.3480286598205566
v -2.103886604309082 -0.09176763892173767 2.337843418121338
v -2.0923938751220703 -0.09019988775253296 2.327658176422119
v -2.057936906814575 -0.0655866265296936 2.2971208095550537
v -2.028618335723877 -0.05430528521537781 2.2711377143859863
v -1.998353362083435 -0.054976463317871094 2.2443156242370605
v -1.9777679443359375 -0.06777429580688477 2.226071834564209
v -1.9632092714309692 -0.07036808133125305 2.213169574737549
v -1.948650598526001 -0.06260699033737183 2.2002668380737305
v -1.9357304573059082 -0.04623216390609741 2.188816547393799
v -1.9230244159698486 -0.042821526527404785 2.177556037902832
v -1.9152485132217407 -0.051911503076553345 2.1706647872924805
v -1.9028756618499756 -0.05409818887710571 2.1596994400024414
v -1.8899413347244263 -0.04358929395675659 2.1482365131378174
v -1.8889555931091309 -0.019671231508255005 2.1473629474639893
v -2.115379571914673 0.08187100291252136 2.3480286598205566
vt 0.0 0.0
vt 0.0 0.0
vt 0.0 0.0
vt 0.0 0.0
vt 0.0 0.0
vt 0.0 0.0
vt 0.0 0.0
vt 0.0 0.0
vt 0.0 0.0
vt 0.0 0.0
vt 0.0 0.0
vt 0.0 0.0
vt 0.0 0.0
vt 0.0 0.0
vt 0.0 0.0
vt 0.0 0.0
vt 0.0 0.0
vt 0.0 0.0
vt 0.0 0.0
vt 0.0 0.0
vt 0.0 0.0
vt 0.0 0.0
vt 0.0 0.0
vt 0.0 0.0
vt 0.0 0.0
vt 0.0 0.0
vt 0.0 0.0
vt 0.0 0.0
vt 0.0 0.0
vt 0.0 0.0
vt 0.0 0.0
vt 0.0 0.0
vt 0.0 0.0
vt 0.0 0.0
vt 0.0 0.0
vt 0.0 0.0
vt 0.0 0.0
vt 0.0 0.0
vt 0.0 0.0
vt 0.0 0.0
vt 0.0 0.0
vt 0.0 0.0
vt 0.0 0.0
vt 0.0 0.0
vt 0.0 0.0
vt 0.0 0.0
vt 0.0 0.0
vt 0.0 0.0
vt 0.0 0.0
vt 0.0 0.0
vt 0.0 0.0
vt 0.0 0.0
vt 0.0 0.0
vt 0.0 0.0
vt 0.0 0.0
vt 0.0 0.0
vt 0.0 0.0
vt 0.0 0.0
vt 0.0 0.0
vt 0.0 0.0
vt 0.0 0.0
vt 0.0 0.0
vt 0.0 0.0
vt 0.0 0.0
vt 0.0 0.0
vt 0.0 0.0
vt 0.0 0.0
vt 0.0 0.0
vt 0.0 0.0
vt 0.0 0.0
vt 0.0 0.0
vt 0.0 0.0
vt 0.0 0.0
vt 0.0 0.0
vt 0.0 0.0
vt 0.0 0.0
vt 0.0 0.0
vt 0.0 0.0
vt 0.0 0.0
vt 0.0 0.0
vt 0.0 0.0
vt 0.0 0.0
vt 0.0 0.0
vt 0.0 0.0
vt 0.0 0.0
vt 0.0 0.0
vt 0.0 0.0
vt 0.0 0.0
vt 0.0 0.0
vt 0.0 0.0
vt 0.0 0.0
vt 0.0 0.0
vt 0.0 0.0
vt 0.0 0.0
vt 0.0 0.0
vt 0.0 0.0
vt 0.0 0.0
vt 0.0 0.0
vt 0.0 0.0
vt 0.0 0.0
vt 0.0 0.0
vt 0.0 0.0
vt 0.0 0.0
vt 0.0 0.0
vt 0.0 0.0
vt 0.0 0.0
vt 0.0 0.0
vt 0.0 0.0
vt 0.0 0.0
vt 0.0 0.0
vt 0.0 0.0
vt 0.0 0.0
vt 0.0 0.0
vt 0.0 0.0
vt 0.0 0.0
vt 0.0 0.0
vt 0.0 0.0
vt 0.0 0.0
vt 0.0 0.0
vt 0.0 0.0
vt 0.0 0.0
vt 0.0 0.0
vt 0.0 0.0
vt 0.0 0.0
vt 0.0 0.0
vt 0.0 0.0
vt 0.0 0.0
vt 0.0 0.0
vt 0.0 0.0
vt 0.0 0.0
vt 0.0 0.0
vt 0.0 0.0
vt 0.0 0.0
vt 0.0 0.0
vt 0.0 0.0
vt 0.0 0.0
vt 0.0 0.0
vt 0.0 0.0
vt 0.0 0.0
vt 0.0 0.0
vt 0.0 0.0
vt 0.0 0.0
vt 0.0 0.0
vt 0.0 0.0
vt 0.0 0.0
vt 0.0 0.0
vt 0.0 0.0
vt 0.0 0.0
vt 0.0 0.0
vt 0.0 0.0
vt 0.0 0.0
vt 0.0 0.0
vt 0.0 0.0
vt 0.0 0.0
vt 0.0 0.0
vt 0.0 0.0
vt 0.0 0.0
vt 0.0 0.0
vt 0.0 0.0
vt 0.0 0.0
vt 0.0 0.0
vt 0.0 0.0
vt 0.0 0.0
vt 0.0 0.0
vt 0.0 0.0
vt 0.0 0.0
vt 0.0 0.0
vt 0.0 0.0
vt 0.0 0.0
vt 0.0 0.0
vt 0.0 0.0
vt 0.0 0.0
vt 0.0 0.0
vt 0.0 0.0
vt 0.0 0.0
vt 0.0 0.0
vt 0.0 0.0
vt 0.0 0.0
vt 0.0 0.0
vt 0.0 0.0
vt 0.0 0.0
vt 0.0 0.0
vt 0.0 0.0
vt 0.0 0.0
vt 0.0 0.0
vt 0.0 0.0
vt 0.0 0.0
vt 0.0 0.0
vt 0.0 0.0
vt 0.0 0.0
vt 0.0 0.0
vt 0.0 0.0
vt 0.0 0.0
vt 0.0 0.0
vt 0.0 0.0
vt 0.0 0.0
vt 0.0 0.0
vt 0.0 0.0
vt 0.0 0.0
vt 0.0 0.0
vt 0.0 0.0
vt 0.0 0.0
vt 0.0 0.0
vt 0.0 0.0
vt 0.0 0.0
vt 0.0 0.0
vt 0.0 0.0
vt 0.0 0.0
vt 0.0 0.0
vt 0.0 0.0
vt 0.8459079265594482 -1.7748479843139648
vt 0.9746661186218262 2.024771213531494
vt 0.8459185361862183 2.0247721672058105
vt 0.7797411680221558 -1.727065086364746
vt 0.8459185361862183 2.0247721672058105
vt 0.7804276347160339 2.0171289443969727
vt 0.7145521640777588 -1.6625516414642334
vt 0.7804276347160339 2.0171289443969727
vt 0.7161942720413208 2.0094668865203857
vt 0.6529642939567566 1.985572099685669
vt 0.7145521640777588 -1.6625516414642334
vt 0.7161942720413208 2.0094668865203857
vt 0.5885184407234192 -1.554445505142212
vt 0.6529642939567566 1.985572099685669
vt 0.5911567211151123 1.9656457901000977
vt 0.527498185634613 -1.4933512210845947
vt 0.5911567211151123 1.9656457901000977
vt 0.5307588577270508 1.9452447891235352
vt 0.47158801555633545 1.9317078590393066
vt 0.527498185634613 -1.4933512210845947
vt 0.5307588577270508 1.9452447891235352
vt 0.40911057591438293 -1.3859405517578125
vt 0.47158801555633545 1.9317078590393066
vt 0.413663387298584 1.92240571975708
vt 0.35161155462265015 -1.3359750509262085
vt 0.413663387298584 1.92240571975708
vt 0.35677170753479004 1.9133214950561523
vt 0.29510605335235596 -1.302527904510498
vt 0.35677170753479004 1.9133214950561523
vt 0.3006230592727661 1.9053354263305664
vt 0.23935964703559875 -1.2488023042678833
vt 0.3006230592727661 1.9053354263305664
vt 0.24554970860481262 1.8976104259490967
vt 0.18460237979888916 -1.2146613597869873
vt 0.24554970860481262 1.8976104259490967
vt 0.19121304154396057 1.8931972980499268
vt 0.1306149661540985 -1.1614059209823608
vt 0.19121304154396057 1.8931972980499268
vt 0.13787442445755005 1.8858885765075684
vt 0.07767066359519958 -1.1214179992675781
vt 0.13787442445755005 1.8858885765075684
vt 0.0853593647480011 1.8782762289047241
vt 0.02533385157585144 -1.119288682937622
vt 0.0853593647480011 1.8782762289047241
vt 0.03303375840187073 1.8782027959823608
vt 0.0 0.0
vt 0.0 0.0
vt 0.0 0.0
vt 0.0 0.0
vt 0.0 0.0
vt 0.0 0.0
vt 0.0 0.0
vt 0.0 0.0
vt 0.0 0.0
vt 0.0 0.0
vt 0.0 0.0
vt 0.0 0.0
vt 0.0 0.0
vt 0.0 0.0
vt 0.0 0.0
vt 0.0 0.0
vt 0.0 0.0
vt 0.0 0.0
vt 0.0 0.0
vt 0.0 0.0
vt 0.0 0.0
vt 0.0 0.0
vt 0.0 0.0
vt 0.0 0.0
vt 0.0 0.0
vt 0.0 0.0
vt 0.0 0.0
vt 0.0 0.0
vt 0.0 0.0
vt 0.0 0.0
vt 0.0 0.0
vt 0.0 0.0
vt 0.0 0.0
vt 0.0 0.0
vt 0.0 0.0
vt 0.0 0.0
vt 0.0 0.0
vt 0.0 0.0
vt 0.0 0.0
vt 0.0 0.0
vt 0.0 0.0
vt 0.0 0.0
vt 0.0 0.0
vt 0.0 0.0
vt 0.0 0.0
vt 0.0 0.0
vt 0.0 0.0
vt 0.0 0.0
vt 0.0 0.0
vt 0.0 0.0
vt 0.0 0.0
vt 0.0 0.0
vt 0.0 0.0
vt 0.0 0.0
vt 0.0 0.0
vt 0.0 0.0
vt 0.0 0.0
vt 0.0 0.0
vt 0.0 0.0
vt 0.0 0.0
vt 0.8459079265594482 -1.7748479843139648
vt 0.9746532440185547 -1.7748479843139648
vt 0.9746661186218262 2.024771213531494
vt 0.7797411680221558 -1.727065086364746
vt 0.8459079265594482 -1.7748479843139648
vt 0.8459185361862183 2.0247721672058105
vt 0.7145521640777588 -1.6625516414642334
vt 0.7797411680221558 -1.727065086364746
vt 0.7804276347160339 2.0171289443969727
vt 0.6529642939567566 1.985572099685669
vt 0.6509142518043518 -1.612126350402832
vt 0.7145521640777588 -1.6625516414642334
vt 0.5885184407234192 -1.554445505142212
vt 0.6509142518043518 -1.612126350402832
vt 0.6529642939567566 1.985572099685669
vt 0.527498185634613 -1.4933512210845947
vt 0.5885184407234192 -1.554445505142212
vt 0.5911567211151123 1.9656457901000977
vt 0.47158801555633545 1.9317078590393066
vt 0.46778082847595215 -1.4436829090118408
vt 0.527498185634613 -1.4933512210845947
vt 0.40911057591438293 -1.3859405517578125
vt 0.46778082847595215 -1.4436829090118408
vt 0.47158801555633545 1.9317078590393066
vt 0.35161155462265015 -1.3359750509262085
vt 0.40911057591438293 -1.3859405517578125
vt 0.413663387298584 1.92240571975708
vt 0.29510605335235596 -1.302527904510498
vt 0.35161155462265015 -1.3359750509262085
vt 0.35677170753479004 1.9133214950561523
vt 0.23935964703559875 -1.2488023042678833
vt 0.29510605335235596 -1.302527904510498
vt 0.3006230592727661 1.9053354263305664
vt 0.18460237979888916 -1.2146613597869873
vt 0.23935964703559875 -1.2488023042678833
vt 0.24554970860481262 1.8976104259490967
vt 0.1306149661540985 -1.1614059209823608
vt 0.18460237979888916 -1.2146613597869873
vt 0.19121304154396057 1.8931972980499268
vt 0.07767066359519958 -1.1214179992675781
vt 0.1306149661540985 -1.1614059209823608
vt 0.13787442445755005 1.8858885765075684
vt 0.02533385157585144 -1.119288682937622
vt 0.07767066359519958 -1.1214179992675781
vt 0.0853593647480011 1.8782762289047241
vn -0.651576817035675 0.005913616623729467 -0.7585595846176147
vn 0.6509519219398499 0.005917796865105629 -0.7590958476066589
vn -0.658351480960846 0.005975102540105581 0.7526870369911194
vn 0.6577298641204834 0.005979415029287338 0.753230094909668
vn -0.6256814002990723 0.0075920578092336655 -0.7800418138504028
vn 0.624832808971405 0.007598672527819872 -0.7807216048240662
vn -0.6342931389808655 0.007696553599089384 0.7730544209480286
vn 0.6334483027458191 0.007703446317464113 0.7737466096878052
vn -0.624720573425293 0.01806887611746788 -0.7806392312049866
vn 0.623841404914856 0.01808513142168522 -0.7813416719436646
vn -0.6336218118667603 0.018326327204704285 0.7734258770942688
vn 0.6327465772628784 0.01834329217672348 0.7741416692733765
vn -0.6246553063392639 0.02313915081322193 -0.7805576324462891
vn 0.6237760782241821 0.023159964010119438 -0.7812598347663879
vn -0.633553683757782 0.023468773812055588 0.7733427286148071
vn 0.6326783895492554 0.02349049411714077 0.7740582823753357
vn -0.6697000861167908 -0.005557508207857609 -0.7426109313964844
vn 0.6676934957504272 -0.005571010988205671 -0.7444154024124146
vn -0.6668378710746765 -0.005533755756914616 0.7451822757720947
vn 0.6648262143135071 -0.005547087173908949 0.7469773292541504
vn -0.6539756059646606 -0.006797668524086475 -0.756485104560852
vn 0.6514269709587097 -0.00681739766150713 -0.7586807012557983
vn -0.6504959464073181 -0.006761499214917421 0.7594797015190125
vn 0.6479408740997314 -0.0067809149622917175 0.7616603374481201
vn -0.6540708541870117 -6.62374950479716e-05 -0.7564333081245422
vn 0.6514545679092407 -6.643488450208679e-05 -0.7586876153945923
vn -0.6504984498023987 -6.587571260752156e-05 0.7595074772834778
vn 0.6478755474090576 -6.60699006402865e-05 0.7617462277412415
vn -0.6540672183036804 0.003365308977663517 -0.7564290165901184
vn 0.6514508724212646 0.00337533769197762 -0.7586833238601685
vn -0.6504949331283569 0.0033469288609921932 0.7595033645629883
vn 0.6478718519210815 0.0033567938953638077 0.7617418766021729
vn -0.6097406148910522 0.02319333329796791 -0.79226154088974
vn 0.6137545704841614 0.023102499544620514 -0.789158821105957
vn -0.6297571659088135 0.0239547211676836 0.7764226198196411
vn 0.6337375640869141 0.023854684084653854 0.7731801867485046
vn 0.6504889130592346 0.4011199176311493 0.644955039024353
vn 0.2550192177295685 0.9236416816711426 0.2860962450504303
vn -0.13840778172016144 0.9797118902206421 -0.14494124054908752
vn -0.2834460437297821 0.9073343873023987 -0.31048762798309326
vn -0.13259540498256683 0.97898930311203 -0.15491469204425812
vn 0.08677107095718384 0.9925169944763184 0.08591093122959137
vn 0.23175084590911865 0.9376427531242371 0.2590705454349518
vn -0.004161348566412926 0.9999416470527649 0.009960109367966652
vn -0.3203907310962677 0.8830612897872925 -0.34285953640937805
vn -0.379269540309906 0.8321782946586609 -0.4045170247554779
vn 0.03567773476243019 0.9992650747299194 0.0140181640163064
vn 0.35180193185806274 0.8560501933097839 0.3786996901035309
vn -0.035292722284793854 0.9991711974143982 -0.020277587696909904
vn -0.531316876411438 0.6358961462974548 -0.5597664713859558
vn -0.7049466371536255 0.05488006770610809 -0.707133948802948
vn 0.7071012854576111 1.0060944077849854e-06 0.7071122527122498
vn -0.6504820585250854 0.4011235237121582 0.6449598073959351
vn -0.2550177276134491 0.9236433506011963 0.28609248995780945
vn 0.1384086012840271 0.9797118902206421 -0.14493966102600098
vn 0.28344282507896423 0.907335638999939 -0.3104870915412903
vn 0.13259625434875488 0.9789891242980957 -0.15491430461406708
vn -0.08676960319280624 0.9925170540809631 0.0859122946858406
vn -0.23175227642059326 0.9376435875892639 0.25906628370285034
vn 0.004162072669714689 0.9999416470527649 0.009961775504052639
vn 0.32038748264312744 0.8830609321594238 -0.3428633511066437
vn 0.3792719542980194 0.83217853307724 -0.4045141637325287
vn -0.03567849472165108 0.9992650151252747 0.01401510089635849
vn -0.3518056273460388 0.8560529351234436 0.3786899745464325
vn 0.03529505431652069 0.999171257019043 -0.020278844982385635
vn 0.5313176512718201 0.6358949542045593 -0.5597671270370483
vn 0.7049485445022583 0.05487656593322754 -0.7071322798728943
vn -0.7071067094802856 0.0 0.70710688829422
vn -0.6504846215248108 0.4011213183403015 -0.64495849609375
vn -0.2550189197063446 0.9236419200897217 -0.2860962152481079
vn 0.13840913772583008 0.9797120094299316 0.14493902027606964
vn 0.283441960811615 0.9073359370231628 0.3104870319366455
vn 0.1325966864824295 0.9789890646934509 0.15491437911987305
vn -0.08677040785551071 0.9925171136856079 -0.08591064810752869
vn -0.23175238072872162 0.9376431703567505 -0.25906798243522644
vn 0.004160530865192413 0.9999417662620544 -0.00996042974293232
vn 0.3203880190849304 0.883059561252594 0.34286636114120483
vn 0.3792724907398224 0.8321768045425415 0.40451720356941223
vn -0.035676222294569016 0.9992650151252747 -0.014021070674061775
vn -0.3518071174621582 0.8560521006584167 -0.3786904811859131
vn 0.035294439643621445 0.9991711974143982 0.020277762785553932
vn 0.5313184261322021 0.6358931660652161 0.5597683191299438
vn 0.704947829246521 0.054876502603292465 0.7071330547332764
vn -0.70710688829422 -2.8571225992187442e-15 -0.7071066498756409
vn 0.6504775881767273 0.4011257290840149 -0.6449628472328186
vn 0.2550176978111267 0.9236434102058411 -0.28609248995780945
vn -0.1384095698595047 0.979711651802063 0.14494101703166962
vn -0.28344613313674927 0.9073343276977539 0.31048789620399475
vn -0.13259539008140564 0.9789892435073853 0.15491461753845215
vn 0.08677072823047638 0.9925169944763184 -0.08591136336326599
vn 0.23175428807735443 0.9376426339149475 -0.2590680718421936
vn -0.004160309676080942 0.9999416470527649 -0.00996263325214386
vn -0.3203926384449005 0.883061945438385 0.3428557813167572
vn -0.37926915287971497 0.832177460193634 0.40451881289482117
vn 0.03567811846733093 0.9992650151252747 -0.014016172848641872
vn 0.3518070876598358 0.8560487031936646 -0.3786982297897339
vn -0.035293109714984894 0.999171257019043 0.02027742750942707
vn -0.531315803527832 0.635897159576416 0.5597663521766663
vn -0.7049452066421509 0.054879989475011826 0.7071354389190674
vn 0.7071124911308289 1.0082209200845682e-06 -0.7071011066436768
f 78/3/78 77/3/77 61/3/61
f 61/6/61 77/6/77 76/6/76
f 76/9/76 75/9/75 59/9/59
f 75/12/75 74/12/74 58/12/58
f 58/15/58 74/15/74 73/15/73
f 73/18/73 72/18/72 56/18/56
f 56/21/56 72/21/72 71/21/71
f 71/24/71 70/24/70 54/24/54
f 70/27/70 69/27/69 53/27/53
f 53/30/53 69/30/69 84/30/84
f 67/33/67 66/33/66 50/33/50
f 50/36/50 66/36/66 65/36/65
f 65/39/65 64/39/64 48/39/48
f 64/42/64 63/42/63 47/42/47
f 63/45/63 62/45/62 46/45/46
f 46/48/46 62/48/62 61/48/61
f 61/51/61 60/51/60 44/51/44
f 60/54/60 59/54/59 43/54/43
f 43/57/43 59/57/59 58/57/58
f 58/60/58 57/60/57 41/60/41
f 57/63/57 56/63/56 40/63/40
f 56/66/56 55/66/55 39/66/39
f 55/69/55 54/69/54 38/69/38
f 54/72/54 53/72/53 37/72/37
f 53/75/53 68/75/68 52/75/52
f 53/78/53 52/78/52 37/78/37
f 54/81/54 37/81/37 38/81/38
f 55/84/55 38/84/38 39/84/39
f 56/87/56 39/87/39 40/87/40
f 57/90/57 40/90/40 41/90/41
f 58/93/58 41/93/41 42/93/42
f 43/96/43 58/96/58 42/96/42
f 60/99/60 43/99/43 44/99/44
f 61/102/61 44/102/44 45/102/45
f 46/105/46 61/105/61 45/105/45
f 63/108/63 46/108/46 47/108/47
f 64/111/64 47/111/47 48/111/48
f 65/114/65 48/114/48 49/114/49
f 50/117/50 65/117/65 49/117/49
f 67/120/67 50/120/50 51/120/51
f 53/123/53 84/123/84 68/123/68
f 70/126/70 53/126/53 54/126/54
f 71/129/71 54/129/54 55/129/55
f 56/132/56 71/132/71 55/132/55
f 73/135/73 56/135/56 57/135/57
f 58/138/58 73/138/73 57/138/57
f 75/141/75 58/141/58 59/141/59
f 76/144/76 59/144/59 60/144/60
f 61/147/61 76/147/76 60/147/60
f 78/150/78 61/150/61 62/150/62
f 79/153/79 62/153/62 63/153/63
f 80/156/80 63/156/63 64/156/64
f 65/159/65 80/159/80 64/159/64
f 82/162/82 65/162/65 66/162/66
f 83/165/83 66/165/66 67/165/67
f 85/168/85 84/168/84 69/168/69
f 86/171/86 69/171/69 70/171/70
f 87/174/87 70/174/70 71/174/71
f 72/177/72 87/177/87 71/177/71
f 89/180/89 72/180/72 73/180/73
f 90/183/90 73/183/73 74/183/74
f 75/186/75 90/186/90 74/186/74
f 92/189/92 75/189/75 76/189/76
f 77/192/77 92/192/92 76/192/76
f 94/195/94 77/195/77 78/195/78
f 95/198/95 78/198/78 79/198/79
f 96/201/96 79/201/79 80/201/80
f 97/204/97 80/204/80 81/204/81
f 98/207/98 81/207/81 82/207/82
f 99/210/99 82/210/82 83/210/83
f 37/213/37 100/213/100 85/213/85
f 38/216/38 85/216/85 86/216/86
f 39/219/39 86/219/86 87/219/87
f 88/222/88 39/222/39 87/222/87
f 41/225/41 88/225/88 89/225/89
f 42/228/42 89/228/89 90/228/90
f 91/231/91 42/231/42 90/231/90
f 44/234/44 91/234/91 92/234/92
f 45/237/45 92/237/92 93/237/93
f 46/240/46 93/240/93 94/240/94
f 47/243/47 94/243/94 95/243/95
f 48/246/48 95/246/95 96/246/96
f 49/249/49 96/249/96 97/249/97
f 50/252/50 97/252/97 98/252/98
f 51/255/51 98/255/98 99/255/99
f 79/258/79 78/258/78 62/258/62
f 80/261/80 79/261/79 63/261/63
f 65/264/65 81/264/81 80/264/80
f 82/267/82 81/267/81 65/267/65
f 83/270/83 82/270/82 66/270/66
f 85/273/85 100/273/100 84/273/84
f 86/276/86 85/276/85 69/276/69
f 87/279/87 86/279/86 70/279/70
f 72/282/72 88/282/88 87/282/87
f 89/285/89 88/285/88 72/285/72
f 90/288/90 89/288/89 73/288/73
f 75/291/75 91/291/91 90/291/90
f 92/294/92 91/294/91 75/294/75
f 77/297/77 93/297/93 92/297/92
f 94/300/94 93/300/93 77/300/77
f 95/303/95 94/303/94 78/303/78
f 96/306/96 95/306/95 79/306/79
f 97/309/97 96/309/96 80/309/80
f 98/312/98 97/312/97 81/312/81
f 99/315/99 98/315/98 82/315/82
f 37/318/37 52/318/52 100/318/100
f 38/321/38 37/321/37 85/321/85
f 39/324/39 38/324/38 86/324/86
f 88/327/88 40/327/40 39/327/39
f 41/330/41 40/330/40 88/330/88
f 42/333/42 41/333/41 89/333/89
f 91/336/91 43/336/43 42/336/42
f 44/339/44 43/339/43 91/339/91
f 45/342/45 44/342/44 92/342/92
f 46/345/46 45/345/45 93/345/93
f 47/348/47 46/348/46 94/348/94
f 48/351/48 47/351/47 95/351/95
f 49/354/49 48/354/48 96/354/96
f 50/357/50 49/357/49 97/357/97
f 51/360/51 50/360/50 98/360/98
