# Exported by Lightwave Blender addon
v -2.14028263092041 -0.1680452823638916 -0.593293309211731
v -2.14028263092041 0.1680452823638916 -0.593293309211731
v 2.14028263092041 0.1680452823638916 -0.593293309211731
v 2.14028263092041 -0.1680452823638916 -0.593293309211731
v -2.14028263092041 -0.1680452823638916 0.1131080687046051
v -2.14028263092041 -0.10851049423217773 0.17264294624328613
v -2.14028263092041 -0.16006922721862793 0.14287549257278442
v -2.14028263092041 -0.13827776908874512 0.1646667718887329
v 2.14028263092041 -0.10851049423217773 0.17264294624328613
v 2.14028263092041 -0.1680452823638916 0.11310809850692749
v 2.14028263092041 -0.13827776908874512 0.1646668016910553
v 2.14028263092041 -0.16006922721862793 0.1428755223751068
v -2.14028263092041 0.10851049423217773 0.17264294624328613
v -2.14028263092041 0.1680452823638916 0.11310809850692749
v -2.14028263092041 0.13827776908874512 0.1646668016910553
v -2.14028263092041 0.16006922721862793 0.1428755223751068
v 2.14028263092041 0.1680452823638916 0.1131080687046051
v 2.14028263092041 0.10851049423217773 0.17264294624328613
v 2.14028263092041 0.16006922721862793 0.14287549257278442
v 2.14028263092041 0.13827776908874512 0.1646667718887329
vt 0.9995454549789429 0.2679142653942108
vt 0.00045368296559900045 0.21726179122924805
vt 0.9995452165603638 0.21726101636886597
vt 0.0008327519753947854 0.4851018190383911
vt 0.9999248385429382 0.5635448694229126
vt 0.000832863268442452 0.5635460615158081
vt 0.00045368296559900045 0.21726179122924805
vt 0.9994186758995056 0.19982397556304932
vt 0.9995452165603638 0.21726101636886597
vt 0.00032741937320679426 0.19982466101646423
vt 0.9992921352386475 0.18238690495491028
vt 0.9994186758995056 0.19982397556304932
vt 0.0002012113982345909 0.18238753080368042
vt 0.9991657137870789 0.16494983434677124
vt 0.9992921352386475 0.18238690495491028
vt 7.505908433813602e-05 0.1649504005908966
vt 0.9991652965545654 7.505908433813602e-05
vt 0.9991657137870789 0.16494983434677124
vt 0.9995454549789429 0.2679142653942108
vt 0.0005799465579912066 0.28535255789756775
vt 0.00045368296559900045 0.2679154574871063
vt 0.9996718764305115 0.28535130620002747
vt 0.0007062101503834128 0.3027896583080292
vt 0.0005799465579912066 0.28535255789756775
vt 0.9997981786727905 0.3027883768081665
vt 0.0008325293892994523 0.3202267587184906
vt 0.0007062101503834128 0.3027896583080292
vt 0.9999245405197144 0.32022541761398315
vt 0.0008327519753947854 0.4851018190383911
vt 0.0008325293892994523 0.3202267587184906
vt 0.9995454549789429 0.2679142653942108
vt 0.00045368296559900045 0.2679154574871063
vt 0.00045368296559900045 0.21726179122924805
vt 0.0008327519753947854 0.4851018190383911
vt 0.9999247193336487 0.4851008355617523
vt 0.9999248385429382 0.5635448694229126
vt 0.00045368296559900045 0.21726179122924805
vt 0.00032741937320679426 0.19982466101646423
vt 0.9994186758995056 0.19982397556304932
vt 0.00032741937320679426 0.19982466101646423
vt 0.0002012113982345909 0.18238753080368042
vt 0.9992921352386475 0.18238690495491028
vt 0.0002012113982345909 0.18238753080368042
vt 7.505908433813602e-05 0.1649504005908966
vt 0.9991657137870789 0.16494983434677124
vt 7.505908433813602e-05 0.1649504005908966
vt 7.505908433813602e-05 7.505908433813602e-05
vt 0.9991652965545654 7.505908433813602e-05
vt 0.9995454549789429 0.2679142653942108
vt 0.9996718764305115 0.28535130620002747
vt 0.0005799465579912066 0.28535255789756775
vt 0.9996718764305115 0.28535130620002747
vt 0.9997981786727905 0.3027883768081665
vt 0.0007062101503834128 0.3027896583080292
vt 0.9997981786727905 0.3027883768081665
vt 0.9999245405197144 0.32022541761398315
vt 0.0008325293892994523 0.3202267587184906
vt 0.9999245405197144 0.32022541761398315
vt 0.9999247193336487 0.4851008355617523
vt 0.0008327519753947854 0.4851018190383911
vn 0.0 -0.7071067690849304 -0.7071067094802856
vn 0.0 0.7070975303649902 -0.7071159482002258
vn 0.0 0.7071067690849304 -0.7071067094802856
vn 0.0 -0.7070975303649902 -0.7071159482002258
vn -9.087484098557752e-10 -0.991445004940033 0.13052530586719513
vn -3.375953960826905e-09 -0.1305263340473175 0.9914448857307434
vn -3.481292143447945e-09 -0.8660255074501038 0.4999997019767761
vn -6.029313048827589e-09 -0.4999995827674866 0.8660256266593933
vn 0.0 -0.1305266171693802 0.9914447665214539
vn -9.455740634933818e-10 -0.9914450645446777 0.13052497804164886
vn -2.5284014881776784e-09 -0.49999794363975525 0.8660265207290649
vn -3.4833553819169083e-09 -0.8660247921943665 0.500001072883606
vn 0.0 0.1305266171693802 0.9914447665214539
vn 9.455740634933818e-10 0.9914450645446777 0.13052497804164886
vn 2.5284014881776784e-09 0.49999794363975525 0.8660265207290649
vn 3.4833553819169083e-09 0.8660247921943665 0.500001072883606
vn 9.087484098557752e-10 0.991445004940033 0.13052530586719513
vn 3.375953960826905e-09 0.1305263340473175 0.9914448857307434
vn 3.481292143447945e-09 0.8660255074501038 0.4999997019767761
vn 6.029313048827589e-09 0.4999995827674866 0.8660256266593933
f 18/3/18 6/3/6 9/3/9
f 2/6/2 4/6/4 1/6/1
f 6/9/6 11/9/11 9/9/9
f 8/12/8 12/12/12 11/12/11
f 7/15/7 10/15/10 12/15/12
f 5/18/5 4/18/4 10/18/10
f 18/21/18 15/21/15 13/21/13
f 20/24/20 16/24/16 15/24/15
f 19/27/19 14/27/14 16/27/16
f 17/30/17 2/30/2 14/30/14
f 18/33/18 13/33/13 6/33/6
f 2/36/2 3/36/3 4/36/4
f 6/39/6 8/39/8 11/39/11
f 8/42/8 7/42/7 12/42/12
f 7/45/7 5/45/5 10/45/10
f 5/48/5 1/48/1 4/48/4
f 18/51/18 20/51/20 15/51/15
f 20/54/20 19/54/19 16/54/16
f 19/57/19 17/57/17 14/57/14
f 17/60/17 3/60/3 2/60/2
