# Exported by Lightwave Blender addon
v -2.658869743347168 -1.954592227935791 -9.03811264038086
v -2.608869791030884 -1.9651737213134766 -9.087449073791504
v -2.658869743347168 -0.6959974765777588 -9.13431167602539
v -2.608869791030884 -0.6460222005844116 -9.138253211975098
v -2.608869791030884 -0.6962034106254578 -9.184441566467285
v -0.3212239742279053 -0.6460222005844116 -9.138253211975098
v -0.2712240219116211 -0.6959974765777588 -9.13431167602539
v -0.3212239742279053 -0.6962034106254578 -9.184441566467285
v -0.3212239742279053 -1.9651737213134766 -9.087449073791504
v -0.2712240219116211 -1.954592227935791 -9.03811264038086
v -2.608869791030884 -0.8266797065734863 -3.7791547775268555
v -2.658869743347168 -0.8371650576591492 -3.8280434608459473
v -2.658869743347168 -0.6615819334983826 -3.866443634033203
v -2.608869791030884 -0.6601637601852417 -3.8155720233917236
v -2.608869791030884 -0.6116449236869812 -3.876253604888916
v -0.3212239742279053 -0.6116449236869812 -3.876253604888916
v -0.3212239742279053 -0.6601637601852417 -3.8155720233917236
v -0.2712240219116211 -0.6615819334983826 -3.866443634033203
v -0.2712240219116211 -0.8371650576591492 -3.8280434608459473
v -0.3212239742279053 -0.8266797065734863 -3.7791547775268555
v 0.2712242603302002 -0.8155519366264343 -3.8314619064331055
v 0.3212242126464844 -0.8045664429664612 -3.7822136878967285
v 0.2712242603302002 0.3683096468448639 -4.269272804260254
v 0.3212242126464844 0.41536834836006165 -4.28654670715332
v 0.3212242126464844 0.3890547454357147 -4.223633766174316
v 2.608870029449463 0.41536834836006165 -4.28654670715332
v 2.658869981765747 0.3683096468448639 -4.269272804260254
v 2.608870029449463 0.3890547454357147 -4.223633766174316
v 2.608870029449463 -0.8045664429664612 -3.7822136878967285
v 2.658869981765747 -0.8155519366264343 -3.8314619064331055
v 0.3212246894836426 -1.9865456819534302 -9.081001281738281
v 0.2712247371673584 -1.975659728050232 -9.032200813293457
v 0.2712247371673584 -1.8000720739364624 -9.070578575134277
v 0.3212246894836426 -1.8200253248214722 -9.117398262023926
v 0.3212246894836426 -1.750597596168518 -9.082503318786621
v 2.608870506286621 -1.750597596168518 -9.082503318786621
v 2.608870506286621 -1.8200252056121826 -9.117398262023926
v 2.6588704586029053 -1.8000718355178833 -9.070578575134277
v 2.6588704586029053 -1.975659728050232 -9.03219985961914
v 2.608870506286621 -1.9865456819534302 -9.081001281738281
vn -0.7237339019775391 -0.6639127731323242 -0.18822593986988068
vn -0.3036980926990509 -0.7274747490882874 -0.615262508392334
vn -0.8796014189720154 0.32216525077819824 -0.3500157594680786
vn -0.3442156910896301 0.865371823310852 -0.3642076849937439
vn -0.34421011805534363 0.2913723886013031 -0.8925365805625916
vn 0.34421011805534363 0.8653751611709595 -0.3642050325870514
vn 0.8796014189720154 0.32216522097587585 -0.3500157594680786
vn 0.34420982003211975 0.29136884212493896 -0.8925378322601318
vn 0.30369940400123596 -0.7274785041809082 -0.6152573823928833
vn 0.7237429618835449 -0.6639012098312378 -0.18823249638080597
vn -0.29727619886398315 -0.46420401334762573 0.8343509435653687
vn -0.717449426651001 -0.5532068014144897 0.42335373163223267
vn -0.8681116104125977 0.3876809775829315 0.30997663736343384
vn -0.33769598603248596 0.4760465919971466 0.8119981288909912
vn -0.33769580721855164 0.8968428373336792 0.2857174575328827
vn 0.33770138025283813 0.8968402147293091 0.2857193946838379
vn 0.33769312500953674 0.47604718804359436 0.8119990825653076
vn 0.8681116104125977 0.38768094778060913 0.30997663736343384
vn 0.7174408435821533 -0.5532187819480896 0.42335274815559387
vn 0.2972778379917145 -0.46420732140541077 0.8343484401702881
vn -0.7237223386764526 -0.5247249603271484 0.4482073187828064
vn -0.30369117856025696 -0.4042196273803711 0.862773597240448
vn -0.87961345911026 0.43884706497192383 0.18355797231197357
vn -0.3442172110080719 0.9383995532989502 -0.030343979597091675
vn -0.3442225754261017 0.6373239159584045 0.6894410848617554
vn 0.3442113995552063 0.9384015202522278 -0.030347440391778946
vn 0.8796132802963257 0.4388470947742462 0.18355803191661835
vn 0.34422245621681213 0.6373209357261658 0.689443826675415
vn 0.30369243025779724 -0.4042251706123352 0.8627704381942749
vn 0.7237311601638794 -0.5247116684913635 0.4482085108757019
vn -0.29728418588638306 -0.7701174020767212 -0.5643946528434753
vn -0.7174596190452576 -0.6794205904006958 -0.153750479221344
vn -0.8681003451347351 0.22291234135627747 -0.44352200627326965
vn -0.3376915454864502 0.09369547665119171 -0.9365818500518799
vn -0.3376833200454712 0.6956784129142761 -0.6340358853340149
vn 0.3376885652542114 0.6956754326820374 -0.6340363621711731
vn 0.33768925070762634 0.09369529038667679 -0.9365826845169067
vn 0.8681002855300903 0.22291195392608643 -0.44352224469184875
vn 0.7174513339996338 -0.6794316172599792 -0.15374086797237396
vn 0.2972891926765442 -0.7701172232627869 -0.5643923282623291
f 5//5 9//9 2//2
f 18//18 10//10 7//7
f 17//17 11//11 20//20
f 16//16 4//4 15//15
f 2//2 9//9 10//10
f 3//3 4//4 5//5
f 6//6 7//7 8//8
f 13//13 14//14 15//15
f 16//16 17//17 18//18
f 14//14 12//12 11//11
f 15//15 3//3 13//13
f 5//5 1//1 3//3
f 17//17 15//15 14//14
f 7//7 16//16 18//18
f 5//5 6//6 8//8
f 17//17 19//19 18//18
f 8//8 10//10 9//9
f 13//13 1//1 12//12
f 29//29 25//25 22//22
f 38//38 30//30 39//39
f 31//31 37//37 40//40
f 24//24 36//36 35//35
f 32//32 31//31 40//40
f 23//23 25//25 24//24
f 26//26 28//28 27//27
f 33//33 35//35 34//34
f 36//36 38//38 37//37
f 32//32 34//34 31//31
f 35//35 23//23 24//24
f 25//25 21//21 22//22
f 35//35 37//37 34//34
f 36//36 27//27 38//38
f 26//26 25//25 28//28
f 37//37 39//39 40//40
f 30//30 28//28 29//29
f 21//21 33//33 32//32
f 5//5 8//8 9//9
f 18//18 19//19 10//10
f 17//17 14//14 11//11
f 16//16 6//6 4//4
f 10//10 19//19 12//12
f 19//19 20//20 12//12
f 20//20 11//11 12//12
f 12//12 1//1 10//10
f 1//1 2//2 10//10
f 14//14 13//13 12//12
f 15//15 4//4 3//3
f 5//5 2//2 1//1
f 17//17 16//16 15//15
f 7//7 6//6 16//16
f 5//5 4//4 6//6
f 17//17 20//20 19//19
f 8//8 7//7 10//10
f 13//13 3//3 1//1
f 29//29 28//28 25//25
f 38//38 27//27 30//30
f 31//31 34//34 37//37
f 24//24 26//26 36//36
f 40//40 39//39 32//32
f 39//39 30//30 32//32
f 30//30 29//29 22//22
f 22//22 21//21 30//30
f 21//21 32//32 30//30
f 32//32 33//33 34//34
f 35//35 33//33 23//23
f 25//25 23//23 21//21
f 35//35 36//36 37//37
f 36//36 26//26 27//27
f 26//26 24//24 25//25
f 37//37 38//38 39//39
f 30//30 27//27 28//28
f 21//21 23//23 33//33
