# Exported by Lightwave Blender addon
v 7.316542394164571e-08 2.0 0.0
v -1.0165824890136719 2.0 1.9952831268310547
v 0.7247896790504456 1.5 0.0
v -0.391145259141922 1.5 2.0303964614868164
v 0.7247896194458008 0.4999999403953552 0.0
v -0.39114537835121155 0.4999999403953552 2.0303964614868164
v 0.0 0.0 0.0
v -1.016582727432251 0.0 1.9952831268310547
v -0.724789559841156 0.5000001192092896 0.0
v -1.6420201063156128 0.5000001192092896 1.960170030593872
v -0.724789559841156 1.4999998807907104 0.0
v -1.6420201063156128 1.4999998807907104 1.960170030593872
v -0.3862651288509369 2.0 0.3333333730697632
v -0.6069881319999695 2.0 0.6666667461395264
v -0.9564661383628845 2.0 1.0
v -0.8461046814918518 2.0 1.3333333730697632
v -0.6756267547607422 2.0 1.6713835000991821
v 0.16588957607746124 1.5 1.718627691268921
v 0.01992068625986576 1.5 1.3333332538604736
v -0.0904407948255539 1.5 1.0
v 0.2590373158454895 1.5 0.6666666269302368
v 0.4797603189945221 1.5 0.3333333134651184
v 0.1658894568681717 0.4999999403953552 1.718627691268921
v 0.01992056705057621 0.4999999403953552 1.3333332538604736
v -0.09044091403484344 0.4999999403953552 1.0
v 0.2590372562408447 0.4999999403953552 0.6666666269302368
v 0.4797602593898773 0.4999999403953552 0.3333333134651184
v -0.6756269335746765 0.0 1.6713833808898926
v -0.8461049199104309 0.0 1.3333332538604736
v -0.9564663767814636 0.0 1.0
v -0.606988251209259 0.0 0.6666666269302368
v -0.38626521825790405 0.0 0.3333333134651184
v -1.5171432495117188 0.5000001192092896 1.6241391897201538
v -1.7121303081512451 0.5000001192092896 1.3333332538604736
v -1.8224917650222778 0.5000001192092896 1.0
v -1.4730136394500732 0.5000001192092896 0.6666666269302368
v -1.2522906064987183 0.5000001192092896 0.3333333134651184
v -1.5171432495117188 1.4999998807907104 1.6241391897201538
v -1.7121303081512451 1.4999998807907104 1.3333332538604736
v -1.8224917650222778 1.4999998807907104 1.0
v -1.4730136394500732 1.4999998807907104 0.6666666269302368
v -1.2522906064987183 1.4999998807907104 0.3333333134651184
vn 0.2159378081560135 0.8418734669685364 -0.49459072947502136
vn -0.2133702039718628 0.8313978314399719 0.5130797624588013
vn 0.8432972431182861 0.37323030829429626 -0.3867153823375702
vn 0.2853473424911499 0.2816968262195587 0.9160916209220886
vn 0.8432869911193848 -0.37323835492134094 -0.3867303431034088
vn 0.285343199968338 -0.2816943824291229 0.916093647480011
vn 0.2159377783536911 -0.8418734073638916 -0.494590699672699
vn -0.21337036788463593 -0.8313977718353271 0.5130796432495117
vn -0.3304823935031891 -0.2918550372123718 -0.8975533843040466
vn -0.8111303448677063 -0.3466978967189789 0.47102874517440796
vn -0.33048415184020996 0.2918563783168793 -0.8975523114204407
vn -0.8111350536346436 0.3466882109642029 0.4710278809070587
vn -0.03902437910437584 0.9923980832099915 -0.1167183518409729
vn 0.025298582389950752 0.997689425945282 0.06305412203073502
vn -0.1677904725074768 0.9803528785705566 -0.10370361804962158
vn -0.02736307866871357 0.9992347359657288 0.027952376753091812
vn 0.20705918967723846 0.9696217775344849 0.13023123145103455
vn 0.8589550852775574 0.4192180335521698 0.2940278947353363
vn 0.8220826387405396 0.4855695068836212 -0.2973252534866333
vn 0.7812650203704834 0.5756073594093323 0.24145616590976715
vn 0.6963045597076416 0.4405960440635681 0.5665996670722961
vn 0.7280769348144531 0.4362010359764099 0.5288029909133911
vn 0.8589618802070618 -0.41921117901802063 0.2940179705619812
vn 0.8220831155776978 -0.48556914925575256 -0.2973247468471527
vn 0.7812599539756775 -0.575609028339386 0.24146831035614014
vn 0.6963068246841431 -0.4405944049358368 0.5665979981422424
vn 0.7280763983726501 -0.4362013041973114 0.5288034677505493
vn 0.2070590853691101 -0.9696218371391296 0.13023117184638977
vn -0.027363251894712448 -0.9992347359657288 0.027952468022704124
vn -0.16779062151908875 -0.9803528785705566 -0.10370359569787979
vn 0.025298459455370903 -0.9976893663406372 0.06305405497550964
vn -0.03902439773082733 -0.9923981428146362 -0.11671841889619827
vn -0.8337263464927673 -0.5467533469200134 0.07720907032489777
vn -0.7988789081573486 -0.46539825201034546 0.3810471296310425
vn -0.8765996098518372 -0.4351344108581543 -0.20550259947776794
vn -0.6740959286689758 -0.4506074786186218 -0.5852755904197693
vn -0.6522148251533508 -0.42089736461639404 -0.6304451823234558
vn -0.8337249755859375 0.546753466129303 0.07722207903862
vn -0.7988807559013367 0.46539825201034546 0.38104328513145447
vn -0.8765943646430969 0.4351366460323334 -0.20551984012126923
vn -0.6740982532501221 0.45060601830482483 -0.5852740406990051
vn -0.65221107006073 0.42090338468551636 -0.6304451823234558
f 17//17 4//4 18//18
f 4//4 23//23 18//18
f 6//6 28//28 23//23
f 8//8 33//33 28//28
f 10//10 8//8 6//6
f 38//38 2//2 17//17
f 10//10 38//38 33//33
f 9//9 11//11 3//3
f 1//1 22//22 3//3
f 13//13 21//21 22//22
f 14//14 20//20 21//21
f 16//16 20//20 15//15
f 17//17 19//19 16//16
f 22//22 5//5 3//3
f 21//21 27//27 22//22
f 20//20 26//26 21//21
f 19//19 25//25 20//20
f 18//18 24//24 19//19
f 27//27 7//7 5//5
f 26//26 32//32 27//27
f 25//25 31//31 26//26
f 25//25 29//29 30//30
f 24//24 28//28 29//29
f 32//32 9//9 7//7
f 31//31 37//37 32//32
f 30//30 36//36 31//31
f 30//30 34//34 35//35
f 29//29 33//33 34//34
f 11//11 13//13 1//1
f 42//42 14//14 13//13
f 41//41 15//15 14//14
f 39//39 15//15 40//40
f 38//38 16//16 39//39
f 37//37 11//11 9//9
f 36//36 42//42 37//37
f 35//35 41//41 36//36
f 34//34 40//40 35//35
f 33//33 39//39 34//34
f 17//17 2//2 4//4
f 4//4 6//6 23//23
f 6//6 8//8 28//28
f 8//8 10//10 33//33
f 6//6 4//4 12//12
f 4//4 2//2 12//12
f 12//12 10//10 6//6
f 38//38 12//12 2//2
f 10//10 12//12 38//38
f 11//11 1//1 3//3
f 3//3 5//5 9//9
f 5//5 7//7 9//9
f 1//1 13//13 22//22
f 13//13 14//14 21//21
f 14//14 15//15 20//20
f 16//16 19//19 20//20
f 17//17 18//18 19//19
f 22//22 27//27 5//5
f 21//21 26//26 27//27
f 20//20 25//25 26//26
f 19//19 24//24 25//25
f 18//18 23//23 24//24
f 27//27 32//32 7//7
f 26//26 31//31 32//32
f 25//25 30//30 31//31
f 25//25 24//24 29//29
f 24//24 23//23 28//28
f 32//32 37//37 9//9
f 31//31 36//36 37//37
f 30//30 35//35 36//36
f 30//30 29//29 34//34
f 29//29 28//28 33//33
f 11//11 42//42 13//13
f 42//42 41//41 14//14
f 41//41 40//40 15//15
f 39//39 16//16 15//15
f 38//38 17//17 16//16
f 37//37 42//42 11//11
f 36//36 41//41 42//42
f 35//35 40//40 41//41
f 34//34 39//39 40//40
f 33//33 38//38 39//39
