# Exported by Lightwave Blender addon
v 6.450636647059582e-08 -3.3983559608459473 -1.0171111822128296
v -6.450682121794671e-08 -3.306016683578491 -1.0171113014221191
v 2.9423972591757774e-08 -3.3669369220733643 -0.9286054372787476
v -2.9425336833810434e-08 -3.337435245513916 -0.9286054968833923
v -0.07664817571640015 -3.3669371604919434 -0.9728583097457886
v -0.07664822787046432 -3.337435483932495 -0.9728583693504333
v -0.07664816826581955 -3.3669373989105225 -1.0613640546798706
v -0.07664822041988373 -3.337435722351074 -1.0613640546798706
v 3.716195351444185e-08 -3.3669371604919434 -1.105616807937622
v -2.168735591112636e-08 -3.337435483932495 -1.105616807937622
v 0.07664822787046432 -3.3669369220733643 -1.061363935470581
v 0.07664817571640015 -3.337435245513916 -1.061363935470581
v 0.07664822787046432 -3.3669369220733643 -0.9728583097457886
v 0.07664817571640015 -3.337435245513916 -0.9728583693504333
vn 2.2401861770049436e-06 -1.0 9.73756073108234e-07
vn -2.1608602764899842e-06 1.0 -1.739629283292743e-06
vn 9.008178949443391e-07 -0.5034810900688171 0.8640063405036926
vn -9.158036391454516e-07 0.5034694075584412 0.8640130162239075
vn -0.7482483386993408 -0.5034754872322083 0.43201491236686707
vn -0.7482603192329407 0.50347501039505 0.43199461698532104
vn -0.748258113861084 -0.5034773349761963 -0.43199583888053894
vn -0.7482501268386841 0.5034729242324829 -0.4320146441459656
vn -8.512594831699971e-06 -0.5034751892089844 -0.8640097379684448
vn 9.488463547313586e-06 0.50347501039505 -0.8640097379684448
vn 0.748250424861908 -0.5034733414649963 -0.4320136606693268
vn 0.7482583522796631 0.5034769177436829 -0.43199580907821655
vn 0.7482590675354004 -0.503465473651886 0.43200773000717163
vn 0.7482495307922363 0.5034849047660828 0.43200182914733887
f 1//1 3//3 5//5
f 2//2 6//6 4//4
f 3//3 6//6 5//5
f 1//1 5//5 7//7
f 2//2 8//8 6//6
f 5//5 8//8 7//7
f 1//1 7//7 9//9
f 2//2 10//10 8//8
f 7//7 10//10 9//9
f 1//1 9//9 11//11
f 2//2 12//12 10//10
f 9//9 12//12 11//11
f 1//1 11//11 13//13
f 2//2 14//14 12//12
f 11//11 14//14 13//13
f 1//1 13//13 3//3
f 2//2 4//4 14//14
f 14//14 3//3 13//13
f 3//3 4//4 6//6
f 5//5 6//6 8//8
f 7//7 8//8 10//10
f 9//9 10//10 12//12
f 11//11 12//12 14//14
f 14//14 4//4 3//3
