# Exported by Lightwave Blender addon
v 7.316542394164571e-08 2.0 0.0
v -1.0165824890136719 2.0 2.1991782188415527
v 0.7247896790504456 1.5 0.0
v -0.391145259141922 1.5 2.2342915534973145
v 0.7247896194458008 0.4999999403953552 0.0
v -0.39114537835121155 0.4999999403953552 2.2342915534973145
v 0.0 0.0 0.0
v -1.016582727432251 0.0 2.1991782188415527
v -0.724789559841156 0.5000001192092896 0.0
v -1.6420201063156128 0.5000001192092896 2.16406512260437
v -0.724789559841156 1.4999998807907104 0.0
v -1.6420201063156128 1.4999998807907104 2.16406512260437
v -0.3862651288509369 2.0 0.3333333730697632
v -0.5946470499038696 2.015748977661133 0.6666667461395264
v -0.7713488340377808 2.2362327575683594 1.0
v -0.6239638328552246 2.2834792137145996 1.4437766075134277
v -0.6756267547607422 2.0 1.8752785921096802
v 0.16588957607746124 1.5 1.922522783279419
v 0.2420615702867508 1.7834793329238892 1.4437764883041382
v 0.09467652440071106 1.7362326383590698 1.0
v 0.27137839794158936 1.5157487392425537 0.6666666269302368
v 0.4797603189945221 1.5 0.3333333134651184
v 0.1658894568681717 0.4999999403953552 1.922522783279419
v 0.24206145107746124 0.7834792733192444 1.4437764883041382
v 0.09467640519142151 0.7362326383590698 1.0
v 0.2713783383369446 0.5157487392425537 0.6666666269302368
v 0.4797602593898773 0.4999999403953552 0.3333333134651184
v -0.6756269335746765 0.0 1.8752784729003906
v -0.6239640712738037 0.28347933292388916 1.4437764883041382
v -0.7713490724563599 0.2362326830625534 1.0
v -0.5946471691131592 0.015748798847198486 0.6666666269302368
v -0.38626521825790405 0.0 0.3333333134651184
v -1.5171432495117188 0.5000001192092896 1.8280342817306519
v -1.4899893999099731 0.7834794521331787 1.4437764883041382
v -1.6373744010925293 0.7362328171730042 1.0
v -1.4606724977493286 0.515748918056488 0.6666666269302368
v -1.2522906064987183 0.5000001192092896 0.3333333134651184
v -1.5171432495117188 1.4999998807907104 1.8280342817306519
v -1.4899893999099731 1.7834792137145996 1.4437764883041382
v -1.6373744010925293 1.7362325191497803 1.0
v -1.4606724977493286 1.5157486200332642 0.6666666269302368
v -1.2522906064987183 1.4999998807907104 0.3333333134651184
vn 0.2159378081560135 0.8418734669685364 -0.49459072947502136
vn -0.2133702039718628 0.8313978314399719 0.5130797624588013
vn 0.8432972431182861 0.37323030829429626 -0.3867153823375702
vn 0.28534361720085144 0.28169381618499756 0.9160935878753662
vn 0.8432869911193848 -0.37323835492134094 -0.3867303431034088
vn 0.2853469252586365 -0.28169742226600647 0.9160915613174438
vn 0.2159377783536911 -0.8418734073638916 -0.494590699672699
vn -0.21337036788463593 -0.8313977718353271 0.5130796432495117
vn -0.3304823935031891 -0.2918550372123718 -0.8975533843040466
vn -0.8111224174499512 -0.3466939926147461 0.47104549407958984
vn -0.33048415184020996 0.2918563783168793 -0.8975523114204407
vn -0.8111430406570435 0.34669220447540283 0.471011221408844
vn -0.03858959674835205 0.9888247847557068 -0.1440015584230423
vn 0.01008683256804943 0.9373477697372437 -0.3482488989830017
vn -0.10011275112628937 0.944324254989624 -0.3134152293205261
vn 0.06441308557987213 0.9776676297187805 0.2000422477722168
vn 0.09138758480548859 0.8782576322555542 0.4693738520145416
vn 0.7469100952148438 0.3135337233543396 0.5863633155822754
vn 0.8434513807296753 0.5344007611274719 0.054822176694869995
vn 0.7825213074684143 0.5892559289932251 -0.20109154284000397
vn 0.8172593116760254 0.4438778758049011 0.367504745721817
vn 0.737169086933136 0.4373650550842285 0.5150665640830994
vn 0.7814232110977173 -0.5308233499526978 0.32803109288215637
vn 0.9127936959266663 -0.38214004039764404 -0.14414171874523163
vn 0.8413118720054626 -0.4779161810874939 0.25256797671318054
vn 0.6926929354667664 -0.47891512513160706 0.539274275302887
vn 0.7282513976097107 -0.4409925937652588 0.5245717763900757
vn 0.1560279279947281 -0.9825295209884644 -0.10144506394863129
vn 0.08374320715665817 -0.9581470489501953 -0.27375417947769165
vn -0.12863244116306305 -0.932270884513855 0.33811911940574646
vn -0.05874029919505119 -0.9661819934844971 0.2510814368724823
vn -0.046820249408483505 -0.9937949180603027 -0.10089340060949326
vn -0.7665097117424011 -0.505569577217102 -0.39605844020843506
vn -0.9044080972671509 -0.42643338441848755 0.01416352391242981
vn -0.9164356589317322 -0.39974305033683777 0.01873859204351902
vn -0.7999092936515808 -0.5654757022857666 -0.20095348358154297
vn -0.6640090942382812 -0.43345242738723755 -0.6092707514762878
vn -0.9096222519874573 0.4024387300014496 -0.10310406237840652
vn -0.7734801173210144 0.5706470012664795 0.27584511041641235
vn -0.8582345247268677 0.47694864869117737 -0.18961408734321594
vn -0.7493329048156738 0.3503724932670593 -0.5619068741798401
vn -0.6569260358810425 0.4113315939903259 -0.631865918636322
f 17//17 4//4 18//18
f 4//4 23//23 18//18
f 6//6 28//28 23//23
f 8//8 33//33 28//28
f 10//10 8//8 6//6
f 38//38 2//2 17//17
f 10//10 38//38 33//33
f 9//9 11//11 3//3
f 1//1 22//22 3//3
f 13//13 21//21 22//22
f 14//14 20//20 21//21
f 16//16 20//20 15//15
f 17//17 19//19 16//16
f 22//22 5//5 3//3
f 22//22 26//26 27//27
f 21//21 25//25 26//26
f 20//20 24//24 25//25
f 18//18 24//24 19//19
f 27//27 7//7 5//5
f 26//26 32//32 27//27
f 25//25 31//31 26//26
f 25//25 29//29 30//30
f 23//23 29//29 24//24
f 32//32 9//9 7//7
f 31//31 37//37 32//32
f 30//30 36//36 31//31
f 30//30 34//34 35//35
f 29//29 33//33 34//34
f 11//11 13//13 1//1
f 42//42 14//14 13//13
f 41//41 15//15 14//14
f 39//39 15//15 40//40
f 39//39 17//17 16//16
f 37//37 11//11 9//9
f 36//36 42//42 37//37
f 35//35 41//41 36//36
f 34//34 40//40 35//35
f 34//34 38//38 39//39
f 17//17 2//2 4//4
f 4//4 6//6 23//23
f 6//6 8//8 28//28
f 8//8 10//10 33//33
f 6//6 4//4 10//10
f 4//4 2//2 12//12
f 10//10 4//4 12//12
f 38//38 12//12 2//2
f 10//10 12//12 38//38
f 11//11 1//1 3//3
f 3//3 5//5 9//9
f 5//5 7//7 9//9
f 1//1 13//13 22//22
f 13//13 14//14 21//21
f 14//14 15//15 20//20
f 16//16 19//19 20//20
f 17//17 18//18 19//19
f 22//22 27//27 5//5
f 22//22 21//21 26//26
f 21//21 20//20 25//25
f 20//20 19//19 24//24
f 18//18 23//23 24//24
f 27//27 32//32 7//7
f 26//26 31//31 32//32
f 25//25 30//30 31//31
f 25//25 24//24 29//29
f 23//23 28//28 29//29
f 32//32 37//37 9//9
f 31//31 36//36 37//37
f 30//30 35//35 36//36
f 30//30 29//29 34//34
f 29//29 28//28 33//33
f 11//11 42//42 13//13
f 42//42 41//41 14//14
f 41//41 40//40 15//15
f 39//39 16//16 15//15
f 39//39 38//38 17//17
f 37//37 42//42 11//11
f 36//36 41//41 42//42
f 35//35 40//40 41//41
f 34//34 39//39 40//40
f 34//34 33//33 38//38
