# Exported by Lightwave Blender addon
v 0.07751798629760742 1.8757774829864502 -5.960464477539063e-08
v -0.9951652884483337 2.435595750808716 1.9952832460403442
v 0.7349116206169128 1.2640546560287476 -5.960464477539063e-08
v -0.43615517020225525 1.8398561477661133 2.0303964614868164
v 0.6142567992210388 0.273807168006897 -5.960464477539063e-08
v -0.5568101406097412 0.8496086597442627 2.0303964614868164
v -0.1637917160987854 -0.10471725463867188 -5.960464477539063e-08
v -1.2364752292633057 0.4551011323928833 1.9952832460403442
v -0.8211852312088013 0.5070056915283203 -5.960464477539063e-08
v -1.795485496520996 1.050840973854065 1.9601701498031616
v -0.700530469417572 1.4972528219223022 -5.960464477539063e-08
v -1.674830675125122 2.041088104248047 1.9601701498031616
v -0.3570972681045532 2.250767707824707 0.3333333134651184
v -0.6104124784469604 2.4948432445526123 0.6666667461395264
v -0.9217373728752136 2.3424978256225586 1.0
v -0.7985542416572571 2.241316795349121 1.3333333730697632
v -0.6575347781181335 2.3807451725006104 1.6713836193084717
v 0.11544710397720337 1.750244140625 1.718627691268921
v -0.0013023018836975098 1.606872797012329 1.3333332538604736
v -0.12448543310165405 1.7080538272857666 1.0
v 0.1868395209312439 1.8603992462158203 0.6666666269302368
v 0.4401547312736511 1.6163238286972046 0.33333325386047363
v -0.005207836627960205 0.759996771812439 1.718627691268921
v -0.12195724248886108 0.6166254281997681 1.3333332538604736
v -0.24514037370681763 0.7178065180778503 1.0
v 0.0661846399307251 0.8701518774032593 0.6666666269302368
v 0.31949979066848755 0.6260764598846436 0.33333325386047363
v -0.8988445997238159 0.40025049448013306 1.6713833808898926
v -1.039864182472229 0.2608219385147095 1.3333332538604736
v -1.1630473136901855 0.36200302839279175 1.0
v -0.851722240447998 0.5143485069274902 0.6666666269302368
v -0.5984070301055908 0.27027297019958496 0.33333325386047363
v -1.6718266010284424 1.0307517051696777 1.6241393089294434
v -1.8371162414550781 0.8952659368515015 1.3333332538604736
v -1.960299015045166 0.9964470267295837 1.0
v -1.6489741802215576 1.1487925052642822 0.6666666269302368
v -1.3956589698791504 0.9047170281410217 0.33333325386047363
v -1.5511717796325684 2.02099871635437 1.6241393089294434
v -1.716461420059204 1.8855130672454834 1.3333332538604736
v -1.839644193649292 1.986694097518921 1.0
v -1.5283193588256836 2.1390397548675537 0.6666666269302368
v -1.2750041484832764 1.8949642181396484 0.33333325386047363
vn 0.3159750998020172 0.5958879590034485 -0.7382935285568237
vn -0.08720064908266068 0.8553032875061035 0.5107370018959045
vn 0.9201508164405823 0.13132745027542114 -0.36888420581817627
vn 0.32332533597946167 0.24373579025268555 0.9143596291542053
vn 0.7611775398254395 -0.5978354811668396 -0.2513987421989441
vn 0.24177733063697815 -0.3155485689640045 0.9175907969474792
vn 0.044000182300806046 -0.9616363048553467 -0.2707756757736206
vn -0.3335706889629364 -0.78898024559021 0.5159852504730225
vn -0.4859355688095093 -0.4291125237941742 -0.7613994479179382
vn -0.8486670851707458 -0.23518308997154236 0.4737648367881775
vn -0.22874492406845093 0.18137529492378235 -0.9564406275749207
vn -0.758261501789093 0.45443400740623474 0.46747109293937683
vn 0.20772910118103027 0.8009224534034729 -0.5615795850753784
vn 0.15170566737651825 0.9884136319160461 -0.004889852367341518
vn -0.03178068622946739 0.9489812850952148 0.31372684240341187
vn 0.15508362650871277 0.9806087017059326 -0.11981531232595444
vn 0.3364751636981964 0.9402539134025574 -0.05202993378043175
vn 0.8957042694091797 0.35985660552978516 0.26118379831314087
vn 0.9057081341743469 0.26919877529144287 -0.32745206356048584
vn 0.8383839130401611 0.4041372835636139 0.36576682329177856
vn 0.7654774188995361 0.47935718297958374 0.4292563199996948
vn 0.8516251444816589 0.4240786135196686 0.30804529786109924
vn 0.7898900508880615 -0.46601369976997375 0.3986285924911499
vn 0.7250107526779175 -0.6651288270950317 -0.1787821650505066
vn 0.694525957107544 -0.7056884765625 -0.14013363420963287
vn 0.643569827079773 -0.39982274174690247 0.6526557803153992
vn 0.5243029594421387 -0.35347986221313477 0.7746989727020264
vn 0.031956784427165985 -0.9264137148857117 0.37514838576316833
vn -0.13747446238994598 -0.9864533543586731 0.08950083702802658
vn -0.2705216109752655 -0.8882911801338196 -0.3711559474468231
vn -0.15140801668167114 -0.9884483218193054 0.006749539170414209
vn -0.29087647795677185 -0.8627626895904541 0.4135594666004181
vn -0.9284955263137817 -0.3424372971057892 0.14364103972911835
vn -0.8250858187675476 -0.4354137182235718 0.36006686091423035
vn -0.9212648272514343 -0.3118186593055725 -0.23246514797210693
vn -0.7326980829238892 -0.21982963383197784 -0.6440718173980713
vn -0.758528470993042 -0.42414364218711853 -0.49470871686935425
vn -0.7100908756256104 0.6783168315887451 -0.1888316422700882
vn -0.7807804346084595 0.5061036944389343 0.3663891553878784
vn -0.839786171913147 0.5405516028404236 -0.05062807723879814
vn -0.5967440009117126 0.6699403524398804 -0.4416745901107788
vn -0.48695987462997437 0.35480111837387085 -0.7981141805648804
f 17//17 4//4 18//18
f 18//18 6//6 23//23
f 6//6 28//28 23//23
f 8//8 33//33 28//28
f 10//10 8//8 6//6
f 38//38 2//2 17//17
f 10//10 38//38 33//33
f 9//9 11//11 3//3
f 1//1 22//22 3//3
f 13//13 21//21 22//22
f 14//14 20//20 21//21
f 16//16 20//20 15//15
f 17//17 19//19 16//16
f 3//3 27//27 5//5
f 22//22 26//26 27//27
f 20//20 26//26 21//21
f 19//19 25//25 20//20
f 19//19 23//23 24//24
f 27//27 7//7 5//5
f 26//26 32//32 27//27
f 25//25 31//31 26//26
f 25//25 29//29 30//30
f 24//24 28//28 29//29
f 32//32 9//9 7//7
f 31//31 37//37 32//32
f 30//30 36//36 31//31
f 30//30 34//34 35//35
f 29//29 33//33 34//34
f 11//11 13//13 1//1
f 42//42 14//14 13//13
f 41//41 15//15 14//14
f 39//39 15//15 40//40
f 38//38 16//16 39//39
f 37//37 11//11 9//9
f 36//36 42//42 37//37
f 36//36 40//40 41//41
f 35//35 39//39 40//40
f 33//33 39//39 34//34
f 17//17 2//2 4//4
f 18//18 4//4 6//6
f 6//6 8//8 28//28
f 8//8 10//10 33//33
f 6//6 4//4 10//10
f 4//4 2//2 12//12
f 10//10 4//4 12//12
f 38//38 12//12 2//2
f 10//10 12//12 38//38
f 11//11 1//1 3//3
f 3//3 5//5 9//9
f 5//5 7//7 9//9
f 1//1 13//13 22//22
f 13//13 14//14 21//21
f 14//14 15//15 20//20
f 16//16 19//19 20//20
f 17//17 18//18 19//19
f 3//3 22//22 27//27
f 22//22 21//21 26//26
f 20//20 25//25 26//26
f 19//19 24//24 25//25
f 19//19 18//18 23//23
f 27//27 32//32 7//7
f 26//26 31//31 32//32
f 25//25 30//30 31//31
f 25//25 24//24 29//29
f 24//24 23//23 28//28
f 32//32 37//37 9//9
f 31//31 36//36 37//37
f 30//30 35//35 36//36
f 30//30 29//29 34//34
f 29//29 28//28 33//33
f 11//11 42//42 13//13
f 42//42 41//41 14//14
f 41//41 40//40 15//15
f 39//39 16//16 15//15
f 38//38 17//17 16//16
f 37//37 42//42 11//11
f 36//36 41//41 42//42
f 36//36 35//35 40//40
f 35//35 34//34 39//39
f 33//33 38//38 39//39
