# Exported by Lightwave Blender addon
v -250.2657928466797 -1615.68115234375 535.2100830078125
v -250.26577758789062 -1615.68115234375 683.7684326171875
v -253.45388793945312 -1613.7220458984375 683.7684326171875
v -253.4539031982422 -1613.72216796875 535.2100830078125
v -253.8798828125 -1613.4603271484375 683.7684326171875
v -253.87991333007812 -1613.4603271484375 535.2100830078125
v -252.54151916503906 -1610.576171875 535.2100830078125
v -252.54150390625 -1610.576171875 683.7684326171875
v -252.05450439453125 -1610.689453125 683.7684326171875
v -252.05453491210938 -1610.689453125 535.2100830078125
v -248.3395233154297 -1611.5538330078125 683.7684326171875
v -248.3395538330078 -1611.5535888671875 535.2100830078125
v -253.66943359375 -1613.0068359375 683.7684326171875
v -253.66944885253906 -1613.0068359375 535.2100830078125
v -252.75198364257812 -1611.029541015625 683.7684326171875
v -252.75198364257812 -1611.029541015625 535.2100830078125
vt 0.8017578125 0.52587890625
vt 0.059051513671875 0.52587890625
vt 0.059051513671875 0.507568359375
vt 0.8017578125 0.507568359375
vt 0.8017578125 0.52587890625
vt 0.059051513671875 0.507568359375
vt 0.8017578125 0.507568359375
vt 0.059051513671875 0.507568359375
vt 0.059051513671875 0.505126953125
vt 0.8017578125 0.505126953125
vt 0.8017578125 0.507568359375
vt 0.059051513671875 0.505126953125
vt 0.1981201171875 0.505859375
vt 0.94091796875 0.505859375
vt 0.94091796875 0.50830078125
vt 0.1981201171875 0.50830078125
vt 0.1981201171875 0.505859375
vt 0.94091796875 0.50830078125
vt 0.1981201171875 0.50830078125
vt 0.94091796875 0.50830078125
vt 0.94091796875 0.527099609375
vt 0.1981201171875 0.527099609375
vt 0.1981201171875 0.50830078125
vt 0.94091796875 0.527099609375
vt 0.1981201171875 0.3798828125
vt 0.94091796875 0.3798828125
vt 0.94091796875 0.38232421875
vt 0.1981201171875 0.38232421875
vt 0.1981201171875 0.3798828125
vt 0.94091796875 0.38232421875
vt 0.1981201171875 0.38232421875
vt 0.94091796875 0.38232421875
vt 0.94091796875 0.3935546875
vt 0.1981201171875 0.3935546875
vt 0.1981201171875 0.38232421875
vt 0.94091796875 0.3935546875
vt 0.1981201171875 0.3935546875
vt 0.94091796875 0.3935546875
vt 0.94091796875 0.39599609375
vt 0.1981201171875 0.39599609375
vt 0.1981201171875 0.3935546875
vt 0.94091796875 0.39599609375
vn -0.5235297679901123 -0.8520073294639587 7.427778996316192e-07
vn -0.5235531330108643 -0.8519930839538574 5.37754125673473e-08
vn -0.5235117077827454 -0.852018415927887 4.094425776202115e-07
vn -0.5235816836357117 -0.8519755005836487 4.3149941575393314e-07
vn -0.9574711918830872 -0.28852882981300354 6.283706852627802e-07
vn -0.9575005173683167 -0.2884317934513092 1.3452532243718451e-07
vn -0.43839848041534424 0.8987808227539062 3.0100448356051857e-08
vn -0.4383823275566101 0.898788571357727 -1.4864331987496371e-08
vn 0.2265912890434265 0.9739899039268494 -3.493696709711003e-08
vn 0.22656482458114624 0.973996102809906 7.408171427414345e-07
vn 0.2266196310520172 0.9739833474159241 -2.0397770583713282e-08
vn 0.22655989229679108 0.9739972352981567 1.554322125230101e-06
vn -0.907098114490509 0.42091941833496094 1.3965528466997057e-07
vn -0.9070909023284912 0.4209348261356354 4.703120737303834e-08
vn -0.9070647358894348 0.4209911823272705 4.615098347926505e-08
vn -0.9070691466331482 0.4209814667701721 4.650724250154781e-08
f 1/1/1 2/2/2 3/3/3
f 4/4/4 1/5/1 3/6/3
f 4/7/4 3/8/3 5/9/5
f 6/10/6 4/11/4 5/12/5
f 7/13/7 8/14/8 9/15/9
f 10/16/10 7/17/7 9/18/9
f 10/19/10 9/20/9 11/21/11
f 12/22/12 10/23/10 11/24/11
f 6/25/6 5/26/5 13/27/13
f 14/28/14 6/29/6 13/30/13
f 14/31/14 13/32/13 15/33/15
f 16/34/16 14/35/14 15/36/15
f 16/37/16 15/38/15 8/39/8
f 7/40/7 16/41/16 8/42/8
