# Exported by Lightwave Blender addon
v -260.3297424316406 -1640.29296875 943.5597534179688
v -238.96664428710938 -1588.0487060546875 943.5597534179688
v -242.38436889648438 -1586.651123046875 942.9530639648438
v -263.7474670410156 -1638.8955078125 942.9530639648438
v -242.841064453125 -1586.46435546875 942.8720092773438
v -264.2041320800781 -1638.708740234375 942.8720092773438
v -264.0679016113281 -1638.764404296875 939.6957397460938
v -242.704833984375 -1586.5201416015625 939.69580078125
v -242.24789428710938 -1586.70703125 939.6162719726562
v -263.6109924316406 -1638.9512939453125 939.6162719726562
v -238.76231384277344 -1588.1322021484375 939.01025390625
v -260.1253967285156 -1640.3765869140625 939.01025390625
v -242.8196258544922 -1586.47314453125 942.3726196289062
v -264.1827087402344 -1638.717529296875 942.3726196289062
v -242.7262420654297 -1586.5113525390625 940.1952514648438
v -264.0893249511719 -1638.755615234375 940.1952514648438
vt 0.341064453125 0.52587890625
vt 0.059051513671875 0.52587890625
vt 0.059051513671875 0.507568359375
vt 0.341064453125 0.507568359375
vt 0.341064453125 0.52587890625
vt 0.059051513671875 0.507568359375
vt 0.341064453125 0.507568359375
vt 0.059051513671875 0.507568359375
vt 0.059051513671875 0.505126953125
vt 0.341064453125 0.505126953125
vt 0.341064453125 0.507568359375
vt 0.059051513671875 0.505126953125
vt 0.65869140625 0.505859375
vt 0.94091796875 0.505859375
vt 0.94091796875 0.50830078125
vt 0.65869140625 0.50830078125
vt 0.65869140625 0.505859375
vt 0.94091796875 0.50830078125
vt 0.65869140625 0.50830078125
vt 0.94091796875 0.50830078125
vt 0.94091796875 0.527099609375
vt 0.65869140625 0.527099609375
vt 0.65869140625 0.50830078125
vt 0.94091796875 0.527099609375
vt 0.65869140625 0.3798828125
vt 0.94091796875 0.3798828125
vt 0.94091796875 0.38232421875
vt 0.65869140625 0.38232421875
vt 0.65869140625 0.3798828125
vt 0.94091796875 0.38232421875
vt 0.65869140625 0.38232421875
vt 0.94091796875 0.38232421875
vt 0.94091796875 0.3935546875
vt 0.65869140625 0.3935546875
vt 0.65869140625 0.38232421875
vt 0.94091796875 0.3935546875
vt 0.65869140625 0.3935546875
vt 0.94091796875 0.3935546875
vt 0.94091796875 0.39599609375
vt 0.65869140625 0.39599609375
vt 0.65869140625 0.3935546875
vt 0.94091796875 0.39599609375
vn -0.15007232129573822 0.06136563792824745 0.9867687821388245
vn -0.15007048845291138 0.0613650307059288 0.9867690205574036
vn -0.1500566154718399 0.06135927885770798 0.9867714643478394
vn -0.1500617116689682 0.061361245810985565 0.9867706298828125
vn -0.7192569375038147 0.29410886764526367 0.6294198632240295
vn -0.7192502021789551 0.29410627484321594 0.6294288039207458
vn -0.6904797554016113 0.28234240412712097 -0.6659732460975647
vn -0.6905689835548401 0.28237971663475037 -0.665864884853363
vn -0.1471385955810547 0.06016668677330017 -0.9872841835021973
vn -0.14708705246448517 0.06014498323202133 -0.9872932434082031
vn -0.14706702530384064 0.06013688072562218 -0.9872967600822449
vn -0.14706489443778992 0.060135822743177414 -0.9872971773147583
vn -0.924613356590271 0.37808048725128174 -0.0463184155523777
vn -0.9246141314506531 0.37808141112327576 -0.04629408195614815
vn -0.924614429473877 0.3780815601348877 -0.04628722742199898
vn -0.9246143102645874 0.3780817985534668 -0.04628811404109001
f 1/1/1 2/2/2 3/3/3
f 4/4/4 1/5/1 3/6/3
f 4/7/4 3/8/3 5/9/5
f 6/10/6 4/11/4 5/12/5
f 7/13/7 8/14/8 9/15/9
f 10/16/10 7/17/7 9/18/9
f 10/19/10 9/20/9 11/21/11
f 12/22/12 10/23/10 11/24/11
f 6/25/6 5/26/5 13/27/13
f 14/28/14 6/29/6 13/30/13
f 14/31/14 13/32/13 15/33/15
f 16/34/16 14/35/14 15/36/15
f 16/37/16 15/38/15 8/39/8
f 7/40/7 16/41/16 8/42/8
