# Exported by Lightwave Blender addon
v -76.45063781738281 96.4012451171875 305.0204772949219
v -87.49940490722656 91.20639038085938 305.1955871582031
v -105.57838439941406 129.98391723632812 304.9589538574219
v -94.59092712402344 135.14608764648438 304.95806884765625
v -109.37907409667969 138.54562377929688 304.3238525390625
v -98.48390197753906 143.66519165039062 304.3231506347656
v -101.84007263183594 150.79827880859375 303.2915344238281
v -112.73799133300781 145.67947387695312 303.29241943359375
v -115.72795104980469 152.65090942382812 301.220947265625
v -104.94827270507812 157.715087890625 301.21881103515625
v -107.67770385742188 163.52114868164062 298.6224060058594
v -118.45704650878906 158.45742797851562 298.6200256347656
v -121.72816467285156 165.38467407226562 294.0982971191406
v -110.94253540039062 170.4500732421875 294.09918212890625
v -124.44825744628906 171.30545043945312 288.5967712402344
v -113.68853759765625 176.35821533203125 288.5965576171875
v -126.62828063964844 176.27395629882812 282.0426940917969
v -115.93263244628906 181.29708862304688 282.04119873046875
v -128.2234344482422 179.94168090820312 275.3190002441406
v -117.579833984375 184.93801879882812 275.316162109375
v -129.5115509033203 182.80166625976562 267.8803405761719
v -118.89089965820312 187.7867431640625 267.8779296875
v -120.15225219726562 190.31527709960938 259.4836730957031
v -130.83311462402344 185.30422973632812 259.48529052734375
v -42.67759704589844 -2.191551923751831 259.4851379394531
v -42.91310119628906 -2.850853681564331 259.4826965332031
v -44.12794494628906 0.036169908940792084 268.3370056152344
v -43.76182556152344 0.4227665960788727 267.88018798828125
v -45.48670959472656 2.8072266578674316 275.75091552734375
v -45.14262390136719 3.2389893531799316 275.3189392089844
v -47.26756286621094 6.322851181030273 282.4354553222656
v -46.94956970214844 6.807470321655273 282.0426025390625
v -49.67384338378906 11.112646102905273 288.9293518066406
v -49.38490295410156 11.655309677124023 288.5967712402344
v -52.47575378417969 16.937475204467773 294.3617248535156
v -52.20945739746094 17.527257919311523 294.0982971191406
v -55.70951843261719 23.84421157836914 298.81805419921875
v -55.45759582519531 24.46542739868164 298.6200256347656
v -58.73789596557617 30.26352310180664 301.662109375
v -58.18821334838867 30.27121353149414 301.2209167480469
v -62.1226921081543 36.86557388305664 303.7847900390625
v -61.64960861206055 37.02090835571289 303.2924499511719
v -65.37434387207031 43.79147720336914 304.7887878417969
v -65.00074768066406 44.15848159790039 304.3238525390625
v -69.46257019042969 52.01901626586914 305.30755615234375
v -69.16941833496094 52.54684829711914 304.95892333984375
v -87.94557189941406 90.99655151367188 305.6986999511719
v -106.15901184082031 130.06661987304688 305.3365478515625
v -109.87242126464844 138.43081665039062 304.8085021972656
v -113.13163757324219 145.35275268554688 303.77166748046875
v -116.37385559082031 152.86660766601562 301.37982177734375
v -119.09614562988281 158.65982055664062 298.8180847167969
v -122.35221862792969 165.55599975585938 294.3616943359375
v -125.05058288574219 171.42929077148438 288.9294738769531
v -127.20414733886719 176.33804321289062 282.435546875
v -128.7755584716797 179.95217895507812 275.7509765625
v -130.0426788330078 182.76620483398438 268.337158203125
v -131.49110412597656 185.54342651367188 259.48284912109375
v -58.18500900268555 57.715396881103516 304.95806884765625
v -54.10795593261719 49.28299331665039 304.32318115234375
v -50.75567626953125 42.14816665649414 303.2915954589844
v -47.41178894042969 35.342166900634766 301.2187805175781
v -44.681610107421875 29.53641128540039 298.6224060058594
v -41.42823791503906 22.60199546813965 294.0992126464844
v -38.630035400390625 16.718236923217773 288.5964660644531
v -36.25830078125 11.839757919311523 282.0411071777344
v -34.505157470703125 8.248388290405273 275.31610107421875
v -33.147735595703125 5.42160701751709 267.8778076171875
v -32.00505065917969 2.837256669998169 259.4835205078125
v -34.75376892089844 -19.991355895996094 259.3861083984375
v -34.79682922363281 -19.71010971069336 331.6199645996094
v -62.9181022644043 38.70596694946289 331.7147521972656
v -87.87043762207031 91.03182983398438 331.5919189453125
v -111.25892639160156 141.43930053710938 331.7162780761719
v -139.2969512939453 202.54873657226562 331.62005615234375
v -139.4860076904297 202.76119995117188 259.3862609863281
vt 0.6064453125 0.8057861328125
vt 0.578125 0.8057861328125
vt 0.578125 0.704833984375
vt 0.578125 0.704833984375
vt 0.6064453125 0.704833984375
vt 0.6064453125 0.8057861328125
vt 0.6064453125 0.704833984375
vt 0.578125 0.704833984375
vt 0.578125 0.6826171875
vt 0.578125 0.6826171875
vt 0.6064453125 0.6826171875
vt 0.6064453125 0.704833984375
vt 0.6064453125 0.663818359375
vt 0.6064453125 0.6826171875
vt 0.578125 0.6826171875
vt 0.578125 0.6826171875
vt 0.578125 0.663818359375
vt 0.6064453125 0.663818359375
vt 0.6064453125 0.663818359375
vt 0.578125 0.663818359375
vt 0.578125 0.645263671875
vt 0.578125 0.645263671875
vt 0.6064453125 0.645263671875
vt 0.6064453125 0.663818359375
vt 0.6064453125 0.62890625
vt 0.6064453125 0.645263671875
vt 0.578125 0.645263671875
vt 0.578125 0.645263671875
vt 0.578125 0.62890625
vt 0.6064453125 0.62890625
vt 0.6064453125 0.62890625
vt 0.578125 0.62890625
vt 0.578125 0.60791015625
vt 0.578125 0.60791015625
vt 0.6064453125 0.60791015625
vt 0.6064453125 0.62890625
vt 0.6064453125 0.60791015625
vt 0.578125 0.60791015625
vt 0.578125 0.587890625
vt 0.578125 0.587890625
vt 0.6064453125 0.587890625
vt 0.6064453125 0.60791015625
vt 0.6064453125 0.587890625
vt 0.578125 0.587890625
vt 0.578125 0.567626953125
vt 0.578125 0.567626953125
vt 0.6064453125 0.567626953125
vt 0.6064453125 0.587890625
vt 0.6064453125 0.567626953125
vt 0.578125 0.567626953125
vt 0.578125 0.54931640625
vt 0.578125 0.54931640625
vt 0.6064453125 0.54931640625
vt 0.6064453125 0.567626953125
vt 0.6064453125 0.54931640625
vt 0.578125 0.54931640625
vt 0.578125 0.5302734375
vt 0.578125 0.5302734375
vt 0.6064453125 0.5302734375
vt 0.6064453125 0.54931640625
vt 0.6064453125 0.50927734375
vt 0.6064453125 0.5302734375
vt 0.578125 0.5302734375
vt 0.578125 0.5302734375
vt 0.578125 0.50927734375
vt 0.6064453125 0.50927734375
vt 0.89453125 0.1962890625
vt 0.89599609375 0.19677734375
vt 0.888671875 0.21728515625
vt 0.888671875 0.21728515625
vt 0.8876953125 0.21630859375
vt 0.89453125 0.1962890625
vt 0.8876953125 0.21630859375
vt 0.888671875 0.21728515625
vt 0.88134765625 0.23486328125
vt 0.88134765625 0.23486328125
vt 0.88037109375 0.23388671875
vt 0.8876953125 0.21630859375
vt 0.88037109375 0.23388671875
vt 0.88134765625 0.23486328125
vt 0.8720703125 0.25048828125
vt 0.8720703125 0.25048828125
vt 0.87109375 0.24951171875
vt 0.88037109375 0.23388671875
vt 0.87109375 0.24951171875
vt 0.8720703125 0.25048828125
vt 0.859375 0.26611328125
vt 0.859375 0.26611328125
vt 0.8583984375 0.26513671875
vt 0.87109375 0.24951171875
vt 0.8583984375 0.26513671875
vt 0.859375 0.26611328125
vt 0.84423828125 0.27880859375
vt 0.84423828125 0.27880859375
vt 0.84326171875 0.27783203125
vt 0.8583984375 0.26513671875
vt 0.84326171875 0.27783203125
vt 0.84423828125 0.27880859375
vt 0.82666015625 0.28955078125
vt 0.82666015625 0.28955078125
vt 0.8251953125 0.28857421875
vt 0.84326171875 0.27783203125
vt 0.8251953125 0.28857421875
vt 0.82666015625 0.28955078125
vt 0.8095703125 0.29638671875
vt 0.8095703125 0.29638671875
vt 0.81005859375 0.29443359375
vt 0.8251953125 0.28857421875
vt 0.81005859375 0.29443359375
vt 0.8095703125 0.29638671875
vt 0.79248046875 0.30126953125
vt 0.79248046875 0.30126953125
vt 0.79248046875 0.2998046875
vt 0.81005859375 0.29443359375
vt 0.79248046875 0.2998046875
vt 0.79248046875 0.30126953125
vt 0.7744140625 0.3037109375
vt 0.7744140625 0.3037109375
vt 0.77392578125 0.30224609375
vt 0.79248046875 0.2998046875
vt 0.77392578125 0.30224609375
vt 0.7744140625 0.3037109375
vt 0.7529296875 0.3046875
vt 0.7529296875 0.3046875
vt 0.751953125 0.3037109375
vt 0.77392578125 0.30224609375
vt 0.751953125 0.3037109375
vt 0.7529296875 0.3046875
vt 0.6484375 0.30615234375
vt 0.6484375 0.30615234375
vt 0.6484375 0.3046875
vt 0.751953125 0.3037109375
vt 0.6484375 0.3046875
vt 0.6484375 0.30615234375
vt 0.55859375 0.30517578125
vt 0.55859375 0.30517578125
vt 0.5595703125 0.3037109375
vt 0.6484375 0.3046875
vt 0.5595703125 0.3037109375
vt 0.55859375 0.30517578125
vt 0.537109375 0.30419921875
vt 0.537109375 0.30419921875
vt 0.53759765625 0.302734375
vt 0.5595703125 0.3037109375
vt 0.53759765625 0.302734375
vt 0.537109375 0.30419921875
vt 0.51904296875 0.3017578125
vt 0.51904296875 0.3017578125
vt 0.51904296875 0.30029296875
vt 0.53759765625 0.302734375
vt 0.51904296875 0.30029296875
vt 0.51904296875 0.3017578125
vt 0.50146484375 0.296875
vt 0.50146484375 0.296875
vt 0.5009765625 0.294921875
vt 0.51904296875 0.30029296875
vt 0.5009765625 0.294921875
vt 0.50146484375 0.296875
vt 0.48486328125 0.2900390625
vt 0.48486328125 0.2900390625
vt 0.486083984375 0.2890625
vt 0.5009765625 0.294921875
vt 0.486083984375 0.2890625
vt 0.48486328125 0.2900390625
vt 0.466796875 0.279296875
vt 0.466796875 0.279296875
vt 0.468017578125 0.2783203125
vt 0.486083984375 0.2890625
vt 0.468017578125 0.2783203125
vt 0.466796875 0.279296875
vt 0.451416015625 0.2666015625
vt 0.451416015625 0.2666015625
vt 0.45263671875 0.265625
vt 0.468017578125 0.2783203125
vt 0.45263671875 0.265625
vt 0.451416015625 0.2666015625
vt 0.438720703125 0.25146484375
vt 0.438720703125 0.25146484375
vt 0.43994140625 0.25
vt 0.45263671875 0.265625
vt 0.43994140625 0.25
vt 0.438720703125 0.25146484375
vt 0.429443359375 0.23583984375
vt 0.429443359375 0.23583984375
vt 0.430419921875 0.234375
vt 0.43994140625 0.25
vt 0.430419921875 0.234375
vt 0.429443359375 0.23583984375
vt 0.421875 0.21826171875
vt 0.421875 0.21826171875
vt 0.423095703125 0.216796875
vt 0.430419921875 0.234375
vt 0.423095703125 0.216796875
vt 0.421875 0.21826171875
vt 0.414794921875 0.19775390625
vt 0.414794921875 0.19775390625
vt 0.41650390625 0.197265625
vt 0.423095703125 0.216796875
vt 0.5146484375 0.609375
vt 0.5146484375 0.50830078125
vt 0.54296875 0.50830078125
vt 0.54296875 0.50830078125
vt 0.54296875 0.609375
vt 0.5146484375 0.609375
vt 0.5146484375 0.631591796875
vt 0.5146484375 0.609375
vt 0.54296875 0.609375
vt 0.54296875 0.609375
vt 0.54296875 0.631591796875
vt 0.5146484375 0.631591796875
vt 0.5146484375 0.631591796875
vt 0.54296875 0.631591796875
vt 0.54296875 0.650390625
vt 0.54296875 0.650390625
vt 0.5146484375 0.650390625
vt 0.5146484375 0.631591796875
vt 0.5146484375 0.6689453125
vt 0.5146484375 0.650390625
vt 0.54296875 0.650390625
vt 0.54296875 0.650390625
vt 0.54296875 0.6689453125
vt 0.5146484375 0.6689453125
vt 0.5146484375 0.6689453125
vt 0.54296875 0.6689453125
vt 0.54296875 0.685302734375
vt 0.54296875 0.685302734375
vt 0.5146484375 0.685302734375
vt 0.5146484375 0.6689453125
vt 0.5146484375 0.706298828125
vt 0.5146484375 0.685302734375
vt 0.54296875 0.685302734375
vt 0.54296875 0.685302734375
vt 0.54296875 0.706298828125
vt 0.5146484375 0.706298828125
vt 0.5146484375 0.726318359375
vt 0.5146484375 0.706298828125
vt 0.54296875 0.706298828125
vt 0.54296875 0.706298828125
vt 0.54296875 0.726318359375
vt 0.5146484375 0.726318359375
vt 0.5146484375 0.74658203125
vt 0.5146484375 0.726318359375
vt 0.54296875 0.726318359375
vt 0.54296875 0.726318359375
vt 0.54296875 0.74658203125
vt 0.5146484375 0.74658203125
vt 0.5146484375 0.764892578125
vt 0.5146484375 0.74658203125
vt 0.54296875 0.74658203125
vt 0.54296875 0.74658203125
vt 0.54296875 0.764892578125
vt 0.5146484375 0.764892578125
vt 0.5146484375 0.783935546875
vt 0.5146484375 0.764892578125
vt 0.54296875 0.764892578125
vt 0.54296875 0.764892578125
vt 0.54296875 0.783935546875
vt 0.5146484375 0.783935546875
vt 0.5146484375 0.783935546875
vt 0.54296875 0.783935546875
vt 0.54296875 0.804931640625
vt 0.54296875 0.804931640625
vt 0.5146484375 0.804931640625
vt 0.5146484375 0.783935546875
vt 0.9013671875 0.20068359375
vt 0.94580078125 0.20068359375
vt 0.9453125 0.3427734375
vt 0.9453125 0.3427734375
vt 0.89404296875 0.2216796875
vt 0.9013671875 0.20068359375
vt 0.9453125 0.3427734375
vt 0.88671875 0.2392578125
vt 0.89404296875 0.2216796875
vt 0.9453125 0.3427734375
vt 0.87744140625 0.2548828125
vt 0.88671875 0.2392578125
vt 0.9453125 0.3427734375
vt 0.86474609375 0.27001953125
vt 0.87744140625 0.2548828125
vt 0.9453125 0.3427734375
vt 0.849609375 0.283203125
vt 0.86474609375 0.27001953125
vt 0.9453125 0.3427734375
vt 0.83154296875 0.29345703125
vt 0.849609375 0.283203125
vt 0.83154296875 0.29345703125
vt 0.9453125 0.3427734375
vt 0.78759765625 0.34228515625
vt 0.78759765625 0.34228515625
vt 0.81494140625 0.30029296875
vt 0.83154296875 0.29345703125
vt 0.78759765625 0.34228515625
vt 0.79736328125 0.30517578125
vt 0.81494140625 0.30029296875
vt 0.78759765625 0.34228515625
vt 0.779296875 0.3076171875
vt 0.79736328125 0.30517578125
vt 0.78759765625 0.34228515625
vt 0.7578125 0.30908203125
vt 0.779296875 0.3076171875
vt 0.7578125 0.30908203125
vt 0.78759765625 0.34228515625
vt 0.65625 0.34375
vt 0.65625 0.34375
vt 0.65625 0.31005859375
vt 0.7578125 0.30908203125
vt 0.5546875 0.3095703125
vt 0.65625 0.31005859375
vt 0.65625 0.34375
vt 0.65625 0.34375
vt 0.52001953125 0.34375
vt 0.5546875 0.3095703125
vt 0.52001953125 0.34375
vt 0.533203125 0.30810546875
vt 0.5546875 0.3095703125
vt 0.52001953125 0.34375
vt 0.51513671875 0.30615234375
vt 0.533203125 0.30810546875
vt 0.497802734375 0.30078125
vt 0.51513671875 0.30615234375
vt 0.52001953125 0.34375
vt 0.52001953125 0.34375
vt 0.367431640625 0.34423828125
vt 0.497802734375 0.30078125
vt 0.367431640625 0.34423828125
vt 0.48095703125 0.2939453125
vt 0.497802734375 0.30078125
vt 0.367431640625 0.34423828125
vt 0.462890625 0.28369140625
vt 0.48095703125 0.2939453125
vt 0.367431640625 0.34423828125
vt 0.447509765625 0.27099609375
vt 0.462890625 0.28369140625
vt 0.367431640625 0.34423828125
vt 0.434814453125 0.25537109375
vt 0.447509765625 0.27099609375
vt 0.367431640625 0.34423828125
vt 0.425537109375 0.23974609375
vt 0.434814453125 0.25537109375
vt 0.367431640625 0.34423828125
vt 0.41796875 0.22265625
vt 0.425537109375 0.23974609375
vt 0.410888671875 0.20166015625
vt 0.41796875 0.22265625
vt 0.367431640625 0.34423828125
vt 0.367431640625 0.34423828125
vt 0.36572265625 0.20166015625
vt 0.410888671875 0.20166015625
vn -0.010707339271903038 -0.005033999215811491 -0.9999299645423889
vn -0.3570573925971985 -0.16846942901611328 -0.9187644720077515
vn -0.28887879848480225 -0.16351376473903656 -0.9432985782623291
vn 0.01469271071255207 -0.031431566923856735 -0.9993979334831238
vn -0.3077983856201172 -0.2410605400800705 -0.9204074740409851
vn 0.04198402166366577 -0.08948443084955215 -0.9951028823852539
vn 0.08387982100248337 -0.17878597974777222 -0.9803059697151184
vn -0.24893102049827576 -0.32378748059272766 -0.9127951264381409
vn -0.11123387515544891 -0.37615376710891724 -0.9198561310768127
vn 0.13602304458618164 -0.28994011878967285 -0.9473291039466858
vn 0.18840035796165466 -0.401012659072876 -0.8964898586273193
vn -0.11734678596258163 -0.5083995461463928 -0.8530882000923157
vn -0.1110495775938034 -0.6391006708145142 -0.7610640525817871
vn 0.24613028764724731 -0.5240033268928528 -0.8153773546218872
vn -0.07932394742965698 -0.7552334666252136 -0.650638222694397
vn 0.3021448850631714 -0.643468976020813 -0.7033178806304932
vn -0.021741345524787903 -0.8453781008720398 -0.5337257385253906
vn 0.34747886657714844 -0.7402098178863525 -0.5756282210350037
vn 0.04831445962190628 -0.9068267941474915 -0.41872528195381165
vn 0.379265695810318 -0.8082132935523987 -0.4504983723163605
vn 0.10984961688518524 -0.9359239935874939 -0.3346332609653473
vn 0.39731767773628235 -0.8466520309448242 -0.35400390625
vn 0.4025827944278717 -0.8579927086830139 -0.3190230429172516
vn 0.007469886913895607 -0.9579766988754272 -0.28674864768981934
vn -0.7288196682929993 0.6185837984085083 -0.29355737566947937
vn -0.986817479133606 -0.1265944540500641 -0.10082278400659561
vn -0.9867715835571289 0.011812129057943821 -0.1616860032081604
vn -0.6481351256370544 0.6861246824264526 -0.33038443326950073
vn -0.9782760739326477 -0.07167369872331619 -0.19452187418937683
vn -0.6683680415153503 0.6145159602165222 -0.41911131143569946
vn -0.9647886157035828 -0.13246223330497742 -0.2272365540266037
vn -0.6653072834014893 0.5216379761695862 -0.5340973734855652
vn -0.9498337507247925 -0.17413197457790375 -0.25979599356651306
vn -0.6318314075469971 0.4203929305076599 -0.6511980295181274
vn -0.9319635033607483 -0.1959148645401001 -0.3050597310066223
vn -0.5619598627090454 0.3222872018814087 -0.7617952227592468
vn -0.9030405282974243 -0.21303457021713257 -0.3730068802833557
vn -0.464784175157547 0.23421631753444672 -0.853884220123291
vn -0.8623879551887512 -0.2663034498691559 -0.43054574728012085
vn -0.4000932276248932 0.15732580423355103 -0.9028698801994324
vn -0.8627859354019165 -0.34574785828590393 -0.3688616156578064
vn -0.4212055206298828 -0.0001566859136801213 -0.9069651961326599
vn -0.8476588129997253 -0.36812636256217957 -0.3820440173149109
vn -0.3735714256763458 -0.0835171490907669 -0.923833966255188
vn -0.8161057233810425 -0.37288278341293335 -0.4415086507797241
vn -0.29566484689712524 -0.10867542028427124 -0.9490900039672852
vn -0.8387717604637146 -0.3949499726295471 -0.3748020529747009
vn -0.8153883814811707 -0.3894328474998474 -0.4283500015735626
vn -0.8255712985992432 -0.42023101449012756 -0.37661367654800415
vn -0.8110883831977844 -0.4454534947872162 -0.37908679246902466
vn -0.734614908695221 -0.5103693008422852 -0.44706159830093384
vn -0.7402270436286926 -0.5609951615333557 -0.3706052601337433
vn -0.7449442744255066 -0.593093752861023 -0.3054470419883728
vn -0.739855170249939 -0.6207648515701294 -0.25935545563697815
vn -0.7177339196205139 -0.6583731174468994 -0.22672179341316223
vn -0.6801490187644958 -0.706859827041626 -0.19428463280200958
vn -0.6212649941444397 -0.7660629749298096 -0.16485552489757538
vn -0.7247539162635803 -0.6821481585502625 -0.09698229283094406
vn -0.014830169267952442 0.03136562556028366 -0.9993979930877686
vn -0.04212653636932373 0.08941485732793808 -0.9951031804084778
vn -0.08417610079050064 0.1786503791809082 -0.9803053140640259
vn -0.13651439547538757 0.28971150517463684 -0.9473283886909485
vn -0.1886347234249115 0.40089645981788635 -0.896492600440979
vn -0.24652518332004547 0.5238103866577148 -0.815382182598114
vn -0.3028062880039215 0.6431741118431091 -0.7033030986785889
vn -0.34837040305137634 0.7397909164428711 -0.5756278038024902
vn -0.38046398758888245 0.8076483011245728 -0.45050132274627686
vn -0.39854973554611206 0.846076250076294 -0.35399580001831055
vn -0.40392637252807617 0.8573583364486694 -0.31902995705604553
vn -0.9029149413108826 -0.4298177659511566 0.001135268365032971
vn -0.901548445224762 -0.4326780438423157 -0.00043409550562500954
vn -0.9007982015609741 -0.43423470854759216 0.0017159262206405401
vn -0.9049245119094849 -0.42555010318756104 0.0043202550150454044
vn -0.9091935753822327 -0.4163722097873688 0.0011380965588614345
vn -0.9082003235816956 -0.4185352921485901 -0.0006768876919522882
vn -0.9069919586181641 -0.421146422624588 0.0011351258726790547
f 1/1/1 2/2/2 3/3/3
f 3/4/3 4/5/4 1/6/1
f 4/7/4 3/8/3 5/9/5
f 5/10/5 6/11/6 4/12/4
f 7/13/7 6/14/6 5/15/5
f 5/16/5 8/17/8 7/18/7
f 7/19/7 8/20/8 9/21/9
f 9/22/9 10/23/10 7/24/7
f 11/25/11 10/26/10 9/27/9
f 9/28/9 12/29/12 11/30/11
f 11/31/11 12/32/12 13/33/13
f 13/34/13 14/35/14 11/36/11
f 14/37/14 13/38/13 15/39/15
f 15/40/15 16/41/16 14/42/14
f 16/43/16 15/44/15 17/45/17
f 17/46/17 18/47/18 16/48/16
f 18/49/18 17/50/17 19/51/19
f 19/52/19 20/53/20 18/54/18
f 20/55/20 19/56/19 21/57/21
f 21/58/21 22/59/22 20/60/20
f 23/61/23 22/62/22 21/63/21
f 21/64/21 24/65/24 23/66/23
f 25/67/25 26/68/26 27/69/27
f 27/70/27 28/71/28 25/72/25
f 28/73/28 27/74/27 29/75/29
f 29/76/29 30/77/30 28/78/28
f 30/79/30 29/80/29 31/81/31
f 31/82/31 32/83/32 30/84/30
f 32/85/32 31/86/31 33/87/33
f 33/88/33 34/89/34 32/90/32
f 34/91/34 33/92/33 35/93/35
f 35/94/35 36/95/36 34/96/34
f 36/97/36 35/98/35 37/99/37
f 37/100/37 38/101/38 36/102/36
f 38/103/38 37/104/37 39/105/39
f 39/106/39 40/107/40 38/108/38
f 40/109/40 39/110/39 41/111/41
f 41/112/41 42/113/42 40/114/40
f 42/115/42 41/116/41 43/117/43
f 43/118/43 44/119/44 42/120/42
f 44/121/44 43/122/43 45/123/45
f 45/124/45 46/125/46 44/126/44
f 46/127/46 45/128/45 47/129/47
f 47/130/47 2/131/2 46/132/46
f 2/133/2 47/134/47 48/135/48
f 48/136/48 3/137/3 2/138/2
f 3/139/3 48/140/48 49/141/49
f 49/142/49 5/143/5 3/144/3
f 5/145/5 49/146/49 50/147/50
f 50/148/50 8/149/8 5/150/5
f 8/151/8 50/152/50 51/153/51
f 51/154/51 9/155/9 8/156/8
f 9/157/9 51/158/51 52/159/52
f 52/160/52 12/161/12 9/162/9
f 12/163/12 52/164/52 53/165/53
f 53/166/53 13/167/13 12/168/12
f 13/169/13 53/170/53 54/171/54
f 54/172/54 15/173/15 13/174/13
f 15/175/15 54/176/54 55/177/55
f 55/178/55 17/179/17 15/180/15
f 17/181/17 55/182/55 56/183/56
f 56/184/56 19/185/19 17/186/17
f 19/187/19 56/188/56 57/189/57
f 57/190/57 21/191/21 19/192/19
f 21/193/21 57/194/57 58/195/58
f 58/196/58 24/197/24 21/198/21
f 46/199/46 2/200/2 1/201/1
f 1/202/1 59/203/59 46/204/46
f 44/205/44 46/206/46 59/207/59
f 59/208/59 60/209/60 44/210/44
f 44/211/44 60/212/60 61/213/61
f 61/214/61 42/215/42 44/216/44
f 40/217/40 42/218/42 61/219/61
f 61/220/61 62/221/62 40/222/40
f 40/223/40 62/224/62 63/225/63
f 63/226/63 38/227/38 40/228/40
f 36/229/36 38/230/38 63/231/63
f 63/232/63 64/233/64 36/234/36
f 34/235/34 36/236/36 64/237/64
f 64/238/64 65/239/65 34/240/34
f 32/241/32 34/242/34 65/243/65
f 65/244/65 66/245/66 32/246/32
f 30/247/30 32/248/32 66/249/66
f 66/250/66 67/251/67 30/252/30
f 28/253/28 30/254/30 67/255/67
f 67/256/67 68/257/68 28/258/28
f 28/259/28 68/260/68 69/261/69
f 69/262/69 25/263/25 28/264/28
f 26/265/26 70/266/70 71/267/71
f 71/268/71 27/269/27 26/270/26
f 71/271/71 29/272/29 27/273/27
f 71/274/71 31/275/31 29/276/29
f 71/277/71 33/278/33 31/279/31
f 71/280/71 35/281/35 33/282/33
f 71/283/71 37/284/37 35/285/35
f 37/286/37 71/287/71 72/288/72
f 72/289/72 39/290/39 37/291/37
f 72/292/72 41/293/41 39/294/39
f 72/295/72 43/296/43 41/297/41
f 72/298/72 45/299/45 43/300/43
f 45/301/45 72/302/72 73/303/73
f 73/304/73 47/305/47 45/306/45
f 48/307/48 47/308/47 73/309/73
f 73/310/73 74/311/74 48/312/48
f 74/313/74 49/314/49 48/315/48
f 74/316/74 50/317/50 49/318/49
f 51/319/51 50/320/50 74/321/74
f 74/322/74 75/323/75 51/324/51
f 75/325/75 52/326/52 51/327/51
f 75/328/75 53/329/53 52/330/52
f 75/331/75 54/332/54 53/333/53
f 75/334/75 55/335/55 54/336/54
f 75/337/75 56/338/56 55/339/55
f 75/340/75 57/341/57 56/342/56
f 58/343/58 57/344/57 75/345/75
f 75/346/75 76/347/76 58/348/58
