# Exported by Lightwave Blender addon
v 109.60002136230469 820.52783203125 1474.4908447265625
v 109.60003662109375 820.52783203125 1428.5582275390625
v 57.93435287475586 724.3864135742188 1474.4908447265625
v 57.93436050415039 724.3864135742188 1428.5582275390625
vt 0.0020961761474609375 0.48193359375
vt 0.0020961761474609375 0.2509765625
vt 0.57861328125 0.48193359375
vt 0.0020961761474609375 0.2509765625
vt 0.57861328125 0.2509765625
vt 0.57861328125 0.48193359375
vn -0.8808639645576477 0.4733695983886719 -2.9262253065098776e-07
vn -0.8808639049530029 0.4733695983886719 -2.5551997850925545e-07
vn -0.8808639049530029 0.47336962819099426 -1.8341377483466204e-07
vn -0.8808639049530029 0.47336962819099426 -1.4631125111463916e-07
f 1/1/1 2/2/2 3/3/3
f 2/4/2 4/5/4 3/6/3
