# Exported by Lightwave Blender addon
v -74.38782501220703 439.870849609375 549.7235107421875
v -75.06587219238281 440.2779235839844 549.6774291992188
v -75.1418685913086 440.3265380859375 550.47900390625
v -74.481689453125 439.9227600097656 550.661865234375
v -75.36212158203125 440.4560852050781 551.1926879882812
v -74.7541732788086 440.08367919921875 551.5460815429688
v -75.70787811279297 440.6597595214844 551.8232421875
v -75.18123626708984 440.33563232421875 552.3255004882812
v -76.16160583496094 440.92718505859375 552.349853515625
v -75.74089813232422 440.66571044921875 552.9752197265625
v -76.70525360107422 441.247802734375 552.7514038085938
v -76.41179656982422 441.0613098144531 553.4706420898438
v -77.32102966308594 441.6110534667969 553.0072631835938
v -77.17240905761719 441.5096435546875 553.78662109375
v -77.99310302734375 442.00732421875 553.0972900390625
v -77.99913024902344 441.9970703125 553.8973388671875
v -78.66517639160156 442.4035949707031 553.0072631835938
v -78.82583618164062 442.48455810546875 553.78662109375
v -79.28108215332031 442.7666015625 552.7513427734375
v -79.5863265991211 442.93310546875 553.4706420898438
v -79.82476043701172 443.0871276855469 552.349853515625
v -80.2572021484375 443.3287353515625 552.9752197265625
v -80.27841186523438 443.3547058105469 551.8233032226562
v -80.81693267822266 443.6587219238281 552.3255004882812
v -80.62397766113281 443.5586853027344 551.1927490234375
v -81.24417877197266 443.910400390625 551.5460815429688
v -80.84400177001953 443.688720703125 550.47900390625
v -81.516845703125 444.07098388671875 550.661865234375
v -80.92330932617188 443.731689453125 549.6774291992188
v -81.60772705078125 444.12799072265625 549.7235107421875
v -80.92330932617188 443.731689453125 530.26806640625
v -81.60774230957031 444.1280212402344 530.2219848632812
v -82.64581298828125 442.36749267578125 530.2219848632812
v -81.96775817871094 441.9603576660156 530.26806640625
v -82.64580535888672 442.3674011230469 549.7235107421875
v -81.96775817871094 441.9603271484375 549.6774291992188
v -82.55194854736328 442.3154602050781 550.661865234375
v -81.89176940917969 441.9117431640625 550.4789428710938
v -82.27946472167969 442.15460205078125 551.5460815429688
v -81.6715087890625 441.7821350097656 551.1926879882812
v -81.85240173339844 441.9025573730469 552.3255615234375
v -81.32575988769531 441.5784606933594 551.8232421875
v -81.29273223876953 441.5724792480469 552.9752197265625
v -80.87203216552734 441.3110046386719 552.349853515625
v -80.62181091308594 441.17694091796875 553.470703125
v -80.32839965820312 440.9904479980469 552.7513427734375
v -79.8612289428711 440.72857666015625 553.78662109375
v -79.71260833740234 440.6271667480469 553.0072631835938
v -79.03450775146484 440.2411193847656 553.8973388671875
v -79.04054260253906 440.2309265136719 553.0972900390625
v -78.20779418945312 439.7536926269531 553.78662109375
v -78.36846160888672 439.8346252441406 553.0072631835938
v -77.4472885131836 439.3051452636719 553.4706420898438
v -77.75257110595703 439.4716491699219 552.7513427734375
v -76.77642822265625 438.9095458984375 552.9752197265625
v -77.20886993408203 439.15106201171875 552.349853515625
v -76.21670532226562 438.5795593261719 552.3255615234375
v -76.75521850585938 438.8835144042969 551.8232421875
v -75.78945922851562 438.3278503417969 551.5460815429688
v -76.40966033935547 438.6795349121094 551.1926879882812
v -75.51679229736328 438.1672668457031 550.661865234375
v -76.18962860107422 438.549560546875 550.4789428710938
v -75.42591094970703 438.11029052734375 549.7235107421875
v -76.11032104492188 438.5065612792969 549.6774291992188
vt 9.546875 -24.875
vt 8.125 -24.796875
vt 7.90625 -26.6875
vt 9.296875 -27.015625
vt 9.546875 -24.875
vt 7.90625 -26.6875
vt 9.296875 -27.015625
vt 7.90625 -26.6875
vt 7.296875 -28.40625
vt 8.578125 -29.03125
vt 9.296875 -27.015625
vt 7.296875 -28.40625
vt 8.578125 -29.03125
vt 7.296875 -28.40625
vt 6.3359375 -29.90625
vt 7.44921875 -30.796875
vt 8.578125 -29.03125
vt 6.3359375 -29.90625
vt 7.44921875 -30.796875
vt 6.3359375 -29.90625
vt 5.078125 -31.15625
vt 5.96875 -32.28125
vt 7.44921875 -30.796875
vt 5.078125 -31.15625
vt 5.96875 -32.28125
vt 5.078125 -31.15625
vt 3.5703125 -32.125
vt 4.1953125 -33.40625
vt 5.96875 -32.28125
vt 3.5703125 -32.125
vt 4.1953125 -33.40625
vt 3.5703125 -32.125
vt 1.8623046875 -32.71875
vt 2.185546875 -34.125
vt 4.1953125 -33.40625
vt 1.8623046875 -32.71875
vt 2.185546875 -34.125
vt 1.8623046875 -32.71875
vt 1.3113021850585938e-06 -32.9375
vt 1.9669532775878906e-06 -34.375
vt 2.185546875 -34.125
vt 1.3113021850585938e-06 -32.9375
vt 1.9669532775878906e-06 -34.375
vt 1.3113021850585938e-06 -32.9375
vt -1.8623046875 -32.71875
vt -2.185546875 -34.125
vt 1.9669532775878906e-06 -34.375
vt -1.8623046875 -32.71875
vt -2.185546875 -34.125
vt -1.8623046875 -32.71875
vt -3.5703125 -32.125
vt -4.1953125 -33.40625
vt -2.185546875 -34.125
vt -3.5703125 -32.125
vt -4.1953125 -33.40625
vt -3.5703125 -32.125
vt -5.078125 -31.15625
vt -5.96875 -32.28125
vt -4.1953125 -33.40625
vt -5.078125 -31.15625
vt -5.96875 -32.28125
vt -5.078125 -31.15625
vt -6.3359375 -29.90625
vt -7.44921875 -30.796875
vt -5.96875 -32.28125
vt -6.3359375 -29.90625
vt -7.44921875 -30.796875
vt -6.3359375 -29.90625
vt -7.296875 -28.40625
vt -8.578125 -29.03125
vt -7.44921875 -30.796875
vt -7.296875 -28.40625
vt -8.578125 -29.03125
vt -7.296875 -28.40625
vt -7.90625 -26.6875
vt -9.296875 -27.015625
vt -8.578125 -29.03125
vt -7.90625 -26.6875
vt -9.296875 -27.015625
vt -7.90625 -26.6875
vt -8.125 -24.796875
vt -9.546875 -24.875
vt -9.296875 -27.015625
vt -8.125 -24.796875
vt -9.546875 -24.875
vt -8.125 -24.796875
vt -8.125 20.4375
vt -9.546875 20.515625
vt -9.546875 -24.875
vt -8.125 20.4375
vt -9.546875 20.515625
vt -8.125 20.4375
vt -9.546875 -24.875
vt -8.125 20.4375
vt -8.125 -24.796875
vt -9.546875 -24.875
vt -9.546875 -24.875
vt -8.125 -24.796875
vt -9.296875 -27.015625
vt -8.125 -24.796875
vt -7.90625 -26.6875
vt -9.296875 -27.015625
vt -9.296875 -27.015625
vt -7.90625 -26.6875
vt -8.578125 -29.03125
vt -7.90625 -26.6875
vt -7.296875 -28.40625
vt -8.578125 -29.03125
vt -8.578125 -29.03125
vt -7.296875 -28.40625
vt -7.44921875 -30.796875
vt -7.296875 -28.40625
vt -6.3359375 -29.90625
vt -7.44921875 -30.796875
vt -7.44921875 -30.796875
vt -6.3359375 -29.90625
vt -5.96875 -32.28125
vt -6.3359375 -29.90625
vt -5.078125 -31.15625
vt -5.96875 -32.28125
vt -5.96875 -32.28125
vt -5.078125 -31.15625
vt -4.1953125 -33.40625
vt -5.078125 -31.15625
vt -3.5703125 -32.125
vt -4.1953125 -33.40625
vt -4.1953125 -33.40625
vt -3.5703125 -32.125
vt -2.185546875 -34.125
vt -3.5703125 -32.125
vt -1.8623046875 -32.71875
vt -2.185546875 -34.125
vt -2.185546875 -34.125
vt -1.8623046875 -32.71875
vt 1.9669532775878906e-06 -34.375
vt -1.8623046875 -32.71875
vt 1.3113021850585938e-06 -32.9375
vt 1.9669532775878906e-06 -34.375
vt 1.9669532775878906e-06 -34.375
vt 1.3113021850585938e-06 -32.9375
vt 2.185546875 -34.125
vt 1.3113021850585938e-06 -32.9375
vt 1.8623046875 -32.71875
vt 2.185546875 -34.125
vt 2.185546875 -34.125
vt 1.8623046875 -32.71875
vt 4.1953125 -33.40625
vt 1.8623046875 -32.71875
vt 3.5703125 -32.125
vt 4.1953125 -33.40625
vt 4.1953125 -33.40625
vt 3.5703125 -32.125
vt 5.96875 -32.28125
vt 3.5703125 -32.125
vt 5.078125 -31.15625
vt 5.96875 -32.28125
vt 5.96875 -32.28125
vt 5.078125 -31.15625
vt 7.44921875 -30.796875
vt 5.078125 -31.15625
vt 6.3359375 -29.90625
vt 7.44921875 -30.796875
vt 7.44921875 -30.796875
vt 6.3359375 -29.90625
vt 8.578125 -29.03125
vt 6.3359375 -29.90625
vt 7.296875 -28.40625
vt 8.578125 -29.03125
vt 8.578125 -29.03125
vt 7.296875 -28.40625
vt 9.296875 -27.015625
vt 7.296875 -28.40625
vt 7.90625 -26.6875
vt 9.296875 -27.015625
vt 9.296875 -27.015625
vt 7.90625 -26.6875
vt 9.546875 -24.875
vt 7.90625 -26.6875
vt 8.125 -24.796875
vt 9.546875 -24.875
vt -8.125 20.4375
vt -8.125 20.4375
vt -8.125 -24.796875
vt -8.125 20.4375
vt -8.125 -24.796875
vt -8.125 -24.796875
vt -8.125 -24.796875
vt -8.125 -24.796875
vt -7.90625 -26.6875
vt -8.125 -24.796875
vt -7.90625 -26.6875
vt -7.90625 -26.6875
vt -7.90625 -26.6875
vt -7.90625 -26.6875
vt -7.296875 -28.40625
vt -7.90625 -26.6875
vt -7.296875 -28.40625
vt -7.296875 -28.40625
vt -7.296875 -28.40625
vt -7.296875 -28.40625
vt -6.3359375 -29.90625
vt -7.296875 -28.40625
vt -6.3359375 -29.90625
vt -6.3359375 -29.90625
vt -6.3359375 -29.90625
vt -6.3359375 -29.90625
vt -5.078125 -31.15625
vt -6.3359375 -29.90625
vt -5.078125 -31.15625
vt -5.078125 -31.15625
vt -5.078125 -31.15625
vt -5.078125 -31.15625
vt -3.5703125 -32.125
vt -5.078125 -31.15625
vt -3.5703125 -32.125
vt -3.5703125 -32.125
vt -3.5703125 -32.125
vt -3.5703125 -32.125
vt -1.8623046875 -32.71875
vt -3.5703125 -32.125
vt -1.8623046875 -32.71875
vt -1.8623046875 -32.71875
vt -1.8623046875 -32.71875
vt -1.8623046875 -32.71875
vt 1.3113021850585938e-06 -32.9375
vt -1.8623046875 -32.71875
vt 1.3113021850585938e-06 -32.9375
vt 1.3113021850585938e-06 -32.9375
vt 1.3113021850585938e-06 -32.9375
vt 1.3113021850585938e-06 -32.9375
vt 1.8623046875 -32.71875
vt 1.3113021850585938e-06 -32.9375
vt 1.8623046875 -32.71875
vt 1.8623046875 -32.71875
vt 1.8623046875 -32.71875
vt 1.8623046875 -32.71875
vt 3.5703125 -32.125
vt 1.8623046875 -32.71875
vt 3.5703125 -32.125
vt 3.5703125 -32.125
vt 3.5703125 -32.125
vt 3.5703125 -32.125
vt 5.078125 -31.15625
vt 3.5703125 -32.125
vt 5.078125 -31.15625
vt 5.078125 -31.15625
vt 5.078125 -31.15625
vt 5.078125 -31.15625
vt 6.3359375 -29.90625
vt 5.078125 -31.15625
vt 6.3359375 -29.90625
vt 6.3359375 -29.90625
vt 6.3359375 -29.90625
vt 6.3359375 -29.90625
vt 7.296875 -28.40625
vt 6.3359375 -29.90625
vt 7.296875 -28.40625
vt 7.296875 -28.40625
vt 7.296875 -28.40625
vt 7.296875 -28.40625
vt 7.90625 -26.6875
vt 7.296875 -28.40625
vt 7.90625 -26.6875
vt 7.90625 -26.6875
vt 7.90625 -26.6875
vt 7.90625 -26.6875
vt 8.125 -24.796875
vt 7.90625 -26.6875
vt 8.125 -24.796875
vt 8.125 -24.796875
vt 9.546875 -24.875
vt 9.546875 -24.875
vt 9.296875 -27.015625
vt 9.296875 -27.015625
vt 9.546875 -24.875
vt 9.296875 -27.015625
vt 9.296875 -27.015625
vt 9.296875 -27.015625
vt 8.578125 -29.03125
vt 8.578125 -29.03125
vt 9.296875 -27.015625
vt 8.578125 -29.03125
vt 8.578125 -29.03125
vt 8.578125 -29.03125
vt 7.44921875 -30.796875
vt 7.44921875 -30.796875
vt 8.578125 -29.03125
vt 7.44921875 -30.796875
vt 7.44921875 -30.796875
vt 7.44921875 -30.796875
vt 5.96875 -32.28125
vt 5.96875 -32.28125
vt 7.44921875 -30.796875
vt 5.96875 -32.28125
vt 5.96875 -32.28125
vt 5.96875 -32.28125
vt 4.1953125 -33.40625
vt 4.1953125 -33.40625
vt 5.96875 -32.28125
vt 4.1953125 -33.40625
vt 4.1953125 -33.40625
vt 4.1953125 -33.40625
vt 2.185546875 -34.125
vt 2.185546875 -34.125
vt 4.1953125 -33.40625
vt 2.185546875 -34.125
vt 2.185546875 -34.125
vt 2.185546875 -34.125
vt 1.9669532775878906e-06 -34.375
vt 1.9669532775878906e-06 -34.375
vt 2.185546875 -34.125
vt 1.9669532775878906e-06 -34.375
vt 1.9669532775878906e-06 -34.375
vt 1.9669532775878906e-06 -34.375
vt -2.185546875 -34.125
vt -2.185546875 -34.125
vt 1.9669532775878906e-06 -34.375
vt -2.185546875 -34.125
vt -2.185546875 -34.125
vt -2.185546875 -34.125
vt -4.1953125 -33.40625
vt -4.1953125 -33.40625
vt -2.185546875 -34.125
vt -4.1953125 -33.40625
vt -4.1953125 -33.40625
vt -4.1953125 -33.40625
vt -5.96875 -32.28125
vt -5.96875 -32.28125
vt -4.1953125 -33.40625
vt -5.96875 -32.28125
vt -5.96875 -32.28125
vt -5.96875 -32.28125
vt -7.44921875 -30.796875
vt -7.44921875 -30.796875
vt -5.96875 -32.28125
vt -7.44921875 -30.796875
vt -7.44921875 -30.796875
vt -7.44921875 -30.796875
vt -8.578125 -29.03125
vt -8.578125 -29.03125
vt -7.44921875 -30.796875
vt -8.578125 -29.03125
vt -8.578125 -29.03125
vt -8.578125 -29.03125
vt -9.296875 -27.015625
vt -9.296875 -27.015625
vt -8.578125 -29.03125
vt -9.296875 -27.015625
vt -9.296875 -27.015625
vt -9.296875 -27.015625
vt -9.546875 -24.875
vt -9.546875 -24.875
vt -9.296875 -27.015625
vt -9.546875 -24.875
vt -9.546875 -24.875
vt -9.546875 -24.875
vt -9.546875 20.515625
vt -9.546875 20.515625
vt -9.546875 -24.875
vt -9.546875 20.515625
vn 0.9696534872055054 0.23042477667331696 0.08170974999666214
vn -0.22699733078479767 0.9705722332000732 -0.08038534969091415
vn -0.1891459822654724 0.9701303839683533 -0.15189135074615479
vn 0.9612659811973572 0.2185361236333847 0.16795746982097626
vn -0.14648699760437012 0.9437729716300964 -0.29636844992637634
vn 0.9131549596786499 0.24844348430633545 0.3231467604637146
vn -0.07871497422456741 0.903035581111908 -0.42229199409484863
vn 0.8382795453071594 0.29321786761283875 0.45968538522720337
vn 0.010951570235192776 0.8500410318374634 -0.5266025066375732
vn 0.7405396103858948 0.3509088456630707 0.573117733001709
vn 0.11967598646879196 0.7865294218063354 -0.6058458685874939
vn 0.622689962387085 0.41988471150398254 0.6602680683135986
vn 0.24354732036590576 0.7144509553909302 -0.6559303402900696
vn 0.48797231912612915 0.4984692931175232 0.7165273427963257
vn 0.375474750995636 0.6368119120597839 -0.673416018486023
vn 0.3439248502254486 0.5832987427711487 0.735852062702179
vn 0.5072638392448425 0.5589924454689026 -0.6559045910835266
vn 0.19996501505374908 0.6683255434036255 0.7164880037307739
vn 0.6303879618644714 0.4854145348072052 -0.6057919263839722
vn 0.06607209891080856 0.7481172680854797 0.6602688431739807
vn 0.7385460138320923 0.4210008382797241 -0.5266006588935852
vn -0.051345113664865494 0.8178476095199585 0.5731394290924072
vn 0.8283344507217407 0.3681187033653259 -0.4223158061504364
vn -0.14918184280395508 0.875445544719696 0.4597172141075134
vn 0.8967879414558411 0.3285207152366638 -0.29638731479644775
vn -0.22473500669002533 0.9192584753036499 0.323199987411499
vn 0.9398507475852966 0.3051643371582031 -0.15347738564014435
vn -0.27353528141975403 0.9473072290420532 0.1666955053806305
vn 0.9613916873931885 0.27245548367500305 -0.038651347160339355
vn -0.2691037952899933 0.9621914029121399 0.042081158608198166
vn 0.9624553322792053 0.2714402675628662 1.595656442532345e-07
vn -0.2718264162540436 0.9623463153839111 2.5576946427463554e-06
vn -0.9736819863319397 -0.2279110550880432 -6.880258069941192e-07
vn 0.22828714549541473 -0.9735937714576721 -3.27344901052129e-06
vn -0.9722211956977844 -0.23025190830230713 0.042073171585798264
vn 0.22695386409759521 -0.9731380939483643 -0.038654208183288574
vn -0.9613368511199951 -0.21919475495815277 0.16668854653835297
vn 0.18791748583316803 -0.9701192378997803 -0.15347915887832642
vn -0.9131771326065063 -0.24830058217048645 0.323194295167923
vn 0.14659659564495087 -0.9437459111213684 -0.296400249004364
vn -0.8382655382156372 -0.2931770980358124 0.45973721146583557
vn 0.07881371676921844 -0.90301513671875 -0.4223175644874573
vn -0.7405102849006653 -0.35093721747398376 0.5731383562088013
vn -0.01091878954321146 -0.8500606417655945 -0.5265716910362244
vn -0.622648298740387 -0.41990235447883606 0.6602963209152222
vn -0.11962726712226868 -0.7865797281265259 -0.6057900786399841
vn -0.4880232512950897 -0.49847692251205444 0.7164872884750366
vn -0.24362777173519135 -0.7144467830657959 -0.6559049487113953
vn -0.3439284861087799 -0.5833256244659424 0.7358291149139404
vn -0.3754575252532959 -0.6367977261543274 -0.673439085483551
vn -0.1999645233154297 -0.668281078338623 0.7165294885635376
vn -0.507317304611206 -0.5589468479156494 -0.655902087688446
vn -0.06599055975675583 -0.7481067776679993 0.66028892993927
vn -0.630336344242096 -0.48539596796035767 -0.6058605313301086
vn 0.051375094801187515 -0.8178413510322571 0.573145866394043
vn -0.7385255694389343 -0.42107781767845154 -0.5265676379203796
vn 0.14918503165245056 -0.8754674196243286 0.4596744179725647
vn -0.8282884359359741 -0.3682207763195038 -0.42231690883636475
vn 0.22464889287948608 -0.9192918539047241 0.32316452264785767
vn -0.8967489004135132 -0.3286665678024292 -0.29634371399879456
vn 0.27403202652931213 -0.9469459056854248 0.16792850196361542
vn -0.9404711127281189 -0.3040213882923126 -0.15193800628185272
vn 0.2677000164985657 -0.960031270980835 0.08171088248491287
vn -0.9591598510742188 -0.27121156454086304 -0.08035491406917572
f 1/1/1 2/2/2 3/3/3
f 4/4/4 1/5/1 3/6/3
f 4/7/4 3/8/3 5/9/5
f 6/10/6 4/11/4 5/12/5
f 6/13/6 5/14/5 7/15/7
f 8/16/8 6/17/6 7/18/7
f 8/19/8 7/20/7 9/21/9
f 10/22/10 8/23/8 9/24/9
f 10/25/10 9/26/9 11/27/11
f 12/28/12 10/29/10 11/30/11
f 12/31/12 11/32/11 13/33/13
f 14/34/14 12/35/12 13/36/13
f 14/37/14 13/38/13 15/39/15
f 16/40/16 14/41/14 15/42/15
f 16/43/16 15/44/15 17/45/17
f 18/46/18 16/47/16 17/48/17
f 18/49/18 17/50/17 19/51/19
f 20/52/20 18/53/18 19/54/19
f 20/55/20 19/56/19 21/57/21
f 22/58/22 20/59/20 21/60/21
f 22/61/22 21/62/21 23/63/23
f 24/64/24 22/65/22 23/66/23
f 24/67/24 23/68/23 25/69/25
f 26/70/26 24/71/24 25/72/25
f 26/73/26 25/74/25 27/75/27
f 28/76/28 26/77/26 27/78/27
f 28/79/28 27/80/27 29/81/29
f 30/82/30 28/83/28 29/84/29
f 30/85/30 29/86/29 31/87/31
f 32/88/32 30/89/30 31/90/31
f 33/91/33 34/92/34 35/93/35
f 34/94/34 36/95/36 35/96/35
f 35/97/35 36/98/36 37/99/37
f 36/100/36 38/101/38 37/102/37
f 37/103/37 38/104/38 39/105/39
f 38/106/38 40/107/40 39/108/39
f 39/109/39 40/110/40 41/111/41
f 40/112/40 42/113/42 41/114/41
f 41/115/41 42/116/42 43/117/43
f 42/118/42 44/119/44 43/120/43
f 43/121/43 44/122/44 45/123/45
f 44/124/44 46/125/46 45/126/45
f 45/127/45 46/128/46 47/129/47
f 46/130/46 48/131/48 47/132/47
f 47/133/47 48/134/48 49/135/49
f 48/136/48 50/137/50 49/138/49
f 49/139/49 50/140/50 51/141/51
f 50/142/50 52/143/52 51/144/51
f 51/145/51 52/146/52 53/147/53
f 52/148/52 54/149/54 53/150/53
f 53/151/53 54/152/54 55/153/55
f 54/154/54 56/155/56 55/156/55
f 55/157/55 56/158/56 57/159/57
f 56/160/56 58/161/58 57/162/57
f 57/163/57 58/164/58 59/165/59
f 58/166/58 60/167/60 59/168/59
f 59/169/59 60/170/60 61/171/61
f 60/172/60 62/173/62 61/174/61
f 61/175/61 62/176/62 63/177/63
f 62/178/62 64/179/64 63/180/63
f 34/181/34 31/182/31 36/183/36
f 31/184/31 29/185/29 36/186/36
f 36/187/36 29/188/29 38/189/38
f 29/190/29 27/191/27 38/192/38
f 38/193/38 27/194/27 40/195/40
f 27/196/27 25/197/25 40/198/40
f 40/199/40 25/200/25 42/201/42
f 25/202/25 23/203/23 42/204/42
f 42/205/42 23/206/23 44/207/44
f 23/208/23 21/209/21 44/210/44
f 44/211/44 21/212/21 46/213/46
f 21/214/21 19/215/19 46/216/46
f 46/217/46 19/218/19 48/219/48
f 19/220/19 17/221/17 48/222/48
f 48/223/48 17/224/17 50/225/50
f 17/226/17 15/227/15 50/228/50
f 50/229/50 15/230/15 52/231/52
f 15/232/15 13/233/13 52/234/52
f 52/235/52 13/236/13 54/237/54
f 13/238/13 11/239/11 54/240/54
f 54/241/54 11/242/11 56/243/56
f 11/244/11 9/245/9 56/246/56
f 56/247/56 9/248/9 58/249/58
f 9/250/9 7/251/7 58/252/58
f 58/253/58 7/254/7 60/255/60
f 7/256/7 5/257/5 60/258/60
f 60/259/60 5/260/5 62/261/62
f 5/262/5 3/263/3 62/264/62
f 62/265/62 3/266/3 64/267/64
f 3/268/3 2/269/2 64/270/64
f 63/271/63 1/272/1 4/273/4
f 61/274/61 63/275/63 4/276/4
f 61/277/61 4/278/4 6/279/6
f 59/280/59 61/281/61 6/282/6
f 59/283/59 6/284/6 8/285/8
f 57/286/57 59/287/59 8/288/8
f 57/289/57 8/290/8 10/291/10
f 55/292/55 57/293/57 10/294/10
f 55/295/55 10/296/10 12/297/12
f 53/298/53 55/299/55 12/300/12
f 53/301/53 12/302/12 14/303/14
f 51/304/51 53/305/53 14/306/14
f 51/307/51 14/308/14 16/309/16
f 49/310/49 51/311/51 16/312/16
f 49/313/49 16/314/16 18/315/18
f 47/316/47 49/317/49 18/318/18
f 47/319/47 18/320/18 20/321/20
f 45/322/45 47/323/47 20/324/20
f 45/325/45 20/326/20 22/327/22
f 43/328/43 45/329/45 22/330/22
f 43/331/43 22/332/22 24/333/24
f 41/334/41 43/335/43 24/336/24
f 41/337/41 24/338/24 26/339/26
f 39/340/39 41/341/41 26/342/26
f 39/343/39 26/344/26 28/345/28
f 37/346/37 39/347/39 28/348/28
f 37/349/37 28/350/28 30/351/30
f 35/352/35 37/353/37 30/354/30
f 35/355/35 30/356/30 32/357/32
f 33/358/33 35/359/35 32/360/32
