# Exported by Lightwave Blender addon
v 529.1735229492188 -1479.585693359375 325.6702880859375
v 529.1735229492188 -1479.585693359375 351.2069396972656
v 523.28515625 -1494.3914794921875 325.6683349609375
v 523.28515625 -1494.3916015625 351.2077331542969
v 506.9509582519531 -1455.574462890625 325.67041015625
v 483.763427734375 -1446.0928955078125 351.2068176269531
v 521.5234985351562 -1461.533203125 325.67041015625
v 521.523193359375 -1461.533203125 351.2068786621094
v 505.5296325683594 -1456.0736083984375 325.3842468261719
v 494.47418212890625 -1482.6126708984375 325.3822326660156
v 481.82244873046875 -1446.379638671875 351.4930114746094
v 470.7669677734375 -1472.918701171875 351.4938049316406
v 529.0802001953125 -1477.77001953125 325.670166015625
v 525.46728515625 -1470.851318359375 325.6683349609375
v 529.0802001953125 -1477.77001953125 351.2069396972656
v 525.467041015625 -1470.8511962890625 351.2077331542969
v 522.7686767578125 -1462.859130859375 351.2069396972656
v 522.76904296875 -1462.8592529296875 325.6701965332031
v 624.423583984375 -1518.5341796875 325.6702880859375
v 618.2510986328125 -1533.2236328125 325.6683349609375
v 624.423583984375 -1518.5341796875 351.2069396972656
v 618.2510986328125 -1533.2237548828125 351.2077331542969
v 657.10302734375 -1516.97265625 325.67041015625
v 642.5303955078125 -1511.0137939453125 325.67041015625
v 680.29052734375 -1526.4541015625 351.2068176269531
v 642.53076171875 -1511.013916015625 351.2068786621094
v 657.767333984375 -1518.32470703125 325.3842468261719
v 681.4744873046875 -1528.018798828125 351.4930114746094
v 647.0604858398438 -1545.00634765625 325.3822326660156
v 670.7676391601562 -1554.7003173828125 351.4938049316406
v 625.7623291015625 -1517.303955078125 325.670166015625
v 625.7623291015625 -1517.303955078125 351.2069396972656
v 633.1878051757812 -1514.89892578125 325.6683349609375
v 633.18798828125 -1514.8990478515625 351.2077331542969
v 640.7130737304688 -1511.08740234375 351.2069396972656
v 640.712646484375 -1511.087158203125 325.6701965332031
v 525.013427734375 -1471.7423095703125 324.6680603027344
v 522.0612182617188 -1462.83349609375 324.6701354980469
v 525.01318359375 -1471.7423095703125 352.2078552246094
v 528.4444580078125 -1478.712890625 352.2071838378906
v 522.0608520507812 -1462.8333740234375 352.2070007324219
v 471.04443359375 -1473.0321044921875 352.2077941894531
v 482.09991455078125 -1446.4930419921875 352.2069396972656
v 528.4444580078125 -1478.712890625 324.66973876953125
v 681.1970825195312 -1527.9052734375 352.2069396972656
v 670.4901733398438 -1554.5869140625 352.2077941894531
v 632.8873291015625 -1515.852783203125 324.6680603027344
v 625.5552978515625 -1518.4222412109375 324.66973876953125
v 625.5552978515625 -1518.422119140625 352.2071838378906
v 632.8875122070312 -1515.8529052734375 352.2078552246094
v 641.2361450195312 -1511.56494140625 352.2070007324219
v 641.2357177734375 -1511.5648193359375 324.6701354980469
v 510.90631103515625 -1489.3355712890625 352.21038818359375
v 515.167724609375 -1491.072265625 352.21038818359375
v 522.3594970703125 -1494.0130615234375 352.2080383300781
v 522.3594970703125 -1494.012939453125 324.6676330566406
v 515.1679077148438 -1491.072265625 324.6621398925781
v 510.90692138671875 -1489.3359375 324.6621398925781
v 507.10345458984375 -1456.7171630859375 324.6700439453125
v 496.04791259765625 -1483.25634765625 324.66796875
v 619.1766357421875 -1533.602294921875 352.2080383300781
v 626.3684692382812 -1536.5430908203125 352.21038818359375
v 630.625732421875 -1538.289794921875 352.21038818359375
v 656.1935424804688 -1517.68115234375 324.6700439453125
v 645.4866333007812 -1544.3629150390625 324.66796875
v 630.6250610351562 -1538.28955078125 324.6621398925781
v 626.3682861328125 -1536.5428466796875 324.6621398925781
v 619.1766357421875 -1533.6021728515625 324.6676330566406
vt 0.50341796875 -0.4462890625
vt 0.50341796875 -0.318359375
vt 0.423828125 -0.4462890625
vt 0.50341796875 -0.318359375
vt 0.423828125 -0.318359375
vt 0.423828125 -0.4462890625
vt 0.587890625 -0.4462890625
vt 0.71337890625 -0.318359375
vt 0.50927734375 -0.4462890625
vt 0.71337890625 -0.318359375
vt 0.50927734375 -0.318359375
vt 0.50927734375 -0.4462890625
vt 0.43212890625 -0.4482421875
vt 0.57568359375 -0.4482421875
vt 0.43212890625 -0.3173828125
vt 0.57568359375 -0.4482421875
vt 0.57568359375 -0.3173828125
vt 0.43212890625 -0.3173828125
vt 0.44384765625 -0.4462890625
vt 0.4736328125 -0.4462890625
vt 0.44384765625 -0.318359375
vt 0.4736328125 -0.4462890625
vt 0.4736328125 -0.318359375
vt 0.44384765625 -0.318359375
vt 0.56884765625 -0.318359375
vt 0.537109375 -0.318359375
vt 0.56884765625 -0.4462890625
vt 0.537109375 -0.318359375
vt 0.537109375 -0.4462890625
vt 0.56884765625 -0.4462890625
vt 0.49609375 -0.4462890625
vt 0.57568359375 -0.4462890625
vt 0.49609375 -0.318359375
vt 0.57568359375 -0.4462890625
vt 0.57568359375 -0.318359375
vt 0.49609375 -0.318359375
vt -0.22265625 -0.4462890625
vt -0.1439208984375 -0.4462890625
vt -0.347900390625 -0.318359375
vt -0.1439208984375 -0.4462890625
vt -0.1439208984375 -0.318359375
vt -0.347900390625 -0.318359375
vt 0.5673828125 -0.4482421875
vt 0.5673828125 -0.3173828125
vt 0.423828125 -0.4482421875
vt 0.5673828125 -0.3173828125
vt 0.423828125 -0.3173828125
vt 0.423828125 -0.4482421875
vt -0.07830810546875 -0.4462890625
vt -0.07830810546875 -0.318359375
vt -0.10809326171875 -0.4462890625
vt -0.07830810546875 -0.318359375
vt -0.10809326171875 -0.318359375
vt -0.10809326171875 -0.4462890625
vt 0.430908203125 -0.318359375
vt 0.430908203125 -0.4462890625
vt 0.462646484375 -0.318359375
vt 0.430908203125 -0.4462890625
vt 0.462646484375 -0.4462890625
vt 0.462646484375 -0.318359375
vt 0.537109375 -0.4462890625
vt 0.53173828125 -0.451171875
vt 0.56884765625 -0.4462890625
vt 0.53173828125 -0.451171875
vt 0.5673828125 -0.451171875
vt 0.56884765625 -0.4462890625
vt 0.4736328125 0.462890625
vt 0.47412109375 0.46826171875
vt 0.44384765625 0.48828125
vt 0.47412109375 0.46826171875
vt 0.445068359375 0.49365234375
vt 0.44384765625 0.48828125
vt 0.56884765625 -0.318359375
vt 0.5673828125 -0.3134765625
vt 0.537109375 -0.318359375
vt 0.5673828125 -0.3134765625
vt 0.53173828125 -0.3134765625
vt 0.537109375 -0.318359375
vt 0.57568359375 -0.3173828125
vt 0.57568359375 -0.3134765625
vt 0.43212890625 -0.3173828125
vt 0.57568359375 -0.3134765625
vt 0.43212890625 -0.3134765625
vt 0.43212890625 -0.3173828125
vt 0.5556640625 0.48828125
vt 0.5546875 0.49365234375
vt 0.52587890625 0.462890625
vt 0.5546875 0.49365234375
vt 0.525390625 0.46826171875
vt 0.52587890625 0.462890625
vt 0.5673828125 -0.3173828125
vt 0.5673828125 -0.3134765625
vt 0.423828125 -0.3173828125
vt 0.5673828125 -0.3134765625
vt 0.423828125 -0.3134765625
vt 0.423828125 -0.3173828125
vt 1.107421875 0.462890625
vt 1.1083984375 0.46826171875
vt 1.078125 0.48828125
vt 1.1083984375 0.46826171875
vt 1.0791015625 0.49365234375
vt 1.078125 0.48828125
vt -0.07830810546875 0.48828125
vt -0.0794677734375 0.49365234375
vt -0.10809326171875 0.462890625
vt -0.0794677734375 0.49365234375
vt -0.1085205078125 0.46826171875
vt -0.10809326171875 0.462890625
vt 0.462646484375 -0.318359375
vt 0.4677734375 -0.3134765625
vt 0.430908203125 -0.318359375
vt 0.4677734375 -0.3134765625
vt 0.43212890625 -0.3134765625
vt 0.430908203125 -0.318359375
vt 0.430908203125 -0.4462890625
vt 0.43212890625 -0.451171875
vt 0.462646484375 -0.4462890625
vt 0.43212890625 -0.451171875
vt 0.4677734375 -0.451171875
vt 0.462646484375 -0.4462890625
vt 0.72021484375 0.4326171875
vt 0.72119140625 0.576171875
vt 0.505859375 0.576171875
vt 0.50439453125 0.4326171875
vt 0.72021484375 0.4326171875
vt 0.505859375 0.576171875
vt 0.50439453125 0.4326171875
vt 0.505859375 0.576171875
vt 0.483154296875 0.576171875
vt 0.47412109375 0.46826171875
vt 0.50439453125 0.4326171875
vt 0.483154296875 0.576171875
vt 0.47412109375 0.46826171875
vt 0.483154296875 0.576171875
vt 0.444091796875 0.576171875
vt 0.445068359375 0.49365234375
vt 0.47412109375 0.46826171875
vt 0.444091796875 0.576171875
vt 0.5546875 0.49365234375
vt 0.5556640625 0.576171875
vt 0.525390625 0.46826171875
vt 0.5556640625 0.576171875
vt 0.5166015625 0.576171875
vt 0.525390625 0.46826171875
vt 0.525390625 0.46826171875
vt 0.5166015625 0.576171875
vt 0.4951171875 0.4326171875
vt 0.5166015625 0.576171875
vt 0.49365234375 0.576171875
vt 0.4951171875 0.4326171875
vt 0.4951171875 0.4326171875
vt 0.49365234375 0.576171875
vt 0.414306640625 0.4326171875
vt 0.49365234375 0.576171875
vt 0.413330078125 0.576171875
vt 0.414306640625 0.4326171875
vt -0.0794677734375 0.49365234375
vt -0.07867431640625 0.576171875
vt -0.1085205078125 0.46826171875
vt -0.07867431640625 0.576171875
vt -0.11749267578125 0.576171875
vt -0.1085205078125 0.46826171875
vt -0.1085205078125 0.46826171875
vt -0.11749267578125 0.576171875
vt -0.1390380859375 0.4326171875
vt -0.11749267578125 0.576171875
vt -0.1405029296875 0.576171875
vt -0.1390380859375 0.4326171875
vt -0.1390380859375 0.4326171875
vt -0.1405029296875 0.576171875
vt -0.354736328125 0.4326171875
vt -0.1405029296875 0.576171875
vt -0.355712890625 0.576171875
vt -0.354736328125 0.4326171875
vt 1.2197265625 0.4326171875
vt 1.220703125 0.576171875
vt 1.1396484375 0.576171875
vt 1.138671875 0.4326171875
vt 1.2197265625 0.4326171875
vt 1.1396484375 0.576171875
vt 1.138671875 0.4326171875
vt 1.1396484375 0.576171875
vt 1.1171875 0.576171875
vt 1.1083984375 0.46826171875
vt 1.138671875 0.4326171875
vt 1.1171875 0.576171875
vt 1.1083984375 0.46826171875
vt 1.1171875 0.576171875
vt 1.078125 0.576171875
vt 1.0791015625 0.49365234375
vt 1.1083984375 0.46826171875
vt 1.078125 0.576171875
vt 1.228515625 0.576171875
vt 1.220703125 0.576171875
vt 1.2275390625 0.4326171875
vt 1.220703125 0.576171875
vt 1.2197265625 0.4326171875
vt 1.2275390625 0.4326171875
vt 1.2275390625 0.4326171875
vt 1.2197265625 0.4326171875
vt 1.22265625 0.42724609375
vt 0.41162109375 0.42724609375
vt 0.414306640625 0.4326171875
vt 0.406005859375 0.4326171875
vt 0.406005859375 0.4326171875
vt 0.414306640625 0.4326171875
vt 0.405029296875 0.576171875
vt 0.414306640625 0.4326171875
vt 0.413330078125 0.576171875
vt 0.405029296875 0.576171875
vt 0.50634765625 -0.3134765625
vt 0.423828125 -0.3134765625
vt 0.423828125 -0.318359375
vt 0.50341796875 -0.318359375
vt 0.50634765625 -0.3134765625
vt 0.423828125 -0.318359375
vt 0.51171875 -0.318359375
vt 0.50634765625 -0.3134765625
vt 0.50341796875 -0.318359375
vt 0.51171875 -0.4462890625
vt 0.51171875 -0.318359375
vt 0.50341796875 -0.318359375
vt 0.50341796875 -0.4462890625
vt 0.51171875 -0.4462890625
vt 0.50341796875 -0.318359375
vt 0.50634765625 -0.451171875
vt 0.51171875 -0.4462890625
vt 0.50341796875 -0.4462890625
vt 0.423828125 -0.451171875
vt 0.50634765625 -0.451171875
vt 0.50341796875 -0.4462890625
vt 0.423828125 -0.4462890625
vt 0.423828125 -0.451171875
vt 0.50341796875 -0.4462890625
vt 0.50439453125 -0.451171875
vt 0.58544921875 -0.451171875
vt 0.587890625 -0.4462890625
vt 0.50927734375 -0.4462890625
vt 0.50439453125 -0.451171875
vt 0.587890625 -0.4462890625
vt 0.50927734375 -0.4462890625
vt 0.5009765625 -0.4462890625
vt 0.50439453125 -0.451171875
vt 0.5009765625 -0.318359375
vt 0.5009765625 -0.4462890625
vt 0.50927734375 -0.4462890625
vt 0.50927734375 -0.318359375
vt 0.5009765625 -0.318359375
vt 0.50927734375 -0.4462890625
vt 0.50439453125 -0.3134765625
vt 0.5009765625 -0.318359375
vt 0.50927734375 -0.318359375
vt 0.72021484375 -0.3134765625
vt 0.50439453125 -0.3134765625
vt 0.50927734375 -0.318359375
vt 0.71337890625 -0.318359375
vt 0.72021484375 -0.3134765625
vt 0.50927734375 -0.318359375
vt 0.7216796875 -0.3173828125
vt 0.72021484375 -0.3134765625
vt 0.71337890625 -0.318359375
vt 0.59375 -0.4482421875
vt 0.7216796875 -0.3173828125
vt 0.71337890625 -0.318359375
vt 0.587890625 -0.4462890625
vt 0.59375 -0.4482421875
vt 0.71337890625 -0.318359375
vt 0.493408203125 -0.451171875
vt 0.57568359375 -0.451171875
vt 0.57568359375 -0.4462890625
vt 0.49609375 -0.4462890625
vt 0.493408203125 -0.451171875
vt 0.57568359375 -0.4462890625
vt 0.488037109375 -0.4462890625
vt 0.493408203125 -0.451171875
vt 0.49609375 -0.4462890625
vt 0.488037109375 -0.318359375
vt 0.488037109375 -0.4462890625
vt 0.49609375 -0.4462890625
vt 0.49609375 -0.318359375
vt 0.488037109375 -0.318359375
vt 0.49609375 -0.4462890625
vt 0.493408203125 -0.3134765625
vt 0.488037109375 -0.318359375
vt 0.49609375 -0.318359375
vt 0.57568359375 -0.3134765625
vt 0.493408203125 -0.3134765625
vt 0.49609375 -0.318359375
vt 0.57568359375 -0.318359375
vt 0.57568359375 -0.3134765625
vt 0.49609375 -0.318359375
vt -0.356201171875 -0.3173828125
vt -0.228271484375 -0.4482421875
vt -0.22265625 -0.4462890625
vt -0.347900390625 -0.318359375
vt -0.356201171875 -0.3173828125
vt -0.22265625 -0.4462890625
vt -0.354736328125 -0.3134765625
vt -0.356201171875 -0.3173828125
vt -0.347900390625 -0.318359375
vt -0.1390380859375 -0.3134765625
vt -0.354736328125 -0.3134765625
vt -0.347900390625 -0.318359375
vt -0.1439208984375 -0.318359375
vt -0.1390380859375 -0.3134765625
vt -0.347900390625 -0.318359375
vt -0.1439208984375 -0.318359375
vt -0.1357421875 -0.318359375
vt -0.1390380859375 -0.3134765625
vt -0.1357421875 -0.4462890625
vt -0.1357421875 -0.318359375
vt -0.1439208984375 -0.318359375
vt -0.1439208984375 -0.4462890625
vt -0.1357421875 -0.4462890625
vt -0.1439208984375 -0.318359375
vt -0.1439208984375 -0.4462890625
vt -0.1390380859375 -0.451171875
vt -0.1357421875 -0.4462890625
vt -0.2198486328125 -0.451171875
vt -0.1390380859375 -0.451171875
vt -0.1439208984375 -0.4462890625
vt -0.22265625 -0.4462890625
vt -0.2198486328125 -0.451171875
vt -0.1439208984375 -0.4462890625
vn 0.9221983551979065 -0.17597022652626038 -0.34436142444610596
vn 0.92216557264328 -0.17597441375255585 0.34444698691368103
vn 0.8588660955429077 -0.34152624011039734 -0.3817184269428253
vn 0.8588265776634216 -0.3415378928184509 0.3817967474460602
vn 0.1608874648809433 0.8825159072875977 -0.44190579652786255
vn 0.08944296091794968 0.9883248209953308 0.12334468960762024
vn 0.5042762160301208 0.7953309416770935 -0.33638402819633484
vn 0.5042677521705627 0.7953258156776428 0.3364087641239166
vn -0.3717081546783447 0.5293089747428894 -0.7626698017120361
vn -0.518950879573822 0.21622896194458008 -0.8270036578178406
vn -0.6601370573043823 0.7358834147453308 -0.1506471037864685
vn -0.9067219495773315 0.37771108746528625 -0.18758901953697205
vn 0.8993041515350342 0.2695619761943817 -0.34436678886413574
vn 0.8757305145263672 0.3591254949569702 -0.32268399000167847
vn 0.9022855162620544 0.2656773030757904 0.33955347537994385
vn 0.8759664297103882 0.36091548204421997 0.3200356960296631
vn 0.8365908265113831 0.4816585183143616 0.26099932193756104
vn 0.8369300961494446 0.4804900586605072 -0.2620636820793152
vn -0.7812920808792114 0.5205727815628052 -0.34436410665512085
vn -0.8520939946174622 0.3581025004386902 -0.38170456886291504
vn -0.7812796235084534 0.5205462574958801 0.34443268179893494
vn -0.8520781993865967 0.3580595850944519 0.38178008794784546
vn 0.5035591125488281 0.7423855066299438 -0.44191837310791016
vn 0.19746629893779755 0.9207865595817566 -0.33639127016067505
vn 0.6286823153495789 0.7678173184394836 0.12334922701120377
vn 0.19743679463863373 0.9207828640937805 0.3364188075065613
vn 0.6360758543014526 0.11719480156898499 -0.7626748085021973
vn 0.9866079688072205 0.062491998076438904 -0.1506630778312683
vn 0.5217725038528442 -0.2093314826488495 -0.8270029425621033
vn 0.9115937352180481 -0.36581262946128845 -0.18755801022052765
vn -0.45769304037094116 0.8217401504516602 -0.3395000696182251
vn -0.45275017619132996 0.8224256634712219 0.34443196654319763
vn -0.3721224367618561 0.871261477470398 -0.32004421949386597
vn -0.37318599224090576 0.8698116540908813 0.32273831963539124
vn -0.26052072644233704 0.9292165637016296 0.2620794475078583
vn -0.25939857959747314 0.929831326007843 -0.26100975275039673
vn 0.39061516523361206 0.17006585001945496 -0.9047084450721741
vn 0.42506682872772217 0.34664857387542725 -0.8361537456512451
vn 0.3833450376987457 0.1723286658525467 0.9073861241340637
vn 0.48436614871025085 0.020983712747693062 0.8746137022972107
vn 0.4241425693035126 0.3473512530326843 0.836331307888031
vn -0.5125076174736023 0.21352356672286987 0.8317112326622009
vn -0.31412065029144287 0.5929137468338013 0.7414724826812744
vn 0.48465415835380554 0.024380315095186234 -0.8743659853935242
vn 0.6395667195320129 0.20293810963630676 0.7414650917053223
vn 0.5152534246444702 -0.20673620700836182 0.831729531288147
vn -0.15279987454414368 0.39162638783454895 -0.9073483943939209
vn -0.33103278279304504 0.3544251024723053 -0.8745285272598267
vn -0.32859495282173157 0.35688403248786926 0.8744479417800903
vn -0.15948916971683502 0.3949025273323059 0.9047735929489136
vn -0.060458630323410034 0.5450881719589233 0.8361958861351013
vn -0.05919869616627693 0.5450584888458252 -0.8363054394721985
vn 2.7389438400859945e-05 9.826990572037175e-05 1.0
vn 0.0001722375163808465 4.363369953352958e-05 1.0
vn 0.3576657772064209 -0.14217610657215118 0.9229632616043091
vn 0.3579401671886444 -0.14219163358211517 -0.922854483127594
vn 0.0004023133951704949 0.00010349343210691586 -0.9999999403953552
vn -3.431640288908966e-05 0.0002397912903688848 -0.9999998807907104
vn -0.019315747544169426 0.3831841051578522 -0.9234699010848999
vn -0.18320469558238983 0.07639500498771667 -0.9801019430160522
vn -0.354828417301178 0.14916637539863586 0.9229552149772644
vn -9.231609874404967e-05 0.00015181124035734683 1.0
vn 4.931200237479061e-05 8.930499461712316e-05 1.0
vn 0.2822634279727936 0.2598531246185303 -0.9234737753868103
vn 0.1842426210641861 -0.07385796308517456 -0.9801018834114075
vn 0.00019249833712819964 0.0001470448332838714 -0.9999999403953552
vn -0.00021453168301377445 0.0003557279414962977 -0.9999998807907104
vn -0.355030357837677 0.14935217797756195 -0.9228474497795105
f 1/1/1 2/2/2 3/3/3
f 2/4/2 4/5/4 3/6/3
f 5/7/5 6/8/6 7/9/7
f 6/10/6 8/11/8 7/12/7
f 9/13/9 10/14/10 11/15/11
f 10/16/10 12/17/12 11/18/11
f 13/19/13 14/20/14 15/21/15
f 14/22/14 16/23/16 15/24/15
f 17/25/17 16/26/16 18/27/18
f 16/28/16 14/29/14 18/30/18
f 19/31/19 20/32/20 21/33/21
f 20/34/20 22/35/22 21/36/21
f 23/37/23 24/38/24 25/39/25
f 24/40/24 26/41/26 25/42/25
f 27/43/27 28/44/28 29/45/29
f 28/46/28 30/47/30 29/48/29
f 31/49/31 32/50/32 33/51/33
f 32/52/32 34/53/34 33/54/33
f 35/55/35 36/56/36 34/57/34
f 36/58/36 33/59/33 34/60/34
f 14/61/14 37/62/37 18/63/18
f 37/64/37 38/65/38 18/66/18
f 16/67/16 39/68/39 15/69/15
f 39/70/39 40/71/40 15/72/15
f 17/73/17 41/74/41 16/75/16
f 41/76/41 39/77/39 16/78/16
f 12/79/12 42/80/42 11/81/11
f 42/82/42 43/83/43 11/84/11
f 13/85/13 44/86/44 14/87/14
f 44/88/44 37/89/37 14/90/14
f 28/91/28 45/92/45 30/93/30
f 45/94/45 46/95/46 30/96/30
f 33/97/33 47/98/47 31/99/31
f 47/100/47 48/101/48 31/102/31
f 32/103/32 49/104/49 34/105/34
f 49/106/49 50/107/50 34/108/34
f 34/109/34 50/110/50 35/111/35
f 50/112/50 51/113/51 35/114/35
f 36/115/36 52/116/52 33/117/33
f 52/118/52 47/119/47 33/120/33
f 43/121/43 42/122/42 53/123/53
f 41/124/41 43/125/43 53/126/53
f 41/127/41 53/128/53 54/129/54
f 39/130/39 41/131/41 54/132/54
f 39/133/39 54/134/54 55/135/55
f 40/136/40 39/137/39 55/138/55
f 44/139/44 56/140/56 37/141/37
f 56/142/56 57/143/57 37/144/37
f 37/145/37 57/146/57 38/147/38
f 57/148/57 58/149/58 38/150/38
f 38/151/38 58/152/58 59/153/59
f 58/154/58 60/155/60 59/156/59
f 49/157/49 61/158/61 50/159/50
f 61/160/61 62/161/62 50/162/50
f 50/163/50 62/164/62 51/165/51
f 62/166/62 63/167/63 51/168/51
f 51/169/51 63/170/63 45/171/45
f 63/172/63 46/173/46 45/174/45
f 64/175/64 65/176/65 66/177/66
f 52/178/52 64/179/64 66/180/66
f 52/181/52 66/182/66 67/183/67
f 47/184/47 52/185/52 67/186/67
f 47/187/47 67/188/67 68/189/68
f 48/190/48 47/191/47 68/192/68
f 29/193/29 65/194/65 27/195/27
f 65/196/65 64/197/64 27/198/27
f 27/199/27 64/200/64 23/201/23
f 5/202/5 59/203/59 9/204/9
f 9/205/9 59/206/59 10/207/10
f 59/208/59 60/209/60 10/210/10
f 40/211/40 55/212/55 4/213/4
f 2/214/2 40/215/40 4/216/4
f 15/217/15 40/218/40 2/219/2
f 13/220/13 15/221/15 2/222/2
f 1/223/1 13/224/13 2/225/2
f 44/226/44 13/227/13 1/228/1
f 56/229/56 44/230/44 1/231/1
f 3/232/3 56/233/56 1/234/1
f 38/235/38 59/236/59 5/237/5
f 7/238/7 38/239/38 5/240/5
f 7/241/7 18/242/18 38/243/38
f 17/244/17 18/245/18 7/246/7
f 8/247/8 17/248/17 7/249/7
f 41/250/41 17/251/17 8/252/8
f 43/253/43 41/254/41 8/255/8
f 6/256/6 43/257/43 8/258/8
f 11/259/11 43/260/43 6/261/6
f 9/262/9 11/263/11 6/264/6
f 5/265/5 9/266/9 6/267/6
f 48/268/48 68/269/68 20/270/20
f 19/271/19 48/272/48 20/273/20
f 31/274/31 48/275/48 19/276/19
f 32/277/32 31/278/31 19/279/19
f 21/280/21 32/281/32 19/282/19
f 49/283/49 32/284/32 21/285/21
f 61/286/61 49/287/49 21/288/21
f 22/289/22 61/290/61 21/291/21
f 28/292/28 27/293/27 23/294/23
f 25/295/25 28/296/28 23/297/23
f 45/298/45 28/299/28 25/300/25
f 51/301/51 45/302/45 25/303/25
f 26/304/26 51/305/51 25/306/25
f 26/307/26 35/308/35 51/309/51
f 36/310/36 35/311/35 26/312/26
f 24/313/24 36/314/36 26/315/26
f 24/316/24 52/317/52 36/318/36
f 64/319/64 52/320/52 24/321/24
f 23/322/23 64/323/64 24/324/24
