# Exported by Lightwave Blender addon
v 148.3163299560547 -158.28907775878906 903.5558471679688
v 108.95738983154297 -142.57618713378906 903.5558471679688
v 148.3163299560547 -158.28907775878906 766.7496948242188
v 108.95738983154297 -142.57618713378906 766.7496948242188
v 188.8893280029297 -174.48666381835938 766.7496948242188
v 188.8893585205078 -174.48666381835938 903.5558471679688
v 149.29983520507812 -158.6817169189453 766.7496948242188
v 149.29983520507812 -158.6817169189453 903.5558471679688
vt 0.497802734375 0.9884872436523438
vt 0.251220703125 0.9884872436523438
vt 0.497802734375 0.22509765625
vt 0.251220703125 0.9884872436523438
vt 0.251220703125 0.22509765625
vt 0.497802734375 0.22509765625
vt 0.2491455078125 0.22509765625
vt 0.2491455078125 0.9884872436523438
vt 0.00260162353515625 0.22509765625
vt 0.2491455078125 0.9884872436523438
vt 0.00260162353515625 0.9884872436523438
vt 0.00260162353515625 0.22509765625
vn -0.37076640129089355 -0.9287261366844177 0.0
vn -0.37076643109321594 -0.9287261366844177 0.0
vn -0.37076643109321594 -0.9287261366844177 0.0
vn -0.37076640129089355 -0.9287261366844177 0.0
vn -0.3707667291164398 -0.9287260174751282 8.270755813555297e-08
vn -0.3707665205001831 -0.9287261962890625 1.5902827499303385e-08
vn -0.37076666951179504 -0.928726077079773 6.680471642539487e-08
vn -0.37076643109321594 -0.9287261366844177 0.0
f 1/1/1 2/2/2 3/3/3
f 2/4/2 4/5/4 3/6/3
f 5/7/5 6/8/6 7/9/7
f 6/10/6 8/11/8 7/12/7
