# Exported by Lightwave Blender addon
v -0.8618767857551575 -1262.8504638671875 219.3242645263672
v -0.8618844151496887 -1262.8504638671875 323.60955810546875
v -6.750273704528809 -1277.65625 219.3223114013672
v -6.750273704528809 -1277.6563720703125 323.6103515625
v -22.983549118041992 -1238.8804931640625 219.3243865966797
v -22.983991622924805 -1238.88037109375 323.6094665527344
v -8.511855125427246 -1244.7979736328125 219.3243865966797
v -8.512221336364746 -1244.7978515625 323.6094970703125
v -24.2937068939209 -1239.425048828125 219.32432556152344
v -35.34913635253906 -1265.9642333984375 219.3223114013672
v -24.29414176940918 -1239.4249267578125 323.6094970703125
v -35.349586486816406 -1265.9639892578125 323.6103515625
v -0.9552262425422668 -1261.034912109375 219.3241424560547
v -4.568137168884277 -1254.1160888671875 219.3223114013672
v -0.9552262425422668 -1261.034912109375 323.6095886230469
v -4.568362236022949 -1254.115966796875 323.6103515625
v -7.2667341232299805 -1246.1240234375 323.6095886230469
v -7.266360282897949 -1246.1240234375 219.3241729736328
v 94.38819885253906 -1301.798828125 219.3242645263672
v 88.21563720703125 -1316.48828125 219.3223114013672
v 94.38819885253906 -1301.798828125 323.60955810546875
v 88.21563720703125 -1316.4884033203125 323.6103515625
v 126.9666748046875 -1300.1961669921875 219.3243865966797
v 112.49494934082031 -1294.278564453125 219.3243865966797
v 126.96710205078125 -1300.1962890625 323.6094665527344
v 112.49533081054688 -1294.2786865234375 323.6094970703125
v 127.51985168457031 -1301.502685546875 219.32432556152344
v 127.52032470703125 -1301.5029296875 323.6094970703125
v 116.81295776367188 -1328.184326171875 219.3223114013672
v 116.81340026855469 -1328.1845703125 323.6103515625
v 95.72691345214844 -1300.5687255859375 219.3241424560547
v 95.72691345214844 -1300.5687255859375 323.6095886230469
v 103.15238952636719 -1298.1636962890625 219.3223114013672
v 103.15260314941406 -1298.1639404296875 323.6103515625
v 110.67762756347656 -1294.3521728515625 323.6095886230469
v 110.67726135253906 -1294.3519287109375 219.3241729736328
v -5.021994590759277 -1255.007080078125 218.32203674316406
v -7.974165916442871 -1246.0982666015625 218.32411193847656
v -5.0222272872924805 -1255.007080078125 324.6104736328125
v -1.5909837484359741 -1261.9776611328125 324.60980224609375
v -7.974547386169434 -1246.09814453125 324.609619140625
v -34.42405700683594 -1266.3426513671875 324.6105041503906
v -23.368528366088867 -1239.803466796875 324.609619140625
v -1.5909761190414429 -1261.9776611328125 218.32371520996094
v -23.36806297302246 -1239.8037109375 218.3240509033203
v -34.42359161376953 -1266.3427734375 218.3219451904297
v 115.88726806640625 -1327.8060302734375 218.3219451904297
v 126.59420776367188 -1301.124267578125 218.3240509033203
v 126.59468078613281 -1301.12451171875 324.609619140625
v 115.88772583007812 -1327.80615234375 324.6105041503906
v 102.85188293457031 -1299.1175537109375 218.32203674316406
v 95.51988220214844 -1301.6868896484375 218.32371520996094
v 95.51986694335938 -1301.686767578125 324.60980224609375
v 102.85209655761719 -1299.11767578125 324.6104736328125
v 111.20071411132812 -1294.8297119140625 324.609619140625
v 111.2003173828125 -1294.82958984375 218.32411193847656
v -19.129148483276367 -1272.600341796875 324.6130065917969
v -14.867724418640137 -1274.3370361328125 324.6130065917969
v -7.67587947845459 -1277.27783203125 324.61065673828125
v -7.675887107849121 -1277.2777099609375 218.3216094970703
v -14.86750316619873 -1274.3370361328125 218.3161163330078
v -19.128469467163086 -1272.6007080078125 218.3161163330078
v 89.1412353515625 -1316.8670654296875 324.61065673828125
v 96.33308410644531 -1319.807861328125 324.6130065917969
v 100.59033203125 -1321.5545654296875 324.6130065917969
v 100.58964538574219 -1321.5543212890625 218.3161163330078
v 96.33285522460938 -1319.8076171875 218.3161163330078
v 89.1412353515625 -1316.866943359375 218.3216094970703
vt 0.50341796875 -0.4453125
vt 0.50341796875 0.076171875
vt 0.423828125 -0.4453125
vt 0.50341796875 0.076171875
vt 0.423828125 0.076171875
vt 0.423828125 -0.4453125
vt 0.58740234375 -0.4453125
vt 0.58740234375 0.076171875
vt 0.50927734375 -0.4453125
vt 0.58740234375 0.076171875
vt 0.50927734375 0.076171875
vt 0.50927734375 -0.4453125
vt 0.43212890625 -0.4453125
vt 0.57568359375 -0.4453125
vt 0.43212890625 0.076171875
vt 0.57568359375 -0.4453125
vt 0.57568359375 0.076171875
vt 0.43212890625 0.076171875
vt 0.44384765625 -0.4453125
vt 0.4736328125 -0.4453125
vt 0.44384765625 0.076171875
vt 0.4736328125 -0.4453125
vt 0.4736328125 0.076171875
vt 0.44384765625 0.076171875
vt 0.56884765625 0.076171875
vt 0.537109375 0.076171875
vt 0.56884765625 -0.4453125
vt 0.537109375 0.076171875
vt 0.537109375 -0.4453125
vt 0.56884765625 -0.4453125
vt 0.49609375 -0.4453125
vt 0.57568359375 -0.4453125
vt 0.49609375 0.076171875
vt 0.57568359375 -0.4453125
vt 0.57568359375 0.076171875
vt 0.49609375 0.076171875
vt -0.22216796875 -0.4453125
vt -0.1439208984375 -0.4453125
vt -0.22216796875 0.076171875
vt -0.1439208984375 -0.4453125
vt -0.1439208984375 0.076171875
vt -0.22216796875 0.076171875
vt 0.5673828125 -0.4453125
vt 0.5673828125 0.076171875
vt 0.423828125 -0.4453125
vt 0.5673828125 0.076171875
vt 0.423828125 0.076171875
vt 0.423828125 -0.4453125
vt -0.07830810546875 -0.4453125
vt -0.07830810546875 0.076171875
vt -0.10809326171875 -0.4453125
vt -0.07830810546875 0.076171875
vt -0.10809326171875 0.076171875
vt -0.10809326171875 -0.4453125
vt 0.430908203125 0.076171875
vt 0.430908203125 -0.4453125
vt 0.462646484375 0.076171875
vt 0.430908203125 -0.4453125
vt 0.462646484375 -0.4453125
vt 0.462646484375 0.076171875
vt 0.537109375 -0.4453125
vt 0.53173828125 -0.4501953125
vt 0.56884765625 -0.4453125
vt 0.53173828125 -0.4501953125
vt 0.5673828125 -0.4501953125
vt 0.56884765625 -0.4453125
vt 0.4736328125 0.462890625
vt 0.47412109375 0.46826171875
vt 0.44384765625 0.48828125
vt 0.47412109375 0.46826171875
vt 0.445068359375 0.49365234375
vt 0.44384765625 0.48828125
vt 0.56884765625 0.076171875
vt 0.5673828125 0.0810546875
vt 0.537109375 0.076171875
vt 0.5673828125 0.0810546875
vt 0.53173828125 0.0810546875
vt 0.537109375 0.076171875
vt 0.57568359375 0.076171875
vt 0.57568359375 0.0810546875
vt 0.43212890625 0.076171875
vt 0.57568359375 0.0810546875
vt 0.43212890625 0.0810546875
vt 0.43212890625 0.076171875
vt 0.5556640625 0.48828125
vt 0.5546875 0.49365234375
vt 0.52587890625 0.462890625
vt 0.5546875 0.49365234375
vt 0.525390625 0.46826171875
vt 0.52587890625 0.462890625
vt 0.43212890625 -0.4453125
vt 0.43212890625 -0.4501953125
vt 0.57568359375 -0.4453125
vt 0.43212890625 -0.4501953125
vt 0.57568359375 -0.4501953125
vt 0.57568359375 -0.4453125
vt 0.423828125 -0.4453125
vt 0.423828125 -0.4501953125
vt 0.5673828125 -0.4453125
vt 0.423828125 -0.4501953125
vt 0.5673828125 -0.4501953125
vt 0.5673828125 -0.4453125
vt 0.5673828125 0.076171875
vt 0.5673828125 0.0810546875
vt 0.423828125 0.076171875
vt 0.5673828125 0.0810546875
vt 0.423828125 0.0810546875
vt 0.423828125 0.076171875
vt 1.107421875 0.462890625
vt 1.1083984375 0.46826171875
vt 1.078125 0.48828125
vt 1.1083984375 0.46826171875
vt 1.0791015625 0.49365234375
vt 1.078125 0.48828125
vt -0.07830810546875 0.48828125
vt -0.0794677734375 0.49365234375
vt -0.10809326171875 0.462890625
vt -0.0794677734375 0.49365234375
vt -0.1085205078125 0.46826171875
vt -0.10809326171875 0.462890625
vt 0.462646484375 0.076171875
vt 0.4677734375 0.0810546875
vt 0.430908203125 0.076171875
vt 0.4677734375 0.0810546875
vt 0.43212890625 0.0810546875
vt 0.430908203125 0.076171875
vt 0.430908203125 -0.4453125
vt 0.43212890625 -0.4501953125
vt 0.462646484375 -0.4453125
vt 0.43212890625 -0.4501953125
vt 0.4677734375 -0.4501953125
vt 0.462646484375 -0.4453125
vt 0.58740234375 0.4326171875
vt 0.58837890625 0.576171875
vt 0.505859375 0.576171875
vt 0.50439453125 0.4326171875
vt 0.58740234375 0.4326171875
vt 0.505859375 0.576171875
vt 0.50439453125 0.4326171875
vt 0.505859375 0.576171875
vt 0.483154296875 0.576171875
vt 0.47412109375 0.46826171875
vt 0.50439453125 0.4326171875
vt 0.483154296875 0.576171875
vt 0.47412109375 0.46826171875
vt 0.483154296875 0.576171875
vt 0.444091796875 0.576171875
vt 0.445068359375 0.49365234375
vt 0.47412109375 0.46826171875
vt 0.444091796875 0.576171875
vt 0.5546875 0.49365234375
vt 0.5556640625 0.576171875
vt 0.525390625 0.46826171875
vt 0.5556640625 0.576171875
vt 0.5166015625 0.576171875
vt 0.525390625 0.46826171875
vt 0.525390625 0.46826171875
vt 0.5166015625 0.576171875
vt 0.4951171875 0.4326171875
vt 0.5166015625 0.576171875
vt 0.49365234375 0.576171875
vt 0.4951171875 0.4326171875
vt 0.4951171875 0.4326171875
vt 0.49365234375 0.576171875
vt 0.412109375 0.4326171875
vt 0.49365234375 0.576171875
vt 0.4111328125 0.576171875
vt 0.412109375 0.4326171875
vt -0.0794677734375 0.49365234375
vt -0.07867431640625 0.576171875
vt -0.1085205078125 0.46826171875
vt -0.07867431640625 0.576171875
vt -0.11749267578125 0.576171875
vt -0.1085205078125 0.46826171875
vt -0.1085205078125 0.46826171875
vt -0.11749267578125 0.576171875
vt -0.1390380859375 0.4326171875
vt -0.11749267578125 0.576171875
vt -0.1405029296875 0.576171875
vt -0.1390380859375 0.4326171875
vt -0.1390380859375 0.4326171875
vt -0.1405029296875 0.576171875
vt -0.22216796875 0.4326171875
vt -0.1405029296875 0.576171875
vt -0.22314453125 0.576171875
vt -0.22216796875 0.4326171875
vt 1.2216796875 0.4326171875
vt 1.22265625 0.576171875
vt 1.1396484375 0.576171875
vt 1.138671875 0.4326171875
vt 1.2216796875 0.4326171875
vt 1.1396484375 0.576171875
vt 1.138671875 0.4326171875
vt 1.1396484375 0.576171875
vt 1.1171875 0.576171875
vt 1.1083984375 0.46826171875
vt 1.138671875 0.4326171875
vt 1.1171875 0.576171875
vt 1.1083984375 0.46826171875
vt 1.1171875 0.576171875
vt 1.078125 0.576171875
vt 1.0791015625 0.49365234375
vt 1.1083984375 0.46826171875
vt 1.078125 0.576171875
vt 0.50634765625 0.0810546875
vt 0.423828125 0.0810546875
vt 0.423828125 0.076171875
vt 0.50341796875 0.076171875
vt 0.50634765625 0.0810546875
vt 0.423828125 0.076171875
vt 0.51171875 0.076171875
vt 0.50634765625 0.0810546875
vt 0.50341796875 0.076171875
vt 0.51171875 -0.4453125
vt 0.51171875 0.076171875
vt 0.50341796875 0.076171875
vt 0.50341796875 -0.4453125
vt 0.51171875 -0.4453125
vt 0.50341796875 0.076171875
vt 0.50634765625 -0.4501953125
vt 0.51171875 -0.4453125
vt 0.50341796875 -0.4453125
vt 0.423828125 -0.4501953125
vt 0.50634765625 -0.4501953125
vt 0.50341796875 -0.4453125
vt 0.423828125 -0.4453125
vt 0.423828125 -0.4501953125
vt 0.50341796875 -0.4453125
vt 0.493408203125 -0.4501953125
vt 0.57568359375 -0.4501953125
vt 0.57568359375 -0.4453125
vt 0.49609375 -0.4453125
vt 0.493408203125 -0.4501953125
vt 0.57568359375 -0.4453125
vt 0.488037109375 -0.4453125
vt 0.493408203125 -0.4501953125
vt 0.49609375 -0.4453125
vt 0.488037109375 0.076171875
vt 0.488037109375 -0.4453125
vt 0.49609375 -0.4453125
vt 0.49609375 0.076171875
vt 0.488037109375 0.076171875
vt 0.49609375 -0.4453125
vt 0.493408203125 0.0810546875
vt 0.488037109375 0.076171875
vt 0.49609375 0.076171875
vt 0.57568359375 0.0810546875
vt 0.493408203125 0.0810546875
vt 0.49609375 0.076171875
vt 0.57568359375 0.076171875
vt 0.57568359375 0.0810546875
vt 0.49609375 0.076171875
vt 0.58740234375 -0.4453125
vt 0.58740234375 -0.4501953125
vt 0.5927734375 -0.4453125
vt 0.50439453125 -0.4501953125
vt 0.58740234375 -0.4501953125
vt 0.58740234375 -0.4453125
vt 0.58740234375 -0.4453125
vt 0.5927734375 -0.4453125
vt 0.58740234375 0.076171875
vt 0.50927734375 -0.4453125
vt 0.50439453125 -0.4501953125
vt 0.58740234375 -0.4453125
vt 0.5927734375 -0.4453125
vt 0.5927734375 0.076171875
vt 0.58740234375 0.076171875
vt 0.50927734375 -0.4453125
vt 0.5009765625 -0.4453125
vt 0.50439453125 -0.4501953125
vt 0.5927734375 0.076171875
vt 0.58740234375 0.0810546875
vt 0.58740234375 0.076171875
vt 0.5009765625 0.076171875
vt 0.5009765625 -0.4453125
vt 0.50927734375 -0.4453125
vt 0.58740234375 0.076171875
vt 0.58740234375 0.0810546875
vt 0.50927734375 0.076171875
vt 0.50927734375 0.076171875
vt 0.5009765625 0.076171875
vt 0.50927734375 -0.4453125
vt 0.58740234375 0.0810546875
vt 0.50439453125 0.0810546875
vt 0.50927734375 0.076171875
vt 0.50439453125 0.0810546875
vt 0.5009765625 0.076171875
vt 0.50927734375 0.076171875
vt -0.1439208984375 0.076171875
vt -0.1357421875 0.076171875
vt -0.1390380859375 0.0810546875
vt -0.1357421875 -0.4453125
vt -0.1357421875 0.076171875
vt -0.1439208984375 0.076171875
vt -0.1439208984375 0.076171875
vt -0.1390380859375 0.0810546875
vt -0.22216796875 0.076171875
vt -0.1439208984375 -0.4453125
vt -0.1357421875 -0.4453125
vt -0.1439208984375 0.076171875
vt -0.1390380859375 0.0810546875
vt -0.22216796875 0.0810546875
vt -0.22216796875 0.076171875
vt -0.1439208984375 -0.4453125
vt -0.1390380859375 -0.4501953125
vt -0.1357421875 -0.4453125
vt -0.22216796875 0.0810546875
vt -0.2271728515625 0.076171875
vt -0.22216796875 0.076171875
vt -0.22216796875 -0.4501953125
vt -0.1390380859375 -0.4501953125
vt -0.1439208984375 -0.4453125
vt -0.22216796875 0.076171875
vt -0.2271728515625 0.076171875
vt -0.22216796875 -0.4453125
vt -0.22216796875 -0.4453125
vt -0.22216796875 -0.4501953125
vt -0.1439208984375 -0.4453125
vt -0.2271728515625 0.076171875
vt -0.2271728515625 -0.4453125
vt -0.22216796875 -0.4453125
vt -0.2271728515625 -0.4453125
vt -0.22216796875 -0.4501953125
vt -0.22216796875 -0.4453125
vn 0.9221979379653931 -0.17596177756786346 -0.3443666994571686
vn 0.9221636652946472 -0.17596958577632904 0.3444545567035675
vn 0.8588690161705017 -0.34152951836586 -0.38170889019966125
vn 0.8588314652442932 -0.3415391743183136 0.3817848265171051
vn 0.01697666384279728 0.9397907257080078 -0.341328501701355
vn 0.016971636563539505 0.9397876262664795 0.3413371443748474
vn 0.5042810440063477 0.795326292514801 -0.3363876938819885
vn 0.5042927265167236 0.7953051924705505 0.33642008900642395
vn -0.6781375408172607 0.6508606672286987 -0.3413352966308594
vn -0.8530687689781189 0.3553953170776367 -0.3820572793483734
vn -0.6781411170959473 0.6508477330207825 0.34135302901268005
vn -0.8530594706535339 0.35537347197532654 0.38209840655326843
vn 0.8993061780929565 0.269564151763916 -0.3443596661090851
vn 0.8757331967353821 0.35912349820137024 -0.3226790428161621
vn 0.9022862911224365 0.2656800150871277 0.3395489752292633
vn 0.8759700655937195 0.3609139323234558 0.320027232170105
vn 0.8366143107414246 0.4816242754459381 0.26098763942718506
vn 0.8369379639625549 0.48047932982444763 -0.26205796003341675
vn -0.7812853455543518 0.520588755607605 -0.34435513615608215
vn -0.8520814180374146 0.3580988943576813 -0.38173621892929077
vn -0.7812749147415161 0.5205606818199158 0.3444214165210724
vn -0.8520651459693909 0.35805854201316833 0.38181015849113464
vn 0.6463778614997864 0.6824229955673218 -0.3413130044937134
vn 0.19746683537960052 0.92078697681427 -0.3363899290561676
vn 0.6463637351989746 0.6824098825454712 0.3413659334182739
vn 0.19743742048740387 0.9207831025123596 0.3364177346229553
vn 0.9398860931396484 -0.010781612247228622 -0.34131789207458496
vn 0.9398740530014038 -0.01078646257519722 0.3413509726524353
vn 0.8576645255088806 -0.34413760900497437 -0.3820744752883911
vn 0.8576478362083435 -0.3441483974456787 0.3821021616458893
vn -0.4576805830001831 0.8217552900314331 -0.3394800126552582
vn -0.4527287185192108 0.8224462270736694 0.344411164522171
vn -0.3721221387386322 0.8712644577026367 -0.32003656029701233
vn -0.37319567799568176 0.8698253631591797 0.32269003987312317
vn -0.26052534580230713 0.9292148947715759 0.26208072900772095
vn -0.2594018876552582 0.929831326007843 -0.2610066831111908
vn 0.3906156122684479 0.1700652688741684 -0.9047084450721741
vn 0.4250709116458893 0.3466452360153198 -0.8361530303955078
vn 0.38334545493125916 0.17232677340507507 0.9073862433433533
vn 0.48435795307159424 0.02098679356276989 0.8746181130409241
vn 0.4241568148136139 0.3473428785800934 0.8363276124000549
vn -0.3545692563056946 0.14773418009281158 0.9232850670814514
vn -0.18566788733005524 0.4467051923274994 0.8752039074897766
vn 0.48465028405189514 0.0243882704526186 -0.8743679523468018
vn -0.18567298352718353 0.4467506408691406 -0.875179648399353
vn -0.35469433665275574 0.1478303074836731 -0.9232216477394104
vn 0.3566332161426544 -0.1430393010377884 -0.9232293367385864
vn 0.44552046060562134 0.1886662244796753 -0.8751665949821472
vn 0.4454590380191803 0.1885969489812851 0.8752127289772034
vn 0.3564894497394562 -0.14302343130111694 0.9232873916625977
vn -0.15279993414878845 0.3916294276714325 -0.9073470234870911
vn -0.33103516697883606 0.3544470965862274 -0.8745188117027283
vn -0.32860055565834045 0.3569025993347168 0.8744382858276367
vn -0.15949846804141998 0.39493080973625183 0.9047595858573914
vn -0.06045437976717949 0.5450842976570129 0.8361986875534058
vn -0.059197306632995605 0.5450589060783386 -0.8363052010536194
vn -1.3438437235890888e-05 0.00010158347140531987 1.0
vn 0.00017223581380676478 4.3634219764498994e-05 1.0
vn 0.35767892003059387 -0.14217980206012726 0.9229576587677002
vn 0.35795003175735474 -0.1421961635351181 -0.9228498935699463
vn 0.00040231275488622487 0.00010349394142394885 -0.9999998807907104
vn -2.9622055080835707e-05 0.0002391089656157419 -0.9999999403953552
vn -0.3547993004322052 0.14915579557418823 0.9229680299758911
vn -9.231574949808419e-05 0.00015181097842287272 1.0
vn 8.076408266788349e-05 6.306298746494576e-05 1.0
vn 0.00018867134349420667 0.0001498463243478909 -0.9999999403953552
vn -0.0002145328326150775 0.00035572817432694137 -0.9999999403953552
vn -0.3550007939338684 0.14933818578720093 -0.9228610992431641
f 1/1/1 2/2/2 3/3/3
f 2/4/2 4/5/4 3/6/3
f 5/7/5 6/8/6 7/9/7
f 6/10/6 8/11/8 7/12/7
f 9/13/9 10/14/10 11/15/11
f 10/16/10 12/17/12 11/18/11
f 13/19/13 14/20/14 15/21/15
f 14/22/14 16/23/16 15/24/15
f 17/25/17 16/26/16 18/27/18
f 16/28/16 14/29/14 18/30/18
f 19/31/19 20/32/20 21/33/21
f 20/34/20 22/35/22 21/36/21
f 23/37/23 24/38/24 25/39/25
f 24/40/24 26/41/26 25/42/25
f 27/43/27 28/44/28 29/45/29
f 28/46/28 30/47/30 29/48/29
f 31/49/31 32/50/32 33/51/33
f 32/52/32 34/53/34 33/54/33
f 35/55/35 36/56/36 34/57/34
f 36/58/36 33/59/33 34/60/34
f 14/61/14 37/62/37 18/63/18
f 37/64/37 38/65/38 18/66/18
f 16/67/16 39/68/39 15/69/15
f 39/70/39 40/71/40 15/72/15
f 17/73/17 41/74/41 16/75/16
f 41/76/41 39/77/39 16/78/16
f 12/79/12 42/80/42 11/81/11
f 42/82/42 43/83/43 11/84/11
f 13/85/13 44/86/44 14/87/14
f 44/88/44 37/89/37 14/90/14
f 9/91/9 45/92/45 10/93/10
f 45/94/45 46/95/46 10/96/10
f 29/97/29 47/98/47 27/99/27
f 47/100/47 48/101/48 27/102/27
f 28/103/28 49/104/49 30/105/30
f 49/106/49 50/107/50 30/108/30
f 33/109/33 51/110/51 31/111/31
f 51/112/51 52/113/52 31/114/31
f 32/115/32 53/116/53 34/117/34
f 53/118/53 54/119/54 34/120/34
f 34/121/34 54/122/54 35/123/35
f 54/124/54 55/125/55 35/126/35
f 36/127/36 56/128/56 33/129/33
f 56/130/56 51/131/51 33/132/33
f 43/133/43 42/134/42 57/135/57
f 41/136/41 43/137/43 57/138/57
f 41/139/41 57/140/57 58/141/58
f 39/142/39 41/143/41 58/144/58
f 39/145/39 58/146/58 59/147/59
f 40/148/40 39/149/39 59/150/59
f 44/151/44 60/152/60 37/153/37
f 60/154/60 61/155/61 37/156/37
f 37/157/37 61/158/61 38/159/38
f 61/160/61 62/161/62 38/162/38
f 38/163/38 62/164/62 45/165/45
f 62/166/62 46/167/46 45/168/45
f 53/169/53 63/170/63 54/171/54
f 63/172/63 64/173/64 54/174/54
f 54/175/54 64/176/64 55/177/55
f 64/178/64 65/179/65 55/180/55
f 55/181/55 65/182/65 49/183/49
f 65/184/65 50/185/50 49/186/49
f 48/187/48 47/188/47 66/189/66
f 56/190/56 48/191/48 66/192/66
f 56/193/56 66/194/66 67/195/67
f 51/196/51 56/197/56 67/198/67
f 51/199/51 67/200/67 68/201/68
f 52/202/52 51/203/51 68/204/68
f 40/205/40 59/206/59 4/207/4
f 2/208/2 40/209/40 4/210/4
f 15/211/15 40/212/40 2/213/2
f 13/214/13 15/215/15 2/216/2
f 1/217/1 13/218/13 2/219/2
f 44/220/44 13/221/13 1/222/1
f 60/223/60 44/224/44 1/225/1
f 3/226/3 60/227/60 1/228/1
f 52/229/52 68/230/68 20/231/20
f 19/232/19 52/233/52 20/234/20
f 31/235/31 52/236/52 19/237/19
f 32/238/32 31/239/31 19/240/19
f 21/241/21 32/242/32 19/243/19
f 53/244/53 32/245/32 21/246/21
f 63/247/63 53/248/53 21/249/21
f 22/250/22 63/251/63 21/252/21
f 5/253/5 45/254/45 9/255/9
f 38/256/38 45/257/45 5/258/5
f 5/259/5 9/260/9 6/261/6
f 7/262/7 38/263/38 5/264/5
f 9/265/9 11/266/11 6/267/6
f 7/268/7 18/269/18 38/270/38
f 11/271/11 43/272/43 6/273/6
f 17/274/17 18/275/18 7/276/7
f 6/277/6 43/278/43 8/279/8
f 8/280/8 17/281/17 7/282/7
f 43/283/43 41/284/41 8/285/8
f 41/286/41 17/287/17 8/288/8
f 26/289/26 35/290/35 55/291/55
f 36/292/36 35/293/35 26/294/26
f 26/295/26 55/296/55 25/297/25
f 24/298/24 36/299/36 26/300/26
f 55/301/55 49/302/49 25/303/25
f 24/304/24 56/305/56 36/306/36
f 49/307/49 28/308/28 25/309/25
f 48/310/48 56/311/56 24/312/24
f 25/313/25 28/314/28 23/315/23
f 23/316/23 48/317/48 24/318/24
f 28/319/28 27/320/27 23/321/23
f 27/322/27 48/323/48 23/324/23
