# Exported by Lightwave Blender addon
v 758.26220703125 1583.778076171875 275.0765380859375
v 836.6639404296875 1681.011962890625 275.0765380859375
v 750.1197509765625 1590.343505859375 215.7510528564453
v 828.5215454101562 1687.577392578125 215.7510528564453
v 395.99688720703125 1134.496826171875 275.0765075683594
v 474.3984375 1231.73046875 275.0765075683594
v 387.8544921875 1141.062255859375 215.75103759765625
v 466.25604248046875 1238.2958984375 215.7510528564453
vt -0.146728515625 1.324951171875
vt -0.146728515625 2.9580078125
vt -0.93408203125 1.324951171875
vt -0.146728515625 2.9580078125
vt -0.93408203125 2.9580078125
vt -0.93408203125 1.324951171875
vt -0.146728515625 1.324951171875
vt -0.146728515625 2.9580078125
vt -0.93408203125 1.324951171875
vt -0.146728515625 2.9580078125
vt -0.93408203125 2.9580078125
vt -0.93408203125 1.324951171875
vn -0.7666383981704712 0.6181566715240479 0.17363177239894867
vn -0.7666382193565369 0.618156909942627 0.17363114655017853
vn -0.7666383385658264 0.6181567907333374 0.17363150417804718
vn -0.7666382193565369 0.6181570291519165 0.17363090813159943
vn -0.7666383981704712 0.6181567907333374 0.17363101243972778
vn -0.7666383385658264 0.6181567907333374 0.1736309826374054
vn -0.7666383385658264 0.6181567907333374 0.1736309975385666
vn -0.766638457775116 0.6181568503379822 0.17363101243972778
f 1/1/1 2/2/2 3/3/3
f 2/4/2 4/5/4 3/6/3
f 5/7/5 6/8/6 7/9/7
f 6/10/6 8/11/8 7/12/7
