# Exported by Lightwave Blender addon
v 110.29244995117188 776.8659057617188 862.2234497070312
v 110.29246520996094 776.8659057617188 820.8849487304688
v 66.05384826660156 696.8001098632812 862.223388671875
v 66.0538558959961 696.8001098632812 820.8849487304688
vt 0.0013761520385742188 0.2392578125
vt 0.0013761520385742188 0.00732421875
vt 0.57177734375 0.2392578125
vt 0.0013761520385742188 0.00732421875
vt 0.57177734375 0.00732421875
vt 0.57177734375 0.2392578125
vn -0.8752798438072205 0.4836167097091675 -3.2308162190020084e-07
vn -0.8752799034118652 0.4836167097091675 -2.7943266900365415e-07
vn -0.8752797842025757 0.48361676931381226 -2.0519004806374141e-07
vn -0.8752799034118652 0.48361679911613464 -1.6154103832377587e-07
f 1/1/1 2/2/2 3/3/3
f 2/4/2 4/5/4 3/6/3
