# Exported by Lightwave Blender addon
v -179.22821044921875 254.3977508544922 248.43008422851562
v -178.68446350097656 254.65931701660156 248.10183715820312
v -178.34092712402344 253.9451904296875 248.43008422851562
v -178.9852752685547 253.8927764892578 248.66220092773438
v -179.4534149169922 254.28939819335938 249.22256469726562
v -178.1986083984375 253.64938354492188 249.22256469726562
v -178.8846435546875 253.68360900878906 249.2225341796875
v -178.34092712402344 253.9451904296875 250.01502990722656
v -178.9852752685547 253.8927764892578 249.78292846679688
v -178.68446350097656 254.65931701660156 250.34327697753906
v -179.22817993164062 254.39773559570312 250.01504516601562
v -179.02801513671875 255.37344360351562 250.01502990722656
v -179.47113037109375 254.9027099609375 249.78292846679688
v -179.1703338623047 255.66925048828125 249.22256469726562
v -179.5717315673828 255.11187744140625 249.2225341796875
v -179.0279998779297 255.3734588623047 248.43008422851562
v -179.47113037109375 254.9027099609375 248.66220092773438
v -156.0551300048828 207.6193389892578 248.43003845214844
v -155.71157836914062 206.90518188476562 248.10179138183594
v -156.25531005859375 206.6436309814453 248.43002319335938
v -156.49822998046875 207.14859008789062 248.66213989257812
v -156.48052978515625 206.5352783203125 249.22250366210938
v -156.19741821289062 207.91513061523438 249.22251892089844
v -156.59886169433594 207.35775756835938 249.22250366210938
v -156.0551300048828 207.61932373046875 250.01499938964844
v -156.49822998046875 207.14859008789062 249.78289794921875
v -155.71157836914062 206.9051971435547 250.34324645996094
v -156.25531005859375 206.64361572265625 250.01498413085938
v -155.36802673339844 206.1910400390625 250.01499938964844
v -156.0123748779297 206.13864135742188 249.78286743164062
v -155.22572326660156 205.89524841308594 249.22251892089844
v -155.91175842285156 205.9294891357422 249.22250366210938
v -155.36802673339844 206.19107055664062 248.43003845214844
v -156.01239013671875 206.13864135742188 248.66213989257812
v -178.34103393554688 253.94525146484375 127.80083465576172
v -178.6845703125 254.65940856933594 128.12908935546875
v -179.22828674316406 254.3978271484375 127.80083465576172
v -178.98536682128906 253.8928680419922 127.56871795654297
v -179.45350646972656 254.2895050048828 127.00836181640625
v -178.19871520996094 253.6494598388672 127.00835418701172
v -178.88475036621094 253.68370056152344 127.00835418701172
v -178.34103393554688 253.94528198242188 126.21588897705078
v -178.98536682128906 253.8928680419922 126.44799041748047
v -178.6845703125 254.65940856933594 125.88762664794922
v -179.22828674316406 254.39785766601562 126.21588897705078
v -179.0281219482422 255.37356567382812 126.21588897705078
v -179.47119140625 254.90281677246094 126.44799041748047
v -179.17039489746094 255.6693572998047 127.00835418701172
v -179.5718231201172 255.1119842529297 127.00835418701172
v -179.0281219482422 255.37353515625 127.80083465576172
v -179.47119140625 254.90281677246094 127.56871795654297
v -156.25538635253906 206.6437225341797 127.80076599121094
v -155.71165466308594 206.90530395507812 128.12904357910156
v -156.05520629882812 207.6194305419922 127.80076599121094
v -156.49830627441406 207.148681640625 127.56866455078125
v -156.48060607910156 206.53536987304688 127.00829315185547
v -156.19749450683594 207.91522216796875 127.00830078125
v -156.59893798828125 207.35784912109375 127.00830078125
v -156.05520629882812 207.6194305419922 126.2158203125
v -156.49830627441406 207.148681640625 126.44793701171875
v -155.71165466308594 206.90530395507812 125.8875732421875
v -156.25538635253906 206.6437225341797 126.2158203125
v -155.3681182861328 206.19117736816406 126.2158203125
v -156.01246643066406 206.13876342773438 126.44793701171875
v -155.22581481933594 205.89535522460938 127.00830078125
v -155.91184997558594 205.92959594726562 127.00830078125
v -155.3681182861328 206.19114685058594 127.80076599121094
v -156.01246643066406 206.13876342773438 127.56866455078125
vt 0.0 0.75
vt 0.0 0.375
vt 0.125 0.375
vt 0.125 0.375
vt 0.125 0.75
vt 0.0 0.75
vt 0.0 1.0
vt 0.0 0.75
vt 0.125 0.75
vt 0.125 0.75
vt 0.125 0.375
vt 0.25 0.375
vt 0.25 0.375
vt 0.25 0.75
vt 0.125 0.75
vt 0.125 1.0
vt 0.125 0.75
vt 0.25 0.75
vt 0.25 0.75
vt 0.25 0.375
vt 0.375 0.375
vt 0.375 0.375
vt 0.375 0.75
vt 0.25 0.75
vt 0.25 1.0
vt 0.25 0.75
vt 0.375 0.75
vt 0.375 0.75
vt 0.375 0.375
vt 0.5 0.375
vt 0.5 0.375
vt 0.5 0.75
vt 0.375 0.75
vt 0.375 1.0
vt 0.375 0.75
vt 0.5 0.75
vt 0.5 0.75
vt 0.5 0.375
vt 0.625 0.375
vt 0.625 0.375
vt 0.625 0.75
vt 0.5 0.75
vt 0.5 1.0
vt 0.5 0.75
vt 0.625 0.75
vt 0.625 0.75
vt 0.625 0.375
vt 0.75 0.375
vt 0.75 0.375
vt 0.75 0.75
vt 0.625 0.75
vt 0.625 1.0
vt 0.625 0.75
vt 0.75 0.75
vt 0.75 0.75
vt 0.75 0.375
vt 0.87451171875 0.375
vt 0.87451171875 0.375
vt 0.87451171875 0.75
vt 0.75 0.75
vt 0.75 1.0
vt 0.75 0.75
vt 0.87451171875 0.75
vt 0.87451171875 0.75
vt 0.87451171875 0.375
vt 0.99951171875 0.375
vt 0.99951171875 0.375
vt 0.99951171875 0.75
vt 0.87451171875 0.75
vt 0.87451171875 1.0
vt 0.87451171875 0.75
vt 0.99951171875 0.75
vt 0.125 0.375
vt 0.0 0.375
vt 0.0 0.75
vt 0.0 0.75
vt 0.125 0.75
vt 0.125 0.375
vt 0.0 1.0
vt 0.125 0.75
vt 0.0 0.75
vt 0.25 0.375
vt 0.125 0.375
vt 0.125 0.75
vt 0.125 0.75
vt 0.25 0.75
vt 0.25 0.375
vt 0.125 1.0
vt 0.25 0.75
vt 0.125 0.75
vt 0.375 0.375
vt 0.25 0.375
vt 0.25 0.75
vt 0.25 0.75
vt 0.375 0.75
vt 0.375 0.375
vt 0.25 1.0
vt 0.375 0.75
vt 0.25 0.75
vt 0.5 0.375
vt 0.375 0.375
vt 0.375 0.75
vt 0.375 0.75
vt 0.5 0.75
vt 0.5 0.375
vt 0.375 1.0
vt 0.5 0.75
vt 0.375 0.75
vt 0.625 0.375
vt 0.5 0.375
vt 0.5 0.75
vt 0.5 0.75
vt 0.625 0.75
vt 0.625 0.375
vt 0.5 1.0
vt 0.625 0.75
vt 0.5 0.75
vt 0.75 0.375
vt 0.625 0.375
vt 0.625 0.75
vt 0.625 0.75
vt 0.75 0.75
vt 0.75 0.375
vt 0.625 1.0
vt 0.75 0.75
vt 0.625 0.75
vt 0.87451171875 0.375
vt 0.75 0.375
vt 0.75 0.75
vt 0.75 0.75
vt 0.87451171875 0.75
vt 0.87451171875 0.375
vt 0.75 1.0
vt 0.87451171875 0.75
vt 0.75 0.75
vt 0.99951171875 0.375
vt 0.87451171875 0.375
vt 0.87451171875 0.75
vt 0.87451171875 0.75
vt 0.99951171875 0.75
vt 0.99951171875 0.375
vt 0.87451171875 1.0
vt 0.99951171875 0.75
vt 0.87451171875 0.75
vt 0.125 0.375
vt 0.0 0.375
vt 0.0 0.75
vt 0.0 0.75
vt 0.125 0.75
vt 0.125 0.375
vt 0.0 1.0
vt 0.125 0.75
vt 0.0 0.75
vt 0.25 0.375
vt 0.125 0.375
vt 0.125 0.75
vt 0.125 0.75
vt 0.25 0.75
vt 0.25 0.375
vt 0.125 1.0
vt 0.25 0.75
vt 0.125 0.75
vt 0.375 0.375
vt 0.25 0.375
vt 0.25 0.75
vt 0.25 0.75
vt 0.375 0.75
vt 0.375 0.375
vt 0.25 1.0
vt 0.375 0.75
vt 0.25 0.75
vt 0.5 0.375
vt 0.375 0.375
vt 0.375 0.75
vt 0.375 0.75
vt 0.5 0.75
vt 0.5 0.375
vt 0.375 1.0
vt 0.5 0.75
vt 0.375 0.75
vt 0.625 0.375
vt 0.5 0.375
vt 0.5 0.75
vt 0.5 0.75
vt 0.625 0.75
vt 0.625 0.375
vt 0.5 1.0
vt 0.625 0.75
vt 0.5 0.75
vt 0.75 0.375
vt 0.625 0.375
vt 0.625 0.75
vt 0.625 0.75
vt 0.75 0.75
vt 0.75 0.375
vt 0.625 1.0
vt 0.75 0.75
vt 0.625 0.75
vt 0.87451171875 0.375
vt 0.75 0.375
vt 0.75 0.75
vt 0.75 0.75
vt 0.87451171875 0.75
vt 0.87451171875 0.375
vt 0.75 1.0
vt 0.87451171875 0.75
vt 0.75 0.75
vt 0.99951171875 0.375
vt 0.87451171875 0.375
vt 0.87451171875 0.75
vt 0.87451171875 0.75
vt 0.99951171875 0.75
vt 0.99951171875 0.375
vt 0.87451171875 1.0
vt 0.99951171875 0.75
vt 0.87451171875 0.75
vt 0.0 0.75
vt 0.0 0.375
vt 0.125 0.375
vt 0.125 0.375
vt 0.125 0.75
vt 0.0 0.75
vt 0.0 1.0
vt 0.0 0.75
vt 0.125 0.75
vt 0.125 0.75
vt 0.125 0.375
vt 0.25 0.375
vt 0.25 0.375
vt 0.25 0.75
vt 0.125 0.75
vt 0.125 1.0
vt 0.125 0.75
vt 0.25 0.75
vt 0.25 0.75
vt 0.25 0.375
vt 0.375 0.375
vt 0.375 0.375
vt 0.375 0.75
vt 0.25 0.75
vt 0.25 1.0
vt 0.25 0.75
vt 0.375 0.75
vt 0.375 0.75
vt 0.375 0.375
vt 0.5 0.375
vt 0.5 0.375
vt 0.5 0.75
vt 0.375 0.75
vt 0.375 1.0
vt 0.375 0.75
vt 0.5 0.75
vt 0.5 0.75
vt 0.5 0.375
vt 0.625 0.375
vt 0.625 0.375
vt 0.625 0.75
vt 0.5 0.75
vt 0.5 1.0
vt 0.5 0.75
vt 0.625 0.75
vt 0.625 0.75
vt 0.625 0.375
vt 0.75 0.375
vt 0.75 0.375
vt 0.75 0.75
vt 0.625 0.75
vt 0.625 1.0
vt 0.625 0.75
vt 0.75 0.75
vt 0.75 0.75
vt 0.75 0.375
vt 0.87451171875 0.375
vt 0.87451171875 0.375
vt 0.87451171875 0.75
vt 0.75 0.75
vt 0.75 1.0
vt 0.75 0.75
vt 0.87451171875 0.75
vt 0.87451171875 0.75
vt 0.87451171875 0.375
vt 0.99951171875 0.375
vt 0.99951171875 0.375
vt 0.99951171875 0.75
vt 0.87451171875 0.75
vt 0.87451171875 1.0
vt 0.87451171875 0.75
vt 0.99951171875 0.75
vn -0.6565893888473511 -0.31586018204689026 -0.6849254369735718
vn -0.4306412935256958 -0.20715273916721344 -0.878428041934967
vn -0.16137190163135529 -0.7669006586074829 -0.621146023273468
vn -0.446629136800766 -0.7523086071014404 -0.4843079149723053
vn -0.9011467695236206 -0.43351417779922485 6.555907475558342e-06
vn -0.049832023680210114 -0.9987576603889465 -1.5549262570857536e-06
vn -0.35965263843536377 -0.9330862164497375 -1.4830660802545026e-05
vn -0.16136138141155243 -0.7669118642807007 0.6211349964141846
vn -0.446626752614975 -0.7523050308227539 0.48431557416915894
vn -0.4306274652481079 -0.2071705460548401 0.8784306049346924
vn -0.6565702557563782 -0.31586703658103943 0.6849404573440552
vn -0.6998996734619141 0.35256144404411316 0.6211608648300171
vn -0.8665490746498108 0.12056907266378403 0.4843097925186157
vn -0.8114635944366455 0.5844029188156128 2.195143224525964e-06
vn -0.9535142779350281 0.3013478219509125 -3.105069117737003e-05
vn -0.6999145150184631 0.35257089138031006 -0.6211388111114502
vn -0.8665489554405212 0.12057902663946152 -0.4843073785305023
vn -0.6999194622039795 0.35257282853126526 -0.6211322546005249
vn -0.4306155741214752 -0.20717808604240417 -0.8784347176551819
vn -0.6565884947776794 -0.31584668159484863 -0.6849323511123657
vn -0.8665466904640198 0.12058072537183762 -0.4843111038208008
vn -0.9011476039886475 -0.43351230025291443 -9.21883440696547e-07
vn -0.8114465475082397 0.5844265818595886 -8.083176908257883e-06
vn -0.9535107612609863 0.30135872960090637 -9.43877239478752e-06
vn -0.6999183297157288 0.35257747769355774 0.6211307048797607
vn -0.8665414452552795 0.12056886404752731 0.4843233823776245
vn -0.4306522011756897 -0.20716097950935364 0.8784207701683044
vn -0.6565914154052734 -0.31588268280029297 0.6849130392074585
vn -0.16139699518680573 -0.7669041752815247 0.6211351752281189
vn -0.44663795828819275 -0.7523127794265747 0.4842931926250458
vn -0.04984818771481514 -0.9987568259239197 -5.099181180412415e-06
vn -0.35966524481773376 -0.9330814480781555 -1.1354553862474859e-05
vn -0.16134534776210785 -0.7669124603271484 -0.621138334274292
vn -0.44662266969680786 -0.75230872631073 -0.4843137860298157
vn -0.16140060126781464 -0.7669087648391724 0.6211286783218384
vn -0.4306674599647522 -0.20715191960334778 0.8784154057502747
vn -0.6566019058227539 -0.31586095690727234 0.6849130392074585
vn -0.4466470777988434 -0.7523059844970703 0.484295517206192
vn -0.9011567234992981 -0.4334934651851654 -2.0781919829460094e-06
vn -0.04985435679554939 -0.9987565279006958 -7.248730526043801e-06
vn -0.3596785068511963 -0.9330762624740601 -7.358823495451361e-06
vn -0.16136546432971954 -0.7669097781181335 -0.6211365461349487
vn -0.4466398358345032 -0.7522943615913391 -0.4843202233314514
vn -0.430656373500824 -0.20718057453632355 -0.8784140944480896
vn -0.6566104292869568 -0.3158441185951233 -0.6849125623703003
vn -0.6999461650848389 0.35255447030067444 -0.6211124062538147
vn -0.8665489554405212 0.12057540565729141 -0.48430827260017395
vn -0.811458170413971 0.5844104290008545 -1.3113928616803605e-05
vn -0.9535121321678162 0.3013548254966736 -3.4250563203386264e-06
vn -0.6999393701553345 0.35255667567253113 0.6211190223693848
vn -0.8665472865104675 0.12057337164878845 0.48431193828582764
vn -0.6565983891487122 -0.31586068868637085 0.6849164962768555
vn -0.4306669533252716 -0.20717473328113556 0.8784103393554688
vn -0.6999281048774719 0.35256311297416687 0.6211279630661011
vn -0.8665435314178467 0.12057437747716904 0.4843183159828186
vn -0.9011456966400146 -0.4335162341594696 -1.6672993297106586e-06
vn -0.8114455938339233 0.5844278335571289 1.6875119399628602e-05
vn -0.9535115957260132 0.3013565242290497 4.736344180855667e-06
vn -0.6999272108078003 0.3525658845901489 -0.6211273074150085
vn -0.8665449023246765 0.12056362628936768 -0.484318345785141
vn -0.4306468367576599 -0.20715537667274475 -0.8784247040748596
vn -0.656583845615387 -0.31586265563964844 -0.6849294900894165
vn -0.1613735407590866 -0.7668941617012024 -0.6211537718772888
vn -0.4466279447078705 -0.7523072361946106 -0.48431113362312317
vn -0.049845729023218155 -0.9987568855285645 -2.0293857232900336e-05
vn -0.3596736490726471 -0.9330782294273376 3.9563184373037075e-07
vn -0.1613830327987671 -0.766918420791626 0.621121346950531
vn -0.4466422200202942 -0.7522944808006287 0.48431774973869324
f 1/1/1 2/2/2 3/3/3
f 3/4/3 4/5/4 1/6/1
f 5/7/5 1/8/1 4/9/4
f 4/10/4 3/11/3 6/12/6
f 6/13/6 7/14/7 4/15/4
f 5/16/5 4/17/4 7/18/7
f 7/19/7 6/20/6 8/21/8
f 8/22/8 9/23/9 7/24/7
f 5/25/5 7/26/7 9/27/9
f 9/28/9 8/29/8 10/30/10
f 10/31/10 11/32/11 9/33/9
f 5/34/5 9/35/9 11/36/11
f 11/37/11 10/38/10 12/39/12
f 12/40/12 13/41/13 11/42/11
f 5/43/5 11/44/11 13/45/13
f 13/46/13 12/47/12 14/48/14
f 14/49/14 15/50/15 13/51/13
f 5/52/5 13/53/13 15/54/15
f 15/55/15 14/56/14 16/57/16
f 16/58/16 17/59/17 15/60/15
f 5/61/5 15/62/15 17/63/17
f 17/64/17 16/65/16 2/66/2
f 2/67/2 1/68/1 17/69/17
f 5/70/5 17/71/17 1/72/1
f 18/73/18 19/74/19 20/75/20
f 20/76/20 21/77/21 18/78/18
f 22/79/22 21/80/21 20/81/20
f 23/82/23 18/83/18 21/84/21
f 21/85/21 24/86/24 23/87/23
f 22/88/22 24/89/24 21/90/21
f 25/91/25 23/92/23 24/93/24
f 24/94/24 26/95/26 25/96/25
f 22/97/22 26/98/26 24/99/24
f 27/100/27 25/101/25 26/102/26
f 26/103/26 28/104/28 27/105/27
f 22/106/22 28/107/28 26/108/26
f 29/109/29 27/110/27 28/111/28
f 28/112/28 30/113/30 29/114/29
f 22/115/22 30/116/30 28/117/28
f 31/118/31 29/119/29 30/120/30
f 30/121/30 32/122/32 31/123/31
f 22/124/22 32/125/32 30/126/30
f 33/127/33 31/128/31 32/129/32
f 32/130/32 34/131/34 33/132/33
f 22/133/22 34/134/34 32/135/32
f 19/136/19 33/137/33 34/138/34
f 34/139/34 20/140/20 19/141/19
f 22/142/22 20/143/20 34/144/34
f 35/145/35 36/146/36 37/147/37
f 37/148/37 38/149/38 35/150/35
f 39/151/39 38/152/38 37/153/37
f 40/154/40 35/155/35 38/156/38
f 38/157/38 41/158/41 40/159/40
f 39/160/39 41/161/41 38/162/38
f 42/163/42 40/164/40 41/165/41
f 41/166/41 43/167/43 42/168/42
f 39/169/39 43/170/43 41/171/41
f 44/172/44 42/173/42 43/174/43
f 43/175/43 45/176/45 44/177/44
f 39/178/39 45/179/45 43/180/43
f 46/181/46 44/182/44 45/183/45
f 45/184/45 47/185/47 46/186/46
f 39/187/39 47/188/47 45/189/45
f 48/190/48 46/191/46 47/192/47
f 47/193/47 49/194/49 48/195/48
f 39/196/39 49/197/49 47/198/47
f 50/199/50 48/200/48 49/201/49
f 49/202/49 51/203/51 50/204/50
f 39/205/39 51/206/51 49/207/49
f 36/208/36 50/209/50 51/210/51
f 51/211/51 37/212/37 36/213/36
f 39/214/39 37/215/37 51/216/51
f 52/217/52 53/218/53 54/219/54
f 54/220/54 55/221/55 52/222/52
f 56/223/56 52/224/52 55/225/55
f 55/226/55 54/227/54 57/228/57
f 57/229/57 58/230/58 55/231/55
f 56/232/56 55/233/55 58/234/58
f 58/235/58 57/236/57 59/237/59
f 59/238/59 60/239/60 58/240/58
f 56/241/56 58/242/58 60/243/60
f 60/244/60 59/245/59 61/246/61
f 61/247/61 62/248/62 60/249/60
f 56/250/56 60/251/60 62/252/62
f 62/253/62 61/254/61 63/255/63
f 63/256/63 64/257/64 62/258/62
f 56/259/56 62/260/62 64/261/64
f 64/262/64 63/263/63 65/264/65
f 65/265/65 66/266/66 64/267/64
f 56/268/56 64/269/64 66/270/66
f 66/271/66 65/272/65 67/273/67
f 67/274/67 68/275/68 66/276/66
f 56/277/56 66/278/66 68/279/68
f 68/280/68 67/281/67 53/282/53
f 53/283/53 52/284/52 68/285/68
f 56/286/56 68/287/68 52/288/52
