# Exported by Lightwave Blender addon
v 1441.7471923828125 2751.33203125 738.8739013671875
v 1441.7470703125 2751.33203125 559.1688842773438
v 1413.017822265625 2702.858642578125 559.1688842773438
v 1413.017822265625 2702.858642578125 738.8738403320312
v 1383.40234375 2652.8896484375 738.8738403320312
v 1412.2999267578125 2701.647216796875 738.8738403320312
v 1412.300048828125 2701.6474609375 559.1688842773438
v 1383.40234375 2652.889892578125 559.1688842773438
vt 0.251220703125 0.9884872436523438
vt 0.251220703125 0.22509765625
vt 0.497802734375 0.22509765625
vt 0.497802734375 0.22509765625
vt 0.497802734375 0.9884872436523438
vt 0.251220703125 0.9884872436523438
vt 0.2491455078125 0.9884872436523438
vt 0.00260162353515625 0.9884872436523438
vt 0.00260162353515625 0.22509765625
vt 0.00260162353515625 0.22509765625
vt 0.2491455078125 0.22509765625
vt 0.2491455078125 0.9884872436523438
vn -0.8602575063705444 0.5098598599433899 1.1302447688876782e-07
vn -0.860258162021637 0.5098585486412048 5.843575081598829e-07
vn -0.8602579832077026 0.5098588466644287 4.713330667982518e-07
vn -0.8602573275566101 0.5098602175712585 0.0
vn -0.8602587580680847 0.509857714176178 2.2196303461896605e-07
vn -0.8602589964866638 0.5098573565483093 1.083153975400819e-07
vn -0.8602582216262817 0.5098586678504944 5.790283807982632e-07
vn -0.8602579832077026 0.5098589658737183 6.926759397174465e-07
f 1/1/1 2/2/2 3/3/3
f 3/4/3 4/5/4 1/6/1
f 5/7/5 6/8/6 7/9/7
f 7/10/7 8/11/8 5/12/5
