# Exported by Lightwave Blender addon
v 284.52337646484375 1070.3828125 1097.337890625
v 527.8133544921875 936.1217041015625 1097.337890625
v 284.52337646484375 1070.3828125 1412.5048828125
v 527.8133544921875 936.1217041015625 1412.5047607421875
v 249.40599060058594 474.98370361328125 1412.504638671875
v 249.40086364746094 474.9716491699219 1097.3377685546875
v 27.233108520507812 598.3226928710938 1412.504638671875
v 26.780532836914062 598.3516235351562 1097.3377685546875
v 395.8040466308594 717.468994140625 1412.504638671875
v 162.5269012451172 846.5513916015625 1412.504638671875
v 123.67955017089844 780.2667846679688 1307.9322509765625
v 72.28285217285156 685.4403686523438 1307.9324951171875
v 72.28291320800781 685.440185546875 1113.292236328125
v 162.3123321533203 846.5650024414062 1097.337890625
v 123.67945861816406 780.2666625976562 1113.2919921875
v 260.1268310546875 1030.7945556640625 1307.932373046875
v 208.73028564453125 935.9681396484375 1307.9326171875
v 208.73025512695312 935.9680786132812 1113.292236328125
v 260.1268005371094 1030.7945556640625 1113.292236328125
v 395.8016052246094 717.4632568359375 1097.3377685546875
vt 0.6123046875 0.2587890625
vt 0.6123046875 0.01025390625
vt 0.93310546875 0.2587890625
vt 0.6123046875 0.01025390625
vt 0.93310546875 0.01025390625
vt 0.93310546875 0.2587890625
vt 0.9140625 0.576904296875
vt 0.59375 0.576904296875
vt 0.9140625 0.35009765625
vt 0.59375 0.576904296875
vt 0.59375 0.349609375
vt 0.9140625 0.35009765625
vt 0.56591796875 0.63232421875
vt 0.30712890625 0.63232421875
vt 0.56591796875 0.3623046875
vt 0.30712890625 0.63232421875
vt 0.30712890625 0.3623046875
vt 0.56591796875 0.3623046875
vt 0.30712890625 0.63232421875
vt 0.0200653076171875 0.63232421875
vt 0.30712890625 0.3623046875
vt 0.0200653076171875 0.63232421875
vt 0.0200653076171875 0.3623046875
vt 0.30712890625 0.3623046875
vt 0.238525390625 0.659423828125
vt 0.491943359375 0.659423828125
vt 0.30615234375 0.765625
vt 0.491943359375 0.659423828125
vt 0.403076171875 0.765625
vt 0.30615234375 0.765625
vt 0.491943359375 0.659423828125
vt 0.491943359375 0.9795989990234375
vt 0.403076171875 0.765625
vt 0.491943359375 0.9795989990234375
vt 0.403076171875 0.96337890625
vt 0.403076171875 0.765625
vt 0.491943359375 0.9795989990234375
vt 0.238525390625 0.9795989990234375
vt 0.403076171875 0.96337890625
vt 0.238525390625 0.9795989990234375
vt 0.30615234375 0.96337890625
vt 0.403076171875 0.96337890625
vt 0.238525390625 0.9795989990234375
vt 0.238525390625 0.659423828125
vt 0.30615234375 0.96337890625
vt 0.238525390625 0.659423828125
vt 0.30615234375 0.765625
vt 0.30615234375 0.96337890625
vt 0.0099945068359375 0.659423828125
vt 0.238525390625 0.659423828125
vt 0.050445556640625 0.765625
vt 0.238525390625 0.659423828125
vt 0.147216796875 0.765625
vt 0.050445556640625 0.765625
vt 0.238525390625 0.659423828125
vt 0.238525390625 0.9795989990234375
vt 0.147216796875 0.765625
vt 0.238525390625 0.9795989990234375
vt 0.147216796875 0.96337890625
vt 0.147216796875 0.765625
vt 0.238525390625 0.9795989990234375
vt 0.0099945068359375 0.9795989990234375
vt 0.147216796875 0.96337890625
vt 0.0099945068359375 0.9795989990234375
vt 0.050445556640625 0.96337890625
vt 0.147216796875 0.96337890625
vt 0.0099945068359375 0.9795989990234375
vt 0.0099945068359375 0.659423828125
vt 0.050445556640625 0.96337890625
vt 0.0099945068359375 0.659423828125
vt 0.050445556640625 0.765625
vt 0.050445556640625 0.96337890625
vt 0.5185546875 0.9795989990234375
vt 0.5185546875 0.659423828125
vt 0.76611328125 0.659423828125
vt 0.76611328125 0.9795989990234375
vt 0.5185546875 0.9795989990234375
vt 0.76611328125 0.659423828125
vt 0.76611328125 0.9795989990234375
vt 0.76611328125 0.659423828125
vt 0.98974609375 0.659423828125
vt 0.98974609375 0.9795989990234375
vt 0.76611328125 0.9795989990234375
vt 0.98974609375 0.659423828125
vt 0.0200653076171875 0.291015625
vt 0.0200653076171875 0.021484375
vt 0.30712890625 0.291015625
vt 0.0200653076171875 0.021484375
vt 0.30712890625 0.021484375
vt 0.30712890625 0.291015625
vt 0.30712890625 0.021484375
vt 0.56591796875 0.021484375
vt 0.30712890625 0.291015625
vt 0.56591796875 0.021484375
vt 0.56591796875 0.291015625
vt 0.30712890625 0.291015625
vn 0.21130235493183136 -0.7855558395385742 0.5815955996513367
vn -0.7900599837303162 -0.21162095665931702 0.5753449201583862
vn 0.22222384810447693 -0.7829458713531494 -0.5810441374778748
vn -0.7900786995887756 -0.21158313751220703 -0.5753331184387207
vn -0.20988763868808746 0.7876139879226685 -0.5793198347091675
vn -0.2100466787815094 0.78762286901474 0.5792500972747803
vn 0.7809754014015198 0.23139655590057373 -0.5801147222518921
vn 0.7812906503677368 0.23389331996440887 0.5786870718002319
vn -0.6053339242935181 0.36546382308006287 -0.707111656665802
vn 0.6167372465133667 -0.33661720156669617 -0.7115645408630371
vn 0.8700796365737915 -0.49280527234077454 -0.010222245939075947
vn 0.8833232522010803 -0.46866723895072937 -0.009536812081933022
vn 0.8786654472351074 -0.4720306694507599 0.07165291905403137
vn 0.6150632500648499 -0.33779871463775635 0.7124530076980591
vn 0.8697479963302612 -0.48490315675735474 0.09169160574674606
vn 0.8629792332649231 -0.5051494836807251 -0.009532650001347065
vn 0.8836156725883484 -0.4681127965450287 -0.009681993164122105
vn 0.8782932162284851 -0.4707450270652771 0.08366687595844269
vn 0.8641797304153442 -0.49400752782821655 0.0956559032201767
vn -0.6053460836410522 0.3654691278934479 0.7070986032485962
f 1/1/1 2/2/2 3/3/3
f 2/4/2 4/5/4 3/6/3
f 5/7/5 6/8/6 7/9/7
f 6/10/6 8/11/8 7/12/7
f 4/13/4 9/14/9 3/15/3
f 9/16/9 10/17/10 3/18/3
f 9/19/9 5/20/5 10/21/10
f 5/22/5 7/23/7 10/24/10
f 10/25/10 7/26/7 11/27/11
f 7/28/7 12/29/12 11/30/11
f 7/31/7 8/32/8 12/33/12
f 8/34/8 13/35/13 12/36/12
f 8/37/8 14/38/14 13/39/13
f 14/40/14 15/41/15 13/42/13
f 14/43/14 10/44/10 15/45/15
f 10/46/10 11/47/11 15/48/15
f 3/49/3 10/50/10 16/51/16
f 10/52/10 17/53/17 16/54/16
f 10/55/10 14/56/14 17/57/17
f 14/58/14 18/59/18 17/60/17
f 14/61/14 1/62/1 18/63/18
f 1/64/1 19/65/19 18/66/18
f 1/67/1 3/68/3 19/69/19
f 3/70/3 16/71/16 19/72/19
f 6/73/6 5/74/5 9/75/9
f 20/76/20 6/77/6 9/78/9
f 20/79/20 9/80/9 4/81/4
f 2/82/2 20/83/20 4/84/4
f 8/85/8 6/86/6 14/87/14
f 6/88/6 20/89/20 14/90/14
f 20/91/20 2/92/2 14/93/14
f 2/94/2 1/95/1 14/96/14
