# Exported by Lightwave Blender addon
v 568.870849609375 -1666.094482421875 188.26513671875
v 465.95172119140625 -1624.0101318359375 188.26513671875
v 568.870849609375 -1666.094482421875 370.3453063964844
v 465.9517822265625 -1624.01025390625 370.3453063964844
v 570.8465576171875 -1661.262939453125 183.04513549804688
v 630.15771484375 -1516.2149658203125 183.04513549804688
v 467.927490234375 -1619.1785888671875 183.04513549804688
v 527.2386474609375 -1474.130615234375 183.04513549804688
v 463.0958251953125 -1617.2027587890625 188.26513671875
v 522.406982421875 -1472.15478515625 188.26513671875
v 463.0958251953125 -1617.202880859375 370.3453063964844
v 522.406982421875 -1472.1549072265625 370.3453063964844
v 467.927490234375 -1619.178466796875 375.5653076171875
v 527.2386474609375 -1474.1304931640625 375.5652770996094
v 570.8465576171875 -1661.2628173828125 375.5653076171875
v 630.15771484375 -1516.21484375 375.5652770996094
v 575.67822265625 -1663.238525390625 370.3453063964844
v 634.9893798828125 -1518.1905517578125 370.3453063964844
v 575.67822265625 -1663.238525390625 188.26513671875
v 634.9893188476562 -1518.1905517578125 188.26513671875
vt 0.50390625 0.076171875
vt 1.0595703125 0.076171875
vt 0.50390625 0.9861984252929688
vt 1.0595703125 0.076171875
vt 1.0595703125 0.9861984252929688
vt 0.50390625 0.9861984252929688
vt 0.495849609375 1.5439453125
vt 0.495849609375 2.3271484375
vt -0.06005859375 1.5439453125
vt 0.495849609375 2.3271484375
vt -0.06005859375 2.3271484375
vt -0.06005859375 1.5439453125
vt 0.923828125 1.5439453125
vt 0.923828125 2.3271484375
vt 0.01380157470703125 1.5439453125
vt 0.923828125 2.3271484375
vt 0.01380157470703125 2.3271484375
vt 0.01380157470703125 1.5439453125
vt 1.0595703125 1.5439453125
vt 1.0595703125 2.3271484375
vt 0.50390625 1.5439453125
vt 1.0595703125 2.3271484375
vt 0.50390625 2.3271484375
vt 0.50390625 1.5439453125
vt 0.98583984375 1.5439453125
vt 0.98583984375 2.3271484375
vt 0.07574462890625 1.5439453125
vt 0.98583984375 2.3271484375
vt 0.07574462890625 2.3271484375
vt 0.07574462890625 1.5439453125
vt -0.06005859375 2.3271484375
vt -0.08612060546875 2.3271484375
vt -0.06005859375 1.5439453125
vt -0.08612060546875 2.3271484375
vt -0.08612060546875 1.5439453125
vt -0.06005859375 1.5439453125
vt 0.0496826171875 1.5439453125
vt 0.07574462890625 1.5439453125
vt 0.0496826171875 2.3271484375
vt 0.07574462890625 1.5439453125
vt 0.07574462890625 2.3271484375
vt 0.0496826171875 2.3271484375
vt 0.01380157470703125 2.3271484375
vt -0.01229095458984375 2.3271484375
vt 0.01380157470703125 1.5439453125
vt -0.01229095458984375 2.3271484375
vt -0.01229095458984375 1.5439453125
vt 0.01380157470703125 1.5439453125
vt 0.50390625 2.3271484375
vt 0.477783203125 2.3271484375
vt 0.50390625 1.5439453125
vt 0.477783203125 2.3271484375
vt 0.477783203125 1.5439453125
vt 0.50390625 1.5439453125
vt 0.50390625 0.076171875
vt 0.477783203125 0.076171875
vt 0.50390625 0.0498046875
vt 0.477783203125 0.9861984252929688
vt 0.477783203125 0.076171875
vt 0.50390625 0.076171875
vt 0.50390625 0.076171875
vt 0.50390625 0.0498046875
vt 1.0595703125 0.076171875
vt 0.50390625 0.9861984252929688
vt 0.477783203125 0.9861984252929688
vt 0.50390625 0.076171875
vt 0.50390625 0.0498046875
vt 1.0595703125 0.0498046875
vt 1.0595703125 0.076171875
vt 0.50390625 0.9861984252929688
vt 0.50390625 1.0122909545898438
vt 0.477783203125 0.9861984252929688
vt 1.0595703125 0.0498046875
vt 1.0859375 0.076171875
vt 1.0595703125 0.076171875
vt 1.0595703125 1.0122909545898438
vt 0.50390625 1.0122909545898438
vt 0.50390625 0.9861984252929688
vt 1.0595703125 0.076171875
vt 1.0859375 0.076171875
vt 1.0595703125 0.9861984252929688
vt 1.0595703125 0.9861984252929688
vt 1.0595703125 1.0122909545898438
vt 0.50390625 0.9861984252929688
vt 1.0859375 0.076171875
vt 1.0859375 0.9861984252929688
vt 1.0595703125 0.9861984252929688
vt 1.0859375 0.9861984252929688
vt 1.0595703125 1.0122909545898438
vt 1.0595703125 0.9861984252929688
vn 0.01522099319845438 0.9397299885749817 0.34157848358154297
vn 0.6475716233253479 0.681154191493988 0.34158453345298767
vn 0.015223591588437557 0.9397268295288086 -0.3415871858596802
vn 0.647569477558136 0.6811547875404358 -0.341587096452713
vn -0.18688611686229706 0.445466548204422 0.8755759596824646
vn -0.3542185425758362 0.14484238624572754 0.9238776564598083
vn 0.44545695185661316 0.18688812851905823 0.8755803108215332
vn 0.35421425104141235 -0.14484074711799622 0.9238795638084412
vn 0.9397279024124146 -0.015224899165332317 0.3415842652320862
vn 0.8551514148712158 -0.34967753291130066 0.3826771080493927
vn 0.9397286176681519 -0.015228571370244026 -0.3415820300579071
vn 0.8551484942436218 -0.34967634081840515 -0.3826845586299896
vn 0.44545769691467285 0.18688511848449707 -0.8755806088447571
vn 0.3542119860649109 -0.14483992755413055 -0.9238805174827576
vn -0.18688909709453583 0.44545531272888184 -0.8755810260772705
vn -0.35421302914619446 0.1448400765657425 -0.9238801598548889
vn -0.6811550855636597 0.6475711464881897 -0.3415834903717041
vn -0.8551508188247681 0.349677175283432 -0.38267838954925537
vn -0.6811632513999939 0.647564709186554 0.34157949686050415
vn -0.8551512956619263 0.349677175283432 0.3826776444911957
f 1/1/1 2/2/2 3/3/3
f 2/4/2 4/5/4 3/6/3
f 5/7/5 6/8/6 7/9/7
f 6/10/6 8/11/8 7/12/7
f 9/13/9 10/14/10 11/15/11
f 10/16/10 12/17/12 11/18/11
f 13/19/13 14/20/14 15/21/15
f 14/22/14 16/23/16 15/24/15
f 17/25/17 18/26/18 19/27/19
f 18/28/18 20/29/20 19/30/19
f 8/31/8 10/32/10 7/33/7
f 10/34/10 9/35/9 7/36/7
f 5/37/5 19/38/19 6/39/6
f 19/40/19 20/41/20 6/42/6
f 12/43/12 14/44/14 11/45/11
f 14/46/14 13/47/13 11/48/11
f 16/49/16 18/50/18 15/51/15
f 18/52/18 17/53/17 15/54/15
f 1/55/1 19/56/19 5/57/5
f 17/58/17 19/59/19 1/60/1
f 1/61/1 5/62/5 2/63/2
f 3/64/3 17/65/17 1/66/1
f 5/67/5 7/68/7 2/69/2
f 3/70/3 15/71/15 17/72/17
f 7/73/7 9/74/9 2/75/2
f 13/76/13 15/77/15 3/78/3
f 2/79/2 9/80/9 4/81/4
f 4/82/4 13/83/13 3/84/3
f 9/85/9 11/86/11 4/87/4
f 11/88/11 13/89/13 4/90/4
