# Exported by Lightwave Blender addon
v 248.6774444580078 1062.1187744140625 96.5540542602539
v 248.67738342285156 1062.11865234375 50.89908981323242
v 136.89312744140625 854.7861328125 96.55445861816406
v 136.89308166503906 854.7860107421875 50.89949417114258
vt -0.0888671875 0.644287109375
vt -0.0888671875 0.416015625
vt 1.0888671875 0.644287109375
vt -0.0888671875 0.416015625
vt 1.0888671875 0.416015625
vt 1.0888671875 0.644287109375
vn -0.8802163600921631 0.4745725393295288 -9.214942053858977e-08
vn -0.8802163600921631 0.4745725393295288 -1.2799822002307337e-07
vn -0.8802164196968079 0.4745725095272064 -3.5048600466325297e-07
vn -0.8802163600921631 0.47457244992256165 -3.863349036237196e-07
f 1/1/1 2/2/2 3/3/3
f 2/4/2 4/5/4 3/6/3
