# Exported by Lightwave Blender addon
v -951.1490478515625 -210.83096313476562 451.2774658203125
v -951.9764404296875 -203.50247192382812 451.2774658203125
v -955.0667724609375 -204.71612548828125 414.8122253417969
v -954.4321899414062 -210.33685302734375 414.8122253417969
v -954.096923828125 -217.59129333496094 451.2774658203125
v -956.6930541992188 -215.5218048095703 414.8122253417969
v -960.0298461914062 -221.97201538085938 451.2774658203125
v -961.2435302734375 -218.88168334960938 414.8122253417969
v -967.3583374023438 -222.7993621826172 451.2774658203125
v -966.8643188476562 -219.51625061035156 414.8122253417969
v -974.1187133789062 -219.8516082763672 451.2774658203125
v -972.0491333007812 -217.25540161132812 414.8122253417969
v -978.4993896484375 -213.9186248779297 451.2774658203125
v -975.4091186523438 -212.7049560546875 414.8122253417969
v -979.3267211914062 -206.5901336669922 451.2774658203125
v -976.0435791015625 -207.08424377441406 414.8122253417969
v -976.37890625 -199.82980346679688 451.2774658203125
v -973.7828369140625 -201.8992919921875 414.8122253417969
v -970.4459838867188 -195.44906616210938 451.2774658203125
v -969.2323608398438 -198.53939819335938 414.8122253417969
v -963.1174926757812 -194.62173461914062 451.2774658203125
v -963.611572265625 -197.9048614501953 414.8122253417969
v -956.357177734375 -197.56948852539062 451.2774658203125
v -958.4266357421875 -200.1656951904297 414.8122253417969
v -952.9780883789062 -207.32650756835938 414.8122253417969
v -953.8814697265625 -204.25064086914062 414.8122253417969
v -950.430908203125 -202.8955535888672 451.2774658203125
v -949.2531127929688 -206.90599060058594 451.2774658203125
v -949.5072021484375 -211.0780792236328 451.2774658203125
v -953.1729125976562 -210.52638244628906 414.8122253417969
v -953.9286499023438 -213.641845703125 414.8122253417969
v -950.492431640625 -215.14013671875 451.2774658203125
v -952.7985229492188 -218.62623596191406 451.2774658203125
v -955.697265625 -216.3155975341797 414.8122253417969
v -957.9093017578125 -218.6358642578125 414.8122253417969
v -955.6827392578125 -221.65150451660156 451.2774658203125
v -959.4228515625 -223.51747131347656 451.2774658203125
v -960.778076171875 -220.0670166015625 414.8122253417969
v -963.8538818359375 -220.9703826904297 414.8122253417969
v -963.4332885742188 -224.69534301757812 451.2774658203125
v -967.6054077148438 -224.4412384033203 451.2774658203125
v -967.0538330078125 -220.77549743652344 414.8122253417969
v -970.1692504882812 -220.01991271972656 414.8122253417969
v -971.6674194335938 -223.45608520507812 451.2774658203125
v -975.153564453125 -221.1499786376953 451.2774658203125
v -972.8429565429688 -218.25120544433594 414.8122253417969
v -975.1632690429688 -216.03909301757812 414.8122253417969
v -978.1788330078125 -218.26573181152344 451.2774658203125
v -980.0447998046875 -214.52557373046875 451.2774658203125
v -976.5943603515625 -213.1704864501953 414.8122253417969
v -977.4978637695312 -210.0946044921875 414.8122253417969
v -981.2227172851562 -210.51510620117188 451.2774658203125
v -980.9685668945312 -206.34300231933594 451.2774658203125
v -977.3028564453125 -206.89476013183594 414.8122253417969
v -976.5472412109375 -203.77926635742188 414.8122253417969
v -979.9834594726562 -202.2809600830078 451.2774658203125
v -977.6773681640625 -198.79489135742188 451.2774658203125
v -974.7786254882812 -201.10552978515625 414.8122253417969
v -972.5664672851562 -198.78524780273438 414.8122253417969
v -974.793212890625 -195.76959228515625 451.2774658203125
v -971.0529174804688 -193.9036102294922 451.2774658203125
v -969.6978759765625 -197.35409545898438 414.8122253417969
v -966.6219482421875 -196.45071411132812 414.8122253417969
v -967.04248046875 -192.72576904296875 451.2774658203125
v -962.8704223632812 -192.97987365722656 451.2774658203125
v -963.422119140625 -196.64559936523438 414.8122253417969
v -960.3065795898438 -197.40121459960938 414.8122253417969
v -958.808349609375 -193.96505737304688 451.2774658203125
v -955.322265625 -196.27114868164062 451.2774658203125
v -957.6328735351562 -199.169921875 414.8122253417969
v -955.3126220703125 -201.38201904296875 414.8122253417969
v -952.2969360351562 -199.15536499023438 451.2774658203125
vt 0.0927734375 0.09716796875
vt 0.0162200927734375 0.09716796875
vt 0.0162200927734375 0.9044189453125
vt 0.0162200927734375 0.9044189453125
vt 0.0927734375 0.9044189453125
vt 0.0927734375 0.09716796875
vt 0.1728515625 0.09716796875
vt 0.0927734375 0.09716796875
vt 0.0927734375 0.9044189453125
vt 0.0927734375 0.9044189453125
vt 0.1728515625 0.9044189453125
vt 0.1728515625 0.09716796875
vt 0.2529296875 0.09716796875
vt 0.1728515625 0.09716796875
vt 0.1728515625 0.9044189453125
vt 0.1728515625 0.9044189453125
vt 0.2529296875 0.9044189453125
vt 0.2529296875 0.09716796875
vt 0.3330078125 0.09716796875
vt 0.2529296875 0.09716796875
vt 0.2529296875 0.9044189453125
vt 0.2529296875 0.9044189453125
vt 0.3330078125 0.9044189453125
vt 0.3330078125 0.09716796875
vt 0.4130859375 0.09716796875
vt 0.3330078125 0.09716796875
vt 0.3330078125 0.9044189453125
vt 0.3330078125 0.9044189453125
vt 0.4130859375 0.9044189453125
vt 0.4130859375 0.09716796875
vt 0.4931640625 0.09716796875
vt 0.4130859375 0.09716796875
vt 0.4130859375 0.9044189453125
vt 0.4130859375 0.9044189453125
vt 0.4931640625 0.9044189453125
vt 0.4931640625 0.09716796875
vt 0.5732421875 0.09716796875
vt 0.4931640625 0.09716796875
vt 0.4931640625 0.9044189453125
vt 0.4931640625 0.9044189453125
vt 0.5732421875 0.9044189453125
vt 0.5732421875 0.09716796875
vt 0.6533203125 0.09716796875
vt 0.5732421875 0.09716796875
vt 0.5732421875 0.9044189453125
vt 0.5732421875 0.9044189453125
vt 0.6533203125 0.9044189453125
vt 0.6533203125 0.09716796875
vt 0.7333984375 0.09716796875
vt 0.6533203125 0.09716796875
vt 0.6533203125 0.9044189453125
vt 0.6533203125 0.9044189453125
vt 0.7333984375 0.9044189453125
vt 0.7333984375 0.09716796875
vt 0.8134765625 0.09716796875
vt 0.7333984375 0.09716796875
vt 0.7333984375 0.9044189453125
vt 0.7333984375 0.9044189453125
vt 0.8134765625 0.9044189453125
vt 0.8134765625 0.09716796875
vt 0.8935546875 0.09716796875
vt 0.8134765625 0.09716796875
vt 0.8134765625 0.9044189453125
vt 0.8134765625 0.9044189453125
vt 0.8935546875 0.9044189453125
vt 0.8935546875 0.09716796875
vt 0.984375 0.09716796875
vt 0.8935546875 0.09716796875
vt 0.8935546875 0.9044189453125
vt 0.8935546875 0.9044189453125
vt 0.984375 0.9044189453125
vt 0.984375 0.09716796875
vt 0.05450439453125 0.9044189453125
vt 0.0162200927734375 0.9044189453125
vt 0.0162200927734375 0.09716796875
vt 0.0162200927734375 0.09716796875
vt 0.05450439453125 0.09716796875
vt 0.05450439453125 0.9044189453125
vt 0.05450439453125 0.9044189453125
vt 0.05450439453125 0.09716796875
vt 0.0927734375 0.09716796875
vt 0.0927734375 0.09716796875
vt 0.0927734375 0.9044189453125
vt 0.05450439453125 0.9044189453125
vt 0.1328125 0.9044189453125
vt 0.0927734375 0.9044189453125
vt 0.0927734375 0.09716796875
vt 0.0927734375 0.09716796875
vt 0.1328125 0.09716796875
vt 0.1328125 0.9044189453125
vt 0.1328125 0.9044189453125
vt 0.1328125 0.09716796875
vt 0.1728515625 0.09716796875
vt 0.1728515625 0.09716796875
vt 0.1728515625 0.9044189453125
vt 0.1328125 0.9044189453125
vt 0.212890625 0.9044189453125
vt 0.1728515625 0.9044189453125
vt 0.1728515625 0.09716796875
vt 0.1728515625 0.09716796875
vt 0.212890625 0.09716796875
vt 0.212890625 0.9044189453125
vt 0.212890625 0.9044189453125
vt 0.212890625 0.09716796875
vt 0.2529296875 0.09716796875
vt 0.2529296875 0.09716796875
vt 0.2529296875 0.9044189453125
vt 0.212890625 0.9044189453125
vt 0.29296875 0.9044189453125
vt 0.2529296875 0.9044189453125
vt 0.2529296875 0.09716796875
vt 0.2529296875 0.09716796875
vt 0.29296875 0.09716796875
vt 0.29296875 0.9044189453125
vt 0.29296875 0.9044189453125
vt 0.29296875 0.09716796875
vt 0.3330078125 0.09716796875
vt 0.3330078125 0.09716796875
vt 0.3330078125 0.9044189453125
vt 0.29296875 0.9044189453125
vt 0.373046875 0.9044189453125
vt 0.3330078125 0.9044189453125
vt 0.3330078125 0.09716796875
vt 0.3330078125 0.09716796875
vt 0.373046875 0.09716796875
vt 0.373046875 0.9044189453125
vt 0.373046875 0.9044189453125
vt 0.373046875 0.09716796875
vt 0.4130859375 0.09716796875
vt 0.4130859375 0.09716796875
vt 0.4130859375 0.9044189453125
vt 0.373046875 0.9044189453125
vt 0.453125 0.9044189453125
vt 0.4130859375 0.9044189453125
vt 0.4130859375 0.09716796875
vt 0.4130859375 0.09716796875
vt 0.453125 0.09716796875
vt 0.453125 0.9044189453125
vt 0.453125 0.9044189453125
vt 0.453125 0.09716796875
vt 0.4931640625 0.09716796875
vt 0.4931640625 0.09716796875
vt 0.4931640625 0.9044189453125
vt 0.453125 0.9044189453125
vt 0.533203125 0.9044189453125
vt 0.4931640625 0.9044189453125
vt 0.4931640625 0.09716796875
vt 0.4931640625 0.09716796875
vt 0.533203125 0.09716796875
vt 0.533203125 0.9044189453125
vt 0.533203125 0.9044189453125
vt 0.533203125 0.09716796875
vt 0.5732421875 0.09716796875
vt 0.5732421875 0.09716796875
vt 0.5732421875 0.9044189453125
vt 0.533203125 0.9044189453125
vt 0.61328125 0.9044189453125
vt 0.5732421875 0.9044189453125
vt 0.5732421875 0.09716796875
vt 0.5732421875 0.09716796875
vt 0.61328125 0.09716796875
vt 0.61328125 0.9044189453125
vt 0.61328125 0.9044189453125
vt 0.61328125 0.09716796875
vt 0.6533203125 0.09716796875
vt 0.6533203125 0.09716796875
vt 0.6533203125 0.9044189453125
vt 0.61328125 0.9044189453125
vt 0.693359375 0.9044189453125
vt 0.6533203125 0.9044189453125
vt 0.6533203125 0.09716796875
vt 0.6533203125 0.09716796875
vt 0.693359375 0.09716796875
vt 0.693359375 0.9044189453125
vt 0.693359375 0.9044189453125
vt 0.693359375 0.09716796875
vt 0.7333984375 0.09716796875
vt 0.7333984375 0.09716796875
vt 0.7333984375 0.9044189453125
vt 0.693359375 0.9044189453125
vt 0.7734375 0.9044189453125
vt 0.7333984375 0.9044189453125
vt 0.7333984375 0.09716796875
vt 0.7333984375 0.09716796875
vt 0.7734375 0.09716796875
vt 0.7734375 0.9044189453125
vt 0.7734375 0.9044189453125
vt 0.7734375 0.09716796875
vt 0.8134765625 0.09716796875
vt 0.8134765625 0.09716796875
vt 0.8134765625 0.9044189453125
vt 0.7734375 0.9044189453125
vt 0.853515625 0.9044189453125
vt 0.8134765625 0.9044189453125
vt 0.8134765625 0.09716796875
vt 0.8134765625 0.09716796875
vt 0.853515625 0.09716796875
vt 0.853515625 0.9044189453125
vt 0.853515625 0.9044189453125
vt 0.853515625 0.09716796875
vt 0.8935546875 0.09716796875
vt 0.8935546875 0.09716796875
vt 0.8935546875 0.9044189453125
vt 0.853515625 0.9044189453125
vt 0.93896484375 0.9044189453125
vt 0.8935546875 0.9044189453125
vt 0.8935546875 0.09716796875
vt 0.8935546875 0.09716796875
vt 0.93896484375 0.09716796875
vt 0.93896484375 0.9044189453125
vt 0.93896484375 0.9044189453125
vt 0.93896484375 0.09716796875
vt 0.984375 0.09716796875
vt 0.984375 0.09716796875
vt 0.984375 0.9044189453125
vt 0.93896484375 0.9044189453125
vn -0.9847885966300964 0.14822173118591309 0.09067369252443314
vn -0.9269602298736572 -0.3640374541282654 0.09067308157682419
vn -0.9269596338272095 -0.36403873562812805 0.09067350625991821
vn -0.9847899079322815 0.1482139378786087 0.09067283570766449
vn -0.7787401080131531 0.6207595467567444 0.09067240357398987
vn -0.7787423729896545 0.6207566261291504 0.09067273139953613
vn -0.364035964012146 0.9269607067108154 0.09067296236753464
vn -0.3640354573726654 0.9269608855247498 0.09067359566688538
vn 0.14821580052375793 0.9847896099090576 0.09067265689373016
vn 0.14821824431419373 0.9847891926765442 0.09067390859127045
vn 0.6207574605941772 0.7787415385246277 0.0906737819314003
vn 0.6207534670829773 0.7787448167800903 0.09067333489656448
vn 0.9269623756408691 0.36403176188468933 0.0906732976436615
vn 0.9269603490829468 0.3640368580818176 0.0906732827425003
vn 0.9847885966300964 -0.14822271466255188 0.09067276120185852
vn 0.9847897887229919 -0.1482154130935669 0.09067173302173615
vn 0.7787430882453918 -0.620755672454834 0.09067197144031525
vn 0.7787494659423828 -0.6207478046417236 0.09067139774560928
vn 0.36403560638427734 -0.9269608855247498 0.09067237377166748
vn 0.36403435468673706 -0.9269612431526184 0.0906732901930809
vn -0.14821867644786835 -0.9847891330718994 0.09067308157682419
vn -0.148216113448143 -0.9847895503044128 0.09067325294017792
vn -0.6207554340362549 -0.7787432670593262 0.09067274630069733
vn -0.6207544207572937 -0.7787440419197083 0.0906732901930809
vn 0.9884772896766663 0.11160252243280411 -0.10226127505302429
vn 0.9260212779045105 0.3636689782142639 -0.10114005208015442
vn 0.9260222315788269 0.36366695165634155 -0.10113895684480667
vn 0.9884790778160095 0.11158732324838638 -0.10226136445999146
vn 0.983791708946228 -0.14807038009166718 -0.10113897919654846
vn 0.9837908744812012 -0.14807645976543427 -0.10113701224327087
vn 0.9118409752845764 -0.39760422706604004 -0.1022590920329094
vn 0.9118415713310242 -0.3976021111011505 -0.10226205736398697
vn 0.7779592871665955 -0.6201215386390686 -0.10113748162984848
vn 0.7779701352119446 -0.620107889175415 -0.10113687068223953
vn 0.5908764004707336 -0.8002548217773438 -0.10226120799779892
vn 0.5908823609352112 -0.8002507090568542 -0.10225915163755417
vn 0.3636721968650818 -0.9260203838348389 -0.1011376604437828
vn 0.3636593520641327 -0.926025390625 -0.10113874822854996
vn 0.1115950420498848 -0.9884783029556274 -0.10226097702980042
vn 0.1115945354104042 -0.9884782433509827 -0.10226118564605713
vn -0.14806395769119263 -0.983792781829834 -0.10113756358623505
vn -0.14806412160396576 -0.9837928414344788 -0.10113734751939774
vn -0.3975990414619446 -0.9118430614471436 -0.10225994884967804
vn -0.39759376645088196 -0.9118454456329346 -0.10225960612297058
vn -0.6201231479644775 -0.7779579758644104 -0.10113626718521118
vn -0.6201232075691223 -0.7779579162597656 -0.10113698244094849
vn -0.8002555966377258 -0.590875506401062 -0.1022600531578064
vn -0.8002535700798035 -0.5908786058425903 -0.10225871950387955
vn -0.9260196089744568 -0.36367470026016235 -0.10113531351089478
vn -0.9260179400444031 -0.363678514957428 -0.10113700479269028
vn -0.9884786605834961 -0.11159256100654602 -0.1022607609629631
vn -0.9884788393974304 -0.11159302294254303 -0.10225804895162582
vn -0.9837926626205444 0.14806492626667023 -0.1011369600892067
vn -0.9837895631790161 0.14808544516563416 -0.10113726556301117
vn -0.9118481278419495 0.39758771657943726 -0.1022598072886467
vn -0.9118461608886719 0.3975915014743805 -0.1022622212767601
vn -0.7779620289802551 0.6201177835464478 -0.10113916546106339
vn -0.777961790561676 0.6201184391975403 -0.10113687813282013
vn -0.5908766388893127 0.8002547025680542 -0.10226012021303177
vn -0.5908821821212769 0.8002504110336304 -0.10226240754127502
vn -0.3636622726917267 0.9260241985321045 -0.10113827884197235
vn -0.36366862058639526 0.9260218143463135 -0.10113770514726639
vn -0.11159095168113708 0.9884787201881409 -0.1022605150938034
vn -0.11159053444862366 0.9884787797927856 -0.10226058214902878
vn 0.14806629717350006 0.9837924242019653 -0.1011374369263649
vn 0.1480652242898941 0.9837925434112549 -0.1011374294757843
vn 0.39759933948516846 0.9118430018424988 -0.10226014256477356
vn 0.3975978195667267 0.9118436574935913 -0.10225987434387207
vn 0.6201195120811462 0.7779607772827148 -0.10113750398159027
vn 0.6201270222663879 0.7779548764228821 -0.10113699734210968
vn 0.8002533316612244 0.5908782482147217 -0.10226134210824966
vn 0.8002460598945618 0.5908881425857544 -0.10226161777973175
f 1/1/1 2/2/2 3/3/3
f 3/4/3 4/5/4 1/6/1
f 5/7/5 1/8/1 4/9/4
f 4/10/4 6/11/6 5/12/5
f 7/13/7 5/14/5 6/15/6
f 6/16/6 8/17/8 7/18/7
f 9/19/9 7/20/7 8/21/8
f 8/22/8 10/23/10 9/24/9
f 11/25/11 9/26/9 10/27/10
f 10/28/10 12/29/12 11/30/11
f 13/31/13 11/32/11 12/33/12
f 12/34/12 14/35/14 13/36/13
f 15/37/15 13/38/13 14/39/14
f 14/40/14 16/41/16 15/42/15
f 17/43/17 15/44/15 16/45/16
f 16/46/16 18/47/18 17/48/17
f 19/49/19 17/50/17 18/51/18
f 18/52/18 20/53/20 19/54/19
f 21/55/21 19/56/19 20/57/20
f 20/58/20 22/59/22 21/60/21
f 23/61/23 21/62/21 22/63/22
f 22/64/22 24/65/24 23/66/23
f 2/67/2 23/68/23 24/69/24
f 24/70/24 3/71/3 2/72/2
f 25/73/25 26/74/26 27/75/27
f 27/76/27 28/77/28 25/78/25
f 25/79/25 28/80/28 29/81/29
f 29/82/29 30/83/30 25/84/25
f 31/85/31 30/86/30 29/87/29
f 29/88/29 32/89/32 31/90/31
f 31/91/31 32/92/32 33/93/33
f 33/94/33 34/95/34 31/96/31
f 35/97/35 34/98/34 33/99/33
f 33/100/33 36/101/36 35/102/35
f 35/103/35 36/104/36 37/105/37
f 37/106/37 38/107/38 35/108/35
f 39/109/39 38/110/38 37/111/37
f 37/112/37 40/113/40 39/114/39
f 39/115/39 40/116/40 41/117/41
f 41/118/41 42/119/42 39/120/39
f 43/121/43 42/122/42 41/123/41
f 41/124/41 44/125/44 43/126/43
f 43/127/43 44/128/44 45/129/45
f 45/130/45 46/131/46 43/132/43
f 47/133/47 46/134/46 45/135/45
f 45/136/45 48/137/48 47/138/47
f 47/139/47 48/140/48 49/141/49
f 49/142/49 50/143/50 47/144/47
f 51/145/51 50/146/50 49/147/49
f 49/148/49 52/149/52 51/150/51
f 51/151/51 52/152/52 53/153/53
f 53/154/53 54/155/54 51/156/51
f 55/157/55 54/158/54 53/159/53
f 53/160/53 56/161/56 55/162/55
f 55/163/55 56/164/56 57/165/57
f 57/166/57 58/167/58 55/168/55
f 59/169/59 58/170/58 57/171/57
f 57/172/57 60/173/60 59/174/59
f 59/175/59 60/176/60 61/177/61
f 61/178/61 62/179/62 59/180/59
f 63/181/63 62/182/62 61/183/61
f 61/184/61 64/185/64 63/186/63
f 63/187/63 64/188/64 65/189/65
f 65/190/65 66/191/66 63/192/63
f 67/193/67 66/194/66 65/195/65
f 65/196/65 68/197/68 67/198/67
f 67/199/67 68/200/68 69/201/69
f 69/202/69 70/203/70 67/204/67
f 71/205/71 70/206/70 69/207/69
f 69/208/69 72/209/72 71/210/71
f 71/211/71 72/212/72 27/213/27
f 27/214/27 26/215/26 71/216/71
