# Exported by Lightwave Blender addon
v 3515.596435546875 -1818.94482421875 451.2774658203125
v 3508.2783203125 -1818.0289306640625 451.2774658203125
v 3508.732666015625 -1821.3177490234375 414.8122253417969
v 3514.34521484375 -1822.0203857421875 414.8122253417969
v 3521.475830078125 -1823.397216796875 451.2774658203125
v 3518.854736328125 -1825.4351806640625 414.8122253417969
v 3524.341796875 -1830.1927490234375 451.2774658203125
v 3521.052734375 -1830.64697265625 414.8122253417969
v 3523.425537109375 -1837.5103759765625 451.2774658203125
v 3520.35009765625 -1836.2593994140625 414.8122253417969
v 3518.9736328125 -1843.39013671875 451.2774658203125
v 3516.935546875 -1840.76904296875 414.8122253417969
v 3512.177734375 -1846.255859375 451.2774658203125
v 3511.723388671875 -1842.967041015625 414.8122253417969
v 3504.8603515625 -1845.33984375 451.2774658203125
v 3506.111083984375 -1842.2646484375 414.8122253417969
v 3498.980712890625 -1840.8876953125 451.2774658203125
v 3501.601318359375 -1838.849853515625 414.8122253417969
v 3496.114990234375 -1834.09228515625 451.2774658203125
v 3499.4033203125 -1833.637939453125 414.8122253417969
v 3497.030517578125 -1826.7744140625 451.2774658203125
v 3500.10595703125 -1828.0252685546875 414.8122253417969
v 3501.482666015625 -1820.8948974609375 451.2774658203125
v 3503.520751953125 -1823.5157470703125 414.8122253417969
v 3511.7607421875 -1819.9002685546875 414.8122253417969
v 3508.558349609375 -1820.056396484375 414.8122253417969
v 3508.051025390625 -1816.38427734375 451.2774658203125
v 3512.225830078125 -1816.1807861328125 451.2774658203125
v 3516.221923828125 -1817.406982421875 451.2774658203125
v 3514.8251953125 -1820.8406982421875 414.8122253417969
v 3517.67626953125 -1822.3065185546875 414.8122253417969
v 3519.93896484375 -1819.3179931640625 451.2774658203125
v 3522.78662109375 -1822.3779296875 451.2774658203125
v 3519.860107421875 -1824.6533203125 414.8122253417969
v 3521.596435546875 -1827.3482666015625 414.8122253417969
v 3525.050537109375 -1825.8917236328125 451.2774658203125
v 3525.986083984375 -1829.96533203125 451.2774658203125
v 3522.31396484375 -1830.47265625 414.8122253417969
v 3522.470458984375 -1833.674560546875 414.8122253417969
v 3526.18994140625 -1834.1402587890625 451.2774658203125
v 3524.963623046875 -1838.1361083984375 451.2774658203125
v 3521.52978515625 -1836.7392578125 414.8122253417969
v 3520.064208984375 -1839.5904541015625 414.8122253417969
v 3523.052734375 -1841.853515625 451.2774658203125
v 3519.99267578125 -1844.700927734375 451.2774658203125
v 3517.71728515625 -1841.7744140625 414.8122253417969
v 3515.0224609375 -1843.5107421875 414.8122253417969
v 3516.47900390625 -1846.964599609375 451.2774658203125
v 3512.405029296875 -1847.9005126953125 451.2774658203125
v 3511.897705078125 -1844.2283935546875 414.8122253417969
v 3508.6962890625 -1844.3846435546875 414.8122253417969
v 3508.23046875 -1848.104248046875 451.2774658203125
v 3504.234619140625 -1846.8779296875 451.2774658203125
v 3505.631591796875 -1843.444091796875 414.8122253417969
v 3502.7802734375 -1841.978515625 414.8122253417969
v 3500.51708984375 -1844.966796875 451.2774658203125
v 3497.669677734375 -1841.9068603515625 451.2774658203125
v 3500.596435546875 -1839.63134765625 414.8122253417969
v 3498.8603515625 -1836.9365234375 414.8122253417969
v 3495.406005859375 -1838.3931884765625 451.2774658203125
v 3494.469970703125 -1834.3194580078125 451.2774658203125
v 3498.14208984375 -1833.812255859375 414.8122253417969
v 3497.986083984375 -1830.6102294921875 414.8122253417969
v 3494.26611328125 -1830.144775390625 451.2774658203125
v 3495.492431640625 -1826.14892578125 451.2774658203125
v 3498.92626953125 -1827.5455322265625 414.8122253417969
v 3500.39208984375 -1824.6944580078125 414.8122253417969
v 3497.404052734375 -1822.431396484375 451.2774658203125
v 3500.463623046875 -1819.583984375 451.2774658203125
v 3502.7392578125 -1822.5103759765625 414.8122253417969
v 3505.434326171875 -1820.7742919921875 414.8122253417969
v 3503.9775390625 -1817.3204345703125 451.2774658203125
vt 0.0927734375 0.09716796875
vt 0.0162200927734375 0.09716796875
vt 0.0162200927734375 0.9044189453125
vt 0.0162200927734375 0.9044189453125
vt 0.0927734375 0.9044189453125
vt 0.0927734375 0.09716796875
vt 0.1728515625 0.09716796875
vt 0.0927734375 0.09716796875
vt 0.0927734375 0.9044189453125
vt 0.0927734375 0.9044189453125
vt 0.1728515625 0.9044189453125
vt 0.1728515625 0.09716796875
vt 0.2529296875 0.09716796875
vt 0.1728515625 0.09716796875
vt 0.1728515625 0.9044189453125
vt 0.1728515625 0.9044189453125
vt 0.2529296875 0.9044189453125
vt 0.2529296875 0.09716796875
vt 0.3330078125 0.09716796875
vt 0.2529296875 0.09716796875
vt 0.2529296875 0.9044189453125
vt 0.2529296875 0.9044189453125
vt 0.3330078125 0.9044189453125
vt 0.3330078125 0.09716796875
vt 0.4130859375 0.09716796875
vt 0.3330078125 0.09716796875
vt 0.3330078125 0.9044189453125
vt 0.3330078125 0.9044189453125
vt 0.4130859375 0.9044189453125
vt 0.4130859375 0.09716796875
vt 0.4931640625 0.09716796875
vt 0.4130859375 0.09716796875
vt 0.4130859375 0.9044189453125
vt 0.4130859375 0.9044189453125
vt 0.4931640625 0.9044189453125
vt 0.4931640625 0.09716796875
vt 0.5732421875 0.09716796875
vt 0.4931640625 0.09716796875
vt 0.4931640625 0.9044189453125
vt 0.4931640625 0.9044189453125
vt 0.5732421875 0.9044189453125
vt 0.5732421875 0.09716796875
vt 0.6533203125 0.09716796875
vt 0.5732421875 0.09716796875
vt 0.5732421875 0.9044189453125
vt 0.5732421875 0.9044189453125
vt 0.6533203125 0.9044189453125
vt 0.6533203125 0.09716796875
vt 0.7333984375 0.09716796875
vt 0.6533203125 0.09716796875
vt 0.6533203125 0.9044189453125
vt 0.6533203125 0.9044189453125
vt 0.7333984375 0.9044189453125
vt 0.7333984375 0.09716796875
vt 0.8134765625 0.09716796875
vt 0.7333984375 0.09716796875
vt 0.7333984375 0.9044189453125
vt 0.7333984375 0.9044189453125
vt 0.8134765625 0.9044189453125
vt 0.8134765625 0.09716796875
vt 0.8935546875 0.09716796875
vt 0.8134765625 0.09716796875
vt 0.8134765625 0.9044189453125
vt 0.8134765625 0.9044189453125
vt 0.8935546875 0.9044189453125
vt 0.8935546875 0.09716796875
vt 0.984375 0.09716796875
vt 0.8935546875 0.09716796875
vt 0.8935546875 0.9044189453125
vt 0.8935546875 0.9044189453125
vt 0.984375 0.9044189453125
vt 0.984375 0.09716796875
vt 0.05450439453125 0.9044189453125
vt 0.0162200927734375 0.9044189453125
vt 0.0162200927734375 0.09716796875
vt 0.0162200927734375 0.09716796875
vt 0.05450439453125 0.09716796875
vt 0.05450439453125 0.9044189453125
vt 0.05450439453125 0.9044189453125
vt 0.05450439453125 0.09716796875
vt 0.0927734375 0.09716796875
vt 0.0927734375 0.09716796875
vt 0.0927734375 0.9044189453125
vt 0.05450439453125 0.9044189453125
vt 0.1328125 0.9044189453125
vt 0.0927734375 0.9044189453125
vt 0.0927734375 0.09716796875
vt 0.0927734375 0.09716796875
vt 0.1328125 0.09716796875
vt 0.1328125 0.9044189453125
vt 0.1328125 0.9044189453125
vt 0.1328125 0.09716796875
vt 0.1728515625 0.09716796875
vt 0.1728515625 0.09716796875
vt 0.1728515625 0.9044189453125
vt 0.1328125 0.9044189453125
vt 0.212890625 0.9044189453125
vt 0.1728515625 0.9044189453125
vt 0.1728515625 0.09716796875
vt 0.1728515625 0.09716796875
vt 0.212890625 0.09716796875
vt 0.212890625 0.9044189453125
vt 0.212890625 0.9044189453125
vt 0.212890625 0.09716796875
vt 0.2529296875 0.09716796875
vt 0.2529296875 0.09716796875
vt 0.2529296875 0.9044189453125
vt 0.212890625 0.9044189453125
vt 0.29296875 0.9044189453125
vt 0.2529296875 0.9044189453125
vt 0.2529296875 0.09716796875
vt 0.2529296875 0.09716796875
vt 0.29296875 0.09716796875
vt 0.29296875 0.9044189453125
vt 0.29296875 0.9044189453125
vt 0.29296875 0.09716796875
vt 0.3330078125 0.09716796875
vt 0.3330078125 0.09716796875
vt 0.3330078125 0.9044189453125
vt 0.29296875 0.9044189453125
vt 0.373046875 0.9044189453125
vt 0.3330078125 0.9044189453125
vt 0.3330078125 0.09716796875
vt 0.3330078125 0.09716796875
vt 0.373046875 0.09716796875
vt 0.373046875 0.9044189453125
vt 0.373046875 0.9044189453125
vt 0.373046875 0.09716796875
vt 0.4130859375 0.09716796875
vt 0.4130859375 0.09716796875
vt 0.4130859375 0.9044189453125
vt 0.373046875 0.9044189453125
vt 0.453125 0.9044189453125
vt 0.4130859375 0.9044189453125
vt 0.4130859375 0.09716796875
vt 0.4130859375 0.09716796875
vt 0.453125 0.09716796875
vt 0.453125 0.9044189453125
vt 0.453125 0.9044189453125
vt 0.453125 0.09716796875
vt 0.4931640625 0.09716796875
vt 0.4931640625 0.09716796875
vt 0.4931640625 0.9044189453125
vt 0.453125 0.9044189453125
vt 0.533203125 0.9044189453125
vt 0.4931640625 0.9044189453125
vt 0.4931640625 0.09716796875
vt 0.4931640625 0.09716796875
vt 0.533203125 0.09716796875
vt 0.533203125 0.9044189453125
vt 0.533203125 0.9044189453125
vt 0.533203125 0.09716796875
vt 0.5732421875 0.09716796875
vt 0.5732421875 0.09716796875
vt 0.5732421875 0.9044189453125
vt 0.533203125 0.9044189453125
vt 0.61328125 0.9044189453125
vt 0.5732421875 0.9044189453125
vt 0.5732421875 0.09716796875
vt 0.5732421875 0.09716796875
vt 0.61328125 0.09716796875
vt 0.61328125 0.9044189453125
vt 0.61328125 0.9044189453125
vt 0.61328125 0.09716796875
vt 0.6533203125 0.09716796875
vt 0.6533203125 0.09716796875
vt 0.6533203125 0.9044189453125
vt 0.61328125 0.9044189453125
vt 0.693359375 0.9044189453125
vt 0.6533203125 0.9044189453125
vt 0.6533203125 0.09716796875
vt 0.6533203125 0.09716796875
vt 0.693359375 0.09716796875
vt 0.693359375 0.9044189453125
vt 0.693359375 0.9044189453125
vt 0.693359375 0.09716796875
vt 0.7333984375 0.09716796875
vt 0.7333984375 0.09716796875
vt 0.7333984375 0.9044189453125
vt 0.693359375 0.9044189453125
vt 0.7734375 0.9044189453125
vt 0.7333984375 0.9044189453125
vt 0.7333984375 0.09716796875
vt 0.7333984375 0.09716796875
vt 0.7734375 0.09716796875
vt 0.7734375 0.9044189453125
vt 0.7734375 0.9044189453125
vt 0.7734375 0.09716796875
vt 0.8134765625 0.09716796875
vt 0.8134765625 0.09716796875
vt 0.8134765625 0.9044189453125
vt 0.7734375 0.9044189453125
vt 0.853515625 0.9044189453125
vt 0.8134765625 0.9044189453125
vt 0.8134765625 0.09716796875
vt 0.8134765625 0.09716796875
vt 0.853515625 0.09716796875
vt 0.853515625 0.9044189453125
vt 0.853515625 0.9044189453125
vt 0.853515625 0.09716796875
vt 0.8935546875 0.09716796875
vt 0.8935546875 0.09716796875
vt 0.8935546875 0.9044189453125
vt 0.853515625 0.9044189453125
vt 0.93896484375 0.9044189453125
vt 0.8935546875 0.9044189453125
vt 0.8935546875 0.09716796875
vt 0.8935546875 0.09716796875
vt 0.93896484375 0.09716796875
vt 0.93896484375 0.9044189453125
vt 0.93896484375 0.9044189453125
vt 0.93896484375 0.09716796875
vt 0.984375 0.09716796875
vt 0.984375 0.09716796875
vt 0.984375 0.9044189453125
vt 0.93896484375 0.9044189453125
vn -0.37524303793907166 -0.9224804639816284 0.0906771570444107
vn 0.13629838824272156 -0.9865097403526306 0.09067146480083466
vn 0.1362837702035904 -0.9865114092826843 0.09067525714635849
vn -0.37524092197418213 -0.9224814176559448 0.09067700803279877
vn -0.7862027287483215 -0.6112796068191528 0.09067688137292862
vn -0.7861939072608948 -0.6112913489341736 0.09067533165216446
vn -0.9865127205848694 -0.13627289235591888 0.09067770093679428
vn -0.9865112900733948 -0.1362837553024292 0.09067638218402863
vn -0.9224866032600403 0.3752284348011017 0.09067552536725998
vn -0.9224905967712402 0.3752186596393585 0.09067465364933014
vn -0.6112914085388184 0.7861936092376709 0.09067639708518982
vn -0.6112985610961914 0.7861883640289307 0.09067514538764954
vn -0.13626454770565033 0.9865142107009888 0.09067335724830627
vn -0.13628992438316345 0.9865110516548157 0.09066925942897797
vn 0.3752312660217285 0.9224862456321716 0.0906677097082138
vn 0.3752117156982422 0.9224945306777954 0.09066468477249146
vn 0.7861971259117126 0.6112890243530273 0.09066297858953476
vn 0.7861905694007874 0.6112976670265198 0.09066145122051239
vn 0.986508846282959 0.13631302118301392 0.09065963327884674
vn 0.9865117073059082 0.1362875998020172 0.09066599607467651
vn 0.9224960803985596 -0.3752070367336273 0.09066731482744217
vn 0.9224825501441956 -0.3752388060092926 0.09067351371049881
vn 0.6112911105155945 -0.7861946225166321 0.090671107172966
vn 0.6112874150276184 -0.7861973643302917 0.09067234396934509
vn 0.12355044484138489 0.9870554804801941 -0.10225849598646164
vn -0.13616324961185455 0.9855104088783264 -0.10113715380430222
vn -0.13616643846035004 0.9855101108551025 -0.1011359691619873
vn 0.12353825569152832 0.9870571494102478 -0.10225621610879898
vn 0.37483710050582886 0.9215579032897949 -0.10113397985696793
vn 0.37485334277153015 0.9215512275695801 -0.10113503038883209
vn 0.6005231738090515 0.7930417060852051 -0.10225861519575119
vn 0.6005066633224487 0.7930544018745422 -0.10225702077150345
vn 0.785382866859436 0.6106925010681152 -0.1011359766125679
vn 0.7853935956954956 0.6106784343719482 -0.10113733261823654
vn 0.9166015982627869 0.3865022361278534 -0.1022617444396019
vn 0.9166001081466675 0.38650602102279663 -0.10226156562566757
vn 0.9855142831802368 0.1361369788646698 -0.1011350005865097
vn 0.9855116009712219 0.1361556500196457 -0.10113716125488281
vn 0.9870595335960388 -0.12351413816213608 -0.1022627130150795
vn 0.9870592355728149 -0.12351996451616287 -0.10225827246904373
vn 0.9215616583824158 -0.37482717633247375 -0.10113726556301117
vn 0.9215573668479919 -0.3748370110988617 -0.10113932192325592
vn 0.7930666208267212 -0.6004896759986877 -0.10226216167211533
vn 0.7930543422698975 -0.6005056500434875 -0.10226298868656158
vn 0.6106574535369873 -0.7854099273681641 -0.10113638639450073
vn 0.6106874346733093 -0.7853866219520569 -0.10113734751939774
vn 0.38651689887046814 -0.916595458984375 -0.10226142406463623
vn 0.38652127981185913 -0.9165942668914795 -0.10225547850131989
vn 0.1361543834209442 -0.9855119585990906 -0.10113459080457687
vn 0.13612735271453857 -0.9855154752731323 -0.101137176156044
vn -0.12352970242500305 -0.9870576858520508 -0.10226213186979294
vn -0.12353239208459854 -0.9870573282241821 -0.1022619679570198
vn -0.37484270334243774 -0.9215553402900696 -0.10113772004842758
vn -0.37481191754341125 -0.921567440032959 -0.1011405810713768
vn -0.6005125045776367 -0.7930486798286438 -0.10226716846227646
vn -0.600513756275177 -0.7930485606193542 -0.10225971043109894
vn -0.7854062914848328 -0.6106613278388977 -0.10114216804504395
vn -0.7854301333427429 -0.610630214214325 -0.10114455968141556
vn -0.9165665507316589 -0.3865853548049927 -0.1022619679570198
vn -0.9165851473808289 -0.3865393400192261 -0.10226890444755554
vn -0.9855058193206787 -0.13618972897529602 -0.10114608705043793
vn -0.9855062365531921 -0.13619408011436462 -0.1011366993188858
vn -0.9870593547821045 0.12351896613836288 -0.10225889831781387
vn -0.9870584011077881 0.12351753562688828 -0.10227054357528687
vn -0.9215371608734131 0.37488695979118347 -0.1011384055018425
vn -0.9215688705444336 0.3748094141483307 -0.10113685578107834
vn -0.7930352091789246 0.6005315184593201 -0.10226019471883774
vn -0.7930360436439514 0.6005316972732544 -0.10225247591733932
vn -0.6106637120246887 0.7854052782058716 -0.10113560408353806
vn -0.6106358766555786 0.7854264974594116 -0.10113877803087234
vn -0.3865259885787964 0.9165919423103333 -0.10225912928581238
vn -0.3865339756011963 0.9165886044502258 -0.10225804150104523
f 1/1/1 2/2/2 3/3/3
f 3/4/3 4/5/4 1/6/1
f 5/7/5 1/8/1 4/9/4
f 4/10/4 6/11/6 5/12/5
f 7/13/7 5/14/5 6/15/6
f 6/16/6 8/17/8 7/18/7
f 9/19/9 7/20/7 8/21/8
f 8/22/8 10/23/10 9/24/9
f 11/25/11 9/26/9 10/27/10
f 10/28/10 12/29/12 11/30/11
f 13/31/13 11/32/11 12/33/12
f 12/34/12 14/35/14 13/36/13
f 15/37/15 13/38/13 14/39/14
f 14/40/14 16/41/16 15/42/15
f 17/43/17 15/44/15 16/45/16
f 16/46/16 18/47/18 17/48/17
f 19/49/19 17/50/17 18/51/18
f 18/52/18 20/53/20 19/54/19
f 21/55/21 19/56/19 20/57/20
f 20/58/20 22/59/22 21/60/21
f 23/61/23 21/62/21 22/63/22
f 22/64/22 24/65/24 23/66/23
f 2/67/2 23/68/23 24/69/24
f 24/70/24 3/71/3 2/72/2
f 25/73/25 26/74/26 27/75/27
f 27/76/27 28/77/28 25/78/25
f 25/79/25 28/80/28 29/81/29
f 29/82/29 30/83/30 25/84/25
f 31/85/31 30/86/30 29/87/29
f 29/88/29 32/89/32 31/90/31
f 31/91/31 32/92/32 33/93/33
f 33/94/33 34/95/34 31/96/31
f 35/97/35 34/98/34 33/99/33
f 33/100/33 36/101/36 35/102/35
f 35/103/35 36/104/36 37/105/37
f 37/106/37 38/107/38 35/108/35
f 39/109/39 38/110/38 37/111/37
f 37/112/37 40/113/40 39/114/39
f 39/115/39 40/116/40 41/117/41
f 41/118/41 42/119/42 39/120/39
f 43/121/43 42/122/42 41/123/41
f 41/124/41 44/125/44 43/126/43
f 43/127/43 44/128/44 45/129/45
f 45/130/45 46/131/46 43/132/43
f 47/133/47 46/134/46 45/135/45
f 45/136/45 48/137/48 47/138/47
f 47/139/47 48/140/48 49/141/49
f 49/142/49 50/143/50 47/144/47
f 51/145/51 50/146/50 49/147/49
f 49/148/49 52/149/52 51/150/51
f 51/151/51 52/152/52 53/153/53
f 53/154/53 54/155/54 51/156/51
f 55/157/55 54/158/54 53/159/53
f 53/160/53 56/161/56 55/162/55
f 55/163/55 56/164/56 57/165/57
f 57/166/57 58/167/58 55/168/55
f 59/169/59 58/170/58 57/171/57
f 57/172/57 60/173/60 59/174/59
f 59/175/59 60/176/60 61/177/61
f 61/178/61 62/179/62 59/180/59
f 63/181/63 62/182/62 61/183/61
f 61/184/61 64/185/64 63/186/63
f 63/187/63 64/188/64 65/189/65
f 65/190/65 66/191/66 63/192/63
f 67/193/67 66/194/66 65/195/65
f 65/196/65 68/197/68 67/198/67
f 67/199/67 68/200/68 69/201/69
f 69/202/69 70/203/70 67/204/67
f 71/205/71 70/206/70 69/207/69
f 69/208/69 72/209/72 71/210/71
f 71/211/71 72/212/72 27/213/27
f 27/214/27 26/215/26 71/216/71
