# Exported by Lightwave Blender addon
v 3087.265869140625 -1288.99267578125 1410.064208984375
v 3087.265869140625 -1288.99267578125 1230.359130859375
v 3139.611328125 -1309.849365234375 1230.359130859375
v 3139.611328125 -1309.849365234375 1410.064208984375
v 3193.571533203125 -1331.349365234375 1410.064208984375
v 3140.919189453125 -1310.3704833984375 1410.064208984375
v 3140.919189453125 -1310.370361328125 1230.359130859375
v 3193.571533203125 -1331.349365234375 1230.359130859375
vt 0.251220703125 0.9884872436523438
vt 0.251220703125 0.22509765625
vt 0.497802734375 0.22509765625
vt 0.497802734375 0.22509765625
vt 0.497802734375 0.9884872436523438
vt 0.251220703125 0.9884872436523438
vt 0.2491455078125 0.9884872436523438
vt 0.00260162353515625 0.9884872436523438
vt 0.00260162353515625 0.22509765625
vt 0.00260162353515625 0.22509765625
vt 0.2491455078125 0.22509765625
vt 0.2491455078125 0.9884872436523438
vn -0.3701435327529907 -0.9289745092391968 0.0
vn -0.3701435327529907 -0.9289746284484863 0.0
vn -0.3701435327529907 -0.9289745092391968 0.0
vn -0.3701435327529907 -0.9289746284484863 0.0
vn -0.3701426088809967 -0.9289749264717102 -5.083103928882338e-07
vn -0.37014228105545044 -0.9289751052856445 -6.310355047389749e-07
vn -0.3701438009738922 -0.9289745092391968 -1.2272495553133922e-07
vn -0.37014418840408325 -0.9289743900299072 0.0
f 1/1/1 2/2/2 3/3/3
f 3/4/3 4/5/4 1/6/1
f 5/7/5 6/8/6 7/9/7
f 7/10/7 8/11/8 5/12/5
