# Exported by Lightwave Blender addon
v 3451.41748046875 -1482.3055419921875 1061.9464111328125
v 3480.866455078125 -1494.167724609375 1061.9464111328125
v 3482.265380859375 -1490.6951904296875 1061.9464111328125
v 3452.81640625 -1478.8330078125 1061.9464111328125
v 3482.265380859375 -1490.6951904296875 1055.9388427734375
v 3452.81640625 -1478.8330078125 1055.9388427734375
v 3451.41748046875 -1482.3055419921875 1055.93896484375
v 3480.866455078125 -1494.167724609375 1055.9388427734375
v 3453.026123046875 -1479.1268310546875 893.2250366210938
v 3451.76171875 -1482.2666015625 893.2250366210938
v 3451.76171875 -1482.2666015625 1056.2100830078125
v 3453.026123046875 -1479.1268310546875 1056.2100830078125
v 3457.5419921875 -1480.9456787109375 1056.2100830078125
v 3457.5419921875 -1480.9456787109375 893.2250366210938
v 3456.27685546875 -1484.08544921875 893.2250366210938
v 3456.27685546875 -1484.08544921875 1056.2100830078125
v 3477.164306640625 -1491.43212890625 1055.8040771484375
v 3456.74658203125 -1483.2078857421875 1055.8040771484375
v 3456.74658203125 -1483.2078857421875 893.41748046875
v 3477.164306640625 -1491.43212890625 893.4174194335938
v 3480.908935546875 -1494.007568359375 893.2250366210938
v 3482.17431640625 -1490.86767578125 893.2250366210938
v 3482.17431640625 -1490.86767578125 1056.2100830078125
v 3480.908935546875 -1494.007568359375 1056.2100830078125
v 3476.393798828125 -1492.188720703125 1056.2100830078125
v 3476.393798828125 -1492.188720703125 893.2250366210938
v 3477.65869140625 -1489.049072265625 893.2250366210938
v 3477.65869140625 -1489.048828125 1056.2100830078125
v 3451.41748046875 -1482.3055419921875 893.1990356445312
v 3480.866455078125 -1494.167724609375 893.1990356445312
v 3482.265380859375 -1490.6951904296875 893.1990356445312
v 3452.81640625 -1478.8330078125 893.1990356445312
v 3482.265380859375 -1490.6951904296875 887.1915283203125
v 3452.81640625 -1478.8330078125 887.1915283203125
v 3451.41748046875 -1482.3055419921875 887.1915893554688
v 3480.866455078125 -1494.167724609375 887.1915283203125
v 3480.864501953125 -1494.1668701171875 1061.9464111328125
v 3510.31298828125 -1506.0291748046875 1061.9464111328125
v 3511.7119140625 -1502.5565185546875 1061.9464111328125
v 3482.262939453125 -1490.6943359375 1061.9464111328125
v 3511.7119140625 -1502.5565185546875 1055.9388427734375
v 3482.262939453125 -1490.6943359375 1055.9388427734375
v 3480.864501953125 -1494.1668701171875 1055.93896484375
v 3510.31298828125 -1506.0291748046875 1055.9388427734375
v 3482.47314453125 -1490.9881591796875 893.2250366210938
v 3481.208251953125 -1494.1279296875 893.2250366210938
v 3481.208251953125 -1494.1279296875 1056.2100830078125
v 3482.47314453125 -1490.9881591796875 1056.2100830078125
v 3486.98828125 -1492.806884765625 1056.2100830078125
v 3486.98828125 -1492.806884765625 893.2250366210938
v 3485.723876953125 -1495.9466552734375 893.2250366210938
v 3485.723876953125 -1495.9466552734375 1056.2100830078125
v 3506.6826171875 -1503.3223876953125 1055.8040771484375
v 3486.2646484375 -1495.0980224609375 1055.8040771484375
v 3486.2646484375 -1495.0980224609375 893.41748046875
v 3506.6826171875 -1503.3223876953125 893.4174194335938
v 3510.123779296875 -1505.775146484375 893.2250366210938
v 3511.38818359375 -1502.635498046875 893.2250366210938
v 3511.38818359375 -1502.635498046875 1056.2100830078125
v 3510.123779296875 -1505.775146484375 1056.2100830078125
v 3505.60791015625 -1503.956298828125 1056.2100830078125
v 3505.60791015625 -1503.956298828125 893.2250366210938
v 3506.87255859375 -1500.816650390625 893.2250366210938
v 3506.87255859375 -1500.816650390625 1056.2100830078125
v 3480.864501953125 -1494.1668701171875 893.1990356445312
v 3510.31298828125 -1506.0291748046875 893.1990356445312
v 3511.7119140625 -1502.5565185546875 893.1990356445312
v 3482.262939453125 -1490.6943359375 893.1990356445312
v 3511.7119140625 -1502.5565185546875 887.1915283203125
v 3482.262939453125 -1490.6943359375 887.1915283203125
v 3480.864501953125 -1494.1668701171875 887.1915893554688
v 3510.31298828125 -1506.0291748046875 887.1915283203125
vt 0.327880859375 0.35302734375
vt 0.327880859375 0.43212890625
vt 0.318603515625 0.43212890625
vt 0.318603515625 0.43212890625
vt 0.318603515625 0.35302734375
vt 0.327880859375 0.35302734375
vt 0.3154296875 0.43212890625
vt 0.300537109375 0.43212890625
vt 0.300537109375 0.3525390625
vt 0.300537109375 0.3525390625
vt 0.3154296875 0.3525390625
vt 0.3154296875 0.43212890625
vt 0.27001953125 0.35205078125
vt 0.284912109375 0.35205078125
vt 0.284912109375 0.431640625
vt 0.284912109375 0.431640625
vt 0.27001953125 0.431640625
vt 0.27001953125 0.35205078125
vt 0.269775390625 0.34521484375
vt 0.269775390625 0.3359375
vt 0.284912109375 0.3359375
vt 0.284912109375 0.3359375
vt 0.284912109375 0.34521484375
vt 0.269775390625 0.34521484375
vt 0.2880859375 0.34521484375
vt 0.2880859375 0.3359375
vt 0.30322265625 0.3359375
vt 0.30322265625 0.3359375
vt 0.30322265625 0.34521484375
vt 0.2880859375 0.34521484375
vt 0.287841796875 0.3525390625
vt 0.29736328125 0.3525390625
vt 0.29736328125 0.43212890625
vt 0.29736328125 0.43212890625
vt 0.287841796875 0.43212890625
vt 0.287841796875 0.3525390625
vt 0.8583984375 0.9782562255859375
vt 0.8486328125 0.9782562255859375
vt 0.8486328125 0.57080078125
vt 0.8486328125 0.57080078125
vt 0.8583984375 0.57080078125
vt 0.8583984375 0.9782562255859375
vt 0.81201171875 0.5712890625
vt 0.81201171875 0.978668212890625
vt 0.7998046875 0.978668212890625
vt 0.7998046875 0.978668212890625
vt 0.7998046875 0.5712890625
vt 0.81201171875 0.5712890625
vt 0.84521484375 0.572021484375
vt 0.84521484375 0.979339599609375
vt 0.8330078125 0.979339599609375
vt 0.8330078125 0.979339599609375
vt 0.8330078125 0.572021484375
vt 0.84521484375 0.572021484375
vt 0.82763671875 0.980072021484375
vt 0.81787109375 0.980072021484375
vt 0.81787109375 0.57275390625
vt 0.81787109375 0.57275390625
vt 0.82763671875 0.57275390625
vt 0.82763671875 0.980072021484375
vt 0.377197265625 0.01123046875
vt 0.432373046875 0.01123046875
vt 0.432373046875 0.4169921875
vt 0.432373046875 0.4169921875
vt 0.377197265625 0.4169921875
vt 0.377197265625 0.01123046875
vt 0.8583984375 0.9782562255859375
vt 0.8486328125 0.9782562255859375
vt 0.8486328125 0.57080078125
vt 0.8486328125 0.57080078125
vt 0.8583984375 0.57080078125
vt 0.8583984375 0.9782562255859375
vt 0.81201171875 0.5712890625
vt 0.81201171875 0.978668212890625
vt 0.7998046875 0.978668212890625
vt 0.7998046875 0.978668212890625
vt 0.7998046875 0.5712890625
vt 0.81201171875 0.5712890625
vt 0.84521484375 0.572021484375
vt 0.84521484375 0.979339599609375
vt 0.8330078125 0.979339599609375
vt 0.8330078125 0.979339599609375
vt 0.8330078125 0.572021484375
vt 0.84521484375 0.572021484375
vt 0.82763671875 0.980072021484375
vt 0.81787109375 0.980072021484375
vt 0.81787109375 0.57275390625
vt 0.81787109375 0.57275390625
vt 0.82763671875 0.57275390625
vt 0.82763671875 0.980072021484375
vt 0.327880859375 0.35302734375
vt 0.327880859375 0.43212890625
vt 0.318603515625 0.43212890625
vt 0.318603515625 0.43212890625
vt 0.318603515625 0.35302734375
vt 0.327880859375 0.35302734375
vt 0.3154296875 0.43212890625
vt 0.300537109375 0.43212890625
vt 0.300537109375 0.3525390625
vt 0.300537109375 0.3525390625
vt 0.3154296875 0.3525390625
vt 0.3154296875 0.43212890625
vt 0.27001953125 0.35205078125
vt 0.284912109375 0.35205078125
vt 0.284912109375 0.431640625
vt 0.284912109375 0.431640625
vt 0.27001953125 0.431640625
vt 0.27001953125 0.35205078125
vt 0.269775390625 0.34521484375
vt 0.269775390625 0.3359375
vt 0.284912109375 0.3359375
vt 0.284912109375 0.3359375
vt 0.284912109375 0.34521484375
vt 0.269775390625 0.34521484375
vt 0.2880859375 0.34521484375
vt 0.2880859375 0.3359375
vt 0.30322265625 0.3359375
vt 0.30322265625 0.3359375
vt 0.30322265625 0.34521484375
vt 0.2880859375 0.34521484375
vt 0.287841796875 0.3525390625
vt 0.29736328125 0.3525390625
vt 0.29736328125 0.43212890625
vt 0.29736328125 0.43212890625
vt 0.287841796875 0.43212890625
vt 0.287841796875 0.3525390625
vt 0.327880859375 0.35302734375
vt 0.327880859375 0.43212890625
vt 0.318603515625 0.43212890625
vt 0.318603515625 0.43212890625
vt 0.318603515625 0.35302734375
vt 0.327880859375 0.35302734375
vt 0.3154296875 0.43212890625
vt 0.300537109375 0.43212890625
vt 0.300537109375 0.3525390625
vt 0.300537109375 0.3525390625
vt 0.3154296875 0.3525390625
vt 0.3154296875 0.43212890625
vt 0.27001953125 0.35205078125
vt 0.284912109375 0.35205078125
vt 0.284912109375 0.431640625
vt 0.284912109375 0.431640625
vt 0.27001953125 0.431640625
vt 0.27001953125 0.35205078125
vt 0.269775390625 0.34521484375
vt 0.269775390625 0.3359375
vt 0.284912109375 0.3359375
vt 0.284912109375 0.3359375
vt 0.284912109375 0.34521484375
vt 0.269775390625 0.34521484375
vt 0.2880859375 0.34521484375
vt 0.2880859375 0.3359375
vt 0.30322265625 0.3359375
vt 0.30322265625 0.3359375
vt 0.30322265625 0.34521484375
vt 0.2880859375 0.34521484375
vt 0.287841796875 0.3525390625
vt 0.29736328125 0.3525390625
vt 0.29736328125 0.43212890625
vt 0.29736328125 0.43212890625
vt 0.287841796875 0.43212890625
vt 0.287841796875 0.3525390625
vt 0.8583984375 0.9782562255859375
vt 0.8486328125 0.9782562255859375
vt 0.8486328125 0.57080078125
vt 0.8486328125 0.57080078125
vt 0.8583984375 0.57080078125
vt 0.8583984375 0.9782562255859375
vt 0.81201171875 0.5712890625
vt 0.81201171875 0.978668212890625
vt 0.7998046875 0.978668212890625
vt 0.7998046875 0.978668212890625
vt 0.7998046875 0.5712890625
vt 0.81201171875 0.5712890625
vt 0.84521484375 0.572021484375
vt 0.84521484375 0.979339599609375
vt 0.8330078125 0.979339599609375
vt 0.8330078125 0.979339599609375
vt 0.8330078125 0.572021484375
vt 0.84521484375 0.572021484375
vt 0.82763671875 0.980072021484375
vt 0.81787109375 0.980072021484375
vt 0.81787109375 0.57275390625
vt 0.81787109375 0.57275390625
vt 0.82763671875 0.57275390625
vt 0.82763671875 0.980072021484375
vt 0.377197265625 0.01123046875
vt 0.432373046875 0.01123046875
vt 0.432373046875 0.4169921875
vt 0.432373046875 0.4169921875
vt 0.377197265625 0.4169921875
vt 0.377197265625 0.01123046875
vt 0.8583984375 0.9782562255859375
vt 0.8486328125 0.9782562255859375
vt 0.8486328125 0.57080078125
vt 0.8486328125 0.57080078125
vt 0.8583984375 0.57080078125
vt 0.8583984375 0.9782562255859375
vt 0.81201171875 0.5712890625
vt 0.81201171875 0.978668212890625
vt 0.7998046875 0.978668212890625
vt 0.7998046875 0.978668212890625
vt 0.7998046875 0.5712890625
vt 0.81201171875 0.5712890625
vt 0.84521484375 0.572021484375
vt 0.84521484375 0.979339599609375
vt 0.8330078125 0.979339599609375
vt 0.8330078125 0.979339599609375
vt 0.8330078125 0.572021484375
vt 0.84521484375 0.572021484375
vt 0.82763671875 0.980072021484375
vt 0.81787109375 0.980072021484375
vt 0.81787109375 0.57275390625
vt 0.81787109375 0.57275390625
vt 0.82763671875 0.57275390625
vt 0.82763671875 0.980072021484375
vt 0.327880859375 0.35302734375
vt 0.327880859375 0.43212890625
vt 0.318603515625 0.43212890625
vt 0.318603515625 0.43212890625
vt 0.318603515625 0.35302734375
vt 0.327880859375 0.35302734375
vt 0.3154296875 0.43212890625
vt 0.300537109375 0.43212890625
vt 0.300537109375 0.3525390625
vt 0.300537109375 0.3525390625
vt 0.3154296875 0.3525390625
vt 0.3154296875 0.43212890625
vt 0.27001953125 0.35205078125
vt 0.284912109375 0.35205078125
vt 0.284912109375 0.431640625
vt 0.284912109375 0.431640625
vt 0.27001953125 0.431640625
vt 0.27001953125 0.35205078125
vt 0.269775390625 0.34521484375
vt 0.269775390625 0.3359375
vt 0.284912109375 0.3359375
vt 0.284912109375 0.3359375
vt 0.284912109375 0.34521484375
vt 0.269775390625 0.34521484375
vt 0.2880859375 0.34521484375
vt 0.2880859375 0.3359375
vt 0.30322265625 0.3359375
vt 0.30322265625 0.3359375
vt 0.30322265625 0.34521484375
vt 0.2880859375 0.34521484375
vt 0.287841796875 0.3525390625
vt 0.29736328125 0.3525390625
vt 0.29736328125 0.43212890625
vt 0.29736328125 0.43212890625
vt 0.287841796875 0.43212890625
vt 0.287841796875 0.3525390625
vn -0.7512614130973816 -0.31979507207870483 0.5773537158966064
vn 0.3198033571243286 -0.7512588500976562 0.5773525238037109
vn 0.7512614130973816 0.31979504227638245 0.5773537158966064
vn -0.3198033571243286 0.7512588500976562 0.5773525238037109
vn 0.7512592077255249 0.31980401277542114 -0.5773516893386841
vn -0.3198121190071106 0.7512447834014893 -0.577366054058075
vn -0.7512649893760681 -0.3198111951351166 -0.5773401856422424
vn 0.31980961561203003 -0.7512527704238892 -0.5773569941520691
vn -0.39174923300743103 0.9200719594955444 0.0
vn -0.9200819730758667 -0.39172565937042236 0.0
vn -0.9200810790061951 -0.3917280435562134 0.0
vn -0.3917515277862549 0.9200709462165833 0.0
vn 0.9201098680496216 0.39166030287742615 0.0
vn 0.9201103448867798 0.3916592299938202 0.0
vn 0.39163222908973694 -0.9201217889785767 0.0
vn 0.39163336157798767 -0.9201213717460632 0.0
vn -0.3736279606819153 -0.9275786280632019 0.0
vn -0.3736279606819153 -0.9275786876678467 0.0
vn -0.3736279606819153 -0.9275786876678467 0.0
vn -0.3736279010772705 -0.9275786280632019 0.0
vn 0.39160725474357605 -0.9201324582099915 0.0
vn 0.9201154112815857 0.39164748787879944 0.0
vn 0.9201239347457886 0.39162731170654297 -9.63911588769406e-07
vn 0.39160871505737305 -0.9201317429542542 0.0
vn -0.9201046228408813 -0.39167264103889465 -3.9055672118593066e-07
vn -0.9201108813285828 -0.3916580080986023 0.0
vn -0.39169448614120483 0.9200952649116516 -2.3898872214545008e-08
vn -0.39168742299079895 0.9200983643531799 -1.3782453152089147e-06
vn -0.7512614130973816 -0.31979507207870483 0.5773537158966064
vn 0.319803386926651 -0.7512588500976562 0.5773525238037109
vn 0.7512614727020264 0.31979504227638245 0.5773537158966064
vn -0.319803386926651 0.7512588500976562 0.5773525238037109
vn 0.7512597441673279 0.31980401277542114 -0.5773510932922363
vn -0.31981131434440613 0.7512490153312683 -0.5773608684539795
vn -0.7512626051902771 -0.3198075294494629 -0.5773453116416931
vn 0.31981009244918823 -0.751253068447113 -0.5773563981056213
vn -0.7512391209602356 -0.31983494758605957 0.5773607492446899
vn 0.3198047876358032 -0.7512591481208801 0.5773513913154602
vn 0.7512589693069458 0.31979942321777344 0.5773544907569885
vn -0.3198505640029907 0.7512435913085938 0.5773462057113647
vn 0.7512568235397339 0.31980836391448975 -0.5773524641990662
vn -0.31985926628112793 0.751229465007782 -0.577359676361084
vn -0.7512426972389221 -0.31985118985176086 -0.5773470997810364
vn 0.31981104612350464 -0.7512530088424683 -0.5773559212684631
vn -0.3916749656200409 0.9201035499572754 0.0
vn -0.9200963973999023 -0.3916921019554138 0.0
vn -0.9200958013534546 -0.39169344305992126 0.0
vn -0.39167481660842896 0.9201036691665649 0.0
vn 0.9200769662857056 0.39173761010169983 0.0
vn 0.9200774431228638 0.39173638820648193 0.0
vn 0.39175084233283997 -0.9200713634490967 0.0
vn 0.3917536437511444 -0.9200701713562012 0.0
vn -0.3736289143562317 -0.927578330039978 0.0
vn -0.3736288249492645 -0.9275782108306885 0.0
vn -0.3736288845539093 -0.927578330039978 0.0
vn -0.3736288845539093 -0.9275782704353333 0.0
vn 0.3917432129383087 -0.9200746417045593 0.0
vn 0.9200773239135742 0.3917367160320282 0.0
vn 0.920076310634613 0.3917391896247864 0.0
vn 0.391745388507843 -0.9200736880302429 0.0
vn -0.9200858473777771 -0.3917168378829956 0.0
vn -0.9200867414474487 -0.39171457290649414 0.0
vn -0.39170342683792114 0.9200915694236755 0.0
vn -0.3917059898376465 0.9200904369354248 0.0
vn -0.7512391805648804 -0.3198348879814148 0.5773606896400452
vn 0.3198047876358032 -0.7512591481208801 0.5773513913154602
vn 0.7512589693069458 0.31979939341545105 0.5773544907569885
vn -0.3198505938053131 0.7512435913085938 0.5773462057113647
vn 0.7512572407722473 0.31980836391448975 -0.5773518085479736
vn -0.31985852122306824 0.7512337565422058 -0.5773544907569885
vn -0.7512401938438416 -0.31984755396842957 -0.5773522257804871
vn 0.31981152296066284 -0.7512532472610474 -0.5773552656173706
f 1/1/1 2/2/2 3/3/3
f 3/4/3 4/5/4 1/6/1
f 3/7/3 5/8/5 6/9/6
f 6/10/6 4/11/4 3/12/3
f 1/13/1 7/14/7 8/15/8
f 8/16/8 2/17/2 1/18/1
f 1/19/1 4/20/4 6/21/6
f 6/22/6 7/23/7 1/24/1
f 3/25/3 2/26/2 8/27/8
f 8/28/8 5/29/5 3/30/3
f 7/31/7 6/32/6 5/33/5
f 5/34/5 8/35/8 7/36/7
f 9/37/9 10/38/10 11/39/11
f 11/40/11 12/41/12 9/42/9
f 9/43/9 12/44/12 13/45/13
f 13/46/13 14/47/14 9/48/9
f 11/49/11 10/50/10 15/51/15
f 15/52/15 16/53/16 11/54/11
f 15/55/15 14/56/14 13/57/13
f 13/58/13 16/59/16 15/60/15
f 17/61/17 18/62/18 19/63/19
f 19/64/19 20/65/20 17/66/17
f 21/67/21 22/68/22 23/69/23
f 23/70/23 24/71/24 21/72/21
f 21/73/21 24/74/24 25/75/25
f 25/76/25 26/77/26 21/78/21
f 23/79/23 22/80/22 27/81/27
f 27/82/27 28/83/28 23/84/23
f 27/85/27 26/86/26 25/87/25
f 25/88/25 28/89/28 27/90/27
f 29/91/29 30/92/30 31/93/31
f 31/94/31 32/95/32 29/96/29
f 31/97/31 33/98/33 34/99/34
f 34/100/34 32/101/32 31/102/31
f 29/103/29 35/104/35 36/105/36
f 36/106/36 30/107/30 29/108/29
f 29/109/29 32/110/32 34/111/34
f 34/112/34 35/113/35 29/114/29
f 31/115/31 30/116/30 36/117/36
f 36/118/36 33/119/33 31/120/31
f 35/121/35 34/122/34 33/123/33
f 33/124/33 36/125/36 35/126/35
f 37/127/37 38/128/38 39/129/39
f 39/130/39 40/131/40 37/132/37
f 39/133/39 41/134/41 42/135/42
f 42/136/42 40/137/40 39/138/39
f 37/139/37 43/140/43 44/141/44
f 44/142/44 38/143/38 37/144/37
f 37/145/37 40/146/40 42/147/42
f 42/148/42 43/149/43 37/150/37
f 39/151/39 38/152/38 44/153/44
f 44/154/44 41/155/41 39/156/39
f 43/157/43 42/158/42 41/159/41
f 41/160/41 44/161/44 43/162/43
f 45/163/45 46/164/46 47/165/47
f 47/166/47 48/167/48 45/168/45
f 45/169/45 48/170/48 49/171/49
f 49/172/49 50/173/50 45/174/45
f 47/175/47 46/176/46 51/177/51
f 51/178/51 52/179/52 47/180/47
f 51/181/51 50/182/50 49/183/49
f 49/184/49 52/185/52 51/186/51
f 53/187/53 54/188/54 55/189/55
f 55/190/55 56/191/56 53/192/53
f 57/193/57 58/194/58 59/195/59
f 59/196/59 60/197/60 57/198/57
f 57/199/57 60/200/60 61/201/61
f 61/202/61 62/203/62 57/204/57
f 59/205/59 58/206/58 63/207/63
f 63/208/63 64/209/64 59/210/59
f 63/211/63 62/212/62 61/213/61
f 61/214/61 64/215/64 63/216/63
f 65/217/65 66/218/66 67/219/67
f 67/220/67 68/221/68 65/222/65
f 67/223/67 69/224/69 70/225/70
f 70/226/70 68/227/68 67/228/67
f 65/229/65 71/230/71 72/231/72
f 72/232/72 66/233/66 65/234/65
f 65/235/65 68/236/68 70/237/70
f 70/238/70 71/239/71 65/240/65
f 67/241/67 66/242/66 72/243/72
f 72/244/72 69/245/69 67/246/67
f 71/247/71 70/248/70 69/249/69
f 69/250/69 72/251/72 71/252/71
