# Exported by Lightwave Blender addon
v 249.26156616210938 977.300537109375 1301.936279296875
v 275.6028747558594 1027.1119384765625 1301.936279296875
v 249.2615203857422 977.300537109375 1120.1279296875
v 275.60284423828125 1027.112060546875 1120.1279296875
v 222.10757446289062 925.9525756835938 1120.1279296875
v 222.10757446289062 925.9526977539062 1301.936279296875
v 248.60328674316406 976.0558471679688 1120.1279296875
v 248.60328674316406 976.0559692382812 1301.936279296875
vt 0.497802734375 0.9884872436523438
vt 0.251220703125 0.9884872436523438
vt 0.497802734375 0.22509765625
vt 0.251220703125 0.9884872436523438
vt 0.251220703125 0.22509765625
vt 0.497802734375 0.22509765625
vt 0.2491455078125 0.22509765625
vt 0.2491455078125 0.9884872436523438
vt 0.00260162353515625 0.22509765625
vt 0.2491455078125 0.9884872436523438
vt 0.00260162353515625 0.9884872436523438
vt 0.00260162353515625 0.22509765625
vn -0.8840038180351257 0.4674796760082245 2.1448362019782508e-07
vn -0.8840039968490601 0.4674796164035797 2.618864982650848e-07
vn -0.8840040564537048 0.4674791395664215 4.148586185692693e-07
vn -0.8840041160583496 0.46747902035713196 4.622613687388366e-07
vn -0.8840033411979675 0.4674803912639618 -3.1387710919261735e-07
vn -0.8840034008026123 0.46748045086860657 -3.1387710919261735e-07
vn -0.8840034008026123 0.46748045086860657 -3.1387710919261735e-07
vn -0.8840033411979675 0.4674803912639618 -3.1387710919261735e-07
f 1/1/1 2/2/2 3/3/3
f 2/4/2 4/5/4 3/6/3
f 5/7/5 6/8/6 7/9/7
f 6/10/6 8/11/8 7/12/7
