# Exported by Lightwave Blender addon
v 1742.490966796875 4336.46826171875 1592.5521240234375
v 1742.4912109375 4336.46826171875 1362.4049072265625
v 1841.809814453125 4205.478515625 1592.5521240234375
v 1841.809814453125 4205.478515625 1362.4049072265625
v 1569.0914306640625 4565.162109375 1592.5521240234375
v 1569.0914306640625 4565.162109375 1362.4049072265625
v 1618.7508544921875 4499.6669921875 1592.5521240234375
v 1618.7508544921875 4499.66748046875 1362.4049072265625
v 1668.4102783203125 4434.17236328125 1362.4049072265625
v 1668.4102783203125 4434.17236328125 1592.5521240234375
v 1569.0914306640625 4565.162109375 1188.077880859375
v 1569.0914306640625 4565.16259765625 957.9304809570312
v 1618.7508544921875 4499.6669921875 1188.077880859375
v 1618.7508544921875 4499.66748046875 957.9304809570312
v 1668.4102783203125 4434.17236328125 957.9304809570312
v 1668.4102783203125 4434.17236328125 1188.077880859375
v 1742.6810302734375 4336.2177734375 1188.077880859375
v 1742.6810302734375 4336.2177734375 957.9304809570312
v 1792.3404541015625 4270.72314453125 1188.077880859375
v 1792.3404541015625 4270.72314453125 957.9304809570312
v 1841.999755859375 4205.22802734375 957.930419921875
v 1841.999755859375 4205.22802734375 1188.077880859375
v 1268.599853515625 4575.2255859375 1592.5521240234375
v 1268.5999755859375 4575.2255859375 1362.4049072265625
v 1428.710205078125 4612.47119140625 1592.5521240234375
v 1428.7103271484375 4612.47119140625 1362.4049072265625
v 1270.2728271484375 4576.0966796875 1183.9462890625
v 1270.27294921875 4576.0966796875 953.7988891601562
v 1430.3831787109375 4613.34228515625 1183.9464111328125
v 1430.3831787109375 4613.34228515625 953.7990112304688
v 1753.4654541015625 4299.142578125 1919.53662109375
v 1753.4654541015625 4299.142578125 1783.2130126953125
v 1818.225341796875 4213.73193359375 1919.53662109375
v 1818.225341796875 4213.73193359375 1783.2130126953125
v 1573.974365234375 4535.8701171875 1919.53662109375
v 1573.974365234375 4535.8701171875 1783.2130126953125
v 1638.7342529296875 4450.45947265625 1919.53662109375
v 1638.7342529296875 4450.4599609375 1783.2130126953125
v 1307.594970703125 4576.83251953125 1919.53662109375
v 1307.5948486328125 4576.8330078125 1784.18994140625
v 1412.85888671875 4597.04052734375 1919.5367431640625
v 1412.85888671875 4597.04052734375 1784.18994140625
vt 0.01358795166015625 0.956207275390625
vt 0.01358795166015625 0.298828125
vt 0.483154296875 0.956207275390625
vt 0.01358795166015625 0.298828125
vt 0.483154296875 0.298828125
vt 0.483154296875 0.956207275390625
vt 0.76953125 0.956207275390625
vt 0.76953125 0.298828125
vt 1.00390625 0.956207275390625
vt 0.76953125 0.298828125
vt 1.00390625 0.298828125
vt 1.00390625 0.956207275390625
vt 0.99267578125 0.298828125
vt 0.7578125 0.298828125
vt 0.99267578125 0.956207275390625
vt 0.7578125 0.298828125
vt 0.7578125 0.956207275390625
vt 0.99267578125 0.956207275390625
vt 0.52587890625 0.956207275390625
vt 0.52587890625 0.298828125
vt 0.74658203125 0.956207275390625
vt 0.52587890625 0.298828125
vt 0.74658203125 0.298828125
vt 0.74658203125 0.956207275390625
vt 0.7470703125 0.30078125
vt 0.5263671875 0.30078125
vt 0.7470703125 0.957916259765625
vt 0.5263671875 0.30078125
vt 0.5263671875 0.957916259765625
vt 0.7470703125 0.957916259765625
vt 0.52587890625 0.956207275390625
vt 0.52587890625 0.298828125
vt 0.74658203125 0.956207275390625
vt 0.52587890625 0.298828125
vt 0.74658203125 0.298828125
vt 0.74658203125 0.956207275390625
vt 0.7470703125 0.30078125
vt 0.5263671875 0.30078125
vt 0.7470703125 0.957916259765625
vt 0.5263671875 0.30078125
vt 0.5263671875 0.957916259765625
vt 0.7470703125 0.957916259765625
vt 0.01358795166015625 0.956207275390625
vt 0.01358795166015625 0.298828125
vt 0.483154296875 0.956207275390625
vt 0.01358795166015625 0.298828125
vt 0.483154296875 0.298828125
vt 0.483154296875 0.956207275390625
vt 0.01358795166015625 0.956207275390625
vt 0.01358795166015625 0.298828125
vt 0.483154296875 0.956207275390625
vt 0.01358795166015625 0.298828125
vt 0.483154296875 0.298828125
vt 0.483154296875 0.956207275390625
vt 0.01358795166015625 0.956207275390625
vt 0.01358795166015625 0.298828125
vt 0.483154296875 0.956207275390625
vt 0.01358795166015625 0.298828125
vt 0.483154296875 0.298828125
vt 0.483154296875 0.956207275390625
vt 0.01358795166015625 0.956207275390625
vt 0.01358795166015625 0.298828125
vt 0.483154296875 0.956207275390625
vt 0.01358795166015625 0.298828125
vt 0.483154296875 0.298828125
vt 0.483154296875 0.956207275390625
vt 0.01358795166015625 0.956207275390625
vt 0.01358795166015625 0.298828125
vt 0.483154296875 0.956207275390625
vt 0.01358795166015625 0.298828125
vt 0.483154296875 0.298828125
vt 0.483154296875 0.956207275390625
vn -0.796845555305481 -0.60418301820755 -8.452952897641808e-07
vn -0.7968460321426392 -0.6041824221611023 -3.337731868668925e-07
vn -0.7968458533287048 -0.6041826009750366 -5.115222734275449e-07
vn -0.796846330165863 -0.6041821241378784 0.0
vn -0.7968466281890869 -0.6041816473007202 0.0
vn -0.7968449592590332 -0.6041837930679321 -1.0019430192187428e-06
vn -0.796845555305481 -0.6041830778121948 -2.7944659564127505e-07
vn -0.7968454957008362 -0.60418301820755 -1.2797796671293327e-06
vn -0.7968461513519287 -0.604182243347168 -9.987229532271158e-07
vn -0.7968444228172302 -0.6041844487190247 0.0
vn -0.7968466877937317 -0.6041815876960754 -1.2818330787922605e-06
vn -0.7968466877937317 -0.6041816473007202 -1.2818329651054228e-06
vn -0.7968458533287048 -0.6041827201843262 -7.804143251632922e-07
vn -0.7968466281890869 -0.6041815876960754 -1.279775460716337e-06
vn -0.7968461513519287 -0.604182243347168 -9.987223847929272e-07
vn -0.7968444228172302 -0.6041844487190247 0.0
vn -0.7968444228172302 -0.6041844487190247 0.0
vn -0.796844482421875 -0.6041844487190247 0.0
vn -0.7968459129333496 -0.6041825413703918 0.0
vn -0.7968459725379944 -0.6041826009750366 0.0
vn -0.796847403049469 -0.6041806936264038 0.0
vn -0.796847403049469 -0.604180634021759 0.0
vn 0.22657491266727448 -0.973993718624115 1.201755566171414e-07
vn 0.22657491266727448 -0.973993718624115 1.2017557082799613e-07
vn 0.22657491266727448 -0.973993718624115 1.2017557082799613e-07
vn 0.2265748828649521 -0.973993718624115 1.201755566171414e-07
vn 0.22657492756843567 -0.9739937782287598 1.201754571411584e-07
vn 0.22657501697540283 -0.973993718624115 4.745244197579268e-08
vn 0.22657500207424164 -0.9739938378334045 7.272304003436147e-08
vn 0.2265750765800476 -0.973993718624115 0.0
vn -0.7968457937240601 -0.6041828393936157 0.0
vn -0.7968457341194153 -0.604182779788971 0.0
vn -0.7968457341194153 -0.604182779788971 0.0
vn -0.7968457937240601 -0.6041828393936157 0.0
vn -0.7968457937240601 -0.6041828393936157 0.0
vn -0.7968447804450989 -0.6041840314865112 -1.2460853895390755e-06
vn -0.796845018863678 -0.6041837334632874 -9.179702828987502e-07
vn -0.7968441843986511 -0.6041849851608276 -2.164058059861418e-06
vn 0.1885320395231247 -0.9820670485496521 -3.7129771044419613e-06
vn 0.188529372215271 -0.9820675253868103 -1.5832762301215553e-06
vn 0.1885300576686859 -0.982067346572876 -2.12969916901784e-06
vn 0.1885274201631546 -0.9820679426193237 0.0
f 1/1/1 2/2/2 3/3/3
f 2/4/2 4/5/4 3/6/3
f 5/7/5 6/8/6 7/9/7
f 6/10/6 8/11/8 7/12/7
f 8/13/8 9/14/9 7/15/7
f 9/16/9 10/17/10 7/18/7
f 11/19/11 12/20/12 13/21/13
f 12/22/12 14/23/14 13/24/13
f 14/25/14 15/26/15 13/27/13
f 15/28/15 16/29/16 13/30/13
f 17/31/17 18/32/18 19/33/19
f 18/34/18 20/35/20 19/36/19
f 20/37/20 21/38/21 19/39/19
f 21/40/21 22/41/22 19/42/19
f 23/43/23 24/44/24 25/45/25
f 24/46/24 26/47/26 25/48/25
f 27/49/27 28/50/28 29/51/29
f 28/52/28 30/53/30 29/54/29
f 31/55/31 32/56/32 33/57/33
f 32/58/32 34/59/34 33/60/33
f 35/61/35 36/62/36 37/63/37
f 36/64/36 38/65/38 37/66/37
f 39/67/39 40/68/40 41/69/41
f 40/70/40 42/71/42 41/72/41
