# Exported by Lightwave Blender addon
v 428.09088134765625 -266.4205322265625 1155.832763671875
v 428.09088134765625 -266.4205322265625 1114.4942626953125
v 513.3524169921875 -299.5575256347656 1155.832763671875
v 513.3524169921875 -299.5575256347656 1114.4942626953125
vt 0.0013761520385742188 0.2392578125
vt 0.0013761520385742188 0.00732421875
vt 0.57177734375 0.2392578125
vt 0.0013761520385742188 0.00732421875
vt 0.57177734375 0.00732421875
vt 0.57177734375 0.2392578125
vn -0.36225375533103943 -0.9320794343948364 0.0
vn -0.36225375533103943 -0.9320794939994812 0.0
vn -0.36225375533103943 -0.9320794939994812 0.0
vn -0.36225375533103943 -0.9320794343948364 0.0
f 1/1/1 2/2/2 3/3/3
f 2/4/2 4/5/4 3/6/3
