# Exported by Lightwave Blender addon
v 709.8056640625 -376.2628173828125 498.3572998046875
v 709.7520141601562 -376.241943359375 548.8948974609375
v 709.1821899414062 -377.73291015625 498.3572998046875
v 709.1709594726562 -377.67791748046875 548.8728637695312
v 708.9103393554688 -377.89349365234375 548.8687133789062
v 708.9171752929688 -377.9464416503906 498.3572692871094
v 707.9779052734375 -377.5814208984375 498.3572692871094
v 708.0186767578125 -377.54693603515625 548.8687133789062
v 707.9721069335938 -377.21197509765625 548.8728637695312
v 707.9266357421875 -377.24493408203125 498.3572998046875
v 708.45947265625 -375.7396240234375 498.3572998046875
v 708.51318359375 -375.7604675292969 548.8948974609375
v 796.3583374023438 -409.8997802734375 498.35723876953125
v 796.3046875 -409.8789367675781 548.8948364257812
v 795.7349243164062 -411.369873046875 498.3572692871094
v 795.7236328125 -411.31488037109375 548.872802734375
v 795.463134765625 -411.53045654296875 548.86865234375
v 795.4699096679688 -411.58343505859375 498.35723876953125
v 794.5305786132812 -411.2184143066406 498.35723876953125
v 794.5714111328125 -411.1839294433594 548.86865234375
v 794.5247802734375 -410.8489685058594 548.872802734375
v 794.4793090820312 -410.8819580078125 498.3572692871094
v 795.01220703125 -409.37664794921875 498.35723876953125
v 795.06591796875 -409.3974914550781 548.8948364257812
v 700.9644775390625 -371.9959716796875 539.9951171875
v 803.755859375 -411.94378662109375 539.9949951171875
v 699.749755859375 -375.121826171875 540.0186157226562
v 802.541015625 -415.06964111328125 540.0185546875
v 802.4348754882812 -415.34295654296875 540.23388671875
v 699.6434936523438 -375.3951721191406 540.2339477539062
v 699.6434936523438 -375.3951721191406 541.335205078125
v 802.434814453125 -415.34295654296875 541.335205078125
v 802.5410766601562 -415.06964111328125 541.5505981445312
v 699.7496948242188 -375.121826171875 541.5506591796875
v 700.9645385742188 -371.9959716796875 541.5741577148438
v 803.755859375 -411.94378662109375 541.5740966796875
v 700.9645385742188 -371.9959716796875 497.10107421875
v 803.755859375 -411.94378662109375 497.10101318359375
v 699.7496948242188 -375.121826171875 497.1246032714844
v 802.5410766601562 -415.06964111328125 497.1245422363281
v 802.4348754882812 -415.34295654296875 497.3399353027344
v 699.6434936523438 -375.3951416015625 497.34002685546875
v 699.6434326171875 -375.3951416015625 498.44122314453125
v 802.434814453125 -415.34295654296875 498.4411926269531
v 802.5411376953125 -415.06964111328125 498.6565856933594
v 699.7496948242188 -375.121826171875 498.6566467285156
v 700.9644775390625 -371.9959716796875 498.6801452636719
v 803.755859375 -411.94378662109375 498.68011474609375
v 700.0777587890625 -371.2769470214844 548.2037963867188
v 700.0777587890625 -371.2768859863281 548.7239379882812
v 805.179443359375 -412.09393310546875 548.7238159179688
v 805.179443359375 -412.09393310546875 548.2037353515625
v 805.064453125 -412.391845703125 548.025146484375
v 699.9658203125 -371.5759582519531 548.0252075195312
v 698.980224609375 -374.2087097167969 548.025146484375
v 804.0708618164062 -414.9648132324219 548.025146484375
v 803.955810546875 -415.26275634765625 548.2037353515625
v 698.8682861328125 -374.50775146484375 548.2037963867188
v 698.8682861328125 -374.50775146484375 548.7239379882812
v 803.955810546875 -415.26275634765625 548.723876953125
vt 0.96044921875 0.53076171875
vt 0.6474609375 0.5302734375
vt 0.96044921875 0.525390625
vt 0.6474609375 0.5302734375
vt 0.6474609375 0.525146484375
vt 0.96044921875 0.525390625
vt 0.96044921875 0.525390625
vt 0.6474609375 0.525146484375
vt 0.6474609375 0.523681640625
vt 0.96044921875 0.52392578125
vt 0.96044921875 0.525390625
vt 0.6474609375 0.523681640625
vt 0.96044921875 0.52392578125
vt 0.6474609375 0.523681640625
vt 0.96044921875 0.517822265625
vt 0.6474609375 0.523681640625
vt 0.6474609375 0.517822265625
vt 0.96044921875 0.517822265625
vt 0.6474609375 0.517822265625
vt 0.6474609375 0.5166015625
vt 0.96044921875 0.517822265625
vt 0.6474609375 0.5166015625
vt 0.96044921875 0.516357421875
vt 0.96044921875 0.517822265625
vt 0.96044921875 0.510986328125
vt 0.96044921875 0.516357421875
vt 0.6474609375 0.5166015625
vt 0.6474609375 0.51123046875
vt 0.96044921875 0.510986328125
vt 0.6474609375 0.5166015625
vt 0.96044921875 0.41748046875
vt 0.6474609375 0.4169921875
vt 0.96044921875 0.412109375
vt 0.6474609375 0.4169921875
vt 0.6474609375 0.41162109375
vt 0.96044921875 0.412109375
vt 0.96044921875 0.412109375
vt 0.6474609375 0.41162109375
vt 0.6474609375 0.41015625
vt 0.96044921875 0.41064453125
vt 0.96044921875 0.412109375
vt 0.6474609375 0.41015625
vt 0.96044921875 0.41064453125
vt 0.6474609375 0.41015625
vt 0.96044921875 0.404296875
vt 0.6474609375 0.41015625
vt 0.6474609375 0.404296875
vt 0.96044921875 0.404296875
vt 0.6474609375 0.404296875
vt 0.6474609375 0.40283203125
vt 0.96044921875 0.404296875
vt 0.6474609375 0.40283203125
vt 0.96044921875 0.40283203125
vt 0.96044921875 0.404296875
vt 0.96044921875 0.3974609375
vt 0.96044921875 0.40283203125
vt 0.6474609375 0.40283203125
vt 0.6474609375 0.39794921875
vt 0.96044921875 0.3974609375
vt 0.6474609375 0.40283203125
vt 1.3857421875 0.06787109375
vt 2.08984375 0.06787109375
vt 1.3857421875 0.07958984375
vt 2.08984375 0.06787109375
vt 2.08984375 0.07958984375
vt 1.3857421875 0.07958984375
vt 1.3857421875 0.07958984375
vt 2.08984375 0.07958984375
vt 2.08984375 0.08154296875
vt 1.3857421875 0.08154296875
vt 1.3857421875 0.07958984375
vt 2.08984375 0.08154296875
vt 1.3857421875 0.08154296875
vt 2.08984375 0.08154296875
vt 1.3857421875 0.08837890625
vt 2.08984375 0.08154296875
vt 2.08984375 0.08837890625
vt 1.3857421875 0.08837890625
vt 2.08984375 0.08837890625
vt 2.08984375 0.08984375
vt 1.3857421875 0.08837890625
vt 2.08984375 0.08984375
vt 1.3857421875 0.08984375
vt 1.3857421875 0.08837890625
vt 1.3857421875 0.1015625
vt 1.3857421875 0.08984375
vt 2.08984375 0.08984375
vt 2.08984375 0.1015625
vt 1.3857421875 0.1015625
vt 2.08984375 0.08984375
vt 2.0859375 0.27880859375
vt 1.3837890625 0.27880859375
vt 2.0859375 0.26708984375
vt 1.3837890625 0.27880859375
vt 1.3837890625 0.26708984375
vt 2.0859375 0.26708984375
vt 2.0859375 0.26708984375
vt 1.3837890625 0.26708984375
vt 1.3837890625 0.26513671875
vt 2.0859375 0.26513671875
vt 2.0859375 0.26708984375
vt 1.3837890625 0.26513671875
vt 2.0859375 0.26513671875
vt 1.3837890625 0.26513671875
vt 2.0859375 0.25830078125
vt 1.3837890625 0.26513671875
vt 1.3837890625 0.25830078125
vt 2.0859375 0.25830078125
vt 1.3837890625 0.25830078125
vt 1.3837890625 0.2568359375
vt 2.0859375 0.25830078125
vt 1.3837890625 0.2568359375
vt 2.0859375 0.2568359375
vt 2.0859375 0.25830078125
vt 2.0859375 0.2451171875
vt 2.0859375 0.2568359375
vt 1.3837890625 0.2568359375
vt 1.3837890625 0.2451171875
vt 2.0859375 0.2451171875
vt 1.3837890625 0.2568359375
vt 0.2203369140625 0.26953125
vt 0.2203369140625 0.26611328125
vt 0.9130859375 0.26611328125
vt 0.9130859375 0.26904296875
vt 0.2203369140625 0.26953125
vt 0.9130859375 0.26611328125
vt 0.2203369140625 0.26953125
vt 0.9130859375 0.26904296875
vt 0.9130859375 0.27099609375
vt 0.2203369140625 0.27099609375
vt 0.2203369140625 0.26953125
vt 0.9130859375 0.27099609375
vt 0.2203369140625 0.27099609375
vt 0.9130859375 0.27099609375
vt 0.2205810546875 0.2802734375
vt 0.9130859375 0.27099609375
vt 0.9130859375 0.27978515625
vt 0.2205810546875 0.2802734375
vt 0.9130859375 0.27978515625
vt 0.9130859375 0.28173828125
vt 0.2205810546875 0.2802734375
vt 0.9130859375 0.28173828125
vt 0.2205810546875 0.28173828125
vt 0.2205810546875 0.2802734375
vt 0.2205810546875 0.28173828125
vt 0.9130859375 0.28173828125
vt 0.2205810546875 0.28466796875
vt 0.9130859375 0.28173828125
vt 0.9130859375 0.28466796875
vt 0.2205810546875 0.28466796875
vn 0.9206265807151794 -0.3904426097869873 0.001138590625487268
vn 0.9268558025360107 -0.37541699409484863 0.000625068205408752
vn 0.7980334162712097 -0.602612316608429 0.0010463431244716048
vn 0.808103084564209 -0.5890404582023621 0.0008209013030864298
vn 0.16173790395259857 -0.9868332147598267 0.001106917392462492
vn 0.15315407514572144 -0.9882017374038696 0.0010565973352640867
vn -0.780288577079773 -0.6254187226295471 0.00110664835665375
vn -0.7857825756072998 -0.6185020208358765 0.001056522480212152
vn -0.9938042163848877 0.11113967001438141 0.0010446796659380198
vn -0.9955489635467529 0.09424131363630295 0.0008346477407030761
vn -0.9425768852233887 0.3339886963367462 0.0006407722248695791
vn -0.9370197653770447 0.3492743670940399 0.0011399100767448545
vn 0.9206403493881226 -0.39041024446487427 0.0011383561650291085
vn 0.9268532991409302 -0.3754231035709381 0.0006261689704842865
vn 0.7980656027793884 -0.6025696396827698 0.001046065823175013
vn 0.8081681132316589 -0.5889512300491333 0.0008217954891733825
vn 0.161880761384964 -0.9868097305297852 0.0011075931834056973
vn 0.1531989872455597 -0.9881948232650757 0.0010570087470114231
vn -0.7802756428718567 -0.6254348158836365 0.0011072919005528092
vn -0.7857104539871216 -0.6185935139656067 0.0010574768530204892
vn -0.9938114285469055 0.11107523739337921 0.001045368262566626
vn -0.9955477714538574 0.09425397217273712 0.0008345819660462439
vn -0.9425647854804993 0.3340228796005249 0.0006405427702702582
vn -0.937004566192627 0.34931543469429016 0.0011399108916521072
vn -0.0025391611270606518 -0.006530565209686756 -0.9999753832817078
vn -0.0025450882967561483 -0.006547307129949331 -0.9999753832817078
vn -0.11400763690471649 -0.2933557629585266 -0.9491810202598572
vn -0.11403703689575195 -0.2934316396713257 -0.9491541385650635
vn -0.32317930459976196 -0.831585168838501 -0.45168718695640564
vn -0.3231688439846039 -0.8315591812133789 -0.4517424404621124
vn -0.3231900930404663 -0.8316149115562439 0.45162463188171387
vn -0.32318153977394104 -0.8315919637680054 0.4516730308532715
vn -0.11403318494558334 -0.2934243977069855 0.9491567611694336
vn -0.11405619978904724 -0.2934841811656952 0.9491354823112488
vn -0.00253757881000638 -0.006531077437102795 0.9999755024909973
vn -0.002537595108151436 -0.006531115621328354 0.9999755024909973
vn -0.002541909459978342 -0.00653916085138917 -0.9999754428863525
vn -0.0025419231969863176 -0.006539199501276016 -0.9999754428863525
vn -0.11405602842569351 -0.2934805154800415 -0.9491366147994995
vn -0.11404744535684586 -0.2934587895870209 -0.9491443037986755
vn -0.3231827914714813 -0.8315943479537964 -0.45166775584220886
vn -0.3231889307498932 -0.8316097855567932 -0.45163485407829285
vn -0.3231898844242096 -0.8316141963005066 0.451626181602478
vn -0.32317444682121277 -0.8315738439559937 0.4517114758491516
vn -0.11402306705713272 -0.2933982014656067 0.9491660594940186
vn -0.11405234783887863 -0.293474406003952 0.9491390585899353
vn -0.0025376630946993828 -0.006531283259391785 0.9999754428863525
vn -0.002541165566071868 -0.006539543159306049 0.9999753832817078
vn 0.3126363158226013 0.8050222396850586 -0.5041801333427429
vn 0.36201608180999756 0.9321718215942383 -0.00010938415653072298
vn 0.36201560497283936 0.9321720600128174 -3.2068899713522114e-07
vn 0.31220772862434387 0.8039199709892273 -0.5062005519866943
vn 0.09119437634944916 0.23482167720794678 -0.967751145362854
vn 0.09198975563049316 0.2368699014186859 -0.9671765565872192
vn -0.09058711677789688 -0.2335790991783142 -0.9681088924407959
vn -0.09125927835702896 -0.23531430959701538 -0.9676253795623779
vn -0.31193023920059204 -0.8043185472488403 -0.5057383179664612
vn -0.31156349182128906 -0.8033714294433594 -0.5074667930603027
vn -0.36158013343811035 -0.9323410391807556 0.0
vn -0.36158016324043274 -0.9323409795761108 0.0
f 1/1/1 2/2/2 3/3/3
f 2/4/2 4/5/4 3/6/3
f 3/7/3 4/8/4 5/9/5
f 6/10/6 3/11/3 5/12/5
f 6/13/6 5/14/5 7/15/7
f 5/16/5 8/17/8 7/18/7
f 8/19/8 9/20/9 7/21/7
f 9/22/9 10/23/10 7/24/7
f 11/25/11 10/26/10 9/27/9
f 12/28/12 11/29/11 9/30/9
f 13/31/13 14/32/14 15/33/15
f 14/34/14 16/35/16 15/36/15
f 15/37/15 16/38/16 17/39/17
f 18/40/18 15/41/15 17/42/17
f 18/43/18 17/44/17 19/45/19
f 17/46/17 20/47/20 19/48/19
f 20/49/20 21/50/21 19/51/19
f 21/52/21 22/53/22 19/54/19
f 23/55/23 22/56/22 21/57/21
f 24/58/24 23/59/23 21/60/21
f 25/61/25 26/62/26 27/63/27
f 26/64/26 28/65/28 27/66/27
f 27/67/27 28/68/28 29/69/29
f 30/70/30 27/71/27 29/72/29
f 30/73/30 29/74/29 31/75/31
f 29/76/29 32/77/32 31/78/31
f 32/79/32 33/80/33 31/81/31
f 33/82/33 34/83/34 31/84/31
f 35/85/35 34/86/34 33/87/33
f 36/88/36 35/89/35 33/90/33
f 37/91/37 38/92/38 39/93/39
f 38/94/38 40/95/40 39/96/39
f 39/97/39 40/98/40 41/99/41
f 42/100/42 39/101/39 41/102/41
f 42/103/42 41/104/41 43/105/43
f 41/106/41 44/107/44 43/108/43
f 44/109/44 45/110/45 43/111/43
f 45/112/45 46/113/46 43/114/43
f 47/115/47 46/116/46 45/117/45
f 48/118/48 47/119/47 45/120/45
f 49/121/49 50/122/50 51/123/51
f 52/124/52 49/125/49 51/126/51
f 49/127/49 52/128/52 53/129/53
f 54/130/54 49/131/49 53/132/53
f 54/133/54 53/134/53 55/135/55
f 53/136/53 56/137/56 55/138/55
f 56/139/56 57/140/57 55/141/55
f 57/142/57 58/143/58 55/144/55
f 58/145/58 57/146/57 59/147/59
f 57/148/57 60/149/60 59/150/59
