# Exported by Lightwave Blender addon
v 64.38787841796875 661.2872314453125 1106.056640625
v 64.38787841796875 661.2872314453125 1112.9765625
v 34.54365539550781 677.5272827148438 1106.056640625
v 34.54365539550781 677.52734375 1112.9765625
v 34.231231689453125 678.5853881835938 1112.9765625
v 34.231231689453125 678.5853881835938 1106.056640625
v 108.78742980957031 815.3661499023438 1106.0567626953125
v 108.78741455078125 815.3661499023438 1112.9766845703125
v 109.84529113769531 815.6785278320312 1112.9766845703125
v 109.84529113769531 815.6785278320312 1106.0567626953125
v 139.57017517089844 799.5028686523438 1106.056640625
v 139.57017517089844 799.5028686523438 1112.9765625
v 139.19931030273438 798.8172607421875 1105.276611328125
v 109.47257995605469 814.9932861328125 1105.276611328125
v 64.76060485839844 661.9724731445312 1105.276611328125
v 34.9163818359375 678.2124633789062 1105.2764892578125
v 64.76060485839844 661.9724731445312 1113.756591796875
v 34.9163818359375 678.2124633789062 1113.756591796875
v 109.47256469726562 814.9932861328125 1113.7567138671875
v 139.19931030273438 798.8172607421875 1113.756591796875
vt 0.0019989013671875 0.678466796875
vt 0.0019989013671875 0.64794921875
vt 0.15185546875 0.678466796875
vt 0.0019989013671875 0.64794921875
vt 0.15185546875 0.64794921875
vt 0.15185546875 0.678466796875
vt 0.15185546875 0.64794921875
vt 0.1566162109375 0.64794921875
vt 0.15185546875 0.678466796875
vt 0.1566162109375 0.64794921875
vt 0.1566162109375 0.678466796875
vt 0.15185546875 0.678466796875
vt 0.1566162109375 0.678466796875
vt 0.1566162109375 0.64794921875
vt 0.84375 0.678466796875
vt 0.1566162109375 0.64794921875
vt 0.84375 0.64794921875
vt 0.84375 0.678466796875
vt 0.84375 0.678466796875
vt 0.84375 0.64794921875
vt 0.8486328125 0.64794921875
vt 0.8486328125 0.678466796875
vt 0.84375 0.678466796875
vt 0.8486328125 0.64794921875
vt 0.99755859375 0.678466796875
vt 0.8486328125 0.678466796875
vt 0.8486328125 0.64794921875
vt 0.99755859375 0.64794921875
vt 0.99755859375 0.678466796875
vt 0.8486328125 0.64794921875
vt 0.69970703125 0.32470703125
vt 0.6953125 0.32470703125
vt 0.69970703125 0.1748046875
vt 0.6953125 0.32470703125
vt 0.6953125 0.17529296875
vt 0.69970703125 0.1748046875
vt 0.6953125 0.1708984375
vt 0.69970703125 0.1748046875
vt 0.6953125 0.17529296875
vt 0.6953125 0.32470703125
vt 0.006671905517578125 0.32470703125
vt 0.6953125 0.17529296875
vt 0.6953125 0.1708984375
vt 0.6953125 0.17529296875
vt 0.006671905517578125 0.169921875
vt 0.006671905517578125 0.32470703125
vt 0.006671905517578125 0.1748046875
vt 0.6953125 0.17529296875
vt 0.6953125 0.17529296875
vt 0.006671905517578125 0.1748046875
vt 0.006671905517578125 0.169921875
vt 0.006671905517578125 0.1748046875
vt 0.006671905517578125 0.32470703125
vt 0.0022525787353515625 0.32470703125
vt 0.0022525787353515625 0.17431640625
vt 0.006671905517578125 0.169921875
vt 0.006671905517578125 0.1748046875
vt 0.0022525787353515625 0.17431640625
vt 0.006671905517578125 0.1748046875
vt 0.0022525787353515625 0.32470703125
vt 0.0022525787353515625 0.00244140625
vt 0.006671905517578125 0.00244140625
vt 0.0022525787353515625 0.15283203125
vt 0.006671905517578125 0.00244140625
vt 0.006671905517578125 0.15234375
vt 0.0022525787353515625 0.15283203125
vt 0.006671905517578125 0.15234375
vt 0.006671905517578125 0.15673828125
vt 0.0022525787353515625 0.15283203125
vt 0.006671905517578125 0.15673828125
vt 0.006671905517578125 0.15234375
vt 0.6953125 0.1572265625
vt 0.006671905517578125 0.15234375
vt 0.006671905517578125 0.00244140625
vt 0.6953125 0.15234375
vt 0.006671905517578125 0.15234375
vt 0.6953125 0.15234375
vt 0.6953125 0.1572265625
vt 0.006671905517578125 0.00244140625
vt 0.6953125 0.0029296875
vt 0.6953125 0.15234375
vt 0.6953125 0.15234375
vt 0.69970703125 0.1533203125
vt 0.6953125 0.1572265625
vt 0.6953125 0.15234375
vt 0.6953125 0.0029296875
vt 0.69970703125 0.0029296875
vt 0.69970703125 0.1533203125
vt 0.6953125 0.15234375
vt 0.69970703125 0.0029296875
vn -0.4415917992591858 -0.8115140795707703 -0.3826768398284912
vn -0.4415934979915619 -0.8115116357803345 0.38268011808395386
vn -0.7185367345809937 -0.605850100517273 -0.3415415287017822
vn -0.7185261845588684 -0.6058487296104431 0.3415663540363312
vn -0.9323158860206604 0.11876722425222397 0.3415865898132324
vn -0.9323263168334961 0.11877193301916122 -0.3415563404560089
vn -0.6055996417999268 0.7187396287918091 -0.3415588140487671
vn -0.6055898666381836 0.718732476234436 0.3415910303592682
vn 0.11842918395996094 0.9323537945747375 0.34160056710243225
vn 0.11842778325080872 0.9323675036430359 -0.34156373143196106
vn 0.44159069657325745 0.8114833831787109 -0.38274312019348145
vn 0.44158756732940674 0.8114849328994751 0.3827435374259949
vn 0.18288280069828033 0.3360741138458252 -0.9239091277122498
vn -0.1366327852010727 0.46339043974876404 -0.8755574822425842
vn -0.1829255223274231 -0.3361685276031494 -0.9238662123680115
vn -0.4633844792842865 -0.13664273917675018 -0.8755589723587036
vn -0.1829308420419693 -0.3361700177192688 0.9238647222518921
vn -0.46335163712501526 -0.13664200901985168 0.8755765557289124
vn -0.1366148740053177 0.4633539021015167 0.8755794763565063
vn 0.18288163840770721 0.3360753059387207 0.9239088892936707
f 1/1/1 2/2/2 3/3/3
f 2/4/2 4/5/4 3/6/3
f 4/7/4 5/8/5 3/9/3
f 5/10/5 6/11/6 3/12/3
f 6/13/6 5/14/5 7/15/7
f 5/16/5 8/17/8 7/18/7
f 7/19/7 8/20/8 9/21/9
f 10/22/10 7/23/7 9/24/9
f 11/25/11 10/26/10 9/27/9
f 12/28/12 11/29/11 9/30/9
f 11/31/11 13/32/13 10/33/10
f 13/34/13 14/35/14 10/36/10
f 7/37/7 10/38/10 14/39/14
f 13/40/13 15/41/15 14/42/14
f 7/43/7 14/44/14 6/45/6
f 15/46/15 16/47/16 14/48/14
f 14/49/14 16/50/16 6/51/6
f 16/52/16 15/53/15 1/54/1
f 3/55/3 6/56/6 16/57/16
f 3/58/3 16/59/16 1/60/1
f 2/61/2 17/62/17 4/63/4
f 17/64/17 18/65/18 4/66/4
f 18/67/18 5/68/5 4/69/4
f 5/70/5 18/71/18 8/72/8
f 18/73/18 17/74/17 19/75/19
f 18/76/18 19/77/19 8/78/8
f 17/79/17 20/80/20 19/81/19
f 19/82/19 9/83/9 8/84/8
f 19/85/19 20/86/20 12/87/12
f 9/88/9 19/89/19 12/90/12
