# Exported by Lightwave Blender addon
v -169.5185089111328 -1392.3829345703125 853.81787109375
v -169.51844787597656 -1392.3829345703125 1014.1498413085938
v -154.7126007080078 -1398.271240234375 853.81591796875
v -154.7125701904297 -1398.2713623046875 1014.150634765625
v -191.46153259277344 -1409.5477294921875 853.8179931640625
v -191.46168518066406 -1409.5482177734375 1014.1497192382812
v -187.57080078125 -1400.0328369140625 853.8179931640625
v -187.57093811035156 -1400.033203125 1014.1497802734375
v -190.91688537597656 -1410.85791015625 853.81787109375
v -164.37779235839844 -1421.913330078125 853.8158569335938
v -190.91705322265625 -1410.8582763671875 1014.1497802734375
v -164.37794494628906 -1421.9136962890625 1014.150634765625
v -171.33409118652344 -1392.4761962890625 853.8177490234375
v -178.2528533935547 -1396.089111328125 853.81591796875
v -171.33409118652344 -1392.4761962890625 1014.1498413085938
v -178.2528839111328 -1396.0894775390625 1014.150634765625
v -186.2449951171875 -1398.7877197265625 1014.1498413085938
v -186.24488830566406 -1398.787353515625 853.8177490234375
v -138.3352508544922 -1316.123046875 853.81787109375
v -123.64555358886719 -1322.29541015625 853.81591796875
v -138.33522033691406 -1316.123046875 1014.14990234375
v -123.64553833007812 -1322.2955322265625 1014.1506958007812
v -141.9647979736328 -1288.50146484375 853.8179931640625
v -145.85546875 -1298.01611328125 853.8179931640625
v -141.964599609375 -1288.5009765625 1014.1497802734375
v -145.8553009033203 -1298.0157470703125 1014.1498413085938
v -140.6582489013672 -1287.9482421875 853.81787109375
v -140.65805053710938 -1287.94775390625 1014.1498413085938
v -113.97662353515625 -1298.655029296875 853.81591796875
v -113.97640991210938 -1298.6546630859375 1014.1506958007812
v -139.56529235839844 -1314.7841796875 853.8177490234375
v -139.5652618408203 -1314.7841796875 1014.14990234375
v -141.97035217285156 -1307.3587646484375 853.81591796875
v -141.97019958496094 -1307.358642578125 1014.1506958007812
v -145.7819061279297 -1299.83349609375 1014.14990234375
v -145.78207397460938 -1299.8338623046875 853.8177490234375
v -177.3617401123047 -1396.54296875 852.8156127929688
v -186.27061462402344 -1399.4952392578125 852.8176879882812
v -177.36183166503906 -1396.543212890625 1015.1507568359375
v -170.3911895751953 -1393.1119384765625 1015.1500854492188
v -186.27076721191406 -1399.49560546875 1015.14990234375
v -163.99920654296875 -1420.98828125 1015.1508178710938
v -190.53854370117188 -1409.9327392578125 1015.1499633789062
v -170.39122009277344 -1393.112060546875 852.8172607421875
v -190.53839111328125 -1409.9322509765625 852.8175048828125
v -163.99903869628906 -1420.98779296875 852.8153076171875
v -114.35484313964844 -1299.580810546875 852.8153686523438
v -141.03672790527344 -1288.8739013671875 852.8175048828125
v -141.03651428222656 -1288.8734130859375 1015.1500244140625
v -114.35462951660156 -1299.5804443359375 1015.15087890625
v -141.0165557861328 -1307.6593017578125 852.8156127929688
v -138.4470977783203 -1314.9913330078125 852.8172607421875
v -138.4470672607422 -1314.9912109375 1015.150146484375
v -141.0164337158203 -1307.6590576171875 1015.1508178710938
v -145.30435180664062 -1299.3104248046875 1015.1499633789062
v -145.30453491210938 -1299.310791015625 852.8176879882812
v -159.76841735839844 -1410.650146484375 1015.1532592773438
v -158.03184509277344 -1406.388916015625 1015.1532592773438
v -155.091064453125 -1399.197021484375 1015.1509399414062
v -155.09107971191406 -1399.1968994140625 852.815185546875
v -158.0318145751953 -1406.388427734375 852.8096923828125
v -159.76817321777344 -1410.6494140625 852.8096923828125
v -123.26704406738281 -1321.3699951171875 1015.1510009765625
v -120.32625579833984 -1314.1781005859375 1015.1533203125
v -118.5794677734375 -1309.9207763671875 1015.1533203125
v -118.57976531982422 -1309.9215087890625 852.8096923828125
v -120.32637023925781 -1314.17822265625 852.8096923828125
v -123.2670669555664 -1321.369873046875 852.815185546875
vt 0.50341796875 -0.5869140625
vt 0.50341796875 0.21484375
vt 0.423828125 -0.5869140625
vt 0.50341796875 0.21484375
vt 0.423828125 0.21484375
vt 0.423828125 -0.5869140625
vt 0.50927734375 -0.5869140625
vt 0.50927734375 0.21484375
vt 0.458251953125 -0.5869140625
vt 0.50927734375 0.21484375
vt 0.458251953125 0.21484375
vt 0.458251953125 -0.5869140625
vt 0.43212890625 -0.5869140625
vt 0.57568359375 -0.5869140625
vt 0.43212890625 0.21484375
vt 0.57568359375 -0.5869140625
vt 0.57568359375 0.21484375
vt 0.43212890625 0.21484375
vt 0.392578125 -0.5869140625
vt 0.42236328125 -0.5869140625
vt 0.392578125 0.21484375
vt 0.42236328125 -0.5869140625
vt 0.42236328125 0.21484375
vt 0.392578125 0.21484375
vt 0.56884765625 0.21484375
vt 0.537109375 0.21484375
vt 0.56884765625 -0.5869140625
vt 0.537109375 0.21484375
vt 0.537109375 -0.5869140625
vt 0.56884765625 -0.5869140625
vt 0.49609375 -0.5869140625
vt 0.57568359375 -0.5869140625
vt 0.49609375 0.21484375
vt 0.57568359375 -0.5869140625
vt 0.57568359375 0.21484375
vt 0.49609375 0.21484375
vt -0.14404296875 -0.5869140625
vt -0.09271240234375 -0.5869140625
vt -0.14404296875 0.21484375
vt -0.09271240234375 -0.5869140625
vt -0.09271240234375 0.21484375
vt -0.14404296875 0.21484375
vt 0.5673828125 -0.5869140625
vt 0.5673828125 0.21484375
vt 0.423828125 -0.5869140625
vt 0.5673828125 0.21484375
vt 0.423828125 0.21484375
vt 0.423828125 -0.5869140625
vt -0.0270233154296875 -0.5869140625
vt -0.0270233154296875 0.21484375
vt -0.05682373046875 -0.5869140625
vt -0.0270233154296875 0.21484375
vt -0.05682373046875 0.21484375
vt -0.05682373046875 -0.5869140625
vt 0.430908203125 0.21484375
vt 0.430908203125 -0.5869140625
vt 0.462646484375 0.21484375
vt 0.430908203125 -0.5869140625
vt 0.462646484375 -0.5869140625
vt 0.462646484375 0.21484375
vt 0.537109375 -0.5869140625
vt 0.53173828125 -0.591796875
vt 0.56884765625 -0.5869140625
vt 0.53173828125 -0.591796875
vt 0.5673828125 -0.591796875
vt 0.56884765625 -0.5869140625
vt 0.42236328125 0.462890625
vt 0.4228515625 0.46826171875
vt 0.392578125 0.48828125
vt 0.4228515625 0.46826171875
vt 0.393798828125 0.49365234375
vt 0.392578125 0.48828125
vt 0.56884765625 0.21484375
vt 0.5673828125 0.2197265625
vt 0.537109375 0.21484375
vt 0.5673828125 0.2197265625
vt 0.53173828125 0.2197265625
vt 0.537109375 0.21484375
vt 0.57568359375 0.21484375
vt 0.57568359375 0.2197265625
vt 0.43212890625 0.21484375
vt 0.57568359375 0.2197265625
vt 0.43212890625 0.2197265625
vt 0.43212890625 0.21484375
vt 0.60693359375 0.48828125
vt 0.60595703125 0.49365234375
vt 0.5771484375 0.462890625
vt 0.60595703125 0.49365234375
vt 0.57666015625 0.46826171875
vt 0.5771484375 0.462890625
vt 0.43212890625 -0.5869140625
vt 0.43212890625 -0.591796875
vt 0.57568359375 -0.5869140625
vt 0.43212890625 -0.591796875
vt 0.57568359375 -0.591796875
vt 0.57568359375 -0.5869140625
vt 0.423828125 -0.5869140625
vt 0.423828125 -0.591796875
vt 0.5673828125 -0.5869140625
vt 0.423828125 -0.591796875
vt 0.5673828125 -0.591796875
vt 0.5673828125 -0.5869140625
vt 0.5673828125 0.21484375
vt 0.5673828125 0.2197265625
vt 0.423828125 0.21484375
vt 0.5673828125 0.2197265625
vt 0.423828125 0.2197265625
vt 0.423828125 0.21484375
vt 1.056640625 0.462890625
vt 1.056640625 0.46826171875
vt 1.0263671875 0.48828125
vt 1.056640625 0.46826171875
vt 1.02734375 0.49365234375
vt 1.0263671875 0.48828125
vt -0.0270233154296875 0.48828125
vt -0.0281829833984375 0.49365234375
vt -0.05682373046875 0.462890625
vt -0.0281829833984375 0.49365234375
vt -0.0572509765625 0.46826171875
vt -0.05682373046875 0.462890625
vt 0.462646484375 0.21484375
vt 0.4677734375 0.2197265625
vt 0.430908203125 0.21484375
vt 0.4677734375 0.2197265625
vt 0.43212890625 0.2197265625
vt 0.430908203125 0.21484375
vt 0.430908203125 -0.5869140625
vt 0.43212890625 -0.591796875
vt 0.462646484375 -0.5869140625
vt 0.43212890625 -0.591796875
vt 0.4677734375 -0.591796875
vt 0.462646484375 -0.5869140625
vt 0.509765625 0.4326171875
vt 0.51025390625 0.576171875
vt 0.454833984375 0.576171875
vt 0.453369140625 0.4326171875
vt 0.509765625 0.4326171875
vt 0.454833984375 0.576171875
vt 0.453369140625 0.4326171875
vt 0.454833984375 0.576171875
vt 0.431640625 0.576171875
vt 0.4228515625 0.46826171875
vt 0.453369140625 0.4326171875
vt 0.431640625 0.576171875
vt 0.4228515625 0.46826171875
vt 0.431640625 0.576171875
vt 0.392822265625 0.576171875
vt 0.393798828125 0.49365234375
vt 0.4228515625 0.46826171875
vt 0.392822265625 0.576171875
vt 0.60595703125 0.49365234375
vt 0.60693359375 0.576171875
vt 0.57666015625 0.46826171875
vt 0.60693359375 0.576171875
vt 0.56787109375 0.576171875
vt 0.57666015625 0.46826171875
vt 0.57666015625 0.46826171875
vt 0.56787109375 0.576171875
vt 0.54638671875 0.4326171875
vt 0.56787109375 0.576171875
vt 0.544921875 0.576171875
vt 0.54638671875 0.4326171875
vt 0.54638671875 0.4326171875
vt 0.544921875 0.576171875
vt 0.489990234375 0.4326171875
vt 0.544921875 0.576171875
vt 0.4892578125 0.576171875
vt 0.489990234375 0.4326171875
vt -0.0281829833984375 0.49365234375
vt -0.0273895263671875 0.576171875
vt -0.0572509765625 0.46826171875
vt -0.0273895263671875 0.576171875
vt -0.06622314453125 0.576171875
vt -0.0572509765625 0.46826171875
vt -0.0572509765625 0.46826171875
vt -0.06622314453125 0.576171875
vt -0.0877685546875 0.4326171875
vt -0.06622314453125 0.576171875
vt -0.0892333984375 0.576171875
vt -0.0877685546875 0.4326171875
vt -0.0877685546875 0.4326171875
vt -0.0892333984375 0.576171875
vt -0.14404296875 0.4326171875
vt -0.0892333984375 0.576171875
vt -0.14501953125 0.576171875
vt -0.14404296875 0.4326171875
vt 1.1435546875 0.4326171875
vt 1.14453125 0.576171875
vt 1.0888671875 0.576171875
vt 1.0869140625 0.4326171875
vt 1.1435546875 0.4326171875
vt 1.0888671875 0.576171875
vt 1.0869140625 0.4326171875
vt 1.0888671875 0.576171875
vt 1.0654296875 0.576171875
vt 1.056640625 0.46826171875
vt 1.0869140625 0.4326171875
vt 1.0654296875 0.576171875
vt 1.056640625 0.46826171875
vt 1.0654296875 0.576171875
vt 1.02734375 0.576171875
vt 1.02734375 0.49365234375
vt 1.056640625 0.46826171875
vt 1.02734375 0.576171875
vt 0.50634765625 0.2197265625
vt 0.423828125 0.2197265625
vt 0.423828125 0.21484375
vt 0.50341796875 0.21484375
vt 0.50634765625 0.2197265625
vt 0.423828125 0.21484375
vt 0.51171875 0.21484375
vt 0.50634765625 0.2197265625
vt 0.50341796875 0.21484375
vt 0.51171875 -0.5869140625
vt 0.51171875 0.21484375
vt 0.50341796875 0.21484375
vt 0.50341796875 -0.5869140625
vt 0.51171875 -0.5869140625
vt 0.50341796875 0.21484375
vt 0.50634765625 -0.591796875
vt 0.51171875 -0.5869140625
vt 0.50341796875 -0.5869140625
vt 0.423828125 -0.591796875
vt 0.50634765625 -0.591796875
vt 0.50341796875 -0.5869140625
vt 0.423828125 -0.5869140625
vt 0.423828125 -0.591796875
vt 0.50341796875 -0.5869140625
vt 0.493408203125 -0.591796875
vt 0.57568359375 -0.591796875
vt 0.57568359375 -0.5869140625
vt 0.49609375 -0.5869140625
vt 0.493408203125 -0.591796875
vt 0.57568359375 -0.5869140625
vt 0.488037109375 -0.5869140625
vt 0.493408203125 -0.591796875
vt 0.49609375 -0.5869140625
vt 0.488037109375 0.21484375
vt 0.488037109375 -0.5869140625
vt 0.49609375 -0.5869140625
vt 0.49609375 0.21484375
vt 0.488037109375 0.21484375
vt 0.49609375 -0.5869140625
vt 0.493408203125 0.2197265625
vt 0.488037109375 0.21484375
vt 0.49609375 0.21484375
vt 0.57568359375 0.2197265625
vt 0.493408203125 0.2197265625
vt 0.49609375 0.21484375
vt 0.57568359375 0.21484375
vt 0.57568359375 0.2197265625
vt 0.49609375 0.21484375
vt 0.50927734375 -0.5869140625
vt 0.509765625 -0.591796875
vt 0.5146484375 -0.5869140625
vt 0.453369140625 -0.591796875
vt 0.509765625 -0.591796875
vt 0.50927734375 -0.5869140625
vt 0.50927734375 -0.5869140625
vt 0.5146484375 -0.5869140625
vt 0.50927734375 0.21484375
vt 0.458251953125 -0.5869140625
vt 0.453369140625 -0.591796875
vt 0.50927734375 -0.5869140625
vt 0.5146484375 -0.5869140625
vt 0.5146484375 0.21484375
vt 0.50927734375 0.21484375
vt 0.458251953125 -0.5869140625
vt 0.449951171875 -0.5869140625
vt 0.453369140625 -0.591796875
vt 0.5146484375 0.21484375
vt 0.509765625 0.2197265625
vt 0.50927734375 0.21484375
vt 0.449951171875 0.21484375
vt 0.449951171875 -0.5869140625
vt 0.458251953125 -0.5869140625
vt 0.50927734375 0.21484375
vt 0.509765625 0.2197265625
vt 0.458251953125 0.21484375
vt 0.458251953125 0.21484375
vt 0.449951171875 0.21484375
vt 0.458251953125 -0.5869140625
vt 0.509765625 0.2197265625
vt 0.453369140625 0.2197265625
vt 0.458251953125 0.21484375
vt 0.453369140625 0.2197265625
vt 0.449951171875 0.21484375
vt 0.458251953125 0.21484375
vt -0.09271240234375 0.21484375
vt -0.08441162109375 0.21484375
vt -0.0877685546875 0.2197265625
vt -0.08441162109375 -0.5869140625
vt -0.08441162109375 0.21484375
vt -0.09271240234375 0.21484375
vt -0.09271240234375 0.21484375
vt -0.0877685546875 0.2197265625
vt -0.14404296875 0.21484375
vt -0.09271240234375 -0.5869140625
vt -0.08441162109375 -0.5869140625
vt -0.09271240234375 0.21484375
vt -0.0877685546875 0.2197265625
vt -0.14404296875 0.2197265625
vt -0.14404296875 0.21484375
vt -0.09271240234375 -0.5869140625
vt -0.0877685546875 -0.591796875
vt -0.08441162109375 -0.5869140625
vt -0.14404296875 0.2197265625
vt -0.1490478515625 0.21484375
vt -0.14404296875 0.21484375
vt -0.14404296875 -0.591796875
vt -0.0877685546875 -0.591796875
vt -0.09271240234375 -0.5869140625
vt -0.14404296875 0.21484375
vt -0.1490478515625 0.21484375
vt -0.14404296875 -0.5869140625
vt -0.14404296875 -0.5869140625
vt -0.14404296875 -0.591796875
vt -0.09271240234375 -0.5869140625
vt -0.1490478515625 0.21484375
vt -0.1490478515625 -0.5869140625
vt -0.14404296875 -0.5869140625
vt -0.1490478515625 -0.5869140625
vt -0.14404296875 -0.591796875
vt -0.14404296875 -0.5869140625
vn 0.17597603797912598 0.9221984148025513 -0.34435805678367615
vn 0.17599137127399445 0.9221675395965576 0.344433069229126
vn 0.3415229320526123 0.8588715195655823 -0.3817089796066284
vn 0.3415428400039673 0.8588247299194336 0.381796658039093
vn -0.9398098587989807 0.016964567825198174 -0.34127652645111084
vn -0.9397942423820496 0.016946110874414444 0.3413204848766327
vn -0.7953397035598755 0.5042721629142761 -0.3363695442676544
vn -0.7953228950500488 0.5042709708213806 0.33641090989112854
vn -0.6508496999740601 -0.6781648993492126 -0.3413020074367523
vn -0.3553977608680725 -0.8530740737915039 -0.38204318284988403
vn -0.6508301496505737 -0.6781708002090454 0.3413275182247162
vn -0.35537442564964294 -0.8530650734901428 0.3820849359035492
vn -0.2695446312427521 0.899304986000061 -0.3443778455257416
vn -0.3591231405735016 0.8757308125495911 -0.32268577814102173
vn -0.26567426323890686 0.9022901058197021 0.3395437002182007
vn -0.3609239459037781 0.8759797811508179 0.3199898302555084
vn -0.4816460907459259 0.8365940451622009 0.26101231575012207
vn -0.4804973900318146 0.836919903755188 -0.262082576751709
vn -0.5206121802330017 -0.7812710404396057 -0.34435245394706726
vn -0.35809531807899475 -0.8521039485931396 -0.3816891312599182
vn -0.5205857753753662 -0.7812379598617554 0.34446731209754944
vn -0.3580588400363922 -0.8520826101303101 0.38177087903022766
vn -0.6824420690536499 0.6463793516159058 -0.3412717580795288
vn -0.9207974672317505 0.19746865332126617 -0.3363600969314575
vn -0.6824276447296143 0.6463664174079895 0.3413253724575043
vn -0.9207795858383179 0.19746224582195282 0.3364129662513733
vn 0.010769174434244633 0.9398912787437439 -0.34130391478538513
vn 0.010778880678117275 0.9398777484893799 0.34134095907211304
vn 0.34413987398147583 0.8576756715774536 -0.3820473253726959
vn 0.3441453278064728 0.8576406240463257 0.3821212649345398
vn -0.8217753171920776 -0.45765420794487 -0.33946695923805237
vn -0.822446346282959 -0.4527049660682678 0.34444206953048706
vn -0.8712730407714844 -0.3721267879009247 -0.32000747323036194
vn -0.8698180913925171 -0.37319526076316833 0.3227100670337677
vn -0.9292239546775818 -0.2605000436306 0.2620737552642822
vn -0.9298385381698608 -0.2594100832939148 -0.2609728276729584
vn -0.1700628399848938 0.3906102776527405 -0.9047110676765442
vn -0.34665149450302124 0.4250490665435791 -0.8361614942550659
vn -0.1723470836877823 0.38337311148643494 0.9073707461357117
vn -0.020972250029444695 0.48437535762786865 0.8746088743209839
vn -0.34734225273132324 0.4241340756416321 0.8363394737243652
vn -0.14774644374847412 -0.35460159182548523 0.923270583152771
vn -0.4467240571975708 -0.18569229543209076 0.8751891255378723
vn -0.02437049150466919 0.48463961482048035 -0.8743743300437927
vn -0.4468177258968353 -0.18567948043346405 -0.8751440048217773
vn -0.1478571593761444 -0.35475462675094604 -0.9231941103935242
vn 0.14306855201721191 0.356708824634552 -0.9231956005096436
vn -0.18870414793491364 0.44554898142814636 -0.875143826007843
vn -0.1886383444070816 0.4454774260520935 0.8751945495605469
vn 0.14302541315555573 0.35649245977401733 0.9232859015464783
vn -0.39165380597114563 -0.1528102308511734 -0.9073346853256226
vn -0.35445624589920044 -0.3310337960720062 -0.8745154738426208
vn -0.35687121748924255 -0.32855308055877686 0.8744689226150513
vn -0.39491963386535645 -0.15950316190719604 0.9047635197639465
vn -0.545094907283783 -0.06044827029109001 0.83619225025177
vn -0.545099139213562 -0.059203874319791794 -0.8362786173820496
vn -0.00010918191401287913 -4.538713619695045e-05 1.0
vn -4.337122300057672e-05 0.0001699972344795242 0.9999999403953552
vn 0.14217795431613922 0.3576608896255493 0.9229648113250732
vn 0.1421932429075241 0.35795044898986816 -0.9228502511978149
vn -0.0001034919623634778 0.00040231889579445124 -0.9999998807907104
vn -0.0002592584933154285 -0.00010057698818854988 -0.9999998807907104
vn -0.14916761219501495 -0.3548344671726227 0.9229525923728943
vn -0.0001500569487689063 -9.090350067708641e-05 1.0
vn -4.609805182553828e-05 0.00010888586257351562 0.9999999403953552
vn -0.00011297195305814967 0.00025505488156341016 -0.9999998807907104
vn -0.0003557255258783698 -0.00021453385124914348 -0.9999999403953552
vn -0.14935331046581268 -0.355044424533844 -0.9228418469429016
f 1/1/1 2/2/2 3/3/3
f 2/4/2 4/5/4 3/6/3
f 5/7/5 6/8/6 7/9/7
f 6/10/6 8/11/8 7/12/7
f 9/13/9 10/14/10 11/15/11
f 10/16/10 12/17/12 11/18/11
f 13/19/13 14/20/14 15/21/15
f 14/22/14 16/23/16 15/24/15
f 17/25/17 16/26/16 18/27/18
f 16/28/16 14/29/14 18/30/18
f 19/31/19 20/32/20 21/33/21
f 20/34/20 22/35/22 21/36/21
f 23/37/23 24/38/24 25/39/25
f 24/40/24 26/41/26 25/42/25
f 27/43/27 28/44/28 29/45/29
f 28/46/28 30/47/30 29/48/29
f 31/49/31 32/50/32 33/51/33
f 32/52/32 34/53/34 33/54/33
f 35/55/35 36/56/36 34/57/34
f 36/58/36 33/59/33 34/60/34
f 14/61/14 37/62/37 18/63/18
f 37/64/37 38/65/38 18/66/18
f 16/67/16 39/68/39 15/69/15
f 39/70/39 40/71/40 15/72/15
f 17/73/17 41/74/41 16/75/16
f 41/76/41 39/77/39 16/78/16
f 12/79/12 42/80/42 11/81/11
f 42/82/42 43/83/43 11/84/11
f 13/85/13 44/86/44 14/87/14
f 44/88/44 37/89/37 14/90/14
f 9/91/9 45/92/45 10/93/10
f 45/94/45 46/95/46 10/96/10
f 29/97/29 47/98/47 27/99/27
f 47/100/47 48/101/48 27/102/27
f 28/103/28 49/104/49 30/105/30
f 49/106/49 50/107/50 30/108/30
f 33/109/33 51/110/51 31/111/31
f 51/112/51 52/113/52 31/114/31
f 32/115/32 53/116/53 34/117/34
f 53/118/53 54/119/54 34/120/34
f 34/121/34 54/122/54 35/123/35
f 54/124/54 55/125/55 35/126/35
f 36/127/36 56/128/56 33/129/33
f 56/130/56 51/131/51 33/132/33
f 43/133/43 42/134/42 57/135/57
f 41/136/41 43/137/43 57/138/57
f 41/139/41 57/140/57 58/141/58
f 39/142/39 41/143/41 58/144/58
f 39/145/39 58/146/58 59/147/59
f 40/148/40 39/149/39 59/150/59
f 44/151/44 60/152/60 37/153/37
f 60/154/60 61/155/61 37/156/37
f 37/157/37 61/158/61 38/159/38
f 61/160/61 62/161/62 38/162/38
f 38/163/38 62/164/62 45/165/45
f 62/166/62 46/167/46 45/168/45
f 53/169/53 63/170/63 54/171/54
f 63/172/63 64/173/64 54/174/54
f 54/175/54 64/176/64 55/177/55
f 64/178/64 65/179/65 55/180/55
f 55/181/55 65/182/65 49/183/49
f 65/184/65 50/185/50 49/186/49
f 48/187/48 47/188/47 66/189/66
f 56/190/56 48/191/48 66/192/66
f 56/193/56 66/194/66 67/195/67
f 51/196/51 56/197/56 67/198/67
f 51/199/51 67/200/67 68/201/68
f 52/202/52 51/203/51 68/204/68
f 40/205/40 59/206/59 4/207/4
f 2/208/2 40/209/40 4/210/4
f 15/211/15 40/212/40 2/213/2
f 13/214/13 15/215/15 2/216/2
f 1/217/1 13/218/13 2/219/2
f 44/220/44 13/221/13 1/222/1
f 60/223/60 44/224/44 1/225/1
f 3/226/3 60/227/60 1/228/1
f 52/229/52 68/230/68 20/231/20
f 19/232/19 52/233/52 20/234/20
f 31/235/31 52/236/52 19/237/19
f 32/238/32 31/239/31 19/240/19
f 21/241/21 32/242/32 19/243/19
f 53/244/53 32/245/32 21/246/21
f 63/247/63 53/248/53 21/249/21
f 22/250/22 63/251/63 21/252/21
f 5/253/5 45/254/45 9/255/9
f 38/256/38 45/257/45 5/258/5
f 5/259/5 9/260/9 6/261/6
f 7/262/7 38/263/38 5/264/5
f 9/265/9 11/266/11 6/267/6
f 7/268/7 18/269/18 38/270/38
f 11/271/11 43/272/43 6/273/6
f 17/274/17 18/275/18 7/276/7
f 6/277/6 43/278/43 8/279/8
f 8/280/8 17/281/17 7/282/7
f 43/283/43 41/284/41 8/285/8
f 41/286/41 17/287/17 8/288/8
f 26/289/26 35/290/35 55/291/55
f 36/292/36 35/293/35 26/294/26
f 26/295/26 55/296/55 25/297/25
f 24/298/24 36/299/36 26/300/26
f 55/301/55 49/302/49 25/303/25
f 24/304/24 56/305/56 36/306/36
f 49/307/49 28/308/28 25/309/25
f 48/310/48 56/311/56 24/312/24
f 25/313/25 28/314/28 23/315/23
f 23/316/23 48/317/48 24/318/24
f 28/319/28 27/320/27 23/321/23
f 27/322/27 48/323/48 23/324/23
