# Exported by Lightwave Blender addon
v 594.320556640625 -359.4156494140625 344.3720397949219
v 595.0574340820312 -359.7071533203125 344.0437927246094
v 594.8355102539062 -360.2682189941406 344.3720703125
v 594.314453125 -360.0621337890625 344.60418701171875
v 594.7435913085938 -360.5006408691406 345.1645202636719
v 594.0152587890625 -359.2949523925781 345.1645202636719
v 594.0986328125 -359.97674560546875 345.16455078125
v 594.320556640625 -359.4156799316406 345.9570007324219
v 594.314453125 -360.0621337890625 345.72491455078125
v 595.0574340820312 -359.7071533203125 346.2852478027344
v 594.8355102539062 -360.2682189941406 345.9570007324219
v 595.79443359375 -359.99859619140625 345.9570007324219
v 595.3566284179688 -360.4743347167969 345.72491455078125
v 596.099609375 -360.1193542480469 345.1645202636719
v 595.572509765625 -360.5596923828125 345.16455078125
v 595.79443359375 -359.99859619140625 344.3720397949219
v 595.3566284179688 -360.4743347167969 344.60418701171875
vt 0.87451171875 0.375
vt 0.99951171875 0.375
vt 0.99951171875 0.75
vt 0.87451171875 0.75
vt 0.87451171875 0.375
vt 0.99951171875 0.75
vt 0.87451171875 1.0
vt 0.87451171875 0.75
vt 0.99951171875 0.75
vt 0.75 0.375
vt 0.87451171875 0.375
vt 0.87451171875 0.75
vt 0.75 0.75
vt 0.75 0.375
vt 0.87451171875 0.75
vt 0.75 1.0
vt 0.75 0.75
vt 0.87451171875 0.75
vt 0.625 0.375
vt 0.75 0.375
vt 0.75 0.75
vt 0.625 0.75
vt 0.625 0.375
vt 0.75 0.75
vt 0.625 1.0
vt 0.625 0.75
vt 0.75 0.75
vt 0.5 0.375
vt 0.625 0.375
vt 0.625 0.75
vt 0.5 0.75
vt 0.5 0.375
vt 0.625 0.75
vt 0.5 1.0
vt 0.5 0.75
vt 0.625 0.75
vt 0.375 0.375
vt 0.5 0.375
vt 0.5 0.75
vt 0.375 0.75
vt 0.375 0.375
vt 0.5 0.75
vt 0.375 1.0
vt 0.375 0.75
vt 0.5 0.75
vt 0.25 0.375
vt 0.375 0.375
vt 0.375 0.75
vt 0.25 0.75
vt 0.25 0.375
vt 0.375 0.75
vt 0.25 1.0
vt 0.25 0.75
vt 0.375 0.75
vt 0.125 0.375
vt 0.25 0.375
vt 0.25 0.75
vt 0.125 0.75
vt 0.125 0.375
vt 0.25 0.75
vt 0.125 1.0
vt 0.125 0.75
vt 0.25 0.75
vt 0.0 0.375
vt 0.125 0.375
vt 0.125 0.75
vt 0.0 0.75
vt 0.0 0.375
vt 0.125 0.75
vt 0.0 1.0
vt 0.0 0.75
vt 0.125 0.75
vn -0.7533447742462158 -0.21594351530075073 -0.6211602687835693
vn -0.17578332126140594 -0.4444180727005005 -0.8784035444259644
vn -0.2680063247680664 -0.6775409579277039 -0.6849167346954346
vn -0.7183610796928406 -0.4994138777256012 -0.48429638147354126
vn -0.3678090572357178 -0.9299013614654541 -9.42968745221151e-06
vn -0.9926086664199829 -0.12135852128267288 -5.179280378797557e-06
vn -0.9048959016799927 -0.4256329834461212 3.0671431886730716e-05
vn -0.7533723711967468 -0.2159089595079422 0.6211388111114502
vn -0.7183648943901062 -0.49939048290252686 0.48431500792503357
vn -0.1757661998271942 -0.44438114762306213 0.878425657749176
vn -0.26798394322395325 -0.6775377988815308 0.6849284768104553
vn 0.4018417298793793 -0.6728381514549255 0.6211377382278442
vn 0.18237993121147156 -0.8556602597236633 0.48433783650398254
vn 0.6411086916923523 -0.7674500346183777 1.0700621714931913e-05
vn 0.3689684271812439 -0.9294418692588806 1.6475443771923892e-05
vn 0.4018270969390869 -0.6728588938713074 -0.6211246252059937
vn 0.18236157298088074 -0.8556799292564392 -0.4843098521232605
f 1/1/1 2/2/2 3/3/3
f 4/4/4 1/5/1 3/6/3
f 5/7/5 4/8/4 3/9/3
f 6/10/6 1/11/1 4/12/4
f 7/13/7 6/14/6 4/15/4
f 5/16/5 7/17/7 4/18/4
f 8/19/8 6/20/6 7/21/7
f 9/22/9 8/23/8 7/24/7
f 5/25/5 9/26/9 7/27/7
f 10/28/10 8/29/8 9/30/9
f 11/31/11 10/32/10 9/33/9
f 5/34/5 11/35/11 9/36/9
f 12/37/12 10/38/10 11/39/11
f 13/40/13 12/41/12 11/42/11
f 5/43/5 13/44/13 11/45/11
f 14/46/14 12/47/12 13/48/13
f 15/49/15 14/50/14 13/51/13
f 5/52/5 15/53/15 13/54/13
f 16/55/16 14/56/14 15/57/15
f 17/58/17 16/59/16 15/60/15
f 5/61/5 17/62/17 15/63/15
f 2/64/2 16/65/16 17/66/17
f 3/67/3 2/68/2 17/69/17
f 5/70/5 3/71/3 17/72/17
