# Exported by Lightwave Blender addon
v -50.603118896484375 -26.903728485107422 329.251708984375
v -50.48984909057617 -26.348615646362305 41.14291763305664
v -47.07013702392578 -33.314083099365234 329.2372741699219
v -47.07368469238281 -33.32015609741211 42.07581329345703
v -148.34556579589844 188.220947265625 329.25177001953125
v -148.88731384277344 188.38668823242188 41.14295196533203
v -131.3637237548828 196.8032684326172 329.2373046875
v -131.3579864501953 196.79916381835938 42.07582092285156
v -132.63523864746094 199.74737548828125 42.04905319213867
v -147.2220916748047 192.08795166015625 41.178897857666016
v -132.63671875 199.75405883789062 329.23760986328125
v -147.22267150878906 192.10079956054688 329.2511901855469
v -147.67726135253906 191.89266967773438 329.25262451171875
v -147.6767120361328 191.87985229492188 41.079105377197266
v -50.833255767822266 -26.459911346435547 329.25262451171875
v -50.720542907714844 -25.90498161315918 41.07919692993164
v -50.4002571105957 -26.210041046142578 329.24176025390625
v -50.287933349609375 -25.65449333190918 41.08163833618164
v -34.027496337890625 -16.755390167236328 329.0860290527344
v -34.025028228759766 -16.75483512878418 41.1158561706543
v -33.59451675415039 -16.505504608154297 329.0752258300781
v -33.592403411865234 -16.504331588745117 41.11845016479492
v -33.34291076660156 -16.93759536743164 329.0752258300781
v -33.340797424316406 -16.93641471862793 41.11845016479492
v -32.224822998046875 -18.855527877807617 41.11838912963867
v -32.22464370727539 -18.85537338256836 329.0752258300781
v -31.973039627075195 -19.28744888305664 329.0752258300781
v -31.97321128845215 -19.28761100769043 41.11838912963867
v -32.423030853271484 -19.505428314208984 329.0921325683594
v -32.4232063293457 -19.50556755065918 41.11460494995117
v -46.44709014892578 -27.002225875854492 41.0828857421875
v -46.434349060058594 -27.000469207763672 329.235107421875
v -46.884342193603516 -27.218425750732422 329.2525939941406
v -46.89707946777344 -27.220182418823242 41.07907485961914
v -148.80931091308594 188.03421020507812 329.252685546875
v -149.35093688964844 188.19940185546875 41.07923126220703
v -149.0167236328125 188.48910522460938 329.2417907714844
v -149.5589599609375 188.65396118164062 41.08167266845703
v -152.1934051513672 194.93104553222656 329.0860900878906
v -152.1937255859375 194.93356323242188 41.11587905883789
v -152.4008331298828 195.3859100341797 329.0752868652344
v -152.4017333984375 195.38815307617188 41.118473052978516
v -151.94667053222656 195.59512329101562 329.07525634765625
v -151.94766235351562 195.59735107421875 41.11846923828125
v -149.93077087402344 196.5250244140625 41.118404388427734
v -149.93092346191406 196.52520751953125 329.0752868652344
v -149.47677612304688 196.73440551757812 329.0752868652344
v -149.4766387939453 196.73422241210938 41.118404388427734
v -149.3027801513672 196.26565551757812 329.0921630859375
v -149.3026123046875 196.2655029296875 41.1146240234375
v -147.8507537841797 192.34860229492188 41.08292007446289
v -147.85128784179688 192.3614501953125 329.23516845703125
v -46.843013763427734 -33.76371383666992 42.132362365722656
v -46.84000015258789 -33.75790786743164 329.2361755371094
v -46.405094146728516 -33.52241134643555 42.13233184814453
v -46.40208435058594 -33.5165901184082 329.2361755371094
v -44.44173049926758 -32.43918228149414 329.23614501953125
v -44.448272705078125 -32.4412956237793 42.13227081298828
v -44.01036071777344 -32.19999313354492 42.13223648071289
v -44.003814697265625 -32.1978874206543 329.23614501953125
v -44.26091384887695 -31.767301559448242 42.04904556274414
v -44.25438690185547 -31.765201568603516 329.2375793457031
v -46.64651870727539 -27.652875900268555 41.17886734008789
v -46.6337776184082 -27.651119232177734 329.2511291503906
v -130.8944091796875 196.9864501953125 42.13236618041992
v -130.89996337890625 196.99002075195312 329.2362365722656
v -131.09286499023438 197.44540405273438 42.13233947753906
v -131.0983428955078 197.448974609375 329.2362365722656
v -131.9836883544922 199.50320434570312 329.2361755371094
v -131.98220825195312 199.49652099609375 42.13227462768555
v -132.1806182861328 199.9554443359375 42.13224411010742
v -132.18209838867188 199.962158203125 329.2361755371094
vt 0.736328125 0.7767333984375
vt 2.171875 0.7747802734375
vt 0.736328125 0.813232421875
vt 2.171875 0.7747802734375
vt 2.16796875 0.8133544921875
vt 0.736328125 0.813232421875
vt 0.232421875 0.526123046875
vt -1.2041015625 0.528076171875
vt 0.232421875 0.431640625
vt -1.2041015625 0.528076171875
vt -1.19921875 0.431640625
vt 0.232421875 0.431640625
vt -1.19921875 0.4111328125
vt -1.203125 0.3291015625
vt 0.232421875 0.4111328125
vt -1.203125 0.3291015625
vt 0.232421875 0.3291015625
vt 0.232421875 0.4111328125
vt 0.232421875 0.32666015625
vt 0.232421875 0.3291015625
vt -1.2041015625 0.32666015625
vt 0.232421875 0.3291015625
vt -1.203125 0.3291015625
vt -1.2041015625 0.32666015625
vt 2.171875 0.7747802734375
vt 0.736328125 0.7767333984375
vt 0.736328125 0.774169921875
vt 2.171875 0.7723388671875
vt 2.171875 0.7747802734375
vt 0.736328125 0.774169921875
vt 2.171875 0.7723388671875
vt 0.736328125 0.774169921875
vt 0.736328125 0.7716064453125
vt 2.171875 0.769775390625
vt 2.171875 0.7723388671875
vt 0.736328125 0.7716064453125
vt 0.736328125 0.7716064453125
vt 0.7373046875 0.677490234375
vt 2.171875 0.769775390625
vt 0.7373046875 0.677490234375
vt 2.171875 0.677490234375
vt 2.171875 0.769775390625
vt 0.7373046875 0.677490234375
vt 0.7373046875 0.6748046875
vt 2.171875 0.677490234375
vt 0.7373046875 0.6748046875
vt 2.171875 0.6748046875
vt 2.171875 0.677490234375
vt 0.7373046875 0.6748046875
vt 0.7373046875 0.67236328125
vt 2.171875 0.6748046875
vt 0.7373046875 0.67236328125
vt 2.171875 0.67236328125
vt 2.171875 0.6748046875
vt 2.171875 0.67236328125
vt 0.7373046875 0.67236328125
vt 2.171875 0.661376953125
vt 0.7373046875 0.67236328125
vt 0.7373046875 0.661376953125
vt 2.171875 0.661376953125
vt 2.171875 0.661376953125
vt 0.7373046875 0.661376953125
vt 0.7373046875 0.658935546875
vt 2.171875 0.658935546875
vt 2.171875 0.661376953125
vt 0.7373046875 0.658935546875
vt 2.171875 0.658935546875
vt 0.7373046875 0.658935546875
vt 0.7373046875 0.65625
vt 2.171875 0.65625
vt 2.171875 0.658935546875
vt 0.7373046875 0.65625
vt 2.171875 0.65625
vt 0.7373046875 0.65625
vt 2.171875 0.5771484375
vt 0.7373046875 0.65625
vt 0.736328125 0.5771484375
vt 2.171875 0.5771484375
vt 0.736328125 0.5771484375
vt 0.736328125 0.57470703125
vt 2.171875 0.5771484375
vt 0.736328125 0.57470703125
vt 2.171875 0.574462890625
vt 2.171875 0.5771484375
vt -1.2041015625 0.528076171875
vt 0.232421875 0.526123046875
vt 0.232421875 0.5283203125
vt -1.2041015625 0.5302734375
vt -1.2041015625 0.528076171875
vt 0.232421875 0.5283203125
vt -1.2041015625 0.5302734375
vt 0.232421875 0.5283203125
vt 0.232421875 0.53076171875
vt -1.2041015625 0.53271484375
vt -1.2041015625 0.5302734375
vt 0.232421875 0.53076171875
vt 0.232421875 0.53076171875
vt 0.231689453125 0.566162109375
vt -1.2041015625 0.53271484375
vt 0.231689453125 0.566162109375
vt -1.2041015625 0.56640625
vt -1.2041015625 0.53271484375
vt 0.231689453125 0.566162109375
vt 0.2315673828125 0.568603515625
vt -1.2041015625 0.56640625
vt 0.2315673828125 0.568603515625
vt -1.2041015625 0.568603515625
vt -1.2041015625 0.56640625
vt 0.2315673828125 0.568603515625
vt 0.2315673828125 0.57080078125
vt -1.2041015625 0.568603515625
vt 0.2315673828125 0.57080078125
vt -1.2041015625 0.57080078125
vt -1.2041015625 0.568603515625
vt -1.2041015625 0.57080078125
vt 0.2315673828125 0.57080078125
vt -1.2041015625 0.581787109375
vt 0.2315673828125 0.57080078125
vt 0.2315673828125 0.581787109375
vt -1.2041015625 0.581787109375
vt -1.2041015625 0.581787109375
vt 0.2315673828125 0.581787109375
vt 0.2315673828125 0.584228515625
vt -1.2041015625 0.584228515625
vt -1.2041015625 0.581787109375
vt 0.2315673828125 0.584228515625
vt -1.2041015625 0.584228515625
vt 0.2315673828125 0.584228515625
vt 0.231689453125 0.586669921875
vt -1.2041015625 0.586669921875
vt -1.2041015625 0.584228515625
vt 0.231689453125 0.586669921875
vt -1.2041015625 0.586669921875
vt 0.231689453125 0.586669921875
vt -1.2041015625 0.607421875
vt 0.231689453125 0.586669921875
vt 0.232421875 0.607421875
vt -1.2041015625 0.607421875
vt 0.232421875 0.607421875
vt 0.232421875 0.60986328125
vt -1.2041015625 0.607421875
vt 0.232421875 0.60986328125
vt -1.2041015625 0.60986328125
vt -1.2041015625 0.607421875
vt 2.16796875 0.8133544921875
vt 2.16796875 0.8157958984375
vt 0.736328125 0.813232421875
vt 2.16796875 0.8157958984375
vt 0.736328125 0.8157958984375
vt 0.736328125 0.813232421875
vt 2.16796875 0.8157958984375
vt 2.16796875 0.8182373046875
vt 0.736328125 0.8157958984375
vt 2.16796875 0.8182373046875
vt 0.736328125 0.818359375
vt 0.736328125 0.8157958984375
vt 0.736328125 0.818359375
vt 2.16796875 0.8182373046875
vt 0.736328125 0.8294677734375
vt 2.16796875 0.8182373046875
vt 2.16796875 0.8294677734375
vt 0.736328125 0.8294677734375
vt 0.736328125 0.8294677734375
vt 2.16796875 0.8294677734375
vt 2.16796875 0.8319091796875
vt 0.736328125 0.83203125
vt 0.736328125 0.8294677734375
vt 2.16796875 0.8319091796875
vt 0.736328125 0.83203125
vt 2.16796875 0.8319091796875
vt 2.16796875 0.83447265625
vt 0.736328125 0.83447265625
vt 0.736328125 0.83203125
vt 2.16796875 0.83447265625
vt 2.16796875 0.83447265625
vt 2.171875 0.858154296875
vt 0.736328125 0.83447265625
vt 2.171875 0.858154296875
vt 0.736328125 0.858154296875
vt 0.736328125 0.83447265625
vt 0.736328125 0.858154296875
vt 2.171875 0.858154296875
vt 2.171875 0.860595703125
vt 0.736328125 0.8607177734375
vt 0.736328125 0.858154296875
vt 2.171875 0.860595703125
vt -1.19921875 0.431640625
vt -1.1982421875 0.42919921875
vt 0.232421875 0.431640625
vt -1.1982421875 0.42919921875
vt 0.232421875 0.42919921875
vt 0.232421875 0.431640625
vt -1.1982421875 0.42919921875
vt -1.1982421875 0.4267578125
vt 0.232421875 0.42919921875
vt -1.1982421875 0.4267578125
vt 0.232421875 0.4267578125
vt 0.232421875 0.42919921875
vt 0.232421875 0.4267578125
vt -1.1982421875 0.4267578125
vt 0.232421875 0.416015625
vt -1.1982421875 0.4267578125
vt -1.1982421875 0.416015625
vt 0.232421875 0.416015625
vt 0.232421875 0.416015625
vt -1.1982421875 0.416015625
vt -1.1982421875 0.41357421875
vt 0.232421875 0.41357421875
vt 0.232421875 0.416015625
vt -1.1982421875 0.41357421875
vt 0.232421875 0.41357421875
vt -1.1982421875 0.41357421875
vt -1.19921875 0.4111328125
vt 0.232421875 0.4111328125
vt 0.232421875 0.41357421875
vt -1.19921875 0.4111328125
vn -0.8818437457084656 -0.4715401530265808 -0.0012552349362522364
vn -0.8920230269432068 -0.45198947191238403 -0.0006678594509139657
vn -0.8820297718048096 -0.47119319438934326 -0.0006176730967126787
vn -0.8930543065071106 -0.4499486982822418 2.0548704924294725e-05
vn 0.4126656651496887 -0.9108816981315613 -0.0012999646132811904
vn 0.4026687741279602 -0.9153455495834351 -0.0006704316474497318
vn 0.4123068153858185 -0.9110448360443115 -0.0006429546629078686
vn 0.40534237027168274 -0.9141650199890137 2.116533687512856e-05
vn -0.4424392879009247 0.8967984318733215 -2.3198192138806917e-05
vn -0.4388549029827118 0.8985579609870911 -3.3209373214049265e-05
vn -0.44061240553855896 0.897697389125824 -3.157134779030457e-05
vn -0.4405871331691742 0.8977099061012268 -4.084680040250532e-05
vn 0.37266868352890015 0.9279645085334778 -4.0627190173836425e-05
vn 0.44601985812187195 0.8950230479240417 -3.906471829395741e-05
vn -0.9617192149162292 0.27403682470321655 0.00014996077516116202
vn -0.9483833909034729 0.31712570786476135 0.0002416122442809865
vn -0.49992480874061584 0.8660675883293152 0.0014735227450728416
vn -0.4910382032394409 0.871137797832489 0.0007671354105696082
vn -0.4995521306991577 0.8662835955619812 0.0007127233548089862
vn -0.4905853271484375 0.8713932037353516 -1.2919432492708438e-06
vn 0.25053462386131287 0.9681076407432556 4.026087481179275e-06
vn 0.25482895970344543 0.9669861197471619 5.81871381655219e-06
vn 0.8640176653862 0.5034616589546204 3.81457152798248e-06
vn 0.8643149137496948 0.5029510259628296 8.405433618463576e-06
vn 0.8643108606338501 0.5029578804969788 3.7809263631061185e-06
vn 0.864013135433197 0.5034692883491516 -8.080835414148169e-07
vn 0.953037440776825 -0.3028525412082672 -4.045811294872692e-07
vn 0.955690324306488 -0.29437392950057983 -4.6093995820228884e-07
vn 0.4541495442390442 -0.8909254670143127 -7.450074917869642e-06
vn 0.4538169205188751 -0.891094982624054 1.5430873645527754e-07
vn 0.45371517539024353 -0.891146719455719 -7.1172685238707345e-06
vn 0.453641802072525 -0.8911841511726379 -1.4625532458012458e-05
vn 0.959290623664856 -0.2824208438396454 -4.068400085088797e-05
vn 0.9335064888000488 -0.35856059193611145 -3.909305814886466e-05
vn -0.3645271360874176 -0.9311928153038025 0.0001498058991273865
vn -0.4062395989894867 -0.9137665033340454 0.00024151049728970975
vn -0.9035923480987549 -0.42839083075523376 0.0014539689291268587
vn -0.915619432926178 -0.4020453989505768 0.0007485208916477859
vn -0.9035866260528564 -0.4284047782421112 0.0007152236648835242
vn -0.9158614873886108 -0.4014941453933716 -1.3819269497616915e-06
vn -0.9397782683372498 0.341784805059433 4.019219886686187e-06
vn -0.9382268190383911 0.3460206985473633 5.688404598913621e-06
vn -0.4186771512031555 0.9081351161003113 3.814643832811271e-06
vn -0.41815611720085144 0.9083751440048218 8.467934094369411e-06
vn -0.41813555359840393 0.9083846807479858 3.8226617107284255e-06
vn -0.41867297887802124 0.9081370234489441 -7.993185704435746e-07
vn 0.39246562123298645 0.9197666049003601 -4.1380727111572924e-07
vn 0.3842463195323944 0.9232306480407715 -3.0349667667906033e-07
vn 0.9374080300331116 0.3482329845428467 -6.873552138131345e-06
vn 0.9375650882720947 0.3478098213672638 3.6215942600392736e-07
vn 0.9375613331794739 0.3478200137615204 -6.765395028196508e-06
vn 0.9374039769172668 0.3482436239719391 -1.3789837794320192e-05
vn -0.32329848408699036 -0.9462971091270447 2.4064322133199312e-05
vn -0.2908318042755127 -0.9567742347717285 2.2439013264374807e-05
vn 0.4830916225910187 -0.8755697011947632 4.077561243320815e-06
vn 0.4821400046348572 -0.8760942220687866 1.2708994290733244e-05
vn 0.48212727904319763 -0.8761011958122253 4.027034719911171e-06
vn 0.48309963941574097 -0.8755654096603394 -4.563394213619176e-06
vn 0.9758425951004028 -0.21847452223300934 -2.062691237370018e-05
vn 0.9637177586555481 -0.26692333817481995 -1.9962129954365082e-05
vn 0.8652294278144836 0.5013761520385742 -2.3363654690911062e-05
vn 0.8655049204826355 0.500900387763977 -3.225739055778831e-05
vn 0.8652629256248474 0.5013183951377869 -3.350158658577129e-05
vn 0.865512490272522 0.5008872747421265 -4.132198591833003e-05
vn 0.9111353158950806 -0.41210728883743286 2.4200342522817664e-05
vn 0.9246509671211243 -0.3808159828186035 2.2449557945947163e-05
vn 0.9176696538925171 0.3973442614078522 4.187375907349633e-06
vn 0.9181303381919861 0.396278440952301 1.258950669580372e-05
vn 0.918117105960846 0.39630916714668274 3.9835481402406e-06
vn 0.9176793694496155 0.397321879863739 -4.518160949373851e-06
vn 0.3106408715248108 0.9505273103713989 -2.059787220787257e-05
vn 0.3577018082141876 0.9338359236717224 -1.991953467950225e-05
f 1/1/1 2/2/2 3/3/3
f 2/4/2 4/5/4 3/6/3
f 5/7/5 6/8/6 7/9/7
f 6/10/6 8/11/8 7/12/7
f 9/13/9 10/14/10 11/15/11
f 10/16/10 12/17/12 11/18/11
f 13/19/13 12/20/12 14/21/14
f 12/22/12 10/23/10 14/24/14
f 2/25/2 1/26/1 15/27/15
f 16/28/16 2/29/2 15/30/15
f 16/31/16 15/32/15 17/33/17
f 18/34/18 16/35/16 17/36/17
f 17/37/17 19/38/19 18/39/18
f 19/40/19 20/41/20 18/42/18
f 19/43/19 21/44/21 20/45/20
f 21/46/21 22/47/22 20/48/20
f 21/49/21 23/50/23 22/51/22
f 23/52/23 24/53/24 22/54/22
f 24/55/24 23/56/23 25/57/25
f 23/58/23 26/59/26 25/60/25
f 25/61/25 26/62/26 27/63/27
f 28/64/28 25/65/25 27/66/27
f 28/67/28 27/68/27 29/69/29
f 30/70/30 28/71/28 29/72/29
f 30/73/30 29/74/29 31/75/31
f 29/76/29 32/77/32 31/78/31
f 32/79/32 33/80/33 31/81/31
f 33/82/33 34/83/34 31/84/31
f 6/85/6 5/86/5 35/87/35
f 36/88/36 6/89/6 35/90/35
f 36/91/36 35/92/35 37/93/37
f 38/94/38 36/95/36 37/96/37
f 37/97/37 39/98/39 38/99/38
f 39/100/39 40/101/40 38/102/38
f 39/103/39 41/104/41 40/105/40
f 41/106/41 42/107/42 40/108/40
f 41/109/41 43/110/43 42/111/42
f 43/112/43 44/113/44 42/114/42
f 44/115/44 43/116/43 45/117/45
f 43/118/43 46/119/46 45/120/45
f 45/121/45 46/122/46 47/123/47
f 48/124/48 45/125/45 47/126/47
f 48/127/48 47/128/47 49/129/49
f 50/130/50 48/131/48 49/132/49
f 50/133/50 49/134/49 51/135/51
f 49/136/49 52/137/52 51/138/51
f 52/139/52 13/140/13 51/141/51
f 13/142/13 14/143/14 51/144/51
f 4/145/4 53/146/53 3/147/3
f 53/148/53 54/149/54 3/150/3
f 53/151/53 55/152/55 54/153/54
f 55/154/55 56/155/56 54/156/54
f 56/157/56 55/158/55 57/159/57
f 55/160/55 58/161/58 57/162/57
f 57/163/57 58/164/58 59/165/59
f 60/166/60 57/167/57 59/168/59
f 60/169/60 59/170/59 61/171/61
f 62/172/62 60/173/60 61/174/61
f 61/175/61 63/176/63 62/177/62
f 63/178/63 64/179/64 62/180/62
f 64/181/64 63/182/63 34/183/34
f 33/184/33 64/185/64 34/186/34
f 8/187/8 65/188/65 7/189/7
f 65/190/65 66/191/66 7/192/7
f 65/193/65 67/194/67 66/195/66
f 67/196/67 68/197/68 66/198/66
f 68/199/68 67/200/67 69/201/69
f 67/202/67 70/203/70 69/204/69
f 69/205/69 70/206/70 71/207/71
f 72/208/72 69/209/69 71/210/71
f 72/211/72 71/212/71 9/213/9
f 11/214/11 72/215/72 9/216/9
