# Exported by Lightwave Blender addon
v -10.481790542602539 628.2740478515625 414.8271484375
v -10.100621223449707 628.0685424804688 414.4637451171875
v -10.395386695861816 628.2274780273438 415.38385009765625
v -9.633049964904785 627.8164672851562 414.6571044921875
v -9.546645164489746 627.7698974609375 415.21380615234375
v -9.927813529968262 627.9754028320312 415.57720947265625
v -8.151446342468262 626.8836059570312 412.55230712890625
v -7.7702789306640625 626.6781005859375 412.18890380859375
v -7.302706241607666 626.426025390625 412.3822021484375
v -7.597471714019775 626.5849609375 413.30230712890625
v -8.065043449401855 626.8370361328125 413.10894775390625
v -7.216302871704102 626.3794555664062 412.93896484375
v -9.104116439819336 630.6224975585938 415.3838195800781
v -8.636544227600098 630.3704223632812 415.5771484375
v -9.190520286560059 630.6690673828125 414.82708740234375
v -8.255376815795898 630.1649169921875 415.21380615234375
v -8.809351921081543 630.4635620117188 414.46380615234375
v -8.341780662536621 630.2114868164062 414.6571044921875
v -6.351852893829346 635.9341430664062 414.8271484375
v -6.006704330444336 635.6618041992188 414.4637756347656
v -5.55714225769043 635.3763427734375 414.6571044921875
v -6.247438430786133 635.9209594726562 415.3837890625
v -5.69708776473999 636.7099609375 414.6524658203125
v -5.797876834869385 635.6354370117188 415.5771789550781
v -5.5205793380737305 636.7822265625 415.1899719238281
v -5.452728748321533 635.3631591796875 415.2138366699219
v -5.143111705780029 636.4113159179688 415.4024658203125
v -4.94215202331543 635.9681396484375 415.07757568359375
v -5.118660926818848 635.8958740234375 414.5401611328125
v -5.496128082275391 636.2667846679688 414.3275146484375
v -4.63763427734375 636.1102905273438 414.270263671875
v -4.892866134643555 636.5357055664062 413.9891357421875
v -4.849353790283203 637.0878295898438 414.1768493652344
v -4.338890552520752 636.237060546875 414.7391357421875
v -4.298619747161865 636.4425659179688 413.5131530761719
v -4.2953782081604 636.7891845703125 414.9268493652344
v -4.160576343536377 636.0355224609375 413.88812255859375
v -3.7446439266204834 636.1439208984375 414.2631530761719
v -4.550609111785889 637.214599609375 414.64569091796875
v -3.4667539596557617 636.6593627929688 414.2631530761719
v -3.60479736328125 637.0663452148438 413.88812255859375
v -4.020730495452881 636.9580078125 413.5130615234375
v -2.8985249996185303 636.0336303710938 413.5942687988281
v -2.956822156906128 636.3528442382812 413.1253662109375
v -3.452501058578491 636.332275390625 412.8442077636719
v -3.335906505584717 635.69384765625 413.7820129394531
v -2.7472264766693115 635.1106567382812 413.1149597167969
v -3.83158540725708 635.6732788085938 413.5008544921875
v -3.2279064655303955 635.0349731445312 413.4399108886719
v -3.889882802963257 635.9924926757812 413.0319519042969
v -3.745234489440918 635.146484375 413.2273254394531
v -3.7818825244903564 635.3336791992188 412.6898498535156
v -3.3012025356292725 635.4093017578125 412.3649597167969
v -2.783874034881592 635.2977905273438 412.5775451660156
v -3.5918612480163574 634.4281005859375 412.1888732910156
v -3.106281280517578 634.2094116210938 412.38226318359375
v -3.037885904312134 634.1294555664062 412.9389343261719
v -4.00904655456543 634.5668334960938 412.5522766113281
v -5.955443382263184 628.9248657226562 412.38226318359375
v -3.940650701522827 634.48681640625 413.1090087890625
v -6.423015594482422 629.177001953125 412.1889343261719
v -6.804183483123779 629.3825073242188 412.55230712890625
v -3.4550702571868896 634.2681274414062 413.3023376464844
v -6.717780113220215 629.3358764648438 413.10894775390625
v -6.250207901000977 629.0838012695312 413.30230712890625
v -5.869039535522461 628.8782958984375 412.93896484375
vt 0.0 1.0
vt 0.0 1.0
vt 0.0 1.0
vt 0.0 1.0
vt 0.0 1.0
vt 0.0 1.0
vt 0.0 1.0
vt 0.0 1.0
vt 0.0 1.0
vt 0.0 1.0
vt 0.0 1.0
vt 0.0 1.0
vt 0.0 1.0
vt 0.0 1.0
vt 0.0 1.0
vt 0.0 1.0
vt 0.0 1.0
vt 0.0 1.0
vt 0.0 1.0
vt 0.0 1.0
vt 0.0 1.0
vt 0.0 1.0
vt 0.0 1.0
vt 0.0 1.0
vt 0.0 1.0
vt 0.0 1.0
vt 0.0 1.0
vt 0.0 1.0
vt 0.0 1.0
vt 0.0 1.0
vt 0.0 1.0
vt 0.0 1.0
vt 0.0 1.0
vt 0.0 1.0
vt 0.0 1.0
vt 0.0 1.0
vt 0.0 1.0
vt 0.0 1.0
vt 0.0 1.0
vt 0.0 1.0
vt 0.0 1.0
vt 0.0 1.0
vt 0.0 1.0
vt 0.0 1.0
vt 0.0 1.0
vt 0.0 1.0
vt 0.0 1.0
vt 0.0 1.0
vt 0.0 1.0
vt 0.0 1.0
vt 0.0 1.0
vt 0.0 1.0
vt 0.0 1.0
vt 0.0 1.0
vt 0.0 1.0
vt 0.0 1.0
vt 0.0 1.0
vt 0.0 1.0
vt 0.0 1.0
vt 0.0 1.0
vt 0.0 1.0
vt 0.0 1.0
vt 0.0 1.0
vt 0.0 1.0
vt 0.0 1.0
vt 0.0 1.0
vt 0.0 1.0
vt 0.0 1.0
vt 0.0 1.0
vt 0.0 1.0
vt 0.0 1.0
vt 0.0 1.0
vt 0.0 1.0
vt 0.0 1.0
vt 0.0 1.0
vt 0.0 1.0
vt 0.0 1.0
vt 0.0 1.0
vt 0.0 1.0
vt 0.0 1.0
vt 0.0 1.0
vt 0.0 1.0
vt 0.0 1.0
vt 0.0 1.0
vt 0.0 1.0
vt 0.0 1.0
vt 0.0 1.0
vt 0.0 1.0
vt 0.0 1.0
vt 0.0 1.0
vt 0.0 1.0
vt 0.0 1.0
vt 0.0 1.0
vt 0.0 1.0
vt 0.0 1.0
vt 0.0 1.0
vt 0.0 1.0
vt 0.0 1.0
vt 0.0 1.0
vt 0.0 1.0
vt 0.0 1.0
vt 0.0 1.0
vt 0.0 1.0
vt 0.0 1.0
vt 0.0 1.0
vt 0.0 1.0
vt 0.0 1.0
vt 0.0 1.0
vt 0.0 1.0
vt 0.0 1.0
vt 0.0 1.0
vt 0.0 1.0
vt 0.0 1.0
vt 0.0 1.0
vt 0.0 1.0
vt 0.0 1.0
vt 0.0 1.0
vt 0.0 1.0
vt 0.0 1.0
vt 0.0 1.0
vt 0.0 1.0
vt 0.0 1.0
vt 0.0 1.0
vt 0.0 1.0
vt 0.0 1.0
vt 0.0 1.0
vt 0.0 1.0
vt 0.0 1.0
vt 0.0 1.0
vt 0.0 1.0
vt 0.0 1.0
vt 0.0 1.0
vt 0.0 1.0
vt 0.0 1.0
vt 0.0 1.0
vt 0.0 1.0
vt 0.0 1.0
vt 0.0 1.0
vt 0.0 1.0
vt 0.0 1.0
vt 0.0 1.0
vt 0.0 1.0
vt 0.0 1.0
vt 0.0 1.0
vt 0.0 1.0
vt 0.0 1.0
vt 0.0 1.0
vt 0.0 1.0
vt 0.0 1.0
vt 0.0 1.0
vt 0.0 1.0
vt 0.0 1.0
vt 0.0 1.0
vt 0.0 1.0
vt 0.0 1.0
vt 0.0 1.0
vt 0.0 1.0
vt 0.0 1.0
vt 0.0 1.0
vt 0.0 1.0
vt 0.0 1.0
vt 0.0 1.0
vt 0.0 1.0
vt 0.0 1.0
vt 0.0 1.0
vt 0.0 1.0
vt 0.0 1.0
vt 0.0 1.0
vt 0.0 1.0
vt 0.0 1.0
vt 0.0 1.0
vt 0.0 1.0
vt 0.0 1.0
vt 0.0 1.0
vt 0.0 1.0
vt 0.0 1.0
vt 0.0 1.0
vt 0.0 1.0
vt 0.0 1.0
vt 0.0 1.0
vt 0.0 1.0
vt 0.0 1.0
vt 0.0 1.0
vt 0.0 1.0
vt 0.0 1.0
vt 0.0 1.0
vt 0.0 1.0
vt 0.0 1.0
vt 0.0 1.0
vt 0.0 1.0
vt 0.0 1.0
vt 0.0 1.0
vt 0.0 1.0
vt 0.0 1.0
vt 0.0 1.0
vt 0.0 1.0
vt 0.0 1.0
vt 0.0 1.0
vt 0.0 1.0
vt 0.0 1.0
vt 0.0 1.0
vt 0.0 1.0
vt 0.0 1.0
vt 0.0 1.0
vt 0.0 1.0
vt 0.0 1.0
vt 0.0 1.0
vt 0.0 1.0
vt 0.0 1.0
vt 0.0 1.0
vt 0.0 1.0
vt 0.0 1.0
vt 0.0 1.0
vt 0.0 1.0
vt 0.0 1.0
vt 0.0 1.0
vt 0.0 1.0
vt 0.0 1.0
vt 0.0 1.0
vt 0.0 1.0
vt 0.0 1.0
vt 0.0 1.0
vt 0.0 1.0
vt 0.0 1.0
vt 0.0 1.0
vt 0.0 1.0
vt 0.0 1.0
vt 0.0 1.0
vt 0.0 1.0
vt 0.0 1.0
vt 0.0 1.0
vt 0.0 1.0
vt 0.0 1.0
vt 0.0 1.0
vt 0.0 1.0
vt 0.0 1.0
vt 0.0 1.0
vt 0.0 1.0
vt 0.0 1.0
vt 0.0 1.0
vt 0.0 1.0
vt 0.0 1.0
vt 0.0 1.0
vt 0.0 1.0
vt 0.0 1.0
vt 0.0 1.0
vt 0.0 1.0
vt 0.0 1.0
vt 0.0 1.0
vt 0.0 1.0
vt 0.0 1.0
vt 0.0 1.0
vt 0.0 1.0
vt 0.0 1.0
vt 0.0 1.0
vt 0.0 1.0
vt 0.0 1.0
vt 0.0 1.0
vt 0.0 1.0
vt 0.0 1.0
vt 0.0 1.0
vt 0.0 1.0
vt 0.0 1.0
vt 0.0 1.0
vt 0.0 1.0
vt 0.0 1.0
vt 0.0 1.0
vt 0.0 1.0
vt 0.0 1.0
vt 0.0 1.0
vt 0.0 1.0
vt 0.0 1.0
vt 0.0 1.0
vt 0.0 1.0
vt 0.0 1.0
vt 0.0 1.0
vt 0.0 1.0
vt 0.0 1.0
vt 0.0 1.0
vt 0.0 1.0
vt 0.0 1.0
vt 0.0 1.0
vt 0.0 1.0
vt 0.0 1.0
vt 0.0 1.0
vt 0.0 1.0
vt 0.0 1.0
vt 0.0 1.0
vt 0.0 1.0
vt 0.0 1.0
vt 0.0 1.0
vt 0.0 1.0
vt 0.0 1.0
vt 0.0 1.0
vt 0.0 1.0
vt 0.0 1.0
vt 0.0 1.0
vt 0.0 1.0
vt 0.0 1.0
vt 0.0 1.0
vt 0.0 1.0
vt 0.0 1.0
vt 0.0 1.0
vt 0.0 1.0
vt 0.0 1.0
vt 0.0 1.0
vt 0.0 1.0
vt 0.0 1.0
vt 0.0 1.0
vt 0.0 1.0
vt 0.0 1.0
vt 0.0 1.0
vt 0.0 1.0
vt 0.0 1.0
vt 0.0 1.0
vt 0.0 1.0
vt 0.0 1.0
vt 0.0 1.0
vt 0.0 1.0
vt 0.0 1.0
vt 0.0 1.0
vt 0.0 1.0
vt 0.0 1.0
vt 0.0 1.0
vt 0.0 1.0
vt 0.0 1.0
vt 0.0 1.0
vt 0.0 1.0
vt 0.0 1.0
vt 0.0 1.0
vt 0.0 1.0
vt 0.0 1.0
vt 0.0 1.0
vt 0.0 1.0
vt 0.0 1.0
vt 0.0 1.0
vt 0.0 1.0
vt 0.0 1.0
vt 0.0 1.0
vt 0.0 1.0
vt 0.0 1.0
vt 0.0 1.0
vt 0.0 1.0
vt 0.0 1.0
vt 0.0 1.0
vt 0.0 1.0
vt 0.0 1.0
vt 0.0 1.0
vt 0.0 1.0
vt 0.0 1.0
vt 0.0 1.0
vt 0.0 1.0
vt 0.0 1.0
vt 0.0 1.0
vt 0.0 1.0
vt 0.0 1.0
vt 0.0 1.0
vt 0.0 1.0
vt 0.0 1.0
vt 0.0 1.0
vt 0.0 1.0
vt 0.0 1.0
vt 0.0 1.0
vt 0.0 1.0
vt 0.0 1.0
vt 0.0 1.0
vt 0.0 1.0
vt 0.0 1.0
vt 0.0 1.0
vt 0.0 1.0
vt 0.0 1.0
vt 0.0 1.0
vt 0.0 1.0
vt 0.0 1.0
vt 0.0 1.0
vt 0.0 1.0
vt 0.0 1.0
vt 0.0 1.0
vt 0.0 1.0
vt 0.0 1.0
vt 0.0 1.0
vt 0.0 1.0
vt 0.0 1.0
vt 0.0 1.0
vn -0.9449123740196228 -0.18358565866947174 -0.27099260687828064
vn -0.4105926752090454 -0.4716392457485199 -0.7803653478622437
vn -0.8237980008125305 -0.24885818362236023 0.5093393325805664
vn 0.24484482407569885 -0.8250062465667725 -0.5093287229537964
vn 0.36594557762145996 -0.8903014063835144 0.27101173996925354
vn -0.16835550963878632 -0.6022193431854248 0.7803770303726196
vn -0.9449160099029541 -0.18357019126415253 -0.2709902822971344
vn -0.41063788533210754 -0.47162681818008423 -0.78034907579422
vn 0.2448316365480423 -0.8249939680099487 -0.509354829788208
vn -0.16838397085666656 -0.6022102236747742 0.7803778648376465
vn -0.8237968683242798 -0.24886547029018402 0.5093374848365784
vn 0.365933895111084 -0.8902947306632996 0.2710490822792053
vn -0.6742839217185974 0.363544225692749 0.642788290977478
vn 0.15285032987594604 -0.08240233361721039 0.9848078489303589
vn -0.8271133899688721 0.44594621658325195 -0.34207504987716675
vn 0.827133059501648 -0.4459449350833893 0.342029333114624
vn -0.1528312712907791 0.08240589499473572 -0.9848105311393738
vn 0.6742674112319946 -0.3635324537754059 -0.642812192440033
vn -0.8002209663391113 0.5113780498504639 -0.31327125430107117
vn -0.21936661005020142 0.04791295900940895 -0.9744653105735779
vn 0.6051286458969116 -0.4774603843688965 -0.6370641589164734
vn -0.6051486134529114 0.4774450659751892 0.6370567083358765
vn -0.6614170074462891 0.6716132164001465 -0.3338611423969269
vn 0.160196915268898 -0.006396617740392685 0.9870643615722656
vn -0.34344908595085144 0.7573980093002319 0.5553296804428101
vn 0.7823552489280701 -0.4921190142631531 0.3817579746246338
vn 0.2832968235015869 0.1622500717639923 0.9452078342437744
vn 0.6582484841346741 -0.5990380644798279 0.45591938495635986
vn 0.3435130715370178 -0.7574269771575928 -0.5552504062652588
vn -0.36515504121780396 -0.04726998880505562 -0.9297458529472351
vn -0.07441216707229614 -0.9441528916358948 -0.3209955394268036
vn -0.5433133840560913 -0.1275828629732132 -0.8297790288925171
vn -0.431514710187912 0.7741862535476685 -0.4630666673183441
vn 0.4797590970993042 -0.6791581511497498 0.5554956793785095
vn -0.7140071988105774 -0.0987454280257225 -0.6931400299072266
vn 0.5133883357048035 0.2647401988506317 0.8162994980812073
vn -0.47456666827201843 -0.880219578742981 1.5031892871775199e-05
vn 0.30995482206344604 -0.6507322788238525 0.6931634545326233
vn 0.07440286874771118 0.9441633820533752 0.3209669291973114
vn 0.733641505241394 0.23036599159240723 0.6392976641654968
vn 0.47456827759742737 0.8802186846733093 5.1361939767957665e-06
vn -0.2107754647731781 0.7394998073577881 -0.6393072009086609
vn 0.8839580416679382 0.06497030705213547 0.46303021907806396
vn 0.747897744178772 0.581019401550293 -0.32103803753852844
vn -0.060965169221162796 0.5743892788887024 -0.816308856010437
vn 0.19202858209609985 -0.5240281820297241 0.8297707438468933
vn 0.9246083498001099 -0.18349233269691467 0.33381134271621704
vn -0.7478988170623779 -0.5810276865959167 0.32102054357528687
vn 0.16124345362186432 -0.3310266435146332 0.9297429323196411
vn -0.8310920000076294 0.027593355625867844 -0.5554499626159668
vn -0.821542501449585 -0.12923794984817505 0.555306613445282
vn -0.8622166514396667 0.2207331508398056 -0.4559158980846405
vn -0.02008689194917679 0.3258294463157654 -0.945215106010437
vn 0.8215460777282715 0.12927109003067017 -0.5552936792373657
vn -0.09339413046836853 0.13030721247196198 -0.9870650768280029
vn 0.7314625978469849 -0.2431921660900116 -0.6370400786399841
vn 0.8670121431350708 -0.38750115036964417 0.31326162815093994
vn -0.841122567653656 0.3831575810909271 -0.38171064853668213
vn 0.6742808818817139 -0.36353686451911926 -0.6427956819534302
vn -0.7314198613166809 0.2431904673576355 0.6370896697044373
vn -0.15287579596042633 0.08242563158273697 -0.9848020076751709
vn -0.8271483778953552 0.4459546208381653 -0.3419796824455261
vn 0.16062839329242706 -0.15691491961479187 0.97446209192276
vn -0.6742792725563049 0.36353442072868347 0.642798662185669
vn 0.15282760560512543 -0.08239752799272537 0.9848117828369141
vn 0.8271297812461853 -0.44594764709472656 0.34203362464904785
f 1/1/1 2/2/2 3/3/3
f 2/4/2 4/5/4 3/6/3
f 4/7/4 5/8/5 3/9/3
f 5/10/5 6/11/6 3/12/3
f 7/13/7 8/14/8 9/15/9
f 7/16/7 9/17/9 10/18/10
f 11/19/11 7/20/7 10/21/10
f 12/22/12 10/23/10 9/24/9
f 3/25/3 13/26/13 1/27/1
f 14/28/14 13/29/13 3/30/3
f 6/31/6 14/32/14 3/33/3
f 13/34/13 15/35/15 1/36/1
f 1/37/1 15/38/15 2/39/2
f 16/40/16 14/41/14 6/42/6
f 5/43/5 16/44/16 6/45/6
f 15/46/15 17/47/17 2/48/2
f 2/49/2 17/50/17 4/51/4
f 4/52/4 18/53/18 5/54/5
f 17/55/17 18/56/18 4/57/4
f 18/58/18 16/59/16 5/60/5
f 15/61/15 19/62/19 17/63/17
f 17/64/17 20/65/20 18/66/18
f 19/67/19 20/68/20 17/69/17
f 18/70/18 21/71/21 16/72/16
f 20/73/20 21/74/21 18/75/18
f 22/76/22 19/77/19 15/78/15
f 13/79/13 22/80/22 15/81/15
f 19/82/19 23/83/23 20/84/20
f 24/85/24 22/86/22 13/87/13
f 14/88/14 24/89/24 13/90/13
f 22/91/22 25/92/25 19/93/19
f 25/94/25 23/95/23 19/96/19
f 16/97/16 26/98/26 14/99/14
f 26/100/26 24/101/24 14/102/14
f 21/103/21 26/104/26 16/105/16
f 24/106/24 27/107/27 22/108/22
f 27/109/27 25/110/25 22/111/22
f 26/112/26 28/113/28 24/114/24
f 28/115/28 27/116/27 24/117/24
f 21/118/21 29/119/29 26/120/26
f 29/121/29 28/122/28 26/123/26
f 20/124/20 30/125/30 21/126/21
f 30/127/30 29/128/29 21/129/21
f 23/130/23 30/131/30 20/132/20
f 29/133/29 31/134/31 28/135/28
f 30/136/30 32/137/32 29/138/29
f 32/139/32 31/140/31 29/141/29
f 23/142/23 33/143/33 30/144/30
f 33/145/33 32/146/32 30/147/30
f 31/148/31 34/149/34 28/150/28
f 28/151/28 34/152/34 27/153/27
f 32/154/32 35/155/35 31/156/31
f 34/157/34 36/158/36 27/159/27
f 27/160/27 36/161/36 25/162/25
f 31/163/31 37/164/37 34/165/34
f 35/166/35 37/167/37 31/168/31
f 34/169/34 38/170/38 36/171/36
f 37/172/37 38/173/38 34/174/34
f 36/175/36 39/176/39 25/177/25
f 25/178/25 39/179/39 23/180/23
f 39/181/39 33/182/33 23/183/23
f 36/184/36 40/185/40 39/186/39
f 38/187/38 40/188/40 36/189/36
f 39/190/39 41/191/41 33/192/33
f 40/193/40 41/194/41 39/195/39
f 33/196/33 42/197/42 32/198/32
f 41/199/41 42/200/42 33/201/33
f 42/202/42 35/203/35 32/204/32
f 40/205/40 43/206/43 41/207/41
f 41/208/41 44/209/44 42/210/42
f 43/211/43 44/212/44 41/213/41
f 42/214/42 45/215/45 35/216/35
f 44/217/44 45/218/45 42/219/42
f 46/220/46 43/221/43 40/222/40
f 38/223/38 46/224/46 40/225/40
f 43/226/43 47/227/47 44/228/44
f 48/229/48 46/230/46 38/231/38
f 37/232/37 48/233/48 38/234/38
f 46/235/46 49/236/49 43/237/43
f 49/238/49 47/239/47 43/240/43
f 35/241/35 50/242/50 37/243/37
f 50/244/50 48/245/48 37/246/37
f 45/247/45 50/248/50 35/249/35
f 48/250/48 51/251/51 46/252/46
f 51/253/51 49/254/49 46/255/46
f 50/256/50 52/257/52 48/258/48
f 52/259/52 51/260/51 48/261/48
f 45/262/45 53/263/53 50/264/50
f 53/265/53 52/266/52 50/267/50
f 44/268/44 54/269/54 45/270/45
f 54/271/54 53/272/53 45/273/45
f 47/274/47 54/275/54 44/276/44
f 53/277/53 55/278/55 52/279/52
f 54/280/54 56/281/56 53/282/53
f 56/283/56 55/284/55 53/285/53
f 47/286/47 57/287/57 54/288/54
f 57/289/57 56/290/56 54/291/54
f 55/292/55 58/293/58 52/294/52
f 52/295/52 58/296/58 51/297/51
f 56/298/56 59/299/59 55/300/55
f 58/301/58 60/302/60 51/303/51
f 51/304/51 60/305/60 49/306/49
f 55/307/55 61/308/61 58/309/58
f 59/310/59 61/311/61 55/312/55
f 58/313/58 62/314/62 60/315/60
f 61/316/61 62/317/62 58/318/58
f 60/319/60 63/320/63 49/321/49
f 49/322/49 63/323/63 47/324/47
f 63/325/63 57/326/57 47/327/47
f 60/328/60 64/329/64 63/330/63
f 62/331/62 64/332/64 60/333/60
f 63/334/63 65/335/65 57/336/57
f 64/337/64 65/338/65 63/339/63
f 57/340/57 66/341/66 56/342/56
f 65/343/65 66/344/66 57/345/57
f 66/346/66 59/347/59 56/348/56
f 64/349/64 11/350/11 65/351/65
f 7/352/7 11/353/11 64/354/64
f 62/355/62 7/356/7 64/357/64
f 11/358/11 10/359/10 65/360/65
f 65/361/65 10/362/10 66/363/66
f 8/364/8 7/365/7 62/366/62
f 61/367/61 8/368/8 62/369/62
f 10/370/10 12/371/12 66/372/66
f 66/373/66 12/374/12 59/375/59
f 9/376/9 8/377/8 61/378/61
f 12/379/12 9/380/9 59/381/59
f 59/382/59 9/383/9 61/384/61
