# Exported by Lightwave Blender addon
v 136.4021759033203 -152.21444702148438 548.8751831054688
v 136.44253540039062 -152.11056518554688 550.7335205078125
v 241.46835327148438 -193.0463409423828 548.8750610351562
v 241.50875854492188 -192.94244384765625 550.7334594726562
v 136.37709045410156 -152.27894592285156 551.6834716796875
v 241.44329833984375 -193.11082458496094 551.6834106445312
v 136.1078338623047 -152.97174072265625 552.47021484375
v 241.17404174804688 -193.80364990234375 552.4700927734375
v 240.45590209960938 -195.65151977539062 553.0780029296875
v 135.3896942138672 -154.81964111328125 553.078125
v 239.73776245117188 -196.95596313476562 552.6842041015625
v 134.6715545654297 -156.12408447265625 552.6842651367188
v 239.46852111816406 -197.99034118652344 551.8233032226562
v 134.4022979736328 -157.15843200683594 551.8234252929688
v 134.3368682861328 -157.52874755859375 550.7335205078125
v 239.40306091308594 -198.36062622070312 550.7334594726562
v 239.4030303955078 -198.3606414794922 548.8751831054688
v 134.33685302734375 -157.52874755859375 548.8753051757812
v 134.4348602294922 -157.27655029296875 548.7239379882812
v 239.5010223388672 -198.10845947265625 548.723876953125
v 241.36705017089844 -193.30699157714844 548.723876953125
v 136.3008575439453 -152.47509765625 548.7239990234375
vt 0.23583984375 0.36962890625
vt 0.23583984375 0.35888671875
vt 0.8974609375 0.36962890625
vt 0.23583984375 0.35888671875
vt 0.8974609375 0.35888671875
vt 0.8974609375 0.36962890625
vt 0.23583984375 0.35888671875
vt 0.23583984375 0.353515625
vt 0.8974609375 0.35888671875
vt 0.23583984375 0.353515625
vt 0.8974609375 0.353515625
vt 0.8974609375 0.35888671875
vt 0.23583984375 0.353515625
vt 0.23583984375 0.34814453125
vt 0.8974609375 0.353515625
vt 0.23583984375 0.34814453125
vt 0.8974609375 0.34814453125
vt 0.8974609375 0.353515625
vt 0.8974609375 0.34130859375
vt 0.8974609375 0.34814453125
vt 0.23583984375 0.34814453125
vt 0.23583984375 0.34130859375
vt 0.8974609375 0.34130859375
vt 0.23583984375 0.34814453125
vt 0.8974609375 0.3359375
vt 0.8974609375 0.34130859375
vt 0.23583984375 0.34130859375
vt 0.23583984375 0.3359375
vt 0.8974609375 0.3359375
vt 0.23583984375 0.34130859375
vt 0.8974609375 0.330078125
vt 0.8974609375 0.3359375
vt 0.23583984375 0.3359375
vt 0.23583984375 0.330078125
vt 0.8974609375 0.330078125
vt 0.23583984375 0.3359375
vt 0.8974609375 0.330078125
vt 0.23583984375 0.330078125
vt 0.23583984375 0.32373046875
vt 0.8974609375 0.32373046875
vt 0.8974609375 0.330078125
vt 0.23583984375 0.32373046875
vt 0.8974609375 0.31298828125
vt 0.8974609375 0.32373046875
vt 0.23583984375 0.32373046875
vt 0.23583984375 0.31298828125
vt 0.8974609375 0.31298828125
vt 0.23583984375 0.32373046875
vt 0.23583984375 0.31298828125
vt 0.23583984375 0.31201171875
vt 0.8974609375 0.31298828125
vt 0.23583984375 0.31201171875
vt 0.8974609375 0.31201171875
vt 0.8974609375 0.31298828125
vt 0.8974609375 0.29541015625
vt 0.8974609375 0.31201171875
vt 0.23583984375 0.31201171875
vt 0.23583984375 0.29541015625
vt 0.8974609375 0.29541015625
vt 0.23583984375 0.31201171875
vt 0.8974609375 0.29541015625
vt 0.23583984375 0.29541015625
vt 0.23583984375 0.29443359375
vt 0.8974609375 0.29443359375
vt 0.8974609375 0.29541015625
vt 0.23583984375 0.29443359375
vn 0.3054451048374176 0.7859546542167664 -0.5375672578811646
vn 0.3614948093891144 0.9301770925521851 0.06396966427564621
vn 0.30544736981391907 0.7859607934951782 -0.537557065486908
vn 0.3614948093891144 0.9301773309707642 0.06396517157554626
vn 0.3225539028644562 0.8299762606620789 0.4550805985927582
vn 0.32254934310913086 0.8299636840820312 0.4551069438457489
vn 0.19108305871486664 0.4916817545890808 0.8495506644248962
vn 0.1910754144191742 0.4916611909866333 0.8495643138885498
vn 0.011079479940235615 0.02850598469376564 0.9995322227478027
vn 0.0025912674609571695 0.006665477529168129 0.9999744296073914
vn -0.16361045837402344 -0.42099496722221375 0.892185389995575
vn -0.16528238356113434 -0.42529672384262085 0.889833927154541
vn -0.3002643287181854 -0.7726234197616577 0.559369683265686
vn -0.29440900683403015 -0.7575573921203613 0.5826063752174377
vn -0.3572315275669098 -0.9192071557044983 0.16566167771816254
vn -0.3576221466064453 -0.9202125668525696 0.15910747647285461
vn -0.3124645948410034 -0.8040145039558411 -0.5058919191360474
vn -0.31247296929359436 -0.8040351867675781 -0.5058537125587463
vn -0.09138043224811554 -0.23513175547122955 -0.9676584005355835
vn -0.0913597047328949 -0.23507972061634064 -0.9676729440689087
vn 0.08884909003973007 0.22862328588962555 -0.9694520235061646
vn 0.08884788304567337 0.2286209613084793 -0.9694527387619019
f 1/1/1 2/2/2 3/3/3
f 2/4/2 4/5/4 3/6/3
f 2/7/2 5/8/5 4/9/4
f 5/10/5 6/11/6 4/12/4
f 5/13/5 7/14/7 6/15/6
f 7/16/7 8/17/8 6/18/6
f 9/19/9 8/20/8 7/21/7
f 10/22/10 9/23/9 7/24/7
f 11/25/11 9/26/9 10/27/10
f 12/28/12 11/29/11 10/30/10
f 13/31/13 11/32/11 12/33/12
f 14/34/14 13/35/13 12/36/12
f 13/37/13 14/38/14 15/39/15
f 16/40/16 13/41/13 15/42/15
f 17/43/17 16/44/16 15/45/15
f 18/46/18 17/47/17 15/48/15
f 18/49/18 19/50/19 17/51/17
f 19/52/19 20/53/20 17/54/17
f 21/55/21 20/56/20 19/57/19
f 22/58/22 21/59/21 19/60/19
f 21/61/21 22/62/22 1/63/1
f 3/64/3 21/65/21 1/66/1
