# Exported by Lightwave Blender addon
v -232.76321411132812 -1589.22412109375 493.5360412597656
v -233.3103485107422 -1587.9200439453125 492.5360412597656
v -232.53482055664062 -1588.66552734375 494.45404052734375
v -255.20994567871094 -1644.11865234375 494.4532775878906
v -256.2869567871094 -1644.1103515625 492.5368957519531
v -254.9829559326172 -1643.5633544921875 493.5368957519531
v -257.39605712890625 -1589.372802734375 517.45556640625
v -263.027099609375 -1584.731689453125 510.5408020019531
v -272.7192687988281 -1626.846435546875 517.4557495117188
v -279.7261657714844 -1625.5697021484375 510.5407409667969
v -236.95901489257812 -1599.489013671875 524.044189453125
v -251.225830078125 -1593.6563720703125 524.0430908203125
v -250.99444580078125 -1633.813232421875 524.0436401367188
v -265.2597961425781 -1627.9786376953125 524.04248046875
v -252.73143005371094 -1592.865234375 523.3221435546875
v -266.8932800292969 -1627.5003662109375 523.321533203125
v -233.6893310546875 -1588.845703125 446.55133056640625
v -255.9090118408203 -1643.1846923828125 446.5521545410156
v -260.2018737792969 -1578.0050048828125 446.5524597167969
v -282.0184326171875 -1632.503173828125 446.5520935058594
v -259.8297424316406 -1577.0765380859375 492.5371398925781
v -259.8302307128906 -1577.076416015625 447.55242919921875
v -233.31082153320312 -1587.9200439453125 447.5513610839844
v -232.76368713378906 -1589.22412109375 447.5513000488281
v -254.9834442138672 -1643.5633544921875 447.5521545410156
v -282.3896484375 -1633.431884765625 492.5368957519531
v -256.2874755859375 -1644.1103515625 447.5521545410156
v -282.3901062011719 -1633.431884765625 447.5521545410156
v -282.94403076171875 -1632.1246337890625 447.5520935058594
v -261.1274719238281 -1577.62646484375 447.5524597167969
v -261.12701416015625 -1577.6265869140625 493.53717041015625
v -282.2494812011719 -1633.0565185546875 494.4532165527344
v -279.8975524902344 -1626.75537109375 509.8363952636719
v -252.66661071777344 -1637.89794921875 509.8363342285156
v -272.1725769042969 -1628.1517333984375 517.4557495117188
v -252.0540771484375 -1636.40380859375 517.455810546875
v -266.2594299316406 -1628.9337158203125 523.0774536132812
v -251.47267150878906 -1634.982666015625 523.0789184570312
v -251.2796630859375 -1592.2943115234375 523.0723266601562
v -236.48951721191406 -1598.3408203125 523.0735473632812
v -256.09185791015625 -1588.8255615234375 517.45556640625
v -235.9627227783203 -1597.0516357421875 517.45556640625
v -262.2862548828125 -1583.6865234375 509.8364562988281
v -235.0499267578125 -1594.8157958984375 509.83636474609375
v -259.9678955078125 -1577.448486328125 494.4551696777344
v -282.94354248046875 -1632.1246337890625 493.5368347167969
v -263.4583435058594 -1583.917236328125 508.8364562988281
v -280.5782165527344 -1625.77001953125 508.8364562988281
vt -0.8857421875 0.557861328125
vt -0.890625 0.562744140625
vt -0.888671875 0.55322265625
vt -0.5888671875 0.55322265625
vt -0.5869140625 0.562744140625
vt -0.591796875 0.557861328125
vt -0.83837890625 0.46240234375
vt -0.84912109375 0.427734375
vt -0.6357421875 0.46240234375
vt -0.84912109375 0.427734375
vt -0.62841796875 0.427734375
vt -0.6357421875 0.46240234375
vt -0.830078125 0.576171875
vt -0.830078125 0.49951171875
vt -0.64453125 0.576171875
vt -0.830078125 0.49951171875
vt -0.64453125 0.49951171875
vt -0.64453125 0.576171875
vt 1.8310546875 0.4091796875
vt 1.837890625 0.4384765625
vt 1.6435546875 0.4091796875
vt 1.837890625 0.4384765625
vt 1.6357421875 0.4384765625
vt 1.6435546875 0.4091796875
vt 1.8857421875 0.5712890625
vt 1.591796875 0.5712890625
vt 1.8857421875 0.42822265625
vt 1.591796875 0.5712890625
vt 1.591796875 0.43017578125
vt 1.8857421875 0.42822265625
vt 0.427734375 0.562744140625
vt 0.57080078125 0.562744140625
vt 0.427734375 0.78759765625
vt 0.57080078125 0.562744140625
vt 0.57080078125 0.7877197265625
vt 0.427734375 0.78759765625
vt -0.8857421875 0.557861328125
vt -0.591796875 0.557861328125
vt -0.8857421875 0.7877197265625
vt -0.591796875 0.557861328125
vt -0.591796875 0.78759765625
vt -0.8857421875 0.7877197265625
vt 0.4287109375 0.562744140625
vt 0.56982421875 0.562744140625
vt 0.4287109375 0.78759765625
vt 0.56982421875 0.562744140625
vt 0.56982421875 0.78759765625
vt 0.4287109375 0.78759765625
vt 1.591796875 0.7926025390625
vt 1.591796875 0.78759765625
vt 1.8857421875 0.7926025390625
vt 1.591796875 0.78759765625
vt 1.8857421875 0.78759765625
vt 1.8857421875 0.7926025390625
vt 1.8857421875 0.557861328125
vt 1.890625 0.562744140625
vt 1.8857421875 0.78759765625
vt 1.890625 0.562744140625
vt 1.890625 0.78759765625
vt 1.8857421875 0.78759765625
vt 0.423828125 0.557861328125
vt 0.4287109375 0.562744140625
vt 0.423828125 0.78759765625
vt 0.4287109375 0.562744140625
vt 0.4287109375 0.78759765625
vt 0.423828125 0.78759765625
vt 0.56982421875 0.55322265625
vt 0.423828125 0.55322265625
vt 0.57080078125 0.4765625
vt 0.423828125 0.55322265625
vt 0.423828125 0.4765625
vt 0.57080078125 0.4765625
vt 0.57080078125 0.4765625
vt 0.423828125 0.4765625
vt 0.5322265625 0.4384765625
vt 0.423828125 0.4765625
vt 0.423828125 0.4384765625
vt 0.5322265625 0.4384765625
vt 0.5322265625 0.4384765625
vt 0.423828125 0.4384765625
vt 0.50341796875 0.41015625
vt 0.423828125 0.4384765625
vt 0.423828125 0.41015625
vt 0.50341796875 0.41015625
vt 0.49609375 0.41015625
vt 0.57568359375 0.41015625
vt 0.46728515625 0.4384765625
vt 0.57568359375 0.41015625
vt 0.57568359375 0.4384765625
vt 0.46728515625 0.4384765625
vt 0.46728515625 0.4384765625
vt 0.57568359375 0.4384765625
vt 0.428955078125 0.4765625
vt 0.57568359375 0.4384765625
vt 0.57568359375 0.4765625
vt 0.428955078125 0.4765625
vt 0.428955078125 0.4765625
vt 0.57568359375 0.4765625
vt 0.427734375 0.55322265625
vt 0.57568359375 0.4765625
vt 0.57568359375 0.55322265625
vt 0.427734375 0.55322265625
vt 0.57568359375 0.7877197265625
vt 0.57080078125 0.7926025390625
vt 0.57080078125 0.7877197265625
vt 0.57568359375 0.557861328125
vt 0.57568359375 0.7877197265625
vt 0.57080078125 0.7877197265625
vt 0.57080078125 0.562744140625
vt 0.57568359375 0.557861328125
vt 0.57080078125 0.7877197265625
vt -0.62841796875 0.427734375
vt -0.62255859375 0.42919921875
vt -0.6357421875 0.46240234375
vt -0.62255859375 0.42919921875
vt -0.630859375 0.4677734375
vt -0.6357421875 0.46240234375
vt -0.6357421875 0.46240234375
vt -0.630859375 0.4677734375
vt -0.64404296875 0.49072265625
vt -0.630859375 0.4677734375
vt -0.63818359375 0.49658203125
vt -0.64404296875 0.49072265625
vt -0.63818359375 0.576171875
vt -0.64453125 0.576171875
vt -0.63818359375 0.49658203125
vt -0.64453125 0.576171875
vt -0.64453125 0.49951171875
vt -0.63818359375 0.49658203125
vt -0.63818359375 0.49658203125
vt -0.64453125 0.49951171875
vt -0.64404296875 0.49072265625
vt -0.8310546875 0.49072265625
vt -0.64404296875 0.49072265625
vt -0.64453125 0.49951171875
vt -0.830078125 0.49951171875
vt -0.8310546875 0.49072265625
vt -0.64453125 0.49951171875
vt -0.830078125 0.576171875
vt -0.83642578125 0.576171875
vt -0.830078125 0.49951171875
vt -0.83642578125 0.576171875
vt -0.83642578125 0.49658203125
vt -0.830078125 0.49951171875
vt -0.8310546875 0.49072265625
vt -0.830078125 0.49951171875
vt -0.83642578125 0.49658203125
vt -0.8310546875 0.49072265625
vt -0.83642578125 0.49658203125
vt -0.83837890625 0.46240234375
vt -0.83642578125 0.49658203125
vt -0.84326171875 0.4677734375
vt -0.83837890625 0.46240234375
vt -0.83837890625 0.46240234375
vt -0.84326171875 0.4677734375
vt -0.84912109375 0.427734375
vt -0.84326171875 0.4677734375
vt -0.85546875 0.42919921875
vt -0.84912109375 0.427734375
vt 1.8857421875 0.5712890625
vt 1.8857421875 0.576171875
vt 1.591796875 0.5712890625
vt 1.8857421875 0.576171875
vt 1.591796875 0.576171875
vt 1.591796875 0.5712890625
vt 1.5869140625 0.5712890625
vt 1.591796875 0.5712890625
vt 1.591796875 0.576171875
vt 0.4287109375 0.7926025390625
vt 0.4287109375 0.78759765625
vt 0.56982421875 0.7926025390625
vt 0.4287109375 0.78759765625
vt 0.56982421875 0.78759765625
vt 0.56982421875 0.7926025390625
vt 0.57470703125 0.78759765625
vt 0.56982421875 0.7926025390625
vt 0.56982421875 0.78759765625
vt 0.57470703125 0.557861328125
vt 0.57470703125 0.78759765625
vt 0.56982421875 0.78759765625
vt 0.56982421875 0.562744140625
vt 0.57470703125 0.557861328125
vt 0.56982421875 0.78759765625
vt 0.57470703125 0.557861328125
vt 0.56982421875 0.562744140625
vt 0.56982421875 0.55322265625
vt 0.423828125 0.55322265625
vt 0.56982421875 0.55322265625
vt 0.56982421875 0.562744140625
vt 0.4287109375 0.562744140625
vt 0.423828125 0.55322265625
vt 0.56982421875 0.562744140625
vt 0.427734375 0.55322265625
vt 0.427734375 0.562744140625
vt 0.4228515625 0.557861328125
vt 0.427734375 0.562744140625
vt 0.427734375 0.55322265625
vt 0.57080078125 0.562744140625
vt 0.427734375 0.55322265625
vt 0.57568359375 0.55322265625
vt 0.57080078125 0.562744140625
vt 1.890625 0.42822265625
vt 1.8857421875 0.42822265625
vt 1.8857421875 0.42333984375
vt 1.8857421875 0.42822265625
vt 1.890625 0.42822265625
vt 1.8857421875 0.5712890625
vt 1.890625 0.42822265625
vt 1.890625 0.5712890625
vt 1.8857421875 0.5712890625
vt 1.85546875 0.4765625
vt 1.888671875 0.55322265625
vt 1.8857421875 0.557861328125
vt 1.8515625 0.4814453125
vt 1.85546875 0.4765625
vt 1.8857421875 0.557861328125
vt 1.85546875 0.4765625
vt 1.8515625 0.4814453125
vt 1.8486328125 0.47265625
vt 1.6279296875 0.47265625
vt 1.8486328125 0.47265625
vt 1.8515625 0.4814453125
vt 1.6259765625 0.4814453125
vt 1.6279296875 0.47265625
vt 1.8515625 0.4814453125
vt 1.6259765625 0.4814453125
vt 1.6220703125 0.4765625
vt 1.6279296875 0.47265625
vt 1.5888671875 0.55322265625
vt 1.6220703125 0.4765625
vt 1.6259765625 0.4814453125
vt 1.591796875 0.557861328125
vt 1.5888671875 0.55322265625
vt 1.6259765625 0.4814453125
vt 1.8515625 0.4814453125
vt 1.8857421875 0.557861328125
vt 1.6259765625 0.4814453125
vt 1.8857421875 0.557861328125
vt 1.591796875 0.557861328125
vt 1.6259765625 0.4814453125
vt 1.591796875 0.557861328125
vt 1.8857421875 0.557861328125
vt 1.591796875 0.78759765625
vt 1.8857421875 0.557861328125
vt 1.8857421875 0.78759765625
vt 1.591796875 0.78759765625
vn 0.9901731610298157 0.007135113701224327 -0.1396641880273819
vn 0.6727336645126343 0.7386155724525452 0.0433167926967144
vn 0.5775854587554932 0.7960261106491089 0.18093468248844147
vn -0.14553385972976685 -0.9721229672431946 0.1838393360376358
vn -0.03778927028179169 -0.998308002948761 0.04419359937310219
vn 0.7012550830841064 -0.6991509795188904 -0.13938932120800018
vn -0.49069902300834656 0.4942092001438141 0.7176153063774109
vn -0.6148788928985596 0.5136168599128723 0.5984326004981995
vn -0.7067437767982483 -0.016068873926997185 0.7072871327400208
vn -0.8063789010047913 0.05856283754110336 0.5884925127029419
vn 0.12327257543802261 0.301706463098526 0.9453978538513184
vn -0.04141910374164581 0.32953494787216187 0.943234384059906
vn -0.12136542797088623 -0.2964792549610138 0.9472964406013489
vn -0.25841832160949707 -0.20120011270046234 0.9448484778404236
vn -0.3790726661682129 0.47211721539497375 0.7958701848983765
vn -0.593737781047821 -0.06259335577487946 0.8022204637527466
vn 0.4454256296157837 0.18689052760601044 -0.8755958080291748
vn 0.18684129416942596 -0.44545355439186096 -0.875592052936554
vn -0.18829798698425293 0.4440824091434479 -0.8759763836860657
vn -0.44542160630226135 -0.1887260377407074 -0.8752040266990662
vn 0.016468944028019905 0.9967036843299866 0.0794399306178093
vn 0.013201004825532436 0.9396577477455139 -0.3418610990047455
vn 0.6475507616996765 0.6811680793762207 -0.3415962755680084
vn 0.9397208094596863 -0.015215899795293808 -0.34160399436950684
vn 0.6811244487762451 -0.6475955247879028 -0.3415985405445099
vn -0.6836286187171936 -0.7255086898803711 0.07930509001016617
vn -0.015325671061873436 -0.9397194385528564 -0.34160280227661133
vn -0.6462938189506531 -0.6824716329574585 -0.34137484431266785
vn -0.9398810267448425 0.010301115922629833 -0.34134653210639954
vn -0.6845459938049316 0.6438577175140381 -0.34182456135749817
vn -0.6623830795288086 0.7422413229942322 0.10161911696195602
vn -0.6552117466926575 -0.6956243515014648 0.2946256995201111
vn -0.7099535465240479 -0.5349767804145813 0.45800191164016724
vn -0.3608859181404114 -0.8811011910438538 0.30565017461776733
vn -0.5810478329658508 -0.6578517556190491 0.47918084263801575
vn -0.3685277998447418 -0.8993688821792603 0.2352081835269928
vn -0.45173078775405884 -0.658700704574585 0.6017082333564758
vn -0.31410735845565796 -0.7677052617073059 0.558538556098938
vn 0.13857035338878632 0.7969347238540649 0.5879569053649902
vn 0.3175061345100403 0.7768697738647461 0.5437492728233337
vn 0.03791698068380356 0.8505619764328003 0.5245060324668884
vn 0.3640710115432739 0.8909193873405457 0.27150481939315796
vn -0.13003532588481903 0.8664159774780273 0.4820936322212219
vn 0.3544251322746277 0.8671703934669495 0.34985455870628357
vn 0.01774475909769535 0.9546386003494263 0.29723793268203735
vn -0.992583155632019 -0.07588087767362595 0.0949782058596611
vn -0.740781307220459 0.6182836294174194 0.26261842250823975
vn -0.9658673405647278 0.07114125788211823 0.24907678365707397
f 1/1/1 2/2/2 3/3/3
f 4/4/4 5/5/5 6/6/6
f 7/7/7 8/8/8 9/9/9
f 8/10/8 10/11/10 9/12/9
f 11/13/11 12/14/12 13/15/13
f 12/16/12 14/17/14 13/18/13
f 15/19/15 7/20/7 16/21/16
f 7/22/7 9/23/9 16/24/16
f 17/25/17 18/26/18 19/27/19
f 18/28/18 20/29/20 19/30/19
f 21/31/21 2/32/2 22/33/22
f 2/34/2 23/35/23 22/36/22
f 1/37/1 6/38/6 24/39/24
f 6/40/6 25/41/25 24/42/24
f 5/43/5 26/44/26 27/45/27
f 26/46/26 28/47/28 27/48/27
f 20/49/20 29/50/29 19/51/19
f 29/52/29 30/53/30 19/54/19
f 31/55/31 21/56/21 30/57/30
f 21/58/21 22/59/22 30/60/30
f 6/61/6 5/62/5 25/63/25
f 5/64/5 27/65/27 25/66/25
f 32/67/32 4/68/4 33/69/33
f 4/70/4 34/71/34 33/72/33
f 33/73/33 34/74/34 35/75/35
f 34/76/34 36/77/36 35/78/35
f 35/79/35 36/80/36 37/81/37
f 36/82/36 38/83/38 37/84/37
f 39/85/39 40/86/40 41/87/41
f 40/88/40 42/89/42 41/90/41
f 41/91/41 42/92/42 43/93/43
f 42/94/42 44/95/44 43/96/43
f 43/97/43 44/98/44 45/99/45
f 44/100/44 3/101/3 45/102/45
f 24/103/24 17/104/17 23/105/23
f 1/106/1 24/107/24 23/108/23
f 2/109/2 1/110/1 23/111/23
f 10/112/10 33/113/33 9/114/9
f 33/115/33 35/116/35 9/117/9
f 9/118/9 35/119/35 16/120/16
f 35/121/35 37/122/37 16/123/16
f 38/124/38 13/125/13 37/126/37
f 13/127/13 14/128/14 37/129/37
f 37/130/37 14/131/14 16/132/16
f 15/133/15 16/134/16 14/135/14
f 12/136/12 15/137/15 14/138/14
f 11/139/11 40/140/40 12/141/12
f 40/142/40 39/143/39 12/144/12
f 15/145/15 12/146/12 39/147/39
f 15/148/15 39/149/39 7/150/7
f 39/151/39 41/152/41 7/153/7
f 7/154/7 41/155/41 8/156/8
f 41/157/41 43/158/43 8/159/8
f 17/160/17 24/161/24 18/162/18
f 24/163/24 25/164/25 18/165/18
f 27/166/27 18/167/18 25/168/25
f 18/169/18 27/170/27 20/171/20
f 27/172/27 28/173/28 20/174/20
f 29/175/29 20/176/20 28/177/28
f 46/178/46 29/179/29 28/180/28
f 26/181/26 46/182/46 28/183/28
f 46/184/46 26/185/26 32/186/32
f 4/187/4 32/188/32 26/189/26
f 5/190/5 4/191/4 26/192/26
f 45/193/45 21/194/21 31/195/31
f 21/196/21 45/197/45 2/198/2
f 45/199/45 3/200/3 2/201/2
f 22/202/22 19/203/19 30/204/30
f 19/205/19 22/206/22 17/207/17
f 22/208/22 23/209/23 17/210/17
f 43/211/43 45/212/45 31/213/31
f 47/214/47 43/215/43 31/216/31
f 43/217/43 47/218/47 8/219/8
f 10/220/10 8/221/8 47/222/47
f 48/223/48 10/224/10 47/225/47
f 48/226/48 33/227/33 10/228/10
f 32/229/32 33/230/33 48/231/48
f 46/232/46 32/233/32 48/234/48
f 47/235/47 31/236/31 48/237/48
f 31/238/31 46/239/46 48/240/48
f 46/241/46 31/242/31 29/243/29
f 31/244/31 30/245/30 29/246/29
