# Exported by Lightwave Blender addon
v 450.7368469238281 -292.43341064453125 1047.0675048828125
v 456.6369323730469 -277.6618347167969 1047.0673828125
v 460.5966491699219 -279.24407958984375 1009.5225830078125
v 456.411376953125 -289.7223815917969 1009.5225830078125
v 457.1571350097656 -291.0214538574219 1009.5186767578125
v 451.48138427734375 -293.7330627441406 1047.0714111328125
v 455.8257751464844 -294.9415588378906 1043.095703125
v 471.916748046875 -301.3700866699219 1043.0958251953125
v 475.8982238769531 -303.4879150390625 1047.071533203125
v 460.2669677734375 -292.7855224609375 1013.4529418945312
v 473.6510925292969 -297.61102294921875 1009.5186767578125
v 475.0865478515625 -297.1833801269531 1009.522705078125
v 479.27142333984375 -286.7059020996094 1009.5226440429688
v 483.2327575683594 -288.2885437011719 1047.0675048828125
v 477.3331298828125 -303.0589599609375 1047.0675048828125
v 470.18206787109375 -296.7467346191406 1013.4530029296875
v 469.3167419433594 -296.1475830078125 1014.190673828125
v 471.3681640625 -300.6928405761719 1042.105712890625
v 469.7093505859375 -296.3567199707031 1014.58251953125
v 461.3069152832031 -292.9475402832031 1014.1906127929688
v 468.81890869140625 -294.9510498046875 1015.3265380859375
v 460.8782958984375 -292.8285827636719 1014.5823974609375
v 462.4922790527344 -292.4234619140625 1015.32666015625
v 462.0640563964844 -292.3043518066406 1015.718505859375
v 456.68994140625 -294.82867431640625 1042.1055908203125
v 468.38555908203125 -294.8560791015625 1015.915771484375
v 456.99932861328125 -295.00457763671875 1042.4974365234375
v 458.2112731933594 -294.14501953125 1041.2093505859375
v 471.02276611328125 -300.6071472167969 1042.49755859375
v 458.52099609375 -294.3207092285156 1041.601318359375
v 470.3911437988281 -299.06298828125 1041.6014404296875
v 470.7366638183594 -299.1490478515625 1041.20947265625
v 469.2113342285156 -295.1597900390625 1015.7184448242188
v 470.15216064453125 -298.84954833984375 1040.7117919921875
v 469.8873291015625 -298.7835693359375 1041.01220703125
v 459.0786437988281 -294.4653625488281 1041.01220703125
v 468.6863708496094 -295.01605224609375 1016.2161254882812
v 458.8411865234375 -294.3306884765625 1040.711669921875
v 463.6370849609375 -298.74169921875 1038.365478515625
v 463.86383056640625 -298.8941650390625 1037.9056396484375
v 463.3677062988281 -298.69598388671875 1037.9056396484375
v 464.9890441894531 -296.0818786621094 1018.5821533203125
v 462.5435485839844 -292.5618896484375 1016.216064453125
v 464.4886169433594 -295.8819885253906 1018.5821533203125
v 464.81390380859375 -295.7940368652344 1018.0924072265625
v 462.8717956542969 -292.6532287597656 1015.9157104492188
v 461.78814697265625 -279.7201843261719 1008.605224609375
v 457.64599609375 -290.0906677246094 1008.6051635742188
v 478.079833984375 -286.22979736328125 1008.605224609375
v 473.93798828125 -296.59954833984375 1008.6052856445312
v 482.25445556640625 -287.89764404296875 1047.9849853515625
v 476.3055419921875 -302.7914123535156 1047.9849853515625
v 457.6152648925781 -278.052734375 1047.98486328125
v 451.666015625 -292.9476013183594 1047.98486328125
vt 0.20263671875 0.2802734375
vt 0.12493896484375 0.26171875
vt 0.1688232421875 0.0771484375
vt 0.2239990234375 0.08984375
vt 0.20263671875 0.2802734375
vt 0.1688232421875 0.0771484375
vt 0.20263671875 0.2802734375
vt 0.2239990234375 0.08984375
vt 0.2315673828125 0.0908203125
vt 0.2100830078125 0.28076171875
vt 0.20263671875 0.2802734375
vt 0.2315673828125 0.0908203125
vt 0.2100830078125 0.28076171875
vt 0.2315673828125 0.0908203125
vt 0.232421875 0.26123046875
vt 0.2100830078125 0.28076171875
vt 0.232421875 0.26123046875
vt 0.320068359375 0.26123046875
vt 0.34228515625 0.28076171875
vt 0.2100830078125 0.28076171875
vt 0.320068359375 0.26123046875
vt 0.2315673828125 0.0908203125
vt 0.2491455078125 0.1103515625
vt 0.232421875 0.26123046875
vt 0.2315673828125 0.0908203125
vt 0.32080078125 0.0908203125
vt 0.2491455078125 0.1103515625
vt 0.32080078125 0.0908203125
vt 0.328369140625 0.08984375
vt 0.34228515625 0.28076171875
vt 0.328369140625 0.08984375
vt 0.383544921875 0.0771484375
vt 0.427490234375 0.26171875
vt 0.349853515625 0.2802734375
vt 0.328369140625 0.08984375
vt 0.427490234375 0.26171875
vt 0.328369140625 0.08984375
vt 0.349853515625 0.2802734375
vt 0.34228515625 0.28076171875
vt 0.32080078125 0.0908203125
vt 0.34228515625 0.28076171875
vt 0.30322265625 0.1103515625
vt 0.32080078125 0.0908203125
vt 0.30322265625 0.1103515625
vt 0.2491455078125 0.1103515625
vt 0.34228515625 0.28076171875
vt 0.320068359375 0.26123046875
vt 0.30322265625 0.1103515625
vt 0.2491455078125 0.1103515625
vt 0.30322265625 0.1103515625
vt 0.298095703125 0.11376953125
vt 0.30322265625 0.1103515625
vt 0.320068359375 0.26123046875
vt 0.316650390625 0.255859375
vt 0.30322265625 0.1103515625
vt 0.30078125 0.11572265625
vt 0.298095703125 0.11376953125
vt 0.30078125 0.11572265625
vt 0.30322265625 0.1103515625
vt 0.316650390625 0.255859375
vt 0.254150390625 0.11376953125
vt 0.2491455078125 0.1103515625
vt 0.298095703125 0.11376953125
vt 0.298095703125 0.11376953125
vt 0.30078125 0.11572265625
vt 0.293212890625 0.11962890625
vt 0.2491455078125 0.1103515625
vt 0.254150390625 0.11376953125
vt 0.25146484375 0.11572265625
vt 0.232421875 0.26123046875
vt 0.2491455078125 0.1103515625
vt 0.25146484375 0.11572265625
vt 0.254150390625 0.11376953125
vt 0.298095703125 0.11376953125
vt 0.259033203125 0.11962890625
vt 0.298095703125 0.11376953125
vt 0.293212890625 0.11962890625
vt 0.259033203125 0.11962890625
vt 0.25146484375 0.11572265625
vt 0.254150390625 0.11376953125
vt 0.257080078125 0.12158203125
vt 0.254150390625 0.11376953125
vt 0.259033203125 0.11962890625
vt 0.257080078125 0.12158203125
vt 0.23583984375 0.255859375
vt 0.232421875 0.26123046875
vt 0.25146484375 0.11572265625
vt 0.259033203125 0.11962890625
vt 0.293212890625 0.11962890625
vt 0.291259765625 0.1220703125
vt 0.232421875 0.26123046875
vt 0.23583984375 0.255859375
vt 0.238037109375 0.25830078125
vt 0.320068359375 0.26123046875
vt 0.232421875 0.26123046875
vt 0.238037109375 0.25830078125
vt 0.23583984375 0.255859375
vt 0.25146484375 0.11572265625
vt 0.2425537109375 0.25048828125
vt 0.25146484375 0.11572265625
vt 0.257080078125 0.12158203125
vt 0.2425537109375 0.25048828125
vt 0.314453125 0.25830078125
vt 0.320068359375 0.26123046875
vt 0.238037109375 0.25830078125
vt 0.320068359375 0.26123046875
vt 0.314453125 0.25830078125
vt 0.316650390625 0.255859375
vt 0.238037109375 0.25830078125
vt 0.23583984375 0.255859375
vt 0.244140625 0.251953125
vt 0.23583984375 0.255859375
vt 0.2425537109375 0.25048828125
vt 0.244140625 0.251953125
vt 0.314453125 0.25830078125
vt 0.238037109375 0.25830078125
vt 0.30810546875 0.251953125
vt 0.238037109375 0.25830078125
vt 0.244140625 0.251953125
vt 0.30810546875 0.251953125
vt 0.316650390625 0.255859375
vt 0.314453125 0.25830078125
vt 0.309814453125 0.25048828125
vt 0.314453125 0.25830078125
vt 0.30810546875 0.251953125
vt 0.309814453125 0.25048828125
vt 0.316650390625 0.255859375
vt 0.309814453125 0.25048828125
vt 0.29541015625 0.12158203125
vt 0.30078125 0.11572265625
vt 0.316650390625 0.255859375
vt 0.29541015625 0.12158203125
vt 0.30078125 0.11572265625
vt 0.29541015625 0.12158203125
vt 0.293212890625 0.11962890625
vt 0.293212890625 0.11962890625
vt 0.29541015625 0.12158203125
vt 0.291259765625 0.1220703125
vt 0.309814453125 0.25048828125
vt 0.30810546875 0.251953125
vt 0.3076171875 0.248046875
vt 0.29541015625 0.12158203125
vt 0.309814453125 0.25048828125
vt 0.3076171875 0.248046875
vt 0.30810546875 0.251953125
vt 0.244140625 0.251953125
vt 0.3056640625 0.25
vt 0.30810546875 0.251953125
vt 0.3056640625 0.25
vt 0.3076171875 0.248046875
vt 0.244140625 0.251953125
vt 0.2467041015625 0.25
vt 0.3056640625 0.25
vt 0.244140625 0.251953125
vt 0.2425537109375 0.25048828125
vt 0.2467041015625 0.25
vt 0.29345703125 0.12353515625
vt 0.29541015625 0.12158203125
vt 0.3076171875 0.248046875
vt 0.29541015625 0.12158203125
vt 0.29345703125 0.12353515625
vt 0.291259765625 0.1220703125
vt 0.2425537109375 0.25048828125
vt 0.244873046875 0.248046875
vt 0.2467041015625 0.25
vt 0.2425537109375 0.25048828125
vt 0.257080078125 0.12158203125
vt 0.244873046875 0.248046875
vt 0.3056640625 0.25
vt 0.2467041015625 0.25
vt 0.276123046875 0.2353515625
vt 0.2467041015625 0.25
vt 0.244873046875 0.248046875
vt 0.276123046875 0.2353515625
vt 0.3056640625 0.25
vt 0.276123046875 0.2353515625
vt 0.27685546875 0.23486328125
vt 0.3076171875 0.248046875
vt 0.3056640625 0.25
vt 0.27685546875 0.23486328125
vt 0.244873046875 0.248046875
vt 0.275390625 0.23486328125
vt 0.276123046875 0.2353515625
vt 0.276123046875 0.2353515625
vt 0.275390625 0.23486328125
vt 0.27685546875 0.23486328125
vt 0.3076171875 0.248046875
vt 0.27685546875 0.23486328125
vt 0.277099609375 0.1376953125
vt 0.27685546875 0.23486328125
vt 0.275390625 0.23486328125
vt 0.277099609375 0.1376953125
vt 0.29345703125 0.12353515625
vt 0.3076171875 0.248046875
vt 0.277099609375 0.1376953125
vt 0.244873046875 0.248046875
vt 0.2587890625 0.12353515625
vt 0.275390625 0.23486328125
vt 0.257080078125 0.12158203125
vt 0.2587890625 0.12353515625
vt 0.244873046875 0.248046875
vt 0.275390625 0.23486328125
vt 0.275390625 0.1376953125
vt 0.277099609375 0.1376953125
vt 0.2587890625 0.12353515625
vt 0.275390625 0.1376953125
vt 0.275390625 0.23486328125
vt 0.29345703125 0.12353515625
vt 0.277099609375 0.1376953125
vt 0.276123046875 0.13623046875
vt 0.276123046875 0.13623046875
vt 0.277099609375 0.1376953125
vt 0.275390625 0.1376953125
vt 0.291259765625 0.1220703125
vt 0.29345703125 0.12353515625
vt 0.276123046875 0.13623046875
vt 0.2587890625 0.12353515625
vt 0.260986328125 0.1220703125
vt 0.275390625 0.1376953125
vt 0.260986328125 0.1220703125
vt 0.276123046875 0.13623046875
vt 0.275390625 0.1376953125
vt 0.260986328125 0.1220703125
vt 0.2587890625 0.12353515625
vt 0.257080078125 0.12158203125
vt 0.260986328125 0.1220703125
vt 0.291259765625 0.1220703125
vt 0.276123046875 0.13623046875
vt 0.259033203125 0.11962890625
vt 0.260986328125 0.1220703125
vt 0.257080078125 0.12158203125
vt 0.260986328125 0.1220703125
vt 0.259033203125 0.11962890625
vt 0.291259765625 0.1220703125
vt 0.66357421875 0.43359375
vt 0.67138671875 0.43359375
vt 0.6640625 0.4912109375
vt 0.67138671875 0.43359375
vt 0.671875 0.48974609375
vt 0.6640625 0.4912109375
vt 0.6640625 0.4912109375
vt 0.671875 0.48974609375
vt 0.6708984375 0.49658203125
vt 0.67138671875 0.43359375
vt 0.76025390625 0.43310546875
vt 0.671875 0.48974609375
vt 0.6708984375 0.49658203125
vt 0.671875 0.48974609375
vt 0.76123046875 0.49658203125
vt 0.76025390625 0.43310546875
vt 0.76025390625 0.48974609375
vt 0.671875 0.48974609375
vt 0.671875 0.48974609375
vt 0.76025390625 0.48974609375
vt 0.76123046875 0.49658203125
vt 0.76025390625 0.48974609375
vt 0.76025390625 0.43310546875
vt 0.7685546875 0.43359375
vt 0.76025390625 0.48974609375
vt 0.76806640625 0.4912109375
vt 0.76123046875 0.49658203125
vt 0.76806640625 0.4912109375
vt 0.76025390625 0.48974609375
vt 0.7685546875 0.43359375
vt 0.7060546875 0.0966796875
vt 0.71337890625 0.0966796875
vt 0.70703125 0.17724609375
vt 0.71337890625 0.0966796875
vt 0.71337890625 0.17724609375
vt 0.70703125 0.17724609375
vt 0.71337890625 0.18310546875
vt 0.70703125 0.17724609375
vt 0.71337890625 0.17724609375
vt 0.71337890625 0.17724609375
vt 0.71337890625 0.0966796875
vt 0.84716796875 0.0966796875
vt 0.71337890625 0.18310546875
vt 0.71337890625 0.17724609375
vt 0.84716796875 0.18310546875
vt 0.8466796875 0.17724609375
vt 0.71337890625 0.17724609375
vt 0.84716796875 0.0966796875
vt 0.71337890625 0.17724609375
vt 0.8466796875 0.17724609375
vt 0.84716796875 0.18310546875
vt 0.8466796875 0.17724609375
vt 0.84716796875 0.0966796875
vt 0.8544921875 0.0966796875
vt 0.84716796875 0.18310546875
vt 0.8466796875 0.17724609375
vt 0.853515625 0.17724609375
vt 0.853515625 0.17724609375
vt 0.8466796875 0.17724609375
vt 0.8544921875 0.0966796875
vn -0.9580482840538025 -0.04281401261687279 0.2833910286426544
vn -0.8656138777732849 0.34574273228645325 0.3621801733970642
vn -0.8005089163780212 0.3197411894798279 -0.5069034099578857
vn -0.879875123500824 -0.03362636640667915 -0.4740138649940491
vn -0.5720219016075134 -0.685455858707428 -0.45049014687538147
vn -0.6253082156181335 -0.7424919009208679 0.24019862711429596
vn -0.31942617893218994 -0.9329797625541687 -0.16587848961353302
vn -0.4113713204860687 -0.8962454199790955 -0.16588501632213593
vn -0.05838320031762123 -0.9689676761627197 0.24019379913806915
vn -0.31790223717689514 -0.9462344646453857 -0.0598214790225029
vn -0.05771667882800102 -0.8908909559249878 -0.45053529739379883
vn 0.6145498156547546 -0.6305627226829529 -0.47404569387435913
vn 0.8004881143569946 -0.3197309374809265 -0.5069427490234375
vn 0.8656108975410461 -0.34574344754219055 0.36218681931495667
vn 0.6649252772331238 -0.6910905241966248 0.28331634402275085
vn -0.42161229252815247 -0.9048023819923401 -0.0597979836165905
vn -0.47671255469322205 -0.8140789866447449 0.3316935896873474
vn -0.7224721312522888 -0.659264862537384 -0.2083359956741333
vn -0.7292099595069885 -0.6796604990959167 0.07946226000785828
vn -0.21547554433345795 -0.9184470176696777 0.3317004442214966
vn -0.45896297693252563 -0.8411945700645447 0.285910427570343
vn 0.060291968286037445 -0.9950180053710938 0.07939818501472473
vn -0.24703402817249298 -0.9258830547332764 0.28585782647132874
vn 0.015239683911204338 -0.9988307952880859 0.045877549797296524
vn 0.06952593475580215 -0.9756007194519043 -0.2082529515028
vn -0.27570733428001404 -0.9154167175292969 -0.2932535707950592
vn -0.17685671150684357 -0.8357464075088501 -0.5198554396629333
vn 0.04184028506278992 -0.9818481206893921 -0.18499648571014404
vn -0.44769591093063354 -0.7275757789611816 -0.5198094248771667
vn -0.2077183872461319 -0.8402711749076843 -0.5007967352867126
vn -0.4284534454345703 -0.7520681619644165 -0.5008203983306885
vn -0.7068551778793335 -0.6827337741851807 -0.18501430749893188
vn -0.6992895603179932 -0.7133618593215942 0.045924242585897446
vn -0.23459964990615845 -0.969484806060791 -0.07114849239587784
vn -0.28290238976478577 -0.9587249159812927 0.028507636860013008
vn -0.4543805718421936 -0.8904491662979126 0.025269823148846626
vn -0.21034452319145203 -0.9548059105873108 -0.21000175178050995
vn -0.494902104139328 -0.865817666053772 -0.0737002044916153
vn -0.34415990114212036 -0.8564073443412781 0.3848641514778137
vn -0.1704229712486267 -0.9853582978248596 0.00499574514105916
vn -0.5610100030899048 -0.8278078436851501 0.0013481862843036652
vn -0.11378175765275955 -0.9542527198791504 -0.276505708694458
vn -0.5063024759292603 -0.8374042510986328 -0.20594175159931183
vn -0.5866683721542358 -0.7650296092033386 -0.2656123638153076
vn -0.30949440598487854 -0.780949056148529 -0.5425235629081726
vn -0.4310460686683655 -0.8525436520576477 -0.2955816984176636
vn -0.2836243212223053 0.11328917741775513 -0.9522199034690857
vn -0.36324313282966614 -0.1916455626487732 -0.9117709994316101
vn 0.28358250856399536 -0.11327078938484192 -0.9522346258163452
vn 0.13123460114002228 -0.3891310393810272 -0.9117863774299622
vn 0.32559674978256226 -0.13005049526691437 0.9365221261978149
vn 0.1587902307510376 -0.480350524187088 0.8625826835632324
vn -0.3256389796733856 0.1300654411315918 0.9365053176879883
vn -0.4460201859474182 -0.23876838386058807 0.8625865578651428
f 1/1/1 2/2/2 3/3/3
f 4/4/4 1/5/1 3/6/3
f 1/7/1 4/8/4 5/9/5
f 6/10/6 1/11/1 5/12/5
f 6/13/6 5/14/5 7/15/7
f 6/16/6 7/17/7 8/18/8
f 9/19/9 6/20/6 8/21/8
f 5/22/5 10/23/10 7/24/7
f 5/25/5 11/26/11 10/27/10
f 11/28/11 12/29/12 9/30/9
f 12/31/12 13/32/13 14/33/14
f 15/34/15 12/35/12 14/36/14
f 12/37/12 15/38/15 9/39/9
f 11/40/11 9/41/9 16/42/16
f 11/43/11 16/44/16 10/45/10
f 9/46/9 8/47/8 16/48/16
f 10/49/10 16/50/16 17/51/17
f 16/52/16 8/53/8 18/54/18
f 16/55/16 19/56/19 17/57/17
f 19/58/19 16/59/16 18/60/18
f 20/61/20 10/62/10 17/63/17
f 17/64/17 19/65/19 21/66/21
f 10/67/10 20/68/20 22/69/22
f 7/70/7 10/71/10 22/72/22
f 20/73/20 17/74/17 23/75/23
f 17/76/17 21/77/21 23/78/23
f 22/79/22 20/80/20 24/81/24
f 20/82/20 23/83/23 24/84/24
f 25/85/25 7/86/7 22/87/22
f 23/88/23 21/89/21 26/90/26
f 7/91/7 25/92/25 27/93/27
f 8/94/8 7/95/7 27/96/27
f 25/97/25 22/98/22 28/99/28
f 22/100/22 24/101/24 28/102/28
f 29/103/29 8/104/8 27/105/27
f 8/106/8 29/107/29 18/108/18
f 27/109/27 25/110/25 30/111/30
f 25/112/25 28/113/28 30/114/30
f 29/115/29 27/116/27 31/117/31
f 27/118/27 30/119/30 31/120/31
f 18/121/18 29/122/29 32/123/32
f 29/124/29 31/125/31 32/126/32
f 18/127/18 32/128/32 33/129/33
f 19/130/19 18/131/18 33/132/33
f 19/133/19 33/134/33 21/135/21
f 21/136/21 33/137/33 26/138/26
f 32/139/32 31/140/31 34/141/34
f 33/142/33 32/143/32 34/144/34
f 31/145/31 30/146/30 35/147/35
f 31/148/31 35/149/35 34/150/34
f 30/151/30 36/152/36 35/153/35
f 30/154/30 28/155/28 36/156/36
f 37/157/37 33/158/33 34/159/34
f 33/160/33 37/161/37 26/162/26
f 28/163/28 38/164/38 36/165/36
f 28/166/28 24/167/24 38/168/38
f 35/169/35 36/170/36 39/171/39
f 36/172/36 38/173/38 39/174/39
f 35/175/35 39/176/39 40/177/40
f 34/178/34 35/179/35 40/180/40
f 38/181/38 41/182/41 39/183/39
f 39/184/39 41/185/41 40/186/40
f 34/187/34 40/188/40 42/189/42
f 40/190/40 41/191/41 42/192/42
f 37/193/37 34/194/34 42/195/42
f 38/196/38 43/197/43 41/198/41
f 24/199/24 43/200/43 38/201/38
f 41/202/41 44/203/44 42/204/42
f 43/205/43 44/206/44 41/207/41
f 37/208/37 42/209/42 45/210/45
f 45/211/45 42/212/42 44/213/44
f 26/214/26 37/215/37 45/216/45
f 43/217/43 46/218/46 44/219/44
f 46/220/46 45/221/45 44/222/44
f 46/223/46 43/224/43 24/225/24
f 46/226/46 26/227/26 45/228/45
f 23/229/23 46/230/46 24/231/24
f 46/232/46 23/233/23 26/234/26
f 3/235/3 47/236/47 4/237/4
f 47/238/47 48/239/48 4/240/4
f 4/241/4 48/242/48 5/243/5
f 47/244/47 49/245/49 48/246/48
f 5/247/5 48/248/48 11/249/11
f 49/250/49 50/251/50 48/252/48
f 48/253/48 50/254/50 11/255/11
f 50/256/50 49/257/49 13/258/13
f 50/259/50 12/260/12 11/261/11
f 12/262/12 50/263/50 13/264/13
f 14/265/14 51/266/51 15/267/15
f 51/268/51 52/269/52 15/270/15
f 9/271/9 15/272/15 52/273/52
f 52/274/52 51/275/51 53/276/53
f 9/277/9 52/278/52 6/279/6
f 54/280/54 52/281/52 53/282/53
f 52/283/52 54/284/54 6/285/6
f 54/286/54 53/287/53 2/288/2
f 6/289/6 54/290/54 1/291/1
f 1/292/1 54/293/54 2/294/2
