# Exported by Lightwave Blender addon
v 279.31640625 -1384.9984130859375 701.1168212890625
v 280.348388671875 -1377.8914794921875 708.0315551757812
v 333.83721923828125 -1407.2923583984375 701.1165771484375
v 338.1632995605469 -1401.5323486328125 708.0316162109375
v 272.2561950683594 -1406.68505859375 694.5281982421875
v 278.0916748046875 -1392.4193115234375 694.529296875
v 323.8337707519531 -1427.7755126953125 694.5287475585938
v 329.66485595703125 -1413.5086669921875 694.5298461914062
v 280.2311096191406 -1377.0791015625 709.7359008789062
v 274.1790771484375 -1374.3599853515625 735.88720703125
v 338.83319091796875 -1401.03662109375 709.7359619140625
v 345.0641174316406 -1403.8209228515625 735.8875732421875
v 278.57830810546875 -1390.7891845703125 695.250244140625
v 330.44586181640625 -1411.9989013671875 695.2508544921875
v 262.3149108886719 -1402.6182861328125 736.888427734375
v 333.91229248046875 -1431.89501953125 736.8875732421875
v 273.5359802246094 -1375.1790771484375 736.88720703125
v 344.958984375 -1404.8564453125 736.8875732421875
v 345.65179443359375 -1405.1375732421875 735.919921875
v 334.6043701171875 -1432.177978515625 735.919921875
v 261.6164245605469 -1402.3326416015625 735.9190063476562
v 272.836669921875 -1374.8955078125 735.9178466796875
v 339.16925048828125 -1402.257080078125 708.7359619140625
v 328.04486083984375 -1429.4954833984375 708.736083984375
v 334.38616943359375 -1408.59716796875 701.1165771484375
v 326.19537353515625 -1428.74072265625 701.1165771484375
v 331.0152282714844 -1413.4486083984375 695.5037231445312
v 324.9715576171875 -1428.2406005859375 695.5021362304688
v 277.1512451171875 -1391.424560546875 695.498291015625
v 271.1016845703125 -1406.212890625 695.4971313476562
v 278.011962890625 -1385.5452880859375 701.1168212890625
v 269.7741394042969 -1405.669677734375 701.1168212890625
v 279.13287353515625 -1377.7078857421875 708.7359008789062
v 267.98455810546875 -1404.9364013671875 708.7360229492188
vt -0.88623046875 0.46240234375
vt -0.89501953125 0.427734375
vt -0.591796875 0.46240234375
vt -0.89501953125 0.427734375
vt -0.5830078125 0.427734375
vt -0.591796875 0.46240234375
vt -0.8779296875 0.576171875
vt -0.8779296875 0.49951171875
vt -0.599609375 0.576171875
vt -0.8779296875 0.49951171875
vt -0.599609375 0.49951171875
vt -0.599609375 0.576171875
vt 1.896484375 0.4814453125
vt 1.9296875 0.612060546875
vt 1.580078125 0.4814453125
vt 1.9296875 0.612060546875
vt 1.5458984375 0.612060546875
vt 1.580078125 0.4814453125
vt 1.87890625 0.4091796875
vt 1.8857421875 0.4384765625
vt 1.5986328125 0.4091796875
vt 1.8857421875 0.4384765625
vt 1.591796875 0.4384765625
vt 1.5986328125 0.4091796875
vt 1.931640625 0.576171875
vt 1.544921875 0.576171875
vt 1.931640625 0.42822265625
vt 1.544921875 0.576171875
vt 1.544921875 0.43017578125
vt 1.931640625 0.42822265625
vt 0.56982421875 0.6123046875
vt 0.56982421875 0.616943359375
vt 0.423828125 0.6123046875
vt 0.56982421875 0.616943359375
vt 0.423828125 0.616943359375
vt 0.423828125 0.6123046875
vt 0.57568359375 0.6123046875
vt 0.57568359375 0.616943359375
vt 0.427734375 0.6123046875
vt 0.57568359375 0.616943359375
vt 0.427734375 0.616943359375
vt 0.427734375 0.6123046875
vt 0.56982421875 0.6123046875
vt 0.423828125 0.6123046875
vt 0.57080078125 0.4765625
vt 0.423828125 0.6123046875
vt 0.423828125 0.4765625
vt 0.57080078125 0.4765625
vt 0.57080078125 0.4765625
vt 0.423828125 0.4765625
vt 0.5322265625 0.4384765625
vt 0.423828125 0.4765625
vt 0.423828125 0.4384765625
vt 0.5322265625 0.4384765625
vt 0.5322265625 0.4384765625
vt 0.423828125 0.4384765625
vt 0.50341796875 0.41015625
vt 0.423828125 0.4384765625
vt 0.423828125 0.41015625
vt 0.50341796875 0.41015625
vt 0.49609375 0.41015625
vt 0.57568359375 0.41015625
vt 0.46728515625 0.4384765625
vt 0.57568359375 0.41015625
vt 0.57568359375 0.4384765625
vt 0.46728515625 0.4384765625
vt 0.46728515625 0.4384765625
vt 0.57568359375 0.4384765625
vt 0.428955078125 0.4765625
vt 0.57568359375 0.4384765625
vt 0.57568359375 0.4765625
vt 0.428955078125 0.4765625
vt 0.428955078125 0.4765625
vt 0.57568359375 0.4765625
vt 0.427734375 0.6123046875
vt 0.57568359375 0.4765625
vt 0.57568359375 0.6123046875
vt 0.427734375 0.6123046875
vt -0.5830078125 0.427734375
vt -0.57666015625 0.42919921875
vt -0.591796875 0.46240234375
vt -0.57666015625 0.42919921875
vt -0.5869140625 0.4677734375
vt -0.591796875 0.46240234375
vt -0.591796875 0.46240234375
vt -0.5869140625 0.4677734375
vt -0.5986328125 0.49072265625
vt -0.5869140625 0.4677734375
vt -0.59326171875 0.49658203125
vt -0.5986328125 0.49072265625
vt -0.59326171875 0.576171875
vt -0.599609375 0.576171875
vt -0.59326171875 0.49658203125
vt -0.599609375 0.576171875
vt -0.599609375 0.49951171875
vt -0.59326171875 0.49658203125
vt -0.59326171875 0.49658203125
vt -0.599609375 0.49951171875
vt -0.5986328125 0.49072265625
vt -0.87890625 0.49072265625
vt -0.5986328125 0.49072265625
vt -0.599609375 0.49951171875
vt -0.8779296875 0.49951171875
vt -0.87890625 0.49072265625
vt -0.599609375 0.49951171875
vt -0.8779296875 0.576171875
vt -0.88427734375 0.576171875
vt -0.8779296875 0.49951171875
vt -0.88427734375 0.576171875
vt -0.88427734375 0.49658203125
vt -0.8779296875 0.49951171875
vt -0.87890625 0.49072265625
vt -0.8779296875 0.49951171875
vt -0.88427734375 0.49658203125
vt -0.87890625 0.49072265625
vt -0.88427734375 0.49658203125
vt -0.88623046875 0.46240234375
vt -0.88427734375 0.49658203125
vt -0.8916015625 0.4677734375
vt -0.88623046875 0.46240234375
vt -0.88623046875 0.46240234375
vt -0.8916015625 0.4677734375
vt -0.89501953125 0.427734375
vt -0.8916015625 0.4677734375
vt -0.90087890625 0.42919921875
vt -0.89501953125 0.427734375
vt 1.580078125 0.4814453125
vt 1.576171875 0.4765625
vt 1.5830078125 0.47265625
vt 1.541015625 0.6123046875
vt 1.576171875 0.4765625
vt 1.580078125 0.4814453125
vt 1.580078125 0.4814453125
vt 1.5830078125 0.47265625
vt 1.896484375 0.4814453125
vt 1.5458984375 0.612060546875
vt 1.541015625 0.6123046875
vt 1.580078125 0.4814453125
vt 1.5830078125 0.47265625
vt 1.89453125 0.47265625
vt 1.896484375 0.4814453125
vt 1.5458984375 0.612060546875
vt 1.544921875 0.616943359375
vt 1.541015625 0.6123046875
vt 1.900390625 0.4765625
vt 1.896484375 0.4814453125
vt 1.89453125 0.47265625
vt 1.931640625 0.616943359375
vt 1.544921875 0.616943359375
vt 1.5458984375 0.612060546875
vt 1.896484375 0.4814453125
vt 1.900390625 0.4765625
vt 1.9296875 0.612060546875
vt 1.9296875 0.612060546875
vt 1.931640625 0.616943359375
vt 1.5458984375 0.612060546875
vt 1.900390625 0.4765625
vt 1.935546875 0.6123046875
vt 1.9296875 0.612060546875
vt 1.935546875 0.6123046875
vt 1.931640625 0.616943359375
vt 1.9296875 0.612060546875
vn -0.014546636492013931 0.7014659643173218 -0.7125545144081116
vn 0.05890617147088051 0.8065087795257568 -0.5882803797721863
vn 0.5001559853553772 0.4957035183906555 -0.7100155353546143
vn 0.5213515758514404 0.6160086989402771 -0.5905300378799438
vn -0.3000950813293457 0.12282831966876984 -0.9459683895111084
vn -0.20459453761577606 0.2598268985748291 -0.943732500076294
vn 0.3043355345726013 -0.12426267564296722 -0.9444249868392944
vn 0.3325579762458801 0.04034939780831337 -0.9422193169593811
vn 0.055718716233968735 0.9729892015457153 -0.2240256518125534
vn 0.010821201838552952 0.9616831541061401 0.27394992113113403
vn 0.6453697085380554 0.7315924167633057 -0.21970543265342712
vn 0.6677026152610779 0.6909739375114441 0.27699828147888184
vn -0.06993807852268219 0.6002874374389648 -0.796720564365387
vn 0.4690793454647064 0.3789367377758026 -0.797728955745697
vn -0.40647372603416443 0.1662641167640686 0.8984071612358093
vn 0.4081117808818817 -0.16672953963279724 0.8975778818130493
vn -0.23701147735118866 0.48080357909202576 0.8441880345344543
vn 0.5086512565612793 0.17548254132270813 0.8428995609283447
vn 0.9836204648017883 -0.0182202011346817 0.17932870984077454
vn 0.9070292115211487 -0.3705325424671173 0.2000093162059784
vn -0.9058706760406494 0.37045884132385254 0.2053256332874298
vn -0.7145891785621643 0.6756959557533264 0.18110056221485138
vn 0.9050977826118469 0.12221387773752213 -0.40726134181022644
vn 0.8957778215408325 -0.36522039771080017 -0.2533694803714752
vn 0.8692463636398315 -0.04055182635784149 -0.4927133023738861
vn 0.8988186120986938 -0.36615610122680664 -0.24094536900520325
vn 0.8014383912086487 -0.1431756168603897 -0.5806868076324463
vn 0.7813025712966919 -0.31916487216949463 -0.5363768339157104
vn -0.6631868481636047 0.45825013518333435 -0.5917685031890869
vn -0.7741005420684814 0.3168005645275116 -0.5480929613113403
vn -0.646426260471344 0.5757551789283752 -0.5006385445594788
vn -0.8968605399131775 0.36715880036354065 -0.24664875864982605
vn -0.5613077282905579 0.722625732421875 -0.4034174084663391
vn -0.8970854878425598 0.36718079447746277 -0.2457963079214096
f 1/1/1 2/2/2 3/3/3
f 2/4/2 4/5/4 3/6/3
f 5/7/5 6/8/6 7/9/7
f 6/10/6 8/11/8 7/12/7
f 9/13/9 10/14/10 11/15/11
f 10/16/10 12/17/12 11/18/11
f 13/19/13 1/20/1 14/21/14
f 1/22/1 3/23/3 14/24/14
f 15/25/15 16/26/16 17/27/17
f 16/28/16 18/29/18 17/30/17
f 19/31/19 18/32/18 20/33/20
f 18/34/18 16/35/16 20/36/20
f 21/37/21 15/38/15 22/39/22
f 15/40/15 17/41/17 22/42/22
f 19/43/19 20/44/20 23/45/23
f 20/46/20 24/47/24 23/48/23
f 23/49/23 24/50/24 25/51/25
f 24/52/24 26/53/26 25/54/25
f 25/55/25 26/56/26 27/57/27
f 26/58/26 28/59/28 27/60/27
f 29/61/29 30/62/30 31/63/31
f 30/64/30 32/65/32 31/66/31
f 31/67/31 32/68/32 33/69/33
f 32/70/32 34/71/34 33/72/33
f 33/73/33 34/74/34 22/75/22
f 34/76/34 21/77/21 22/78/22
f 4/79/4 23/80/23 3/81/3
f 23/82/23 25/83/25 3/84/3
f 3/85/3 25/86/25 14/87/14
f 25/88/25 27/89/27 14/90/14
f 28/91/28 7/92/7 27/93/27
f 7/94/7 8/95/8 27/96/27
f 27/97/27 8/98/8 14/99/14
f 13/100/13 14/101/14 8/102/8
f 6/103/6 13/104/13 8/105/8
f 5/106/5 30/107/30 6/108/6
f 30/109/30 29/110/29 6/111/6
f 13/112/13 6/113/6 29/114/29
f 13/115/13 29/116/29 1/117/1
f 29/118/29 31/119/31 1/120/1
f 1/121/1 31/122/31 2/123/2
f 31/124/31 33/125/33 2/126/2
f 11/127/11 23/128/23 4/129/4
f 19/130/19 23/131/23 11/132/11
f 11/133/11 4/134/4 9/135/9
f 12/136/12 19/137/19 11/138/11
f 4/139/4 2/140/2 9/141/9
f 12/142/12 18/143/18 19/144/19
f 33/145/33 9/146/9 2/147/2
f 17/148/17 18/149/18 12/150/12
f 9/151/9 33/152/33 10/153/10
f 10/154/10 17/155/17 12/156/12
f 33/157/33 22/158/22 10/159/10
f 22/160/22 17/161/17 10/162/10
