# Exported by Lightwave Blender addon
v 71.63723754882812 661.9302368164062 802.5703125
v 71.63723754882812 661.9302368164062 809.4901733398438
v 41.792991638183594 678.17041015625 802.5703125
v 41.792991638183594 678.17041015625 809.490234375
v 41.480567932128906 679.228515625 809.490234375
v 41.48057556152344 679.2284545898438 802.5703125
v 111.53825378417969 808.0187377929688 801.9268798828125
v 111.53824615478516 808.0187377929688 808.8468017578125
v 112.59611511230469 808.3311157226562 808.8468017578125
v 112.59613037109375 808.3311157226562 801.9268798828125
v 142.32101440429688 792.1554565429688 801.9268798828125
v 142.32101440429688 792.1554565429688 808.8468017578125
v 141.9501495361328 791.4698486328125 801.1468505859375
v 112.22340393066406 807.6458740234375 801.1468505859375
v 72.00996398925781 662.6155395507812 801.790283203125
v 42.16572570800781 678.8555908203125 801.7902221679688
v 72.00996398925781 662.6155395507812 810.2702026367188
v 42.16572570800781 678.8555908203125 810.2702026367188
v 112.223388671875 807.6458740234375 809.6268310546875
v 141.9501495361328 791.4698486328125 809.6268920898438
vt 0.002002716064453125 0.718017578125
vt 0.0019989013671875 0.691650390625
vt 0.1314697265625 0.718017578125
vt 0.0019989013671875 0.691650390625
vt 0.1314697265625 0.691650390625
vt 0.1314697265625 0.718017578125
vt 0.1314697265625 0.691650390625
vt 0.1356201171875 0.691650390625
vt 0.1314697265625 0.718017578125
vt 0.1356201171875 0.691650390625
vt 0.1356201171875 0.718017578125
vt 0.1314697265625 0.718017578125
vt 0.1356201171875 0.718017578125
vt 0.1356201171875 0.691650390625
vt 0.69482421875 0.720458984375
vt 0.1356201171875 0.691650390625
vt 0.69482421875 0.694091796875
vt 0.69482421875 0.720458984375
vt 0.69482421875 0.720458984375
vt 0.69482421875 0.694091796875
vt 0.69873046875 0.694091796875
vt 0.69873046875 0.720458984375
vt 0.69482421875 0.720458984375
vt 0.69873046875 0.694091796875
vt 0.82763671875 0.720458984375
vt 0.69873046875 0.720458984375
vt 0.69873046875 0.694091796875
vt 0.82763671875 0.694091796875
vt 0.82763671875 0.720458984375
vt 0.69873046875 0.694091796875
vt 0.57080078125 0.4755859375
vt 0.56787109375 0.4755859375
vt 0.57080078125 0.34619140625
vt 0.56787109375 0.4755859375
vt 0.56640625 0.34619140625
vt 0.57080078125 0.34619140625
vt 0.56640625 0.34228515625
vt 0.57080078125 0.34619140625
vt 0.56640625 0.34619140625
vt 0.56787109375 0.4755859375
vt 0.00659942626953125 0.4755859375
vt 0.56640625 0.34619140625
vt 0.56640625 0.34228515625
vt 0.56640625 0.34619140625
vt 0.00659942626953125 0.34228515625
vt 0.00659942626953125 0.4755859375
vt 0.00659942626953125 0.34619140625
vt 0.56640625 0.34619140625
vt 0.56640625 0.34619140625
vt 0.00659942626953125 0.34619140625
vt 0.00659942626953125 0.34228515625
vt 0.00659942626953125 0.34619140625
vt 0.00659942626953125 0.4755859375
vt 0.0028228759765625 0.4755859375
vt 0.0028228759765625 0.3505859375
vt 0.00659942626953125 0.34228515625
vt 0.00659942626953125 0.34619140625
vt 0.0028228759765625 0.3505859375
vt 0.00659942626953125 0.34619140625
vt 0.0028228759765625 0.4755859375
vt 0.0028228759765625 0.498046875
vt 0.00659942626953125 0.498046875
vt 0.0028228759765625 0.62744140625
vt 0.00659942626953125 0.498046875
vt 0.00659942626953125 0.62744140625
vt 0.0028228759765625 0.62744140625
vt 0.00659942626953125 0.62744140625
vt 0.00659942626953125 0.631103515625
vt 0.0028228759765625 0.62744140625
vt 0.00659942626953125 0.631103515625
vt 0.00659942626953125 0.62744140625
vt 0.56640625 0.631103515625
vt 0.00659942626953125 0.62744140625
vt 0.00659942626953125 0.498046875
vt 0.56640625 0.62744140625
vt 0.00659942626953125 0.62744140625
vt 0.56640625 0.62744140625
vt 0.56640625 0.631103515625
vt 0.00659942626953125 0.498046875
vt 0.56640625 0.498046875
vt 0.56640625 0.62744140625
vt 0.56640625 0.62744140625
vt 0.57080078125 0.62744140625
vt 0.56640625 0.631103515625
vt 0.56640625 0.62744140625
vt 0.56640625 0.498046875
vt 0.57080078125 0.498046875
vt 0.57080078125 0.62744140625
vt 0.56640625 0.62744140625
vt 0.57080078125 0.498046875
vn -0.4415917694568634 -0.811508297920227 -0.38268932700157166
vn -0.44159218668937683 -0.8115067481994629 0.3826919198036194
vn -0.7185308337211609 -0.6058463454246521 -0.3415609300136566
vn -0.7185220718383789 -0.6058391332626343 0.3415917456150055
vn -0.9320383071899414 0.11909432709217072 0.3422294855117798
vn -0.9326938986778259 0.11766190826892853 -0.34093666076660156
vn -0.6063165664672852 0.7178186774253845 -0.3422229290008545
vn -0.6054702997207642 0.7191309928894043 0.34096401929855347
vn 0.11842755973339081 0.9323540925979614 0.3416001498699188
vn 0.11842922866344452 0.9323553442955017 -0.34159624576568604
vn 0.4415919780731201 0.8114831447601318 -0.3827421963214874
vn 0.44158899784088135 0.8114924430847168 0.3827258348464966
vn 0.18185997009277344 0.33419162034988403 -0.9247933626174927
vn -0.13772138953208923 0.46162864565849304 -0.8763171434402466
vn -0.18394292891025543 -0.3380339443683624 -0.9229832291603088
vn -0.4642176628112793 -0.13849063217639923 -0.8748270869255066
vn -0.18200939893722534 -0.3344762325286865 0.9246611595153809
vn -0.46240538358688354 -0.1351485252380371 0.876308262348175
vn -0.1358793079853058 0.464930921792984 0.8748577833175659
vn 0.18380209803581238 0.3377774655818939 0.9231052398681641
f 1/1/1 2/2/2 3/3/3
f 2/4/2 4/5/4 3/6/3
f 4/7/4 5/8/5 3/9/3
f 5/10/5 6/11/6 3/12/3
f 6/13/6 5/14/5 7/15/7
f 5/16/5 8/17/8 7/18/7
f 7/19/7 8/20/8 9/21/9
f 10/22/10 7/23/7 9/24/9
f 11/25/11 10/26/10 9/27/9
f 12/28/12 11/29/11 9/30/9
f 11/31/11 13/32/13 10/33/10
f 13/34/13 14/35/14 10/36/10
f 7/37/7 10/38/10 14/39/14
f 13/40/13 15/41/15 14/42/14
f 7/43/7 14/44/14 6/45/6
f 15/46/15 16/47/16 14/48/14
f 14/49/14 16/50/16 6/51/6
f 16/52/16 15/53/15 1/54/1
f 3/55/3 6/56/6 16/57/16
f 3/58/3 16/59/16 1/60/1
f 2/61/2 17/62/17 4/63/4
f 17/64/17 18/65/18 4/66/4
f 18/67/18 5/68/5 4/69/4
f 5/70/5 18/71/18 8/72/8
f 18/73/18 17/74/17 19/75/19
f 18/76/18 19/77/19 8/78/8
f 17/79/17 20/80/20 19/81/19
f 19/82/19 9/83/9 8/84/8
f 19/85/19 20/86/20 12/87/12
f 9/88/9 19/89/19 12/90/12
