# Exported by Lightwave Blender addon
v 2097.6552734375 -1236.6136474609375 27.344192504882812
v 2064.2255859375 -1316.021728515625 27.344188690185547
v 2454.45751953125 -1372.8192138671875 27.344186782836914
v 2425.998046875 -1455.719482421875 27.34418296813965
vt 8.03125 4.40625
vt 8.296875 4.123046875
vt 9.25 5.6015625
vt 8.296875 4.123046875
vt 9.53125 5.33203125
vt 9.25 5.6015625
vn -1.9827812725026206e-09 -4.720444124473033e-08 1.0
vn -1.945114291856953e-09 -4.694564381679811e-08 1.0
vn -1.7591567091912452e-09 -4.566800271277316e-08 1.0
vn -1.7236115867902413e-09 -4.542378917449241e-08 1.0
f 1/1/1 2/2/2 3/3/3
f 2/4/2 4/5/4 3/6/3
