# Exported by Lightwave Blender addon
v 3892.40234375 -3388.01611328125 451.27752685546875
v 3887.40283203125 -3382.593994140625 451.27752685546875
v 3885.62744140625 -3385.3994140625 414.8122863769531
v 3889.4619140625 -3389.558349609375 414.812255859375
v 3894.0205078125 -3395.211181640625 451.27752685546875
v 3890.703369140625 -3395.076416015625 414.812255859375
v 3891.824951171875 -3402.251708984375 451.27752685546875
v 3889.01904296875 -3400.476318359375 414.812255859375
v 3886.402587890625 -3407.2509765625 451.27752685546875
v 3884.860595703125 -3404.31103515625 414.812255859375
v 3879.207763671875 -3408.86962890625 451.27752685546875
v 3879.34228515625 -3405.55224609375 414.812255859375
v 3872.1669921875 -3406.673583984375 451.27752685546875
v 3873.9423828125 -3403.86767578125 414.812255859375
v 3867.167724609375 -3401.25146484375 451.27752685546875
v 3870.10791015625 -3399.70947265625 414.812255859375
v 3865.549560546875 -3394.056396484375 451.27752685546875
v 3868.866455078125 -3394.191162109375 414.812255859375
v 3867.7451171875 -3387.015869140625 451.27752685546875
v 3870.551025390625 -3388.790771484375 414.812255859375
v 3873.16748046875 -3382.0166015625 451.27752685546875
v 3874.709228515625 -3384.956787109375 414.8122863769531
v 3880.3623046875 -3380.398193359375 451.27752685546875
v 3880.227783203125 -3383.71533203125 414.8122863769531
v 3888.855224609375 -3386.270263671875 414.8122863769531
v 3886.308349609375 -3384.323486328125 414.8122863769531
v 3888.29052734375 -3381.191162109375 451.27752685546875
v 3891.611328125 -3383.729248046875 451.27752685546875
v 3893.872314453125 -3387.24462890625 451.27752685546875
v 3890.58984375 -3388.966552734375 414.812255859375
v 3891.822265625 -3391.926513671875 414.812255859375
v 3895.478759765625 -3391.103515625 451.27752685546875
v 3895.6796875 -3395.2783203125 451.27752685546875
v 3891.9755859375 -3395.128173828125 414.812255859375
v 3891.56298828125 -3398.30712890625 414.812255859375
v 3895.1416015625 -3399.423583984375 451.27752685546875
v 3893.227783203125 -3403.139404296875 451.27752685546875
v 3890.095458984375 -3401.1572265625 414.812255859375
v 3888.1484375 -3403.7041015625 414.812255859375
v 3890.689453125 -3406.460205078125 451.27752685546875
v 3887.173828125 -3408.72119140625 451.27752685546875
v 3885.4521484375 -3405.438720703125 414.812255859375
v 3882.492431640625 -3406.6708984375 414.812255859375
v 3883.3154296875 -3410.32763671875 451.27752685546875
v 3879.14013671875 -3410.528564453125 451.27752685546875
v 3879.29052734375 -3406.82470703125 414.812255859375
v 3876.111083984375 -3406.411865234375 414.812255859375
v 3874.9951171875 -3409.990478515625 451.27752685546875
v 3871.27880859375 -3408.076416015625 451.27752685546875
v 3873.261474609375 -3404.944091796875 414.812255859375
v 3870.71484375 -3402.997314453125 414.812255859375
v 3867.95849609375 -3405.538330078125 451.27752685546875
v 3865.69775390625 -3402.02294921875 451.27752685546875
v 3868.980224609375 -3400.301025390625 414.812255859375
v 3867.747802734375 -3397.341064453125 414.812255859375
v 3864.091064453125 -3398.164306640625 451.27752685546875
v 3863.89013671875 -3393.9892578125 451.27752685546875
v 3867.594482421875 -3394.1396484375 414.812255859375
v 3868.007080078125 -3390.96044921875 414.812255859375
v 3864.428466796875 -3389.843994140625 451.27752685546875
v 3866.34228515625 -3386.128173828125 451.27752685546875
v 3869.474609375 -3388.1103515625 414.812255859375
v 3871.421630859375 -3385.563232421875 414.8122863769531
v 3868.880615234375 -3382.807373046875 451.27752685546875
v 3872.395751953125 -3380.5458984375 451.27752685546875
v 3874.117919921875 -3383.828857421875 414.8122863769531
v 3877.07763671875 -3382.596923828125 414.8122863769531
v 3876.25439453125 -3378.93994140625 451.27752685546875
v 3880.4296875 -3378.739013671875 451.27752685546875
v 3880.279541015625 -3382.443115234375 414.8122863769531
v 3883.45849609375 -3382.855712890625 414.8122863769531
v 3884.574951171875 -3379.277099609375 451.27752685546875
vt 0.0927734375 0.09716796875
vt 0.0162200927734375 0.09716796875
vt 0.0162200927734375 0.9044189453125
vt 0.0162200927734375 0.9044189453125
vt 0.0927734375 0.9044189453125
vt 0.0927734375 0.09716796875
vt 0.1728515625 0.09716796875
vt 0.0927734375 0.09716796875
vt 0.0927734375 0.9044189453125
vt 0.0927734375 0.9044189453125
vt 0.1728515625 0.9044189453125
vt 0.1728515625 0.09716796875
vt 0.2529296875 0.09716796875
vt 0.1728515625 0.09716796875
vt 0.1728515625 0.9044189453125
vt 0.1728515625 0.9044189453125
vt 0.2529296875 0.9044189453125
vt 0.2529296875 0.09716796875
vt 0.3330078125 0.09716796875
vt 0.2529296875 0.09716796875
vt 0.2529296875 0.9044189453125
vt 0.2529296875 0.9044189453125
vt 0.3330078125 0.9044189453125
vt 0.3330078125 0.09716796875
vt 0.4130859375 0.09716796875
vt 0.3330078125 0.09716796875
vt 0.3330078125 0.9044189453125
vt 0.3330078125 0.9044189453125
vt 0.4130859375 0.9044189453125
vt 0.4130859375 0.09716796875
vt 0.4931640625 0.09716796875
vt 0.4130859375 0.09716796875
vt 0.4130859375 0.9044189453125
vt 0.4130859375 0.9044189453125
vt 0.4931640625 0.9044189453125
vt 0.4931640625 0.09716796875
vt 0.5732421875 0.09716796875
vt 0.4931640625 0.09716796875
vt 0.4931640625 0.9044189453125
vt 0.4931640625 0.9044189453125
vt 0.5732421875 0.9044189453125
vt 0.5732421875 0.09716796875
vt 0.6533203125 0.09716796875
vt 0.5732421875 0.09716796875
vt 0.5732421875 0.9044189453125
vt 0.5732421875 0.9044189453125
vt 0.6533203125 0.9044189453125
vt 0.6533203125 0.09716796875
vt 0.7333984375 0.09716796875
vt 0.6533203125 0.09716796875
vt 0.6533203125 0.9044189453125
vt 0.6533203125 0.9044189453125
vt 0.7333984375 0.9044189453125
vt 0.7333984375 0.09716796875
vt 0.8134765625 0.09716796875
vt 0.7333984375 0.09716796875
vt 0.7333984375 0.9044189453125
vt 0.7333984375 0.9044189453125
vt 0.8134765625 0.9044189453125
vt 0.8134765625 0.09716796875
vt 0.8935546875 0.09716796875
vt 0.8134765625 0.09716796875
vt 0.8134765625 0.9044189453125
vt 0.8134765625 0.9044189453125
vt 0.8935546875 0.9044189453125
vt 0.8935546875 0.09716796875
vt 0.984375 0.09716796875
vt 0.8935546875 0.09716796875
vt 0.8935546875 0.9044189453125
vt 0.8935546875 0.9044189453125
vt 0.984375 0.9044189453125
vt 0.984375 0.09716796875
vt 0.05450439453125 0.9044189453125
vt 0.0162200927734375 0.9044189453125
vt 0.0162200927734375 0.09716796875
vt 0.0162200927734375 0.09716796875
vt 0.05450439453125 0.09716796875
vt 0.05450439453125 0.9044189453125
vt 0.05450439453125 0.9044189453125
vt 0.05450439453125 0.09716796875
vt 0.0927734375 0.09716796875
vt 0.0927734375 0.09716796875
vt 0.0927734375 0.9044189453125
vt 0.05450439453125 0.9044189453125
vt 0.1328125 0.9044189453125
vt 0.0927734375 0.9044189453125
vt 0.0927734375 0.09716796875
vt 0.0927734375 0.09716796875
vt 0.1328125 0.09716796875
vt 0.1328125 0.9044189453125
vt 0.1328125 0.9044189453125
vt 0.1328125 0.09716796875
vt 0.1728515625 0.09716796875
vt 0.1728515625 0.09716796875
vt 0.1728515625 0.9044189453125
vt 0.1328125 0.9044189453125
vt 0.212890625 0.9044189453125
vt 0.1728515625 0.9044189453125
vt 0.1728515625 0.09716796875
vt 0.1728515625 0.09716796875
vt 0.212890625 0.09716796875
vt 0.212890625 0.9044189453125
vt 0.212890625 0.9044189453125
vt 0.212890625 0.09716796875
vt 0.2529296875 0.09716796875
vt 0.2529296875 0.09716796875
vt 0.2529296875 0.9044189453125
vt 0.212890625 0.9044189453125
vt 0.29296875 0.9044189453125
vt 0.2529296875 0.9044189453125
vt 0.2529296875 0.09716796875
vt 0.2529296875 0.09716796875
vt 0.29296875 0.09716796875
vt 0.29296875 0.9044189453125
vt 0.29296875 0.9044189453125
vt 0.29296875 0.09716796875
vt 0.3330078125 0.09716796875
vt 0.3330078125 0.09716796875
vt 0.3330078125 0.9044189453125
vt 0.29296875 0.9044189453125
vt 0.373046875 0.9044189453125
vt 0.3330078125 0.9044189453125
vt 0.3330078125 0.09716796875
vt 0.3330078125 0.09716796875
vt 0.373046875 0.09716796875
vt 0.373046875 0.9044189453125
vt 0.373046875 0.9044189453125
vt 0.373046875 0.09716796875
vt 0.4130859375 0.09716796875
vt 0.4130859375 0.09716796875
vt 0.4130859375 0.9044189453125
vt 0.373046875 0.9044189453125
vt 0.453125 0.9044189453125
vt 0.4130859375 0.9044189453125
vt 0.4130859375 0.09716796875
vt 0.4130859375 0.09716796875
vt 0.453125 0.09716796875
vt 0.453125 0.9044189453125
vt 0.453125 0.9044189453125
vt 0.453125 0.09716796875
vt 0.4931640625 0.09716796875
vt 0.4931640625 0.09716796875
vt 0.4931640625 0.9044189453125
vt 0.453125 0.9044189453125
vt 0.533203125 0.9044189453125
vt 0.4931640625 0.9044189453125
vt 0.4931640625 0.09716796875
vt 0.4931640625 0.09716796875
vt 0.533203125 0.09716796875
vt 0.533203125 0.9044189453125
vt 0.533203125 0.9044189453125
vt 0.533203125 0.09716796875
vt 0.5732421875 0.09716796875
vt 0.5732421875 0.09716796875
vt 0.5732421875 0.9044189453125
vt 0.533203125 0.9044189453125
vt 0.61328125 0.9044189453125
vt 0.5732421875 0.9044189453125
vt 0.5732421875 0.09716796875
vt 0.5732421875 0.09716796875
vt 0.61328125 0.09716796875
vt 0.61328125 0.9044189453125
vt 0.61328125 0.9044189453125
vt 0.61328125 0.09716796875
vt 0.6533203125 0.09716796875
vt 0.6533203125 0.09716796875
vt 0.6533203125 0.9044189453125
vt 0.61328125 0.9044189453125
vt 0.693359375 0.9044189453125
vt 0.6533203125 0.9044189453125
vt 0.6533203125 0.09716796875
vt 0.6533203125 0.09716796875
vt 0.693359375 0.09716796875
vt 0.693359375 0.9044189453125
vt 0.693359375 0.9044189453125
vt 0.693359375 0.09716796875
vt 0.7333984375 0.09716796875
vt 0.7333984375 0.09716796875
vt 0.7333984375 0.9044189453125
vt 0.693359375 0.9044189453125
vt 0.7734375 0.9044189453125
vt 0.7333984375 0.9044189453125
vt 0.7333984375 0.09716796875
vt 0.7333984375 0.09716796875
vt 0.7734375 0.09716796875
vt 0.7734375 0.9044189453125
vt 0.7734375 0.9044189453125
vt 0.7734375 0.09716796875
vt 0.8134765625 0.09716796875
vt 0.8134765625 0.09716796875
vt 0.8134765625 0.9044189453125
vt 0.7734375 0.9044189453125
vt 0.853515625 0.9044189453125
vt 0.8134765625 0.9044189453125
vt 0.8134765625 0.09716796875
vt 0.8134765625 0.09716796875
vt 0.853515625 0.09716796875
vt 0.853515625 0.9044189453125
vt 0.853515625 0.9044189453125
vt 0.853515625 0.09716796875
vt 0.8935546875 0.09716796875
vt 0.8935546875 0.09716796875
vt 0.8935546875 0.9044189453125
vt 0.853515625 0.9044189453125
vt 0.93896484375 0.9044189453125
vt 0.8935546875 0.9044189453125
vt 0.8935546875 0.09716796875
vt 0.8935546875 0.09716796875
vt 0.93896484375 0.09716796875
vt 0.93896484375 0.9044189453125
vt 0.93896484375 0.9044189453125
vt 0.93896484375 0.09716796875
vt 0.984375 0.09716796875
vt 0.984375 0.09716796875
vt 0.984375 0.9044189453125
vt 0.93896484375 0.9044189453125
vn -0.8819395303726196 -0.46255841851234436 0.09067672491073608
vn -0.5324777364730835 -0.8415737748146057 0.09067012369632721
vn -0.5324891209602356 -0.8415660262107849 0.09067413955926895
vn -0.8819310069084167 -0.46257564425468445 0.09067258983850479
vn -0.995062530040741 0.04035823792219162 0.09067262709140778
vn -0.995063066482544 0.0403459295630455 0.09067309647798538
vn -0.8415684103965759 0.5324850678443909 0.0906769409775734
vn -0.8415776491165161 0.5324711203575134 0.09067291021347046
vn -0.46257534623146057 0.8819312453269958 0.09067168831825256
vn -0.46260038018226624 0.8819184303283691 0.09066898375749588
vn 0.040353912860155106 0.9950631260871887 0.0906701609492302
vn 0.04039468616247177 0.9950607419013977 0.09067834913730621
vn 0.5324973464012146 0.8415605425834656 0.09067781269550323
vn 0.5324882864952087 0.8415665626525879 0.09067516028881073
vn 0.8819429278373718 0.4625522196292877 0.09067577123641968
vn 0.8819126486778259 0.46261221170425415 0.09066452085971832
vn 0.9950632452964783 -0.04035882279276848 0.09066534042358398
vn 0.9950631260871887 -0.04035748541355133 0.09066788852214813
vn 0.8415695428848267 -0.5324844717979431 0.09066874533891678
vn 0.8415570855140686 -0.5325037837028503 0.0906718373298645
vn 0.4625573456287384 -0.8819409012794495 0.09066981077194214
vn 0.46258336305618286 -0.8819276094436646 0.09066595137119293
vn -0.04035606607794762 -0.995063066482544 0.09066826105117798
vn -0.04034615308046341 -0.9950636029243469 0.0906674861907959
vn 0.7312922477722168 0.674355685710907 -0.10225450992584229
vn 0.5319321155548096 0.8407262563705444 -0.10113222897052765
vn 0.5319472551345825 0.8407158255577087 -0.10113787651062012
vn 0.7313138842582703 0.6743309497833252 -0.10226347297430038
vn 0.8810545802116394 0.46207720041275024 -0.10113158077001572
vn 0.8810169696807861 0.462149441242218 -0.10112906247377396
vn 0.9705211520195007 0.21824735403060913 -0.10225904732942581
vn 0.9705033898353577 0.21833346784114838 -0.10224325209856033
vn 0.9940572381019592 -0.04028462618589401 -0.10113044083118439
vn 0.9940519332885742 -0.040390025824308395 -0.10114099085330963
vn 0.9496533274650574 -0.2961445152759552 -0.10225861519575119
vn 0.9496347308158875 -0.29620277881622314 -0.1022636741399765
vn 0.840724527835846 -0.5319334268569946 -0.1011393591761589
vn 0.8407374620437622 -0.531914234161377 -0.10113213956356049
vn 0.6743329763412476 -0.7313134670257568 -0.1022520363330841
vn 0.6743027567863464 -0.7313398718833923 -0.10226339846849442
vn 0.46208134293556213 -0.8810520768165588 -0.1011333018541336
vn 0.4621315002441406 -0.8810266256332397 -0.10112599283456802
vn 0.21829795837402344 -0.9705103635787964 -0.10225272178649902
vn 0.2183520346879959 -0.9704985022544861 -0.10224968194961548
vn -0.040288619697093964 -0.9940568804740906 -0.10113242268562317
vn -0.04034337028861046 -0.9940544366836548 -0.10113467276096344
vn -0.29623210430145264 -0.949626088142395 -0.10225953906774521
vn -0.2962043881416321 -0.9496346712112427 -0.10225974023342133
vn -0.5319458842277527 -0.8407164812088013 -0.10113909095525742
vn -0.5319653749465942 -0.8407042622566223 -0.10113920271396637
vn -0.7313092350959778 -0.6743367910385132 -0.10225802659988403
vn -0.7313539385795593 -0.6742868423461914 -0.10226824134588242
vn -0.8810481429100037 -0.4620881974697113 -0.1011366993188858
vn -0.8810169696807861 -0.4621492326259613 -0.10112904757261276
vn -0.9705198407173157 -0.21825098991394043 -0.10226251184940338
vn -0.9704945087432861 -0.21836914122104645 -0.10225111991167068
vn -0.9940556883811951 0.040312957018613815 -0.1011347845196724
vn -0.994051456451416 0.04038291424512863 -0.1011478453874588
vn -0.9496537446975708 0.2961420714855194 -0.1022622361779213
vn -0.9496262669563293 0.2962299883365631 -0.1022636741399765
vn -0.8407252430915833 0.5319324731826782 -0.10113748908042908
vn -0.8407497406005859 0.531894862651825 -0.10113213956356049
vn -0.6743302345275879 0.7313147783279419 -0.10226168483495712
vn -0.6743617057800293 0.7312861084938049 -0.10225863009691238
vn -0.4620909094810486 0.8810464143753052 -0.10113945603370667
vn -0.46207085251808167 0.8810564279556274 -0.10114386677742004
vn -0.2182604819536209 0.970517635345459 -0.10226387530565262
vn -0.2182898372411728 0.9705116152763367 -0.1022576317191124
vn 0.040283143520355225 0.9940566420555115 -0.10113684087991714
vn 0.04031578451395035 0.994054913520813 -0.1011410653591156
vn 0.29619282484054565 0.9496381878852844 -0.10225997120141983
vn 0.2962397336959839 0.9496231079101562 -0.10226374864578247
f 1/1/1 2/2/2 3/3/3
f 3/4/3 4/5/4 1/6/1
f 5/7/5 1/8/1 4/9/4
f 4/10/4 6/11/6 5/12/5
f 7/13/7 5/14/5 6/15/6
f 6/16/6 8/17/8 7/18/7
f 9/19/9 7/20/7 8/21/8
f 8/22/8 10/23/10 9/24/9
f 11/25/11 9/26/9 10/27/10
f 10/28/10 12/29/12 11/30/11
f 13/31/13 11/32/11 12/33/12
f 12/34/12 14/35/14 13/36/13
f 15/37/15 13/38/13 14/39/14
f 14/40/14 16/41/16 15/42/15
f 17/43/17 15/44/15 16/45/16
f 16/46/16 18/47/18 17/48/17
f 19/49/19 17/50/17 18/51/18
f 18/52/18 20/53/20 19/54/19
f 21/55/21 19/56/19 20/57/20
f 20/58/20 22/59/22 21/60/21
f 23/61/23 21/62/21 22/63/22
f 22/64/22 24/65/24 23/66/23
f 2/67/2 23/68/23 24/69/24
f 24/70/24 3/71/3 2/72/2
f 25/73/25 26/74/26 27/75/27
f 27/76/27 28/77/28 25/78/25
f 25/79/25 28/80/28 29/81/29
f 29/82/29 30/83/30 25/84/25
f 31/85/31 30/86/30 29/87/29
f 29/88/29 32/89/32 31/90/31
f 31/91/31 32/92/32 33/93/33
f 33/94/33 34/95/34 31/96/31
f 35/97/35 34/98/34 33/99/33
f 33/100/33 36/101/36 35/102/35
f 35/103/35 36/104/36 37/105/37
f 37/106/37 38/107/38 35/108/35
f 39/109/39 38/110/38 37/111/37
f 37/112/37 40/113/40 39/114/39
f 39/115/39 40/116/40 41/117/41
f 41/118/41 42/119/42 39/120/39
f 43/121/43 42/122/42 41/123/41
f 41/124/41 44/125/44 43/126/43
f 43/127/43 44/128/44 45/129/45
f 45/130/45 46/131/46 43/132/43
f 47/133/47 46/134/46 45/135/45
f 45/136/45 48/137/48 47/138/47
f 47/139/47 48/140/48 49/141/49
f 49/142/49 50/143/50 47/144/47
f 51/145/51 50/146/50 49/147/49
f 49/148/49 52/149/52 51/150/51
f 51/151/51 52/152/52 53/153/53
f 53/154/53 54/155/54 51/156/51
f 55/157/55 54/158/54 53/159/53
f 53/160/53 56/161/56 55/162/55
f 55/163/55 56/164/56 57/165/57
f 57/166/57 58/167/58 55/168/55
f 59/169/59 58/170/58 57/171/57
f 57/172/57 60/173/60 59/174/59
f 59/175/59 60/176/60 61/177/61
f 61/178/61 62/179/62 59/180/59
f 63/181/63 62/182/62 61/183/61
f 61/184/61 64/185/64 63/186/63
f 63/187/63 64/188/64 65/189/65
f 65/190/65 66/191/66 63/192/63
f 67/193/67 66/194/66 65/195/65
f 65/196/65 68/197/68 67/198/67
f 67/199/67 68/200/68 69/201/69
f 69/202/69 70/203/70 67/204/67
f 71/205/71 70/206/70 69/207/69
f 69/208/69 72/209/72 71/210/71
f 71/211/71 72/212/72 27/213/27
f 27/214/27 26/215/26 71/216/71
