# Exported by Lightwave Blender addon
v 553.4967651367188 -1440.6025390625 898.4937744140625
v 631.3062133789062 -1472.41943359375 898.4938354492188
v 632.7037353515625 -1469.0018310546875 897.88720703125
v 554.894287109375 -1437.1849365234375 897.8870849609375
v 632.8905029296875 -1468.5450439453125 897.80615234375
v 555.0810546875 -1436.7281494140625 897.8060302734375
v 555.0253295898438 -1436.8643798828125 894.6298217773438
v 632.8347778320312 -1468.6812744140625 894.6299438476562
v 632.64794921875 -1469.13818359375 894.5504150390625
v 554.8385009765625 -1437.3212890625 894.5504150390625
v 631.22265625 -1472.623779296875 893.9443969726562
v 553.4132080078125 -1440.806884765625 893.9443969726562
v 632.8817138671875 -1468.5665283203125 897.306640625
v 555.072265625 -1436.7496337890625 897.306640625
v 632.8435668945312 -1468.6597900390625 895.1293334960938
v 555.0340576171875 -1436.8428955078125 895.1293334960938
vt 0.41015625 0.52587890625
vt -0.00998687744140625 0.52587890625
vt -0.00998687744140625 0.507568359375
vt 0.41015625 0.507568359375
vt 0.41015625 0.52587890625
vt -0.00998687744140625 0.507568359375
vt 0.41015625 0.507568359375
vt -0.00998687744140625 0.507568359375
vt -0.00998687744140625 0.505126953125
vt 0.41015625 0.505126953125
vt 0.41015625 0.507568359375
vt -0.00998687744140625 0.505126953125
vt 0.58935546875 0.505859375
vt 1.009765625 0.505859375
vt 1.009765625 0.50830078125
vt 0.58935546875 0.50830078125
vt 0.58935546875 0.505859375
vt 1.009765625 0.50830078125
vt 0.58935546875 0.50830078125
vt 1.009765625 0.50830078125
vt 1.009765625 0.527099609375
vt 0.58935546875 0.527099609375
vt 0.58935546875 0.50830078125
vt 1.009765625 0.527099609375
vt 0.58935546875 0.3798828125
vt 1.009765625 0.3798828125
vt 1.009765625 0.38232421875
vt 0.58935546875 0.38232421875
vt 0.58935546875 0.3798828125
vt 1.009765625 0.38232421875
vt 0.58935546875 0.38232421875
vt 1.009765625 0.38232421875
vt 1.009765625 0.3935546875
vt 0.58935546875 0.3935546875
vt 0.58935546875 0.38232421875
vt 1.009765625 0.3935546875
vt 0.58935546875 0.3935546875
vt 1.009765625 0.3935546875
vt 1.009765625 0.39599609375
vt 0.58935546875 0.39599609375
vt 0.58935546875 0.3935546875
vt 1.009765625 0.39599609375
vn 0.061365727335214615 0.1500760167837143 0.9867681264877319
vn 0.06136054918169975 0.1500614732503891 0.986770749092102
vn 0.06135135889053345 0.15003998577594757 0.9867745041847229
vn 0.06135395169258118 0.15004724264144897 0.9867732524871826
vn 0.294111967086792 0.7192646861076355 0.629409670829773
vn 0.294118195772171 0.7192800045013428 0.6293893456459045
vn 0.2823382019996643 0.690468966960907 -0.6659862995147705
vn 0.28235486149787903 0.690507709980011 -0.6659390330314636
vn 0.06016939878463745 0.14714470505714417 -0.9872831106185913
vn 0.060123879462480545 0.14703527092933655 -0.987302303314209
vn 0.06013595685362816 0.14706481993198395 -0.9872970581054688
vn 0.06013595685362816 0.14706480503082275 -0.987296998500824
vn 0.378081351518631 0.9246125817298889 -0.046324633061885834
vn 0.3780810236930847 0.9246122241020203 -0.046335477381944656
vn 0.37808114290237427 0.9246124029159546 -0.04633036628365517
vn 0.3780815601348877 0.924613356590271 -0.04630696401000023
f 1/1/1 2/2/2 3/3/3
f 4/4/4 1/5/1 3/6/3
f 4/7/4 3/8/3 5/9/5
f 6/10/6 4/11/4 5/12/5
f 7/13/7 8/14/8 9/15/9
f 10/16/10 7/17/7 9/18/9
f 10/19/10 9/20/9 11/21/11
f 12/22/12 10/23/10 11/24/11
f 6/25/6 5/26/5 13/27/13
f 14/28/14 6/29/6 13/30/13
f 14/31/14 13/32/13 15/33/15
f 16/34/16 14/35/14 15/36/15
f 16/37/16 15/38/15 8/39/8
f 7/40/7 16/41/16 8/42/8
