# Exported by Lightwave Blender addon
v 2248.156494140625 -950.9923095703125 1066.6854248046875
v 2248.156494140625 -950.9923095703125 886.9804077148438
v 2300.502197265625 -971.8489990234375 886.9804077148438
v 2300.502197265625 -971.8489990234375 1066.6854248046875
v 2354.46240234375 -993.3489990234375 1066.6854248046875
v 2301.810302734375 -972.3702392578125 1066.6854248046875
v 2301.810302734375 -972.3701782226562 886.9804077148438
v 2354.46240234375 -993.348876953125 886.9804077148438
vt 0.251220703125 0.9884872436523438
vt 0.251220703125 0.22509765625
vt 0.497802734375 0.22509765625
vt 0.497802734375 0.22509765625
vt 0.497802734375 0.9884872436523438
vt 0.251220703125 0.9884872436523438
vt 0.2491455078125 0.9884872436523438
vt 0.00260162353515625 0.9884872436523438
vt 0.00260162353515625 0.22509765625
vt 0.00260162353515625 0.22509765625
vt 0.2491455078125 0.22509765625
vt 0.2491455078125 0.9884872436523438
vn -0.3701420724391937 -0.9289751648902893 0.0
vn -0.3701420724391937 -0.9289752244949341 0.0
vn -0.3701420724391937 -0.9289751648902893 0.0
vn -0.3701420724391937 -0.9289752244949341 0.0
vn -0.37014174461364746 -0.9289753437042236 -3.768801661863108e-07
vn -0.370141863822937 -0.9289752244949341 -3.155178944780346e-07
vn -0.3701411187648773 -0.9289755821228027 -5.696737730431778e-07
vn -0.370140939950943 -0.9289756417274475 -6.310360731731635e-07
f 1/1/1 2/2/2 3/3/3
f 3/4/3 4/5/4 1/6/1
f 5/7/5 6/8/6 7/9/7
f 7/10/7 8/11/8 5/12/5
