# Exported by Lightwave Blender addon
v -2700.5146484375 2097.40771484375 339.44366455078125
v -2694.715087890625 2092.8515625 339.44366455078125
v -2693.40966796875 2095.904296875 302.97845458984375
v -2697.857666015625 2099.398681640625 302.97845458984375
v -2703.25927734375 2104.2529296875 339.44366455078125
v -2699.962890625 2104.64892578125 302.97845458984375
v -2702.213623046875 2111.553466796875 339.44366455078125
v -2699.160888671875 2110.248046875 302.97845458984375
v -2697.657470703125 2117.35302734375 339.44366455078125
v -2695.66650390625 2114.696044921875 302.97845458984375
v -2690.812255859375 2120.097412109375 339.44366455078125
v -2690.416259765625 2116.80126953125 302.97845458984375
v -2683.51171875 2119.052001953125 339.44366455078125
v -2684.817138671875 2115.999267578125 302.97845458984375
v -2677.712158203125 2114.495849609375 339.44366455078125
v -2680.369140625 2112.5048828125 302.97845458984375
v -2674.967529296875 2107.650634765625 339.44366455078125
v -2678.263916015625 2107.254638671875 302.97845458984375
v -2676.01318359375 2100.35009765625 339.44366455078125
v -2679.066162109375 2101.655517578125 302.97845458984375
v -2680.5693359375 2094.550537109375 339.44366455078125
v -2682.560302734375 2097.20751953125 302.97845458984375
v -2687.41455078125 2091.805908203125 339.44366455078125
v -2687.810546875 2095.102294921875 302.97845458984375
v -2696.735107421875 2096.249755859375 302.97845458984375
v -2693.910400390625 2094.7333984375 302.97845458984375
v -2695.367919921875 2091.324951171875 339.44366455078125
v -2699.05078125 2093.302001953125 339.44366455078125
v -2701.84326171875 2096.411865234375 339.44366455078125
v -2698.876953125 2098.635009765625 302.97845458984375
v -2700.56494140625 2101.3603515625 302.97845458984375
v -2704.04443359375 2099.96533203125 339.44366455078125
v -2704.90771484375 2104.054931640625 339.44366455078125
v -2701.227294921875 2104.4970703125 302.97845458984375
v -2701.32666015625 2107.701416015625 302.97845458984375
v -2705.037353515625 2108.23291015625 339.44366455078125
v -2703.740234375 2112.206298828125 339.44366455078125
v -2700.331787109375 2110.748779296875 302.97845458984375
v -2698.815673828125 2113.5732421875 302.97845458984375
v -2701.763427734375 2115.888916015625 339.44366455078125
v -2698.6533203125 2118.681640625 339.44366455078125
v -2696.43017578125 2115.715087890625 302.97845458984375
v -2693.704833984375 2117.4033203125 302.97845458984375
v -2695.099853515625 2120.882568359375 339.44366455078125
v -2691.01025390625 2121.74609375 339.44366455078125
v -2690.568359375 2118.0654296875 302.97845458984375
v -2687.364013671875 2118.164794921875 302.97845458984375
v -2686.83251953125 2121.87548828125 339.44366455078125
v -2682.85888671875 2120.57861328125 339.44366455078125
v -2684.31640625 2117.170166015625 302.97845458984375
v -2681.491943359375 2115.65380859375 302.97845458984375
v -2679.17626953125 2118.6015625 339.44366455078125
v -2676.383544921875 2115.49169921875 339.44366455078125
v -2679.35009765625 2113.2685546875 302.97845458984375
v -2677.661865234375 2110.543212890625 302.97845458984375
v -2674.1826171875 2111.938232421875 339.44366455078125
v -2673.319091796875 2107.848388671875 339.44366455078125
v -2676.999755859375 2107.406494140625 302.97845458984375
v -2676.900390625 2104.2021484375 302.97845458984375
v -2673.189697265625 2103.670654296875 339.44366455078125
v -2674.48681640625 2099.697265625 339.44366455078125
v -2677.895263671875 2101.15478515625 302.97845458984375
v -2679.411376953125 2098.330078125 302.97845458984375
v -2676.463623046875 2096.0146484375 339.44366455078125
v -2679.573486328125 2093.221923828125 339.44366455078125
v -2681.796630859375 2096.1884765625 302.97845458984375
v -2684.52197265625 2094.500244140625 302.97845458984375
v -2683.126953125 2091.020751953125 339.44366455078125
v -2687.216552734375 2090.157470703125 339.44366455078125
v -2687.65869140625 2093.838134765625 302.97845458984375
v -2690.863037109375 2093.73876953125 302.97845458984375
v -2691.39453125 2090.028076171875 339.44366455078125
vt 0.0927734375 0.09716796875
vt 0.0162200927734375 0.09716796875
vt 0.0162200927734375 0.9044189453125
vt 0.0162200927734375 0.9044189453125
vt 0.0927734375 0.9044189453125
vt 0.0927734375 0.09716796875
vt 0.1728515625 0.09716796875
vt 0.0927734375 0.09716796875
vt 0.0927734375 0.9044189453125
vt 0.0927734375 0.9044189453125
vt 0.1728515625 0.9044189453125
vt 0.1728515625 0.09716796875
vt 0.2529296875 0.09716796875
vt 0.1728515625 0.09716796875
vt 0.1728515625 0.9044189453125
vt 0.1728515625 0.9044189453125
vt 0.2529296875 0.9044189453125
vt 0.2529296875 0.09716796875
vt 0.3330078125 0.09716796875
vt 0.2529296875 0.09716796875
vt 0.2529296875 0.9044189453125
vt 0.2529296875 0.9044189453125
vt 0.3330078125 0.9044189453125
vt 0.3330078125 0.09716796875
vt 0.4130859375 0.09716796875
vt 0.3330078125 0.09716796875
vt 0.3330078125 0.9044189453125
vt 0.3330078125 0.9044189453125
vt 0.4130859375 0.9044189453125
vt 0.4130859375 0.09716796875
vt 0.4931640625 0.09716796875
vt 0.4130859375 0.09716796875
vt 0.4130859375 0.9044189453125
vt 0.4130859375 0.9044189453125
vt 0.4931640625 0.9044189453125
vt 0.4931640625 0.09716796875
vt 0.5732421875 0.09716796875
vt 0.4931640625 0.09716796875
vt 0.4931640625 0.9044189453125
vt 0.4931640625 0.9044189453125
vt 0.5732421875 0.9044189453125
vt 0.5732421875 0.09716796875
vt 0.6533203125 0.09716796875
vt 0.5732421875 0.09716796875
vt 0.5732421875 0.9044189453125
vt 0.5732421875 0.9044189453125
vt 0.6533203125 0.9044189453125
vt 0.6533203125 0.09716796875
vt 0.7333984375 0.09716796875
vt 0.6533203125 0.09716796875
vt 0.6533203125 0.9044189453125
vt 0.6533203125 0.9044189453125
vt 0.7333984375 0.9044189453125
vt 0.7333984375 0.09716796875
vt 0.8134765625 0.09716796875
vt 0.7333984375 0.09716796875
vt 0.7333984375 0.9044189453125
vt 0.7333984375 0.9044189453125
vt 0.8134765625 0.9044189453125
vt 0.8134765625 0.09716796875
vt 0.8935546875 0.09716796875
vt 0.8134765625 0.09716796875
vt 0.8134765625 0.9044189453125
vt 0.8134765625 0.9044189453125
vt 0.8935546875 0.9044189453125
vt 0.8935546875 0.09716796875
vt 0.984375 0.09716796875
vt 0.8935546875 0.09716796875
vt 0.8935546875 0.9044189453125
vt 0.8935546875 0.9044189453125
vt 0.984375 0.9044189453125
vt 0.984375 0.09716796875
vt 0.05450439453125 0.9044189453125
vt 0.0162200927734375 0.9044189453125
vt 0.0162200927734375 0.09716796875
vt 0.0162200927734375 0.09716796875
vt 0.05450439453125 0.09716796875
vt 0.05450439453125 0.9044189453125
vt 0.05450439453125 0.9044189453125
vt 0.05450439453125 0.09716796875
vt 0.0927734375 0.09716796875
vt 0.0927734375 0.09716796875
vt 0.0927734375 0.9044189453125
vt 0.05450439453125 0.9044189453125
vt 0.1328125 0.9044189453125
vt 0.0927734375 0.9044189453125
vt 0.0927734375 0.09716796875
vt 0.0927734375 0.09716796875
vt 0.1328125 0.09716796875
vt 0.1328125 0.9044189453125
vt 0.1328125 0.9044189453125
vt 0.1328125 0.09716796875
vt 0.1728515625 0.09716796875
vt 0.1728515625 0.09716796875
vt 0.1728515625 0.9044189453125
vt 0.1328125 0.9044189453125
vt 0.212890625 0.9044189453125
vt 0.1728515625 0.9044189453125
vt 0.1728515625 0.09716796875
vt 0.1728515625 0.09716796875
vt 0.212890625 0.09716796875
vt 0.212890625 0.9044189453125
vt 0.212890625 0.9044189453125
vt 0.212890625 0.09716796875
vt 0.2529296875 0.09716796875
vt 0.2529296875 0.09716796875
vt 0.2529296875 0.9044189453125
vt 0.212890625 0.9044189453125
vt 0.29296875 0.9044189453125
vt 0.2529296875 0.9044189453125
vt 0.2529296875 0.09716796875
vt 0.2529296875 0.09716796875
vt 0.29296875 0.09716796875
vt 0.29296875 0.9044189453125
vt 0.29296875 0.9044189453125
vt 0.29296875 0.09716796875
vt 0.3330078125 0.09716796875
vt 0.3330078125 0.09716796875
vt 0.3330078125 0.9044189453125
vt 0.29296875 0.9044189453125
vt 0.373046875 0.9044189453125
vt 0.3330078125 0.9044189453125
vt 0.3330078125 0.09716796875
vt 0.3330078125 0.09716796875
vt 0.373046875 0.09716796875
vt 0.373046875 0.9044189453125
vt 0.373046875 0.9044189453125
vt 0.373046875 0.09716796875
vt 0.4130859375 0.09716796875
vt 0.4130859375 0.09716796875
vt 0.4130859375 0.9044189453125
vt 0.373046875 0.9044189453125
vt 0.453125 0.9044189453125
vt 0.4130859375 0.9044189453125
vt 0.4130859375 0.09716796875
vt 0.4130859375 0.09716796875
vt 0.453125 0.09716796875
vt 0.453125 0.9044189453125
vt 0.453125 0.9044189453125
vt 0.453125 0.09716796875
vt 0.4931640625 0.09716796875
vt 0.4931640625 0.09716796875
vt 0.4931640625 0.9044189453125
vt 0.453125 0.9044189453125
vt 0.533203125 0.9044189453125
vt 0.4931640625 0.9044189453125
vt 0.4931640625 0.09716796875
vt 0.4931640625 0.09716796875
vt 0.533203125 0.09716796875
vt 0.533203125 0.9044189453125
vt 0.533203125 0.9044189453125
vt 0.533203125 0.09716796875
vt 0.5732421875 0.09716796875
vt 0.5732421875 0.09716796875
vt 0.5732421875 0.9044189453125
vt 0.533203125 0.9044189453125
vt 0.61328125 0.9044189453125
vt 0.5732421875 0.9044189453125
vt 0.5732421875 0.09716796875
vt 0.5732421875 0.09716796875
vt 0.61328125 0.09716796875
vt 0.61328125 0.9044189453125
vt 0.61328125 0.9044189453125
vt 0.61328125 0.09716796875
vt 0.6533203125 0.09716796875
vt 0.6533203125 0.09716796875
vt 0.6533203125 0.9044189453125
vt 0.61328125 0.9044189453125
vt 0.693359375 0.9044189453125
vt 0.6533203125 0.9044189453125
vt 0.6533203125 0.09716796875
vt 0.6533203125 0.09716796875
vt 0.693359375 0.09716796875
vt 0.693359375 0.9044189453125
vt 0.693359375 0.9044189453125
vt 0.693359375 0.09716796875
vt 0.7333984375 0.09716796875
vt 0.7333984375 0.09716796875
vt 0.7333984375 0.9044189453125
vt 0.693359375 0.9044189453125
vt 0.7734375 0.9044189453125
vt 0.7333984375 0.9044189453125
vt 0.7333984375 0.09716796875
vt 0.7333984375 0.09716796875
vt 0.7734375 0.09716796875
vt 0.7734375 0.9044189453125
vt 0.7734375 0.9044189453125
vt 0.7734375 0.09716796875
vt 0.8134765625 0.09716796875
vt 0.8134765625 0.09716796875
vt 0.8134765625 0.9044189453125
vt 0.7734375 0.9044189453125
vt 0.853515625 0.9044189453125
vt 0.8134765625 0.9044189453125
vt 0.8134765625 0.09716796875
vt 0.8134765625 0.09716796875
vt 0.853515625 0.09716796875
vt 0.853515625 0.9044189453125
vt 0.853515625 0.9044189453125
vt 0.853515625 0.09716796875
vt 0.8935546875 0.09716796875
vt 0.8935546875 0.09716796875
vt 0.8935546875 0.9044189453125
vt 0.853515625 0.9044189453125
vt 0.93896484375 0.9044189453125
vt 0.8935546875 0.9044189453125
vt 0.8935546875 0.09716796875
vt 0.8935546875 0.09716796875
vt 0.93896484375 0.09716796875
vt 0.93896484375 0.9044189453125
vt 0.93896484375 0.9044189453125
vt 0.93896484375 0.09716796875
vt 0.984375 0.09716796875
vt 0.984375 0.09716796875
vt 0.984375 0.9044189453125
vt 0.93896484375 0.9044189453125
vn 0.7969390153884888 0.5972154140472412 0.09067492932081223
vn 0.39155858755111694 0.9156746864318848 0.09067384898662567
vn 0.391558974981308 0.9156743884086609 0.09067466855049133
vn 0.7969322204589844 0.5972246527671814 0.0906735509634018
vn 0.9887746572494507 0.11875559389591217 0.09067428857088089
vn 0.988773763179779 0.11876384913921356 0.09067367762327194
vn 0.9156746864318848 -0.39155861735343933 0.09067385643720627
vn 0.9156743884086609 -0.391558974981308 0.09067466855049133
vn 0.5972033739089966 -0.7969480156898499 0.09067493677139282
vn 0.5972232818603516 -0.796933650970459 0.09067077189683914
vn 0.11875823885202408 -0.9887746572494507 0.09066992253065109
vn 0.11876583099365234 -0.9887738227844238 0.09067006409168243
vn -0.3915453255176544 -0.9156805276870728 0.09067150205373764
vn -0.391558974981308 -0.9156743884086609 0.09067466855049133
vn -0.7969390153884888 -0.5972154140472412 0.09067492932081223
vn -0.7969322204589844 -0.5972246527671814 0.0906735509634018
vn -0.9887746572494507 -0.11875559389591217 0.09067428857088089
vn -0.9887755513191223 -0.1187450960278511 0.09067752957344055
vn -0.9156737327575684 0.39155998826026917 0.09067688882350922
vn -0.9156714677810669 0.3915654122829437 0.09067767858505249
vn -0.5972166061401367 0.796937882900238 0.09067736566066742
vn -0.5972384214401245 0.7969219088554382 0.0906735435128212
vn -0.11875559389591217 0.9887746572494507 0.09067428857088089
vn -0.11876384913921356 0.988773763179779 0.09067367762327194
vn -0.6145214438438416 -0.7822445034980774 -0.10225892812013626
vn -0.3911551535129547 -0.9147507548332214 -0.10113738477230072
vn -0.3911570906639099 -0.9147499203681946 -0.10113721340894699
vn -0.6145247220993042 -0.782241940498352 -0.10225899517536163
vn -0.796116828918457 -0.5966315269470215 -0.10113796591758728
vn -0.7961311936378479 -0.596612811088562 -0.1011355072259903
vn -0.923308253288269 -0.37019628286361694 -0.10225740075111389
vn -0.9233097434043884 -0.37019082903862 -0.10226383060216904
vn -0.9877738952636719 -0.11863403022289276 -0.10113762319087982
vn -0.9877715706825256 -0.1186557412147522 -0.10113410651683807
vn -0.9847061634063721 0.14105665683746338 -0.1022593230009079
vn -0.9847084283828735 0.14103996753692627 -0.10225946456193924
vn -0.9147437214851379 0.39117172360420227 -0.1011362224817276
vn -0.9147424697875977 0.3911741375923157 -0.10113736987113953
vn -0.7822391390800476 0.6145277619361877 -0.10226226598024368
vn -0.7822504639625549 0.6145137548446655 -0.10225898027420044
vn -0.5966148376464844 0.7961295247077942 -0.10113628208637238
vn -0.596618115901947 0.7961263656616211 -0.10114075988531113
vn -0.37019866704940796 0.9233067035675049 -0.10226353257894516
vn -0.3701947033405304 0.923308789730072 -0.10225772857666016
vn -0.11863227188587189 0.9877741932868958 -0.10113630443811417
vn -0.11862688511610031 0.9877744317054749 -0.10113987326622009
vn 0.14101164042949677 0.9847123026847839 -0.10226114839315414
vn 0.1410316526889801 0.984709620475769 -0.10225945711135864
vn 0.39116141200065613 0.914747953414917 -0.10113780200481415
vn 0.39116084575653076 0.9147482514381409 -0.10113738477230072
vn 0.6145341992378235 0.782234251499176 -0.10226079076528549
vn 0.6145185828208923 0.7822468280792236 -0.10225899517536163
vn 0.7961176633834839 0.5966304540634155 -0.10113675892353058
vn 0.7961112260818481 0.596638560295105 -0.10114078223705292
vn 0.9233095049858093 0.37019145488739014 -0.10226371139287949
vn 0.9233109951019287 0.37018921971321106 -0.10225772112607956
vn 0.9877749085426331 0.11862622946500778 -0.10113617032766342
vn 0.9877753853797913 0.11861906945705414 -0.1011398509144783
vn 0.9847055673599243 -0.14105866849422455 -0.10226233303546906
vn 0.9847044944763184 -0.1410675048828125 -0.10225946456193924
vn 0.9147443175315857 -0.3911709487438202 -0.1011347696185112
vn 0.9147496223449707 -0.3911575675010681 -0.10113736987113953
vn 0.7822483777999878 -0.6145159602165222 -0.1022624745965004
vn 0.7822631597518921 -0.6144985556602478 -0.10225492715835571
vn 0.5966478586196899 -0.7961047291755676 -0.1011364758014679
vn 0.5966157913208008 -0.7961282134056091 -0.10114077478647232
vn 0.370191752910614 -0.9233092665672302 -0.10226479917764664
vn 0.37019082903862 -0.9233097434043884 -0.10226383060216904
vn 0.1186048835515976 -0.9877772927284241 -0.10113874822854996
vn 0.11861869692802429 -0.9877753853797913 -0.10114065557718277
vn -0.14102332293987274 -0.984710693359375 -0.10226154327392578
vn -0.1410413682460785 -0.9847082495689392 -0.10225947946310043
f 1/1/1 2/2/2 3/3/3
f 3/4/3 4/5/4 1/6/1
f 5/7/5 1/8/1 4/9/4
f 4/10/4 6/11/6 5/12/5
f 7/13/7 5/14/5 6/15/6
f 6/16/6 8/17/8 7/18/7
f 9/19/9 7/20/7 8/21/8
f 8/22/8 10/23/10 9/24/9
f 11/25/11 9/26/9 10/27/10
f 10/28/10 12/29/12 11/30/11
f 13/31/13 11/32/11 12/33/12
f 12/34/12 14/35/14 13/36/13
f 15/37/15 13/38/13 14/39/14
f 14/40/14 16/41/16 15/42/15
f 17/43/17 15/44/15 16/45/16
f 16/46/16 18/47/18 17/48/17
f 19/49/19 17/50/17 18/51/18
f 18/52/18 20/53/20 19/54/19
f 21/55/21 19/56/19 20/57/20
f 20/58/20 22/59/22 21/60/21
f 23/61/23 21/62/21 22/63/22
f 22/64/22 24/65/24 23/66/23
f 2/67/2 23/68/23 24/69/24
f 24/70/24 3/71/3 2/72/2
f 25/73/25 26/74/26 27/75/27
f 27/76/27 28/77/28 25/78/25
f 25/79/25 28/80/28 29/81/29
f 29/82/29 30/83/30 25/84/25
f 31/85/31 30/86/30 29/87/29
f 29/88/29 32/89/32 31/90/31
f 31/91/31 32/92/32 33/93/33
f 33/94/33 34/95/34 31/96/31
f 35/97/35 34/98/34 33/99/33
f 33/100/33 36/101/36 35/102/35
f 35/103/35 36/104/36 37/105/37
f 37/106/37 38/107/38 35/108/35
f 39/109/39 38/110/38 37/111/37
f 37/112/37 40/113/40 39/114/39
f 39/115/39 40/116/40 41/117/41
f 41/118/41 42/119/42 39/120/39
f 43/121/43 42/122/42 41/123/41
f 41/124/41 44/125/44 43/126/43
f 43/127/43 44/128/44 45/129/45
f 45/130/45 46/131/46 43/132/43
f 47/133/47 46/134/46 45/135/45
f 45/136/45 48/137/48 47/138/47
f 47/139/47 48/140/48 49/141/49
f 49/142/49 50/143/50 47/144/47
f 51/145/51 50/146/50 49/147/49
f 49/148/49 52/149/52 51/150/51
f 51/151/51 52/152/52 53/153/53
f 53/154/53 54/155/54 51/156/51
f 55/157/55 54/158/54 53/159/53
f 53/160/53 56/161/56 55/162/55
f 55/163/55 56/164/56 57/165/57
f 57/166/57 58/167/58 55/168/55
f 59/169/59 58/170/58 57/171/57
f 57/172/57 60/173/60 59/174/59
f 59/175/59 60/176/60 61/177/61
f 61/178/61 62/179/62 59/180/59
f 63/181/63 62/182/62 61/183/61
f 61/184/61 64/185/64 63/186/63
f 63/187/63 64/188/64 65/189/65
f 65/190/65 66/191/66 63/192/63
f 67/193/67 66/194/66 65/195/65
f 65/196/65 68/197/68 67/198/67
f 67/199/67 68/200/68 69/201/69
f 69/202/69 70/203/70 67/204/67
f 71/205/71 70/206/70 69/207/69
f 69/208/69 72/209/72 71/210/71
f 71/211/71 72/212/72 27/213/27
f 27/214/27 26/215/26 71/216/71
