# Exported by Lightwave Blender addon
v 145.5777130126953 -158.54891967773438 498.3572998046875
v 145.52403259277344 -158.52806091308594 548.8949584960938
v 144.95423889160156 -160.01904296875 498.3572998046875
v 144.9429931640625 -159.96401977539062 548.8729248046875
v 144.6824188232422 -160.17959594726562 548.8687744140625
v 144.689208984375 -160.23257446289062 498.3572692871094
v 143.74993896484375 -159.86756896972656 498.3572692871094
v 143.7907257080078 -159.83306884765625 548.8687744140625
v 143.74412536621094 -159.4980926513672 548.8729248046875
v 143.69866943359375 -159.5310821533203 498.3572998046875
v 144.2315216064453 -158.0257568359375 498.3572998046875
v 144.2852325439453 -158.04660034179688 548.8949584960938
v 232.13043212890625 -192.18592834472656 498.35723876953125
v 232.07675170898438 -192.16505432128906 548.8948364257812
v 231.5069580078125 -193.65602111816406 498.3572692871094
v 231.49571228027344 -193.6009979248047 548.872802734375
v 231.23513793945312 -193.81658935546875 548.86865234375
v 231.24191284179688 -193.8695831298828 498.35723876953125
v 230.30267333984375 -193.5045623779297 498.35723876953125
v 230.3434600830078 -193.47007751464844 548.86865234375
v 230.29685974121094 -193.1350860595703 548.872802734375
v 230.25140380859375 -193.1680908203125 498.3572692871094
v 230.78424072265625 -191.6627655029297 498.35723876953125
v 230.83795166015625 -191.6836395263672 548.8948364257812
v 136.736572265625 -154.28211975097656 539.9951782226562
v 239.5279083251953 -194.22991943359375 539.9949951171875
v 135.52178955078125 -157.407958984375 540.0186767578125
v 238.31307983398438 -197.35577392578125 540.0185546875
v 238.20687866210938 -197.62908935546875 540.23388671875
v 135.41555786132812 -157.6812744140625 540.2340087890625
v 135.41555786132812 -157.6812744140625 541.3352661132812
v 238.2068634033203 -197.62908935546875 541.335205078125
v 238.31309509277344 -197.35577392578125 541.5505981445312
v 135.5217742919922 -157.407958984375 541.5507202148438
v 136.736572265625 -154.28211975097656 541.57421875
v 239.5279083251953 -194.22991943359375 541.5740966796875
v 136.73655700683594 -154.2821044921875 497.10107421875
v 239.5278778076172 -194.2299041748047 497.10101318359375
v 135.52174377441406 -157.407958984375 497.1246032714844
v 238.3131103515625 -197.35577392578125 497.1245422363281
v 238.20689392089844 -197.62905883789062 497.3399353027344
v 135.41552734375 -157.68124389648438 497.34002685546875
v 135.41554260253906 -157.68124389648438 498.44122314453125
v 238.2068634033203 -197.62905883789062 498.4411926269531
v 238.31309509277344 -197.35577392578125 498.6565856933594
v 135.52174377441406 -157.407958984375 498.6566467285156
v 136.73655700683594 -154.2821044921875 498.6801452636719
v 239.52789306640625 -194.2299041748047 498.68011474609375
v 135.84982299804688 -153.56304931640625 548.203857421875
v 135.8498077392578 -153.5630645751953 548.7239990234375
v 240.9514923095703 -194.3800506591797 548.7238159179688
v 240.9514923095703 -194.38006591796875 548.2037353515625
v 240.83645629882812 -194.67799377441406 548.025146484375
v 135.7378692626953 -153.86209106445312 548.0252685546875
v 134.75228881835938 -156.49485778808594 548.0252075195312
v 239.8428955078125 -197.25094604492188 548.025146484375
v 239.72787475585938 -197.54888916015625 548.2037353515625
v 134.64035034179688 -156.7938995361328 548.203857421875
v 134.6403350830078 -156.7938995361328 548.7239990234375
v 239.72789001464844 -197.54888916015625 548.723876953125
vt 0.96044921875 0.53076171875
vt 0.6474609375 0.5302734375
vt 0.96044921875 0.525390625
vt 0.6474609375 0.5302734375
vt 0.6474609375 0.525146484375
vt 0.96044921875 0.525390625
vt 0.96044921875 0.525390625
vt 0.6474609375 0.525146484375
vt 0.6474609375 0.523681640625
vt 0.96044921875 0.52392578125
vt 0.96044921875 0.525390625
vt 0.6474609375 0.523681640625
vt 0.96044921875 0.52392578125
vt 0.6474609375 0.523681640625
vt 0.96044921875 0.517822265625
vt 0.6474609375 0.523681640625
vt 0.6474609375 0.517822265625
vt 0.96044921875 0.517822265625
vt 0.6474609375 0.517822265625
vt 0.6474609375 0.5166015625
vt 0.96044921875 0.517822265625
vt 0.6474609375 0.5166015625
vt 0.96044921875 0.516357421875
vt 0.96044921875 0.517822265625
vt 0.96044921875 0.510986328125
vt 0.96044921875 0.516357421875
vt 0.6474609375 0.5166015625
vt 0.6474609375 0.51123046875
vt 0.96044921875 0.510986328125
vt 0.6474609375 0.5166015625
vt 0.96044921875 0.41748046875
vt 0.6474609375 0.4169921875
vt 0.96044921875 0.412109375
vt 0.6474609375 0.4169921875
vt 0.6474609375 0.41162109375
vt 0.96044921875 0.412109375
vt 0.96044921875 0.412109375
vt 0.6474609375 0.41162109375
vt 0.6474609375 0.41015625
vt 0.96044921875 0.41064453125
vt 0.96044921875 0.412109375
vt 0.6474609375 0.41015625
vt 0.96044921875 0.41064453125
vt 0.6474609375 0.41015625
vt 0.96044921875 0.404296875
vt 0.6474609375 0.41015625
vt 0.6474609375 0.404296875
vt 0.96044921875 0.404296875
vt 0.6474609375 0.404296875
vt 0.6474609375 0.40283203125
vt 0.96044921875 0.404296875
vt 0.6474609375 0.40283203125
vt 0.96044921875 0.40283203125
vt 0.96044921875 0.404296875
vt 0.96044921875 0.3974609375
vt 0.96044921875 0.40283203125
vt 0.6474609375 0.40283203125
vt 0.6474609375 0.39794921875
vt 0.96044921875 0.3974609375
vt 0.6474609375 0.40283203125
vt 1.3857421875 0.06787109375
vt 2.08984375 0.06787109375
vt 1.3857421875 0.07958984375
vt 2.08984375 0.06787109375
vt 2.08984375 0.07958984375
vt 1.3857421875 0.07958984375
vt 1.3857421875 0.07958984375
vt 2.08984375 0.07958984375
vt 2.08984375 0.08154296875
vt 1.3857421875 0.08154296875
vt 1.3857421875 0.07958984375
vt 2.08984375 0.08154296875
vt 1.3857421875 0.08154296875
vt 2.08984375 0.08154296875
vt 1.3857421875 0.08837890625
vt 2.08984375 0.08154296875
vt 2.08984375 0.08837890625
vt 1.3857421875 0.08837890625
vt 2.08984375 0.08837890625
vt 2.08984375 0.08984375
vt 1.3857421875 0.08837890625
vt 2.08984375 0.08984375
vt 1.3857421875 0.08984375
vt 1.3857421875 0.08837890625
vt 1.3857421875 0.1015625
vt 1.3857421875 0.08984375
vt 2.08984375 0.08984375
vt 2.08984375 0.1015625
vt 1.3857421875 0.1015625
vt 2.08984375 0.08984375
vt 2.0859375 0.27880859375
vt 1.3837890625 0.27880859375
vt 2.0859375 0.26708984375
vt 1.3837890625 0.27880859375
vt 1.3837890625 0.26708984375
vt 2.0859375 0.26708984375
vt 2.0859375 0.26708984375
vt 1.3837890625 0.26708984375
vt 1.3837890625 0.26513671875
vt 2.0859375 0.26513671875
vt 2.0859375 0.26708984375
vt 1.3837890625 0.26513671875
vt 2.0859375 0.26513671875
vt 1.3837890625 0.26513671875
vt 2.0859375 0.25830078125
vt 1.3837890625 0.26513671875
vt 1.3837890625 0.25830078125
vt 2.0859375 0.25830078125
vt 1.3837890625 0.25830078125
vt 1.3837890625 0.2568359375
vt 2.0859375 0.25830078125
vt 1.3837890625 0.2568359375
vt 2.0859375 0.2568359375
vt 2.0859375 0.25830078125
vt 2.0859375 0.2451171875
vt 2.0859375 0.2568359375
vt 1.3837890625 0.2568359375
vt 1.3837890625 0.2451171875
vt 2.0859375 0.2451171875
vt 1.3837890625 0.2568359375
vt 0.2203369140625 0.26953125
vt 0.2203369140625 0.26611328125
vt 0.9130859375 0.26611328125
vt 0.9130859375 0.26904296875
vt 0.2203369140625 0.26953125
vt 0.9130859375 0.26611328125
vt 0.2203369140625 0.26953125
vt 0.9130859375 0.26904296875
vt 0.9130859375 0.27099609375
vt 0.2203369140625 0.27099609375
vt 0.2203369140625 0.26953125
vt 0.9130859375 0.27099609375
vt 0.2203369140625 0.27099609375
vt 0.9130859375 0.27099609375
vt 0.2205810546875 0.2802734375
vt 0.9130859375 0.27099609375
vt 0.9130859375 0.27978515625
vt 0.2205810546875 0.2802734375
vt 0.9130859375 0.27978515625
vt 0.9130859375 0.28173828125
vt 0.2205810546875 0.2802734375
vt 0.9130859375 0.28173828125
vt 0.2205810546875 0.28173828125
vt 0.2205810546875 0.2802734375
vt 0.2205810546875 0.28173828125
vt 0.9130859375 0.28173828125
vt 0.2205810546875 0.28466796875
vt 0.9130859375 0.28173828125
vt 0.9130859375 0.28466796875
vt 0.2205810546875 0.28466796875
vn 0.9206294417381287 -0.39043572545051575 0.0011390275321900845
vn 0.9268577694892883 -0.3754119277000427 0.0006255689077079296
vn 0.7980265021324158 -0.6026214957237244 0.0010465317172929645
vn 0.8081299662590027 -0.5890035629272461 0.0008214659756049514
vn 0.1618042141199112 -0.9868221879005432 0.0011075031943619251
vn 0.15314681828022003 -0.9882028698921204 0.001057054498232901
vn -0.7802836298942566 -0.625424861907959 0.0011070487089455128
vn -0.7857439517974854 -0.6185510754585266 0.0010569477453827858
vn -0.9938076138496399 0.11110956966876984 0.0010448844404891133
vn -0.9955487251281738 0.09424412250518799 0.0008342871442437172
vn -0.9425747990608215 0.33399447798728943 0.0006402894505299628
vn -0.9370121359825134 0.3492949306964874 0.001139909029006958
vn 0.9206265211105347 -0.3904426097869873 0.0011391467414796352
vn 0.9268564581871033 -0.37541550397872925 0.0006255752523429692
vn 0.7980380654335022 -0.602605938911438 0.0010465985396876931
vn 0.8081389665603638 -0.5889912247657776 0.0008214559638872743
vn 0.16182559728622437 -0.9868186712265015 0.0011073426576331258
vn 0.1531548798084259 -0.9882016777992249 0.0010573082836344838
vn -0.78028804063797 -0.6254192590713501 0.0011072828201577067
vn -0.785742998123169 -0.6185523271560669 0.0010567628778517246
vn -0.9938070178031921 0.11111458390951157 0.0010449691908434033
vn -0.9955493211746216 0.09423777461051941 0.0008342647342942655
vn -0.9425777196884155 0.33398619294166565 0.0006402040016837418
vn -0.93701171875 0.3492959141731262 0.0011401212541386485
vn -0.0025396710261702538 -0.006530348677188158 -0.9999754428863525
vn -0.002545607276260853 -0.00654711714014411 -0.999975323677063
vn -0.11401953548192978 -0.2933845520019531 -0.9491706490516663
vn -0.11402590572834015 -0.2934016287326813 -0.9491646885871887
vn -0.3231748640537262 -0.8315726518630981 -0.45171353220939636
vn -0.32317349314689636 -0.831569254398346 -0.45172056555747986
vn -0.3231949806213379 -0.831627368927002 0.45159828662872314
vn -0.3231828212738037 -0.8315953016281128 0.45166584849357605
vn -0.11403845250606537 -0.293439120054245 0.9491515755653381
vn -0.11406423151493073 -0.2935061454772949 0.9491277933120728
vn -0.0025370873045176268 -0.006531336344778538 0.9999754428863525
vn -0.0025370698422193527 -0.006531294900923967 0.9999754428863525
vn -0.002541913650929928 -0.006539173889905214 -0.9999754428863525
vn -0.002541916910558939 -0.006539182737469673 -0.9999753832817078
vn -0.11406390368938446 -0.29350075125694275 -0.9491294026374817
vn -0.11405163258314133 -0.29346948862075806 -0.9491405487060547
vn -0.3231859803199768 -0.831602156162262 -0.45165112614631653
vn -0.32319408655166626 -0.8316230177879333 -0.45160678029060364
vn -0.32319343090057373 -0.8316230177879333 0.4516073167324066
vn -0.32318663597106934 -0.8316048383712769 0.45164552330970764
vn -0.11404691636562347 -0.2934594452381134 0.9491443037986755
vn -0.11406237632036209 -0.29349997639656067 0.9491299390792847
vn -0.002537656342610717 -0.006531259976327419 0.9999754428863525
vn -0.0025411343667656183 -0.006539463065564632 0.9999754428863525
vn 0.312643438577652 0.8050418496131897 -0.5041443705558777
vn 0.36201560497283936 0.9321720004081726 3.7966074160067365e-05
vn 0.36201590299606323 0.9321719408035278 -2.4796299840090796e-05
vn 0.3122047781944275 0.803912341594696 -0.5062145590782166
vn 0.09118955582380295 0.23481042683124542 -0.9677543640136719
vn 0.09198126941919327 0.2368493527173996 -0.9671823978424072
vn -0.09058739989995956 -0.23357851803302765 -0.9681090116500854
vn -0.09126482158899307 -0.23532722890377045 -0.9676217436790466
vn -0.3119361698627472 -0.8043334484100342 -0.5057109594345093
vn -0.311563104391098 -0.80336993932724 -0.5074693560600281
vn -0.3615800440311432 -0.9323410391807556 -1.6577492715441622e-05
vn -0.361579954624176 -0.9323410391807556 1.0607249350869097e-05
f 1/1/1 2/2/2 3/3/3
f 2/4/2 4/5/4 3/6/3
f 3/7/3 4/8/4 5/9/5
f 6/10/6 3/11/3 5/12/5
f 6/13/6 5/14/5 7/15/7
f 5/16/5 8/17/8 7/18/7
f 8/19/8 9/20/9 7/21/7
f 9/22/9 10/23/10 7/24/7
f 11/25/11 10/26/10 9/27/9
f 12/28/12 11/29/11 9/30/9
f 13/31/13 14/32/14 15/33/15
f 14/34/14 16/35/16 15/36/15
f 15/37/15 16/38/16 17/39/17
f 18/40/18 15/41/15 17/42/17
f 18/43/18 17/44/17 19/45/19
f 17/46/17 20/47/20 19/48/19
f 20/49/20 21/50/21 19/51/19
f 21/52/21 22/53/22 19/54/19
f 23/55/23 22/56/22 21/57/21
f 24/58/24 23/59/23 21/60/21
f 25/61/25 26/62/26 27/63/27
f 26/64/26 28/65/28 27/66/27
f 27/67/27 28/68/28 29/69/29
f 30/70/30 27/71/27 29/72/29
f 30/73/30 29/74/29 31/75/31
f 29/76/29 32/77/32 31/78/31
f 32/79/32 33/80/33 31/81/31
f 33/82/33 34/83/34 31/84/31
f 35/85/35 34/86/34 33/87/33
f 36/88/36 35/89/35 33/90/33
f 37/91/37 38/92/38 39/93/39
f 38/94/38 40/95/40 39/96/39
f 39/97/39 40/98/40 41/99/41
f 42/100/42 39/101/39 41/102/41
f 42/103/42 41/104/41 43/105/43
f 41/106/41 44/107/44 43/108/43
f 44/109/44 45/110/45 43/111/43
f 45/112/45 46/113/46 43/114/43
f 47/115/47 46/116/46 45/117/45
f 48/118/48 47/119/47 45/120/45
f 49/121/49 50/122/50 51/123/51
f 52/124/52 49/125/49 51/126/51
f 49/127/49 52/128/52 53/129/53
f 54/130/54 49/131/49 53/132/53
f 54/133/54 53/134/53 55/135/55
f 53/136/53 56/137/56 55/138/55
f 56/139/56 57/140/57 55/141/55
f 57/142/57 58/143/58 55/144/55
f 58/145/58 57/146/57 59/147/59
f 57/148/57 60/149/60 59/150/59
