# Exported by Lightwave Blender addon
v 1160.11279296875 2228.159912109375 1410.0643310546875
v 1160.1126708984375 2228.159912109375 1230.3592529296875
v 1131.38330078125 2179.6865234375 1230.3592529296875
v 1131.383544921875 2179.686767578125 1410.0643310546875
v 1101.76806640625 2129.7177734375 1410.0643310546875
v 1130.66552734375 2178.475341796875 1410.0643310546875
v 1130.66552734375 2178.4755859375 1230.3592529296875
v 1101.7679443359375 2129.7177734375 1230.3592529296875
vt 0.251220703125 0.9884872436523438
vt 0.251220703125 0.22509765625
vt 0.497802734375 0.22509765625
vt 0.497802734375 0.22509765625
vt 0.497802734375 0.9884872436523438
vt 0.251220703125 0.9884872436523438
vt 0.2491455078125 0.9884872436523438
vt 0.00260162353515625 0.9884872436523438
vt 0.00260162353515625 0.22509765625
vt 0.00260162353515625 0.22509765625
vt 0.2491455078125 0.22509765625
vt 0.2491455078125 0.9884872436523438
vn -0.8602571487426758 0.5098604559898376 4.969869564774854e-07
vn -0.8602572679519653 0.5098601579666138 5.843567691954377e-07
vn -0.8602572679519653 0.5098602175712585 5.634058197756531e-07
vn -0.8602571487426758 0.5098605155944824 4.760358649491536e-07
vn -0.8602599501609802 0.5098556876182556 6.716062443956616e-07
vn -0.8602598905563354 0.5098557472229004 6.926710511834244e-07
vn -0.8602600693702698 0.5098555088043213 6.05423394972604e-07
vn -0.8602601289749146 0.5098555088043213 5.843587018716789e-07
f 1/1/1 2/2/2 3/3/3
f 3/4/3 4/5/4 1/6/1
f 5/7/5 6/8/6 7/9/7
f 7/10/7 8/11/8 5/12/5
