# Exported by Lightwave Blender addon
v 223.86354064941406 1046.1705322265625 416.6367492675781
v 223.30003356933594 1046.4742431640625 415.52789306640625
v 224.28338623046875 1046.9493408203125 416.6367492675781
v 223.71986389160156 1047.2530517578125 415.5278625488281
v 222.17298889160156 1047.0819091796875 415.52789306640625
v 222.59288024902344 1047.8607177734375 415.5278625488281
v 221.6094970703125 1047.3857421875 416.6367492675781
v 222.0293731689453 1048.16455078125 416.6367492675781
v 222.17298889160156 1047.08203125 417.7455749511719
v 222.59288024902344 1047.86083984375 417.74554443359375
v 223.30003356933594 1046.474365234375 417.7455749511719
v 223.71986389160156 1047.253173828125 417.74554443359375
v 213.87191772460938 1027.638427734375 416.63671875
v 213.3083953857422 1027.9423828125 417.74554443359375
v 213.4520263671875 1026.8597412109375 416.6366882324219
v 212.88853454589844 1027.16357421875 417.7455749511719
v 212.18138122558594 1028.5499267578125 417.74554443359375
v 211.7615203857422 1027.771240234375 417.7455749511719
v 211.6178741455078 1028.853759765625 416.63671875
v 211.197998046875 1028.074951171875 416.6366882324219
v 212.18138122558594 1028.5499267578125 415.5278625488281
v 211.7615203857422 1027.7711181640625 415.5279235839844
v 213.3083953857422 1027.9422607421875 415.5278625488281
v 212.88853454589844 1027.1634521484375 415.5279235839844
v 210.78846740722656 1029.287109375 416.7756042480469
v 211.24404907226562 1030.132080078125 416.7756652832031
v 211.02774047851562 1029.1580810546875 415.7611389160156
v 211.48330688476562 1030.0030517578125 415.7610778808594
v 211.68145751953125 1028.8055419921875 415.0184631347656
v 212.1370391845703 1029.650634765625 415.0184020996094
v 212.57444763183594 1028.3240966796875 414.7466125488281
v 213.030029296875 1029.169189453125 414.7466125488281
v 223.7749481201172 1022.285400390625 414.7466125488281
v 223.39051818847656 1023.583251953125 414.7466125488281
v 227.93394470214844 1032.01025390625 414.74664306640625
v 228.77395629882812 1031.557373046875 414.74664306640625
v 223.39051818847656 1023.5833129882812 418.8046569824219
v 227.93394470214844 1032.01025390625 418.8046569824219
v 223.39051818847656 1023.5833740234375 416.7756652832031
v 227.93394470214844 1032.01025390625 416.775634765625
v 228.77395629882812 1031.557373046875 418.8046569824219
v 223.7749481201172 1022.2854614257812 418.8046569824219
v 228.77395629882812 1031.557373046875 416.775634765625
v 223.7749481201172 1022.2853393554688 416.7756042480469
v 220.78651428222656 1047.8310546875 416.775634765625
v 220.3308868408203 1046.9859619140625 416.775634765625
v 220.5701904296875 1046.8570556640625 417.7901611328125
v 221.02577209472656 1047.7020263671875 417.7901611328125
v 221.223876953125 1046.5045166015625 418.5328369140625
v 221.67950439453125 1047.349609375 418.5328369140625
v 222.1168975830078 1046.0230712890625 418.8046875
v 222.57249450683594 1046.8681640625 418.8046569824219
v 232.47735595703125 1040.437255859375 418.8046875
v 233.77294921875 1040.829345703125 418.8046875
v 233.77294921875 1040.829345703125 414.7466125488281
v 233.77294921875 1040.829345703125 416.7756652832031
v 211.48330688476562 1030.0030517578125 417.7901306152344
v 211.02774047851562 1029.1580810546875 417.7901916503906
v 212.1370391845703 1029.650634765625 418.5328063964844
v 211.68145751953125 1028.8056640625 418.5328674316406
v 213.030029296875 1029.1693115234375 418.8046569824219
v 212.57444763183594 1028.32421875 418.8046569824219
v 221.02577209472656 1047.7020263671875 415.7611083984375
v 220.5701904296875 1046.8570556640625 415.7611083984375
v 221.67950439453125 1047.349609375 415.0184326171875
v 221.223876953125 1046.50439453125 415.0184326171875
v 222.57249450683594 1046.8680419921875 414.74658203125
v 222.1168975830078 1046.0230712890625 414.7466125488281
v 232.47735595703125 1040.437255859375 414.7466125488281
v 232.47735595703125 1040.437255859375 416.775634765625
v 212.57444763183594 1028.32421875 416.7756042480469
v 222.57249450683594 1046.8681640625 416.775634765625
v 213.030029296875 1029.169189453125 416.7756652832031
v 222.1168975830078 1046.0230712890625 416.775634765625
vt 0.256103515625 0.29248046875
vt 0.256103515625 0.318359375
vt 0.2384033203125 0.29248046875
vt 0.256103515625 0.318359375
vt 0.2384033203125 0.318359375
vt 0.2384033203125 0.29248046875
vt 0.333740234375 0.28173828125
vt 0.333740234375 0.30712890625
vt 0.316162109375 0.28173828125
vt 0.333740234375 0.30712890625
vt 0.316162109375 0.30712890625
vt 0.316162109375 0.28173828125
vt 0.259033203125 0.33740234375
vt 0.259033203125 0.36328125
vt 0.241455078125 0.33740234375
vt 0.259033203125 0.36328125
vt 0.241455078125 0.36328125
vt 0.241455078125 0.33740234375
vt 0.284423828125 0.3369140625
vt 0.284423828125 0.31103515625
vt 0.30224609375 0.3369140625
vt 0.284423828125 0.31103515625
vt 0.30224609375 0.31103515625
vt 0.30224609375 0.3369140625
vt 0.296630859375 0.25390625
vt 0.296630859375 0.22802734375
vt 0.314208984375 0.25390625
vt 0.296630859375 0.22802734375
vt 0.314208984375 0.22802734375
vt 0.314208984375 0.25390625
vt 0.332275390625 0.26025390625
vt 0.332275390625 0.234375
vt 0.35009765625 0.26025390625
vt 0.332275390625 0.234375
vt 0.35009765625 0.234375
vt 0.35009765625 0.26025390625
vt 0.256103515625 0.29248046875
vt 0.256103515625 0.318359375
vt 0.2384033203125 0.29248046875
vt 0.256103515625 0.318359375
vt 0.2384033203125 0.318359375
vt 0.2384033203125 0.29248046875
vt 0.333740234375 0.28173828125
vt 0.333740234375 0.30712890625
vt 0.316162109375 0.28173828125
vt 0.333740234375 0.30712890625
vt 0.316162109375 0.30712890625
vt 0.316162109375 0.28173828125
vt 0.259033203125 0.33740234375
vt 0.259033203125 0.36328125
vt 0.241455078125 0.33740234375
vt 0.259033203125 0.36328125
vt 0.241455078125 0.36328125
vt 0.241455078125 0.33740234375
vt 0.284423828125 0.3369140625
vt 0.284423828125 0.31103515625
vt 0.30224609375 0.3369140625
vt 0.284423828125 0.31103515625
vt 0.30224609375 0.31103515625
vt 0.30224609375 0.3369140625
vt 0.296630859375 0.25390625
vt 0.296630859375 0.22802734375
vt 0.314208984375 0.25390625
vt 0.296630859375 0.22802734375
vt 0.314208984375 0.22802734375
vt 0.314208984375 0.25390625
vt 0.332275390625 0.26025390625
vt 0.332275390625 0.234375
vt 0.35009765625 0.26025390625
vt 0.332275390625 0.234375
vt 0.35009765625 0.234375
vt 0.35009765625 0.26025390625
vt 0.9951171875 0.41064453125
vt 0.97607421875 0.41064453125
vt 0.9951171875 0.3896484375
vt 0.97607421875 0.41064453125
vt 0.97607421875 0.3896484375
vt 0.9951171875 0.3896484375
vt 0.9951171875 0.3896484375
vt 0.97607421875 0.3896484375
vt 0.99560546875 0.36865234375
vt 0.97607421875 0.3896484375
vt 0.97607421875 0.36865234375
vt 0.99560546875 0.36865234375
vt 0.99560546875 0.36865234375
vt 0.97607421875 0.36865234375
vt 0.99560546875 0.34765625
vt 0.97607421875 0.36865234375
vt 0.97607421875 0.34765625
vt 0.99560546875 0.34765625
vt 0.99560546875 0.34765625
vt 0.97607421875 0.34765625
vt 0.9951171875 0.09326171875
vt 0.97607421875 0.34765625
vt 0.9755859375 0.1123046875
vt 0.9951171875 0.09326171875
vt 0.9755859375 0.1123046875
vt 0.7841796875 0.1123046875
vt 0.9951171875 0.09326171875
vt 0.7841796875 0.1123046875
vt 0.7841796875 0.09326171875
vt 0.9951171875 0.09326171875
vt 0.98779296875 0.078125
vt 0.81982421875 0.078125
vt 0.98779296875 0.04296875
vt 0.81982421875 0.078125
vt 0.81982421875 0.04296875
vt 0.98779296875 0.04296875
vt 0.98779296875 0.00732421875
vt 0.98779296875 0.04296875
vt 0.81982421875 0.04296875
vt 0.81982421875 0.00732421875
vt 0.98779296875 0.00732421875
vt 0.81982421875 0.04296875
vt 0.50341796875 0.38720703125
vt 0.66259765625 0.38720703125
vt 0.50341796875 0.41796875
vt 0.66259765625 0.38720703125
vt 0.66259765625 0.41796875
vt 0.50341796875 0.41796875
vt 0.50341796875 0.41796875
vt 0.66259765625 0.41796875
vt 0.50341796875 0.44873046875
vt 0.66259765625 0.41796875
vt 0.66259765625 0.44873046875
vt 0.50341796875 0.44873046875
vt 0.82080078125 0.234375
vt 0.80126953125 0.234375
vt 0.80126953125 0.25537109375
vt 0.82080078125 0.25537109375
vt 0.82080078125 0.234375
vt 0.80126953125 0.25537109375
vt 0.82080078125 0.25537109375
vt 0.80126953125 0.25537109375
vt 0.8017578125 0.2763671875
vt 0.82080078125 0.2763671875
vt 0.82080078125 0.25537109375
vt 0.8017578125 0.2763671875
vt 0.82080078125 0.2763671875
vt 0.8017578125 0.2763671875
vt 0.8017578125 0.29736328125
vt 0.82080078125 0.29736328125
vt 0.82080078125 0.2763671875
vt 0.8017578125 0.29736328125
vt 0.82080078125 0.29736328125
vt 0.8017578125 0.29736328125
vt 0.80126953125 0.53271484375
vt 0.8203125 0.5517578125
vt 0.82080078125 0.29736328125
vt 0.80126953125 0.53271484375
vt 0.60986328125 0.5517578125
vt 0.8203125 0.5517578125
vt 0.80126953125 0.53271484375
vt 0.60986328125 0.53271484375
vt 0.60986328125 0.5517578125
vt 0.80126953125 0.53271484375
vt 0.50341796875 0.44873046875
vt 0.66259765625 0.44873046875
vt 0.66259765625 0.41796875
vt 0.50341796875 0.41796875
vt 0.50341796875 0.44873046875
vt 0.66259765625 0.41796875
vt 0.50341796875 0.41796875
vt 0.66259765625 0.41796875
vt 0.66259765625 0.38720703125
vt 0.50341796875 0.38720703125
vt 0.50341796875 0.41796875
vt 0.66259765625 0.38720703125
vt 0.80126953125 0.25537109375
vt 0.80126953125 0.234375
vt 0.82080078125 0.234375
vt 0.82080078125 0.25537109375
vt 0.80126953125 0.25537109375
vt 0.82080078125 0.234375
vt 0.8017578125 0.2763671875
vt 0.80126953125 0.25537109375
vt 0.82080078125 0.25537109375
vt 0.82080078125 0.2763671875
vt 0.8017578125 0.2763671875
vt 0.82080078125 0.25537109375
vt 0.8017578125 0.29736328125
vt 0.8017578125 0.2763671875
vt 0.82080078125 0.2763671875
vt 0.82080078125 0.29736328125
vt 0.8017578125 0.29736328125
vt 0.82080078125 0.2763671875
vt 0.80126953125 0.53271484375
vt 0.8017578125 0.29736328125
vt 0.82080078125 0.29736328125
vt 0.8203125 0.5517578125
vt 0.80126953125 0.53271484375
vt 0.82080078125 0.29736328125
vt 0.80126953125 0.53271484375
vt 0.8203125 0.5517578125
vt 0.60986328125 0.5517578125
vt 0.60986328125 0.53271484375
vt 0.80126953125 0.53271484375
vt 0.60986328125 0.5517578125
vt 0.9951171875 0.41064453125
vt 0.9951171875 0.3896484375
vt 0.97607421875 0.41064453125
vt 0.9951171875 0.3896484375
vt 0.97607421875 0.3896484375
vt 0.97607421875 0.41064453125
vt 0.9951171875 0.3896484375
vt 0.99560546875 0.36865234375
vt 0.97607421875 0.3896484375
vt 0.99560546875 0.36865234375
vt 0.97607421875 0.36865234375
vt 0.97607421875 0.3896484375
vt 0.99560546875 0.36865234375
vt 0.99560546875 0.34765625
vt 0.97607421875 0.36865234375
vt 0.99560546875 0.34765625
vt 0.97607421875 0.34765625
vt 0.97607421875 0.36865234375
vt 0.99560546875 0.34765625
vt 0.9951171875 0.09326171875
vt 0.97607421875 0.34765625
vt 0.9951171875 0.09326171875
vt 0.9755859375 0.1123046875
vt 0.97607421875 0.34765625
vt 0.9755859375 0.1123046875
vt 0.9951171875 0.09326171875
vt 0.7841796875 0.1123046875
vt 0.9951171875 0.09326171875
vt 0.7841796875 0.09326171875
vt 0.7841796875 0.1123046875
vt 0.98779296875 0.078125
vt 0.98779296875 0.04296875
vt 0.81982421875 0.078125
vt 0.98779296875 0.04296875
vt 0.81982421875 0.04296875
vt 0.81982421875 0.078125
vt 0.81982421875 0.04296875
vt 0.98779296875 0.04296875
vt 0.98779296875 0.00732421875
vt 0.81982421875 0.00732421875
vt 0.81982421875 0.04296875
vt 0.98779296875 0.00732421875
vt 0.252197265625 0.27734375
vt 0.2301025390625 0.2646484375
vt 0.2301025390625 0.23876953125
vt 0.252197265625 0.22607421875
vt 0.252197265625 0.27734375
vt 0.2301025390625 0.23876953125
vt 0.252197265625 0.22607421875
vt 0.2744140625 0.23876953125
vt 0.252197265625 0.27734375
vt 0.2744140625 0.23876953125
vt 0.2744140625 0.2646484375
vt 0.252197265625 0.27734375
vt 0.252197265625 0.27734375
vt 0.2301025390625 0.2646484375
vt 0.2301025390625 0.23876953125
vt 0.252197265625 0.22607421875
vt 0.252197265625 0.27734375
vt 0.2301025390625 0.23876953125
vt 0.252197265625 0.22607421875
vt 0.2744140625 0.23876953125
vt 0.252197265625 0.27734375
vt 0.2744140625 0.23876953125
vt 0.2744140625 0.2646484375
vt 0.252197265625 0.27734375
vt 0.83251953125 0.37744140625
vt 0.83251953125 0.123046875
vt 0.87255859375 0.123046875
vt 0.87255859375 0.37744140625
vt 0.83251953125 0.37744140625
vt 0.87255859375 0.123046875
vt 0.837890625 0.39794921875
vt 0.83251953125 0.37744140625
vt 0.87255859375 0.37744140625
vt 0.87255859375 0.37744140625
vt 0.87255859375 0.123046875
vt 0.91357421875 0.123046875
vt 0.8525390625 0.41259765625
vt 0.837890625 0.39794921875
vt 0.87255859375 0.37744140625
vt 0.91357421875 0.37744140625
vt 0.87255859375 0.37744140625
vt 0.91357421875 0.123046875
vt 0.87255859375 0.41796875
vt 0.8525390625 0.41259765625
vt 0.87255859375 0.37744140625
vt 0.87255859375 0.37744140625
vt 0.91357421875 0.37744140625
vt 0.908203125 0.39794921875
vt 0.87255859375 0.41796875
vt 0.87255859375 0.37744140625
vt 0.89306640625 0.41259765625
vt 0.87255859375 0.37744140625
vt 0.908203125 0.39794921875
vt 0.89306640625 0.41259765625
vt 0.87255859375 0.123046875
vt 0.83251953125 0.123046875
vt 0.83251953125 0.37744140625
vt 0.87255859375 0.37744140625
vt 0.87255859375 0.123046875
vt 0.83251953125 0.37744140625
vt 0.91357421875 0.123046875
vt 0.87255859375 0.123046875
vt 0.87255859375 0.37744140625
vt 0.837890625 0.39794921875
vt 0.87255859375 0.37744140625
vt 0.83251953125 0.37744140625
vt 0.91357421875 0.37744140625
vt 0.91357421875 0.123046875
vt 0.87255859375 0.37744140625
vt 0.8525390625 0.41259765625
vt 0.87255859375 0.37744140625
vt 0.837890625 0.39794921875
vt 0.87255859375 0.37744140625
vt 0.908203125 0.39794921875
vt 0.91357421875 0.37744140625
vt 0.87255859375 0.41796875
vt 0.87255859375 0.37744140625
vt 0.8525390625 0.41259765625
vt 0.87255859375 0.37744140625
vt 0.89306640625 0.41259765625
vt 0.908203125 0.39794921875
vt 0.87255859375 0.41796875
vt 0.89306640625 0.41259765625
vt 0.87255859375 0.37744140625
vt 0.9873046875 0.89434814453125
vt 0.7587890625 0.89434814453125
vt 0.9873046875 0.855224609375
vt 0.7587890625 0.8157958984375
vt 0.9873046875 0.8157958984375
vt 0.9873046875 0.855224609375
vt 0.7587890625 0.89434814453125
vt 0.7587890625 0.855224609375
vt 0.9873046875 0.855224609375
vt 0.7587890625 0.855224609375
vt 0.7587890625 0.8157958984375
vt 0.9873046875 0.855224609375
vt 0.7587890625 0.855224609375
vt 0.7587890625 0.89434814453125
vt 0.7392578125 0.88909912109375
vt 0.7392578125 0.821044921875
vt 0.7587890625 0.8157958984375
vt 0.7587890625 0.855224609375
vt 0.7587890625 0.855224609375
vt 0.7392578125 0.88909912109375
vt 0.724609375 0.874755859375
vt 0.7392578125 0.821044921875
vt 0.7587890625 0.855224609375
vt 0.724609375 0.8353271484375
vt 0.7587890625 0.855224609375
vt 0.724609375 0.874755859375
vt 0.71923828125 0.8551025390625
vt 0.7587890625 0.855224609375
vt 0.71923828125 0.8551025390625
vt 0.724609375 0.8353271484375
vt 0.9873046875 0.89434814453125
vt 0.9873046875 0.855224609375
vt 0.7587890625 0.89434814453125
vt 0.9873046875 0.855224609375
vt 0.9873046875 0.8157958984375
vt 0.7587890625 0.8157958984375
vt 0.9873046875 0.855224609375
vt 0.7587890625 0.855224609375
vt 0.7587890625 0.89434814453125
vt 0.7587890625 0.855224609375
vt 0.9873046875 0.855224609375
vt 0.7587890625 0.8157958984375
vt 0.7587890625 0.855224609375
vt 0.7392578125 0.88909912109375
vt 0.7587890625 0.89434814453125
vt 0.7392578125 0.821044921875
vt 0.7587890625 0.855224609375
vt 0.7587890625 0.8157958984375
vt 0.7587890625 0.855224609375
vt 0.724609375 0.874755859375
vt 0.7392578125 0.88909912109375
vt 0.7392578125 0.821044921875
vt 0.724609375 0.8353271484375
vt 0.7587890625 0.855224609375
vt 0.7587890625 0.855224609375
vt 0.71923828125 0.8551025390625
vt 0.724609375 0.874755859375
vt 0.7587890625 0.855224609375
vt 0.724609375 0.8353271484375
vt 0.71923828125 0.8551025390625
vn 0.8802444338798523 -0.47452062368392944 2.2290851120487787e-05
vn 0.4401398003101349 -0.2372979074716568 -0.8660061359405518
vn 0.9869703650474548 0.16090263426303864 7.061210908432258e-06
vn 0.6382102966308594 0.34887340664863586 -0.6862761974334717
vn -0.44012200832366943 0.23725596070289612 -0.866026759147644
vn -0.05925872549414635 0.7249494194984436 -0.6862483024597168
vn -0.8802271485328674 0.4745524227619171 -3.3912852813955396e-05
vn -0.40801671147346497 0.91297447681427 -1.921759030665271e-05
vn -0.4401143789291382 0.23731207847595215 0.8660151362419128
vn -0.0592268705368042 0.7249970436096191 0.6862007975578308
vn 0.44014227390289307 -0.23723240196704865 0.8660228848457336
vn 0.6382265686988831 0.3489338159561157 0.6862302422523499
vn 0.8801917433738708 -0.474618136882782 5.277573291095905e-05
vn 0.44011181592941284 -0.23726288974285126 0.8660300374031067
vn 0.4080084264278412 -0.9129781723022461 2.9589162295451388e-05
vn 0.059290047734975815 -0.7249297499656677 0.686266303062439
vn -0.44006919860839844 0.2373153567314148 0.8660373091697693
vn -0.6382215619087219 -0.34884023666381836 0.6862825155258179
vn -0.880218505859375 0.47456857562065125 6.024644335411722e-06
vn -0.9869714975357056 -0.16089512407779694 -1.9415771021158434e-05
vn -0.4401361644268036 0.23722879588603973 -0.8660269379615784
vn -0.6382218599319458 -0.34893354773521423 -0.6862348318099976
vn 0.4400608241558075 -0.23730753362178802 -0.8660436272621155
vn 0.05925555154681206 -0.7249920964241028 -0.6862034201622009
vn -0.9764768481254578 -0.21562190353870392 -1.027708003675798e-05
vn -0.35647866129875183 0.9343035221099854 5.314025656844024e-06
vn -0.8871942162513733 -0.26377755403518677 -0.37856051325798035
vn -0.267228364944458 0.886140763759613 -0.37860745191574097
vn -0.6432566046714783 -0.3953549563884735 -0.6556792259216309
vn -0.023271868005394936 0.7546173334121704 -0.6557523012161255
vn -0.4065305292606354 -0.5520846247673035 -0.7279667258262634
vn 0.23781923949718475 0.6430302858352661 -0.7279795408248901
vn 0.2342010736465454 -0.7821714878082275 -0.5773712396621704
vn -0.12228916585445404 0.40847158432006836 -0.9045420289039612
vn -0.6224045157432556 0.33556944131851196 -0.7071107625961304
vn 0.6224020719528198 -0.3355681896209717 -0.7071136236190796
vn -0.12230234593153 0.4084825813770294 0.9045353531837463
vn -0.6223986148834229 0.33556726574897766 0.7071170210838318
vn -0.2868362069129944 0.957979679107666 -1.6111274817376398e-05
vn -0.8802171349525452 0.4745711386203766 -9.488346677244408e-07
vn 0.6224037408828735 -0.3355725109577179 0.7071099877357483
vn 0.23418956995010376 -0.7821550369262695 0.5773981809616089
vn 0.880217432975769 -0.4745706021785736 8.645151865493972e-07
vn 0.28682637214660645 -0.9579826593399048 1.7845601178123616e-05
vn -0.35648056864738464 0.934302806854248 2.2381541384675074e-06
vn -0.9764648675918579 -0.2156764268875122 -8.726472515263595e-06
vn -0.8871926665306091 -0.26372596621513367 0.37859970331192017
vn -0.26720815896987915 0.8861518502235413 0.3785957098007202
vn -0.6432538032531738 -0.39531052112579346 0.655708909034729
vn -0.023250434547662735 0.7546373605728149 0.6557298898696899
vn -0.406515896320343 -0.5520544648170471 0.7279977202415466
vn 0.23782099783420563 0.6430445313453674 0.7279662489891052
vn -0.4084906280040741 -0.12231069058179855 0.9045304656028748
vn 0.7821670770645142 0.2341974526643753 0.5773785710334778
vn 0.7821805477142334 0.23419936001300812 -0.5773597359657288
vn 0.9579790830612183 0.286838173866272 -1.8821211824615602e-06
vn -0.2672071158885956 0.8861607313156128 0.37857574224472046
vn -0.8871792554855347 -0.2637767791748047 0.3785957098007202
vn -0.023280905559659004 0.754668653011322 0.655692994594574
vn -0.6432193517684937 -0.3952826261520386 0.6557593941688538
vn 0.23779156804084778 0.6430678367614746 0.7279552817344666
vn -0.4065139591693878 -0.5520850419998169 0.7279755473136902
vn -0.2672158479690552 0.8861555457115173 -0.3785814344882965
vn -0.8872019052505493 -0.2637065052986145 -0.3785915970802307
vn -0.0232312623411417 0.7546326518058777 -0.6557362675666809
vn -0.6432297825813293 -0.39538782835006714 -0.6556857824325562
vn 0.23781102895736694 0.6429840922355652 -0.7280229926109314
vn -0.40649569034576416 -0.5520842671394348 -0.7279864549636841
vn -0.40848222374916077 -0.12231650203466415 -0.9045335054397583
vn -0.9579790234565735 -0.2868385314941406 0.0
vn -0.4745677411556244 -0.8802189826965332 2.663224768184591e-05
vn 0.4745712876319885 0.8802170753479004 -1.7636704797041602e-05
vn 0.474553644657135 0.8802265524864197 -1.765257547958754e-05
vn -0.4745692312717438 -0.8802181482315063 7.644332072231919e-06
f 1/1/1 2/2/2 3/3/3
f 2/4/2 4/5/4 3/6/3
f 2/7/2 5/8/5 4/9/4
f 5/10/5 6/11/6 4/12/4
f 5/13/5 7/14/7 6/15/6
f 7/16/7 8/17/8 6/18/6
f 7/19/7 9/20/9 8/21/8
f 9/22/9 10/23/10 8/24/8
f 9/25/9 11/26/11 10/27/10
f 11/28/11 12/29/12 10/30/10
f 11/31/11 1/32/1 12/33/12
f 1/34/1 3/35/3 12/36/12
f 13/37/13 14/38/14 15/39/15
f 14/40/14 16/41/16 15/42/15
f 14/43/14 17/44/17 16/45/16
f 17/46/17 18/47/18 16/48/16
f 17/49/17 19/50/19 18/51/18
f 19/52/19 20/53/20 18/54/18
f 19/55/19 21/56/21 20/57/20
f 21/58/21 22/59/22 20/60/20
f 21/61/21 23/62/23 22/63/22
f 23/64/23 24/65/24 22/66/22
f 23/67/23 13/68/13 24/69/24
f 13/70/13 15/71/15 24/72/24
f 25/73/25 26/74/26 27/75/27
f 26/76/26 28/77/28 27/78/27
f 27/79/27 28/80/28 29/81/29
f 28/82/28 30/83/30 29/84/29
f 29/85/29 30/86/30 31/87/31
f 30/88/30 32/89/32 31/90/31
f 31/91/31 32/92/32 33/93/33
f 32/94/32 34/95/34 33/96/33
f 34/97/34 35/98/35 33/99/33
f 35/100/35 36/101/36 33/102/33
f 37/103/37 38/104/38 39/105/39
f 38/106/38 40/107/40 39/108/39
f 34/109/34 39/110/39 40/111/40
f 35/112/35 34/113/34 40/114/40
f 41/115/41 42/116/42 43/117/43
f 42/118/42 44/119/44 43/120/43
f 43/121/43 44/122/44 36/123/36
f 44/124/44 33/125/33 36/126/36
f 45/127/45 46/128/46 47/129/47
f 48/130/48 45/131/45 47/132/47
f 48/133/48 47/134/47 49/135/49
f 50/136/50 48/137/48 49/138/49
f 50/139/50 49/140/49 51/141/51
f 52/142/52 50/143/50 51/144/51
f 52/145/52 51/146/51 53/147/53
f 54/148/54 52/149/52 53/150/53
f 41/151/41 54/152/54 53/153/53
f 38/154/38 41/155/41 53/156/53
f 36/157/36 55/158/55 56/159/56
f 43/160/43 36/161/36 56/162/56
f 43/163/43 56/164/56 54/165/54
f 41/166/41 43/167/43 54/168/54
f 57/169/57 26/170/26 25/171/25
f 58/172/58 57/173/57 25/174/25
f 59/175/59 57/176/57 58/177/58
f 60/178/60 59/179/59 58/180/58
f 61/181/61 59/182/59 60/183/60
f 62/184/62 61/185/61 60/186/60
f 37/187/37 61/188/61 62/189/62
f 42/190/42 37/191/37 62/192/62
f 37/193/37 42/194/42 41/195/41
f 38/196/38 37/197/37 41/198/41
f 45/199/45 63/200/63 46/201/46
f 63/202/63 64/203/64 46/204/46
f 63/205/63 65/206/65 64/207/64
f 65/208/65 66/209/66 64/210/64
f 65/211/65 67/212/67 66/213/66
f 67/214/67 68/215/68 66/216/66
f 67/217/67 55/218/55 68/219/68
f 55/220/55 69/221/69 68/222/68
f 69/223/69 55/224/55 35/225/35
f 55/226/55 36/227/36 35/228/35
f 53/229/53 70/230/70 38/231/38
f 70/232/70 40/233/40 38/234/38
f 40/235/40 70/236/70 69/237/69
f 35/238/35 40/239/40 69/240/69
f 8/241/8 10/242/10 12/243/12
f 3/244/3 8/245/8 12/246/12
f 3/247/3 4/248/4 8/249/8
f 4/250/4 6/251/6 8/252/8
f 20/253/20 22/254/22 24/255/24
f 15/256/15 20/257/20 24/258/24
f 15/259/15 16/260/16 20/261/20
f 16/262/16 18/263/18 20/264/20
f 31/265/31 33/266/33 44/267/44
f 71/268/71 31/269/31 44/270/44
f 29/271/29 31/272/31 71/273/71
f 71/274/71 44/275/44 42/276/42
f 27/277/27 29/278/29 71/279/71
f 62/280/62 71/281/71 42/282/42
f 25/283/25 27/284/27 71/285/71
f 71/286/71 62/287/62 60/288/60
f 25/289/25 71/290/71 58/291/58
f 71/292/71 60/293/60 58/294/58
f 56/295/56 55/296/55 67/297/67
f 72/298/72 56/299/56 67/300/67
f 54/301/54 56/302/56 72/303/72
f 65/304/65 72/305/72 67/306/67
f 52/307/52 54/308/54 72/309/72
f 63/310/63 72/311/72 65/312/65
f 72/313/72 50/314/50 52/315/52
f 45/316/45 72/317/72 63/318/63
f 72/319/72 48/320/48 50/321/50
f 45/322/45 48/323/48 72/324/72
f 34/325/34 32/326/32 39/327/39
f 61/328/61 37/329/37 39/330/39
f 32/331/32 73/332/73 39/333/39
f 73/334/73 61/335/61 39/336/39
f 73/337/73 32/338/32 30/339/30
f 59/340/59 61/341/61 73/342/73
f 73/343/73 30/344/30 28/345/28
f 59/346/59 73/347/73 57/348/57
f 73/349/73 28/350/28 26/351/26
f 73/352/73 26/353/26 57/354/57
f 69/355/69 70/356/70 68/357/68
f 70/358/70 53/359/53 51/360/51
f 70/361/70 74/362/74 68/363/68
f 74/364/74 70/365/70 51/366/51
f 74/367/74 66/368/66 68/369/68
f 49/370/49 74/371/74 51/372/51
f 74/373/74 64/374/64 66/375/66
f 49/376/49 47/377/47 74/378/74
f 74/379/74 46/380/46 64/381/64
f 74/382/74 47/383/47 46/384/46
