# Exported by Lightwave Blender addon
v -427.7039794921875 405.9110412597656 450.7750244140625
v -421.8753662109375 410.4295959472656 450.7750244140625
v -424.5193176269531 412.4376220703125 414.30975341796875
v -428.98974609375 408.9720764160156 414.30975341796875
v -435.0111389160156 404.912109375 450.7750244140625
v -434.5940856933594 408.2059020996094 414.30975341796875
v -441.83868408203125 407.7005920410156 450.7750244140625
v -439.8305969238281 410.3446044921875 414.30975341796875
v -446.3572692871094 413.529296875 450.7750244140625
v -443.2962341308594 414.81500244140625 414.30975341796875
v -447.3561096191406 420.83636474609375 450.7750244140625
v -444.0623474121094 420.4193115234375 414.30975341796875
v -444.5677185058594 427.6639404296875 450.7750244140625
v -441.9237060546875 425.65582275390625 414.30975341796875
v -438.739013671875 432.1825256347656 450.7750244140625
v -437.4532470703125 429.1214904785156 414.30975341796875
v -431.43194580078125 433.1814270019531 450.7750244140625
v -431.8489685058594 429.8875732421875 414.30975341796875
v -424.6043701171875 430.3929443359375 450.7750244140625
v -426.6124572753906 427.7489318847656 414.30975341796875
v -420.08575439453125 424.5643005371094 450.7750244140625
v -423.1468200683594 423.27850341796875 414.30975341796875
v -419.0868835449219 417.2571716308594 450.7750244140625
v -422.38067626953125 417.6742248535156 414.30975341796875
v -425.662353515625 409.2960205078125 414.30975341796875
v -423.5052490234375 411.6674499511719 414.30975341796875
v -420.5531005859375 409.4254455566406 450.7750244140625
v -423.3656005859375 406.3333435058594 450.7750244140625
v -427.06103515625 404.38018798828125 450.7750244140625
v -428.49664306640625 407.7979736328125 414.30975341796875
v -431.5504455566406 406.8227233886719 414.30975341796875
v -431.0427551269531 403.10870361328125 450.7750244140625
v -435.2196960449219 403.2649230957031 450.7750244140625
v -434.7539978027344 406.9425964355469 414.30975341796875
v -437.8863830566406 407.62493896484375 414.30975341796875
v -439.3037109375 404.15460205078125 450.7750244140625
v -442.8429260253906 406.3783874511719 450.7750244140625
v -440.6007995605469 409.3304748535156 414.30975341796875
v -442.9723205566406 411.48760986328125 414.30975341796875
v -445.9349670410156 409.19085693359375 450.7750244140625
v -447.8880615234375 412.88629150390625 450.7750244140625
v -444.4703369140625 414.32183837890625 414.30975341796875
v -445.4455261230469 417.375732421875 414.30975341796875
v -449.15960693359375 416.8680419921875 450.7750244140625
v -449.0033874511719 421.044921875 450.7750244140625
v -445.32574462890625 420.57928466796875 414.30975341796875
v -444.6433410644531 423.7115783691406 414.30975341796875
v -448.11370849609375 425.12896728515625 450.7750244140625
v -445.8899841308594 428.6681213378906 450.7750244140625
v -442.9377746582031 426.4260559082031 414.30975341796875
v -440.78070068359375 428.79754638671875 414.30975341796875
v -443.077392578125 431.7601318359375 450.7750244140625
v -439.38201904296875 433.71331787109375 450.7750244140625
v -437.9464416503906 430.2955627441406 414.30975341796875
v -434.8926086425781 431.2707824707031 414.30975341796875
v -435.4002685546875 434.9848937988281 450.7750244140625
v -431.2233581542969 434.82861328125 450.7750244140625
v -431.68902587890625 431.1509704589844 414.30975341796875
v -428.5566711425781 430.46856689453125 414.30975341796875
v -427.1393127441406 433.9389343261719 450.7750244140625
v -423.6001281738281 431.7151794433594 450.7750244140625
v -425.84222412109375 428.7630615234375 414.30975341796875
v -423.470703125 426.60595703125 414.30975341796875
v -420.5080871582031 428.9026794433594 450.7750244140625
v -418.554931640625 425.2072448730469 450.7750244140625
v -421.9726867675781 423.7716064453125 414.30975341796875
v -420.99749755859375 420.7178039550781 414.30975341796875
v -417.2834167480469 421.22552490234375 450.7750244140625
v -417.439697265625 417.04864501953125 450.7750244140625
v -421.1173400878906 417.5142517089844 414.30975341796875
v -421.7996826171875 414.3818664550781 414.30975341796875
v -418.3293762207031 412.964599609375 450.7750244140625
vt 0.0927734375 0.09716796875
vt 0.0162200927734375 0.09716796875
vt 0.0162200927734375 0.9044189453125
vt 0.0162200927734375 0.9044189453125
vt 0.0927734375 0.9044189453125
vt 0.0927734375 0.09716796875
vt 0.1728515625 0.09716796875
vt 0.0927734375 0.09716796875
vt 0.0927734375 0.9044189453125
vt 0.0927734375 0.9044189453125
vt 0.1728515625 0.9044189453125
vt 0.1728515625 0.09716796875
vt 0.2529296875 0.09716796875
vt 0.1728515625 0.09716796875
vt 0.1728515625 0.9044189453125
vt 0.1728515625 0.9044189453125
vt 0.2529296875 0.9044189453125
vt 0.2529296875 0.09716796875
vt 0.3330078125 0.09716796875
vt 0.2529296875 0.09716796875
vt 0.2529296875 0.9044189453125
vt 0.2529296875 0.9044189453125
vt 0.3330078125 0.9044189453125
vt 0.3330078125 0.09716796875
vt 0.4130859375 0.09716796875
vt 0.3330078125 0.09716796875
vt 0.3330078125 0.9044189453125
vt 0.3330078125 0.9044189453125
vt 0.4130859375 0.9044189453125
vt 0.4130859375 0.09716796875
vt 0.4931640625 0.09716796875
vt 0.4130859375 0.09716796875
vt 0.4130859375 0.9044189453125
vt 0.4130859375 0.9044189453125
vt 0.4931640625 0.9044189453125
vt 0.4931640625 0.09716796875
vt 0.5732421875 0.09716796875
vt 0.4931640625 0.09716796875
vt 0.4931640625 0.9044189453125
vt 0.4931640625 0.9044189453125
vt 0.5732421875 0.9044189453125
vt 0.5732421875 0.09716796875
vt 0.6533203125 0.09716796875
vt 0.5732421875 0.09716796875
vt 0.5732421875 0.9044189453125
vt 0.5732421875 0.9044189453125
vt 0.6533203125 0.9044189453125
vt 0.6533203125 0.09716796875
vt 0.7333984375 0.09716796875
vt 0.6533203125 0.09716796875
vt 0.6533203125 0.9044189453125
vt 0.6533203125 0.9044189453125
vt 0.7333984375 0.9044189453125
vt 0.7333984375 0.09716796875
vt 0.8134765625 0.09716796875
vt 0.7333984375 0.09716796875
vt 0.7333984375 0.9044189453125
vt 0.7333984375 0.9044189453125
vt 0.8134765625 0.9044189453125
vt 0.8134765625 0.09716796875
vt 0.8935546875 0.09716796875
vt 0.8134765625 0.09716796875
vt 0.8134765625 0.9044189453125
vt 0.8134765625 0.9044189453125
vt 0.8935546875 0.9044189453125
vt 0.8935546875 0.09716796875
vt 0.984375 0.09716796875
vt 0.8935546875 0.09716796875
vt 0.8935546875 0.9044189453125
vt 0.8935546875 0.9044189453125
vt 0.984375 0.9044189453125
vt 0.984375 0.09716796875
vt 0.05450439453125 0.9044189453125
vt 0.0162200927734375 0.9044189453125
vt 0.0162200927734375 0.09716796875
vt 0.0162200927734375 0.09716796875
vt 0.05450439453125 0.09716796875
vt 0.05450439453125 0.9044189453125
vt 0.05450439453125 0.9044189453125
vt 0.05450439453125 0.09716796875
vt 0.0927734375 0.09716796875
vt 0.0927734375 0.09716796875
vt 0.0927734375 0.9044189453125
vt 0.05450439453125 0.9044189453125
vt 0.1328125 0.9044189453125
vt 0.0927734375 0.9044189453125
vt 0.0927734375 0.09716796875
vt 0.0927734375 0.09716796875
vt 0.1328125 0.09716796875
vt 0.1328125 0.9044189453125
vt 0.1328125 0.9044189453125
vt 0.1328125 0.09716796875
vt 0.1728515625 0.09716796875
vt 0.1728515625 0.09716796875
vt 0.1728515625 0.9044189453125
vt 0.1328125 0.9044189453125
vt 0.212890625 0.9044189453125
vt 0.1728515625 0.9044189453125
vt 0.1728515625 0.09716796875
vt 0.1728515625 0.09716796875
vt 0.212890625 0.09716796875
vt 0.212890625 0.9044189453125
vt 0.212890625 0.9044189453125
vt 0.212890625 0.09716796875
vt 0.2529296875 0.09716796875
vt 0.2529296875 0.09716796875
vt 0.2529296875 0.9044189453125
vt 0.212890625 0.9044189453125
vt 0.29296875 0.9044189453125
vt 0.2529296875 0.9044189453125
vt 0.2529296875 0.09716796875
vt 0.2529296875 0.09716796875
vt 0.29296875 0.09716796875
vt 0.29296875 0.9044189453125
vt 0.29296875 0.9044189453125
vt 0.29296875 0.09716796875
vt 0.3330078125 0.09716796875
vt 0.3330078125 0.09716796875
vt 0.3330078125 0.9044189453125
vt 0.29296875 0.9044189453125
vt 0.373046875 0.9044189453125
vt 0.3330078125 0.9044189453125
vt 0.3330078125 0.09716796875
vt 0.3330078125 0.09716796875
vt 0.373046875 0.09716796875
vt 0.373046875 0.9044189453125
vt 0.373046875 0.9044189453125
vt 0.373046875 0.09716796875
vt 0.4130859375 0.09716796875
vt 0.4130859375 0.09716796875
vt 0.4130859375 0.9044189453125
vt 0.373046875 0.9044189453125
vt 0.453125 0.9044189453125
vt 0.4130859375 0.9044189453125
vt 0.4130859375 0.09716796875
vt 0.4130859375 0.09716796875
vt 0.453125 0.09716796875
vt 0.453125 0.9044189453125
vt 0.453125 0.9044189453125
vt 0.453125 0.09716796875
vt 0.4931640625 0.09716796875
vt 0.4931640625 0.09716796875
vt 0.4931640625 0.9044189453125
vt 0.453125 0.9044189453125
vt 0.533203125 0.9044189453125
vt 0.4931640625 0.9044189453125
vt 0.4931640625 0.09716796875
vt 0.4931640625 0.09716796875
vt 0.533203125 0.09716796875
vt 0.533203125 0.9044189453125
vt 0.533203125 0.9044189453125
vt 0.533203125 0.09716796875
vt 0.5732421875 0.09716796875
vt 0.5732421875 0.09716796875
vt 0.5732421875 0.9044189453125
vt 0.533203125 0.9044189453125
vt 0.61328125 0.9044189453125
vt 0.5732421875 0.9044189453125
vt 0.5732421875 0.09716796875
vt 0.5732421875 0.09716796875
vt 0.61328125 0.09716796875
vt 0.61328125 0.9044189453125
vt 0.61328125 0.9044189453125
vt 0.61328125 0.09716796875
vt 0.6533203125 0.09716796875
vt 0.6533203125 0.09716796875
vt 0.6533203125 0.9044189453125
vt 0.61328125 0.9044189453125
vt 0.693359375 0.9044189453125
vt 0.6533203125 0.9044189453125
vt 0.6533203125 0.09716796875
vt 0.6533203125 0.09716796875
vt 0.693359375 0.09716796875
vt 0.693359375 0.9044189453125
vt 0.693359375 0.9044189453125
vt 0.693359375 0.09716796875
vt 0.7333984375 0.09716796875
vt 0.7333984375 0.09716796875
vt 0.7333984375 0.9044189453125
vt 0.693359375 0.9044189453125
vt 0.7734375 0.9044189453125
vt 0.7333984375 0.9044189453125
vt 0.7333984375 0.09716796875
vt 0.7333984375 0.09716796875
vt 0.7734375 0.09716796875
vt 0.7734375 0.9044189453125
vt 0.7734375 0.9044189453125
vt 0.7734375 0.09716796875
vt 0.8134765625 0.09716796875
vt 0.8134765625 0.09716796875
vt 0.8134765625 0.9044189453125
vt 0.7734375 0.9044189453125
vt 0.853515625 0.9044189453125
vt 0.8134765625 0.9044189453125
vt 0.8134765625 0.09716796875
vt 0.8134765625 0.09716796875
vt 0.853515625 0.09716796875
vt 0.853515625 0.9044189453125
vt 0.853515625 0.9044189453125
vt 0.853515625 0.09716796875
vt 0.8935546875 0.09716796875
vt 0.8935546875 0.09716796875
vt 0.8935546875 0.9044189453125
vt 0.853515625 0.9044189453125
vt 0.93896484375 0.9044189453125
vt 0.8935546875 0.9044189453125
vt 0.8935546875 0.09716796875
vt 0.8935546875 0.09716796875
vt 0.93896484375 0.09716796875
vt 0.93896484375 0.9044189453125
vt 0.93896484375 0.9044189453125
vt 0.93896484375 0.09716796875
vt 0.984375 0.09716796875
vt 0.984375 0.09716796875
vt 0.984375 0.9044189453125
vt 0.93896484375 0.9044189453125
vn -0.3856634497642517 0.9181732535362244 0.090672567486763
vn -0.7930802702903748 0.6023306250572205 0.09067227691411972
vn -0.7930821180343628 0.6023280620574951 0.09067271649837494
vn -0.3856634795665741 0.9181732535362244 0.0906730443239212
vn 0.1250922828912735 0.987993061542511 0.09067331254482269
vn 0.12508748471736908 0.987993597984314 0.09067334234714508
vn 0.6023334264755249 0.7930779457092285 0.0906735509634018
vn 0.6023290753364563 0.7930814027786255 0.09067318588495255
vn 0.9181758761405945 0.38565725088119507 0.09067337214946747
vn 0.9181720018386841 0.38566654920578003 0.09067235141992569
vn 0.9879932403564453 -0.12509103119373322 0.09067254513502121
vn 0.9879937171936035 -0.12508730590343475 0.09067278355360031
vn 0.7930818200111389 -0.6023284792900085 0.09067384153604507
vn 0.7930837869644165 -0.6023257374763489 0.09067389369010925
vn 0.3856610655784607 -0.9181740880012512 0.09067383408546448
vn 0.38566380739212036 -0.9181730151176453 0.09067416191101074
vn -0.12509308755397797 -0.9879928231239319 0.09067397564649582
vn -0.1250905692577362 -0.9879931807518005 0.09067410975694656
vn -0.6023291349411011 -0.7930811643600464 0.09067416191101074
vn -0.6023257374763489 -0.7930837869644165 0.09067424386739731
vn -0.9181736707687378 -0.38566216826438904 0.0906742736697197
vn -0.9181715846061707 -0.38566726446151733 0.09067379683256149
vn -0.9879927039146423 0.12509512901306152 0.09067361056804657
vn -0.9879944324493408 0.125082328915596 0.09067202359437943
vn 0.6094754338264465 -0.786182165145874 -0.10226031392812729
vn 0.7922724485397339 -0.6017271876335144 -0.10113680362701416
vn 0.7922829389572144 -0.6017134189605713 -0.10113739967346191
vn 0.609481155872345 -0.7861775755882263 -0.10226217657327652
vn 0.3852713108062744 -0.9172443151473999 -0.10113793611526489
vn 0.3852854073047638 -0.9172382950782776 -0.10113850235939026
vn 0.13473090529441833 -0.9855913519859314 -0.10226137936115265
vn 0.13472864031791687 -0.9855918288230896 -0.10225915163755417
vn -0.12496170401573181 -0.9869933128356934 -0.10113712400197983
vn -0.12496589869260788 -0.9869926571846008 -0.10113824158906937
vn -0.3761111795902252 -0.9209142327308655 -0.10226086527109146
vn -0.3761156499385834 -0.9209124445915222 -0.10226046293973923
vn -0.6017163991928101 -0.7922806143760681 -0.1011379137635231
vn -0.6017189621925354 -0.7922786474227905 -0.10113748908042908
vn -0.7861791253089905 -0.6094796657562256 -0.10225984454154968
vn -0.7861828207969666 -0.6094745397567749 -0.10226152092218399
vn -0.9172447919845581 -0.38527005910873413 -0.10113789141178131
vn -0.9172436594963074 -0.38527339696884155 -0.10113634169101715
vn -0.9855912923812866 -0.1347322165966034 -0.10225939750671387
vn -0.985590934753418 -0.13473403453826904 -0.10226079821586609
vn -0.9869932532310486 0.12496109306812286 -0.10113836824893951
vn -0.9869930148124695 0.12496407330036163 -0.10113721340894699
vn -0.9209104180335999 0.37612056732177734 -0.10226098448038101
vn -0.9209133982658386 0.3761129677295685 -0.10226186364889145
vn -0.7922746539115906 0.6017241477966309 -0.10113804787397385
vn -0.7922813296318054 0.6017151474952698 -0.10113910585641861
vn -0.6094807386398315 0.7861780524253845 -0.10226096957921982
vn -0.6094744205474854 0.7861831188201904 -0.10225921124219894
vn -0.3852846622467041 0.9172387719154358 -0.10113739967346191
vn -0.3852781653404236 0.9172415137290955 -0.1011374220252037
vn -0.134734645485878 0.9855908751487732 -0.10226025432348251
vn -0.13473033905029297 0.9855913519859314 -0.10226152092218399
vn 0.12496791034936905 0.9869924187660217 -0.10113850980997086
vn 0.12496655434370041 0.9869926571846008 -0.10113731026649475
vn 0.37611427903175354 0.9209131002426147 -0.10226017981767654
vn 0.3761138916015625 0.92091304063797 -0.10226153582334518
vn 0.6017170548439026 0.7922801375389099 -0.10113801062107086
vn 0.6017109751701355 0.7922847270965576 -0.10113763809204102
vn 0.7861818671226501 0.6094757914543152 -0.10226096957921982
vn 0.7861807346343994 0.6094774603843689 -0.10226038098335266
vn 0.9172434210777283 0.3852734863758087 -0.10113780945539474
vn 0.9172452688217163 0.38526907563209534 -0.10113806277513504
vn 0.9855919480323792 0.1347266435623169 -0.10226047039031982
vn 0.9855921864509583 0.1347247064113617 -0.10226090997457504
vn 0.9869925379753113 -0.12496765702962875 -0.10113705694675446
vn 0.9869933724403381 -0.12496131658554077 -0.10113710910081863
vn 0.9209129810333252 -0.3761146366596222 -0.10226007550954819
vn 0.920913815498352 -0.37611278891563416 -0.1022590771317482
f 1/1/1 2/2/2 3/3/3
f 3/4/3 4/5/4 1/6/1
f 5/7/5 1/8/1 4/9/4
f 4/10/4 6/11/6 5/12/5
f 7/13/7 5/14/5 6/15/6
f 6/16/6 8/17/8 7/18/7
f 9/19/9 7/20/7 8/21/8
f 8/22/8 10/23/10 9/24/9
f 11/25/11 9/26/9 10/27/10
f 10/28/10 12/29/12 11/30/11
f 13/31/13 11/32/11 12/33/12
f 12/34/12 14/35/14 13/36/13
f 15/37/15 13/38/13 14/39/14
f 14/40/14 16/41/16 15/42/15
f 17/43/17 15/44/15 16/45/16
f 16/46/16 18/47/18 17/48/17
f 19/49/19 17/50/17 18/51/18
f 18/52/18 20/53/20 19/54/19
f 21/55/21 19/56/19 20/57/20
f 20/58/20 22/59/22 21/60/21
f 23/61/23 21/62/21 22/63/22
f 22/64/22 24/65/24 23/66/23
f 2/67/2 23/68/23 24/69/24
f 24/70/24 3/71/3 2/72/2
f 25/73/25 26/74/26 27/75/27
f 27/76/27 28/77/28 25/78/25
f 25/79/25 28/80/28 29/81/29
f 29/82/29 30/83/30 25/84/25
f 31/85/31 30/86/30 29/87/29
f 29/88/29 32/89/32 31/90/31
f 31/91/31 32/92/32 33/93/33
f 33/94/33 34/95/34 31/96/31
f 35/97/35 34/98/34 33/99/33
f 33/100/33 36/101/36 35/102/35
f 35/103/35 36/104/36 37/105/37
f 37/106/37 38/107/38 35/108/35
f 39/109/39 38/110/38 37/111/37
f 37/112/37 40/113/40 39/114/39
f 39/115/39 40/116/40 41/117/41
f 41/118/41 42/119/42 39/120/39
f 43/121/43 42/122/42 41/123/41
f 41/124/41 44/125/44 43/126/43
f 43/127/43 44/128/44 45/129/45
f 45/130/45 46/131/46 43/132/43
f 47/133/47 46/134/46 45/135/45
f 45/136/45 48/137/48 47/138/47
f 47/139/47 48/140/48 49/141/49
f 49/142/49 50/143/50 47/144/47
f 51/145/51 50/146/50 49/147/49
f 49/148/49 52/149/52 51/150/51
f 51/151/51 52/152/52 53/153/53
f 53/154/53 54/155/54 51/156/51
f 55/157/55 54/158/54 53/159/53
f 53/160/53 56/161/56 55/162/55
f 55/163/55 56/164/56 57/165/57
f 57/166/57 58/167/58 55/168/55
f 59/169/59 58/170/58 57/171/57
f 57/172/57 60/173/60 59/174/59
f 59/175/59 60/176/60 61/177/61
f 61/178/61 62/179/62 59/180/59
f 63/181/63 62/182/62 61/183/61
f 61/184/61 64/185/64 63/186/63
f 63/187/63 64/188/64 65/189/65
f 65/190/65 66/191/66 63/192/63
f 67/193/67 66/194/66 65/195/65
f 65/196/65 68/197/68 67/198/67
f 67/199/67 68/200/68 69/201/69
f 69/202/69 70/203/70 67/204/67
f 71/205/71 70/206/70 69/207/69
f 69/208/69 72/209/72 71/210/71
f 71/211/71 72/212/72 27/213/27
f 27/214/27 26/215/26 71/216/71
