# Exported by Lightwave Blender addon
v -225.26425170898438 -1563.036376953125 717.2210083007812
v -225.26451110839844 -1563.0362548828125 508.1148376464844
v -246.74610900878906 -1615.2567138671875 717.2207641601562
v -246.7459259033203 -1615.2568359375 508.1147155761719
v -266.9329833984375 -1664.3111572265625 717.2210083007812
v -266.9325866699219 -1664.3114013671875 508.1148376464844
v -318.5816345214844 -1791.2484130859375 1042.145751953125
v -318.5818786621094 -1791.248291015625 833.0394897460938
v -340.0635070800781 -1843.468505859375 1042.1455078125
v -340.0633239746094 -1843.4686279296875 833.0393676757812
v -360.2503967285156 -1892.5230712890625 1042.145751953125
v -360.2499694824219 -1892.523193359375 833.0394897460938
v -318.5816955566406 -1791.2484130859375 701.5313110351562
v -318.5819396972656 -1791.248291015625 492.4251403808594
v -340.0635681152344 -1843.468505859375 701.5310668945312
v -340.0633850097656 -1843.4686279296875 492.4250183105469
v -360.2504577636719 -1892.5230712890625 701.5313110351562
v -360.2500305175781 -1892.523193359375 492.4251403808594
v -225.26429748535156 -1563.036376953125 1042.145751953125
v -225.2645721435547 -1563.0362548828125 833.0394897460938
v -246.7460479736328 -1615.2567138671875 1042.1455078125
v -246.74586486816406 -1615.2568359375 833.0393676757812
v -266.9329528808594 -1664.311279296875 1042.145751953125
v -266.9325256347656 -1664.3114013671875 833.0394897460938
v -120.54415893554688 -1306.938720703125 1042.145751953125
v -120.54441833496094 -1306.938720703125 833.03955078125
v -142.02603149414062 -1359.1591796875 1042.1455078125
v -142.0258331298828 -1359.1591796875 833.0394287109375
v -162.2129364013672 -1408.213623046875 1042.145751953125
v -162.21250915527344 -1408.2137451171875 833.03955078125
v -120.54409790039062 -1306.9388427734375 717.2210693359375
v -120.54435729980469 -1306.938720703125 508.1148376464844
v -142.02597045898438 -1359.1591796875 717.2208251953125
v -142.02577209472656 -1359.1593017578125 508.1147155761719
v -162.21287536621094 -1408.213623046875 717.2210693359375
v -162.2124481201172 -1408.2137451171875 508.1148376464844
vt 0.0185394287109375 0.960845947265625
vt 0.0185394287109375 0.23828125
vt 0.228759765625 0.960845947265625
vt 0.0185394287109375 0.23828125
vt 0.228759765625 0.23828125
vt 0.228759765625 0.960845947265625
vt 0.484375 0.95928955078125
vt 0.262939453125 0.95928955078125
vt 0.484375 0.2373046875
vt 0.262939453125 0.95928955078125
vt 0.262939453125 0.2373046875
vt 0.484375 0.2373046875
vt 0.0185394287109375 0.960845947265625
vt 0.0185394287109375 0.23828125
vt 0.228759765625 0.960845947265625
vt 0.0185394287109375 0.23828125
vt 0.228759765625 0.23828125
vt 0.228759765625 0.960845947265625
vt 0.484375 0.95928955078125
vt 0.262939453125 0.95928955078125
vt 0.484375 0.2373046875
vt 0.262939453125 0.95928955078125
vt 0.262939453125 0.2373046875
vt 0.484375 0.2373046875
vt 0.76318359375 0.97601318359375
vt 0.76318359375 0.2373046875
vt 0.99462890625 0.97601318359375
vt 0.76318359375 0.2373046875
vt 0.99462890625 0.2373046875
vt 0.99462890625 0.97601318359375
vt 0.9951171875 0.975860595703125
vt 0.7568359375 0.975860595703125
vt 0.9951171875 0.23876953125
vt 0.7568359375 0.975860595703125
vt 0.7568359375 0.23876953125
vt 0.9951171875 0.23876953125
vt 0.75830078125 0.975067138671875
vt 0.75830078125 0.2373046875
vt 0.99560546875 0.975067138671875
vt 0.75830078125 0.2373046875
vt 0.99560546875 0.2373046875
vt 0.99560546875 0.975067138671875
vt 0.9951171875 0.975372314453125
vt 0.76123046875 0.975372314453125
vt 0.9951171875 0.23876953125
vt 0.76123046875 0.975372314453125
vt 0.76123046875 0.23876953125
vt 0.9951171875 0.23876953125
vt 0.53125 0.960845947265625
vt 0.53125 0.23828125
vt 0.7412109375 0.960845947265625
vt 0.53125 0.23828125
vt 0.7412109375 0.23828125
vt 0.7412109375 0.960845947265625
vt 0.53271484375 0.95928955078125
vt 0.748046875 0.95928955078125
vt 0.53271484375 0.2373046875
vt 0.748046875 0.95928955078125
vt 0.748046875 0.2373046875
vt 0.53271484375 0.2373046875
vt 0.0185394287109375 0.960845947265625
vt 0.0185394287109375 0.23828125
vt 0.228759765625 0.960845947265625
vt 0.0185394287109375 0.23828125
vt 0.228759765625 0.23828125
vt 0.228759765625 0.960845947265625
vt 0.484375 0.95928955078125
vt 0.262939453125 0.95928955078125
vt 0.484375 0.2373046875
vt 0.262939453125 0.95928955078125
vt 0.262939453125 0.2373046875
vt 0.484375 0.2373046875
vn -0.9248066544532776 0.38043731451034546 1.3693254459212767e-06
vn -0.9248095154762268 0.3804304301738739 -6.28773022981477e-07
vn -0.9247826337814331 0.38049569725990295 -5.226567054705811e-07
vn -0.9247848391532898 0.3804904818534851 -1.0319154171156697e-06
vn -0.9247577786445618 0.3805561661720276 -2.1955117972538574e-06
vn -0.9247593283653259 0.38055258989334106 -1.2159360949226539e-06
vn -0.9248059988021851 0.38043907284736633 1.3018404843023745e-06
vn -0.9248086810112 0.3804324269294739 -6.401044174708659e-07
vn -0.9247824549674988 0.38049641251564026 -5.136721483722795e-07
vn -0.9247845411300659 0.3804914057254791 -1.0319151897419943e-06
vn -0.9247580170631409 0.3805555999279022 -2.107465661538299e-06
vn -0.9247594475746155 0.3805522918701172 -1.202012299472699e-06
vn -0.9248059988021851 0.38043907284736633 1.3018410527365631e-06
vn -0.9248086810112 0.3804324269294739 -6.401041900971904e-07
vn -0.924782395362854 0.38049638271331787 -5.136722620591172e-07
vn -0.9247845411300659 0.3804914057254791 -1.0319156444893451e-06
vn -0.9247580170631409 0.38055554032325745 -2.1074663436593255e-06
vn -0.9247594475746155 0.3805522918701172 -1.2020128679068875e-06
vn -0.9248073697090149 0.38043567538261414 1.4368092706718016e-06
vn -0.9248102307319641 0.38042864203453064 -6.174435611683293e-07
vn -0.9247831106185913 0.38049477338790894 -4.598339558015141e-07
vn -0.9247851967811584 0.3804895579814911 -1.0319146213078056e-06
vn -0.9247578978538513 0.38055580854415894 -2.11296787711035e-06
vn -0.9247592687606812 0.3805525004863739 -1.2028823448417825e-06
vn -0.9248069524765015 0.3804367780685425 1.1472369578768848e-06
vn -0.9248092770576477 0.38043102622032166 -5.374130296331714e-07
vn -0.9247826933860779 0.38049575686454773 -5.52791618702031e-07
vn -0.9247846603393555 0.3804910480976105 -8.772782962296333e-07
vn -0.9247575402259827 0.3805566430091858 -2.1074704363854835e-06
vn -0.9247591495513916 0.38055285811424255 -1.0717983514041407e-06
vn -0.9248065948486328 0.38043755292892456 1.3693251048607635e-06
vn -0.924809455871582 0.3804304897785187 -6.849280111964617e-07
vn -0.9247825741767883 0.3804961144924164 -4.965979769622209e-07
vn -0.9247846603393555 0.3804910480976105 -1.0993982186846551e-06
vn -0.9247575402259827 0.3805566132068634 -2.1074699816381326e-06
vn -0.9247588515281677 0.3805535137653351 -1.25882263546373e-06
f 1/1/1 2/2/2 3/3/3
f 2/4/2 4/5/4 3/6/3
f 5/7/5 3/8/3 6/9/6
f 3/10/3 4/11/4 6/12/6
f 7/13/7 8/14/8 9/15/9
f 8/16/8 10/17/10 9/18/9
f 11/19/11 9/20/9 12/21/12
f 9/22/9 10/23/10 12/24/12
f 13/25/13 14/26/14 15/27/15
f 14/28/14 16/29/16 15/30/15
f 17/31/17 15/32/15 18/33/18
f 15/34/15 16/35/16 18/36/18
f 19/37/19 20/38/20 21/39/21
f 20/40/20 22/41/22 21/42/21
f 23/43/23 21/44/21 24/45/24
f 21/46/21 22/47/22 24/48/24
f 25/49/25 26/50/26 27/51/27
f 26/52/26 28/53/28 27/54/27
f 29/55/29 27/56/27 30/57/30
f 27/58/27 28/59/28 30/60/30
f 31/61/31 32/62/32 33/63/33
f 32/64/32 34/65/34 33/66/33
f 35/67/35 33/68/33 36/69/36
f 33/70/33 34/71/34 36/72/36
