# Exported by Lightwave Blender addon
v 144.8773193359375 221.2082977294922 1155.2628173828125
v 144.8773193359375 221.20828247070312 1113.92431640625
v 178.49301147460938 136.1343536376953 1155.2628173828125
v 178.49301147460938 136.1343536376953 1113.92431640625
vt 0.0013761520385742188 0.2392578125
vt 0.0013761520385742188 0.00732421875
vt 0.57177734375 0.2392578125
vt 0.0013761520385742188 0.00732421875
vt 0.57177734375 0.00732421875
vt 0.57177734375 0.2392578125
vn -0.9300286769866943 -0.3674868941307068 1.3564606149429892e-07
vn -0.9300286769866943 -0.3674868643283844 9.899386554934608e-08
vn -0.9300286769866943 -0.3674868941307068 3.665219239223916e-08
vn -0.9300286173820496 -0.3674869239330292 0.0
f 1/1/1 2/2/2 3/3/3
f 2/4/2 4/5/4 3/6/3
