# Exported by Lightwave Blender addon
v 4932.48583984375 -3421.53662109375 451.27752685546875
v 4925.40185546875 -3423.589599609375 451.27752685546875
v 4927.1201171875 -3426.4306640625 414.812255859375
v 4932.55322265625 -3424.85595703125 414.812255859375
v 4939.64697265625 -3423.30078125 451.27752685546875
v 4938.044921875 -3426.208984375 414.812255859375
v 4944.9658203125 -3428.40869140625 451.27752685546875
v 4942.12548828125 -3430.126953125 414.812255859375
v 4947.01953125 -3435.491943359375 451.27752685546875
v 4943.69970703125 -3435.5595703125 414.812255859375
v 4945.25537109375 -3442.6533203125 451.27752685546875
v 4942.34716796875 -3441.052001953125 414.812255859375
v 4940.14697265625 -3447.97265625 451.27752685546875
v 4938.4287109375 -3445.1318359375 414.812255859375
v 4933.0634765625 -3450.02587890625 451.27752685546875
v 4932.99609375 -3446.70654296875 414.812255859375
v 4925.90234375 -3448.26171875 451.27752685546875
v 4927.50390625 -3445.353515625 414.812255859375
v 4920.5830078125 -3443.15380859375 451.27752685546875
v 4923.423828125 -3441.43603515625 414.812255859375
v 4918.5302734375 -3436.070068359375 451.27752685546875
v 4921.84912109375 -3436.00244140625 414.812255859375
v 4920.2939453125 -3428.9091796875 451.27752685546875
v 4923.2021484375 -3430.510498046875 414.812255859375
v 4929.34033203125 -3423.930908203125 414.812255859375
v 4926.4609375 -3425.341064453125 414.812255859375
v 4924.54296875 -3422.1689453125 451.27752685546875
v 4928.296875 -3420.330322265625 451.27752685546875
v 4932.4521484375 -3419.876708984375 451.27752685546875
v 4932.52734375 -3423.58251953125 414.812255859375
v 4935.7255859375 -3423.8017578125 414.812255859375
v 4936.6220703125 -3420.161865234375 451.27752685546875
v 4940.44775390625 -3421.84619140625 451.27752685546875
v 4938.65966796875 -3425.09326171875 414.812255859375
v 4941.3203125 -3426.8818359375 414.812255859375
v 4943.91650390625 -3424.177734375 451.27752685546875
v 4946.38720703125 -3427.549560546875 451.27752685546875
v 4943.21484375 -3429.4677734375 414.812255859375
v 4944.625 -3432.34716796875 414.812255859375
v 4948.22509765625 -3431.3037109375 451.27752685546875
v 4948.67919921875 -3435.458984375 451.27752685546875
v 4944.97314453125 -3435.533935546875 414.812255859375
v 4944.75390625 -3438.732177734375 414.812255859375
v 4948.39404296875 -3439.62890625 451.27752685546875
v 4946.7099609375 -3443.4541015625 451.27752685546875
v 4943.46240234375 -3441.666015625 414.812255859375
v 4941.67333984375 -3444.32666015625 414.812255859375
v 4944.37744140625 -3446.9228515625 451.27752685546875
v 4941.00634765625 -3449.3935546875 451.27752685546875
v 4939.087890625 -3446.221435546875 414.812255859375
v 4936.208984375 -3447.63134765625 414.812255859375
v 4937.25244140625 -3451.23193359375 451.27752685546875
v 4933.09716796875 -3451.685791015625 451.27752685546875
v 4933.02197265625 -3447.9794921875 414.812255859375
v 4929.82373046875 -3447.7607421875 414.812255859375
v 4928.92724609375 -3451.400634765625 451.27752685546875
v 4925.1015625 -3449.71630859375 451.27752685546875
v 4926.8896484375 -3446.46923828125 414.812255859375
v 4924.2294921875 -3444.680419921875 414.812255859375
v 4921.6328125 -3447.38427734375 451.27752685546875
v 4919.16162109375 -3444.0126953125 451.27752685546875
v 4922.333984375 -3442.0947265625 414.812255859375
v 4920.92431640625 -3439.215576171875 414.812255859375
v 4917.32373046875 -3440.2587890625 451.27752685546875
v 4916.8701171875 -3436.103515625 451.27752685546875
v 4920.576171875 -3436.028564453125 414.812255859375
v 4920.794921875 -3432.830322265625 414.812255859375
v 4917.1552734375 -3431.93408203125 451.27752685546875
v 4918.83935546875 -3428.1083984375 451.27752685546875
v 4922.0869140625 -3429.896240234375 414.812255859375
v 4923.87548828125 -3427.23583984375 414.812255859375
v 4921.17138671875 -3424.639404296875 451.27752685546875
vt 0.0927734375 0.09716796875
vt 0.0162200927734375 0.09716796875
vt 0.0162200927734375 0.9044189453125
vt 0.0162200927734375 0.9044189453125
vt 0.0927734375 0.9044189453125
vt 0.0927734375 0.09716796875
vt 0.1728515625 0.09716796875
vt 0.0927734375 0.09716796875
vt 0.0927734375 0.9044189453125
vt 0.0927734375 0.9044189453125
vt 0.1728515625 0.9044189453125
vt 0.1728515625 0.09716796875
vt 0.2529296875 0.09716796875
vt 0.1728515625 0.09716796875
vt 0.1728515625 0.9044189453125
vt 0.1728515625 0.9044189453125
vt 0.2529296875 0.9044189453125
vt 0.2529296875 0.09716796875
vt 0.3330078125 0.09716796875
vt 0.2529296875 0.09716796875
vt 0.2529296875 0.9044189453125
vt 0.2529296875 0.9044189453125
vt 0.3330078125 0.9044189453125
vt 0.3330078125 0.09716796875
vt 0.4130859375 0.09716796875
vt 0.3330078125 0.09716796875
vt 0.3330078125 0.9044189453125
vt 0.3330078125 0.9044189453125
vt 0.4130859375 0.9044189453125
vt 0.4130859375 0.09716796875
vt 0.4931640625 0.09716796875
vt 0.4130859375 0.09716796875
vt 0.4130859375 0.9044189453125
vt 0.4130859375 0.9044189453125
vt 0.4931640625 0.9044189453125
vt 0.4931640625 0.09716796875
vt 0.5732421875 0.09716796875
vt 0.4931640625 0.09716796875
vt 0.4931640625 0.9044189453125
vt 0.4931640625 0.9044189453125
vt 0.5732421875 0.9044189453125
vt 0.5732421875 0.09716796875
vt 0.6533203125 0.09716796875
vt 0.5732421875 0.09716796875
vt 0.5732421875 0.9044189453125
vt 0.5732421875 0.9044189453125
vt 0.6533203125 0.9044189453125
vt 0.6533203125 0.09716796875
vt 0.7333984375 0.09716796875
vt 0.6533203125 0.09716796875
vt 0.6533203125 0.9044189453125
vt 0.6533203125 0.9044189453125
vt 0.7333984375 0.9044189453125
vt 0.7333984375 0.09716796875
vt 0.8134765625 0.09716796875
vt 0.7333984375 0.09716796875
vt 0.7333984375 0.9044189453125
vt 0.7333984375 0.9044189453125
vt 0.8134765625 0.9044189453125
vt 0.8134765625 0.09716796875
vt 0.8935546875 0.09716796875
vt 0.8134765625 0.09716796875
vt 0.8134765625 0.9044189453125
vt 0.8134765625 0.9044189453125
vt 0.8935546875 0.9044189453125
vt 0.8935546875 0.09716796875
vt 0.984375 0.09716796875
vt 0.8935546875 0.09716796875
vt 0.8935546875 0.9044189453125
vt 0.8935546875 0.9044189453125
vt 0.984375 0.9044189453125
vt 0.984375 0.09716796875
vt 0.05450439453125 0.9044189453125
vt 0.0162200927734375 0.9044189453125
vt 0.0162200927734375 0.09716796875
vt 0.0162200927734375 0.09716796875
vt 0.05450439453125 0.09716796875
vt 0.05450439453125 0.9044189453125
vt 0.05450439453125 0.9044189453125
vt 0.05450439453125 0.09716796875
vt 0.0927734375 0.09716796875
vt 0.0927734375 0.09716796875
vt 0.0927734375 0.9044189453125
vt 0.05450439453125 0.9044189453125
vt 0.1328125 0.9044189453125
vt 0.0927734375 0.9044189453125
vt 0.0927734375 0.09716796875
vt 0.0927734375 0.09716796875
vt 0.1328125 0.09716796875
vt 0.1328125 0.9044189453125
vt 0.1328125 0.9044189453125
vt 0.1328125 0.09716796875
vt 0.1728515625 0.09716796875
vt 0.1728515625 0.09716796875
vt 0.1728515625 0.9044189453125
vt 0.1328125 0.9044189453125
vt 0.212890625 0.9044189453125
vt 0.1728515625 0.9044189453125
vt 0.1728515625 0.09716796875
vt 0.1728515625 0.09716796875
vt 0.212890625 0.09716796875
vt 0.212890625 0.9044189453125
vt 0.212890625 0.9044189453125
vt 0.212890625 0.09716796875
vt 0.2529296875 0.09716796875
vt 0.2529296875 0.09716796875
vt 0.2529296875 0.9044189453125
vt 0.212890625 0.9044189453125
vt 0.29296875 0.9044189453125
vt 0.2529296875 0.9044189453125
vt 0.2529296875 0.09716796875
vt 0.2529296875 0.09716796875
vt 0.29296875 0.09716796875
vt 0.29296875 0.9044189453125
vt 0.29296875 0.9044189453125
vt 0.29296875 0.09716796875
vt 0.3330078125 0.09716796875
vt 0.3330078125 0.09716796875
vt 0.3330078125 0.9044189453125
vt 0.29296875 0.9044189453125
vt 0.373046875 0.9044189453125
vt 0.3330078125 0.9044189453125
vt 0.3330078125 0.09716796875
vt 0.3330078125 0.09716796875
vt 0.373046875 0.09716796875
vt 0.373046875 0.9044189453125
vt 0.373046875 0.9044189453125
vt 0.373046875 0.09716796875
vt 0.4130859375 0.09716796875
vt 0.4130859375 0.09716796875
vt 0.4130859375 0.9044189453125
vt 0.373046875 0.9044189453125
vt 0.453125 0.9044189453125
vt 0.4130859375 0.9044189453125
vt 0.4130859375 0.09716796875
vt 0.4130859375 0.09716796875
vt 0.453125 0.09716796875
vt 0.453125 0.9044189453125
vt 0.453125 0.9044189453125
vt 0.453125 0.09716796875
vt 0.4931640625 0.09716796875
vt 0.4931640625 0.09716796875
vt 0.4931640625 0.9044189453125
vt 0.453125 0.9044189453125
vt 0.533203125 0.9044189453125
vt 0.4931640625 0.9044189453125
vt 0.4931640625 0.09716796875
vt 0.4931640625 0.09716796875
vt 0.533203125 0.09716796875
vt 0.533203125 0.9044189453125
vt 0.533203125 0.9044189453125
vt 0.533203125 0.09716796875
vt 0.5732421875 0.09716796875
vt 0.5732421875 0.09716796875
vt 0.5732421875 0.9044189453125
vt 0.533203125 0.9044189453125
vt 0.61328125 0.9044189453125
vt 0.5732421875 0.9044189453125
vt 0.5732421875 0.09716796875
vt 0.5732421875 0.09716796875
vt 0.61328125 0.09716796875
vt 0.61328125 0.9044189453125
vt 0.61328125 0.9044189453125
vt 0.61328125 0.09716796875
vt 0.6533203125 0.09716796875
vt 0.6533203125 0.09716796875
vt 0.6533203125 0.9044189453125
vt 0.61328125 0.9044189453125
vt 0.693359375 0.9044189453125
vt 0.6533203125 0.9044189453125
vt 0.6533203125 0.09716796875
vt 0.6533203125 0.09716796875
vt 0.693359375 0.09716796875
vt 0.693359375 0.9044189453125
vt 0.693359375 0.9044189453125
vt 0.693359375 0.09716796875
vt 0.7333984375 0.09716796875
vt 0.7333984375 0.09716796875
vt 0.7333984375 0.9044189453125
vt 0.693359375 0.9044189453125
vt 0.7734375 0.9044189453125
vt 0.7333984375 0.9044189453125
vt 0.7333984375 0.09716796875
vt 0.7333984375 0.09716796875
vt 0.7734375 0.09716796875
vt 0.7734375 0.9044189453125
vt 0.7734375 0.9044189453125
vt 0.7734375 0.09716796875
vt 0.8134765625 0.09716796875
vt 0.8134765625 0.09716796875
vt 0.8134765625 0.9044189453125
vt 0.7734375 0.9044189453125
vt 0.853515625 0.9044189453125
vt 0.8134765625 0.9044189453125
vt 0.8134765625 0.09716796875
vt 0.8134765625 0.09716796875
vt 0.853515625 0.09716796875
vt 0.853515625 0.9044189453125
vt 0.853515625 0.9044189453125
vt 0.853515625 0.09716796875
vt 0.8935546875 0.09716796875
vt 0.8935546875 0.09716796875
vt 0.8935546875 0.9044189453125
vt 0.853515625 0.9044189453125
vt 0.93896484375 0.9044189453125
vt 0.8935546875 0.9044189453125
vt 0.8935546875 0.09716796875
vt 0.8935546875 0.09716796875
vt 0.93896484375 0.09716796875
vt 0.93896484375 0.9044189453125
vt 0.93896484375 0.9044189453125
vt 0.93896484375 0.09716796875
vt 0.984375 0.09716796875
vt 0.984375 0.09716796875
vt 0.984375 0.9044189453125
vt 0.93896484375 0.9044189453125
vn 0.020180830731987953 -0.9956762194633484 0.09067302197217941
vn 0.5153287053108215 -0.8521823287010193 0.09067299962043762
vn 0.5153175592422485 -0.8521889448165894 0.09067483246326447
vn 0.02018642984330654 -0.9956761598587036 0.09067316353321075
vn -0.48038768768310547 -0.8723562359809875 0.09067623317241669
vn -0.48035168647766113 -0.8723767995834351 0.09066902846097946
vn -0.8521643280982971 -0.5153595805168152 0.09066735208034515
vn -0.8521757125854492 -0.5153394341468811 0.09067430347204208
vn -0.9956750869750977 -0.02023739367723465 0.09067337214946747
vn -0.9956754446029663 -0.02020668424665928 0.09067685157060623
vn -0.8723617196083069 0.4803782105445862 0.09067431092262268
vn -0.872370719909668 0.4803621470928192 0.0906730368733406
vn -0.5153211951255798 0.8521873354911804 0.09066793322563171
vn -0.5153021216392517 0.8521986603736877 0.09067153930664062
vn -0.020204205065965652 0.9956759214401245 0.09067114442586899
vn -0.020207656547427177 0.9956757426261902 0.09067127853631973
vn 0.48036566376686096 0.8723689317703247 0.09067133069038391
vn 0.480340838432312 0.8723829984664917 0.09066658467054367
vn 0.8521921038627625 0.5153133869171143 0.09066873043775558
vn 0.8521713614463806 0.5153487920761108 0.09066247195005417
vn 0.9956770539283752 0.020198462530970573 0.09065981954336166
vn 0.9956769347190857 0.020181283354759216 0.09066423028707504
vn 0.8723873496055603 -0.4803338944911957 0.09066338837146759
vn 0.8723606467247009 -0.4803803563117981 0.09067381918430328
vn -0.27695369720458984 0.9554270505905151 -0.10225401073694229
vn -0.5148450136184692 0.8512970209121704 -0.10113383084535599
vn -0.5148252248764038 0.8513083457946777 -0.10113892704248428
vn -0.27690449357032776 0.9554402232170105 -0.10226394236087799
vn -0.0201234370470047 0.9946689009666443 -0.10113842040300369
vn -0.02011471800506115 0.9946703314781189 -0.10112560540437698
vn 0.23794907331466675 0.9658805131912231 -0.10224908590316772
vn 0.23790982365608215 0.9658889174461365 -0.10226208716630936
vn 0.47981294989585876 0.8715219497680664 -0.10113842040300369
vn 0.4798012375831604 0.8715290427207947 -0.10113298892974854
vn 0.6890305280685425 0.7174811959266663 -0.10226298123598099
vn 0.6889851093292236 0.7175248861312866 -0.10226161777973175
vn 0.8513520956039429 0.5147538781166077 -0.10113374888896942
vn 0.8513354659080505 0.5147795081138611 -0.10114286839962006
vn 0.9554358124732971 0.2769205570220947 -0.10226082801818848
vn 0.9554504752159119 0.2768736481666565 -0.10225128382444382
vn 0.9946678876876831 0.02017543464899063 -0.10113734751939774
vn 0.9946703314781189 0.020081359893083572 -0.10113205760717392
vn 0.9658763408660889 -0.23796194791793823 -0.10225902497768402
vn 0.9658887386322021 -0.23790709674358368 -0.10227005928754807
vn 0.8714771270751953 -0.4798928499221802 -0.1011456847190857
vn 0.8714898824691772 -0.4798698127269745 -0.10114452987909317
vn 0.7174869179725647 -0.6890243291854858 -0.10226402431726456
vn 0.7174941301345825 -0.6890171766281128 -0.10226161032915115
vn 0.5148512125015259 -0.8512927293777466 -0.10113890469074249
vn 0.5148434042930603 -0.85129714012146 -0.10114064812660217
vn 0.27691906690597534 -0.9554360508918762 -0.10226383805274963
vn 0.27690714597702026 -0.9554394483566284 -0.10226394236087799
vn 0.020152630284428596 -0.9946681261062622 -0.10113987326622009
vn 0.020152846351265907 -0.9946683049201965 -0.10113879293203354
vn -0.23788009583950043 -0.9658968448638916 -0.10225717723369598
vn -0.23790982365608215 -0.9658889174461365 -0.10226208716630936
vn -0.47985613346099854 -0.8714979290962219 -0.10114052891731262
vn -0.47986623644828796 -0.8714932799339294 -0.10113298892974854
vn -0.6889809966087341 -0.7175296545028687 -0.10225600749254227
vn -0.6889746785163879 -0.7175344228744507 -0.10226599872112274
vn -0.8513115644454956 -0.514819324016571 -0.1011422798037529
vn -0.8512871265411377 -0.514860212802887 -0.10113946348428726
vn -0.9554511904716492 -0.2768685221672058 -0.102259062230587
vn -0.9554620981216431 -0.2768295109272003 -0.10226210951805115
vn -0.9946691393852234 -0.020121466368436813 -0.10113519430160522
vn -0.9946688413619995 -0.0201532281935215 -0.10113204270601273
vn -0.9658811688423157 0.2379421591758728 -0.10225987434387207
vn -0.9658952355384827 0.23788778483867645 -0.10225410014390945
vn -0.871517539024353 0.4798212945461273 -0.10113798826932907
vn -0.8714840412139893 0.4798811078071594 -0.10114135593175888
vn -0.7175151109695435 0.6889956593513489 -0.10225998610258102
vn -0.7174980044364929 0.6890125870704651 -0.10226617008447647
f 1/1/1 2/2/2 3/3/3
f 3/4/3 4/5/4 1/6/1
f 5/7/5 1/8/1 4/9/4
f 4/10/4 6/11/6 5/12/5
f 7/13/7 5/14/5 6/15/6
f 6/16/6 8/17/8 7/18/7
f 9/19/9 7/20/7 8/21/8
f 8/22/8 10/23/10 9/24/9
f 11/25/11 9/26/9 10/27/10
f 10/28/10 12/29/12 11/30/11
f 13/31/13 11/32/11 12/33/12
f 12/34/12 14/35/14 13/36/13
f 15/37/15 13/38/13 14/39/14
f 14/40/14 16/41/16 15/42/15
f 17/43/17 15/44/15 16/45/16
f 16/46/16 18/47/18 17/48/17
f 19/49/19 17/50/17 18/51/18
f 18/52/18 20/53/20 19/54/19
f 21/55/21 19/56/19 20/57/20
f 20/58/20 22/59/22 21/60/21
f 23/61/23 21/62/21 22/63/22
f 22/64/22 24/65/24 23/66/23
f 2/67/2 23/68/23 24/69/24
f 24/70/24 3/71/3 2/72/2
f 25/73/25 26/74/26 27/75/27
f 27/76/27 28/77/28 25/78/25
f 25/79/25 28/80/28 29/81/29
f 29/82/29 30/83/30 25/84/25
f 31/85/31 30/86/30 29/87/29
f 29/88/29 32/89/32 31/90/31
f 31/91/31 32/92/32 33/93/33
f 33/94/33 34/95/34 31/96/31
f 35/97/35 34/98/34 33/99/33
f 33/100/33 36/101/36 35/102/35
f 35/103/35 36/104/36 37/105/37
f 37/106/37 38/107/38 35/108/35
f 39/109/39 38/110/38 37/111/37
f 37/112/37 40/113/40 39/114/39
f 39/115/39 40/116/40 41/117/41
f 41/118/41 42/119/42 39/120/39
f 43/121/43 42/122/42 41/123/41
f 41/124/41 44/125/44 43/126/43
f 43/127/43 44/128/44 45/129/45
f 45/130/45 46/131/46 43/132/43
f 47/133/47 46/134/46 45/135/45
f 45/136/45 48/137/48 47/138/47
f 47/139/47 48/140/48 49/141/49
f 49/142/49 50/143/50 47/144/47
f 51/145/51 50/146/50 49/147/49
f 49/148/49 52/149/52 51/150/51
f 51/151/51 52/152/52 53/153/53
f 53/154/53 54/155/54 51/156/51
f 55/157/55 54/158/54 53/159/53
f 53/160/53 56/161/56 55/162/55
f 55/163/55 56/164/56 57/165/57
f 57/166/57 58/167/58 55/168/55
f 59/169/59 58/170/58 57/171/57
f 57/172/57 60/173/60 59/174/59
f 59/175/59 60/176/60 61/177/61
f 61/178/61 62/179/62 59/180/59
f 63/181/63 62/182/62 61/183/61
f 61/184/61 64/185/64 63/186/63
f 63/187/63 64/188/64 65/189/65
f 65/190/65 66/191/66 63/192/63
f 67/193/67 66/194/66 65/195/65
f 65/196/65 68/197/68 67/198/67
f 67/199/67 68/200/68 69/201/69
f 69/202/69 70/203/70 67/204/67
f 71/205/71 70/206/70 69/207/69
f 69/208/69 72/209/72 71/210/71
f 71/211/71 72/212/72 27/213/27
f 27/214/27 26/215/26 71/216/71
