# Exported by Lightwave Blender addon
v -574.7708129882812 -1115.0255126953125 1006.6841430664062
v -574.7709350585938 -1115.025634765625 115.44498443603516
v -602.30712890625 -1083.2366943359375 1006.6841430664062
v -602.3072509765625 -1083.23681640625 115.4448471069336
v -1182.3270263671875 -424.7271728515625 1079.6483154296875
v -1184.9339599609375 -421.71783447265625 19.9998722076416
v -1241.8634033203125 -476.29925537109375 1079.648193359375
v -1244.4705810546875 -473.2900085449219 19.999876022338867
v -661.2579956054688 -1134.3016357421875 1006.6842041015625
v -663.6902465820312 -1136.408447265625 115.44485473632812
v -633.7218017578125 -1166.0904541015625 1006.6842041015625
v -636.154052734375 -1168.1973876953125 115.44498443603516
v -575.1242065429688 -1119.9560546875 1006.684326171875
v -575.1243896484375 -1119.9561767578125 115.44496154785156
v -631.2234497070312 -1168.55078125 115.44497680664062
v -628.7911987304688 -1166.44384765625 1006.6842651367188
v -1150.38671875 -456.2613525390625 1079.6483154296875
v -1150.386962890625 -456.2614440917969 19.999868392944336
v -1177.3963623046875 -425.08056640625 1079.6483154296875
v -1180.00341796875 -422.0712890625 19.99987030029297
v -1215.20751953125 -512.4107666015625 19.9998836517334
v -1215.207275390625 -512.4105834960938 1079.6483154296875
v -1244.823974609375 -478.2205810546875 19.9998836517334
v -1242.217041015625 -481.2298583984375 1079.648193359375
v -1150.740234375 -461.19189453125 1079.6483154296875
v -1150.740478515625 -461.1919860839844 19.99987030029297
v -1210.27685546875 -512.76416015625 19.999876022338867
v -1210.27685546875 -512.763916015625 1079.6483154296875
v -607.23779296875 -1082.8834228515625 115.4448471069336
v -607.2376708984375 -1082.88330078125 1006.684326171875
v -660.9046020507812 -1129.37109375 1006.6842651367188
v -663.3368530273438 -1131.47802734375 115.44486236572266
vt -1.744140625 2.7060546875
vt -1.744140625 -1.74609375
vt -1.533203125 2.7060546875
vt -1.744140625 -1.74609375
vt -1.533203125 -1.74609375
vt -1.533203125 2.7060546875
vt 0.5458984375 3.072265625
vt 0.5458984375 -2.20703125
vt 0.939453125 3.072265625
vt 0.5458984375 -2.20703125
vt 0.939453125 -2.20703125
vt 0.939453125 3.072265625
vt 2.533203125 2.7060546875
vt 2.533203125 -1.74609375
vt 2.744140625 2.7060546875
vt 2.533203125 -1.74609375
vt 2.744140625 -1.74609375
vt 2.744140625 2.7060546875
vt 0.490234375 2.7060546875
vt 0.47265625 2.7060546875
vt 0.490234375 -1.74609375
vt 0.47265625 2.7060546875
vt 0.47265625 -1.74609375
vt 0.490234375 -1.74609375
vt 0.47265625 -1.74609375
vt 0.47265625 2.7060546875
vt 0.10174560546875 -1.74609375
vt 0.47265625 2.7060546875
vt 0.11785888671875 2.7060546875
vt 0.10174560546875 -1.74609375
vt 0.11785888671875 2.7060546875
vt 0.100341796875 2.7060546875
vt 0.10174560546875 -1.74609375
vt 0.100341796875 2.7060546875
vt 0.08428955078125 -1.74609375
vt 0.10174560546875 -1.74609375
vt 2.62890625 3.072265625
vt 2.62890625 -2.20703125
vt 2.833984375 3.072265625
vt 2.62890625 -2.20703125
vt 2.85546875 -2.20703125
vt 2.833984375 3.072265625
vt 2.85546875 -2.20703125
vt 2.873046875 -2.20703125
vt 2.833984375 3.072265625
vt 2.873046875 -2.20703125
vt 2.8515625 3.072265625
vt 2.833984375 3.072265625
vt -1.62890625 -2.20703125
vt -1.62890625 3.072265625
vt -1.85546875 -2.20703125
vt -1.62890625 3.072265625
vt -1.8349609375 3.072265625
vt -1.85546875 -2.20703125
vt -1.85546875 -2.20703125
vt -1.8349609375 3.072265625
vt -1.8525390625 3.072265625
vt -1.873046875 -2.20703125
vt -1.85546875 -2.20703125
vt -1.8525390625 3.072265625
vt 0.471435546875 3.072265625
vt 0.453857421875 3.072265625
vt 0.471435546875 -2.20703125
vt 0.453857421875 3.072265625
vt 0.453857421875 -2.20703125
vt 0.471435546875 -2.20703125
vt 0.453857421875 -2.20703125
vt 0.453857421875 3.072265625
vt 0.060211181640625 -2.20703125
vt 0.453857421875 3.072265625
vt 0.060211181640625 3.072265625
vt 0.060211181640625 -2.20703125
vt 0.060211181640625 3.072265625
vt 0.042724609375 3.072265625
vt 0.060211181640625 -2.20703125
vt 0.042724609375 3.072265625
vt 0.042724609375 -2.20703125
vt 0.060211181640625 -2.20703125
vt 0.50927734375 -1.74609375
vt 0.52685546875 -1.74609375
vt 0.50927734375 2.7060546875
vt 0.52685546875 -1.74609375
vt 0.52685546875 2.7060546875
vt 0.50927734375 2.7060546875
vt 0.52685546875 2.7060546875
vt 0.52685546875 -1.74609375
vt 0.8818359375 2.7060546875
vt 0.52685546875 -1.74609375
vt 0.89794921875 -1.74609375
vt 0.8818359375 2.7060546875
vt 0.89794921875 -1.74609375
vt 0.91552734375 -1.74609375
vt 0.8818359375 2.7060546875
vt 0.91552734375 -1.74609375
vt 0.8994140625 2.7060546875
vt 0.8818359375 2.7060546875
vn 0.9488765597343445 0.31564733386039734 -1.7319798928383534e-07
vn 0.9488756656646729 0.31564998626708984 -2.10035764780514e-07
vn 0.4477558732032776 0.8941559195518494 -1.8379755317710078e-07
vn 0.44775596261024475 0.8941558003425598 -1.838012053667626e-07
vn -0.31531867384910583 0.9489794969558716 0.003470788011327386
vn -0.3159807622432709 0.9487593173980713 0.0034718005917966366
vn -0.8942945599555969 0.4474652111530304 0.003470906987786293
vn -0.8939936757087708 0.4480661153793335 0.0034720408730208874
vn -0.9489768147468567 -0.3153282403945923 0.003335228655487299
vn -0.9487646222114563 -0.31596603989601135 0.0033361990936100483
vn -0.44745349884033203 -0.8943009972572327 0.0033352544996887445
vn -0.4480556547641754 -0.8939993977546692 0.003336232854053378
vn 0.8941518664360046 -0.4477638304233551 -4.6848182222447576e-08
vn 0.894152820110321 -0.4477619528770447 -1.2237546798132826e-07
vn 0.31488341093063354 -0.9491293430328369 0.0013844141503795981
vn 0.3164242208003998 -0.9486168026924133 0.00137903424911201
vn 0.9488789439201355 0.3156404197216034 -2.458875485444878e-07
vn 0.94887775182724 0.3156437277793884 -2.508067495909927e-07
vn 0.44851529598236084 0.8937740325927734 0.0014347708784043789
vn 0.4470061957836151 0.8945298194885254 0.001440589432604611
vn -0.447755366563797 -0.8941560983657837 2.5767047873159754e-07
vn -0.44775277376174927 -0.894157350063324 2.0322949012552272e-07
vn -0.9491392970085144 -0.31485339999198914 0.001441106665879488
vn -0.9486140012741089 -0.31643256545066833 0.0014351371210068464
vn 0.8941481709480286 -0.4477713108062744 -3.3411101441060964e-08
vn 0.8941504955291748 -0.4477665424346924 -1.6732360563764814e-07
vn 0.3156571090221405 -0.9488732814788818 6.259647733486418e-08
vn 0.3156561255455017 -0.9488736391067505 2.186122003422497e-07
vn -0.31565624475479126 0.9488735795021057 -1.0071541822753716e-07
vn -0.3156568109989166 0.9488735198974609 -8.672972029444281e-08
vn -0.893790066242218 0.448483407497406 0.0013789951335638762
vn -0.8945176005363464 0.4470304846763611 0.001384395407512784
f 1/1/1 2/2/2 3/3/3
f 2/4/2 4/5/4 3/6/3
f 5/7/5 6/8/6 7/9/7
f 6/10/6 8/11/8 7/12/7
f 9/13/9 10/14/10 11/15/11
f 10/16/10 12/17/12 11/18/11
f 1/19/1 13/20/13 2/21/2
f 13/22/13 14/23/14 2/24/2
f 14/25/14 13/26/13 15/27/15
f 13/28/13 16/29/16 15/30/15
f 16/31/16 11/32/11 15/33/15
f 11/34/11 12/35/12 15/36/15
f 17/37/17 18/38/18 19/39/19
f 18/40/18 20/41/20 19/42/19
f 20/43/20 6/44/6 19/45/19
f 6/46/6 5/47/5 19/48/19
f 21/49/21 22/50/22 23/51/23
f 22/52/22 24/53/24 23/54/23
f 23/55/23 24/56/24 7/57/7
f 8/58/8 23/59/23 7/60/7
f 17/61/17 25/62/25 18/63/18
f 25/64/25 26/65/26 18/66/18
f 26/67/26 25/68/25 27/69/27
f 25/70/25 28/71/28 27/72/27
f 28/73/28 22/74/22 27/75/27
f 22/76/22 21/77/21 27/78/27
f 4/79/4 29/80/29 3/81/3
f 29/82/29 30/83/30 3/84/3
f 30/85/30 29/86/29 31/87/31
f 29/88/29 32/89/32 31/90/31
f 32/91/32 10/92/10 31/93/31
f 10/94/10 9/95/9 31/96/31
