# Exported by Lightwave Blender addon
v -107.32241821289062 347.252685546875 480.3652648925781
v -107.32241821289062 347.252685546875 487.2851867675781
v -137.0884552001953 363.6357116699219 480.3652648925781
v -137.0884552001953 363.6357421875 487.28515625
v -137.3957977294922 364.6952819824219 487.28515625
v -137.3957977294922 364.69525146484375 480.3652648925781
v -66.72145080566406 493.1481628417969 479.7218322753906
v -66.72147369384766 493.1481628417969 486.64178466796875
v -65.662109375 493.4554443359375 486.64178466796875
v -65.662109375 493.4554748535156 479.7218322753906
v -36.015106201171875 477.1374816894531 479.72186279296875
v -36.015106201171875 477.1374816894531 486.6418151855469
v -36.38926696777344 476.45367431640625 478.9418640136719
v -66.0381088256836 492.7720642089844 478.9418640136719
v -106.9464111328125 347.9361267089844 479.58526611328125
v -136.7124481201172 364.31915283203125 479.58526611328125
v -106.9464111328125 347.9361267089844 488.0652160644531
v -136.7124481201172 364.31915283203125 488.065185546875
v -66.03810119628906 492.7720642089844 487.42181396484375
v -36.38926696777344 476.45367431640625 487.42181396484375
vt 0.002002716064453125 0.718017578125
vt 0.0019989013671875 0.691650390625
vt 0.1314697265625 0.718017578125
vt 0.0019989013671875 0.691650390625
vt 0.1314697265625 0.691650390625
vt 0.1314697265625 0.718017578125
vt 0.1314697265625 0.691650390625
vt 0.1356201171875 0.691650390625
vt 0.1314697265625 0.718017578125
vt 0.1356201171875 0.691650390625
vt 0.1356201171875 0.718017578125
vt 0.1314697265625 0.718017578125
vt 0.1356201171875 0.718017578125
vt 0.1356201171875 0.691650390625
vt 0.69482421875 0.720458984375
vt 0.1356201171875 0.691650390625
vt 0.69482421875 0.694091796875
vt 0.69482421875 0.720458984375
vt 0.69482421875 0.720458984375
vt 0.69482421875 0.694091796875
vt 0.69873046875 0.694091796875
vt 0.69873046875 0.720458984375
vt 0.69482421875 0.720458984375
vt 0.69873046875 0.694091796875
vt 0.82763671875 0.720458984375
vt 0.69873046875 0.720458984375
vt 0.69873046875 0.694091796875
vt 0.82763671875 0.694091796875
vt 0.82763671875 0.720458984375
vt 0.69873046875 0.694091796875
vt 0.57080078125 0.4755859375
vt 0.56787109375 0.4755859375
vt 0.57080078125 0.34619140625
vt 0.56787109375 0.4755859375
vt 0.56640625 0.34619140625
vt 0.57080078125 0.34619140625
vt 0.56640625 0.34228515625
vt 0.57080078125 0.34619140625
vt 0.56640625 0.34619140625
vt 0.56787109375 0.4755859375
vt 0.00659942626953125 0.4755859375
vt 0.56640625 0.34619140625
vt 0.56640625 0.34228515625
vt 0.56640625 0.34619140625
vt 0.00659942626953125 0.34228515625
vt 0.00659942626953125 0.4755859375
vt 0.00659942626953125 0.34619140625
vt 0.56640625 0.34619140625
vt 0.56640625 0.34619140625
vt 0.00659942626953125 0.34619140625
vt 0.00659942626953125 0.34228515625
vt 0.00659942626953125 0.34619140625
vt 0.00659942626953125 0.4755859375
vt 0.0028228759765625 0.4755859375
vt 0.0028228759765625 0.3505859375
vt 0.00659942626953125 0.34228515625
vt 0.00659942626953125 0.34619140625
vt 0.0028228759765625 0.3505859375
vt 0.00659942626953125 0.34619140625
vt 0.0028228759765625 0.4755859375
vt 0.0028228759765625 0.498046875
vt 0.00659942626953125 0.498046875
vt 0.0028228759765625 0.62744140625
vt 0.00659942626953125 0.498046875
vt 0.00659942626953125 0.62744140625
vt 0.0028228759765625 0.62744140625
vt 0.00659942626953125 0.62744140625
vt 0.00659942626953125 0.631103515625
vt 0.0028228759765625 0.62744140625
vt 0.00659942626953125 0.631103515625
vt 0.00659942626953125 0.62744140625
vt 0.56640625 0.631103515625
vt 0.00659942626953125 0.62744140625
vt 0.00659942626953125 0.498046875
vt 0.56640625 0.62744140625
vt 0.00659942626953125 0.62744140625
vt 0.56640625 0.62744140625
vt 0.56640625 0.631103515625
vt 0.00659942626953125 0.498046875
vt 0.56640625 0.498046875
vt 0.56640625 0.62744140625
vt 0.56640625 0.62744140625
vt 0.57080078125 0.62744140625
vt 0.56640625 0.631103515625
vt 0.56640625 0.62744140625
vt 0.56640625 0.498046875
vt 0.57080078125 0.498046875
vt 0.57080078125 0.62744140625
vt 0.56640625 0.62744140625
vt 0.57080078125 0.498046875
vn -0.4454786777496338 -0.8093825578689575 -0.3826857805252075
vn -0.4454807639122009 -0.8093848824501038 0.38267871737480164
vn -0.7214159369468689 -0.6023895740509033 -0.34159284830093384
vn -0.7214188575744629 -0.6023931503295898 0.34158071875572205
vn -0.9314661622047424 0.12355382740497589 0.34220659732818604
vn -0.932112455368042 0.12212962657213211 -0.3409557640552521
vn -0.6028720140457153 0.7207117080688477 -0.3422280251979828
vn -0.6020126938819885 0.7220309972763062 0.34095749258995056
vn 0.12290611863136292 0.9317805171012878 0.341583251953125
vn 0.12289262562990189 0.9317763447761536 -0.34159964323043823
vn 0.44547659158706665 0.8093549013137817 -0.38274702429771423
vn 0.4454707205295563 0.8093573451042175 0.38274863362312317
vn 0.18345807492733002 0.33331140875816345 -0.9247955083847046
vn -0.13550513982772827 0.46227937936782837 -0.8763195872306824
vn -0.1855660080909729 -0.3371516764163971 -0.9229810833930969
vn -0.4648495018482208 -0.1362418681383133 -0.8748446106910706
vn -0.1836189180612564 -0.3336118459701538 0.9246552586555481
vn -0.46307170391082764 -0.1329227238893509 0.8762968182563782
vn -0.1336403340101242 0.4655967056751251 0.8748485445976257
vn 0.18541018664836884 0.3368712067604065 0.9231147170066833
f 1/1/1 2/2/2 3/3/3
f 2/4/2 4/5/4 3/6/3
f 4/7/4 5/8/5 3/9/3
f 5/10/5 6/11/6 3/12/3
f 6/13/6 5/14/5 7/15/7
f 5/16/5 8/17/8 7/18/7
f 7/19/7 8/20/8 9/21/9
f 10/22/10 7/23/7 9/24/9
f 11/25/11 10/26/10 9/27/9
f 12/28/12 11/29/11 9/30/9
f 11/31/11 13/32/13 10/33/10
f 13/34/13 14/35/14 10/36/10
f 7/37/7 10/38/10 14/39/14
f 13/40/13 15/41/15 14/42/14
f 7/43/7 14/44/14 6/45/6
f 15/46/15 16/47/16 14/48/14
f 14/49/14 16/50/16 6/51/6
f 16/52/16 15/53/15 1/54/1
f 3/55/3 6/56/6 16/57/16
f 3/58/3 16/59/16 1/60/1
f 2/61/2 17/62/17 4/63/4
f 17/64/17 18/65/18 4/66/4
f 18/67/18 5/68/5 4/69/4
f 5/70/5 18/71/18 8/72/8
f 18/73/18 17/74/17 19/75/19
f 18/76/18 19/77/19 8/78/8
f 17/79/17 20/80/20 19/81/19
f 19/82/19 9/83/9 8/84/8
f 19/85/19 20/86/20 12/87/12
f 9/88/9 19/89/19 12/90/12
