# Exported by Lightwave Blender addon
v 47.74599838256836 689.3085327148438 486.4710693359375
v 47.74599838256836 689.3085327148438 692.0390625
v 74.88397216796875 674.5133666992188 486.4710693359375
v 74.88397216796875 674.5133056640625 692.0390625
v 107.57998657226562 799.0582275390625 692.0390014648438
v 134.7179412841797 784.262939453125 692.0390014648438
v 107.57998657226562 799.0582275390625 486.4710693359375
v 134.7179412841797 784.262939453125 486.4710693359375
v 187.98789978027344 945.7029418945312 486.4710998535156
v 187.98789978027344 945.702880859375 692.0390625
v 215.08909606933594 930.8404541015625 486.4710998535156
v 215.08909606933594 930.8403930664062 692.0390625
v 250.9428253173828 1059.147705078125 692.0390014648438
v 278.0440368652344 1044.2852783203125 692.0390014648438
v 250.94288635253906 1059.147705078125 486.4710693359375
v 278.0440979003906 1044.2852783203125 486.4710693359375
v -5.250906944274902 593.4662475585938 696.6200561523438
v -5.206778526306152 593.7907104492188 749.5286254882812
v 13.704654693603516 627.9036865234375 749.5287475585938
v 13.676288604736328 627.6951293945312 694.9840087890625
v -5.250906944274902 593.4662475585938 486.28961181640625
v 26.623462677001953 651.20703125 749.5288696289062
v 13.676288604736328 627.6951904296875 486.35443115234375
v -5.250998497009277 593.4661865234375 427.08941650390625
v 13.676227569580078 627.6951293945312 427.08941650390625
v 26.605854034423828 651.07763671875 693.8663940429688
v 26.605854034423828 651.0775756835938 486.398681640625
v 26.605815887451172 651.0775756835938 427.0894470214844
v 47.746028900146484 689.30859375 749.529052734375
v 107.57992553710938 799.0580444335938 749.5289916992188
v 47.74601364135742 689.3085327148438 427.0894775390625
v 107.58000183105469 799.05810546875 427.0894775390625
v 151.31639099121094 879.2810668945312 749.5289916992188
v 151.3164825439453 879.2811279296875 427.0894775390625
v 151.3164825439453 879.2810668945312 692.0390014648438
v 187.9878692626953 945.7029418945312 749.529052734375
v 151.3164825439453 879.2811279296875 486.4710388183594
v 250.9426727294922 1059.1474609375 749.529052734375
v 187.98789978027344 945.7030029296875 427.0895080566406
v 250.94276428222656 1059.1475830078125 427.0895080566406
v 271.95556640625 1099.1893310546875 749.5289916992188
v 271.95562744140625 1099.1893310546875 692.0390014648438
v 271.9555969238281 1099.189208984375 427.0894775390625
v 271.95562744140625 1099.1893310546875 486.4710693359375
vt -1.4912109375 1.5263671875
vt -1.4912109375 2.4853515625
vt -1.638671875 1.5263671875
vt -1.4912109375 2.4853515625
vt -1.638671875 2.4853515625
vt -1.638671875 1.5263671875
vt -1.4912109375 2.4853515625
vt -2.0859375 2.4853515625
vt -1.4912109375 2.3408203125
vt -2.0859375 2.4853515625
vt -2.0859375 2.3408203125
vt -1.4912109375 2.3408203125
vt -2.0859375 2.4853515625
vt -2.0859375 1.5263671875
vt -1.9384765625 2.4853515625
vt -2.0859375 1.5263671875
vt -1.9384765625 1.5263671875
vt -1.9384765625 2.4853515625
vt -2.0859375 1.5263671875
vt -1.4912109375 1.5263671875
vt -2.0859375 1.67041015625
vt -1.4912109375 1.5263671875
vt -1.4912109375 1.67041015625
vt -2.0859375 1.67041015625
vt -2.880859375 1.5263671875
vt -2.880859375 2.4853515625
vt -3.02734375 1.5263671875
vt -2.880859375 2.4853515625
vt -3.02734375 2.4853515625
vt -3.02734375 1.5263671875
vt -2.880859375 2.4853515625
vt -3.49609375 2.4853515625
vt -2.880859375 2.3408203125
vt -3.49609375 2.4853515625
vt -3.498046875 2.3408203125
vt -2.880859375 2.3408203125
vt -3.49609375 2.4853515625
vt -3.49609375 1.5263671875
vt -3.349609375 2.4853515625
vt -3.49609375 1.5263671875
vt -3.349609375 1.5263671875
vt -3.349609375 2.4853515625
vt -3.49609375 1.5263671875
vt -2.880859375 1.5263671875
vt -3.498046875 1.67041015625
vt -2.880859375 1.5263671875
vt -2.880859375 1.67041015625
vt -3.498046875 1.67041015625
vt -0.97119140625 2.505859375
vt -0.97265625 2.7529296875
vt -1.1572265625 2.7529296875
vt -1.15625 2.4990234375
vt -0.97119140625 2.505859375
vt -1.1572265625 2.7529296875
vt -0.97119140625 2.505859375
vt -1.15625 2.4990234375
vt -0.97119140625 1.525390625
vt -1.15625 2.4990234375
vt -1.1572265625 2.7529296875
vt -1.2841796875 2.7529296875
vt -1.15625 2.4990234375
vt -1.15625 1.52587890625
vt -0.97119140625 1.525390625
vt -0.97119140625 1.525390625
vt -1.15625 1.52587890625
vt -0.97119140625 1.2496337890625
vt -1.15625 1.52587890625
vt -1.15625 1.2496337890625
vt -0.97119140625 1.2496337890625
vt -1.2841796875 2.4931640625
vt -1.15625 2.4990234375
vt -1.2841796875 2.7529296875
vt -1.15625 2.4990234375
vt -1.2841796875 2.4931640625
vt -1.15625 1.52587890625
vt -1.15625 1.52587890625
vt -1.2841796875 1.52587890625
vt -1.15625 1.2496337890625
vt -1.2841796875 2.4931640625
vt -1.2841796875 1.52587890625
vt -1.15625 1.52587890625
vt -1.2841796875 1.52587890625
vt -1.2841796875 1.2496337890625
vt -1.15625 1.2496337890625
vt -1.4912109375 2.4853515625
vt -1.2841796875 2.4931640625
vt -1.2841796875 2.7529296875
vt -1.2841796875 2.4931640625
vt -1.4912109375 2.4853515625
vt -1.2841796875 1.52587890625
vt -1.4912109375 2.7529296875
vt -1.4912109375 2.4853515625
vt -1.2841796875 2.7529296875
vt -1.4912109375 2.4853515625
vt -1.4912109375 2.7529296875
vt -2.0859375 2.7529296875
vt -1.2841796875 1.52587890625
vt -1.4912109375 1.5263671875
vt -1.2841796875 1.2496337890625
vt -1.4912109375 2.4853515625
vt -1.4912109375 1.5263671875
vt -1.2841796875 1.52587890625
vt -1.4912109375 1.5263671875
vt -1.4912109375 1.24951171875
vt -1.2841796875 1.2496337890625
vt -2.0859375 2.4853515625
vt -1.4912109375 2.4853515625
vt -2.0859375 2.7529296875
vt -1.4912109375 1.24951171875
vt -1.4912109375 1.5263671875
vt -2.0859375 1.24951171875
vt -2.0859375 2.4853515625
vt -2.0859375 2.7529296875
vt -2.51953125 2.7529296875
vt -1.4912109375 1.5263671875
vt -2.0859375 1.5263671875
vt -2.0859375 1.24951171875
vt -2.0859375 1.24951171875
vt -2.0859375 1.5263671875
vt -2.51953125 1.24951171875
vt -2.51953125 2.4853515625
vt -2.0859375 2.4853515625
vt -2.51953125 2.7529296875
vt -2.0859375 1.5263671875
vt -2.0859375 2.4853515625
vt -2.51953125 2.4853515625
vt -2.880859375 2.4853515625
vt -2.51953125 2.4853515625
vt -2.51953125 2.7529296875
vt -2.880859375 2.7529296875
vt -2.880859375 2.4853515625
vt -2.51953125 2.7529296875
vt -2.51953125 1.5263671875
vt -2.0859375 1.5263671875
vt -2.51953125 2.4853515625
vt -2.51953125 2.4853515625
vt -2.880859375 2.4853515625
vt -2.51953125 1.5263671875
vt -2.0859375 1.5263671875
vt -2.51953125 1.5263671875
vt -2.51953125 1.24951171875
vt -2.880859375 2.4853515625
vt -2.880859375 2.7529296875
vt -3.49609375 2.7529296875
vt -2.51953125 1.5263671875
vt -2.880859375 1.5263671875
vt -2.51953125 1.24951171875
vt -2.880859375 2.4853515625
vt -2.880859375 1.5263671875
vt -2.51953125 1.5263671875
vt -2.880859375 1.5263671875
vt -2.880859375 1.24951171875
vt -2.51953125 1.24951171875
vt -3.49609375 2.4853515625
vt -2.880859375 2.4853515625
vt -3.49609375 2.7529296875
vt -2.880859375 1.24951171875
vt -2.880859375 1.5263671875
vt -3.49609375 1.24951171875
vt -3.49609375 2.4853515625
vt -3.49609375 2.7529296875
vt -3.712890625 2.7529296875
vt -2.880859375 1.5263671875
vt -3.49609375 1.5263671875
vt -3.49609375 1.24951171875
vt -3.712890625 2.4853515625
vt -3.49609375 2.4853515625
vt -3.712890625 2.7529296875
vt -3.49609375 1.5263671875
vt -3.49609375 2.4853515625
vt -3.712890625 2.4853515625
vt -3.49609375 1.24951171875
vt -3.49609375 1.5263671875
vt -3.712890625 1.24951171875
vt -3.712890625 1.5263671875
vt -3.49609375 1.5263671875
vt -3.712890625 2.4853515625
vt -3.49609375 1.5263671875
vt -3.712890625 1.5263671875
vt -3.712890625 1.24951171875
vn -0.647419273853302 0.700101375579834 0.301175057888031
vn -0.6473021507263184 0.7001537084579468 -0.3013051450252533
vn 0.3384687006473541 0.6208345890045166 0.7071091532707214
vn 0.33847710490226746 0.6208477020263672 -0.7070934772491455
vn -0.9385039806365967 0.1682497262954712 -0.3015000820159912
vn -0.3384711444377899 -0.6208338141441345 -0.7071086168289185
vn -0.9385002851486206 0.16824686527252197 0.3015134036540985
vn -0.3384784162044525 -0.6208471059799194 0.7070934772491455
vn -0.6461284160614014 0.7016525268554688 0.30033597350120544
vn -0.6461219191551208 0.7016515135765076 -0.30035242438316345
vn 0.33946773409843445 0.6190069317817688 0.7082316875457764
vn 0.33947381377220154 0.6190178990364075 -0.7082191705703735
vn -0.9396570920944214 0.16164670884609222 -0.3015208840370178
vn -0.340549498796463 -0.6209822297096252 -0.7059794664382935
vn -0.9396538734436035 0.1616443395614624 0.30153217911720276
vn -0.3405572474002838 -0.6209964752197266 0.7059631943702698
vn -0.875022292137146 0.4840816855430603 -0.000886227993760258
vn -0.8745924830436707 0.4848535656929016 -0.0022439202293753624
vn -0.8747056722640991 0.48465168476104736 -0.0016488172113895416
vn -0.8750920295715332 0.48395609855651855 -0.0005971622886136174
vn -0.8751202821731567 0.4839055836200714 4.977503067493672e-07
vn -0.8747856616973877 0.48450928926467896 -0.0007943463861010969
vn -0.8751197457313538 0.4839065372943878 2.808428405387531e-07
vn -0.8751201033592224 0.4839058816432953 5.763167223449273e-07
vn -0.8751195669174194 0.48390665650367737 4.615733359969454e-07
vn -0.8751285672187805 0.48389026522636414 -0.00042399283847771585
vn -0.8751198053359985 0.48390641808509827 2.128745677509869e-07
vn -0.875119686126709 0.4839065670967102 3.28541403860072e-07
vn -0.8763003349304199 0.4817652702331543 -4.6304691636578355e-08
vn -0.8779946565628052 0.4786703586578369 5.122866468809661e-07
vn -0.8765611052513123 0.481290727853775 -2.252425446158668e-07
vn -0.8779946565628052 0.47867047786712646 -1.0707054798331228e-06
vn -0.87671959400177 0.48100176453590393 -9.531427167530637e-07
vn -0.8767197132110596 0.4810015857219696 -1.1688150181043966e-07
vn -0.8767195343971252 0.4810018539428711 -6.523865749841207e-07
vn -0.8749127984046936 0.48428037762641907 -9.785763950276305e-07
vn -0.8767196536064148 0.48100176453590393 7.147234271087655e-08
vn -0.8799933791160583 0.4749857485294342 -4.1465131062068394e-07
vn -0.8749129772186279 0.48428019881248474 4.977656544724596e-07
vn -0.8799930214881897 0.47498655319213867 7.914101161077269e-07
vn -0.8854804635047913 0.4646766185760498 -6.154446055006701e-07
vn -0.8854802846908569 0.4646768569946289 -5.828952112096886e-07
vn -0.8854803442955017 0.4646768569946289 2.993836289988394e-07
vn -0.8854808211326599 0.4646759331226349 -2.50080717023593e-07
f 1/1/1 2/2/2 3/3/3
f 2/4/2 4/5/4 3/6/3
f 2/7/2 5/8/5 4/9/4
f 5/10/5 6/11/6 4/12/4
f 5/13/5 7/14/7 6/15/6
f 7/16/7 8/17/8 6/18/6
f 7/19/7 1/20/1 8/21/8
f 1/22/1 3/23/3 8/24/8
f 9/25/9 10/26/10 11/27/11
f 10/28/10 12/29/12 11/30/11
f 10/31/10 13/32/13 12/33/12
f 13/34/13 14/35/14 12/36/12
f 13/37/13 15/38/15 14/39/14
f 15/40/15 16/41/16 14/42/14
f 15/43/15 9/44/9 16/45/16
f 9/46/9 11/47/11 16/48/16
f 17/49/17 18/50/18 19/51/19
f 20/52/20 17/53/17 19/54/19
f 17/55/17 20/56/20 21/57/21
f 20/58/20 19/59/19 22/60/22
f 20/61/20 23/62/23 21/63/21
f 21/64/21 23/65/23 24/66/24
f 23/67/23 25/68/25 24/69/24
f 26/70/26 20/71/20 22/72/22
f 20/73/20 26/74/26 23/75/23
f 23/76/23 27/77/27 25/78/25
f 26/79/26 27/80/27 23/81/23
f 27/82/27 28/83/28 25/84/25
f 2/85/2 26/86/26 22/87/22
f 26/88/26 2/89/2 27/90/27
f 29/91/29 2/92/2 22/93/22
f 2/94/2 29/95/29 30/96/30
f 27/97/27 1/98/1 28/99/28
f 2/100/2 1/101/1 27/102/27
f 1/103/1 31/104/31 28/105/28
f 5/106/5 2/107/2 30/108/30
f 31/109/31 1/110/1 32/111/32
f 5/112/5 30/113/30 33/114/33
f 1/115/1 7/116/7 32/117/32
f 32/118/32 7/119/7 34/120/34
f 35/121/35 5/122/5 33/123/33
f 7/124/7 5/125/5 35/126/35
f 10/127/10 35/128/35 33/129/33
f 36/130/36 10/131/10 33/132/33
f 37/133/37 7/134/7 35/135/35
f 35/136/35 10/137/10 37/138/37
f 7/139/7 37/140/37 34/141/34
f 10/142/10 36/143/36 38/144/38
f 37/145/37 9/146/9 34/147/34
f 10/148/10 9/149/9 37/150/37
f 9/151/9 39/152/39 34/153/34
f 13/154/13 10/155/10 38/156/38
f 39/157/39 9/158/9 40/159/40
f 13/160/13 38/161/38 41/162/41
f 9/163/9 15/164/15 40/165/40
f 42/166/42 13/167/13 41/168/41
f 15/169/15 13/170/13 42/171/42
f 40/172/40 15/173/15 43/174/43
f 44/175/44 15/176/15 42/177/42
f 15/178/15 44/179/44 43/180/43
