# Exported by Lightwave Blender addon
v 110.29244995117188 776.8660278320312 1157.895751953125
v 110.29246520996094 776.8660278320312 1116.5572509765625
v 66.05384826660156 696.8002319335938 1157.895751953125
v 66.0538558959961 696.8002319335938 1116.5572509765625
vt 0.0013761520385742188 0.2392578125
vt 0.0013761520385742188 0.00732421875
vt 0.57177734375 0.2392578125
vt 0.0013761520385742188 0.00732421875
vt 0.57177734375 0.00732421875
vt 0.57177734375 0.2392578125
vn -0.8752799034118652 0.4836167097091675 -3.2308162190020084e-07
vn -0.8752799034118652 0.48361679911613464 -2.7943258373852586e-07
vn -0.8752799034118652 0.48361679911613464 -2.051899343769037e-07
vn -0.8752798438072205 0.48361673951148987 -1.6154081095010042e-07
f 1/1/1 2/2/2 3/3/3
f 2/4/2 4/5/4 3/6/3
