# Exported by Lightwave Blender addon
v 987.2274780273438 -506.2859191894531 726.6052856445312
v 993.1276245117188 -491.51434326171875 726.6052856445312
v 997.087158203125 -493.09661865234375 689.0603637695312
v 992.902099609375 -503.57489013671875 689.0603637695312
v 993.647705078125 -504.87396240234375 689.056396484375
v 987.971923828125 -507.5855712890625 726.6092529296875
v 992.3164672851562 -508.7940368652344 722.6333618164062
v 1008.4072875976562 -515.2225952148438 722.6334228515625
v 1012.3887329101562 -517.3404541015625 726.6092529296875
v 996.757568359375 -506.6380310058594 692.9907836914062
v 1010.1416625976562 -511.4635314941406 689.0565185546875
v 1011.5770874023438 -511.0358581542969 689.0604248046875
v 1015.7620239257812 -500.55841064453125 689.0603637695312
v 1019.723388671875 -502.1409912109375 726.6054077148438
v 1013.8237915039062 -516.9114990234375 726.6053466796875
v 1006.672607421875 -510.5992431640625 692.9907836914062
v 1005.807373046875 -510.0000915527344 693.7284545898438
v 1007.8587036132812 -514.5453491210938 721.6435546875
v 1006.1998901367188 -510.209228515625 694.1202392578125
v 997.7975463867188 -506.8000183105469 693.7283935546875
v 1005.3095703125 -508.8035888671875 694.8643798828125
v 997.3690185546875 -506.68109130859375 694.1202392578125
v 998.9828491210938 -506.2759704589844 694.8643798828125
v 998.5546264648438 -506.1568603515625 695.2562255859375
v 993.1807250976562 -508.6811828613281 721.6434936523438
v 1004.876220703125 -508.7085876464844 695.4535522460938
v 993.4899291992188 -508.8570861816406 722.0352783203125
v 994.7019653320312 -507.9975280761719 720.7472534179688
v 1007.5133666992188 -514.4596557617188 722.0352783203125
v 995.0116577148438 -508.1732177734375 721.1390991210938
v 1006.8817749023438 -512.9154663085938 721.1390991210938
v 1007.227294921875 -513.0015258789062 720.7472534179688
v 1005.701904296875 -509.0122985839844 695.2562866210938
v 1006.642822265625 -512.7020874023438 720.2496337890625
v 1006.3779296875 -512.6361083984375 720.5499877929688
v 995.5693359375 -508.31787109375 720.5499877929688
v 1005.177001953125 -508.8685607910156 695.75390625
v 995.3318481445312 -508.1831970214844 720.2496337890625
v 1000.127685546875 -512.59423828125 717.9031982421875
v 1000.3543701171875 -512.7467041015625 717.4434814453125
v 999.8583984375 -512.5484619140625 717.4434814453125
v 1001.4796752929688 -509.93438720703125 698.1199340820312
v 999.0341186523438 -506.4143981933594 695.7538452148438
v 1000.9793090820312 -509.7345275878906 698.1199340820312
v 1001.304443359375 -509.6465148925781 697.6301879882812
v 999.3623657226562 -506.5057373046875 695.4534912109375
v 998.2787475585938 -493.5726623535156 688.1429443359375
v 994.1365966796875 -503.94317626953125 688.1430053710938
v 1014.5704956054688 -500.0823059082031 688.14306640625
v 1010.4285278320312 -510.4520263671875 688.1430053710938
v 1018.7449951171875 -501.75018310546875 727.5227661132812
v 1012.796142578125 -516.6439208984375 727.522705078125
v 994.1058959960938 -491.9052429199219 727.5226440429688
v 988.1566162109375 -506.80010986328125 727.5226440429688
vt 0.20263671875 0.2802734375
vt 0.12493896484375 0.26171875
vt 0.1688232421875 0.0771484375
vt 0.2239990234375 0.08984375
vt 0.20263671875 0.2802734375
vt 0.1688232421875 0.0771484375
vt 0.20263671875 0.2802734375
vt 0.2239990234375 0.08984375
vt 0.2315673828125 0.0908203125
vt 0.2100830078125 0.28076171875
vt 0.20263671875 0.2802734375
vt 0.2315673828125 0.0908203125
vt 0.2100830078125 0.28076171875
vt 0.2315673828125 0.0908203125
vt 0.232421875 0.26123046875
vt 0.2100830078125 0.28076171875
vt 0.232421875 0.26123046875
vt 0.320068359375 0.26123046875
vt 0.34228515625 0.28076171875
vt 0.2100830078125 0.28076171875
vt 0.320068359375 0.26123046875
vt 0.2315673828125 0.0908203125
vt 0.2491455078125 0.1103515625
vt 0.232421875 0.26123046875
vt 0.2315673828125 0.0908203125
vt 0.32080078125 0.0908203125
vt 0.2491455078125 0.1103515625
vt 0.32080078125 0.0908203125
vt 0.328369140625 0.08984375
vt 0.34228515625 0.28076171875
vt 0.328369140625 0.08984375
vt 0.383544921875 0.0771484375
vt 0.427490234375 0.26171875
vt 0.349853515625 0.2802734375
vt 0.328369140625 0.08984375
vt 0.427490234375 0.26171875
vt 0.328369140625 0.08984375
vt 0.349853515625 0.2802734375
vt 0.34228515625 0.28076171875
vt 0.32080078125 0.0908203125
vt 0.34228515625 0.28076171875
vt 0.30322265625 0.1103515625
vt 0.32080078125 0.0908203125
vt 0.30322265625 0.1103515625
vt 0.2491455078125 0.1103515625
vt 0.34228515625 0.28076171875
vt 0.320068359375 0.26123046875
vt 0.30322265625 0.1103515625
vt 0.2491455078125 0.1103515625
vt 0.30322265625 0.1103515625
vt 0.298095703125 0.11376953125
vt 0.30322265625 0.1103515625
vt 0.320068359375 0.26123046875
vt 0.316650390625 0.255859375
vt 0.30322265625 0.1103515625
vt 0.30078125 0.11572265625
vt 0.298095703125 0.11376953125
vt 0.30078125 0.11572265625
vt 0.30322265625 0.1103515625
vt 0.316650390625 0.255859375
vt 0.254150390625 0.11376953125
vt 0.2491455078125 0.1103515625
vt 0.298095703125 0.11376953125
vt 0.298095703125 0.11376953125
vt 0.30078125 0.11572265625
vt 0.293212890625 0.11962890625
vt 0.2491455078125 0.1103515625
vt 0.254150390625 0.11376953125
vt 0.25146484375 0.11572265625
vt 0.232421875 0.26123046875
vt 0.2491455078125 0.1103515625
vt 0.25146484375 0.11572265625
vt 0.254150390625 0.11376953125
vt 0.298095703125 0.11376953125
vt 0.259033203125 0.11962890625
vt 0.298095703125 0.11376953125
vt 0.293212890625 0.11962890625
vt 0.259033203125 0.11962890625
vt 0.25146484375 0.11572265625
vt 0.254150390625 0.11376953125
vt 0.257080078125 0.12158203125
vt 0.254150390625 0.11376953125
vt 0.259033203125 0.11962890625
vt 0.257080078125 0.12158203125
vt 0.23583984375 0.255859375
vt 0.232421875 0.26123046875
vt 0.25146484375 0.11572265625
vt 0.259033203125 0.11962890625
vt 0.293212890625 0.11962890625
vt 0.291259765625 0.1220703125
vt 0.232421875 0.26123046875
vt 0.23583984375 0.255859375
vt 0.238037109375 0.25830078125
vt 0.320068359375 0.26123046875
vt 0.232421875 0.26123046875
vt 0.238037109375 0.25830078125
vt 0.23583984375 0.255859375
vt 0.25146484375 0.11572265625
vt 0.2425537109375 0.25048828125
vt 0.25146484375 0.11572265625
vt 0.257080078125 0.12158203125
vt 0.2425537109375 0.25048828125
vt 0.314453125 0.25830078125
vt 0.320068359375 0.26123046875
vt 0.238037109375 0.25830078125
vt 0.320068359375 0.26123046875
vt 0.314453125 0.25830078125
vt 0.316650390625 0.255859375
vt 0.238037109375 0.25830078125
vt 0.23583984375 0.255859375
vt 0.244140625 0.251953125
vt 0.23583984375 0.255859375
vt 0.2425537109375 0.25048828125
vt 0.244140625 0.251953125
vt 0.314453125 0.25830078125
vt 0.238037109375 0.25830078125
vt 0.30810546875 0.251953125
vt 0.238037109375 0.25830078125
vt 0.244140625 0.251953125
vt 0.30810546875 0.251953125
vt 0.316650390625 0.255859375
vt 0.314453125 0.25830078125
vt 0.309814453125 0.25048828125
vt 0.314453125 0.25830078125
vt 0.30810546875 0.251953125
vt 0.309814453125 0.25048828125
vt 0.316650390625 0.255859375
vt 0.309814453125 0.25048828125
vt 0.29541015625 0.12158203125
vt 0.30078125 0.11572265625
vt 0.316650390625 0.255859375
vt 0.29541015625 0.12158203125
vt 0.30078125 0.11572265625
vt 0.29541015625 0.12158203125
vt 0.293212890625 0.11962890625
vt 0.293212890625 0.11962890625
vt 0.29541015625 0.12158203125
vt 0.291259765625 0.1220703125
vt 0.309814453125 0.25048828125
vt 0.30810546875 0.251953125
vt 0.3076171875 0.248046875
vt 0.29541015625 0.12158203125
vt 0.309814453125 0.25048828125
vt 0.3076171875 0.248046875
vt 0.30810546875 0.251953125
vt 0.244140625 0.251953125
vt 0.3056640625 0.25
vt 0.30810546875 0.251953125
vt 0.3056640625 0.25
vt 0.3076171875 0.248046875
vt 0.244140625 0.251953125
vt 0.2467041015625 0.25
vt 0.3056640625 0.25
vt 0.244140625 0.251953125
vt 0.2425537109375 0.25048828125
vt 0.2467041015625 0.25
vt 0.29345703125 0.12353515625
vt 0.29541015625 0.12158203125
vt 0.3076171875 0.248046875
vt 0.29541015625 0.12158203125
vt 0.29345703125 0.12353515625
vt 0.291259765625 0.1220703125
vt 0.2425537109375 0.25048828125
vt 0.244873046875 0.248046875
vt 0.2467041015625 0.25
vt 0.2425537109375 0.25048828125
vt 0.257080078125 0.12158203125
vt 0.244873046875 0.248046875
vt 0.3056640625 0.25
vt 0.2467041015625 0.25
vt 0.276123046875 0.2353515625
vt 0.2467041015625 0.25
vt 0.244873046875 0.248046875
vt 0.276123046875 0.2353515625
vt 0.3056640625 0.25
vt 0.276123046875 0.2353515625
vt 0.27685546875 0.23486328125
vt 0.3076171875 0.248046875
vt 0.3056640625 0.25
vt 0.27685546875 0.23486328125
vt 0.244873046875 0.248046875
vt 0.275390625 0.23486328125
vt 0.276123046875 0.2353515625
vt 0.276123046875 0.2353515625
vt 0.275390625 0.23486328125
vt 0.27685546875 0.23486328125
vt 0.3076171875 0.248046875
vt 0.27685546875 0.23486328125
vt 0.277099609375 0.1376953125
vt 0.27685546875 0.23486328125
vt 0.275390625 0.23486328125
vt 0.277099609375 0.1376953125
vt 0.29345703125 0.12353515625
vt 0.3076171875 0.248046875
vt 0.277099609375 0.1376953125
vt 0.244873046875 0.248046875
vt 0.2587890625 0.12353515625
vt 0.275390625 0.23486328125
vt 0.257080078125 0.12158203125
vt 0.2587890625 0.12353515625
vt 0.244873046875 0.248046875
vt 0.275390625 0.23486328125
vt 0.275390625 0.1376953125
vt 0.277099609375 0.1376953125
vt 0.2587890625 0.12353515625
vt 0.275390625 0.1376953125
vt 0.275390625 0.23486328125
vt 0.29345703125 0.12353515625
vt 0.277099609375 0.1376953125
vt 0.276123046875 0.13623046875
vt 0.276123046875 0.13623046875
vt 0.277099609375 0.1376953125
vt 0.275390625 0.1376953125
vt 0.291259765625 0.1220703125
vt 0.29345703125 0.12353515625
vt 0.276123046875 0.13623046875
vt 0.2587890625 0.12353515625
vt 0.260986328125 0.1220703125
vt 0.275390625 0.1376953125
vt 0.260986328125 0.1220703125
vt 0.276123046875 0.13623046875
vt 0.275390625 0.1376953125
vt 0.260986328125 0.1220703125
vt 0.2587890625 0.12353515625
vt 0.257080078125 0.12158203125
vt 0.260986328125 0.1220703125
vt 0.291259765625 0.1220703125
vt 0.276123046875 0.13623046875
vt 0.259033203125 0.11962890625
vt 0.260986328125 0.1220703125
vt 0.257080078125 0.12158203125
vt 0.260986328125 0.1220703125
vt 0.259033203125 0.11962890625
vt 0.291259765625 0.1220703125
vt 0.66357421875 0.43359375
vt 0.67138671875 0.43359375
vt 0.6640625 0.4912109375
vt 0.67138671875 0.43359375
vt 0.671875 0.48974609375
vt 0.6640625 0.4912109375
vt 0.6640625 0.4912109375
vt 0.671875 0.48974609375
vt 0.6708984375 0.49658203125
vt 0.67138671875 0.43359375
vt 0.76025390625 0.43310546875
vt 0.671875 0.48974609375
vt 0.6708984375 0.49658203125
vt 0.671875 0.48974609375
vt 0.76123046875 0.49658203125
vt 0.76025390625 0.43310546875
vt 0.76025390625 0.48974609375
vt 0.671875 0.48974609375
vt 0.671875 0.48974609375
vt 0.76025390625 0.48974609375
vt 0.76123046875 0.49658203125
vt 0.76025390625 0.48974609375
vt 0.76025390625 0.43310546875
vt 0.7685546875 0.43359375
vt 0.76025390625 0.48974609375
vt 0.76806640625 0.4912109375
vt 0.76123046875 0.49658203125
vt 0.76806640625 0.4912109375
vt 0.76025390625 0.48974609375
vt 0.7685546875 0.43359375
vt 0.7060546875 0.0966796875
vt 0.71337890625 0.0966796875
vt 0.70703125 0.17724609375
vt 0.71337890625 0.0966796875
vt 0.71337890625 0.17724609375
vt 0.70703125 0.17724609375
vt 0.71337890625 0.18310546875
vt 0.70703125 0.17724609375
vt 0.71337890625 0.17724609375
vt 0.71337890625 0.17724609375
vt 0.71337890625 0.0966796875
vt 0.84716796875 0.0966796875
vt 0.71337890625 0.18310546875
vt 0.71337890625 0.17724609375
vt 0.84716796875 0.18310546875
vt 0.8466796875 0.17724609375
vt 0.71337890625 0.17724609375
vt 0.84716796875 0.0966796875
vt 0.71337890625 0.17724609375
vt 0.8466796875 0.17724609375
vt 0.84716796875 0.18310546875
vt 0.8466796875 0.17724609375
vt 0.84716796875 0.0966796875
vt 0.8544921875 0.0966796875
vt 0.84716796875 0.18310546875
vt 0.8466796875 0.17724609375
vt 0.853515625 0.17724609375
vt 0.853515625 0.17724609375
vt 0.8466796875 0.17724609375
vt 0.8544921875 0.0966796875
vn -0.9580508470535278 -0.04278966411948204 0.2833855450153351
vn -0.8656059503555298 0.345742791891098 0.3621993362903595
vn -0.8005119562149048 0.31973013281822205 -0.5069054961204529
vn -0.8798773884773254 -0.03359045460820198 -0.47401222586631775
vn -0.5720446109771729 -0.6854181289672852 -0.45051848888397217
vn -0.6253252625465393 -0.7424704432487488 0.2402205467224121
vn -0.3194182515144348 -0.9329807162284851 -0.16588839888572693
vn -0.4113834798336029 -0.8962383270263672 -0.1658933460712433
vn -0.05840405076742172 -0.9689648151397705 0.24020041525363922
vn -0.3178945481777191 -0.9462374448776245 -0.05981462076306343
vn -0.057720232754945755 -0.8909029364585876 -0.4505111873149872
vn 0.6145445704460144 -0.6305639147758484 -0.4740506112575531
vn 0.8004778623580933 -0.3197292983531952 -0.5069599151611328
vn 0.8656008243560791 -0.34573814272880554 0.3622159957885742
vn 0.6649057865142822 -0.6910920739173889 0.28335854411125183
vn -0.4216168224811554 -0.9048001170158386 -0.059798892587423325
vn -0.4767382740974426 -0.8140671849250793 0.3316854238510132
vn -0.7224807739257812 -0.6592491865158081 -0.20835557579994202
vn -0.7292258143424988 -0.6796457171440125 0.07944396138191223
vn -0.21545636653900146 -0.9184456467628479 0.3317168653011322
vn -0.45899292826652527 -0.8411834239959717 0.28589504957199097
vn 0.06033007800579071 -0.9950157403945923 0.07939799129962921
vn -0.24703264236450195 -0.92588210105896 0.28586211800575256
vn 0.015262930653989315 -0.9988304376602173 0.045878566801548004
vn 0.0695040300488472 -0.9755935668945312 -0.20829421281814575
vn -0.2757176458835602 -0.9154192209243774 -0.29323601722717285
vn -0.17688103020191193 -0.8357183933258057 -0.5198922157287598
vn 0.04183705896139145 -0.9818416833877563 -0.18503110110759735
vn -0.4476865231990814 -0.7275382876396179 -0.5198699235916138
vn -0.20774750411510468 -0.840254008769989 -0.5008134841918945
vn -0.4284186363220215 -0.7520935535430908 -0.5008120536804199
vn -0.7068547606468201 -0.682728111743927 -0.1850368231534958
vn -0.6993080973625183 -0.7133452296257019 0.04590034857392311
vn -0.23456743359565735 -0.9694919586181641 -0.07115770876407623
vn -0.2828691601753235 -0.9587334394454956 0.028552258387207985
vn -0.4543902277946472 -0.8904432058334351 0.025306016206741333
vn -0.21036037802696228 -0.954801619052887 -0.2100052833557129
vn -0.49488598108291626 -0.8658271431922913 -0.07369698584079742
vn -0.34421634674072266 -0.8563937544822693 0.38484400510787964
vn -0.17051896452903748 -0.9853417277336121 0.005004972219467163
vn -0.5610926151275635 -0.8277520537376404 0.0013110063737258315
vn -0.1137763038277626 -0.9542514085769653 -0.2765124440193176
vn -0.5062946081161499 -0.8374104499816895 -0.2059355080127716
vn -0.5866584777832031 -0.7650428414344788 -0.265595942735672
vn -0.309531033039093 -0.780938446521759 -0.5425177812576294
vn -0.43104228377342224 -0.8525482416152954 -0.29557421803474426
vn -0.28362345695495605 0.11327721923589706 -0.9522215723991394
vn -0.3632397949695587 -0.19161894917488098 -0.9117779731750488
vn 0.28356513381004333 -0.11326079070568085 -0.9522410035133362
vn 0.13121797144412994 -0.3891473412513733 -0.911781907081604
vn 0.32556459307670593 -0.1300400346517563 0.9365347027778625
vn 0.15876124799251556 -0.48033493757247925 0.8625966906547546
vn -0.32562294602394104 0.13005895912647247 0.9365118145942688
vn -0.446016401052475 -0.23874621093273163 0.862594723701477
f 1/1/1 2/2/2 3/3/3
f 4/4/4 1/5/1 3/6/3
f 1/7/1 4/8/4 5/9/5
f 6/10/6 1/11/1 5/12/5
f 6/13/6 5/14/5 7/15/7
f 6/16/6 7/17/7 8/18/8
f 9/19/9 6/20/6 8/21/8
f 5/22/5 10/23/10 7/24/7
f 5/25/5 11/26/11 10/27/10
f 11/28/11 12/29/12 9/30/9
f 12/31/12 13/32/13 14/33/14
f 15/34/15 12/35/12 14/36/14
f 12/37/12 15/38/15 9/39/9
f 11/40/11 9/41/9 16/42/16
f 11/43/11 16/44/16 10/45/10
f 9/46/9 8/47/8 16/48/16
f 10/49/10 16/50/16 17/51/17
f 16/52/16 8/53/8 18/54/18
f 16/55/16 19/56/19 17/57/17
f 19/58/19 16/59/16 18/60/18
f 20/61/20 10/62/10 17/63/17
f 17/64/17 19/65/19 21/66/21
f 10/67/10 20/68/20 22/69/22
f 7/70/7 10/71/10 22/72/22
f 20/73/20 17/74/17 23/75/23
f 17/76/17 21/77/21 23/78/23
f 22/79/22 20/80/20 24/81/24
f 20/82/20 23/83/23 24/84/24
f 25/85/25 7/86/7 22/87/22
f 23/88/23 21/89/21 26/90/26
f 7/91/7 25/92/25 27/93/27
f 8/94/8 7/95/7 27/96/27
f 25/97/25 22/98/22 28/99/28
f 22/100/22 24/101/24 28/102/28
f 29/103/29 8/104/8 27/105/27
f 8/106/8 29/107/29 18/108/18
f 27/109/27 25/110/25 30/111/30
f 25/112/25 28/113/28 30/114/30
f 29/115/29 27/116/27 31/117/31
f 27/118/27 30/119/30 31/120/31
f 18/121/18 29/122/29 32/123/32
f 29/124/29 31/125/31 32/126/32
f 18/127/18 32/128/32 33/129/33
f 19/130/19 18/131/18 33/132/33
f 19/133/19 33/134/33 21/135/21
f 21/136/21 33/137/33 26/138/26
f 32/139/32 31/140/31 34/141/34
f 33/142/33 32/143/32 34/144/34
f 31/145/31 30/146/30 35/147/35
f 31/148/31 35/149/35 34/150/34
f 30/151/30 36/152/36 35/153/35
f 30/154/30 28/155/28 36/156/36
f 37/157/37 33/158/33 34/159/34
f 33/160/33 37/161/37 26/162/26
f 28/163/28 38/164/38 36/165/36
f 28/166/28 24/167/24 38/168/38
f 35/169/35 36/170/36 39/171/39
f 36/172/36 38/173/38 39/174/39
f 35/175/35 39/176/39 40/177/40
f 34/178/34 35/179/35 40/180/40
f 38/181/38 41/182/41 39/183/39
f 39/184/39 41/185/41 40/186/40
f 34/187/34 40/188/40 42/189/42
f 40/190/40 41/191/41 42/192/42
f 37/193/37 34/194/34 42/195/42
f 38/196/38 43/197/43 41/198/41
f 24/199/24 43/200/43 38/201/38
f 41/202/41 44/203/44 42/204/42
f 43/205/43 44/206/44 41/207/41
f 37/208/37 42/209/42 45/210/45
f 45/211/45 42/212/42 44/213/44
f 26/214/26 37/215/37 45/216/45
f 43/217/43 46/218/46 44/219/44
f 46/220/46 45/221/45 44/222/44
f 46/223/46 43/224/43 24/225/24
f 46/226/46 26/227/26 45/228/45
f 23/229/23 46/230/46 24/231/24
f 46/232/46 23/233/23 26/234/26
f 3/235/3 47/236/47 4/237/4
f 47/238/47 48/239/48 4/240/4
f 4/241/4 48/242/48 5/243/5
f 47/244/47 49/245/49 48/246/48
f 5/247/5 48/248/48 11/249/11
f 49/250/49 50/251/50 48/252/48
f 48/253/48 50/254/50 11/255/11
f 50/256/50 49/257/49 13/258/13
f 50/259/50 12/260/12 11/261/11
f 12/262/12 50/263/50 13/264/13
f 14/265/14 51/266/51 15/267/15
f 51/268/51 52/269/52 15/270/15
f 9/271/9 15/272/15 52/273/52
f 52/274/52 51/275/51 53/276/53
f 9/277/9 52/278/52 6/279/6
f 54/280/54 52/281/52 53/282/53
f 52/283/52 54/284/54 6/285/6
f 54/286/54 53/287/53 2/288/2
f 6/289/6 54/290/54 1/291/1
f 1/292/1 54/293/54 2/294/2
