# Exported by Lightwave Blender addon
v 1777.5296630859375 3448.25439453125 458.0174560546875
v 1772.030517578125 3453.1689453125 458.0174560546875
v 1770.5343017578125 3450.205078125 421.55224609375
v 1774.7518310546875 3446.43603515625 421.55224609375
v 1779.8345947265625 3441.2490234375 458.0174560546875
v 1776.51953125 3441.063232421875 421.55224609375
v 1778.327880859375 3434.029541015625 458.0174560546875
v 1775.3638916015625 3435.525634765625 421.55224609375
v 1773.413330078125 3428.5302734375 458.0174560546875
v 1771.5946044921875 3431.308349609375 421.55224609375
v 1766.40771484375 3426.225341796875 458.0174560546875
v 1766.2215576171875 3429.540283203125 421.55224609375
v 1759.188232421875 3427.732177734375 458.0174560546875
v 1760.6845703125 3430.696044921875 421.55224609375
v 1753.689208984375 3432.646484375 458.0174560546875
v 1756.467041015625 3434.46533203125 421.55224609375
v 1751.38427734375 3439.652587890625 458.0174560546875
v 1754.6990966796875 3439.83837890625 421.55224609375
v 1752.890869140625 3446.8720703125 458.0174560546875
v 1755.854736328125 3445.37548828125 421.55224609375
v 1757.8055419921875 3452.37060546875 458.0174560546875
v 1759.6241455078125 3449.59326171875 421.55224609375
v 1764.8109130859375 3454.67578125 458.0174560546875
v 1764.9971923828125 3451.36083984375 421.55224609375
v 1773.8311767578125 3449.649658203125 421.55224609375
v 1771.1083984375 3451.342041015625 421.55224609375
v 1772.779052734375 3454.651123046875 458.0174560546875
v 1776.3291015625 3452.44482421875 458.0174560546875
v 1778.9185791015625 3449.16357421875 458.0174560546875
v 1775.8172607421875 3447.133544921875 421.55224609375
v 1777.3291015625 3444.306396484375 421.55224609375
v 1780.889892578125 3445.47802734375 458.0174560546875
v 1781.4923095703125 3441.342041015625 458.0174560546875
v 1777.791015625 3441.134521484375 421.55224609375
v 1777.6868896484375 3437.93017578125 421.55224609375
v 1781.3563232421875 3437.164306640625 458.0174560546875
v 1779.81005859375 3433.281005859375 458.0174560546875
v 1776.5008544921875 3434.951904296875 421.55224609375
v 1774.80859375 3432.22900390625 421.55224609375
v 1777.6036376953125 3429.73095703125 458.0174560546875
v 1774.32275390625 3427.141357421875 458.0174560546875
v 1772.2923583984375 3430.242919921875 421.55224609375
v 1769.46533203125 3428.731201171875 421.55224609375
v 1770.636962890625 3425.17041015625 458.0174560546875
v 1766.5006103515625 3424.567626953125 458.0174560546875
v 1766.2928466796875 3428.268798828125 421.55224609375
v 1763.0889892578125 3428.373046875 421.55224609375
v 1762.3232421875 3424.703369140625 458.0174560546875
v 1758.43994140625 3426.25048828125 458.0174560546875
v 1760.110595703125 3429.559326171875 421.55224609375
v 1757.3878173828125 3431.251220703125 421.55224609375
v 1754.889892578125 3428.456298828125 458.0174560546875
v 1752.300048828125 3431.7373046875 458.0174560546875
v 1755.4013671875 3433.76806640625 421.55224609375
v 1753.8895263671875 3436.5947265625 421.55224609375
v 1750.3289794921875 3435.423095703125 458.0174560546875
v 1749.7265625 3439.5595703125 458.0174560546875
v 1753.4276123046875 3439.76708984375 421.55224609375
v 1753.5318603515625 3442.970947265625 421.55224609375
v 1749.8623046875 3443.736572265625 458.0174560546875
v 1751.4088134765625 3447.6201171875 458.0174560546875
v 1754.718017578125 3445.94970703125 421.55224609375
v 1756.4100341796875 3448.672119140625 421.55224609375
v 1753.615234375 3451.17041015625 458.0174560546875
v 1756.89599609375 3453.760009765625 458.0174560546875
v 1758.926513671875 3450.65869140625 421.55224609375
v 1761.75341796875 3452.17041015625 421.55224609375
v 1760.5819091796875 3455.731201171875 458.0174560546875
v 1764.718017578125 3456.33349609375 458.0174560546875
v 1764.92578125 3452.63232421875 421.55224609375
v 1768.1298828125 3452.5283203125 421.55224609375
v 1768.895751953125 3456.19775390625 458.0174560546875
vt 0.0927734375 0.09716796875
vt 0.0162200927734375 0.09716796875
vt 0.0162200927734375 0.9044189453125
vt 0.0162200927734375 0.9044189453125
vt 0.0927734375 0.9044189453125
vt 0.0927734375 0.09716796875
vt 0.1728515625 0.09716796875
vt 0.0927734375 0.09716796875
vt 0.0927734375 0.9044189453125
vt 0.0927734375 0.9044189453125
vt 0.1728515625 0.9044189453125
vt 0.1728515625 0.09716796875
vt 0.2529296875 0.09716796875
vt 0.1728515625 0.09716796875
vt 0.1728515625 0.9044189453125
vt 0.1728515625 0.9044189453125
vt 0.2529296875 0.9044189453125
vt 0.2529296875 0.09716796875
vt 0.3330078125 0.09716796875
vt 0.2529296875 0.09716796875
vt 0.2529296875 0.9044189453125
vt 0.2529296875 0.9044189453125
vt 0.3330078125 0.9044189453125
vt 0.3330078125 0.09716796875
vt 0.4130859375 0.09716796875
vt 0.3330078125 0.09716796875
vt 0.3330078125 0.9044189453125
vt 0.3330078125 0.9044189453125
vt 0.4130859375 0.9044189453125
vt 0.4130859375 0.09716796875
vt 0.4931640625 0.09716796875
vt 0.4130859375 0.09716796875
vt 0.4130859375 0.9044189453125
vt 0.4130859375 0.9044189453125
vt 0.4931640625 0.9044189453125
vt 0.4931640625 0.09716796875
vt 0.5732421875 0.09716796875
vt 0.4931640625 0.09716796875
vt 0.4931640625 0.9044189453125
vt 0.4931640625 0.9044189453125
vt 0.5732421875 0.9044189453125
vt 0.5732421875 0.09716796875
vt 0.6533203125 0.09716796875
vt 0.5732421875 0.09716796875
vt 0.5732421875 0.9044189453125
vt 0.5732421875 0.9044189453125
vt 0.6533203125 0.9044189453125
vt 0.6533203125 0.09716796875
vt 0.7333984375 0.09716796875
vt 0.6533203125 0.09716796875
vt 0.6533203125 0.9044189453125
vt 0.6533203125 0.9044189453125
vt 0.7333984375 0.9044189453125
vt 0.7333984375 0.09716796875
vt 0.8134765625 0.09716796875
vt 0.7333984375 0.09716796875
vt 0.7333984375 0.9044189453125
vt 0.7333984375 0.9044189453125
vt 0.8134765625 0.9044189453125
vt 0.8134765625 0.09716796875
vt 0.8935546875 0.09716796875
vt 0.8134765625 0.09716796875
vt 0.8134765625 0.9044189453125
vt 0.8134765625 0.9044189453125
vt 0.8935546875 0.9044189453125
vt 0.8935546875 0.09716796875
vt 0.984375 0.09716796875
vt 0.8935546875 0.09716796875
vt 0.8935546875 0.9044189453125
vt 0.8935546875 0.9044189453125
vt 0.984375 0.9044189453125
vt 0.984375 0.09716796875
vt 0.05450439453125 0.9044189453125
vt 0.0162200927734375 0.9044189453125
vt 0.0162200927734375 0.09716796875
vt 0.0162200927734375 0.09716796875
vt 0.05450439453125 0.09716796875
vt 0.05450439453125 0.9044189453125
vt 0.05450439453125 0.9044189453125
vt 0.05450439453125 0.09716796875
vt 0.0927734375 0.09716796875
vt 0.0927734375 0.09716796875
vt 0.0927734375 0.9044189453125
vt 0.05450439453125 0.9044189453125
vt 0.1328125 0.9044189453125
vt 0.0927734375 0.9044189453125
vt 0.0927734375 0.09716796875
vt 0.0927734375 0.09716796875
vt 0.1328125 0.09716796875
vt 0.1328125 0.9044189453125
vt 0.1328125 0.9044189453125
vt 0.1328125 0.09716796875
vt 0.1728515625 0.09716796875
vt 0.1728515625 0.09716796875
vt 0.1728515625 0.9044189453125
vt 0.1328125 0.9044189453125
vt 0.212890625 0.9044189453125
vt 0.1728515625 0.9044189453125
vt 0.1728515625 0.09716796875
vt 0.1728515625 0.09716796875
vt 0.212890625 0.09716796875
vt 0.212890625 0.9044189453125
vt 0.212890625 0.9044189453125
vt 0.212890625 0.09716796875
vt 0.2529296875 0.09716796875
vt 0.2529296875 0.09716796875
vt 0.2529296875 0.9044189453125
vt 0.212890625 0.9044189453125
vt 0.29296875 0.9044189453125
vt 0.2529296875 0.9044189453125
vt 0.2529296875 0.09716796875
vt 0.2529296875 0.09716796875
vt 0.29296875 0.09716796875
vt 0.29296875 0.9044189453125
vt 0.29296875 0.9044189453125
vt 0.29296875 0.09716796875
vt 0.3330078125 0.09716796875
vt 0.3330078125 0.09716796875
vt 0.3330078125 0.9044189453125
vt 0.29296875 0.9044189453125
vt 0.373046875 0.9044189453125
vt 0.3330078125 0.9044189453125
vt 0.3330078125 0.09716796875
vt 0.3330078125 0.09716796875
vt 0.373046875 0.09716796875
vt 0.373046875 0.9044189453125
vt 0.373046875 0.9044189453125
vt 0.373046875 0.09716796875
vt 0.4130859375 0.09716796875
vt 0.4130859375 0.09716796875
vt 0.4130859375 0.9044189453125
vt 0.373046875 0.9044189453125
vt 0.453125 0.9044189453125
vt 0.4130859375 0.9044189453125
vt 0.4130859375 0.09716796875
vt 0.4130859375 0.09716796875
vt 0.453125 0.09716796875
vt 0.453125 0.9044189453125
vt 0.453125 0.9044189453125
vt 0.453125 0.09716796875
vt 0.4931640625 0.09716796875
vt 0.4931640625 0.09716796875
vt 0.4931640625 0.9044189453125
vt 0.453125 0.9044189453125
vt 0.533203125 0.9044189453125
vt 0.4931640625 0.9044189453125
vt 0.4931640625 0.09716796875
vt 0.4931640625 0.09716796875
vt 0.533203125 0.09716796875
vt 0.533203125 0.9044189453125
vt 0.533203125 0.9044189453125
vt 0.533203125 0.09716796875
vt 0.5732421875 0.09716796875
vt 0.5732421875 0.09716796875
vt 0.5732421875 0.9044189453125
vt 0.533203125 0.9044189453125
vt 0.61328125 0.9044189453125
vt 0.5732421875 0.9044189453125
vt 0.5732421875 0.09716796875
vt 0.5732421875 0.09716796875
vt 0.61328125 0.09716796875
vt 0.61328125 0.9044189453125
vt 0.61328125 0.9044189453125
vt 0.61328125 0.09716796875
vt 0.6533203125 0.09716796875
vt 0.6533203125 0.09716796875
vt 0.6533203125 0.9044189453125
vt 0.61328125 0.9044189453125
vt 0.693359375 0.9044189453125
vt 0.6533203125 0.9044189453125
vt 0.6533203125 0.09716796875
vt 0.6533203125 0.09716796875
vt 0.693359375 0.09716796875
vt 0.693359375 0.9044189453125
vt 0.693359375 0.9044189453125
vt 0.693359375 0.09716796875
vt 0.7333984375 0.09716796875
vt 0.7333984375 0.09716796875
vt 0.7333984375 0.9044189453125
vt 0.693359375 0.9044189453125
vt 0.7734375 0.9044189453125
vt 0.7333984375 0.9044189453125
vt 0.7333984375 0.09716796875
vt 0.7333984375 0.09716796875
vt 0.7734375 0.09716796875
vt 0.7734375 0.9044189453125
vt 0.7734375 0.9044189453125
vt 0.7734375 0.09716796875
vt 0.8134765625 0.09716796875
vt 0.8134765625 0.09716796875
vt 0.8134765625 0.9044189453125
vt 0.7734375 0.9044189453125
vt 0.853515625 0.9044189453125
vt 0.8134765625 0.9044189453125
vt 0.8134765625 0.09716796875
vt 0.8134765625 0.09716796875
vt 0.853515625 0.09716796875
vt 0.853515625 0.9044189453125
vt 0.853515625 0.9044189453125
vt 0.853515625 0.09716796875
vt 0.8935546875 0.09716796875
vt 0.8935546875 0.09716796875
vt 0.8935546875 0.9044189453125
vt 0.853515625 0.9044189453125
vt 0.93896484375 0.9044189453125
vt 0.8935546875 0.9044189453125
vt 0.8935546875 0.09716796875
vt 0.8935546875 0.09716796875
vt 0.93896484375 0.09716796875
vt 0.93896484375 0.9044189453125
vt 0.93896484375 0.9044189453125
vt 0.93896484375 0.09716796875
vt 0.984375 0.09716796875
vt 0.984375 0.09716796875
vt 0.984375 0.9044189453125
vt 0.93896484375 0.9044189453125
vn -0.8331984281539917 -0.545489490032196 0.09067349880933762
vn -0.44883885979652405 -0.8890005946159363 0.09067271649837494
vn -0.4488356113433838 -0.8890023231506348 0.09067218005657196
vn -0.833193838596344 -0.5454965829849243 0.09067340940237045
vn -0.9943162202835083 -0.05579376593232155 0.0906769186258316
vn -0.9943159222602844 -0.055798690766096115 0.09067685902118683
vn -0.889006495475769 0.4488265812397003 0.09067604690790176
vn -0.8889983892440796 0.4488418698310852 0.09068016707897186
vn -0.5454872250556946 0.8331992626190186 0.09067931026220322
vn -0.5454870462417603 0.8331993818283081 0.0906790941953659
vn -0.05578506737947464 0.994316577911377 0.09067834168672562
vn -0.05580124258995056 0.9943158030509949 0.09067656099796295
vn 0.44883474707603455 0.8890025615692139 0.09067413955926895
vn 0.4488488435745239 0.8889951109886169 0.09067782759666443
vn 0.8332030177116394 0.5454817414283752 0.09067746996879578
vn 0.833198070526123 0.5454898476600647 0.09067536145448685
vn 0.9943167567253113 0.05578930303454399 0.0906745046377182
vn 0.9943158626556396 0.05580586567521095 0.09067332744598389
vn 0.8889908790588379 -0.44885721802711487 0.09067662805318832
vn 0.8890019655227661 -0.4488363564014435 0.0906723290681839
vn 0.5454784631729126 -0.8332061171531677 0.09066949039697647
vn 0.5454757809638977 -0.8332075476646423 0.09067188948392868
vn 0.055801913142204285 -0.9943163394927979 0.0906696766614914
vn 0.05576140061020851 -0.9943181276321411 0.0906766727566719
vn 0.6628980040550232 0.7416942715644836 -0.10225380957126617
vn 0.4484107196331024 0.8880875706672668 -0.10113459080457687
vn 0.44838544726371765 0.8881001472473145 -0.1011369377374649
vn 0.6629125475883484 0.7416799664497375 -0.10226251929998398
vn 0.8323745727539062 0.5449073910713196 -0.10113575309515
vn 0.8323714137077332 0.5449137091636658 -0.10112760961055756
vn 0.9449324607849121 0.3108797073364258 -0.10225663334131241
vn 0.9449152946472168 0.31093069911003113 -0.10226026922464371
vn 0.9933103322982788 0.05573241040110588 -0.10113693028688431
vn 0.9933090209960938 0.05574748292565346 -0.10114016383886337
vn 0.9737797379493713 -0.2032124251127243 -0.1022629588842392
vn 0.9737787246704102 -0.20321989059448242 -0.10225792229175568
vn 0.8881129622459412 -0.44835972785949707 -0.10113809257745743
vn 0.8881086707115173 -0.44836777448654175 -0.10114050656557083
vn 0.7417042255401611 -0.6628853678703308 -0.10226299613714218
vn 0.741696834564209 -0.6628938913345337 -0.10226227343082428
vn 0.5448958277702332 -0.8323818445205688 -0.1011388823390007
vn 0.5448965430259705 -0.8323813676834106 -0.10113854706287384
vn 0.31092628836631775 -0.9449169635772705 -0.10225876420736313
vn 0.31091630458831787 -0.944920003414154 -0.10226026922464371
vn 0.055795472115278244 -0.9933063387870789 -0.10114006698131561
vn 0.055787209421396255 -0.9933071732521057 -0.10113725811243057
vn -0.20326338708400726 -0.9737697839736938 -0.1022564023733139
vn -0.20328395068645477 -0.9737646579742432 -0.1022636741399765
vn -0.4483868479728699 -0.888099730014801 -0.10113368183374405
vn -0.44835928082466125 -0.8881142735481262 -0.10112869739532471
vn -0.662864625453949 -0.7417234182357788 -0.1022588461637497
vn -0.6628384590148926 -0.7417469620704651 -0.102257639169693
vn -0.8323673009872437 -0.5449188947677612 -0.10113396495580673
vn -0.8323655724525452 -0.5449207425117493 -0.10113845020532608
vn -0.9449261426925659 -0.31089821457862854 -0.10225867480039597
vn -0.9449305534362793 -0.31088632345199585 -0.10225401073694229
vn -0.9933096766471863 -0.05574739724397659 -0.10113406926393509
vn -0.9933115839958191 -0.05571504309773445 -0.10113359242677689
vn -0.9737783074378967 0.20322272181510925 -0.1022569015622139
vn -0.9737807512283325 0.20320945978164673 -0.1022597998380661
vn -0.8881131410598755 0.44835981726646423 -0.10113624483346939
vn -0.8881099820137024 0.44836634397506714 -0.10113456100225449
vn -0.7417241930961609 0.662864089012146 -0.1022571325302124
vn -0.7417122721672058 0.6628766655921936 -0.1022617518901825
vn -0.5449199676513672 0.8323661088943481 -0.10113820433616638
vn -0.5449342131614685 0.8323571085929871 -0.10113484412431717
vn -0.3108677864074707 0.944936215877533 -0.10225871205329895
vn -0.3108835816383362 0.944930911064148 -0.10225922614336014
vn -0.055744946002960205 0.9933096170425415 -0.10113539546728134
vn -0.0557539165019989 0.9933090209960938 -0.10113725066184998
vn 0.20321650803089142 0.9737792015075684 -0.10225968807935715
vn 0.20323099195957184 0.9737764000892639 -0.10225791484117508
f 1/1/1 2/2/2 3/3/3
f 3/4/3 4/5/4 1/6/1
f 5/7/5 1/8/1 4/9/4
f 4/10/4 6/11/6 5/12/5
f 7/13/7 5/14/5 6/15/6
f 6/16/6 8/17/8 7/18/7
f 9/19/9 7/20/7 8/21/8
f 8/22/8 10/23/10 9/24/9
f 11/25/11 9/26/9 10/27/10
f 10/28/10 12/29/12 11/30/11
f 13/31/13 11/32/11 12/33/12
f 12/34/12 14/35/14 13/36/13
f 15/37/15 13/38/13 14/39/14
f 14/40/14 16/41/16 15/42/15
f 17/43/17 15/44/15 16/45/16
f 16/46/16 18/47/18 17/48/17
f 19/49/19 17/50/17 18/51/18
f 18/52/18 20/53/20 19/54/19
f 21/55/21 19/56/19 20/57/20
f 20/58/20 22/59/22 21/60/21
f 23/61/23 21/62/21 22/63/22
f 22/64/22 24/65/24 23/66/23
f 2/67/2 23/68/23 24/69/24
f 24/70/24 3/71/3 2/72/2
f 25/73/25 26/74/26 27/75/27
f 27/76/27 28/77/28 25/78/25
f 25/79/25 28/80/28 29/81/29
f 29/82/29 30/83/30 25/84/25
f 31/85/31 30/86/30 29/87/29
f 29/88/29 32/89/32 31/90/31
f 31/91/31 32/92/32 33/93/33
f 33/94/33 34/95/34 31/96/31
f 35/97/35 34/98/34 33/99/33
f 33/100/33 36/101/36 35/102/35
f 35/103/35 36/104/36 37/105/37
f 37/106/37 38/107/38 35/108/35
f 39/109/39 38/110/38 37/111/37
f 37/112/37 40/113/40 39/114/39
f 39/115/39 40/116/40 41/117/41
f 41/118/41 42/119/42 39/120/39
f 43/121/43 42/122/42 41/123/41
f 41/124/41 44/125/44 43/126/43
f 43/127/43 44/128/44 45/129/45
f 45/130/45 46/131/46 43/132/43
f 47/133/47 46/134/46 45/135/45
f 45/136/45 48/137/48 47/138/47
f 47/139/47 48/140/48 49/141/49
f 49/142/49 50/143/50 47/144/47
f 51/145/51 50/146/50 49/147/49
f 49/148/49 52/149/52 51/150/51
f 51/151/51 52/152/52 53/153/53
f 53/154/53 54/155/54 51/156/51
f 55/157/55 54/158/54 53/159/53
f 53/160/53 56/161/56 55/162/55
f 55/163/55 56/164/56 57/165/57
f 57/166/57 58/167/58 55/168/55
f 59/169/59 58/170/58 57/171/57
f 57/172/57 60/173/60 59/174/59
f 59/175/59 60/176/60 61/177/61
f 61/178/61 62/179/62 59/180/59
f 63/181/63 62/182/62 61/183/61
f 61/184/61 64/185/64 63/186/63
f 63/187/63 64/188/64 65/189/65
f 65/190/65 66/191/66 63/192/63
f 67/193/67 66/194/66 65/195/65
f 65/196/65 68/197/68 67/198/67
f 67/199/67 68/200/68 69/201/69
f 69/202/69 70/203/70 67/204/67
f 71/205/71 70/206/70 69/207/69
f 69/208/69 72/209/72 71/210/71
f 71/211/71 72/212/72 27/213/27
f 27/214/27 26/215/26 71/216/71
