# Exported by Lightwave Blender addon
v 730.4566040039062 -405.15765380859375 1047.0675048828125
v 736.356689453125 -390.3860778808594 1047.0673828125
v 740.3163452148438 -391.9682922363281 1009.5225830078125
v 736.131103515625 -402.4466247558594 1009.5225830078125
v 736.8768920898438 -403.74566650390625 1009.5186767578125
v 731.2010498046875 -406.4573059082031 1047.0714111328125
v 735.5455322265625 -407.66583251953125 1043.095703125
v 751.636474609375 -414.0943298339844 1043.0958251953125
v 755.617919921875 -416.212158203125 1047.071533203125
v 739.9866943359375 -405.5097351074219 1013.4529418945312
v 753.3707885742188 -410.33526611328125 1009.5186767578125
v 754.8062133789062 -409.9076232910156 1009.522705078125
v 758.9911499023438 -399.4301452636719 1009.5226440429688
v 762.9525146484375 -401.01275634765625 1047.0675048828125
v 757.0528564453125 -415.783203125 1047.0675048828125
v 749.9017944335938 -409.4709777832031 1013.4530029296875
v 749.0364990234375 -408.871826171875 1014.190673828125
v 751.087890625 -413.4171142578125 1042.105712890625
v 749.4290161132812 -409.0809631347656 1014.58251953125
v 741.0266723632812 -405.6717834472656 1014.1906127929688
v 748.5386352539062 -407.6753234863281 1015.3265380859375
v 740.5980834960938 -405.5528259277344 1014.5823974609375
v 742.2119750976562 -405.147705078125 1015.32666015625
v 741.7837524414062 -405.02862548828125 1015.718505859375
v 736.4097290039062 -407.5528869628906 1042.1055908203125
v 748.1052856445312 -407.580322265625 1015.915771484375
v 736.7190551757812 -407.72882080078125 1042.4974365234375
v 737.9310302734375 -406.8692626953125 1041.2093505859375
v 750.7425537109375 -413.3314208984375 1042.49755859375
v 738.2407836914062 -407.0449523925781 1041.601318359375
v 750.1109008789062 -411.7872009277344 1041.6014404296875
v 750.4564208984375 -411.873291015625 1041.20947265625
v 748.9310302734375 -407.8840637207031 1015.7184448242188
v 749.8718872070312 -411.57379150390625 1040.7117919921875
v 749.6070556640625 -411.5078430175781 1041.01220703125
v 738.7984008789062 -407.1896667480469 1041.01220703125
v 748.4060668945312 -407.74029541015625 1016.2161254882812
v 738.5609741210938 -407.054931640625 1040.711669921875
v 743.3568725585938 -411.4659423828125 1038.365478515625
v 743.5835571289062 -411.6184387207031 1037.9056396484375
v 743.0874633789062 -411.4201965332031 1037.9056396484375
v 744.7088012695312 -408.8061218261719 1018.5821533203125
v 742.2632446289062 -405.2861328125 1016.216064453125
v 744.2083740234375 -408.6062316894531 1018.5821533203125
v 744.5336303710938 -408.5182800292969 1018.0924072265625
v 742.5914916992188 -405.3774719238281 1015.9157104492188
v 741.5078735351562 -392.4444274902344 1008.605224609375
v 737.36572265625 -402.8149108886719 1008.6051635742188
v 757.7996215820312 -398.95404052734375 1008.605224609375
v 753.65771484375 -409.32379150390625 1008.6052856445312
v 761.9741821289062 -400.6218566894531 1047.9849853515625
v 756.0252685546875 -415.5156555175781 1047.9849853515625
v 737.3350219726562 -390.7770080566406 1047.98486328125
v 731.3857421875 -405.6718444824219 1047.98486328125
vt 0.20263671875 0.2802734375
vt 0.12493896484375 0.26171875
vt 0.1688232421875 0.0771484375
vt 0.2239990234375 0.08984375
vt 0.20263671875 0.2802734375
vt 0.1688232421875 0.0771484375
vt 0.20263671875 0.2802734375
vt 0.2239990234375 0.08984375
vt 0.2315673828125 0.0908203125
vt 0.2100830078125 0.28076171875
vt 0.20263671875 0.2802734375
vt 0.2315673828125 0.0908203125
vt 0.2100830078125 0.28076171875
vt 0.2315673828125 0.0908203125
vt 0.232421875 0.26123046875
vt 0.2100830078125 0.28076171875
vt 0.232421875 0.26123046875
vt 0.320068359375 0.26123046875
vt 0.34228515625 0.28076171875
vt 0.2100830078125 0.28076171875
vt 0.320068359375 0.26123046875
vt 0.2315673828125 0.0908203125
vt 0.2491455078125 0.1103515625
vt 0.232421875 0.26123046875
vt 0.2315673828125 0.0908203125
vt 0.32080078125 0.0908203125
vt 0.2491455078125 0.1103515625
vt 0.32080078125 0.0908203125
vt 0.328369140625 0.08984375
vt 0.34228515625 0.28076171875
vt 0.328369140625 0.08984375
vt 0.383544921875 0.0771484375
vt 0.427490234375 0.26171875
vt 0.349853515625 0.2802734375
vt 0.328369140625 0.08984375
vt 0.427490234375 0.26171875
vt 0.328369140625 0.08984375
vt 0.349853515625 0.2802734375
vt 0.34228515625 0.28076171875
vt 0.32080078125 0.0908203125
vt 0.34228515625 0.28076171875
vt 0.30322265625 0.1103515625
vt 0.32080078125 0.0908203125
vt 0.30322265625 0.1103515625
vt 0.2491455078125 0.1103515625
vt 0.34228515625 0.28076171875
vt 0.320068359375 0.26123046875
vt 0.30322265625 0.1103515625
vt 0.2491455078125 0.1103515625
vt 0.30322265625 0.1103515625
vt 0.298095703125 0.11376953125
vt 0.30322265625 0.1103515625
vt 0.320068359375 0.26123046875
vt 0.316650390625 0.255859375
vt 0.30322265625 0.1103515625
vt 0.30078125 0.11572265625
vt 0.298095703125 0.11376953125
vt 0.30078125 0.11572265625
vt 0.30322265625 0.1103515625
vt 0.316650390625 0.255859375
vt 0.254150390625 0.11376953125
vt 0.2491455078125 0.1103515625
vt 0.298095703125 0.11376953125
vt 0.298095703125 0.11376953125
vt 0.30078125 0.11572265625
vt 0.293212890625 0.11962890625
vt 0.2491455078125 0.1103515625
vt 0.254150390625 0.11376953125
vt 0.25146484375 0.11572265625
vt 0.232421875 0.26123046875
vt 0.2491455078125 0.1103515625
vt 0.25146484375 0.11572265625
vt 0.254150390625 0.11376953125
vt 0.298095703125 0.11376953125
vt 0.259033203125 0.11962890625
vt 0.298095703125 0.11376953125
vt 0.293212890625 0.11962890625
vt 0.259033203125 0.11962890625
vt 0.25146484375 0.11572265625
vt 0.254150390625 0.11376953125
vt 0.257080078125 0.12158203125
vt 0.254150390625 0.11376953125
vt 0.259033203125 0.11962890625
vt 0.257080078125 0.12158203125
vt 0.23583984375 0.255859375
vt 0.232421875 0.26123046875
vt 0.25146484375 0.11572265625
vt 0.259033203125 0.11962890625
vt 0.293212890625 0.11962890625
vt 0.291259765625 0.1220703125
vt 0.232421875 0.26123046875
vt 0.23583984375 0.255859375
vt 0.238037109375 0.25830078125
vt 0.320068359375 0.26123046875
vt 0.232421875 0.26123046875
vt 0.238037109375 0.25830078125
vt 0.23583984375 0.255859375
vt 0.25146484375 0.11572265625
vt 0.2425537109375 0.25048828125
vt 0.25146484375 0.11572265625
vt 0.257080078125 0.12158203125
vt 0.2425537109375 0.25048828125
vt 0.314453125 0.25830078125
vt 0.320068359375 0.26123046875
vt 0.238037109375 0.25830078125
vt 0.320068359375 0.26123046875
vt 0.314453125 0.25830078125
vt 0.316650390625 0.255859375
vt 0.238037109375 0.25830078125
vt 0.23583984375 0.255859375
vt 0.244140625 0.251953125
vt 0.23583984375 0.255859375
vt 0.2425537109375 0.25048828125
vt 0.244140625 0.251953125
vt 0.314453125 0.25830078125
vt 0.238037109375 0.25830078125
vt 0.30810546875 0.251953125
vt 0.238037109375 0.25830078125
vt 0.244140625 0.251953125
vt 0.30810546875 0.251953125
vt 0.316650390625 0.255859375
vt 0.314453125 0.25830078125
vt 0.309814453125 0.25048828125
vt 0.314453125 0.25830078125
vt 0.30810546875 0.251953125
vt 0.309814453125 0.25048828125
vt 0.316650390625 0.255859375
vt 0.309814453125 0.25048828125
vt 0.29541015625 0.12158203125
vt 0.30078125 0.11572265625
vt 0.316650390625 0.255859375
vt 0.29541015625 0.12158203125
vt 0.30078125 0.11572265625
vt 0.29541015625 0.12158203125
vt 0.293212890625 0.11962890625
vt 0.293212890625 0.11962890625
vt 0.29541015625 0.12158203125
vt 0.291259765625 0.1220703125
vt 0.309814453125 0.25048828125
vt 0.30810546875 0.251953125
vt 0.3076171875 0.248046875
vt 0.29541015625 0.12158203125
vt 0.309814453125 0.25048828125
vt 0.3076171875 0.248046875
vt 0.30810546875 0.251953125
vt 0.244140625 0.251953125
vt 0.3056640625 0.25
vt 0.30810546875 0.251953125
vt 0.3056640625 0.25
vt 0.3076171875 0.248046875
vt 0.244140625 0.251953125
vt 0.2467041015625 0.25
vt 0.3056640625 0.25
vt 0.244140625 0.251953125
vt 0.2425537109375 0.25048828125
vt 0.2467041015625 0.25
vt 0.29345703125 0.12353515625
vt 0.29541015625 0.12158203125
vt 0.3076171875 0.248046875
vt 0.29541015625 0.12158203125
vt 0.29345703125 0.12353515625
vt 0.291259765625 0.1220703125
vt 0.2425537109375 0.25048828125
vt 0.244873046875 0.248046875
vt 0.2467041015625 0.25
vt 0.2425537109375 0.25048828125
vt 0.257080078125 0.12158203125
vt 0.244873046875 0.248046875
vt 0.3056640625 0.25
vt 0.2467041015625 0.25
vt 0.276123046875 0.2353515625
vt 0.2467041015625 0.25
vt 0.244873046875 0.248046875
vt 0.276123046875 0.2353515625
vt 0.3056640625 0.25
vt 0.276123046875 0.2353515625
vt 0.27685546875 0.23486328125
vt 0.3076171875 0.248046875
vt 0.3056640625 0.25
vt 0.27685546875 0.23486328125
vt 0.244873046875 0.248046875
vt 0.275390625 0.23486328125
vt 0.276123046875 0.2353515625
vt 0.276123046875 0.2353515625
vt 0.275390625 0.23486328125
vt 0.27685546875 0.23486328125
vt 0.3076171875 0.248046875
vt 0.27685546875 0.23486328125
vt 0.277099609375 0.1376953125
vt 0.27685546875 0.23486328125
vt 0.275390625 0.23486328125
vt 0.277099609375 0.1376953125
vt 0.29345703125 0.12353515625
vt 0.3076171875 0.248046875
vt 0.277099609375 0.1376953125
vt 0.244873046875 0.248046875
vt 0.2587890625 0.12353515625
vt 0.275390625 0.23486328125
vt 0.257080078125 0.12158203125
vt 0.2587890625 0.12353515625
vt 0.244873046875 0.248046875
vt 0.275390625 0.23486328125
vt 0.275390625 0.1376953125
vt 0.277099609375 0.1376953125
vt 0.2587890625 0.12353515625
vt 0.275390625 0.1376953125
vt 0.275390625 0.23486328125
vt 0.29345703125 0.12353515625
vt 0.277099609375 0.1376953125
vt 0.276123046875 0.13623046875
vt 0.276123046875 0.13623046875
vt 0.277099609375 0.1376953125
vt 0.275390625 0.1376953125
vt 0.291259765625 0.1220703125
vt 0.29345703125 0.12353515625
vt 0.276123046875 0.13623046875
vt 0.2587890625 0.12353515625
vt 0.260986328125 0.1220703125
vt 0.275390625 0.1376953125
vt 0.260986328125 0.1220703125
vt 0.276123046875 0.13623046875
vt 0.275390625 0.1376953125
vt 0.260986328125 0.1220703125
vt 0.2587890625 0.12353515625
vt 0.257080078125 0.12158203125
vt 0.260986328125 0.1220703125
vt 0.291259765625 0.1220703125
vt 0.276123046875 0.13623046875
vt 0.259033203125 0.11962890625
vt 0.260986328125 0.1220703125
vt 0.257080078125 0.12158203125
vt 0.260986328125 0.1220703125
vt 0.259033203125 0.11962890625
vt 0.291259765625 0.1220703125
vt 0.66357421875 0.43359375
vt 0.67138671875 0.43359375
vt 0.6640625 0.4912109375
vt 0.67138671875 0.43359375
vt 0.671875 0.48974609375
vt 0.6640625 0.4912109375
vt 0.6640625 0.4912109375
vt 0.671875 0.48974609375
vt 0.6708984375 0.49658203125
vt 0.67138671875 0.43359375
vt 0.76025390625 0.43310546875
vt 0.671875 0.48974609375
vt 0.6708984375 0.49658203125
vt 0.671875 0.48974609375
vt 0.76123046875 0.49658203125
vt 0.76025390625 0.43310546875
vt 0.76025390625 0.48974609375
vt 0.671875 0.48974609375
vt 0.671875 0.48974609375
vt 0.76025390625 0.48974609375
vt 0.76123046875 0.49658203125
vt 0.76025390625 0.48974609375
vt 0.76025390625 0.43310546875
vt 0.7685546875 0.43359375
vt 0.76025390625 0.48974609375
vt 0.76806640625 0.4912109375
vt 0.76123046875 0.49658203125
vt 0.76806640625 0.4912109375
vt 0.76025390625 0.48974609375
vt 0.7685546875 0.43359375
vt 0.7060546875 0.0966796875
vt 0.71337890625 0.0966796875
vt 0.70703125 0.17724609375
vt 0.71337890625 0.0966796875
vt 0.71337890625 0.17724609375
vt 0.70703125 0.17724609375
vt 0.71337890625 0.18310546875
vt 0.70703125 0.17724609375
vt 0.71337890625 0.17724609375
vt 0.71337890625 0.17724609375
vt 0.71337890625 0.0966796875
vt 0.84716796875 0.0966796875
vt 0.71337890625 0.18310546875
vt 0.71337890625 0.17724609375
vt 0.84716796875 0.18310546875
vt 0.8466796875 0.17724609375
vt 0.71337890625 0.17724609375
vt 0.84716796875 0.0966796875
vt 0.71337890625 0.17724609375
vt 0.8466796875 0.17724609375
vt 0.84716796875 0.18310546875
vt 0.8466796875 0.17724609375
vt 0.84716796875 0.0966796875
vt 0.8544921875 0.0966796875
vt 0.84716796875 0.18310546875
vt 0.8466796875 0.17724609375
vt 0.853515625 0.17724609375
vt 0.853515625 0.17724609375
vt 0.8466796875 0.17724609375
vt 0.8544921875 0.0966796875
vn -0.9580500721931458 -0.042791739106178284 0.28338831663131714
vn -0.8656137585639954 0.3457435965538025 0.36217981576919556
vn -0.8005073666572571 0.31973785161972046 -0.5069077610969543
vn -0.8798750638961792 -0.03363883122801781 -0.4740128517150879
vn -0.572016179561615 -0.6854650378227234 -0.4504832923412323
vn -0.6253283023834229 -0.7424735426902771 0.2402031272649765
vn -0.31941986083984375 -0.9329806566238403 -0.16588574647903442
vn -0.41137075424194336 -0.8962457776069641 -0.16588422656059265
vn -0.058387503027915955 -0.968967080116272 0.24019518494606018
vn -0.3179067075252533 -0.9462324976921082 -0.05982678383588791
vn -0.05771637335419655 -0.8908910155296326 -0.45053523778915405
vn 0.6145514249801636 -0.6305654048919678 -0.47403985261917114
vn 0.8004907965660095 -0.31973665952682495 -0.5069350004196167
vn 0.8656087517738342 -0.34574413299560547 0.3621911108493805
vn 0.6649236679077148 -0.6910923719406128 0.2833157181739807
vn -0.4216139018535614 -0.9048013687133789 -0.05980191379785538
vn -0.4767441749572754 -0.8140751719474792 0.3316574990749359
vn -0.722486674785614 -0.6592559218406677 -0.20831380784511566
vn -0.7292148470878601 -0.6796589493751526 0.07943177968263626
vn -0.21548373997211456 -0.9184504151344299 0.3316861391067505
vn -0.4589826166629791 -0.8411848545074463 0.2859073579311371
vn 0.06026958301663399 -0.9950194954872131 0.07939575612545013
vn -0.24701456725597382 -0.9258940815925598 0.2858390808105469
vn 0.015265539288520813 -0.9988308548927307 0.04586726799607277
vn 0.06955406069755554 -0.9755940437316895 -0.2082751840353012
vn -0.2757234573364258 -0.9154183268547058 -0.2932334244251251
vn -0.17686745524406433 -0.8357298374176025 -0.5198782682418823
vn 0.04182533547282219 -0.9818485975265503 -0.18499687314033508
vn -0.44772154092788696 -0.7275757193565369 -0.5197874307632446
vn -0.20774222910404205 -0.8402804136276245 -0.5007713437080383
vn -0.4284580647945404 -0.7520790696144104 -0.5008001327514648
vn -0.706873893737793 -0.6827199459075928 -0.18499363958835602
vn -0.6993083357810974 -0.7133437395095825 0.04592059552669525
vn -0.23456896841526031 -0.9694917798042297 -0.07115589827299118
vn -0.2828640639781952 -0.9587355852127075 0.02853105217218399
vn -0.4544162154197693 -0.8904317021369934 0.025245102122426033
vn -0.2103695124387741 -0.9548006057739258 -0.2100013643503189
vn -0.4949241578578949 -0.8657992482185364 -0.07376755028963089
vn -0.34418144822120667 -0.8563933372497559 0.38487598299980164
vn -0.17048530280590057 -0.9853474497795105 0.005013164598494768
vn -0.561056911945343 -0.8277761340141296 0.0013537515187636018
vn -0.11377878487110138 -0.9542540907859802 -0.2765020728111267
vn -0.5062813758850098 -0.8374196887016296 -0.20593075454235077
vn -0.5866662263870239 -0.7650343179702759 -0.26560351252555847
vn -0.3095037341117859 -0.7809517979621887 -0.5425143241882324
vn -0.4310375452041626 -0.8525488972663879 -0.2955789864063263
vn -0.2836197018623352 0.11328627169132233 -0.952221691608429
vn -0.36324623227119446 -0.1916532665491104 -0.9117681980133057
vn 0.2835908532142639 -0.11327578872442245 -0.9522315263748169
vn 0.13124306499958038 -0.3891320526599884 -0.9117847681045532
vn 0.3255921006202698 -0.13004900515079498 0.9365239143371582
vn 0.15879251062870026 -0.48035022616386414 0.8625824451446533
vn -0.3256378471851349 0.1300659030675888 0.9365056753158569
vn -0.44602063298225403 -0.2387572079896927 0.862589418888092
f 1/1/1 2/2/2 3/3/3
f 4/4/4 1/5/1 3/6/3
f 1/7/1 4/8/4 5/9/5
f 6/10/6 1/11/1 5/12/5
f 6/13/6 5/14/5 7/15/7
f 6/16/6 7/17/7 8/18/8
f 9/19/9 6/20/6 8/21/8
f 5/22/5 10/23/10 7/24/7
f 5/25/5 11/26/11 10/27/10
f 11/28/11 12/29/12 9/30/9
f 12/31/12 13/32/13 14/33/14
f 15/34/15 12/35/12 14/36/14
f 12/37/12 15/38/15 9/39/9
f 11/40/11 9/41/9 16/42/16
f 11/43/11 16/44/16 10/45/10
f 9/46/9 8/47/8 16/48/16
f 10/49/10 16/50/16 17/51/17
f 16/52/16 8/53/8 18/54/18
f 16/55/16 19/56/19 17/57/17
f 19/58/19 16/59/16 18/60/18
f 20/61/20 10/62/10 17/63/17
f 17/64/17 19/65/19 21/66/21
f 10/67/10 20/68/20 22/69/22
f 7/70/7 10/71/10 22/72/22
f 20/73/20 17/74/17 23/75/23
f 17/76/17 21/77/21 23/78/23
f 22/79/22 20/80/20 24/81/24
f 20/82/20 23/83/23 24/84/24
f 25/85/25 7/86/7 22/87/22
f 23/88/23 21/89/21 26/90/26
f 7/91/7 25/92/25 27/93/27
f 8/94/8 7/95/7 27/96/27
f 25/97/25 22/98/22 28/99/28
f 22/100/22 24/101/24 28/102/28
f 29/103/29 8/104/8 27/105/27
f 8/106/8 29/107/29 18/108/18
f 27/109/27 25/110/25 30/111/30
f 25/112/25 28/113/28 30/114/30
f 29/115/29 27/116/27 31/117/31
f 27/118/27 30/119/30 31/120/31
f 18/121/18 29/122/29 32/123/32
f 29/124/29 31/125/31 32/126/32
f 18/127/18 32/128/32 33/129/33
f 19/130/19 18/131/18 33/132/33
f 19/133/19 33/134/33 21/135/21
f 21/136/21 33/137/33 26/138/26
f 32/139/32 31/140/31 34/141/34
f 33/142/33 32/143/32 34/144/34
f 31/145/31 30/146/30 35/147/35
f 31/148/31 35/149/35 34/150/34
f 30/151/30 36/152/36 35/153/35
f 30/154/30 28/155/28 36/156/36
f 37/157/37 33/158/33 34/159/34
f 33/160/33 37/161/37 26/162/26
f 28/163/28 38/164/38 36/165/36
f 28/166/28 24/167/24 38/168/38
f 35/169/35 36/170/36 39/171/39
f 36/172/36 38/173/38 39/174/39
f 35/175/35 39/176/39 40/177/40
f 34/178/34 35/179/35 40/180/40
f 38/181/38 41/182/41 39/183/39
f 39/184/39 41/185/41 40/186/40
f 34/187/34 40/188/40 42/189/42
f 40/190/40 41/191/41 42/192/42
f 37/193/37 34/194/34 42/195/42
f 38/196/38 43/197/43 41/198/41
f 24/199/24 43/200/43 38/201/38
f 41/202/41 44/203/44 42/204/42
f 43/205/43 44/206/44 41/207/41
f 37/208/37 42/209/42 45/210/45
f 45/211/45 42/212/42 44/213/44
f 26/214/26 37/215/37 45/216/45
f 43/217/43 46/218/46 44/219/44
f 46/220/46 45/221/45 44/222/44
f 46/223/46 43/224/43 24/225/24
f 46/226/46 26/227/26 45/228/45
f 23/229/23 46/230/46 24/231/24
f 46/232/46 23/233/23 26/234/26
f 3/235/3 47/236/47 4/237/4
f 47/238/47 48/239/48 4/240/4
f 4/241/4 48/242/48 5/243/5
f 47/244/47 49/245/49 48/246/48
f 5/247/5 48/248/48 11/249/11
f 49/250/49 50/251/50 48/252/48
f 48/253/48 50/254/50 11/255/11
f 50/256/50 49/257/49 13/258/13
f 50/259/50 12/260/12 11/261/11
f 12/262/12 50/263/50 13/264/13
f 14/265/14 51/266/51 15/267/15
f 51/268/51 52/269/52 15/270/15
f 9/271/9 15/272/15 52/273/52
f 52/274/52 51/275/51 53/276/53
f 9/277/9 52/278/52 6/279/6
f 54/280/54 52/281/52 53/282/53
f 52/283/52 54/284/54 6/285/6
f 54/286/54 53/287/53 2/288/2
f 6/289/6 54/290/54 1/291/1
f 1/292/1 54/293/54 2/294/2
