# Exported by Lightwave Blender addon
v 24.87921905517578 -1224.4471435546875 951.0353393554688
v 102.68866729736328 -1256.263916015625 951.0353393554688
v 104.0862045288086 -1252.8463134765625 950.4288330078125
v 26.27674102783203 -1221.0294189453125 950.4287109375
v 104.27293395996094 -1252.3895263671875 950.3477172851562
v 26.463485717773438 -1220.5726318359375 950.34765625
v 26.407791137695312 -1220.708984375 947.1714477539062
v 104.21723937988281 -1252.52587890625 947.1714477539062
v 104.03040313720703 -1252.9827880859375 947.092041015625
v 26.22093963623047 -1221.1658935546875 947.092041015625
v 102.60511016845703 -1256.4683837890625 946.4859008789062
v 24.79566192626953 -1224.6514892578125 946.4859008789062
v 104.2641830444336 -1252.4110107421875 949.8482055664062
v 26.454727172851562 -1220.5941162109375 949.8482055664062
v 104.22599792480469 -1252.50439453125 947.6708374023438
v 26.416549682617188 -1220.6875 947.6708374023438
vt 0.41015625 0.52587890625
vt -0.00998687744140625 0.52587890625
vt -0.00998687744140625 0.507568359375
vt 0.41015625 0.507568359375
vt 0.41015625 0.52587890625
vt -0.00998687744140625 0.507568359375
vt 0.41015625 0.507568359375
vt -0.00998687744140625 0.507568359375
vt -0.00998687744140625 0.505126953125
vt 0.41015625 0.505126953125
vt 0.41015625 0.507568359375
vt -0.00998687744140625 0.505126953125
vt 0.58935546875 0.505859375
vt 1.009765625 0.505859375
vt 1.009765625 0.50830078125
vt 0.58935546875 0.50830078125
vt 0.58935546875 0.505859375
vt 1.009765625 0.50830078125
vt 0.58935546875 0.50830078125
vt 1.009765625 0.50830078125
vt 1.009765625 0.527099609375
vt 0.58935546875 0.527099609375
vt 0.58935546875 0.50830078125
vt 1.009765625 0.527099609375
vt 0.58935546875 0.3798828125
vt 1.009765625 0.3798828125
vt 1.009765625 0.38232421875
vt 0.58935546875 0.38232421875
vt 0.58935546875 0.3798828125
vt 1.009765625 0.38232421875
vt 0.58935546875 0.38232421875
vt 1.009765625 0.38232421875
vt 1.009765625 0.3935546875
vt 0.58935546875 0.3935546875
vt 0.58935546875 0.38232421875
vt 1.009765625 0.3935546875
vt 0.58935546875 0.3935546875
vt 1.009765625 0.3935546875
vt 1.009765625 0.39599609375
vt 0.58935546875 0.39599609375
vt 0.58935546875 0.3935546875
vt 1.009765625 0.39599609375
vn 0.061357781291007996 0.15005655586719513 0.9867717027664185
vn 0.061348892748355865 0.1500316560268402 0.9867759346961975
vn 0.06136895343661308 0.15008237957954407 0.986767053604126
vn 0.06135096400976181 0.15003903210163116 0.9867746829986572
vn 0.29412344098091125 0.7192927002906799 0.6293722987174988
vn 0.29411378502845764 0.7192680835723877 0.6294049024581909
vn 0.28232699632644653 0.6904416680335999 -0.6660192608833313
vn 0.28232377767562866 0.6904337406158447 -0.6660289764404297
vn 0.06012960895895958 0.14704929292201996 -0.9872998595237732
vn 0.060129307210445404 0.14704856276512146 -0.987299919128418
vn 0.06014776602387428 0.14709371328353882 -0.9872920513153076
vn 0.06014786660671234 0.14709393680095673 -0.9872921109199524
vn 0.3780810832977295 0.9246119856834412 -0.046338748186826706
vn 0.37808096408843994 0.9246117472648621 -0.046343784779310226
vn 0.37808093428611755 0.9246116280555725 -0.04634726047515869
vn 0.37808099389076233 0.9246117472648621 -0.04634661227464676
f 1/1/1 2/2/2 3/3/3
f 4/4/4 1/5/1 3/6/3
f 4/7/4 3/8/3 5/9/5
f 6/10/6 4/11/4 5/12/5
f 7/13/7 8/14/8 9/15/9
f 10/16/10 7/17/7 9/18/9
f 10/19/10 9/20/9 11/21/11
f 12/22/12 10/23/10 11/24/11
f 6/25/6 5/26/5 13/27/13
f 14/28/14 6/29/6 13/30/13
f 14/31/14 13/32/13 15/33/15
f 16/34/16 14/35/14 15/36/15
f 16/37/16 15/38/15 8/39/8
f 7/40/7 16/41/16 8/42/8
