# Exported by Lightwave Blender addon
v 2456.700439453125 -1081.6287841796875 1061.9464111328125
v 2486.149169921875 -1093.490966796875 1061.9464111328125
v 2487.548095703125 -1090.0184326171875 1061.9464111328125
v 2458.099365234375 -1078.15625 1061.9464111328125
v 2487.548095703125 -1090.0184326171875 1055.9388427734375
v 2458.099365234375 -1078.15625 1055.9388427734375
v 2456.700439453125 -1081.6287841796875 1055.93896484375
v 2486.149169921875 -1093.490966796875 1055.9388427734375
v 2458.30908203125 -1078.4500732421875 893.22509765625
v 2457.04443359375 -1081.5897216796875 893.22509765625
v 2457.04443359375 -1081.5897216796875 1056.2100830078125
v 2458.30908203125 -1078.4500732421875 1056.2100830078125
v 2462.82470703125 -1080.2689208984375 1056.2100830078125
v 2462.82470703125 -1080.2689208984375 893.22509765625
v 2461.56005859375 -1083.40869140625 893.22509765625
v 2461.56005859375 -1083.40869140625 1056.2100830078125
v 2482.447021484375 -1090.75537109375 1055.8040771484375
v 2462.029296875 -1082.5308837890625 1055.8040771484375
v 2462.029296875 -1082.5308837890625 893.4175415039062
v 2482.447021484375 -1090.75537109375 893.41748046875
v 2486.192138671875 -1093.330810546875 893.22509765625
v 2487.45703125 -1090.19091796875 893.22509765625
v 2487.45703125 -1090.19091796875 1056.2100830078125
v 2486.192138671875 -1093.330810546875 1056.2100830078125
v 2481.676513671875 -1091.511962890625 1056.2100830078125
v 2481.676513671875 -1091.511962890625 893.22509765625
v 2482.94140625 -1088.3720703125 893.22509765625
v 2482.94140625 -1088.3720703125 1056.2100830078125
v 2456.700439453125 -1081.6287841796875 893.1990966796875
v 2486.149169921875 -1093.490966796875 893.1990966796875
v 2487.548095703125 -1090.0184326171875 893.1990966796875
v 2458.099365234375 -1078.15625 893.1990966796875
v 2487.548095703125 -1090.0184326171875 887.1915893554688
v 2458.099365234375 -1078.15625 887.1915893554688
v 2456.700439453125 -1081.6287841796875 887.191650390625
v 2486.149169921875 -1093.490966796875 887.1915893554688
v 2486.14697265625 -1093.489990234375 1061.9464111328125
v 2515.595703125 -1105.3521728515625 1061.9464111328125
v 2516.994384765625 -1101.879638671875 1061.9464111328125
v 2487.545654296875 -1090.017578125 1061.9464111328125
v 2516.994384765625 -1101.879638671875 1055.9388427734375
v 2487.545654296875 -1090.017578125 1055.9388427734375
v 2486.14697265625 -1093.489990234375 1055.93896484375
v 2515.595703125 -1105.3521728515625 1055.9388427734375
v 2487.755615234375 -1090.3111572265625 893.22509765625
v 2486.490966796875 -1093.4510498046875 893.22509765625
v 2486.490966796875 -1093.4510498046875 1056.2100830078125
v 2487.755615234375 -1090.3111572265625 1056.2100830078125
v 2492.271240234375 -1092.1300048828125 1056.2100830078125
v 2492.271240234375 -1092.1300048828125 893.22509765625
v 2491.006591796875 -1095.2698974609375 893.22509765625
v 2491.006591796875 -1095.2698974609375 1056.2100830078125
v 2511.96533203125 -1102.6456298828125 1055.8040771484375
v 2491.547607421875 -1094.4210205078125 1055.8040771484375
v 2491.547607421875 -1094.4210205078125 893.4175415039062
v 2511.96533203125 -1102.6456298828125 893.41748046875
v 2515.40625 -1105.098388671875 893.22509765625
v 2516.671142578125 -1101.9586181640625 893.22509765625
v 2516.671142578125 -1101.9586181640625 1056.2100830078125
v 2515.40625 -1105.098388671875 1056.2100830078125
v 2510.890625 -1103.279541015625 1056.2100830078125
v 2510.890625 -1103.279541015625 893.22509765625
v 2512.155517578125 -1100.1397705078125 893.22509765625
v 2512.155517578125 -1100.1397705078125 1056.2100830078125
v 2486.14697265625 -1093.489990234375 893.1990966796875
v 2515.595703125 -1105.3521728515625 893.1990966796875
v 2516.994384765625 -1101.879638671875 893.1990966796875
v 2487.545654296875 -1090.017578125 893.1990966796875
v 2516.994384765625 -1101.879638671875 887.1915893554688
v 2487.545654296875 -1090.017578125 887.1915893554688
v 2486.14697265625 -1093.489990234375 887.191650390625
v 2515.595703125 -1105.3521728515625 887.1915893554688
vt 0.327880859375 0.35302734375
vt 0.327880859375 0.43212890625
vt 0.318603515625 0.43212890625
vt 0.318603515625 0.43212890625
vt 0.318603515625 0.35302734375
vt 0.327880859375 0.35302734375
vt 0.3154296875 0.43212890625
vt 0.300537109375 0.43212890625
vt 0.300537109375 0.3525390625
vt 0.300537109375 0.3525390625
vt 0.3154296875 0.3525390625
vt 0.3154296875 0.43212890625
vt 0.27001953125 0.35205078125
vt 0.284912109375 0.35205078125
vt 0.284912109375 0.431640625
vt 0.284912109375 0.431640625
vt 0.27001953125 0.431640625
vt 0.27001953125 0.35205078125
vt 0.269775390625 0.34521484375
vt 0.269775390625 0.3359375
vt 0.284912109375 0.3359375
vt 0.284912109375 0.3359375
vt 0.284912109375 0.34521484375
vt 0.269775390625 0.34521484375
vt 0.2880859375 0.34521484375
vt 0.2880859375 0.3359375
vt 0.30322265625 0.3359375
vt 0.30322265625 0.3359375
vt 0.30322265625 0.34521484375
vt 0.2880859375 0.34521484375
vt 0.287841796875 0.3525390625
vt 0.29736328125 0.3525390625
vt 0.29736328125 0.43212890625
vt 0.29736328125 0.43212890625
vt 0.287841796875 0.43212890625
vt 0.287841796875 0.3525390625
vt 0.8583984375 0.9782562255859375
vt 0.8486328125 0.9782562255859375
vt 0.8486328125 0.57080078125
vt 0.8486328125 0.57080078125
vt 0.8583984375 0.57080078125
vt 0.8583984375 0.9782562255859375
vt 0.81201171875 0.5712890625
vt 0.81201171875 0.978668212890625
vt 0.7998046875 0.978668212890625
vt 0.7998046875 0.978668212890625
vt 0.7998046875 0.5712890625
vt 0.81201171875 0.5712890625
vt 0.84521484375 0.572021484375
vt 0.84521484375 0.979339599609375
vt 0.8330078125 0.979339599609375
vt 0.8330078125 0.979339599609375
vt 0.8330078125 0.572021484375
vt 0.84521484375 0.572021484375
vt 0.82763671875 0.980072021484375
vt 0.81787109375 0.980072021484375
vt 0.81787109375 0.57275390625
vt 0.81787109375 0.57275390625
vt 0.82763671875 0.57275390625
vt 0.82763671875 0.980072021484375
vt 0.377197265625 0.01123046875
vt 0.432373046875 0.01123046875
vt 0.432373046875 0.4169921875
vt 0.432373046875 0.4169921875
vt 0.377197265625 0.4169921875
vt 0.377197265625 0.01123046875
vt 0.8583984375 0.9782562255859375
vt 0.8486328125 0.9782562255859375
vt 0.8486328125 0.57080078125
vt 0.8486328125 0.57080078125
vt 0.8583984375 0.57080078125
vt 0.8583984375 0.9782562255859375
vt 0.81201171875 0.5712890625
vt 0.81201171875 0.978668212890625
vt 0.7998046875 0.978668212890625
vt 0.7998046875 0.978668212890625
vt 0.7998046875 0.5712890625
vt 0.81201171875 0.5712890625
vt 0.84521484375 0.572021484375
vt 0.84521484375 0.979339599609375
vt 0.8330078125 0.979339599609375
vt 0.8330078125 0.979339599609375
vt 0.8330078125 0.572021484375
vt 0.84521484375 0.572021484375
vt 0.82763671875 0.980072021484375
vt 0.81787109375 0.980072021484375
vt 0.81787109375 0.57275390625
vt 0.81787109375 0.57275390625
vt 0.82763671875 0.57275390625
vt 0.82763671875 0.980072021484375
vt 0.327880859375 0.35302734375
vt 0.327880859375 0.43212890625
vt 0.318603515625 0.43212890625
vt 0.318603515625 0.43212890625
vt 0.318603515625 0.35302734375
vt 0.327880859375 0.35302734375
vt 0.3154296875 0.43212890625
vt 0.300537109375 0.43212890625
vt 0.300537109375 0.3525390625
vt 0.300537109375 0.3525390625
vt 0.3154296875 0.3525390625
vt 0.3154296875 0.43212890625
vt 0.27001953125 0.35205078125
vt 0.284912109375 0.35205078125
vt 0.284912109375 0.431640625
vt 0.284912109375 0.431640625
vt 0.27001953125 0.431640625
vt 0.27001953125 0.35205078125
vt 0.269775390625 0.34521484375
vt 0.269775390625 0.3359375
vt 0.284912109375 0.3359375
vt 0.284912109375 0.3359375
vt 0.284912109375 0.34521484375
vt 0.269775390625 0.34521484375
vt 0.2880859375 0.34521484375
vt 0.2880859375 0.3359375
vt 0.30322265625 0.3359375
vt 0.30322265625 0.3359375
vt 0.30322265625 0.34521484375
vt 0.2880859375 0.34521484375
vt 0.287841796875 0.3525390625
vt 0.29736328125 0.3525390625
vt 0.29736328125 0.43212890625
vt 0.29736328125 0.43212890625
vt 0.287841796875 0.43212890625
vt 0.287841796875 0.3525390625
vt 0.327880859375 0.35302734375
vt 0.327880859375 0.43212890625
vt 0.318603515625 0.43212890625
vt 0.318603515625 0.43212890625
vt 0.318603515625 0.35302734375
vt 0.327880859375 0.35302734375
vt 0.3154296875 0.43212890625
vt 0.300537109375 0.43212890625
vt 0.300537109375 0.3525390625
vt 0.300537109375 0.3525390625
vt 0.3154296875 0.3525390625
vt 0.3154296875 0.43212890625
vt 0.27001953125 0.35205078125
vt 0.284912109375 0.35205078125
vt 0.284912109375 0.431640625
vt 0.284912109375 0.431640625
vt 0.27001953125 0.431640625
vt 0.27001953125 0.35205078125
vt 0.269775390625 0.34521484375
vt 0.269775390625 0.3359375
vt 0.284912109375 0.3359375
vt 0.284912109375 0.3359375
vt 0.284912109375 0.34521484375
vt 0.269775390625 0.34521484375
vt 0.2880859375 0.34521484375
vt 0.2880859375 0.3359375
vt 0.30322265625 0.3359375
vt 0.30322265625 0.3359375
vt 0.30322265625 0.34521484375
vt 0.2880859375 0.34521484375
vt 0.287841796875 0.3525390625
vt 0.29736328125 0.3525390625
vt 0.29736328125 0.43212890625
vt 0.29736328125 0.43212890625
vt 0.287841796875 0.43212890625
vt 0.287841796875 0.3525390625
vt 0.8583984375 0.9782562255859375
vt 0.8486328125 0.9782562255859375
vt 0.8486328125 0.57080078125
vt 0.8486328125 0.57080078125
vt 0.8583984375 0.57080078125
vt 0.8583984375 0.9782562255859375
vt 0.81201171875 0.5712890625
vt 0.81201171875 0.978668212890625
vt 0.7998046875 0.978668212890625
vt 0.7998046875 0.978668212890625
vt 0.7998046875 0.5712890625
vt 0.81201171875 0.5712890625
vt 0.84521484375 0.572021484375
vt 0.84521484375 0.979339599609375
vt 0.8330078125 0.979339599609375
vt 0.8330078125 0.979339599609375
vt 0.8330078125 0.572021484375
vt 0.84521484375 0.572021484375
vt 0.82763671875 0.980072021484375
vt 0.81787109375 0.980072021484375
vt 0.81787109375 0.57275390625
vt 0.81787109375 0.57275390625
vt 0.82763671875 0.57275390625
vt 0.82763671875 0.980072021484375
vt 0.377197265625 0.01123046875
vt 0.432373046875 0.01123046875
vt 0.432373046875 0.4169921875
vt 0.432373046875 0.4169921875
vt 0.377197265625 0.4169921875
vt 0.377197265625 0.01123046875
vt 0.8583984375 0.9782562255859375
vt 0.8486328125 0.9782562255859375
vt 0.8486328125 0.57080078125
vt 0.8486328125 0.57080078125
vt 0.8583984375 0.57080078125
vt 0.8583984375 0.9782562255859375
vt 0.81201171875 0.5712890625
vt 0.81201171875 0.978668212890625
vt 0.7998046875 0.978668212890625
vt 0.7998046875 0.978668212890625
vt 0.7998046875 0.5712890625
vt 0.81201171875 0.5712890625
vt 0.84521484375 0.572021484375
vt 0.84521484375 0.979339599609375
vt 0.8330078125 0.979339599609375
vt 0.8330078125 0.979339599609375
vt 0.8330078125 0.572021484375
vt 0.84521484375 0.572021484375
vt 0.82763671875 0.980072021484375
vt 0.81787109375 0.980072021484375
vt 0.81787109375 0.57275390625
vt 0.81787109375 0.57275390625
vt 0.82763671875 0.57275390625
vt 0.82763671875 0.980072021484375
vt 0.327880859375 0.35302734375
vt 0.327880859375 0.43212890625
vt 0.318603515625 0.43212890625
vt 0.318603515625 0.43212890625
vt 0.318603515625 0.35302734375
vt 0.327880859375 0.35302734375
vt 0.3154296875 0.43212890625
vt 0.300537109375 0.43212890625
vt 0.300537109375 0.3525390625
vt 0.300537109375 0.3525390625
vt 0.3154296875 0.3525390625
vt 0.3154296875 0.43212890625
vt 0.27001953125 0.35205078125
vt 0.284912109375 0.35205078125
vt 0.284912109375 0.431640625
vt 0.284912109375 0.431640625
vt 0.27001953125 0.431640625
vt 0.27001953125 0.35205078125
vt 0.269775390625 0.34521484375
vt 0.269775390625 0.3359375
vt 0.284912109375 0.3359375
vt 0.284912109375 0.3359375
vt 0.284912109375 0.34521484375
vt 0.269775390625 0.34521484375
vt 0.2880859375 0.34521484375
vt 0.2880859375 0.3359375
vt 0.30322265625 0.3359375
vt 0.30322265625 0.3359375
vt 0.30322265625 0.34521484375
vt 0.2880859375 0.34521484375
vt 0.287841796875 0.3525390625
vt 0.29736328125 0.3525390625
vt 0.29736328125 0.43212890625
vt 0.29736328125 0.43212890625
vt 0.287841796875 0.43212890625
vt 0.287841796875 0.3525390625
vn -0.7512618899345398 -0.3197937309741974 0.577353835105896
vn 0.31980231404304504 -0.7512593865394592 0.5773523449897766
vn 0.7512618899345398 0.3197937309741974 0.577353835105896
vn -0.31980231404304504 0.7512593865394592 0.5773523449897766
vn 0.7512596845626831 0.31980299949645996 -0.5773517489433289
vn -0.31981128454208374 0.7512452006340027 -0.5773659348487854
vn -0.7512654662132263 -0.31981009244918823 -0.5773401856422424
vn 0.3198087513446808 -0.7512531876564026 -0.5773568749427795
vn -0.39170384407043457 0.9200912714004517 0.0
vn -0.9200950264930725 -0.3916952908039093 0.0
vn -0.9200941324234009 -0.3916972577571869 0.0
vn -0.3917059004306793 0.9200904369354248 0.0
vn 0.9200868606567383 0.3917144238948822 0.0
vn 0.9200878143310547 0.39171215891838074 0.0
vn 0.39169925451278687 -0.9200932383537292 0.0
vn 0.39170143008232117 -0.9200923442840576 0.0
vn -0.37363749742507935 -0.9275748133659363 0.0
vn -0.37363746762275696 -0.9275748133659363 0.0
vn -0.37363749742507935 -0.927574872970581 0.0
vn -0.37363749742507935 -0.927574872970581 0.0
vn 0.39168664813041687 -0.9200986623764038 0.0
vn 0.9200981855392456 0.3916876018047333 0.0
vn 0.9200979471206665 0.3916885256767273 0.0
vn 0.3916875720024109 -0.9200983047485352 0.0
vn -0.9200979471206665 -0.3916885256767273 0.0
vn -0.9200981855392456 -0.3916876018047333 0.0
vn -0.39168667793273926 0.9200986623764038 0.0
vn -0.3916875720024109 0.9200983047485352 0.0
vn -0.7512618899345398 -0.31979361176490784 0.577353835105896
vn 0.31980234384536743 -0.7512593865394592 0.5773523449897766
vn 0.7512620091438293 0.3197936713695526 0.577353835105896
vn -0.31980234384536743 0.7512593865394592 0.5773523449897766
vn 0.7512601613998413 0.3198029398918152 -0.5773510932922363
vn -0.3198104798793793 0.7512494921684265 -0.5773608088493347
vn -0.7512630224227905 -0.3198064863681793 -0.5773453712463379
vn 0.31980928778648376 -0.7512534260749817 -0.5773563385009766
vn -0.7512524127960205 -0.3198111653327942 0.5773566365242004
vn 0.3198259770870209 -0.7512518167495728 0.5773491859436035
vn 0.7512496113777161 0.3198171555995941 0.5773569345474243
vn -0.3198224604129791 0.7512526512145996 0.5773500204086304
vn 0.7512474656105042 0.3198261559009552 -0.5773548483848572
vn -0.31983113288879395 0.7512385249137878 -0.5773635506629944
vn -0.751255989074707 -0.31982749700546265 -0.5773428678512573
vn 0.31983232498168945 -0.7512455582618713 -0.5773537755012512
vn -0.3917175233364105 0.9200855493545532 0.0
vn -0.9200851321220398 -0.39171838760375977 0.0
vn -0.9200848340988159 -0.39171916246414185 0.0
vn -0.3917183578014374 0.9200852513313293 0.0
vn 0.9200848340988159 0.39171916246414185 0.0
vn 0.9200851321220398 0.39171838760375977 0.0
vn 0.3917175829410553 -0.9200855493545532 0.0
vn 0.3917183578014374 -0.9200852513313293 0.0
vn -0.373642235994339 -0.9275729060173035 0.0
vn -0.3736422657966614 -0.9275729060173035 0.0
vn -0.373642235994339 -0.9275728464126587 0.0
vn -0.373642235994339 -0.9275729060173035 0.0
vn 0.39168065786361694 -0.9201011657714844 0.0
vn 0.92010098695755 0.39168137311935425 0.0
vn 0.9201006293296814 0.39168208837509155 0.0
vn 0.39168140292167664 -0.9201008677482605 0.0
vn -0.9201006293296814 -0.39168208837509155 0.0
vn -0.92010098695755 -0.39168137311935425 0.0
vn -0.39168068766593933 0.9201011657714844 0.0
vn -0.39168140292167664 0.9201008677482605 0.0
vn -0.7512525320053101 -0.31981104612350464 0.5773565769195557
vn 0.3198259472846985 -0.7512518167495728 0.5773492455482483
vn 0.7512496113777161 0.31981706619262695 0.5773569345474243
vn -0.3198224902153015 0.7512526512145996 0.5773500204086304
vn 0.7512478828430176 0.3198261559009552 -0.5773542523384094
vn -0.31983041763305664 0.7512428164482117 -0.5773583650588989
vn -0.7512535452842712 -0.31982383131980896 -0.5773480534553528
vn 0.31983280181884766 -0.7512457966804504 -0.5773531794548035
f 1/1/1 2/2/2 3/3/3
f 3/4/3 4/5/4 1/6/1
f 3/7/3 5/8/5 6/9/6
f 6/10/6 4/11/4 3/12/3
f 1/13/1 7/14/7 8/15/8
f 8/16/8 2/17/2 1/18/1
f 1/19/1 4/20/4 6/21/6
f 6/22/6 7/23/7 1/24/1
f 3/25/3 2/26/2 8/27/8
f 8/28/8 5/29/5 3/30/3
f 7/31/7 6/32/6 5/33/5
f 5/34/5 8/35/8 7/36/7
f 9/37/9 10/38/10 11/39/11
f 11/40/11 12/41/12 9/42/9
f 9/43/9 12/44/12 13/45/13
f 13/46/13 14/47/14 9/48/9
f 11/49/11 10/50/10 15/51/15
f 15/52/15 16/53/16 11/54/11
f 15/55/15 14/56/14 13/57/13
f 13/58/13 16/59/16 15/60/15
f 17/61/17 18/62/18 19/63/19
f 19/64/19 20/65/20 17/66/17
f 21/67/21 22/68/22 23/69/23
f 23/70/23 24/71/24 21/72/21
f 21/73/21 24/74/24 25/75/25
f 25/76/25 26/77/26 21/78/21
f 23/79/23 22/80/22 27/81/27
f 27/82/27 28/83/28 23/84/23
f 27/85/27 26/86/26 25/87/25
f 25/88/25 28/89/28 27/90/27
f 29/91/29 30/92/30 31/93/31
f 31/94/31 32/95/32 29/96/29
f 31/97/31 33/98/33 34/99/34
f 34/100/34 32/101/32 31/102/31
f 29/103/29 35/104/35 36/105/36
f 36/106/36 30/107/30 29/108/29
f 29/109/29 32/110/32 34/111/34
f 34/112/34 35/113/35 29/114/29
f 31/115/31 30/116/30 36/117/36
f 36/118/36 33/119/33 31/120/31
f 35/121/35 34/122/34 33/123/33
f 33/124/33 36/125/36 35/126/35
f 37/127/37 38/128/38 39/129/39
f 39/130/39 40/131/40 37/132/37
f 39/133/39 41/134/41 42/135/42
f 42/136/42 40/137/40 39/138/39
f 37/139/37 43/140/43 44/141/44
f 44/142/44 38/143/38 37/144/37
f 37/145/37 40/146/40 42/147/42
f 42/148/42 43/149/43 37/150/37
f 39/151/39 38/152/38 44/153/44
f 44/154/44 41/155/41 39/156/39
f 43/157/43 42/158/42 41/159/41
f 41/160/41 44/161/44 43/162/43
f 45/163/45 46/164/46 47/165/47
f 47/166/47 48/167/48 45/168/45
f 45/169/45 48/170/48 49/171/49
f 49/172/49 50/173/50 45/174/45
f 47/175/47 46/176/46 51/177/51
f 51/178/51 52/179/52 47/180/47
f 51/181/51 50/182/50 49/183/49
f 49/184/49 52/185/52 51/186/51
f 53/187/53 54/188/54 55/189/55
f 55/190/55 56/191/56 53/192/53
f 57/193/57 58/194/58 59/195/59
f 59/196/59 60/197/60 57/198/57
f 57/199/57 60/200/60 61/201/61
f 61/202/61 62/203/62 57/204/57
f 59/205/59 58/206/58 63/207/63
f 63/208/63 64/209/64 59/210/59
f 63/211/63 62/212/62 61/213/61
f 61/214/61 64/215/64 63/216/63
f 65/217/65 66/218/66 67/219/67
f 67/220/67 68/221/68 65/222/65
f 67/223/67 69/224/69 70/225/70
f 70/226/70 68/227/68 67/228/67
f 65/229/65 71/230/71 72/231/72
f 72/232/72 66/233/66 65/234/65
f 65/235/65 68/236/68 70/237/70
f 70/238/70 71/239/71 65/240/65
f 67/241/67 66/242/66 72/243/72
f 72/244/72 69/245/69 67/246/67
f 71/247/71 70/248/70 69/249/69
f 69/250/69 72/251/72 71/252/71
