# Exported by Lightwave Blender addon
v -156.87672424316406 324.1116943359375 257.9350891113281
v -156.34544372558594 323.82568359375 257.6068115234375
v -156.7210693359375 323.1278991699219 257.9350891113281
v -157.142333984375 323.6182861328125 258.1672058105469
v -157.09678649902344 324.23016357421875 258.7275695800781
v -156.87664794921875 322.8388671875 258.7275390625
v -157.25234985351562 323.41387939453125 258.7275695800781
v -156.7210693359375 323.12786865234375 259.52001953125
v -157.142333984375 323.6182861328125 259.2879333496094
v -156.34544372558594 323.82568359375 259.8482666015625
v -156.87672424316406 324.1116943359375 259.5200500488281
v -155.9698028564453 324.5234680175781 259.52001953125
v -156.61111450195312 324.6051025390625 259.2879333496094
v -155.81422424316406 324.8125 258.7275390625
v -156.5010986328125 324.8094787597656 258.7275695800781
v -155.9698028564453 324.52349853515625 257.9350891113281
v -156.61111450195312 324.6051025390625 258.1672058105469
v -172.52415466308594 293.77117919921875 257.93505859375
v -172.89979553222656 293.0733947753906 257.6067810058594
v -173.4310760498047 293.3594055175781 257.93505859375
v -173.1654510498047 293.852783203125 258.16717529296875
v -173.65113830566406 293.4778747558594 258.7275085449219
v -172.36856079101562 294.0602111816406 258.7275085449219
v -173.05545043945312 294.05718994140625 258.7275390625
v -172.52415466308594 293.77117919921875 259.5199890136719
v -173.1654510498047 293.852783203125 259.28790283203125
v -172.89979553222656 293.0733642578125 259.8482360839844
v -173.4310760498047 293.3594055175781 259.52001953125
v -173.27542114257812 292.3756103515625 259.5199890136719
v -173.6967010498047 292.865966796875 259.28790283203125
v -173.43099975585938 292.0865478515625 258.7275085449219
v -173.80670166015625 292.6615905761719 258.7275390625
v -173.27542114257812 292.3755798339844 257.9350280761719
v -173.6967010498047 292.865966796875 258.16717529296875
v -156.72103881835938 323.1280517578125 118.29588317871094
v -156.3454132080078 323.8258056640625 118.62413787841797
v -156.87669372558594 324.11181640625 118.29588317871094
v -157.14230346679688 323.618408203125 118.06375885009766
v -157.0967559814453 324.23028564453125 117.50340270996094
v -156.87661743164062 322.8389892578125 117.50340270996094
v -157.2523193359375 323.4140625 117.50340270996094
v -156.72103881835938 323.1280517578125 116.71092224121094
v -157.14230346679688 323.618408203125 116.94303131103516
v -156.3454132080078 323.8258056640625 116.3826675415039
v -156.87669372558594 324.11181640625 116.71092224121094
v -155.9697723388672 324.52362060546875 116.71092224121094
v -156.611083984375 324.605224609375 116.94303131103516
v -155.81419372558594 324.81268310546875 117.50340270996094
v -156.50106811523438 324.80963134765625 117.50341033935547
v -155.9697723388672 324.52362060546875 118.29588317871094
v -156.61109924316406 324.605224609375 118.06378173828125
v -173.43104553222656 293.3594970703125 118.29586029052734
v -172.89976501464844 293.07354736328125 118.62409973144531
v -172.5241241455078 293.77130126953125 118.29586029052734
v -173.16542053222656 293.85296630859375 118.06372833251953
v -173.65110778808594 293.47796630859375 117.50336456298828
v -172.36854553222656 294.06036376953125 117.50337982177734
v -173.055419921875 294.05731201171875 117.50337982177734
v -172.5241241455078 293.77130126953125 116.71088409423828
v -173.16542053222656 293.85296630859375 116.94300842285156
v -172.89976501464844 293.07354736328125 116.38262939453125
v -173.43104553222656 293.35955810546875 116.71089935302734
v -173.275390625 292.375732421875 116.71088409423828
v -173.69667053222656 292.8660888671875 116.94300842285156
v -173.43096923828125 292.08673095703125 117.50337982177734
v -173.80667114257812 292.6617431640625 117.50337982177734
v -173.275390625 292.375732421875 118.29586029052734
v -173.69667053222656 292.8660888671875 118.06372833251953
vt 0.0 0.75
vt 0.0 0.375
vt 0.125 0.375
vt 0.125 0.375
vt 0.125 0.75
vt 0.0 0.75
vt 0.0 1.0
vt 0.0 0.75
vt 0.125 0.75
vt 0.125 0.75
vt 0.125 0.375
vt 0.25 0.375
vt 0.25 0.375
vt 0.25 0.75
vt 0.125 0.75
vt 0.125 1.0
vt 0.125 0.75
vt 0.25 0.75
vt 0.25 0.75
vt 0.25 0.375
vt 0.375 0.375
vt 0.375 0.375
vt 0.375 0.75
vt 0.25 0.75
vt 0.25 1.0
vt 0.25 0.75
vt 0.375 0.75
vt 0.375 0.75
vt 0.375 0.375
vt 0.5 0.375
vt 0.5 0.375
vt 0.5 0.75
vt 0.375 0.75
vt 0.375 1.0
vt 0.375 0.75
vt 0.5 0.75
vt 0.5 0.75
vt 0.5 0.375
vt 0.625 0.375
vt 0.625 0.375
vt 0.625 0.75
vt 0.5 0.75
vt 0.5 1.0
vt 0.5 0.75
vt 0.625 0.75
vt 0.625 0.75
vt 0.625 0.375
vt 0.75 0.375
vt 0.75 0.375
vt 0.75 0.75
vt 0.625 0.75
vt 0.625 1.0
vt 0.625 0.75
vt 0.75 0.75
vt 0.75 0.75
vt 0.75 0.375
vt 0.87451171875 0.375
vt 0.87451171875 0.375
vt 0.87451171875 0.75
vt 0.75 0.75
vt 0.75 1.0
vt 0.75 0.75
vt 0.87451171875 0.75
vt 0.87451171875 0.75
vt 0.87451171875 0.375
vt 0.99951171875 0.375
vt 0.99951171875 0.375
vt 0.99951171875 0.75
vt 0.87451171875 0.75
vt 0.87451171875 1.0
vt 0.87451171875 0.75
vt 0.99951171875 0.75
vt 0.125 0.375
vt 0.0 0.375
vt 0.0 0.75
vt 0.0 0.75
vt 0.125 0.75
vt 0.125 0.375
vt 0.0 1.0
vt 0.125 0.75
vt 0.0 0.75
vt 0.25 0.375
vt 0.125 0.375
vt 0.125 0.75
vt 0.125 0.75
vt 0.25 0.75
vt 0.25 0.375
vt 0.125 1.0
vt 0.25 0.75
vt 0.125 0.75
vt 0.375 0.375
vt 0.25 0.375
vt 0.25 0.75
vt 0.25 0.75
vt 0.375 0.75
vt 0.375 0.375
vt 0.25 1.0
vt 0.375 0.75
vt 0.25 0.75
vt 0.5 0.375
vt 0.375 0.375
vt 0.375 0.75
vt 0.375 0.75
vt 0.5 0.75
vt 0.5 0.375
vt 0.375 1.0
vt 0.5 0.75
vt 0.375 0.75
vt 0.625 0.375
vt 0.5 0.375
vt 0.5 0.75
vt 0.5 0.75
vt 0.625 0.75
vt 0.625 0.375
vt 0.5 1.0
vt 0.625 0.75
vt 0.5 0.75
vt 0.75 0.375
vt 0.625 0.375
vt 0.625 0.75
vt 0.625 0.75
vt 0.75 0.75
vt 0.75 0.375
vt 0.625 1.0
vt 0.75 0.75
vt 0.625 0.75
vt 0.87451171875 0.375
vt 0.75 0.375
vt 0.75 0.75
vt 0.75 0.75
vt 0.87451171875 0.75
vt 0.87451171875 0.375
vt 0.75 1.0
vt 0.87451171875 0.75
vt 0.75 0.75
vt 0.99951171875 0.375
vt 0.87451171875 0.375
vt 0.87451171875 0.75
vt 0.87451171875 0.75
vt 0.99951171875 0.75
vt 0.99951171875 0.375
vt 0.87451171875 1.0
vt 0.99951171875 0.75
vt 0.87451171875 0.75
vt 0.125 0.375
vt 0.0 0.375
vt 0.0 0.75
vt 0.0 0.75
vt 0.125 0.75
vt 0.125 0.375
vt 0.0 1.0
vt 0.125 0.75
vt 0.0 0.75
vt 0.25 0.375
vt 0.125 0.375
vt 0.125 0.75
vt 0.125 0.75
vt 0.25 0.75
vt 0.25 0.375
vt 0.125 1.0
vt 0.25 0.75
vt 0.125 0.75
vt 0.375 0.375
vt 0.25 0.375
vt 0.25 0.75
vt 0.25 0.75
vt 0.375 0.75
vt 0.375 0.375
vt 0.25 1.0
vt 0.375 0.75
vt 0.25 0.75
vt 0.5 0.375
vt 0.375 0.375
vt 0.375 0.75
vt 0.375 0.75
vt 0.5 0.75
vt 0.5 0.375
vt 0.375 1.0
vt 0.5 0.75
vt 0.375 0.75
vt 0.625 0.375
vt 0.5 0.375
vt 0.5 0.75
vt 0.5 0.75
vt 0.625 0.75
vt 0.625 0.375
vt 0.5 1.0
vt 0.625 0.75
vt 0.5 0.75
vt 0.75 0.375
vt 0.625 0.375
vt 0.625 0.75
vt 0.625 0.75
vt 0.75 0.75
vt 0.75 0.375
vt 0.625 1.0
vt 0.75 0.75
vt 0.625 0.75
vt 0.87451171875 0.375
vt 0.75 0.375
vt 0.75 0.75
vt 0.75 0.75
vt 0.87451171875 0.75
vt 0.87451171875 0.375
vt 0.75 1.0
vt 0.87451171875 0.75
vt 0.75 0.75
vt 0.99951171875 0.375
vt 0.87451171875 0.375
vt 0.87451171875 0.75
vt 0.87451171875 0.75
vt 0.99951171875 0.75
vt 0.99951171875 0.375
vt 0.87451171875 1.0
vt 0.99951171875 0.75
vt 0.87451171875 0.75
vt 0.0 0.75
vt 0.0 0.375
vt 0.125 0.375
vt 0.125 0.375
vt 0.125 0.75
vt 0.0 0.75
vt 0.0 1.0
vt 0.0 0.75
vt 0.125 0.75
vt 0.125 0.75
vt 0.125 0.375
vt 0.25 0.375
vt 0.25 0.375
vt 0.25 0.75
vt 0.125 0.75
vt 0.125 1.0
vt 0.125 0.75
vt 0.25 0.75
vt 0.25 0.75
vt 0.25 0.375
vt 0.375 0.375
vt 0.375 0.375
vt 0.375 0.75
vt 0.25 0.75
vt 0.25 1.0
vt 0.25 0.75
vt 0.375 0.75
vt 0.375 0.75
vt 0.375 0.375
vt 0.5 0.375
vt 0.5 0.375
vt 0.5 0.75
vt 0.375 0.75
vt 0.375 1.0
vt 0.375 0.75
vt 0.5 0.75
vt 0.5 0.75
vt 0.5 0.375
vt 0.625 0.375
vt 0.625 0.375
vt 0.625 0.75
vt 0.5 0.75
vt 0.5 1.0
vt 0.5 0.75
vt 0.625 0.75
vt 0.625 0.75
vt 0.625 0.375
vt 0.75 0.375
vt 0.75 0.375
vt 0.75 0.75
vt 0.625 0.75
vt 0.625 1.0
vt 0.625 0.75
vt 0.75 0.75
vt 0.75 0.75
vt 0.75 0.375
vt 0.87451171875 0.375
vt 0.87451171875 0.375
vt 0.87451171875 0.75
vt 0.75 0.75
vt 0.75 1.0
vt 0.75 0.75
vt 0.87451171875 0.75
vt 0.87451171875 0.75
vt 0.87451171875 0.375
vt 0.99951171875 0.375
vt 0.99951171875 0.375
vt 0.99951171875 0.75
vt 0.87451171875 0.75
vt 0.87451171875 1.0
vt 0.87451171875 0.75
vt 0.99951171875 0.75
vn -0.6415733695030212 0.34536483883857727 -0.6849136352539062
vn -0.420816570520401 0.22652864456176758 -0.8784065842628479
vn -0.7152220010757446 -0.32040125131607056 -0.6211284399032593
vn -0.8711348176002502 -0.08108557760715485 -0.484302818775177
vn -0.8805249333381653 0.4739997684955597 5.267918101736768e-09
vn -0.8371512293815613 -0.5469716191291809 -3.194366581737995e-05
vn -0.9662119150161743 -0.25774896144866943 -9.353929044664255e-07
vn -0.7152096033096313 -0.32043561339378357 0.6211249232292175
vn -0.8711244463920593 -0.0810752734541893 0.48432326316833496
vn -0.42076417803764343 0.22648853063583374 0.8784420490264893
vn -0.6415466666221619 0.3453589975833893 0.6849415898323059
vn -0.12633365392684937 0.7734405994415283 0.6211516261100769
vn -0.41197746992111206 0.7718216180801392 0.4843200445175171
vn -0.004399027209728956 0.9999902844429016 1.2610496924025938e-05
vn -0.316902756690979 0.9484580159187317 8.896112376532983e-06
vn -0.12638074159622192 0.7734625339508057 -0.62111496925354
vn -0.4120083451271057 0.7718132734298706 -0.4843071699142456
vn -0.1263907551765442 0.7734535336494446 -0.6211240887641907
vn -0.4208131432533264 0.22653357684612274 -0.8784070014953613
vn -0.6415600180625916 0.3453960716724396 -0.6849103569984436
vn -0.4119834303855896 0.771822452545166 -0.48431363701820374
vn -0.880517303943634 0.47401392459869385 -1.2184756087663118e-05
vn -0.004407839849591255 0.9999902844429016 -2.9097345759510063e-05
vn -0.3169090151786804 0.9484559893608093 7.686786602789653e-07
vn -0.12635919451713562 0.7734443545341492 0.6211418509483337
vn -0.4119844436645508 0.7718029618263245 0.4843440353870392
vn -0.4207577705383301 0.22650331258773804 0.878441333770752
vn -0.6415340304374695 0.3453831076622009 0.6849412322044373
vn -0.7151809334754944 -0.32043543457984924 0.6211581230163574
vn -0.871126651763916 -0.08110443502664566 0.48431435227394104
vn -0.8371573090553284 -0.5469621419906616 3.8872934737810283e-07
vn -0.9662150144577026 -0.25773724913597107 2.5263591396651464e-06
vn -0.71523118019104 -0.3203991949558258 -0.62111896276474
vn -0.8711389899253845 -0.08108727633953094 -0.4842950105667114
vn -0.7152090072631836 -0.3204043209552765 0.621141791343689
vn -0.4207930266857147 0.22651612758636475 0.8784211277961731
vn -0.6415713429450989 0.3453500270843506 0.6849230527877808
vn -0.8711367249488831 -0.08109737187623978 0.48429739475250244
vn -0.8805279731750488 0.4739941358566284 -2.084767857013503e-06
vn -0.837170422077179 -0.5469421148300171 2.5039196316356538e-06
vn -0.9662217497825623 -0.25771185755729675 -8.127323781081941e-06
vn -0.715216875076294 -0.32042020559310913 -0.6211245656013489
vn -0.8711304664611816 -0.08110267668962479 -0.48430776596069336
vn -0.4207991063594818 0.226502925157547 -0.8784216642379761
vn -0.6415637731552124 0.34536808729171753 -0.6849209070205688
vn -0.1263928860425949 0.7734323740005493 -0.6211498975753784
vn -0.4120102822780609 0.7718034386634827 -0.4843212962150574
vn -0.004444782622158527 0.9999901652336121 -1.1924765203730203e-05
vn -0.3169303238391876 0.9484487771987915 1.5316858252845122e-06
vn -0.1263788789510727 0.7734405994415283 0.6211423873901367
vn -0.4120221734046936 0.7717911005020142 0.4843308925628662
vn -0.6415674090385437 0.34534913301467896 0.684927225112915
vn -0.42079466581344604 0.22653008997440338 0.8784167170524597
vn -0.12636204063892365 0.7734230756759644 0.6211678385734558
vn -0.4119997024536133 0.7718191146850586 0.48430517315864563
vn -0.8805297017097473 0.47399112582206726 4.414450813783333e-06
vn -0.004425283055752516 0.9999902248382568 -2.2065792109060567e-06
vn -0.3169286251068115 0.9484493732452393 -1.3880872756999452e-05
vn -0.1263522058725357 0.7734529376029968 -0.6211326122283936
vn -0.41197481751441956 0.7718409299850464 -0.48429158329963684
vn -0.42079755663871765 0.22653701901435852 -0.8784135580062866
vn -0.6415759921073914 0.3453790247440338 -0.6849039793014526
vn -0.715207576751709 -0.32041361927986145 -0.6211386322975159
vn -0.8711346387863159 -0.08110818266868591 -0.4842994213104248
vn -0.8371457457542419 -0.5469798445701599 -2.5837873636191944e-06
vn -0.9662155508995056 -0.2577355206012726 1.1125642231490929e-05
vn -0.7152137160301208 -0.3204193711280823 0.6211286187171936
vn -0.8711362481117249 -0.08109989017248154 0.4842979609966278
f 1/1/1 2/2/2 3/3/3
f 3/4/3 4/5/4 1/6/1
f 5/7/5 1/8/1 4/9/4
f 4/10/4 3/11/3 6/12/6
f 6/13/6 7/14/7 4/15/4
f 5/16/5 4/17/4 7/18/7
f 7/19/7 6/20/6 8/21/8
f 8/22/8 9/23/9 7/24/7
f 5/25/5 7/26/7 9/27/9
f 9/28/9 8/29/8 10/30/10
f 10/31/10 11/32/11 9/33/9
f 5/34/5 9/35/9 11/36/11
f 11/37/11 10/38/10 12/39/12
f 12/40/12 13/41/13 11/42/11
f 5/43/5 11/44/11 13/45/13
f 13/46/13 12/47/12 14/48/14
f 14/49/14 15/50/15 13/51/13
f 5/52/5 13/53/13 15/54/15
f 15/55/15 14/56/14 16/57/16
f 16/58/16 17/59/17 15/60/15
f 5/61/5 15/62/15 17/63/17
f 17/64/17 16/65/16 2/66/2
f 2/67/2 1/68/1 17/69/17
f 5/70/5 17/71/17 1/72/1
f 18/73/18 19/74/19 20/75/20
f 20/76/20 21/77/21 18/78/18
f 22/79/22 21/80/21 20/81/20
f 23/82/23 18/83/18 21/84/21
f 21/85/21 24/86/24 23/87/23
f 22/88/22 24/89/24 21/90/21
f 25/91/25 23/92/23 24/93/24
f 24/94/24 26/95/26 25/96/25
f 22/97/22 26/98/26 24/99/24
f 27/100/27 25/101/25 26/102/26
f 26/103/26 28/104/28 27/105/27
f 22/106/22 28/107/28 26/108/26
f 29/109/29 27/110/27 28/111/28
f 28/112/28 30/113/30 29/114/29
f 22/115/22 30/116/30 28/117/28
f 31/118/31 29/119/29 30/120/30
f 30/121/30 32/122/32 31/123/31
f 22/124/22 32/125/32 30/126/30
f 33/127/33 31/128/31 32/129/32
f 32/130/32 34/131/34 33/132/33
f 22/133/22 34/134/34 32/135/32
f 19/136/19 33/137/33 34/138/34
f 34/139/34 20/140/20 19/141/19
f 22/142/22 20/143/20 34/144/34
f 35/145/35 36/146/36 37/147/37
f 37/148/37 38/149/38 35/150/35
f 39/151/39 38/152/38 37/153/37
f 40/154/40 35/155/35 38/156/38
f 38/157/38 41/158/41 40/159/40
f 39/160/39 41/161/41 38/162/38
f 42/163/42 40/164/40 41/165/41
f 41/166/41 43/167/43 42/168/42
f 39/169/39 43/170/43 41/171/41
f 44/172/44 42/173/42 43/174/43
f 43/175/43 45/176/45 44/177/44
f 39/178/39 45/179/45 43/180/43
f 46/181/46 44/182/44 45/183/45
f 45/184/45 47/185/47 46/186/46
f 39/187/39 47/188/47 45/189/45
f 48/190/48 46/191/46 47/192/47
f 47/193/47 49/194/49 48/195/48
f 39/196/39 49/197/49 47/198/47
f 50/199/50 48/200/48 49/201/49
f 49/202/49 51/203/51 50/204/50
f 39/205/39 51/206/51 49/207/49
f 36/208/36 50/209/50 51/210/51
f 51/211/51 37/212/37 36/213/36
f 39/214/39 37/215/37 51/216/51
f 52/217/52 53/218/53 54/219/54
f 54/220/54 55/221/55 52/222/52
f 56/223/56 52/224/52 55/225/55
f 55/226/55 54/227/54 57/228/57
f 57/229/57 58/230/58 55/231/55
f 56/232/56 55/233/55 58/234/58
f 58/235/58 57/236/57 59/237/59
f 59/238/59 60/239/60 58/240/58
f 56/241/56 58/242/58 60/243/60
f 60/244/60 59/245/59 61/246/61
f 61/247/61 62/248/62 60/249/60
f 56/250/56 60/251/60 62/252/62
f 62/253/62 61/254/61 63/255/63
f 63/256/63 64/257/64 62/258/62
f 56/259/56 62/260/62 64/261/64
f 64/262/64 63/263/63 65/264/65
f 65/265/65 66/266/66 64/267/64
f 56/268/56 64/269/64 66/270/66
f 66/271/66 65/272/65 67/273/67
f 67/274/67 68/275/68 66/276/66
f 56/277/56 66/278/66 68/279/68
f 68/280/68 67/281/67 53/282/53
f 53/283/53 52/284/52 68/285/68
f 56/286/56 68/287/68 52/288/52
