# Exported by Lightwave Blender addon
v 1858.41015625 4072.74951171875 1045.6776123046875
v 1858.41015625 4072.74951171875 962.5140991210938
v 1970.507080078125 3929.27197265625 1045.6776123046875
v 1970.50732421875 3929.27197265625 962.5140991210938
v 1843.636474609375 3605.242919921875 1045.6776123046875
v 1843.636474609375 3605.242919921875 962.5140991210938
v 1760.975830078125 3443.012451171875 1045.677490234375
v 1760.975830078125 3443.012451171875 962.5140991210938
v 1974.4400634765625 3861.960205078125 1045.6776123046875
v 1974.4400634765625 3861.960205078125 962.5140991210938
v 1888.399169921875 3693.09521484375 1045.6776123046875
v 1888.399169921875 3693.09521484375 962.5140991210938
vt 0.0020961761474609375 0.989898681640625
vt 0.0020961761474609375 0.747314453125
vt 0.57861328125 0.989898681640625
vt 0.0020961761474609375 0.747314453125
vt 0.57861328125 0.747314453125
vt 0.57861328125 0.989898681640625
vt 0.0020961761474609375 0.989898681640625
vt 0.0020961761474609375 0.747314453125
vt 0.57861328125 0.989898681640625
vt 0.0020961761474609375 0.747314453125
vt 0.57861328125 0.747314453125
vt 0.57861328125 0.989898681640625
vt 0.0020961761474609375 0.989898681640625
vt 0.0020961761474609375 0.747314453125
vt 0.57861328125 0.989898681640625
vt 0.0020961761474609375 0.747314453125
vt 0.57861328125 0.747314453125
vt 0.57861328125 0.989898681640625
vn -0.788010835647583 -0.6156614422798157 0.0
vn -0.7880106568336487 -0.61566162109375 -6.309838340712304e-07
vn -0.78801029920578 -0.6156619787216187 -1.6823543091959436e-06
vn -0.7880101799964905 -0.6156622767448425 -2.313337745363242e-06
vn -0.8910062909126282 0.4539909064769745 0.0
vn -0.8910062909126282 0.4539909064769745 0.0
vn -0.8910062909126282 0.4539908766746521 0.0
vn -0.891006350517273 0.4539909064769745 0.0
vn -0.8910067677497864 0.45398998260498047 0.0
vn -0.8910068273544312 0.45399004220962524 0.0
vn -0.8910068273544312 0.45399004220962524 0.0
vn -0.8910067677497864 0.45398998260498047 0.0
f 1/1/1 2/2/2 3/3/3
f 2/4/2 4/5/4 3/6/3
f 5/7/5 6/8/6 7/9/7
f 6/10/6 8/11/8 7/12/7
f 9/13/9 10/14/10 11/15/11
f 10/16/10 12/17/12 11/18/11
