# Exported by Lightwave Blender addon
v -367.5560302734375 -1876.6923828125 853.8178100585938
v -367.55596923828125 -1876.6923828125 1014.1498413085938
v -352.7501525878906 -1882.58056640625 853.8158569335938
v -352.7501220703125 -1882.5806884765625 1014.150634765625
v -389.49908447265625 -1893.857177734375 853.8179321289062
v -389.499267578125 -1893.857666015625 1014.1497192382812
v -385.6083679199219 -1884.34228515625 853.8179321289062
v -385.6084899902344 -1884.3426513671875 1014.1497802734375
v -388.9544372558594 -1895.16748046875 853.8178100585938
v -362.41534423828125 -1906.2227783203125 853.8158569335938
v -388.9546203613281 -1895.1678466796875 1014.1497802734375
v -362.41546630859375 -1906.22314453125 1014.150634765625
v -369.3716735839844 -1876.7855224609375 853.8176879882812
v -376.2903747558594 -1880.3985595703125 853.8158569335938
v -369.3716125488281 -1876.7855224609375 1014.1498413085938
v -376.2904052734375 -1880.39892578125 1014.150634765625
v -384.2825622558594 -1883.09716796875 1014.1498413085938
v -384.2824401855469 -1883.0968017578125 853.8176879882812
v -336.372802734375 -1800.4324951171875 853.8178100585938
v -321.68310546875 -1806.6048583984375 853.8158569335938
v -336.3727722167969 -1800.4324951171875 1014.1498413085938
v -321.6830749511719 -1806.60498046875 1014.150634765625
v -340.0023498535156 -1772.81103515625 853.8179321289062
v -343.8930358886719 -1782.325439453125 853.8179321289062
v -340.00213623046875 -1772.8104248046875 1014.1497192382812
v -343.892822265625 -1782.3253173828125 1014.1497802734375
v -338.6957702636719 -1772.2576904296875 853.8178100585938
v -338.6955871582031 -1772.257080078125 1014.1497802734375
v -312.0141906738281 -1782.9644775390625 853.8158569335938
v -312.0139465332031 -1782.964111328125 1014.150634765625
v -337.6028137207031 -1799.093505859375 853.8176879882812
v -337.6028137207031 -1799.093505859375 1014.1498413085938
v -340.00787353515625 -1791.6680908203125 853.8158569335938
v -340.00775146484375 -1791.6680908203125 1014.150634765625
v -343.8194580078125 -1784.14306640625 1014.1498413085938
v -343.8196105957031 -1784.1434326171875 853.8176879882812
v -375.3993225097656 -1880.8525390625 852.8155517578125
v -384.3081970214844 -1883.8048095703125 852.817626953125
v -375.39935302734375 -1880.8526611328125 1015.1507568359375
v -368.4287414550781 -1877.42138671875 1015.1500854492188
v -384.308349609375 -1883.804931640625 1015.14990234375
v -362.0367431640625 -1905.2978515625 1015.1508178710938
v -388.57611083984375 -1894.2421875 1015.1499633789062
v -368.4288024902344 -1877.4215087890625 852.8171997070312
v -388.575927734375 -1894.2418212890625 852.8174438476562
v -362.0365905761719 -1905.2972412109375 852.8153076171875
v -312.3924255371094 -1783.8902587890625 852.8153076171875
v -339.07427978515625 -1773.183349609375 852.8174438476562
v -339.0740661621094 -1773.1829833984375 1015.1499633789062
v -312.3921813964844 -1783.889892578125 1015.1508178710938
v -339.0541076660156 -1791.96875 852.8155517578125
v -336.4846496582031 -1799.3006591796875 852.8171997070312
v -336.484619140625 -1799.300537109375 1015.1500854492188
v -339.0539855957031 -1791.968505859375 1015.1507568359375
v -343.3418884277344 -1783.6199951171875 1015.14990234375
v -343.3420715332031 -1783.620361328125 852.817626953125
v -357.805908203125 -1894.9595947265625 1015.1532592773438
v -356.06939697265625 -1890.6982421875 1015.1532592773438
v -353.12860107421875 -1883.50634765625 1015.1509399414062
v -353.1286315917969 -1883.5062255859375 852.8151245117188
v -356.0693359375 -1890.6978759765625 852.8096313476562
v -357.8056945800781 -1894.958740234375 852.8096313476562
v -321.3045959472656 -1805.679443359375 1015.1509399414062
v -318.3638000488281 -1798.4874267578125 1015.1532592773438
v -316.6170349121094 -1794.230224609375 1015.1532592773438
v -316.6173095703125 -1794.23095703125 852.8096313476562
v -318.3639221191406 -1798.4876708984375 852.8096313476562
v -321.30462646484375 -1805.6793212890625 852.8151245117188
vt 0.50341796875 -0.5869140625
vt 0.50341796875 0.21484375
vt 0.423828125 -0.5869140625
vt 0.50341796875 0.21484375
vt 0.423828125 0.21484375
vt 0.423828125 -0.5869140625
vt 0.50927734375 -0.5869140625
vt 0.50927734375 0.21484375
vt 0.458251953125 -0.5869140625
vt 0.50927734375 0.21484375
vt 0.458251953125 0.21484375
vt 0.458251953125 -0.5869140625
vt 0.43212890625 -0.5869140625
vt 0.57568359375 -0.5869140625
vt 0.43212890625 0.21484375
vt 0.57568359375 -0.5869140625
vt 0.57568359375 0.21484375
vt 0.43212890625 0.21484375
vt 0.392578125 -0.5869140625
vt 0.42236328125 -0.5869140625
vt 0.392578125 0.21484375
vt 0.42236328125 -0.5869140625
vt 0.42236328125 0.21484375
vt 0.392578125 0.21484375
vt 0.56884765625 0.21484375
vt 0.537109375 0.21484375
vt 0.56884765625 -0.5869140625
vt 0.537109375 0.21484375
vt 0.537109375 -0.5869140625
vt 0.56884765625 -0.5869140625
vt 0.49609375 -0.5869140625
vt 0.57568359375 -0.5869140625
vt 0.49609375 0.21484375
vt 0.57568359375 -0.5869140625
vt 0.57568359375 0.21484375
vt 0.49609375 0.21484375
vt -0.14404296875 -0.5869140625
vt -0.09271240234375 -0.5869140625
vt -0.14404296875 0.21484375
vt -0.09271240234375 -0.5869140625
vt -0.09271240234375 0.21484375
vt -0.14404296875 0.21484375
vt 0.5673828125 -0.5869140625
vt 0.5673828125 0.21484375
vt 0.423828125 -0.5869140625
vt 0.5673828125 0.21484375
vt 0.423828125 0.21484375
vt 0.423828125 -0.5869140625
vt -0.0270233154296875 -0.5869140625
vt -0.0270233154296875 0.21484375
vt -0.05682373046875 -0.5869140625
vt -0.0270233154296875 0.21484375
vt -0.05682373046875 0.21484375
vt -0.05682373046875 -0.5869140625
vt 0.430908203125 0.21484375
vt 0.430908203125 -0.5869140625
vt 0.462646484375 0.21484375
vt 0.430908203125 -0.5869140625
vt 0.462646484375 -0.5869140625
vt 0.462646484375 0.21484375
vt 0.537109375 -0.5869140625
vt 0.53173828125 -0.591796875
vt 0.56884765625 -0.5869140625
vt 0.53173828125 -0.591796875
vt 0.5673828125 -0.591796875
vt 0.56884765625 -0.5869140625
vt 0.42236328125 0.462890625
vt 0.4228515625 0.46826171875
vt 0.392578125 0.48828125
vt 0.4228515625 0.46826171875
vt 0.393798828125 0.49365234375
vt 0.392578125 0.48828125
vt 0.56884765625 0.21484375
vt 0.5673828125 0.2197265625
vt 0.537109375 0.21484375
vt 0.5673828125 0.2197265625
vt 0.53173828125 0.2197265625
vt 0.537109375 0.21484375
vt 0.57568359375 0.21484375
vt 0.57568359375 0.2197265625
vt 0.43212890625 0.21484375
vt 0.57568359375 0.2197265625
vt 0.43212890625 0.2197265625
vt 0.43212890625 0.21484375
vt 0.60693359375 0.48828125
vt 0.60595703125 0.49365234375
vt 0.5771484375 0.462890625
vt 0.60595703125 0.49365234375
vt 0.57666015625 0.46826171875
vt 0.5771484375 0.462890625
vt 0.43212890625 -0.5869140625
vt 0.43212890625 -0.591796875
vt 0.57568359375 -0.5869140625
vt 0.43212890625 -0.591796875
vt 0.57568359375 -0.591796875
vt 0.57568359375 -0.5869140625
vt 0.423828125 -0.5869140625
vt 0.423828125 -0.591796875
vt 0.5673828125 -0.5869140625
vt 0.423828125 -0.591796875
vt 0.5673828125 -0.591796875
vt 0.5673828125 -0.5869140625
vt 0.5673828125 0.21484375
vt 0.5673828125 0.2197265625
vt 0.423828125 0.21484375
vt 0.5673828125 0.2197265625
vt 0.423828125 0.2197265625
vt 0.423828125 0.21484375
vt 1.056640625 0.462890625
vt 1.056640625 0.46826171875
vt 1.0263671875 0.48828125
vt 1.056640625 0.46826171875
vt 1.02734375 0.49365234375
vt 1.0263671875 0.48828125
vt -0.0270233154296875 0.48828125
vt -0.0281829833984375 0.49365234375
vt -0.05682373046875 0.462890625
vt -0.0281829833984375 0.49365234375
vt -0.0572509765625 0.46826171875
vt -0.05682373046875 0.462890625
vt 0.462646484375 0.21484375
vt 0.4677734375 0.2197265625
vt 0.430908203125 0.21484375
vt 0.4677734375 0.2197265625
vt 0.43212890625 0.2197265625
vt 0.430908203125 0.21484375
vt 0.430908203125 -0.5869140625
vt 0.43212890625 -0.591796875
vt 0.462646484375 -0.5869140625
vt 0.43212890625 -0.591796875
vt 0.4677734375 -0.591796875
vt 0.462646484375 -0.5869140625
vt 0.509765625 0.4326171875
vt 0.51025390625 0.576171875
vt 0.454833984375 0.576171875
vt 0.453369140625 0.4326171875
vt 0.509765625 0.4326171875
vt 0.454833984375 0.576171875
vt 0.453369140625 0.4326171875
vt 0.454833984375 0.576171875
vt 0.431640625 0.576171875
vt 0.4228515625 0.46826171875
vt 0.453369140625 0.4326171875
vt 0.431640625 0.576171875
vt 0.4228515625 0.46826171875
vt 0.431640625 0.576171875
vt 0.392822265625 0.576171875
vt 0.393798828125 0.49365234375
vt 0.4228515625 0.46826171875
vt 0.392822265625 0.576171875
vt 0.60595703125 0.49365234375
vt 0.60693359375 0.576171875
vt 0.57666015625 0.46826171875
vt 0.60693359375 0.576171875
vt 0.56787109375 0.576171875
vt 0.57666015625 0.46826171875
vt 0.57666015625 0.46826171875
vt 0.56787109375 0.576171875
vt 0.54638671875 0.4326171875
vt 0.56787109375 0.576171875
vt 0.544921875 0.576171875
vt 0.54638671875 0.4326171875
vt 0.54638671875 0.4326171875
vt 0.544921875 0.576171875
vt 0.489990234375 0.4326171875
vt 0.544921875 0.576171875
vt 0.4892578125 0.576171875
vt 0.489990234375 0.4326171875
vt -0.0281829833984375 0.49365234375
vt -0.0273895263671875 0.576171875
vt -0.0572509765625 0.46826171875
vt -0.0273895263671875 0.576171875
vt -0.06622314453125 0.576171875
vt -0.0572509765625 0.46826171875
vt -0.0572509765625 0.46826171875
vt -0.06622314453125 0.576171875
vt -0.0877685546875 0.4326171875
vt -0.06622314453125 0.576171875
vt -0.0892333984375 0.576171875
vt -0.0877685546875 0.4326171875
vt -0.0877685546875 0.4326171875
vt -0.0892333984375 0.576171875
vt -0.14404296875 0.4326171875
vt -0.0892333984375 0.576171875
vt -0.14501953125 0.576171875
vt -0.14404296875 0.4326171875
vt 1.1435546875 0.4326171875
vt 1.14453125 0.576171875
vt 1.0888671875 0.576171875
vt 1.0869140625 0.4326171875
vt 1.1435546875 0.4326171875
vt 1.0888671875 0.576171875
vt 1.0869140625 0.4326171875
vt 1.0888671875 0.576171875
vt 1.0654296875 0.576171875
vt 1.056640625 0.46826171875
vt 1.0869140625 0.4326171875
vt 1.0654296875 0.576171875
vt 1.056640625 0.46826171875
vt 1.0654296875 0.576171875
vt 1.02734375 0.576171875
vt 1.02734375 0.49365234375
vt 1.056640625 0.46826171875
vt 1.02734375 0.576171875
vt 0.50634765625 0.2197265625
vt 0.423828125 0.2197265625
vt 0.423828125 0.21484375
vt 0.50341796875 0.21484375
vt 0.50634765625 0.2197265625
vt 0.423828125 0.21484375
vt 0.51171875 0.21484375
vt 0.50634765625 0.2197265625
vt 0.50341796875 0.21484375
vt 0.51171875 -0.5869140625
vt 0.51171875 0.21484375
vt 0.50341796875 0.21484375
vt 0.50341796875 -0.5869140625
vt 0.51171875 -0.5869140625
vt 0.50341796875 0.21484375
vt 0.50634765625 -0.591796875
vt 0.51171875 -0.5869140625
vt 0.50341796875 -0.5869140625
vt 0.423828125 -0.591796875
vt 0.50634765625 -0.591796875
vt 0.50341796875 -0.5869140625
vt 0.423828125 -0.5869140625
vt 0.423828125 -0.591796875
vt 0.50341796875 -0.5869140625
vt 0.493408203125 -0.591796875
vt 0.57568359375 -0.591796875
vt 0.57568359375 -0.5869140625
vt 0.49609375 -0.5869140625
vt 0.493408203125 -0.591796875
vt 0.57568359375 -0.5869140625
vt 0.488037109375 -0.5869140625
vt 0.493408203125 -0.591796875
vt 0.49609375 -0.5869140625
vt 0.488037109375 0.21484375
vt 0.488037109375 -0.5869140625
vt 0.49609375 -0.5869140625
vt 0.49609375 0.21484375
vt 0.488037109375 0.21484375
vt 0.49609375 -0.5869140625
vt 0.493408203125 0.2197265625
vt 0.488037109375 0.21484375
vt 0.49609375 0.21484375
vt 0.57568359375 0.2197265625
vt 0.493408203125 0.2197265625
vt 0.49609375 0.21484375
vt 0.57568359375 0.21484375
vt 0.57568359375 0.2197265625
vt 0.49609375 0.21484375
vt 0.50927734375 -0.5869140625
vt 0.509765625 -0.591796875
vt 0.5146484375 -0.5869140625
vt 0.453369140625 -0.591796875
vt 0.509765625 -0.591796875
vt 0.50927734375 -0.5869140625
vt 0.50927734375 -0.5869140625
vt 0.5146484375 -0.5869140625
vt 0.50927734375 0.21484375
vt 0.458251953125 -0.5869140625
vt 0.453369140625 -0.591796875
vt 0.50927734375 -0.5869140625
vt 0.5146484375 -0.5869140625
vt 0.5146484375 0.21484375
vt 0.50927734375 0.21484375
vt 0.458251953125 -0.5869140625
vt 0.449951171875 -0.5869140625
vt 0.453369140625 -0.591796875
vt 0.5146484375 0.21484375
vt 0.509765625 0.2197265625
vt 0.50927734375 0.21484375
vt 0.449951171875 0.21484375
vt 0.449951171875 -0.5869140625
vt 0.458251953125 -0.5869140625
vt 0.50927734375 0.21484375
vt 0.509765625 0.2197265625
vt 0.458251953125 0.21484375
vt 0.458251953125 0.21484375
vt 0.449951171875 0.21484375
vt 0.458251953125 -0.5869140625
vt 0.509765625 0.2197265625
vt 0.453369140625 0.2197265625
vt 0.458251953125 0.21484375
vt 0.453369140625 0.2197265625
vt 0.449951171875 0.21484375
vt 0.458251953125 0.21484375
vt -0.09271240234375 0.21484375
vt -0.08441162109375 0.21484375
vt -0.0877685546875 0.2197265625
vt -0.08441162109375 -0.5869140625
vt -0.08441162109375 0.21484375
vt -0.09271240234375 0.21484375
vt -0.09271240234375 0.21484375
vt -0.0877685546875 0.2197265625
vt -0.14404296875 0.21484375
vt -0.09271240234375 -0.5869140625
vt -0.08441162109375 -0.5869140625
vt -0.09271240234375 0.21484375
vt -0.0877685546875 0.2197265625
vt -0.14404296875 0.2197265625
vt -0.14404296875 0.21484375
vt -0.09271240234375 -0.5869140625
vt -0.0877685546875 -0.591796875
vt -0.08441162109375 -0.5869140625
vt -0.14404296875 0.2197265625
vt -0.1490478515625 0.21484375
vt -0.14404296875 0.21484375
vt -0.14404296875 -0.591796875
vt -0.0877685546875 -0.591796875
vt -0.09271240234375 -0.5869140625
vt -0.14404296875 0.21484375
vt -0.1490478515625 0.21484375
vt -0.14404296875 -0.5869140625
vt -0.14404296875 -0.5869140625
vt -0.14404296875 -0.591796875
vt -0.09271240234375 -0.5869140625
vt -0.1490478515625 0.21484375
vt -0.1490478515625 -0.5869140625
vt -0.14404296875 -0.5869140625
vt -0.1490478515625 -0.5869140625
vt -0.14404296875 -0.591796875
vt -0.14404296875 -0.5869140625
vn 0.17600087821483612 0.9221903085708618 -0.34436720609664917
vn 0.1760152280330658 0.9221602082252502 0.3444404602050781
vn 0.34151747822761536 0.8588739633560181 -0.3817084729671478
vn 0.34153711795806885 0.8588272333145142 0.38179609179496765
vn -0.9398068189620972 0.016983117908239365 -0.3412838280200958
vn -0.9397923350334167 0.016957001760601997 0.341325044631958
vn -0.7953342795372009 0.5042745471000671 -0.3363784849643707
vn -0.7953312993049622 0.5042687058448792 0.33639439940452576
vn -0.6508585810661316 -0.6781560182571411 -0.3413026034832001
vn -0.35539376735687256 -0.8530759215354919 -0.3820427656173706
vn -0.6508303284645081 -0.6781616806983948 0.34134548902511597
vn -0.35537439584732056 -0.8530759811401367 0.38206082582473755
vn -0.2695207893848419 0.8993041515350342 -0.34439903497695923
vn -0.359126478433609 0.8757180571556091 -0.3227168023586273
vn -0.2656477391719818 0.9022915959358215 0.3395603895187378
vn -0.3609252870082855 0.8759798407554626 0.31998780369758606
vn -0.48165327310562134 0.8366019129753113 0.26097381114959717
vn -0.4804885983467102 0.8369150757789612 -0.2621139883995056
vn -0.5206279754638672 -0.7812517881393433 -0.3443721830844879
vn -0.358097642660141 -0.8521029353141785 -0.3816891610622406
vn -0.520598292350769 -0.7812209129333496 0.3444868326187134
vn -0.3580589294433594 -0.8520837426185608 0.3817684054374695
vn -0.6824668645858765 0.6463596820831299 -0.34125977754592896
vn -0.9207900166511536 0.19746707379817963 -0.33638158440589905
vn -0.682443380355835 0.646340548992157 0.34134283661842346
vn -0.9207794666290283 0.19746601581573486 0.33641067147254944
vn 0.010740721598267555 0.9398927092552185 -0.34130093455314636
vn 0.01074296422302723 0.939860999584198 0.34138813614845276
vn 0.34414049983024597 0.8576751947402954 -0.3820476830005646
vn 0.3441457152366638 0.8576396107673645 0.3821229338645935
vn -0.8217871189117432 -0.4576350450515747 -0.3394645154476166
vn -0.822452962398529 -0.45269039273262024 0.34444528818130493
vn -0.8712776899337769 -0.37213683128356934 -0.3199835419654846
vn -0.8698163032531738 -0.3732007145881653 0.32270872592926025
vn -0.9292243123054504 -0.260495126247406 0.2620771825313568
vn -0.9298347234725952 -0.2594216763973236 -0.26097431778907776
vn -0.17005416750907898 0.39058488607406616 -0.9047237634658813
vn -0.3466409742832184 0.4250229001045227 -0.8361791968345642
vn -0.1723465621471405 0.38336896896362305 0.9073725342750549
vn -0.0209612175822258 0.48435866832733154 0.8746184706687927
vn -0.3473614454269409 0.4241650700569153 0.8363157510757446
vn -0.1477542221546173 -0.35462456941604614 0.923260509967804
vn -0.4467187225818634 -0.18567222356796265 0.875196099281311
vn -0.024361900985240936 0.48462191224098206 -0.874384343624115
vn -0.44681262969970703 -0.18568721413612366 -0.8751450181007385
vn -0.14785484969615936 -0.3547578752040863 -0.9231931567192078
vn 0.1430685967206955 0.356708288192749 -0.9231958985328674
vn -0.18871758878231049 0.44555896520614624 -0.8751358985900879
vn -0.18864911794662476 0.4454222321510315 0.8752202987670898
vn 0.14302432537078857 0.35649383068084717 0.9232855439186096
vn -0.391671746969223 -0.1528163105249405 -0.9073259830474854
vn -0.3544597625732422 -0.331015408039093 -0.8745210766792297
vn -0.3568704128265381 -0.32853391766548157 0.8744764924049377
vn -0.3949195444583893 -0.15950560569763184 0.9047631621360779
vn -0.5450934767723083 -0.060446012765169144 0.8361933827400208
vn -0.5450946092605591 -0.05921747162938118 -0.8362805843353271
vn -0.0001091820013243705 -4.5388194848783314e-05 0.9999999403953552
vn -4.33723944297526e-05 0.00016999607032630593 1.0
vn 0.1421760469675064 0.35766369104385376 0.9229640960693359
vn 0.14219099283218384 0.3579515814781189 -0.9228501319885254
vn -0.000103495352959726 0.00040231726597994566 -0.9999999403953552
vn -0.00025930910487659276 -0.00010281750292051584 -1.0
vn -0.14916884899139404 -0.3548373281955719 0.922951340675354
vn -0.00015005560999270529 -9.090107050724328e-05 1.0
vn -4.6098168240860105e-05 0.0001088866192731075 1.0
vn -0.00011297225137241185 0.00025505502708256245 -1.0
vn -0.00035572549677453935 -0.0002145328908227384 -0.9999999403953552
vn -0.14935681223869324 -0.3550458252429962 -0.9228407144546509
f 1/1/1 2/2/2 3/3/3
f 2/4/2 4/5/4 3/6/3
f 5/7/5 6/8/6 7/9/7
f 6/10/6 8/11/8 7/12/7
f 9/13/9 10/14/10 11/15/11
f 10/16/10 12/17/12 11/18/11
f 13/19/13 14/20/14 15/21/15
f 14/22/14 16/23/16 15/24/15
f 17/25/17 16/26/16 18/27/18
f 16/28/16 14/29/14 18/30/18
f 19/31/19 20/32/20 21/33/21
f 20/34/20 22/35/22 21/36/21
f 23/37/23 24/38/24 25/39/25
f 24/40/24 26/41/26 25/42/25
f 27/43/27 28/44/28 29/45/29
f 28/46/28 30/47/30 29/48/29
f 31/49/31 32/50/32 33/51/33
f 32/52/32 34/53/34 33/54/33
f 35/55/35 36/56/36 34/57/34
f 36/58/36 33/59/33 34/60/34
f 14/61/14 37/62/37 18/63/18
f 37/64/37 38/65/38 18/66/18
f 16/67/16 39/68/39 15/69/15
f 39/70/39 40/71/40 15/72/15
f 17/73/17 41/74/41 16/75/16
f 41/76/41 39/77/39 16/78/16
f 12/79/12 42/80/42 11/81/11
f 42/82/42 43/83/43 11/84/11
f 13/85/13 44/86/44 14/87/14
f 44/88/44 37/89/37 14/90/14
f 9/91/9 45/92/45 10/93/10
f 45/94/45 46/95/46 10/96/10
f 29/97/29 47/98/47 27/99/27
f 47/100/47 48/101/48 27/102/27
f 28/103/28 49/104/49 30/105/30
f 49/106/49 50/107/50 30/108/30
f 33/109/33 51/110/51 31/111/31
f 51/112/51 52/113/52 31/114/31
f 32/115/32 53/116/53 34/117/34
f 53/118/53 54/119/54 34/120/34
f 34/121/34 54/122/54 35/123/35
f 54/124/54 55/125/55 35/126/35
f 36/127/36 56/128/56 33/129/33
f 56/130/56 51/131/51 33/132/33
f 43/133/43 42/134/42 57/135/57
f 41/136/41 43/137/43 57/138/57
f 41/139/41 57/140/57 58/141/58
f 39/142/39 41/143/41 58/144/58
f 39/145/39 58/146/58 59/147/59
f 40/148/40 39/149/39 59/150/59
f 44/151/44 60/152/60 37/153/37
f 60/154/60 61/155/61 37/156/37
f 37/157/37 61/158/61 38/159/38
f 61/160/61 62/161/62 38/162/38
f 38/163/38 62/164/62 45/165/45
f 62/166/62 46/167/46 45/168/45
f 53/169/53 63/170/63 54/171/54
f 63/172/63 64/173/64 54/174/54
f 54/175/54 64/176/64 55/177/55
f 64/178/64 65/179/65 55/180/55
f 55/181/55 65/182/65 49/183/49
f 65/184/65 50/185/50 49/186/49
f 48/187/48 47/188/47 66/189/66
f 56/190/56 48/191/48 66/192/66
f 56/193/56 66/194/66 67/195/67
f 51/196/51 56/197/56 67/198/67
f 51/199/51 67/200/67 68/201/68
f 52/202/52 51/203/51 68/204/68
f 40/205/40 59/206/59 4/207/4
f 2/208/2 40/209/40 4/210/4
f 15/211/15 40/212/40 2/213/2
f 13/214/13 15/215/15 2/216/2
f 1/217/1 13/218/13 2/219/2
f 44/220/44 13/221/13 1/222/1
f 60/223/60 44/224/44 1/225/1
f 3/226/3 60/227/60 1/228/1
f 52/229/52 68/230/68 20/231/20
f 19/232/19 52/233/52 20/234/20
f 31/235/31 52/236/52 19/237/19
f 32/238/32 31/239/31 19/240/19
f 21/241/21 32/242/32 19/243/19
f 53/244/53 32/245/32 21/246/21
f 63/247/63 53/248/53 21/249/21
f 22/250/22 63/251/63 21/252/21
f 5/253/5 45/254/45 9/255/9
f 38/256/38 45/257/45 5/258/5
f 5/259/5 9/260/9 6/261/6
f 7/262/7 38/263/38 5/264/5
f 9/265/9 11/266/11 6/267/6
f 7/268/7 18/269/18 38/270/38
f 11/271/11 43/272/43 6/273/6
f 17/274/17 18/275/18 7/276/7
f 6/277/6 43/278/43 8/279/8
f 8/280/8 17/281/17 7/282/7
f 43/283/43 41/284/41 8/285/8
f 41/286/41 17/287/17 8/288/8
f 26/289/26 35/290/35 55/291/55
f 36/292/36 35/293/35 26/294/26
f 26/295/26 55/296/55 25/297/25
f 24/298/24 36/299/36 26/300/26
f 55/301/55 49/302/49 25/303/25
f 24/304/24 56/305/56 36/306/36
f 49/307/49 28/308/28 25/309/25
f 48/310/48 56/311/56 24/312/24
f 25/313/25 28/314/28 23/315/23
f 23/316/23 48/317/48 24/318/24
f 28/319/28 27/320/27 23/321/23
f 27/322/27 48/323/48 23/324/23
