# Exported by Lightwave Blender addon
v -191.82823181152344 -1465.7008056640625 430.83648681640625
v -169.13259887695312 -1399.7071533203125 430.83642578125
v -858.5940551757812 -1160.435302734375 430.8365173339844
v -797.2632446289062 -1111.8046875 430.8364562988281
v -170.61143493652344 -1402.600830078125 404.1600036621094
v -170.61143493652344 -1402.600830078125 401.0186767578125
v -798.083251953125 -1115.1612548828125 404.1600341796875
v -798.083251953125 -1115.1612548828125 401.0187072753906
v -172.7141571044922 -1407.573486328125 395.0926513671875
v -191.8524169921875 -1465.696044921875 395.0926208496094
v -800.9113159179688 -1119.593017578125 395.0926818847656
v -858.5487670898438 -1160.492919921875 395.0926513671875
v -168.65777587890625 -1398.34521484375 407.05242919921875
v -796.1279296875 -1110.90234375 407.0524597167969
v -796.1279296875 -1110.90234375 429.39019775390625
v -168.65777587890625 -1398.34521484375 429.3901672363281
v -171.6663360595703 -1404.903564453125 399.5724182128906
v -799.13623046875 -1117.4693603515625 399.57244873046875
v -798.68603515625 -1116.4866943359375 399.57244873046875
v -171.21266174316406 -1403.9224853515625 399.5724182128906
v -797.474609375 -1113.851318359375 405.60626220703125
v -170.0098876953125 -1401.2874755859375 405.6062316894531
v -796.7310791015625 -1112.2191162109375 405.6062316894531
v -169.2593231201172 -1399.658447265625 405.606201171875
v -799.731689453125 -1118.7691650390625 396.5389099121094
v -172.25828552246094 -1406.205078125 396.53887939453125
v -799.734619140625 -1118.775390625 398.1261901855469
v -172.26113891601562 -1406.2113037109375 398.12615966796875
v -859.7225341796875 -1161.33203125 429.3902587890625
v -192.29757690429688 -1467.0693359375 429.3902282714844
v -192.29757690429688 -1467.0693359375 396.53887939453125
v -859.7225341796875 -1161.33203125 396.5389099121094
vt 1.595703125 0.7608642578125
vt 1.6298828125 0.41357421875
vt 5.26171875 0.7615966796875
vt 1.6298828125 0.41357421875
vt 5.08203125 0.4130859375
vt 5.26171875 0.7615966796875
vt 1.630859375 0.543701171875
vt 1.630859375 0.52783203125
vt 5.08203125 0.543701171875
vt 1.630859375 0.52783203125
vt 5.08203125 0.52783203125
vt 5.08203125 0.543701171875
vt -0.63037109375 0.45703125
vt -0.59619140625 0.7608642578125
vt -4.0859375 0.4560546875
vt -0.59619140625 0.7608642578125
vt -4.26171875 0.7618408203125
vt -4.0859375 0.4560546875
vt 1.630859375 0.55810546875
vt 5.08203125 0.55810546875
vt 5.08203125 0.669677734375
vt 1.630859375 0.669677734375
vt 1.630859375 0.55810546875
vt 5.08203125 0.669677734375
vt 1.630859375 0.669677734375
vt 5.08203125 0.669677734375
vt 5.08203125 0.677001953125
vt 1.6298828125 0.677001953125
vt 1.630859375 0.669677734375
vt 5.08203125 0.677001953125
vt -0.63134765625 0.44287109375
vt -4.08203125 0.44287109375
vt -4.08203125 0.4375
vt -0.63134765625 0.4375
vt -0.63134765625 0.44287109375
vt -4.08203125 0.4375
vt -0.63134765625 0.4375
vt -4.08203125 0.4375
vt -4.08203125 0.43017578125
vt -0.63134765625 0.43017578125
vt -0.63134765625 0.4375
vt -4.08203125 0.43017578125
vt -0.63134765625 0.43017578125
vt -4.08203125 0.43017578125
vt -4.08203125 0.4228515625
vt -0.63134765625 0.4228515625
vt -0.63134765625 0.43017578125
vt -4.08203125 0.4228515625
vt -0.63134765625 0.4228515625
vt -4.08203125 0.4228515625
vt -4.08203125 0.4140625
vt -0.63134765625 0.4140625
vt -0.63134765625 0.4228515625
vt -4.08203125 0.4140625
vt -0.63134765625 0.4140625
vt -4.08203125 0.4140625
vt -4.08203125 0.40673828125
vt -0.63134765625 0.40673828125
vt -0.63134765625 0.4140625
vt -4.08203125 0.40673828125
vt 1.6298828125 0.49853515625
vt 5.0859375 0.49853515625
vt 5.08203125 0.505615234375
vt 1.630859375 0.505615234375
vt 1.6298828125 0.49853515625
vt 5.08203125 0.505615234375
vt 1.630859375 0.505615234375
vt 5.08203125 0.505615234375
vt 5.08203125 0.513427734375
vt 1.630859375 0.513427734375
vt 1.630859375 0.505615234375
vt 5.08203125 0.513427734375
vt 1.630859375 0.513427734375
vt 5.08203125 0.513427734375
vt 5.08203125 0.520751953125
vt 1.630859375 0.520751953125
vt 1.630859375 0.513427734375
vt 5.08203125 0.520751953125
vt -4.26171875 0.677001953125
vt -4.265625 0.669677734375
vt -0.59619140625 0.677001953125
vt -4.265625 0.669677734375
vt -0.595703125 0.669677734375
vt -0.59619140625 0.677001953125
vt -0.595703125 0.505615234375
vt -0.595703125 0.669677734375
vt -4.265625 0.669677734375
vt -4.265625 0.505615234375
vt -0.595703125 0.505615234375
vt -4.265625 0.669677734375
vt -0.595703125 0.505615234375
vt -4.265625 0.505615234375
vt -4.26171875 0.49853515625
vt -0.59619140625 0.49853515625
vt -0.595703125 0.505615234375
vt -4.26171875 0.49853515625
vn -0.16841141879558563 -0.36764273047447205 0.9145908951759338
vn 0.15177877247333527 0.33114293217658997 0.9312934875488281
vn -0.21438735723495483 -0.46826839447021484 0.857183039188385
vn 0.1280534416437149 0.2795323431491852 0.9515586495399475
vn 0.3848173916339874 0.8400448560714722 -0.38241371512413025
vn 0.384574294090271 0.8395140767097473 -0.3838212192058563
vn 0.38490116596221924 0.8402275443077087 -0.38192781805992126
vn 0.3845408856868744 0.839446485042572 -0.38400253653526306
vn 0.15069131553173065 0.3289591670036316 -0.9322434663772583
vn -0.16997858881950378 -0.3713070750236511 -0.9128189086914062
vn 0.12619204819202423 0.2752739489078522 -0.9530476927757263
vn -0.22244508564472198 -0.48559820652008057 -0.8454066514968872
vn 0.3848244845867157 0.8400481939315796 -0.3823990821838379
vn 0.3847159743309021 0.8398163914680481 -0.38301676511764526
vn 0.383487731218338 0.837130069732666 0.39006468653678894
vn 0.3837739825248718 0.8375609517097473 0.38885629177093506
vn 0.15992993116378784 0.34912773966789246 -0.9233267307281494
vn 0.16002625226974487 0.3493378758430481 -0.9232305288314819
vn 0.15881986916065216 0.3467044234275818 -0.924430787563324
vn 0.15908412635326385 0.347275972366333 -0.9241708517074585
vn 0.15958064794540405 0.34835973381996155 -0.9236770868301392
vn 0.15937650203704834 0.34791436791419983 -0.9238802790641785
vn 0.15934263169765472 0.34784042835235596 -0.9239138960838318
vn 0.1596064567565918 0.3484112024307251 -0.9236533045768738
vn 0.3851185142993927 0.8404145240783691 -0.38129666447639465
vn 0.3838822543621063 0.8380160927772522 -0.38776695728302
vn 0.3853769600391388 0.8412792086601257 -0.37912240624427795
vn 0.38541179895401 0.8413552641868591 -0.3789183795452118
vn -0.3953375816345215 -0.863200843334198 0.3139941692352295
vn -0.38642722368240356 -0.8435710668563843 0.37290993332862854
vn -0.3867543637752533 -0.8445079326629639 -0.37044215202331543
vn -0.3967854976654053 -0.8661832809448242 -0.3037889301776886
f 1/1/1 2/2/2 3/3/3
f 2/4/2 4/5/4 3/6/3
f 5/7/5 6/8/6 7/9/7
f 6/10/6 8/11/8 7/12/7
f 9/13/9 10/14/10 11/15/11
f 10/16/10 12/17/12 11/18/11
f 13/19/13 14/20/14 15/21/15
f 16/22/16 13/23/13 15/24/15
f 16/25/16 15/26/15 4/27/4
f 2/28/2 16/29/16 4/30/4
f 17/31/17 18/32/18 19/33/19
f 20/34/20 17/35/17 19/36/19
f 20/37/20 19/38/19 8/39/8
f 6/40/6 20/41/20 8/42/8
f 5/43/5 7/44/7 21/45/21
f 22/46/22 5/47/5 21/48/21
f 22/49/22 21/50/21 23/51/23
f 24/52/24 22/53/22 23/54/23
f 24/55/24 23/56/23 14/57/14
f 13/58/13 24/59/24 14/60/14
f 9/61/9 11/62/11 25/63/25
f 26/64/26 9/65/9 25/66/25
f 26/67/26 25/68/25 27/69/27
f 28/70/28 26/71/26 27/72/27
f 28/73/28 27/74/27 18/75/18
f 17/76/17 28/77/28 18/78/18
f 3/79/3 29/80/29 1/81/1
f 29/82/29 30/83/30 1/84/1
f 31/85/31 30/86/30 29/87/29
f 32/88/32 31/89/31 29/90/29
f 31/91/31 32/92/32 12/93/12
f 10/94/10 31/95/31 12/96/12
