# Exported by Lightwave Blender addon
v -152.74610900878906 332.147705078125 248.43008422851562
v -152.21481323242188 331.8616943359375 248.10183715820312
v -152.5904541015625 331.1639099121094 248.43008422851562
v -153.01171875 331.654296875 248.66220092773438
v -152.96617126464844 332.2661437988281 249.22256469726562
v -152.7460479736328 330.8748474121094 249.22256469726562
v -153.1217498779297 331.44989013671875 249.2225341796875
v -152.5904541015625 331.16387939453125 250.01502990722656
v -153.01171875 331.654296875 249.78292846679688
v -152.21481323242188 331.8616943359375 250.34327697753906
v -152.74610900878906 332.1476745605469 250.01504516601562
v -151.8391876220703 332.5594787597656 250.01502990722656
v -152.48049926757812 332.64111328125 249.78292846679688
v -151.68360900878906 332.8485107421875 249.22256469726562
v -152.3704833984375 332.845458984375 249.2225341796875
v -151.8391876220703 332.55950927734375 248.43008422851562
v -152.48049926757812 332.64111328125 248.66220092773438
v -176.9575653076172 285.8981628417969 248.43003845214844
v -177.33319091796875 285.20037841796875 248.10179138183594
v -177.86448669433594 285.48638916015625 248.43002319335938
v -177.598876953125 285.97979736328125 248.66213989257812
v -178.0845489501953 285.6048278808594 249.22250366210938
v -176.80197143554688 286.18719482421875 249.22251892089844
v -177.48886108398438 286.1841735839844 249.22250366210938
v -176.9575653076172 285.898193359375 250.01499938964844
v -177.598876953125 285.97979736328125 249.78289794921875
v -177.33319091796875 285.20037841796875 250.34324645996094
v -177.86448669433594 285.48638916015625 250.01498413085938
v -177.7088165283203 284.5025634765625 250.01499938964844
v -178.13009643554688 284.99298095703125 249.78286743164062
v -177.86441040039062 284.21356201171875 249.22251892089844
v -178.24009704589844 284.78857421875 249.22250366210938
v -177.7088165283203 284.5025939941406 248.43003845214844
v -178.13009643554688 284.99298095703125 248.66213989257812
v -152.59043884277344 331.16400146484375 127.80083465576172
v -152.2147979736328 331.8617858886719 128.12908935546875
v -152.74607849121094 332.1477966308594 127.80083465576172
v -153.01170349121094 331.6544189453125 127.56871795654297
v -152.96615600585938 332.26629638671875 127.00836181640625
v -152.7460174560547 330.875 127.00835418701172
v -153.12171936035156 331.4500427246094 127.00835418701172
v -152.59042358398438 331.1640319824219 126.21588897705078
v -153.01170349121094 331.6544189453125 126.44799041748047
v -152.2147979736328 331.86181640625 125.88762664794922
v -152.74607849121094 332.1478271484375 126.21588897705078
v -151.83917236328125 332.5596008300781 126.21588897705078
v -152.48046875 332.6412353515625 126.44799041748047
v -151.68357849121094 332.8486633300781 127.00835418701172
v -152.37046813964844 332.8456115722656 127.00835418701172
v -151.8391571044922 332.5596008300781 127.80083465576172
v -152.48046875 332.6412353515625 127.56871795654297
v -177.8644561767578 285.4864807128906 127.80077362060547
v -177.33316040039062 285.2004699707031 128.12904357910156
v -176.95753479003906 285.8982849121094 127.80077362060547
v -177.59884643554688 285.97991943359375 127.56867218017578
v -178.0845184326172 285.60498046875 127.00830078125
v -176.80194091796875 286.1873474121094 127.00830841064453
v -177.48883056640625 286.1842956542969 127.00830841064453
v -176.95753479003906 285.8983154296875 126.21582794189453
v -177.59884643554688 285.97991943359375 126.44794464111328
v -177.33316040039062 285.2005310058594 125.88758087158203
v -177.8644561767578 285.48651123046875 126.21582794189453
v -177.7087860107422 284.5027160644531 126.21582794189453
v -178.13006591796875 284.99310302734375 126.44794464111328
v -177.86439514160156 284.21368408203125 127.00830841064453
v -178.24009704589844 284.7887268066406 127.00830841064453
v -177.7087860107422 284.502685546875 127.80077362060547
v -178.13006591796875 284.99310302734375 127.56867218017578
vt 0.0 0.75
vt 0.0 0.375
vt 0.125 0.375
vt 0.125 0.375
vt 0.125 0.75
vt 0.0 0.75
vt 0.0 1.0
vt 0.0 0.75
vt 0.125 0.75
vt 0.125 0.75
vt 0.125 0.375
vt 0.25 0.375
vt 0.25 0.375
vt 0.25 0.75
vt 0.125 0.75
vt 0.125 1.0
vt 0.125 0.75
vt 0.25 0.75
vt 0.25 0.75
vt 0.25 0.375
vt 0.375 0.375
vt 0.375 0.375
vt 0.375 0.75
vt 0.25 0.75
vt 0.25 1.0
vt 0.25 0.75
vt 0.375 0.75
vt 0.375 0.75
vt 0.375 0.375
vt 0.5 0.375
vt 0.5 0.375
vt 0.5 0.75
vt 0.375 0.75
vt 0.375 1.0
vt 0.375 0.75
vt 0.5 0.75
vt 0.5 0.75
vt 0.5 0.375
vt 0.625 0.375
vt 0.625 0.375
vt 0.625 0.75
vt 0.5 0.75
vt 0.5 1.0
vt 0.5 0.75
vt 0.625 0.75
vt 0.625 0.75
vt 0.625 0.375
vt 0.75 0.375
vt 0.75 0.375
vt 0.75 0.75
vt 0.625 0.75
vt 0.625 1.0
vt 0.625 0.75
vt 0.75 0.75
vt 0.75 0.75
vt 0.75 0.375
vt 0.87451171875 0.375
vt 0.87451171875 0.375
vt 0.87451171875 0.75
vt 0.75 0.75
vt 0.75 1.0
vt 0.75 0.75
vt 0.87451171875 0.75
vt 0.87451171875 0.75
vt 0.87451171875 0.375
vt 0.99951171875 0.375
vt 0.99951171875 0.375
vt 0.99951171875 0.75
vt 0.87451171875 0.75
vt 0.87451171875 1.0
vt 0.87451171875 0.75
vt 0.99951171875 0.75
vt 0.125 0.375
vt 0.0 0.375
vt 0.0 0.75
vt 0.0 0.75
vt 0.125 0.75
vt 0.125 0.375
vt 0.0 1.0
vt 0.125 0.75
vt 0.0 0.75
vt 0.25 0.375
vt 0.125 0.375
vt 0.125 0.75
vt 0.125 0.75
vt 0.25 0.75
vt 0.25 0.375
vt 0.125 1.0
vt 0.25 0.75
vt 0.125 0.75
vt 0.375 0.375
vt 0.25 0.375
vt 0.25 0.75
vt 0.25 0.75
vt 0.375 0.75
vt 0.375 0.375
vt 0.25 1.0
vt 0.375 0.75
vt 0.25 0.75
vt 0.5 0.375
vt 0.375 0.375
vt 0.375 0.75
vt 0.375 0.75
vt 0.5 0.75
vt 0.5 0.375
vt 0.375 1.0
vt 0.5 0.75
vt 0.375 0.75
vt 0.625 0.375
vt 0.5 0.375
vt 0.5 0.75
vt 0.5 0.75
vt 0.625 0.75
vt 0.625 0.375
vt 0.5 1.0
vt 0.625 0.75
vt 0.5 0.75
vt 0.75 0.375
vt 0.625 0.375
vt 0.625 0.75
vt 0.625 0.75
vt 0.75 0.75
vt 0.75 0.375
vt 0.625 1.0
vt 0.75 0.75
vt 0.625 0.75
vt 0.87451171875 0.375
vt 0.75 0.375
vt 0.75 0.75
vt 0.75 0.75
vt 0.87451171875 0.75
vt 0.87451171875 0.375
vt 0.75 1.0
vt 0.87451171875 0.75
vt 0.75 0.75
vt 0.99951171875 0.375
vt 0.87451171875 0.375
vt 0.87451171875 0.75
vt 0.87451171875 0.75
vt 0.99951171875 0.75
vt 0.99951171875 0.375
vt 0.87451171875 1.0
vt 0.99951171875 0.75
vt 0.87451171875 0.75
vt 0.125 0.375
vt 0.0 0.375
vt 0.0 0.75
vt 0.0 0.75
vt 0.125 0.75
vt 0.125 0.375
vt 0.0 1.0
vt 0.125 0.75
vt 0.0 0.75
vt 0.25 0.375
vt 0.125 0.375
vt 0.125 0.75
vt 0.125 0.75
vt 0.25 0.75
vt 0.25 0.375
vt 0.125 1.0
vt 0.25 0.75
vt 0.125 0.75
vt 0.375 0.375
vt 0.25 0.375
vt 0.25 0.75
vt 0.25 0.75
vt 0.375 0.75
vt 0.375 0.375
vt 0.25 1.0
vt 0.375 0.75
vt 0.25 0.75
vt 0.5 0.375
vt 0.375 0.375
vt 0.375 0.75
vt 0.375 0.75
vt 0.5 0.75
vt 0.5 0.375
vt 0.375 1.0
vt 0.5 0.75
vt 0.375 0.75
vt 0.625 0.375
vt 0.5 0.375
vt 0.5 0.75
vt 0.5 0.75
vt 0.625 0.75
vt 0.625 0.375
vt 0.5 1.0
vt 0.625 0.75
vt 0.5 0.75
vt 0.75 0.375
vt 0.625 0.375
vt 0.625 0.75
vt 0.625 0.75
vt 0.75 0.75
vt 0.75 0.375
vt 0.625 1.0
vt 0.75 0.75
vt 0.625 0.75
vt 0.87451171875 0.375
vt 0.75 0.375
vt 0.75 0.75
vt 0.75 0.75
vt 0.87451171875 0.75
vt 0.87451171875 0.375
vt 0.75 1.0
vt 0.87451171875 0.75
vt 0.75 0.75
vt 0.99951171875 0.375
vt 0.87451171875 0.375
vt 0.87451171875 0.75
vt 0.87451171875 0.75
vt 0.99951171875 0.75
vt 0.99951171875 0.375
vt 0.87451171875 1.0
vt 0.99951171875 0.75
vt 0.87451171875 0.75
vt 0.0 0.75
vt 0.0 0.375
vt 0.125 0.375
vt 0.125 0.375
vt 0.125 0.75
vt 0.0 0.75
vt 0.0 1.0
vt 0.0 0.75
vt 0.125 0.75
vt 0.125 0.75
vt 0.125 0.375
vt 0.25 0.375
vt 0.25 0.375
vt 0.25 0.75
vt 0.125 0.75
vt 0.125 1.0
vt 0.125 0.75
vt 0.25 0.75
vt 0.25 0.75
vt 0.25 0.375
vt 0.375 0.375
vt 0.375 0.375
vt 0.375 0.75
vt 0.25 0.75
vt 0.25 1.0
vt 0.25 0.75
vt 0.375 0.75
vt 0.375 0.75
vt 0.375 0.375
vt 0.5 0.375
vt 0.5 0.375
vt 0.5 0.75
vt 0.375 0.75
vt 0.375 1.0
vt 0.375 0.75
vt 0.5 0.75
vt 0.5 0.75
vt 0.5 0.375
vt 0.625 0.375
vt 0.625 0.375
vt 0.625 0.75
vt 0.5 0.75
vt 0.5 1.0
vt 0.5 0.75
vt 0.625 0.75
vt 0.625 0.75
vt 0.625 0.375
vt 0.75 0.375
vt 0.75 0.375
vt 0.75 0.75
vt 0.625 0.75
vt 0.625 1.0
vt 0.625 0.75
vt 0.75 0.75
vt 0.75 0.75
vt 0.75 0.375
vt 0.87451171875 0.375
vt 0.87451171875 0.375
vt 0.87451171875 0.75
vt 0.75 0.75
vt 0.75 1.0
vt 0.75 0.75
vt 0.87451171875 0.75
vt 0.87451171875 0.75
vt 0.87451171875 0.375
vt 0.99951171875 0.375
vt 0.99951171875 0.375
vt 0.99951171875 0.75
vt 0.87451171875 0.75
vt 0.87451171875 1.0
vt 0.87451171875 0.75
vt 0.99951171875 0.75
vn -0.6415613889694214 0.34536686539649963 -0.6849239468574524
vn -0.42078056931495667 0.2265215516090393 -0.878425657749176
vn -0.715208888053894 -0.320395290851593 -0.6211465001106262
vn -0.8711304068565369 -0.08107459545135498 -0.48431262373924255
vn -0.880524754524231 0.4740002453327179 4.71474368168856e-06
vn -0.8371668457984924 -0.5469476580619812 -1.0838739399332553e-05
vn -0.966217041015625 -0.25772979855537415 -2.2786023691878654e-05
vn -0.715217113494873 -0.3204072415828705 0.6211311221122742
vn -0.8711258769035339 -0.08106334507465363 0.48432275652885437
vn -0.42077839374542236 0.22650624811649323 0.8784306645393372
vn -0.6415567398071289 0.3453463315963745 0.6849386096000671
vn -0.12635628879070282 0.7734343409538269 0.6211549043655396
vn -0.41199740767478943 0.7718209028244019 0.48430436849594116
vn -0.0044256458058953285 0.9999901652336121 2.3437485651811585e-05
vn -0.31692537665367126 0.94845050573349 -2.4404062060057186e-05
vn -0.12638776004314423 0.7734578251838684 -0.6211192607879639
vn -0.4120093882083893 0.771818220615387 -0.4842982888221741
vn -0.1263468712568283 0.7734397053718567 -0.6211500763893127
vn -0.42077168822288513 0.22649195790290833 -0.8784375786781311
vn -0.6415551900863647 0.3453615605831146 -0.6849323511123657
vn -0.4119906425476074 0.7718213796615601 -0.48430922627449036
vn -0.8805328011512756 0.4739852845668793 -1.5237293382597272e-06
vn -0.004398948512971401 0.9999902844429016 -2.2019959942554124e-05
vn -0.31691330671310425 0.9484544396400452 -1.1377333976270165e-05
vn -0.12637090682983398 0.7734574675559998 0.6211230754852295
vn -0.4120130240917206 0.7718061804771423 0.48431432247161865
vn -0.4207949936389923 0.22651150822639465 0.8784213066101074
vn -0.6415780782699585 0.34535467624664307 0.6849143505096436
vn -0.7152236700057983 -0.32039695978164673 0.6211287975311279
vn -0.8711421489715576 -0.08108203113079071 0.4842901825904846
vn -0.8371608853340149 -0.5469567179679871 1.0586873031570576e-05
vn -0.9662109017372131 -0.2577524781227112 -6.629609742958564e-06
vn -0.715202808380127 -0.32042887806892395 -0.6211363077163696
vn -0.8711296319961548 -0.08109024912118912 -0.48431137204170227
vn -0.7152286171913147 -0.3203975260257721 0.6211227178573608
vn -0.4207904040813446 0.226521298289299 0.8784210681915283
vn -0.6415539979934692 0.34535491466522217 0.6849367618560791
vn -0.871134877204895 -0.08107709139585495 0.4843040406703949
vn -0.8805218935012817 0.47400549054145813 5.7644560911285225e-06
vn -0.837165117263794 -0.5469502210617065 -3.1440656584891258e-06
vn -0.9662161469459534 -0.25773289799690247 -5.838398010382662e-06
vn -0.7152067422866821 -0.3204305171966553 -0.6211308836936951
vn -0.8711255192756653 -0.08108562976121902 -0.48431965708732605
vn -0.42079591751098633 0.22651350498199463 -0.8784204721450806
vn -0.6415526270866394 0.345380038022995 -0.6849254369735718
vn -0.12636509537696838 0.7734277248382568 -0.6211614608764648
vn -0.411987841129303 0.7718106508255005 -0.48432859778404236
vn -0.004433430731296539 0.9999902248382568 -1.6921143242143444e-06
vn -0.3169231116771698 0.9484511613845825 9.68733183981385e-06
vn -0.1263727843761444 0.7734390497207642 0.6211455464363098
vn -0.4119900166988373 0.7718095183372498 0.4843287467956543
vn -0.6415596604347229 0.3453601598739624 0.6849289536476135
vn -0.4208035171031952 0.2265053540468216 0.8784189224243164
vn -0.1263689249753952 0.7734222412109375 0.6211673021316528
vn -0.41199791431427 0.7718021273612976 0.48433369398117065
vn -0.8805218935012817 0.4740053713321686 2.4337778086191975e-06
vn -0.004433404188603163 0.9999902248382568 2.1231475329841487e-05
vn -0.31692278385162354 0.9484514594078064 -2.571588311184314e-06
vn -0.1263897866010666 0.7734555602073669 -0.6211216449737549
vn -0.4120069146156311 0.7718116641044617 -0.4843108654022217
vn -0.4207817614078522 0.2265295535326004 -0.8784230947494507
vn -0.6415634751319885 0.3453582227230072 -0.6849261522293091
vn -0.7152009010314941 -0.32040682435035706 -0.6211497783660889
vn -0.8711280822753906 -0.08109060674905777 -0.48431411385536194
vn -0.8371614217758179 -0.5469558835029602 -1.1467203876236454e-05
vn -0.966219425201416 -0.25772079825401306 6.78234925999277e-07
vn -0.7152120471000671 -0.3204251825809479 0.6211276054382324
vn -0.8711243271827698 -0.0810735747218132 0.4843235909938812
f 1/1/1 2/2/2 3/3/3
f 3/4/3 4/5/4 1/6/1
f 5/7/5 1/8/1 4/9/4
f 4/10/4 3/11/3 6/12/6
f 6/13/6 7/14/7 4/15/4
f 5/16/5 4/17/4 7/18/7
f 7/19/7 6/20/6 8/21/8
f 8/22/8 9/23/9 7/24/7
f 5/25/5 7/26/7 9/27/9
f 9/28/9 8/29/8 10/30/10
f 10/31/10 11/32/11 9/33/9
f 5/34/5 9/35/9 11/36/11
f 11/37/11 10/38/10 12/39/12
f 12/40/12 13/41/13 11/42/11
f 5/43/5 11/44/11 13/45/13
f 13/46/13 12/47/12 14/48/14
f 14/49/14 15/50/15 13/51/13
f 5/52/5 13/53/13 15/54/15
f 15/55/15 14/56/14 16/57/16
f 16/58/16 17/59/17 15/60/15
f 5/61/5 15/62/15 17/63/17
f 17/64/17 16/65/16 2/66/2
f 2/67/2 1/68/1 17/69/17
f 5/70/5 17/71/17 1/72/1
f 18/73/18 19/74/19 20/75/20
f 20/76/20 21/77/21 18/78/18
f 22/79/22 21/80/21 20/81/20
f 23/82/23 18/83/18 21/84/21
f 21/85/21 24/86/24 23/87/23
f 22/88/22 24/89/24 21/90/21
f 25/91/25 23/92/23 24/93/24
f 24/94/24 26/95/26 25/96/25
f 22/97/22 26/98/26 24/99/24
f 27/100/27 25/101/25 26/102/26
f 26/103/26 28/104/28 27/105/27
f 22/106/22 28/107/28 26/108/26
f 29/109/29 27/110/27 28/111/28
f 28/112/28 30/113/30 29/114/29
f 22/115/22 30/116/30 28/117/28
f 31/118/31 29/119/29 30/120/30
f 30/121/30 32/122/32 31/123/31
f 22/124/22 32/125/32 30/126/30
f 33/127/33 31/128/31 32/129/32
f 32/130/32 34/131/34 33/132/33
f 22/133/22 34/134/34 32/135/32
f 19/136/19 33/137/33 34/138/34
f 34/139/34 20/140/20 19/141/19
f 22/142/22 20/143/20 34/144/34
f 35/145/35 36/146/36 37/147/37
f 37/148/37 38/149/38 35/150/35
f 39/151/39 38/152/38 37/153/37
f 40/154/40 35/155/35 38/156/38
f 38/157/38 41/158/41 40/159/40
f 39/160/39 41/161/41 38/162/38
f 42/163/42 40/164/40 41/165/41
f 41/166/41 43/167/43 42/168/42
f 39/169/39 43/170/43 41/171/41
f 44/172/44 42/173/42 43/174/43
f 43/175/43 45/176/45 44/177/44
f 39/178/39 45/179/45 43/180/43
f 46/181/46 44/182/44 45/183/45
f 45/184/45 47/185/47 46/186/46
f 39/187/39 47/188/47 45/189/45
f 48/190/48 46/191/46 47/192/47
f 47/193/47 49/194/49 48/195/48
f 39/196/39 49/197/49 47/198/47
f 50/199/50 48/200/48 49/201/49
f 49/202/49 51/203/51 50/204/50
f 39/205/39 51/206/51 49/207/49
f 36/208/36 50/209/50 51/210/51
f 51/211/51 37/212/37 36/213/36
f 39/214/39 37/215/37 51/216/51
f 52/217/52 53/218/53 54/219/54
f 54/220/54 55/221/55 52/222/52
f 56/223/56 52/224/52 55/225/55
f 55/226/55 54/227/54 57/228/57
f 57/229/57 58/230/58 55/231/55
f 56/232/56 55/233/55 58/234/58
f 58/235/58 57/236/57 59/237/59
f 59/238/59 60/239/60 58/240/58
f 56/241/56 58/242/58 60/243/60
f 60/244/60 59/245/59 61/246/61
f 61/247/61 62/248/62 60/249/60
f 56/250/56 60/251/60 62/252/62
f 62/253/62 61/254/61 63/255/63
f 63/256/63 64/257/64 62/258/62
f 56/259/56 62/260/62 64/261/64
f 64/262/64 63/263/63 65/264/65
f 65/265/65 66/266/66 64/267/64
f 56/268/56 64/269/64 66/270/66
f 66/271/66 65/272/65 67/273/67
f 67/274/67 68/275/68 66/276/66
f 56/277/56 66/278/66 68/279/68
f 68/280/68 67/281/67 53/282/53
f 53/283/53 52/284/52 68/285/68
f 56/286/56 68/287/68 52/288/52
