# Exported by Lightwave Blender addon
v 265.3530578613281 -189.21121215820312 488.17913818359375
v 265.3530578613281 -189.21119689941406 495.09906005859375
v 253.3280792236328 -220.98883056640625 488.17913818359375
v 253.32806396484375 -220.98883056640625 495.0990295410156
v 252.3224334716797 -221.4424285888672 495.0990295410156
v 252.3224334716797 -221.4424285888672 488.17913818359375
v 106.66351318359375 -166.20579528808594 488.17913818359375
v 106.66351318359375 -166.20579528808594 495.0990295410156
v 106.21000671386719 -165.2003173828125 495.0990295410156
v 106.21000671386719 -165.20030212402344 488.17913818359375
v 118.18741607666016 -133.5496826171875 488.17913818359375
v 118.18740844726562 -133.5496826171875 495.09906005859375
v 118.91712951660156 -133.82374572753906 487.39910888671875
v 106.9395751953125 -165.4762725830078 487.39910888671875
v 264.62347412109375 -188.9352569580078 487.39910888671875
v 252.59849548339844 -220.712890625 487.39910888671875
v 264.62347412109375 -188.9352569580078 495.8790588378906
v 252.59849548339844 -220.712890625 495.8790283203125
v 106.9395751953125 -165.4762725830078 495.8790283203125
v 118.91712951660156 -133.82374572753906 495.8790588378906
vt 0.95947265625 1.416015625
vt 0.95947265625 1.375732421875
vt 1.1572265625 1.416015625
vt 0.95947265625 1.375732421875
vt 1.1572265625 1.375732421875
vt 1.1572265625 1.416015625
vt 1.1572265625 1.375732421875
vt 1.1640625 1.375732421875
vt 1.1572265625 1.416015625
vt 1.1640625 1.375732421875
vt 1.1640625 1.416015625
vt 1.1572265625 1.416015625
vt 1.1640625 1.416015625
vt 1.1640625 1.375732421875
vt 2.072265625 1.416015625
vt 1.1640625 1.375732421875
vt 2.072265625 1.375732421875
vt 2.072265625 1.416015625
vt 2.072265625 1.416015625
vt 2.072265625 1.375732421875
vt 2.078125 1.375732421875
vt 2.078125 1.416015625
vt 2.072265625 1.416015625
vt 2.078125 1.375732421875
vt 2.275390625 1.416015625
vt 2.078125 1.416015625
vt 2.078125 1.375732421875
vt 2.275390625 1.375732421875
vt 2.275390625 1.416015625
vt 2.078125 1.375732421875
vt 2.138671875 1.2423095703125
vt 2.1328125 1.2423095703125
vt 2.138671875 1.04931640625
vt 2.1328125 1.2423095703125
vt 2.1328125 1.04486083984375
vt 2.138671875 1.04931640625
vt 2.134765625 1.038787841796875
vt 2.138671875 1.04931640625
vt 2.1328125 1.04486083984375
vt 2.1328125 1.2423095703125
vt 1.224609375 1.2423095703125
vt 2.1328125 1.04486083984375
vt 2.134765625 1.038787841796875
vt 2.1328125 1.04486083984375
vt 1.2255859375 1.038787841796875
vt 1.224609375 1.2423095703125
vt 1.224609375 1.04486083984375
vt 2.1328125 1.04486083984375
vt 2.1328125 1.04486083984375
vt 1.224609375 1.04486083984375
vt 1.2255859375 1.038787841796875
vt 1.224609375 1.04486083984375
vt 1.224609375 1.2423095703125
vt 1.21875 1.2423095703125
vt 1.21875 1.03863525390625
vt 1.2255859375 1.038787841796875
vt 1.224609375 1.04486083984375
vt 1.21875 1.03863525390625
vt 1.224609375 1.04486083984375
vt 1.21875 1.2423095703125
vt 1.2216796875 0.7550048828125
vt 1.2275390625 0.7550048828125
vt 1.2216796875 0.950531005859375
vt 1.2275390625 0.7550048828125
vt 1.2275390625 0.952484130859375
vt 1.2216796875 0.950531005859375
vt 1.2275390625 0.952484130859375
vt 1.2265625 0.95855712890625
vt 1.2216796875 0.950531005859375
vt 1.2265625 0.95855712890625
vt 1.2275390625 0.952484130859375
vt 2.13671875 0.95855712890625
vt 1.2275390625 0.952484130859375
vt 1.2275390625 0.7550048828125
vt 2.13671875 0.952484130859375
vt 1.2275390625 0.952484130859375
vt 2.13671875 0.952484130859375
vt 2.13671875 0.95855712890625
vt 1.2275390625 0.7550048828125
vt 2.13671875 0.7550048828125
vt 2.13671875 0.952484130859375
vt 2.13671875 0.952484130859375
vt 2.142578125 0.95623779296875
vt 2.13671875 0.95855712890625
vt 2.13671875 0.952484130859375
vt 2.13671875 0.7550048828125
vt 2.142578125 0.7550048828125
vt 2.142578125 0.95623779296875
vt 2.13671875 0.952484130859375
vt 2.142578125 0.7550048828125
vn 0.8640870451927185 -0.326979398727417 -0.38267210125923157
vn 0.8640833497047424 -0.32697856426239014 0.38268133997917175
vn 0.6980465650558472 -0.6293280124664307 -0.34158042073249817
vn 0.6980481147766113 -0.6293237209320068 0.34158533811569214
vn 0.009303311817348003 -0.9398034811019897 0.34158870577812195
vn 0.009303087368607521 -0.9398053884506226 -0.34158313274383545
vn -0.6295796036720276 -0.6978197693824768 -0.3415801525115967
vn -0.6295777559280396 -0.6978170871734619 0.3415891230106354
vn -0.9397973418235779 -0.009627730585634708 0.34159666299819946
vn -0.9398014545440674 -0.009623683989048004 -0.34158554673194885
vn -0.864056408405304 0.32698097825050354 -0.3827401101589203
vn -0.8640539050102234 0.3269732892513275 0.38275235891342163
vn -0.3578479588031769 0.13541871309280396 -0.9239082932472229
vn -0.44044798612594604 -0.1984497457742691 -0.8755702376365662
vn 0.3579498827457428 -0.13545186817646027 -0.9238640666007996
vn 0.19844047725200653 -0.4404309391975403 -0.8755808472633362
vn 0.35794681310653687 -0.13545174896717072 0.9238652586936951
vn 0.19843661785125732 -0.4404240548610687 0.8755852580070496
vn -0.44044229388237 -0.19843807816505432 0.8755757808685303
vn -0.35784026980400085 0.13540858030319214 0.923912763595581
f 1/1/1 2/2/2 3/3/3
f 2/4/2 4/5/4 3/6/3
f 4/7/4 5/8/5 3/9/3
f 5/10/5 6/11/6 3/12/3
f 6/13/6 5/14/5 7/15/7
f 5/16/5 8/17/8 7/18/7
f 7/19/7 8/20/8 9/21/9
f 10/22/10 7/23/7 9/24/9
f 11/25/11 10/26/10 9/27/9
f 12/28/12 11/29/11 9/30/9
f 11/31/11 13/32/13 10/33/10
f 13/34/13 14/35/14 10/36/10
f 7/37/7 10/38/10 14/39/14
f 13/40/13 15/41/15 14/42/14
f 7/43/7 14/44/14 6/45/6
f 15/46/15 16/47/16 14/48/14
f 14/49/14 16/50/16 6/51/6
f 16/52/16 15/53/15 1/54/1
f 3/55/3 6/56/6 16/57/16
f 3/58/3 16/59/16 1/60/1
f 2/61/2 17/62/17 4/63/4
f 17/64/17 18/65/18 4/66/4
f 18/67/18 5/68/5 4/69/4
f 5/70/5 18/71/18 8/72/8
f 18/73/18 17/74/17 19/75/19
f 18/76/18 19/77/19 8/78/8
f 17/79/17 20/80/20 19/81/19
f 19/82/19 9/83/9 8/84/8
f 19/85/19 20/86/20 12/87/12
f 9/88/9 19/89/19 12/90/12
