# Exported by Lightwave Blender addon
v -125.53069305419922 374.8056945800781 72.73847198486328
v -125.42758178710938 374.9969482421875 75.2218017578125
v -118.74388885498047 387.3935852050781 72.73847198486328
v -125.42757415771484 374.9969177246094 70.25513458251953
v -125.12138366699219 375.5648193359375 77.62966918945312
v -125.12139129638672 375.5648498535156 67.8472671508789
v -124.62142944335938 376.49212646484375 79.88892364501953
v -124.62141418457031 376.4921569824219 65.5880126953125
v -123.94287109375 377.7507019042969 81.93091583251953
v -123.94287872314453 377.75067138671875 63.546016693115234
v -123.10635375976562 379.30224609375 83.69359588623047
v -123.10633850097656 379.3022155761719 61.78333282470703
v -122.13728332519531 381.0996398925781 85.12342071533203
v -122.13728332519531 381.0996398925781 60.353515625
v -121.06510925292969 383.0882568359375 86.17692565917969
v -121.06509399414062 383.0882568359375 59.30000686645508
v -119.92240905761719 385.20770263671875 86.82211303710938
v -119.92239379882812 385.20770263671875 58.65483093261719
v -118.74388122558594 387.3935852050781 87.03937530517578
v -118.7438735961914 387.3935852050781 58.437564849853516
v -117.56536865234375 389.5794372558594 86.82211303710938
v -117.56535339355469 389.5794372558594 58.65483093261719
v -116.42266082763672 391.6988830566406 86.17693328857422
v -116.42265319824219 391.6988830566406 59.30001449584961
v -115.35047912597656 393.6875305175781 85.12342071533203
v -115.35047912597656 393.68756103515625 60.3535270690918
v -114.38142395019531 395.4849548339844 83.693603515625
v -114.38140869140625 395.4849548339844 61.78334426879883
v -113.5448989868164 397.0364990234375 81.93092346191406
v -113.54489135742188 397.0364685058594 63.54603576660156
v -112.86634063720703 398.2950134277344 79.88892364501953
v -112.8663330078125 398.2950134277344 65.58802795410156
v -112.36637878417969 399.2223205566406 77.62966918945312
v -112.36637878417969 399.2223205566406 67.84728240966797
v -112.06018829345703 399.7902526855469 75.2218017578125
v -112.06018829345703 399.79022216796875 70.2551498413086
v -111.95708465576172 399.9814758300781 72.73847961425781
vt 1.0 0.5
vt 0.9921875 0.5869140625
vt 0.499755859375 0.500244140625
vt 0.9921875 0.41357421875
vt 1.0 0.5
vt 0.499755859375 0.500244140625
vt 0.9921875 0.5869140625
vt 0.9697265625 0.671142578125
vt 0.499755859375 0.500244140625
vt 0.9697265625 0.3291015625
vt 0.9921875 0.41357421875
vt 0.499755859375 0.500244140625
vt 0.9697265625 0.671142578125
vt 0.9326171875 0.75
vt 0.499755859375 0.500244140625
vt 0.9326171875 0.25
vt 0.9697265625 0.3291015625
vt 0.499755859375 0.500244140625
vt 0.9326171875 0.75
vt 0.8828125 0.8214111328125
vt 0.499755859375 0.500244140625
vt 0.8828125 0.1787109375
vt 0.9326171875 0.25
vt 0.499755859375 0.500244140625
vt 0.8828125 0.8214111328125
vt 0.8212890625 0.883056640625
vt 0.499755859375 0.500244140625
vt 0.8212890625 0.1171875
vt 0.8828125 0.1787109375
vt 0.499755859375 0.500244140625
vt 0.8212890625 0.883056640625
vt 0.75 0.93304443359375
vt 0.499755859375 0.500244140625
vt 0.74951171875 0.0673828125
vt 0.8212890625 0.1171875
vt 0.499755859375 0.500244140625
vt 0.75 0.93304443359375
vt 0.6708984375 0.9698486328125
vt 0.499755859375 0.500244140625
vt 0.6708984375 0.0302734375
vt 0.74951171875 0.0673828125
vt 0.499755859375 0.500244140625
vt 0.6708984375 0.9698486328125
vt 0.58642578125 0.9924049377441406
vt 0.499755859375 0.500244140625
vt 0.58642578125 0.0078125
vt 0.6708984375 0.0302734375
vt 0.499755859375 0.500244140625
vt 0.58642578125 0.9924049377441406
vt 0.5 1.0
vt 0.499755859375 0.500244140625
vt 0.499755859375 0.0
vt 0.58642578125 0.0078125
vt 0.499755859375 0.500244140625
vt 0.5 1.0
vt 0.4130859375 0.9924049377441406
vt 0.499755859375 0.500244140625
vt 0.4130859375 0.0078125
vt 0.499755859375 0.0
vt 0.499755859375 0.500244140625
vt 0.4130859375 0.9924049377441406
vt 0.328857421875 0.9698486328125
vt 0.499755859375 0.500244140625
vt 0.328857421875 0.0302734375
vt 0.4130859375 0.0078125
vt 0.499755859375 0.500244140625
vt 0.328857421875 0.9698486328125
vt 0.25 0.93304443359375
vt 0.499755859375 0.500244140625
vt 0.2498779296875 0.0673828125
vt 0.328857421875 0.0302734375
vt 0.499755859375 0.500244140625
vt 0.25 0.93304443359375
vt 0.1785888671875 0.883056640625
vt 0.499755859375 0.500244140625
vt 0.1785888671875 0.1171875
vt 0.2498779296875 0.0673828125
vt 0.499755859375 0.500244140625
vt 0.1785888671875 0.883056640625
vt 0.116943359375 0.8214111328125
vt 0.499755859375 0.500244140625
vt 0.116943359375 0.1787109375
vt 0.1785888671875 0.1171875
vt 0.499755859375 0.500244140625
vt 0.116943359375 0.8214111328125
vt 0.06695556640625 0.7501220703125
vt 0.499755859375 0.500244140625
vt 0.06695556640625 0.25048828125
vt 0.116943359375 0.1787109375
vt 0.499755859375 0.500244140625
vt 0.06695556640625 0.7501220703125
vt 0.0301513671875 0.671142578125
vt 0.499755859375 0.500244140625
vt 0.0301513671875 0.3291015625
vt 0.06695556640625 0.25048828125
vt 0.499755859375 0.500244140625
vt 0.0301513671875 0.671142578125
vt 0.007595062255859375 0.5869140625
vt 0.499755859375 0.500244140625
vt 0.007595062255859375 0.41357421875
vt 0.0301513671875 0.3291015625
vt 0.499755859375 0.500244140625
vt 0.007595062255859375 0.5869140625
vt 0.0 0.500244140625
vt 0.499755859375 0.500244140625
vt 0.0 0.500244140625
vt 0.007595062255859375 0.41357421875
vt 0.499755859375 0.500244140625
vn -0.880216658115387 0.47457191348075867 -4.2697192839113995e-06
vn -0.8802163004875183 0.4745727479457855 4.268079010216752e-06
vn -0.8802170157432556 0.4745714068412781 -3.5477438586895005e-07
vn -0.8802173137664795 0.4745708107948303 -3.2391659487984725e-07
vn -0.8802168369293213 0.47457176446914673 4.162307050137315e-06
vn -0.8802168965339661 0.47457167506217957 5.538639697988401e-07
vn -0.8802177906036377 0.4745699167251587 -1.510513016000914e-06
vn -0.8802163600921631 0.4745725989341736 -3.4976828828803264e-06
vn -0.8802176117897034 0.4745703935623169 -8.928803936214535e-07
vn -0.8802160024642944 0.4745733141899109 -3.920630206266651e-06
vn -0.8802171349525452 0.474571168422699 -1.3426933342941538e-08
vn -0.8802183270454407 0.4745689928531647 -4.6995668867566565e-07
vn -0.8802165985107422 0.47457221150398254 7.586197057207755e-07
vn -0.8802177309989929 0.4745699465274811 7.116001370377489e-07
vn -0.8802170753479004 0.4745714068412781 5.941401468589902e-07
vn -0.8802159428596497 0.4745733439922333 -2.3966933895280818e-06
vn -0.8802171945571899 0.4745711088180542 2.1800973115659872e-07
vn -0.8802178502082825 0.47456979751586914 -9.063078323379159e-07
vn -0.8802163004875183 0.4745725691318512 4.697639610640181e-07
vn -0.8802163600921631 0.47457262873649597 -9.395212146046106e-07
vn -0.8802163600921631 0.47457262873649597 5.035071808379143e-07
vn -0.8802162408828735 0.4745728075504303 -1.4329622217701399e-06
vn -0.8802168369293213 0.47457167506217957 8.727398039809486e-07
vn -0.8802193403244019 0.47456711530685425 -3.239189481973881e-06
vn -0.8802193403244019 0.4745672047138214 3.6587880458682775e-06
vn -0.8802189230918884 0.474567711353302 -2.1012565412092954e-06
vn -0.880219042301178 0.4745677411556244 1.993853175008553e-06
vn -0.8802160620689392 0.4745730757713318 1.9133262867399026e-06
vn -0.8802155256271362 0.47457411885261536 -4.941070528730052e-06
vn -0.8802154660224915 0.47457432746887207 2.9673374228877947e-06
vn -0.8802154064178467 0.4745742380619049 -3.9676542655797675e-06
vn -0.8802162408828735 0.47457271814346313 4.028102651432164e-08
vn -0.8802168369293213 0.4745715856552124 1.9737435650313273e-06
vn -0.880216658115387 0.47457215189933777 -5.135797778166307e-07
vn -0.8802170157432556 0.47457143664360046 1.1698028856699239e-06
vn -0.8802165389060974 0.4745722711086273 -1.3493944379661116e-06
vn -0.8802167773246765 0.4745718538761139 -2.9152913612051634e-06
f 1/1/1 2/2/2 3/3/3
f 4/4/4 1/5/1 3/6/3
f 2/7/2 5/8/5 3/9/3
f 6/10/6 4/11/4 3/12/3
f 5/13/5 7/14/7 3/15/3
f 8/16/8 6/17/6 3/18/3
f 7/19/7 9/20/9 3/21/3
f 10/22/10 8/23/8 3/24/3
f 9/25/9 11/26/11 3/27/3
f 12/28/12 10/29/10 3/30/3
f 11/31/11 13/32/13 3/33/3
f 14/34/14 12/35/12 3/36/3
f 13/37/13 15/38/15 3/39/3
f 16/40/16 14/41/14 3/42/3
f 15/43/15 17/44/17 3/45/3
f 18/46/18 16/47/16 3/48/3
f 17/49/17 19/50/19 3/51/3
f 20/52/20 18/53/18 3/54/3
f 19/55/19 21/56/21 3/57/3
f 22/58/22 20/59/20 3/60/3
f 21/61/21 23/62/23 3/63/3
f 24/64/24 22/65/22 3/66/3
f 23/67/23 25/68/25 3/69/3
f 26/70/26 24/71/24 3/72/3
f 25/73/25 27/74/27 3/75/3
f 28/76/28 26/77/26 3/78/3
f 27/79/27 29/80/29 3/81/3
f 30/82/30 28/83/28 3/84/3
f 29/85/29 31/86/31 3/87/3
f 32/88/32 30/89/30 3/90/3
f 31/91/31 33/92/33 3/93/3
f 34/94/34 32/95/32 3/96/3
f 33/97/33 35/98/35 3/99/3
f 36/100/36 34/101/34 3/102/3
f 35/103/35 37/104/37 3/105/3
f 37/106/37 36/107/36 3/108/3
