# Exported by Lightwave Blender addon
v 9.852496147155762 625.828369140625 72.25618743896484
v 9.955604553222656 626.0195922851562 74.73951721191406
v 16.639297485351562 638.416259765625 72.25618743896484
v 9.955608367919922 626.0196533203125 69.7728500366211
v 10.261789321899414 626.5874633789062 77.14738464355469
v 10.261795043945312 626.5874633789062 67.36498260498047
v 10.761754989624023 627.5148315429688 79.4066390991211
v 10.761758804321289 627.5148315429688 65.10572814941406
v 11.440305709838867 628.7733764648438 81.4486312866211
v 11.4403076171875 628.7733764648438 63.06373596191406
v 12.276826858520508 630.324951171875 83.21131134033203
v 12.276829719543457 630.3248901367188 61.301055908203125
v 13.245896339416504 632.122314453125 84.6411361694336
v 13.245901107788086 632.122314453125 59.87123489379883
v 14.318073272705078 634.1109619140625 85.69464111328125
v 14.318078994750977 634.1109619140625 58.81772994995117
v 15.460780143737793 636.2304077148438 86.33982849121094
v 15.460787773132324 636.2304077148438 58.172542572021484
v 16.639293670654297 638.416259765625 86.55709075927734
v 16.639301300048828 638.416259765625 57.955284118652344
v 17.817808151245117 640.6021118164062 86.33982849121094
v 17.81781578063965 640.6021118164062 58.172542572021484
v 18.96051597595215 642.7215576171875 85.69464874267578
v 18.96052360534668 642.7215576171875 58.81773376464844
v 20.03269386291504 644.710205078125 84.6411361694336
v 20.03270149230957 644.710205078125 59.871238708496094
v 21.00176429748535 646.5076293945312 83.21131896972656
v 21.00177001953125 646.507568359375 61.30106735229492
v 21.838281631469727 648.0591430664062 81.44863891601562
v 21.83829116821289 648.0591430664062 63.06374740600586
v 22.516834259033203 649.3177490234375 79.4066390991211
v 22.516841888427734 649.3177490234375 65.10574340820312
v 23.016796112060547 650.2450561523438 77.14738464355469
v 23.01680564880371 650.2450561523438 67.36499786376953
v 23.322986602783203 650.8129272460938 74.73951721191406
v 23.322988510131836 650.8129272460938 69.77286529541016
v 23.42609405517578 651.004150390625 72.25619506835938
vt 1.0 0.5
vt 0.9921875 0.5869140625
vt 0.499755859375 0.500244140625
vt 0.9921875 0.41357421875
vt 1.0 0.5
vt 0.499755859375 0.500244140625
vt 0.9921875 0.5869140625
vt 0.9697265625 0.671142578125
vt 0.499755859375 0.500244140625
vt 0.9697265625 0.3291015625
vt 0.9921875 0.41357421875
vt 0.499755859375 0.500244140625
vt 0.9697265625 0.671142578125
vt 0.9326171875 0.75
vt 0.499755859375 0.500244140625
vt 0.9326171875 0.25
vt 0.9697265625 0.3291015625
vt 0.499755859375 0.500244140625
vt 0.9326171875 0.75
vt 0.8828125 0.8214111328125
vt 0.499755859375 0.500244140625
vt 0.8828125 0.1787109375
vt 0.9326171875 0.25
vt 0.499755859375 0.500244140625
vt 0.8828125 0.8214111328125
vt 0.8212890625 0.883056640625
vt 0.499755859375 0.500244140625
vt 0.8212890625 0.1171875
vt 0.8828125 0.1787109375
vt 0.499755859375 0.500244140625
vt 0.8212890625 0.883056640625
vt 0.75 0.93304443359375
vt 0.499755859375 0.500244140625
vt 0.74951171875 0.0673828125
vt 0.8212890625 0.1171875
vt 0.499755859375 0.500244140625
vt 0.75 0.93304443359375
vt 0.6708984375 0.9698486328125
vt 0.499755859375 0.500244140625
vt 0.6708984375 0.0302734375
vt 0.74951171875 0.0673828125
vt 0.499755859375 0.500244140625
vt 0.6708984375 0.9698486328125
vt 0.58642578125 0.9924049377441406
vt 0.499755859375 0.500244140625
vt 0.58642578125 0.0078125
vt 0.6708984375 0.0302734375
vt 0.499755859375 0.500244140625
vt 0.58642578125 0.9924049377441406
vt 0.5 1.0
vt 0.499755859375 0.500244140625
vt 0.499755859375 0.0
vt 0.58642578125 0.0078125
vt 0.499755859375 0.500244140625
vt 0.5 1.0
vt 0.4130859375 0.9924049377441406
vt 0.499755859375 0.500244140625
vt 0.4130859375 0.0078125
vt 0.499755859375 0.0
vt 0.499755859375 0.500244140625
vt 0.4130859375 0.9924049377441406
vt 0.328857421875 0.9698486328125
vt 0.499755859375 0.500244140625
vt 0.328857421875 0.0302734375
vt 0.4130859375 0.0078125
vt 0.499755859375 0.500244140625
vt 0.328857421875 0.9698486328125
vt 0.25 0.93304443359375
vt 0.499755859375 0.500244140625
vt 0.2498779296875 0.0673828125
vt 0.328857421875 0.0302734375
vt 0.499755859375 0.500244140625
vt 0.25 0.93304443359375
vt 0.1785888671875 0.883056640625
vt 0.499755859375 0.500244140625
vt 0.1785888671875 0.1171875
vt 0.2498779296875 0.0673828125
vt 0.499755859375 0.500244140625
vt 0.1785888671875 0.883056640625
vt 0.116943359375 0.8214111328125
vt 0.499755859375 0.500244140625
vt 0.116943359375 0.1787109375
vt 0.1785888671875 0.1171875
vt 0.499755859375 0.500244140625
vt 0.116943359375 0.8214111328125
vt 0.06695556640625 0.7501220703125
vt 0.499755859375 0.500244140625
vt 0.06695556640625 0.25048828125
vt 0.116943359375 0.1787109375
vt 0.499755859375 0.500244140625
vt 0.06695556640625 0.7501220703125
vt 0.0301513671875 0.671142578125
vt 0.499755859375 0.500244140625
vt 0.0301513671875 0.3291015625
vt 0.06695556640625 0.25048828125
vt 0.499755859375 0.500244140625
vt 0.0301513671875 0.671142578125
vt 0.007595062255859375 0.5869140625
vt 0.499755859375 0.500244140625
vt 0.007595062255859375 0.41357421875
vt 0.0301513671875 0.3291015625
vt 0.499755859375 0.500244140625
vt 0.007595062255859375 0.5869140625
vt 0.0 0.500244140625
vt 0.499755859375 0.500244140625
vt 0.0 0.500244140625
vt 0.007595062255859375 0.41357421875
vt 0.499755859375 0.500244140625
vn -0.8802168965339661 0.47457176446914673 5.155867711437168e-06
vn -0.8802167773246765 0.4745718836784363 4.486245870793937e-06
vn -0.8802171349525452 0.47457122802734375 -3.988802461662999e-07
vn -0.8802158236503601 0.47457361221313477 -5.17453645443311e-06
vn -0.8802179098129272 0.47456976771354675 -1.5675168469897471e-06
vn -0.8802170753479004 0.47457125782966614 -4.034820904053049e-06
vn -0.8802178502082825 0.47456979751586914 -4.021314907731721e-06
vn -0.8802180886268616 0.4745693802833557 4.484536020754604e-06
vn -0.8802175521850586 0.4745704233646393 -1.7991751519730315e-06
vn -0.8802158832550049 0.4745734930038452 -2.6182563033216866e-06
vn -0.8802165389060974 0.4745723009109497 -7.384473406091274e-07
vn -0.8802170753479004 0.4745713472366333 -1.275579734283383e-06
vn -0.8802163600921631 0.4745725989341736 5.706492061108293e-07
vn -0.8802186846733093 0.4745684266090393 1.8394606513538747e-06
vn -0.8802173733711243 0.47457075119018555 -9.96938638309075e-07
vn -0.8802171349525452 0.47457101941108704 4.967898803442949e-07
vn -0.8802163004875183 0.4745725691318512 -3.355825981543603e-07
vn -0.8802162408828735 0.4745728373527527 -1.8461933848357148e-07
vn -0.8802160620689392 0.4745732247829437 -2.3488189526688075e-07
vn -0.8802160024642944 0.4745732247829437 -2.3488189526688075e-07
vn -0.8802162408828735 0.4745728373527527 -1.309120136738784e-07
vn -0.8802161812782288 0.4745728671550751 -3.3222576689695416e-07
vn -0.8802172541618347 0.4745709002017975 5.50496508822107e-07
vn -0.8802172541618347 0.4745710790157318 -9.93581352304318e-07
vn -0.8802186250686646 0.47456830739974976 1.92673451238079e-06
vn -0.8802163600921631 0.47457271814346313 4.0952525637294457e-07
vn -0.8802173733711243 0.47457069158554077 -6.64656681692577e-07
vn -0.8802164793014526 0.47457221150398254 -9.398509632774221e-07
vn -0.8802177906036377 0.4745699465274811 1.7588494074516348e-06
vn -0.8802192807197571 0.4745672345161438 -6.3374031924468e-06
vn -0.8802188634872437 0.47456786036491394 3.1216545721690636e-06
vn -0.8802186846733093 0.47456827759742737 -3.3566184356459416e-06
vn -0.8802171349525452 0.4745711088180542 -4.43755970991333e-06
vn -0.8802170157432556 0.4745713174343109 3.2761431612016167e-06
vn -0.8802167773246765 0.47457173466682434 -5.360681370802922e-06
vn -0.8802168369293213 0.4745716452598572 3.6722472032124642e-06
vn -0.8802169561386108 0.47457146644592285 -3.390320273410907e-07
f 1/1/1 2/2/2 3/3/3
f 4/4/4 1/5/1 3/6/3
f 2/7/2 5/8/5 3/9/3
f 6/10/6 4/11/4 3/12/3
f 5/13/5 7/14/7 3/15/3
f 8/16/8 6/17/6 3/18/3
f 7/19/7 9/20/9 3/21/3
f 10/22/10 8/23/8 3/24/3
f 9/25/9 11/26/11 3/27/3
f 12/28/12 10/29/10 3/30/3
f 11/31/11 13/32/13 3/33/3
f 14/34/14 12/35/12 3/36/3
f 13/37/13 15/38/15 3/39/3
f 16/40/16 14/41/14 3/42/3
f 15/43/15 17/44/17 3/45/3
f 18/46/18 16/47/16 3/48/3
f 17/49/17 19/50/19 3/51/3
f 20/52/20 18/53/18 3/54/3
f 19/55/19 21/56/21 3/57/3
f 22/58/22 20/59/20 3/60/3
f 21/61/21 23/62/23 3/63/3
f 24/64/24 22/65/22 3/66/3
f 23/67/23 25/68/25 3/69/3
f 26/70/26 24/71/24 3/72/3
f 25/73/25 27/74/27 3/75/3
f 28/76/28 26/77/26 3/78/3
f 27/79/27 29/80/29 3/81/3
f 30/82/30 28/83/28 3/84/3
f 29/85/29 31/86/31 3/87/3
f 32/88/32 30/89/30 3/90/3
f 31/91/31 33/92/33 3/93/3
f 34/94/34 32/95/32 3/96/3
f 33/97/33 35/98/35 3/99/3
f 36/100/36 34/101/34 3/102/3
f 35/103/35 37/104/37 3/105/3
f 37/106/37 36/107/36 3/108/3
