# Exported by Lightwave Blender addon
v 91.2882308959961 817.0332641601562 414.82696533203125
v 91.66940307617188 816.8277587890625 414.463623046875
v 91.3746337890625 816.9866943359375 415.3836669921875
v 92.13697052001953 816.57568359375 414.656982421875
v 92.22338104248047 816.529052734375 415.21368408203125
v 91.84220886230469 816.7345581054688 415.5770263671875
v 92.66590118408203 819.3817749023438 415.3836975097656
v 92.57949829101562 819.4282836914062 414.8269958496094
v 95.52257537841797 824.68017578125 415.3836975097656
v 95.41815948486328 824.6934204101562 414.8270263671875
v 96.24944305419922 825.5414428710938 415.1897888183594
v 92.9606704711914 819.2227172851562 414.463623046875
v 93.42823791503906 818.970703125 414.656982421875
v 95.76331329345703 824.4210205078125 414.46368408203125
v 96.21287536621094 824.1355590820312 414.6570129394531
v 96.07292175292969 825.4691772460938 414.65234375
v 97.21940612792969 825.9738159179688 414.6455993652344
v 96.27388763427734 825.0260620117188 414.3274230957031
v 96.65135955810547 824.6550903320312 414.5400085449219
v 96.92066192626953 825.8470458984375 414.17669677734375
v 98.16521453857422 825.8255615234375 413.8880310058594
v 96.87714385986328 825.2948608398438 413.98895263671875
v 97.13238525390625 824.8695068359375 414.2701416015625
v 97.74928283691406 825.71728515625 413.5129699707031
v 98.81320190429688 825.1121215820312 413.1252746582031
v 97.47139739990234 825.2017822265625 413.5129699707031
v 97.60943603515625 824.7947387695312 413.8880310058594
v 98.31751251220703 825.0914306640625 412.8441162109375
v 98.98614501953125 824.0570678710938 412.5773620605469
v 97.88013458251953 824.7516479492188 413.0318603515625
v 97.93843078613281 824.4324951171875 413.5007629394531
v 98.46881866455078 824.1685180664062 412.36480712890625
v 98.66373443603516 822.9686279296875 412.38214111328125
v 97.9881362915039 824.0928344726562 412.6897277832031
v 98.02478790283203 823.9057006835938 413.22723388671875
v 98.17816162109375 823.1873779296875 412.18878173828125
v 95.8145751953125 817.6841430664062 412.38214111328125
v 97.76097869873047 823.3259887695312 412.5521545410156
v 97.8293685913086 823.2460327148438 413.10882568359375
v 95.34701538085938 817.9361572265625 412.18878173828125
v 94.46731567382812 815.1851806640625 412.3821105957031
v 93.999755859375 815.4373168945312 412.18878173828125
v 94.9658432006836 818.1416625976562 412.5521240234375
v 95.05224609375 818.0950317382812 413.1088562011719
v 93.61858367919922 815.642822265625 412.5521240234375
v 93.70498657226562 815.5962524414062 413.1088562011719
v 93.51464080810547 818.9241333007812 415.21368408203125
v 96.3172836303711 824.1224365234375 415.21368408203125
v 93.13347625732422 819.129638671875 415.5770568847656
v 95.97213745117188 824.3947143554688 415.5770568847656
v 96.8278579711914 824.7273559570312 415.0774841308594
v 96.62689208984375 825.1705322265625 415.4023742675781
v 97.43112182617188 824.9962768554688 414.7390441894531
v 97.47464752197266 825.5484619140625 414.9267578125
v 98.0253677368164 824.903076171875 414.2630310058594
v 98.30326080322266 825.4185791015625 414.2629699707031
v 98.43411254882812 824.4530639648438 413.78192138671875
v 98.87149047851562 824.7928466796875 413.59417724609375
v 98.5421142578125 823.794189453125 413.4397888183594
v 99.02279663085938 823.869873046875 413.1148681640625
v 98.31494903564453 823.0272827148438 413.3021545410156
v 98.73213195800781 822.888671875 412.9388427734375
v 95.51982116699219 817.843017578125 413.3022155761719
v 94.17256164550781 815.3441162109375 413.3022155761719
v 95.9009780883789 817.6375122070312 412.9388427734375
v 94.55371856689453 815.1387329101562 412.9388122558594
vt 1.1640625 0.939483642578125
vt 1.1640625 0.8184814453125
vt 1.1640625 1.0
vt 1.1640625 0.8184814453125
vt 1.1640625 0.7579345703125
vt 1.1640625 1.0
vt 1.1640625 0.7579345703125
vt 1.1640625 0.8184814453125
vt 1.1640625 1.0
vt 1.1640625 0.8184814453125
vt 1.1640625 0.939483642578125
vt 1.1640625 1.0
vt 1.1640625 1.0
vt 0.919921875 1.0
vt 1.1640625 0.939483642578125
vt 0.919921875 1.0
vt 0.919921875 0.939483642578125
vt 1.1640625 0.939483642578125
vt 0.919921875 1.0
vt 0.378662109375 1.0
vt 0.919921875 0.939483642578125
vt 1.1640625 0.939483642578125
vt 0.919921875 0.939483642578125
vt 1.1640625 0.8184814453125
vt 0.378662109375 1.0
vt 0.382080078125 0.939483642578125
vt 0.919921875 0.939483642578125
vt 0.378662109375 1.0
vt 0.279541015625 0.9354248046875
vt 0.382080078125 0.939483642578125
vt 0.919921875 0.939483642578125
vt 0.919921875 0.8184814453125
vt 1.1640625 0.8184814453125
vt 0.919921875 0.939483642578125
vt 0.382080078125 0.939483642578125
vt 0.919921875 0.8184814453125
vt 1.1640625 0.8184814453125
vt 0.919921875 0.8184814453125
vt 1.1640625 0.7579345703125
vt 0.919921875 0.8184814453125
vt 0.919921875 0.7579345703125
vt 1.1640625 0.7579345703125
vt 0.919921875 0.8184814453125
vt 0.388916015625 0.8184814453125
vt 0.919921875 0.7579345703125
vt 0.382080078125 0.939483642578125
vt 0.388916015625 0.8184814453125
vt 0.919921875 0.8184814453125
vt 0.388916015625 0.8184814453125
vt 0.392333984375 0.7579345703125
vt 0.919921875 0.7579345703125
vt 0.279541015625 0.9354248046875
vt 0.292724609375 0.88128662109375
vt 0.382080078125 0.939483642578125
vt 0.382080078125 0.939483642578125
vt 0.292724609375 0.88128662109375
vt 0.388916015625 0.8184814453125
vt 0.279541015625 0.9354248046875
vt 0.203857421875 0.754150390625
vt 0.292724609375 0.88128662109375
vt 0.388916015625 0.8184814453125
vt 0.319091796875 0.7730712890625
vt 0.392333984375 0.7579345703125
vt 0.292724609375 0.88128662109375
vt 0.319091796875 0.7730712890625
vt 0.388916015625 0.8184814453125
vt 0.319091796875 0.7730712890625
vt 0.33251953125 0.718994140625
vt 0.392333984375 0.7579345703125
vt 0.203857421875 0.754150390625
vt 0.2266845703125 0.722900390625
vt 0.292724609375 0.88128662109375
vt 0.292724609375 0.88128662109375
vt 0.2266845703125 0.722900390625
vt 0.319091796875 0.7730712890625
vt 0.203857421875 0.754150390625
vt 0.17529296875 0.501708984375
vt 0.2266845703125 0.722900390625
vt 0.319091796875 0.7730712890625
vt 0.272216796875 0.660400390625
vt 0.33251953125 0.718994140625
vt 0.2266845703125 0.722900390625
vt 0.272216796875 0.660400390625
vt 0.319091796875 0.7730712890625
vt 0.272216796875 0.660400390625
vt 0.294921875 0.629150390625
vt 0.33251953125 0.718994140625
vt 0.17529296875 0.501708984375
vt 0.2015380859375 0.501708984375
vt 0.2266845703125 0.722900390625
vt 0.2266845703125 0.722900390625
vt 0.2015380859375 0.501708984375
vt 0.272216796875 0.660400390625
vt 0.17529296875 0.501708984375
vt 0.2041015625 0.248046875
vt 0.2015380859375 0.501708984375
vt 0.272216796875 0.660400390625
vt 0.254150390625 0.501708984375
vt 0.294921875 0.629150390625
vt 0.2015380859375 0.501708984375
vt 0.254150390625 0.501708984375
vt 0.272216796875 0.660400390625
vt 0.254150390625 0.501708984375
vt 0.280517578125 0.501708984375
vt 0.294921875 0.629150390625
vt 0.2041015625 0.248046875
vt 0.226806640625 0.279296875
vt 0.2015380859375 0.501708984375
vt 0.2015380859375 0.501708984375
vt 0.226806640625 0.279296875
vt 0.254150390625 0.501708984375
vt 0.2041015625 0.248046875
vt 0.280029296875 0.0654296875
vt 0.226806640625 0.279296875
vt 0.254150390625 0.501708984375
vt 0.2724609375 0.341796875
vt 0.280517578125 0.501708984375
vt 0.226806640625 0.279296875
vt 0.2724609375 0.341796875
vt 0.254150390625 0.501708984375
vt 0.2724609375 0.341796875
vt 0.295166015625 0.373046875
vt 0.280517578125 0.501708984375
vt 0.280029296875 0.0654296875
vt 0.29345703125 0.11962890625
vt 0.226806640625 0.279296875
vt 0.226806640625 0.279296875
vt 0.29345703125 0.11962890625
vt 0.2724609375 0.341796875
vt 0.280029296875 0.0654296875
vt 0.380126953125 0.0
vt 0.29345703125 0.11962890625
vt 0.2724609375 0.341796875
vt 0.31982421875 0.2275390625
vt 0.295166015625 0.373046875
vt 0.29345703125 0.11962890625
vt 0.31982421875 0.2275390625
vt 0.2724609375 0.341796875
vt 0.31982421875 0.2275390625
vt 0.333251953125 0.28173828125
vt 0.295166015625 0.373046875
vt 0.380126953125 0.0
vt 0.383544921875 0.060546875
vt 0.29345703125 0.11962890625
vt 0.29345703125 0.11962890625
vt 0.383544921875 0.060546875
vt 0.31982421875 0.2275390625
vt 0.380126953125 0.0
vt 0.919921875 0.00048828125
vt 0.383544921875 0.060546875
vt 0.31982421875 0.2275390625
vt 0.390380859375 0.181640625
vt 0.333251953125 0.28173828125
vt 0.383544921875 0.060546875
vt 0.390380859375 0.181640625
vt 0.31982421875 0.2275390625
vt 0.390380859375 0.181640625
vt 0.393798828125 0.2421875
vt 0.333251953125 0.28173828125
vt 0.919921875 0.00048828125
vt 0.919921875 0.060546875
vt 0.383544921875 0.060546875
vt 0.383544921875 0.060546875
vt 0.919921875 0.060546875
vt 0.390380859375 0.181640625
vt 0.919921875 0.00048828125
vt 1.1748046875 0.0
vt 0.919921875 0.060546875
vt 1.1748046875 0.0
vt 1.1748046875 0.060546875
vt 0.919921875 0.060546875
vt 0.390380859375 0.181640625
vt 0.919921875 0.181640625
vt 0.393798828125 0.2421875
vt 0.919921875 0.060546875
vt 0.919921875 0.181640625
vt 0.390380859375 0.181640625
vt 0.919921875 0.060546875
vt 1.1748046875 0.060546875
vt 0.919921875 0.181640625
vt 0.919921875 0.181640625
vt 0.919921875 0.2421875
vt 0.393798828125 0.2421875
vt 1.1748046875 0.060546875
vt 1.1748046875 0.181640625
vt 0.919921875 0.181640625
vt 0.919921875 0.181640625
vt 1.1748046875 0.181640625
vt 0.919921875 0.2421875
vt 1.1748046875 0.181640625
vt 1.1748046875 0.2421875
vt 0.919921875 0.2421875
vt 1.1640625 0.7579345703125
vt 0.919921875 0.7579345703125
vt 1.1640625 0.8184814453125
vt 0.919921875 0.7579345703125
vt 0.919921875 0.8184814453125
vt 1.1640625 0.8184814453125
vt 0.919921875 0.7579345703125
vt 0.392333984375 0.7579345703125
vt 0.919921875 0.8184814453125
vt 1.1640625 0.8184814453125
vt 0.919921875 0.8184814453125
vt 1.1640625 0.939483642578125
vt 0.392333984375 0.7579345703125
vt 0.388916015625 0.8184814453125
vt 0.919921875 0.8184814453125
vt 0.392333984375 0.7579345703125
vt 0.33251953125 0.718994140625
vt 0.388916015625 0.8184814453125
vt 0.919921875 0.8184814453125
vt 0.919921875 0.939483642578125
vt 1.1640625 0.939483642578125
vt 0.919921875 0.8184814453125
vt 0.388916015625 0.8184814453125
vt 0.919921875 0.939483642578125
vt 1.1640625 0.939483642578125
vt 0.919921875 0.939483642578125
vt 1.1640625 1.0
vt 0.919921875 0.939483642578125
vt 0.919921875 1.0
vt 1.1640625 1.0
vt 0.919921875 0.939483642578125
vt 0.382080078125 0.939483642578125
vt 0.919921875 1.0
vt 0.388916015625 0.8184814453125
vt 0.382080078125 0.939483642578125
vt 0.919921875 0.939483642578125
vt 0.382080078125 0.939483642578125
vt 0.378662109375 1.0
vt 0.919921875 1.0
vt 0.33251953125 0.718994140625
vt 0.319091796875 0.7730712890625
vt 0.388916015625 0.8184814453125
vt 0.388916015625 0.8184814453125
vt 0.319091796875 0.7730712890625
vt 0.382080078125 0.939483642578125
vt 0.33251953125 0.718994140625
vt 0.294921875 0.629150390625
vt 0.319091796875 0.7730712890625
vt 0.382080078125 0.939483642578125
vt 0.292724609375 0.88128662109375
vt 0.378662109375 1.0
vt 0.319091796875 0.7730712890625
vt 0.292724609375 0.88128662109375
vt 0.382080078125 0.939483642578125
vt 0.292724609375 0.88128662109375
vt 0.279541015625 0.9354248046875
vt 0.378662109375 1.0
vt 0.294921875 0.629150390625
vt 0.272216796875 0.660400390625
vt 0.319091796875 0.7730712890625
vt 0.319091796875 0.7730712890625
vt 0.272216796875 0.660400390625
vt 0.292724609375 0.88128662109375
vt 0.294921875 0.629150390625
vt 0.280517578125 0.501708984375
vt 0.272216796875 0.660400390625
vt 0.292724609375 0.88128662109375
vt 0.2266845703125 0.722900390625
vt 0.279541015625 0.9354248046875
vt 0.272216796875 0.660400390625
vt 0.2266845703125 0.722900390625
vt 0.292724609375 0.88128662109375
vt 0.2266845703125 0.722900390625
vt 0.203857421875 0.754150390625
vt 0.279541015625 0.9354248046875
vt 0.280517578125 0.501708984375
vt 0.254150390625 0.501708984375
vt 0.272216796875 0.660400390625
vt 0.272216796875 0.660400390625
vt 0.254150390625 0.501708984375
vt 0.2266845703125 0.722900390625
vt 0.280517578125 0.501708984375
vt 0.295166015625 0.373046875
vt 0.254150390625 0.501708984375
vt 0.2266845703125 0.722900390625
vt 0.2015380859375 0.501708984375
vt 0.203857421875 0.754150390625
vt 0.254150390625 0.501708984375
vt 0.2015380859375 0.501708984375
vt 0.2266845703125 0.722900390625
vt 0.2015380859375 0.501708984375
vt 0.17529296875 0.501708984375
vt 0.203857421875 0.754150390625
vt 0.295166015625 0.373046875
vt 0.2724609375 0.341796875
vt 0.254150390625 0.501708984375
vt 0.254150390625 0.501708984375
vt 0.2724609375 0.341796875
vt 0.2015380859375 0.501708984375
vt 0.295166015625 0.373046875
vt 0.333251953125 0.28173828125
vt 0.2724609375 0.341796875
vt 0.2015380859375 0.501708984375
vt 0.226806640625 0.279296875
vt 0.17529296875 0.501708984375
vt 0.2724609375 0.341796875
vt 0.226806640625 0.279296875
vt 0.2015380859375 0.501708984375
vt 0.226806640625 0.279296875
vt 0.2041015625 0.248046875
vt 0.17529296875 0.501708984375
vt 0.333251953125 0.28173828125
vt 0.31982421875 0.2275390625
vt 0.2724609375 0.341796875
vt 0.2724609375 0.341796875
vt 0.31982421875 0.2275390625
vt 0.226806640625 0.279296875
vt 0.333251953125 0.28173828125
vt 0.393798828125 0.2421875
vt 0.31982421875 0.2275390625
vt 0.226806640625 0.279296875
vt 0.29345703125 0.11962890625
vt 0.2041015625 0.248046875
vt 0.31982421875 0.2275390625
vt 0.29345703125 0.11962890625
vt 0.226806640625 0.279296875
vt 0.29345703125 0.11962890625
vt 0.280029296875 0.0654296875
vt 0.2041015625 0.248046875
vt 0.393798828125 0.2421875
vt 0.390380859375 0.181640625
vt 0.31982421875 0.2275390625
vt 0.31982421875 0.2275390625
vt 0.390380859375 0.181640625
vt 0.29345703125 0.11962890625
vt 0.393798828125 0.2421875
vt 0.919921875 0.2421875
vt 0.390380859375 0.181640625
vt 0.29345703125 0.11962890625
vt 0.383544921875 0.060546875
vt 0.280029296875 0.0654296875
vt 0.390380859375 0.181640625
vt 0.383544921875 0.060546875
vt 0.29345703125 0.11962890625
vt 0.383544921875 0.060546875
vt 0.380126953125 0.0
vt 0.280029296875 0.0654296875
vt 0.919921875 0.2421875
vt 0.919921875 0.181640625
vt 0.390380859375 0.181640625
vt 0.390380859375 0.181640625
vt 0.919921875 0.181640625
vt 0.383544921875 0.060546875
vt 0.919921875 0.2421875
vt 1.1748046875 0.2421875
vt 0.919921875 0.181640625
vt 1.1748046875 0.2421875
vt 1.1748046875 0.181640625
vt 0.919921875 0.181640625
vt 0.383544921875 0.060546875
vt 0.919921875 0.060546875
vt 0.380126953125 0.0
vt 0.919921875 0.181640625
vt 0.919921875 0.060546875
vt 0.383544921875 0.060546875
vt 0.919921875 0.181640625
vt 1.1748046875 0.181640625
vt 0.919921875 0.060546875
vt 0.919921875 0.060546875
vt 0.919921875 0.00048828125
vt 0.380126953125 0.0
vt 1.1748046875 0.181640625
vt 1.1748046875 0.060546875
vt 0.919921875 0.060546875
vt 0.919921875 0.060546875
vt 1.1748046875 0.060546875
vt 0.919921875 0.00048828125
vt 1.1748046875 0.060546875
vt 1.1748046875 0.0
vt 0.919921875 0.00048828125
vt 1.1748046875 0.181640625
vt 1.1748046875 0.060546875
vt 1.1748046875 0.0
vt 1.1748046875 0.181640625
vt 1.1748046875 0.0
vt 1.1748046875 0.181640625
vt 1.1748046875 0.2421875
vt 1.1748046875 0.181640625
vt 1.1748046875 0.181640625
vt 1.1748046875 0.060546875
vt 1.1748046875 0.181640625
vt 1.1748046875 0.0
vn -0.9449000358581543 -0.1835833489894867 -0.27103716135025024
vn -0.4105757474899292 -0.47165489196777344 -0.7803648710250854
vn -0.823807954788208 -0.24885046482086182 0.5093268156051636
vn 0.24482649564743042 -0.8249941468238831 -0.5093570351600647
vn 0.3659203052520752 -0.8903155326843262 0.27099934220314026
vn -0.16841790080070496 -0.6022478342056274 0.780341625213623
vn -0.674307107925415 0.36354783177375793 0.6427618861198425
vn -0.8271229267120361 0.4459455609321594 -0.3420528769493103
vn -0.6051290035247803 0.47743546962738037 0.6370826959609985
vn -0.80021071434021 0.5113898515701294 -0.3132782280445099
vn -0.34346795082092285 0.7574321627616882 0.5552714467048645
vn -0.15281540155410767 0.08239606022834778 -0.984813928604126
vn 0.6743034720420837 -0.36354249715805054 -0.6427688002586365
vn -0.2193230390548706 0.047897715121507645 -0.9744758009910583
vn 0.6051394939422607 -0.4774687588214874 -0.6370477080345154
vn -0.6614157557487488 0.6716146469116211 -0.33386075496673584
vn 0.07439267635345459 0.9441653490066528 0.3209633529186249
vn -0.36525580286979675 -0.04724426195025444 -0.9297075867652893
vn 0.3434333801269531 -0.7574533820152283 -0.555263876914978
vn -0.43151286244392395 0.7741876244544983 -0.463066041469574
vn 0.4745875895023346 0.8802082538604736 7.823084888514131e-05
vn -0.543319582939148 -0.1276465505361557 -0.8297651410102844
vn -0.07435199618339539 -0.9441728591918945 -0.32095062732696533
vn -0.21072842180728912 0.7395503520965576 -0.6392642855644226
vn 0.7478758096694946 0.5810478925704956 -0.32103729248046875
vn -0.7139907479286194 -0.09871398657560349 -0.6931613087654114
vn -0.4745577871799469 -0.8802242875099182 1.4919106433808338e-05
vn -0.06102601811289787 0.5743422508239746 -0.8163374066352844
vn 0.8215177059173584 0.12929870188236237 -0.5553290843963623
vn -0.8311048746109009 0.027549367398023605 -0.5554328560829163
vn -0.7478834986686707 -0.5810480713844299 0.3210190534591675
vn -0.020147651433944702 0.32583579421043396 -0.94521164894104
vn 0.7314472794532776 -0.24320454895496368 -0.6370529532432556
vn -0.8622313141822815 0.22073273360729218 -0.4558883607387543
vn -0.8215242624282837 -0.1293104737997055 0.5553168058395386
vn -0.09344112873077393 0.13031044602394104 -0.9870602488517761
vn 0.6742920875549316 -0.363542377948761 -0.6427809000015259
vn -0.8411226868629456 0.3831560015678406 -0.3817119896411896
vn -0.7314476370811462 0.24316523969173431 0.6370675563812256
vn -0.15281297266483307 0.08239644765853882 -0.9848142266273499
vn 0.2448420375585556 -0.8250256776809692 -0.5092985033988953
vn -0.4106020927429199 -0.4716002345085144 -0.7803839445114136
vn -0.827134370803833 0.44595104455947876 -0.3420180678367615
vn -0.6742864847183228 0.36354637145996094 0.6427844762802124
vn -0.944907546043396 -0.18353937566280365 -0.27104052901268005
vn -0.8238134384155273 -0.24880750477313995 0.5093390345573425
vn 0.8271386623382568 -0.4459455907344818 0.34201478958129883
vn 0.7823392152786255 -0.4921484887599945 0.38175278902053833
vn 0.15285059809684753 -0.08241379261016846 0.9848068356513977
vn 0.16020601987838745 -0.00641786539927125 0.9870626926422119
vn 0.6582298874855042 -0.5990458130836487 0.45593610405921936
vn 0.2832562029361725 0.16228842735290527 0.9452134370803833
vn 0.4797613024711609 -0.6791481375694275 0.5555060505867004
vn 0.513390064239502 0.2648072838783264 0.8162767291069031
vn 0.3099559247493744 -0.6507279276847839 0.693166971206665
vn 0.7336542010307312 0.2303817719221115 0.6392775774002075
vn 0.1920524686574936 -0.5240235328674316 0.8297682404518127
vn 0.8839413523674011 0.06495940685272217 0.46306368708610535
vn 0.16122977435588837 -0.33106729388237 0.9297308325767517
vn 0.9245988726615906 -0.1835087239742279 0.33382871747016907
vn 0.16059286892414093 -0.15691225230693817 0.9744682312011719
vn 0.8669996857643127 -0.38749727606773376 0.3133010268211365
vn 0.15284329652786255 -0.0823986753821373 0.9848093390464783
vn -0.16833268105983734 -0.602256178855896 0.7803533673286438
vn 0.8271443843841553 -0.4459589123725891 0.3419836759567261
vn 0.36609703302383423 -0.8902273178100586 0.27105018496513367
f 1/1/1 2/2/2 3/3/3
f 2/4/2 4/5/4 3/6/3
f 4/7/4 5/8/5 3/9/3
f 5/10/5 6/11/6 3/12/3
f 3/13/3 7/14/7 1/15/1
f 7/16/7 8/17/8 1/18/1
f 7/19/7 9/20/9 8/21/8
f 1/22/1 8/23/8 2/24/2
f 9/25/9 10/26/10 8/27/8
f 9/28/9 11/29/11 10/30/10
f 8/31/8 12/32/12 2/33/2
f 8/34/8 10/35/10 12/36/12
f 2/37/2 12/38/12 4/39/4
f 12/40/12 13/41/13 4/42/4
f 12/43/12 14/44/14 13/45/13
f 10/46/10 14/47/14 12/48/12
f 14/49/14 15/50/15 13/51/13
f 11/52/11 16/53/16 10/54/10
f 10/55/10 16/56/16 14/57/14
f 11/58/11 17/59/17 16/60/16
f 14/61/14 18/62/18 15/63/15
f 16/64/16 18/65/18 14/66/14
f 18/67/18 19/68/19 15/69/15
f 17/70/17 20/71/20 16/72/16
f 16/73/16 20/74/20 18/75/18
f 17/76/17 21/77/21 20/78/20
f 18/79/18 22/80/22 19/81/19
f 20/82/20 22/83/22 18/84/18
f 22/85/22 23/86/23 19/87/19
f 21/88/21 24/89/24 20/90/20
f 20/91/20 24/92/24 22/93/22
f 21/94/21 25/95/25 24/96/24
f 22/97/22 26/98/26 23/99/23
f 24/100/24 26/101/26 22/102/22
f 26/103/26 27/104/27 23/105/23
f 25/106/25 28/107/28 24/108/24
f 24/109/24 28/110/28 26/111/26
f 25/112/25 29/113/29 28/114/28
f 26/115/26 30/116/30 27/117/27
f 28/118/28 30/119/30 26/120/26
f 30/121/30 31/122/31 27/123/27
f 29/124/29 32/125/32 28/126/28
f 28/127/28 32/128/32 30/129/30
f 29/130/29 33/131/33 32/132/32
f 30/133/30 34/134/34 31/135/31
f 32/136/32 34/137/34 30/138/30
f 34/139/34 35/140/35 31/141/31
f 33/142/33 36/143/36 32/144/32
f 32/145/32 36/146/36 34/147/34
f 33/148/33 37/149/37 36/150/36
f 34/151/34 38/152/38 35/153/35
f 36/154/36 38/155/38 34/156/34
f 38/157/38 39/158/39 35/159/35
f 37/160/37 40/161/40 36/162/36
f 36/163/36 40/164/40 38/165/38
f 37/166/37 41/167/41 40/168/40
f 41/169/41 42/170/42 40/171/40
f 38/172/38 43/173/43 39/174/39
f 40/175/40 43/176/43 38/177/38
f 40/178/40 42/179/42 43/180/43
f 43/181/43 44/182/44 39/183/39
f 42/184/42 45/185/45 43/186/43
f 43/187/43 45/188/45 44/189/44
f 45/190/45 46/191/46 44/192/44
f 4/193/4 13/194/13 5/195/5
f 13/196/13 47/197/47 5/198/5
f 13/199/13 15/200/15 47/201/47
f 5/202/5 47/203/47 6/204/6
f 15/205/15 48/206/48 47/207/47
f 15/208/15 19/209/19 48/210/48
f 47/211/47 49/212/49 6/213/6
f 47/214/47 48/215/48 49/216/49
f 6/217/6 49/218/49 3/219/3
f 49/220/49 7/221/7 3/222/3
f 49/223/49 50/224/50 7/225/7
f 48/226/48 50/227/50 49/228/49
f 50/229/50 9/230/9 7/231/7
f 19/232/19 51/233/51 48/234/48
f 48/235/48 51/236/51 50/237/50
f 19/238/19 23/239/23 51/240/51
f 50/241/50 52/242/52 9/243/9
f 51/244/51 52/245/52 50/246/50
f 52/247/52 11/248/11 9/249/9
f 23/250/23 53/251/53 51/252/51
f 51/253/51 53/254/53 52/255/52
f 23/256/23 27/257/27 53/258/53
f 52/259/52 54/260/54 11/261/11
f 53/262/53 54/263/54 52/264/52
f 54/265/54 17/266/17 11/267/11
f 27/268/27 55/269/55 53/270/53
f 53/271/53 55/272/55 54/273/54
f 27/274/27 31/275/31 55/276/55
f 54/277/54 56/278/56 17/279/17
f 55/280/55 56/281/56 54/282/54
f 56/283/56 21/284/21 17/285/17
f 31/286/31 57/287/57 55/288/55
f 55/289/55 57/290/57 56/291/56
f 31/292/31 35/293/35 57/294/57
f 56/295/56 58/296/58 21/297/21
f 57/298/57 58/299/58 56/300/56
f 58/301/58 25/302/25 21/303/21
f 35/304/35 59/305/59 57/306/57
f 57/307/57 59/308/59 58/309/58
f 35/310/35 39/311/39 59/312/59
f 58/313/58 60/314/60 25/315/25
f 59/316/59 60/317/60 58/318/58
f 60/319/60 29/320/29 25/321/25
f 39/322/39 61/323/61 59/324/59
f 59/325/59 61/326/61 60/327/60
f 39/328/39 44/329/44 61/330/61
f 60/331/60 62/332/62 29/333/29
f 61/334/61 62/335/62 60/336/60
f 62/337/62 33/338/33 29/339/29
f 44/340/44 63/341/63 61/342/61
f 61/343/61 63/344/63 62/345/62
f 44/346/44 46/347/46 63/348/63
f 46/349/46 64/350/64 63/351/63
f 62/352/62 65/353/65 33/354/33
f 63/355/63 65/356/65 62/357/62
f 63/358/63 64/359/64 65/360/65
f 65/361/65 37/362/37 33/363/33
f 64/364/64 66/365/66 65/366/65
f 65/367/65 66/368/66 37/369/37
f 66/370/66 41/371/41 37/372/37
f 45/373/45 42/374/42 41/375/41
f 45/376/45 41/377/41 64/378/64
f 46/379/46 45/380/45 64/381/64
f 66/382/66 64/383/64 41/384/41
