# Exported by Lightwave Blender addon
v 429.0119323730469 -263.15850830078125 498.3572998046875
v 428.9582824707031 -263.13763427734375 548.8948974609375
v 428.3884582519531 -264.62860107421875 498.3572998046875
v 428.37725830078125 -264.5735778808594 548.8728637695312
v 428.11669921875 -264.7891845703125 548.8687133789062
v 428.1234436035156 -264.8421325683594 498.3572692871094
v 427.1841735839844 -264.47711181640625 498.3572692871094
v 427.2249755859375 -264.442626953125 548.8687133789062
v 427.17840576171875 -264.107666015625 548.8728637695312
v 427.1329040527344 -264.140625 498.3572998046875
v 427.665771484375 -262.63531494140625 498.3572998046875
v 427.719482421875 -262.65618896484375 548.8948974609375
v 515.5646362304688 -296.7955017089844 498.35723876953125
v 515.510986328125 -296.7746276855469 548.8948364257812
v 514.941162109375 -298.26556396484375 498.3572692871094
v 514.929931640625 -298.2105712890625 548.872802734375
v 514.6693725585938 -298.4261474609375 548.86865234375
v 514.6761474609375 -298.4791259765625 498.35723876953125
v 513.7368774414062 -298.1141357421875 498.35723876953125
v 513.7777709960938 -298.07965087890625 548.86865234375
v 513.7311401367188 -297.7446594238281 548.872802734375
v 513.6856079101562 -297.77764892578125 498.3572692871094
v 514.218505859375 -296.2723388671875 498.35723876953125
v 514.272216796875 -296.2931823730469 548.8948364257812
v 420.17083740234375 -258.89166259765625 539.9951171875
v 522.962158203125 -298.8394775390625 539.9949951171875
v 418.9560241699219 -262.01751708984375 540.0186157226562
v 521.7473754882812 -301.96533203125 540.0185546875
v 521.64111328125 -302.2386474609375 540.23388671875
v 418.84979248046875 -262.29083251953125 540.2339477539062
v 418.8498229980469 -262.29083251953125 541.335205078125
v 521.64111328125 -302.2386474609375 541.335205078125
v 521.747314453125 -301.96533203125 541.5505981445312
v 418.9560241699219 -262.01751708984375 541.5506591796875
v 420.1708068847656 -258.89166259765625 541.5741577148438
v 522.962158203125 -298.8394775390625 541.5740966796875
v 420.17083740234375 -258.89166259765625 497.10107421875
v 522.962158203125 -298.8394775390625 497.10101318359375
v 418.9560241699219 -262.01751708984375 497.1246032714844
v 521.7473754882812 -301.96533203125 497.1245422363281
v 521.64111328125 -302.2386169433594 497.3399353027344
v 418.8497619628906 -262.29083251953125 497.34002685546875
v 418.8498229980469 -262.29083251953125 498.44122314453125
v 521.64111328125 -302.2386169433594 498.4411926269531
v 521.7473754882812 -301.96533203125 498.6565856933594
v 418.9560241699219 -262.01751708984375 498.6566467285156
v 420.1708068847656 -258.89166259765625 498.6801452636719
v 522.962158203125 -298.8394775390625 498.68011474609375
v 419.2840576171875 -258.1726379394531 548.2037963867188
v 419.2840576171875 -258.172607421875 548.7239379882812
v 524.3857421875 -298.9896240234375 548.7238159179688
v 524.3857421875 -298.9896240234375 548.2037353515625
v 524.2706909179688 -299.28753662109375 548.025146484375
v 419.172119140625 -258.4716491699219 548.0252075195312
v 418.1865539550781 -261.1044006347656 548.025146484375
v 523.2771606445312 -301.8605041503906 548.025146484375
v 523.162109375 -302.158447265625 548.2037353515625
v 418.0745849609375 -261.4034423828125 548.2037963867188
v 418.0745849609375 -261.4034423828125 548.7239379882812
v 523.162109375 -302.158447265625 548.723876953125
vt 0.96044921875 0.53076171875
vt 0.6474609375 0.5302734375
vt 0.96044921875 0.525390625
vt 0.6474609375 0.5302734375
vt 0.6474609375 0.525146484375
vt 0.96044921875 0.525390625
vt 0.96044921875 0.525390625
vt 0.6474609375 0.525146484375
vt 0.6474609375 0.523681640625
vt 0.96044921875 0.52392578125
vt 0.96044921875 0.525390625
vt 0.6474609375 0.523681640625
vt 0.96044921875 0.52392578125
vt 0.6474609375 0.523681640625
vt 0.96044921875 0.517822265625
vt 0.6474609375 0.523681640625
vt 0.6474609375 0.517822265625
vt 0.96044921875 0.517822265625
vt 0.6474609375 0.517822265625
vt 0.6474609375 0.5166015625
vt 0.96044921875 0.517822265625
vt 0.6474609375 0.5166015625
vt 0.96044921875 0.516357421875
vt 0.96044921875 0.517822265625
vt 0.96044921875 0.510986328125
vt 0.96044921875 0.516357421875
vt 0.6474609375 0.5166015625
vt 0.6474609375 0.51123046875
vt 0.96044921875 0.510986328125
vt 0.6474609375 0.5166015625
vt 0.96044921875 0.41748046875
vt 0.6474609375 0.4169921875
vt 0.96044921875 0.412109375
vt 0.6474609375 0.4169921875
vt 0.6474609375 0.41162109375
vt 0.96044921875 0.412109375
vt 0.96044921875 0.412109375
vt 0.6474609375 0.41162109375
vt 0.6474609375 0.41015625
vt 0.96044921875 0.41064453125
vt 0.96044921875 0.412109375
vt 0.6474609375 0.41015625
vt 0.96044921875 0.41064453125
vt 0.6474609375 0.41015625
vt 0.96044921875 0.404296875
vt 0.6474609375 0.41015625
vt 0.6474609375 0.404296875
vt 0.96044921875 0.404296875
vt 0.6474609375 0.404296875
vt 0.6474609375 0.40283203125
vt 0.96044921875 0.404296875
vt 0.6474609375 0.40283203125
vt 0.96044921875 0.40283203125
vt 0.96044921875 0.404296875
vt 0.96044921875 0.3974609375
vt 0.96044921875 0.40283203125
vt 0.6474609375 0.40283203125
vt 0.6474609375 0.39794921875
vt 0.96044921875 0.3974609375
vt 0.6474609375 0.40283203125
vt 1.3857421875 0.06787109375
vt 2.08984375 0.06787109375
vt 1.3857421875 0.07958984375
vt 2.08984375 0.06787109375
vt 2.08984375 0.07958984375
vt 1.3857421875 0.07958984375
vt 1.3857421875 0.07958984375
vt 2.08984375 0.07958984375
vt 2.08984375 0.08154296875
vt 1.3857421875 0.08154296875
vt 1.3857421875 0.07958984375
vt 2.08984375 0.08154296875
vt 1.3857421875 0.08154296875
vt 2.08984375 0.08154296875
vt 1.3857421875 0.08837890625
vt 2.08984375 0.08154296875
vt 2.08984375 0.08837890625
vt 1.3857421875 0.08837890625
vt 2.08984375 0.08837890625
vt 2.08984375 0.08984375
vt 1.3857421875 0.08837890625
vt 2.08984375 0.08984375
vt 1.3857421875 0.08984375
vt 1.3857421875 0.08837890625
vt 1.3857421875 0.1015625
vt 1.3857421875 0.08984375
vt 2.08984375 0.08984375
vt 2.08984375 0.1015625
vt 1.3857421875 0.1015625
vt 2.08984375 0.08984375
vt 2.0859375 0.27880859375
vt 1.3837890625 0.27880859375
vt 2.0859375 0.26708984375
vt 1.3837890625 0.27880859375
vt 1.3837890625 0.26708984375
vt 2.0859375 0.26708984375
vt 2.0859375 0.26708984375
vt 1.3837890625 0.26708984375
vt 1.3837890625 0.26513671875
vt 2.0859375 0.26513671875
vt 2.0859375 0.26708984375
vt 1.3837890625 0.26513671875
vt 2.0859375 0.26513671875
vt 1.3837890625 0.26513671875
vt 2.0859375 0.25830078125
vt 1.3837890625 0.26513671875
vt 1.3837890625 0.25830078125
vt 2.0859375 0.25830078125
vt 1.3837890625 0.25830078125
vt 1.3837890625 0.2568359375
vt 2.0859375 0.25830078125
vt 1.3837890625 0.2568359375
vt 2.0859375 0.2568359375
vt 2.0859375 0.25830078125
vt 2.0859375 0.2451171875
vt 2.0859375 0.2568359375
vt 1.3837890625 0.2568359375
vt 1.3837890625 0.2451171875
vt 2.0859375 0.2451171875
vt 1.3837890625 0.2568359375
vt 0.2203369140625 0.26953125
vt 0.2203369140625 0.26611328125
vt 0.9130859375 0.26611328125
vt 0.9130859375 0.26904296875
vt 0.2203369140625 0.26953125
vt 0.9130859375 0.26611328125
vt 0.2203369140625 0.26953125
vt 0.9130859375 0.26904296875
vt 0.9130859375 0.27099609375
vt 0.2203369140625 0.27099609375
vt 0.2203369140625 0.26953125
vt 0.9130859375 0.27099609375
vt 0.2203369140625 0.27099609375
vt 0.9130859375 0.27099609375
vt 0.2205810546875 0.2802734375
vt 0.9130859375 0.27099609375
vt 0.9130859375 0.27978515625
vt 0.2205810546875 0.2802734375
vt 0.9130859375 0.27978515625
vt 0.9130859375 0.28173828125
vt 0.2205810546875 0.2802734375
vt 0.9130859375 0.28173828125
vt 0.2205810546875 0.28173828125
vt 0.2205810546875 0.2802734375
vt 0.2205810546875 0.28173828125
vt 0.9130859375 0.28173828125
vt 0.2205810546875 0.28466796875
vt 0.9130859375 0.28173828125
vt 0.9130859375 0.28466796875
vt 0.2205810546875 0.28466796875
vn 0.9206265807151794 -0.3904426097869873 0.001138590625487268
vn 0.9268597960472107 -0.3754071891307831 0.0006247317069210112
vn 0.7980336546897888 -0.6026119589805603 0.0010457554599270225
vn 0.8081603646278381 -0.5889619588851929 0.000820696062874049
vn 0.16184155642986298 -0.9868161678314209 0.0011070806067436934
vn 0.15315350890159607 -0.9882018566131592 0.0010563195683062077
vn -0.7802886962890625 -0.6254185438156128 0.0011073695495724678
vn -0.785775363445282 -0.6185111403465271 0.0010569976875558496
vn -0.9938037991523743 0.11114323139190674 0.0010450996924191713
vn -0.9955481886863708 0.09425027668476105 0.0008352426229976118
vn -0.9425709247589111 0.3340054750442505 0.000641318503767252
vn -0.9370173811912537 0.34928086400032043 0.0011401211377233267
vn 0.9206237196922302 -0.39044949412345886 0.0011385902762413025
vn 0.9268530011177063 -0.3754238784313202 0.0006250758888199925
vn 0.7980527281761169 -0.602586567401886 0.001046166056767106
vn 0.8081346154212952 -0.5889973640441895 0.0008208617800846696
vn 0.16181643307209015 -0.9868202209472656 0.0011074038920924067
vn 0.15320205688476562 -0.9881943464279175 0.0010570085141807795
vn -0.7802785038948059 -0.62543123960495 0.0011079892283305526
vn -0.7857191562652588 -0.6185824871063232 0.0010584257543087006
vn -0.9938127994537354 0.11106323450803757 0.0010459813056513667
vn -0.9955472350120544 0.09426066279411316 0.0008357798797078431
vn -0.9425650835037231 0.3340221643447876 0.0006416594842448831
vn -0.9370174407958984 0.34928083419799805 0.0011399101931601763
vn -0.002539136214181781 -0.006530497223138809 -0.9999755024909973
vn -0.002545102033764124 -0.006547348108142614 -0.999975323677063
vn -0.11401797086000443 -0.2933819890022278 -0.9491717219352722
vn -0.11401409655809402 -0.29337289929389954 -0.9491750001907349
vn -0.3231683373451233 -0.831556499004364 -0.45174771547317505
vn -0.3231731951236725 -0.8315691947937012 -0.45172086358070374
vn -0.32319340109825134 -0.8316224813461304 0.45160824060440063
vn -0.32318586111068726 -0.8316022753715515 0.45165085792541504
vn -0.1140456572175026 -0.29345616698265076 0.9491454362869263
vn -0.11406470835208893 -0.29350581765174866 0.9491277933120728
vn -0.0025375972036272287 -0.006531118880957365 0.9999754428863525
vn -0.0025375799741595984 -0.006531078368425369 0.9999754428863525
vn -0.0025419159792363644 -0.0065391780808568 -0.9999753832817078
vn -0.0025419238954782486 -0.006539199501276016 -0.9999753832817078
vn -0.11405506730079651 -0.2934781610965729 -0.9491375684738159
vn -0.11404263973236084 -0.2934463620185852 -0.9491487741470337
vn -0.3231819272041321 -0.8315919637680054 -0.4516727030277252
vn -0.3231905400753021 -0.8316143155097961 -0.45162534713745117
vn -0.32318925857543945 -0.8316125273704529 0.4516295790672302
vn -0.32318148016929626 -0.8315919637680054 0.4516729712486267
vn -0.11404045671224594 -0.293442964553833 0.9491501450538635
vn -0.11405306309461594 -0.2934759855270386 0.9491384029388428
vn -0.0025376647245138884 -0.006531281862407923 0.9999754428863525
vn -0.002541150664910674 -0.006539502646774054 0.9999753832817078
vn 0.3126393258571625 0.8050301671028137 -0.5041658878326416
vn 0.36201590299606323 0.9321719408035278 -5.469208917929791e-05
vn 0.36201560497283936 0.9321720600128174 -1.6034452698932e-07
vn 0.3122103214263916 0.8039266467094421 -0.5061882138252258
vn 0.09119368344545364 0.23481985926628113 -0.967751681804657
vn 0.09199009835720062 0.2368706613779068 -0.9671763777732849
vn -0.09058642387390137 -0.23357731103897095 -0.9681094288825989
vn -0.0912599191069603 -0.23531588912010193 -0.9676250219345093
vn -0.31193089485168457 -0.8043201565742493 -0.5057353973388672
vn -0.31156477332115173 -0.8033747673034668 -0.5074607729911804
vn -0.36158013343811035 -0.9323410391807556 0.0
vn -0.36158016324043274 -0.9323409795761108 0.0
f 1/1/1 2/2/2 3/3/3
f 2/4/2 4/5/4 3/6/3
f 3/7/3 4/8/4 5/9/5
f 6/10/6 3/11/3 5/12/5
f 6/13/6 5/14/5 7/15/7
f 5/16/5 8/17/8 7/18/7
f 8/19/8 9/20/9 7/21/7
f 9/22/9 10/23/10 7/24/7
f 11/25/11 10/26/10 9/27/9
f 12/28/12 11/29/11 9/30/9
f 13/31/13 14/32/14 15/33/15
f 14/34/14 16/35/16 15/36/15
f 15/37/15 16/38/16 17/39/17
f 18/40/18 15/41/15 17/42/17
f 18/43/18 17/44/17 19/45/19
f 17/46/17 20/47/20 19/48/19
f 20/49/20 21/50/21 19/51/19
f 21/52/21 22/53/22 19/54/19
f 23/55/23 22/56/22 21/57/21
f 24/58/24 23/59/23 21/60/21
f 25/61/25 26/62/26 27/63/27
f 26/64/26 28/65/28 27/66/27
f 27/67/27 28/68/28 29/69/29
f 30/70/30 27/71/27 29/72/29
f 30/73/30 29/74/29 31/75/31
f 29/76/29 32/77/32 31/78/31
f 32/79/32 33/80/33 31/81/31
f 33/82/33 34/83/34 31/84/31
f 35/85/35 34/86/34 33/87/33
f 36/88/36 35/89/35 33/90/33
f 37/91/37 38/92/38 39/93/39
f 38/94/38 40/95/40 39/96/39
f 39/97/39 40/98/40 41/99/41
f 42/100/42 39/101/39 41/102/41
f 42/103/42 41/104/41 43/105/43
f 41/106/41 44/107/44 43/108/43
f 44/109/44 45/110/45 43/111/43
f 45/112/45 46/113/46 43/114/43
f 47/115/47 46/116/46 45/117/45
f 48/118/48 47/119/47 45/120/45
f 49/121/49 50/122/50 51/123/51
f 52/124/52 49/125/49 51/126/51
f 49/127/49 52/128/52 53/129/53
f 54/130/54 49/131/49 53/132/53
f 54/133/54 53/134/53 55/135/55
f 53/136/53 56/137/56 55/138/55
f 56/139/56 57/140/57 55/141/55
f 57/142/57 58/143/58 55/144/55
f 58/145/58 57/146/57 59/147/59
f 57/148/57 60/149/60 59/150/59
