# Exported by Lightwave Blender addon
v 1310.827880859375 2480.2861328125 1066.685546875
v 1310.827880859375 2480.2861328125 886.9805297851562
v 1282.0985107421875 2431.812744140625 886.9805297851562
v 1282.098388671875 2431.812744140625 1066.685546875
v 1252.48291015625 2381.843994140625 1066.685546875
v 1281.3807373046875 2430.601806640625 1066.685546875
v 1281.3807373046875 2430.6015625 886.9805297851562
v 1252.483154296875 2381.843994140625 886.9805297851562
vt 0.251220703125 0.9884872436523438
vt 0.251220703125 0.22509765625
vt 0.497802734375 0.22509765625
vt 0.497802734375 0.22509765625
vt 0.497802734375 0.9884872436523438
vt 0.251220703125 0.9884872436523438
vt 0.2491455078125 0.9884872436523438
vt 0.00260162353515625 0.9884872436523438
vt 0.00260162353515625 0.22509765625
vt 0.00260162353515625 0.22509765625
vt 0.2491455078125 0.22509765625
vt 0.2491455078125 0.9884872436523438
vn -0.8602564334869385 0.5098614692687988 -4.7133195835158403e-07
vn -0.8602572679519653 0.5098601579666138 0.0
vn -0.860257089138031 0.5098604559898376 -1.130243632019301e-07
vn -0.8602563738822937 0.5098617672920227 -5.843562576046679e-07
vn -0.8602582812309265 0.5098583698272705 -7.852564181121124e-07
vn -0.860258162021637 0.5098586678504944 -6.926752007530013e-07
vn -0.8602587580680847 0.5098576545715332 -1.0761345947685186e-06
vn -0.860258936882019 0.5098573565483093 -1.168716153188143e-06
f 1/1/1 2/2/2 3/3/3
f 3/4/3 4/5/4 1/6/1
f 5/7/5 6/8/6 7/9/7
f 7/10/7 8/11/8 5/12/5
