# Exported by Lightwave Blender addon
v 1680.505615234375 3181.177490234375 1061.946533203125
v 1662.085205078125 3155.3193359375 1061.946533203125
v 1665.1343994140625 3153.1474609375 1061.946533203125
v 1683.5548095703125 3179.00537109375 1061.946533203125
v 1665.1343994140625 3153.1474609375 1055.93896484375
v 1683.5548095703125 3179.00537109375 1055.93896484375
v 1680.505615234375 3181.177490234375 1055.9390869140625
v 1662.085205078125 3155.3193359375 1055.93896484375
v 1683.2200927734375 3178.8701171875 893.2252807617188
v 1680.4630126953125 3180.833740234375 893.2252807617188
v 1680.462890625 3180.833740234375 1056.210205078125
v 1683.2198486328125 3178.8701171875 1056.210205078125
v 1680.3955078125 3174.905029296875 1056.210205078125
v 1680.3955078125 3174.905029296875 893.2252807617188
v 1677.6385498046875 3176.869140625 893.2252807617188
v 1677.6385498046875 3176.869140625 1056.210205078125
v 1665.6109619140625 3158.279296875 1055.80419921875
v 1678.38232421875 3176.20751953125 1055.80419921875
v 1678.38232421875 3176.20751953125 893.417724609375
v 1665.6112060546875 3158.279296875 893.4176635742188
v 1662.2310791015625 3155.240478515625 893.2252807617188
v 1664.9881591796875 3153.2763671875 893.2252807617188
v 1664.9881591796875 3153.2763671875 1056.210205078125
v 1662.23095703125 3155.240478515625 1056.210205078125
v 1665.0555419921875 3159.205078125 1056.210205078125
v 1665.0555419921875 3159.205078125 893.2252807617188
v 1667.8126220703125 3157.241455078125 893.2252807617188
v 1667.8126220703125 3157.241455078125 1056.210205078125
v 1680.505615234375 3181.177490234375 893.1992797851562
v 1662.085205078125 3155.3193359375 893.1992797851562
v 1665.1343994140625 3153.1474609375 893.1992797851562
v 1683.5548095703125 3179.00537109375 893.1992797851562
v 1665.1343994140625 3153.1474609375 887.1917724609375
v 1683.5548095703125 3179.00537109375 887.1917724609375
v 1680.505615234375 3181.177490234375 887.1918334960938
v 1662.085205078125 3155.3193359375 887.1917724609375
v 1662.0867919921875 3155.3212890625 1061.946533203125
v 1643.66650390625 3129.46337890625 1061.946533203125
v 1646.715576171875 3127.29150390625 1061.946533203125
v 1665.135986328125 3153.1494140625 1061.946533203125
v 1646.715576171875 3127.29150390625 1055.93896484375
v 1665.135986328125 3153.1494140625 1055.93896484375
v 1662.0867919921875 3155.3212890625 1055.9390869140625
v 1643.66650390625 3129.46337890625 1055.93896484375
v 1664.8013916015625 3153.013916015625 893.2252807617188
v 1662.0440673828125 3154.977783203125 893.2252807617188
v 1662.0440673828125 3154.977783203125 1056.210205078125
v 1664.8011474609375 3153.013916015625 1056.210205078125
v 1661.976806640625 3149.049072265625 1056.210205078125
v 1661.976806640625 3149.049072265625 893.2252807617188
v 1659.2197265625 3151.012939453125 893.2252807617188
v 1659.2197265625 3151.012939453125 1056.210205078125
v 1647.1470947265625 3132.360107421875 1055.80419921875
v 1659.91845703125 3150.288330078125 1055.80419921875
v 1659.91845703125 3150.288330078125 893.417724609375
v 1647.1470947265625 3132.360107421875 893.4176635742188
v 1643.9576416015625 3129.58837890625 893.2252807617188
v 1646.714599609375 3127.62451171875 893.2252807617188
v 1646.714599609375 3127.62451171875 1056.210205078125
v 1643.9576416015625 3129.58837890625 1056.210205078125
v 1646.7822265625 3133.55322265625 1056.210205078125
v 1646.7822265625 3133.55322265625 893.2252807617188
v 1649.5391845703125 3131.58935546875 893.2252807617188
v 1649.5391845703125 3131.58935546875 1056.210205078125
v 1662.0867919921875 3155.3212890625 893.1992797851562
v 1643.66650390625 3129.46337890625 893.1992797851562
v 1646.715576171875 3127.29150390625 893.1992797851562
v 1665.135986328125 3153.1494140625 893.1992797851562
v 1646.715576171875 3127.29150390625 887.1917724609375
v 1665.135986328125 3153.1494140625 887.1917724609375
v 1662.0867919921875 3155.3212890625 887.1918334960938
v 1643.66650390625 3129.46337890625 887.1917724609375
vt 0.327880859375 0.35302734375
vt 0.327880859375 0.43212890625
vt 0.318603515625 0.43212890625
vt 0.318603515625 0.43212890625
vt 0.318603515625 0.35302734375
vt 0.327880859375 0.35302734375
vt 0.3154296875 0.43212890625
vt 0.300537109375 0.43212890625
vt 0.300537109375 0.3525390625
vt 0.300537109375 0.3525390625
vt 0.3154296875 0.3525390625
vt 0.3154296875 0.43212890625
vt 0.27001953125 0.35205078125
vt 0.284912109375 0.35205078125
vt 0.284912109375 0.431640625
vt 0.284912109375 0.431640625
vt 0.27001953125 0.431640625
vt 0.27001953125 0.35205078125
vt 0.269775390625 0.34521484375
vt 0.269775390625 0.3359375
vt 0.284912109375 0.3359375
vt 0.284912109375 0.3359375
vt 0.284912109375 0.34521484375
vt 0.269775390625 0.34521484375
vt 0.2880859375 0.34521484375
vt 0.2880859375 0.3359375
vt 0.30322265625 0.3359375
vt 0.30322265625 0.3359375
vt 0.30322265625 0.34521484375
vt 0.2880859375 0.34521484375
vt 0.287841796875 0.3525390625
vt 0.29736328125 0.3525390625
vt 0.29736328125 0.43212890625
vt 0.29736328125 0.43212890625
vt 0.287841796875 0.43212890625
vt 0.287841796875 0.3525390625
vt 0.8583984375 0.9782562255859375
vt 0.8486328125 0.9782562255859375
vt 0.8486328125 0.57080078125
vt 0.8486328125 0.57080078125
vt 0.8583984375 0.57080078125
vt 0.8583984375 0.9782562255859375
vt 0.81201171875 0.5712890625
vt 0.81201171875 0.978668212890625
vt 0.7998046875 0.978668212890625
vt 0.7998046875 0.978668212890625
vt 0.7998046875 0.5712890625
vt 0.81201171875 0.5712890625
vt 0.84521484375 0.572021484375
vt 0.84521484375 0.979339599609375
vt 0.8330078125 0.979339599609375
vt 0.8330078125 0.979339599609375
vt 0.8330078125 0.572021484375
vt 0.84521484375 0.572021484375
vt 0.82763671875 0.980072021484375
vt 0.81787109375 0.980072021484375
vt 0.81787109375 0.57275390625
vt 0.81787109375 0.57275390625
vt 0.82763671875 0.57275390625
vt 0.82763671875 0.980072021484375
vt 0.377197265625 0.01123046875
vt 0.432373046875 0.01123046875
vt 0.432373046875 0.4169921875
vt 0.432373046875 0.4169921875
vt 0.377197265625 0.4169921875
vt 0.377197265625 0.01123046875
vt 0.8583984375 0.9782562255859375
vt 0.8486328125 0.9782562255859375
vt 0.8486328125 0.57080078125
vt 0.8486328125 0.57080078125
vt 0.8583984375 0.57080078125
vt 0.8583984375 0.9782562255859375
vt 0.81201171875 0.5712890625
vt 0.81201171875 0.978668212890625
vt 0.7998046875 0.978668212890625
vt 0.7998046875 0.978668212890625
vt 0.7998046875 0.5712890625
vt 0.81201171875 0.5712890625
vt 0.84521484375 0.572021484375
vt 0.84521484375 0.979339599609375
vt 0.8330078125 0.979339599609375
vt 0.8330078125 0.979339599609375
vt 0.8330078125 0.572021484375
vt 0.84521484375 0.572021484375
vt 0.82763671875 0.980072021484375
vt 0.81787109375 0.980072021484375
vt 0.81787109375 0.57275390625
vt 0.81787109375 0.57275390625
vt 0.82763671875 0.57275390625
vt 0.82763671875 0.980072021484375
vt 0.327880859375 0.35302734375
vt 0.327880859375 0.43212890625
vt 0.318603515625 0.43212890625
vt 0.318603515625 0.43212890625
vt 0.318603515625 0.35302734375
vt 0.327880859375 0.35302734375
vt 0.3154296875 0.43212890625
vt 0.300537109375 0.43212890625
vt 0.300537109375 0.3525390625
vt 0.300537109375 0.3525390625
vt 0.3154296875 0.3525390625
vt 0.3154296875 0.43212890625
vt 0.27001953125 0.35205078125
vt 0.284912109375 0.35205078125
vt 0.284912109375 0.431640625
vt 0.284912109375 0.431640625
vt 0.27001953125 0.431640625
vt 0.27001953125 0.35205078125
vt 0.269775390625 0.34521484375
vt 0.269775390625 0.3359375
vt 0.284912109375 0.3359375
vt 0.284912109375 0.3359375
vt 0.284912109375 0.34521484375
vt 0.269775390625 0.34521484375
vt 0.2880859375 0.34521484375
vt 0.2880859375 0.3359375
vt 0.30322265625 0.3359375
vt 0.30322265625 0.3359375
vt 0.30322265625 0.34521484375
vt 0.2880859375 0.34521484375
vt 0.287841796875 0.3525390625
vt 0.29736328125 0.3525390625
vt 0.29736328125 0.43212890625
vt 0.29736328125 0.43212890625
vt 0.287841796875 0.43212890625
vt 0.287841796875 0.3525390625
vt 0.327880859375 0.35302734375
vt 0.327880859375 0.43212890625
vt 0.318603515625 0.43212890625
vt 0.318603515625 0.43212890625
vt 0.318603515625 0.35302734375
vt 0.327880859375 0.35302734375
vt 0.3154296875 0.43212890625
vt 0.300537109375 0.43212890625
vt 0.300537109375 0.3525390625
vt 0.300537109375 0.3525390625
vt 0.3154296875 0.3525390625
vt 0.3154296875 0.43212890625
vt 0.27001953125 0.35205078125
vt 0.284912109375 0.35205078125
vt 0.284912109375 0.431640625
vt 0.284912109375 0.431640625
vt 0.27001953125 0.431640625
vt 0.27001953125 0.35205078125
vt 0.269775390625 0.34521484375
vt 0.269775390625 0.3359375
vt 0.284912109375 0.3359375
vt 0.284912109375 0.3359375
vt 0.284912109375 0.34521484375
vt 0.269775390625 0.34521484375
vt 0.2880859375 0.34521484375
vt 0.2880859375 0.3359375
vt 0.30322265625 0.3359375
vt 0.30322265625 0.3359375
vt 0.30322265625 0.34521484375
vt 0.2880859375 0.34521484375
vt 0.287841796875 0.3525390625
vt 0.29736328125 0.3525390625
vt 0.29736328125 0.43212890625
vt 0.29736328125 0.43212890625
vt 0.287841796875 0.43212890625
vt 0.287841796875 0.3525390625
vt 0.8583984375 0.9782562255859375
vt 0.8486328125 0.9782562255859375
vt 0.8486328125 0.57080078125
vt 0.8486328125 0.57080078125
vt 0.8583984375 0.57080078125
vt 0.8583984375 0.9782562255859375
vt 0.81201171875 0.5712890625
vt 0.81201171875 0.978668212890625
vt 0.7998046875 0.978668212890625
vt 0.7998046875 0.978668212890625
vt 0.7998046875 0.5712890625
vt 0.81201171875 0.5712890625
vt 0.84521484375 0.572021484375
vt 0.84521484375 0.979339599609375
vt 0.8330078125 0.979339599609375
vt 0.8330078125 0.979339599609375
vt 0.8330078125 0.572021484375
vt 0.84521484375 0.572021484375
vt 0.82763671875 0.980072021484375
vt 0.81787109375 0.980072021484375
vt 0.81787109375 0.57275390625
vt 0.81787109375 0.57275390625
vt 0.82763671875 0.57275390625
vt 0.82763671875 0.980072021484375
vt 0.377197265625 0.01123046875
vt 0.432373046875 0.01123046875
vt 0.432373046875 0.4169921875
vt 0.432373046875 0.4169921875
vt 0.377197265625 0.4169921875
vt 0.377197265625 0.01123046875
vt 0.8583984375 0.9782562255859375
vt 0.8486328125 0.9782562255859375
vt 0.8486328125 0.57080078125
vt 0.8486328125 0.57080078125
vt 0.8583984375 0.57080078125
vt 0.8583984375 0.9782562255859375
vt 0.81201171875 0.5712890625
vt 0.81201171875 0.978668212890625
vt 0.7998046875 0.978668212890625
vt 0.7998046875 0.978668212890625
vt 0.7998046875 0.5712890625
vt 0.81201171875 0.5712890625
vt 0.84521484375 0.572021484375
vt 0.84521484375 0.979339599609375
vt 0.8330078125 0.979339599609375
vt 0.8330078125 0.979339599609375
vt 0.8330078125 0.572021484375
vt 0.84521484375 0.572021484375
vt 0.82763671875 0.980072021484375
vt 0.81787109375 0.980072021484375
vt 0.81787109375 0.57275390625
vt 0.81787109375 0.57275390625
vt 0.82763671875 0.57275390625
vt 0.82763671875 0.980072021484375
vt 0.327880859375 0.35302734375
vt 0.327880859375 0.43212890625
vt 0.318603515625 0.43212890625
vt 0.318603515625 0.43212890625
vt 0.318603515625 0.35302734375
vt 0.327880859375 0.35302734375
vt 0.3154296875 0.43212890625
vt 0.300537109375 0.43212890625
vt 0.300537109375 0.3525390625
vt 0.300537109375 0.3525390625
vt 0.3154296875 0.3525390625
vt 0.3154296875 0.43212890625
vt 0.27001953125 0.35205078125
vt 0.284912109375 0.35205078125
vt 0.284912109375 0.431640625
vt 0.284912109375 0.431640625
vt 0.27001953125 0.431640625
vt 0.27001953125 0.35205078125
vt 0.269775390625 0.34521484375
vt 0.269775390625 0.3359375
vt 0.284912109375 0.3359375
vt 0.284912109375 0.3359375
vt 0.284912109375 0.34521484375
vt 0.269775390625 0.34521484375
vt 0.2880859375 0.34521484375
vt 0.2880859375 0.3359375
vt 0.30322265625 0.3359375
vt 0.30322265625 0.3359375
vt 0.30322265625 0.34521484375
vt 0.2880859375 0.34521484375
vt 0.287841796875 0.3525390625
vt 0.29736328125 0.3525390625
vt 0.29736328125 0.43212890625
vt 0.29736328125 0.43212890625
vt 0.287841796875 0.43212890625
vt 0.287841796875 0.3525390625
vn -0.13524910807609558 0.8052125573158264 0.5773564577102661
vn -0.8052138686180115 -0.13528016209602356 0.5773472785949707
vn 0.13526834547519684 -0.8052072525024414 0.5773593187332153
vn 0.8052160143852234 0.13525672256946564 0.5773497819900513
vn 0.1352776736021042 -0.8052071928977966 -0.5773572325706482
vn 0.8052042722702026 0.13526853919029236 -0.5773633718490601
vn -0.13526399433612823 0.805219829082489 -0.5773428082466125
vn -0.8052093982696533 -0.13528774678707123 -0.5773518085479736
vn 0.9861756563186646 0.1657031625509262 3.2770159918982245e-07
vn -0.16568626463413239 0.9861785769462585 -1.2409356031639618e-07
vn -0.16568905115127563 0.9861779808998108 6.021913350195973e-07
vn 0.986173689365387 0.16571515798568726 1.4772228951187572e-06
vn 0.16565659642219543 -0.9861834645271301 8.463516110168712e-07
vn 0.1656370609998703 -0.9861868023872375 0.0
vn -0.9861899018287659 -0.1656184047460556 -4.231365551277122e-07
vn -0.9861882328987122 -0.16562843322753906 0.0
vn -0.8144747614860535 0.5801989436149597 -1.0500603764285188e-07
vn -0.8144744038581848 0.580199658870697 0.0
vn -0.8144791722297668 0.5801928043365479 -1.1195256774954032e-06
vn -0.8144795894622803 0.5801922082901001 -1.2245322977832984e-06
vn -0.9861882328987122 -0.1656283736228943 -1.225863233145219e-08
vn 0.1656574308872223 -0.9861833453178406 0.0
vn 0.16566765308380127 -0.9861816167831421 -3.032126585367223e-07
vn -0.9861881136894226 -0.16562899947166443 -7.386221909655433e-07
vn -0.16567908227443695 0.9861796498298645 -4.230975889640831e-07
vn -0.16568665206432343 0.986178457736969 0.0
vn 0.9861740469932556 0.16571307182312012 0.0
vn 0.9861736297607422 0.1657153218984604 0.0
vn -0.13524916768074036 0.805212676525116 0.5773563385009766
vn -0.8052138090133667 -0.13528020679950714 0.5773473381996155
vn 0.1352684050798416 -0.8052073121070862 0.5773591995239258
vn 0.8052160143852234 0.13525676727294922 0.5773497819900513
vn 0.13527756929397583 -0.8052076697349548 -0.5773566365242004
vn 0.8052083253860474 0.13526678085327148 -0.5773581266403198
vn -0.13526102900505066 0.8052166104316711 -0.577347993850708
vn -0.8052098155021667 -0.1352880448102951 -0.5773511528968811
vn -0.13526946306228638 0.8052070736885071 0.5773594975471497
vn -0.8052146434783936 -0.13527195155620575 0.5773481726646423
vn 0.13526089489459991 -0.8052091002464294 0.5773584842681885
vn 0.8052143454551697 0.13527846336364746 0.5773470401763916
vn 0.13527019321918488 -0.8052090406417847 -0.5773563385009766
vn 0.8052026629447937 0.13529030978679657 -0.5773605704307556
vn -0.13528452813625336 0.8052142858505249 -0.5773457288742065
vn -0.8052101135253906 -0.1352795660495758 -0.5773527026176453
vn 0.9861791133880615 0.16568221151828766 2.451984926210571e-08
vn -0.16570279002189636 0.9861757159233093 0.0
vn -0.16568249464035034 0.9861791133880615 6.063788191568165e-07
vn 0.9861791729927063 0.1656821370124817 1.4772311942579108e-06
vn 0.16568173468112946 -0.9861792325973511 8.462882306048414e-07
vn 0.16566188633441925 -0.9861826300621033 0.0
vn -0.9861791729927063 -0.16568230092525482 0.0
vn -0.9861792325973511 -0.1656820923089981 0.0
vn -0.81447434425354 0.580199658870697 0.0
vn -0.8144744038581848 0.580199658870697 0.0
vn -0.81447434425354 0.5801995396614075 0.0
vn -0.8144744038581848 0.5801995396614075 0.0
vn -0.9861846566200256 -0.16564907133579254 0.0
vn 0.1656515747308731 -0.9861843585968018 0.0
vn 0.16565418243408203 -0.9861838817596436 0.0
vn -0.9861843585968018 -0.1656516194343567 0.0
vn -0.16565415263175964 0.9861838817596436 0.0
vn -0.1656515747308731 0.9861843585968018 0.0
vn 0.98618483543396 0.16564907133579254 0.0
vn 0.9861843585968018 0.1656516194343567 0.0
vn -0.13526946306228638 0.8052070736885071 0.5773594975471497
vn -0.8052146434783936 -0.13527195155620575 0.5773481726646423
vn 0.13526086509227753 -0.8052091002464294 0.5773583650588989
vn 0.8052142858505249 0.13527843356132507 0.5773470401763916
vn 0.13527002930641174 -0.8052094578742981 -0.5773558020591736
vn 0.8052067160606384 0.13528847694396973 -0.5773554444313049
vn -0.1352815479040146 0.805211067199707 -0.577350914478302
vn -0.8052104115486145 -0.13528001308441162 -0.5773520469665527
f 1/1/1 2/2/2 3/3/3
f 3/4/3 4/5/4 1/6/1
f 3/7/3 5/8/5 6/9/6
f 6/10/6 4/11/4 3/12/3
f 1/13/1 7/14/7 8/15/8
f 8/16/8 2/17/2 1/18/1
f 1/19/1 4/20/4 6/21/6
f 6/22/6 7/23/7 1/24/1
f 3/25/3 2/26/2 8/27/8
f 8/28/8 5/29/5 3/30/3
f 7/31/7 6/32/6 5/33/5
f 5/34/5 8/35/8 7/36/7
f 9/37/9 10/38/10 11/39/11
f 11/40/11 12/41/12 9/42/9
f 9/43/9 12/44/12 13/45/13
f 13/46/13 14/47/14 9/48/9
f 11/49/11 10/50/10 15/51/15
f 15/52/15 16/53/16 11/54/11
f 15/55/15 14/56/14 13/57/13
f 13/58/13 16/59/16 15/60/15
f 17/61/17 18/62/18 19/63/19
f 19/64/19 20/65/20 17/66/17
f 21/67/21 22/68/22 23/69/23
f 23/70/23 24/71/24 21/72/21
f 21/73/21 24/74/24 25/75/25
f 25/76/25 26/77/26 21/78/21
f 23/79/23 22/80/22 27/81/27
f 27/82/27 28/83/28 23/84/23
f 27/85/27 26/86/26 25/87/25
f 25/88/25 28/89/28 27/90/27
f 29/91/29 30/92/30 31/93/31
f 31/94/31 32/95/32 29/96/29
f 31/97/31 33/98/33 34/99/34
f 34/100/34 32/101/32 31/102/31
f 29/103/29 35/104/35 36/105/36
f 36/106/36 30/107/30 29/108/29
f 29/109/29 32/110/32 34/111/34
f 34/112/34 35/113/35 29/114/29
f 31/115/31 30/116/30 36/117/36
f 36/118/36 33/119/33 31/120/31
f 35/121/35 34/122/34 33/123/33
f 33/124/33 36/125/36 35/126/35
f 37/127/37 38/128/38 39/129/39
f 39/130/39 40/131/40 37/132/37
f 39/133/39 41/134/41 42/135/42
f 42/136/42 40/137/40 39/138/39
f 37/139/37 43/140/43 44/141/44
f 44/142/44 38/143/38 37/144/37
f 37/145/37 40/146/40 42/147/42
f 42/148/42 43/149/43 37/150/37
f 39/151/39 38/152/38 44/153/44
f 44/154/44 41/155/41 39/156/39
f 43/157/43 42/158/42 41/159/41
f 41/160/41 44/161/44 43/162/43
f 45/163/45 46/164/46 47/165/47
f 47/166/47 48/167/48 45/168/45
f 45/169/45 48/170/48 49/171/49
f 49/172/49 50/173/50 45/174/45
f 47/175/47 46/176/46 51/177/51
f 51/178/51 52/179/52 47/180/47
f 51/181/51 50/182/50 49/183/49
f 49/184/49 52/185/52 51/186/51
f 53/187/53 54/188/54 55/189/55
f 55/190/55 56/191/56 53/192/53
f 57/193/57 58/194/58 59/195/59
f 59/196/59 60/197/60 57/198/57
f 57/199/57 60/200/60 61/201/61
f 61/202/61 62/203/62 57/204/57
f 59/205/59 58/206/58 63/207/63
f 63/208/63 64/209/64 59/210/59
f 63/211/63 62/212/62 61/213/61
f 61/214/61 64/215/64 63/216/63
f 65/217/65 66/218/66 67/219/67
f 67/220/67 68/221/68 65/222/65
f 67/223/67 69/224/69 70/225/70
f 70/226/70 68/227/68 67/228/67
f 65/229/65 71/230/71 72/231/72
f 72/232/72 66/233/66 65/234/65
f 65/235/65 68/236/68 70/237/70
f 70/238/70 71/239/71 65/240/65
f 67/241/67 66/242/66 72/243/72
f 72/244/72 69/245/69 67/246/67
f 71/247/71 70/248/70 69/249/69
f 69/250/69 72/251/72 71/252/71
