# Exported by Lightwave Blender addon
v 313.74456787109375 -173.2950439453125 1182.9998779296875
v 402.18560791015625 -140.1969451904297 1182.9998779296875
v 233.1310577392578 34.303646087646484 1182.9998779296875
v 322.0487060546875 67.77547454833984 1182.9998779296875
v 233.13076782226562 34.30380630493164 1333.124267578125
v 322.0487060546875 67.77545928955078 1333.124267578125
v 402.1798400878906 -140.18521118164062 1333.1243896484375
v 313.7485046386719 -173.29241943359375 1333.124267578125
v 284.1636657714844 -95.66712951660156 1201.456298828125
v 254.2478485107422 -16.894268035888672 1201.456298828125
v 254.24783325195312 -16.89434051513672 1293.5794677734375
v 284.1635437011719 -95.66719055175781 1293.5797119140625
vt -1.09375 0.708984375
vt -0.9951171875 -0.5595703125
vt 1.5849609375 0.9351806640625
vt -0.9951171875 -0.5595703125
vt 1.6953125 -0.44921875
vt 1.5849609375 0.9351806640625
vt -0.057464599609375 0.7880859375
vt -0.057464599609375 -0.5146484375
vt 1.6220703125 0.7880859375
vt -0.057464599609375 -0.5146484375
vt 1.6220703125 -0.5146484375
vt 1.6220703125 0.7880859375
vt 1.498046875 1.67626953125
vt -0.99951171875 1.67626953125
vt 1.498046875 -0.021484375
vt -0.99951171875 1.67626953125
vt -0.9990234375 -0.021484375
vt 1.498046875 -0.021484375
vt 1.6044921875 1.06341552734375
vt -0.07611083984375 1.0633544921875
vt 1.6044921875 -0.126953125
vt -0.07611083984375 1.0633544921875
vt -0.07611083984375 -0.12890625
vt 1.6044921875 -0.126953125
vt 1.6650390625 1.1640625
vt -1.02734375 1.16845703125
vt 1.609375 -0.2236328125
vt -1.02734375 1.16845703125
vt -1.0751953125 -0.1005859375
vt 1.609375 -0.2236328125
vt -1.09375 0.708984375
vt 1.5849609375 0.9351806640625
vt -1.09375 0.708984375
vt 1.5849609375 0.9351806640625
vt 1.5849609375 0.9351806640625
vt -1.09375 0.708984375
vt -0.057464599609375 0.7880859375
vt 1.6220703125 0.7880859375
vt -0.057464599609375 0.7880859375
vt 1.6220703125 0.7880859375
vt 1.6220703125 0.7880859375
vt -0.057464599609375 0.7880859375
vt 1.6044921875 -0.126953125
vt -0.07611083984375 -0.12890625
vt 1.6044921875 -0.126953125
vt -0.07611083984375 -0.12890625
vt -0.07611083984375 -0.12890625
vt 1.6044921875 -0.126953125
vt 1.609375 -0.2236328125
vt -1.0751953125 -0.1005859375
vt 1.609375 -0.2236328125
vt -1.0751953125 -0.1005859375
vt -1.0751953125 -0.1005859375
vt 1.609375 -0.2236328125
vn 0.33577752113342285 0.7441351413726807 0.5775087475776672
vn -0.7450662851333618 0.3349170386791229 0.57680743932724
vn 0.7495909333229065 -0.32795214653015137 0.5749440789222717
vn -0.33392471075057983 -0.7447762489318848 0.5777565240859985
vn 0.7492126226425171 -0.329113245010376 -0.5747737288475037
vn -0.3339342176914215 -0.7447735667228699 -0.5777544379234314
vn -0.7450625896453857 0.3348403573036194 -0.576856791973114
vn 0.3357139825820923 0.7441249489784241 -0.5775587558746338
vn 0.9329542517662048 0.3594823479652405 -0.019205059856176376
vn 0.9295653104782104 0.36517202854156494 -0.05057329684495926
vn 0.9286800622940063 0.37061694264411926 0.014014759100973606
vn 0.9346780776977539 0.35549238324165344 -0.0014306938974186778
f 1/1/1 2/2/2 3/3/3
f 2/4/2 4/5/4 3/6/3
f 3/7/3 4/8/4 5/9/5
f 4/10/4 6/11/6 5/12/5
f 4/13/4 2/14/2 6/15/6
f 2/16/2 7/17/7 6/18/6
f 7/19/7 2/20/2 8/21/8
f 2/22/2 1/23/1 8/24/8
f 6/25/6 7/26/7 5/27/5
f 7/28/7 8/29/8 5/30/5
f 1/31/1 3/32/3 9/33/9
f 3/34/3 10/35/10 9/36/9
f 3/37/3 5/38/5 10/39/10
f 5/40/5 11/41/11 10/42/10
f 8/43/8 1/44/1 12/45/12
f 1/46/1 9/47/9 12/48/12
f 5/49/5 8/50/8 11/51/11
f 8/52/8 12/53/12 11/54/11
