# Exported by Lightwave Blender addon
v -2077.692138671875 1810.342529296875 451.27764892578125
v -2071.42529296875 1814.2303466796875 451.27764892578125
v -2073.845947265625 1816.50244140625 414.8124084472656
v -2078.652587890625 1813.520751953125 414.8124084472656
v -2085.063720703125 1810.109130859375 451.27764892578125
v -2084.306396484375 1813.341796875 414.8124084472656
v -2091.56396484375 1813.5931396484375 451.27764892578125
v -2089.291748046875 1816.0137939453125 414.8124084472656
v -2095.45166015625 1819.8603515625 451.27764892578125
v -2092.2734375 1820.8206787109375 414.8124084472656
v -2095.684814453125 1827.2318115234375 451.27764892578125
v -2092.452392578125 1826.47412109375 414.8124084472656
v -2092.201171875 1833.7320556640625 451.27764892578125
v -2089.780517578125 1831.4595947265625 414.8124084472656
v -2085.933837890625 1837.6195068359375 451.27764892578125
v -2084.9736328125 1834.4412841796875 414.8124084472656
v -2078.5625 1837.852783203125 451.27764892578125
v -2079.320068359375 1834.6202392578125 414.8124084472656
v -2072.062255859375 1834.368896484375 451.27764892578125
v -2074.33447265625 1831.9483642578125 414.8124084472656
v -2068.174560546875 1828.101806640625 451.27764892578125
v -2071.352783203125 1827.1414794921875 414.8124084472656
v -2067.94140625 1820.7305908203125 451.27764892578125
v -2071.173828125 1821.488037109375 414.8124084472656
v -2075.3095703125 1813.49658203125 414.8124084472656
v -2072.91748046875 1815.630859375 414.8124084472656
v -2070.214599609375 1813.0938720703125 451.27764892578125
v -2073.33349609375 1810.3111572265625 451.27764892578125
v -2077.212158203125 1808.7530517578125 451.27764892578125
v -2078.284423828125 1812.301513671875 414.8124084472656
v -2081.4228515625 1811.6494140625 414.8124084472656
v -2081.3046875 1807.9027099609375 451.27764892578125
v -2085.442626953125 1808.492919921875 451.27764892578125
v -2084.5966796875 1812.10205078125 414.8124084472656
v -2087.64111328125 1813.106689453125 414.8124084472656
v -2089.411865234375 1809.8026123046875 451.27764892578125
v -2092.700439453125 1812.38232421875 451.27764892578125
v -2090.163330078125 1815.0853271484375 414.8124084472656
v -2092.297607421875 1817.4774169921875 414.8124084472656
v -2095.48291015625 1815.5015869140625 451.27764892578125
v -2097.041259765625 1819.3802490234375 451.27764892578125
v -2093.492431640625 1820.4521484375 414.8124084472656
v -2094.14453125 1823.591064453125 414.8124084472656
v -2097.8916015625 1823.4725341796875 451.27764892578125
v -2097.301513671875 1827.6104736328125 451.27764892578125
v -2093.692138671875 1826.7645263671875 414.8124084472656
v -2092.6875 1829.80908203125 414.8124084472656
v -2095.99169921875 1831.57958984375 451.27764892578125
v -2093.411865234375 1834.8682861328125 451.27764892578125
v -2090.708984375 1832.3311767578125 414.8124084472656
v -2088.316650390625 1834.465576171875 414.8124084472656
v -2090.292724609375 1837.65087890625 451.27764892578125
v -2086.4140625 1839.2091064453125 451.27764892578125
v -2085.341796875 1835.6605224609375 414.8124084472656
v -2082.203125 1836.3126220703125 414.8124084472656
v -2082.32177734375 1840.0592041015625 451.27764892578125
v -2078.183837890625 1839.4693603515625 451.27764892578125
v -2079.029296875 1835.860107421875 414.8124084472656
v -2075.985107421875 1834.85546875 414.8124084472656
v -2074.21435546875 1838.1595458984375 451.27764892578125
v -2070.92578125 1835.57958984375 451.27764892578125
v -2073.462890625 1832.8768310546875 414.8124084472656
v -2071.32861328125 1830.4847412109375 414.8124084472656
v -2068.14306640625 1832.4608154296875 451.27764892578125
v -2066.585205078125 1828.5821533203125 451.27764892578125
v -2070.133544921875 1827.5098876953125 414.8124084472656
v -2069.481689453125 1824.37109375 414.8124084472656
v -2065.73486328125 1824.489501953125 451.27764892578125
v -2066.32470703125 1820.3516845703125 451.27764892578125
v -2069.93408203125 1821.1973876953125 414.8124084472656
v -2070.938720703125 1818.1529541015625 414.8124084472656
v -2067.634521484375 1816.38232421875 451.27764892578125
vt 0.0927734375 0.09716796875
vt 0.0162200927734375 0.09716796875
vt 0.0162200927734375 0.9044189453125
vt 0.0162200927734375 0.9044189453125
vt 0.0927734375 0.9044189453125
vt 0.0927734375 0.09716796875
vt 0.1728515625 0.09716796875
vt 0.0927734375 0.09716796875
vt 0.0927734375 0.9044189453125
vt 0.0927734375 0.9044189453125
vt 0.1728515625 0.9044189453125
vt 0.1728515625 0.09716796875
vt 0.2529296875 0.09716796875
vt 0.1728515625 0.09716796875
vt 0.1728515625 0.9044189453125
vt 0.1728515625 0.9044189453125
vt 0.2529296875 0.9044189453125
vt 0.2529296875 0.09716796875
vt 0.3330078125 0.09716796875
vt 0.2529296875 0.09716796875
vt 0.2529296875 0.9044189453125
vt 0.2529296875 0.9044189453125
vt 0.3330078125 0.9044189453125
vt 0.3330078125 0.09716796875
vt 0.4130859375 0.09716796875
vt 0.3330078125 0.09716796875
vt 0.3330078125 0.9044189453125
vt 0.3330078125 0.9044189453125
vt 0.4130859375 0.9044189453125
vt 0.4130859375 0.09716796875
vt 0.4931640625 0.09716796875
vt 0.4130859375 0.09716796875
vt 0.4130859375 0.9044189453125
vt 0.4130859375 0.9044189453125
vt 0.4931640625 0.9044189453125
vt 0.4931640625 0.09716796875
vt 0.5732421875 0.09716796875
vt 0.4931640625 0.09716796875
vt 0.4931640625 0.9044189453125
vt 0.4931640625 0.9044189453125
vt 0.5732421875 0.9044189453125
vt 0.5732421875 0.09716796875
vt 0.6533203125 0.09716796875
vt 0.5732421875 0.09716796875
vt 0.5732421875 0.9044189453125
vt 0.5732421875 0.9044189453125
vt 0.6533203125 0.9044189453125
vt 0.6533203125 0.09716796875
vt 0.7333984375 0.09716796875
vt 0.6533203125 0.09716796875
vt 0.6533203125 0.9044189453125
vt 0.6533203125 0.9044189453125
vt 0.7333984375 0.9044189453125
vt 0.7333984375 0.09716796875
vt 0.8134765625 0.09716796875
vt 0.7333984375 0.09716796875
vt 0.7333984375 0.9044189453125
vt 0.7333984375 0.9044189453125
vt 0.8134765625 0.9044189453125
vt 0.8134765625 0.09716796875
vt 0.8935546875 0.09716796875
vt 0.8134765625 0.09716796875
vt 0.8134765625 0.9044189453125
vt 0.8134765625 0.9044189453125
vt 0.8935546875 0.9044189453125
vt 0.8935546875 0.09716796875
vt 0.984375 0.09716796875
vt 0.8935546875 0.09716796875
vt 0.8935546875 0.9044189453125
vt 0.8935546875 0.9044189453125
vt 0.984375 0.9044189453125
vt 0.984375 0.09716796875
vt 0.05450439453125 0.9044189453125
vt 0.0162200927734375 0.9044189453125
vt 0.0162200927734375 0.09716796875
vt 0.0162200927734375 0.09716796875
vt 0.05450439453125 0.09716796875
vt 0.05450439453125 0.9044189453125
vt 0.05450439453125 0.9044189453125
vt 0.05450439453125 0.09716796875
vt 0.0927734375 0.09716796875
vt 0.0927734375 0.09716796875
vt 0.0927734375 0.9044189453125
vt 0.05450439453125 0.9044189453125
vt 0.1328125 0.9044189453125
vt 0.0927734375 0.9044189453125
vt 0.0927734375 0.09716796875
vt 0.0927734375 0.09716796875
vt 0.1328125 0.09716796875
vt 0.1328125 0.9044189453125
vt 0.1328125 0.9044189453125
vt 0.1328125 0.09716796875
vt 0.1728515625 0.09716796875
vt 0.1728515625 0.09716796875
vt 0.1728515625 0.9044189453125
vt 0.1328125 0.9044189453125
vt 0.212890625 0.9044189453125
vt 0.1728515625 0.9044189453125
vt 0.1728515625 0.09716796875
vt 0.1728515625 0.09716796875
vt 0.212890625 0.09716796875
vt 0.212890625 0.9044189453125
vt 0.212890625 0.9044189453125
vt 0.212890625 0.09716796875
vt 0.2529296875 0.09716796875
vt 0.2529296875 0.09716796875
vt 0.2529296875 0.9044189453125
vt 0.212890625 0.9044189453125
vt 0.29296875 0.9044189453125
vt 0.2529296875 0.9044189453125
vt 0.2529296875 0.09716796875
vt 0.2529296875 0.09716796875
vt 0.29296875 0.09716796875
vt 0.29296875 0.9044189453125
vt 0.29296875 0.9044189453125
vt 0.29296875 0.09716796875
vt 0.3330078125 0.09716796875
vt 0.3330078125 0.09716796875
vt 0.3330078125 0.9044189453125
vt 0.29296875 0.9044189453125
vt 0.373046875 0.9044189453125
vt 0.3330078125 0.9044189453125
vt 0.3330078125 0.09716796875
vt 0.3330078125 0.09716796875
vt 0.373046875 0.09716796875
vt 0.373046875 0.9044189453125
vt 0.373046875 0.9044189453125
vt 0.373046875 0.09716796875
vt 0.4130859375 0.09716796875
vt 0.4130859375 0.09716796875
vt 0.4130859375 0.9044189453125
vt 0.373046875 0.9044189453125
vt 0.453125 0.9044189453125
vt 0.4130859375 0.9044189453125
vt 0.4130859375 0.09716796875
vt 0.4130859375 0.09716796875
vt 0.453125 0.09716796875
vt 0.453125 0.9044189453125
vt 0.453125 0.9044189453125
vt 0.453125 0.09716796875
vt 0.4931640625 0.09716796875
vt 0.4931640625 0.09716796875
vt 0.4931640625 0.9044189453125
vt 0.453125 0.9044189453125
vt 0.533203125 0.9044189453125
vt 0.4931640625 0.9044189453125
vt 0.4931640625 0.09716796875
vt 0.4931640625 0.09716796875
vt 0.533203125 0.09716796875
vt 0.533203125 0.9044189453125
vt 0.533203125 0.9044189453125
vt 0.533203125 0.09716796875
vt 0.5732421875 0.09716796875
vt 0.5732421875 0.09716796875
vt 0.5732421875 0.9044189453125
vt 0.533203125 0.9044189453125
vt 0.61328125 0.9044189453125
vt 0.5732421875 0.9044189453125
vt 0.5732421875 0.09716796875
vt 0.5732421875 0.09716796875
vt 0.61328125 0.09716796875
vt 0.61328125 0.9044189453125
vt 0.61328125 0.9044189453125
vt 0.61328125 0.09716796875
vt 0.6533203125 0.09716796875
vt 0.6533203125 0.09716796875
vt 0.6533203125 0.9044189453125
vt 0.61328125 0.9044189453125
vt 0.693359375 0.9044189453125
vt 0.6533203125 0.9044189453125
vt 0.6533203125 0.09716796875
vt 0.6533203125 0.09716796875
vt 0.693359375 0.09716796875
vt 0.693359375 0.9044189453125
vt 0.693359375 0.9044189453125
vt 0.693359375 0.09716796875
vt 0.7333984375 0.09716796875
vt 0.7333984375 0.09716796875
vt 0.7333984375 0.9044189453125
vt 0.693359375 0.9044189453125
vt 0.7734375 0.9044189453125
vt 0.7333984375 0.9044189453125
vt 0.7333984375 0.09716796875
vt 0.7333984375 0.09716796875
vt 0.7734375 0.09716796875
vt 0.7734375 0.9044189453125
vt 0.7734375 0.9044189453125
vt 0.7734375 0.09716796875
vt 0.8134765625 0.09716796875
vt 0.8134765625 0.09716796875
vt 0.8134765625 0.9044189453125
vt 0.7734375 0.9044189453125
vt 0.853515625 0.9044189453125
vt 0.8134765625 0.9044189453125
vt 0.8134765625 0.09716796875
vt 0.8134765625 0.09716796875
vt 0.853515625 0.09716796875
vt 0.853515625 0.9044189453125
vt 0.853515625 0.9044189453125
vt 0.853515625 0.09716796875
vt 0.8935546875 0.09716796875
vt 0.8935546875 0.09716796875
vt 0.8935546875 0.9044189453125
vt 0.853515625 0.9044189453125
vt 0.93896484375 0.9044189453125
vt 0.8935546875 0.9044189453125
vt 0.8935546875 0.09716796875
vt 0.8935546875 0.09716796875
vt 0.93896484375 0.09716796875
vt 0.93896484375 0.9044189453125
vt 0.93896484375 0.9044189453125
vt 0.93896484375 0.09716796875
vt 0.984375 0.09716796875
vt 0.984375 0.09716796875
vt 0.984375 0.9044189453125
vt 0.93896484375 0.9044189453125
vn -0.2880695164203644 0.953307032585144 0.09067265689373016
vn -0.726111888885498 0.6815723776817322 0.09066858142614365
vn -0.7261015772819519 0.6815827488899231 0.09067224711179733
vn -0.2880525290966034 0.9533119797706604 0.09067622572183609
vn 0.22721874713897705 0.9696130752563477 0.09067506343126297
vn 0.22721709311008453 0.9696135520935059 0.09067495912313461
vn 0.6815915703773499 0.7260933518409729 0.09067178517580032
vn 0.6815921664237976 0.7260925769805908 0.09067292511463165
vn 0.9533172845840454 0.28803563117980957 0.09067294001579285
vn 0.953315794467926 0.2880409061908722 0.09067212045192719
vn 0.969614565372467 -0.22721363604068756 0.09067335724830627
vn 0.969618022441864 -0.2271990329027176 0.0906720906496048
vn 0.7260944247245789 -0.6815899610519409 0.09067527949810028
vn 0.7261015772819519 -0.6815824508666992 0.09067411720752716
vn 0.28802740573883057 -0.9533196687698364 0.09067464619874954
vn 0.28804218769073486 -0.9533153176307678 0.09067277610301971
vn -0.2272196114063263 -0.9696130156517029 0.09067457169294357
vn -0.22719746828079224 -0.969618558883667 0.09067099541425705
vn -0.6815826296806335 -0.7261017560958862 0.09067115187644958
vn -0.6815770864486694 -0.7261070013046265 0.09067130833864212
vn -0.9533161520957947 -0.28803983330726624 0.0906723365187645
vn -0.953315794467926 -0.28804099559783936 0.09067220985889435
vn -0.9696117043495178 0.22722619771957397 0.09067178517580032
vn -0.9696147441864014 0.22721388936042786 0.09067046642303467
vn 0.5243887305259705 -0.8453161716461182 -0.10225944221019745
vn 0.7253697514533997 -0.6808890700340271 -0.10113726556301117
vn 0.7253645062446594 -0.6808946132659912 -0.10113745182752609
vn 0.5243825316429138 -0.8453200459480286 -0.10225963592529297
vn 0.2877478301525116 -0.9523511528968811 -0.1011357307434082
vn 0.2877519428730011 -0.9523500204086304 -0.10113532841205597
vn 0.03143126517534256 -0.9942612051963806 -0.10225851088762283
vn 0.031421415507793427 -0.9942613244056702 -0.10225945711135864
vn -0.22699803113937378 -0.9686294794082642 -0.10113765299320221
vn -0.22700235247612 -0.9686287045478821 -0.10113575309515
vn -0.46988871693611145 -0.8767822980880737 -0.10226181894540787
vn -0.46986833214759827 -0.8767930865287781 -0.10226210206747055
vn -0.6808986663818359 -0.7253607511520386 -0.10113655030727386
vn -0.6808692216873169 -0.7253878116607666 -0.10114192962646484
vn -0.8453302979469299 -0.5243650078773499 -0.10226448625326157
vn -0.8453330993652344 -0.5243625640869141 -0.10225335508584976
vn -0.9523428082466125 -0.28777432441711426 -0.10113955289125443
vn -0.9523617625236511 -0.2877105176448822 -0.10114192962646484
vn -0.9942600727081299 -0.031444843858480453 -0.10226480662822723
vn -0.9942596554756165 -0.03144247457385063 -0.10226964950561523
vn -0.9686285257339478 0.22699953615665436 -0.10114330798387527
vn -0.968636155128479 0.22696761786937714 -0.10114216804504395
vn -0.8767849802970886 0.46988317370414734 -0.10226359963417053
vn -0.8767838478088379 0.4698857367038727 -0.10226190835237503
vn -0.7253719568252563 0.6808867454528809 -0.10113722831010818
vn -0.7253826856613159 0.6808751225471497 -0.10113953053951263
vn -0.5243645906448364 0.8453308343887329 -0.10226202011108398
vn -0.5243688821792603 0.8453289270401001 -0.10225684195756912
vn -0.2877383232116699 0.9523540735244751 -0.10113509744405746
vn -0.28772756457328796 0.9523569941520691 -0.10113848745822906
vn -0.03144161030650139 0.9942607283592224 -0.10225983709096909
vn -0.03144320845603943 0.9942609667778015 -0.10225658118724823
vn 0.22696179151535034 0.9686381220817566 -0.10113644599914551
vn 0.22699639201164246 0.9686301350593567 -0.1011359691619873
vn 0.4699004590511322 0.8767763376235962 -0.10225860029459
vn 0.46989232301712036 0.8767802715301514 -0.10226210951805115
vn 0.6808731555938721 0.725384533405304 -0.10113861411809921
vn 0.6808692812919617 0.7253882884979248 -0.10113712400197983
vn 0.8453169465065002 0.5243879556655884 -0.1022583395242691
vn 0.8453289270401001 0.5243676900863647 -0.10226242989301682
vn 0.9523597955703735 0.28771835565567017 -0.10113857686519623
vn 0.9523643851280212 0.28770512342453003 -0.10113215446472168
vn 0.9942615032196045 0.03142043948173523 -0.10225778073072433
vn 0.994259774684906 0.03145978972315788 -0.10226297378540039
vn 0.9686363935470581 -0.2269665151834488 -0.10114127397537231
vn 0.968636155128479 -0.22696858644485474 -0.10114067047834396
vn 0.8767683506011963 -0.4699144959449768 -0.10226236283779144
vn 0.8767687082290649 -0.4699135422706604 -0.1022634506225586
f 1/1/1 2/2/2 3/3/3
f 3/4/3 4/5/4 1/6/1
f 5/7/5 1/8/1 4/9/4
f 4/10/4 6/11/6 5/12/5
f 7/13/7 5/14/5 6/15/6
f 6/16/6 8/17/8 7/18/7
f 9/19/9 7/20/7 8/21/8
f 8/22/8 10/23/10 9/24/9
f 11/25/11 9/26/9 10/27/10
f 10/28/10 12/29/12 11/30/11
f 13/31/13 11/32/11 12/33/12
f 12/34/12 14/35/14 13/36/13
f 15/37/15 13/38/13 14/39/14
f 14/40/14 16/41/16 15/42/15
f 17/43/17 15/44/15 16/45/16
f 16/46/16 18/47/18 17/48/17
f 19/49/19 17/50/17 18/51/18
f 18/52/18 20/53/20 19/54/19
f 21/55/21 19/56/19 20/57/20
f 20/58/20 22/59/22 21/60/21
f 23/61/23 21/62/21 22/63/22
f 22/64/22 24/65/24 23/66/23
f 2/67/2 23/68/23 24/69/24
f 24/70/24 3/71/3 2/72/2
f 25/73/25 26/74/26 27/75/27
f 27/76/27 28/77/28 25/78/25
f 25/79/25 28/80/28 29/81/29
f 29/82/29 30/83/30 25/84/25
f 31/85/31 30/86/30 29/87/29
f 29/88/29 32/89/32 31/90/31
f 31/91/31 32/92/32 33/93/33
f 33/94/33 34/95/34 31/96/31
f 35/97/35 34/98/34 33/99/33
f 33/100/33 36/101/36 35/102/35
f 35/103/35 36/104/36 37/105/37
f 37/106/37 38/107/38 35/108/35
f 39/109/39 38/110/38 37/111/37
f 37/112/37 40/113/40 39/114/39
f 39/115/39 40/116/40 41/117/41
f 41/118/41 42/119/42 39/120/39
f 43/121/43 42/122/42 41/123/41
f 41/124/41 44/125/44 43/126/43
f 43/127/43 44/128/44 45/129/45
f 45/130/45 46/131/46 43/132/43
f 47/133/47 46/134/46 45/135/45
f 45/136/45 48/137/48 47/138/47
f 47/139/47 48/140/48 49/141/49
f 49/142/49 50/143/50 47/144/47
f 51/145/51 50/146/50 49/147/49
f 49/148/49 52/149/52 51/150/51
f 51/151/51 52/152/52 53/153/53
f 53/154/53 54/155/54 51/156/51
f 55/157/55 54/158/54 53/159/53
f 53/160/53 56/161/56 55/162/55
f 55/163/55 56/164/56 57/165/57
f 57/166/57 58/167/58 55/168/55
f 59/169/59 58/170/58 57/171/57
f 57/172/57 60/173/60 59/174/59
f 59/175/59 60/176/60 61/177/61
f 61/178/61 62/179/62 59/180/59
f 63/181/63 62/182/62 61/183/61
f 61/184/61 64/185/64 63/186/63
f 63/187/63 64/188/64 65/189/65
f 65/190/65 66/191/66 63/192/63
f 67/193/67 66/194/66 65/195/65
f 65/196/65 68/197/68 67/198/67
f 67/199/67 68/200/68 69/201/69
f 69/202/69 70/203/70 67/204/67
f 71/205/71 70/206/70 69/207/69
f 69/208/69 72/209/72 71/210/71
f 71/211/71 72/212/72 27/213/27
f 27/214/27 26/215/26 71/216/71
