# Exported by Lightwave Blender addon
v 1811.753662109375 -2266.795166015625 1155.185546875
v 1811.753662109375 -2266.795166015625 1369.9620361328125
v 1923.6668701171875 -2314.645751953125 1155.185546875
v 1923.6668701171875 -2314.64599609375 1369.9620361328125
v 2082.73583984375 -2382.658447265625 1155.1856689453125
v 2082.73583984375 -2382.658447265625 1369.9620361328125
v 2194.64892578125 -2430.509033203125 1155.1856689453125
v 2194.64892578125 -2430.509033203125 1369.9620361328125
v 2350.74560546875 -2497.250732421875 1155.1856689453125
v 2350.74560546875 -2497.250732421875 1369.9620361328125
v 2462.65869140625 -2545.1015625 1155.1856689453125
v 2462.65869140625 -2545.1015625 1369.9620361328125
v 2605.8671875 -2606.33251953125 1155.1856689453125
v 2605.8671875 -2606.33251953125 1369.9620361328125
v 2717.780517578125 -2654.183349609375 1155.1856689453125
v 2717.780517578125 -2654.183349609375 1369.9620361328125
v 2650.14013671875 -2502.78662109375 831.7730102539062
v 2650.140380859375 -2502.78662109375 1046.54931640625
v 2762.053466796875 -2550.637451171875 831.7730102539062
v 2762.053466796875 -2550.637451171875 1046.54931640625
v 2395.018310546875 -2393.704833984375 831.7730102539062
v 2395.018310546875 -2393.704833984375 1046.54931640625
v 2506.931640625 -2441.555419921875 831.7730102539062
v 2506.931640625 -2441.5556640625 1046.54931640625
v 2127.0087890625 -2279.112548828125 831.7730102539062
v 2127.0087890625 -2279.112548828125 1046.54931640625
v 2238.921875 -2326.963134765625 831.7730102539062
v 2238.921875 -2326.963134765625 1046.54931640625
v 1856.026611328125 -2163.249267578125 831.7730102539062
v 1856.026611328125 -2163.249267578125 1046.54931640625
v 1967.939697265625 -2211.099853515625 831.7730102539062
v 1967.939697265625 -2211.099853515625 1046.54931640625
v 1856.026611328125 -2163.249267578125 535.1941528320312
v 1856.026611328125 -2163.249267578125 749.9703979492188
v 1967.939697265625 -2211.099853515625 535.1941528320312
v 1967.939697265625 -2211.099853515625 749.9703979492188
v 2127.0087890625 -2279.112548828125 535.1941528320312
v 2127.0087890625 -2279.112548828125 749.9703979492188
v 2238.921875 -2326.963134765625 535.1941528320312
v 2238.921875 -2326.963134765625 749.9703979492188
v 2395.018310546875 -2393.704833984375 535.1941528320312
v 2395.018310546875 -2393.704833984375 749.9703979492188
v 2506.931640625 -2441.5556640625 535.1941528320312
v 2506.931640625 -2441.5556640625 749.9703979492188
v 2650.14013671875 -2502.78662109375 535.1941528320312
v 2650.140380859375 -2502.78662109375 749.9703979492188
v 2762.053466796875 -2550.637451171875 535.1941528320312
v 2762.053466796875 -2550.637451171875 749.9703979492188
v 2083.9609375 -2402.193359375 1448.63134765625
v 2083.9609375 -2402.193359375 1644.0614013671875
v 2177.998779296875 -2442.4013671875 1448.63134765625
v 2177.998779296875 -2442.4013671875 1644.0614013671875
v 2356.815673828125 -2518.857421875 1448.63134765625
v 2356.815673828125 -2518.857421875 1644.0614013671875
v 2450.853759765625 -2559.065185546875 1448.63134765625
v 2450.853759765625 -2559.0654296875 1644.0614013671875
vt 0.4833984375 0.18603515625
vt 0.4833984375 0.9842376708984375
vt 0.01210784912109375 0.18603515625
vt 0.4833984375 0.9842376708984375
vt 0.01210784912109375 0.9842376708984375
vt 0.01210784912109375 0.18603515625
vt 0.4833984375 0.18603515625
vt 0.4833984375 0.9842376708984375
vt 0.01210784912109375 0.18603515625
vt 0.4833984375 0.9842376708984375
vt 0.01210784912109375 0.9842376708984375
vt 0.01210784912109375 0.18603515625
vt 0.4833984375 0.18603515625
vt 0.4833984375 0.9842376708984375
vt 0.01210784912109375 0.18603515625
vt 0.4833984375 0.9842376708984375
vt 0.01210784912109375 0.9842376708984375
vt 0.01210784912109375 0.18603515625
vt 0.4833984375 0.18603515625
vt 0.4833984375 0.9842376708984375
vt 0.01210784912109375 0.18603515625
vt 0.4833984375 0.9842376708984375
vt 0.01210784912109375 0.9842376708984375
vt 0.01210784912109375 0.18603515625
vt 0.4833984375 0.18603515625
vt 0.4833984375 0.9842376708984375
vt 0.01210784912109375 0.18603515625
vt 0.4833984375 0.9842376708984375
vt 0.01210784912109375 0.9842376708984375
vt 0.01210784912109375 0.18603515625
vt 0.4833984375 0.18603515625
vt 0.4833984375 0.9842376708984375
vt 0.01210784912109375 0.18603515625
vt 0.4833984375 0.9842376708984375
vt 0.01210784912109375 0.9842376708984375
vt 0.01210784912109375 0.18603515625
vt 0.4833984375 0.18603515625
vt 0.4833984375 0.9842376708984375
vt 0.01210784912109375 0.18603515625
vt 0.4833984375 0.9842376708984375
vt 0.01210784912109375 0.9842376708984375
vt 0.01210784912109375 0.18603515625
vt 0.4833984375 0.18603515625
vt 0.4833984375 0.9842376708984375
vt 0.01210784912109375 0.18603515625
vt 0.4833984375 0.9842376708984375
vt 0.01210784912109375 0.9842376708984375
vt 0.01210784912109375 0.18603515625
vt 0.4833984375 0.18603515625
vt 0.4833984375 0.9842376708984375
vt 0.01210784912109375 0.18603515625
vt 0.4833984375 0.9842376708984375
vt 0.01210784912109375 0.9842376708984375
vt 0.01210784912109375 0.18603515625
vt 0.4833984375 0.18603515625
vt 0.4833984375 0.9842376708984375
vt 0.01210784912109375 0.18603515625
vt 0.4833984375 0.9842376708984375
vt 0.01210784912109375 0.9842376708984375
vt 0.01210784912109375 0.18603515625
vt 0.4833984375 0.18603515625
vt 0.4833984375 0.9842376708984375
vt 0.01210784912109375 0.18603515625
vt 0.4833984375 0.9842376708984375
vt 0.01210784912109375 0.9842376708984375
vt 0.01210784912109375 0.18603515625
vt 0.4833984375 0.18603515625
vt 0.4833984375 0.9842376708984375
vt 0.01210784912109375 0.18603515625
vt 0.4833984375 0.9842376708984375
vt 0.01210784912109375 0.9842376708984375
vt 0.01210784912109375 0.18603515625
vt 0.4833984375 0.13232421875
vt 0.4833984375 0.9842376708984375
vt 0.01210784912109375 0.13232421875
vt 0.4833984375 0.9842376708984375
vt 0.01210784912109375 0.9842376708984375
vt 0.01210784912109375 0.13232421875
vt 0.4833984375 0.13232421875
vt 0.4833984375 0.9842376708984375
vt 0.01210784912109375 0.13232421875
vt 0.4833984375 0.9842376708984375
vt 0.01210784912109375 0.9842376708984375
vt 0.01210784912109375 0.13232421875
vn 0.39314019680023193 0.9194784760475159 0.0
vn 0.39314135909080505 0.9194779992103577 7.021279202490405e-07
vn 0.3931407630443573 0.9194782972335815 3.430606341225939e-07
vn 0.3931419551372528 0.9194777607917786 1.0451882417328306e-06
vn 0.393140584230423 0.9194783568382263 0.0
vn 0.393140584230423 0.9194783568382263 0.0
vn 0.393140584230423 0.9194783568382263 0.0
vn 0.393140584230423 0.9194783568382263 0.0
vn 0.3931422829627991 0.9194775819778442 0.0
vn 0.39314231276512146 0.919477641582489 0.0
vn 0.39314231276512146 0.919477641582489 0.0
vn 0.3931422829627991 0.9194775819778442 0.0
vn 0.39314156770706177 0.9194779992103577 0.0
vn 0.39314156770706177 0.9194779992103577 0.0
vn 0.39314156770706177 0.9194779992103577 0.0
vn 0.39314156770706177 0.9194779992103577 0.0
vn 0.39314156770706177 0.9194778800010681 -4.4689207356896077e-07
vn 0.39314207434654236 0.9194778203964233 -1.4668297865227942e-07
vn 0.3931417763233185 0.9194777607917786 -3.002093080795021e-07
vn 0.39314234256744385 0.9194777011871338 0.0
vn 0.39313986897468567 0.9194787740707397 0.0
vn 0.3931410014629364 0.919478178024292 7.021280907792971e-07
vn 0.39314037561416626 0.9194784760475159 3.430615436172957e-07
vn 0.39314156770706177 0.9194779396057129 1.0451892649143701e-06
vn 0.393140584230423 0.9194783568382263 0.0
vn 0.393140584230423 0.9194782972335815 0.0
vn 0.393140584230423 0.9194782972335815 0.0
vn 0.393140584230423 0.9194783568382263 0.0
vn 0.393140584230423 0.9194783568382263 0.0
vn 0.393140584230423 0.9194782972335815 0.0
vn 0.393140584230423 0.9194782972335815 0.0
vn 0.393140584230423 0.9194783568382263 0.0
vn 0.393140584230423 0.9194783568382263 0.0
vn 0.3931405246257782 0.9194782972335815 0.0
vn 0.3931405246257782 0.9194782972335815 0.0
vn 0.393140584230423 0.9194783568382263 0.0
vn 0.393140584230423 0.9194783568382263 0.0
vn 0.3931405246257782 0.9194782972335815 0.0
vn 0.3931405246257782 0.9194782972335815 0.0
vn 0.393140584230423 0.9194783568382263 0.0
vn 0.39314159750938416 0.9194779992103577 0.0
vn 0.39314159750938416 0.9194779396057129 0.0
vn 0.39314159750938416 0.9194779396057129 0.0
vn 0.39314159750938416 0.9194779992103577 0.0
vn 0.39314159750938416 0.9194778800010681 -4.468922156775079e-07
vn 0.39314207434654236 0.9194777011871338 -1.4668300707398885e-07
vn 0.39314183592796326 0.9194778800010681 -3.002094217663398e-07
vn 0.39314234256744385 0.9194777011871338 0.0
vn 0.39314329624176025 0.9194772243499756 0.0
vn 0.39314326643943787 0.9194771647453308 0.0
vn 0.39314326643943787 0.9194771647453308 0.0
vn 0.39314329624176025 0.9194772243499756 0.0
vn 0.39314040541648865 0.9194785356521606 0.0
vn 0.39314180612564087 0.9194778800010681 7.960914558680088e-07
vn 0.3931410014629364 0.9194781184196472 3.5256434216535126e-07
vn 0.3931424021720886 0.9194775819778442 1.1486555422379752e-06
f 1/1/1 2/2/2 3/3/3
f 2/4/2 4/5/4 3/6/3
f 5/7/5 6/8/6 7/9/7
f 6/10/6 8/11/8 7/12/7
f 9/13/9 10/14/10 11/15/11
f 10/16/10 12/17/12 11/18/11
f 13/19/13 14/20/14 15/21/15
f 14/22/14 16/23/16 15/24/15
f 17/25/17 18/26/18 19/27/19
f 18/28/18 20/29/20 19/30/19
f 21/31/21 22/32/22 23/33/23
f 22/34/22 24/35/24 23/36/23
f 25/37/25 26/38/26 27/39/27
f 26/40/26 28/41/28 27/42/27
f 29/43/29 30/44/30 31/45/31
f 30/46/30 32/47/32 31/48/31
f 33/49/33 34/50/34 35/51/35
f 34/52/34 36/53/36 35/54/35
f 37/55/37 38/56/38 39/57/39
f 38/58/38 40/59/40 39/60/39
f 41/61/41 42/62/42 43/63/43
f 42/64/42 44/65/44 43/66/43
f 45/67/45 46/68/46 47/69/47
f 46/70/46 48/71/48 47/72/47
f 49/73/49 50/74/50 51/75/51
f 50/76/50 52/77/52 51/78/51
f 53/79/53 54/80/54 55/81/55
f 54/82/54 56/83/56 55/84/55
