# Exported by Lightwave Blender addon
v -67.8950424194336 462.4630126953125 540.0186157226562
v -67.89503479003906 462.4630432128906 498.6801452636719
v -112.1336441040039 382.397216796875 540.0185546875
v -112.1336441040039 382.397216796875 498.68011474609375
vt 0.0013761520385742188 0.2392578125
vt 0.0013761520385742188 0.00732421875
vt 0.57177734375 0.2392578125
vt 0.0013761520385742188 0.00732421875
vt 0.57177734375 0.00732421875
vt 0.57177734375 0.2392578125
vn -0.8752798438072205 0.4836166799068451 1.954826842620605e-07
vn -0.87527996301651 0.4836167097091675 1.4266245784710918e-07
vn -0.87527996301651 0.4836167097091675 5.28202797056565e-08
vn -0.8752799034118652 0.4836166799068451 0.0
f 1/1/1 2/2/2 3/3/3
f 2/4/2 4/5/4 3/6/3
