# Exported by Lightwave Blender addon
v -121.4177017211914 422.5133972167969 414.82647705078125
v -121.03652954101562 422.307861328125 414.4631042480469
v -121.33130645751953 422.4667663574219 415.38311767578125
v -120.5689697265625 422.05572509765625 414.65643310546875
v -120.48255157470703 422.0091857910156 415.213134765625
v -120.86373901367188 422.2146911621094 415.5765380859375
v -120.04003143310547 424.8617858886719 415.3831787109375
v -120.12642669677734 424.90838623046875 414.826416015625
v -117.18336486816406 430.1602478027344 415.3831787109375
v -117.28777313232422 430.1734313964844 414.82647705078125
v -116.45649719238281 431.0214538574219 415.1893005371094
v -119.74526977539062 424.702880859375 414.463134765625
v -119.27769470214844 424.4507751464844 414.65643310546875
v -116.94261932373047 429.901123046875 414.4631042480469
v -116.49305725097656 429.6156005859375 414.6564636230469
v -116.63300323486328 430.9492492675781 414.65179443359375
v -115.48653411865234 431.45391845703125 414.6450500488281
v -116.43204498291016 430.5060729980469 414.326904296875
v -116.0545654296875 430.1351623535156 414.53948974609375
v -115.78526306152344 431.32720947265625 414.1761779785156
v -114.54071044921875 431.3056640625 413.887451171875
v -115.82877349853516 430.7750244140625 413.9884033203125
v -115.57355499267578 430.349609375 414.26959228515625
v -114.9566421508789 431.1972961425781 413.5124206542969
v -113.8927230834961 430.5921325683594 413.1247253417969
v -115.23453521728516 430.681884765625 413.5124816894531
v -115.09648895263672 430.27484130859375 413.887451171875
v -114.38842010498047 430.57159423828125 412.8435363769531
v -113.71977996826172 429.5370788574219 412.5768737792969
v -114.82579040527344 430.2318115234375 413.0312805175781
v -114.76750183105469 429.9125671386719 413.5002136230469
v -114.23712158203125 429.6486511230469 412.3642883300781
v -114.04219818115234 428.4486999511719 412.381591796875
v -114.71780395507812 429.5729675292969 412.6891784667969
v -114.68114471435547 429.38580322265625 413.2266540527344
v -114.52777099609375 428.6673889160156 412.1882019042969
v -116.89137268066406 423.1641845703125 412.381591796875
v -114.94495391845703 428.8061218261719 412.5516052246094
v -114.87657165527344 428.7261047363281 413.10833740234375
v -117.35891723632812 423.4162902832031 412.18829345703125
v -118.23861694335938 420.6653137207031 412.38153076171875
v -118.70619201660156 420.9174499511719 412.188232421875
v -117.7400894165039 423.6217956542969 412.55157470703125
v -117.65369415283203 423.5751647949219 413.1082763671875
v -119.08736419677734 421.1229248046875 412.55157470703125
v -119.00096130371094 421.0763244628906 413.1082763671875
v -119.19129180908203 424.4042053222656 415.213134765625
v -116.38864135742188 429.6024475097656 415.2131652832031
v -119.57246398925781 424.60968017578125 415.5765075683594
v -116.73379516601562 429.874755859375 415.5765075683594
v -115.87806701660156 430.20745849609375 415.0769348144531
v -116.07903289794922 430.65057373046875 415.4018249511719
v -115.27479553222656 430.4763488769531 414.73846435546875
v -115.23128509521484 431.0284729003906 414.92620849609375
v -114.68057250976562 430.3832092285156 414.2624816894531
v -114.40267181396484 430.89862060546875 414.2624816894531
v -114.27181243896484 429.9331359863281 413.7813720703125
v -113.83444213867188 430.2729187011719 413.5936279296875
v -114.16381072998047 429.2742919921875 413.4392395019531
v -113.68313598632812 429.34991455078125 413.11431884765625
v -114.39098358154297 428.5074157714844 413.3016662597656
v -113.97381591796875 428.36871337890625 412.93829345703125
v -117.18611907958984 423.3231201171875 413.3016357421875
v -118.53339385986328 420.8242492675781 413.3016357421875
v -116.80496215820312 423.1175842285156 412.93829345703125
v -118.15222930908203 420.6187438964844 412.93829345703125
vt 1.1640625 0.939483642578125
vt 1.1640625 0.8184814453125
vt 1.1640625 1.0
vt 1.1640625 0.8184814453125
vt 1.1640625 0.7579345703125
vt 1.1640625 1.0
vt 1.1640625 0.7579345703125
vt 1.1640625 0.8184814453125
vt 1.1640625 1.0
vt 1.1640625 0.8184814453125
vt 1.1640625 0.939483642578125
vt 1.1640625 1.0
vt 1.1640625 1.0
vt 0.919921875 1.0
vt 1.1640625 0.939483642578125
vt 0.919921875 1.0
vt 0.919921875 0.939483642578125
vt 1.1640625 0.939483642578125
vt 0.919921875 1.0
vt 0.378662109375 1.0
vt 0.919921875 0.939483642578125
vt 1.1640625 0.939483642578125
vt 0.919921875 0.939483642578125
vt 1.1640625 0.8184814453125
vt 0.378662109375 1.0
vt 0.382080078125 0.939483642578125
vt 0.919921875 0.939483642578125
vt 0.378662109375 1.0
vt 0.279541015625 0.9354248046875
vt 0.382080078125 0.939483642578125
vt 0.919921875 0.939483642578125
vt 0.919921875 0.8184814453125
vt 1.1640625 0.8184814453125
vt 0.919921875 0.939483642578125
vt 0.382080078125 0.939483642578125
vt 0.919921875 0.8184814453125
vt 1.1640625 0.8184814453125
vt 0.919921875 0.8184814453125
vt 1.1640625 0.7579345703125
vt 0.919921875 0.8184814453125
vt 0.919921875 0.7579345703125
vt 1.1640625 0.7579345703125
vt 0.919921875 0.8184814453125
vt 0.388916015625 0.8184814453125
vt 0.919921875 0.7579345703125
vt 0.382080078125 0.939483642578125
vt 0.388916015625 0.8184814453125
vt 0.919921875 0.8184814453125
vt 0.388916015625 0.8184814453125
vt 0.392333984375 0.7579345703125
vt 0.919921875 0.7579345703125
vt 0.279541015625 0.9354248046875
vt 0.292724609375 0.88128662109375
vt 0.382080078125 0.939483642578125
vt 0.382080078125 0.939483642578125
vt 0.292724609375 0.88128662109375
vt 0.388916015625 0.8184814453125
vt 0.279541015625 0.9354248046875
vt 0.203857421875 0.754150390625
vt 0.292724609375 0.88128662109375
vt 0.388916015625 0.8184814453125
vt 0.319091796875 0.7730712890625
vt 0.392333984375 0.7579345703125
vt 0.292724609375 0.88128662109375
vt 0.319091796875 0.7730712890625
vt 0.388916015625 0.8184814453125
vt 0.319091796875 0.7730712890625
vt 0.33251953125 0.718994140625
vt 0.392333984375 0.7579345703125
vt 0.203857421875 0.754150390625
vt 0.2266845703125 0.722900390625
vt 0.292724609375 0.88128662109375
vt 0.292724609375 0.88128662109375
vt 0.2266845703125 0.722900390625
vt 0.319091796875 0.7730712890625
vt 0.203857421875 0.754150390625
vt 0.17529296875 0.501708984375
vt 0.2266845703125 0.722900390625
vt 0.319091796875 0.7730712890625
vt 0.272216796875 0.660400390625
vt 0.33251953125 0.718994140625
vt 0.2266845703125 0.722900390625
vt 0.272216796875 0.660400390625
vt 0.319091796875 0.7730712890625
vt 0.272216796875 0.660400390625
vt 0.294921875 0.629150390625
vt 0.33251953125 0.718994140625
vt 0.17529296875 0.501708984375
vt 0.2015380859375 0.501708984375
vt 0.2266845703125 0.722900390625
vt 0.2266845703125 0.722900390625
vt 0.2015380859375 0.501708984375
vt 0.272216796875 0.660400390625
vt 0.17529296875 0.501708984375
vt 0.2041015625 0.248046875
vt 0.2015380859375 0.501708984375
vt 0.272216796875 0.660400390625
vt 0.254150390625 0.501708984375
vt 0.294921875 0.629150390625
vt 0.2015380859375 0.501708984375
vt 0.254150390625 0.501708984375
vt 0.272216796875 0.660400390625
vt 0.254150390625 0.501708984375
vt 0.280517578125 0.501708984375
vt 0.294921875 0.629150390625
vt 0.2041015625 0.248046875
vt 0.226806640625 0.279296875
vt 0.2015380859375 0.501708984375
vt 0.2015380859375 0.501708984375
vt 0.226806640625 0.279296875
vt 0.254150390625 0.501708984375
vt 0.2041015625 0.248046875
vt 0.280029296875 0.0654296875
vt 0.226806640625 0.279296875
vt 0.254150390625 0.501708984375
vt 0.2724609375 0.341796875
vt 0.280517578125 0.501708984375
vt 0.226806640625 0.279296875
vt 0.2724609375 0.341796875
vt 0.254150390625 0.501708984375
vt 0.2724609375 0.341796875
vt 0.295166015625 0.373046875
vt 0.280517578125 0.501708984375
vt 0.280029296875 0.0654296875
vt 0.29345703125 0.11962890625
vt 0.226806640625 0.279296875
vt 0.226806640625 0.279296875
vt 0.29345703125 0.11962890625
vt 0.2724609375 0.341796875
vt 0.280029296875 0.0654296875
vt 0.380126953125 0.0
vt 0.29345703125 0.11962890625
vt 0.2724609375 0.341796875
vt 0.31982421875 0.2275390625
vt 0.295166015625 0.373046875
vt 0.29345703125 0.11962890625
vt 0.31982421875 0.2275390625
vt 0.2724609375 0.341796875
vt 0.31982421875 0.2275390625
vt 0.333251953125 0.28173828125
vt 0.295166015625 0.373046875
vt 0.380126953125 0.0
vt 0.383544921875 0.060546875
vt 0.29345703125 0.11962890625
vt 0.29345703125 0.11962890625
vt 0.383544921875 0.060546875
vt 0.31982421875 0.2275390625
vt 0.380126953125 0.0
vt 0.919921875 0.00048828125
vt 0.383544921875 0.060546875
vt 0.31982421875 0.2275390625
vt 0.390380859375 0.181640625
vt 0.333251953125 0.28173828125
vt 0.383544921875 0.060546875
vt 0.390380859375 0.181640625
vt 0.31982421875 0.2275390625
vt 0.390380859375 0.181640625
vt 0.393798828125 0.2421875
vt 0.333251953125 0.28173828125
vt 0.919921875 0.00048828125
vt 0.919921875 0.060546875
vt 0.383544921875 0.060546875
vt 0.383544921875 0.060546875
vt 0.919921875 0.060546875
vt 0.390380859375 0.181640625
vt 0.919921875 0.00048828125
vt 1.1748046875 0.0
vt 0.919921875 0.060546875
vt 1.1748046875 0.0
vt 1.1748046875 0.060546875
vt 0.919921875 0.060546875
vt 0.390380859375 0.181640625
vt 0.919921875 0.181640625
vt 0.393798828125 0.2421875
vt 0.919921875 0.060546875
vt 0.919921875 0.181640625
vt 0.390380859375 0.181640625
vt 0.919921875 0.060546875
vt 1.1748046875 0.060546875
vt 0.919921875 0.181640625
vt 0.919921875 0.181640625
vt 0.919921875 0.2421875
vt 0.393798828125 0.2421875
vt 1.1748046875 0.060546875
vt 1.1748046875 0.181640625
vt 0.919921875 0.181640625
vt 0.919921875 0.181640625
vt 1.1748046875 0.181640625
vt 0.919921875 0.2421875
vt 1.1748046875 0.181640625
vt 1.1748046875 0.2421875
vt 0.919921875 0.2421875
vt 1.1640625 0.7579345703125
vt 0.919921875 0.7579345703125
vt 1.1640625 0.8184814453125
vt 0.919921875 0.7579345703125
vt 0.919921875 0.8184814453125
vt 1.1640625 0.8184814453125
vt 0.919921875 0.7579345703125
vt 0.392333984375 0.7579345703125
vt 0.919921875 0.8184814453125
vt 1.1640625 0.8184814453125
vt 0.919921875 0.8184814453125
vt 1.1640625 0.939483642578125
vt 0.392333984375 0.7579345703125
vt 0.388916015625 0.8184814453125
vt 0.919921875 0.8184814453125
vt 0.392333984375 0.7579345703125
vt 0.33251953125 0.718994140625
vt 0.388916015625 0.8184814453125
vt 0.919921875 0.8184814453125
vt 0.919921875 0.939483642578125
vt 1.1640625 0.939483642578125
vt 0.919921875 0.8184814453125
vt 0.388916015625 0.8184814453125
vt 0.919921875 0.939483642578125
vt 1.1640625 0.939483642578125
vt 0.919921875 0.939483642578125
vt 1.1640625 1.0
vt 0.919921875 0.939483642578125
vt 0.919921875 1.0
vt 1.1640625 1.0
vt 0.919921875 0.939483642578125
vt 0.382080078125 0.939483642578125
vt 0.919921875 1.0
vt 0.388916015625 0.8184814453125
vt 0.382080078125 0.939483642578125
vt 0.919921875 0.939483642578125
vt 0.382080078125 0.939483642578125
vt 0.378662109375 1.0
vt 0.919921875 1.0
vt 0.33251953125 0.718994140625
vt 0.319091796875 0.7730712890625
vt 0.388916015625 0.8184814453125
vt 0.388916015625 0.8184814453125
vt 0.319091796875 0.7730712890625
vt 0.382080078125 0.939483642578125
vt 0.33251953125 0.718994140625
vt 0.294921875 0.629150390625
vt 0.319091796875 0.7730712890625
vt 0.382080078125 0.939483642578125
vt 0.292724609375 0.88128662109375
vt 0.378662109375 1.0
vt 0.319091796875 0.7730712890625
vt 0.292724609375 0.88128662109375
vt 0.382080078125 0.939483642578125
vt 0.292724609375 0.88128662109375
vt 0.279541015625 0.9354248046875
vt 0.378662109375 1.0
vt 0.294921875 0.629150390625
vt 0.272216796875 0.660400390625
vt 0.319091796875 0.7730712890625
vt 0.319091796875 0.7730712890625
vt 0.272216796875 0.660400390625
vt 0.292724609375 0.88128662109375
vt 0.294921875 0.629150390625
vt 0.280517578125 0.501708984375
vt 0.272216796875 0.660400390625
vt 0.292724609375 0.88128662109375
vt 0.2266845703125 0.722900390625
vt 0.279541015625 0.9354248046875
vt 0.272216796875 0.660400390625
vt 0.2266845703125 0.722900390625
vt 0.292724609375 0.88128662109375
vt 0.2266845703125 0.722900390625
vt 0.203857421875 0.754150390625
vt 0.279541015625 0.9354248046875
vt 0.280517578125 0.501708984375
vt 0.254150390625 0.501708984375
vt 0.272216796875 0.660400390625
vt 0.272216796875 0.660400390625
vt 0.254150390625 0.501708984375
vt 0.2266845703125 0.722900390625
vt 0.280517578125 0.501708984375
vt 0.295166015625 0.373046875
vt 0.254150390625 0.501708984375
vt 0.2266845703125 0.722900390625
vt 0.2015380859375 0.501708984375
vt 0.203857421875 0.754150390625
vt 0.254150390625 0.501708984375
vt 0.2015380859375 0.501708984375
vt 0.2266845703125 0.722900390625
vt 0.2015380859375 0.501708984375
vt 0.17529296875 0.501708984375
vt 0.203857421875 0.754150390625
vt 0.295166015625 0.373046875
vt 0.2724609375 0.341796875
vt 0.254150390625 0.501708984375
vt 0.254150390625 0.501708984375
vt 0.2724609375 0.341796875
vt 0.2015380859375 0.501708984375
vt 0.295166015625 0.373046875
vt 0.333251953125 0.28173828125
vt 0.2724609375 0.341796875
vt 0.2015380859375 0.501708984375
vt 0.226806640625 0.279296875
vt 0.17529296875 0.501708984375
vt 0.2724609375 0.341796875
vt 0.226806640625 0.279296875
vt 0.2015380859375 0.501708984375
vt 0.226806640625 0.279296875
vt 0.2041015625 0.248046875
vt 0.17529296875 0.501708984375
vt 0.333251953125 0.28173828125
vt 0.31982421875 0.2275390625
vt 0.2724609375 0.341796875
vt 0.2724609375 0.341796875
vt 0.31982421875 0.2275390625
vt 0.226806640625 0.279296875
vt 0.333251953125 0.28173828125
vt 0.393798828125 0.2421875
vt 0.31982421875 0.2275390625
vt 0.226806640625 0.279296875
vt 0.29345703125 0.11962890625
vt 0.2041015625 0.248046875
vt 0.31982421875 0.2275390625
vt 0.29345703125 0.11962890625
vt 0.226806640625 0.279296875
vt 0.29345703125 0.11962890625
vt 0.280029296875 0.0654296875
vt 0.2041015625 0.248046875
vt 0.393798828125 0.2421875
vt 0.390380859375 0.181640625
vt 0.31982421875 0.2275390625
vt 0.31982421875 0.2275390625
vt 0.390380859375 0.181640625
vt 0.29345703125 0.11962890625
vt 0.393798828125 0.2421875
vt 0.919921875 0.2421875
vt 0.390380859375 0.181640625
vt 0.29345703125 0.11962890625
vt 0.383544921875 0.060546875
vt 0.280029296875 0.0654296875
vt 0.390380859375 0.181640625
vt 0.383544921875 0.060546875
vt 0.29345703125 0.11962890625
vt 0.383544921875 0.060546875
vt 0.380126953125 0.0
vt 0.280029296875 0.0654296875
vt 0.919921875 0.2421875
vt 0.919921875 0.181640625
vt 0.390380859375 0.181640625
vt 0.390380859375 0.181640625
vt 0.919921875 0.181640625
vt 0.383544921875 0.060546875
vt 0.919921875 0.2421875
vt 1.1748046875 0.2421875
vt 0.919921875 0.181640625
vt 1.1748046875 0.2421875
vt 1.1748046875 0.181640625
vt 0.919921875 0.181640625
vt 0.383544921875 0.060546875
vt 0.919921875 0.060546875
vt 0.380126953125 0.0
vt 0.919921875 0.181640625
vt 0.919921875 0.060546875
vt 0.383544921875 0.060546875
vt 0.919921875 0.181640625
vt 1.1748046875 0.181640625
vt 0.919921875 0.060546875
vt 0.919921875 0.060546875
vt 0.919921875 0.00048828125
vt 0.380126953125 0.0
vt 1.1748046875 0.181640625
vt 1.1748046875 0.060546875
vt 0.919921875 0.060546875
vt 0.919921875 0.060546875
vt 1.1748046875 0.060546875
vt 0.919921875 0.00048828125
vt 1.1748046875 0.060546875
vt 1.1748046875 0.0
vt 0.919921875 0.00048828125
vt 1.1748046875 0.181640625
vt 1.1748046875 0.060546875
vt 1.1748046875 0.0
vt 1.1748046875 0.181640625
vt 1.1748046875 0.0
vt 1.1748046875 0.181640625
vt 1.1748046875 0.2421875
vt 1.1748046875 0.181640625
vt 1.1748046875 0.181640625
vt 1.1748046875 0.060546875
vt 1.1748046875 0.181640625
vt 1.1748046875 0.0
vn -0.9449190497398376 -0.18350227177143097 -0.2710259258747101
vn -0.41061344742774963 -0.4716028869152069 -0.7803763151168823
vn -0.8238178491592407 -0.2488715499639511 0.5093005299568176
vn 0.24480557441711426 -0.8250110745429993 -0.5093395709991455
vn 0.36595985293388367 -0.8902878761291504 0.2710367739200592
vn -0.16839636862277985 -0.6022021770477295 0.780381441116333
vn -0.6742810606956482 0.36353427171707153 0.6427967548370361
vn -0.8271151781082153 0.4459458291530609 -0.3420711159706116
vn -0.6051270961761475 0.4774493873119354 0.6370739936828613
vn -0.8002131581306458 0.5113883018493652 -0.3132743239402771
vn -0.34345543384552 0.7573907971382141 0.5553355813026428
vn -0.15284398198127747 0.08240924775600433 -0.9848083257675171
vn 0.6742648482322693 -0.36353012919425964 -0.6428161263465881
vn -0.2193453162908554 0.0479218065738678 -0.9744697213172913
vn 0.6051480174064636 -0.47745001316070557 -0.6370536684989929
vn -0.6614276766777039 0.6716107726097107 -0.33384495973587036
vn 0.07440759241580963 0.9441393613815308 0.3210364580154419
vn -0.3651624619960785 -0.04727734252810478 -0.9297425746917725
vn 0.3435085117816925 -0.7574277520179749 -0.555252194404602
vn -0.43150949478149414 0.7742213010787964 -0.46301308274269104
vn 0.47458386421203613 0.8802102208137512 -5.13795021106489e-06
vn -0.5433465838432312 -0.127569779753685 -0.8297592997550964
vn -0.07438844442367554 -0.9441520571708679 -0.32100337743759155
vn -0.21075384318828583 0.7394824028015137 -0.6393344402313232
vn 0.7479170560836792 0.5810127854347229 -0.32100510597229004
vn -0.7139905691146851 -0.09873323142528534 -0.6931589245796204
vn -0.4746018350124359 -0.8802006840705872 -2.289249323439435e-06
vn -0.06094551831483841 0.5744178891181946 -0.8162902593612671
vn 0.8215523958206177 0.12926085293293 -0.5552866458892822
vn -0.8310918807983398 0.02760198898613453 -0.5554497838020325
vn -0.7478946447372437 -0.5810315608978271 0.32102319598197937
vn -0.02008979022502899 0.32583901286125183 -0.9452117681503296
vn 0.7314652800559998 -0.24319520592689514 -0.6370357275009155
vn -0.86222904920578 0.22071976959705353 -0.4558989405632019
vn -0.8215439319610596 -0.129266157746315 0.5552979111671448
vn -0.0933937057852745 0.13030163943767548 -0.987065851688385
vn 0.6742630004882812 -0.36352869868278503 -0.6428191661834717
vn -0.841122031211853 0.3831506669521332 -0.3817186951637268
vn -0.7314236760139465 0.24319599568843842 0.6370832920074463
vn -0.15282854437828064 0.08240792900323868 -0.9848108887672424
vn 0.24482278525829315 -0.8249905109405518 -0.5093647241592407
vn -0.41060739755630493 -0.4715789258480072 -0.7803939580917358
vn -0.8271200060844421 0.4459494948387146 -0.3420548141002655
vn -0.6742883324623108 0.363541841506958 0.6427850127220154
vn -0.9449071288108826 -0.18355393409729004 -0.27103203535079956
vn -0.8238012790679932 -0.2488843947649002 0.5093210935592651
vn 0.8271386027336121 -0.4459512233734131 0.3420075476169586
vn 0.782351553440094 -0.49211475253105164 0.38177111744880676
vn 0.1528678983449936 -0.08242420107126236 0.9848034381866455
vn 0.16022051870822906 -0.006419625598937273 0.9870604276657104
vn 0.6582475304603577 -0.5990265011787415 0.45593565702438354
vn 0.28329530358314514 0.1622585654258728 0.9452068209648132
vn 0.4797404110431671 -0.6791970729827881 0.5554641485214233
vn 0.5133933424949646 0.264724463224411 0.8163015246391296
vn 0.30991488695144653 -0.6507515907287598 0.6931630969047546
vn 0.7336370944976807 0.2303272932767868 0.639316737651825
vn 0.192038893699646 -0.5240399241447449 0.8297609090805054
vn 0.883951723575592 0.06496232002973557 0.4630434215068817
vn 0.16121803224086761 -0.3310346305370331 0.9297444820404053
vn 0.9245956540107727 -0.18350929021835327 0.33383721113204956
vn 0.16060735285282135 -0.15690799057483673 0.9744666814804077
vn 0.8670007586479187 -0.38750889897346497 0.31328341364860535
vn 0.15282118320465088 -0.08239487558603287 0.9848130345344543
vn -0.1683913767337799 -0.6022143959999084 0.7803730964660645
vn 0.827133297920227 -0.44595250487327576 0.3420189321041107
vn 0.36592501401901245 -0.8902981877326965 0.27105003595352173
f 1/1/1 2/2/2 3/3/3
f 2/4/2 4/5/4 3/6/3
f 4/7/4 5/8/5 3/9/3
f 5/10/5 6/11/6 3/12/3
f 3/13/3 7/14/7 1/15/1
f 7/16/7 8/17/8 1/18/1
f 7/19/7 9/20/9 8/21/8
f 1/22/1 8/23/8 2/24/2
f 9/25/9 10/26/10 8/27/8
f 9/28/9 11/29/11 10/30/10
f 8/31/8 12/32/12 2/33/2
f 8/34/8 10/35/10 12/36/12
f 2/37/2 12/38/12 4/39/4
f 12/40/12 13/41/13 4/42/4
f 12/43/12 14/44/14 13/45/13
f 10/46/10 14/47/14 12/48/12
f 14/49/14 15/50/15 13/51/13
f 11/52/11 16/53/16 10/54/10
f 10/55/10 16/56/16 14/57/14
f 11/58/11 17/59/17 16/60/16
f 14/61/14 18/62/18 15/63/15
f 16/64/16 18/65/18 14/66/14
f 18/67/18 19/68/19 15/69/15
f 17/70/17 20/71/20 16/72/16
f 16/73/16 20/74/20 18/75/18
f 17/76/17 21/77/21 20/78/20
f 18/79/18 22/80/22 19/81/19
f 20/82/20 22/83/22 18/84/18
f 22/85/22 23/86/23 19/87/19
f 21/88/21 24/89/24 20/90/20
f 20/91/20 24/92/24 22/93/22
f 21/94/21 25/95/25 24/96/24
f 22/97/22 26/98/26 23/99/23
f 24/100/24 26/101/26 22/102/22
f 26/103/26 27/104/27 23/105/23
f 25/106/25 28/107/28 24/108/24
f 24/109/24 28/110/28 26/111/26
f 25/112/25 29/113/29 28/114/28
f 26/115/26 30/116/30 27/117/27
f 28/118/28 30/119/30 26/120/26
f 30/121/30 31/122/31 27/123/27
f 29/124/29 32/125/32 28/126/28
f 28/127/28 32/128/32 30/129/30
f 29/130/29 33/131/33 32/132/32
f 30/133/30 34/134/34 31/135/31
f 32/136/32 34/137/34 30/138/30
f 34/139/34 35/140/35 31/141/31
f 33/142/33 36/143/36 32/144/32
f 32/145/32 36/146/36 34/147/34
f 33/148/33 37/149/37 36/150/36
f 34/151/34 38/152/38 35/153/35
f 36/154/36 38/155/38 34/156/34
f 38/157/38 39/158/39 35/159/35
f 37/160/37 40/161/40 36/162/36
f 36/163/36 40/164/40 38/165/38
f 37/166/37 41/167/41 40/168/40
f 41/169/41 42/170/42 40/171/40
f 38/172/38 43/173/43 39/174/39
f 40/175/40 43/176/43 38/177/38
f 40/178/40 42/179/42 43/180/43
f 43/181/43 44/182/44 39/183/39
f 42/184/42 45/185/45 43/186/43
f 43/187/43 45/188/45 44/189/44
f 45/190/45 46/191/46 44/192/44
f 4/193/4 13/194/13 5/195/5
f 13/196/13 47/197/47 5/198/5
f 13/199/13 15/200/15 47/201/47
f 5/202/5 47/203/47 6/204/6
f 15/205/15 48/206/48 47/207/47
f 15/208/15 19/209/19 48/210/48
f 47/211/47 49/212/49 6/213/6
f 47/214/47 48/215/48 49/216/49
f 6/217/6 49/218/49 3/219/3
f 49/220/49 7/221/7 3/222/3
f 49/223/49 50/224/50 7/225/7
f 48/226/48 50/227/50 49/228/49
f 50/229/50 9/230/9 7/231/7
f 19/232/19 51/233/51 48/234/48
f 48/235/48 51/236/51 50/237/50
f 19/238/19 23/239/23 51/240/51
f 50/241/50 52/242/52 9/243/9
f 51/244/51 52/245/52 50/246/50
f 52/247/52 11/248/11 9/249/9
f 23/250/23 53/251/53 51/252/51
f 51/253/51 53/254/53 52/255/52
f 23/256/23 27/257/27 53/258/53
f 52/259/52 54/260/54 11/261/11
f 53/262/53 54/263/54 52/264/52
f 54/265/54 17/266/17 11/267/11
f 27/268/27 55/269/55 53/270/53
f 53/271/53 55/272/55 54/273/54
f 27/274/27 31/275/31 55/276/55
f 54/277/54 56/278/56 17/279/17
f 55/280/55 56/281/56 54/282/54
f 56/283/56 21/284/21 17/285/17
f 31/286/31 57/287/57 55/288/55
f 55/289/55 57/290/57 56/291/56
f 31/292/31 35/293/35 57/294/57
f 56/295/56 58/296/58 21/297/21
f 57/298/57 58/299/58 56/300/56
f 58/301/58 25/302/25 21/303/21
f 35/304/35 59/305/59 57/306/57
f 57/307/57 59/308/59 58/309/58
f 35/310/35 39/311/39 59/312/59
f 58/313/58 60/314/60 25/315/25
f 59/316/59 60/317/60 58/318/58
f 60/319/60 29/320/29 25/321/25
f 39/322/39 61/323/61 59/324/59
f 59/325/59 61/326/61 60/327/60
f 39/328/39 44/329/44 61/330/61
f 60/331/60 62/332/62 29/333/29
f 61/334/61 62/335/62 60/336/60
f 62/337/62 33/338/33 29/339/29
f 44/340/44 63/341/63 61/342/61
f 61/343/61 63/344/63 62/345/62
f 44/346/44 46/347/46 63/348/63
f 46/349/46 64/350/64 63/351/63
f 62/352/62 65/353/65 33/354/33
f 63/355/63 65/356/65 62/357/62
f 63/358/63 64/359/64 65/360/65
f 65/361/65 37/362/37 33/363/33
f 64/364/64 66/365/66 65/366/65
f 65/367/65 66/368/66 37/369/37
f 66/370/66 41/371/41 37/372/37
f 45/373/45 42/374/42 41/375/41
f 45/376/45 41/377/41 64/378/64
f 46/379/46 45/380/45 64/381/64
f 66/382/66 64/383/64 41/384/41
