# Exported by Lightwave Blender addon
v 700.6300659179688 -369.9283142089844 548.8751220703125
v 700.6704711914062 -369.82440185546875 550.7334594726562
v 805.6962890625 -410.7602233886719 548.8750610351562
v 805.7366943359375 -410.65631103515625 550.7334594726562
v 700.6050415039062 -369.9927978515625 551.6834106445312
v 805.6712646484375 -410.82470703125 551.6834106445312
v 700.3358154296875 -370.68560791015625 552.4701538085938
v 805.4020385742188 -411.51751708984375 552.4700927734375
v 804.683837890625 -413.36541748046875 553.0780029296875
v 699.6176147460938 -372.53350830078125 553.0780639648438
v 803.9656982421875 -414.66986083984375 552.6842041015625
v 698.8995361328125 -373.83795166015625 552.6842041015625
v 803.6964721679688 -415.7042236328125 551.8233032226562
v 698.6302490234375 -374.872314453125 551.8233642578125
v 698.5648193359375 -375.24261474609375 550.7334594726562
v 803.6310424804688 -416.0744934082031 550.7334594726562
v 803.6309814453125 -416.07452392578125 548.8751831054688
v 698.5648193359375 -375.24261474609375 548.875244140625
v 698.6627807617188 -374.99041748046875 548.723876953125
v 803.72900390625 -415.82232666015625 548.723876953125
v 805.594970703125 -411.0208740234375 548.723876953125
v 700.52880859375 -370.18896484375 548.7239379882812
vt 0.23583984375 0.36962890625
vt 0.23583984375 0.35888671875
vt 0.8974609375 0.36962890625
vt 0.23583984375 0.35888671875
vt 0.8974609375 0.35888671875
vt 0.8974609375 0.36962890625
vt 0.23583984375 0.35888671875
vt 0.23583984375 0.353515625
vt 0.8974609375 0.35888671875
vt 0.23583984375 0.353515625
vt 0.8974609375 0.353515625
vt 0.8974609375 0.35888671875
vt 0.23583984375 0.353515625
vt 0.23583984375 0.34814453125
vt 0.8974609375 0.353515625
vt 0.23583984375 0.34814453125
vt 0.8974609375 0.34814453125
vt 0.8974609375 0.353515625
vt 0.8974609375 0.34130859375
vt 0.8974609375 0.34814453125
vt 0.23583984375 0.34814453125
vt 0.23583984375 0.34130859375
vt 0.8974609375 0.34130859375
vt 0.23583984375 0.34814453125
vt 0.8974609375 0.3359375
vt 0.8974609375 0.34130859375
vt 0.23583984375 0.34130859375
vt 0.23583984375 0.3359375
vt 0.8974609375 0.3359375
vt 0.23583984375 0.34130859375
vt 0.8974609375 0.330078125
vt 0.8974609375 0.3359375
vt 0.23583984375 0.3359375
vt 0.23583984375 0.330078125
vt 0.8974609375 0.330078125
vt 0.23583984375 0.3359375
vt 0.8974609375 0.330078125
vt 0.23583984375 0.330078125
vt 0.23583984375 0.32373046875
vt 0.8974609375 0.32373046875
vt 0.8974609375 0.330078125
vt 0.23583984375 0.32373046875
vt 0.8974609375 0.31298828125
vt 0.8974609375 0.32373046875
vt 0.23583984375 0.32373046875
vt 0.23583984375 0.31298828125
vt 0.8974609375 0.31298828125
vt 0.23583984375 0.32373046875
vt 0.23583984375 0.31298828125
vt 0.23583984375 0.31201171875
vt 0.8974609375 0.31298828125
vt 0.23583984375 0.31201171875
vt 0.8974609375 0.31201171875
vt 0.8974609375 0.31298828125
vt 0.8974609375 0.29541015625
vt 0.8974609375 0.31201171875
vt 0.23583984375 0.31201171875
vt 0.23583984375 0.29541015625
vt 0.8974609375 0.29541015625
vt 0.23583984375 0.31201171875
vt 0.8974609375 0.29541015625
vt 0.23583984375 0.29541015625
vt 0.23583984375 0.29443359375
vt 0.8974609375 0.29443359375
vt 0.8974609375 0.29541015625
vt 0.23583984375 0.29443359375
vn 0.305450439453125 0.785967230796814 -0.5375458002090454
vn 0.36149510741233826 0.9301775693893433 0.06396029144525528
vn 0.3054477870464325 0.7859606742858887 -0.5375569462776184
vn 0.3614950180053711 0.9301773309707642 0.06396429985761642
vn 0.3225537836551666 0.8299760818481445 0.45508116483688354
vn 0.3225492835044861 0.8299639821052551 0.4551061689853668
vn 0.19108188152313232 0.49167975783348083 0.8495520949363708
vn 0.19107648730278015 0.4916652739048004 0.8495616316795349
vn 0.011078648269176483 0.02850542962551117 0.9995322823524475
vn 0.002589724026620388 0.006663092412054539 0.9999744892120361
vn -0.16361267864704132 -0.4209989011287689 0.8921831846237183
vn -0.16528140008449554 -0.4252927303314209 0.8898359537124634
vn -0.30026811361312866 -0.7726321220397949 0.5593554377555847
vn -0.29440978169441223 -0.7575585842132568 0.5826043486595154
vn -0.35723212361335754 -0.9192082285881042 0.1656545251607895
vn -0.3576223850250244 -0.9202131628990173 0.1591038852930069
vn -0.312459260225296 -0.8040018081665039 -0.5059152841567993
vn -0.31247058510780334 -0.8040294051170349 -0.5058645009994507
vn -0.09138065576553345 -0.23513366281986237 -0.9676579833030701
vn -0.09135032445192337 -0.23505719006061554 -0.9676793813705444
vn 0.08885015547275543 0.22862456738948822 -0.9694516062736511
vn 0.08885914087295532 0.22864830493927002 -0.9694451689720154
f 1/1/1 2/2/2 3/3/3
f 2/4/2 4/5/4 3/6/3
f 2/7/2 5/8/5 4/9/4
f 5/10/5 6/11/6 4/12/4
f 5/13/5 7/14/7 6/15/6
f 7/16/7 8/17/8 6/18/6
f 9/19/9 8/20/8 7/21/7
f 10/22/10 9/23/9 7/24/7
f 11/25/11 9/26/9 10/27/10
f 12/28/12 11/29/11 10/30/10
f 13/31/13 11/32/11 12/33/12
f 14/34/14 13/35/13 12/36/12
f 13/37/13 14/38/14 15/39/15
f 16/40/16 13/41/13 15/42/15
f 17/43/17 16/44/16 15/45/15
f 18/46/18 17/47/17 15/48/15
f 18/49/18 19/50/19 17/51/17
f 19/52/19 20/53/20 17/54/17
f 21/55/21 20/56/20 19/57/19
f 22/58/22 21/59/21 19/60/19
f 21/61/21 22/62/22 1/63/1
f 3/64/3 21/65/21 1/66/1
