# Exported by Lightwave Blender addon
v 190.73672485351562 926.5089721679688 276.4115295410156
v 164.43272399902344 877.724853515625 259.2268371582031
v 164.43275451660156 877.724853515625 123.3075180053711
v 190.73675537109375 926.5089721679688 123.30752563476562
v 217.04074096679688 975.2930297851562 276.4115295410156
v 217.04075622558594 975.2930908203125 123.30750274658203
v 243.34475708007812 1024.0770263671875 259.2268371582031
v 243.3447723388672 1024.0770263671875 123.3075180053711
vt 0.66650390625 1.0
vt 1.0 1.0
vt 1.0 0.0
vt 0.66650390625 0.0
vt 0.66650390625 1.0
vt 1.0 0.0
vt 0.333251953125 1.0
vt 0.66650390625 1.0
vt 0.66650390625 0.0
vt 0.333251953125 0.0
vt 0.333251953125 1.0
vt 0.66650390625 0.0
vt 0.333251953125 1.0
vt 0.333251953125 0.0
vt 0.0 1.0
vt 0.333251953125 0.0
vt 0.0 0.0
vt 0.0 1.0
vn 0.8802024722099304 -0.4745985269546509 1.8265268408867996e-07
vn 0.8802026510238647 -0.4745981693267822 1.9762939018619363e-07
vn 0.88020259141922 -0.47459813952445984 1.8035163407148502e-07
vn 0.88020259141922 -0.4745981693267822 6.760243564940538e-08
vn 0.8802022337913513 -0.47459888458251953 1.778386682360633e-08
vn 0.8802021741867065 -0.47459879517555237 -2.6016378384952077e-08
vn 0.880202054977417 -0.47459936141967773 -6.00419269858321e-08
vn 0.8802017569541931 -0.4745997190475464 9.881460982796852e-08
f 1/1/1 2/2/2 3/3/3
f 4/4/4 1/5/1 3/6/3
f 5/7/5 1/8/1 4/9/4
f 6/10/6 5/11/5 4/12/4
f 5/13/5 6/14/6 7/15/7
f 6/16/6 8/17/8 7/18/7
