# Exported by Lightwave Blender addon
v 342.63720703125 -232.20977783203125 277.244384765625
v 585.6175537109375 -328.3138122558594 277.2442321777344
v 581.14794921875 -339.614501953125 277.2442626953125
v 338.16748046875 -243.51046752929688 277.244384765625
v 580.9268798828125 -340.1734619140625 277.2442626953125
v 337.9464111328125 -244.06942749023438 277.244384765625
v 580.9347534179688 -340.1534729003906 277.74395751953125
v 337.95428466796875 -244.04942321777344 277.74407958984375
v 580.9502563476562 -340.1143493652344 278.7223205566406
v 337.96978759765625 -244.01028442382812 278.7224426269531
v 580.9581909179688 -340.0943603515625 279.22198486328125
v 337.97772216796875 -243.99032592773438 279.22210693359375
v 580.7659912109375 -340.58013916015625 279.4693298339844
v 337.7855224609375 -244.47607421875 279.4694519042969
v 579.9580688476562 -342.6228332519531 280.5094299316406
v 336.97760009765625 -246.518798828125 280.5095520019531
v 579.7659301757812 -343.1086120605469 280.7568054199219
v 336.78546142578125 -247.00457763671875 280.7569274902344
v 579.7687377929688 -343.1015930175781 281.25677490234375
v 336.78826904296875 -246.99752807617188 281.2568664550781
v 579.7734375 -343.08966064453125 282.10345458984375
v 336.79296875 -246.985595703125 282.1035461425781
v 579.7762451171875 -343.0826110839844 282.6034240722656
v 336.7957763671875 -246.9785614013672 282.603515625
v 579.9964599609375 -342.5257568359375 282.6466064453125
v 337.01605224609375 -246.4217071533203 282.6466979980469
v 580.8040161132812 -340.4841003417969 282.8049011230469
v 337.823486328125 -244.3800506591797 282.8050537109375
v 581.0242309570312 -339.9272155761719 282.84808349609375
v 338.0438232421875 -243.8231658935547 282.8482360839844
v 581.0261840820312 -339.9224853515625 283.34808349609375
v 338.045654296875 -243.81842041015625 283.34820556640625
v 581.0294799804688 -339.91412353515625 284.2305908203125
v 338.04901123046875 -243.81007385253906 284.230712890625
v 581.0313110351562 -339.90936279296875 284.7305603027344
v 338.05084228515625 -243.80532836914062 284.7306823730469
v 580.81103515625 -340.4661865234375 284.7742614746094
v 337.83062744140625 -244.36216735839844 284.77435302734375
v 580.017578125 -342.4722595214844 284.93157958984375
v 337.0372314453125 -246.3682098388672 284.93170166015625
v 579.7974243164062 -343.029052734375 284.9752502441406
v 336.81695556640625 -246.92503356933594 284.9753723144531
v 579.8001708984375 -343.02203369140625 285.4752197265625
v 336.81976318359375 -246.91798400878906 285.4753112792969
v 579.8048706054688 -343.0101318359375 286.3218994140625
v 336.824462890625 -246.9060516357422 286.322021484375
v 579.8076782226562 -343.0030517578125 286.8218688964844
v 336.82720947265625 -246.89901733398438 286.82196044921875
v 580.00146484375 -342.5133056640625 287.06280517578125
v 337.02093505859375 -246.40924072265625 287.06292724609375
v 580.847900390625 -340.373046875 288.11572265625
v 337.86749267578125 -244.26898193359375 288.1158142089844
v 581.0416870117188 -339.88323974609375 288.3566589355469
v 338.06121826171875 -243.7792205810547 288.35675048828125
v 581.0416870117188 -339.88323974609375 288.8566589355469
v 338.06121826171875 -243.7792205810547 288.85675048828125
v 581.0416870117188 -339.88323974609375 289.82830810546875
v 338.06121826171875 -243.7792205810547 289.8283996582031
v 581.0416870117188 -339.88323974609375 290.32830810546875
v 338.06121826171875 -243.7792205810547 290.3283996582031
v 581.2626953125 -339.32427978515625 290.32830810546875
v 338.28228759765625 -243.2202606201172 290.3283996582031
v 585.7428588867188 -327.9971923828125 290.3281555175781
v 342.76239013671875 -231.8931427001953 290.3282775878906
vt 1.56640625 0.96014404296875
vt 2.873046875 0.96014404296875
vt 2.873046875 1.0106735229492188
vt 1.56640625 1.0106735229492188
vt 1.56640625 0.96014404296875
vt 2.873046875 1.0106735229492188
vt 1.56640625 1.0106735229492188
vt 2.873046875 1.0106735229492188
vt 2.873046875 1.0131759643554688
vt 1.56640625 1.0131759643554688
vt 1.56640625 1.0106735229492188
vt 2.873046875 1.0131759643554688
vt 1.56640625 1.0131759643554688
vt 2.873046875 1.0131759643554688
vt 2.873046875 1.0156707763671875
vt 1.56640625 1.0156707763671875
vt 1.56640625 1.0131759643554688
vt 2.873046875 1.0156707763671875
vt 1.56640625 1.0156707763671875
vt 2.873046875 1.0156707763671875
vt 2.873046875 1.0205535888671875
vt 1.56640625 1.0205535888671875
vt 1.56640625 1.0156707763671875
vt 2.873046875 1.0205535888671875
vt 1.56640625 1.0205535888671875
vt 2.873046875 1.0205535888671875
vt 2.873046875 1.0230560302734375
vt 1.56640625 1.0230560302734375
vt 1.56640625 1.0205535888671875
vt 2.873046875 1.0230560302734375
vt 1.56640625 1.0230560302734375
vt 2.873046875 1.0230560302734375
vt 2.873046875 1.025238037109375
vt 1.56640625 1.025238037109375
vt 1.56640625 1.0230560302734375
vt 2.873046875 1.025238037109375
vt 1.56640625 1.025238037109375
vt 2.873046875 1.025238037109375
vt 2.873046875 1.03436279296875
vt 1.56640625 1.03436279296875
vt 1.56640625 1.025238037109375
vt 2.873046875 1.03436279296875
vt 1.56640625 1.03436279296875
vt 2.873046875 1.03436279296875
vt 2.873046875 1.036529541015625
vt 1.56640625 1.036529541015625
vt 1.56640625 1.03436279296875
vt 2.873046875 1.036529541015625
vt 1.56640625 1.036529541015625
vt 2.873046875 1.036529541015625
vt 2.873046875 1.039031982421875
vt 1.56640625 1.039031982421875
vt 1.56640625 1.036529541015625
vt 2.873046875 1.039031982421875
vt 1.56640625 1.039031982421875
vt 2.873046875 1.039031982421875
vt 2.873046875 1.04327392578125
vt 1.56640625 1.04327392578125
vt 1.56640625 1.039031982421875
vt 2.873046875 1.04327392578125
vt 1.56640625 1.04327392578125
vt 2.873046875 1.04327392578125
vt 2.873046875 1.0457763671875
vt 1.56640625 1.0457763671875
vt 1.56640625 1.04327392578125
vt 2.873046875 1.0457763671875
vt 1.56640625 1.0457763671875
vt 2.873046875 1.0457763671875
vt 2.873046875 1.048248291015625
vt 1.56640625 1.048248291015625
vt 1.56640625 1.0457763671875
vt 2.873046875 1.048248291015625
vt 1.56640625 1.048248291015625
vt 2.873046875 1.048248291015625
vt 2.873046875 1.057403564453125
vt 1.56640625 1.057403564453125
vt 1.56640625 1.048248291015625
vt 2.873046875 1.057403564453125
vt 1.56640625 1.057403564453125
vt 2.873046875 1.057403564453125
vt 2.873046875 1.05987548828125
vt 1.56640625 1.05987548828125
vt 1.56640625 1.057403564453125
vt 2.873046875 1.05987548828125
vt 1.56640625 1.05987548828125
vt 2.873046875 1.05987548828125
vt 2.873046875 1.0623779296875
vt 1.56640625 1.0623779296875
vt 1.56640625 1.05987548828125
vt 2.873046875 1.0623779296875
vt 1.56640625 1.0623779296875
vt 2.873046875 1.0623779296875
vt 2.873046875 1.0667724609375
vt 1.56640625 1.0667724609375
vt 1.56640625 1.0623779296875
vt 2.873046875 1.0667724609375
vt 1.56640625 1.0667724609375
vt 2.873046875 1.0667724609375
vt 2.873046875 1.06927490234375
vt 1.56640625 1.06927490234375
vt 1.56640625 1.0667724609375
vt 2.873046875 1.06927490234375
vt 1.56640625 1.06927490234375
vt 2.873046875 1.06927490234375
vt 2.873046875 1.07177734375
vt 1.56640625 1.07177734375
vt 1.56640625 1.06927490234375
vt 2.873046875 1.07177734375
vt 1.56640625 1.07177734375
vt 2.873046875 1.07177734375
vt 2.873046875 1.08074951171875
vt 1.56640625 1.08074951171875
vt 1.56640625 1.07177734375
vt 2.873046875 1.08074951171875
vt 1.56640625 1.08074951171875
vt 2.873046875 1.08074951171875
vt 2.873046875 1.083251953125
vt 1.56640625 1.083251953125
vt 1.56640625 1.08074951171875
vt 2.873046875 1.083251953125
vt 1.56640625 1.083251953125
vt 2.873046875 1.083251953125
vt 2.873046875 1.08575439453125
vt 1.56640625 1.08575439453125
vt 1.56640625 1.083251953125
vt 2.873046875 1.08575439453125
vt 1.56640625 1.08575439453125
vt 2.873046875 1.08575439453125
vt 2.873046875 1.0899658203125
vt 1.56640625 1.0899658203125
vt 1.56640625 1.08575439453125
vt 2.873046875 1.0899658203125
vt 1.56640625 1.0899658203125
vt 2.873046875 1.0899658203125
vt 2.873046875 1.09246826171875
vt 1.56640625 1.09246826171875
vt 1.56640625 1.0899658203125
vt 2.873046875 1.09246826171875
vt 1.56640625 1.09246826171875
vt 2.873046875 1.09246826171875
vt 2.873046875 1.09466552734375
vt 1.56640625 1.09466552734375
vt 1.56640625 1.09246826171875
vt 2.873046875 1.09466552734375
vt 1.56640625 1.09466552734375
vt 2.873046875 1.09466552734375
vt 2.873046875 1.104248046875
vt 1.56640625 1.104248046875
vt 1.56640625 1.09466552734375
vt 2.873046875 1.104248046875
vt 1.56640625 1.104248046875
vt 2.873046875 1.104248046875
vt 2.873046875 1.1064453125
vt 1.56640625 1.1064453125
vt 1.56640625 1.104248046875
vt 2.873046875 1.1064453125
vt 1.56640625 1.1064453125
vt 2.873046875 1.1064453125
vt 2.873046875 1.10888671875
vt 1.56640625 1.10888671875
vt 1.56640625 1.1064453125
vt 2.873046875 1.10888671875
vt 1.56640625 1.10888671875
vt 2.873046875 1.10888671875
vt 2.873046875 1.11376953125
vt 1.56640625 1.11376953125
vt 1.56640625 1.10888671875
vt 2.873046875 1.11376953125
vt 1.56640625 1.11376953125
vt 2.873046875 1.11376953125
vt 2.873046875 1.11627197265625
vt 1.56640625 1.11627197265625
vt 1.56640625 1.11376953125
vt 2.873046875 1.11627197265625
vt 1.56640625 1.11627197265625
vt 2.873046875 1.11627197265625
vt 2.873046875 1.1187744140625
vt 1.56640625 1.1187744140625
vt 1.56640625 1.11627197265625
vt 2.873046875 1.1187744140625
vt 1.56640625 1.1187744140625
vt 2.873046875 1.1187744140625
vt 2.873046875 1.16943359375
vt 1.56640625 1.16943359375
vt 1.56640625 1.1187744140625
vt 2.873046875 1.16943359375
vn -4.649581910598499e-07 1.0402501260386998e-07 -0.9999999403953552
vn -1.4666567267340724e-06 -2.1204193672019755e-06 -1.0
vn -9.352775123261381e-07 -9.404006391378061e-07 -1.0
vn -4.3442790342851367e-07 1.7182233591483964e-07 -1.0
vn -0.26559215784072876 -0.6714975833892822 -0.6917743682861328
vn -0.2656112313270569 -0.671545684337616 -0.6917204260826111
vn -0.3674582839012146 -0.9290471076965332 0.042964108288288116
vn -0.36745795607566833 -0.9290461540222168 0.0429854691028595
vn -0.36745792627334595 -0.9290461540222168 0.042987823486328125
vn -0.36745819449424744 -0.9290469288825989 0.04296675696969032
vn -0.3149375915527344 -0.7962580323219299 -0.5165147185325623
vn -0.31492647528648376 -0.7962299585342407 -0.5165647864341736
vn -0.15739303827285767 -0.39793670177459717 -0.9038107395172119
vn -0.15739567577838898 -0.39794331789016724 -0.9038073420524597
vn -0.15740372240543365 -0.39796364307403564 -0.9037969708442688
vn -0.1574028581380844 -0.3979615867137909 -0.9037980437278748
vn -0.3122587502002716 -0.7894851565361023 -0.5284010767936707
vn -0.31226587295532227 -0.7895030975341797 -0.5283701419830322
vn -0.36775583028793335 -0.9297992587089539 0.015131868422031403
vn -0.3677556812763214 -0.9297988414764404 0.015160666778683662
vn -0.3677557110786438 -0.9297988414764404 0.015160203911364079
vn -0.3677557706832886 -0.9297990798950195 0.015146037563681602
vn -0.2673581838607788 -0.6759639382362366 0.6867258548736572
vn -0.2673622965812683 -0.6759743690490723 0.6867140531539917
vn -0.026451127603650093 -0.06687748432159424 0.9974104762077332
vn -0.026455838233232498 -0.06688972562551498 0.9974095225334167
vn -0.026450423523783684 -0.06687603145837784 0.9974105954170227
vn -0.026454640552401543 -0.0668870210647583 0.9974097609519958
vn -0.26798322796821594 -0.6775445342063904 0.6849222183227539
vn -0.2679797112941742 -0.6775358319282532 0.6849321126937866
vn -0.3677787482738495 -0.9298573732376099 0.010208714753389359
vn -0.36777883768081665 -0.9298574924468994 0.010183030739426613
vn -0.3677787780761719 -0.9298574924468994 0.01019255816936493
vn -0.36777880787849426 -0.9298575520515442 0.010183056816458702
vn -0.27066007256507874 -0.6843107342720032 -0.6770982146263123
vn -0.27063050866127014 -0.6842362880706787 -0.6771852374076843
vn -0.026760820299386978 -0.0676584467291832 -0.9973495006561279
vn -0.026754606515169144 -0.0676427111029625 -0.9973508715629578
vn -0.02675318904221058 -0.06763912737369537 -0.9973511695861816
vn -0.02675449103116989 -0.06764227151870728 -0.997350811958313
vn -0.27124637365341187 -0.6857932209968567 -0.6753613948822021
vn -0.2712627053260803 -0.6858341693878174 -0.6753133535385132
vn -0.3677560091018677 -0.9297998547554016 0.015092700719833374
vn -0.3677557706832886 -0.9297987818717957 0.015160358510911465
vn -0.3677557408809662 -0.9297987222671509 0.015171856619417667
vn -0.3677558898925781 -0.9297993183135986 0.015123844146728516
vn -0.3079474866390228 -0.7785858511924744 0.5467838644981384
vn -0.3079656958580017 -0.7786323428153992 0.546707272529602
vn -0.1530047059059143 -0.3868437707424164 0.9093631505966187
vn -0.15300899744033813 -0.38685446977615356 0.9093579053878784
vn -0.15299788117408752 -0.38682645559310913 0.9093716740608215
vn -0.15300266444683075 -0.386838436126709 0.9093658328056335
vn -0.309472918510437 -0.7824429273605347 0.5403792262077332
vn -0.30947545170783997 -0.78244948387146 0.5403681397438049
vn -0.3677978515625 -0.9299058318138123 0.0
vn -0.3677978217601776 -0.9299058318138123 0.0
vn -0.3677978217601776 -0.9299058318138123 0.0
vn -0.3677978515625 -0.9299058318138123 0.0
vn -0.26008477807044983 -0.6575748324394226 0.7070721983909607
vn -0.2600690722465515 -0.657535195350647 0.7071148753166199
vn 2.6294185317965457e-06 5.695334039046429e-06 1.0
vn 2.2351337065629195e-06 4.544392595562385e-06 1.0
vn 4.90904903927003e-06 1.144952420872869e-05 1.0
vn 4.1202888496627565e-06 9.14716292754747e-06 1.0
f 1/1/1 2/2/2 3/3/3
f 4/4/4 1/5/1 3/6/3
f 4/7/4 3/8/3 5/9/5
f 6/10/6 4/11/4 5/12/5
f 6/13/6 5/14/5 7/15/7
f 8/16/8 6/17/6 7/18/7
f 8/19/8 7/20/7 9/21/9
f 10/22/10 8/23/8 9/24/9
f 10/25/10 9/26/9 11/27/11
f 12/28/12 10/29/10 11/30/11
f 12/31/12 11/32/11 13/33/13
f 14/34/14 12/35/12 13/36/13
f 14/37/14 13/38/13 15/39/15
f 16/40/16 14/41/14 15/42/15
f 16/43/16 15/44/15 17/45/17
f 18/46/18 16/47/16 17/48/17
f 18/49/18 17/50/17 19/51/19
f 20/52/20 18/53/18 19/54/19
f 20/55/20 19/56/19 21/57/21
f 22/58/22 20/59/20 21/60/21
f 22/61/22 21/62/21 23/63/23
f 24/64/24 22/65/22 23/66/23
f 24/67/24 23/68/23 25/69/25
f 26/70/26 24/71/24 25/72/25
f 26/73/26 25/74/25 27/75/27
f 28/76/28 26/77/26 27/78/27
f 28/79/28 27/80/27 29/81/29
f 30/82/30 28/83/28 29/84/29
f 30/85/30 29/86/29 31/87/31
f 32/88/32 30/89/30 31/90/31
f 32/91/32 31/92/31 33/93/33
f 34/94/34 32/95/32 33/96/33
f 34/97/34 33/98/33 35/99/35
f 36/100/36 34/101/34 35/102/35
f 36/103/36 35/104/35 37/105/37
f 38/106/38 36/107/36 37/108/37
f 38/109/38 37/110/37 39/111/39
f 40/112/40 38/113/38 39/114/39
f 40/115/40 39/116/39 41/117/41
f 42/118/42 40/119/40 41/120/41
f 42/121/42 41/122/41 43/123/43
f 44/124/44 42/125/42 43/126/43
f 44/127/44 43/128/43 45/129/45
f 46/130/46 44/131/44 45/132/45
f 46/133/46 45/134/45 47/135/47
f 48/136/48 46/137/46 47/138/47
f 48/139/48 47/140/47 49/141/49
f 50/142/50 48/143/48 49/144/49
f 50/145/50 49/146/49 51/147/51
f 52/148/52 50/149/50 51/150/51
f 52/151/52 51/152/51 53/153/53
f 54/154/54 52/155/52 53/156/53
f 54/157/54 53/158/53 55/159/55
f 56/160/56 54/161/54 55/162/55
f 56/163/56 55/164/55 57/165/57
f 58/166/58 56/167/56 57/168/57
f 58/169/58 57/170/57 59/171/59
f 60/172/60 58/173/58 59/174/59
f 60/175/60 59/176/59 61/177/61
f 62/178/62 60/179/60 61/180/61
f 62/181/62 61/182/61 63/183/63
f 64/184/64 62/185/62 63/186/63
