# Exported by Lightwave Blender addon
v 74.48509216308594 764.4324951171875 1048.3050537109375
v 88.48204040527344 756.8763427734375 1048.3050537109375
v 86.45586395263672 753.1243896484375 1010.76025390625
v 76.52703094482422 758.484375 1010.76025390625
v 75.15099334716797 757.8926391601562 1010.7562866210938
v 73.10858917236328 763.842041015625 1048.3089599609375
v 71.40953826904297 759.6650390625 1044.3331298828125
v 63.176998138427734 744.4180297851562 1044.3331298828125
v 60.61628723144531 740.7058715820312 1048.30908203125
v 73.0417251586914 755.0057983398438 1014.6907348632812
v 66.71224975585938 742.2637939453125 1010.7562866210938
v 66.97232055664062 740.7887573242188 1010.76025390625
v 76.900390625 735.42919921875 1010.7601928710938
v 74.87364196777344 731.6756591796875 1048.30517578125
v 60.87776184082031 739.231201171875 1048.30517578125
v 67.96888732910156 745.6107177734375 1014.6906127929688
v 68.66336822509766 746.4015502929688 1015.4282836914062
v 63.912750244140625 744.88525390625 1043.34326171875
v 68.41056823730469 746.0355224609375 1015.8201293945312
v 72.76142883300781 753.9912719726562 1015.42822265625
v 69.90914154052734 746.7588500976562 1016.5642700195312
v 72.92876434326172 754.4033813476562 1015.8200073242188
v 73.1460189819336 752.753662109375 1016.5642700195312
v 73.31348419189453 753.1653442382812 1016.9561157226562
v 71.4224853515625 758.7935791015625 1043.34326171875
v 70.05323791503906 747.1784057617188 1017.1533203125
v 71.21226501464844 758.5064697265625 1043.7349853515625
v 71.92708587646484 757.203857421875 1042.447021484375
v 64.03750610351562 745.218505859375 1043.7349853515625
v 71.71699523925781 756.9163208007812 1042.8388671875
v 65.64395141601562 745.6688232421875 1042.8388671875
v 65.51879119873047 745.33544921875 1042.447021484375
v 69.65675354003906 746.3929443359375 1016.9561157226562
v 65.88337707519531 745.8817138671875 1041.9493408203125
v 65.97932434082031 746.13720703125 1042.249755859375
v 71.50930786132812 756.3790283203125 1042.249755859375
v 69.85977172851562 746.89794921875 1017.4537353515625
v 71.67034912109375 756.5994262695312 1041.9493408203125
v 66.73814392089844 752.3413696289062 1039.60302734375
v 66.5606460571289 752.1336059570312 1039.1431884765625
v 66.81448364257812 752.6036987304688 1039.1431884765625
v 69.2252426147461 750.693115234375 1019.81982421875
v 73.00261688232422 752.7185668945312 1017.4536743164062
v 69.48126983642578 751.1672973632812 1019.81982421875
v 69.53131866455078 750.8341064453125 1019.3300170898438
v 72.87425231933594 752.4030151367188 1017.1532592773438
v 85.84617614746094 751.9954223632812 1009.8427124023438
v 76.01953125 757.3002319335938 1009.8427734375
v 77.51008605957031 736.5582275390625 1009.8428344726562
v 67.68411254882812 741.8626708984375 1009.8428344726562
v 75.37422943115234 732.6026611328125 1049.2225341796875
v 61.26145935058594 740.2213134765625 1049.2225341796875
v 87.9814453125 755.9492797851562 1049.222412109375
v 73.86767578125 763.5685424804688 1049.222412109375
vt 0.200439453125 0.27783203125
vt 0.1224365234375 0.25927734375
vt 0.1668701171875 0.07373046875
vt 0.2222900390625 0.0869140625
vt 0.200439453125 0.27783203125
vt 0.1668701171875 0.07373046875
vt 0.200439453125 0.27783203125
vt 0.2222900390625 0.0869140625
vt 0.229736328125 0.087890625
vt 0.2080078125 0.27880859375
vt 0.200439453125 0.27783203125
vt 0.229736328125 0.087890625
vt 0.2080078125 0.27880859375
vt 0.229736328125 0.087890625
vt 0.23046875 0.2587890625
vt 0.2080078125 0.27880859375
vt 0.23046875 0.2587890625
vt 0.318359375 0.25927734375
vt 0.3408203125 0.279296875
vt 0.2080078125 0.27880859375
vt 0.318359375 0.25927734375
vt 0.229736328125 0.087890625
vt 0.2474365234375 0.107421875
vt 0.23046875 0.2587890625
vt 0.229736328125 0.087890625
vt 0.319580078125 0.087890625
vt 0.2474365234375 0.107421875
vt 0.319580078125 0.087890625
vt 0.3271484375 0.08740234375
vt 0.3408203125 0.279296875
vt 0.3271484375 0.08740234375
vt 0.382568359375 0.07421875
vt 0.426513671875 0.259765625
vt 0.348388671875 0.2783203125
vt 0.3271484375 0.08740234375
vt 0.426513671875 0.259765625
vt 0.3271484375 0.08740234375
vt 0.348388671875 0.2783203125
vt 0.3408203125 0.279296875
vt 0.319580078125 0.087890625
vt 0.3408203125 0.279296875
vt 0.3017578125 0.10791015625
vt 0.319580078125 0.087890625
vt 0.3017578125 0.10791015625
vt 0.2474365234375 0.107421875
vt 0.3408203125 0.279296875
vt 0.318359375 0.25927734375
vt 0.3017578125 0.10791015625
vt 0.2474365234375 0.107421875
vt 0.3017578125 0.10791015625
vt 0.296630859375 0.11083984375
vt 0.3017578125 0.10791015625
vt 0.318359375 0.25927734375
vt 0.31494140625 0.25390625
vt 0.3017578125 0.10791015625
vt 0.29931640625 0.11328125
vt 0.296630859375 0.11083984375
vt 0.29931640625 0.11328125
vt 0.3017578125 0.10791015625
vt 0.31494140625 0.25390625
vt 0.252685546875 0.11083984375
vt 0.2474365234375 0.107421875
vt 0.296630859375 0.11083984375
vt 0.296630859375 0.11083984375
vt 0.29931640625 0.11328125
vt 0.291748046875 0.1171875
vt 0.2474365234375 0.107421875
vt 0.252685546875 0.11083984375
vt 0.25 0.11328125
vt 0.23046875 0.2587890625
vt 0.2474365234375 0.107421875
vt 0.25 0.11328125
vt 0.252685546875 0.11083984375
vt 0.296630859375 0.11083984375
vt 0.257568359375 0.1171875
vt 0.296630859375 0.11083984375
vt 0.291748046875 0.1171875
vt 0.257568359375 0.1171875
vt 0.25 0.11328125
vt 0.252685546875 0.11083984375
vt 0.25537109375 0.11865234375
vt 0.252685546875 0.11083984375
vt 0.257568359375 0.1171875
vt 0.25537109375 0.11865234375
vt 0.23388671875 0.25390625
vt 0.23046875 0.2587890625
vt 0.25 0.11328125
vt 0.257568359375 0.1171875
vt 0.291748046875 0.1171875
vt 0.289794921875 0.11962890625
vt 0.23046875 0.2587890625
vt 0.23388671875 0.25390625
vt 0.236083984375 0.25634765625
vt 0.318359375 0.25927734375
vt 0.23046875 0.2587890625
vt 0.236083984375 0.25634765625
vt 0.23388671875 0.25390625
vt 0.25 0.11328125
vt 0.2406005859375 0.248046875
vt 0.25 0.11328125
vt 0.25537109375 0.11865234375
vt 0.2406005859375 0.248046875
vt 0.312744140625 0.25634765625
vt 0.318359375 0.25927734375
vt 0.236083984375 0.25634765625
vt 0.318359375 0.25927734375
vt 0.312744140625 0.25634765625
vt 0.31494140625 0.25390625
vt 0.236083984375 0.25634765625
vt 0.23388671875 0.25390625
vt 0.2423095703125 0.25
vt 0.23388671875 0.25390625
vt 0.2406005859375 0.248046875
vt 0.2423095703125 0.25
vt 0.312744140625 0.25634765625
vt 0.236083984375 0.25634765625
vt 0.306640625 0.25
vt 0.236083984375 0.25634765625
vt 0.2423095703125 0.25
vt 0.306640625 0.25
vt 0.31494140625 0.25390625
vt 0.312744140625 0.25634765625
vt 0.308349609375 0.24853515625
vt 0.312744140625 0.25634765625
vt 0.306640625 0.25
vt 0.308349609375 0.24853515625
vt 0.31494140625 0.25390625
vt 0.308349609375 0.24853515625
vt 0.2939453125 0.11865234375
vt 0.29931640625 0.11328125
vt 0.31494140625 0.25390625
vt 0.2939453125 0.11865234375
vt 0.29931640625 0.11328125
vt 0.2939453125 0.11865234375
vt 0.291748046875 0.1171875
vt 0.291748046875 0.1171875
vt 0.2939453125 0.11865234375
vt 0.289794921875 0.11962890625
vt 0.308349609375 0.24853515625
vt 0.306640625 0.25
vt 0.305908203125 0.24609375
vt 0.2939453125 0.11865234375
vt 0.308349609375 0.24853515625
vt 0.305908203125 0.24609375
vt 0.306640625 0.25
vt 0.2423095703125 0.25
vt 0.30419921875 0.248046875
vt 0.306640625 0.25
vt 0.30419921875 0.248046875
vt 0.305908203125 0.24609375
vt 0.2423095703125 0.25
vt 0.2447509765625 0.248046875
vt 0.30419921875 0.248046875
vt 0.2423095703125 0.25
vt 0.2406005859375 0.248046875
vt 0.2447509765625 0.248046875
vt 0.2919921875 0.12109375
vt 0.2939453125 0.11865234375
vt 0.305908203125 0.24609375
vt 0.2939453125 0.11865234375
vt 0.2919921875 0.12109375
vt 0.289794921875 0.11962890625
vt 0.2406005859375 0.248046875
vt 0.242919921875 0.24609375
vt 0.2447509765625 0.248046875
vt 0.2406005859375 0.248046875
vt 0.25537109375 0.11865234375
vt 0.242919921875 0.24609375
vt 0.30419921875 0.248046875
vt 0.2447509765625 0.248046875
vt 0.2744140625 0.2333984375
vt 0.2447509765625 0.248046875
vt 0.242919921875 0.24609375
vt 0.2744140625 0.2333984375
vt 0.30419921875 0.248046875
vt 0.2744140625 0.2333984375
vt 0.275146484375 0.232421875
vt 0.305908203125 0.24609375
vt 0.30419921875 0.248046875
vt 0.275146484375 0.232421875
vt 0.242919921875 0.24609375
vt 0.273681640625 0.232421875
vt 0.2744140625 0.2333984375
vt 0.2744140625 0.2333984375
vt 0.273681640625 0.232421875
vt 0.275146484375 0.232421875
vt 0.305908203125 0.24609375
vt 0.275146484375 0.232421875
vt 0.275390625 0.13525390625
vt 0.275146484375 0.232421875
vt 0.273681640625 0.232421875
vt 0.275390625 0.13525390625
vt 0.2919921875 0.12109375
vt 0.305908203125 0.24609375
vt 0.275390625 0.13525390625
vt 0.242919921875 0.24609375
vt 0.257080078125 0.12109375
vt 0.273681640625 0.232421875
vt 0.25537109375 0.11865234375
vt 0.257080078125 0.12109375
vt 0.242919921875 0.24609375
vt 0.273681640625 0.232421875
vt 0.273681640625 0.13525390625
vt 0.275390625 0.13525390625
vt 0.257080078125 0.12109375
vt 0.273681640625 0.13525390625
vt 0.273681640625 0.232421875
vt 0.2919921875 0.12109375
vt 0.275390625 0.13525390625
vt 0.274658203125 0.13330078125
vt 0.274658203125 0.13330078125
vt 0.275390625 0.13525390625
vt 0.273681640625 0.13525390625
vt 0.289794921875 0.11962890625
vt 0.2919921875 0.12109375
vt 0.274658203125 0.13330078125
vt 0.257080078125 0.12109375
vt 0.25927734375 0.11962890625
vt 0.273681640625 0.13525390625
vt 0.25927734375 0.11962890625
vt 0.274658203125 0.13330078125
vt 0.273681640625 0.13525390625
vt 0.25927734375 0.11962890625
vt 0.257080078125 0.12109375
vt 0.25537109375 0.11865234375
vt 0.25927734375 0.11962890625
vt 0.289794921875 0.11962890625
vt 0.274658203125 0.13330078125
vt 0.257568359375 0.1171875
vt 0.25927734375 0.11962890625
vt 0.25537109375 0.11865234375
vt 0.25927734375 0.11962890625
vt 0.257568359375 0.1171875
vt 0.289794921875 0.11962890625
vt 0.70947265625 0.20654296875
vt 0.71728515625 0.20654296875
vt 0.70947265625 0.26318359375
vt 0.71728515625 0.20654296875
vt 0.71728515625 0.26318359375
vt 0.70947265625 0.26318359375
vt 0.70947265625 0.26318359375
vt 0.71728515625 0.26318359375
vt 0.71728515625 0.26904296875
vt 0.71728515625 0.20654296875
vt 0.806640625 0.2060546875
vt 0.71728515625 0.26318359375
vt 0.71728515625 0.26904296875
vt 0.71728515625 0.26318359375
vt 0.806640625 0.26904296875
vt 0.806640625 0.2060546875
vt 0.806640625 0.26318359375
vt 0.71728515625 0.26318359375
vt 0.71728515625 0.26318359375
vt 0.806640625 0.26318359375
vt 0.806640625 0.26904296875
vt 0.806640625 0.26318359375
vt 0.806640625 0.2060546875
vt 0.8134765625 0.2060546875
vt 0.806640625 0.26318359375
vt 0.8134765625 0.26318359375
vt 0.806640625 0.26904296875
vt 0.8134765625 0.26318359375
vt 0.806640625 0.26318359375
vt 0.8134765625 0.2060546875
vt 0.70654296875 0.0966796875
vt 0.71337890625 0.09619140625
vt 0.70654296875 0.17724609375
vt 0.71337890625 0.09619140625
vt 0.71337890625 0.17724609375
vt 0.70654296875 0.17724609375
vt 0.71337890625 0.18310546875
vt 0.70654296875 0.17724609375
vt 0.71337890625 0.17724609375
vt 0.71337890625 0.17724609375
vt 0.71337890625 0.09619140625
vt 0.84716796875 0.0966796875
vt 0.71337890625 0.18310546875
vt 0.71337890625 0.17724609375
vt 0.84716796875 0.18310546875
vt 0.84716796875 0.17724609375
vt 0.71337890625 0.17724609375
vt 0.84716796875 0.0966796875
vt 0.71337890625 0.17724609375
vt 0.84716796875 0.17724609375
vt 0.84716796875 0.18310546875
vt 0.84716796875 0.17724609375
vt 0.84716796875 0.0966796875
vt 0.85400390625 0.0966796875
vt 0.84716796875 0.18310546875
vt 0.84716796875 0.17724609375
vt 0.85400390625 0.17724609375
vt 0.85400390625 0.17724609375
vt 0.84716796875 0.17724609375
vt 0.85400390625 0.0966796875
vn 0.06741450726985931 0.9566364884376526 0.28337574005126953
vn 0.44278332591056824 0.8202060461044312 0.36222225427627563
vn 0.4094989597797394 0.758554995059967 -0.5068578124046326
vn 0.06756997853517532 0.877933144569397 -0.47399118542671204
vn -0.6152823567390442 0.6469070315361023 -0.450487345457077
vn -0.6658291220664978 0.706385612487793 0.24018952250480652
vn -0.8901631236076355 0.4243740141391754 -0.1658802032470703
vn -0.8431128263473511 0.5115076899528503 -0.16589350998401642
vn -0.9558677673339844 0.16918893158435822 0.24019169807434082
vn -0.9035070538520813 0.4243776202201843 -0.05982106178998947
vn -0.8783863186836243 0.15958358347415924 -0.45052245259284973
vn -0.6969279050827026 -0.5381215214729309 -0.4740428030490875
vn -0.4094729423522949 -0.7585083246231079 -0.5069488286972046
vn -0.442781001329422 -0.8202073574066162 0.3622220754623413
vn -0.7628177404403687 -0.581223726272583 0.283351331949234
vn -0.850443959236145 0.5226561427116394 -0.05979737639427185
vn -0.7540085315704346 0.566969096660614 0.33168837428092957
vn -0.5719926357269287 0.7933534383773804 -0.20836202800273895
vn -0.5914974212646484 0.8023812770843506 0.0794670432806015
vn -0.8876456022262573 0.3194379508495331 0.33172962069511414
vn -0.7829880118370056 0.5524446368217468 0.28589293360710144
vn -0.9953634142875671 0.05429584160447121 0.07939460873603821
vn -0.891415536403656 0.35164734721183777 0.28587156534194946
vn -0.993981659412384 0.0994759202003479 0.04587966948747635
vn -0.9771260023117065 0.04290739819407463 -0.2082875669002533
vn -0.8777311444282532 0.37894153594970703 -0.2932427227497101
vn -0.8098925352096558 0.27159029245376587 -0.5199160575866699
vn -0.9801533222198486 0.07111778110265732 -0.18504513800144196
vn -0.6713574528694153 0.5282018780708313 -0.5198864936828613
vn -0.8108572363853455 0.3028144836425781 -0.5008133053779602
vn -0.6979520320892334 0.5118956565856934 -0.5008251070976257
vn -0.5971180200576782 0.780518114566803 -0.1850445568561554
vn -0.628422737121582 0.7765145301818848 0.04593540355563164
vn -0.9361574053764343 0.3443092405796051 -0.07113713771104813
vn -0.9199196100234985 0.39106911420822144 0.028511088341474533
vn -0.8324105143547058 0.5535825490951538 0.025276368483901024
vn -0.9243595600128174 0.3185100555419922 -0.21002544462680817
vn -0.803291916847229 0.5910040736198425 -0.07373107969760895
vn -0.8112506866455078 0.44017913937568665 0.38485661149024963
vn -0.9592844247817993 0.2823975086212158 0.005000516772270203
vn -0.7579430341720581 0.6523193717002869 0.0013320418074727058
vn -0.9348897933959961 0.22255279123783112 -0.2764984667301178
vn -0.7737622261047363 0.5990669131278992 -0.20593859255313873
vn -0.692644476890564 0.6706019639968872 -0.2655874192714691
vn -0.7402777671813965 0.3970974385738373 -0.5424966216087341
vn -0.7974593639373779 0.5260385274887085 -0.2955368459224701
vn 0.1451013833284378 0.26879221200942993 -0.952206015586853
vn -0.14869125187397003 0.382858544588089 -0.9117621183395386
vn -0.14505913853645325 -0.26870599389076233 -0.9522367715835571
vn -0.40162917971611023 -0.085713230073452 -0.9117823839187622
vn -0.1665361225605011 -0.3084913492202759 0.9365354776382446
vn -0.4953872263431549 -0.1025967225432396 0.8625922203063965
vn 0.16655489802360535 0.3085229694843292 0.9365217685699463
vn -0.18601089715957642 0.4704914391040802 0.8625762462615967
f 1/1/1 2/2/2 3/3/3
f 4/4/4 1/5/1 3/6/3
f 1/7/1 4/8/4 5/9/5
f 6/10/6 1/11/1 5/12/5
f 6/13/6 5/14/5 7/15/7
f 6/16/6 7/17/7 8/18/8
f 9/19/9 6/20/6 8/21/8
f 5/22/5 10/23/10 7/24/7
f 5/25/5 11/26/11 10/27/10
f 11/28/11 12/29/12 9/30/9
f 12/31/12 13/32/13 14/33/14
f 15/34/15 12/35/12 14/36/14
f 12/37/12 15/38/15 9/39/9
f 11/40/11 9/41/9 16/42/16
f 11/43/11 16/44/16 10/45/10
f 9/46/9 8/47/8 16/48/16
f 10/49/10 16/50/16 17/51/17
f 16/52/16 8/53/8 18/54/18
f 16/55/16 19/56/19 17/57/17
f 19/58/19 16/59/16 18/60/18
f 20/61/20 10/62/10 17/63/17
f 17/64/17 19/65/19 21/66/21
f 10/67/10 20/68/20 22/69/22
f 7/70/7 10/71/10 22/72/22
f 20/73/20 17/74/17 23/75/23
f 17/76/17 21/77/21 23/78/23
f 22/79/22 20/80/20 24/81/24
f 20/82/20 23/83/23 24/84/24
f 25/85/25 7/86/7 22/87/22
f 23/88/23 21/89/21 26/90/26
f 7/91/7 25/92/25 27/93/27
f 8/94/8 7/95/7 27/96/27
f 25/97/25 22/98/22 28/99/28
f 22/100/22 24/101/24 28/102/28
f 29/103/29 8/104/8 27/105/27
f 8/106/8 29/107/29 18/108/18
f 27/109/27 25/110/25 30/111/30
f 25/112/25 28/113/28 30/114/30
f 29/115/29 27/116/27 31/117/31
f 27/118/27 30/119/30 31/120/31
f 18/121/18 29/122/29 32/123/32
f 29/124/29 31/125/31 32/126/32
f 18/127/18 32/128/32 33/129/33
f 19/130/19 18/131/18 33/132/33
f 19/133/19 33/134/33 21/135/21
f 21/136/21 33/137/33 26/138/26
f 32/139/32 31/140/31 34/141/34
f 33/142/33 32/143/32 34/144/34
f 31/145/31 30/146/30 35/147/35
f 31/148/31 35/149/35 34/150/34
f 30/151/30 36/152/36 35/153/35
f 30/154/30 28/155/28 36/156/36
f 37/157/37 33/158/33 34/159/34
f 33/160/33 37/161/37 26/162/26
f 28/163/28 38/164/38 36/165/36
f 28/166/28 24/167/24 38/168/38
f 35/169/35 36/170/36 39/171/39
f 36/172/36 38/173/38 39/174/39
f 35/175/35 39/176/39 40/177/40
f 34/178/34 35/179/35 40/180/40
f 38/181/38 41/182/41 39/183/39
f 39/184/39 41/185/41 40/186/40
f 34/187/34 40/188/40 42/189/42
f 40/190/40 41/191/41 42/192/42
f 37/193/37 34/194/34 42/195/42
f 38/196/38 43/197/43 41/198/41
f 24/199/24 43/200/43 38/201/38
f 41/202/41 44/203/44 42/204/42
f 43/205/43 44/206/44 41/207/41
f 37/208/37 42/209/42 45/210/45
f 45/211/45 42/212/42 44/213/44
f 26/214/26 37/215/37 45/216/45
f 43/217/43 46/218/46 44/219/44
f 46/220/46 45/221/45 44/222/44
f 46/223/46 43/224/43 24/225/24
f 46/226/46 26/227/26 45/228/45
f 23/229/23 46/230/46 24/231/24
f 46/232/46 23/233/23 26/234/26
f 3/235/3 47/236/47 4/237/4
f 47/238/47 48/239/48 4/240/4
f 4/241/4 48/242/48 5/243/5
f 47/244/47 49/245/49 48/246/48
f 5/247/5 48/248/48 11/249/11
f 49/250/49 50/251/50 48/252/48
f 48/253/48 50/254/50 11/255/11
f 50/256/50 49/257/49 13/258/13
f 50/259/50 12/260/12 11/261/11
f 12/262/12 50/263/50 13/264/13
f 14/265/14 51/266/51 15/267/15
f 51/268/51 52/269/52 15/270/15
f 9/271/9 15/272/15 52/273/52
f 52/274/52 51/275/51 53/276/53
f 9/277/9 52/278/52 6/279/6
f 54/280/54 52/281/52 53/282/53
f 52/283/52 54/284/54 6/285/6
f 54/286/54 53/287/53 2/288/2
f 6/289/6 54/290/54 1/291/1
f 1/292/1 54/293/54 2/294/2
