# Exported by Lightwave Blender addon
v 2337.5224609375 -1032.608154296875 1061.9464111328125
v 2365.92626953125 -1046.791259765625 1061.9464111328125
v 2367.5986328125 -1043.44189453125 1061.9464111328125
v 2339.19482421875 -1029.2587890625 1061.9464111328125
v 2367.5986328125 -1043.44189453125 1055.9388427734375
v 2339.19482421875 -1029.2587890625 1055.9388427734375
v 2337.5224609375 -1032.608154296875 1055.93896484375
v 2365.92626953125 -1046.791259765625 1055.9388427734375
v 2339.380615234375 -1029.5684814453125 893.22509765625
v 2337.868408203125 -1032.596923828125 893.22509765625
v 2337.868408203125 -1032.596923828125 1056.2100830078125
v 2339.380615234375 -1029.5684814453125 1056.2100830078125
v 2343.73583984375 -1031.7431640625 1056.2100830078125
v 2343.73583984375 -1031.7431640625 893.22509765625
v 2342.223388671875 -1034.7716064453125 893.22509765625
v 2342.223388671875 -1034.7716064453125 1056.2100830078125
v 2362.454833984375 -1043.7677001953125 1055.8040771484375
v 2342.761474609375 -1033.934326171875 1055.8040771484375
v 2342.761474609375 -1033.934326171875 893.4175415039062
v 2362.454833984375 -1043.7677001953125 893.41748046875
v 2365.981689453125 -1046.6348876953125 893.22509765625
v 2367.493896484375 -1043.6063232421875 893.22509765625
v 2367.493896484375 -1043.6063232421875 1056.2100830078125
v 2365.981689453125 -1046.6348876953125 1056.2100830078125
v 2361.62646484375 -1044.460205078125 1056.2100830078125
v 2361.62646484375 -1044.4603271484375 893.22509765625
v 2363.138671875 -1041.431640625 893.22509765625
v 2363.138671875 -1041.431640625 1056.2100830078125
v 2337.5224609375 -1032.608154296875 893.1990966796875
v 2365.92626953125 -1046.791259765625 893.1990966796875
v 2367.5986328125 -1043.44189453125 893.1990966796875
v 2339.19482421875 -1029.2587890625 893.1990966796875
v 2367.5986328125 -1043.44189453125 887.1915893554688
v 2339.19482421875 -1029.2587890625 887.1915893554688
v 2337.5224609375 -1032.608154296875 887.191650390625
v 2365.92626953125 -1046.791259765625 887.1915893554688
v 2365.924072265625 -1046.7901611328125 1061.9464111328125
v 2394.327880859375 -1060.97314453125 1061.9464111328125
v 2396.000244140625 -1057.623779296875 1061.9464111328125
v 2367.596435546875 -1043.44091796875 1061.9464111328125
v 2396.000244140625 -1057.6239013671875 1055.9388427734375
v 2367.596435546875 -1043.44091796875 1055.9388427734375
v 2365.924072265625 -1046.7901611328125 1055.93896484375
v 2394.327880859375 -1060.97314453125 1055.9388427734375
v 2367.7822265625 -1043.75048828125 893.22509765625
v 2366.27001953125 -1046.7789306640625 893.22509765625
v 2366.27001953125 -1046.7789306640625 1056.2100830078125
v 2367.7822265625 -1043.75048828125 1056.2100830078125
v 2372.137451171875 -1045.9251708984375 1056.2100830078125
v 2372.137451171875 -1045.9251708984375 893.22509765625
v 2370.625244140625 -1048.95361328125 893.22509765625
v 2370.625244140625 -1048.95361328125 1056.2100830078125
v 2390.926025390625 -1057.984375 1055.8040771484375
v 2371.232666015625 -1048.15087890625 1055.8040771484375
v 2371.232666015625 -1048.15087890625 893.4175415039062
v 2390.926025390625 -1057.984375 893.41748046875
v 2394.1591796875 -1060.705078125 893.22509765625
v 2395.671630859375 -1057.6766357421875 893.22509765625
v 2395.671630859375 -1057.6766357421875 1056.2100830078125
v 2394.1591796875 -1060.705078125 1056.2100830078125
v 2389.80419921875 -1058.5302734375 1056.2100830078125
v 2389.80419921875 -1058.5302734375 893.22509765625
v 2391.31640625 -1055.501953125 893.22509765625
v 2391.31640625 -1055.5018310546875 1056.2100830078125
v 2365.924072265625 -1046.7901611328125 893.1990966796875
v 2394.327880859375 -1060.97314453125 893.1990966796875
v 2396.000244140625 -1057.623779296875 893.1990966796875
v 2367.596435546875 -1043.44091796875 893.1990966796875
v 2396.000244140625 -1057.6239013671875 887.1915893554688
v 2367.596435546875 -1043.44091796875 887.1915893554688
v 2365.924072265625 -1046.7901611328125 887.191650390625
v 2394.327880859375 -1060.97314453125 887.1915893554688
vt 0.327880859375 0.35302734375
vt 0.327880859375 0.43212890625
vt 0.318603515625 0.43212890625
vt 0.318603515625 0.43212890625
vt 0.318603515625 0.35302734375
vt 0.327880859375 0.35302734375
vt 0.3154296875 0.43212890625
vt 0.300537109375 0.43212890625
vt 0.300537109375 0.3525390625
vt 0.300537109375 0.3525390625
vt 0.3154296875 0.3525390625
vt 0.3154296875 0.43212890625
vt 0.27001953125 0.35205078125
vt 0.284912109375 0.35205078125
vt 0.284912109375 0.431640625
vt 0.284912109375 0.431640625
vt 0.27001953125 0.431640625
vt 0.27001953125 0.35205078125
vt 0.269775390625 0.34521484375
vt 0.269775390625 0.3359375
vt 0.284912109375 0.3359375
vt 0.284912109375 0.3359375
vt 0.284912109375 0.34521484375
vt 0.269775390625 0.34521484375
vt 0.2880859375 0.34521484375
vt 0.2880859375 0.3359375
vt 0.30322265625 0.3359375
vt 0.30322265625 0.3359375
vt 0.30322265625 0.34521484375
vt 0.2880859375 0.34521484375
vt 0.287841796875 0.3525390625
vt 0.29736328125 0.3525390625
vt 0.29736328125 0.43212890625
vt 0.29736328125 0.43212890625
vt 0.287841796875 0.43212890625
vt 0.287841796875 0.3525390625
vt 0.8583984375 0.9782562255859375
vt 0.8486328125 0.9782562255859375
vt 0.8486328125 0.57080078125
vt 0.8486328125 0.57080078125
vt 0.8583984375 0.57080078125
vt 0.8583984375 0.9782562255859375
vt 0.81201171875 0.5712890625
vt 0.81201171875 0.978668212890625
vt 0.7998046875 0.978668212890625
vt 0.7998046875 0.978668212890625
vt 0.7998046875 0.5712890625
vt 0.81201171875 0.5712890625
vt 0.84521484375 0.572021484375
vt 0.84521484375 0.979339599609375
vt 0.8330078125 0.979339599609375
vt 0.8330078125 0.979339599609375
vt 0.8330078125 0.572021484375
vt 0.84521484375 0.572021484375
vt 0.82763671875 0.980072021484375
vt 0.81787109375 0.980072021484375
vt 0.81787109375 0.57275390625
vt 0.81787109375 0.57275390625
vt 0.82763671875 0.57275390625
vt 0.82763671875 0.980072021484375
vt 0.377197265625 0.01123046875
vt 0.432373046875 0.01123046875
vt 0.432373046875 0.4169921875
vt 0.432373046875 0.4169921875
vt 0.377197265625 0.4169921875
vt 0.377197265625 0.01123046875
vt 0.8583984375 0.9782562255859375
vt 0.8486328125 0.9782562255859375
vt 0.8486328125 0.57080078125
vt 0.8486328125 0.57080078125
vt 0.8583984375 0.57080078125
vt 0.8583984375 0.9782562255859375
vt 0.81201171875 0.5712890625
vt 0.81201171875 0.978668212890625
vt 0.7998046875 0.978668212890625
vt 0.7998046875 0.978668212890625
vt 0.7998046875 0.5712890625
vt 0.81201171875 0.5712890625
vt 0.84521484375 0.572021484375
vt 0.84521484375 0.979339599609375
vt 0.8330078125 0.979339599609375
vt 0.8330078125 0.979339599609375
vt 0.8330078125 0.572021484375
vt 0.84521484375 0.572021484375
vt 0.82763671875 0.980072021484375
vt 0.81787109375 0.980072021484375
vt 0.81787109375 0.57275390625
vt 0.81787109375 0.57275390625
vt 0.82763671875 0.57275390625
vt 0.82763671875 0.980072021484375
vt 0.327880859375 0.35302734375
vt 0.327880859375 0.43212890625
vt 0.318603515625 0.43212890625
vt 0.318603515625 0.43212890625
vt 0.318603515625 0.35302734375
vt 0.327880859375 0.35302734375
vt 0.3154296875 0.43212890625
vt 0.300537109375 0.43212890625
vt 0.300537109375 0.3525390625
vt 0.300537109375 0.3525390625
vt 0.3154296875 0.3525390625
vt 0.3154296875 0.43212890625
vt 0.27001953125 0.35205078125
vt 0.284912109375 0.35205078125
vt 0.284912109375 0.431640625
vt 0.284912109375 0.431640625
vt 0.27001953125 0.431640625
vt 0.27001953125 0.35205078125
vt 0.269775390625 0.34521484375
vt 0.269775390625 0.3359375
vt 0.284912109375 0.3359375
vt 0.284912109375 0.3359375
vt 0.284912109375 0.34521484375
vt 0.269775390625 0.34521484375
vt 0.2880859375 0.34521484375
vt 0.2880859375 0.3359375
vt 0.30322265625 0.3359375
vt 0.30322265625 0.3359375
vt 0.30322265625 0.34521484375
vt 0.2880859375 0.34521484375
vt 0.287841796875 0.3525390625
vt 0.29736328125 0.3525390625
vt 0.29736328125 0.43212890625
vt 0.29736328125 0.43212890625
vt 0.287841796875 0.43212890625
vt 0.287841796875 0.3525390625
vt 0.327880859375 0.35302734375
vt 0.327880859375 0.43212890625
vt 0.318603515625 0.43212890625
vt 0.318603515625 0.43212890625
vt 0.318603515625 0.35302734375
vt 0.327880859375 0.35302734375
vt 0.3154296875 0.43212890625
vt 0.300537109375 0.43212890625
vt 0.300537109375 0.3525390625
vt 0.300537109375 0.3525390625
vt 0.3154296875 0.3525390625
vt 0.3154296875 0.43212890625
vt 0.27001953125 0.35205078125
vt 0.284912109375 0.35205078125
vt 0.284912109375 0.431640625
vt 0.284912109375 0.431640625
vt 0.27001953125 0.431640625
vt 0.27001953125 0.35205078125
vt 0.269775390625 0.34521484375
vt 0.269775390625 0.3359375
vt 0.284912109375 0.3359375
vt 0.284912109375 0.3359375
vt 0.284912109375 0.34521484375
vt 0.269775390625 0.34521484375
vt 0.2880859375 0.34521484375
vt 0.2880859375 0.3359375
vt 0.30322265625 0.3359375
vt 0.30322265625 0.3359375
vt 0.30322265625 0.34521484375
vt 0.2880859375 0.34521484375
vt 0.287841796875 0.3525390625
vt 0.29736328125 0.3525390625
vt 0.29736328125 0.43212890625
vt 0.29736328125 0.43212890625
vt 0.287841796875 0.43212890625
vt 0.287841796875 0.3525390625
vt 0.8583984375 0.9782562255859375
vt 0.8486328125 0.9782562255859375
vt 0.8486328125 0.57080078125
vt 0.8486328125 0.57080078125
vt 0.8583984375 0.57080078125
vt 0.8583984375 0.9782562255859375
vt 0.81201171875 0.5712890625
vt 0.81201171875 0.978668212890625
vt 0.7998046875 0.978668212890625
vt 0.7998046875 0.978668212890625
vt 0.7998046875 0.5712890625
vt 0.81201171875 0.5712890625
vt 0.84521484375 0.572021484375
vt 0.84521484375 0.979339599609375
vt 0.8330078125 0.979339599609375
vt 0.8330078125 0.979339599609375
vt 0.8330078125 0.572021484375
vt 0.84521484375 0.572021484375
vt 0.82763671875 0.980072021484375
vt 0.81787109375 0.980072021484375
vt 0.81787109375 0.57275390625
vt 0.81787109375 0.57275390625
vt 0.82763671875 0.57275390625
vt 0.82763671875 0.980072021484375
vt 0.377197265625 0.01123046875
vt 0.432373046875 0.01123046875
vt 0.432373046875 0.4169921875
vt 0.432373046875 0.4169921875
vt 0.377197265625 0.4169921875
vt 0.377197265625 0.01123046875
vt 0.8583984375 0.9782562255859375
vt 0.8486328125 0.9782562255859375
vt 0.8486328125 0.57080078125
vt 0.8486328125 0.57080078125
vt 0.8583984375 0.57080078125
vt 0.8583984375 0.9782562255859375
vt 0.81201171875 0.5712890625
vt 0.81201171875 0.978668212890625
vt 0.7998046875 0.978668212890625
vt 0.7998046875 0.978668212890625
vt 0.7998046875 0.5712890625
vt 0.81201171875 0.5712890625
vt 0.84521484375 0.572021484375
vt 0.84521484375 0.979339599609375
vt 0.8330078125 0.979339599609375
vt 0.8330078125 0.979339599609375
vt 0.8330078125 0.572021484375
vt 0.84521484375 0.572021484375
vt 0.82763671875 0.980072021484375
vt 0.81787109375 0.980072021484375
vt 0.81787109375 0.57275390625
vt 0.81787109375 0.57275390625
vt 0.82763671875 0.57275390625
vt 0.82763671875 0.980072021484375
vt 0.327880859375 0.35302734375
vt 0.327880859375 0.43212890625
vt 0.318603515625 0.43212890625
vt 0.318603515625 0.43212890625
vt 0.318603515625 0.35302734375
vt 0.327880859375 0.35302734375
vt 0.3154296875 0.43212890625
vt 0.300537109375 0.43212890625
vt 0.300537109375 0.3525390625
vt 0.300537109375 0.3525390625
vt 0.3154296875 0.3525390625
vt 0.3154296875 0.43212890625
vt 0.27001953125 0.35205078125
vt 0.284912109375 0.35205078125
vt 0.284912109375 0.431640625
vt 0.284912109375 0.431640625
vt 0.27001953125 0.431640625
vt 0.27001953125 0.35205078125
vt 0.269775390625 0.34521484375
vt 0.269775390625 0.3359375
vt 0.284912109375 0.3359375
vt 0.284912109375 0.3359375
vt 0.284912109375 0.34521484375
vt 0.269775390625 0.34521484375
vt 0.2880859375 0.34521484375
vt 0.2880859375 0.3359375
vt 0.30322265625 0.3359375
vt 0.30322265625 0.3359375
vt 0.30322265625 0.34521484375
vt 0.2880859375 0.34521484375
vt 0.287841796875 0.3525390625
vt 0.29736328125 0.3525390625
vt 0.29736328125 0.43212890625
vt 0.29736328125 0.43212890625
vt 0.287841796875 0.43212890625
vt 0.287841796875 0.3525390625
vn -0.7744545936584473 -0.25860852003097534 0.5773574113845825
vn 0.25861889123916626 -0.7744575142860413 0.5773490071296692
vn 0.7744545340538025 0.25860849022865295 0.5773574709892273
vn -0.25861889123916626 0.7744575142860413 0.5773490071296692
vn 0.7744531631469727 0.2586178481578827 -0.5773553252220154
vn -0.25862887501716614 0.774444043636322 -0.577362596988678
vn -0.7744595408439636 -0.2586246132850647 -0.5773438215255737
vn 0.25862574577331543 -0.7744517922401428 -0.5773534774780273
vn -0.31673499941825867 0.9485141038894653 0.0
vn -0.9485174417495728 -0.3167249262332916 0.0
vn -0.9485170841217041 -0.31672585010528564 0.0
vn -0.31673547625541687 0.948513925075531 0.0
vn 0.9485238194465637 0.3167056441307068 0.0
vn 0.9485240578651428 0.3167048990726471 0.0
vn 0.31669315695762634 -0.948527991771698 0.0
vn 0.3166942298412323 -0.9485276341438293 0.0
vn -0.4467299282550812 -0.8946689367294312 0.0
vn -0.4467298984527588 -0.8946688175201416 0.0
vn -0.44672995805740356 -0.8946688771247864 0.0
vn -0.44672995805740356 -0.8946688175201416 0.0
vn 0.3167528510093689 -0.948508083820343 4.648143203667132e-07
vn 0.9485113620758057 0.3167431056499481 0.0
vn 0.9485111236572266 0.3167438805103302 0.0
vn 0.3167431652545929 -0.9485113620758057 0.0
vn -0.9485109448432922 -0.3167441189289093 5.877004660703733e-09
vn -0.948505163192749 -0.3167617619037628 2.372440093267869e-07
vn -0.3167499601840973 0.9485090374946594 -2.3345246802364272e-07
vn -0.3167431652545929 0.9485113620758057 0.0
vn -0.7744545936584473 -0.25860872864723206 0.5773574113845825
vn 0.25861889123916626 -0.7744575142860413 0.5773490071296692
vn 0.7744545936584473 0.2586086094379425 0.5773573517799377
vn -0.25861889123916626 0.7744575142860413 0.5773490071296692
vn 0.7744535803794861 0.2586177587509155 -0.5773547291755676
vn -0.25862762331962585 0.7744483351707458 -0.5773573517799377
vn -0.774456799030304 -0.2586211562156677 -0.5773490071296692
vn 0.2586260437965393 -0.7744522094726562 -0.5773528218269348
vn -0.7744565606117249 -0.25860461592674255 0.5773565769195557
vn 0.25862014293670654 -0.7744569778442383 0.5773491263389587
vn 0.7744550704956055 0.25861555337905884 0.5773537158966064
vn -0.2586157023906708 0.7744577527046204 0.5773500800132751
vn 0.774455726146698 0.258606493473053 -0.5773568749427795
vn -0.258625328540802 0.7744444012641907 -0.5773637294769287
vn -0.7744614481925964 -0.25862035155296326 -0.5773430466651917
vn 0.2586233615875244 -0.7744529247283936 -0.5773531198501587
vn -0.31673499941825867 0.9485141038894653 0.0
vn -0.948513925075531 -0.31673556566238403 0.0
vn -0.9485136866569519 -0.31673604249954224 0.0
vn -0.31673547625541687 0.948513925075531 0.0
vn 0.9485136866569519 0.31673604249954224 0.0
vn 0.948513925075531 0.31673556566238403 0.0
vn 0.31673502922058105 -0.9485141038894653 0.0
vn 0.31673547625541687 -0.948513925075531 0.0
vn -0.4467344284057617 -0.8946666121482849 0.0
vn -0.44673433899879456 -0.8946666121482849 0.0
vn -0.4467344284057617 -0.8946666121482849 0.0
vn -0.4467344284057617 -0.8946666121482849 0.0
vn 0.3166825771331787 -0.9485316276550293 0.0
vn 0.9485240578651428 0.3167048990726471 0.0
vn 0.9485273957252502 0.3166952431201935 -4.648180436106486e-07
vn 0.31668365001678467 -0.9485312700271606 0.0
vn -0.9485202431678772 -0.3167165517807007 -2.3346046873484738e-07
vn -0.9485235810279846 -0.3167066276073456 0.0
vn -0.3167257308959961 0.9485171437263489 -1.2130053406167463e-08
vn -0.3167246878147125 0.9485175013542175 -7.104079031705623e-07
vn -0.7744565606117249 -0.25860467553138733 0.5773565173149109
vn 0.25862014293670654 -0.7744569778442383 0.5773491263389587
vn 0.7744550704956055 0.25861573219299316 0.5773536562919617
vn -0.258615642786026 0.7744577527046204 0.5773500800132751
vn 0.7744561433792114 0.2586064338684082 -0.5773563981056213
vn -0.2586241662502289 0.774448573589325 -0.5773584842681885
vn -0.7744587659835815 -0.25861692428588867 -0.5773482322692871
vn 0.25862374901771545 -0.7744532823562622 -0.5773524641990662
f 1/1/1 2/2/2 3/3/3
f 3/4/3 4/5/4 1/6/1
f 3/7/3 5/8/5 6/9/6
f 6/10/6 4/11/4 3/12/3
f 1/13/1 7/14/7 8/15/8
f 8/16/8 2/17/2 1/18/1
f 1/19/1 4/20/4 6/21/6
f 6/22/6 7/23/7 1/24/1
f 3/25/3 2/26/2 8/27/8
f 8/28/8 5/29/5 3/30/3
f 7/31/7 6/32/6 5/33/5
f 5/34/5 8/35/8 7/36/7
f 9/37/9 10/38/10 11/39/11
f 11/40/11 12/41/12 9/42/9
f 9/43/9 12/44/12 13/45/13
f 13/46/13 14/47/14 9/48/9
f 11/49/11 10/50/10 15/51/15
f 15/52/15 16/53/16 11/54/11
f 15/55/15 14/56/14 13/57/13
f 13/58/13 16/59/16 15/60/15
f 17/61/17 18/62/18 19/63/19
f 19/64/19 20/65/20 17/66/17
f 21/67/21 22/68/22 23/69/23
f 23/70/23 24/71/24 21/72/21
f 21/73/21 24/74/24 25/75/25
f 25/76/25 26/77/26 21/78/21
f 23/79/23 22/80/22 27/81/27
f 27/82/27 28/83/28 23/84/23
f 27/85/27 26/86/26 25/87/25
f 25/88/25 28/89/28 27/90/27
f 29/91/29 30/92/30 31/93/31
f 31/94/31 32/95/32 29/96/29
f 31/97/31 33/98/33 34/99/34
f 34/100/34 32/101/32 31/102/31
f 29/103/29 35/104/35 36/105/36
f 36/106/36 30/107/30 29/108/29
f 29/109/29 32/110/32 34/111/34
f 34/112/34 35/113/35 29/114/29
f 31/115/31 30/116/30 36/117/36
f 36/118/36 33/119/33 31/120/31
f 35/121/35 34/122/34 33/123/33
f 33/124/33 36/125/36 35/126/35
f 37/127/37 38/128/38 39/129/39
f 39/130/39 40/131/40 37/132/37
f 39/133/39 41/134/41 42/135/42
f 42/136/42 40/137/40 39/138/39
f 37/139/37 43/140/43 44/141/44
f 44/142/44 38/143/38 37/144/37
f 37/145/37 40/146/40 42/147/42
f 42/148/42 43/149/43 37/150/37
f 39/151/39 38/152/38 44/153/44
f 44/154/44 41/155/41 39/156/39
f 43/157/43 42/158/42 41/159/41
f 41/160/41 44/161/44 43/162/43
f 45/163/45 46/164/46 47/165/47
f 47/166/47 48/167/48 45/168/45
f 45/169/45 48/170/48 49/171/49
f 49/172/49 50/173/50 45/174/45
f 47/175/47 46/176/46 51/177/51
f 51/178/51 52/179/52 47/180/47
f 51/181/51 50/182/50 49/183/49
f 49/184/49 52/185/52 51/186/51
f 53/187/53 54/188/54 55/189/55
f 55/190/55 56/191/56 53/192/53
f 57/193/57 58/194/58 59/195/59
f 59/196/59 60/197/60 57/198/57
f 57/199/57 60/200/60 61/201/61
f 61/202/61 62/203/62 57/204/57
f 59/205/59 58/206/58 63/207/63
f 63/208/63 64/209/64 59/210/59
f 63/211/63 62/212/62 61/213/61
f 61/214/61 64/215/64 63/216/63
f 65/217/65 66/218/66 67/219/67
f 67/220/67 68/221/68 65/222/65
f 67/223/67 69/224/69 70/225/70
f 70/226/70 68/227/68 67/228/67
f 65/229/65 71/230/71 72/231/72
f 72/232/72 66/233/66 65/234/65
f 65/235/65 68/236/68 70/237/70
f 70/238/70 71/239/71 65/240/65
f 67/241/67 66/242/66 72/243/72
f 72/244/72 69/245/69 67/246/67
f 71/247/71 70/248/70 69/249/69
f 69/250/69 72/251/72 71/252/71
