# Exported by Lightwave Blender addon
v 190.9447021484375 -1358.385009765625 90.05500793457031
v 230.2963409423828 -1374.4625244140625 90.05500030517578
v 205.99269104003906 -1321.5494384765625 90.05500793457031
v 245.34434509277344 -1337.6268310546875 90.05489349365234
v 207.8760528564453 -1316.9393310546875 21.999954223632812
v 207.87600708007812 -1316.9393310546875 84.70954132080078
v 247.22769165039062 -1333.0167236328125 21.999954223632812
v 247.2276611328125 -1333.0167236328125 84.70954132080078
v 206.4916534423828 -1320.3280029296875 89.47596740722656
v 245.84329223632812 -1336.405517578125 89.4758529663086
v 207.67457580566406 -1317.4322509765625 86.07533264160156
v 247.02622985839844 -1333.509765625 86.07533264160156
v 205.38970947265625 -1320.826171875 89.26825714111328
v 190.1747589111328 -1358.0704345703125 89.26825714111328
v 231.06626892089844 -1374.7769775390625 89.26824951171875
v 246.2812042236328 -1337.53271484375 89.26813507080078
v 206.80859375 -1317.35302734375 21.999954223632812
v 206.8085479736328 -1317.3529052734375 85.49629211425781
v 247.7000274658203 -1334.0596923828125 85.49629211425781
v 247.70005798339844 -1334.0596923828125 21.999954223632812
v 190.17481994628906 -1358.0704345703125 21.99995231628418
v 190.1747589111328 -1358.0704345703125 85.49629211425781
v 231.06629943847656 -1374.7769775390625 21.99995231628418
v 231.06626892089844 -1374.7769775390625 85.49628448486328
vt 0.60009765625 0.612060546875
vt 0.3994140625 0.612060546875
vt 0.60009765625 0.4130859375
vt 0.3994140625 0.612060546875
vt 0.3994140625 0.4130859375
vt 0.60009765625 0.4130859375
vt 0.60009765625 0.330078125
vt 0.60009765625 0.6435546875
vt 0.3994140625 0.330078125
vt 0.60009765625 0.6435546875
vt 0.3994140625 0.6435546875
vt 0.3994140625 0.330078125
vt 0.60009765625 0.66748046875
vt 0.3994140625 0.66748046875
vt 0.60009765625 0.650390625
vt 0.3994140625 0.66748046875
vt 0.3994140625 0.650390625
vt 0.60009765625 0.650390625
vt 0.412841796875 0.670166015625
vt 0.41064453125 0.666259765625
vt 0.61181640625 0.670166015625
vt 0.41064453125 0.666259765625
vt 0.61181640625 0.666259765625
vt 0.61181640625 0.670166015625
vt 0.3994140625 0.612060546875
vt 0.395263671875 0.612060546875
vt 0.3994140625 0.4130859375
vt 0.395263671875 0.612060546875
vt 0.3955078125 0.4111328125
vt 0.3994140625 0.4130859375
vt 0.387939453125 0.330078125
vt 0.391845703125 0.330078125
vt 0.387939453125 0.6435546875
vt 0.391845703125 0.330078125
vt 0.391845703125 0.6474609375
vt 0.387939453125 0.6435546875
vt 0.59326171875 0.66748046875
vt 0.5888671875 0.666259765625
vt 0.609375 0.650634765625
vt 0.5888671875 0.666259765625
vt 0.60791015625 0.6474609375
vt 0.609375 0.650634765625
vt 0.390625 0.650390625
vt 0.391845703125 0.6474609375
vt 0.40625 0.66748046875
vt 0.391845703125 0.6474609375
vt 0.41064453125 0.666259765625
vt 0.40625 0.66748046875
vt 0.3994140625 0.4130859375
vt 0.3955078125 0.4111328125
vt 0.3994140625 0.40673828125
vt 0.3994140625 0.4130859375
vt 0.3994140625 0.40673828125
vt 0.60009765625 0.4130859375
vt 0.3994140625 0.40673828125
vt 0.60009765625 0.40673828125
vt 0.60009765625 0.4130859375
vt 0.60009765625 0.4130859375
vt 0.60009765625 0.40673828125
vt 0.60400390625 0.4111328125
vt 0.6044921875 0.6474609375
vt 0.60009765625 0.650390625
vt 0.60009765625 0.6435546875
vt 0.60009765625 0.6435546875
vt 0.60009765625 0.650390625
vt 0.3994140625 0.6435546875
vt 0.60009765625 0.650390625
vt 0.3994140625 0.650390625
vt 0.3994140625 0.6435546875
vt 0.3994140625 0.650390625
vt 0.3955078125 0.6474609375
vt 0.3994140625 0.6435546875
vt 0.3994140625 0.6435546875
vt 0.3955078125 0.6474609375
vt 0.3994140625 0.330078125
vt 0.3955078125 0.6474609375
vt 0.3955078125 0.330078125
vt 0.3994140625 0.330078125
vt 0.61181640625 0.330078125
vt 0.61181640625 0.6474609375
vt 0.391845703125 0.330078125
vt 0.61181640625 0.6474609375
vt 0.391845703125 0.6474609375
vt 0.391845703125 0.330078125
vt 0.41064453125 0.666259765625
vt 0.391845703125 0.6474609375
vt 0.61181640625 0.6474609375
vt 0.61181640625 0.666259765625
vt 0.41064453125 0.666259765625
vt 0.61181640625 0.6474609375
vt 0.60791015625 0.330078125
vt 0.60791015625 0.6474609375
vt 0.387939453125 0.330078125
vt 0.60791015625 0.6474609375
vt 0.387939453125 0.6474609375
vt 0.387939453125 0.330078125
vt 0.387939453125 0.666259765625
vt 0.387939453125 0.6474609375
vt 0.60791015625 0.6474609375
vt 0.5888671875 0.666259765625
vt 0.387939453125 0.666259765625
vt 0.60791015625 0.6474609375
vn -0.34234270453453064 0.13985316455364227 0.9291085004806519
vn 0.3423529267311096 -0.1398550122976303 0.9291043877601624
vn -0.2438296675682068 0.2844240069389343 0.9271730780601501
vn 0.373262882232666 0.03234463930130005 0.9271615743637085
vn 0.009065830148756504 0.9999589323997498 6.715562328452052e-09
vn 0.04765929654240608 0.9883500933647156 0.14454345405101776
vn 0.693758487701416 0.7202077507972717 3.654377280781773e-07
vn 0.6581076979637146 0.7389126420021057 0.14457601308822632
vn -0.08830534666776657 0.6432821750640869 0.7605195641517639
vn 0.52281653881073 0.398420512676239 0.7536072731018066
vn 0.052282221615314484 0.8509970903396606 0.5225616693496704
vn 0.5632794499397278 0.6355141997337341 0.5280510783195496
vn -0.7316396236419678 0.5071125626564026 0.4555659592151642
vn -0.8502604961395264 0.347346693277359 0.3954837918281555
vn 0.8502658009529114 -0.3473474979400635 0.3954717218875885
vn 0.8791115880012512 -0.14522753655910492 0.45395129919052124
vn -0.7006809115409851 0.7134747505187988 -7.451867531926837e-07
vn -0.5994008183479309 0.7697954773902893 0.219393789768219
vn 0.9654535055160522 0.12856923043727875 0.22664813697338104
vn 0.9998247027397156 0.018718581646680832 4.805352205039526e-07
vn -0.9257329106330872 0.37817808985710144 -8.898505825527536e-07
vn -0.9257327914237976 0.3781779706478119 -2.4423889044555835e-07
vn 0.9257326126098633 -0.37817877531051636 4.4492514916782966e-07
vn 0.9257326126098633 -0.37817874550819397 2.224626314273337e-07
f 1/1/1 2/2/2 3/3/3
f 2/4/2 4/5/4 3/6/3
f 5/7/5 6/8/6 7/9/7
f 6/10/6 8/11/8 7/12/7
f 9/13/9 10/14/10 11/15/11
f 10/16/10 12/17/12 11/18/11
f 3/19/3 13/20/13 1/21/1
f 13/22/13 14/23/14 1/24/1
f 2/25/2 15/26/15 4/27/4
f 15/28/15 16/29/16 4/30/4
f 5/31/5 17/32/17 6/33/6
f 17/34/17 18/35/18 6/36/6
f 10/37/10 16/38/16 12/39/12
f 16/40/16 19/41/19 12/42/12
f 11/43/11 18/44/18 9/45/9
f 18/46/18 13/47/13 9/48/9
f 4/49/4 16/50/16 10/51/10
f 4/52/4 10/53/10 3/54/3
f 10/55/10 9/56/9 3/57/3
f 3/58/3 9/59/9 13/60/13
f 18/61/18 11/62/11 6/63/6
f 6/64/6 11/65/11 8/66/8
f 11/67/11 12/68/12 8/69/8
f 12/70/12 19/71/19 8/72/8
f 8/73/8 19/74/19 7/75/7
f 19/76/19 20/77/20 7/78/7
f 21/79/21 22/80/22 17/81/17
f 22/82/22 18/83/18 17/84/17
f 13/85/13 18/86/18 22/87/22
f 14/88/14 13/89/13 22/90/22
f 20/91/20 19/92/19 23/93/23
f 19/94/19 24/95/24 23/96/23
f 15/97/15 24/98/24 19/99/19
f 16/100/16 15/101/15 19/102/19
