# Exported by Lightwave Blender addon
v -95.3337173461914 416.3809509277344 53.47608184814453
v -95.33365631103516 416.3809814453125 95.32567596435547
v -99.6560287475586 418.7113952636719 95.32568359375
v -99.65608978271484 418.7113342285156 53.476078033447266
v -100.09615325927734 418.9486999511719 95.32568359375
v -100.09619903564453 418.9486083984375 53.47608184814453
v -99.85833740234375 419.3885192871094 95.32568359375
v -99.85839080810547 419.3884582519531 53.47608184814453
v -99.70377349853516 419.67437744140625 95.32567596435547
v -99.70382690429688 419.67431640625 53.476078033447266
v -99.46595764160156 420.11419677734375 95.32568359375
v -99.46601867675781 420.1141357421875 53.47608184814453
v -99.78186798095703 420.50177001953125 95.32568359375
v -99.78190612792969 420.501708984375 53.476078033447266
v -100.29969787597656 421.1371154785156 95.32568359375
v -100.29975891113281 421.1370544433594 53.47608184814453
v -100.61559295654297 421.5246887207031 95.32567596435547
v -100.61565399169922 421.5246276855469 53.476078033447266
v -100.37832641601562 421.96478271484375 95.32567596435547
v -100.37836456298828 421.9647216796875 53.476078033447266
v -99.57024383544922 423.463623046875 95.32567596435547
v -99.5702896118164 423.46356201171875 53.47607421875
v -99.33295440673828 423.9037170410156 95.32566833496094
v -99.33301544189453 423.9036560058594 53.476070404052734
v -98.83560180664062 423.8523864746094 95.32567596435547
v -98.83566284179688 423.8523254394531 53.47606658935547
v -98.0163803100586 423.767822265625 95.32567596435547
v -98.01643371582031 423.76776123046875 53.47606658935547
v -97.5190200805664 423.7164611816406 95.32567596435547
v -97.51908111572266 423.7164306640625 53.47607421875
v -97.28174591064453 424.1565856933594 95.32567596435547
v -97.28179168701172 424.1565246582031 53.47606658935547
v -97.15589904785156 424.3899841308594 95.32567596435547
v -97.15596008300781 424.389892578125 53.47606658935547
v -96.91860961914062 424.830078125 95.32567596435547
v -96.91867065429688 424.83001708984375 53.47606658935547
v -96.47850036621094 424.5928039550781 95.32567596435547
v -96.47856140136719 424.5927429199219 53.476070404052734
v -91.96688079833984 422.16033935546875 95.32566833496094
v -91.9669418334961 422.1602478027344 53.47606658935547
vt 0.75537109375 0.516845703125
vt 0.54638671875 0.516845703125
vt 0.54638671875 0.4921875
vt 0.75537109375 0.4921875
vt 0.75537109375 0.516845703125
vt 0.54638671875 0.4921875
vt 0.75537109375 0.4921875
vt 0.54638671875 0.4921875
vt 0.54638671875 0.48974609375
vt 0.75537109375 0.48974609375
vt 0.75537109375 0.4921875
vt 0.54638671875 0.48974609375
vt 0.75537109375 0.48974609375
vt 0.54638671875 0.48974609375
vt 0.54638671875 0.4873046875
vt 0.75537109375 0.4873046875
vt 0.75537109375 0.48974609375
vt 0.54638671875 0.4873046875
vt 0.75537109375 0.4873046875
vt 0.54638671875 0.4873046875
vt 0.54638671875 0.48583984375
vt 0.75537109375 0.48583984375
vt 0.75537109375 0.4873046875
vt 0.54638671875 0.48583984375
vt 0.75537109375 0.48583984375
vt 0.54638671875 0.48583984375
vt 0.54638671875 0.4833984375
vt 0.75537109375 0.4833984375
vt 0.75537109375 0.48583984375
vt 0.54638671875 0.4833984375
vt 0.75537109375 0.4833984375
vt 0.54638671875 0.4833984375
vt 0.54638671875 0.48095703125
vt 0.75537109375 0.48095703125
vt 0.75537109375 0.4833984375
vt 0.54638671875 0.48095703125
vt 0.75537109375 0.48095703125
vt 0.54638671875 0.48095703125
vt 0.54638671875 0.47705078125
vt 0.75537109375 0.47705078125
vt 0.75537109375 0.48095703125
vt 0.54638671875 0.47705078125
vt 0.75537109375 0.47705078125
vt 0.54638671875 0.47705078125
vt 0.54638671875 0.474609375
vt 0.75537109375 0.474609375
vt 0.75537109375 0.47705078125
vt 0.54638671875 0.474609375
vt 0.75537109375 0.474609375
vt 0.54638671875 0.474609375
vt 0.54638671875 0.47216796875
vt 0.75537109375 0.47216796875
vt 0.75537109375 0.474609375
vt 0.54638671875 0.47216796875
vt 0.75537109375 0.47216796875
vt 0.54638671875 0.47216796875
vt 0.54638671875 0.4638671875
vt 0.75537109375 0.4638671875
vt 0.75537109375 0.47216796875
vt 0.54638671875 0.4638671875
vt 0.75537109375 0.4638671875
vt 0.54638671875 0.4638671875
vt 0.54638671875 0.46142578125
vt 0.75537109375 0.46142578125
vt 0.75537109375 0.4638671875
vt 0.54638671875 0.46142578125
vt 0.75537109375 0.46142578125
vt 0.54638671875 0.46142578125
vt 0.54638671875 0.458984375
vt 0.75537109375 0.458984375
vt 0.75537109375 0.46142578125
vt 0.54638671875 0.458984375
vt 0.75537109375 0.458984375
vt 0.54638671875 0.458984375
vt 0.54638671875 0.455078125
vt 0.75537109375 0.455078125
vt 0.75537109375 0.458984375
vt 0.54638671875 0.455078125
vt 0.75537109375 0.455078125
vt 0.54638671875 0.455078125
vt 0.54638671875 0.45263671875
vt 0.75537109375 0.45263671875
vt 0.75537109375 0.455078125
vt 0.54638671875 0.45263671875
vt 0.75537109375 0.45263671875
vt 0.54638671875 0.45263671875
vt 0.54638671875 0.4501953125
vt 0.75537109375 0.4501953125
vt 0.75537109375 0.45263671875
vt 0.54638671875 0.4501953125
vt 0.75537109375 0.4501953125
vt 0.54638671875 0.4501953125
vt 0.54638671875 0.44921875
vt 0.75537109375 0.44921875
vt 0.75537109375 0.4501953125
vt 0.54638671875 0.44921875
vt 0.75537109375 0.44921875
vt 0.54638671875 0.44921875
vt 0.54638671875 0.4462890625
vt 0.75537109375 0.4462890625
vt 0.75537109375 0.44921875
vt 0.54638671875 0.4462890625
vt 0.75537109375 0.4462890625
vt 0.54638671875 0.4462890625
vt 0.54638671875 0.44384765625
vt 0.75537109375 0.44384765625
vt 0.75537109375 0.4462890625
vt 0.54638671875 0.44384765625
vt 0.75537109375 0.44384765625
vt 0.54638671875 0.44384765625
vt 0.54638671875 0.41845703125
vt 0.75537109375 0.41845703125
vt 0.75537109375 0.44384765625
vt 0.54638671875 0.41845703125
vn -0.47456616163253784 -0.8802198767662048 1.9291180706204614e-06
vn -0.4745706021785736 -0.880217432975769 1.334005673925276e-06
vn -0.4745788276195526 -0.8802130222320557 1.6788435459602624e-06
vn -0.4745594561100006 -0.8802234530448914 2.208878640885814e-06
vn -0.9581549763679504 -0.2862497568130493 1.3450879805532168e-06
vn -0.95814448595047 -0.2862851619720459 2.030308223766042e-06
vn -0.8796453475952148 0.4756302535533905 1.771920778992353e-07
vn -0.8796553015708923 0.47561168670654297 4.288644390726404e-07
vn -0.8796452283859253 0.4756303131580353 4.2886748019554943e-07
vn -0.8796483874320984 0.4756245017051697 5.083813903183909e-07
vn -0.9955759048461914 -0.09396040439605713 1.493276840847102e-06
vn -0.9955768585205078 -0.09395027160644531 1.3358938986129942e-06
vn -0.7751390933990479 -0.6317905783653259 1.8383409496891545e-06
vn -0.7751434445381165 -0.6317852139472961 1.8373953025729861e-06
vn -0.775146484375 -0.6317816376686096 1.8425914731778903e-06
vn -0.7751396298408508 -0.6317899227142334 2.0520649286481785e-06
vn -0.9955189824104309 -0.09456268697977066 1.5898197034402983e-06
vn -0.995521605014801 -0.09453383088111877 1.3024236977798864e-06
vn -0.8802242875099182 0.47455790638923645 3.4910641488750116e-07
vn -0.8802157044410706 0.47457385063171387 1.8843392979306373e-07
vn -0.8802148103713989 0.4745754599571228 1.9251073979376088e-07
vn -0.8802220225334167 0.4745620787143707 4.3018118844884157e-07
vn -0.46773749589920044 0.8838675618171692 -7.98491441855731e-07
vn -0.46774402260780334 0.8838640451431274 -6.06765752309002e-07
vn 0.10267087817192078 0.9947153925895691 -1.600472501195327e-06
vn 0.10267041623592377 0.9947154521942139 -1.5911882655927911e-06
vn 0.10270028561353683 0.9947123527526855 -1.5910300135146827e-06
vn 0.10267063975334167 0.9947153925895691 -1.2310587180763832e-06
vn -0.46773362159729004 0.8838695883750916 -3.842393994091253e-07
vn -0.46773844957351685 0.8838669061660767 -3.605393317229755e-07
vn -0.8802178502082825 0.47456982731819153 6.016345537318557e-07
vn -0.8802037835121155 0.4745958745479584 2.5807290171542263e-07
vn -0.8802047371864319 0.4745941758155823 2.5800264324971067e-07
vn -0.8802106380462646 0.47458329796791077 4.172788123923965e-07
vn -0.2868386507034302 0.9579789042472839 -1.2216675031595514e-06
vn -0.28684762120246887 0.9579761624336243 -9.786753025764483e-07
vn 0.4745631217956543 0.8802215456962585 -1.9758724647545023e-06
vn 0.4745652377605438 0.8802202939987183 -2.272313395224046e-06
vn 0.47457367181777954 0.8802158236503601 -2.0257366486475803e-06
vn 0.4745779037475586 0.8802134990692139 -2.6186630748270545e-06
f 1/1/1 2/2/2 3/3/3
f 4/4/4 1/5/1 3/6/3
f 4/7/4 3/8/3 5/9/5
f 6/10/6 4/11/4 5/12/5
f 6/13/6 5/14/5 7/15/7
f 8/16/8 6/17/6 7/18/7
f 8/19/8 7/20/7 9/21/9
f 10/22/10 8/23/8 9/24/9
f 10/25/10 9/26/9 11/27/11
f 12/28/12 10/29/10 11/30/11
f 12/31/12 11/32/11 13/33/13
f 14/34/14 12/35/12 13/36/13
f 14/37/14 13/38/13 15/39/15
f 16/40/16 14/41/14 15/42/15
f 16/43/16 15/44/15 17/45/17
f 18/46/18 16/47/16 17/48/17
f 18/49/18 17/50/17 19/51/19
f 20/52/20 18/53/18 19/54/19
f 20/55/20 19/56/19 21/57/21
f 22/58/22 20/59/20 21/60/21
f 22/61/22 21/62/21 23/63/23
f 24/64/24 22/65/22 23/66/23
f 24/67/24 23/68/23 25/69/25
f 26/70/26 24/71/24 25/72/25
f 26/73/26 25/74/25 27/75/27
f 28/76/28 26/77/26 27/78/27
f 28/79/28 27/80/27 29/81/29
f 30/82/30 28/83/28 29/84/29
f 30/85/30 29/86/29 31/87/31
f 32/88/32 30/89/30 31/90/31
f 32/91/32 31/92/31 33/93/33
f 34/94/34 32/95/32 33/96/33
f 34/97/34 33/98/33 35/99/35
f 36/100/36 34/101/34 35/102/35
f 36/103/36 35/104/35 37/105/37
f 38/106/38 36/107/36 37/108/37
f 38/109/38 37/110/37 39/111/39
f 40/112/40 38/113/38 39/114/39
