# Exported by Lightwave Blender addon
v 24.87921905517578 -1224.4471435546875 898.4938354492188
v 102.68866729736328 -1256.263916015625 898.493896484375
v 104.0862045288086 -1252.8463134765625 897.8872680664062
v 26.27674102783203 -1221.0294189453125 897.8871459960938
v 104.27293395996094 -1252.3895263671875 897.8062133789062
v 26.463485717773438 -1220.5726318359375 897.8060913085938
v 26.407791137695312 -1220.708984375 894.6298828125
v 104.21723937988281 -1252.52587890625 894.6300048828125
v 104.03040313720703 -1252.9827880859375 894.5504760742188
v 26.22093963623047 -1221.1658935546875 894.5504760742188
v 102.60511016845703 -1256.4683837890625 893.9444580078125
v 24.79566192626953 -1224.6514892578125 893.9444580078125
v 104.2641830444336 -1252.4110107421875 897.3067016601562
v 26.454727172851562 -1220.5941162109375 897.3067016601562
v 104.22599792480469 -1252.50439453125 895.12939453125
v 26.416549682617188 -1220.6875 895.12939453125
vt 0.41015625 0.52587890625
vt -0.00998687744140625 0.52587890625
vt -0.00998687744140625 0.507568359375
vt 0.41015625 0.507568359375
vt 0.41015625 0.52587890625
vt -0.00998687744140625 0.507568359375
vt 0.41015625 0.507568359375
vt -0.00998687744140625 0.507568359375
vt -0.00998687744140625 0.505126953125
vt 0.41015625 0.505126953125
vt 0.41015625 0.507568359375
vt -0.00998687744140625 0.505126953125
vt 0.58935546875 0.505859375
vt 1.009765625 0.505859375
vt 1.009765625 0.50830078125
vt 0.58935546875 0.50830078125
vt 0.58935546875 0.505859375
vt 1.009765625 0.50830078125
vt 0.58935546875 0.50830078125
vt 1.009765625 0.50830078125
vt 1.009765625 0.527099609375
vt 0.58935546875 0.527099609375
vt 0.58935546875 0.50830078125
vt 1.009765625 0.527099609375
vt 0.58935546875 0.3798828125
vt 1.009765625 0.3798828125
vt 1.009765625 0.38232421875
vt 0.58935546875 0.38232421875
vt 0.58935546875 0.3798828125
vt 1.009765625 0.38232421875
vt 0.58935546875 0.38232421875
vt 1.009765625 0.38232421875
vt 1.009765625 0.3935546875
vt 0.58935546875 0.3935546875
vt 0.58935546875 0.38232421875
vt 1.009765625 0.3935546875
vt 0.58935546875 0.3935546875
vt 1.009765625 0.3935546875
vt 1.009765625 0.39599609375
vt 0.58935546875 0.39599609375
vt 0.58935546875 0.3935546875
vt 1.009765625 0.39599609375
vn 0.06136393919587135 0.1500716656446457 0.9867689609527588
vn 0.061360251158475876 0.15006132423877716 0.986770749092102
vn 0.06135205551981926 0.15004199743270874 0.986774206161499
vn 0.06135356053709984 0.15004630386829376 0.9867734909057617
vn 0.2941090762615204 0.7192575931549072 0.6294190287590027
vn 0.2941140830516815 0.7192700505256653 0.6294024586677551
vn 0.2823285162448883 0.6904452443122864 -0.666015088558197
vn 0.28235504031181335 0.6905077695846558 -0.6659389734268188
vn 0.06016923114657402 0.14714431762695312 -0.9872832894325256
vn 0.060123395174741745 0.14703410863876343 -0.9873024225234985
vn 0.06013594940304756 0.14706483483314514 -0.987296998500824
vn 0.060136061161756516 0.14706505835056305 -0.9872971177101135
vn 0.37808114290237427 0.9246119260787964 -0.046339403837919235
vn 0.37808093428611755 0.9246117472648621 -0.04634726792573929
vn 0.37808093428611755 0.9246116280555725 -0.046347904950380325
vn 0.3780810832977295 0.9246118664741516 -0.04634161293506622
f 1/1/1 2/2/2 3/3/3
f 4/4/4 1/5/1 3/6/3
f 4/7/4 3/8/3 5/9/5
f 6/10/6 4/11/4 5/12/5
f 7/13/7 8/14/8 9/15/9
f 10/16/10 7/17/7 9/18/9
f 10/19/10 9/20/9 11/21/11
f 12/22/12 10/23/10 11/24/11
f 6/25/6 5/26/5 13/27/13
f 14/28/14 6/29/6 13/30/13
f 14/31/14 13/32/13 15/33/15
f 16/34/16 14/35/14 15/36/15
f 16/37/16 15/38/15 8/39/8
f 7/40/7 16/41/16 8/42/8
