# Exported by Lightwave Blender addon
v 478.1319274902344 -258.1197509765625 1302.1348876953125
v 425.4976806640625 -238.0031280517578 1302.1348876953125
v 478.1319274902344 -258.1197509765625 1120.3265380859375
v 425.4976806640625 -238.0031280517578 1120.3265380859375
v 532.3898315429688 -278.8569641113281 1120.3265380859375
v 532.3898315429688 -278.8570251464844 1302.1348876953125
v 479.4471740722656 -258.6224670410156 1120.3265380859375
v 479.4471740722656 -258.6224670410156 1302.1348876953125
vt 0.497802734375 0.9884872436523438
vt 0.251220703125 0.9884872436523438
vt 0.497802734375 0.22509765625
vt 0.251220703125 0.9884872436523438
vt 0.251220703125 0.22509765625
vt 0.497802734375 0.22509765625
vt 0.2491455078125 0.22509765625
vt 0.2491455078125 0.9884872436523438
vt 0.00260162353515625 0.22509765625
vt 0.2491455078125 0.9884872436523438
vt 0.00260162353515625 0.9884872436523438
vt 0.00260162353515625 0.22509765625
vn -0.3570099472999573 -0.9341005682945251 0.0
vn -0.3570099472999573 -0.9341005682945251 0.0
vn -0.3570099472999573 -0.9341005682945251 0.0
vn -0.3570099472999573 -0.9341005682945251 0.0
vn -0.3570099472999573 -0.9341005682945251 -3.13588316203095e-07
vn -0.35701072216033936 -0.934100329875946 -6.032370691855249e-08
vn -0.357010155916214 -0.9341005086898804 -2.5326460217911517e-07
vn -0.3570108711719513 -0.9341002106666565 0.0
f 1/1/1 2/2/2 3/3/3
f 2/4/2 4/5/4 3/6/3
f 5/7/5 6/8/6 7/9/7
f 6/10/6 8/11/8 7/12/7
