# Exported by Lightwave Blender addon
v 1441.7471923828125 2751.33203125 1401.48876953125
v 1441.7470703125 2751.33203125 1221.78369140625
v 1413.017822265625 2702.858642578125 1221.78369140625
v 1413.017822265625 2702.858642578125 1401.48876953125
v 1383.40234375 2652.8896484375 1401.48876953125
v 1412.2999267578125 2701.647216796875 1401.48876953125
v 1412.300048828125 2701.6474609375 1221.78369140625
v 1383.40234375 2652.889892578125 1221.78369140625
vt 0.251220703125 0.9884872436523438
vt 0.251220703125 0.22509765625
vt 0.497802734375 0.22509765625
vt 0.497802734375 0.22509765625
vt 0.497802734375 0.9884872436523438
vt 0.251220703125 0.9884872436523438
vt 0.2491455078125 0.9884872436523438
vt 0.00260162353515625 0.9884872436523438
vt 0.00260162353515625 0.22509765625
vt 0.00260162353515625 0.22509765625
vt 0.2491455078125 0.22509765625
vt 0.2491455078125 0.9884872436523438
vn -0.8602574467658997 0.5098598599433899 1.1302433478022067e-07
vn -0.8602582812309265 0.5098586082458496 5.84357451316464e-07
vn -0.8602579832077026 0.5098588466644287 4.7133289626799524e-07
vn -0.8602572679519653 0.5098601579666138 0.0
vn -0.8602586984634399 0.5098576545715332 2.219626082933246e-07
vn -0.8602589964866638 0.5098573565483093 1.0831531938038097e-07
vn -0.8602582216262817 0.5098586678504944 5.790282671114255e-07
vn -0.8602579832077026 0.5098589658737183 6.926754281266767e-07
f 1/1/1 2/2/2 3/3/3
f 3/4/3 4/5/4 1/6/1
f 5/7/5 6/8/6 7/9/7
f 7/10/7 8/11/8 5/12/5
