# Exported by Lightwave Blender addon
v 107.27548217773438 732.7288208007812 1005.791748046875
v 133.61680603027344 782.540283203125 1005.791748046875
v 107.27548217773438 732.7288208007812 825.5582275390625
v 133.61680603027344 782.540283203125 825.5582275390625
v 80.12157440185547 681.3807983398438 825.5582275390625
v 80.12149047851562 681.3809204101562 1005.791748046875
v 106.61721801757812 731.4840698242188 825.5582275390625
v 106.6172103881836 731.4841918945312 1005.791748046875
vt 0.497802734375 0.9884872436523438
vt 0.251220703125 0.9884872436523438
vt 0.497802734375 0.22509765625
vt 0.251220703125 0.9884872436523438
vt 0.251220703125 0.22509765625
vt 0.497802734375 0.22509765625
vt 0.2491455078125 0.22509765625
vt 0.2491455078125 0.9884872436523438
vt 0.00260162353515625 0.22509765625
vt 0.2491455078125 0.9884872436523438
vt 0.00260162353515625 0.9884872436523438
vt 0.00260162353515625 0.22509765625
vn -0.8840039372444153 0.467479407787323 0.0
vn -0.8840039372444153 0.4674794673919678 0.0
vn -0.8840039372444153 0.4674794673919678 0.0
vn -0.8840039372444153 0.467479407787323 0.0
vn -0.8840038776397705 0.46747955679893494 -7.282437195499369e-07
vn -0.8840035200119019 0.4674803614616394 -4.2661520183173707e-07
vn -0.8840036988258362 0.4674797058105469 -6.556687139891437e-07
vn -0.8840034008026123 0.4674805700778961 -3.5404019627094385e-07
f 1/1/1 2/2/2 3/3/3
f 2/4/2 4/5/4 3/6/3
f 5/7/5 6/8/6 7/9/7
f 6/10/6 8/11/8 7/12/7
