# Exported by Lightwave Blender addon
v 78.15577697753906 -124.71961212158203 277.19671630859375
v 292.22894287109375 -209.20498657226562 277.1966857910156
v 78.15577697753906 -124.7196044921875 46.47955322265625
v 292.2289733886719 -209.20498657226562 46.4795036315918
v 356.7708740234375 -235.736572265625 277.2709655761719
v 570.951416015625 -320.30389404296875 277.2709045410156
v 356.7708740234375 -235.73658752441406 46.3956184387207
v 570.951416015625 -320.3039855957031 46.47952651977539
v 636.7265625 -343.90643310546875 277.3334655761719
v 851.1096801757812 -428.5068054199219 277.3334655761719
v 636.7266235351562 -343.9062805175781 46.395633697509766
v 851.1097412109375 -428.5068054199219 46.479583740234375
vt -0.0003120899200439453 0.00048828125
vt 1.0 0.00048828125
vt -0.0003120899200439453 0.9983835220336914
vt 1.0 0.00048828125
vt 1.0 0.9983835220336914
vt -0.0003120899200439453 0.9983835220336914
vt -0.0003120899200439453 0.00048828125
vt 1.0 0.00048828125
vt -0.0003120899200439453 0.9983835220336914
vt 1.0 0.00048828125
vt 1.0 0.9983835220336914
vt -0.0003120899200439453 0.9983835220336914
vt -0.0003120899200439453 0.00048828125
vt 1.0 0.00048828125
vt -0.0003120899200439453 0.9983835220336914
vt 1.0 0.00048828125
vt 1.0 0.9983835220336914
vt -0.0003120899200439453 0.9983835220336914
vn 0.36710190773010254 0.9301808476448059 3.678368543091892e-08
vn 0.36710187792778015 0.9301807880401611 4.2661255861276004e-08
vn 0.36710187792778015 0.9301807880401611 4.267998221507696e-08
vn 0.36710187792778015 0.9301807880401611 4.8557552645434043e-08
vn 0.36725059151649475 0.9301220178604126 -7.347547636982199e-08
vn 0.3672507107257843 0.9301219582557678 -2.2097664498232916e-07
vn 0.3672507405281067 0.9301219582557678 -2.214351013662963e-07
vn 0.36725088953971863 0.9301219582557678 -3.6897048971695767e-07
vn 0.3670744299888611 0.9301915764808655 6.972208552724624e-07
vn 0.3670746982097626 0.9301914572715759 3.9752134739501344e-07
vn 0.3670746982097626 0.9301915168762207 3.9681953012404847e-07
vn 0.3670749366283417 0.9301913380622864 9.705046011276863e-08
f 1/1/1 2/2/2 3/3/3
f 2/4/2 4/5/4 3/6/3
f 5/7/5 6/8/6 7/9/7
f 6/10/6 8/11/8 7/12/7
f 9/13/9 10/14/10 11/15/11
f 10/16/10 12/17/12 11/18/11
