# Exported by Lightwave Blender addon
v 1705.3623046875 3203.408935546875 306.35980224609375
v 1704.909423828125 3173.591064453125 306.35980224609375
v 1708.4256591796875 3173.537841796875 306.35980224609375
v 1708.8785400390625 3203.356201171875 306.35980224609375
v 1708.4256591796875 3173.537841796875 300.71685791015625
v 1708.8785400390625 3203.356201171875 300.71685791015625
v 1705.3623046875 3203.408935546875 300.7168884277344
v 1704.909423828125 3173.591064453125 300.71685791015625
v 1708.691650390625 3203.072998046875 147.87646484375
v 1705.512451171875 3203.120849609375 147.87646484375
v 1705.512451171875 3203.120849609375 300.9715881347656
v 1708.691650390625 3203.072998046875 300.9715881347656
v 1708.622314453125 3198.500732421875 300.9715881347656
v 1708.622314453125 3198.500732421875 147.87646484375
v 1705.443115234375 3198.548828125 147.87646484375
v 1705.443115234375 3198.548828125 300.9715881347656
v 1706.0570068359375 3177.76025390625 300.5901794433594
v 1706.3709716796875 3198.433837890625 300.5901794433594
v 1706.3709716796875 3198.433837890625 148.0572967529297
v 1706.0570068359375 3177.760009765625 148.05726623535156
v 1705.0643310546875 3173.607666015625 147.87646484375
v 1708.24365234375 3173.559326171875 147.87646484375
v 1708.24365234375 3173.559326171875 300.9715881347656
v 1705.0643310546875 3173.607666015625 300.9715881347656
v 1705.1337890625 3178.1796875 300.9715881347656
v 1705.1337890625 3178.1796875 147.87646484375
v 1708.31298828125 3178.13134765625 147.87646484375
v 1708.31298828125 3178.13134765625 300.9715881347656
v 1705.3623046875 3203.408935546875 147.85211181640625
v 1704.909423828125 3173.591064453125 147.85211181640625
v 1708.4256591796875 3173.537841796875 147.85211181640625
v 1708.8785400390625 3203.356201171875 147.85211181640625
v 1708.4256591796875 3173.537841796875 142.20912170410156
v 1708.8785400390625 3203.356201171875 142.20912170410156
v 1705.3623046875 3203.408935546875 142.2091522216797
v 1704.909423828125 3173.591064453125 142.20912170410156
v 1704.8203125 3173.0947265625 306.35980224609375
v 1700.08837890625 3202.5380859375 306.35980224609375
v 1696.616455078125 3201.980224609375 306.35980224609375
v 1701.348388671875 3172.53662109375 306.35980224609375
v 1696.616455078125 3201.980224609375 300.71685791015625
v 1701.348388671875 3172.53662109375 300.71685791015625
v 1704.8203125 3173.0947265625 300.7168884277344
v 1700.08837890625 3202.5380859375 300.71685791015625
v 1701.48291015625 3172.847900390625 147.87648010253906
v 1704.6221923828125 3173.352294921875 147.87649536132812
v 1704.6221923828125 3173.35205078125 300.9715881347656
v 1701.48291015625 3172.84765625 300.9715881347656
v 1700.75732421875 3177.3623046875 300.9715881347656
v 1700.75732421875 3177.3623046875 147.87648010253906
v 1703.8966064453125 3177.866943359375 147.87649536132812
v 1703.8966064453125 3177.866943359375 300.9715881347656
v 1699.6705322265625 3198.304931640625 300.5902099609375
v 1702.951416015625 3177.890869140625 300.5902099609375
v 1702.951416015625 3177.890869140625 148.0572967529297
v 1699.6705322265625 3198.304931640625 148.05726623535156
v 1699.97607421875 3202.2626953125 147.87648010253906
v 1696.8365478515625 3201.75830078125 147.87649536132812
v 1696.8365478515625 3201.75830078125 300.9715881347656
v 1699.97607421875 3202.2626953125 300.9715881347656
v 1700.7015380859375 3197.747802734375 300.9715881347656
v 1700.7015380859375 3197.747802734375 147.87648010253906
v 1697.5623779296875 3197.2431640625 147.87649536132812
v 1697.5623779296875 3197.2431640625 300.9715881347656
v 1704.8203125 3173.0947265625 147.85211181640625
v 1700.08837890625 3202.5380859375 147.85211181640625
v 1696.616455078125 3201.980224609375 147.85211181640625
v 1701.348388671875 3172.53662109375 147.85211181640625
v 1696.616455078125 3201.980224609375 142.20912170410156
v 1701.348388671875 3172.53662109375 142.20912170410156
v 1704.8203125 3173.0947265625 142.2091522216797
v 1700.08837890625 3202.5380859375 142.20912170410156
vt 0.327880859375 0.35302734375
vt 0.327880859375 0.43212890625
vt 0.318603515625 0.43212890625
vt 0.318603515625 0.43212890625
vt 0.318603515625 0.35302734375
vt 0.327880859375 0.35302734375
vt 0.3154296875 0.43212890625
vt 0.300537109375 0.43212890625
vt 0.300537109375 0.3525390625
vt 0.300537109375 0.3525390625
vt 0.3154296875 0.3525390625
vt 0.3154296875 0.43212890625
vt 0.27001953125 0.35205078125
vt 0.284912109375 0.35205078125
vt 0.284912109375 0.431640625
vt 0.284912109375 0.431640625
vt 0.27001953125 0.431640625
vt 0.27001953125 0.35205078125
vt 0.269775390625 0.34521484375
vt 0.269775390625 0.3359375
vt 0.284912109375 0.3359375
vt 0.284912109375 0.3359375
vt 0.284912109375 0.34521484375
vt 0.269775390625 0.34521484375
vt 0.2880859375 0.34521484375
vt 0.2880859375 0.3359375
vt 0.30322265625 0.3359375
vt 0.30322265625 0.3359375
vt 0.30322265625 0.34521484375
vt 0.2880859375 0.34521484375
vt 0.287841796875 0.3525390625
vt 0.29736328125 0.3525390625
vt 0.29736328125 0.43212890625
vt 0.29736328125 0.43212890625
vt 0.287841796875 0.43212890625
vt 0.287841796875 0.3525390625
vt 0.8583984375 0.9782562255859375
vt 0.8486328125 0.9782562255859375
vt 0.8486328125 0.57080078125
vt 0.8486328125 0.57080078125
vt 0.8583984375 0.57080078125
vt 0.8583984375 0.9782562255859375
vt 0.81201171875 0.5712890625
vt 0.81201171875 0.978668212890625
vt 0.7998046875 0.978668212890625
vt 0.7998046875 0.978668212890625
vt 0.7998046875 0.5712890625
vt 0.81201171875 0.5712890625
vt 0.84521484375 0.572021484375
vt 0.84521484375 0.979339599609375
vt 0.8330078125 0.979339599609375
vt 0.8330078125 0.979339599609375
vt 0.8330078125 0.572021484375
vt 0.84521484375 0.572021484375
vt 0.82763671875 0.980072021484375
vt 0.81787109375 0.980072021484375
vt 0.81787109375 0.57275390625
vt 0.81787109375 0.57275390625
vt 0.82763671875 0.57275390625
vt 0.82763671875 0.980072021484375
vt 0.377197265625 0.01123046875
vt 0.432373046875 0.01123046875
vt 0.432373046875 0.4169921875
vt 0.432373046875 0.4169921875
vt 0.377197265625 0.4169921875
vt 0.377197265625 0.01123046875
vt 0.8583984375 0.9782562255859375
vt 0.8486328125 0.9782562255859375
vt 0.8486328125 0.57080078125
vt 0.8486328125 0.57080078125
vt 0.8583984375 0.57080078125
vt 0.8583984375 0.9782562255859375
vt 0.81201171875 0.5712890625
vt 0.81201171875 0.978668212890625
vt 0.7998046875 0.978668212890625
vt 0.7998046875 0.978668212890625
vt 0.7998046875 0.5712890625
vt 0.81201171875 0.5712890625
vt 0.84521484375 0.572021484375
vt 0.84521484375 0.979339599609375
vt 0.8330078125 0.979339599609375
vt 0.8330078125 0.979339599609375
vt 0.8330078125 0.572021484375
vt 0.84521484375 0.572021484375
vt 0.82763671875 0.980072021484375
vt 0.81787109375 0.980072021484375
vt 0.81787109375 0.57275390625
vt 0.81787109375 0.57275390625
vt 0.82763671875 0.57275390625
vt 0.82763671875 0.980072021484375
vt 0.327880859375 0.35302734375
vt 0.327880859375 0.43212890625
vt 0.318603515625 0.43212890625
vt 0.318603515625 0.43212890625
vt 0.318603515625 0.35302734375
vt 0.327880859375 0.35302734375
vt 0.3154296875 0.43212890625
vt 0.300537109375 0.43212890625
vt 0.300537109375 0.3525390625
vt 0.300537109375 0.3525390625
vt 0.3154296875 0.3525390625
vt 0.3154296875 0.43212890625
vt 0.27001953125 0.35205078125
vt 0.284912109375 0.35205078125
vt 0.284912109375 0.431640625
vt 0.284912109375 0.431640625
vt 0.27001953125 0.431640625
vt 0.27001953125 0.35205078125
vt 0.269775390625 0.34521484375
vt 0.269775390625 0.3359375
vt 0.284912109375 0.3359375
vt 0.284912109375 0.3359375
vt 0.284912109375 0.34521484375
vt 0.269775390625 0.34521484375
vt 0.2880859375 0.34521484375
vt 0.2880859375 0.3359375
vt 0.30322265625 0.3359375
vt 0.30322265625 0.3359375
vt 0.30322265625 0.34521484375
vt 0.2880859375 0.34521484375
vt 0.287841796875 0.3525390625
vt 0.29736328125 0.3525390625
vt 0.29736328125 0.43212890625
vt 0.29736328125 0.43212890625
vt 0.287841796875 0.43212890625
vt 0.287841796875 0.3525390625
vt 0.327880859375 0.35302734375
vt 0.327880859375 0.43212890625
vt 0.318603515625 0.43212890625
vt 0.318603515625 0.43212890625
vt 0.318603515625 0.35302734375
vt 0.327880859375 0.35302734375
vt 0.3154296875 0.43212890625
vt 0.300537109375 0.43212890625
vt 0.300537109375 0.3525390625
vt 0.300537109375 0.3525390625
vt 0.3154296875 0.3525390625
vt 0.3154296875 0.43212890625
vt 0.27001953125 0.35205078125
vt 0.284912109375 0.35205078125
vt 0.284912109375 0.431640625
vt 0.284912109375 0.431640625
vt 0.27001953125 0.431640625
vt 0.27001953125 0.35205078125
vt 0.269775390625 0.34521484375
vt 0.269775390625 0.3359375
vt 0.284912109375 0.3359375
vt 0.284912109375 0.3359375
vt 0.284912109375 0.34521484375
vt 0.269775390625 0.34521484375
vt 0.2880859375 0.34521484375
vt 0.2880859375 0.3359375
vt 0.30322265625 0.3359375
vt 0.30322265625 0.3359375
vt 0.30322265625 0.34521484375
vt 0.2880859375 0.34521484375
vt 0.287841796875 0.3525390625
vt 0.29736328125 0.3525390625
vt 0.29736328125 0.43212890625
vt 0.29736328125 0.43212890625
vt 0.287841796875 0.43212890625
vt 0.287841796875 0.3525390625
vt 0.8583984375 0.9782562255859375
vt 0.8486328125 0.9782562255859375
vt 0.8486328125 0.57080078125
vt 0.8486328125 0.57080078125
vt 0.8583984375 0.57080078125
vt 0.8583984375 0.9782562255859375
vt 0.81201171875 0.5712890625
vt 0.81201171875 0.978668212890625
vt 0.7998046875 0.978668212890625
vt 0.7998046875 0.978668212890625
vt 0.7998046875 0.5712890625
vt 0.81201171875 0.5712890625
vt 0.84521484375 0.572021484375
vt 0.84521484375 0.979339599609375
vt 0.8330078125 0.979339599609375
vt 0.8330078125 0.979339599609375
vt 0.8330078125 0.572021484375
vt 0.84521484375 0.572021484375
vt 0.82763671875 0.980072021484375
vt 0.81787109375 0.980072021484375
vt 0.81787109375 0.57275390625
vt 0.81787109375 0.57275390625
vt 0.82763671875 0.57275390625
vt 0.82763671875 0.980072021484375
vt 0.377197265625 0.01123046875
vt 0.432373046875 0.01123046875
vt 0.432373046875 0.4169921875
vt 0.432373046875 0.4169921875
vt 0.377197265625 0.4169921875
vt 0.377197265625 0.01123046875
vt 0.8583984375 0.9782562255859375
vt 0.8486328125 0.9782562255859375
vt 0.8486328125 0.57080078125
vt 0.8486328125 0.57080078125
vt 0.8583984375 0.57080078125
vt 0.8583984375 0.9782562255859375
vt 0.81201171875 0.5712890625
vt 0.81201171875 0.978668212890625
vt 0.7998046875 0.978668212890625
vt 0.7998046875 0.978668212890625
vt 0.7998046875 0.5712890625
vt 0.81201171875 0.5712890625
vt 0.84521484375 0.572021484375
vt 0.84521484375 0.979339599609375
vt 0.8330078125 0.979339599609375
vt 0.8330078125 0.979339599609375
vt 0.8330078125 0.572021484375
vt 0.84521484375 0.572021484375
vt 0.82763671875 0.980072021484375
vt 0.81787109375 0.980072021484375
vt 0.81787109375 0.57275390625
vt 0.81787109375 0.57275390625
vt 0.82763671875 0.57275390625
vt 0.82763671875 0.980072021484375
vt 0.327880859375 0.35302734375
vt 0.327880859375 0.43212890625
vt 0.318603515625 0.43212890625
vt 0.318603515625 0.43212890625
vt 0.318603515625 0.35302734375
vt 0.327880859375 0.35302734375
vt 0.3154296875 0.43212890625
vt 0.300537109375 0.43212890625
vt 0.300537109375 0.3525390625
vt 0.300537109375 0.3525390625
vt 0.3154296875 0.3525390625
vt 0.3154296875 0.43212890625
vt 0.27001953125 0.35205078125
vt 0.284912109375 0.35205078125
vt 0.284912109375 0.431640625
vt 0.284912109375 0.431640625
vt 0.27001953125 0.431640625
vt 0.27001953125 0.35205078125
vt 0.269775390625 0.34521484375
vt 0.269775390625 0.3359375
vt 0.284912109375 0.3359375
vt 0.284912109375 0.3359375
vt 0.284912109375 0.34521484375
vt 0.269775390625 0.34521484375
vt 0.2880859375 0.34521484375
vt 0.2880859375 0.3359375
vt 0.30322265625 0.3359375
vt 0.30322265625 0.3359375
vt 0.30322265625 0.34521484375
vt 0.2880859375 0.34521484375
vt 0.287841796875 0.3525390625
vt 0.29736328125 0.3525390625
vt 0.29736328125 0.43212890625
vt 0.29736328125 0.43212890625
vt 0.287841796875 0.43212890625
vt 0.287841796875 0.3525390625
vn -0.5685575604438782 0.5859954953193665 0.5773659944534302
vn -0.5860382318496704 -0.5685322880744934 0.5773475766181946
vn 0.5685206055641174 -0.5860387086868286 0.5773584842681885
vn 0.5860023498535156 0.5685766935348511 0.577340304851532
vn 0.5685285329818726 -0.5860340595245361 -0.5773555040359497
vn 0.5859922170639038 0.5685809254646301 -0.5773463845252991
vn -0.5685677528381348 0.585991621017456 -0.5773599743843079
vn -0.5860303640365601 -0.5685366988182068 -0.5773512125015259
vn 0.7177087068557739 0.6963434219360352 0.0
vn -0.6963439583778381 0.7177081108093262 0.0
vn -0.6963444352149963 0.7177076935768127 0.0
vn 0.7177077531814575 0.6963444352149963 0.0
vn 0.6963177919387817 -0.7177336812019348 0.0
vn 0.6963167786598206 -0.7177345156669617 0.0
vn -0.7177351713180542 -0.6963161826133728 0.0
vn -0.7177348732948303 -0.6963165402412415 0.0
vn -0.9998846650123596 0.015184997580945492 -2.084167061155995e-09
vn -0.9998847246170044 0.01518501341342926 0.0
vn -0.9998847246170044 0.015184850431978703 -2.2220357109858924e-08
vn -0.9998847246170044 0.015184834599494934 -2.430448908796734e-08
vn -0.7177712321281433 -0.6962791085243225 0.0
vn 0.6962890625 -0.7177613973617554 0.0
vn 0.6962897777557373 -0.7177608609199524 0.0
vn -0.7177705764770508 -0.6962795853614807 0.0
vn -0.6962798833847046 0.7177704572677612 0.0
vn -0.6962794065475464 0.7177708745002747 0.0
vn 0.7177619338035583 0.6962885856628418 0.0
vn 0.7177615761756897 0.6962890028953552 0.0
vn -0.5685574412345886 0.5859955549240112 0.577366054058075
vn -0.5860382318496704 -0.5685322880744934 0.5773475766181946
vn 0.5685204267501831 -0.5860388278961182 0.577358603477478
vn 0.5860022902488708 0.5685766339302063 0.577340304851532
vn 0.5685284733772278 -0.5860340595245361 -0.5773555040359497
vn 0.5859919786453247 0.5685809850692749 -0.5773464441299438
vn -0.5685677528381348 0.5859915018081665 -0.5773599147796631
vn -0.5860302448272705 -0.5685368180274963 -0.5773512721061707
vn 0.6616463661193848 -0.47841620445251465 0.577357828617096
vn 0.4784339666366577 0.6616385579109192 0.5773520469665527
vn -0.66163170337677 0.47844070196151733 0.577354371547699
vn -0.47841325402259827 -0.6616566777229309 0.5773484110832214
vn -0.6616387367248535 0.478434681892395 -0.5773513317108154
vn -0.4784024655818939 -0.6616591215133667 -0.5773544311523438
vn 0.6616557836532593 -0.4784104526042938 -0.5773516893386841
vn 0.47842538356781006 0.6616414785385132 -0.5773557424545288
vn -0.5859614610671997 -0.8103390336036682 -1.1167088587171747e-06
vn 0.8103387951850891 -0.585961639881134 -9.344324780613533e-07
vn 0.8103383183479309 -0.5859623551368713 -1.109960635403695e-06
vn -0.5859605073928833 -0.810339629650116 -1.2922477026222623e-06
vn -0.8103622198104858 0.5859292149543762 -1.7553041686824145e-07
vn -0.8103649020195007 0.5859255194664001 0.0
vn 0.5859299898147583 0.8103616833686829 1.7553516329371632e-07
vn 0.5859335660934448 0.8103591799736023 0.0
vn 0.9873299598693848 0.15868055820465088 0.0
vn 0.9873300194740295 0.15868055820465088 0.0
vn 0.9873300194740295 0.15868058800697327 0.0
vn 0.9873300194740295 0.15868055820465088 0.0
vn 0.5859822034835815 0.81032395362854 0.0
vn -0.8103454113006592 0.5859525799751282 0.0
vn -0.8103475570678711 0.5859496593475342 0.0
vn 0.5859798789024353 0.8103256225585938 0.0
vn 0.8103531002998352 -0.5859418511390686 0.0
vn 0.8103541135787964 -0.5859405398368835 0.0
vn -0.5859123468399048 -0.8103744983673096 0.0
vn -0.5859132409095764 -0.8103737831115723 0.0
vn 0.6616465449333191 -0.4784160852432251 0.5773577094078064
vn 0.4784339964389801 0.6616385579109192 0.5773520469665527
vn -0.6616316437721252 0.4784407913684845 0.577354371547699
vn -0.4784131944179535 -0.6616566181182861 0.5773483514785767
vn -0.6616387367248535 0.478434681892395 -0.5773513317108154
vn -0.4784024655818939 -0.6616591811180115 -0.5773544907569885
vn 0.661655843257904 -0.47841042280197144 -0.5773517489433289
vn 0.47842562198638916 0.6616414785385132 -0.5773555636405945
f 1/1/1 2/2/2 3/3/3
f 3/4/3 4/5/4 1/6/1
f 3/7/3 5/8/5 6/9/6
f 6/10/6 4/11/4 3/12/3
f 1/13/1 7/14/7 8/15/8
f 8/16/8 2/17/2 1/18/1
f 1/19/1 4/20/4 6/21/6
f 6/22/6 7/23/7 1/24/1
f 3/25/3 2/26/2 8/27/8
f 8/28/8 5/29/5 3/30/3
f 7/31/7 6/32/6 5/33/5
f 5/34/5 8/35/8 7/36/7
f 9/37/9 10/38/10 11/39/11
f 11/40/11 12/41/12 9/42/9
f 9/43/9 12/44/12 13/45/13
f 13/46/13 14/47/14 9/48/9
f 11/49/11 10/50/10 15/51/15
f 15/52/15 16/53/16 11/54/11
f 15/55/15 14/56/14 13/57/13
f 13/58/13 16/59/16 15/60/15
f 17/61/17 18/62/18 19/63/19
f 19/64/19 20/65/20 17/66/17
f 21/67/21 22/68/22 23/69/23
f 23/70/23 24/71/24 21/72/21
f 21/73/21 24/74/24 25/75/25
f 25/76/25 26/77/26 21/78/21
f 23/79/23 22/80/22 27/81/27
f 27/82/27 28/83/28 23/84/23
f 27/85/27 26/86/26 25/87/25
f 25/88/25 28/89/28 27/90/27
f 29/91/29 30/92/30 31/93/31
f 31/94/31 32/95/32 29/96/29
f 31/97/31 33/98/33 34/99/34
f 34/100/34 32/101/32 31/102/31
f 29/103/29 35/104/35 36/105/36
f 36/106/36 30/107/30 29/108/29
f 29/109/29 32/110/32 34/111/34
f 34/112/34 35/113/35 29/114/29
f 31/115/31 30/116/30 36/117/36
f 36/118/36 33/119/33 31/120/31
f 35/121/35 34/122/34 33/123/33
f 33/124/33 36/125/36 35/126/35
f 37/127/37 38/128/38 39/129/39
f 39/130/39 40/131/40 37/132/37
f 39/133/39 41/134/41 42/135/42
f 42/136/42 40/137/40 39/138/39
f 37/139/37 43/140/43 44/141/44
f 44/142/44 38/143/38 37/144/37
f 37/145/37 40/146/40 42/147/42
f 42/148/42 43/149/43 37/150/37
f 39/151/39 38/152/38 44/153/44
f 44/154/44 41/155/41 39/156/39
f 43/157/43 42/158/42 41/159/41
f 41/160/41 44/161/44 43/162/43
f 45/163/45 46/164/46 47/165/47
f 47/166/47 48/167/48 45/168/45
f 45/169/45 48/170/48 49/171/49
f 49/172/49 50/173/50 45/174/45
f 47/175/47 46/176/46 51/177/51
f 51/178/51 52/179/52 47/180/47
f 51/181/51 50/182/50 49/183/49
f 49/184/49 52/185/52 51/186/51
f 53/187/53 54/188/54 55/189/55
f 55/190/55 56/191/56 53/192/53
f 57/193/57 58/194/58 59/195/59
f 59/196/59 60/197/60 57/198/57
f 57/199/57 60/200/60 61/201/61
f 61/202/61 62/203/62 57/204/57
f 59/205/59 58/206/58 63/207/63
f 63/208/63 64/209/64 59/210/59
f 63/211/63 62/212/62 61/213/61
f 61/214/61 64/215/64 63/216/63
f 65/217/65 66/218/66 67/219/67
f 67/220/67 68/221/68 65/222/65
f 67/223/67 69/224/69 70/225/70
f 70/226/70 68/227/68 67/228/67
f 65/229/65 71/230/71 72/231/72
f 72/232/72 66/233/66 65/234/65
f 65/235/65 68/236/68 70/237/70
f 70/238/70 71/239/71 65/240/65
f 67/241/67 66/242/66 72/243/72
f 72/244/72 69/245/69 67/246/67
f 71/247/71 70/248/70 69/249/69
f 69/250/69 72/251/72 71/252/71
