# Exported by Lightwave Blender addon
v -44.30339813232422 -45.54157638549805 248.43006896972656
v -43.759666442871094 -45.28000259399414 248.10182189941406
v -43.416114807128906 -45.994136810302734 248.43006896972656
v -44.06047821044922 -46.04655456542969 248.6621856689453
v -44.52861785888672 -45.64992904663086 249.22254943847656
v -43.27381896972656 -46.28995132446289 249.22254943847656
v -43.95985412597656 -46.2557258605957 249.22251892089844
v -43.416114807128906 -45.99414825439453 250.0150146484375
v -44.06047821044922 -46.046531677246094 249.7829132080078
v -43.759666442871094 -45.28000259399414 250.34326171875
v -44.30339813232422 -45.54158020019531 250.01502990722656
v -44.103214263916016 -44.56587219238281 250.0150146484375
v -44.546321868896484 -45.03660583496094 249.7829132080078
v -44.245513916015625 -44.27006912231445 249.22254943847656
v -44.64694595336914 -44.827449798583984 249.22251892089844
v -44.10321044921875 -44.56586837768555 248.43006896972656
v -44.546321868896484 -45.03661346435547 248.6621856689453
v -21.13031578063965 -92.31998443603516 248.43002319335938
v -20.78676986694336 -93.03414154052734 248.10177612304688
v -21.330503463745117 -93.29569244384766 248.4300079345703
v -21.573427200317383 -92.79073333740234 248.66212463378906
v -21.55572509765625 -93.40404510498047 249.2224884033203
v -21.272615432739258 -92.0241928100586 249.22250366210938
v -21.674049377441406 -92.5815658569336 249.2224884033203
v -21.130313873291016 -92.31999206542969 250.01498413085938
v -21.573427200317383 -92.79073333740234 249.7828826904297
v -20.786767959594727 -93.03412628173828 250.34323120117188
v -21.330501556396484 -93.29570007324219 250.0149688720703
v -20.443220138549805 -93.74827575683594 250.01498413085938
v -21.087575912475586 -93.8006820678711 249.78285217285156
v -20.300922393798828 -94.04407501220703 249.22250366210938
v -20.986955642700195 -94.00983428955078 249.2224884033203
v -20.443220138549805 -93.74825286865234 248.43002319335938
v -21.087575912475586 -93.8006820678711 248.66212463378906
v -43.41619873046875 -45.99404525756836 127.80081939697266
v -43.759742736816406 -45.279911041259766 128.1290740966797
v -44.30348205566406 -45.541481018066406 127.80081939697266
v -44.06055450439453 -46.04644775390625 127.5687026977539
v -44.52870178222656 -45.64982223510742 127.00834655761719
v -43.273902893066406 -46.28984069824219 127.00833892822266
v -43.959930419921875 -46.25560760498047 127.00833892822266
v -43.41619873046875 -45.994041442871094 126.21587371826172
v -44.06056213378906 -46.04644775390625 126.4479751586914
v -43.759742736816406 -45.27989959716797 125.88761138916016
v -44.30348205566406 -45.54147720336914 126.21587371826172
v -44.10329055786133 -44.565773010253906 126.21587371826172
v -44.54640579223633 -45.03650665283203 126.4479751586914
v -44.24559783935547 -44.26996612548828 127.00833892822266
v -44.64702606201172 -44.82733917236328 127.00833892822266
v -44.103294372558594 -44.565773010253906 127.80081939697266
v -44.54640579223633 -45.0365104675293 127.5687026977539
v -21.330583572387695 -93.29560852050781 127.8007583618164
v -20.786849975585938 -93.03404235839844 128.1290283203125
v -21.130395889282227 -92.31990051269531 127.8007583618164
v -21.57350730895996 -92.79063415527344 127.56865692138672
v -21.55580711364746 -93.40394592285156 127.00828552246094
v -21.27269744873047 -92.02409362792969 127.00829315185547
v -21.674131393432617 -92.58146667480469 127.00829315185547
v -21.130395889282227 -92.31990051269531 126.21581268310547
v -21.573509216308594 -92.79063415527344 126.44792938232422
v -20.78685188293457 -93.03402709960938 125.88756561279297
v -21.330583572387695 -93.29560852050781 126.21581268310547
v -20.443302154541016 -93.7481689453125 126.21581268310547
v -21.087657928466797 -93.80057525634766 126.44792938232422
v -20.301002502441406 -94.0439682006836 127.00829315185547
v -20.987035751342773 -94.00973510742188 127.00829315185547
v -20.443300247192383 -93.74817657470703 127.8007583618164
v -21.087657928466797 -93.80058288574219 127.56865692138672
vt 0.0 0.75
vt 0.0 0.375
vt 0.125 0.375
vt 0.125 0.375
vt 0.125 0.75
vt 0.0 0.75
vt 0.0 1.0
vt 0.0 0.75
vt 0.125 0.75
vt 0.125 0.75
vt 0.125 0.375
vt 0.25 0.375
vt 0.25 0.375
vt 0.25 0.75
vt 0.125 0.75
vt 0.125 1.0
vt 0.125 0.75
vt 0.25 0.75
vt 0.25 0.75
vt 0.25 0.375
vt 0.375 0.375
vt 0.375 0.375
vt 0.375 0.75
vt 0.25 0.75
vt 0.25 1.0
vt 0.25 0.75
vt 0.375 0.75
vt 0.375 0.75
vt 0.375 0.375
vt 0.5 0.375
vt 0.5 0.375
vt 0.5 0.75
vt 0.375 0.75
vt 0.375 1.0
vt 0.375 0.75
vt 0.5 0.75
vt 0.5 0.75
vt 0.5 0.375
vt 0.625 0.375
vt 0.625 0.375
vt 0.625 0.75
vt 0.5 0.75
vt 0.5 1.0
vt 0.5 0.75
vt 0.625 0.75
vt 0.625 0.75
vt 0.625 0.375
vt 0.75 0.375
vt 0.75 0.375
vt 0.75 0.75
vt 0.625 0.75
vt 0.625 1.0
vt 0.625 0.75
vt 0.75 0.75
vt 0.75 0.75
vt 0.75 0.375
vt 0.87451171875 0.375
vt 0.87451171875 0.375
vt 0.87451171875 0.75
vt 0.75 0.75
vt 0.75 1.0
vt 0.75 0.75
vt 0.87451171875 0.75
vt 0.87451171875 0.75
vt 0.87451171875 0.375
vt 0.99951171875 0.375
vt 0.99951171875 0.375
vt 0.99951171875 0.75
vt 0.87451171875 0.75
vt 0.87451171875 1.0
vt 0.87451171875 0.75
vt 0.99951171875 0.75
vt 0.125 0.375
vt 0.0 0.375
vt 0.0 0.75
vt 0.0 0.75
vt 0.125 0.75
vt 0.125 0.375
vt 0.0 1.0
vt 0.125 0.75
vt 0.0 0.75
vt 0.25 0.375
vt 0.125 0.375
vt 0.125 0.75
vt 0.125 0.75
vt 0.25 0.75
vt 0.25 0.375
vt 0.125 1.0
vt 0.25 0.75
vt 0.125 0.75
vt 0.375 0.375
vt 0.25 0.375
vt 0.25 0.75
vt 0.25 0.75
vt 0.375 0.75
vt 0.375 0.375
vt 0.25 1.0
vt 0.375 0.75
vt 0.25 0.75
vt 0.5 0.375
vt 0.375 0.375
vt 0.375 0.75
vt 0.375 0.75
vt 0.5 0.75
vt 0.5 0.375
vt 0.375 1.0
vt 0.5 0.75
vt 0.375 0.75
vt 0.625 0.375
vt 0.5 0.375
vt 0.5 0.75
vt 0.5 0.75
vt 0.625 0.75
vt 0.625 0.375
vt 0.5 1.0
vt 0.625 0.75
vt 0.5 0.75
vt 0.75 0.375
vt 0.625 0.375
vt 0.625 0.75
vt 0.625 0.75
vt 0.75 0.75
vt 0.75 0.375
vt 0.625 1.0
vt 0.75 0.75
vt 0.625 0.75
vt 0.87451171875 0.375
vt 0.75 0.375
vt 0.75 0.75
vt 0.75 0.75
vt 0.87451171875 0.75
vt 0.87451171875 0.375
vt 0.75 1.0
vt 0.87451171875 0.75
vt 0.75 0.75
vt 0.99951171875 0.375
vt 0.87451171875 0.375
vt 0.87451171875 0.75
vt 0.87451171875 0.75
vt 0.99951171875 0.75
vt 0.99951171875 0.375
vt 0.87451171875 1.0
vt 0.99951171875 0.75
vt 0.87451171875 0.75
vt 0.125 0.375
vt 0.0 0.375
vt 0.0 0.75
vt 0.0 0.75
vt 0.125 0.75
vt 0.125 0.375
vt 0.0 1.0
vt 0.125 0.75
vt 0.0 0.75
vt 0.25 0.375
vt 0.125 0.375
vt 0.125 0.75
vt 0.125 0.75
vt 0.25 0.75
vt 0.25 0.375
vt 0.125 1.0
vt 0.25 0.75
vt 0.125 0.75
vt 0.375 0.375
vt 0.25 0.375
vt 0.25 0.75
vt 0.25 0.75
vt 0.375 0.75
vt 0.375 0.375
vt 0.25 1.0
vt 0.375 0.75
vt 0.25 0.75
vt 0.5 0.375
vt 0.375 0.375
vt 0.375 0.75
vt 0.375 0.75
vt 0.5 0.75
vt 0.5 0.375
vt 0.375 1.0
vt 0.5 0.75
vt 0.375 0.75
vt 0.625 0.375
vt 0.5 0.375
vt 0.5 0.75
vt 0.5 0.75
vt 0.625 0.75
vt 0.625 0.375
vt 0.5 1.0
vt 0.625 0.75
vt 0.5 0.75
vt 0.75 0.375
vt 0.625 0.375
vt 0.625 0.75
vt 0.625 0.75
vt 0.75 0.75
vt 0.75 0.375
vt 0.625 1.0
vt 0.75 0.75
vt 0.625 0.75
vt 0.87451171875 0.375
vt 0.75 0.375
vt 0.75 0.75
vt 0.75 0.75
vt 0.87451171875 0.75
vt 0.87451171875 0.375
vt 0.75 1.0
vt 0.87451171875 0.75
vt 0.75 0.75
vt 0.99951171875 0.375
vt 0.87451171875 0.375
vt 0.87451171875 0.75
vt 0.87451171875 0.75
vt 0.99951171875 0.75
vt 0.99951171875 0.375
vt 0.87451171875 1.0
vt 0.99951171875 0.75
vt 0.87451171875 0.75
vt 0.0 0.75
vt 0.0 0.375
vt 0.125 0.375
vt 0.125 0.375
vt 0.125 0.75
vt 0.0 0.75
vt 0.0 1.0
vt 0.0 0.75
vt 0.125 0.75
vt 0.125 0.75
vt 0.125 0.375
vt 0.25 0.375
vt 0.25 0.375
vt 0.25 0.75
vt 0.125 0.75
vt 0.125 1.0
vt 0.125 0.75
vt 0.25 0.75
vt 0.25 0.75
vt 0.25 0.375
vt 0.375 0.375
vt 0.375 0.375
vt 0.375 0.75
vt 0.25 0.75
vt 0.25 1.0
vt 0.25 0.75
vt 0.375 0.75
vt 0.375 0.75
vt 0.375 0.375
vt 0.5 0.375
vt 0.5 0.375
vt 0.5 0.75
vt 0.375 0.75
vt 0.375 1.0
vt 0.375 0.75
vt 0.5 0.75
vt 0.5 0.75
vt 0.5 0.375
vt 0.625 0.375
vt 0.625 0.375
vt 0.625 0.75
vt 0.5 0.75
vt 0.5 1.0
vt 0.5 0.75
vt 0.625 0.75
vt 0.625 0.75
vt 0.625 0.375
vt 0.75 0.375
vt 0.75 0.375
vt 0.75 0.75
vt 0.625 0.75
vt 0.625 1.0
vt 0.625 0.75
vt 0.75 0.75
vt 0.75 0.75
vt 0.75 0.375
vt 0.87451171875 0.375
vt 0.87451171875 0.375
vt 0.87451171875 0.75
vt 0.75 0.75
vt 0.75 1.0
vt 0.75 0.75
vt 0.87451171875 0.75
vt 0.87451171875 0.75
vt 0.87451171875 0.375
vt 0.99951171875 0.375
vt 0.99951171875 0.375
vt 0.99951171875 0.75
vt 0.87451171875 0.75
vt 0.87451171875 1.0
vt 0.87451171875 0.75
vt 0.99951171875 0.75
vn -0.6565856337547302 -0.3158585727214813 -0.6849296689033508
vn -0.43064624071121216 -0.20715701580047607 -0.8784245848655701
vn -0.16136924922466278 -0.7668952941894531 -0.6211534142494202
vn -0.4466317892074585 -0.7523004412651062 -0.4843181073665619
vn -0.9011480212211609 -0.4335114359855652 3.3635631098150043e-06
vn -0.049831245094537735 -0.9987576603889465 -7.351467957050772e-06
vn -0.359664648771286 -0.9330816268920898 -7.53975473344326e-06
vn -0.16138125956058502 -0.7669094204902649 0.6211328506469727
vn -0.4466387629508972 -0.7522897720336914 0.4843284785747528
vn -0.43062353134155273 -0.2071717083454132 0.8784322738647461
vn -0.6565767526626587 -0.31586530804634094 0.6849350929260254
vn -0.6999065279960632 0.35257136821746826 0.6211475133895874
vn -0.8665465116500854 0.1205856129527092 0.4843099117279053
vn -0.8114492297172546 0.584422767162323 1.3273795957502443e-05
vn -0.9535140991210938 0.301348477602005 -2.29918587137945e-05
vn -0.6999191045761108 0.3525693714618683 -0.6211345195770264
vn -0.8665439486503601 0.12056604772806168 -0.4843195378780365
vn -0.6999111771583557 0.35257571935653687 -0.6211397051811218
vn -0.4306163191795349 -0.2071760892868042 -0.8784347176551819
vn -0.6565859913825989 -0.31584927439689636 -0.6849336624145508
vn -0.8665463924407959 0.12058217823505402 -0.4843112528324127
vn -0.9011481404304504 -0.4335111677646637 -1.975467057491187e-06
vn -0.8114499449729919 0.5844219923019409 -4.390273716126103e-06
vn -0.9535103440284729 0.30136021971702576 -5.374956344894599e-06
vn -0.6999154686927795 0.35258135199546814 0.6211318969726562
vn -0.8665423393249512 0.12057293951511383 0.48432084918022156
vn -0.43065083026885986 -0.20716266334056854 0.8784209489822388
vn -0.6565880179405212 -0.3158782720565796 0.684918224811554
vn -0.16139274835586548 -0.7668991088867188 0.621142566204071
vn -0.44664010405540466 -0.7523080706596375 0.48429858684539795
vn -0.04984607174992561 -0.9987569451332092 -2.561014071034151e-06
vn -0.35966724157333374 -0.9330806732177734 -1.479654383729212e-05
vn -0.16134759783744812 -0.7669111490249634 -0.6211394667625427
vn -0.44661760330200195 -0.7523096799850464 -0.4843168556690216
vn -0.16138045489788055 -0.766906201839447 0.6211370229721069
vn -0.4306488633155823 -0.20716224610805511 0.8784220218658447
vn -0.6565881967544556 -0.315865159034729 0.6849240660667419
vn -0.4466305673122406 -0.752311646938324 0.4843018651008606
vn -0.9011474251747131 -0.4335125982761383 2.266521278215805e-06
vn -0.0498393252491951 -0.9987571835517883 4.321687356423354e-06
vn -0.35966092348098755 -0.9330830574035645 -3.249822384532308e-06
vn -0.16136187314987183 -0.7669144868850708 -0.6211316585540771
vn -0.4466337263584137 -0.7523009181022644 -0.4843156635761261
vn -0.4306446313858032 -0.20717105269432068 -0.8784220814704895
vn -0.6565937995910645 -0.31585514545440674 -0.6849234104156494
vn -0.6999054551124573 0.3525668680667877 -0.621151328086853
vn -0.8665416240692139 0.12057911604642868 -0.48432040214538574
vn -0.811450183391571 0.584421694278717 -1.112443260353757e-05
vn -0.9535111784934998 0.30135753750801086 3.6341671147965826e-06
vn -0.6999200582504272 0.3525691330432892 0.6211334466934204
vn -0.8665459752082825 0.12057438492774963 0.4843139350414276
vn -0.6566006541252136 -0.31585538387298584 0.6849167346954346
vn -0.43065398931503296 -0.20717822015285492 0.8784157633781433
vn -0.6999111175537109 0.35256704688072205 0.6211447715759277
vn -0.8665408492088318 0.1205795407295227 0.4843217432498932
vn -0.9011483192443848 -0.43351083993911743 -2.246767508040648e-06
vn -0.8114476799964905 0.584425151348114 1.0930072676273994e-05
vn -0.9535104632377625 0.30135980248451233 -1.0992976058332715e-06
vn -0.6999175548553467 0.3525719940662384 -0.6211348176002502
vn -0.8665443658828735 0.12057697027921677 -0.4843160808086395
vn -0.4306451678276062 -0.20715221762657166 -0.8784263134002686
vn -0.6565850377082825 -0.3158654570579529 -0.6849271655082703
vn -0.16137559711933136 -0.7669028639793396 -0.6211423873901367
vn -0.4466298520565033 -0.7523110508918762 -0.4843035042285919
vn -0.049837954342365265 -0.9987573027610779 -9.603762919141445e-06
vn -0.3596636652946472 -0.9330820441246033 1.1303726843436834e-08
vn -0.1613600254058838 -0.7669223546981812 0.6211224794387817
vn -0.44663137197494507 -0.7523057460784912 0.4843103289604187
f 1/1/1 2/2/2 3/3/3
f 3/4/3 4/5/4 1/6/1
f 5/7/5 1/8/1 4/9/4
f 4/10/4 3/11/3 6/12/6
f 6/13/6 7/14/7 4/15/4
f 5/16/5 4/17/4 7/18/7
f 7/19/7 6/20/6 8/21/8
f 8/22/8 9/23/9 7/24/7
f 5/25/5 7/26/7 9/27/9
f 9/28/9 8/29/8 10/30/10
f 10/31/10 11/32/11 9/33/9
f 5/34/5 9/35/9 11/36/11
f 11/37/11 10/38/10 12/39/12
f 12/40/12 13/41/13 11/42/11
f 5/43/5 11/44/11 13/45/13
f 13/46/13 12/47/12 14/48/14
f 14/49/14 15/50/15 13/51/13
f 5/52/5 13/53/13 15/54/15
f 15/55/15 14/56/14 16/57/16
f 16/58/16 17/59/17 15/60/15
f 5/61/5 15/62/15 17/63/17
f 17/64/17 16/65/16 2/66/2
f 2/67/2 1/68/1 17/69/17
f 5/70/5 17/71/17 1/72/1
f 18/73/18 19/74/19 20/75/20
f 20/76/20 21/77/21 18/78/18
f 22/79/22 21/80/21 20/81/20
f 23/82/23 18/83/18 21/84/21
f 21/85/21 24/86/24 23/87/23
f 22/88/22 24/89/24 21/90/21
f 25/91/25 23/92/23 24/93/24
f 24/94/24 26/95/26 25/96/25
f 22/97/22 26/98/26 24/99/24
f 27/100/27 25/101/25 26/102/26
f 26/103/26 28/104/28 27/105/27
f 22/106/22 28/107/28 26/108/26
f 29/109/29 27/110/27 28/111/28
f 28/112/28 30/113/30 29/114/29
f 22/115/22 30/116/30 28/117/28
f 31/118/31 29/119/29 30/120/30
f 30/121/30 32/122/32 31/123/31
f 22/124/22 32/125/32 30/126/30
f 33/127/33 31/128/31 32/129/32
f 32/130/32 34/131/34 33/132/33
f 22/133/22 34/134/34 32/135/32
f 19/136/19 33/137/33 34/138/34
f 34/139/34 20/140/20 19/141/19
f 22/142/22 20/143/20 34/144/34
f 35/145/35 36/146/36 37/147/37
f 37/148/37 38/149/38 35/150/35
f 39/151/39 38/152/38 37/153/37
f 40/154/40 35/155/35 38/156/38
f 38/157/38 41/158/41 40/159/40
f 39/160/39 41/161/41 38/162/38
f 42/163/42 40/164/40 41/165/41
f 41/166/41 43/167/43 42/168/42
f 39/169/39 43/170/43 41/171/41
f 44/172/44 42/173/42 43/174/43
f 43/175/43 45/176/45 44/177/44
f 39/178/39 45/179/45 43/180/43
f 46/181/46 44/182/44 45/183/45
f 45/184/45 47/185/47 46/186/46
f 39/187/39 47/188/47 45/189/45
f 48/190/48 46/191/46 47/192/47
f 47/193/47 49/194/49 48/195/48
f 39/196/39 49/197/49 47/198/47
f 50/199/50 48/200/48 49/201/49
f 49/202/49 51/203/51 50/204/50
f 39/205/39 51/206/51 49/207/49
f 36/208/36 50/209/50 51/210/51
f 51/211/51 37/212/37 36/213/36
f 39/214/39 37/215/37 51/216/51
f 52/217/52 53/218/53 54/219/54
f 54/220/54 55/221/55 52/222/52
f 56/223/56 52/224/52 55/225/55
f 55/226/55 54/227/54 57/228/57
f 57/229/57 58/230/58 55/231/55
f 56/232/56 55/233/55 58/234/58
f 58/235/58 57/236/57 59/237/59
f 59/238/59 60/239/60 58/240/58
f 56/241/56 58/242/58 60/243/60
f 60/244/60 59/245/59 61/246/61
f 61/247/61 62/248/62 60/249/60
f 56/250/56 60/251/60 62/252/62
f 62/253/62 61/254/61 63/255/63
f 63/256/63 64/257/64 62/258/62
f 56/259/56 62/260/62 64/261/64
f 64/262/64 63/263/63 65/264/65
f 65/265/65 66/266/66 64/267/64
f 56/268/56 64/269/64 66/270/66
f 66/271/66 65/272/65 67/273/67
f 67/274/67 68/275/68 66/276/66
f 56/277/56 66/278/66 68/279/68
f 68/280/68 67/281/67 53/282/53
f 53/283/53 52/284/52 68/285/68
f 56/286/56 68/287/68 52/288/52
