# Exported by Lightwave Blender addon
v 2581.417236328125 -1144.152587890625 145.6589813232422
v 2581.806884765625 -1143.25927734375 145.71575927734375
v 2581.83056640625 -1143.209228515625 170.1257781982422
v 2581.441650390625 -1144.09130859375 170.266845703125
v 2582.07421875 -1142.6416015625 171.88755798339844
v 2581.739013671875 -1143.3902587890625 172.4147186279297
v 2582.578125 -1141.45947265625 173.17227172851562
v 2582.361572265625 -1141.931396484375 174.00074768066406
v 2583.26513671875 -1139.849365234375 173.7904510498047
v 2583.208251953125 -1139.9453125 174.76351928710938
v 2584.00341796875 -1138.11767578125 173.57733154296875
v 2584.117431640625 -1137.8134765625 174.5006561279297
v 2584.608642578125 -1136.69873046875 172.6004638671875
v 2584.86474609375 -1136.0621337890625 173.2952117919922
v 2584.9921875 -1135.80078125 171.05935668945312
v 2585.33740234375 -1134.952392578125 171.38973999023438
v 2585.09375 -1135.5521240234375 169.63194274902344
v 2585.468994140625 -1134.6529541015625 169.688720703125
v 2579.47607421875 -1142.2652587890625 145.71575927734375
v 2579.49609375 -1142.213623046875 170.1257781982422
v 2579.73681640625 -1141.6446533203125 171.88755798339844
v 2580.2412109375 -1140.4627685546875 173.1722869873047
v 2580.927734375 -1138.8524169921875 173.7904510498047
v 2581.666259765625 -1137.1209716796875 173.57733154296875
v 2582.271728515625 -1135.7021484375 172.6004638671875
v 2579.428466796875 -1142.4049072265625 172.41470336914062
v 2580.05078125 -1140.9459228515625 174.00074768066406
v 2580.897705078125 -1138.9599609375 174.76351928710938
v 2581.806884765625 -1136.8280029296875 174.50064086914062
v 2582.553955078125 -1135.07666015625 173.2952117919922
v 2583.02734375 -1133.9671630859375 171.38973999023438
v 2583.152587890625 -1133.6649169921875 169.688720703125
v 2541.2802734375 -1127.985107421875 145.65899658203125
v 2541.669677734375 -1127.091796875 145.7157745361328
v 2541.693359375 -1127.04150390625 170.1257781982422
v 2541.304443359375 -1127.923583984375 170.266845703125
v 2541.93701171875 -1126.4739990234375 171.88755798339844
v 2541.601806640625 -1127.2225341796875 172.41470336914062
v 2542.441162109375 -1125.2918701171875 173.1722869873047
v 2542.224365234375 -1125.763916015625 174.00074768066406
v 2543.1279296875 -1123.6817626953125 173.79046630859375
v 2543.071044921875 -1123.7777099609375 174.76351928710938
v 2543.8662109375 -1121.9501953125 173.57733154296875
v 2543.980224609375 -1121.645751953125 174.5006561279297
v 2544.471435546875 -1120.5311279296875 172.6004638671875
v 2544.727294921875 -1119.8944091796875 173.2952117919922
v 2544.85498046875 -1119.6331787109375 171.05935668945312
v 2545.2001953125 -1118.7847900390625 171.38973999023438
v 2544.956787109375 -1119.3846435546875 169.6319580078125
v 2545.331787109375 -1118.4853515625 169.688720703125
v 2539.3388671875 -1126.09765625 145.71575927734375
v 2539.359130859375 -1126.0458984375 170.1257781982422
v 2539.599609375 -1125.47705078125 171.88755798339844
v 2540.10400390625 -1124.2952880859375 173.17227172851562
v 2540.79052734375 -1122.68505859375 173.7904510498047
v 2541.529052734375 -1120.953369140625 173.57733154296875
v 2542.13427734375 -1119.534423828125 172.60044860839844
v 2539.29150390625 -1126.2371826171875 172.4147186279297
v 2539.91357421875 -1124.7783203125 174.00074768066406
v 2540.7607421875 -1122.7923583984375 174.76351928710938
v 2541.669677734375 -1120.6602783203125 174.50064086914062
v 2542.41650390625 -1118.9090576171875 173.2952117919922
v 2542.89013671875 -1117.7994384765625 171.38973999023438
v 2543.015380859375 -1117.497314453125 169.688720703125
v 2579.100830078125 -1143.164794921875 145.6589813232422
v 2579.12841796875 -1143.1046142578125 170.266845703125
v 2582.654052734375 -1134.8037109375 171.05935668945312
v 2582.76318359375 -1134.5582275390625 169.63194274902344
v 2538.963623046875 -1126.9971923828125 145.65899658203125
v 2538.991455078125 -1126.93701171875 170.266845703125
v 2542.516845703125 -1118.6361083984375 171.05935668945312
v 2542.6259765625 -1118.3907470703125 169.6319580078125
vt 0.25146484375 0.1787109375
vt 0.2498779296875 0.18212890625
vt 0.157958984375 0.1494140625
vt 0.157958984375 0.1494140625
vt 0.15869140625 0.1455078125
vt 0.25146484375 0.1787109375
vt 0.15869140625 0.1455078125
vt 0.157958984375 0.1494140625
vt 0.150390625 0.1494140625
vt 0.150390625 0.1494140625
vt 0.1495361328125 0.1455078125
vt 0.15869140625 0.1455078125
vt 0.1495361328125 0.1455078125
vt 0.150390625 0.1494140625
vt 0.143798828125 0.15234375
vt 0.143798828125 0.15234375
vt 0.141357421875 0.1494140625
vt 0.1495361328125 0.1455078125
vt 0.141357421875 0.1494140625
vt 0.143798828125 0.15234375
vt 0.1390380859375 0.15869140625
vt 0.1390380859375 0.15869140625
vt 0.135498046875 0.15673828125
vt 0.141357421875 0.1494140625
vt 0.135498046875 0.15673828125
vt 0.1390380859375 0.15869140625
vt 0.13720703125 0.166015625
vt 0.13720703125 0.166015625
vt 0.13330078125 0.166015625
vt 0.135498046875 0.15673828125
vt 0.13330078125 0.166015625
vt 0.13720703125 0.166015625
vt 0.138671875 0.17333984375
vt 0.138671875 0.17333984375
vt 0.1351318359375 0.17529296875
vt 0.13330078125 0.166015625
vt 0.1351318359375 0.17529296875
vt 0.138671875 0.17333984375
vt 0.1431884765625 0.17919921875
vt 0.1431884765625 0.17919921875
vt 0.140625 0.18212890625
vt 0.1351318359375 0.17529296875
vt 0.140625 0.18212890625
vt 0.1431884765625 0.17919921875
vt 0.148193359375 0.18212890625
vt 0.148193359375 0.18212890625
vt 0.1466064453125 0.18603515625
vt 0.140625 0.18212890625
vt 0.57080078125 0.8609619140625
vt 0.57080078125 0.853271484375
vt 0.70361328125 0.853271484375
vt 0.70361328125 0.853271484375
vt 0.70361328125 0.8609619140625
vt 0.57080078125 0.8609619140625
vt 0.70361328125 0.8609619140625
vt 0.70361328125 0.853271484375
vt 0.71337890625 0.8531494140625
vt 0.71337890625 0.8531494140625
vt 0.71337890625 0.8609619140625
vt 0.70361328125 0.8609619140625
vt 0.10223388671875 0.93475341796875
vt 0.10223388671875 0.9266357421875
vt 0.10833740234375 0.9266357421875
vt 0.10833740234375 0.9266357421875
vt 0.10833740234375 0.93475341796875
vt 0.10223388671875 0.93475341796875
vt 0.10833740234375 0.93475341796875
vt 0.10833740234375 0.9266357421875
vt 0.11865234375 0.9266357421875
vt 0.11865234375 0.9266357421875
vt 0.11865234375 0.93475341796875
vt 0.10833740234375 0.93475341796875
vt 0.11865234375 0.93475341796875
vt 0.11865234375 0.9266357421875
vt 0.1297607421875 0.9266357421875
vt 0.1297607421875 0.9266357421875
vt 0.1297607421875 0.93475341796875
vt 0.11865234375 0.93475341796875
vt 0.1297607421875 0.93475341796875
vt 0.1297607421875 0.9266357421875
vt 0.1387939453125 0.9266357421875
vt 0.1387939453125 0.9266357421875
vt 0.1387939453125 0.93475341796875
vt 0.1297607421875 0.93475341796875
vt 0.80517578125 0.611328125
vt 0.79736328125 0.611328125
vt 0.79736328125 0.603759765625
vt 0.79736328125 0.603759765625
vt 0.80517578125 0.603759765625
vt 0.80517578125 0.611328125
vt 0.80517578125 0.603759765625
vt 0.79736328125 0.603759765625
vt 0.79736328125 0.591064453125
vt 0.79736328125 0.591064453125
vt 0.80517578125 0.591064453125
vt 0.80517578125 0.603759765625
vt 0.80517578125 0.591064453125
vt 0.79736328125 0.591064453125
vt 0.79736328125 0.577392578125
vt 0.79736328125 0.577392578125
vt 0.80517578125 0.577392578125
vt 0.80517578125 0.591064453125
vt 0.80517578125 0.577392578125
vt 0.79736328125 0.577392578125
vt 0.79736328125 0.566162109375
vt 0.79736328125 0.566162109375
vt 0.80517578125 0.566162109375
vt 0.80517578125 0.577392578125
vt 0.10223388671875 0.2021484375
vt 0.10223388671875 0.19384765625
vt 0.1107177734375 0.19384765625
vt 0.1107177734375 0.19384765625
vt 0.1107177734375 0.2021484375
vt 0.10223388671875 0.2021484375
vt 0.1107177734375 0.2021484375
vt 0.1107177734375 0.19384765625
vt 0.12030029296875 0.19384765625
vt 0.12030029296875 0.19384765625
vt 0.12030029296875 0.2021484375
vt 0.1107177734375 0.2021484375
vt 0.25146484375 0.1787109375
vt 0.2498779296875 0.18212890625
vt 0.157958984375 0.1494140625
vt 0.157958984375 0.1494140625
vt 0.15869140625 0.1455078125
vt 0.25146484375 0.1787109375
vt 0.15869140625 0.1455078125
vt 0.157958984375 0.1494140625
vt 0.150390625 0.1494140625
vt 0.150390625 0.1494140625
vt 0.1495361328125 0.1455078125
vt 0.15869140625 0.1455078125
vt 0.1495361328125 0.1455078125
vt 0.150390625 0.1494140625
vt 0.143798828125 0.15234375
vt 0.143798828125 0.15234375
vt 0.141357421875 0.1494140625
vt 0.1495361328125 0.1455078125
vt 0.141357421875 0.1494140625
vt 0.143798828125 0.15234375
vt 0.1390380859375 0.15869140625
vt 0.1390380859375 0.15869140625
vt 0.135498046875 0.15673828125
vt 0.141357421875 0.1494140625
vt 0.135498046875 0.15673828125
vt 0.1390380859375 0.15869140625
vt 0.13720703125 0.166015625
vt 0.13720703125 0.166015625
vt 0.13330078125 0.166015625
vt 0.135498046875 0.15673828125
vt 0.13330078125 0.166015625
vt 0.13720703125 0.166015625
vt 0.138671875 0.17333984375
vt 0.138671875 0.17333984375
vt 0.1351318359375 0.17529296875
vt 0.13330078125 0.166015625
vt 0.1351318359375 0.17529296875
vt 0.138671875 0.17333984375
vt 0.1431884765625 0.17919921875
vt 0.1431884765625 0.17919921875
vt 0.140625 0.18212890625
vt 0.1351318359375 0.17529296875
vt 0.140625 0.18212890625
vt 0.1431884765625 0.17919921875
vt 0.148193359375 0.18212890625
vt 0.148193359375 0.18212890625
vt 0.1466064453125 0.18603515625
vt 0.140625 0.18212890625
vt 0.57080078125 0.8609619140625
vt 0.57080078125 0.853271484375
vt 0.70361328125 0.853271484375
vt 0.70361328125 0.853271484375
vt 0.70361328125 0.8609619140625
vt 0.57080078125 0.8609619140625
vt 0.70361328125 0.8609619140625
vt 0.70361328125 0.853271484375
vt 0.71337890625 0.8531494140625
vt 0.71337890625 0.8531494140625
vt 0.71337890625 0.8609619140625
vt 0.70361328125 0.8609619140625
vt 0.10223388671875 0.93475341796875
vt 0.10223388671875 0.9266357421875
vt 0.10833740234375 0.9266357421875
vt 0.10833740234375 0.9266357421875
vt 0.10833740234375 0.93475341796875
vt 0.10223388671875 0.93475341796875
vt 0.10833740234375 0.93475341796875
vt 0.10833740234375 0.9266357421875
vt 0.11865234375 0.9266357421875
vt 0.11865234375 0.9266357421875
vt 0.11865234375 0.93475341796875
vt 0.10833740234375 0.93475341796875
vt 0.11865234375 0.93475341796875
vt 0.11865234375 0.9266357421875
vt 0.1297607421875 0.9266357421875
vt 0.1297607421875 0.9266357421875
vt 0.1297607421875 0.93475341796875
vt 0.11865234375 0.93475341796875
vt 0.1297607421875 0.93475341796875
vt 0.1297607421875 0.9266357421875
vt 0.1387939453125 0.9266357421875
vt 0.1387939453125 0.9266357421875
vt 0.1387939453125 0.93475341796875
vt 0.1297607421875 0.93475341796875
vt 0.80517578125 0.611328125
vt 0.79736328125 0.611328125
vt 0.79736328125 0.603759765625
vt 0.79736328125 0.603759765625
vt 0.80517578125 0.603759765625
vt 0.80517578125 0.611328125
vt 0.80517578125 0.603759765625
vt 0.79736328125 0.603759765625
vt 0.79736328125 0.591064453125
vt 0.79736328125 0.591064453125
vt 0.80517578125 0.591064453125
vt 0.80517578125 0.603759765625
vt 0.80517578125 0.591064453125
vt 0.79736328125 0.591064453125
vt 0.79736328125 0.577392578125
vt 0.79736328125 0.577392578125
vt 0.80517578125 0.577392578125
vt 0.80517578125 0.591064453125
vt 0.80517578125 0.577392578125
vt 0.79736328125 0.577392578125
vt 0.79736328125 0.566162109375
vt 0.79736328125 0.566162109375
vt 0.80517578125 0.566162109375
vt 0.80517578125 0.577392578125
vt 0.10223388671875 0.2021484375
vt 0.10223388671875 0.19384765625
vt 0.1107177734375 0.19384765625
vt 0.1107177734375 0.19384765625
vt 0.1107177734375 0.2021484375
vt 0.10223388671875 0.2021484375
vt 0.1107177734375 0.2021484375
vt 0.1107177734375 0.19384765625
vt 0.12030029296875 0.19384765625
vt 0.12030029296875 0.19384765625
vt 0.12030029296875 0.2021484375
vt 0.1107177734375 0.2021484375
vt 0.8359375 0.524169921875
vt 0.7451171875 0.560546875
vt 0.74365234375 0.556884765625
vt 0.74365234375 0.556884765625
vt 0.8349609375 0.520263671875
vt 0.8359375 0.524169921875
vt 0.84326171875 0.52392578125
vt 0.8359375 0.524169921875
vt 0.8349609375 0.520263671875
vt 0.8349609375 0.520263671875
vt 0.84423828125 0.52001953125
vt 0.84326171875 0.52392578125
vt 0.85009765625 0.52685546875
vt 0.84326171875 0.52392578125
vt 0.84423828125 0.52001953125
vt 0.84423828125 0.52001953125
vt 0.8525390625 0.523681640625
vt 0.85009765625 0.52685546875
vt 0.85498046875 0.53271484375
vt 0.85009765625 0.52685546875
vt 0.8525390625 0.523681640625
vt 0.8525390625 0.523681640625
vt 0.85888671875 0.53076171875
vt 0.85498046875 0.53271484375
vt 0.857421875 0.540283203125
vt 0.85498046875 0.53271484375
vt 0.85888671875 0.53076171875
vt 0.85888671875 0.53076171875
vt 0.861328125 0.5400390625
vt 0.857421875 0.540283203125
vt 0.85595703125 0.547607421875
vt 0.857421875 0.540283203125
vt 0.861328125 0.5400390625
vt 0.861328125 0.5400390625
vt 0.85986328125 0.549072265625
vt 0.85595703125 0.547607421875
vt 0.85205078125 0.553466796875
vt 0.85595703125 0.547607421875
vt 0.85986328125 0.549072265625
vt 0.85986328125 0.549072265625
vt 0.8544921875 0.556640625
vt 0.85205078125 0.553466796875
vt 0.84716796875 0.556640625
vt 0.85205078125 0.553466796875
vt 0.8544921875 0.556640625
vt 0.8544921875 0.556640625
vt 0.8486328125 0.560302734375
vt 0.84716796875 0.556640625
vt 0.8359375 0.524169921875
vt 0.7451171875 0.560546875
vt 0.74365234375 0.556884765625
vt 0.74365234375 0.556884765625
vt 0.8349609375 0.520263671875
vt 0.8359375 0.524169921875
vt 0.84326171875 0.52392578125
vt 0.8359375 0.524169921875
vt 0.8349609375 0.520263671875
vt 0.8349609375 0.520263671875
vt 0.84423828125 0.52001953125
vt 0.84326171875 0.52392578125
vt 0.85009765625 0.52685546875
vt 0.84326171875 0.52392578125
vt 0.84423828125 0.52001953125
vt 0.84423828125 0.52001953125
vt 0.8525390625 0.523681640625
vt 0.85009765625 0.52685546875
vt 0.85498046875 0.53271484375
vt 0.85009765625 0.52685546875
vt 0.8525390625 0.523681640625
vt 0.8525390625 0.523681640625
vt 0.85888671875 0.53076171875
vt 0.85498046875 0.53271484375
vt 0.857421875 0.540283203125
vt 0.85498046875 0.53271484375
vt 0.85888671875 0.53076171875
vt 0.85888671875 0.53076171875
vt 0.861328125 0.5400390625
vt 0.857421875 0.540283203125
vt 0.85595703125 0.547607421875
vt 0.857421875 0.540283203125
vt 0.861328125 0.5400390625
vt 0.861328125 0.5400390625
vt 0.85986328125 0.549072265625
vt 0.85595703125 0.547607421875
vt 0.85205078125 0.553466796875
vt 0.85595703125 0.547607421875
vt 0.85986328125 0.549072265625
vt 0.85986328125 0.549072265625
vt 0.8544921875 0.556640625
vt 0.85205078125 0.553466796875
vt 0.84716796875 0.556640625
vt 0.85205078125 0.553466796875
vt 0.8544921875 0.556640625
vt 0.8544921875 0.556640625
vt 0.8486328125 0.560302734375
vt 0.84716796875 0.556640625
vt 0.209716796875 0.77978515625
vt 0.34375 0.77978515625
vt 0.34375 0.7874755859375
vt 0.34375 0.7874755859375
vt 0.209716796875 0.7874755859375
vt 0.209716796875 0.77978515625
vt 0.209716796875 0.77978515625
vt 0.209716796875 0.7874755859375
vt 0.197998046875 0.7874755859375
vt 0.197998046875 0.7874755859375
vt 0.197998046875 0.77978515625
vt 0.209716796875 0.77978515625
vt 0.29443359375 0.9346923828125
vt 0.29443359375 0.92669677734375
vt 0.30126953125 0.92669677734375
vt 0.30126953125 0.92669677734375
vt 0.30126953125 0.9346923828125
vt 0.29443359375 0.9346923828125
vt 0.309326171875 0.9346923828125
vt 0.30126953125 0.9346923828125
vt 0.30126953125 0.92669677734375
vt 0.30126953125 0.92669677734375
vt 0.309326171875 0.92669677734375
vt 0.309326171875 0.9346923828125
vt 0.209716796875 0.77978515625
vt 0.34375 0.77978515625
vt 0.34375 0.7874755859375
vt 0.34375 0.7874755859375
vt 0.209716796875 0.7874755859375
vt 0.209716796875 0.77978515625
vt 0.209716796875 0.77978515625
vt 0.209716796875 0.7874755859375
vt 0.197998046875 0.7874755859375
vt 0.197998046875 0.7874755859375
vt 0.197998046875 0.77978515625
vt 0.209716796875 0.77978515625
vt 0.29443359375 0.9346923828125
vt 0.29443359375 0.92669677734375
vt 0.30126953125 0.92669677734375
vt 0.30126953125 0.92669677734375
vt 0.30126953125 0.9346923828125
vt 0.29443359375 0.9346923828125
vt 0.309326171875 0.9346923828125
vt 0.30126953125 0.9346923828125
vt 0.30126953125 0.92669677734375
vt 0.30126953125 0.92669677734375
vt 0.309326171875 0.92669677734375
vt 0.309326171875 0.9346923828125
vn 0.35094910860061646 -0.936392605304718 0.001885363832116127
vn 0.9361768960952759 0.3515257239341736 -0.0016296053072437644
vn 0.9460737109184265 0.30403733253479004 -0.11182910948991776
vn 0.3255636394023895 -0.9369249939918518 0.12720049917697906
vn 0.91826331615448 0.199802964925766 -0.3418642580509186
vn 0.35266509652137756 -0.8444284796714783 0.40319713950157166
vn 0.8388718366622925 0.014900494366884232 -0.544124960899353
vn 0.44532543420791626 -0.6276378631591797 0.6385576725006104
vn 0.7338636517524719 -0.2339477837085724 -0.6377401351928711
vn 0.5689831972122192 -0.33550119400024414 0.7507976293563843
vn 0.6215546727180481 -0.49694588780403137 -0.6055697202682495
vn 0.701096773147583 -0.026171904057264328 0.7125856876373291
vn 0.525345504283905 -0.7189608812332153 -0.45509040355682373
vn 0.8128597736358643 0.23338621854782104 0.5336570739746094
vn 0.4594980776309967 -0.8550848364830017 -0.2401905059814453
vn 0.882646918296814 0.3808111250400543 0.2755308151245117
vn 0.41796961426734924 -0.899889349937439 -0.12450097501277924
vn 0.904040515422821 0.40352633595466614 0.14098672568798065
vn -0.3942282795906067 0.9190111756324768 -0.0016207097796723247
vn -0.43525245785713196 0.8933226466178894 -0.11193742603063583
vn -0.49139484763145447 0.8010294437408447 -0.3418814241886139
vn -0.5700113773345947 0.6157732009887695 -0.5439763069152832
vn -0.6768258810043335 0.36759182810783386 -0.6377954483032227
vn -0.7888622283935547 0.10466078668832779 -0.605592668056488
vn -0.882496178150177 -0.11852678656578064 -0.4551394283771515
vn -0.853539764881134 -0.32998642325401306 0.4032108783721924
vn -0.7611077427864075 -0.11313706636428833 0.6386823058128357
vn -0.6360511779785156 0.17836713790893555 0.7507489323616028
vn -0.504209578037262 0.4879312515258789 0.7125276923179626
vn -0.3941594064235687 0.7482193112373352 0.5336722731590271
vn -0.33621177077293396 0.9005703330039978 0.2755627930164337
vn -0.33440902829170227 0.9318281412124634 0.14094997942447662
vn 0.351047158241272 -0.9363559484481812 0.0018910081125795841
vn 0.9361437559127808 0.3516138195991516 -0.0016328260535374284
vn 0.9460729360580444 0.30404555797576904 -0.11181308329105377
vn 0.32556191086769104 -0.9369252324104309 0.1272023618221283
vn 0.9182616472244263 0.19976742565631866 -0.34188956022262573
vn 0.3526201844215393 -0.8444610834121704 0.4031679630279541
vn 0.8389210104942322 0.01484935823827982 -0.544050395488739
vn 0.44525787234306335 -0.6276489496231079 0.6385937929153442
vn 0.733862042427063 -0.233942449092865 -0.6377439498901367
vn 0.5689800977706909 -0.3354972302913666 0.750801682472229
vn 0.6215929985046387 -0.4969283640384674 -0.6055446863174438
vn 0.7010812163352966 -0.026126565411686897 0.7126026153564453
vn 0.5254807472229004 -0.7188924551010132 -0.45504230260849
vn 0.8127921223640442 0.23351818323135376 0.5337024927139282
vn 0.4594756066799164 -0.8551284074783325 -0.2400781363248825
vn 0.8826375603675842 0.3807791471481323 0.2756050229072571
vn 0.41811707615852356 -0.8998329043388367 -0.12441376596689224
vn 0.9039916396141052 0.40363672375679016 0.14098408818244934
vn -0.3942107856273651 0.9190186262130737 -0.0016213931376114488
vn -0.4352257549762726 0.8933345079421997 -0.11194616556167603
vn -0.4914892613887787 0.8010051846504211 -0.3418024778366089
vn -0.5700093507766724 0.6157774329185486 -0.5439738035202026
vn -0.6768477559089661 0.3676323890686035 -0.6377487778663635
vn -0.7888920307159424 0.10454777628183365 -0.6055733561515808
vn -0.8825146555900574 -0.11845756322145462 -0.4551217555999756
vn -0.8535197973251343 -0.33003202080726624 0.4032154679298401
vn -0.7611376047134399 -0.11312796175479889 0.6386482119560242
vn -0.6359931826591492 0.17835280299186707 0.7508015036582947
vn -0.5042412281036377 0.4878857433795929 0.7125365138053894
vn -0.3941859304904938 0.7482234239578247 0.5336468815803528
vn -0.33619385957717896 0.9005810618400574 0.2755495607852936
vn -0.33443257212638855 0.9318300485610962 0.1408817172050476
vn -0.9187588095664978 -0.39481475949287415 0.0018943136092275381
vn -0.9016159176826477 -0.4134300947189331 0.12713895738124847
vn -0.9351704120635986 -0.260363906621933 -0.24013958871364594
vn -0.9387773871421814 -0.32121801376342773 -0.12456325441598892
vn -0.9187625050544739 -0.39480626583099365 0.0019021688494831324
vn -0.9015994668006897 -0.41346678137779236 0.1271364390850067
vn -0.9351556897163391 -0.2603777348995209 -0.24018174409866333
vn -0.9387549161911011 -0.32129043340682983 -0.12454541772603989
f 1/1/1 2/2/2 3/3/3
f 3/4/3 4/5/4 1/6/1
f 4/7/4 3/8/3 5/9/5
f 5/10/5 6/11/6 4/12/4
f 6/13/6 5/14/5 7/15/7
f 7/16/7 8/17/8 6/18/6
f 8/19/8 7/20/7 9/21/9
f 9/22/9 10/23/10 8/24/8
f 10/25/10 9/26/9 11/27/11
f 11/28/11 12/29/12 10/30/10
f 12/31/12 11/32/11 13/33/13
f 13/34/13 14/35/14 12/36/12
f 14/37/14 13/38/13 15/39/15
f 15/40/15 16/41/16 14/42/14
f 16/43/16 15/44/15 17/45/17
f 17/46/17 18/47/18 16/48/16
f 2/49/2 19/50/19 20/51/20
f 20/52/20 3/53/3 2/54/2
f 3/55/3 20/56/20 21/57/21
f 21/58/21 5/59/5 3/60/3
f 5/61/5 21/62/21 22/63/22
f 22/64/22 7/65/7 5/66/5
f 7/67/7 22/68/22 23/69/23
f 23/70/23 9/71/9 7/72/7
f 9/73/9 23/74/23 24/75/24
f 24/76/24 11/77/11 9/78/9
f 11/79/11 24/80/24 25/81/25
f 25/82/25 13/83/13 11/84/11
f 26/85/26 6/86/6 8/87/8
f 8/88/8 27/89/27 26/90/26
f 27/91/27 8/92/8 10/93/10
f 10/94/10 28/95/28 27/96/27
f 28/97/28 10/98/10 12/99/12
f 12/100/12 29/101/29 28/102/28
f 29/103/29 12/104/12 14/105/14
f 14/106/14 30/107/30 29/108/29
f 30/109/30 14/110/14 16/111/16
f 16/112/16 31/113/31 30/114/30
f 31/115/31 16/116/16 18/117/18
f 18/118/18 32/119/32 31/120/31
f 33/121/33 34/122/34 35/123/35
f 35/124/35 36/125/36 33/126/33
f 36/127/36 35/128/35 37/129/37
f 37/130/37 38/131/38 36/132/36
f 38/133/38 37/134/37 39/135/39
f 39/136/39 40/137/40 38/138/38
f 40/139/40 39/140/39 41/141/41
f 41/142/41 42/143/42 40/144/40
f 42/145/42 41/146/41 43/147/43
f 43/148/43 44/149/44 42/150/42
f 44/151/44 43/152/43 45/153/45
f 45/154/45 46/155/46 44/156/44
f 46/157/46 45/158/45 47/159/47
f 47/160/47 48/161/48 46/162/46
f 48/163/48 47/164/47 49/165/49
f 49/166/49 50/167/50 48/168/48
f 34/169/34 51/170/51 52/171/52
f 52/172/52 35/173/35 34/174/34
f 35/175/35 52/176/52 53/177/53
f 53/178/53 37/179/37 35/180/35
f 37/181/37 53/182/53 54/183/54
f 54/184/54 39/185/39 37/186/37
f 39/187/39 54/188/54 55/189/55
f 55/190/55 41/191/41 39/192/39
f 41/193/41 55/194/55 56/195/56
f 56/196/56 43/197/43 41/198/41
f 43/199/43 56/200/56 57/201/57
f 57/202/57 45/203/45 43/204/43
f 58/205/58 38/206/38 40/207/40
f 40/208/40 59/209/59 58/210/58
f 59/211/59 40/212/40 42/213/42
f 42/214/42 60/215/60 59/216/59
f 60/217/60 42/218/42 44/219/44
f 44/220/44 61/221/61 60/222/60
f 61/223/61 44/224/44 46/225/46
f 46/226/46 62/227/62 61/228/61
f 62/229/62 46/230/46 48/231/48
f 48/232/48 63/233/63 62/234/62
f 63/235/63 48/236/48 50/237/50
f 50/238/50 64/239/64 63/240/63
f 20/241/20 19/242/19 65/243/65
f 65/244/65 66/245/66 20/246/20
f 21/247/21 20/248/20 66/249/66
f 66/250/66 26/251/26 21/252/21
f 22/253/22 21/254/21 26/255/26
f 26/256/26 27/257/27 22/258/22
f 23/259/23 22/260/22 27/261/27
f 27/262/27 28/263/28 23/264/23
f 24/265/24 23/266/23 28/267/28
f 28/268/28 29/269/29 24/270/24
f 25/271/25 24/272/24 29/273/29
f 29/274/29 30/275/30 25/276/25
f 67/277/67 25/278/25 30/279/30
f 30/280/30 31/281/31 67/282/67
f 68/283/68 67/284/67 31/285/31
f 31/286/31 32/287/32 68/288/68
f 52/289/52 51/290/51 69/291/69
f 69/292/69 70/293/70 52/294/52
f 53/295/53 52/296/52 70/297/70
f 70/298/70 58/299/58 53/300/53
f 54/301/54 53/302/53 58/303/58
f 58/304/58 59/305/59 54/306/54
f 55/307/55 54/308/54 59/309/59
f 59/310/59 60/311/60 55/312/55
f 56/313/56 55/314/55 60/315/60
f 60/316/60 61/317/61 56/318/56
f 57/319/57 56/320/56 61/321/61
f 61/322/61 62/323/62 57/324/57
f 71/325/71 57/326/57 62/327/62
f 62/328/62 63/329/63 71/330/71
f 72/331/72 71/332/71 63/333/63
f 63/334/63 64/335/64 72/336/72
f 66/337/66 65/338/65 1/339/1
f 1/340/1 4/341/4 66/342/66
f 66/343/66 4/344/4 6/345/6
f 6/346/6 26/347/26 66/348/66
f 13/349/13 25/350/25 67/351/67
f 67/352/67 15/353/15 13/354/13
f 17/355/17 15/356/15 67/357/67
f 67/358/67 68/359/68 17/360/17
f 70/361/70 69/362/69 33/363/33
f 33/364/33 36/365/36 70/366/70
f 70/367/70 36/368/36 38/369/38
f 38/370/38 58/371/58 70/372/70
f 45/373/45 57/374/57 71/375/71
f 71/376/71 47/377/47 45/378/45
f 49/379/49 47/380/47 71/381/71
f 71/382/71 72/383/72 49/384/49
