# Exported by Lightwave Blender addon
v -142.03892517089844 344.87921142578125 290.4617919921875
v -142.0391845703125 344.87884521484375 45.45166015625
v -183.36123657226562 269.27362060546875 290.46185302734375
v -183.3612518310547 269.27325439453125 45.4517707824707
v -146.49346923828125 193.13528442382812 290.4619140625
v -146.49327087402344 193.1349639892578 45.45188522338867
vt 0.88671875 -0.064453125
vt 0.88671875 1.16015625
vt 0.4560546875 -0.064453125
vt 0.88671875 1.16015625
vt 0.4560546875 1.16015625
vt 0.4560546875 -0.064453125
vt 0.4560546875 -0.064453125
vt 0.4560546875 1.16015625
vt 0.11309814453125 -0.064453125
vt 0.4560546875 1.16015625
vt 0.11309814453125 1.16015625
vt 0.11309814453125 -0.064453125
vn -0.8774906992912292 0.479593425989151 2.1218801293798606e-07
vn -0.8774917721748352 0.4795917570590973 -4.7396568447766185e-07
vn -0.999697208404541 0.024607134982943535 4.1137016637549095e-07
vn -0.9996966123580933 0.024632124230265617 -3.5859054037246096e-07
vn -0.900035560131073 -0.43581652641296387 5.24149356806447e-07
vn -0.9000346660614014 -0.43581831455230713 -1.5870149638885778e-07
f 1/1/1 2/2/2 3/3/3
f 2/4/2 4/5/4 3/6/3
f 3/7/3 4/8/4 5/9/5
f 4/10/4 6/11/6 5/12/5
