# Exported by Lightwave Blender addon
v 75.77723693847656 2149.43994140625 959.7393188476562
v 167.81263732910156 2249.59765625 959.7393188476562
v 75.77723693847656 2149.43994140625 1010.3591918945312
v 167.81263732910156 2249.59765625 1010.3591918945312
v 106.41847229003906 2450.512939453125 957.5369262695312
v 6.260757923126221 2542.548583984375 957.5369262695312
v 106.41847229003906 2450.512939453125 1008.1567993164062
v 6.260757923126221 2542.548583984375 1008.1567993164062
v -130.2184295654297 2636.85693359375 959.7393188476562
v -230.3762664794922 2728.89208984375 959.7393188476562
v -130.2184295654297 2636.85693359375 1010.3591918945312
v -230.3762664794922 2728.89208984375 1010.3591918945312
v -336.5072326660156 2855.742919921875 959.7393798828125
v -436.6650695800781 2947.778076171875 959.7393798828125
v -336.5072326660156 2855.742919921875 1010.3592529296875
v -436.6650695800781 2947.778076171875 1010.3592529296875
v -147.8130340576172 1948.5908203125 959.7393188476562
v -55.77781677246094 2048.748779296875 959.7393188476562
v -147.8130340576172 1948.5908203125 1010.3591918945312
v -55.77781677246094 2048.748779296875 1010.3591918945312
v -384.6292419433594 1690.8741455078125 959.7393188476562
v -292.5940246582031 1791.0318603515625 959.7393188476562
v -384.6292419433594 1690.8741455078125 1010.3591918945312
v -292.5940246582031 1791.0318603515625 1010.3591918945312
v -587.6149291992188 1469.9742431640625 959.7393188476562
v -495.5796813964844 1570.1319580078125 959.7393188476562
v -587.6149291992188 1469.9742431640625 1010.3591918945312
v -495.5796813964844 1570.1319580078125 1010.3591918945312
v -825.0698852539062 1211.5631103515625 959.7392578125
v -733.0346069335938 1311.7208251953125 959.7392578125
v -825.0698852539062 1211.5631103515625 1010.359130859375
v -733.0346069335938 1311.7208251953125 1010.359130859375
v -1006.8837280273438 971.2294311523438 959.7392578125
v -914.8484497070312 1071.38720703125 959.7392578125
v -1006.8837280273438 971.2294311523438 1010.359130859375
v -914.8484497070312 1071.38720703125 1010.359130859375
v -1284.2691650390625 1059.1319580078125 959.7392578125
v -1184.1114501953125 967.0965576171875 959.7392578125
v -1284.2691650390625 1059.1319580078125 1010.359130859375
v -1184.1114501953125 967.0965576171875 1010.359130859375
v -1490.55810546875 1278.01806640625 959.7392578125
v -1390.4002685546875 1185.98291015625 959.7392578125
v -1490.55810546875 1278.01806640625 1010.359130859375
v -1390.4002685546875 1185.98291015625 1010.359130859375
v -1727.1947021484375 1464.36181640625 957.5369262695312
v -1627.0369873046875 1372.32666015625 957.536865234375
v -1727.1947021484375 1464.36181640625 1008.1567993164062
v -1627.0369873046875 1372.32666015625 1008.15673828125
v -1491.021728515625 1277.65869140625 1257.975341796875
v -1390.864013671875 1185.6234130859375 1257.975341796875
v -1491.021728515625 1277.65869140625 1308.5950927734375
v -1390.864013671875 1185.6234130859375 1308.5950927734375
v -1284.732177734375 1058.7730712890625 1257.975341796875
v -1184.574462890625 966.7376098632812 1257.975341796875
v -1284.732177734375 1058.77294921875 1308.5950927734375
v -1184.574462890625 966.7376098632812 1308.5950927734375
v -1727.65869140625 1464.0023193359375 1255.77294921875
v -1627.5009765625 1371.9671630859375 1255.77294921875
v -1727.65869140625 1464.0023193359375 1306.3927001953125
v -1627.5009765625 1371.9671630859375 1306.3927001953125
v -1009.025146484375 973.1959838867188 1257.975341796875
v -916.9899291992188 1073.353759765625 1257.975341796875
v -1009.025146484375 973.1959838867188 1308.5950927734375
v -916.9899291992188 1073.3536376953125 1308.5950927734375
v -823.3102416992188 1209.9466552734375 1257.975341796875
v -731.2749633789062 1310.1044921875 1257.975341796875
v -823.3102416992188 1209.9466552734375 1308.5950927734375
v -731.2749633789062 1310.1044921875 1308.5950927734375
v -586.483642578125 1467.67333984375 1257.975341796875
v -494.4483947753906 1567.8310546875 1257.975341796875
v -586.483642578125 1467.67333984375 1308.5950927734375
v -494.4483947753906 1567.8310546875 1308.5950927734375
v -383.4979248046875 1688.57373046875 1257.975341796875
v -291.4627380371094 1788.7315673828125 1257.975341796875
v -383.4979248046875 1688.57373046875 1308.5950927734375
v -291.4627380371094 1788.7315673828125 1308.5950927734375
v -146.6814727783203 1946.2901611328125 1257.975341796875
v -54.64634704589844 2046.447998046875 1257.975341796875
v -146.6814727783203 1946.2901611328125 1308.5950927734375
v -54.64634704589844 2046.447998046875 1308.5950927734375
v 73.56556701660156 2151.328857421875 1257.975341796875
v 165.60084533691406 2251.48681640625 1257.975341796875
v 73.56556701660156 2151.328857421875 1308.5950927734375
v 165.60084533691406 2251.48681640625 1308.5950927734375
v 106.88264465332031 2450.87255859375 1255.77294921875
v 6.724930286407471 2542.907958984375 1255.77294921875
v 106.88264465332031 2450.87255859375 1306.3927001953125
v 6.724930286407471 2542.907958984375 1306.3927001953125
v -129.75462341308594 2637.216064453125 1257.975341796875
v -229.91233825683594 2729.251220703125 1257.975341796875
v -129.75462341308594 2637.216064453125 1308.5950927734375
v -229.91233825683594 2729.251220703125 1308.5950927734375
v -336.0442199707031 2856.10205078125 1257.975341796875
v -436.2018737792969 2948.137451171875 1257.975341796875
v -336.0442199707031 2856.10205078125 1308.5950927734375
v -436.2018737792969 2948.137451171875 1308.5950927734375
v -1712.1739501953125 1481.66162109375 571.2351684570312
v -1612.0162353515625 1389.62646484375 571.2351684570312
v -1712.1739501953125 1481.66162109375 621.8550415039062
v -1612.0162353515625 1389.62646484375 621.8550415039062
v -1487.801025390625 1275.4849853515625 571.2351684570312
v -1387.6434326171875 1183.44970703125 571.235107421875
v -1487.801025390625 1275.4849853515625 621.8550415039062
v -1387.6434326171875 1183.44970703125 621.85498046875
v -1269.7340087890625 1075.1024169921875 571.235107421875
v -1169.576416015625 983.067138671875 571.235107421875
v -1269.7340087890625 1075.1024169921875 621.85498046875
v -1169.576416015625 983.0670776367188 621.85498046875
v -1028.045166015625 990.6749877929688 571.235107421875
v -936.0097045898438 1090.8323974609375 571.235107421875
v -1028.045166015625 990.6749267578125 621.85498046875
v -936.0097045898438 1090.8323974609375 621.85498046875
v -825.06982421875 1211.5631103515625 571.235107421875
v -733.03466796875 1311.7208251953125 571.2351684570312
v -825.06982421875 1211.5631103515625 621.85498046875
v -733.03466796875 1311.7208251953125 621.8550415039062
v -587.6149291992188 1469.9742431640625 571.2351684570312
v -495.5796813964844 1570.1319580078125 571.2351684570312
v -587.6149291992188 1469.9742431640625 621.8550415039062
v -495.5796813964844 1570.1319580078125 621.8550415039062
v -384.6292419433594 1690.8741455078125 571.2351684570312
v -292.5939636230469 1791.031982421875 571.2351684570312
v -384.6292419433594 1690.8741455078125 621.8550415039062
v -292.5939636230469 1791.031982421875 621.8550415039062
v -147.81297302246094 1948.5908203125 571.2351684570312
v -55.77781677246094 2048.74853515625 571.2351684570312
v -147.81297302246094 1948.5908203125 621.8550415039062
v -55.77781677246094 2048.74853515625 621.8550415039062
v 54.61610412597656 2168.884765625 571.2351684570312
v 146.65150451660156 2269.042724609375 571.2351684570312
v 54.61610412597656 2168.884765625 621.8550415039062
v 146.65150451660156 2269.042724609375 621.8550415039062
v 86.39753723144531 2468.910400390625 571.4407348632812
v -13.760237693786621 2560.945556640625 571.4407348632812
v 86.39753723144531 2468.910400390625 622.0606079101562
v -13.760237693786621 2560.945556640625 622.0606079101562
v -134.48130798339844 2671.876708984375 571.4407958984375
v -234.63902282714844 2763.912109375 571.4407958984375
v -134.48130798339844 2671.876708984375 622.0606689453125
v -234.63902282714844 2763.912109375 622.0606689453125
v -355.5666809082031 2873.2568359375 571.392333984375
v -455.7243957519531 2965.2919921875 571.392333984375
v -355.5666809082031 2873.2568359375 622.01220703125
v -455.7243957519531 2965.2919921875 622.01220703125
vt 0.0020999908447265625 0.2490234375
vt 0.57861328125 0.2490234375
vt 0.0020999908447265625 0.4853515625
vt 0.57861328125 0.2490234375
vt 0.57861328125 0.4853515625
vt 0.0020999908447265625 0.4853515625
vt 0.0020999908447265625 0.2490234375
vt 0.57861328125 0.2490234375
vt 0.0020999908447265625 0.4853515625
vt 0.57861328125 0.2490234375
vt 0.57861328125 0.4853515625
vt 0.0020999908447265625 0.4853515625
vt 0.0020999908447265625 0.2490234375
vt 0.57861328125 0.2490234375
vt 0.0020999908447265625 0.4853515625
vt 0.57861328125 0.2490234375
vt 0.57861328125 0.4853515625
vt 0.0020999908447265625 0.4853515625
vt 0.0020999908447265625 0.2490234375
vt 0.57861328125 0.2490234375
vt 0.0020999908447265625 0.4853515625
vt 0.57861328125 0.2490234375
vt 0.57861328125 0.4853515625
vt 0.0020999908447265625 0.4853515625
vt 0.0020999908447265625 0.2490234375
vt 0.57861328125 0.2490234375
vt 0.0020999908447265625 0.4853515625
vt 0.57861328125 0.2490234375
vt 0.57861328125 0.4853515625
vt 0.0020999908447265625 0.4853515625
vt 0.0020999908447265625 0.2490234375
vt 0.57861328125 0.2490234375
vt 0.0020999908447265625 0.4853515625
vt 0.57861328125 0.2490234375
vt 0.57861328125 0.4853515625
vt 0.0020999908447265625 0.4853515625
vt 0.0020999908447265625 0.2490234375
vt 0.57861328125 0.2490234375
vt 0.0020999908447265625 0.4853515625
vt 0.57861328125 0.2490234375
vt 0.57861328125 0.4853515625
vt 0.0020999908447265625 0.4853515625
vt 0.0020999908447265625 0.2490234375
vt 0.57861328125 0.2490234375
vt 0.0020999908447265625 0.4853515625
vt 0.57861328125 0.2490234375
vt 0.57861328125 0.4853515625
vt 0.0020999908447265625 0.4853515625
vt 0.0020999908447265625 0.2490234375
vt 0.57861328125 0.2490234375
vt 0.0020999908447265625 0.4853515625
vt 0.57861328125 0.2490234375
vt 0.57861328125 0.4853515625
vt 0.0020999908447265625 0.4853515625
vt 0.0020999908447265625 0.2490234375
vt 0.57861328125 0.2490234375
vt 0.0020999908447265625 0.4853515625
vt 0.57861328125 0.2490234375
vt 0.57861328125 0.4853515625
vt 0.0020999908447265625 0.4853515625
vt 0.0020999908447265625 0.2490234375
vt 0.57861328125 0.2490234375
vt 0.0020999908447265625 0.4853515625
vt 0.57861328125 0.2490234375
vt 0.57861328125 0.4853515625
vt 0.0020999908447265625 0.4853515625
vt 0.0020999908447265625 0.2490234375
vt 0.57861328125 0.2490234375
vt 0.0020999908447265625 0.4853515625
vt 0.57861328125 0.2490234375
vt 0.57861328125 0.4853515625
vt 0.0020999908447265625 0.4853515625
vt 0.0020999908447265625 0.2490234375
vt 0.57861328125 0.2490234375
vt 0.0020999908447265625 0.4853515625
vt 0.57861328125 0.2490234375
vt 0.57861328125 0.4853515625
vt 0.0020999908447265625 0.4853515625
vt 0.0020999908447265625 0.2490234375
vt 0.57861328125 0.2490234375
vt 0.0020999908447265625 0.4853515625
vt 0.57861328125 0.2490234375
vt 0.57861328125 0.4853515625
vt 0.0020999908447265625 0.4853515625
vt 0.0020999908447265625 0.2490234375
vt 0.57861328125 0.2490234375
vt 0.0020999908447265625 0.4853515625
vt 0.57861328125 0.2490234375
vt 0.57861328125 0.4853515625
vt 0.0020999908447265625 0.4853515625
vt 0.0020999908447265625 0.2490234375
vt 0.57861328125 0.2490234375
vt 0.0020999908447265625 0.4853515625
vt 0.57861328125 0.2490234375
vt 0.57861328125 0.4853515625
vt 0.0020999908447265625 0.4853515625
vt 0.0020999908447265625 0.2490234375
vt 0.57861328125 0.2490234375
vt 0.0020999908447265625 0.4853515625
vt 0.57861328125 0.2490234375
vt 0.57861328125 0.4853515625
vt 0.0020999908447265625 0.4853515625
vt 0.0020999908447265625 0.2490234375
vt 0.57861328125 0.2490234375
vt 0.0020999908447265625 0.4853515625
vt 0.57861328125 0.2490234375
vt 0.57861328125 0.4853515625
vt 0.0020999908447265625 0.4853515625
vt 0.0020999908447265625 0.2490234375
vt 0.57861328125 0.2490234375
vt 0.0020999908447265625 0.4853515625
vt 0.57861328125 0.2490234375
vt 0.57861328125 0.4853515625
vt 0.0020999908447265625 0.4853515625
vt 0.0020999908447265625 0.2490234375
vt 0.57861328125 0.2490234375
vt 0.0020999908447265625 0.4853515625
vt 0.57861328125 0.2490234375
vt 0.57861328125 0.4853515625
vt 0.0020999908447265625 0.4853515625
vt 0.0020999908447265625 0.2490234375
vt 0.57861328125 0.2490234375
vt 0.0020999908447265625 0.4853515625
vt 0.57861328125 0.2490234375
vt 0.57861328125 0.4853515625
vt 0.0020999908447265625 0.4853515625
vt 0.0020999908447265625 0.2490234375
vt 0.57861328125 0.2490234375
vt 0.0020999908447265625 0.4853515625
vt 0.57861328125 0.2490234375
vt 0.57861328125 0.4853515625
vt 0.0020999908447265625 0.4853515625
vt 0.0020999908447265625 0.2490234375
vt 0.57861328125 0.2490234375
vt 0.0020999908447265625 0.4853515625
vt 0.57861328125 0.2490234375
vt 0.57861328125 0.4853515625
vt 0.0020999908447265625 0.4853515625
vt 0.0020999908447265625 0.2490234375
vt 0.57861328125 0.2490234375
vt 0.0020999908447265625 0.4853515625
vt 0.57861328125 0.2490234375
vt 0.57861328125 0.4853515625
vt 0.0020999908447265625 0.4853515625
vt 0.0020999908447265625 0.0048828125
vt 0.57861328125 0.0048828125
vt 0.0020999908447265625 0.2412109375
vt 0.57861328125 0.0048828125
vt 0.57861328125 0.2412109375
vt 0.0020999908447265625 0.2412109375
vt 0.0020999908447265625 0.0048828125
vt 0.57861328125 0.0048828125
vt 0.0020999908447265625 0.2412109375
vt 0.57861328125 0.0048828125
vt 0.57861328125 0.2412109375
vt 0.0020999908447265625 0.2412109375
vt 0.0020999908447265625 0.0048828125
vt 0.57861328125 0.0048828125
vt 0.0020999908447265625 0.2412109375
vt 0.57861328125 0.0048828125
vt 0.57861328125 0.2412109375
vt 0.0020999908447265625 0.2412109375
vt 0.0020999908447265625 0.0048828125
vt 0.57861328125 0.0048828125
vt 0.0020999908447265625 0.2412109375
vt 0.57861328125 0.0048828125
vt 0.57861328125 0.2412109375
vt 0.0020999908447265625 0.2412109375
vt 0.0020999908447265625 0.0048828125
vt 0.57861328125 0.0048828125
vt 0.0020999908447265625 0.2412109375
vt 0.57861328125 0.0048828125
vt 0.57861328125 0.2412109375
vt 0.0020999908447265625 0.2412109375
vt 0.0020999908447265625 0.0048828125
vt 0.57861328125 0.0048828125
vt 0.0020999908447265625 0.2412109375
vt 0.57861328125 0.0048828125
vt 0.57861328125 0.2412109375
vt 0.0020999908447265625 0.2412109375
vt 0.0020999908447265625 0.0048828125
vt 0.57861328125 0.0048828125
vt 0.0020999908447265625 0.2412109375
vt 0.57861328125 0.0048828125
vt 0.57861328125 0.2412109375
vt 0.0020999908447265625 0.2412109375
vt 0.0020999908447265625 0.0048828125
vt 0.57861328125 0.0048828125
vt 0.0020999908447265625 0.2412109375
vt 0.57861328125 0.0048828125
vt 0.57861328125 0.2412109375
vt 0.0020999908447265625 0.2412109375
vt 0.0020999908447265625 0.0048828125
vt 0.57861328125 0.0048828125
vt 0.0020999908447265625 0.2412109375
vt 0.57861328125 0.0048828125
vt 0.57861328125 0.2412109375
vt 0.0020999908447265625 0.2412109375
vt 0.0020999908447265625 0.0048828125
vt 0.57861328125 0.0048828125
vt 0.0020999908447265625 0.2412109375
vt 0.57861328125 0.0048828125
vt 0.57861328125 0.2412109375
vt 0.0020999908447265625 0.2412109375
vt 0.0020999908447265625 0.0048828125
vt 0.57861328125 0.0048828125
vt 0.0020999908447265625 0.2412109375
vt 0.57861328125 0.0048828125
vt 0.57861328125 0.2412109375
vt 0.0020999908447265625 0.2412109375
vt 0.0020999908447265625 0.0048828125
vt 0.57861328125 0.0048828125
vt 0.0020999908447265625 0.2412109375
vt 0.57861328125 0.0048828125
vt 0.57861328125 0.2412109375
vt 0.0020999908447265625 0.2412109375
vn 0.7363326549530029 -0.6766196489334106 0.0
vn 0.7363327741622925 -0.6766196489334106 0.0
vn 0.7363327741622925 -0.6766196489334106 0.0
vn 0.7363326549530029 -0.6766196489334106 0.0
vn 0.676620602607727 0.7363317608833313 0.0
vn 0.6766205430030823 0.7363318204879761 0.0
vn 0.6766205430030823 0.7363318204879761 0.0
vn 0.676620602607727 0.7363317608833313 0.0
vn 0.676618218421936 0.7363340258598328 0.0
vn 0.676618218421936 0.7363340258598328 0.0
vn 0.676618218421936 0.7363340258598328 0.0
vn 0.676618218421936 0.7363340258598328 0.0
vn 0.676618218421936 0.7363340258598328 0.0
vn 0.676618218421936 0.7363340258598328 0.0
vn 0.676618218421936 0.7363340258598328 0.0
vn 0.676618218421936 0.7363340258598328 0.0
vn 0.7363342642784119 -0.6766179800033569 0.0
vn 0.7363342046737671 -0.6766180396080017 0.0
vn 0.7363342046737671 -0.6766180396080017 0.0
vn 0.7363342642784119 -0.6766179800033569 0.0
vn 0.7363333702087402 -0.6766188740730286 0.0
vn 0.7363333702087402 -0.6766188740730286 0.0
vn 0.7363333702087402 -0.6766188740730286 0.0
vn 0.7363333702087402 -0.6766188740730286 0.0
vn 0.7363331913948059 -0.6766190528869629 0.0
vn 0.7363331913948059 -0.6766190528869629 0.0
vn 0.7363331913948059 -0.6766190528869629 0.0
vn 0.7363331913948059 -0.6766190528869629 0.0
vn 0.7363331317901611 -0.6766191124916077 0.0
vn 0.7363331317901611 -0.6766191124916077 0.0
vn 0.7363331317901611 -0.6766191124916077 0.0
vn 0.7363331317901611 -0.6766191124916077 0.0
vn 0.736333429813385 -0.6766189336776733 0.0
vn 0.736333429813385 -0.6766188740730286 0.0
vn 0.736333429813385 -0.6766188740730286 0.0
vn 0.736333429813385 -0.6766189336776733 0.0
vn -0.6766196489334106 -0.7363326549530029 0.0
vn -0.6766196489334106 -0.7363327741622925 0.0
vn -0.6766196489334106 -0.7363327741622925 0.0
vn -0.6766196489334106 -0.7363326549530029 0.0
vn -0.676618218421936 -0.7363340258598328 0.0
vn -0.676618218421936 -0.7363340258598328 0.0
vn -0.676618218421936 -0.7363340258598328 0.0
vn -0.676618218421936 -0.7363340258598328 0.0
vn -0.6766185760498047 -0.7363336086273193 0.0
vn -0.6766186952590942 -0.7363336086273193 0.0
vn -0.6766185760498047 -0.7363337278366089 0.0
vn -0.6766186952590942 -0.7363336086273193 0.0
vn -0.6766191124916077 -0.7363331317901611 0.0
vn -0.6766191124916077 -0.7363331317901611 0.0
vn -0.6766191124916077 -0.7363331317901611 0.0
vn -0.6766191124916077 -0.7363331317901611 0.0
vn -0.676619827747345 -0.7363325357437134 -1.843796326284064e-06
vn -0.6766194701194763 -0.7363328337669373 -4.181582937690109e-07
vn -0.6766197681427002 -0.7363325953483582 -1.4256384019972757e-06
vn -0.6766194701194763 -0.7363330125808716 0.0
vn -0.6766186356544495 -0.7363335490226746 0.0
vn -0.6766186356544495 -0.7363335490226746 0.0
vn -0.6766186356544495 -0.7363335490226746 0.0
vn -0.6766186356544495 -0.7363335490226746 0.0
vn 0.7363335490226746 -0.6766186356544495 0.0
vn 0.7363333702087402 -0.6766191124916077 -1.2616250160135678e-06
vn 0.7363335490226746 -0.6766188144683838 -3.70051964182494e-07
vn 0.7363331317901611 -0.6766191124916077 -1.6316773780999938e-06
vn 0.7363335490226746 -0.6766186356544495 0.0
vn 0.7363336086273193 -0.6766186952590942 0.0
vn 0.7363336086273193 -0.6766186952590942 0.0
vn 0.7363335490226746 -0.6766186356544495 0.0
vn 0.7363333106040955 -0.6766190528869629 0.0
vn 0.7363333106040955 -0.6766190528869629 0.0
vn 0.7363333106040955 -0.6766190528869629 0.0
vn 0.7363333106040955 -0.6766190528869629 0.0
vn 0.7363339066505432 -0.6766183376312256 0.0
vn 0.736333966255188 -0.6766183376312256 0.0
vn 0.736333966255188 -0.6766183376312256 0.0
vn 0.7363339066505432 -0.6766183376312256 0.0
vn 0.7363341450691223 -0.6766180396080017 0.0
vn 0.7363341450691223 -0.6766180396080017 0.0
vn 0.7363341450691223 -0.6766180396080017 0.0
vn 0.7363341450691223 -0.6766180396080017 0.0
vn 0.736333966255188 -0.6766181588172913 0.0
vn 0.736333966255188 -0.676618218421936 0.0
vn 0.736333966255188 -0.676618218421936 0.0
vn 0.736333966255188 -0.6766181588172913 0.0
vn 0.6766196489334106 0.7363326549530029 0.0
vn 0.6766196489334106 0.7363327145576477 0.0
vn 0.6766196489334106 0.7363327145576477 0.0
vn 0.6766196489334106 0.7363326549530029 0.0
vn 0.6766186356544495 0.7363335490226746 0.0
vn 0.6766186356544495 0.7363335490226746 0.0
vn 0.6766186356544495 0.7363335490226746 0.0
vn 0.6766186356544495 0.7363335490226746 0.0
vn 0.6766198873519897 0.7363325357437134 0.0
vn 0.6766197681427002 0.7363325357437134 0.0
vn 0.6766197681427002 0.7363325357437134 0.0
vn 0.6766198873519897 0.7363325357437134 0.0
vn -0.6766186952590942 -0.7363336086273193 0.0
vn -0.6766186952590942 -0.7363336086273193 0.0
vn -0.6766186952590942 -0.7363336086273193 0.0
vn -0.6766186952590942 -0.7363336086273193 0.0
vn -0.6766196489334106 -0.7363327741622925 0.0
vn -0.6766196489334106 -0.7363327741622925 0.0
vn -0.6766196489334106 -0.7363327741622925 0.0
vn -0.6766196489334106 -0.7363327741622925 0.0
vn -0.6766195893287659 -0.7363327741622925 0.0
vn -0.6766197681427002 -0.7363326549530029 -6.864816555207653e-07
vn -0.6766197085380554 -0.7363327145576477 -2.0135483680405741e-07
vn -0.676619827747345 -0.7363325953483582 -8.878365065356775e-07
vn 0.7363315224647522 -0.6766210794448853 -8.509823601343669e-07
vn 0.7363316416740417 -0.6766207814216614 -1.9299677944673022e-07
vn 0.7363315224647522 -0.6766209006309509 -6.579855380550725e-07
vn 0.7363317012786865 -0.6766208410263062 0.0
vn 0.7363335490226746 -0.6766185760498047 0.0
vn 0.7363336086273193 -0.6766186356544495 0.0
vn 0.7363336086273193 -0.6766186356544495 0.0
vn 0.7363335490226746 -0.6766186356544495 0.0
vn 0.7363331913948059 -0.6766190528869629 0.0
vn 0.7363331913948059 -0.6766190528869629 0.0
vn 0.7363331913948059 -0.6766190528869629 0.0
vn 0.7363331913948059 -0.6766190528869629 0.0
vn 0.7363335490226746 -0.6766186356544495 0.0
vn 0.7363336086273193 -0.6766186356544495 0.0
vn 0.7363336086273193 -0.6766186356544495 0.0
vn 0.7363335490226746 -0.6766186356544495 0.0
vn 0.7363336086273193 -0.6766186952590942 0.0
vn 0.7363336086273193 -0.6766186952590942 0.0
vn 0.7363336086273193 -0.6766186952590942 0.0
vn 0.7363336086273193 -0.6766186952590942 0.0
vn 0.7363335490226746 -0.676618754863739 0.0
vn 0.7363335490226746 -0.6766186952590942 0.0
vn 0.7363335490226746 -0.6766186952590942 0.0
vn 0.7363335490226746 -0.676618754863739 0.0
vn 0.6766183972358704 0.7363337278366089 0.0
vn 0.6766185164451599 0.7363338470458984 0.0
vn 0.6766185164451599 0.7363338470458984 0.0
vn 0.6766183972358704 0.7363337278366089 0.0
vn 0.6766196489334106 0.7363326549530029 0.0
vn 0.6766196489334106 0.7363327741622925 0.0
vn 0.6766196489334106 0.7363327741622925 0.0
vn 0.6766196489334106 0.7363326549530029 0.0
vn 0.6766186952590942 0.7363336086273193 0.0
vn 0.6766186952590942 0.7363336086273193 0.0
vn 0.6766186952590942 0.7363336086273193 0.0
vn 0.6766186952590942 0.7363336086273193 0.0
f 1/1/1 2/2/2 3/3/3
f 2/4/2 4/5/4 3/6/3
f 5/7/5 6/8/6 7/9/7
f 6/10/6 8/11/8 7/12/7
f 9/13/9 10/14/10 11/15/11
f 10/16/10 12/17/12 11/18/11
f 13/19/13 14/20/14 15/21/15
f 14/22/14 16/23/16 15/24/15
f 17/25/17 18/26/18 19/27/19
f 18/28/18 20/29/20 19/30/19
f 21/31/21 22/32/22 23/33/23
f 22/34/22 24/35/24 23/36/23
f 25/37/25 26/38/26 27/39/27
f 26/40/26 28/41/28 27/42/27
f 29/43/29 30/44/30 31/45/31
f 30/46/30 32/47/32 31/48/31
f 33/49/33 34/50/34 35/51/35
f 34/52/34 36/53/36 35/54/35
f 37/55/37 38/56/38 39/57/39
f 38/58/38 40/59/40 39/60/39
f 41/61/41 42/62/42 43/63/43
f 42/64/42 44/65/44 43/66/43
f 45/67/45 46/68/46 47/69/47
f 46/70/46 48/71/48 47/72/47
f 49/73/49 50/74/50 51/75/51
f 50/76/50 52/77/52 51/78/51
f 53/79/53 54/80/54 55/81/55
f 54/82/54 56/83/56 55/84/55
f 57/85/57 58/86/58 59/87/59
f 58/88/58 60/89/60 59/90/59
f 61/91/61 62/92/62 63/93/63
f 62/94/62 64/95/64 63/96/63
f 65/97/65 66/98/66 67/99/67
f 66/100/66 68/101/68 67/102/67
f 69/103/69 70/104/70 71/105/71
f 70/106/70 72/107/72 71/108/71
f 73/109/73 74/110/74 75/111/75
f 74/112/74 76/113/76 75/114/75
f 77/115/77 78/116/78 79/117/79
f 78/118/78 80/119/80 79/120/79
f 81/121/81 82/122/82 83/123/83
f 82/124/82 84/125/84 83/126/83
f 85/127/85 86/128/86 87/129/87
f 86/130/86 88/131/88 87/132/87
f 89/133/89 90/134/90 91/135/91
f 90/136/90 92/137/92 91/138/91
f 93/139/93 94/140/94 95/141/95
f 94/142/94 96/143/96 95/144/95
f 97/145/97 98/146/98 99/147/99
f 98/148/98 100/149/100 99/150/99
f 101/151/101 102/152/102 103/153/103
f 102/154/102 104/155/104 103/156/103
f 105/157/105 106/158/106 107/159/107
f 106/160/106 108/161/108 107/162/107
f 109/163/109 110/164/110 111/165/111
f 110/166/110 112/167/112 111/168/111
f 113/169/113 114/170/114 115/171/115
f 114/172/114 116/173/116 115/174/115
f 117/175/117 118/176/118 119/177/119
f 118/178/118 120/179/120 119/180/119
f 121/181/121 122/182/122 123/183/123
f 122/184/122 124/185/124 123/186/123
f 125/187/125 126/188/126 127/189/127
f 126/190/126 128/191/128 127/192/127
f 129/193/129 130/194/130 131/195/131
f 130/196/130 132/197/132 131/198/131
f 133/199/133 134/200/134 135/201/135
f 134/202/134 136/203/136 135/204/135
f 137/205/137 138/206/138 139/207/139
f 138/208/138 140/209/140 139/210/139
f 141/211/141 142/212/142 143/213/143
f 142/214/142 144/215/144 143/216/143
