# Exported by Lightwave Blender addon
v 246.73974609375 1027.3939208984375 862.2234497070312
v 246.73974609375 1027.3939208984375 820.8849487304688
v 202.5011444091797 947.3280029296875 862.223388671875
v 202.5011444091797 947.3280029296875 820.8849487304688
vt 0.0013761520385742188 0.2392578125
vt 0.0013761520385742188 0.00732421875
vt 0.57177734375 0.2392578125
vt 0.0013761520385742188 0.00732421875
vt 0.57177734375 0.00732421875
vt 0.57177734375 0.2392578125
vn -0.8752801418304443 0.4836161434650421 0.0
vn -0.8752801418304443 0.4836161434650421 0.0
vn -0.8752802610397339 0.4836161732673645 0.0
vn -0.8752802014350891 0.4836161434650421 0.0
f 1/1/1 2/2/2 3/3/3
f 2/4/2 4/5/4 3/6/3
