# Exported by Lightwave Blender addon
v 1310.511474609375 2479.756591796875 739.9762573242188
v 1310.511474609375 2479.756591796875 560.271240234375
v 1281.7821044921875 2431.283203125 560.271240234375
v 1281.7822265625 2431.283447265625 739.9762573242188
v 1252.166748046875 2381.314697265625 739.9762573242188
v 1281.064208984375 2430.072021484375 739.9762573242188
v 1281.0643310546875 2430.072265625 560.271240234375
v 1252.1666259765625 2381.314453125 560.271240234375
vt 0.251220703125 0.9884872436523438
vt 0.251220703125 0.22509765625
vt 0.497802734375 0.22509765625
vt 0.497802734375 0.22509765625
vt 0.497802734375 0.9884872436523438
vt 0.251220703125 0.9884872436523438
vt 0.2491455078125 0.9884872436523438
vt 0.00260162353515625 0.9884872436523438
vt 0.00260162353515625 0.22509765625
vt 0.00260162353515625 0.22509765625
vt 0.2491455078125 0.22509765625
vt 0.2491455078125 0.9884872436523438
vn -0.860257089138031 0.5098603963851929 -8.736978429624287e-08
vn -0.8602572679519653 0.5098601579666138 0.0
vn -0.8602572679519653 0.5098602175712585 -2.0950970736066665e-08
vn -0.8602571487426758 0.5098605155944824 -1.0832084740286518e-07
vn -0.860258936882019 0.5098575949668884 6.618504500011113e-08
vn -0.8602588176727295 0.5098576545715332 1.0831588070914222e-07
vn -0.8602590560913086 0.509857177734375 -6.618434866823009e-08
vn -0.8602591753005981 0.5098571181297302 -1.0831483621132065e-07
f 1/1/1 2/2/2 3/3/3
f 3/4/3 4/5/4 1/6/1
f 5/7/5 6/8/6 7/9/7
f 7/10/7 8/11/8 5/12/5
