# Exported by Lightwave Blender addon
v 478.1319274902344 -258.1197509765625 1006.9231567382812
v 425.4976806640625 -238.00311279296875 1006.9231567382812
v 478.1319885253906 -258.1197204589844 826.6896362304688
v 425.49774169921875 -238.0030975341797 826.6896362304688
v 532.389892578125 -278.85693359375 826.6896362304688
v 532.3898315429688 -278.8570251464844 1006.9231567382812
v 479.44720458984375 -258.6224670410156 826.6896362304688
v 479.4471740722656 -258.6224670410156 1006.9231567382812
vt 0.497802734375 0.9884872436523438
vt 0.251220703125 0.9884872436523438
vt 0.497802734375 0.22509765625
vt 0.251220703125 0.9884872436523438
vt 0.251220703125 0.22509765625
vt 0.497802734375 0.22509765625
vt 0.2491455078125 0.22509765625
vt 0.2491455078125 0.9884872436523438
vt 0.00260162353515625 0.22509765625
vt 0.2491455078125 0.9884872436523438
vt 0.00260162353515625 0.9884872436523438
vt 0.00260162353515625 0.22509765625
vn -0.3570101857185364 -0.9341005086898804 -2.7645691602629086e-07
vn -0.3570101261138916 -0.9341005682945251 -2.6170610567533004e-07
vn -0.3570099174976349 -0.9341005682945251 -2.1473246647474298e-07
vn -0.3570099174976349 -0.9341006278991699 -1.9998167033463687e-07
vn -0.35700929164886475 -0.9341008067131042 -5.953920663159806e-07
vn -0.35701054334640503 -0.934100329875946 -1.6419957660218643e-07
vn -0.357009619474411 -0.9341007471084595 -4.916424813927733e-07
vn -0.3570109009742737 -0.9341002106666565 -6.044994904641499e-08
f 1/1/1 2/2/2 3/3/3
f 2/4/2 4/5/4 3/6/3
f 5/7/5 6/8/6 7/9/7
f 6/10/6 8/11/8 7/12/7
