# Exported by Lightwave Blender addon
v -128.0430908203125 -1333.12646484375 818.460693359375
v -128.59022521972656 -1331.8223876953125 817.4608154296875
v -127.81471252441406 -1332.56787109375 819.378662109375
v -150.48983764648438 -1388.0208740234375 819.3779907226562
v -151.56687927246094 -1388.012939453125 817.4616088867188
v -150.26284790039062 -1387.4658203125 818.4615478515625
v -152.67593383789062 -1333.2752685546875 842.3802490234375
v -158.30699157714844 -1328.634033203125 835.4655151367188
v -167.99917602539062 -1370.7489013671875 842.3804321289062
v -175.00604248046875 -1369.4720458984375 835.4655151367188
v -132.2388916015625 -1343.3914794921875 848.9688720703125
v -146.5056915283203 -1337.5587158203125 848.9678344726562
v -146.27430725097656 -1377.7156982421875 848.9683837890625
v -160.53965759277344 -1371.8809814453125 848.9672241210938
v -148.0113067626953 -1336.767578125 848.2468872070312
v -162.17318725585938 -1371.402587890625 848.2462768554688
v -128.9691925048828 -1332.7479248046875 771.4760131835938
v -151.1888885498047 -1387.087158203125 771.4768676757812
v -155.48175048828125 -1321.9073486328125 771.4771728515625
v -177.29833984375 -1376.40576171875 771.476806640625
v -155.10963439941406 -1320.9788818359375 817.4619140625
v -155.110107421875 -1320.9788818359375 772.4771728515625
v -128.5906982421875 -1331.822265625 772.47607421875
v -128.0435791015625 -1333.12646484375 772.4760131835938
v -150.26333618164062 -1387.4658203125 772.4768676757812
v -177.66954040527344 -1377.334228515625 817.4615478515625
v -151.56736755371094 -1388.0126953125 772.4768676757812
v -177.67001342773438 -1377.3341064453125 772.4768676757812
v -178.22390747070312 -1376.027099609375 772.4768676757812
v -156.40736389160156 -1321.52880859375 772.4772338867188
v -156.40687561035156 -1321.5289306640625 818.4618530273438
v -177.52938842773438 -1376.9588623046875 819.3779907226562
v -175.1774444580078 -1370.65771484375 834.7610473632812
v -147.9464874267578 -1381.80029296875 834.760986328125
v -167.45245361328125 -1372.053955078125 842.3804321289062
v -147.3339385986328 -1380.30615234375 842.3805541992188
v -161.53932189941406 -1372.8359375 848.002197265625
v -146.75254821777344 -1378.885009765625 848.003662109375
v -146.55953979492188 -1336.1966552734375 847.9970703125
v -131.76939392089844 -1342.2430419921875 847.998291015625
v -151.37176513671875 -1332.7279052734375 842.3802490234375
v -131.2425994873047 -1340.953857421875 842.3803100585938
v -157.56614685058594 -1327.5888671875 834.76123046875
v -130.32981872558594 -1338.718017578125 834.7611083984375
v -155.24777221679688 -1321.3509521484375 819.3798828125
v -178.22341918945312 -1376.0272216796875 818.4615478515625
v -158.73822021484375 -1327.819580078125 833.7611694335938
v -175.85809326171875 -1369.6724853515625 833.7611083984375
vt -0.8857421875 0.557861328125
vt -0.890625 0.562744140625
vt -0.888671875 0.55322265625
vt -0.5888671875 0.55322265625
vt -0.5869140625 0.562744140625
vt -0.591796875 0.557861328125
vt -0.83837890625 0.46240234375
vt -0.84912109375 0.427734375
vt -0.6357421875 0.46240234375
vt -0.84912109375 0.427734375
vt -0.62841796875 0.427734375
vt -0.6357421875 0.46240234375
vt -0.830078125 0.576171875
vt -0.830078125 0.49951171875
vt -0.64453125 0.576171875
vt -0.830078125 0.49951171875
vt -0.64453125 0.49951171875
vt -0.64453125 0.576171875
vt 1.8310546875 0.4091796875
vt 1.837890625 0.4384765625
vt 1.6435546875 0.4091796875
vt 1.837890625 0.4384765625
vt 1.6357421875 0.4384765625
vt 1.6435546875 0.4091796875
vt 1.8857421875 0.5712890625
vt 1.591796875 0.5712890625
vt 1.8857421875 0.42822265625
vt 1.591796875 0.5712890625
vt 1.591796875 0.43017578125
vt 1.8857421875 0.42822265625
vt 0.427734375 0.562744140625
vt 0.57080078125 0.562744140625
vt 0.427734375 0.78759765625
vt 0.57080078125 0.562744140625
vt 0.57080078125 0.7877197265625
vt 0.427734375 0.78759765625
vt -0.8857421875 0.557861328125
vt -0.591796875 0.557861328125
vt -0.8857421875 0.7877197265625
vt -0.591796875 0.557861328125
vt -0.591796875 0.78759765625
vt -0.8857421875 0.7877197265625
vt 0.4287109375 0.562744140625
vt 0.56982421875 0.562744140625
vt 0.4287109375 0.78759765625
vt 0.56982421875 0.562744140625
vt 0.56982421875 0.78759765625
vt 0.4287109375 0.78759765625
vt 1.591796875 0.7926025390625
vt 1.591796875 0.78759765625
vt 1.8857421875 0.7926025390625
vt 1.591796875 0.78759765625
vt 1.8857421875 0.78759765625
vt 1.8857421875 0.7926025390625
vt 1.8857421875 0.557861328125
vt 1.890625 0.562744140625
vt 1.8857421875 0.78759765625
vt 1.890625 0.562744140625
vt 1.890625 0.78759765625
vt 1.8857421875 0.78759765625
vt 0.423828125 0.557861328125
vt 0.4287109375 0.562744140625
vt 0.423828125 0.78759765625
vt 0.4287109375 0.562744140625
vt 0.4287109375 0.78759765625
vt 0.423828125 0.78759765625
vt 0.56982421875 0.55322265625
vt 0.423828125 0.55322265625
vt 0.57080078125 0.4765625
vt 0.423828125 0.55322265625
vt 0.423828125 0.4765625
vt 0.57080078125 0.4765625
vt 0.57080078125 0.4765625
vt 0.423828125 0.4765625
vt 0.5322265625 0.4384765625
vt 0.423828125 0.4765625
vt 0.423828125 0.4384765625
vt 0.5322265625 0.4384765625
vt 0.5322265625 0.4384765625
vt 0.423828125 0.4384765625
vt 0.50341796875 0.41015625
vt 0.423828125 0.4384765625
vt 0.423828125 0.41015625
vt 0.50341796875 0.41015625
vt 0.49609375 0.41015625
vt 0.57568359375 0.41015625
vt 0.46728515625 0.4384765625
vt 0.57568359375 0.41015625
vt 0.57568359375 0.4384765625
vt 0.46728515625 0.4384765625
vt 0.46728515625 0.4384765625
vt 0.57568359375 0.4384765625
vt 0.428955078125 0.4765625
vt 0.57568359375 0.4384765625
vt 0.57568359375 0.4765625
vt 0.428955078125 0.4765625
vt 0.428955078125 0.4765625
vt 0.57568359375 0.4765625
vt 0.427734375 0.55322265625
vt 0.57568359375 0.4765625
vt 0.57568359375 0.55322265625
vt 0.427734375 0.55322265625
vt 0.57568359375 0.7877197265625
vt 0.57080078125 0.7926025390625
vt 0.57080078125 0.7877197265625
vt 0.57568359375 0.557861328125
vt 0.57568359375 0.7877197265625
vt 0.57080078125 0.7877197265625
vt 0.57080078125 0.562744140625
vt 0.57568359375 0.557861328125
vt 0.57080078125 0.7877197265625
vt -0.62841796875 0.427734375
vt -0.62255859375 0.42919921875
vt -0.6357421875 0.46240234375
vt -0.62255859375 0.42919921875
vt -0.630859375 0.4677734375
vt -0.6357421875 0.46240234375
vt -0.6357421875 0.46240234375
vt -0.630859375 0.4677734375
vt -0.64404296875 0.49072265625
vt -0.630859375 0.4677734375
vt -0.63818359375 0.49658203125
vt -0.64404296875 0.49072265625
vt -0.63818359375 0.576171875
vt -0.64453125 0.576171875
vt -0.63818359375 0.49658203125
vt -0.64453125 0.576171875
vt -0.64453125 0.49951171875
vt -0.63818359375 0.49658203125
vt -0.63818359375 0.49658203125
vt -0.64453125 0.49951171875
vt -0.64404296875 0.49072265625
vt -0.8310546875 0.49072265625
vt -0.64404296875 0.49072265625
vt -0.64453125 0.49951171875
vt -0.830078125 0.49951171875
vt -0.8310546875 0.49072265625
vt -0.64453125 0.49951171875
vt -0.830078125 0.576171875
vt -0.83642578125 0.576171875
vt -0.830078125 0.49951171875
vt -0.83642578125 0.576171875
vt -0.83642578125 0.49658203125
vt -0.830078125 0.49951171875
vt -0.8310546875 0.49072265625
vt -0.830078125 0.49951171875
vt -0.83642578125 0.49658203125
vt -0.8310546875 0.49072265625
vt -0.83642578125 0.49658203125
vt -0.83837890625 0.46240234375
vt -0.83642578125 0.49658203125
vt -0.84326171875 0.4677734375
vt -0.83837890625 0.46240234375
vt -0.83837890625 0.46240234375
vt -0.84326171875 0.4677734375
vt -0.84912109375 0.427734375
vt -0.84326171875 0.4677734375
vt -0.85546875 0.42919921875
vt -0.84912109375 0.427734375
vt 1.8857421875 0.5712890625
vt 1.8857421875 0.576171875
vt 1.591796875 0.5712890625
vt 1.8857421875 0.576171875
vt 1.591796875 0.576171875
vt 1.591796875 0.5712890625
vt 1.5869140625 0.5712890625
vt 1.591796875 0.5712890625
vt 1.591796875 0.576171875
vt 0.4287109375 0.7926025390625
vt 0.4287109375 0.78759765625
vt 0.56982421875 0.7926025390625
vt 0.4287109375 0.78759765625
vt 0.56982421875 0.78759765625
vt 0.56982421875 0.7926025390625
vt 0.57470703125 0.78759765625
vt 0.56982421875 0.7926025390625
vt 0.56982421875 0.78759765625
vt 0.57470703125 0.557861328125
vt 0.57470703125 0.78759765625
vt 0.56982421875 0.78759765625
vt 0.56982421875 0.562744140625
vt 0.57470703125 0.557861328125
vt 0.56982421875 0.78759765625
vt 0.57470703125 0.557861328125
vt 0.56982421875 0.562744140625
vt 0.56982421875 0.55322265625
vt 0.423828125 0.55322265625
vt 0.56982421875 0.55322265625
vt 0.56982421875 0.562744140625
vt 0.4287109375 0.562744140625
vt 0.423828125 0.55322265625
vt 0.56982421875 0.562744140625
vt 0.427734375 0.55322265625
vt 0.427734375 0.562744140625
vt 0.4228515625 0.557861328125
vt 0.427734375 0.562744140625
vt 0.427734375 0.55322265625
vt 0.57080078125 0.562744140625
vt 0.427734375 0.55322265625
vt 0.57568359375 0.55322265625
vt 0.57080078125 0.562744140625
vt 1.890625 0.42822265625
vt 1.8857421875 0.42822265625
vt 1.8857421875 0.42333984375
vt 1.8857421875 0.42822265625
vt 1.890625 0.42822265625
vt 1.8857421875 0.5712890625
vt 1.890625 0.42822265625
vt 1.890625 0.5712890625
vt 1.8857421875 0.5712890625
vt 1.85546875 0.4765625
vt 1.888671875 0.55322265625
vt 1.8857421875 0.557861328125
vt 1.8515625 0.4814453125
vt 1.85546875 0.4765625
vt 1.8857421875 0.557861328125
vt 1.85546875 0.4765625
vt 1.8515625 0.4814453125
vt 1.8486328125 0.47265625
vt 1.6279296875 0.47265625
vt 1.8486328125 0.47265625
vt 1.8515625 0.4814453125
vt 1.6259765625 0.4814453125
vt 1.6279296875 0.47265625
vt 1.8515625 0.4814453125
vt 1.6259765625 0.4814453125
vt 1.6220703125 0.4765625
vt 1.6279296875 0.47265625
vt 1.5888671875 0.55322265625
vt 1.6220703125 0.4765625
vt 1.6259765625 0.4814453125
vt 1.591796875 0.557861328125
vt 1.5888671875 0.55322265625
vt 1.6259765625 0.4814453125
vt 1.8515625 0.4814453125
vt 1.8857421875 0.557861328125
vt 1.6259765625 0.4814453125
vt 1.8857421875 0.557861328125
vt 1.591796875 0.557861328125
vt 1.6259765625 0.4814453125
vt 1.591796875 0.557861328125
vt 1.8857421875 0.557861328125
vt 1.591796875 0.78759765625
vt 1.8857421875 0.557861328125
vt 1.8857421875 0.78759765625
vt 1.591796875 0.78759765625
vn 0.99017333984375 0.007147390861064196 -0.13966256380081177
vn 0.6727293133735657 0.7386192083358765 0.04332329332828522
vn 0.5775894522666931 0.7960248589515686 0.18092820048332214
vn -0.1455414593219757 -0.972103476524353 0.18393610417842865
vn -0.037774063646793365 -0.9983052015304565 0.04427115246653557
vn 0.7012398838996887 -0.6991801261901855 -0.13931936025619507
vn -0.49072080850601196 0.49418261647224426 0.7176187038421631
vn -0.6148884296417236 0.5136067271232605 0.5984316468238831
vn -0.7067458033561707 -0.016107073053717613 0.7072842121124268
vn -0.8063883781433105 0.05854891240596771 0.5884810090065002
vn 0.12325462698936462 0.30164605379104614 0.945419430732727
vn -0.04141838103532791 0.329534113407135 0.9432347416877747
vn -0.1213732361793518 -0.2964940071105957 0.94729083776474
vn -0.2584196627140045 -0.20121867954730988 0.9448440670967102
vn -0.37907519936561584 0.4721219539642334 0.795866072177887
vn -0.5937396883964539 -0.06259147077798843 0.8022191524505615
vn 0.4454379677772522 0.18690064549446106 -0.8755872845649719
vn 0.18683473765850067 -0.44547685980796814 -0.8755816221237183
vn -0.1882948875427246 0.44411346316337585 -0.8759613037109375
vn -0.4454473853111267 -0.1887843757867813 -0.8751782774925232
vn 0.016469864174723625 0.9967015385627747 0.07946585863828659
vn 0.013234634883701801 0.9396663308143616 -0.3418360650539398
vn 0.6475630402565002 0.6811618208885193 -0.34158551692962646
vn 0.9397231936454773 -0.01524040475487709 -0.3415963053703308
vn 0.6811031103134155 -0.6476209759712219 -0.3415926396846771
vn -0.6836086511611938 -0.7255282402038574 0.07929730415344238
vn -0.015363484621047974 -0.9397260546684265 -0.3415828049182892
vn -0.6463029384613037 -0.682490348815918 -0.3413199186325073
vn -0.9398889541625977 0.01029134914278984 -0.34132498502731323
vn -0.6845279335975647 0.64388507604599 -0.34180936217308044
vn -0.6623695492744446 0.7422512173652649 0.10163585841655731
vn -0.6551951766014099 -0.6956394910812378 0.2946271300315857
vn -0.7099481821060181 -0.5349906086921692 0.4579942524433136
vn -0.36088797450065613 -0.8811008930206299 0.30564868450164795
vn -0.5810331702232361 -0.6578730344772339 0.479169636964798
vn -0.36853328347206116 -0.8993668556213379 0.235207200050354
vn -0.451739639043808 -0.6587026715278625 0.6016992926597595
vn -0.3141162693500519 -0.7677123546600342 0.5585237741470337
vn 0.13856355845928192 0.7969363927841187 0.5879562497138977
vn 0.31749385595321655 0.7768386602401733 0.5438007712364197
vn 0.037885721772909164 0.8505502939224243 0.524527370929718
vn 0.36406630277633667 0.8909211754798889 0.27150535583496094
vn -0.13004861772060394 0.8664120435714722 0.4820970296859741
vn 0.35442307591438293 0.8671729564666748 0.3498503565788269
vn 0.017772316932678223 0.9546298384666443 0.2972642183303833
vn -0.9925801157951355 -0.07591727375984192 0.09497997909784317
vn -0.7407873868942261 0.6182790398597717 0.262611985206604
vn -0.965871274471283 0.07112818211317062 0.24906538426876068
f 1/1/1 2/2/2 3/3/3
f 4/4/4 5/5/5 6/6/6
f 7/7/7 8/8/8 9/9/9
f 8/10/8 10/11/10 9/12/9
f 11/13/11 12/14/12 13/15/13
f 12/16/12 14/17/14 13/18/13
f 15/19/15 7/20/7 16/21/16
f 7/22/7 9/23/9 16/24/16
f 17/25/17 18/26/18 19/27/19
f 18/28/18 20/29/20 19/30/19
f 21/31/21 2/32/2 22/33/22
f 2/34/2 23/35/23 22/36/22
f 1/37/1 6/38/6 24/39/24
f 6/40/6 25/41/25 24/42/24
f 5/43/5 26/44/26 27/45/27
f 26/46/26 28/47/28 27/48/27
f 20/49/20 29/50/29 19/51/19
f 29/52/29 30/53/30 19/54/19
f 31/55/31 21/56/21 30/57/30
f 21/58/21 22/59/22 30/60/30
f 6/61/6 5/62/5 25/63/25
f 5/64/5 27/65/27 25/66/25
f 32/67/32 4/68/4 33/69/33
f 4/70/4 34/71/34 33/72/33
f 33/73/33 34/74/34 35/75/35
f 34/76/34 36/77/36 35/78/35
f 35/79/35 36/80/36 37/81/37
f 36/82/36 38/83/38 37/84/37
f 39/85/39 40/86/40 41/87/41
f 40/88/40 42/89/42 41/90/41
f 41/91/41 42/92/42 43/93/43
f 42/94/42 44/95/44 43/96/43
f 43/97/43 44/98/44 45/99/45
f 44/100/44 3/101/3 45/102/45
f 24/103/24 17/104/17 23/105/23
f 1/106/1 24/107/24 23/108/23
f 2/109/2 1/110/1 23/111/23
f 10/112/10 33/113/33 9/114/9
f 33/115/33 35/116/35 9/117/9
f 9/118/9 35/119/35 16/120/16
f 35/121/35 37/122/37 16/123/16
f 38/124/38 13/125/13 37/126/37
f 13/127/13 14/128/14 37/129/37
f 37/130/37 14/131/14 16/132/16
f 15/133/15 16/134/16 14/135/14
f 12/136/12 15/137/15 14/138/14
f 11/139/11 40/140/40 12/141/12
f 40/142/40 39/143/39 12/144/12
f 15/145/15 12/146/12 39/147/39
f 15/148/15 39/149/39 7/150/7
f 39/151/39 41/152/41 7/153/7
f 7/154/7 41/155/41 8/156/8
f 41/157/41 43/158/43 8/159/8
f 17/160/17 24/161/24 18/162/18
f 24/163/24 25/164/25 18/165/18
f 27/166/27 18/167/18 25/168/25
f 18/169/18 27/170/27 20/171/20
f 27/172/27 28/173/28 20/174/20
f 29/175/29 20/176/20 28/177/28
f 46/178/46 29/179/29 28/180/28
f 26/181/26 46/182/46 28/183/28
f 46/184/46 26/185/26 32/186/32
f 4/187/4 32/188/32 26/189/26
f 5/190/5 4/191/4 26/192/26
f 45/193/45 21/194/21 31/195/31
f 21/196/21 45/197/45 2/198/2
f 45/199/45 3/200/3 2/201/2
f 22/202/22 19/203/19 30/204/30
f 19/205/19 22/206/22 17/207/17
f 22/208/22 23/209/23 17/210/17
f 43/211/43 45/212/45 31/213/31
f 47/214/47 43/215/43 31/216/31
f 43/217/43 47/218/47 8/219/8
f 10/220/10 8/221/8 47/222/47
f 48/223/48 10/224/10 47/225/47
f 48/226/48 33/227/33 10/228/10
f 32/229/32 33/230/33 48/231/48
f 46/232/46 32/233/32 48/234/48
f 47/235/47 31/236/31 48/237/48
f 31/238/31 46/239/46 48/240/48
f 46/241/46 31/242/31 29/243/29
f 31/244/31 30/245/30 29/246/29
