# Exported by Lightwave Blender addon
v 2799.21923828125 -1201.748779296875 738.8737182617188
v 2799.21923828125 -1201.748779296875 559.168701171875
v 2851.56494140625 -1222.605224609375 559.168701171875
v 2851.56494140625 -1222.605224609375 738.8737182617188
v 2905.52490234375 -1244.10546875 738.8737182617188
v 2852.872802734375 -1223.1265869140625 738.8737182617188
v 2852.872802734375 -1223.12646484375 559.168701171875
v 2905.52490234375 -1244.10546875 559.168701171875
vt 0.251220703125 0.9884872436523438
vt 0.251220703125 0.22509765625
vt 0.497802734375 0.22509765625
vt 0.497802734375 0.22509765625
vt 0.497802734375 0.9884872436523438
vt 0.251220703125 0.9884872436523438
vt 0.2491455078125 0.9884872436523438
vt 0.00260162353515625 0.9884872436523438
vt 0.00260162353515625 0.22509765625
vt 0.00260162353515625 0.22509765625
vt 0.2491455078125 0.22509765625
vt 0.2491455078125 0.9884872436523438
vn -0.37013834714889526 -0.9289766550064087 0.0
vn -0.37013834714889526 -0.9289766550064087 0.0
vn -0.37013834714889526 -0.9289766550064087 0.0
vn -0.37013834714889526 -0.9289766550064087 0.0
vn -0.3701440989971161 -0.9289743304252625 -5.083106771053281e-07
vn -0.3701437711715698 -0.9289745092391968 -6.310352205218805e-07
vn -0.37014520168304443 -0.9289738535881042 -1.2272451499484305e-07
vn -0.37014561891555786 -0.9289737939834595 0.0
f 1/1/1 2/2/2 3/3/3
f 3/4/3 4/5/4 1/6/1
f 5/7/5 6/8/6 7/9/7
f 7/10/7 8/11/8 5/12/5
