# Exported by Lightwave Blender addon
v 62.73938751220703 -148.0389862060547 371.7373962402344
v 62.312129974365234 -147.87001037597656 376.9891052246094
v 34.6159782409668 -136.91546630859375 371.7373962402344
v 62.31212615966797 -147.87001037597656 366.4856872558594
v 61.04334259033203 -147.3681640625 382.08123779296875
v 61.0433349609375 -147.3681640625 361.3935546875
v 58.97156524658203 -146.54873657226562 386.85906982421875
v 58.971561431884766 -146.54872131347656 356.61572265625
v 56.15976333618164 -145.43658447265625 391.17742919921875
v 56.159751892089844 -145.43658447265625 352.2973327636719
v 52.693359375 -144.06553649902344 394.9051208496094
v 52.69335174560547 -144.06552124023438 348.56964111328125
v 48.67768478393555 -142.47723388671875 397.92889404296875
v 48.67767333984375 -142.47723388671875 345.5458984375
v 44.23474884033203 -140.71994018554688 400.1568298339844
v 44.234745025634766 -140.7199249267578 343.3179626464844
v 39.49956130981445 -138.8470458984375 401.5212707519531
v 39.499549865722656 -138.84703063964844 341.9535217285156
v 34.61598205566406 -136.91546630859375 401.9806823730469
v 34.615970611572266 -136.9154510498047 341.4940490722656
v 29.732402801513672 -134.98388671875 401.5212707519531
v 29.73239517211914 -134.98387145996094 341.9535217285156
v 24.99721336364746 -133.1110076904297 400.1568298339844
v 24.997201919555664 -133.11099243164062 343.3179626464844
v 20.554279327392578 -131.35369873046875 397.92889404296875
v 20.554269790649414 -131.35369873046875 345.5458984375
v 16.538604736328125 -129.76541137695312 394.9051208496094
v 16.538597106933594 -129.765380859375 348.5696716308594
v 13.072206497192383 -128.39434814453125 391.17742919921875
v 13.07219123840332 -128.39434814453125 352.29736328125
v 10.260398864746094 -127.2822036743164 386.85906982421875
v 10.260391235351562 -127.2822036743164 356.6157531738281
v 8.18862533569336 -126.46276092529297 382.08123779296875
v 8.188617706298828 -126.46275329589844 361.3935852050781
v 6.919834613800049 -125.9609146118164 376.9891052246094
v 6.919826984405518 -125.96092224121094 366.4857177734375
v 6.492575168609619 -125.79192352294922 371.7373962402344
vt 1.0 0.5
vt 0.9921875 0.5869140625
vt 0.499755859375 0.500244140625
vt 0.9921875 0.41357421875
vt 1.0 0.5
vt 0.499755859375 0.500244140625
vt 0.9921875 0.5869140625
vt 0.9697265625 0.671142578125
vt 0.499755859375 0.500244140625
vt 0.9697265625 0.3291015625
vt 0.9921875 0.41357421875
vt 0.499755859375 0.500244140625
vt 0.9697265625 0.671142578125
vt 0.9326171875 0.75
vt 0.499755859375 0.500244140625
vt 0.9326171875 0.25
vt 0.9697265625 0.3291015625
vt 0.499755859375 0.500244140625
vt 0.9326171875 0.75
vt 0.8828125 0.8214111328125
vt 0.499755859375 0.500244140625
vt 0.8828125 0.1787109375
vt 0.9326171875 0.25
vt 0.499755859375 0.500244140625
vt 0.8828125 0.8214111328125
vt 0.8212890625 0.883056640625
vt 0.499755859375 0.500244140625
vt 0.8212890625 0.1171875
vt 0.8828125 0.1787109375
vt 0.499755859375 0.500244140625
vt 0.8212890625 0.883056640625
vt 0.75 0.93304443359375
vt 0.499755859375 0.500244140625
vt 0.74951171875 0.0673828125
vt 0.8212890625 0.1171875
vt 0.499755859375 0.500244140625
vt 0.75 0.93304443359375
vt 0.6708984375 0.9698486328125
vt 0.499755859375 0.500244140625
vt 0.6708984375 0.0302734375
vt 0.74951171875 0.0673828125
vt 0.499755859375 0.500244140625
vt 0.6708984375 0.9698486328125
vt 0.58642578125 0.9924049377441406
vt 0.499755859375 0.500244140625
vt 0.58642578125 0.0078125
vt 0.6708984375 0.0302734375
vt 0.499755859375 0.500244140625
vt 0.58642578125 0.9924049377441406
vt 0.5 1.0
vt 0.499755859375 0.500244140625
vt 0.499755859375 0.0
vt 0.58642578125 0.0078125
vt 0.499755859375 0.500244140625
vt 0.5 1.0
vt 0.4130859375 0.9924049377441406
vt 0.499755859375 0.500244140625
vt 0.4130859375 0.0078125
vt 0.499755859375 0.0
vt 0.499755859375 0.500244140625
vt 0.4130859375 0.9924049377441406
vt 0.328857421875 0.9698486328125
vt 0.499755859375 0.500244140625
vt 0.328857421875 0.0302734375
vt 0.4130859375 0.0078125
vt 0.499755859375 0.500244140625
vt 0.328857421875 0.9698486328125
vt 0.25 0.93304443359375
vt 0.499755859375 0.500244140625
vt 0.2498779296875 0.0673828125
vt 0.328857421875 0.0302734375
vt 0.499755859375 0.500244140625
vt 0.25 0.93304443359375
vt 0.1785888671875 0.883056640625
vt 0.499755859375 0.500244140625
vt 0.1785888671875 0.1171875
vt 0.2498779296875 0.0673828125
vt 0.499755859375 0.500244140625
vt 0.1785888671875 0.883056640625
vt 0.116943359375 0.8214111328125
vt 0.499755859375 0.500244140625
vt 0.116943359375 0.1787109375
vt 0.1785888671875 0.1171875
vt 0.499755859375 0.500244140625
vt 0.116943359375 0.8214111328125
vt 0.06695556640625 0.7501220703125
vt 0.499755859375 0.500244140625
vt 0.06695556640625 0.25048828125
vt 0.116943359375 0.1787109375
vt 0.499755859375 0.500244140625
vt 0.06695556640625 0.7501220703125
vt 0.0301513671875 0.671142578125
vt 0.499755859375 0.500244140625
vt 0.0301513671875 0.3291015625
vt 0.06695556640625 0.25048828125
vt 0.499755859375 0.500244140625
vt 0.0301513671875 0.671142578125
vt 0.007595062255859375 0.5869140625
vt 0.499755859375 0.500244140625
vt 0.007595062255859375 0.41357421875
vt 0.0301513671875 0.3291015625
vt 0.499755859375 0.500244140625
vt 0.007595062255859375 0.5869140625
vt 0.0 0.500244140625
vt 0.499755859375 0.500244140625
vt 0.0 0.500244140625
vt 0.007595062255859375 0.41357421875
vt 0.499755859375 0.500244140625
vn -0.367800772190094 -0.9299046397209167 1.350984462078486e-07
vn -0.36780112981796265 -0.9299044609069824 -6.514754318232008e-07
vn -0.3678012490272522 -0.9299044609069824 -1.3158916090105777e-07
vn -0.36780112981796265 -0.9299045205116272 9.216747116624902e-07
vn -0.36780089139938354 -0.929904580116272 -4.0529965872337925e-07
vn -0.36780136823654175 -0.9299043416976929 -8.346132176484389e-07
vn -0.3678012788295746 -0.9299044609069824 -2.581899138931476e-07
vn -0.36780092120170593 -0.929904580116272 1.6812238357033493e-07
vn -0.3678015172481537 -0.9299042820930481 6.124526521489315e-07
vn -0.3678014874458313 -0.9299042820930481 -4.2031123825836403e-07
vn -0.36780092120170593 -0.9299045205116272 -2.5218545829375216e-07
vn -0.36780068278312683 -0.9299046993255615 -4.2030535496451193e-08
vn -0.36780107021331787 -0.9299045205116272 -1.0207503464698675e-07
vn -0.36780115962028503 -0.9299043416976929 1.5611733772402658e-07
vn -0.3678015172481537 -0.9299043416976929 4.503319317450405e-08
vn -0.3678025007247925 -0.9299038648605347 -9.006618029161473e-07
vn -0.3678014576435089 -0.9299043416976929 1.5829569122161047e-07
vn -0.36780115962028503 -0.9299044609069824 -4.3531960614018317e-07
vn -0.36780086159706116 -0.9299046397209167 4.421151800215739e-08
vn -0.3678010404109955 -0.9299045205116272 -3.7733104818471475e-07
vn -0.36780020594596863 -0.9299048185348511 1.7112631667259848e-07
vn -0.36780020594596863 -0.9299047589302063 -5.484567964231246e-07
vn -0.36780136823654175 -0.9299043416976929 -4.263125390480127e-07
vn -0.3678002655506134 -0.9299048185348511 -3.722738313172158e-07
vn -0.36780112981796265 -0.9299044609069824 1.5010942888693535e-07
vn -0.36780229210853577 -0.929904043674469 6.965101988498645e-07
vn -0.36780086159706116 -0.9299046397209167 -1.7412843078545848e-07
vn -0.3678011894226074 -0.9299045205116272 -6.064486228751775e-07
vn -0.3678019940853119 -0.9299041032791138 -1.0327596555725904e-06
vn -0.3678002655506134 -0.9299047589302063 -9.246829790754418e-07
vn -0.3678014576435089 -0.9299043416976929 -3.3624766615503177e-07
vn -0.36780187487602234 -0.9299041628837585 1.194878223031992e-06
vn -0.36780160665512085 -0.9299042820930481 -7.535537065450626e-07
vn -0.3678015172481537 -0.9299042820930481 6.604865632198198e-08
vn -0.36780163645744324 -0.9299042820930481 -4.413243175349635e-07
vn -0.3678012788295746 -0.9299044609069824 9.607451545434742e-08
vn -0.3678014874458313 -0.9299042820930481 9.426961469216621e-07
f 1/1/1 2/2/2 3/3/3
f 4/4/4 1/5/1 3/6/3
f 2/7/2 5/8/5 3/9/3
f 6/10/6 4/11/4 3/12/3
f 5/13/5 7/14/7 3/15/3
f 8/16/8 6/17/6 3/18/3
f 7/19/7 9/20/9 3/21/3
f 10/22/10 8/23/8 3/24/3
f 9/25/9 11/26/11 3/27/3
f 12/28/12 10/29/10 3/30/3
f 11/31/11 13/32/13 3/33/3
f 14/34/14 12/35/12 3/36/3
f 13/37/13 15/38/15 3/39/3
f 16/40/16 14/41/14 3/42/3
f 15/43/15 17/44/17 3/45/3
f 18/46/18 16/47/16 3/48/3
f 17/49/17 19/50/19 3/51/3
f 20/52/20 18/53/18 3/54/3
f 19/55/19 21/56/21 3/57/3
f 22/58/22 20/59/20 3/60/3
f 21/61/21 23/62/23 3/63/3
f 24/64/24 22/65/22 3/66/3
f 23/67/23 25/68/25 3/69/3
f 26/70/26 24/71/24 3/72/3
f 25/73/25 27/74/27 3/75/3
f 28/76/28 26/77/26 3/78/3
f 27/79/27 29/80/29 3/81/3
f 30/82/30 28/83/28 3/84/3
f 29/85/29 31/86/31 3/87/3
f 32/88/32 30/89/30 3/90/3
f 31/91/31 33/92/33 3/93/3
f 34/94/34 32/95/32 3/96/3
f 33/97/33 35/98/35 3/99/3
f 36/100/36 34/101/34 3/102/3
f 35/103/35 37/104/37 3/105/3
f 37/106/37 36/107/36 3/108/3
