# Exported by Lightwave Blender addon
v -197.02879333496094 -457.0520324707031 451.2774353027344
v -202.60205078125 -452.221923828125 451.2774353027344
v -204.05299377441406 -455.20819091796875 414.81219482421875
v -199.7784881591797 -458.9127197265625 414.81219482421875
v -194.61729431152344 -464.0216979980469 451.2774353027344
v -197.928955078125 -464.2582092285156 414.81219482421875
v -196.01370239257812 -471.2633361816406 451.2774353027344
v -198.9999542236328 -469.81231689453125 414.81219482421875
v -200.84385681152344 -476.8365173339844 451.2774353027344
v -202.70452880859375 -474.08685302734375 414.81219482421875
v -207.81349182128906 -479.248046875 451.2774353027344
v -208.05001831054688 -475.9363708496094 414.81219482421875
v -215.05511474609375 -477.85162353515625 451.2774353027344
v -213.60414123535156 -474.8653869628906 414.81219482421875
v -220.6283721923828 -473.021484375 451.2774353027344
v -217.87864685058594 -471.1607971191406 414.81219482421875
v -223.0398406982422 -466.0518493652344 451.2774353027344
v -219.7281951904297 -465.8153381347656 414.81219482421875
v -221.64346313476562 -458.8102111816406 451.2774353027344
v -218.6571807861328 -460.2611999511719 414.81219482421875
v -216.81329345703125 -453.23699951171875 451.2774353027344
v -214.95262145996094 -455.98675537109375 414.81219482421875
v -209.84365844726562 -450.82550048828125 451.2774353027344
v -209.60708618164062 -454.1371765136719 414.81219482421875
v -200.7482147216797 -455.7132873535156 414.81219482421875
v -203.4964599609375 -454.0627746582031 414.81219482421875
v -201.8763885498047 -450.7284851074219 451.2774353027344
v -198.29315185546875 -452.8805236816406 451.2774353027344
v -195.6536865234375 -456.12152099609375 451.2774353027344
v -198.72381591796875 -458.19903564453125 414.81219482421875
v -197.16905212402344 -461.0025939941406 414.81219482421875
v -193.6265106201172 -459.7768859863281 451.2774353027344
v -192.96115112304688 -463.9034118652344 451.2774353027344
v -196.6587371826172 -464.1675109863281 414.81219482421875
v -196.71401977539062 -467.3728332519531 414.81219482421875
v -193.03323364257812 -468.0826110839844 451.2774353027344
v -194.52029418945312 -471.98895263671875 451.2774353027344
v -197.8545684814453 -470.36883544921875 414.81219482421875
v -199.50509643554688 -473.1171569824219 414.81219482421875
v -196.6723175048828 -475.57220458984375 451.2774353027344
v -199.913330078125 -478.2117004394531 451.2774353027344
v -201.9908447265625 -475.14154052734375 414.81219482421875
v -204.79437255859375 -476.6962585449219 414.81219482421875
v -203.56866455078125 -480.2388000488281 451.2774353027344
v -207.6951904296875 -480.9041748046875 451.2774353027344
v -207.95928955078125 -477.20660400390625 414.81219482421875
v -211.16461181640625 -477.1513366699219 414.81219482421875
v -211.8743896484375 -480.8321228027344 451.2774353027344
v -215.78074645996094 -479.34503173828125 451.2774353027344
v -214.16064453125 -476.0107727050781 414.81219482421875
v -216.90890502929688 -474.3602600097656 414.81219482421875
v -219.36399841308594 -477.19305419921875 451.2774353027344
v -222.00347900390625 -473.9520263671875 451.2774353027344
v -218.93331909179688 -471.87451171875 414.81219482421875
v -220.4880828857422 -469.07098388671875 414.81219482421875
v -224.0306396484375 -470.2966613769531 451.2774353027344
v -224.69598388671875 -466.170166015625 451.2774353027344
v -220.99838256835938 -465.9060363769531 414.81219482421875
v -220.94309997558594 -462.70074462890625 414.81219482421875
v -224.62391662597656 -461.99090576171875 451.2774353027344
v -223.1368865966797 -458.0846252441406 451.2774353027344
v -219.80258178710938 -459.7046813964844 414.81219482421875
v -218.15203857421875 -456.9564208984375 414.81219482421875
v -220.9848175048828 -454.5013122558594 451.2774353027344
v -217.74380493164062 -451.8618469238281 451.2774353027344
v -215.66627502441406 -454.9320373535156 414.81219482421875
v -212.8627471923828 -453.37725830078125 414.81219482421875
v -214.08847045898438 -449.834716796875 451.2774353027344
v -209.96197509765625 -449.16937255859375 451.2774353027344
v -209.69784545898438 -452.866943359375 414.81219482421875
v -206.49252319335938 -452.9222717285156 414.81219482421875
v -205.78274536132812 -449.241455078125 451.2774353027344
vt 0.0927734375 0.09716796875
vt 0.0162200927734375 0.09716796875
vt 0.0162200927734375 0.9044189453125
vt 0.0162200927734375 0.9044189453125
vt 0.0927734375 0.9044189453125
vt 0.0927734375 0.09716796875
vt 0.1728515625 0.09716796875
vt 0.0927734375 0.09716796875
vt 0.0927734375 0.9044189453125
vt 0.0927734375 0.9044189453125
vt 0.1728515625 0.9044189453125
vt 0.1728515625 0.09716796875
vt 0.2529296875 0.09716796875
vt 0.1728515625 0.09716796875
vt 0.1728515625 0.9044189453125
vt 0.1728515625 0.9044189453125
vt 0.2529296875 0.9044189453125
vt 0.2529296875 0.09716796875
vt 0.3330078125 0.09716796875
vt 0.2529296875 0.09716796875
vt 0.2529296875 0.9044189453125
vt 0.2529296875 0.9044189453125
vt 0.3330078125 0.9044189453125
vt 0.3330078125 0.09716796875
vt 0.4130859375 0.09716796875
vt 0.3330078125 0.09716796875
vt 0.3330078125 0.9044189453125
vt 0.3330078125 0.9044189453125
vt 0.4130859375 0.9044189453125
vt 0.4130859375 0.09716796875
vt 0.4931640625 0.09716796875
vt 0.4130859375 0.09716796875
vt 0.4130859375 0.9044189453125
vt 0.4130859375 0.9044189453125
vt 0.4931640625 0.9044189453125
vt 0.4931640625 0.09716796875
vt 0.5732421875 0.09716796875
vt 0.4931640625 0.09716796875
vt 0.4931640625 0.9044189453125
vt 0.4931640625 0.9044189453125
vt 0.5732421875 0.9044189453125
vt 0.5732421875 0.09716796875
vt 0.6533203125 0.09716796875
vt 0.5732421875 0.09716796875
vt 0.5732421875 0.9044189453125
vt 0.5732421875 0.9044189453125
vt 0.6533203125 0.9044189453125
vt 0.6533203125 0.09716796875
vt 0.7333984375 0.09716796875
vt 0.6533203125 0.09716796875
vt 0.6533203125 0.9044189453125
vt 0.6533203125 0.9044189453125
vt 0.7333984375 0.9044189453125
vt 0.7333984375 0.09716796875
vt 0.8134765625 0.09716796875
vt 0.7333984375 0.09716796875
vt 0.7333984375 0.9044189453125
vt 0.7333984375 0.9044189453125
vt 0.8134765625 0.9044189453125
vt 0.8134765625 0.09716796875
vt 0.8935546875 0.09716796875
vt 0.8134765625 0.09716796875
vt 0.8134765625 0.9044189453125
vt 0.8134765625 0.9044189453125
vt 0.8935546875 0.9044189453125
vt 0.8935546875 0.09716796875
vt 0.984375 0.09716796875
vt 0.8935546875 0.09716796875
vt 0.8935546875 0.9044189453125
vt 0.8935546875 0.9044189453125
vt 0.984375 0.9044189453125
vt 0.984375 0.09716796875
vt 0.05450439453125 0.9044189453125
vt 0.0162200927734375 0.9044189453125
vt 0.0162200927734375 0.09716796875
vt 0.0162200927734375 0.09716796875
vt 0.05450439453125 0.09716796875
vt 0.05450439453125 0.9044189453125
vt 0.05450439453125 0.9044189453125
vt 0.05450439453125 0.09716796875
vt 0.0927734375 0.09716796875
vt 0.0927734375 0.09716796875
vt 0.0927734375 0.9044189453125
vt 0.05450439453125 0.9044189453125
vt 0.1328125 0.9044189453125
vt 0.0927734375 0.9044189453125
vt 0.0927734375 0.09716796875
vt 0.0927734375 0.09716796875
vt 0.1328125 0.09716796875
vt 0.1328125 0.9044189453125
vt 0.1328125 0.9044189453125
vt 0.1328125 0.09716796875
vt 0.1728515625 0.09716796875
vt 0.1728515625 0.09716796875
vt 0.1728515625 0.9044189453125
vt 0.1328125 0.9044189453125
vt 0.212890625 0.9044189453125
vt 0.1728515625 0.9044189453125
vt 0.1728515625 0.09716796875
vt 0.1728515625 0.09716796875
vt 0.212890625 0.09716796875
vt 0.212890625 0.9044189453125
vt 0.212890625 0.9044189453125
vt 0.212890625 0.09716796875
vt 0.2529296875 0.09716796875
vt 0.2529296875 0.09716796875
vt 0.2529296875 0.9044189453125
vt 0.212890625 0.9044189453125
vt 0.29296875 0.9044189453125
vt 0.2529296875 0.9044189453125
vt 0.2529296875 0.09716796875
vt 0.2529296875 0.09716796875
vt 0.29296875 0.09716796875
vt 0.29296875 0.9044189453125
vt 0.29296875 0.9044189453125
vt 0.29296875 0.09716796875
vt 0.3330078125 0.09716796875
vt 0.3330078125 0.09716796875
vt 0.3330078125 0.9044189453125
vt 0.29296875 0.9044189453125
vt 0.373046875 0.9044189453125
vt 0.3330078125 0.9044189453125
vt 0.3330078125 0.09716796875
vt 0.3330078125 0.09716796875
vt 0.373046875 0.09716796875
vt 0.373046875 0.9044189453125
vt 0.373046875 0.9044189453125
vt 0.373046875 0.09716796875
vt 0.4130859375 0.09716796875
vt 0.4130859375 0.09716796875
vt 0.4130859375 0.9044189453125
vt 0.373046875 0.9044189453125
vt 0.453125 0.9044189453125
vt 0.4130859375 0.9044189453125
vt 0.4130859375 0.09716796875
vt 0.4130859375 0.09716796875
vt 0.453125 0.09716796875
vt 0.453125 0.9044189453125
vt 0.453125 0.9044189453125
vt 0.453125 0.09716796875
vt 0.4931640625 0.09716796875
vt 0.4931640625 0.09716796875
vt 0.4931640625 0.9044189453125
vt 0.453125 0.9044189453125
vt 0.533203125 0.9044189453125
vt 0.4931640625 0.9044189453125
vt 0.4931640625 0.09716796875
vt 0.4931640625 0.09716796875
vt 0.533203125 0.09716796875
vt 0.533203125 0.9044189453125
vt 0.533203125 0.9044189453125
vt 0.533203125 0.09716796875
vt 0.5732421875 0.09716796875
vt 0.5732421875 0.09716796875
vt 0.5732421875 0.9044189453125
vt 0.533203125 0.9044189453125
vt 0.61328125 0.9044189453125
vt 0.5732421875 0.9044189453125
vt 0.5732421875 0.09716796875
vt 0.5732421875 0.09716796875
vt 0.61328125 0.09716796875
vt 0.61328125 0.9044189453125
vt 0.61328125 0.9044189453125
vt 0.61328125 0.09716796875
vt 0.6533203125 0.09716796875
vt 0.6533203125 0.09716796875
vt 0.6533203125 0.9044189453125
vt 0.61328125 0.9044189453125
vt 0.693359375 0.9044189453125
vt 0.6533203125 0.9044189453125
vt 0.6533203125 0.09716796875
vt 0.6533203125 0.09716796875
vt 0.693359375 0.09716796875
vt 0.693359375 0.9044189453125
vt 0.693359375 0.9044189453125
vt 0.693359375 0.09716796875
vt 0.7333984375 0.09716796875
vt 0.7333984375 0.09716796875
vt 0.7333984375 0.9044189453125
vt 0.693359375 0.9044189453125
vt 0.7734375 0.9044189453125
vt 0.7333984375 0.9044189453125
vt 0.7333984375 0.09716796875
vt 0.7333984375 0.09716796875
vt 0.7734375 0.09716796875
vt 0.7734375 0.9044189453125
vt 0.7734375 0.9044189453125
vt 0.7734375 0.09716796875
vt 0.8134765625 0.09716796875
vt 0.8134765625 0.09716796875
vt 0.8134765625 0.9044189453125
vt 0.7734375 0.9044189453125
vt 0.853515625 0.9044189453125
vt 0.8134765625 0.9044189453125
vt 0.8134765625 0.09716796875
vt 0.8134765625 0.09716796875
vt 0.853515625 0.09716796875
vt 0.853515625 0.9044189453125
vt 0.853515625 0.9044189453125
vt 0.853515625 0.09716796875
vt 0.8935546875 0.09716796875
vt 0.8935546875 0.09716796875
vt 0.8935546875 0.9044189453125
vt 0.853515625 0.9044189453125
vt 0.93896484375 0.9044189453125
vt 0.8935546875 0.9044189453125
vt 0.8935546875 0.09716796875
vt 0.8935546875 0.09716796875
vt 0.93896484375 0.09716796875
vt 0.93896484375 0.9044189453125
vt 0.93896484375 0.9044189453125
vt 0.93896484375 0.09716796875
vt 0.984375 0.09716796875
vt 0.984375 0.09716796875
vt 0.984375 0.9044189453125
vt 0.93896484375 0.9044189453125
vn -0.8247905373573303 -0.5581211447715759 0.09067301452159882
vn -0.43522992730140686 -0.8957417607307434 0.09067314863204956
vn -0.4352262318134308 -0.8957434892654419 0.0906730592250824
vn -0.8247880339622498 -0.5581246614456177 0.09067297726869583
vn -0.9933502674102783 -0.07094906270503998 0.09067314863204956
vn -0.9933499097824097 -0.07095334678888321 0.09067314863204956
vn -0.8957397937774658 0.4352339804172516 0.09067369997501373
vn -0.8957436084747314 0.4352262020111084 0.0906727984547615
vn -0.558118999004364 0.8247919082641602 0.09067273139953613
vn -0.5581229329109192 0.8247892260551453 0.09067277610301971
vn -0.07095012068748474 0.9933501482009888 0.09067302197217941
vn -0.07095322012901306 0.9933499097824097 0.09067308902740479
vn 0.43523114919662476 0.8957411646842957 0.09067317843437195
vn 0.43522655963897705 0.8957434296607971 0.09067314118146896
vn 0.824792206287384 0.5581185817718506 0.09067334234714508
vn 0.8247893452644348 0.5581226348876953 0.0906730368733406
vn 0.993350088596344 0.07095007598400116 0.09067322313785553
vn 0.9933496117591858 0.0709550678730011 0.09067323058843613
vn 0.8957407474517822 -0.4352317452430725 0.09067366272211075
vn 0.8957414627075195 -0.43523046374320984 0.09067406505346298
vn 0.5581172704696655 -0.8247929215431213 0.09067408740520477
vn 0.5581219792366028 -0.8247897624969482 0.09067379683256149
vn 0.0709487795829773 -0.9933501482009888 0.09067393839359283
vn 0.07095398008823395 -0.9933497309684753 0.09067370742559433
vn 0.6514944434165955 0.7517298460006714 -0.10226044803857803
vn 0.43478015065193176 0.8948391675949097 -0.101138174533844
vn 0.43478575348854065 0.8948365449905396 -0.10113778710365295
vn 0.6514990925788879 0.7517259120941162 -0.10225993394851685
vn 0.8239554762840271 0.5575558543205261 -0.1011371910572052
vn 0.8239566087722778 0.5575543642044067 -0.10113687813282013
vn 0.9400776028633118 0.3252643644809723 -0.1022598147392273
vn 0.9400769472122192 0.32526612281799316 -0.10226020216941833
vn 0.9923441410064697 0.07088302075862885 -0.10113738477230072
vn 0.9923440217971802 0.07088417559862137 -0.10113734751939774
vn 0.9767627120018005 -0.18835468590259552 -0.10226084291934967
vn 0.9767635464668274 -0.18835045397281647 -0.10226026177406311
vn 0.8948358297348022 -0.43478745222091675 -0.10113734006881714
vn 0.8948366045951843 -0.4347854554653168 -0.10113833844661713
vn 0.7517313361167908 -0.651492714881897 -0.1022610291838646
vn 0.7517285943031311 -0.6514959335327148 -0.10225998610258102
vn 0.5575520396232605 -0.8239580392837524 -0.10113740712404251
vn 0.5575494766235352 -0.8239597678184509 -0.10113755613565445
vn 0.32526469230651855 -0.940077543258667 -0.10225976258516312
vn 0.3252620995044708 -0.9400784373283386 -0.10226021707057953
vn 0.07088848948478699 -0.9923437237739563 -0.10113730281591415
vn 0.07089123874902725 -0.9923434853553772 -0.10113693028688431
vn -0.18835285305976868 -0.9767630100250244 -0.10226044803857803
vn -0.18834960460662842 -0.9767636656761169 -0.10226023942232132
vn -0.43478602170944214 -0.89483642578125 -0.10113758593797684
vn -0.4347885549068451 -0.8948352336883545 -0.10113778710365295
vn -0.6514918804168701 -0.7517321109771729 -0.10226067155599594
vn -0.6514943242073059 -0.7517298460006714 -0.10226108133792877
vn -0.8239566683769226 -0.5575541257858276 -0.10113777965307236
vn -0.8239541053771973 -0.5575577616691589 -0.10113755613565445
vn -0.9400778412818909 -0.32526353001594543 -0.10226055979728699
vn -0.9400779008865356 -0.32526344060897827 -0.10226032882928848
vn -0.992344081401825 -0.07088357955217361 -0.10113786906003952
vn -0.9923442602157593 -0.0708809569478035 -0.10113783925771713
vn -0.9767640829086304 0.1883472353219986 -0.10226098448038101
vn -0.9767638444900513 0.1883479207754135 -0.10226136445999146
vn -0.8948356509208679 0.43478745222091675 -0.10113843530416489
vn -0.8948370218276978 0.43478474020957947 -0.10113837569952011
vn -0.7517260909080505 0.6514986753463745 -0.10226131230592728
vn -0.7517260909080505 0.6514988541603088 -0.10226105898618698
vn -0.5575525760650635 0.823957622051239 -0.10113798826932907
vn -0.557555079460144 0.8239558935165405 -0.10113847255706787
vn -0.3252681493759155 0.9400762915611267 -0.10226058214902878
vn -0.32526224851608276 0.9400783181190491 -0.10226033627986908
vn -0.07088162750005722 0.9923442006111145 -0.10113775730133057
vn -0.07087737321853638 0.9923444986343384 -0.10113698244094849
vn 0.18835172057151794 0.9767632484436035 -0.10226022452116013
vn 0.18834644556045532 0.9767642617225647 -0.10226106643676758
f 1/1/1 2/2/2 3/3/3
f 3/4/3 4/5/4 1/6/1
f 5/7/5 1/8/1 4/9/4
f 4/10/4 6/11/6 5/12/5
f 7/13/7 5/14/5 6/15/6
f 6/16/6 8/17/8 7/18/7
f 9/19/9 7/20/7 8/21/8
f 8/22/8 10/23/10 9/24/9
f 11/25/11 9/26/9 10/27/10
f 10/28/10 12/29/12 11/30/11
f 13/31/13 11/32/11 12/33/12
f 12/34/12 14/35/14 13/36/13
f 15/37/15 13/38/13 14/39/14
f 14/40/14 16/41/16 15/42/15
f 17/43/17 15/44/15 16/45/16
f 16/46/16 18/47/18 17/48/17
f 19/49/19 17/50/17 18/51/18
f 18/52/18 20/53/20 19/54/19
f 21/55/21 19/56/19 20/57/20
f 20/58/20 22/59/22 21/60/21
f 23/61/23 21/62/21 22/63/22
f 22/64/22 24/65/24 23/66/23
f 2/67/2 23/68/23 24/69/24
f 24/70/24 3/71/3 2/72/2
f 25/73/25 26/74/26 27/75/27
f 27/76/27 28/77/28 25/78/25
f 25/79/25 28/80/28 29/81/29
f 29/82/29 30/83/30 25/84/25
f 31/85/31 30/86/30 29/87/29
f 29/88/29 32/89/32 31/90/31
f 31/91/31 32/92/32 33/93/33
f 33/94/33 34/95/34 31/96/31
f 35/97/35 34/98/34 33/99/33
f 33/100/33 36/101/36 35/102/35
f 35/103/35 36/104/36 37/105/37
f 37/106/37 38/107/38 35/108/35
f 39/109/39 38/110/38 37/111/37
f 37/112/37 40/113/40 39/114/39
f 39/115/39 40/116/40 41/117/41
f 41/118/41 42/119/42 39/120/39
f 43/121/43 42/122/42 41/123/41
f 41/124/41 44/125/44 43/126/43
f 43/127/43 44/128/44 45/129/45
f 45/130/45 46/131/46 43/132/43
f 47/133/47 46/134/46 45/135/45
f 45/136/45 48/137/48 47/138/47
f 47/139/47 48/140/48 49/141/49
f 49/142/49 50/143/50 47/144/47
f 51/145/51 50/146/50 49/147/49
f 49/148/49 52/149/52 51/150/51
f 51/151/51 52/152/52 53/153/53
f 53/154/53 54/155/54 51/156/51
f 55/157/55 54/158/54 53/159/53
f 53/160/53 56/161/56 55/162/55
f 55/163/55 56/164/56 57/165/57
f 57/166/57 58/167/58 55/168/55
f 59/169/59 58/170/58 57/171/57
f 57/172/57 60/173/60 59/174/59
f 59/175/59 60/176/60 61/177/61
f 61/178/61 62/179/62 59/180/59
f 63/181/63 62/182/62 61/183/61
f 61/184/61 64/185/64 63/186/63
f 63/187/63 64/188/64 65/189/65
f 65/190/65 66/191/66 63/192/63
f 67/193/67 66/194/66 65/195/65
f 65/196/65 68/197/68 67/198/67
f 67/199/67 68/200/68 69/201/69
f 69/202/69 70/203/70 67/204/67
f 71/205/71 70/206/70 69/207/69
f 69/208/69 72/209/72 71/210/71
f 71/211/71 72/212/72 27/213/27
f 27/214/27 26/215/26 71/216/71
