# Exported by Lightwave Blender addon
v 208.32125854492188 1034.100830078125 414.8272705078125
v 208.70242309570312 1033.8953857421875 414.4638977050781
v 208.4076690673828 1034.0543212890625 415.38397216796875
v 209.16998291015625 1033.643310546875 414.6572570800781
v 209.25637817382812 1033.5966796875 415.2139587402344
v 208.87522888183594 1033.8021240234375 415.57733154296875
v 209.69891357421875 1036.4493408203125 415.38397216796875
v 209.6125030517578 1036.495849609375 414.8272705078125
v 212.55560302734375 1041.747802734375 415.38397216796875
v 212.45118713378906 1041.7608642578125 414.82733154296875
v 213.28245544433594 1042.6090087890625 415.1900939941406
v 209.9936981201172 1036.290283203125 414.46392822265625
v 210.46127319335938 1036.038330078125 414.65728759765625
v 212.79632568359375 1041.4886474609375 414.4638977050781
v 213.2458953857422 1041.203125 414.6572570800781
v 213.10595703125 1042.53662109375 414.65264892578125
v 214.25242614746094 1043.0413818359375 414.6458435058594
v 213.30690002441406 1042.0936279296875 414.32769775390625
v 213.6843719482422 1041.7227783203125 414.540283203125
v 213.9536590576172 1042.9146728515625 414.1769714355469
v 215.1982421875 1042.8931884765625 413.88824462890625
v 213.91018676757812 1042.362548828125 413.9892578125
v 214.1654052734375 1041.9371337890625 414.2704162597656
v 214.7823028564453 1042.7847900390625 413.51324462890625
v 215.84622192382812 1042.1796875 413.12554931640625
v 214.50442504882812 1042.2694091796875 413.5132751464844
v 214.64247131347656 1041.8624267578125 413.88824462890625
v 215.35055541992188 1042.1590576171875 412.8443908691406
v 216.0191650390625 1041.1246337890625 412.5776672363281
v 214.9131622314453 1041.8193359375 413.0321350097656
v 214.97145080566406 1041.5001220703125 413.5009765625
v 215.5018310546875 1041.236083984375 412.3650817871094
v 215.69676208496094 1040.0362548828125 412.3824462890625
v 215.02114868164062 1041.160400390625 412.6900329589844
v 215.05780029296875 1040.973388671875 413.2274475097656
v 215.211181640625 1040.2548828125 412.1890563964844
v 212.8476104736328 1034.751708984375 412.3824462890625
v 214.7939910888672 1040.3935546875 412.55242919921875
v 214.86241149902344 1040.313720703125 413.109130859375
v 212.3800048828125 1035.0037841796875 412.1890869140625
v 211.50035095214844 1032.2528076171875 412.38238525390625
v 211.0327606201172 1032.5048828125 412.1890869140625
v 211.9988555908203 1035.209228515625 412.55242919921875
v 212.08526611328125 1035.1627197265625 413.109130859375
v 210.65159606933594 1032.71044921875 412.55242919921875
v 210.73800659179688 1032.663818359375 413.109130859375
v 210.5476531982422 1035.99169921875 415.21392822265625
v 213.35031127929688 1041.18994140625 415.2139892578125
v 210.16650390625 1036.1971435546875 415.57733154296875
v 213.00515747070312 1041.4622802734375 415.57733154296875
v 213.8608856201172 1041.7947998046875 415.0777587890625
v 213.65992736816406 1042.238037109375 415.40264892578125
v 214.46414184570312 1042.0638427734375 414.7392578125
v 214.50765991210938 1042.615966796875 414.9270324707031
v 215.05838012695312 1041.970703125 414.2633361816406
v 215.33628845214844 1042.486083984375 414.2632751464844
v 215.46713256835938 1041.5206298828125 413.78216552734375
v 215.90451049804688 1041.8603515625 413.59442138671875
v 215.57513427734375 1040.86181640625 413.4400939941406
v 216.05580139160156 1040.9373779296875 413.1151428222656
v 215.34796142578125 1040.094970703125 413.3024597167969
v 215.76515197753906 1039.9561767578125 412.9391174316406
v 212.5528106689453 1034.91064453125 413.302490234375
v 211.20556640625 1032.4117431640625 413.30242919921875
v 212.9340057373047 1034.705078125 412.93914794921875
v 211.5867462158203 1032.2061767578125 412.9390869140625
vt 1.1640625 0.939483642578125
vt 1.1640625 0.8184814453125
vt 1.1640625 1.0
vt 1.1640625 0.8184814453125
vt 1.1640625 0.7579345703125
vt 1.1640625 1.0
vt 1.1640625 0.7579345703125
vt 1.1640625 0.8184814453125
vt 1.1640625 1.0
vt 1.1640625 0.8184814453125
vt 1.1640625 0.939483642578125
vt 1.1640625 1.0
vt 1.1640625 1.0
vt 0.919921875 1.0
vt 1.1640625 0.939483642578125
vt 0.919921875 1.0
vt 0.919921875 0.939483642578125
vt 1.1640625 0.939483642578125
vt 0.919921875 1.0
vt 0.378662109375 1.0
vt 0.919921875 0.939483642578125
vt 1.1640625 0.939483642578125
vt 0.919921875 0.939483642578125
vt 1.1640625 0.8184814453125
vt 0.378662109375 1.0
vt 0.382080078125 0.939483642578125
vt 0.919921875 0.939483642578125
vt 0.378662109375 1.0
vt 0.279541015625 0.9354248046875
vt 0.382080078125 0.939483642578125
vt 0.919921875 0.939483642578125
vt 0.919921875 0.8184814453125
vt 1.1640625 0.8184814453125
vt 0.919921875 0.939483642578125
vt 0.382080078125 0.939483642578125
vt 0.919921875 0.8184814453125
vt 1.1640625 0.8184814453125
vt 0.919921875 0.8184814453125
vt 1.1640625 0.7579345703125
vt 0.919921875 0.8184814453125
vt 0.919921875 0.7579345703125
vt 1.1640625 0.7579345703125
vt 0.919921875 0.8184814453125
vt 0.388916015625 0.8184814453125
vt 0.919921875 0.7579345703125
vt 0.382080078125 0.939483642578125
vt 0.388916015625 0.8184814453125
vt 0.919921875 0.8184814453125
vt 0.388916015625 0.8184814453125
vt 0.392333984375 0.7579345703125
vt 0.919921875 0.7579345703125
vt 0.279541015625 0.9354248046875
vt 0.292724609375 0.88128662109375
vt 0.382080078125 0.939483642578125
vt 0.382080078125 0.939483642578125
vt 0.292724609375 0.88128662109375
vt 0.388916015625 0.8184814453125
vt 0.279541015625 0.9354248046875
vt 0.203857421875 0.754150390625
vt 0.292724609375 0.88128662109375
vt 0.388916015625 0.8184814453125
vt 0.319091796875 0.7730712890625
vt 0.392333984375 0.7579345703125
vt 0.292724609375 0.88128662109375
vt 0.319091796875 0.7730712890625
vt 0.388916015625 0.8184814453125
vt 0.319091796875 0.7730712890625
vt 0.33251953125 0.718994140625
vt 0.392333984375 0.7579345703125
vt 0.203857421875 0.754150390625
vt 0.2266845703125 0.722900390625
vt 0.292724609375 0.88128662109375
vt 0.292724609375 0.88128662109375
vt 0.2266845703125 0.722900390625
vt 0.319091796875 0.7730712890625
vt 0.203857421875 0.754150390625
vt 0.17529296875 0.501708984375
vt 0.2266845703125 0.722900390625
vt 0.319091796875 0.7730712890625
vt 0.272216796875 0.660400390625
vt 0.33251953125 0.718994140625
vt 0.2266845703125 0.722900390625
vt 0.272216796875 0.660400390625
vt 0.319091796875 0.7730712890625
vt 0.272216796875 0.660400390625
vt 0.294921875 0.629150390625
vt 0.33251953125 0.718994140625
vt 0.17529296875 0.501708984375
vt 0.2015380859375 0.501708984375
vt 0.2266845703125 0.722900390625
vt 0.2266845703125 0.722900390625
vt 0.2015380859375 0.501708984375
vt 0.272216796875 0.660400390625
vt 0.17529296875 0.501708984375
vt 0.2041015625 0.248046875
vt 0.2015380859375 0.501708984375
vt 0.272216796875 0.660400390625
vt 0.254150390625 0.501708984375
vt 0.294921875 0.629150390625
vt 0.2015380859375 0.501708984375
vt 0.254150390625 0.501708984375
vt 0.272216796875 0.660400390625
vt 0.254150390625 0.501708984375
vt 0.280517578125 0.501708984375
vt 0.294921875 0.629150390625
vt 0.2041015625 0.248046875
vt 0.226806640625 0.279296875
vt 0.2015380859375 0.501708984375
vt 0.2015380859375 0.501708984375
vt 0.226806640625 0.279296875
vt 0.254150390625 0.501708984375
vt 0.2041015625 0.248046875
vt 0.280029296875 0.0654296875
vt 0.226806640625 0.279296875
vt 0.254150390625 0.501708984375
vt 0.2724609375 0.341796875
vt 0.280517578125 0.501708984375
vt 0.226806640625 0.279296875
vt 0.2724609375 0.341796875
vt 0.254150390625 0.501708984375
vt 0.2724609375 0.341796875
vt 0.295166015625 0.373046875
vt 0.280517578125 0.501708984375
vt 0.280029296875 0.0654296875
vt 0.29345703125 0.11962890625
vt 0.226806640625 0.279296875
vt 0.226806640625 0.279296875
vt 0.29345703125 0.11962890625
vt 0.2724609375 0.341796875
vt 0.280029296875 0.0654296875
vt 0.380126953125 0.0
vt 0.29345703125 0.11962890625
vt 0.2724609375 0.341796875
vt 0.31982421875 0.2275390625
vt 0.295166015625 0.373046875
vt 0.29345703125 0.11962890625
vt 0.31982421875 0.2275390625
vt 0.2724609375 0.341796875
vt 0.31982421875 0.2275390625
vt 0.333251953125 0.28173828125
vt 0.295166015625 0.373046875
vt 0.380126953125 0.0
vt 0.383544921875 0.060546875
vt 0.29345703125 0.11962890625
vt 0.29345703125 0.11962890625
vt 0.383544921875 0.060546875
vt 0.31982421875 0.2275390625
vt 0.380126953125 0.0
vt 0.919921875 0.00048828125
vt 0.383544921875 0.060546875
vt 0.31982421875 0.2275390625
vt 0.390380859375 0.181640625
vt 0.333251953125 0.28173828125
vt 0.383544921875 0.060546875
vt 0.390380859375 0.181640625
vt 0.31982421875 0.2275390625
vt 0.390380859375 0.181640625
vt 0.393798828125 0.2421875
vt 0.333251953125 0.28173828125
vt 0.919921875 0.00048828125
vt 0.919921875 0.060546875
vt 0.383544921875 0.060546875
vt 0.383544921875 0.060546875
vt 0.919921875 0.060546875
vt 0.390380859375 0.181640625
vt 0.919921875 0.00048828125
vt 1.1748046875 0.0
vt 0.919921875 0.060546875
vt 1.1748046875 0.0
vt 1.1748046875 0.060546875
vt 0.919921875 0.060546875
vt 0.390380859375 0.181640625
vt 0.919921875 0.181640625
vt 0.393798828125 0.2421875
vt 0.919921875 0.060546875
vt 0.919921875 0.181640625
vt 0.390380859375 0.181640625
vt 0.919921875 0.060546875
vt 1.1748046875 0.060546875
vt 0.919921875 0.181640625
vt 0.919921875 0.181640625
vt 0.919921875 0.2421875
vt 0.393798828125 0.2421875
vt 1.1748046875 0.060546875
vt 1.1748046875 0.181640625
vt 0.919921875 0.181640625
vt 0.919921875 0.181640625
vt 1.1748046875 0.181640625
vt 0.919921875 0.2421875
vt 1.1748046875 0.181640625
vt 1.1748046875 0.2421875
vt 0.919921875 0.2421875
vt 1.1640625 0.7579345703125
vt 0.919921875 0.7579345703125
vt 1.1640625 0.8184814453125
vt 0.919921875 0.7579345703125
vt 0.919921875 0.8184814453125
vt 1.1640625 0.8184814453125
vt 0.919921875 0.7579345703125
vt 0.392333984375 0.7579345703125
vt 0.919921875 0.8184814453125
vt 1.1640625 0.8184814453125
vt 0.919921875 0.8184814453125
vt 1.1640625 0.939483642578125
vt 0.392333984375 0.7579345703125
vt 0.388916015625 0.8184814453125
vt 0.919921875 0.8184814453125
vt 0.392333984375 0.7579345703125
vt 0.33251953125 0.718994140625
vt 0.388916015625 0.8184814453125
vt 0.919921875 0.8184814453125
vt 0.919921875 0.939483642578125
vt 1.1640625 0.939483642578125
vt 0.919921875 0.8184814453125
vt 0.388916015625 0.8184814453125
vt 0.919921875 0.939483642578125
vt 1.1640625 0.939483642578125
vt 0.919921875 0.939483642578125
vt 1.1640625 1.0
vt 0.919921875 0.939483642578125
vt 0.919921875 1.0
vt 1.1640625 1.0
vt 0.919921875 0.939483642578125
vt 0.382080078125 0.939483642578125
vt 0.919921875 1.0
vt 0.388916015625 0.8184814453125
vt 0.382080078125 0.939483642578125
vt 0.919921875 0.939483642578125
vt 0.382080078125 0.939483642578125
vt 0.378662109375 1.0
vt 0.919921875 1.0
vt 0.33251953125 0.718994140625
vt 0.319091796875 0.7730712890625
vt 0.388916015625 0.8184814453125
vt 0.388916015625 0.8184814453125
vt 0.319091796875 0.7730712890625
vt 0.382080078125 0.939483642578125
vt 0.33251953125 0.718994140625
vt 0.294921875 0.629150390625
vt 0.319091796875 0.7730712890625
vt 0.382080078125 0.939483642578125
vt 0.292724609375 0.88128662109375
vt 0.378662109375 1.0
vt 0.319091796875 0.7730712890625
vt 0.292724609375 0.88128662109375
vt 0.382080078125 0.939483642578125
vt 0.292724609375 0.88128662109375
vt 0.279541015625 0.9354248046875
vt 0.378662109375 1.0
vt 0.294921875 0.629150390625
vt 0.272216796875 0.660400390625
vt 0.319091796875 0.7730712890625
vt 0.319091796875 0.7730712890625
vt 0.272216796875 0.660400390625
vt 0.292724609375 0.88128662109375
vt 0.294921875 0.629150390625
vt 0.280517578125 0.501708984375
vt 0.272216796875 0.660400390625
vt 0.292724609375 0.88128662109375
vt 0.2266845703125 0.722900390625
vt 0.279541015625 0.9354248046875
vt 0.272216796875 0.660400390625
vt 0.2266845703125 0.722900390625
vt 0.292724609375 0.88128662109375
vt 0.2266845703125 0.722900390625
vt 0.203857421875 0.754150390625
vt 0.279541015625 0.9354248046875
vt 0.280517578125 0.501708984375
vt 0.254150390625 0.501708984375
vt 0.272216796875 0.660400390625
vt 0.272216796875 0.660400390625
vt 0.254150390625 0.501708984375
vt 0.2266845703125 0.722900390625
vt 0.280517578125 0.501708984375
vt 0.295166015625 0.373046875
vt 0.254150390625 0.501708984375
vt 0.2266845703125 0.722900390625
vt 0.2015380859375 0.501708984375
vt 0.203857421875 0.754150390625
vt 0.254150390625 0.501708984375
vt 0.2015380859375 0.501708984375
vt 0.2266845703125 0.722900390625
vt 0.2015380859375 0.501708984375
vt 0.17529296875 0.501708984375
vt 0.203857421875 0.754150390625
vt 0.295166015625 0.373046875
vt 0.2724609375 0.341796875
vt 0.254150390625 0.501708984375
vt 0.254150390625 0.501708984375
vt 0.2724609375 0.341796875
vt 0.2015380859375 0.501708984375
vt 0.295166015625 0.373046875
vt 0.333251953125 0.28173828125
vt 0.2724609375 0.341796875
vt 0.2015380859375 0.501708984375
vt 0.226806640625 0.279296875
vt 0.17529296875 0.501708984375
vt 0.2724609375 0.341796875
vt 0.226806640625 0.279296875
vt 0.2015380859375 0.501708984375
vt 0.226806640625 0.279296875
vt 0.2041015625 0.248046875
vt 0.17529296875 0.501708984375
vt 0.333251953125 0.28173828125
vt 0.31982421875 0.2275390625
vt 0.2724609375 0.341796875
vt 0.2724609375 0.341796875
vt 0.31982421875 0.2275390625
vt 0.226806640625 0.279296875
vt 0.333251953125 0.28173828125
vt 0.393798828125 0.2421875
vt 0.31982421875 0.2275390625
vt 0.226806640625 0.279296875
vt 0.29345703125 0.11962890625
vt 0.2041015625 0.248046875
vt 0.31982421875 0.2275390625
vt 0.29345703125 0.11962890625
vt 0.226806640625 0.279296875
vt 0.29345703125 0.11962890625
vt 0.280029296875 0.0654296875
vt 0.2041015625 0.248046875
vt 0.393798828125 0.2421875
vt 0.390380859375 0.181640625
vt 0.31982421875 0.2275390625
vt 0.31982421875 0.2275390625
vt 0.390380859375 0.181640625
vt 0.29345703125 0.11962890625
vt 0.393798828125 0.2421875
vt 0.919921875 0.2421875
vt 0.390380859375 0.181640625
vt 0.29345703125 0.11962890625
vt 0.383544921875 0.060546875
vt 0.280029296875 0.0654296875
vt 0.390380859375 0.181640625
vt 0.383544921875 0.060546875
vt 0.29345703125 0.11962890625
vt 0.383544921875 0.060546875
vt 0.380126953125 0.0
vt 0.280029296875 0.0654296875
vt 0.919921875 0.2421875
vt 0.919921875 0.181640625
vt 0.390380859375 0.181640625
vt 0.390380859375 0.181640625
vt 0.919921875 0.181640625
vt 0.383544921875 0.060546875
vt 0.919921875 0.2421875
vt 1.1748046875 0.2421875
vt 0.919921875 0.181640625
vt 1.1748046875 0.2421875
vt 1.1748046875 0.181640625
vt 0.919921875 0.181640625
vt 0.383544921875 0.060546875
vt 0.919921875 0.060546875
vt 0.380126953125 0.0
vt 0.919921875 0.181640625
vt 0.919921875 0.060546875
vt 0.383544921875 0.060546875
vt 0.919921875 0.181640625
vt 1.1748046875 0.181640625
vt 0.919921875 0.060546875
vt 0.919921875 0.060546875
vt 0.919921875 0.00048828125
vt 0.380126953125 0.0
vt 1.1748046875 0.181640625
vt 1.1748046875 0.060546875
vt 0.919921875 0.060546875
vt 0.919921875 0.060546875
vt 1.1748046875 0.060546875
vt 0.919921875 0.00048828125
vt 1.1748046875 0.060546875
vt 1.1748046875 0.0
vt 0.919921875 0.00048828125
vt 1.1748046875 0.181640625
vt 1.1748046875 0.060546875
vt 1.1748046875 0.0
vt 1.1748046875 0.181640625
vt 1.1748046875 0.0
vt 1.1748046875 0.181640625
vt 1.1748046875 0.2421875
vt 1.1748046875 0.181640625
vt 1.1748046875 0.181640625
vt 1.1748046875 0.060546875
vt 1.1748046875 0.181640625
vt 1.1748046875 0.0
vn -0.9448926448822021 -0.1836896389722824 -0.2709905505180359
vn -0.4105879068374634 -0.471638023853302 -0.7803685665130615
vn -0.8238154649734497 -0.24882088601589203 0.5093291401863098
vn 0.24482832849025726 -0.8249956369400024 -0.5093536972999573
vn 0.36591437458992004 -0.8903303146362305 0.2709586024284363
vn -0.16843034327030182 -0.6023173332214355 0.7802852392196655
vn -0.6742975115776062 0.36354371905326843 0.6427744626998901
vn -0.8271128535270691 0.44594621658325195 -0.34207627177238464
vn -0.6051534414291382 0.47747889161109924 0.6370267868041992
vn -0.8002176880836487 0.5113886594772339 -0.31326258182525635
vn -0.34348151087760925 0.7574527859687805 0.5552348494529724
vn -0.15278050303459167 0.08238489180803299 -0.9848201870918274
vn 0.6742972135543823 -0.36354705691337585 -0.6427727937698364
vn -0.21940916776657104 0.04796905070543289 -0.9744529724121094
vn 0.6051670908927917 -0.4774220585823059 -0.6370565295219421
vn -0.6614412069320679 0.6715835928916931 -0.3338726758956909
vn 0.07438985258340836 0.9441481232643127 0.32101479172706604
vn -0.3652040958404541 -0.0472174696624279 -0.9297292232513428
vn 0.34334051609039307 -0.7574110627174377 -0.5553789138793945
vn -0.43155530095100403 0.774203360080719 -0.4630001187324524
vn 0.47457072138786316 0.880217432975769 3.0212161163944984e-06
vn -0.5433183312416077 -0.12760508060455322 -0.8297722935676575
vn -0.07439173758029938 -0.9441330432891846 -0.3210585415363312
vn -0.21077869832515717 0.7394652366638184 -0.6393462419509888
vn 0.7478998303413391 0.5810359716415405 -0.32100337743759155
vn -0.7139915227890015 -0.09871936589479446 -0.6931599378585815
vn -0.47462859749794006 -0.880186140537262 -6.147982639959082e-05
vn -0.06097147986292839 0.5743957161903381 -0.8163037896156311
vn 0.8215358257293701 0.12929335236549377 -0.5553035140037537
vn -0.8310840129852295 0.027606943622231483 -0.5554612278938293
vn -0.7479445934295654 -0.580993115901947 0.3209764063358307
vn -0.020146140828728676 0.3258100748062134 -0.9452205896377563
vn 0.7314481139183044 -0.24318860471248627 -0.6370580792427063
vn -0.862250030040741 0.22070835530757904 -0.45586463809013367
vn -0.821582555770874 -0.12927038967609406 0.5552398562431335
vn -0.09340126812458038 0.1302877515554428 -0.9870670437812805
vn 0.6742864847183228 -0.36353227496147156 -0.642792284488678
vn -0.8410986065864563 0.3831673562526703 -0.3817538321018219
vn -0.7314631342887878 0.24316616356372833 0.6370493173599243
vn -0.1528606414794922 0.08241681009531021 -0.9848051071166992
vn 0.24480389058589935 -0.824984610080719 -0.5093833804130554
vn -0.41064152121543884 -0.4716879725456238 -0.7803102135658264
vn -0.8271299600601196 0.4459490180015564 -0.3420313596725464
vn -0.6743083000183105 0.3635569214820862 0.6427556276321411
vn -0.9449129700660706 -0.18352210521697998 -0.27103355526924133
vn -0.8237778544425964 -0.24891698360443115 0.5093430876731873
vn 0.8271538019180298 -0.4459650218486786 0.3419530689716339
vn 0.7823481559753418 -0.4921337366104126 0.38175368309020996
vn 0.15290041267871857 -0.08244108408689499 0.9847968816757202
vn 0.16018365323543549 -0.006400293204933405 0.9870664477348328
vn 0.6582739353179932 -0.5990909934043884 0.45581284165382385
vn 0.2832982838153839 0.16224610805511475 0.9452080726623535
vn 0.4797651469707489 -0.6792172789573669 0.555418074131012
vn 0.5133972764015198 0.26474547386169434 0.8162922263145447
vn 0.3098966181278229 -0.6507891416549683 0.6931360960006714
vn 0.7336466908454895 0.23031766712665558 0.6393092274665833
vn 0.19197165966033936 -0.5240551233291626 0.8297668099403381
vn 0.8839432001113892 0.06492285430431366 0.4630654454231262
vn 0.16116949915885925 -0.3310491442680359 0.9297477006912231
vn 0.9245907068252563 -0.18352225422859192 0.33384376764297485
vn 0.16055293381214142 -0.15689882636070251 0.9744771122932434
vn 0.8669979572296143 -0.38750720024108887 0.31329330801963806
vn 0.15279322862625122 -0.08238035440444946 0.9848185777664185
vn -0.16839542984962463 -0.6022357940673828 0.78035569190979
vn 0.827126681804657 -0.44594359397888184 0.34204673767089844
vn 0.3658596873283386 -0.8903347253799438 0.2710179090499878
f 1/1/1 2/2/2 3/3/3
f 2/4/2 4/5/4 3/6/3
f 4/7/4 5/8/5 3/9/3
f 5/10/5 6/11/6 3/12/3
f 3/13/3 7/14/7 1/15/1
f 7/16/7 8/17/8 1/18/1
f 7/19/7 9/20/9 8/21/8
f 1/22/1 8/23/8 2/24/2
f 9/25/9 10/26/10 8/27/8
f 9/28/9 11/29/11 10/30/10
f 8/31/8 12/32/12 2/33/2
f 8/34/8 10/35/10 12/36/12
f 2/37/2 12/38/12 4/39/4
f 12/40/12 13/41/13 4/42/4
f 12/43/12 14/44/14 13/45/13
f 10/46/10 14/47/14 12/48/12
f 14/49/14 15/50/15 13/51/13
f 11/52/11 16/53/16 10/54/10
f 10/55/10 16/56/16 14/57/14
f 11/58/11 17/59/17 16/60/16
f 14/61/14 18/62/18 15/63/15
f 16/64/16 18/65/18 14/66/14
f 18/67/18 19/68/19 15/69/15
f 17/70/17 20/71/20 16/72/16
f 16/73/16 20/74/20 18/75/18
f 17/76/17 21/77/21 20/78/20
f 18/79/18 22/80/22 19/81/19
f 20/82/20 22/83/22 18/84/18
f 22/85/22 23/86/23 19/87/19
f 21/88/21 24/89/24 20/90/20
f 20/91/20 24/92/24 22/93/22
f 21/94/21 25/95/25 24/96/24
f 22/97/22 26/98/26 23/99/23
f 24/100/24 26/101/26 22/102/22
f 26/103/26 27/104/27 23/105/23
f 25/106/25 28/107/28 24/108/24
f 24/109/24 28/110/28 26/111/26
f 25/112/25 29/113/29 28/114/28
f 26/115/26 30/116/30 27/117/27
f 28/118/28 30/119/30 26/120/26
f 30/121/30 31/122/31 27/123/27
f 29/124/29 32/125/32 28/126/28
f 28/127/28 32/128/32 30/129/30
f 29/130/29 33/131/33 32/132/32
f 30/133/30 34/134/34 31/135/31
f 32/136/32 34/137/34 30/138/30
f 34/139/34 35/140/35 31/141/31
f 33/142/33 36/143/36 32/144/32
f 32/145/32 36/146/36 34/147/34
f 33/148/33 37/149/37 36/150/36
f 34/151/34 38/152/38 35/153/35
f 36/154/36 38/155/38 34/156/34
f 38/157/38 39/158/39 35/159/35
f 37/160/37 40/161/40 36/162/36
f 36/163/36 40/164/40 38/165/38
f 37/166/37 41/167/41 40/168/40
f 41/169/41 42/170/42 40/171/40
f 38/172/38 43/173/43 39/174/39
f 40/175/40 43/176/43 38/177/38
f 40/178/40 42/179/42 43/180/43
f 43/181/43 44/182/44 39/183/39
f 42/184/42 45/185/45 43/186/43
f 43/187/43 45/188/45 44/189/44
f 45/190/45 46/191/46 44/192/44
f 4/193/4 13/194/13 5/195/5
f 13/196/13 47/197/47 5/198/5
f 13/199/13 15/200/15 47/201/47
f 5/202/5 47/203/47 6/204/6
f 15/205/15 48/206/48 47/207/47
f 15/208/15 19/209/19 48/210/48
f 47/211/47 49/212/49 6/213/6
f 47/214/47 48/215/48 49/216/49
f 6/217/6 49/218/49 3/219/3
f 49/220/49 7/221/7 3/222/3
f 49/223/49 50/224/50 7/225/7
f 48/226/48 50/227/50 49/228/49
f 50/229/50 9/230/9 7/231/7
f 19/232/19 51/233/51 48/234/48
f 48/235/48 51/236/51 50/237/50
f 19/238/19 23/239/23 51/240/51
f 50/241/50 52/242/52 9/243/9
f 51/244/51 52/245/52 50/246/50
f 52/247/52 11/248/11 9/249/9
f 23/250/23 53/251/53 51/252/51
f 51/253/51 53/254/53 52/255/52
f 23/256/23 27/257/27 53/258/53
f 52/259/52 54/260/54 11/261/11
f 53/262/53 54/263/54 52/264/52
f 54/265/54 17/266/17 11/267/11
f 27/268/27 55/269/55 53/270/53
f 53/271/53 55/272/55 54/273/54
f 27/274/27 31/275/31 55/276/55
f 54/277/54 56/278/56 17/279/17
f 55/280/55 56/281/56 54/282/54
f 56/283/56 21/284/21 17/285/17
f 31/286/31 57/287/57 55/288/55
f 55/289/55 57/290/57 56/291/56
f 31/292/31 35/293/35 57/294/57
f 56/295/56 58/296/58 21/297/21
f 57/298/57 58/299/58 56/300/56
f 58/301/58 25/302/25 21/303/21
f 35/304/35 59/305/59 57/306/57
f 57/307/57 59/308/59 58/309/58
f 35/310/35 39/311/39 59/312/59
f 58/313/58 60/314/60 25/315/25
f 59/316/59 60/317/60 58/318/58
f 60/319/60 29/320/29 25/321/25
f 39/322/39 61/323/61 59/324/59
f 59/325/59 61/326/61 60/327/60
f 39/328/39 44/329/44 61/330/61
f 60/331/60 62/332/62 29/333/29
f 61/334/61 62/335/62 60/336/60
f 62/337/62 33/338/33 29/339/29
f 44/340/44 63/341/63 61/342/61
f 61/343/61 63/344/63 62/345/62
f 44/346/44 46/347/46 63/348/63
f 46/349/46 64/350/64 63/351/63
f 62/352/62 65/353/65 33/354/33
f 63/355/63 65/356/65 62/357/62
f 63/358/63 64/359/64 65/360/65
f 65/361/65 37/362/37 33/363/33
f 64/364/64 66/365/66 65/366/65
f 65/367/65 66/368/66 37/369/37
f 66/370/66 41/371/41 37/372/37
f 45/373/45 42/374/42 41/375/41
f 45/376/45 41/377/41 64/378/64
f 46/379/46 45/380/45 64/381/64
f 66/382/66 64/383/64 41/384/41
