# Exported by Lightwave Blender addon
v 74.48509216308594 764.4324951171875 726.7456665039062
v 88.48204040527344 756.8764038085938 726.7457275390625
v 86.45586395263672 753.1244506835938 689.2007446289062
v 76.52703094482422 758.4844360351562 689.2007446289062
v 75.15099334716797 757.8927001953125 689.1968383789062
v 73.10858917236328 763.842041015625 726.7495727539062
v 71.40953826904297 759.6651000976562 722.7738037109375
v 63.176998138427734 744.4180908203125 722.7738647460938
v 60.61628723144531 740.7059326171875 726.7496337890625
v 73.0417251586914 755.005859375 693.1311645507812
v 66.71224975585938 742.2638549804688 689.1968383789062
v 66.97232055664062 740.788818359375 689.2007446289062
v 76.900390625 735.4292602539062 689.2007446289062
v 74.87364196777344 731.6757202148438 726.7457885742188
v 60.87776184082031 739.2312622070312 726.7457885742188
v 67.96888732910156 745.6107788085938 693.1311645507812
v 68.66336822509766 746.401611328125 693.8688354492188
v 63.912750244140625 744.8853149414062 721.7838745117188
v 68.41056823730469 746.0355834960938 694.2606201171875
v 72.76142883300781 753.9913330078125 693.8688354492188
v 69.90914154052734 746.7589111328125 695.0046997070312
v 72.92876434326172 754.4034423828125 694.2605590820312
v 73.1460189819336 752.7537231445312 695.0047607421875
v 73.31348419189453 753.1654052734375 695.3966064453125
v 71.4224853515625 758.7936401367188 721.7838745117188
v 70.05323791503906 747.178466796875 695.5939331054688
v 71.21226501464844 758.5065307617188 722.1756591796875
v 71.92708587646484 757.2039184570312 720.8875732421875
v 64.03750610351562 745.2185668945312 722.1757202148438
v 71.71699523925781 756.9163818359375 721.2794799804688
v 65.64395141601562 745.6688842773438 721.2794799804688
v 65.51879119873047 745.3355102539062 720.8876342773438
v 69.65675354003906 746.3930053710938 695.3966674804688
v 65.88337707519531 745.8817749023438 720.3900146484375
v 65.97932434082031 746.1372680664062 720.6904296875
v 71.50930786132812 756.3790893554688 720.6903686523438
v 69.85977172851562 746.8980102539062 695.894287109375
v 71.67034912109375 756.5994873046875 720.3900146484375
v 66.73814392089844 752.3414306640625 718.0436401367188
v 66.5606460571289 752.1336669921875 717.5838012695312
v 66.81448364257812 752.603759765625 717.5838012695312
v 69.2252426147461 750.6931762695312 698.2603759765625
v 73.00261688232422 752.7186279296875 695.8942260742188
v 69.48126983642578 751.1673583984375 698.2603759765625
v 69.53131866455078 750.8341674804688 697.7705688476562
v 72.87425231933594 752.403076171875 695.5939331054688
v 85.84617614746094 751.9954833984375 688.2833251953125
v 76.01953125 757.30029296875 688.2833862304688
v 77.51008605957031 736.5582885742188 688.2833862304688
v 67.68411254882812 741.8627319335938 688.2835083007812
v 75.37422943115234 732.6027221679688 727.6630859375
v 61.26145935058594 740.2213745117188 727.6631469726562
v 87.9814453125 755.9493408203125 727.6630249023438
v 73.86767578125 763.5685424804688 727.6630249023438
vt 0.200439453125 0.27783203125
vt 0.1224365234375 0.25927734375
vt 0.1668701171875 0.07373046875
vt 0.2222900390625 0.0869140625
vt 0.200439453125 0.27783203125
vt 0.1668701171875 0.07373046875
vt 0.200439453125 0.27783203125
vt 0.2222900390625 0.0869140625
vt 0.229736328125 0.087890625
vt 0.2080078125 0.27880859375
vt 0.200439453125 0.27783203125
vt 0.229736328125 0.087890625
vt 0.2080078125 0.27880859375
vt 0.229736328125 0.087890625
vt 0.23046875 0.2587890625
vt 0.2080078125 0.27880859375
vt 0.23046875 0.2587890625
vt 0.318359375 0.25927734375
vt 0.3408203125 0.279296875
vt 0.2080078125 0.27880859375
vt 0.318359375 0.25927734375
vt 0.229736328125 0.087890625
vt 0.2474365234375 0.107421875
vt 0.23046875 0.2587890625
vt 0.229736328125 0.087890625
vt 0.319580078125 0.087890625
vt 0.2474365234375 0.107421875
vt 0.319580078125 0.087890625
vt 0.3271484375 0.08740234375
vt 0.3408203125 0.279296875
vt 0.3271484375 0.08740234375
vt 0.382568359375 0.07421875
vt 0.426513671875 0.259765625
vt 0.348388671875 0.2783203125
vt 0.3271484375 0.08740234375
vt 0.426513671875 0.259765625
vt 0.3271484375 0.08740234375
vt 0.348388671875 0.2783203125
vt 0.3408203125 0.279296875
vt 0.319580078125 0.087890625
vt 0.3408203125 0.279296875
vt 0.3017578125 0.10791015625
vt 0.319580078125 0.087890625
vt 0.3017578125 0.10791015625
vt 0.2474365234375 0.107421875
vt 0.3408203125 0.279296875
vt 0.318359375 0.25927734375
vt 0.3017578125 0.10791015625
vt 0.2474365234375 0.107421875
vt 0.3017578125 0.10791015625
vt 0.296630859375 0.11083984375
vt 0.3017578125 0.10791015625
vt 0.318359375 0.25927734375
vt 0.31494140625 0.25390625
vt 0.3017578125 0.10791015625
vt 0.29931640625 0.11328125
vt 0.296630859375 0.11083984375
vt 0.29931640625 0.11328125
vt 0.3017578125 0.10791015625
vt 0.31494140625 0.25390625
vt 0.252685546875 0.11083984375
vt 0.2474365234375 0.107421875
vt 0.296630859375 0.11083984375
vt 0.296630859375 0.11083984375
vt 0.29931640625 0.11328125
vt 0.291748046875 0.1171875
vt 0.2474365234375 0.107421875
vt 0.252685546875 0.11083984375
vt 0.25 0.11328125
vt 0.23046875 0.2587890625
vt 0.2474365234375 0.107421875
vt 0.25 0.11328125
vt 0.252685546875 0.11083984375
vt 0.296630859375 0.11083984375
vt 0.257568359375 0.1171875
vt 0.296630859375 0.11083984375
vt 0.291748046875 0.1171875
vt 0.257568359375 0.1171875
vt 0.25 0.11328125
vt 0.252685546875 0.11083984375
vt 0.25537109375 0.11865234375
vt 0.252685546875 0.11083984375
vt 0.257568359375 0.1171875
vt 0.25537109375 0.11865234375
vt 0.23388671875 0.25390625
vt 0.23046875 0.2587890625
vt 0.25 0.11328125
vt 0.257568359375 0.1171875
vt 0.291748046875 0.1171875
vt 0.289794921875 0.11962890625
vt 0.23046875 0.2587890625
vt 0.23388671875 0.25390625
vt 0.236083984375 0.25634765625
vt 0.318359375 0.25927734375
vt 0.23046875 0.2587890625
vt 0.236083984375 0.25634765625
vt 0.23388671875 0.25390625
vt 0.25 0.11328125
vt 0.2406005859375 0.248046875
vt 0.25 0.11328125
vt 0.25537109375 0.11865234375
vt 0.2406005859375 0.248046875
vt 0.312744140625 0.25634765625
vt 0.318359375 0.25927734375
vt 0.236083984375 0.25634765625
vt 0.318359375 0.25927734375
vt 0.312744140625 0.25634765625
vt 0.31494140625 0.25390625
vt 0.236083984375 0.25634765625
vt 0.23388671875 0.25390625
vt 0.2423095703125 0.25
vt 0.23388671875 0.25390625
vt 0.2406005859375 0.248046875
vt 0.2423095703125 0.25
vt 0.312744140625 0.25634765625
vt 0.236083984375 0.25634765625
vt 0.306640625 0.25
vt 0.236083984375 0.25634765625
vt 0.2423095703125 0.25
vt 0.306640625 0.25
vt 0.31494140625 0.25390625
vt 0.312744140625 0.25634765625
vt 0.308349609375 0.24853515625
vt 0.312744140625 0.25634765625
vt 0.306640625 0.25
vt 0.308349609375 0.24853515625
vt 0.31494140625 0.25390625
vt 0.308349609375 0.24853515625
vt 0.2939453125 0.11865234375
vt 0.29931640625 0.11328125
vt 0.31494140625 0.25390625
vt 0.2939453125 0.11865234375
vt 0.29931640625 0.11328125
vt 0.2939453125 0.11865234375
vt 0.291748046875 0.1171875
vt 0.291748046875 0.1171875
vt 0.2939453125 0.11865234375
vt 0.289794921875 0.11962890625
vt 0.308349609375 0.24853515625
vt 0.306640625 0.25
vt 0.305908203125 0.24609375
vt 0.2939453125 0.11865234375
vt 0.308349609375 0.24853515625
vt 0.305908203125 0.24609375
vt 0.306640625 0.25
vt 0.2423095703125 0.25
vt 0.30419921875 0.248046875
vt 0.306640625 0.25
vt 0.30419921875 0.248046875
vt 0.305908203125 0.24609375
vt 0.2423095703125 0.25
vt 0.2447509765625 0.248046875
vt 0.30419921875 0.248046875
vt 0.2423095703125 0.25
vt 0.2406005859375 0.248046875
vt 0.2447509765625 0.248046875
vt 0.2919921875 0.12109375
vt 0.2939453125 0.11865234375
vt 0.305908203125 0.24609375
vt 0.2939453125 0.11865234375
vt 0.2919921875 0.12109375
vt 0.289794921875 0.11962890625
vt 0.2406005859375 0.248046875
vt 0.242919921875 0.24609375
vt 0.2447509765625 0.248046875
vt 0.2406005859375 0.248046875
vt 0.25537109375 0.11865234375
vt 0.242919921875 0.24609375
vt 0.30419921875 0.248046875
vt 0.2447509765625 0.248046875
vt 0.2744140625 0.2333984375
vt 0.2447509765625 0.248046875
vt 0.242919921875 0.24609375
vt 0.2744140625 0.2333984375
vt 0.30419921875 0.248046875
vt 0.2744140625 0.2333984375
vt 0.275146484375 0.232421875
vt 0.305908203125 0.24609375
vt 0.30419921875 0.248046875
vt 0.275146484375 0.232421875
vt 0.242919921875 0.24609375
vt 0.273681640625 0.232421875
vt 0.2744140625 0.2333984375
vt 0.2744140625 0.2333984375
vt 0.273681640625 0.232421875
vt 0.275146484375 0.232421875
vt 0.305908203125 0.24609375
vt 0.275146484375 0.232421875
vt 0.275390625 0.13525390625
vt 0.275146484375 0.232421875
vt 0.273681640625 0.232421875
vt 0.275390625 0.13525390625
vt 0.2919921875 0.12109375
vt 0.305908203125 0.24609375
vt 0.275390625 0.13525390625
vt 0.242919921875 0.24609375
vt 0.257080078125 0.12109375
vt 0.273681640625 0.232421875
vt 0.25537109375 0.11865234375
vt 0.257080078125 0.12109375
vt 0.242919921875 0.24609375
vt 0.273681640625 0.232421875
vt 0.273681640625 0.13525390625
vt 0.275390625 0.13525390625
vt 0.257080078125 0.12109375
vt 0.273681640625 0.13525390625
vt 0.273681640625 0.232421875
vt 0.2919921875 0.12109375
vt 0.275390625 0.13525390625
vt 0.274658203125 0.13330078125
vt 0.274658203125 0.13330078125
vt 0.275390625 0.13525390625
vt 0.273681640625 0.13525390625
vt 0.289794921875 0.11962890625
vt 0.2919921875 0.12109375
vt 0.274658203125 0.13330078125
vt 0.257080078125 0.12109375
vt 0.25927734375 0.11962890625
vt 0.273681640625 0.13525390625
vt 0.25927734375 0.11962890625
vt 0.274658203125 0.13330078125
vt 0.273681640625 0.13525390625
vt 0.25927734375 0.11962890625
vt 0.257080078125 0.12109375
vt 0.25537109375 0.11865234375
vt 0.25927734375 0.11962890625
vt 0.289794921875 0.11962890625
vt 0.274658203125 0.13330078125
vt 0.257568359375 0.1171875
vt 0.25927734375 0.11962890625
vt 0.25537109375 0.11865234375
vt 0.25927734375 0.11962890625
vt 0.257568359375 0.1171875
vt 0.289794921875 0.11962890625
vt 0.70947265625 0.20654296875
vt 0.71728515625 0.20654296875
vt 0.70947265625 0.26318359375
vt 0.71728515625 0.20654296875
vt 0.71728515625 0.26318359375
vt 0.70947265625 0.26318359375
vt 0.70947265625 0.26318359375
vt 0.71728515625 0.26318359375
vt 0.71728515625 0.26904296875
vt 0.71728515625 0.20654296875
vt 0.806640625 0.2060546875
vt 0.71728515625 0.26318359375
vt 0.71728515625 0.26904296875
vt 0.71728515625 0.26318359375
vt 0.806640625 0.26904296875
vt 0.806640625 0.2060546875
vt 0.806640625 0.26318359375
vt 0.71728515625 0.26318359375
vt 0.71728515625 0.26318359375
vt 0.806640625 0.26318359375
vt 0.806640625 0.26904296875
vt 0.806640625 0.26318359375
vt 0.806640625 0.2060546875
vt 0.8134765625 0.2060546875
vt 0.806640625 0.26318359375
vt 0.8134765625 0.26318359375
vt 0.806640625 0.26904296875
vt 0.8134765625 0.26318359375
vt 0.806640625 0.26318359375
vt 0.8134765625 0.2060546875
vt 0.70654296875 0.0966796875
vt 0.71337890625 0.09619140625
vt 0.70654296875 0.17724609375
vt 0.71337890625 0.09619140625
vt 0.71337890625 0.17724609375
vt 0.70654296875 0.17724609375
vt 0.71337890625 0.18310546875
vt 0.70654296875 0.17724609375
vt 0.71337890625 0.17724609375
vt 0.71337890625 0.17724609375
vt 0.71337890625 0.09619140625
vt 0.84716796875 0.0966796875
vt 0.71337890625 0.18310546875
vt 0.71337890625 0.17724609375
vt 0.84716796875 0.18310546875
vt 0.84716796875 0.17724609375
vt 0.71337890625 0.17724609375
vt 0.84716796875 0.0966796875
vt 0.71337890625 0.17724609375
vt 0.84716796875 0.17724609375
vt 0.84716796875 0.18310546875
vt 0.84716796875 0.17724609375
vt 0.84716796875 0.0966796875
vt 0.85400390625 0.0966796875
vt 0.84716796875 0.18310546875
vt 0.84716796875 0.17724609375
vt 0.85400390625 0.17724609375
vt 0.85400390625 0.17724609375
vt 0.84716796875 0.17724609375
vt 0.85400390625 0.0966796875
vn 0.06741238385438919 0.9566368460655212 0.2833753824234009
vn 0.4427777826786041 0.820202112197876 0.362237811088562
vn 0.4094911515712738 0.7585415840148926 -0.5068842172622681
vn 0.06756255775690079 0.8779208660125732 -0.4740150272846222
vn -0.6152831315994263 0.6468993425369263 -0.45049750804901123
vn -0.66582852602005 0.7063858509063721 0.24019046127796173
vn -0.8901626467704773 0.4243761897087097 -0.16587696969509125
vn -0.8431122303009033 0.5115089416503906 -0.1658925563097
vn -0.95587158203125 0.16919229924678802 0.2401740700006485
vn -0.9035040736198425 0.4243835508823395 -0.05982433632016182
vn -0.8783738017082214 0.15958794951438904 -0.45054540038108826
vn -0.6969155073165894 -0.538105309009552 -0.4740796685218811
vn -0.4094756245613098 -0.75850510597229 -0.5069512724876404
vn -0.4427781403064728 -0.8202021718025208 0.36223745346069336
vn -0.7628173232078552 -0.581222653388977 0.28335490822792053
vn -0.8504438400268555 0.5226561427116394 -0.05979666858911514
vn -0.7540017366409302 0.5669670701026917 0.3317071795463562
vn -0.5719757676124573 0.7933741211891174 -0.2083292156457901
vn -0.5915037989616394 0.8023761510848999 0.07947228103876114
vn -0.8876521587371826 0.3194364011287689 0.33171379566192627
vn -0.7829689979553223 0.5524517893791199 0.28593090176582336
vn -0.9953631162643433 0.05429895594716072 0.07939790934324265
vn -0.891409695148468 0.35163527727127075 0.28590425848960876
vn -0.9939820766448975 0.09946724772453308 0.04588931426405907
vn -0.9771298170089722 0.042899344116449356 -0.20827113091945648
vn -0.8777267932891846 0.3789480924606323 -0.2932475507259369
vn -0.8099077939987183 0.2715893089771271 -0.5198929905891418
vn -0.9801576733589172 0.07111240923404694 -0.185024693608284
vn -0.6713676452636719 0.5282233953475952 -0.5198513865470886
vn -0.8108737468719482 0.30280497670173645 -0.5007922053337097
vn -0.6979658603668213 0.5118995308876038 -0.5008019208908081
vn -0.5971183180809021 0.7805194854736328 -0.18503782153129578
vn -0.628420889377594 0.7765174508094788 0.045911163091659546
vn -0.9361551403999329 0.3443153500556946 -0.07113782316446304
vn -0.9199186563491821 0.39107176661491394 0.028504014015197754
vn -0.8324101567268372 0.5535828471183777 0.025284357368946075
vn -0.9243529438972473 0.3185231387615204 -0.21003462374210358
vn -0.8033013939857483 0.5909904837608337 -0.07373668253421783
vn -0.8112512230873108 0.4401802718639374 0.38485410809516907
vn -0.9592844843864441 0.2823975384235382 0.004999951925128698
vn -0.7579430937767029 0.6523193120956421 0.0013313684612512589
vn -0.9348898530006409 0.2225528508424759 -0.2764979600906372
vn -0.7737839818000793 0.5990333557128906 -0.20595473051071167
vn -0.6926429271697998 0.670602560043335 -0.26558971405029297
vn -0.7402704954147339 0.3971002697944641 -0.5425043702125549
vn -0.7974624037742615 0.5260215997695923 -0.2955588698387146
vn 0.14508792757987976 0.2687673270702362 -0.9522150754928589
vn -0.14869408309459686 0.3828311562538147 -0.911773145198822
vn -0.14506641030311584 -0.2687019109725952 -0.9522368907928467
vn -0.4015941917896271 -0.08569400012493134 -0.9117995500564575
vn -0.16652800142765045 -0.30848073959350586 0.9365404844284058
vn -0.49539658427238464 -0.10259009152650833 0.8625877499580383
vn 0.1665472835302353 0.30850985646247864 0.9365274310112
vn -0.18601210415363312 0.4704912602901459 0.8625760674476624
f 1/1/1 2/2/2 3/3/3
f 4/4/4 1/5/1 3/6/3
f 1/7/1 4/8/4 5/9/5
f 6/10/6 1/11/1 5/12/5
f 6/13/6 5/14/5 7/15/7
f 6/16/6 7/17/7 8/18/8
f 9/19/9 6/20/6 8/21/8
f 5/22/5 10/23/10 7/24/7
f 5/25/5 11/26/11 10/27/10
f 11/28/11 12/29/12 9/30/9
f 12/31/12 13/32/13 14/33/14
f 15/34/15 12/35/12 14/36/14
f 12/37/12 15/38/15 9/39/9
f 11/40/11 9/41/9 16/42/16
f 11/43/11 16/44/16 10/45/10
f 9/46/9 8/47/8 16/48/16
f 10/49/10 16/50/16 17/51/17
f 16/52/16 8/53/8 18/54/18
f 16/55/16 19/56/19 17/57/17
f 19/58/19 16/59/16 18/60/18
f 20/61/20 10/62/10 17/63/17
f 17/64/17 19/65/19 21/66/21
f 10/67/10 20/68/20 22/69/22
f 7/70/7 10/71/10 22/72/22
f 20/73/20 17/74/17 23/75/23
f 17/76/17 21/77/21 23/78/23
f 22/79/22 20/80/20 24/81/24
f 20/82/20 23/83/23 24/84/24
f 25/85/25 7/86/7 22/87/22
f 23/88/23 21/89/21 26/90/26
f 7/91/7 25/92/25 27/93/27
f 8/94/8 7/95/7 27/96/27
f 25/97/25 22/98/22 28/99/28
f 22/100/22 24/101/24 28/102/28
f 29/103/29 8/104/8 27/105/27
f 8/106/8 29/107/29 18/108/18
f 27/109/27 25/110/25 30/111/30
f 25/112/25 28/113/28 30/114/30
f 29/115/29 27/116/27 31/117/31
f 27/118/27 30/119/30 31/120/31
f 18/121/18 29/122/29 32/123/32
f 29/124/29 31/125/31 32/126/32
f 18/127/18 32/128/32 33/129/33
f 19/130/19 18/131/18 33/132/33
f 19/133/19 33/134/33 21/135/21
f 21/136/21 33/137/33 26/138/26
f 32/139/32 31/140/31 34/141/34
f 33/142/33 32/143/32 34/144/34
f 31/145/31 30/146/30 35/147/35
f 31/148/31 35/149/35 34/150/34
f 30/151/30 36/152/36 35/153/35
f 30/154/30 28/155/28 36/156/36
f 37/157/37 33/158/33 34/159/34
f 33/160/33 37/161/37 26/162/26
f 28/163/28 38/164/38 36/165/36
f 28/166/28 24/167/24 38/168/38
f 35/169/35 36/170/36 39/171/39
f 36/172/36 38/173/38 39/174/39
f 35/175/35 39/176/39 40/177/40
f 34/178/34 35/179/35 40/180/40
f 38/181/38 41/182/41 39/183/39
f 39/184/39 41/185/41 40/186/40
f 34/187/34 40/188/40 42/189/42
f 40/190/40 41/191/41 42/192/42
f 37/193/37 34/194/34 42/195/42
f 38/196/38 43/197/43 41/198/41
f 24/199/24 43/200/43 38/201/38
f 41/202/41 44/203/44 42/204/42
f 43/205/43 44/206/44 41/207/41
f 37/208/37 42/209/42 45/210/45
f 45/211/45 42/212/42 44/213/44
f 26/214/26 37/215/37 45/216/45
f 43/217/43 46/218/46 44/219/44
f 46/220/46 45/221/45 44/222/44
f 46/223/46 43/224/43 24/225/24
f 46/226/46 26/227/26 45/228/45
f 23/229/23 46/230/46 24/231/24
f 46/232/46 23/233/23 26/234/26
f 3/235/3 47/236/47 4/237/4
f 47/238/47 48/239/48 4/240/4
f 4/241/4 48/242/48 5/243/5
f 47/244/47 49/245/49 48/246/48
f 5/247/5 48/248/48 11/249/11
f 49/250/49 50/251/50 48/252/48
f 48/253/48 50/254/50 11/255/11
f 50/256/50 49/257/49 13/258/13
f 50/259/50 12/260/12 11/261/11
f 12/262/12 50/263/50 13/264/13
f 14/265/14 51/266/51 15/267/15
f 51/268/51 52/269/52 15/270/15
f 9/271/9 15/272/15 52/273/52
f 52/274/52 51/275/51 53/276/53
f 9/277/9 52/278/52 6/279/6
f 54/280/54 52/281/52 53/282/53
f 52/283/52 54/284/54 6/285/6
f 54/286/54 53/287/53 2/288/2
f 6/289/6 54/290/54 1/291/1
f 1/292/1 54/293/54 2/294/2
