# Exported by Lightwave Blender addon
v 296.22296142578125 -1569.514892578125 842.166259765625
v 193.3039093017578 -1527.4306640625 842.166259765625
v 296.22296142578125 -1569.5150146484375 1024.2464599609375
v 193.3039093017578 -1527.4306640625 1024.2464599609375
v 298.19866943359375 -1564.683349609375 836.9462280273438
v 357.50982666015625 -1419.6353759765625 836.9462280273438
v 195.27960205078125 -1522.59912109375 836.9462280273438
v 254.5907440185547 -1377.551025390625 836.9462280273438
v 190.44793701171875 -1520.6234130859375 842.1661987304688
v 249.7590789794922 -1375.5753173828125 842.166259765625
v 190.4479522705078 -1520.623291015625 1024.2464599609375
v 249.75909423828125 -1375.5753173828125 1024.2464599609375
v 195.2796173095703 -1522.598876953125 1029.4664306640625
v 254.59075927734375 -1377.5509033203125 1029.466552734375
v 298.19866943359375 -1564.6832275390625 1029.4664306640625
v 357.50982666015625 -1419.63525390625 1029.466552734375
v 303.03033447265625 -1566.6590576171875 1024.2464599609375
v 362.34149169921875 -1421.6112060546875 1024.2464599609375
v 303.03033447265625 -1566.658935546875 842.1661987304688
v 362.34149169921875 -1421.6109619140625 842.166259765625
vt 0.50390625 0.076171875
vt 1.0595703125 0.076171875
vt 0.50390625 0.9861984252929688
vt 1.0595703125 0.076171875
vt 1.0595703125 0.9861984252929688
vt 0.50390625 0.9861984252929688
vt 0.495849609375 1.5439453125
vt 0.495849609375 2.3271484375
vt -0.06005859375 1.5439453125
vt 0.495849609375 2.3271484375
vt -0.06005859375 2.3271484375
vt -0.06005859375 1.5439453125
vt 0.923828125 1.5439453125
vt 0.923828125 2.3271484375
vt 0.01380157470703125 1.5439453125
vt 0.923828125 2.3271484375
vt 0.01380157470703125 2.3271484375
vt 0.01380157470703125 1.5439453125
vt 1.0595703125 1.5439453125
vt 1.0595703125 2.3271484375
vt 0.50390625 1.5439453125
vt 1.0595703125 2.3271484375
vt 0.50390625 2.3271484375
vt 0.50390625 1.5439453125
vt 0.98583984375 1.5439453125
vt 0.98583984375 2.3271484375
vt 0.07574462890625 1.5439453125
vt 0.98583984375 2.3271484375
vt 0.07574462890625 2.3271484375
vt 0.07574462890625 1.5439453125
vt -0.06005859375 2.3271484375
vt -0.08612060546875 2.3271484375
vt -0.06005859375 1.5439453125
vt -0.08612060546875 2.3271484375
vt -0.08612060546875 1.5439453125
vt -0.06005859375 1.5439453125
vt 0.0496826171875 1.5439453125
vt 0.07574462890625 1.5439453125
vt 0.0496826171875 2.3271484375
vt 0.07574462890625 1.5439453125
vt 0.07574462890625 2.3271484375
vt 0.0496826171875 2.3271484375
vt 0.01380157470703125 2.3271484375
vt -0.01229095458984375 2.3271484375
vt 0.01380157470703125 1.5439453125
vt -0.01229095458984375 2.3271484375
vt -0.01229095458984375 1.5439453125
vt 0.01380157470703125 1.5439453125
vt 0.50390625 2.3271484375
vt 0.477783203125 2.3271484375
vt 0.50390625 1.5439453125
vt 0.477783203125 2.3271484375
vt 0.477783203125 1.5439453125
vt 0.50390625 1.5439453125
vt 0.50390625 0.076171875
vt 0.477783203125 0.076171875
vt 0.50390625 0.0498046875
vt 0.477783203125 0.9861984252929688
vt 0.477783203125 0.076171875
vt 0.50390625 0.076171875
vt 0.50390625 0.076171875
vt 0.50390625 0.0498046875
vt 1.0595703125 0.076171875
vt 0.50390625 0.9861984252929688
vt 0.477783203125 0.9861984252929688
vt 0.50390625 0.076171875
vt 0.50390625 0.0498046875
vt 1.0595703125 0.0498046875
vt 1.0595703125 0.076171875
vt 0.50390625 0.9861984252929688
vt 0.50390625 1.0122909545898438
vt 0.477783203125 0.9861984252929688
vt 1.0595703125 0.0498046875
vt 1.0859375 0.076171875
vt 1.0595703125 0.076171875
vt 1.0595703125 1.0122909545898438
vt 0.50390625 1.0122909545898438
vt 0.50390625 0.9861984252929688
vt 1.0595703125 0.076171875
vt 1.0859375 0.076171875
vt 1.0595703125 0.9861984252929688
vt 1.0595703125 0.9861984252929688
vt 1.0595703125 1.0122909545898438
vt 0.50390625 0.9861984252929688
vt 1.0859375 0.076171875
vt 1.0859375 0.9861984252929688
vt 1.0595703125 0.9861984252929688
vt 1.0859375 0.9861984252929688
vt 1.0595703125 1.0122909545898438
vt 1.0595703125 0.9861984252929688
vn 0.015221444889903069 0.9397304654121399 0.3415772318840027
vn 0.6475659608840942 0.6811608076095581 0.3415820300579071
vn 0.015223421156406403 0.9397246241569519 -0.3415932357311249
vn 0.6475695967674255 0.6811540126800537 -0.34158849716186523
vn -0.1868845671415329 0.4454672038555145 0.8755759000778198
vn -0.35421785712242126 0.14484205842018127 0.923878014087677
vn 0.445457398891449 0.18689042329788208 0.8755797147750854
vn 0.3542158007621765 -0.14484122395515442 0.9238789081573486
vn 0.9397277235984802 -0.015216122381389141 0.3415847718715668
vn 0.8551520109176636 -0.3496774733066559 0.38267579674720764
vn 0.9397280812263489 -0.015228529460728168 -0.3415831923484802
vn 0.8551506400108337 -0.3496771454811096 -0.38267913460731506
vn 0.44545650482177734 0.18688499927520752 -0.8755812644958496
vn 0.3542171120643616 -0.14484140276908875 -0.9238783121109009
vn -0.18688781559467316 0.4454481303691864 -0.8755848407745361
vn -0.35421040654182434 0.14483995735645294 -0.9238811731338501
vn -0.6811532974243164 0.6475709080696106 -0.3415876626968384
vn -0.8551498055458069 0.34967729449272156 -0.38268083333969116
vn -0.6811621785163879 0.6475647687911987 0.3415813744068146
vn -0.8551508784294128 0.349677175283432 0.3826785683631897
f 1/1/1 2/2/2 3/3/3
f 2/4/2 4/5/4 3/6/3
f 5/7/5 6/8/6 7/9/7
f 6/10/6 8/11/8 7/12/7
f 9/13/9 10/14/10 11/15/11
f 10/16/10 12/17/12 11/18/11
f 13/19/13 14/20/14 15/21/15
f 14/22/14 16/23/16 15/24/15
f 17/25/17 18/26/18 19/27/19
f 18/28/18 20/29/20 19/30/19
f 8/31/8 10/32/10 7/33/7
f 10/34/10 9/35/9 7/36/7
f 5/37/5 19/38/19 6/39/6
f 19/40/19 20/41/20 6/42/6
f 12/43/12 14/44/14 11/45/11
f 14/46/14 13/47/13 11/48/11
f 16/49/16 18/50/18 15/51/15
f 18/52/18 17/53/17 15/54/15
f 1/55/1 19/56/19 5/57/5
f 17/58/17 19/59/19 1/60/1
f 1/61/1 5/62/5 2/63/2
f 3/64/3 17/65/17 1/66/1
f 5/67/5 7/68/7 2/69/2
f 3/70/3 15/71/15 17/72/17
f 7/73/7 9/74/9 2/75/2
f 13/76/13 15/77/15 3/78/3
f 2/79/2 9/80/9 4/81/4
f 4/82/4 13/83/13 3/84/3
f 9/85/9 11/86/11 4/87/4
f 11/88/11 13/89/13 4/90/4
