# Exported by Lightwave Blender addon
v 911.3753051757812 2013.7152099609375 465.19293212890625
v 906.9097900390625 2019.5845947265625 465.19293212890625
v 904.8778076171875 2016.9588623046875 428.72772216796875
v 908.302734375 2012.457275390625 428.72772216796875
v 912.3077392578125 2006.399169921875 465.19293212890625
v 909.0179443359375 2006.84619140625 428.72772216796875
v 909.4573974609375 1999.59716796875 465.19293212890625
v 906.8318481445312 2001.6292724609375 428.72772216796875
v 903.587890625 1995.1317138671875 465.19293212890625
v 902.330078125 1998.2044677734375 428.72772216796875
v 896.2720947265625 1994.1993408203125 465.19293212890625
v 896.7189331054688 1997.4892578125 428.72772216796875
v 889.4700317382812 1997.0496826171875 465.19293212890625
v 891.5021362304688 1999.6751708984375 428.72772216796875
v 885.0045776367188 2002.919189453125 465.19293212890625
v 888.0772094726562 2004.177001953125 428.72772216796875
v 884.0721435546875 2010.235107421875 465.19293212890625
v 887.3619995117188 2009.7882080078125 428.72772216796875
v 886.9224853515625 2017.037109375 465.19293212890625
v 889.5482177734375 2015.0050048828125 428.72772216796875
v 892.7920532226562 2021.5025634765625 465.19293212890625
v 894.0498657226562 2018.4298095703125 428.72772216796875
v 900.1078491210938 2022.4349365234375 465.19293212890625
v 899.660888671875 2019.14501953125 428.72772216796875
v 908.009033203125 2015.787353515625 428.72772216796875
v 905.6572265625 2017.966064453125 428.72772216796875
v 907.9259643554688 2020.897705078125 465.19293212890625
v 910.9923706054688 2018.05712890625 465.19293212890625
v 912.911865234375 2014.3441162109375 465.19293212890625
v 909.4811401367188 2012.9395751953125 428.72772216796875
v 910.4287109375 2009.877197265625 428.72772216796875
v 914.1471557617188 2010.3511962890625 465.19293212890625
v 913.9530639648438 2006.1756591796875 465.19293212890625
v 910.27978515625 2006.6746826171875 428.72772216796875
v 909.5689697265625 2003.5487060546875 428.72772216796875
v 913.0262451171875 2002.0999755859375 465.19293212890625
v 910.7705078125 1998.5810546875 465.19293212890625
v 907.8389282226562 2000.8497314453125 428.72772216796875
v 905.6602783203125 1998.4979248046875 428.72772216796875
v 907.929931640625 1995.5147705078125 465.19293212890625
v 904.2169799804688 1993.5953369140625 465.19293212890625
v 902.8125610351562 1997.02587890625 428.72772216796875
v 899.7499389648438 1996.0784912109375 428.72772216796875
v 900.223876953125 1992.360107421875 465.19293212890625
v 896.048583984375 1992.553955078125 465.19293212890625
v 896.547607421875 1996.227294921875 428.72772216796875
v 893.4215698242188 1996.938232421875 428.72772216796875
v 891.9727783203125 1993.48095703125 465.19293212890625
v 888.4539184570312 1995.736572265625 465.19293212890625
v 890.7227172851562 1998.668212890625 428.72772216796875
v 888.3709106445312 2000.846923828125 428.72772216796875
v 885.3875732421875 1998.5771484375 465.19293212890625
v 883.468017578125 2002.290283203125 465.19293212890625
v 886.898681640625 2003.694580078125 428.72772216796875
v 885.9512329101562 2006.757080078125 428.72772216796875
v 882.2327270507812 2006.283203125 465.19293212890625
v 882.4269409179688 2010.4586181640625 465.19293212890625
v 886.1002197265625 2009.959716796875 428.72772216796875
v 886.81103515625 2013.0855712890625 428.72772216796875
v 883.3536376953125 2014.5343017578125 465.19293212890625
v 885.6094970703125 2018.0533447265625 465.19293212890625
v 888.5411376953125 2015.7843017578125 428.72772216796875
v 890.7196655273438 2018.1363525390625 428.72772216796875
v 888.4498901367188 2021.1195068359375 465.19293212890625
v 892.1629638671875 2023.0389404296875 465.19293212890625
v 893.5673828125 2019.6083984375 428.72772216796875
v 896.6300048828125 2020.5557861328125 428.72772216796875
v 896.1560668945312 2024.274169921875 465.19293212890625
v 900.3313598632812 2024.080078125 465.19293212890625
v 899.8323364257812 2020.4068603515625 428.72772216796875
v 902.9583740234375 2019.696044921875 428.72772216796875
v 904.4071655273438 2023.1533203125 465.19293212890625
vt 0.0927734375 0.09716796875
vt 0.0162200927734375 0.09716796875
vt 0.0162200927734375 0.9044189453125
vt 0.0162200927734375 0.9044189453125
vt 0.0927734375 0.9044189453125
vt 0.0927734375 0.09716796875
vt 0.1728515625 0.09716796875
vt 0.0927734375 0.09716796875
vt 0.0927734375 0.9044189453125
vt 0.0927734375 0.9044189453125
vt 0.1728515625 0.9044189453125
vt 0.1728515625 0.09716796875
vt 0.2529296875 0.09716796875
vt 0.1728515625 0.09716796875
vt 0.1728515625 0.9044189453125
vt 0.1728515625 0.9044189453125
vt 0.2529296875 0.9044189453125
vt 0.2529296875 0.09716796875
vt 0.3330078125 0.09716796875
vt 0.2529296875 0.09716796875
vt 0.2529296875 0.9044189453125
vt 0.2529296875 0.9044189453125
vt 0.3330078125 0.9044189453125
vt 0.3330078125 0.09716796875
vt 0.4130859375 0.09716796875
vt 0.3330078125 0.09716796875
vt 0.3330078125 0.9044189453125
vt 0.3330078125 0.9044189453125
vt 0.4130859375 0.9044189453125
vt 0.4130859375 0.09716796875
vt 0.4931640625 0.09716796875
vt 0.4130859375 0.09716796875
vt 0.4130859375 0.9044189453125
vt 0.4130859375 0.9044189453125
vt 0.4931640625 0.9044189453125
vt 0.4931640625 0.09716796875
vt 0.5732421875 0.09716796875
vt 0.4931640625 0.09716796875
vt 0.4931640625 0.9044189453125
vt 0.4931640625 0.9044189453125
vt 0.5732421875 0.9044189453125
vt 0.5732421875 0.09716796875
vt 0.6533203125 0.09716796875
vt 0.5732421875 0.09716796875
vt 0.5732421875 0.9044189453125
vt 0.5732421875 0.9044189453125
vt 0.6533203125 0.9044189453125
vt 0.6533203125 0.09716796875
vt 0.7333984375 0.09716796875
vt 0.6533203125 0.09716796875
vt 0.6533203125 0.9044189453125
vt 0.6533203125 0.9044189453125
vt 0.7333984375 0.9044189453125
vt 0.7333984375 0.09716796875
vt 0.8134765625 0.09716796875
vt 0.7333984375 0.09716796875
vt 0.7333984375 0.9044189453125
vt 0.7333984375 0.9044189453125
vt 0.8134765625 0.9044189453125
vt 0.8134765625 0.09716796875
vt 0.8935546875 0.09716796875
vt 0.8134765625 0.09716796875
vt 0.8134765625 0.9044189453125
vt 0.8134765625 0.9044189453125
vt 0.8935546875 0.9044189453125
vt 0.8935546875 0.09716796875
vt 0.984375 0.09716796875
vt 0.8935546875 0.09716796875
vt 0.8935546875 0.9044189453125
vt 0.8935546875 0.9044189453125
vt 0.984375 0.9044189453125
vt 0.984375 0.09716796875
vt 0.05450439453125 0.9044189453125
vt 0.0162200927734375 0.9044189453125
vt 0.0162200927734375 0.09716796875
vt 0.0162200927734375 0.09716796875
vt 0.05450439453125 0.09716796875
vt 0.05450439453125 0.9044189453125
vt 0.05450439453125 0.9044189453125
vt 0.05450439453125 0.09716796875
vt 0.0927734375 0.09716796875
vt 0.0927734375 0.09716796875
vt 0.0927734375 0.9044189453125
vt 0.05450439453125 0.9044189453125
vt 0.1328125 0.9044189453125
vt 0.0927734375 0.9044189453125
vt 0.0927734375 0.09716796875
vt 0.0927734375 0.09716796875
vt 0.1328125 0.09716796875
vt 0.1328125 0.9044189453125
vt 0.1328125 0.9044189453125
vt 0.1328125 0.09716796875
vt 0.1728515625 0.09716796875
vt 0.1728515625 0.09716796875
vt 0.1728515625 0.9044189453125
vt 0.1328125 0.9044189453125
vt 0.212890625 0.9044189453125
vt 0.1728515625 0.9044189453125
vt 0.1728515625 0.09716796875
vt 0.1728515625 0.09716796875
vt 0.212890625 0.09716796875
vt 0.212890625 0.9044189453125
vt 0.212890625 0.9044189453125
vt 0.212890625 0.09716796875
vt 0.2529296875 0.09716796875
vt 0.2529296875 0.09716796875
vt 0.2529296875 0.9044189453125
vt 0.212890625 0.9044189453125
vt 0.29296875 0.9044189453125
vt 0.2529296875 0.9044189453125
vt 0.2529296875 0.09716796875
vt 0.2529296875 0.09716796875
vt 0.29296875 0.09716796875
vt 0.29296875 0.9044189453125
vt 0.29296875 0.9044189453125
vt 0.29296875 0.09716796875
vt 0.3330078125 0.09716796875
vt 0.3330078125 0.09716796875
vt 0.3330078125 0.9044189453125
vt 0.29296875 0.9044189453125
vt 0.373046875 0.9044189453125
vt 0.3330078125 0.9044189453125
vt 0.3330078125 0.09716796875
vt 0.3330078125 0.09716796875
vt 0.373046875 0.09716796875
vt 0.373046875 0.9044189453125
vt 0.373046875 0.9044189453125
vt 0.373046875 0.09716796875
vt 0.4130859375 0.09716796875
vt 0.4130859375 0.09716796875
vt 0.4130859375 0.9044189453125
vt 0.373046875 0.9044189453125
vt 0.453125 0.9044189453125
vt 0.4130859375 0.9044189453125
vt 0.4130859375 0.09716796875
vt 0.4130859375 0.09716796875
vt 0.453125 0.09716796875
vt 0.453125 0.9044189453125
vt 0.453125 0.9044189453125
vt 0.453125 0.09716796875
vt 0.4931640625 0.09716796875
vt 0.4931640625 0.09716796875
vt 0.4931640625 0.9044189453125
vt 0.453125 0.9044189453125
vt 0.533203125 0.9044189453125
vt 0.4931640625 0.9044189453125
vt 0.4931640625 0.09716796875
vt 0.4931640625 0.09716796875
vt 0.533203125 0.09716796875
vt 0.533203125 0.9044189453125
vt 0.533203125 0.9044189453125
vt 0.533203125 0.09716796875
vt 0.5732421875 0.09716796875
vt 0.5732421875 0.09716796875
vt 0.5732421875 0.9044189453125
vt 0.533203125 0.9044189453125
vt 0.61328125 0.9044189453125
vt 0.5732421875 0.9044189453125
vt 0.5732421875 0.09716796875
vt 0.5732421875 0.09716796875
vt 0.61328125 0.09716796875
vt 0.61328125 0.9044189453125
vt 0.61328125 0.9044189453125
vt 0.61328125 0.09716796875
vt 0.6533203125 0.09716796875
vt 0.6533203125 0.09716796875
vt 0.6533203125 0.9044189453125
vt 0.61328125 0.9044189453125
vt 0.693359375 0.9044189453125
vt 0.6533203125 0.9044189453125
vt 0.6533203125 0.09716796875
vt 0.6533203125 0.09716796875
vt 0.693359375 0.09716796875
vt 0.693359375 0.9044189453125
vt 0.693359375 0.9044189453125
vt 0.693359375 0.09716796875
vt 0.7333984375 0.09716796875
vt 0.7333984375 0.09716796875
vt 0.7333984375 0.9044189453125
vt 0.693359375 0.9044189453125
vt 0.7734375 0.9044189453125
vt 0.7333984375 0.9044189453125
vt 0.7333984375 0.09716796875
vt 0.7333984375 0.09716796875
vt 0.7734375 0.09716796875
vt 0.7734375 0.9044189453125
vt 0.7734375 0.9044189453125
vt 0.7734375 0.09716796875
vt 0.8134765625 0.09716796875
vt 0.8134765625 0.09716796875
vt 0.8134765625 0.9044189453125
vt 0.7734375 0.9044189453125
vt 0.853515625 0.9044189453125
vt 0.8134765625 0.9044189453125
vt 0.8134765625 0.09716796875
vt 0.8134765625 0.09716796875
vt 0.853515625 0.09716796875
vt 0.853515625 0.9044189453125
vt 0.853515625 0.9044189453125
vt 0.853515625 0.09716796875
vt 0.8935546875 0.09716796875
vt 0.8935546875 0.09716796875
vt 0.8935546875 0.9044189453125
vt 0.853515625 0.9044189453125
vt 0.93896484375 0.9044189453125
vt 0.8935546875 0.9044189453125
vt 0.8935546875 0.09716796875
vt 0.8935546875 0.09716796875
vt 0.93896484375 0.09716796875
vt 0.93896484375 0.9044189453125
vt 0.93896484375 0.9044189453125
vt 0.93896484375 0.09716796875
vt 0.984375 0.09716796875
vt 0.984375 0.09716796875
vt 0.984375 0.9044189453125
vt 0.93896484375 0.9044189453125
vn -0.9216381311416626 -0.37730807065963745 0.0906740128993988
vn -0.6095033288002014 -0.7875809669494629 0.09067463874816895
vn -0.6094987392425537 -0.7875845432281494 0.09067416936159134
vn -0.9216334223747253 -0.37731990218162537 0.09067230671644211
vn -0.986815869808197 0.13406339287757874 0.0906723141670227
vn -0.9868175983428955 0.1340508908033371 0.09067102521657944
vn -0.7875767946243286 0.6095090508460999 0.09067323058843613
vn -0.7875776886940002 0.6095077395439148 0.09067410230636597
vn -0.3772970736026764 0.9216424822807312 0.09067590534687042
vn -0.3773025572299957 0.9216402173042297 0.09067541360855103
vn 0.1340627521276474 0.9868156313896179 0.09067511558532715
vn 0.13404282927513123 0.9868186116218567 0.09067197144031525
vn 0.6095073223114014 0.7875780463218689 0.09067323058843613
vn 0.6094952821731567 0.7875874638557434 0.09067180752754211
vn 0.9216412901878357 0.3773004710674286 0.09067359566688538
vn 0.921638548374176 0.377307265996933 0.09067302942276001
vn 0.9868159294128418 -0.13406206667423248 0.09067317098379135
vn 0.986815333366394 -0.13406509160995483 0.0906747579574585
vn 0.7875745296478271 -0.6095115542411804 0.09067513793706894
vn 0.7875717878341675 -0.6095149517059326 0.09067638218402863
vn 0.37729552388191223 -0.9216429591178894 0.09067720174789429
vn 0.3773098289966583 -0.9216373562812805 0.09067516773939133
vn -0.13406622409820557 -0.9868150949478149 0.09067574888467789
vn -0.13405506312847137 -0.9868168234825134 0.09067469090223312
vn 0.7917026877403259 0.6022869348526001 -0.10226115584373474
vn 0.6088866591453552 0.7867836356163025 -0.1011366918683052
vn 0.6088807582855225 0.7867880463600159 -0.10113807022571564
vn 0.7916883230209351 0.6023058295249939 -0.10226109623908997
vn 0.9207029342651367 0.3769315779209137 -0.10113701969385147
vn 0.9206986427307129 0.3769412934780121 -0.10114005208015442
vn 0.9867706894874573 0.12580162286758423 -0.10226227343082428
vn 0.9867727160453796 0.12578831613063812 -0.10225865244865417
vn 0.9858171939849854 -0.1339247077703476 -0.10113655030727386
vn 0.9858165383338928 -0.13392843306064606 -0.10113783925771713
vn 0.9174652099609375 -0.3844486474990845 -0.10225832462310791
vn 0.9174590706825256 -0.38446298241615295 -0.10225889086723328
vn 0.7867802977561951 -0.6088911294937134 -0.10113491117954254
vn 0.7867894768714905 -0.6088795065879822 -0.10113438963890076
vn 0.602288544178009 -0.7917019724845886 -0.102257139980793
vn 0.602295994758606 -0.7916964888572693 -0.10225516557693481
vn 0.3769151568412781 -0.9207101464271545 -0.10113319009542465
vn 0.37690210342407227 -0.92071533203125 -0.10113422572612762
vn 0.1257835477590561 -0.9867733716964722 -0.1022588461637497
vn 0.12580223381519318 -0.9867711663246155 -0.10225681960582733
vn -0.13391560316085815 -0.9858183264732361 -0.10113722085952759
vn -0.13392719626426697 -0.9858165383338928 -0.10113947838544846
vn -0.38446515798568726 -0.9174580574035645 -0.1022602766752243
vn -0.38447198271751404 -0.9174553751945496 -0.1022595465183258
vn -0.6088815927505493 -0.7867872714996338 -0.10113834589719772
vn -0.6088864803314209 -0.7867835760116577 -0.10113770514726639
vn -0.7916885614395142 -0.6023057699203491 -0.10225894302129745
vn -0.7916913628578186 -0.6023017764091492 -0.10226108878850937
vn -0.920703113079071 -0.3769311010837555 -0.10113706439733505
vn -0.9206981658935547 -0.3769434094429016 -0.10113603621721268
vn -0.9867748618125916 -0.12577083706855774 -0.10226025432348251
vn -0.9867746233940125 -0.12577305734157562 -0.10225987434387207
vn -0.9858168363571167 0.1339261382818222 -0.101138174533844
vn -0.9858148097991943 0.13394136726856232 -0.10113739967346191
vn -0.9174532294273376 0.3844761848449707 -0.1022619754076004
vn -0.9174626469612122 0.38445380330085754 -0.10226193070411682
vn -0.7867812514305115 0.6088895201683044 -0.10113751888275146
vn -0.786795973777771 0.6088697910308838 -0.10114175081253052
vn -0.6023175120353699 0.7916792631149292 -0.1022619977593422
vn -0.6022956967353821 0.7916966080665588 -0.10225717723369598
vn -0.3769092857837677 0.920712411403656 -0.10113374143838882
vn -0.37690210342407227 0.92071533203125 -0.10113422572612762
vn -0.1257638931274414 0.9867759943008423 -0.10225776582956314
vn -0.12577377259731293 0.9867748022079468 -0.10225682705640793
vn 0.13391637802124023 0.9858183860778809 -0.10113560408353806
vn 0.13392765820026398 0.9858167767524719 -0.10113620012998581
vn 0.3844476640224457 0.9174655079841614 -0.10225878655910492
vn 0.38444969058036804 0.9174646139144897 -0.10225953161716461
f 1/1/1 2/2/2 3/3/3
f 3/4/3 4/5/4 1/6/1
f 5/7/5 1/8/1 4/9/4
f 4/10/4 6/11/6 5/12/5
f 7/13/7 5/14/5 6/15/6
f 6/16/6 8/17/8 7/18/7
f 9/19/9 7/20/7 8/21/8
f 8/22/8 10/23/10 9/24/9
f 11/25/11 9/26/9 10/27/10
f 10/28/10 12/29/12 11/30/11
f 13/31/13 11/32/11 12/33/12
f 12/34/12 14/35/14 13/36/13
f 15/37/15 13/38/13 14/39/14
f 14/40/14 16/41/16 15/42/15
f 17/43/17 15/44/15 16/45/16
f 16/46/16 18/47/18 17/48/17
f 19/49/19 17/50/17 18/51/18
f 18/52/18 20/53/20 19/54/19
f 21/55/21 19/56/19 20/57/20
f 20/58/20 22/59/22 21/60/21
f 23/61/23 21/62/21 22/63/22
f 22/64/22 24/65/24 23/66/23
f 2/67/2 23/68/23 24/69/24
f 24/70/24 3/71/3 2/72/2
f 25/73/25 26/74/26 27/75/27
f 27/76/27 28/77/28 25/78/25
f 25/79/25 28/80/28 29/81/29
f 29/82/29 30/83/30 25/84/25
f 31/85/31 30/86/30 29/87/29
f 29/88/29 32/89/32 31/90/31
f 31/91/31 32/92/32 33/93/33
f 33/94/33 34/95/34 31/96/31
f 35/97/35 34/98/34 33/99/33
f 33/100/33 36/101/36 35/102/35
f 35/103/35 36/104/36 37/105/37
f 37/106/37 38/107/38 35/108/35
f 39/109/39 38/110/38 37/111/37
f 37/112/37 40/113/40 39/114/39
f 39/115/39 40/116/40 41/117/41
f 41/118/41 42/119/42 39/120/39
f 43/121/43 42/122/42 41/123/41
f 41/124/41 44/125/44 43/126/43
f 43/127/43 44/128/44 45/129/45
f 45/130/45 46/131/46 43/132/43
f 47/133/47 46/134/46 45/135/45
f 45/136/45 48/137/48 47/138/47
f 47/139/47 48/140/48 49/141/49
f 49/142/49 50/143/50 47/144/47
f 51/145/51 50/146/50 49/147/49
f 49/148/49 52/149/52 51/150/51
f 51/151/51 52/152/52 53/153/53
f 53/154/53 54/155/54 51/156/51
f 55/157/55 54/158/54 53/159/53
f 53/160/53 56/161/56 55/162/55
f 55/163/55 56/164/56 57/165/57
f 57/166/57 58/167/58 55/168/55
f 59/169/59 58/170/58 57/171/57
f 57/172/57 60/173/60 59/174/59
f 59/175/59 60/176/60 61/177/61
f 61/178/61 62/179/62 59/180/59
f 63/181/63 62/182/62 61/183/61
f 61/184/61 64/185/64 63/186/63
f 63/187/63 64/188/64 65/189/65
f 65/190/65 66/191/66 63/192/63
f 67/193/67 66/194/66 65/195/65
f 65/196/65 68/197/68 67/198/67
f 67/199/67 68/200/68 69/201/69
f 69/202/69 70/203/70 67/204/67
f 71/205/71 70/206/70 69/207/69
f 69/208/69 72/209/72 71/210/71
f 71/211/71 72/212/72 27/213/27
f 27/214/27 26/215/26 71/216/71
