# Exported by Lightwave Blender addon
v -23.09248161315918 559.3261108398438 96.5541000366211
v -23.092527389526367 559.3259887695312 50.89912796020508
v -134.87681579589844 351.993408203125 96.55449676513672
v -134.87684631347656 351.99334716796875 50.899532318115234
vt -0.0888671875 0.644287109375
vt -0.0888671875 0.416015625
vt 1.0888671875 0.644287109375
vt -0.0888671875 0.416015625
vt 1.0888671875 0.416015625
vt 1.0888671875 0.644287109375
vn -0.8802163600921631 0.47457244992256165 -3.8633478993688186e-07
vn -0.8802164196968079 0.47457244992256165 -3.4487129596527666e-07
vn -0.8802163004875183 0.4745725393295288 -8.753820424090009e-08
vn -0.8802163600921631 0.4745725393295288 -4.607471382200856e-08
f 1/1/1 2/2/2 3/3/3
f 2/4/2 4/5/4 3/6/3
