# Exported by Lightwave Blender addon
v 40.338443756103516 -1290.2584228515625 159.5052490234375
v 40.33844757080078 -1290.2584228515625 344.8972473144531
v 42.706092834472656 -1286.884033203125 344.8972473144531
v 42.70609664916992 -1286.884033203125 159.50526428222656
v 42.9932861328125 -1286.474853515625 344.8972473144531
v 42.993289947509766 -1286.474853515625 159.50526428222656
v 47.3753776550293 -1288.2701416015625 159.5052490234375
v 47.37538146972656 -1288.2701416015625 344.8972473144531
v 47.28827667236328 -1288.7625732421875 344.8972473144531
v 47.28825759887695 -1288.7625732421875 159.5052490234375
v 46.533294677734375 -1293.030029296875 344.8972473144531
v 46.53329849243164 -1293.030029296875 159.50526428222656
v 43.455955505371094 -1286.6644287109375 344.8972473144531
v 43.45595169067383 -1286.6644287109375 159.50526428222656
v 46.91270446777344 -1288.0806884765625 344.8972473144531
v 46.91270065307617 -1288.0806884765625 159.5052490234375
vt 0.2763671875 0.52587890625
vt -0.64990234375 0.52587890625
vt -0.64990234375 0.505859375
vt 0.2763671875 0.505859375
vt 0.2763671875 0.52587890625
vt -0.64990234375 0.505859375
vt 0.2763671875 0.505859375
vt -0.64990234375 0.505859375
vt -0.64990234375 0.50341796875
vt 0.2763671875 0.50341796875
vt 0.2763671875 0.505859375
vt -0.64990234375 0.50341796875
vt 0.72314453125 0.50341796875
vt 1.6494140625 0.50341796875
vt 1.6494140625 0.505859375
vt 0.72314453125 0.505859375
vt 0.72314453125 0.50341796875
vt 1.6494140625 0.505859375
vt 0.72314453125 0.505859375
vt 1.6494140625 0.505859375
vt 1.6494140625 0.527099609375
vt 0.72314453125 0.527099609375
vt 0.72314453125 0.505859375
vt 1.6494140625 0.527099609375
vt 0.72314453125 0.34912109375
vt 1.6494140625 0.34912109375
vt 1.6494140625 0.3515625
vt 0.72314453125 0.3515625
vt 0.72314453125 0.34912109375
vt 1.6494140625 0.3515625
vt 0.72314453125 0.3515625
vt 1.6494140625 0.3515625
vt 1.6494140625 0.3701171875
vt 0.72314453125 0.3701171875
vt 0.72314453125 0.3515625
vt 1.6494140625 0.3701171875
vt 0.72314453125 0.3701171875
vt 1.6494140625 0.3701171875
vt 1.6494140625 0.37255859375
vt 0.72314453125 0.37255859375
vt 0.72314453125 0.3701171875
vt 1.6494140625 0.37255859375
vn -0.8185954689979553 0.5743705034255981 -1.6370025335277205e-08
vn -0.8185963034629822 0.5743693113327026 1.68437548353495e-08
vn -0.8185531497001648 0.5744308233261108 -2.373652385756486e-10
vn -0.8185526728630066 0.5744314193725586 -1.6824317938812783e-08
vn -0.2811274230480194 0.9596705436706543 -5.7845435108561105e-09
vn -0.28112339973449707 0.9596716165542603 -1.5722275037433064e-08
vn 0.8758911490440369 0.4825086295604706 -7.000998181183604e-08
vn 0.8758780360221863 0.48253268003463745 -1.8022401349071515e-08
vn 0.9847108125686646 -0.1741969883441925 -6.08551005143454e-08
vn 0.9847086668014526 -0.17420920729637146 -4.14832861395098e-08
vn 0.9847083687782288 -0.17421075701713562 -9.950158386118346e-08
vn 0.9847093224525452 -0.1742057055234909 2.0178879012178186e-08
vn 0.37913575768470764 0.925341010093689 -1.3105005795821523e-11
vn 0.37913843989372253 0.9253398776054382 -7.686610459245458e-09
vn 0.3790285587310791 0.9253849387168884 -7.79758124735963e-09
vn 0.3790285289287567 0.9253849387168884 -7.685405201129925e-09
f 1/1/1 2/2/2 3/3/3
f 4/4/4 1/5/1 3/6/3
f 4/7/4 3/8/3 5/9/5
f 6/10/6 4/11/4 5/12/5
f 7/13/7 8/14/8 9/15/9
f 10/16/10 7/17/7 9/18/9
f 10/19/10 9/20/9 11/21/11
f 12/22/12 10/23/10 11/24/11
f 6/25/6 5/26/5 13/27/13
f 14/28/14 6/29/6 13/30/13
f 14/31/14 13/32/13 15/33/15
f 16/34/16 14/35/14 15/36/15
f 16/37/16 15/38/15 8/39/8
f 7/40/7 16/41/16 8/42/8
