# Exported by Lightwave Blender addon
v 730.4566040039062 -405.1576232910156 726.6052856445312
v 736.356689453125 -390.38604736328125 726.6052856445312
v 740.3163452148438 -391.96826171875 689.0603637695312
v 736.131103515625 -402.44659423828125 689.0603637695312
v 736.8768920898438 -403.7456359863281 689.056396484375
v 731.2010498046875 -406.457275390625 726.6092529296875
v 735.5455322265625 -407.6658020019531 722.6333618164062
v 751.636474609375 -414.09429931640625 722.6334228515625
v 755.617919921875 -416.2121276855469 726.6092529296875
v 739.9866943359375 -405.50970458984375 692.9907836914062
v 753.3707885742188 -410.3352355957031 689.0565185546875
v 754.8062133789062 -409.9075927734375 689.0604248046875
v 758.9911499023438 -399.43011474609375 689.0603637695312
v 762.9525146484375 -401.0127258300781 726.6054077148438
v 757.0528564453125 -415.7831726074219 726.6053466796875
v 749.9017944335938 -409.470947265625 692.9907836914062
v 749.0364990234375 -408.8717956542969 693.7284545898438
v 751.087890625 -413.4170837402344 721.6435546875
v 749.4290161132812 -409.0809326171875 694.1202392578125
v 741.0266723632812 -405.6717529296875 693.7283935546875
v 748.5386352539062 -407.67529296875 694.8643798828125
v 740.5980834960938 -405.55279541015625 694.1202392578125
v 742.2119750976562 -405.1476745605469 694.8643798828125
v 741.7837524414062 -405.0285949707031 695.2562255859375
v 736.4097290039062 -407.5528564453125 721.6434936523438
v 748.1052856445312 -407.5802917480469 695.4535522460938
v 736.7190551757812 -407.7287902832031 722.0352783203125
v 737.9310302734375 -406.8692321777344 720.7472534179688
v 750.7425537109375 -413.3313903808594 722.0352783203125
v 738.2407836914062 -407.044921875 721.1390991210938
v 750.1109008789062 -411.78717041015625 721.1390991210938
v 750.4564208984375 -411.8732604980469 720.7472534179688
v 748.9310302734375 -407.884033203125 695.2562866210938
v 749.8718872070312 -411.5737609863281 720.2496337890625
v 749.6070556640625 -411.5078125 720.5499877929688
v 738.7984008789062 -407.18963623046875 720.5499877929688
v 748.4060668945312 -407.7402648925781 695.75390625
v 738.5609741210938 -407.0549011230469 720.2496337890625
v 743.3568725585938 -411.4659118652344 717.9031982421875
v 743.5835571289062 -411.618408203125 717.4434814453125
v 743.0874633789062 -411.420166015625 717.4434814453125
v 744.7088012695312 -408.80609130859375 698.1199340820312
v 742.2632446289062 -405.2861022949219 695.7538452148438
v 744.2083740234375 -408.606201171875 698.1199340820312
v 744.5336303710938 -408.51824951171875 697.6301879882812
v 742.5914916992188 -405.37744140625 695.4534912109375
v 741.5078735351562 -392.44439697265625 688.1429443359375
v 737.36572265625 -402.81488037109375 688.1430053710938
v 757.7996215820312 -398.9540100097656 688.14306640625
v 753.65771484375 -409.3237609863281 688.1430053710938
v 761.9741821289062 -400.621826171875 727.5227661132812
v 756.0252685546875 -415.515625 727.522705078125
v 737.3350219726562 -390.7769775390625 727.5226440429688
v 731.3857421875 -405.67181396484375 727.5226440429688
vt 0.20263671875 0.2802734375
vt 0.12493896484375 0.26171875
vt 0.1688232421875 0.0771484375
vt 0.2239990234375 0.08984375
vt 0.20263671875 0.2802734375
vt 0.1688232421875 0.0771484375
vt 0.20263671875 0.2802734375
vt 0.2239990234375 0.08984375
vt 0.2315673828125 0.0908203125
vt 0.2100830078125 0.28076171875
vt 0.20263671875 0.2802734375
vt 0.2315673828125 0.0908203125
vt 0.2100830078125 0.28076171875
vt 0.2315673828125 0.0908203125
vt 0.232421875 0.26123046875
vt 0.2100830078125 0.28076171875
vt 0.232421875 0.26123046875
vt 0.320068359375 0.26123046875
vt 0.34228515625 0.28076171875
vt 0.2100830078125 0.28076171875
vt 0.320068359375 0.26123046875
vt 0.2315673828125 0.0908203125
vt 0.2491455078125 0.1103515625
vt 0.232421875 0.26123046875
vt 0.2315673828125 0.0908203125
vt 0.32080078125 0.0908203125
vt 0.2491455078125 0.1103515625
vt 0.32080078125 0.0908203125
vt 0.328369140625 0.08984375
vt 0.34228515625 0.28076171875
vt 0.328369140625 0.08984375
vt 0.383544921875 0.0771484375
vt 0.427490234375 0.26171875
vt 0.349853515625 0.2802734375
vt 0.328369140625 0.08984375
vt 0.427490234375 0.26171875
vt 0.328369140625 0.08984375
vt 0.349853515625 0.2802734375
vt 0.34228515625 0.28076171875
vt 0.32080078125 0.0908203125
vt 0.34228515625 0.28076171875
vt 0.30322265625 0.1103515625
vt 0.32080078125 0.0908203125
vt 0.30322265625 0.1103515625
vt 0.2491455078125 0.1103515625
vt 0.34228515625 0.28076171875
vt 0.320068359375 0.26123046875
vt 0.30322265625 0.1103515625
vt 0.2491455078125 0.1103515625
vt 0.30322265625 0.1103515625
vt 0.298095703125 0.11376953125
vt 0.30322265625 0.1103515625
vt 0.320068359375 0.26123046875
vt 0.316650390625 0.255859375
vt 0.30322265625 0.1103515625
vt 0.30078125 0.11572265625
vt 0.298095703125 0.11376953125
vt 0.30078125 0.11572265625
vt 0.30322265625 0.1103515625
vt 0.316650390625 0.255859375
vt 0.254150390625 0.11376953125
vt 0.2491455078125 0.1103515625
vt 0.298095703125 0.11376953125
vt 0.298095703125 0.11376953125
vt 0.30078125 0.11572265625
vt 0.293212890625 0.11962890625
vt 0.2491455078125 0.1103515625
vt 0.254150390625 0.11376953125
vt 0.25146484375 0.11572265625
vt 0.232421875 0.26123046875
vt 0.2491455078125 0.1103515625
vt 0.25146484375 0.11572265625
vt 0.254150390625 0.11376953125
vt 0.298095703125 0.11376953125
vt 0.259033203125 0.11962890625
vt 0.298095703125 0.11376953125
vt 0.293212890625 0.11962890625
vt 0.259033203125 0.11962890625
vt 0.25146484375 0.11572265625
vt 0.254150390625 0.11376953125
vt 0.257080078125 0.12158203125
vt 0.254150390625 0.11376953125
vt 0.259033203125 0.11962890625
vt 0.257080078125 0.12158203125
vt 0.23583984375 0.255859375
vt 0.232421875 0.26123046875
vt 0.25146484375 0.11572265625
vt 0.259033203125 0.11962890625
vt 0.293212890625 0.11962890625
vt 0.291259765625 0.1220703125
vt 0.232421875 0.26123046875
vt 0.23583984375 0.255859375
vt 0.238037109375 0.25830078125
vt 0.320068359375 0.26123046875
vt 0.232421875 0.26123046875
vt 0.238037109375 0.25830078125
vt 0.23583984375 0.255859375
vt 0.25146484375 0.11572265625
vt 0.2425537109375 0.25048828125
vt 0.25146484375 0.11572265625
vt 0.257080078125 0.12158203125
vt 0.2425537109375 0.25048828125
vt 0.314453125 0.25830078125
vt 0.320068359375 0.26123046875
vt 0.238037109375 0.25830078125
vt 0.320068359375 0.26123046875
vt 0.314453125 0.25830078125
vt 0.316650390625 0.255859375
vt 0.238037109375 0.25830078125
vt 0.23583984375 0.255859375
vt 0.244140625 0.251953125
vt 0.23583984375 0.255859375
vt 0.2425537109375 0.25048828125
vt 0.244140625 0.251953125
vt 0.314453125 0.25830078125
vt 0.238037109375 0.25830078125
vt 0.30810546875 0.251953125
vt 0.238037109375 0.25830078125
vt 0.244140625 0.251953125
vt 0.30810546875 0.251953125
vt 0.316650390625 0.255859375
vt 0.314453125 0.25830078125
vt 0.309814453125 0.25048828125
vt 0.314453125 0.25830078125
vt 0.30810546875 0.251953125
vt 0.309814453125 0.25048828125
vt 0.316650390625 0.255859375
vt 0.309814453125 0.25048828125
vt 0.29541015625 0.12158203125
vt 0.30078125 0.11572265625
vt 0.316650390625 0.255859375
vt 0.29541015625 0.12158203125
vt 0.30078125 0.11572265625
vt 0.29541015625 0.12158203125
vt 0.293212890625 0.11962890625
vt 0.293212890625 0.11962890625
vt 0.29541015625 0.12158203125
vt 0.291259765625 0.1220703125
vt 0.309814453125 0.25048828125
vt 0.30810546875 0.251953125
vt 0.3076171875 0.248046875
vt 0.29541015625 0.12158203125
vt 0.309814453125 0.25048828125
vt 0.3076171875 0.248046875
vt 0.30810546875 0.251953125
vt 0.244140625 0.251953125
vt 0.3056640625 0.25
vt 0.30810546875 0.251953125
vt 0.3056640625 0.25
vt 0.3076171875 0.248046875
vt 0.244140625 0.251953125
vt 0.2467041015625 0.25
vt 0.3056640625 0.25
vt 0.244140625 0.251953125
vt 0.2425537109375 0.25048828125
vt 0.2467041015625 0.25
vt 0.29345703125 0.12353515625
vt 0.29541015625 0.12158203125
vt 0.3076171875 0.248046875
vt 0.29541015625 0.12158203125
vt 0.29345703125 0.12353515625
vt 0.291259765625 0.1220703125
vt 0.2425537109375 0.25048828125
vt 0.244873046875 0.248046875
vt 0.2467041015625 0.25
vt 0.2425537109375 0.25048828125
vt 0.257080078125 0.12158203125
vt 0.244873046875 0.248046875
vt 0.3056640625 0.25
vt 0.2467041015625 0.25
vt 0.276123046875 0.2353515625
vt 0.2467041015625 0.25
vt 0.244873046875 0.248046875
vt 0.276123046875 0.2353515625
vt 0.3056640625 0.25
vt 0.276123046875 0.2353515625
vt 0.27685546875 0.23486328125
vt 0.3076171875 0.248046875
vt 0.3056640625 0.25
vt 0.27685546875 0.23486328125
vt 0.244873046875 0.248046875
vt 0.275390625 0.23486328125
vt 0.276123046875 0.2353515625
vt 0.276123046875 0.2353515625
vt 0.275390625 0.23486328125
vt 0.27685546875 0.23486328125
vt 0.3076171875 0.248046875
vt 0.27685546875 0.23486328125
vt 0.277099609375 0.1376953125
vt 0.27685546875 0.23486328125
vt 0.275390625 0.23486328125
vt 0.277099609375 0.1376953125
vt 0.29345703125 0.12353515625
vt 0.3076171875 0.248046875
vt 0.277099609375 0.1376953125
vt 0.244873046875 0.248046875
vt 0.2587890625 0.12353515625
vt 0.275390625 0.23486328125
vt 0.257080078125 0.12158203125
vt 0.2587890625 0.12353515625
vt 0.244873046875 0.248046875
vt 0.275390625 0.23486328125
vt 0.275390625 0.1376953125
vt 0.277099609375 0.1376953125
vt 0.2587890625 0.12353515625
vt 0.275390625 0.1376953125
vt 0.275390625 0.23486328125
vt 0.29345703125 0.12353515625
vt 0.277099609375 0.1376953125
vt 0.276123046875 0.13623046875
vt 0.276123046875 0.13623046875
vt 0.277099609375 0.1376953125
vt 0.275390625 0.1376953125
vt 0.291259765625 0.1220703125
vt 0.29345703125 0.12353515625
vt 0.276123046875 0.13623046875
vt 0.2587890625 0.12353515625
vt 0.260986328125 0.1220703125
vt 0.275390625 0.1376953125
vt 0.260986328125 0.1220703125
vt 0.276123046875 0.13623046875
vt 0.275390625 0.1376953125
vt 0.260986328125 0.1220703125
vt 0.2587890625 0.12353515625
vt 0.257080078125 0.12158203125
vt 0.260986328125 0.1220703125
vt 0.291259765625 0.1220703125
vt 0.276123046875 0.13623046875
vt 0.259033203125 0.11962890625
vt 0.260986328125 0.1220703125
vt 0.257080078125 0.12158203125
vt 0.260986328125 0.1220703125
vt 0.259033203125 0.11962890625
vt 0.291259765625 0.1220703125
vt 0.66357421875 0.43359375
vt 0.67138671875 0.43359375
vt 0.6640625 0.4912109375
vt 0.67138671875 0.43359375
vt 0.671875 0.48974609375
vt 0.6640625 0.4912109375
vt 0.6640625 0.4912109375
vt 0.671875 0.48974609375
vt 0.6708984375 0.49658203125
vt 0.67138671875 0.43359375
vt 0.76025390625 0.43310546875
vt 0.671875 0.48974609375
vt 0.6708984375 0.49658203125
vt 0.671875 0.48974609375
vt 0.76123046875 0.49658203125
vt 0.76025390625 0.43310546875
vt 0.76025390625 0.48974609375
vt 0.671875 0.48974609375
vt 0.671875 0.48974609375
vt 0.76025390625 0.48974609375
vt 0.76123046875 0.49658203125
vt 0.76025390625 0.48974609375
vt 0.76025390625 0.43310546875
vt 0.7685546875 0.43359375
vt 0.76025390625 0.48974609375
vt 0.76806640625 0.4912109375
vt 0.76123046875 0.49658203125
vt 0.76806640625 0.4912109375
vt 0.76025390625 0.48974609375
vt 0.7685546875 0.43359375
vt 0.7060546875 0.0966796875
vt 0.71337890625 0.0966796875
vt 0.70703125 0.17724609375
vt 0.71337890625 0.0966796875
vt 0.71337890625 0.17724609375
vt 0.70703125 0.17724609375
vt 0.71337890625 0.18310546875
vt 0.70703125 0.17724609375
vt 0.71337890625 0.17724609375
vt 0.71337890625 0.17724609375
vt 0.71337890625 0.0966796875
vt 0.84716796875 0.0966796875
vt 0.71337890625 0.18310546875
vt 0.71337890625 0.17724609375
vt 0.84716796875 0.18310546875
vt 0.8466796875 0.17724609375
vt 0.71337890625 0.17724609375
vt 0.84716796875 0.0966796875
vt 0.71337890625 0.17724609375
vt 0.8466796875 0.17724609375
vt 0.84716796875 0.18310546875
vt 0.8466796875 0.17724609375
vt 0.84716796875 0.0966796875
vt 0.8544921875 0.0966796875
vt 0.84716796875 0.18310546875
vt 0.8466796875 0.17724609375
vt 0.853515625 0.17724609375
vt 0.853515625 0.17724609375
vt 0.8466796875 0.17724609375
vt 0.8544921875 0.0966796875
vn -0.958051323890686 -0.042791642248630524 0.28338444232940674
vn -0.8656023740768433 0.34573936462402344 0.3622108995914459
vn -0.800514817237854 0.3197409510612488 -0.5068942308425903
vn -0.8798710703849792 -0.033634260296821594 -0.4740208685398102
vn -0.5720108151435852 -0.6854508519172668 -0.4505116045475006
vn -0.625326931476593 -0.7424687147140503 0.2402215451002121
vn -0.3194112479686737 -0.9329827427864075 -0.16589082777500153
vn -0.4113769233226776 -0.896242082118988 -0.16588884592056274
vn -0.05839049816131592 -0.968968391418457 0.24018892645835876
vn -0.3179033696651459 -0.9462337493896484 -0.05982516333460808
vn -0.05773217976093292 -0.8909046649932861 -0.45050641894340515
vn 0.6145411729812622 -0.6305726766586304 -0.4740433692932129
vn 0.800478994846344 -0.31972721219062805 -0.5069594979286194
vn 0.8655967116355896 -0.3457408547401428 0.36222293972969055
vn 0.664914608001709 -0.6910880208015442 0.2833476960659027
vn -0.42161354422569275 -0.9048013687133789 -0.05980328097939491
vn -0.47673624753952026 -0.8140771389007568 0.33166393637657166
vn -0.7224648594856262 -0.6592679619789124 -0.2083510458469391
vn -0.7292022705078125 -0.6796720623970032 0.07943547517061234
vn -0.21547439694404602 -0.9184492230415344 0.3316953778266907
vn -0.45898309350013733 -0.8411915898323059 0.28588685393333435
vn 0.0602886900305748 -0.9950186014175415 0.07939308136701584
vn -0.2470107227563858 -0.9258902668952942 0.285854697227478
vn 0.01527048647403717 -0.9988304376602173 0.045874133706092834
vn 0.06954731047153473 -0.9755895733833313 -0.20829862356185913
vn -0.27572038769721985 -0.9154175519943237 -0.29323866963386536
vn -0.1768655925989151 -0.8356868028640747 -0.5199483036994934
vn 0.04181640222668648 -0.9818418025970459 -0.18503540754318237
vn -0.44768792390823364 -0.7275513410568237 -0.5198503732681274
vn -0.20777681469917297 -0.8402690291404724 -0.5007761716842651
vn -0.42842942476272583 -0.7520933747291565 -0.5008030533790588
vn -0.706864058971405 -0.682720959186554 -0.18502773344516754
vn -0.6993048787117004 -0.7133474946022034 0.045910678803920746
vn -0.23457922041416168 -0.9694887399673462 -0.07116221636533737
vn -0.2828633487224579 -0.9587359428405762 0.02852688357234001
vn -0.4544259011745453 -0.8904260993003845 0.02526768669486046
vn -0.21036316454410553 -0.9548014402389526 -0.21000343561172485
vn -0.49490779638290405 -0.8658076524734497 -0.07377919554710388
vn -0.3441774845123291 -0.8563864231109619 0.38489508628845215
vn -0.17048761248588562 -0.9853470325469971 0.005034957081079483
vn -0.5610554218292236 -0.827777087688446 0.0013746594777330756
vn -0.11377868056297302 -0.9542542695999146 -0.2765018939971924
vn -0.506276547908783 -0.8374232053756714 -0.20592807233333588
vn -0.5866662859916687 -0.7650343775749207 -0.265603244304657
vn -0.3095037341117859 -0.7809517979621887 -0.5425143241882324
vn -0.43103671073913574 -0.8525514602661133 -0.29557284712791443
vn -0.28362974524497986 0.1132836639881134 -0.9522189497947693
vn -0.36322665214538574 -0.19163784384727478 -0.9117792844772339
vn 0.283564954996109 -0.1132587194442749 -0.9522411823272705
vn 0.13122622668743134 -0.38915279507637024 -0.9117783308029175
vn 0.3255620300769806 -0.13004083931446075 0.9365355372428894
vn 0.15876761078834534 -0.4803461730480194 0.8625893592834473
vn -0.3256087601184845 0.1300535500049591 0.9365173578262329
vn -0.4460163712501526 -0.23874659836292267 0.862594723701477
f 1/1/1 2/2/2 3/3/3
f 4/4/4 1/5/1 3/6/3
f 1/7/1 4/8/4 5/9/5
f 6/10/6 1/11/1 5/12/5
f 6/13/6 5/14/5 7/15/7
f 6/16/6 7/17/7 8/18/8
f 9/19/9 6/20/6 8/21/8
f 5/22/5 10/23/10 7/24/7
f 5/25/5 11/26/11 10/27/10
f 11/28/11 12/29/12 9/30/9
f 12/31/12 13/32/13 14/33/14
f 15/34/15 12/35/12 14/36/14
f 12/37/12 15/38/15 9/39/9
f 11/40/11 9/41/9 16/42/16
f 11/43/11 16/44/16 10/45/10
f 9/46/9 8/47/8 16/48/16
f 10/49/10 16/50/16 17/51/17
f 16/52/16 8/53/8 18/54/18
f 16/55/16 19/56/19 17/57/17
f 19/58/19 16/59/16 18/60/18
f 20/61/20 10/62/10 17/63/17
f 17/64/17 19/65/19 21/66/21
f 10/67/10 20/68/20 22/69/22
f 7/70/7 10/71/10 22/72/22
f 20/73/20 17/74/17 23/75/23
f 17/76/17 21/77/21 23/78/23
f 22/79/22 20/80/20 24/81/24
f 20/82/20 23/83/23 24/84/24
f 25/85/25 7/86/7 22/87/22
f 23/88/23 21/89/21 26/90/26
f 7/91/7 25/92/25 27/93/27
f 8/94/8 7/95/7 27/96/27
f 25/97/25 22/98/22 28/99/28
f 22/100/22 24/101/24 28/102/28
f 29/103/29 8/104/8 27/105/27
f 8/106/8 29/107/29 18/108/18
f 27/109/27 25/110/25 30/111/30
f 25/112/25 28/113/28 30/114/30
f 29/115/29 27/116/27 31/117/31
f 27/118/27 30/119/30 31/120/31
f 18/121/18 29/122/29 32/123/32
f 29/124/29 31/125/31 32/126/32
f 18/127/18 32/128/32 33/129/33
f 19/130/19 18/131/18 33/132/33
f 19/133/19 33/134/33 21/135/21
f 21/136/21 33/137/33 26/138/26
f 32/139/32 31/140/31 34/141/34
f 33/142/33 32/143/32 34/144/34
f 31/145/31 30/146/30 35/147/35
f 31/148/31 35/149/35 34/150/34
f 30/151/30 36/152/36 35/153/35
f 30/154/30 28/155/28 36/156/36
f 37/157/37 33/158/33 34/159/34
f 33/160/33 37/161/37 26/162/26
f 28/163/28 38/164/38 36/165/36
f 28/166/28 24/167/24 38/168/38
f 35/169/35 36/170/36 39/171/39
f 36/172/36 38/173/38 39/174/39
f 35/175/35 39/176/39 40/177/40
f 34/178/34 35/179/35 40/180/40
f 38/181/38 41/182/41 39/183/39
f 39/184/39 41/185/41 40/186/40
f 34/187/34 40/188/40 42/189/42
f 40/190/40 41/191/41 42/192/42
f 37/193/37 34/194/34 42/195/42
f 38/196/38 43/197/43 41/198/41
f 24/199/24 43/200/43 38/201/38
f 41/202/41 44/203/44 42/204/42
f 43/205/43 44/206/44 41/207/41
f 37/208/37 42/209/42 45/210/45
f 45/211/45 42/212/42 44/213/44
f 26/214/26 37/215/37 45/216/45
f 43/217/43 46/218/46 44/219/44
f 46/220/46 45/221/45 44/222/44
f 46/223/46 43/224/43 24/225/24
f 46/226/46 26/227/26 45/228/45
f 23/229/23 46/230/46 24/231/24
f 46/232/46 23/233/23 26/234/26
f 3/235/3 47/236/47 4/237/4
f 47/238/47 48/239/48 4/240/4
f 4/241/4 48/242/48 5/243/5
f 47/244/47 49/245/49 48/246/48
f 5/247/5 48/248/48 11/249/11
f 49/250/49 50/251/50 48/252/48
f 48/253/48 50/254/50 11/255/11
f 50/256/50 49/257/49 13/258/13
f 50/259/50 12/260/12 11/261/11
f 12/262/12 50/263/50 13/264/13
f 14/265/14 51/266/51 15/267/15
f 51/268/51 52/269/52 15/270/15
f 9/271/9 15/272/15 52/273/52
f 52/274/52 51/275/51 53/276/53
f 9/277/9 52/278/52 6/279/6
f 54/280/54 52/281/52 53/282/53
f 52/283/52 54/284/54 6/285/6
f 54/286/54 53/287/53 2/288/2
f 6/289/6 54/290/54 1/291/1
f 1/292/1 54/293/54 2/294/2
