# Exported by Lightwave Blender addon
v -40.746402740478516 -53.533348083496094 116.85005950927734
v -40.20266342163086 -53.27177810668945 116.52182006835938
v -39.85911560058594 -53.98591613769531 116.85009002685547
v -40.50347137451172 -54.03832244873047 117.08219146728516
v -40.97161865234375 -53.641700744628906 117.64254760742188
v -39.71681594848633 -54.281715393066406 117.64253997802734
v -40.40285110473633 -54.24748611450195 117.64253997802734
v -39.85911560058594 -53.98591613769531 118.43502044677734
v -40.50347137451172 -54.03832244873047 118.20291137695312
v -40.20266342163086 -53.27178192138672 118.76327514648438
v -40.746395111083984 -53.53335189819336 118.43502044677734
v -40.54621124267578 -52.557647705078125 118.43502044677734
v -40.98931884765625 -53.02838134765625 118.20291900634766
v -40.68851089477539 -52.2618408203125 117.64253997802734
v -41.08994674682617 -52.8192138671875 117.64253997802734
v -40.546207427978516 -52.55764389038086 116.85009002685547
v -40.98931884765625 -53.02838134765625 117.08219146728516
v -25.35732078552246 -84.13102722167969 116.85005187988281
v -25.013774871826172 -84.84516143798828 116.52178192138672
v -25.55750846862793 -85.10673522949219 116.85003662109375
v -25.800432205200195 -84.60176086425781 117.0821533203125
v -25.782730102539062 -85.21508026123047 117.64252471923828
v -25.49962043762207 -83.8352279663086 117.64251708984375
v -25.90105438232422 -84.3926010131836 117.64251708984375
v -25.35732078552246 -84.13102722167969 118.43498992919922
v -25.800432205200195 -84.60176086425781 118.20288848876953
v -25.01377296447754 -84.84516143798828 118.76325225830078
v -25.557506561279297 -85.10673522949219 118.43498992919922
v -24.67022705078125 -85.55929565429688 118.43498992919922
v -25.314584732055664 -85.61170959472656 118.20288848876953
v -24.52792739868164 -85.8551025390625 117.64251708984375
v -25.213960647583008 -85.82086944580078 117.64251708984375
v -24.670228958129883 -85.55929565429688 116.85005187988281
v -25.314584732055664 -85.61170959472656 117.0821533203125
v -39.8590202331543 -53.98602294921875 259.1603088378906
v -40.20256805419922 -53.271881103515625 259.4885559082031
v -40.746307373046875 -53.533470153808594 259.16033935546875
v -40.50337219238281 -54.038429260253906 258.92822265625
v -40.97152328491211 -53.641815185546875 258.36785888671875
v -39.71672058105469 -54.281829833984375 258.3678283691406
v -40.40275573730469 -54.247589111328125 258.36785888671875
v -39.85902404785156 -53.98602294921875 257.5753479003906
v -40.50337219238281 -54.038421630859375 257.8074951171875
v -40.20256805419922 -53.27189636230469 257.2471008300781
v -40.746307373046875 -53.53345489501953 257.57537841796875
v -40.546112060546875 -52.55775451660156 257.5753479003906
v -40.989227294921875 -53.02849578857422 257.8074951171875
v -40.68841552734375 -52.26195526123047 258.3678283691406
v -41.08985137939453 -52.8193359375 258.36785888671875
v -40.546119689941406 -52.55775451660156 259.1603088378906
v -40.989227294921875 -53.02848815917969 258.92822265625
v -25.55741310119629 -85.10684967041016 259.1603088378906
v -25.01367950439453 -84.84526824951172 259.488525390625
v -25.35722541809082 -84.13114166259766 259.1602783203125
v -25.800336837768555 -84.60187530517578 258.9281921386719
v -25.782636642456055 -85.2151870727539 258.3677978515625
v -25.499526977539062 -83.83533477783203 258.3677978515625
v -25.90096092224121 -84.39270782470703 258.3678283691406
v -25.35722541809082 -84.13114166259766 257.5753173828125
v -25.800338745117188 -84.60187530517578 257.8074645996094
v -25.013681411743164 -84.84526824951172 257.2470703125
v -25.557415008544922 -85.10684967041016 257.5753479003906
v -24.670133590698242 -85.55941009521484 257.5753173828125
v -25.314489364624023 -85.61182403564453 257.8074645996094
v -24.527833938598633 -85.85521697998047 258.3677978515625
v -25.2138671875 -85.82097625732422 258.3678283691406
v -24.670133590698242 -85.55941009521484 259.1602783203125
v -25.314489364624023 -85.61182403564453 258.9281921386719
vt 0.0 0.75
vt 0.0 0.375
vt 0.125 0.375
vt 0.125 0.375
vt 0.125 0.75
vt 0.0 0.75
vt 0.0 1.0
vt 0.0 0.75
vt 0.125 0.75
vt 0.125 0.75
vt 0.125 0.375
vt 0.25 0.375
vt 0.25 0.375
vt 0.25 0.75
vt 0.125 0.75
vt 0.125 1.0
vt 0.125 0.75
vt 0.25 0.75
vt 0.25 0.75
vt 0.25 0.375
vt 0.375 0.375
vt 0.375 0.375
vt 0.375 0.75
vt 0.25 0.75
vt 0.25 1.0
vt 0.25 0.75
vt 0.375 0.75
vt 0.375 0.75
vt 0.375 0.375
vt 0.5 0.375
vt 0.5 0.375
vt 0.5 0.75
vt 0.375 0.75
vt 0.375 1.0
vt 0.375 0.75
vt 0.5 0.75
vt 0.5 0.75
vt 0.5 0.375
vt 0.625 0.375
vt 0.625 0.375
vt 0.625 0.75
vt 0.5 0.75
vt 0.5 1.0
vt 0.5 0.75
vt 0.625 0.75
vt 0.625 0.75
vt 0.625 0.375
vt 0.75 0.375
vt 0.75 0.375
vt 0.75 0.75
vt 0.625 0.75
vt 0.625 1.0
vt 0.625 0.75
vt 0.75 0.75
vt 0.75 0.75
vt 0.75 0.375
vt 0.87451171875 0.375
vt 0.87451171875 0.375
vt 0.87451171875 0.75
vt 0.75 0.75
vt 0.75 1.0
vt 0.75 0.75
vt 0.87451171875 0.75
vt 0.87451171875 0.75
vt 0.87451171875 0.375
vt 0.99951171875 0.375
vt 0.99951171875 0.375
vt 0.99951171875 0.75
vt 0.87451171875 0.75
vt 0.87451171875 1.0
vt 0.87451171875 0.75
vt 0.99951171875 0.75
vt 0.125 0.375
vt 0.0 0.375
vt 0.0 0.75
vt 0.0 0.75
vt 0.125 0.75
vt 0.125 0.375
vt 0.0 1.0
vt 0.125 0.75
vt 0.0 0.75
vt 0.25 0.375
vt 0.125 0.375
vt 0.125 0.75
vt 0.125 0.75
vt 0.25 0.75
vt 0.25 0.375
vt 0.125 1.0
vt 0.25 0.75
vt 0.125 0.75
vt 0.375 0.375
vt 0.25 0.375
vt 0.25 0.75
vt 0.25 0.75
vt 0.375 0.75
vt 0.375 0.375
vt 0.25 1.0
vt 0.375 0.75
vt 0.25 0.75
vt 0.5 0.375
vt 0.375 0.375
vt 0.375 0.75
vt 0.375 0.75
vt 0.5 0.75
vt 0.5 0.375
vt 0.375 1.0
vt 0.5 0.75
vt 0.375 0.75
vt 0.625 0.375
vt 0.5 0.375
vt 0.5 0.75
vt 0.5 0.75
vt 0.625 0.75
vt 0.625 0.375
vt 0.5 1.0
vt 0.625 0.75
vt 0.5 0.75
vt 0.75 0.375
vt 0.625 0.375
vt 0.625 0.75
vt 0.625 0.75
vt 0.75 0.75
vt 0.75 0.375
vt 0.625 1.0
vt 0.75 0.75
vt 0.625 0.75
vt 0.87451171875 0.375
vt 0.75 0.375
vt 0.75 0.75
vt 0.75 0.75
vt 0.87451171875 0.75
vt 0.87451171875 0.375
vt 0.75 1.0
vt 0.87451171875 0.75
vt 0.75 0.75
vt 0.99951171875 0.375
vt 0.87451171875 0.375
vt 0.87451171875 0.75
vt 0.87451171875 0.75
vt 0.99951171875 0.75
vt 0.99951171875 0.375
vt 0.87451171875 1.0
vt 0.99951171875 0.75
vt 0.87451171875 0.75
vt 0.125 0.375
vt 0.0 0.375
vt 0.0 0.75
vt 0.0 0.75
vt 0.125 0.75
vt 0.125 0.375
vt 0.0 1.0
vt 0.125 0.75
vt 0.0 0.75
vt 0.25 0.375
vt 0.125 0.375
vt 0.125 0.75
vt 0.125 0.75
vt 0.25 0.75
vt 0.25 0.375
vt 0.125 1.0
vt 0.25 0.75
vt 0.125 0.75
vt 0.375 0.375
vt 0.25 0.375
vt 0.25 0.75
vt 0.25 0.75
vt 0.375 0.75
vt 0.375 0.375
vt 0.25 1.0
vt 0.375 0.75
vt 0.25 0.75
vt 0.5 0.375
vt 0.375 0.375
vt 0.375 0.75
vt 0.375 0.75
vt 0.5 0.75
vt 0.5 0.375
vt 0.375 1.0
vt 0.5 0.75
vt 0.375 0.75
vt 0.625 0.375
vt 0.5 0.375
vt 0.5 0.75
vt 0.5 0.75
vt 0.625 0.75
vt 0.625 0.375
vt 0.5 1.0
vt 0.625 0.75
vt 0.5 0.75
vt 0.75 0.375
vt 0.625 0.375
vt 0.625 0.75
vt 0.625 0.75
vt 0.75 0.75
vt 0.75 0.375
vt 0.625 1.0
vt 0.75 0.75
vt 0.625 0.75
vt 0.87451171875 0.375
vt 0.75 0.375
vt 0.75 0.75
vt 0.75 0.75
vt 0.87451171875 0.75
vt 0.87451171875 0.375
vt 0.75 1.0
vt 0.87451171875 0.75
vt 0.75 0.75
vt 0.99951171875 0.375
vt 0.87451171875 0.375
vt 0.87451171875 0.75
vt 0.87451171875 0.75
vt 0.99951171875 0.75
vt 0.99951171875 0.375
vt 0.87451171875 1.0
vt 0.99951171875 0.75
vt 0.87451171875 0.75
vt 0.0 0.75
vt 0.0 0.375
vt 0.125 0.375
vt 0.125 0.375
vt 0.125 0.75
vt 0.0 0.75
vt 0.0 1.0
vt 0.0 0.75
vt 0.125 0.75
vt 0.125 0.75
vt 0.125 0.375
vt 0.25 0.375
vt 0.25 0.375
vt 0.25 0.75
vt 0.125 0.75
vt 0.125 1.0
vt 0.125 0.75
vt 0.25 0.75
vt 0.25 0.75
vt 0.25 0.375
vt 0.375 0.375
vt 0.375 0.375
vt 0.375 0.75
vt 0.25 0.75
vt 0.25 1.0
vt 0.25 0.75
vt 0.375 0.75
vt 0.375 0.75
vt 0.375 0.375
vt 0.5 0.375
vt 0.5 0.375
vt 0.5 0.75
vt 0.375 0.75
vt 0.375 1.0
vt 0.375 0.75
vt 0.5 0.75
vt 0.5 0.75
vt 0.5 0.375
vt 0.625 0.375
vt 0.625 0.375
vt 0.625 0.75
vt 0.5 0.75
vt 0.5 1.0
vt 0.5 0.75
vt 0.625 0.75
vt 0.625 0.75
vt 0.625 0.375
vt 0.75 0.375
vt 0.75 0.375
vt 0.75 0.75
vt 0.625 0.75
vt 0.625 1.0
vt 0.625 0.75
vt 0.75 0.75
vt 0.75 0.75
vt 0.75 0.375
vt 0.87451171875 0.375
vt 0.87451171875 0.375
vt 0.87451171875 0.75
vt 0.75 0.75
vt 0.75 1.0
vt 0.75 0.75
vt 0.87451171875 0.75
vt 0.87451171875 0.75
vt 0.87451171875 0.375
vt 0.99951171875 0.375
vt 0.99951171875 0.375
vt 0.99951171875 0.75
vt 0.87451171875 0.75
vt 0.87451171875 1.0
vt 0.87451171875 0.75
vt 0.99951171875 0.75
vn -0.6565843224525452 -0.31585535407066345 -0.6849324703216553
vn -0.4306372404098511 -0.20715107023715973 -0.8784304857254028
vn -0.16136224567890167 -0.7669062614440918 -0.621141791343689
vn -0.446623831987381 -0.7523112893104553 -0.4843086302280426
vn -0.9011471271514893 -0.4335133135318756 1.8674801367524196e-06
vn -0.04983290657401085 -0.998757541179657 -1.4222767276805826e-05
vn -0.3596619963645935 -0.9330826997756958 -2.5970518890972016e-06
vn -0.16136792302131653 -0.766914963722229 0.6211294531822205
vn -0.4466303586959839 -0.7523022294044495 0.4843168258666992
vn -0.43064215779304504 -0.20717765390872955 0.8784216642379761
vn -0.6565890908241272 -0.31586024165153503 0.6849255561828613
vn -0.6999109387397766 0.35256680846214294 0.6211451888084412
vn -0.86654132604599 0.12058035284280777 0.48432061076164246
vn -0.8114469051361084 0.5844261050224304 2.3094930838851724e-06
vn -0.9535109400749207 0.30135852098464966 -9.091148058359977e-06
vn -0.6999125480651855 0.35258403420448303 -0.6211335062980652
vn -0.8665421605110168 0.12058264017105103 -0.48431870341300964
vn -0.6999098062515259 0.35257449746131897 -0.6211420297622681
vn -0.43064042925834656 -0.20717303454875946 -0.8784236907958984
vn -0.656591534614563 -0.3158564269542694 -0.6849249005317688
vn -0.8665448427200317 0.12058611959218979 -0.4843129813671112
vn -0.9011486172676086 -0.43351009488105774 3.4386330298730172e-06
vn -0.8114473223686218 0.584425687789917 -9.043556929100305e-06
vn -0.9535109400749207 0.30135831236839294 2.322931095477543e-06
vn -0.6999143362045288 0.3525855839252472 0.621130645275116
vn -0.8665421605110168 0.12058056145906448 0.48431915044784546
vn -0.4306502044200897 -0.20716704428195953 0.878420352935791
vn -0.6565864682197571 -0.31586968898773193 0.6849237084388733
vn -0.161366805434227 -0.7668988704681396 0.6211495399475098
vn -0.4466271698474884 -0.7523021697998047 0.48431965708732605
vn -0.049833960831165314 -0.9987574219703674 4.356018507678527e-06
vn -0.3596630394458771 -0.9330822229385376 -8.404342224821448e-06
vn -0.16135652363300323 -0.7669157981872559 -0.6211315393447876
vn -0.44662684202194214 -0.7523062229156494 -0.4843136966228485
vn -0.1613471508026123 -0.7669023275375366 0.6211504340171814
vn -0.4306102991104126 -0.2071356326341629 0.8784472942352295
vn -0.6565731167793274 -0.3158615827560425 0.6849402785301208
vn -0.4466133117675781 -0.7523135542869568 0.48431476950645447
vn -0.9011437296867371 -0.4335203766822815 -2.4166654384316644e-06
vn -0.04984690621495247 -0.9987568855285645 -6.173884798954532e-07
vn -0.3596687614917755 -0.9330800175666809 -9.09949733340909e-07
vn -0.16141314804553986 -0.7669104933738708 -0.6211232542991638
vn -0.4466407895088196 -0.7523032426834106 -0.4843055009841919
vn -0.430665522813797 -0.20719726383686066 -0.8784056901931763
vn -0.6566002368927002 -0.31586897373199463 -0.6849110126495361
vn -0.6999287605285645 0.35254430770874023 -0.6211379170417786
vn -0.8665564656257629 0.12057414650917053 -0.4842950999736786
vn -0.8114504218101501 0.5844212174415588 -2.100249912473373e-05
vn -0.9535128474235535 0.3013525605201721 8.070914191193879e-06
vn -0.6999061703681946 0.3525916337966919 0.621136486530304
vn -0.8665373921394348 0.12058927863836288 0.4843253195285797
vn -0.6565759778022766 -0.315856009721756 0.6849400401115417
vn -0.4306049942970276 -0.20715688169002533 0.8784448504447937
vn -0.6998966336250305 0.35258567333221436 0.6211506128311157
vn -0.8665412664413452 0.12058722227811813 0.48431912064552307
vn -0.9011492133140564 -0.4335090219974518 -1.1315471056150272e-05
vn -0.8114485740661621 0.584423840045929 1.3033742334300769e-06
vn -0.9535105228424072 0.30135980248451233 6.7794726419379e-06
vn -0.6999335885047913 0.35254937410354614 -0.6211295127868652
vn -0.8665511012077332 0.12057167291641235 -0.4843052923679352
vn -0.4306756854057312 -0.20716620981693268 -0.8784080147743225
vn -0.6565971374511719 -0.31586748361587524 -0.6849145293235779
vn -0.16139885783195496 -0.7668961882591248 -0.621144711971283
vn -0.4466398358345032 -0.7523118257522583 -0.484293133020401
vn -0.04984395578503609 -0.998757004737854 -1.2667867849813774e-05
vn -0.3596687912940979 -0.9330799579620361 1.5714927940280177e-05
vn -0.16134674847126007 -0.7669110298156738 0.6211398839950562
vn -0.4466210603713989 -0.7523054480552673 0.4843202829360962
f 1/1/1 2/2/2 3/3/3
f 3/4/3 4/5/4 1/6/1
f 5/7/5 1/8/1 4/9/4
f 4/10/4 3/11/3 6/12/6
f 6/13/6 7/14/7 4/15/4
f 5/16/5 4/17/4 7/18/7
f 7/19/7 6/20/6 8/21/8
f 8/22/8 9/23/9 7/24/7
f 5/25/5 7/26/7 9/27/9
f 9/28/9 8/29/8 10/30/10
f 10/31/10 11/32/11 9/33/9
f 5/34/5 9/35/9 11/36/11
f 11/37/11 10/38/10 12/39/12
f 12/40/12 13/41/13 11/42/11
f 5/43/5 11/44/11 13/45/13
f 13/46/13 12/47/12 14/48/14
f 14/49/14 15/50/15 13/51/13
f 5/52/5 13/53/13 15/54/15
f 15/55/15 14/56/14 16/57/16
f 16/58/16 17/59/17 15/60/15
f 5/61/5 15/62/15 17/63/17
f 17/64/17 16/65/16 2/66/2
f 2/67/2 1/68/1 17/69/17
f 5/70/5 17/71/17 1/72/1
f 18/73/18 19/74/19 20/75/20
f 20/76/20 21/77/21 18/78/18
f 22/79/22 21/80/21 20/81/20
f 23/82/23 18/83/18 21/84/21
f 21/85/21 24/86/24 23/87/23
f 22/88/22 24/89/24 21/90/21
f 25/91/25 23/92/23 24/93/24
f 24/94/24 26/95/26 25/96/25
f 22/97/22 26/98/26 24/99/24
f 27/100/27 25/101/25 26/102/26
f 26/103/26 28/104/28 27/105/27
f 22/106/22 28/107/28 26/108/26
f 29/109/29 27/110/27 28/111/28
f 28/112/28 30/113/30 29/114/29
f 22/115/22 30/116/30 28/117/28
f 31/118/31 29/119/29 30/120/30
f 30/121/30 32/122/32 31/123/31
f 22/124/22 32/125/32 30/126/30
f 33/127/33 31/128/31 32/129/32
f 32/130/32 34/131/34 33/132/33
f 22/133/22 34/134/34 32/135/32
f 19/136/19 33/137/33 34/138/34
f 34/139/34 20/140/20 19/141/19
f 22/142/22 20/143/20 34/144/34
f 35/145/35 36/146/36 37/147/37
f 37/148/37 38/149/38 35/150/35
f 39/151/39 38/152/38 37/153/37
f 40/154/40 35/155/35 38/156/38
f 38/157/38 41/158/41 40/159/40
f 39/160/39 41/161/41 38/162/38
f 42/163/42 40/164/40 41/165/41
f 41/166/41 43/167/43 42/168/42
f 39/169/39 43/170/43 41/171/41
f 44/172/44 42/173/42 43/174/43
f 43/175/43 45/176/45 44/177/44
f 39/178/39 45/179/45 43/180/43
f 46/181/46 44/182/44 45/183/45
f 45/184/45 47/185/47 46/186/46
f 39/187/39 47/188/47 45/189/45
f 48/190/48 46/191/46 47/192/47
f 47/193/47 49/194/49 48/195/48
f 39/196/39 49/197/49 47/198/47
f 50/199/50 48/200/48 49/201/49
f 49/202/49 51/203/51 50/204/50
f 39/205/39 51/206/51 49/207/49
f 36/208/36 50/209/50 51/210/51
f 51/211/51 37/212/37 36/213/36
f 39/214/39 37/215/37 51/216/51
f 52/217/52 53/218/53 54/219/54
f 54/220/54 55/221/55 52/222/52
f 56/223/56 52/224/52 55/225/55
f 55/226/55 54/227/54 57/228/57
f 57/229/57 58/230/58 55/231/55
f 56/232/56 55/233/55 58/234/58
f 58/235/58 57/236/57 59/237/59
f 59/238/59 60/239/60 58/240/58
f 56/241/56 58/242/58 60/243/60
f 60/244/60 59/245/59 61/246/61
f 61/247/61 62/248/62 60/249/60
f 56/250/56 60/251/60 62/252/62
f 62/253/62 61/254/61 63/255/63
f 63/256/63 64/257/64 62/258/62
f 56/259/56 62/260/62 64/261/64
f 64/262/64 63/263/63 65/264/65
f 65/265/65 66/266/66 64/267/64
f 56/268/56 64/269/64 66/270/66
f 66/271/66 65/272/65 67/273/67
f 67/274/67 68/275/68 66/276/66
f 56/277/56 66/278/66 68/279/68
f 68/280/68 67/281/67 53/282/53
f 53/283/53 52/284/52 68/285/68
f 56/286/56 68/287/68 52/288/52
