# Exported by Lightwave Blender addon
v 2782.18701171875 -1246.893798828125 598.6303100585938
v 2782.18701171875 -1246.893798828125 551.3643798828125
v 2886.365234375 -1288.857666015625 598.6303100585938
v 2886.365234375 -1288.857666015625 551.3643798828125
v 2529.812744140625 -1094.2962646484375 593.9761962890625
v 2529.812744140625 -1094.2962646484375 551.3644409179688
v 2614.65087890625 -1128.4698486328125 593.9761962890625
v 2614.65087890625 -1128.4698486328125 551.3644409179688
v 2529.812744140625 -1094.2962646484375 915.1260375976562
v 2529.812744140625 -1094.2962646484375 872.5142822265625
v 2614.65087890625 -1128.4698486328125 915.1260375976562
v 2614.65087890625 -1128.4698486328125 872.5142822265625
v 2529.812744140625 -1094.2962646484375 1256.2427978515625
v 2529.812744140625 -1094.2962646484375 1212.4532470703125
v 2614.65087890625 -1128.4698486328125 1256.2427978515625
v 2614.65087890625 -1128.4698486328125 1212.4532470703125
v 2252.378173828125 -982.5432739257812 593.9761962890625
v 2252.378173828125 -982.5432739257812 551.3644409179688
v 2337.21630859375 -1016.716796875 593.9761962890625
v 2337.21630859375 -1016.716796875 551.3644409179688
v 2252.378173828125 -982.5432739257812 915.1260375976562
v 2252.378173828125 -982.5432739257812 872.5142822265625
v 2337.21630859375 -1016.716796875 915.1260375976562
v 2337.21630859375 -1016.716796875 872.5142822265625
v 2252.378173828125 -982.5432739257812 1256.2427978515625
v 2252.378173828125 -982.5432739257812 1212.453125
v 2337.21630859375 -1016.716796875 1256.2427978515625
v 2337.21630859375 -1016.716796875 1212.453125
v 3088.82275390625 -1319.4703369140625 593.9761962890625
v 3088.82275390625 -1319.4703369140625 551.3644409179688
v 3173.6611328125 -1353.6439208984375 593.9761962890625
v 3173.6611328125 -1353.6439208984375 551.3644409179688
v 3088.82275390625 -1319.4703369140625 915.1260375976562
v 3088.82275390625 -1319.4703369140625 872.5142822265625
v 3173.6611328125 -1353.6439208984375 915.1260375976562
v 3173.6611328125 -1353.6439208984375 872.5142822265625
v 3088.82275390625 -1319.4703369140625 1256.2427978515625
v 3088.82275390625 -1319.4703369140625 1212.4530029296875
v 3173.6611328125 -1353.6439208984375 1256.2427978515625
v 3173.6611328125 -1353.6439208984375 1212.4530029296875
v 3366.211181640625 -1431.2047119140625 593.9761962890625
v 3366.211181640625 -1431.2047119140625 551.3644409179688
v 3451.049560546875 -1465.378173828125 593.9761962890625
v 3451.049560546875 -1465.378173828125 551.3644409179688
v 3366.211181640625 -1431.2047119140625 915.1259765625
v 3366.211181640625 -1431.2047119140625 872.5142211914062
v 3451.049560546875 -1465.378173828125 915.1259765625
v 3451.049560546875 -1465.378173828125 872.5142211914062
v 3366.211181640625 -1431.2047119140625 1256.2427978515625
v 3366.211181640625 -1431.2047119140625 1212.452880859375
v 3451.049560546875 -1465.378173828125 1256.2427978515625
v 3451.049560546875 -1465.378173828125 1212.452880859375
v 2366.231689453125 -1053.5609130859375 1555.1607666015625
v 2366.231689453125 -1053.5609130859375 1509.2279052734375
v 2467.471435546875 -1094.3411865234375 1555.1607666015625
v 2467.471435546875 -1094.3411865234375 1509.2279052734375
v 2782.18701171875 -1246.893798828125 921.6029663085938
v 2782.18701171875 -1246.893798828125 874.3370361328125
v 2886.365234375 -1288.857666015625 921.6029663085938
v 2886.365234375 -1288.857666015625 874.3370361328125
v 2782.186767578125 -1246.893798828125 1261.9273681640625
v 2782.186767578125 -1246.893798828125 1214.6614990234375
v 2886.365234375 -1288.857666015625 1261.9273681640625
v 2886.365234375 -1288.857666015625 1214.6614990234375
v 3205.869384765625 -1391.7742919921875 1555.1607666015625
v 3205.869384765625 -1391.7742919921875 1509.2279052734375
v 3307.109130859375 -1432.554443359375 1555.1607666015625
v 3307.109130859375 -1432.554443359375 1509.2279052734375
v 2682.983154296875 -1220.0865478515625 1555.1607666015625
v 2682.983154296875 -1220.0865478515625 1509.2279052734375
v 2784.22265625 -1260.866943359375 1555.1607666015625
v 2784.22265625 -1260.866943359375 1509.2279052734375
v 2779.172607421875 -1258.8326416015625 1555.1607666015625
v 2779.172607421875 -1258.8326416015625 1509.2279052734375
v 2880.412353515625 -1299.61279296875 1555.1607666015625
v 2880.412353515625 -1299.61279296875 1509.2279052734375
v 2875.252685546875 -1297.534423828125 1555.1607666015625
v 2875.252685546875 -1297.534423828125 1509.2279052734375
v 2976.492431640625 -1338.314697265625 1555.1607666015625
v 2976.492431640625 -1338.314697265625 1509.2279052734375
vt 0.0133514404296875 0.9867324829101562
vt 0.0133514404296875 0.75
vt 0.5712890625 0.9867324829101562
vt 0.0133514404296875 0.75
vt 0.5712890625 0.75
vt 0.5712890625 0.9867324829101562
vt 0.0133514404296875 0.9867324829101562
vt 0.0133514404296875 0.75
vt 0.5712890625 0.9867324829101562
vt 0.0133514404296875 0.75
vt 0.5712890625 0.75
vt 0.5712890625 0.9867324829101562
vt 0.0133514404296875 0.9867324829101562
vt 0.0133514404296875 0.75
vt 0.5712890625 0.9867324829101562
vt 0.0133514404296875 0.75
vt 0.5712890625 0.75
vt 0.5712890625 0.9867324829101562
vt 0.0133514404296875 0.9867324829101562
vt 0.0133514404296875 0.75
vt 0.5712890625 0.9867324829101562
vt 0.0133514404296875 0.75
vt 0.5712890625 0.75
vt 0.5712890625 0.9867324829101562
vt 0.0133514404296875 0.9867324829101562
vt 0.0133514404296875 0.75
vt 0.5712890625 0.9867324829101562
vt 0.0133514404296875 0.75
vt 0.5712890625 0.75
vt 0.5712890625 0.9867324829101562
vt 0.0133514404296875 0.9867324829101562
vt 0.0133514404296875 0.75
vt 0.5712890625 0.9867324829101562
vt 0.0133514404296875 0.75
vt 0.5712890625 0.75
vt 0.5712890625 0.9867324829101562
vt 0.0133514404296875 0.9867324829101562
vt 0.0133514404296875 0.75
vt 0.5712890625 0.9867324829101562
vt 0.0133514404296875 0.75
vt 0.5712890625 0.75
vt 0.5712890625 0.9867324829101562
vt 0.0133514404296875 0.9867324829101562
vt 0.0133514404296875 0.75
vt 0.5712890625 0.9867324829101562
vt 0.0133514404296875 0.75
vt 0.5712890625 0.75
vt 0.5712890625 0.9867324829101562
vt 0.0133514404296875 0.9867324829101562
vt 0.0133514404296875 0.75
vt 0.5712890625 0.9867324829101562
vt 0.0133514404296875 0.75
vt 0.5712890625 0.75
vt 0.5712890625 0.9867324829101562
vt 0.0133514404296875 0.9867324829101562
vt 0.0133514404296875 0.75
vt 0.5712890625 0.9867324829101562
vt 0.0133514404296875 0.75
vt 0.5712890625 0.75
vt 0.5712890625 0.9867324829101562
vt 0.0133514404296875 0.9867324829101562
vt 0.0133514404296875 0.75
vt 0.5712890625 0.9867324829101562
vt 0.0133514404296875 0.75
vt 0.5712890625 0.75
vt 0.5712890625 0.9867324829101562
vt 0.0133514404296875 0.9867324829101562
vt 0.0133514404296875 0.75
vt 0.5712890625 0.9867324829101562
vt 0.0133514404296875 0.75
vt 0.5712890625 0.75
vt 0.5712890625 0.9867324829101562
vt 0.0133514404296875 0.9867324829101562
vt 0.0133514404296875 0.75
vt 0.5712890625 0.9867324829101562
vt 0.0133514404296875 0.75
vt 0.5712890625 0.75
vt 0.5712890625 0.9867324829101562
vt 0.0020961761474609375 0.48193359375
vt 0.0020961761474609375 0.2509765625
vt 0.57861328125 0.48193359375
vt 0.0020961761474609375 0.2509765625
vt 0.57861328125 0.2509765625
vt 0.57861328125 0.48193359375
vt 0.0020961761474609375 0.989898681640625
vt 0.0020961761474609375 0.747314453125
vt 0.57861328125 0.989898681640625
vt 0.0020961761474609375 0.747314453125
vt 0.57861328125 0.747314453125
vt 0.57861328125 0.989898681640625
vt 0.0020961761474609375 0.989898681640625
vt 0.0020961761474609375 0.747314453125
vt 0.57861328125 0.989898681640625
vt 0.0020961761474609375 0.747314453125
vt 0.57861328125 0.747314453125
vt 0.57861328125 0.989898681640625
vt 0.0020961761474609375 0.48193359375
vt 0.0020961761474609375 0.2509765625
vt 0.57861328125 0.48193359375
vt 0.0020961761474609375 0.2509765625
vt 0.57861328125 0.2509765625
vt 0.57861328125 0.48193359375
vt 0.0020961761474609375 0.48193359375
vt 0.0020961761474609375 0.2509765625
vt 0.57861328125 0.48193359375
vt 0.0020961761474609375 0.2509765625
vt 0.57861328125 0.2509765625
vt 0.57861328125 0.48193359375
vt 0.0020961761474609375 0.48193359375
vt 0.0020961761474609375 0.2509765625
vt 0.57861328125 0.48193359375
vt 0.0020961761474609375 0.2509765625
vt 0.57861328125 0.2509765625
vt 0.57861328125 0.48193359375
vt 0.0020961761474609375 0.48193359375
vt 0.0020961761474609375 0.2509765625
vt 0.57861328125 0.48193359375
vt 0.0020961761474609375 0.2509765625
vt 0.57861328125 0.2509765625
vt 0.57861328125 0.48193359375
vn -0.37363532185554504 -0.9275757074356079 0.0
vn -0.37363532185554504 -0.9275757074356079 0.0
vn -0.37363532185554504 -0.9275757074356079 0.0
vn -0.37363532185554504 -0.9275757074356079 0.0
vn -0.3736359477043152 -0.927575409412384 0.0
vn -0.3736359477043152 -0.927575409412384 0.0
vn -0.3736359477043152 -0.927575409412384 0.0
vn -0.3736359477043152 -0.927575409412384 0.0
vn -0.3736359477043152 -0.927575409412384 0.0
vn -0.3736359477043152 -0.927575409412384 0.0
vn -0.3736359477043152 -0.927575409412384 0.0
vn -0.3736359477043152 -0.927575409412384 0.0
vn -0.3736359179019928 -0.927575409412384 0.0
vn -0.3736359477043152 -0.9275754690170288 0.0
vn -0.3736359477043152 -0.9275754690170288 0.0
vn -0.3736359179019928 -0.927575409412384 0.0
vn -0.37363535165786743 -0.9275755882263184 0.0
vn -0.37363535165786743 -0.9275755882263184 0.0
vn -0.37363535165786743 -0.9275755882263184 0.0
vn -0.37363535165786743 -0.9275755882263184 0.0
vn -0.37363535165786743 -0.9275755882263184 0.0
vn -0.37363535165786743 -0.9275755882263184 0.0
vn -0.37363535165786743 -0.9275755882263184 0.0
vn -0.37363535165786743 -0.9275755882263184 0.0
vn -0.37363535165786743 -0.9275756478309631 0.0
vn -0.37363535165786743 -0.9275756478309631 0.0
vn -0.37363535165786743 -0.9275756478309631 0.0
vn -0.37363535165786743 -0.9275756478309631 0.0
vn -0.3736349940299988 -0.9275758862495422 0.0
vn -0.37363502383232117 -0.9275758266448975 0.0
vn -0.37363502383232117 -0.9275758266448975 0.0
vn -0.3736349940299988 -0.9275758862495422 0.0
vn -0.3736349940299988 -0.9275758862495422 0.0
vn -0.37363502383232117 -0.9275758266448975 0.0
vn -0.37363502383232117 -0.9275758266448975 0.0
vn -0.3736349940299988 -0.9275758862495422 0.0
vn -0.37363505363464355 -0.9275758862495422 0.0
vn -0.37363505363464355 -0.9275758266448975 0.0
vn -0.37363505363464355 -0.9275758266448975 0.0
vn -0.37363505363464355 -0.9275758862495422 0.0
vn -0.37363383173942566 -0.9275762438774109 0.0
vn -0.37363383173942566 -0.9275763034820557 0.0
vn -0.37363383173942566 -0.9275763034820557 0.0
vn -0.37363383173942566 -0.9275762438774109 0.0
vn -0.37363383173942566 -0.9275762438774109 0.0
vn -0.37363383173942566 -0.9275763034820557 0.0
vn -0.37363383173942566 -0.9275763034820557 0.0
vn -0.37363383173942566 -0.9275762438774109 0.0
vn -0.37363386154174805 -0.9275763034820557 0.0
vn -0.3736337721347809 -0.9275762438774109 0.0
vn -0.3736337721347809 -0.9275762438774109 0.0
vn -0.37363386154174805 -0.9275763034820557 0.0
vn -0.3736356794834137 -0.9275755286216736 0.0
vn -0.3736357092857361 -0.9275755882263184 0.0
vn -0.3736357092857361 -0.9275755882263184 0.0
vn -0.3736356794834137 -0.9275755286216736 0.0
vn -0.37363532185554504 -0.9275757074356079 0.0
vn -0.37363532185554504 -0.9275757074356079 0.0
vn -0.37363532185554504 -0.9275757074356079 0.0
vn -0.37363532185554504 -0.9275757074356079 0.0
vn -0.37363454699516296 -0.9275760054588318 0.0
vn -0.37363454699516296 -0.9275760054588318 0.0
vn -0.37363454699516296 -0.9275760054588318 0.0
vn -0.37363454699516296 -0.9275760054588318 0.0
vn -0.3736347556114197 -0.927575945854187 0.0
vn -0.3736347556114197 -0.9275758862495422 0.0
vn -0.3736347556114197 -0.9275758862495422 0.0
vn -0.3736347556114197 -0.927575945854187 0.0
vn -0.37363743782043457 -0.9275748133659363 0.0
vn -0.37363743782043457 -0.9275748133659363 0.0
vn -0.37363743782043457 -0.9275748133659363 0.0
vn -0.37363743782043457 -0.9275748133659363 0.0
vn -0.3736347556114197 -0.927575945854187 0.0
vn -0.3736347556114197 -0.9275758862495422 0.0
vn -0.3736347556114197 -0.9275758862495422 0.0
vn -0.3736347556114197 -0.927575945854187 0.0
vn -0.3736356794834137 -0.9275755286216736 0.0
vn -0.3736357092857361 -0.9275755882263184 0.0
vn -0.3736357092857361 -0.9275755882263184 0.0
vn -0.3736356794834137 -0.9275755286216736 0.0
f 1/1/1 2/2/2 3/3/3
f 2/4/2 4/5/4 3/6/3
f 5/7/5 6/8/6 7/9/7
f 6/10/6 8/11/8 7/12/7
f 9/13/9 10/14/10 11/15/11
f 10/16/10 12/17/12 11/18/11
f 13/19/13 14/20/14 15/21/15
f 14/22/14 16/23/16 15/24/15
f 17/25/17 18/26/18 19/27/19
f 18/28/18 20/29/20 19/30/19
f 21/31/21 22/32/22 23/33/23
f 22/34/22 24/35/24 23/36/23
f 25/37/25 26/38/26 27/39/27
f 26/40/26 28/41/28 27/42/27
f 29/43/29 30/44/30 31/45/31
f 30/46/30 32/47/32 31/48/31
f 33/49/33 34/50/34 35/51/35
f 34/52/34 36/53/36 35/54/35
f 37/55/37 38/56/38 39/57/39
f 38/58/38 40/59/40 39/60/39
f 41/61/41 42/62/42 43/63/43
f 42/64/42 44/65/44 43/66/43
f 45/67/45 46/68/46 47/69/47
f 46/70/46 48/71/48 47/72/47
f 49/73/49 50/74/50 51/75/51
f 50/76/50 52/77/52 51/78/51
f 53/79/53 54/80/54 55/81/55
f 54/82/54 56/83/56 55/84/55
f 57/85/57 58/86/58 59/87/59
f 58/88/58 60/89/60 59/90/59
f 61/91/61 62/92/62 63/93/63
f 62/94/62 64/95/64 63/96/63
f 65/97/65 66/98/66 67/99/67
f 66/100/66 68/101/68 67/102/67
f 69/103/69 70/104/70 71/105/71
f 70/106/70 72/107/72 71/108/71
f 73/109/73 74/110/74 75/111/75
f 74/112/74 76/113/76 75/114/75
f 77/115/77 78/116/78 79/117/79
f 78/118/78 80/119/80 79/120/79
