# Exported by Lightwave Blender addon
v 792.1121215820312 -856.4402465820312 451.2774353027344
v 785.9673461914062 -852.3619995117188 451.2774353027344
v 784.9098510742188 -855.5092163085938 414.81219482421875
v 789.6227416992188 -858.6370849609375 414.81219482421875
v 795.39453125 -863.0445556640625 451.2774353027344
v 792.1402587890625 -863.702392578125 414.81219482421875
v 794.9349975585938 -870.4052124023438 451.2774353027344
v 791.787841796875 -869.3477783203125 414.81219482421875
v 790.8567504882812 -876.5501098632812 451.2774353027344
v 788.659912109375 -874.060791015625 414.81219482421875
v 784.25244140625 -879.83251953125 451.2774353027344
v 783.5946044921875 -876.5781860351562 414.81219482421875
v 776.8917846679688 -879.373046875 451.2774353027344
v 777.94921875 -876.225830078125 414.81219482421875
v 770.7468872070312 -875.2947387695312 451.2774353027344
v 773.236328125 -873.0978393554688 414.81219482421875
v 767.4645385742188 -868.6904907226562 451.2774353027344
v 770.7188110351562 -868.0325927734375 414.81219482421875
v 767.9240112304688 -861.3297119140625 451.2774353027344
v 771.0711669921875 -862.3871459960938 414.81219482421875
v 772.0023193359375 -855.1848754882812 451.2774353027344
v 774.1991577148438 -857.6742553710938 414.81219482421875
v 778.6065673828125 -851.9024658203125 451.2774353027344
v 779.2644653320312 -855.15673828125 414.81219482421875
v 788.2520751953125 -855.5877685546875 414.81219482421875
v 785.3154296875 -854.302001953125 414.81219482421875
v 786.4961547851562 -850.7880249023438 451.2774353027344
v 790.3250122070312 -852.4645385742188 451.2774353027344
v 793.3570556640625 -855.3416137695312 451.2774353027344
v 790.5775756835938 -857.7944946289062 414.81219482421875
v 792.4778442382812 -860.376220703125 414.81219482421875
v 795.834716796875 -858.7079467773438 451.2774353027344
v 797.0220336914062 -862.715576171875 451.2774353027344
v 793.3883666992188 -863.4501342773438 414.81219482421875
v 793.7432250976562 -866.6361694335938 414.81219482421875
v 797.4846801757812 -866.8697509765625 451.2774353027344
v 796.5089111328125 -870.9340209960938 451.2774353027344
v 792.9949951171875 -869.75341796875 414.81219482421875
v 791.7091674804688 -872.6900634765625 414.81219482421875
v 794.83251953125 -874.762939453125 451.2774353027344
v 791.9554443359375 -877.7949829101562 451.2774353027344
v 789.5025634765625 -875.0155639648438 414.81219482421875
v 786.9207153320312 -876.9158325195312 414.81219482421875
v 788.5890502929688 -880.272705078125 451.2774353027344
v 784.5814819335938 -881.4598999023438 451.2774353027344
v 783.846923828125 -877.8264770507812 414.81219482421875
v 780.6608276367188 -878.1812133789062 414.81219482421875
v 780.4273071289062 -881.9225463867188 451.2774353027344
v 776.3629760742188 -880.9468994140625 451.2774353027344
v 777.5435791015625 -877.4329833984375 414.81219482421875
v 774.60693359375 -876.1470947265625 414.81219482421875
v 772.5340576171875 -879.2703857421875 451.2774353027344
v 769.5020141601562 -876.393310546875 451.2774353027344
v 772.281494140625 -873.9404907226562 414.81219482421875
v 770.3811645507812 -871.3587036132812 414.81219482421875
v 767.0242919921875 -873.027099609375 451.2774353027344
v 765.8370361328125 -869.0193481445312 451.2774353027344
v 769.4705810546875 -868.284912109375 414.81219482421875
v 769.1157836914062 -865.0988159179688 414.81219482421875
v 765.3744506835938 -864.865234375 451.2774353027344
v 766.35009765625 -860.8009033203125 451.2774353027344
v 769.8640747070312 -861.9815063476562 414.81219482421875
v 771.1498413085938 -859.044921875 414.81219482421875
v 768.0264892578125 -856.9719848632812 451.2774353027344
v 770.9036254882812 -853.93994140625 451.2774353027344
v 773.3565063476562 -856.719482421875 414.81219482421875
v 775.9383544921875 -854.819091796875 414.81219482421875
v 774.2698974609375 -851.4622802734375 451.2774353027344
v 778.2776489257812 -850.2750244140625 451.2774353027344
v 779.0121459960938 -853.908447265625 414.81219482421875
v 782.1981811523438 -853.5537109375 414.81219482421875
v 782.4317016601562 -849.8124389648438 451.2774353027344
vt 0.0927734375 0.09716796875
vt 0.0162200927734375 0.09716796875
vt 0.0162200927734375 0.9044189453125
vt 0.0162200927734375 0.9044189453125
vt 0.0927734375 0.9044189453125
vt 0.0927734375 0.09716796875
vt 0.1728515625 0.09716796875
vt 0.0927734375 0.09716796875
vt 0.0927734375 0.9044189453125
vt 0.0927734375 0.9044189453125
vt 0.1728515625 0.9044189453125
vt 0.1728515625 0.09716796875
vt 0.2529296875 0.09716796875
vt 0.1728515625 0.09716796875
vt 0.1728515625 0.9044189453125
vt 0.1728515625 0.9044189453125
vt 0.2529296875 0.9044189453125
vt 0.2529296875 0.09716796875
vt 0.3330078125 0.09716796875
vt 0.2529296875 0.09716796875
vt 0.2529296875 0.9044189453125
vt 0.2529296875 0.9044189453125
vt 0.3330078125 0.9044189453125
vt 0.3330078125 0.09716796875
vt 0.4130859375 0.09716796875
vt 0.3330078125 0.09716796875
vt 0.3330078125 0.9044189453125
vt 0.3330078125 0.9044189453125
vt 0.4130859375 0.9044189453125
vt 0.4130859375 0.09716796875
vt 0.4931640625 0.09716796875
vt 0.4130859375 0.09716796875
vt 0.4130859375 0.9044189453125
vt 0.4130859375 0.9044189453125
vt 0.4931640625 0.9044189453125
vt 0.4931640625 0.09716796875
vt 0.5732421875 0.09716796875
vt 0.4931640625 0.09716796875
vt 0.4931640625 0.9044189453125
vt 0.4931640625 0.9044189453125
vt 0.5732421875 0.9044189453125
vt 0.5732421875 0.09716796875
vt 0.6533203125 0.09716796875
vt 0.5732421875 0.09716796875
vt 0.5732421875 0.9044189453125
vt 0.5732421875 0.9044189453125
vt 0.6533203125 0.9044189453125
vt 0.6533203125 0.09716796875
vt 0.7333984375 0.09716796875
vt 0.6533203125 0.09716796875
vt 0.6533203125 0.9044189453125
vt 0.6533203125 0.9044189453125
vt 0.7333984375 0.9044189453125
vt 0.7333984375 0.09716796875
vt 0.8134765625 0.09716796875
vt 0.7333984375 0.09716796875
vt 0.7333984375 0.9044189453125
vt 0.7333984375 0.9044189453125
vt 0.8134765625 0.9044189453125
vt 0.8134765625 0.09716796875
vt 0.8935546875 0.09716796875
vt 0.8134765625 0.09716796875
vt 0.8134765625 0.9044189453125
vt 0.8134765625 0.9044189453125
vt 0.8935546875 0.9044189453125
vt 0.8935546875 0.09716796875
vt 0.984375 0.09716796875
vt 0.8935546875 0.09716796875
vt 0.8935546875 0.9044189453125
vt 0.8935546875 0.9044189453125
vt 0.984375 0.9044189453125
vt 0.984375 0.09716796875
vt 0.05450439453125 0.9044189453125
vt 0.0162200927734375 0.9044189453125
vt 0.0162200927734375 0.09716796875
vt 0.0162200927734375 0.09716796875
vt 0.05450439453125 0.09716796875
vt 0.05450439453125 0.9044189453125
vt 0.05450439453125 0.9044189453125
vt 0.05450439453125 0.09716796875
vt 0.0927734375 0.09716796875
vt 0.0927734375 0.09716796875
vt 0.0927734375 0.9044189453125
vt 0.05450439453125 0.9044189453125
vt 0.1328125 0.9044189453125
vt 0.0927734375 0.9044189453125
vt 0.0927734375 0.09716796875
vt 0.0927734375 0.09716796875
vt 0.1328125 0.09716796875
vt 0.1328125 0.9044189453125
vt 0.1328125 0.9044189453125
vt 0.1328125 0.09716796875
vt 0.1728515625 0.09716796875
vt 0.1728515625 0.09716796875
vt 0.1728515625 0.9044189453125
vt 0.1328125 0.9044189453125
vt 0.212890625 0.9044189453125
vt 0.1728515625 0.9044189453125
vt 0.1728515625 0.09716796875
vt 0.1728515625 0.09716796875
vt 0.212890625 0.09716796875
vt 0.212890625 0.9044189453125
vt 0.212890625 0.9044189453125
vt 0.212890625 0.09716796875
vt 0.2529296875 0.09716796875
vt 0.2529296875 0.09716796875
vt 0.2529296875 0.9044189453125
vt 0.212890625 0.9044189453125
vt 0.29296875 0.9044189453125
vt 0.2529296875 0.9044189453125
vt 0.2529296875 0.09716796875
vt 0.2529296875 0.09716796875
vt 0.29296875 0.09716796875
vt 0.29296875 0.9044189453125
vt 0.29296875 0.9044189453125
vt 0.29296875 0.09716796875
vt 0.3330078125 0.09716796875
vt 0.3330078125 0.09716796875
vt 0.3330078125 0.9044189453125
vt 0.29296875 0.9044189453125
vt 0.373046875 0.9044189453125
vt 0.3330078125 0.9044189453125
vt 0.3330078125 0.09716796875
vt 0.3330078125 0.09716796875
vt 0.373046875 0.09716796875
vt 0.373046875 0.9044189453125
vt 0.373046875 0.9044189453125
vt 0.373046875 0.09716796875
vt 0.4130859375 0.09716796875
vt 0.4130859375 0.09716796875
vt 0.4130859375 0.9044189453125
vt 0.373046875 0.9044189453125
vt 0.453125 0.9044189453125
vt 0.4130859375 0.9044189453125
vt 0.4130859375 0.09716796875
vt 0.4130859375 0.09716796875
vt 0.453125 0.09716796875
vt 0.453125 0.9044189453125
vt 0.453125 0.9044189453125
vt 0.453125 0.09716796875
vt 0.4931640625 0.09716796875
vt 0.4931640625 0.09716796875
vt 0.4931640625 0.9044189453125
vt 0.453125 0.9044189453125
vt 0.533203125 0.9044189453125
vt 0.4931640625 0.9044189453125
vt 0.4931640625 0.09716796875
vt 0.4931640625 0.09716796875
vt 0.533203125 0.09716796875
vt 0.533203125 0.9044189453125
vt 0.533203125 0.9044189453125
vt 0.533203125 0.09716796875
vt 0.5732421875 0.09716796875
vt 0.5732421875 0.09716796875
vt 0.5732421875 0.9044189453125
vt 0.533203125 0.9044189453125
vt 0.61328125 0.9044189453125
vt 0.5732421875 0.9044189453125
vt 0.5732421875 0.09716796875
vt 0.5732421875 0.09716796875
vt 0.61328125 0.09716796875
vt 0.61328125 0.9044189453125
vt 0.61328125 0.9044189453125
vt 0.61328125 0.09716796875
vt 0.6533203125 0.09716796875
vt 0.6533203125 0.09716796875
vt 0.6533203125 0.9044189453125
vt 0.61328125 0.9044189453125
vt 0.693359375 0.9044189453125
vt 0.6533203125 0.9044189453125
vt 0.6533203125 0.09716796875
vt 0.6533203125 0.09716796875
vt 0.693359375 0.09716796875
vt 0.693359375 0.9044189453125
vt 0.693359375 0.9044189453125
vt 0.693359375 0.09716796875
vt 0.7333984375 0.09716796875
vt 0.7333984375 0.09716796875
vt 0.7333984375 0.9044189453125
vt 0.693359375 0.9044189453125
vt 0.7734375 0.9044189453125
vt 0.7333984375 0.9044189453125
vt 0.7333984375 0.09716796875
vt 0.7333984375 0.09716796875
vt 0.7734375 0.09716796875
vt 0.7734375 0.9044189453125
vt 0.7734375 0.9044189453125
vt 0.7734375 0.09716796875
vt 0.8134765625 0.09716796875
vt 0.8134765625 0.09716796875
vt 0.8134765625 0.9044189453125
vt 0.7734375 0.9044189453125
vt 0.853515625 0.9044189453125
vt 0.8134765625 0.9044189453125
vt 0.8134765625 0.09716796875
vt 0.8134765625 0.09716796875
vt 0.853515625 0.09716796875
vt 0.853515625 0.9044189453125
vt 0.853515625 0.9044189453125
vt 0.853515625 0.09716796875
vt 0.8935546875 0.09716796875
vt 0.8935546875 0.09716796875
vt 0.8935546875 0.9044189453125
vt 0.853515625 0.9044189453125
vt 0.93896484375 0.9044189453125
vt 0.8935546875 0.9044189453125
vt 0.8935546875 0.09716796875
vt 0.8935546875 0.09716796875
vt 0.93896484375 0.09716796875
vt 0.93896484375 0.9044189453125
vt 0.93896484375 0.9044189453125
vt 0.93896484375 0.09716796875
vt 0.984375 0.09716796875
vt 0.984375 0.09716796875
vt 0.984375 0.9044189453125
vt 0.93896484375 0.9044189453125
vn -0.7467021942138672 -0.6589491367340088 0.09067396819591522
vn -0.3171907663345337 -0.9440171122550964 0.09067367017269135
vn -0.3171865940093994 -0.944018542766571 0.09067351371049881
vn -0.746697187423706 -0.6589549779891968 0.09067339450120926
vn -0.9761384725570679 -0.1973118782043457 0.0906732827425003
vn -0.9761372208595276 -0.19731839001178741 0.09067270904779434
vn -0.9440187811851501 0.3171863555908203 0.09067242592573166
vn -0.9440208673477173 0.3171798288822174 0.09067199379205704
vn -0.6589525938034058 0.7466993927955627 0.09067228436470032
vn -0.6589495539665222 0.7467018961906433 0.09067389369010925
vn -0.19731490314006805 0.9761379361152649 0.09067352861166
vn -0.19731411337852478 0.9761379957199097 0.09067409485578537
vn 0.31718549132347107 0.9440187811851501 0.09067416936159134
vn 0.31718385219573975 0.9440193176269531 0.09067481756210327
vn 0.7467032074928284 0.6589478850364685 0.09067484736442566
vn 0.7467018365859985 0.6589494943618774 0.09067495167255402
vn 0.9761377573013306 0.19731517136096954 0.09067420661449432
vn 0.9761357307434082 0.19732612371444702 0.09067284315824509
vn 0.9440183639526367 -0.31718727946281433 0.0906725749373436
vn 0.944019615650177 -0.3171837031841278 0.09067283570766449
vn 0.6589491963386536 -0.7467023134231567 0.09067285805940628
vn 0.6589483022689819 -0.746703028678894 0.09067372232675552
vn 0.19731417298316956 -0.9761380553245544 0.09067333489656448
vn 0.197313591837883 -0.9761380553245544 0.09067409485578537
vn 0.5500877499580383 0.8288221955299377 -0.1022612676024437
vn 0.31686168909072876 0.9430639743804932 -0.10113827139139175
vn 0.31686392426490784 0.9430634379386902 -0.10113657265901566
vn 0.5500897169113159 0.8288211226463318 -0.10225903242826462
vn 0.7459445595741272 0.6582842469215393 -0.10113658010959625
vn 0.7459434270858765 0.6582852005958557 -0.10113823413848877
vn 0.8908045887947083 0.4427294433116913 -0.10226322710514069
vn 0.8907995223999023 0.44274070858955383 -0.10225939750671387
vn 0.9751461148262024 0.1971316784620285 -0.10113932192325592
vn 0.9751496315002441 0.19711312651634216 -0.10114181041717529
vn 0.992825984954834 -0.06196025758981705 -0.10226184874773026
vn 0.9928238987922668 -0.061989352107048035 -0.10226410627365112
vn 0.9430603384971619 -0.31687262654304504 -0.10113894939422607
vn 0.943064272403717 -0.31686142086982727 -0.10113567113876343
vn 0.8288254737854004 -0.5500832200050354 -0.10225897282361984
vn 0.8288299441337585 -0.5500760078430176 -0.10226086527109146
vn 0.65828537940979 -0.7459433674812317 -0.10113751888275146
vn 0.6582871079444885 -0.7459419369697571 -0.10113699734210968
vn 0.4427391290664673 -0.8908002376556396 -0.10225880146026611
vn 0.44273170828819275 -0.8908039331436157 -0.10226012766361237
vn 0.1971210390329361 -0.9751484990119934 -0.1011374220252037
vn 0.19711677730083466 -0.9751495122909546 -0.10113533586263657
vn -0.06197788193821907 -0.9928253293037415 -0.10225803405046463
vn -0.06197360157966614 -0.9928253293037415 -0.10226073116064072
vn -0.31687095761299133 -0.943061113357544 -0.10113726556301117
vn -0.31686973571777344 -0.9430615901947021 -0.10113567113876343
vn -0.550095796585083 -0.8288170695304871 -0.10225877910852432
vn -0.5500870943069458 -0.8288227319717407 -0.10225949436426163
vn -0.7459351420402527 -0.658294677734375 -0.10113709419965744
vn -0.7459373474121094 -0.658292293548584 -0.10113713890314102
vn -0.890798032283783 -0.44274330139160156 -0.10226061940193176
vn -0.8907976746559143 -0.4427439272403717 -0.10226085782051086
vn -0.9751495122909546 -0.19711561501026154 -0.10113787651062012
vn -0.9751491546630859 -0.19711725413799286 -0.1011379063129425
vn -0.9928251504898071 0.0619758702814579 -0.10226056724786758
vn -0.9928247928619385 0.06198011711239815 -0.10226082056760788
vn -0.9430650472640991 0.3168586194515228 -0.10113821923732758
vn -0.943063497543335 0.31686344742774963 -0.10113722831010818
vn -0.8288206458091736 0.5500898957252502 -0.1022612527012825
vn -0.828826904296875 0.5500803589820862 -0.10226177424192429
vn -0.6582835912704468 0.7459449172019958 -0.10113830864429474
vn -0.6582884788513184 0.7459403872489929 -0.10113947838544846
vn -0.4427517354488373 0.8907938599586487 -0.10226021707057953
vn -0.4427352249622345 0.8908021450042725 -0.10226012021303177
vn -0.19711662828922272 0.975149393081665 -0.10113648325204849
vn -0.1971178650856018 0.9751493334770203 -0.1011350080370903
vn 0.06198515370488167 0.9928247928619385 -0.10225920379161835
vn 0.061968844383955 0.9928257465362549 -0.1022590845823288
f 1/1/1 2/2/2 3/3/3
f 3/4/3 4/5/4 1/6/1
f 5/7/5 1/8/1 4/9/4
f 4/10/4 6/11/6 5/12/5
f 7/13/7 5/14/5 6/15/6
f 6/16/6 8/17/8 7/18/7
f 9/19/9 7/20/7 8/21/8
f 8/22/8 10/23/10 9/24/9
f 11/25/11 9/26/9 10/27/10
f 10/28/10 12/29/12 11/30/11
f 13/31/13 11/32/11 12/33/12
f 12/34/12 14/35/14 13/36/13
f 15/37/15 13/38/13 14/39/14
f 14/40/14 16/41/16 15/42/15
f 17/43/17 15/44/15 16/45/16
f 16/46/16 18/47/18 17/48/17
f 19/49/19 17/50/17 18/51/18
f 18/52/18 20/53/20 19/54/19
f 21/55/21 19/56/19 20/57/20
f 20/58/20 22/59/22 21/60/21
f 23/61/23 21/62/21 22/63/22
f 22/64/22 24/65/24 23/66/23
f 2/67/2 23/68/23 24/69/24
f 24/70/24 3/71/3 2/72/2
f 25/73/25 26/74/26 27/75/27
f 27/76/27 28/77/28 25/78/25
f 25/79/25 28/80/28 29/81/29
f 29/82/29 30/83/30 25/84/25
f 31/85/31 30/86/30 29/87/29
f 29/88/29 32/89/32 31/90/31
f 31/91/31 32/92/32 33/93/33
f 33/94/33 34/95/34 31/96/31
f 35/97/35 34/98/34 33/99/33
f 33/100/33 36/101/36 35/102/35
f 35/103/35 36/104/36 37/105/37
f 37/106/37 38/107/38 35/108/35
f 39/109/39 38/110/38 37/111/37
f 37/112/37 40/113/40 39/114/39
f 39/115/39 40/116/40 41/117/41
f 41/118/41 42/119/42 39/120/39
f 43/121/43 42/122/42 41/123/41
f 41/124/41 44/125/44 43/126/43
f 43/127/43 44/128/44 45/129/45
f 45/130/45 46/131/46 43/132/43
f 47/133/47 46/134/46 45/135/45
f 45/136/45 48/137/48 47/138/47
f 47/139/47 48/140/48 49/141/49
f 49/142/49 50/143/50 47/144/47
f 51/145/51 50/146/50 49/147/49
f 49/148/49 52/149/52 51/150/51
f 51/151/51 52/152/52 53/153/53
f 53/154/53 54/155/54 51/156/51
f 55/157/55 54/158/54 53/159/53
f 53/160/53 56/161/56 55/162/55
f 55/163/55 56/164/56 57/165/57
f 57/166/57 58/167/58 55/168/55
f 59/169/59 58/170/58 57/171/57
f 57/172/57 60/173/60 59/174/59
f 59/175/59 60/176/60 61/177/61
f 61/178/61 62/179/62 59/180/59
f 63/181/63 62/182/62 61/183/61
f 61/184/61 64/185/64 63/186/63
f 63/187/63 64/188/64 65/189/65
f 65/190/65 66/191/66 63/192/63
f 67/193/67 66/194/66 65/195/65
f 65/196/65 68/197/68 67/198/67
f 67/199/67 68/200/68 69/201/69
f 69/202/69 70/203/70 67/204/67
f 71/205/71 70/206/70 69/207/69
f 69/208/69 72/209/72 71/210/71
f 71/211/71 72/212/72 27/213/27
f 27/214/27 26/215/26 71/216/71
