# Exported by Lightwave Blender addon
v -82.23428344726562 437.4388732910156 903.555908203125
v -61.679412841796875 474.4998474121094 903.555908203125
v -82.23428344726562 437.4388732910156 766.749755859375
v -61.679412841796875 474.4998474121094 766.749755859375
v -103.4232177734375 399.23468017578125 766.749755859375
v -103.4232177734375 399.23468017578125 903.555908203125
v -82.74791717529297 436.5127868652344 766.749755859375
v -82.74791717529297 436.5127868652344 903.555908203125
vt 0.497802734375 0.9884872436523438
vt 0.251220703125 0.9884872436523438
vt 0.497802734375 0.22509765625
vt 0.251220703125 0.9884872436523438
vt 0.251220703125 0.22509765625
vt 0.497802734375 0.22509765625
vt 0.2491455078125 0.22509765625
vt 0.2491455078125 0.9884872436523438
vt 0.00260162353515625 0.22509765625
vt 0.2491455078125 0.9884872436523438
vt 0.00260162353515625 0.9884872436523438
vt 0.00260162353515625 0.22509765625
vn -0.8745032548904419 0.48501962423324585 0.0
vn -0.8745032548904419 0.48501959443092346 0.0
vn -0.8745032548904419 0.48501959443092346 0.0
vn -0.8745032548904419 0.48501962423324585 0.0
vn -0.8745032548904419 0.485019713640213 0.0
vn -0.8745031952857971 0.4850196838378906 0.0
vn -0.8745031952857971 0.4850196838378906 0.0
vn -0.8745032548904419 0.485019713640213 0.0
f 1/1/1 2/2/2 3/3/3
f 2/4/2 4/5/4 3/6/3
f 5/7/5 6/8/6 7/9/7
f 6/10/6 8/11/8 7/12/7
