# Exported by Lightwave Blender addon
v 710.91845703125 -377.1841735839844 862.223388671875
v 710.91845703125 -377.1841735839844 820.8848876953125
v 796.1799926757812 -410.3211364746094 862.2233276367188
v 796.1799926757812 -410.3211669921875 820.8848876953125
vt 0.0013761520385742188 0.2392578125
vt 0.0013761520385742188 0.00732421875
vt 0.57177734375 0.2392578125
vt 0.0013761520385742188 0.00732421875
vt 0.57177734375 0.00732421875
vt 0.57177734375 0.2392578125
vn -0.3622535169124603 -0.9320796132087708 0.0
vn -0.3622535467147827 -0.932079553604126 1.8592652395454934e-07
vn -0.36225366592407227 -0.9320794939994812 5.021691436013498e-07
vn -0.3622537851333618 -0.932079553604126 6.880958380861557e-07
f 1/1/1 2/2/2 3/3/3
f 2/4/2 4/5/4 3/6/3
