# Exported by Lightwave Blender addon
v 289.1364440917969 -219.66452026367188 51.03107452392578
v 289.1364440917969 -219.6645050048828 271.9167785644531
v 295.9316101074219 -202.48095703125 51.03107833862305
v 295.9315185546875 -202.48097229003906 271.9167785644531
v 75.25263977050781 -135.0843963623047 271.9167175292969
v 75.25273132324219 -135.0844268798828 51.03104782104492
v 82.04774475097656 -117.90084075927734 271.916748046875
v 82.04788208007812 -117.90086364746094 51.03105163574219
v 568.1152954101562 -329.9855651855469 51.0311164855957
v 568.1152954101562 -329.985595703125 271.9168395996094
v 574.910400390625 -312.802001953125 51.0311164855957
v 574.9104614257812 -312.802001953125 271.9168395996094
v 354.2315979003906 -245.4054718017578 271.9167785644531
v 354.231689453125 -245.40550231933594 51.031105041503906
v 361.0267333984375 -228.22189331054688 271.9167785644531
v 361.0268249511719 -228.22190856933594 51.031105041503906
v 847.094482421875 -440.3067321777344 51.031185150146484
v 847.0944213867188 -440.306640625 271.9169006347656
v 853.8895874023438 -423.1231384277344 51.03117370605469
v 853.889404296875 -423.123046875 271.9168701171875
v 633.210693359375 -355.72662353515625 271.9168701171875
v 633.2107543945312 -355.7265625 51.031124114990234
v 640.0057373046875 -338.5429992675781 271.9168395996094
v 640.0057983398438 -338.5429992675781 51.03114700317383
v 321.68402099609375 -232.53509521484375 427.0893859863281
v 26.852920532226562 -115.92379760742188 428.5846862792969
v 26.80598258972168 -115.92668151855469 299.3442077636719
v 321.68402099609375 -232.5350799560547 297.8489685058594
v 600.6630249023438 -342.856201171875 427.0894470214844
v 26.80603790283203 -115.92667388916016 28.584701538085938
v 321.6839904785156 -232.53509521484375 27.08945655822754
v 600.6630859375 -342.8561706542969 297.8490295410156
v 879.6421508789062 -453.17724609375 427.0895080566406
v 879.64208984375 -453.1772766113281 297.8490905761719
v 339.9350280761719 -239.7521514892578 40.51471710205078
v 879.6420288085938 -453.1772766113281 27.089614868164062
v 600.6630249023438 -342.8561706542969 27.089542388916016
v 582.4119262695312 -335.6390075683594 40.51474380493164
v 582.4119873046875 -335.6390380859375 283.3075866699219
v 339.93505859375 -239.7521209716797 283.3075866699219
vt -0.3837890625 0.49365234375
vt 0.72021484375 0.49365234375
vt -0.3837890625 0.585693359375
vt 0.72021484375 0.49365234375
vt 0.72021484375 0.585693359375
vt -0.3837890625 0.585693359375
vt 0.279541015625 0.517578125
vt 1.3837890625 0.517578125
vt 0.279541015625 0.60986328125
vt 1.3837890625 0.517578125
vt 1.3837890625 0.60986328125
vt 0.279541015625 0.60986328125
vt -0.3837890625 0.4619140625
vt 0.72021484375 0.4619140625
vt -0.3837890625 0.553955078125
vt 0.72021484375 0.4619140625
vt 0.72021484375 0.553955078125
vt -0.3837890625 0.553955078125
vt 0.279541015625 0.48583984375
vt 1.3837890625 0.48583984375
vt 0.279541015625 0.578369140625
vt 1.3837890625 0.48583984375
vt 1.3837890625 0.578369140625
vt 0.279541015625 0.578369140625
vt -0.3837890625 0.43017578125
vt 0.72021484375 0.43017578125
vt -0.3837890625 0.522216796875
vt 0.72021484375 0.43017578125
vt 0.72021484375 0.522216796875
vt -0.3837890625 0.522216796875
vt 0.279541015625 0.4541015625
vt 1.3837890625 0.4541015625
vt 0.279541015625 0.546630859375
vt 1.3837890625 0.4541015625
vt 1.3837890625 0.546630859375
vt 0.279541015625 0.546630859375
vt 1.0751953125 -0.951171875
vt -0.0738525390625 -0.951171875
vt 1.0732421875 -1.04296875
vt -0.0738525390625 -0.951171875
vt -0.0758056640625 -1.04296875
vt 1.0732421875 -1.04296875
vt -0.0738525390625 -0.9404296875
vt 1.0751953125 -0.9404296875
vt -0.0758056640625 -0.8486328125
vt 1.0751953125 -0.9404296875
vt 1.0732421875 -0.8486328125
vt -0.0758056640625 -0.8486328125
vt 1.0751953125 0.57958984375
vt -0.0738525390625 0.57958984375
vt 1.0732421875 0.4873046875
vt -0.0738525390625 0.57958984375
vt -0.0758056640625 0.4873046875
vt 1.0732421875 0.4873046875
vt -0.0738525390625 0.52685546875
vt 1.0751953125 0.52685546875
vt -0.0758056640625 0.619384765625
vt 1.0751953125 0.52685546875
vt 1.0732421875 0.619384765625
vt -0.0758056640625 0.619384765625
vt 1.0751953125 2.0986328125
vt -0.0738525390625 2.0986328125
vt 1.0732421875 2.005859375
vt -0.0738525390625 2.0986328125
vt -0.0758056640625 2.005859375
vt 1.0732421875 2.005859375
vt -0.0738525390625 2.005859375
vt 1.0751953125 2.005859375
vt -0.0758056640625 2.0986328125
vt 1.0751953125 2.005859375
vt 1.0732421875 2.0986328125
vt -0.0758056640625 2.0986328125
vt -0.20703125 1.50537109375
vt -1.7919921875 1.51318359375
vt -1.7919921875 0.8670654296875
vt -0.20703125 0.859619140625
vt -0.20703125 1.50537109375
vt -1.7919921875 0.8670654296875
vt 1.2919921875 1.50537109375
vt -0.20703125 1.50537109375
vt -0.20703125 0.859619140625
vt -0.20703125 0.859619140625
vt -1.7919921875 0.8670654296875
vt -1.53125 0.72998046875
vt -1.53125 -0.3740234375
vt -1.53125 0.72998046875
vt -1.7919921875 0.8670654296875
vt -1.7919921875 -0.486328125
vt -1.53125 -0.3740234375
vt -1.7919921875 0.8670654296875
vt -0.3818359375 -0.3740234375
vt -1.53125 -0.3740234375
vt -1.7919921875 -0.486328125
vt -0.3818359375 0.72998046875
vt -0.20703125 0.859619140625
vt -1.53125 0.72998046875
vt -0.20703125 -0.494140625
vt -0.3818359375 -0.3740234375
vt -1.7919921875 -0.486328125
vt -0.3818359375 0.72998046875
vt -0.3818359375 -0.3740234375
vt -0.20703125 -0.494140625
vt -0.20703125 0.859619140625
vt -0.3818359375 0.72998046875
vt -0.20703125 -0.494140625
vt 1.2919921875 0.859619140625
vt 1.2919921875 1.50537109375
vt -0.20703125 0.859619140625
vt 2.791015625 1.50537109375
vt 1.2919921875 1.50537109375
vt 1.2919921875 0.859619140625
vt 2.791015625 0.859619140625
vt 2.791015625 1.50537109375
vt 1.2919921875 0.859619140625
vt -0.20703125 -0.494140625
vt -0.10894775390625 -0.4267578125
vt -0.20703125 0.859619140625
vt 2.791015625 0.859619140625
vt 1.2919921875 0.859619140625
vt 1.466796875 0.72998046875
vt 2.6171875 0.72998046875
vt 2.791015625 0.859619140625
vt 1.466796875 0.72998046875
vt 2.791015625 0.859619140625
vt 2.6171875 0.72998046875
vt 2.791015625 -0.494140625
vt 2.6171875 0.72998046875
vt 2.6171875 -0.3740234375
vt 2.791015625 -0.494140625
vt 1.466796875 -0.3740234375
vt 1.466796875 0.72998046875
vt 1.2919921875 0.859619140625
vt 2.791015625 -0.494140625
vt 2.6171875 -0.3740234375
vt 1.2919921875 -0.494140625
vt 2.6171875 -0.3740234375
vt 1.466796875 -0.3740234375
vt 1.2919921875 -0.494140625
vt 1.2919921875 -0.494140625
vt 1.466796875 -0.3740234375
vt 1.2919921875 0.859619140625
vt 1.2919921875 -0.494140625
vt 1.1943359375 -0.4267578125
vt -0.20703125 -0.494140625
vt 1.1943359375 -0.4267578125
vt -0.10894775390625 -0.4267578125
vt -0.20703125 -0.494140625
vt 1.2919921875 0.859619140625
vt 1.1943359375 0.786865234375
vt 1.2919921875 -0.494140625
vt 1.1943359375 0.786865234375
vt 1.1943359375 -0.4267578125
vt 1.2919921875 -0.494140625
vt 1.2919921875 0.859619140625
vt -0.20703125 0.859619140625
vt -0.10894775390625 0.786865234375
vt 1.1943359375 0.786865234375
vt 1.2919921875 0.859619140625
vt -0.10894775390625 0.786865234375
vt -0.10894775390625 -0.4267578125
vt -0.10894775390625 0.786865234375
vt -0.20703125 0.859619140625
vt 1.1943359375 0.786865234375
vt 1.1171875 0.72998046875
vt 1.1943359375 -0.4267578125
vt 1.1171875 0.72998046875
vt 1.1943359375 0.786865234375
vt -0.032135009765625 0.72998046875
vt 1.1943359375 0.786865234375
vt -0.10894775390625 0.786865234375
vt -0.032135009765625 0.72998046875
vt 1.1171875 0.72998046875
vt 1.1171875 -0.3740234375
vt 1.1943359375 -0.4267578125
vt 1.1943359375 -0.4267578125
vt 1.1171875 -0.3740234375
vt -0.10894775390625 -0.4267578125
vt -0.032135009765625 -0.3740234375
vt -0.032135009765625 0.72998046875
vt -0.10894775390625 0.786865234375
vt 1.1171875 -0.3740234375
vt -0.032135009765625 -0.3740234375
vt -0.10894775390625 -0.4267578125
vt -0.10894775390625 -0.4267578125
vt -0.032135009765625 -0.3740234375
vt -0.10894775390625 0.786865234375
vn -0.6130156517028809 -0.7302742600440979 0.3015151023864746
vn -0.6130197048187256 -0.7302743196487427 -0.3015063405036926
vn -0.6575644016265869 0.2600306570529938 0.7071018815040588
vn -0.657554030418396 0.26002395153045654 -0.707114040851593
vn -0.05224253237247467 -0.952026903629303 -0.30152198672294617
vn -0.05223982781171799 -0.9520272612571716 0.3015213906764984
vn 0.6575669646263123 -0.2600286304950714 -0.7071002125740051
vn 0.6575554609298706 -0.26002705097198486 0.7071115374565125
vn -0.6130155324935913 -0.7302754521369934 0.30151233077049255
vn -0.6130197644233704 -0.7302743196487427 -0.30150651931762695
vn -0.6575640439987183 0.2600286304950714 0.7071029543876648
vn -0.6575538516044617 0.26002639532089233 -0.7071132659912109
vn -0.05223827064037323 -0.952025830745697 -0.30152595043182373
vn -0.05223638191819191 -0.952026903629303 0.3015229105949402
vn 0.657566487789154 -0.2600304186344147 -0.7071000337600708
vn 0.6575559377670288 -0.2600260376930237 0.7071115374565125
vn -0.613015353679657 -0.7302749156951904 0.3015141785144806
vn -0.6130191683769226 -0.7302752137184143 -0.30150559544563293
vn -0.6575640439987183 0.26002830266952515 0.7071030735969543
vn -0.6575549840927124 0.26001855731010437 -0.707115113735199
vn -0.05223669484257698 -0.9520255327224731 -0.3015274703502655
vn -0.0522366538643837 -0.9520266056060791 0.3015238642692566
vn 0.657568633556366 -0.2600283622741699 -0.7070987224578857
vn 0.6575580835342407 -0.26002469658851624 0.7071101069450378
vn -0.36774420738220215 -0.9299269914627075 1.891859392344486e-05
vn -0.36779507994651794 -0.929906964302063 0.0001543271355330944
vn -0.3677572011947632 -0.9299218654632568 5.658261216012761e-05
vn -0.3677346408367157 -0.9299307465553284 -8.632828780719137e-07
vn -0.36773681640625 -0.9299300312995911 -3.565515669379238e-07
vn -0.3677338659763336 -0.9299309849739075 3.250189593018149e-06
vn -0.3677322566509247 -0.929931640625 1.4292321566244937e-06
vn -0.3677344024181366 -0.9299308657646179 -3.2427220730824047e-07
vn -0.3677368760108948 -0.9299299120903015 1.8958365899379714e-07
vn -0.3677358627319336 -0.9299303293228149 1.6229349739660393e-06
vn -0.3677322268486023 -0.9299317002296448 9.490495358477347e-06
vn -0.3677331209182739 -0.9299313426017761 -3.5429845866019605e-06
vn -0.36773157119750977 -0.9299319982528687 1.3678970844921423e-06
vn -0.36773374676704407 -0.9299311637878418 -5.216882527747657e-06
vn -0.36773377656936646 -0.929931104183197 6.858784672658658e-06
vn -0.3677316904067993 -0.9299319386482239 -7.68532572692493e-06
f 1/1/1 2/2/2 3/3/3
f 2/4/2 4/5/4 3/6/3
f 5/7/5 6/8/6 7/9/7
f 6/10/6 8/11/8 7/12/7
f 9/13/9 10/14/10 11/15/11
f 10/16/10 12/17/12 11/18/11
f 13/19/13 14/20/14 15/21/15
f 14/22/14 16/23/16 15/24/15
f 17/25/17 18/26/18 19/27/19
f 18/28/18 20/29/20 19/30/19
f 21/31/21 22/32/22 23/33/23
f 22/34/22 24/35/24 23/36/23
f 6/37/6 1/38/1 8/39/8
f 1/40/1 3/41/3 8/42/8
f 2/43/2 5/44/5 4/45/4
f 5/46/5 7/47/7 4/48/4
f 14/49/14 9/50/9 16/51/16
f 9/52/9 11/53/11 16/54/16
f 10/55/10 13/56/13 12/57/12
f 13/58/13 15/59/15 12/60/12
f 22/61/22 17/62/17 24/63/24
f 17/64/17 19/65/19 24/66/24
f 18/67/18 21/68/21 20/69/20
f 21/70/21 23/71/23 20/72/20
f 25/73/25 26/74/26 27/75/27
f 28/76/28 25/77/25 27/78/27
f 29/79/29 25/80/25 28/81/28
f 28/82/28 27/83/27 5/84/5
f 6/85/6 5/86/5 27/87/27
f 30/88/30 6/89/6 27/90/27
f 1/91/1 6/92/6 30/93/30
f 2/94/2 28/95/28 5/96/5
f 31/97/31 1/98/1 30/99/30
f 2/100/2 1/101/1 31/102/31
f 28/103/28 2/104/2 31/105/31
f 32/106/32 29/107/29 28/108/28
f 33/109/33 29/110/29 32/111/32
f 34/112/34 33/113/33 32/114/32
f 31/115/31 35/116/35 28/117/28
f 34/118/34 32/119/32 21/120/21
f 18/121/18 34/122/34 21/123/21
f 34/124/34 18/125/18 36/126/36
f 18/127/18 17/128/17 36/129/36
f 22/130/22 21/131/21 32/132/32
f 36/133/36 17/134/17 37/135/37
f 17/136/17 22/137/22 37/138/37
f 37/139/37 22/140/22 32/141/32
f 37/142/37 38/143/38 31/144/31
f 38/145/38 35/146/35 31/147/31
f 32/148/32 39/149/39 37/150/37
f 39/151/39 38/152/38 37/153/37
f 32/154/32 28/155/28 40/156/40
f 39/157/39 32/158/32 40/159/40
f 35/160/35 40/161/40 28/162/28
f 39/163/39 10/164/10 38/165/38
f 10/166/10 39/167/39 13/168/13
f 39/169/39 40/170/40 13/171/13
f 10/172/10 9/173/9 38/174/38
f 38/175/38 9/176/9 35/177/35
f 14/178/14 13/179/13 40/180/40
f 9/181/9 14/182/14 35/183/35
f 35/184/35 14/185/14 40/186/40
