# Exported by Lightwave Blender addon
v 1620.5833740234375 2998.46533203125 739.976318359375
v 1620.5833740234375 2998.46533203125 560.2713012695312
v 1591.85400390625 2949.991943359375 560.2713012695312
v 1591.85400390625 2949.991943359375 739.976318359375
v 1562.238525390625 2900.023193359375 739.976318359375
v 1591.13623046875 2948.780517578125 739.976318359375
v 1591.13623046875 2948.78076171875 560.2713012695312
v 1562.238525390625 2900.023193359375 560.2713012695312
vt 0.251220703125 0.9884872436523438
vt 0.251220703125 0.22509765625
vt 0.497802734375 0.22509765625
vt 0.497802734375 0.22509765625
vt 0.497802734375 0.9884872436523438
vt 0.251220703125 0.9884872436523438
vt 0.2491455078125 0.9884872436523438
vt 0.00260162353515625 0.9884872436523438
vt 0.00260162353515625 0.22509765625
vt 0.00260162353515625 0.22509765625
vt 0.2491455078125 0.22509765625
vt 0.2491455078125 0.9884872436523438
vn -0.8602573275566101 0.5098601579666138 0.0
vn -0.8602572679519653 0.5098601579666138 0.0
vn -0.8602573275566101 0.5098601579666138 0.0
vn -0.8602572679519653 0.5098601579666138 0.0
vn -0.8602571487426758 0.5098604559898376 5.579648814091343e-07
vn -0.8602568507194519 0.5098608136177063 6.92678156610782e-07
vn -0.8602578043937683 0.5098592638969421 1.3471287729771575e-07
vn -0.8602580428123474 0.509859025478363 0.0
f 1/1/1 2/2/2 3/3/3
f 3/4/3 4/5/4 1/6/1
f 5/7/5 6/8/6 7/9/7
f 7/10/7 8/11/8 5/12/5
