# Exported by Lightwave Blender addon
v 130.5998077392578 -47.74726867675781 926.7601318359375
v 84.458984375 -163.09304809570312 926.815673828125
v 126.0926284790039 -45.948272705078125 925.3323974609375
v 77.75798797607422 -166.56869506835938 925.2515869140625
v 139.88787841796875 -185.20811462402344 952.852783203125
v 137.8225555419922 -190.38218688964844 952.909912109375
v 197.09686279296875 -208.02662658691406 926.815673828125
v 196.9632110595703 -214.1145477294922 925.2515869140625
v 243.29039001464844 -92.73976135253906 926.7601928710938
v 244.90431213378906 -93.38468933105469 925.3355102539062
v 137.59384155273438 -190.9550323486328 953.5349731445312
v 77.530029296875 -166.9971160888672 925.900146484375
v 77.12992095947266 -166.8305206298828 926.900634765625
v 137.59384155273438 -190.9550323486328 954.6268310546875
v 137.8225860595703 -190.38214111328125 955.2440185546875
v 185.94476318359375 -69.84449005126953 955.2440795898438
v 125.2349853515625 -45.605857849121094 927.4669799804688
v 77.14781188964844 -166.1631317138672 927.4669799804688
v 124.9359130859375 -45.4864501953125 926.657958984375
v 76.85693359375 -166.02403259277344 926.657958984375
v 77.25554656982422 -166.19578552246094 925.656005859375
v 125.33851623535156 -45.647193908691406 925.6558837890625
v 196.81219482421875 -214.5757598876953 925.900146484375
v 197.2095184326172 -214.74888610839844 926.9006958007812
v 197.5800323486328 -214.21849060058594 925.656005859375
v 197.6781768798828 -214.2735137939453 927.4669799804688
v 245.7611541748047 -93.72679138183594 927.4669189453125
v 197.9799346923828 -214.38690185546875 926.6580200195312
v 246.06015014648438 -93.84615325927734 926.6580200195312
v 245.65733337402344 -93.68534088134766 925.656005859375
vt 0.2467041015625 0.619384765625
vt -0.396484375 0.619384765625
vt 0.2470703125 0.5927734375
vt -0.396484375 0.619384765625
vt -0.42626953125 0.5927734375
vt 0.2470703125 0.5927734375
vt -0.46435546875 0.559326171875
vt -0.46435546875 0.22216796875
vt -0.43505859375 0.5859375
vt -0.46435546875 0.22216796875
vt -0.43505859375 0.22216796875
vt -0.43505859375 0.5859375
vt -0.53564453125 0.13134765625
vt -0.53564453125 -0.21484375
vt -0.50634765625 0.1318359375
vt -0.53564453125 -0.21484375
vt -0.50634765625 -0.2275390625
vt -0.50634765625 0.1318359375
vt -0.4677734375 -0.24609375
vt 0.17529296875 -0.2470703125
vt -0.49755859375 -0.234375
vt 0.17529296875 -0.2470703125
vt 0.1748046875 -0.2373046875
vt -0.49755859375 -0.234375
vt -0.43505859375 0.5859375
vt -0.43505859375 0.22216796875
vt -0.4306640625 0.22021484375
vt -0.4306640625 0.585205078125
vt -0.43505859375 0.5859375
vt -0.4306640625 0.22021484375
vt -0.4306640625 0.585205078125
vt -0.4306640625 0.22021484375
vt -0.42626953125 0.58251953125
vt -0.4306640625 0.22021484375
vt -0.42626953125 0.216796875
vt -0.42626953125 0.58251953125
vt -0.42626953125 0.216796875
vt -0.42236328125 0.21337890625
vt -0.42626953125 0.58251953125
vt 0.2496337890625 0.21337890625
vt 0.2493896484375 0.58251953125
vt -0.42236328125 0.21337890625
vt 0.2493896484375 0.58251953125
vt -0.42236328125 0.580810546875
vt -0.42236328125 0.21337890625
vt -0.42236328125 0.21337890625
vt -0.42236328125 0.580810546875
vt -0.42626953125 0.58251953125
vt -0.42236328125 0.580810546875
vt 0.2493896484375 0.58251953125
vt 0.248291015625 0.587890625
vt -0.42626953125 0.58251953125
vt -0.42236328125 0.580810546875
vt -0.42236328125 0.584716796875
vt -0.42236328125 0.584716796875
vt -0.42236328125 0.580810546875
vt 0.248291015625 0.587890625
vt -0.4306640625 0.585205078125
vt -0.42626953125 0.58251953125
vt -0.42236328125 0.584716796875
vt -0.42431640625 0.58935546875
vt -0.42236328125 0.584716796875
vt 0.248291015625 0.587890625
vt -0.42431640625 0.58935546875
vt -0.4306640625 0.585205078125
vt -0.42236328125 0.584716796875
vt 0.2471923828125 0.59228515625
vt -0.42431640625 0.58935546875
vt 0.248291015625 0.587890625
vt -0.42626953125 0.5927734375
vt -0.4306640625 0.585205078125
vt -0.42431640625 0.58935546875
vt 0.2471923828125 0.59228515625
vt 0.2470703125 0.5927734375
vt -0.42431640625 0.58935546875
vt 0.2470703125 0.5927734375
vt -0.42626953125 0.5927734375
vt -0.42431640625 0.58935546875
vt -0.50634765625 0.1318359375
vt -0.50634765625 -0.2275390625
vt -0.501953125 -0.2275390625
vt -0.501953125 0.13330078125
vt -0.50634765625 0.1318359375
vt -0.501953125 -0.2275390625
vt -0.501953125 0.13330078125
vt -0.501953125 -0.2275390625
vt -0.49755859375 0.13720703125
vt -0.501953125 -0.2275390625
vt -0.49755859375 -0.224609375
vt -0.49755859375 0.13720703125
vt -0.501953125 -0.2275390625
vt -0.495849609375 -0.2314453125
vt -0.49755859375 -0.224609375
vt -0.495849609375 -0.2314453125
vt -0.501953125 -0.2275390625
vt -0.49755859375 -0.234375
vt -0.49755859375 -0.224609375
vt -0.49365234375 -0.22265625
vt -0.49755859375 0.13720703125
vt -0.49365234375 -0.22265625
vt -0.49365234375 0.14013671875
vt -0.49755859375 0.13720703125
vt 0.17822265625 0.14013671875
vt -0.49365234375 0.14013671875
vt -0.49365234375 -0.22265625
vt 0.17822265625 -0.22265625
vt 0.17822265625 0.14013671875
vt -0.49365234375 -0.22265625
vt -0.493896484375 -0.2265625
vt -0.49365234375 -0.22265625
vt -0.49755859375 -0.224609375
vt 0.17822265625 -0.22265625
vt -0.49365234375 -0.22265625
vt -0.493896484375 -0.2265625
vt -0.495849609375 -0.2314453125
vt -0.493896484375 -0.2265625
vt -0.49755859375 -0.224609375
vt 0.17724609375 -0.228515625
vt 0.17822265625 -0.22265625
vt -0.493896484375 -0.2265625
vt 0.175537109375 -0.234375
vt 0.17724609375 -0.228515625
vt -0.493896484375 -0.2265625
vt -0.495849609375 -0.2314453125
vt 0.175537109375 -0.234375
vt -0.493896484375 -0.2265625
vt -0.495849609375 -0.2314453125
vt -0.49755859375 -0.234375
vt 0.175537109375 -0.234375
vt -0.49755859375 -0.234375
vt 0.1748046875 -0.2373046875
vt 0.175537109375 -0.234375
vn 0.26189127564430237 -0.10522414743900299 -0.9593439102172852
vn 0.30768463015556335 -0.17239321768283844 -0.9357407689094543
vn -0.043145060539245605 0.016819296404719353 -0.9989272356033325
vn -0.2667985260486603 -0.3537106215953827 -0.8964972496032715
vn -0.00245385873131454 -0.012625336647033691 -0.9999172687530518
vn -0.15838955342769623 -0.39774972200393677 -0.9037189483642578
vn -0.45967936515808105 0.22862257063388824 -0.8581529259681702
vn -0.07393705099821091 -0.3977145552635193 -0.9145252108573914
vn -0.5884968042373657 0.23423966765403748 -0.7738239169120789
vn -0.1439647674560547 0.05785425379872322 -0.9878901839256287
vn -0.3549545109272003 -0.8888871669769287 -0.28963226079940796
vn -0.5307773351669312 -0.759172797203064 -0.3767385482788086
vn -0.7530428171157837 -0.6330057382583618 0.1795276552438736
vn -0.3279612958431244 -0.8251677751541138 0.459934264421463
vn -0.12873275578022003 -0.32824477553367615 0.9357795119285583
vn 0.002464466728270054 -0.0009354060748592019 0.999996542930603
vn -0.6643365621566772 0.26503410935401917 0.6988661289215088
vn -0.738592267036438 -0.06790558248758316 0.6707236170768738
vn -0.9287370443344116 0.370446115732193 -0.014738591387867928
vn -0.9981858134269714 0.048952020704746246 -0.03505268320441246
vn -0.8165130615234375 -0.025276219472289085 -0.5767733454704285
vn -0.6471736431121826 0.2581360936164856 -0.7173089385032654
vn -0.16154763102531433 -0.9096267819404602 -0.38272902369499207
vn 0.08370380103588104 -0.9815887212753296 0.17168940603733063
vn 0.5596768856048584 -0.5925094485282898 -0.5793914794921875
vn 0.48528385162353516 -0.565847635269165 0.6665704250335693
vn 0.6660075783729553 -0.26565149426460266 0.6970388889312744
vn 0.742949366569519 -0.6684439182281494 -0.034767914563417435
vn 0.9287352561950684 -0.3704456388950348 -0.014865018427371979
vn 0.6466103196144104 -0.25723782181739807 -0.7181391716003418
f 1/1/1 2/2/2 3/3/3
f 2/4/2 4/5/4 3/6/3
f 2/7/2 5/8/5 4/9/4
f 5/10/5 6/11/6 4/12/4
f 5/13/5 7/14/7 6/15/6
f 7/16/7 8/17/8 6/18/6
f 7/19/7 9/20/9 8/21/8
f 9/22/9 10/23/10 8/24/8
f 4/25/4 6/26/6 11/27/11
f 12/28/12 4/29/4 11/30/11
f 12/31/12 11/32/11 13/33/13
f 11/34/11 14/35/14 13/36/13
f 14/37/14 15/38/15 13/39/13
f 16/40/16 17/41/17 15/42/15
f 17/43/17 18/44/18 15/45/15
f 15/46/15 18/47/18 13/48/13
f 18/49/18 17/50/17 19/51/19
f 13/52/13 18/53/18 20/54/20
f 20/55/20 18/56/18 19/57/19
f 12/58/12 13/59/13 20/60/20
f 21/61/21 20/62/20 19/63/19
f 21/64/21 12/65/12 20/66/20
f 22/67/22 21/68/21 19/69/19
f 4/70/4 12/71/12 21/72/21
f 22/73/22 3/74/3 21/75/21
f 3/76/3 4/77/4 21/78/21
f 6/79/6 8/80/8 23/81/23
f 11/82/11 6/83/6 23/84/23
f 11/85/11 23/86/23 14/87/14
f 23/88/23 24/89/24 14/90/14
f 23/91/23 25/92/25 24/93/24
f 25/94/25 23/95/23 8/96/8
f 24/97/24 26/98/26 14/99/14
f 26/100/26 15/101/15 14/102/14
f 16/103/16 15/104/15 26/105/26
f 27/106/27 16/107/16 26/108/26
f 28/109/28 26/110/26 24/111/24
f 27/112/27 26/113/26 28/114/28
f 25/115/25 28/116/28 24/117/24
f 29/118/29 27/119/27 28/120/28
f 30/121/30 29/122/29 28/123/28
f 25/124/25 30/125/30 28/126/28
f 25/127/25 8/128/8 30/129/30
f 8/130/8 10/131/10 30/132/30
