# Exported by Lightwave Blender addon
v -2013.99853515625 704.8602905273438 413.7490234375
v -2007.416748046875 708.1874389648438 413.7490234375
v -2009.63037109375 710.661865234375 377.2838134765625
v -2014.6785888671875 708.1100463867188 377.2838134765625
v -2021.3623046875 705.2698974609375 413.7490234375
v -2020.3262939453125 708.4241943359375 377.2838134765625
v -2027.5345458984375 709.3064575195312 413.7490234375
v -2025.0601806640625 711.5200805664062 377.2838134765625
v -2030.861572265625 715.8883056640625 413.7490234375
v -2027.612060546875 716.5681762695312 377.2838134765625
v -2030.4520263671875 723.2520141601562 413.7490234375
v -2027.2978515625 722.2158813476562 377.2838134765625
v -2026.4154052734375 729.42431640625 413.7490234375
v -2024.2017822265625 726.9498901367188 377.2838134765625
v -2019.8338623046875 732.75146484375 413.7490234375
v -2019.15380859375 729.501708984375 377.2838134765625
v -2012.47021484375 732.3418579101562 413.7490234375
v -2013.506103515625 729.1875610351562 377.2838134765625
v -2006.2977294921875 728.3053588867188 413.7490234375
v -2008.7720947265625 726.0916748046875 377.2838134765625
v -2002.970703125 721.723388671875 413.7490234375
v -2006.22021484375 721.0435180664062 377.2838134765625
v -2003.3802490234375 714.3597412109375 413.7490234375
v -2006.534423828125 715.3958740234375 377.2838134765625
v -2011.3502197265625 707.7949829101562 377.2838134765625
v -2008.78125 709.7127685546875 377.2838134765625
v -2006.3095703125 706.9500122070312 413.7490234375
v -2009.6590576171875 704.4495239257812 413.7490234375
v -2013.6585693359375 703.235107421875 413.7490234375
v -2014.4178466796875 706.8635864257812 377.2838134765625
v -2017.601318359375 706.4872436523438 377.2838134765625
v -2017.8095703125 702.744384765625 413.7490234375
v -2021.8802490234375 703.6924438476562 413.7490234375
v -2020.7236328125 707.21435546875 377.2838134765625
v -2023.668701171875 708.4801635742188 377.2838134765625
v -2025.720458984375 705.3428955078125 413.7490234375
v -2028.77197265625 708.1994018554688 413.7490234375
v -2026.0091552734375 710.6710205078125 377.2838134765625
v -2027.927001953125 713.2399291992188 377.2838134765625
v -2031.2724609375 711.548828125 413.7490234375
v -2032.4866943359375 715.54833984375 413.7490234375
v -2028.8583984375 716.3074340820312 377.2838134765625
v -2029.2347412109375 719.4910278320312 377.2838134765625
v -2032.9774169921875 719.6992797851562 413.7490234375
v -2032.029541015625 723.7701416015625 413.7490234375
v -2028.507568359375 722.61328125 377.2838134765625
v -2027.24169921875 725.55859375 377.2838134765625
v -2030.37890625 727.6103515625 413.7490234375
v -2027.5225830078125 730.6617431640625 413.7490234375
v -2025.0509033203125 727.89892578125 377.2838134765625
v -2022.48193359375 729.8167114257812 377.2838134765625
v -2024.173095703125 733.1622314453125 413.7490234375
v -2020.173828125 734.3766479492188 413.7490234375
v -2019.41455078125 730.7481689453125 377.2838134765625
v -2016.2310791015625 731.12451171875 377.2838134765625
v -2016.022705078125 734.8673706054688 413.7490234375
v -2011.951904296875 733.9193115234375 413.7490234375
v -2013.10888671875 730.3973999023438 377.2838134765625
v -2010.16357421875 729.131591796875 377.2838134765625
v -2008.11181640625 732.2688598632812 413.7490234375
v -2005.0601806640625 729.412353515625 413.7490234375
v -2007.8231201171875 726.9407348632812 377.2838134765625
v -2005.9052734375 724.371826171875 377.2838134765625
v -2002.559814453125 726.0629272460938 413.7490234375
v -2001.3455810546875 722.0634155273438 413.7490234375
v -2004.973876953125 721.3043212890625 377.2838134765625
v -2004.5975341796875 718.1207275390625 377.2838134765625
v -2000.8548583984375 717.9124755859375 413.7490234375
v -2001.802734375 713.8416137695312 413.7490234375
v -2005.32470703125 714.9984741210938 377.2838134765625
v -2006.590576171875 712.0531616210938 377.2838134765625
v -2003.4532470703125 710.0014038085938 413.7490234375
vt 0.0927734375 0.09716796875
vt 0.0162200927734375 0.09716796875
vt 0.0162200927734375 0.9044189453125
vt 0.0162200927734375 0.9044189453125
vt 0.0927734375 0.9044189453125
vt 0.0927734375 0.09716796875
vt 0.1728515625 0.09716796875
vt 0.0927734375 0.09716796875
vt 0.0927734375 0.9044189453125
vt 0.0927734375 0.9044189453125
vt 0.1728515625 0.9044189453125
vt 0.1728515625 0.09716796875
vt 0.2529296875 0.09716796875
vt 0.1728515625 0.09716796875
vt 0.1728515625 0.9044189453125
vt 0.1728515625 0.9044189453125
vt 0.2529296875 0.9044189453125
vt 0.2529296875 0.09716796875
vt 0.3330078125 0.09716796875
vt 0.2529296875 0.09716796875
vt 0.2529296875 0.9044189453125
vt 0.2529296875 0.9044189453125
vt 0.3330078125 0.9044189453125
vt 0.3330078125 0.09716796875
vt 0.4130859375 0.09716796875
vt 0.3330078125 0.09716796875
vt 0.3330078125 0.9044189453125
vt 0.3330078125 0.9044189453125
vt 0.4130859375 0.9044189453125
vt 0.4130859375 0.09716796875
vt 0.4931640625 0.09716796875
vt 0.4130859375 0.09716796875
vt 0.4130859375 0.9044189453125
vt 0.4130859375 0.9044189453125
vt 0.4931640625 0.9044189453125
vt 0.4931640625 0.09716796875
vt 0.5732421875 0.09716796875
vt 0.4931640625 0.09716796875
vt 0.4931640625 0.9044189453125
vt 0.4931640625 0.9044189453125
vt 0.5732421875 0.9044189453125
vt 0.5732421875 0.09716796875
vt 0.6533203125 0.09716796875
vt 0.5732421875 0.09716796875
vt 0.5732421875 0.9044189453125
vt 0.5732421875 0.9044189453125
vt 0.6533203125 0.9044189453125
vt 0.6533203125 0.09716796875
vt 0.7333984375 0.09716796875
vt 0.6533203125 0.09716796875
vt 0.6533203125 0.9044189453125
vt 0.6533203125 0.9044189453125
vt 0.7333984375 0.9044189453125
vt 0.7333984375 0.09716796875
vt 0.8134765625 0.09716796875
vt 0.7333984375 0.09716796875
vt 0.7333984375 0.9044189453125
vt 0.7333984375 0.9044189453125
vt 0.8134765625 0.9044189453125
vt 0.8134765625 0.09716796875
vt 0.8935546875 0.09716796875
vt 0.8134765625 0.09716796875
vt 0.8134765625 0.9044189453125
vt 0.8134765625 0.9044189453125
vt 0.8935546875 0.9044189453125
vt 0.8935546875 0.09716796875
vt 0.984375 0.09716796875
vt 0.8935546875 0.09716796875
vt 0.8935546875 0.9044189453125
vt 0.8935546875 0.9044189453125
vt 0.984375 0.9044189453125
vt 0.984375 0.09716796875
vt 0.05450439453125 0.9044189453125
vt 0.0162200927734375 0.9044189453125
vt 0.0162200927734375 0.09716796875
vt 0.0162200927734375 0.09716796875
vt 0.05450439453125 0.09716796875
vt 0.05450439453125 0.9044189453125
vt 0.05450439453125 0.9044189453125
vt 0.05450439453125 0.09716796875
vt 0.0927734375 0.09716796875
vt 0.0927734375 0.09716796875
vt 0.0927734375 0.9044189453125
vt 0.05450439453125 0.9044189453125
vt 0.1328125 0.9044189453125
vt 0.0927734375 0.9044189453125
vt 0.0927734375 0.09716796875
vt 0.0927734375 0.09716796875
vt 0.1328125 0.09716796875
vt 0.1328125 0.9044189453125
vt 0.1328125 0.9044189453125
vt 0.1328125 0.09716796875
vt 0.1728515625 0.09716796875
vt 0.1728515625 0.09716796875
vt 0.1728515625 0.9044189453125
vt 0.1328125 0.9044189453125
vt 0.212890625 0.9044189453125
vt 0.1728515625 0.9044189453125
vt 0.1728515625 0.09716796875
vt 0.1728515625 0.09716796875
vt 0.212890625 0.09716796875
vt 0.212890625 0.9044189453125
vt 0.212890625 0.9044189453125
vt 0.212890625 0.09716796875
vt 0.2529296875 0.09716796875
vt 0.2529296875 0.09716796875
vt 0.2529296875 0.9044189453125
vt 0.212890625 0.9044189453125
vt 0.29296875 0.9044189453125
vt 0.2529296875 0.9044189453125
vt 0.2529296875 0.09716796875
vt 0.2529296875 0.09716796875
vt 0.29296875 0.09716796875
vt 0.29296875 0.9044189453125
vt 0.29296875 0.9044189453125
vt 0.29296875 0.09716796875
vt 0.3330078125 0.09716796875
vt 0.3330078125 0.09716796875
vt 0.3330078125 0.9044189453125
vt 0.29296875 0.9044189453125
vt 0.373046875 0.9044189453125
vt 0.3330078125 0.9044189453125
vt 0.3330078125 0.09716796875
vt 0.3330078125 0.09716796875
vt 0.373046875 0.09716796875
vt 0.373046875 0.9044189453125
vt 0.373046875 0.9044189453125
vt 0.373046875 0.09716796875
vt 0.4130859375 0.09716796875
vt 0.4130859375 0.09716796875
vt 0.4130859375 0.9044189453125
vt 0.373046875 0.9044189453125
vt 0.453125 0.9044189453125
vt 0.4130859375 0.9044189453125
vt 0.4130859375 0.09716796875
vt 0.4130859375 0.09716796875
vt 0.453125 0.09716796875
vt 0.453125 0.9044189453125
vt 0.453125 0.9044189453125
vt 0.453125 0.09716796875
vt 0.4931640625 0.09716796875
vt 0.4931640625 0.09716796875
vt 0.4931640625 0.9044189453125
vt 0.453125 0.9044189453125
vt 0.533203125 0.9044189453125
vt 0.4931640625 0.9044189453125
vt 0.4931640625 0.09716796875
vt 0.4931640625 0.09716796875
vt 0.533203125 0.09716796875
vt 0.533203125 0.9044189453125
vt 0.533203125 0.9044189453125
vt 0.533203125 0.09716796875
vt 0.5732421875 0.09716796875
vt 0.5732421875 0.09716796875
vt 0.5732421875 0.9044189453125
vt 0.533203125 0.9044189453125
vt 0.61328125 0.9044189453125
vt 0.5732421875 0.9044189453125
vt 0.5732421875 0.09716796875
vt 0.5732421875 0.09716796875
vt 0.61328125 0.09716796875
vt 0.61328125 0.9044189453125
vt 0.61328125 0.9044189453125
vt 0.61328125 0.09716796875
vt 0.6533203125 0.09716796875
vt 0.6533203125 0.09716796875
vt 0.6533203125 0.9044189453125
vt 0.61328125 0.9044189453125
vt 0.693359375 0.9044189453125
vt 0.6533203125 0.9044189453125
vt 0.6533203125 0.09716796875
vt 0.6533203125 0.09716796875
vt 0.693359375 0.09716796875
vt 0.693359375 0.9044189453125
vt 0.693359375 0.9044189453125
vt 0.693359375 0.09716796875
vt 0.7333984375 0.09716796875
vt 0.7333984375 0.09716796875
vt 0.7333984375 0.9044189453125
vt 0.693359375 0.9044189453125
vt 0.7734375 0.9044189453125
vt 0.7333984375 0.9044189453125
vt 0.7333984375 0.09716796875
vt 0.7333984375 0.09716796875
vt 0.7734375 0.09716796875
vt 0.7734375 0.9044189453125
vt 0.7734375 0.9044189453125
vt 0.7734375 0.09716796875
vt 0.8134765625 0.09716796875
vt 0.8134765625 0.09716796875
vt 0.8134765625 0.9044189453125
vt 0.7734375 0.9044189453125
vt 0.853515625 0.9044189453125
vt 0.8134765625 0.9044189453125
vt 0.8134765625 0.09716796875
vt 0.8134765625 0.09716796875
vt 0.853515625 0.09716796875
vt 0.853515625 0.9044189453125
vt 0.853515625 0.9044189453125
vt 0.853515625 0.09716796875
vt 0.8935546875 0.09716796875
vt 0.8935546875 0.09716796875
vt 0.8935546875 0.9044189453125
vt 0.853515625 0.9044189453125
vt 0.93896484375 0.9044189453125
vt 0.8935546875 0.9044189453125
vt 0.8935546875 0.09716796875
vt 0.8935546875 0.09716796875
vt 0.93896484375 0.09716796875
vt 0.93896484375 0.9044189453125
vt 0.93896484375 0.9044189453125
vt 0.93896484375 0.09716796875
vt 0.984375 0.09716796875
vt 0.984375 0.09716796875
vt 0.984375 0.9044189453125
vt 0.93896484375 0.9044189453125
vn -0.2039322704076767 0.9747768044471741 0.09067358076572418
vn -0.6640006303787231 0.742214024066925 0.09067223966121674
vn -0.6639963388442993 0.7422177195549011 0.09067415446043015
vn -0.20392818748950958 0.9747775793075562 0.09067462384700775
vn 0.31078657507896423 0.9461448788642883 0.09067277610301971
vn 0.31078267097473145 0.9461461901664734 0.09067260473966599
vn 0.7422235608100891 0.6639900803565979 0.09067162871360779
vn 0.7422141432762146 0.6640009880065918 0.09066949784755707
vn 0.9747781157493591 0.20392851531505585 0.09066880494356155
vn 0.9747768640518188 0.20393429696559906 0.09066881984472275
vn 0.9461454153060913 -0.3107856810092926 0.09066933393478394
vn 0.9461425542831421 -0.3107936978340149 0.09067164361476898
vn 0.664000928401947 -0.7422139048576355 0.09067194163799286
vn 0.6639966368675232 -0.7422174215316772 0.09067372977733612
vn 0.20393919944763184 -0.9747753739356995 0.09067390859127045
vn 0.203937828540802 -0.9747756123542786 0.09067454934120178
vn -0.31077492237091064 -0.9461488723754883 0.09067181497812271
vn -0.3107767105102539 -0.946148157119751 0.09067276120185852
vn -0.7422180771827698 -0.6639962792396545 0.09067177027463913
vn -0.7422120571136475 -0.6640031933784485 0.09067035466432571
vn -0.9747788906097412 -0.20392484962940216 0.09066900610923767
vn -0.9747774600982666 -0.20393164455890656 0.09066882729530334
vn -0.9461475610733032 0.31077951192855835 0.09066933393478394
vn -0.9461453557014465 0.31078553199768066 0.09067127108573914
vn 0.4487581253051758 -0.8877830505371094 -0.10226155072450638
vn 0.6633385419845581 -0.7414534091949463 -0.1011379137635231
vn 0.6633322834968567 -0.7414587140083313 -0.1011391282081604
vn 0.4487684965133667 -0.8877779245376587 -0.10226089507341385
vn 0.20372384786605835 -0.9737903475761414 -0.1011384055018425
vn 0.20371472835540771 -0.9737921953201294 -0.10113915055990219
vn -0.055244144052267075 -0.9932225346565247 -0.1022605374455452
vn -0.05525466427206993 -0.9932218194007874 -0.1022617518901825
vn -0.3104657530784607 -0.9451889395713806 -0.10113822668790817
vn -0.31046560406684875 -0.9451891779899597 -0.1011364609003067
vn -0.5444556474685669 -0.8325328826904297 -0.1022595465183258
vn -0.5444506406784058 -0.832535982131958 -0.102261021733284
vn -0.7414600253105164 -0.663331151008606 -0.10113783925771713
vn -0.7414538860321045 -0.6633378863334656 -0.10113805532455444
vn -0.8877757787704468 -0.44877299666404724 -0.10225892812013626
vn -0.8877854347229004 -0.44875380396842957 -0.10226014256477356
vn -0.9737945795059204 -0.20370544493198395 -0.10113498568534851
vn -0.9737919569015503 -0.20371828973293304 -0.10113329440355301
vn -0.9932220578193665 0.05525483936071396 -0.10225928574800491
vn -0.9932237267494202 0.05522802844643593 -0.10225680470466614
vn -0.9451907277107239 0.3104608952999115 -0.10113658010959625
vn -0.9451873302459717 0.3104700446128845 -0.1011400818824768
vn -0.8325322270393372 0.5444561243057251 -0.10226227343082428
vn -0.8325284719467163 0.5444623827934265 -0.10225962847471237
vn -0.6633315086364746 0.7414595484733582 -0.10113868862390518
vn -0.6633233428001404 0.7414668798446655 -0.10113915055990219
vn -0.4487755298614502 0.8877742290496826 -0.10226178169250488
vn -0.4487758278846741 0.8877741098403931 -0.10226237028837204
vn -0.20373104512691498 0.9737887382507324 -0.10113922506570816
vn -0.20373448729515076 0.9737879633903503 -0.1011391431093216
vn 0.055247653275728226 0.993222177028656 -0.10226171463727951
vn 0.05525343492627144 0.9932218194007874 -0.10226193070411682
vn 0.31046783924102783 0.9451881647109985 -0.10113897919654846
vn 0.310454785823822 0.9451923370361328 -0.10113953799009323
vn 0.5444435477256775 0.8325403928756714 -0.10226283222436905
vn 0.5444471836090088 0.8325383067131042 -0.1022610142827034
vn 0.7414610981941223 0.6633297801017761 -0.10113850980997086
vn 0.7414537072181702 0.663337767124176 -0.10114049911499023
vn 0.8877760767936707 0.4487721621990204 -0.10226017236709595
vn 0.8877905607223511 0.4487435221672058 -0.10226015001535416
vn 0.9737945795059204 0.20370544493198395 -0.10113498568534851
vn 0.9737919569015503 0.20371828973293304 -0.10113329440355301
vn 0.9932220578193665 -0.05525483936071396 -0.10225928574800491
vn 0.9932237267494202 -0.05522802844643593 -0.10225680470466614
vn 0.9451944231987 -0.31044894456863403 -0.101137675344944
vn 0.9451873302459717 -0.3104700446128845 -0.1011400818824768
vn 0.832543134689331 -0.5444396138191223 -0.10226142406463623
vn 0.8325355648994446 -0.5444510579109192 -0.10226239264011383
f 1/1/1 2/2/2 3/3/3
f 3/4/3 4/5/4 1/6/1
f 5/7/5 1/8/1 4/9/4
f 4/10/4 6/11/6 5/12/5
f 7/13/7 5/14/5 6/15/6
f 6/16/6 8/17/8 7/18/7
f 9/19/9 7/20/7 8/21/8
f 8/22/8 10/23/10 9/24/9
f 11/25/11 9/26/9 10/27/10
f 10/28/10 12/29/12 11/30/11
f 13/31/13 11/32/11 12/33/12
f 12/34/12 14/35/14 13/36/13
f 15/37/15 13/38/13 14/39/14
f 14/40/14 16/41/16 15/42/15
f 17/43/17 15/44/15 16/45/16
f 16/46/16 18/47/18 17/48/17
f 19/49/19 17/50/17 18/51/18
f 18/52/18 20/53/20 19/54/19
f 21/55/21 19/56/19 20/57/20
f 20/58/20 22/59/22 21/60/21
f 23/61/23 21/62/21 22/63/22
f 22/64/22 24/65/24 23/66/23
f 2/67/2 23/68/23 24/69/24
f 24/70/24 3/71/3 2/72/2
f 25/73/25 26/74/26 27/75/27
f 27/76/27 28/77/28 25/78/25
f 25/79/25 28/80/28 29/81/29
f 29/82/29 30/83/30 25/84/25
f 31/85/31 30/86/30 29/87/29
f 29/88/29 32/89/32 31/90/31
f 31/91/31 32/92/32 33/93/33
f 33/94/33 34/95/34 31/96/31
f 35/97/35 34/98/34 33/99/33
f 33/100/33 36/101/36 35/102/35
f 35/103/35 36/104/36 37/105/37
f 37/106/37 38/107/38 35/108/35
f 39/109/39 38/110/38 37/111/37
f 37/112/37 40/113/40 39/114/39
f 39/115/39 40/116/40 41/117/41
f 41/118/41 42/119/42 39/120/39
f 43/121/43 42/122/42 41/123/41
f 41/124/41 44/125/44 43/126/43
f 43/127/43 44/128/44 45/129/45
f 45/130/45 46/131/46 43/132/43
f 47/133/47 46/134/46 45/135/45
f 45/136/45 48/137/48 47/138/47
f 47/139/47 48/140/48 49/141/49
f 49/142/49 50/143/50 47/144/47
f 51/145/51 50/146/50 49/147/49
f 49/148/49 52/149/52 51/150/51
f 51/151/51 52/152/52 53/153/53
f 53/154/53 54/155/54 51/156/51
f 55/157/55 54/158/54 53/159/53
f 53/160/53 56/161/56 55/162/55
f 55/163/55 56/164/56 57/165/57
f 57/166/57 58/167/58 55/168/55
f 59/169/59 58/170/58 57/171/57
f 57/172/57 60/173/60 59/174/59
f 59/175/59 60/176/60 61/177/61
f 61/178/61 62/179/62 59/180/59
f 63/181/63 62/182/62 61/183/61
f 61/184/61 64/185/64 63/186/63
f 63/187/63 64/188/64 65/189/65
f 65/190/65 66/191/66 63/192/63
f 67/193/67 66/194/66 65/195/65
f 65/196/65 68/197/68 67/198/67
f 67/199/67 68/200/68 69/201/69
f 69/202/69 70/203/70 67/204/67
f 71/205/71 70/206/70 69/207/69
f 69/208/69 72/209/72 71/210/71
f 71/211/71 72/212/72 27/213/27
f 27/214/27 26/215/26 71/216/71
