# Exported by Lightwave Blender addon
v 19.979211807250977 -1211.8826904296875 557.21142578125
v 19.979211807250977 -1211.8826904296875 689.2251586914062
v 14.090812683105469 -1226.6884765625 557.20947265625
v 14.090812683105469 -1226.6885986328125 689.2259521484375
v -2.142462968826294 -1187.9127197265625 557.2115478515625
v -2.1429054737091064 -1187.91259765625 689.22509765625
v 12.329235076904297 -1193.8302001953125 557.2115478515625
v 12.328868865966797 -1193.830078125 689.22509765625
v -3.452613115310669 -1188.457275390625 557.21142578125
v -14.508048057556152 -1214.9964599609375 557.20947265625
v -3.45304799079895 -1188.4571533203125 689.22509765625
v -14.508490562438965 -1214.9962158203125 689.2259521484375
v 19.885868072509766 -1210.06689453125 557.2113037109375
v 16.272960662841797 -1203.1483154296875 557.20947265625
v 19.885868072509766 -1210.06689453125 689.2252197265625
v 16.272727966308594 -1203.148193359375 689.2259521484375
v 13.574352264404297 -1195.156005859375 689.2252197265625
v 13.574722290039062 -1195.15625 557.2113037109375
v 115.22927856445312 -1250.8310546875 557.21142578125
v 109.05671691894531 -1265.5206298828125 557.20947265625
v 115.22927856445312 -1250.8310546875 689.2251586914062
v 109.05673217773438 -1265.520751953125 689.2259521484375
v 147.80776977539062 -1249.2283935546875 557.2115478515625
v 133.33604431152344 -1243.310791015625 557.2115478515625
v 147.80821228027344 -1249.2286376953125 689.22509765625
v 133.33642578125 -1243.3109130859375 689.22509765625
v 148.36094665527344 -1250.534912109375 557.21142578125
v 148.36138916015625 -1250.53515625 689.22509765625
v 137.654052734375 -1277.216552734375 557.20947265625
v 137.6544952392578 -1277.216796875 689.2259521484375
v 116.56800842285156 -1249.6009521484375 557.2113037109375
v 116.56800842285156 -1249.6009521484375 689.2252197265625
v 123.99348449707031 -1247.1959228515625 557.20947265625
v 123.99369812011719 -1247.196044921875 689.2259521484375
v 131.5187225341797 -1243.38427734375 689.2252197265625
v 131.5183563232422 -1243.3841552734375 557.2113037109375
v 15.819095611572266 -1204.039306640625 556.2091674804688
v 12.866928100585938 -1195.1304931640625 556.2112426757812
v 15.818862915039062 -1204.039306640625 690.22607421875
v 19.250106811523438 -1211.0098876953125 690.2254028320312
v 12.866546630859375 -1195.1302490234375 690.2252197265625
v -13.582961082458496 -1215.3748779296875 690.22607421875
v -2.527442216873169 -1188.835693359375 690.2252197265625
v 19.25011444091797 -1211.0098876953125 556.2108154296875
v -2.526984453201294 -1188.8358154296875 556.211181640625
v -13.582510948181152 -1215.375 556.2091064453125
v 136.72836303710938 -1276.8382568359375 556.2091064453125
v 147.435302734375 -1250.156494140625 556.211181640625
v 147.43577575683594 -1250.15673828125 690.2252197265625
v 136.7288055419922 -1276.83837890625 690.22607421875
v 123.69296264648438 -1248.149658203125 556.2091674804688
v 116.3609619140625 -1250.71923828125 556.2108154296875
v 116.3609619140625 -1250.7191162109375 690.2254028320312
v 123.69319152832031 -1248.14990234375 690.22607421875
v 132.04180908203125 -1243.8619384765625 690.2252197265625
v 132.04141235351562 -1243.86181640625 556.2112426757812
v 1.7119413614273071 -1221.632568359375 690.2286376953125
v 5.973362445831299 -1223.3692626953125 690.2286376953125
v 13.165206909179688 -1226.31005859375 690.2262573242188
v 13.165206909179688 -1226.3099365234375 556.208740234375
v 5.973587512969971 -1223.3692626953125 556.2032470703125
v 1.712624192237854 -1221.6329345703125 556.2032470703125
v 109.98233032226562 -1265.8992919921875 690.2262573242188
v 117.17417907714844 -1268.840087890625 690.2286376953125
v 121.43141174316406 -1270.5867919921875 690.2286376953125
v 121.43074035644531 -1270.58642578125 556.2032470703125
v 117.1739501953125 -1268.83984375 556.2032470703125
v 109.98233032226562 -1265.899169921875 556.208740234375
vt 0.50341796875 -0.4453125
vt 0.50341796875 0.21484375
vt 0.423828125 -0.4453125
vt 0.50341796875 0.21484375
vt 0.423828125 0.21484375
vt 0.423828125 -0.4453125
vt 0.58740234375 -0.4453125
vt 0.58740234375 0.21484375
vt 0.50927734375 -0.4453125
vt 0.58740234375 0.21484375
vt 0.50927734375 0.21484375
vt 0.50927734375 -0.4453125
vt 0.43212890625 -0.4453125
vt 0.57568359375 -0.4453125
vt 0.43212890625 0.21484375
vt 0.57568359375 -0.4453125
vt 0.57568359375 0.21484375
vt 0.43212890625 0.21484375
vt 0.44384765625 -0.4453125
vt 0.4736328125 -0.4453125
vt 0.44384765625 0.21484375
vt 0.4736328125 -0.4453125
vt 0.4736328125 0.21484375
vt 0.44384765625 0.21484375
vt 0.56884765625 0.21484375
vt 0.537109375 0.21484375
vt 0.56884765625 -0.4453125
vt 0.537109375 0.21484375
vt 0.537109375 -0.4453125
vt 0.56884765625 -0.4453125
vt 0.49609375 -0.4453125
vt 0.57568359375 -0.4453125
vt 0.49609375 0.21484375
vt 0.57568359375 -0.4453125
vt 0.57568359375 0.21484375
vt 0.49609375 0.21484375
vt -0.22216796875 -0.4453125
vt -0.1439208984375 -0.4453125
vt -0.22216796875 0.21484375
vt -0.1439208984375 -0.4453125
vt -0.1439208984375 0.21484375
vt -0.22216796875 0.21484375
vt 0.5673828125 -0.4453125
vt 0.5673828125 0.21484375
vt 0.423828125 -0.4453125
vt 0.5673828125 0.21484375
vt 0.423828125 0.21484375
vt 0.423828125 -0.4453125
vt -0.07830810546875 -0.4453125
vt -0.07830810546875 0.21484375
vt -0.10809326171875 -0.4453125
vt -0.07830810546875 0.21484375
vt -0.10809326171875 0.21484375
vt -0.10809326171875 -0.4453125
vt 0.430908203125 0.21484375
vt 0.430908203125 -0.4453125
vt 0.462646484375 0.21484375
vt 0.430908203125 -0.4453125
vt 0.462646484375 -0.4453125
vt 0.462646484375 0.21484375
vt 0.537109375 -0.4453125
vt 0.53173828125 -0.4501953125
vt 0.56884765625 -0.4453125
vt 0.53173828125 -0.4501953125
vt 0.5673828125 -0.4501953125
vt 0.56884765625 -0.4453125
vt 0.4736328125 0.462890625
vt 0.47412109375 0.46826171875
vt 0.44384765625 0.48828125
vt 0.47412109375 0.46826171875
vt 0.445068359375 0.49365234375
vt 0.44384765625 0.48828125
vt 0.56884765625 0.21484375
vt 0.5673828125 0.2197265625
vt 0.537109375 0.21484375
vt 0.5673828125 0.2197265625
vt 0.53173828125 0.2197265625
vt 0.537109375 0.21484375
vt 0.57568359375 0.21484375
vt 0.57568359375 0.2197265625
vt 0.43212890625 0.21484375
vt 0.57568359375 0.2197265625
vt 0.43212890625 0.2197265625
vt 0.43212890625 0.21484375
vt 0.5556640625 0.48828125
vt 0.5546875 0.49365234375
vt 0.52587890625 0.462890625
vt 0.5546875 0.49365234375
vt 0.525390625 0.46826171875
vt 0.52587890625 0.462890625
vt 0.43212890625 -0.4453125
vt 0.43212890625 -0.4501953125
vt 0.57568359375 -0.4453125
vt 0.43212890625 -0.4501953125
vt 0.57568359375 -0.4501953125
vt 0.57568359375 -0.4453125
vt 0.423828125 -0.4453125
vt 0.423828125 -0.4501953125
vt 0.5673828125 -0.4453125
vt 0.423828125 -0.4501953125
vt 0.5673828125 -0.4501953125
vt 0.5673828125 -0.4453125
vt 0.5673828125 0.21484375
vt 0.5673828125 0.2197265625
vt 0.423828125 0.21484375
vt 0.5673828125 0.2197265625
vt 0.423828125 0.2197265625
vt 0.423828125 0.21484375
vt 1.107421875 0.462890625
vt 1.1083984375 0.46826171875
vt 1.078125 0.48828125
vt 1.1083984375 0.46826171875
vt 1.0791015625 0.49365234375
vt 1.078125 0.48828125
vt -0.07830810546875 0.48828125
vt -0.0794677734375 0.49365234375
vt -0.10809326171875 0.462890625
vt -0.0794677734375 0.49365234375
vt -0.1085205078125 0.46826171875
vt -0.10809326171875 0.462890625
vt 0.462646484375 0.21484375
vt 0.4677734375 0.2197265625
vt 0.430908203125 0.21484375
vt 0.4677734375 0.2197265625
vt 0.43212890625 0.2197265625
vt 0.430908203125 0.21484375
vt 0.430908203125 -0.4453125
vt 0.43212890625 -0.4501953125
vt 0.462646484375 -0.4453125
vt 0.43212890625 -0.4501953125
vt 0.4677734375 -0.4501953125
vt 0.462646484375 -0.4453125
vt 0.58740234375 0.4326171875
vt 0.58837890625 0.576171875
vt 0.505859375 0.576171875
vt 0.50439453125 0.4326171875
vt 0.58740234375 0.4326171875
vt 0.505859375 0.576171875
vt 0.50439453125 0.4326171875
vt 0.505859375 0.576171875
vt 0.483154296875 0.576171875
vt 0.47412109375 0.46826171875
vt 0.50439453125 0.4326171875
vt 0.483154296875 0.576171875
vt 0.47412109375 0.46826171875
vt 0.483154296875 0.576171875
vt 0.444091796875 0.576171875
vt 0.445068359375 0.49365234375
vt 0.47412109375 0.46826171875
vt 0.444091796875 0.576171875
vt 0.5546875 0.49365234375
vt 0.5556640625 0.576171875
vt 0.525390625 0.46826171875
vt 0.5556640625 0.576171875
vt 0.5166015625 0.576171875
vt 0.525390625 0.46826171875
vt 0.525390625 0.46826171875
vt 0.5166015625 0.576171875
vt 0.4951171875 0.4326171875
vt 0.5166015625 0.576171875
vt 0.49365234375 0.576171875
vt 0.4951171875 0.4326171875
vt 0.4951171875 0.4326171875
vt 0.49365234375 0.576171875
vt 0.412109375 0.4326171875
vt 0.49365234375 0.576171875
vt 0.4111328125 0.576171875
vt 0.412109375 0.4326171875
vt -0.0794677734375 0.49365234375
vt -0.07867431640625 0.576171875
vt -0.1085205078125 0.46826171875
vt -0.07867431640625 0.576171875
vt -0.11749267578125 0.576171875
vt -0.1085205078125 0.46826171875
vt -0.1085205078125 0.46826171875
vt -0.11749267578125 0.576171875
vt -0.1390380859375 0.4326171875
vt -0.11749267578125 0.576171875
vt -0.1405029296875 0.576171875
vt -0.1390380859375 0.4326171875
vt -0.1390380859375 0.4326171875
vt -0.1405029296875 0.576171875
vt -0.22216796875 0.4326171875
vt -0.1405029296875 0.576171875
vt -0.22314453125 0.576171875
vt -0.22216796875 0.4326171875
vt 1.2216796875 0.4326171875
vt 1.22265625 0.576171875
vt 1.1396484375 0.576171875
vt 1.138671875 0.4326171875
vt 1.2216796875 0.4326171875
vt 1.1396484375 0.576171875
vt 1.138671875 0.4326171875
vt 1.1396484375 0.576171875
vt 1.1171875 0.576171875
vt 1.1083984375 0.46826171875
vt 1.138671875 0.4326171875
vt 1.1171875 0.576171875
vt 1.1083984375 0.46826171875
vt 1.1171875 0.576171875
vt 1.078125 0.576171875
vt 1.0791015625 0.49365234375
vt 1.1083984375 0.46826171875
vt 1.078125 0.576171875
vt 0.50634765625 0.2197265625
vt 0.423828125 0.2197265625
vt 0.423828125 0.21484375
vt 0.50341796875 0.21484375
vt 0.50634765625 0.2197265625
vt 0.423828125 0.21484375
vt 0.51171875 0.21484375
vt 0.50634765625 0.2197265625
vt 0.50341796875 0.21484375
vt 0.51171875 -0.4453125
vt 0.51171875 0.21484375
vt 0.50341796875 0.21484375
vt 0.50341796875 -0.4453125
vt 0.51171875 -0.4453125
vt 0.50341796875 0.21484375
vt 0.50634765625 -0.4501953125
vt 0.51171875 -0.4453125
vt 0.50341796875 -0.4453125
vt 0.423828125 -0.4501953125
vt 0.50634765625 -0.4501953125
vt 0.50341796875 -0.4453125
vt 0.423828125 -0.4453125
vt 0.423828125 -0.4501953125
vt 0.50341796875 -0.4453125
vt 0.493408203125 -0.4501953125
vt 0.57568359375 -0.4501953125
vt 0.57568359375 -0.4453125
vt 0.49609375 -0.4453125
vt 0.493408203125 -0.4501953125
vt 0.57568359375 -0.4453125
vt 0.488037109375 -0.4453125
vt 0.493408203125 -0.4501953125
vt 0.49609375 -0.4453125
vt 0.488037109375 0.21484375
vt 0.488037109375 -0.4453125
vt 0.49609375 -0.4453125
vt 0.49609375 0.21484375
vt 0.488037109375 0.21484375
vt 0.49609375 -0.4453125
vt 0.493408203125 0.2197265625
vt 0.488037109375 0.21484375
vt 0.49609375 0.21484375
vt 0.57568359375 0.2197265625
vt 0.493408203125 0.2197265625
vt 0.49609375 0.21484375
vt 0.57568359375 0.21484375
vt 0.57568359375 0.2197265625
vt 0.49609375 0.21484375
vt 0.58740234375 -0.4453125
vt 0.58740234375 -0.4501953125
vt 0.5927734375 -0.4453125
vt 0.50439453125 -0.4501953125
vt 0.58740234375 -0.4501953125
vt 0.58740234375 -0.4453125
vt 0.58740234375 -0.4453125
vt 0.5927734375 -0.4453125
vt 0.58740234375 0.21484375
vt 0.50927734375 -0.4453125
vt 0.50439453125 -0.4501953125
vt 0.58740234375 -0.4453125
vt 0.5927734375 -0.4453125
vt 0.5927734375 0.21484375
vt 0.58740234375 0.21484375
vt 0.50927734375 -0.4453125
vt 0.5009765625 -0.4453125
vt 0.50439453125 -0.4501953125
vt 0.5927734375 0.21484375
vt 0.58740234375 0.2197265625
vt 0.58740234375 0.21484375
vt 0.5009765625 0.21484375
vt 0.5009765625 -0.4453125
vt 0.50927734375 -0.4453125
vt 0.58740234375 0.21484375
vt 0.58740234375 0.2197265625
vt 0.50927734375 0.21484375
vt 0.50927734375 0.21484375
vt 0.5009765625 0.21484375
vt 0.50927734375 -0.4453125
vt 0.58740234375 0.2197265625
vt 0.50439453125 0.2197265625
vt 0.50927734375 0.21484375
vt 0.50439453125 0.2197265625
vt 0.5009765625 0.21484375
vt 0.50927734375 0.21484375
vt -0.1439208984375 0.21484375
vt -0.1357421875 0.21484375
vt -0.1390380859375 0.2197265625
vt -0.1357421875 -0.4453125
vt -0.1357421875 0.21484375
vt -0.1439208984375 0.21484375
vt -0.1439208984375 0.21484375
vt -0.1390380859375 0.2197265625
vt -0.22216796875 0.21484375
vt -0.1439208984375 -0.4453125
vt -0.1357421875 -0.4453125
vt -0.1439208984375 0.21484375
vt -0.1390380859375 0.2197265625
vt -0.22216796875 0.2197265625
vt -0.22216796875 0.21484375
vt -0.1439208984375 -0.4453125
vt -0.1390380859375 -0.4501953125
vt -0.1357421875 -0.4453125
vt -0.22216796875 0.2197265625
vt -0.2271728515625 0.21484375
vt -0.22216796875 0.21484375
vt -0.22216796875 -0.4501953125
vt -0.1390380859375 -0.4501953125
vt -0.1439208984375 -0.4453125
vt -0.22216796875 0.21484375
vt -0.2271728515625 0.21484375
vt -0.22216796875 -0.4453125
vt -0.22216796875 -0.4453125
vt -0.22216796875 -0.4501953125
vt -0.1439208984375 -0.4453125
vt -0.2271728515625 0.21484375
vt -0.2271728515625 -0.4453125
vt -0.22216796875 -0.4453125
vt -0.2271728515625 -0.4453125
vt -0.22216796875 -0.4501953125
vt -0.22216796875 -0.4453125
vn 0.9222016334533691 -0.17596690356731415 -0.3443540930747986
vn 0.922162652015686 -0.17597399652004242 0.3444547951221466
vn 0.8588730096817017 -0.34153130650520325 -0.3816980719566345
vn 0.8588312268257141 -0.34153956174850464 0.38178494572639465
vn 0.01698366552591324 0.9398028254508972 -0.34129494428634644
vn 0.016970627009868622 0.9397851824760437 0.34134408831596375
vn 0.5042819976806641 0.7953291535377502 -0.3363795578479767
vn 0.5042632818222046 0.7953305244445801 0.3364044725894928
vn -0.6781420111656189 0.6508612632751465 -0.34132540225982666
vn -0.8530710339546204 0.3553951382637024 -0.38205230236053467
vn -0.6781452894210815 0.6508449912071228 0.3413500487804413
vn -0.8530567288398743 0.35537225008010864 0.3821059763431549
vn 0.8993009328842163 0.26957038044929504 -0.34436821937561035
vn 0.875732421875 0.35912826657295227 -0.3226757049560547
vn 0.9022757411003113 0.2656829059123993 0.3395749032497406
vn 0.8759686946868896 0.3609165549278259 0.32002824544906616
vn 0.8365901708602905 0.4816567301750183 0.26100486516952515
vn 0.8369383811950684 0.48047971725463867 -0.26205626130104065
vn -0.7812826633453369 0.5205927491188049 -0.3443552851676941
vn -0.8520918488502502 0.3581015169620514 -0.3817101716995239
vn -0.7812687754631042 0.5205608606338501 0.34443509578704834
vn -0.8520742654800415 0.35805854201316833 0.3817899227142334
vn 0.6463767886161804 0.6824283599853516 -0.34130415320396423
vn 0.19746902585029602 0.9207894802093506 -0.336381733417511
vn 0.6463695168495178 0.6824095845222473 0.3413556218147278
vn 0.1974656879901886 0.920774519443512 0.3364245891571045
vn 0.939883291721344 -0.010777447372674942 -0.34132587909698486
vn 0.9398771524429321 -0.010789135470986366 0.3413424789905548
vn 0.8576656579971313 -0.34413883090019226 -0.38207054138183594
vn 0.8576439023017883 -0.3441467881202698 0.3821125328540802
vn -0.4576818346977234 0.8217519521713257 -0.3394864797592163
vn -0.45272770524024963 0.822432816028595 0.3444443941116333
vn -0.3721248507499695 0.8712781667709351 -0.31999605894088745
vn -0.3731974959373474 0.8698129057884216 0.3227214217185974
vn -0.2604905068874359 0.9292135238647461 0.2621200978755951
vn -0.2594009041786194 0.9298311471939087 -0.2610081434249878
vn 0.39061883091926575 0.1700677126646042 -0.904706597328186
vn 0.42507311701774597 0.34664931893348694 -0.8361501097679138
vn 0.3833409249782562 0.17232851684093475 0.9073878526687622
vn 0.4843483865261078 0.020972207188606262 0.8746238350868225
vn 0.424138605594635 0.3473527133464813 0.8363327383995056
vn -0.3545650839805603 0.14773178100585938 0.9232869744300842
vn -0.18567226827144623 0.4467001259326935 0.8752055764198303
vn 0.48465588688850403 0.024378737434744835 -0.8743650317192078
vn -0.1856687366962433 0.44678738713264465 -0.8751617670059204
vn -0.3546968102455139 0.14782953262329102 -0.9232207536697388
vn 0.3566340506076813 -0.14304114878177643 -0.9232288002967834
vn 0.44551655650138855 0.18867512047290802 -0.8751665949821472
vn 0.44546541571617126 0.18860706686973572 0.8752073645591736
vn 0.35648053884506226 -0.1430210918188095 0.9232912063598633
vn -0.15281298756599426 0.3916671574115753 -0.9073284864425659
vn -0.33103302121162415 0.35442978143692017 -0.8745266199111938
vn -0.328586608171463 0.3568725883960724 0.8744556903839111
vn -0.15949232876300812 0.3949039578437805 0.9047724604606628
vn -0.06043245270848274 0.5450557470321655 0.8362189531326294
vn -0.05919456109404564 0.5450611114501953 -0.8363040089607239
vn -1.4451474271481857e-05 0.00010238312097499147 0.9999999403953552
vn 0.0001744712790241465 4.3896656279684976e-05 1.0
vn 0.35768038034439087 -0.14217998087406158 0.9229569435119629
vn 0.35795822739601135 -0.14219969511032104 -0.9228461980819702
vn 0.0004023126675747335 0.00010349403601139784 -0.9999999403953552
vn -3.032880886166822e-05 0.00023901717213448137 -1.0
vn -0.3548193871974945 0.14916329085826874 0.9229591488838196
vn -9.372649947181344e-05 0.00015356464427895844 1.0
vn 8.204724144889042e-05 6.292400212259963e-05 1.0
vn 0.00018910819198936224 0.00014928840391803533 -0.9999998807907104
vn -0.000214537707506679 0.0003557288146112114 -0.9999998807907104
vn -0.3550238609313965 0.14934778213500977 -0.9228506684303284
f 1/1/1 2/2/2 3/3/3
f 2/4/2 4/5/4 3/6/3
f 5/7/5 6/8/6 7/9/7
f 6/10/6 8/11/8 7/12/7
f 9/13/9 10/14/10 11/15/11
f 10/16/10 12/17/12 11/18/11
f 13/19/13 14/20/14 15/21/15
f 14/22/14 16/23/16 15/24/15
f 17/25/17 16/26/16 18/27/18
f 16/28/16 14/29/14 18/30/18
f 19/31/19 20/32/20 21/33/21
f 20/34/20 22/35/22 21/36/21
f 23/37/23 24/38/24 25/39/25
f 24/40/24 26/41/26 25/42/25
f 27/43/27 28/44/28 29/45/29
f 28/46/28 30/47/30 29/48/29
f 31/49/31 32/50/32 33/51/33
f 32/52/32 34/53/34 33/54/33
f 35/55/35 36/56/36 34/57/34
f 36/58/36 33/59/33 34/60/34
f 14/61/14 37/62/37 18/63/18
f 37/64/37 38/65/38 18/66/18
f 16/67/16 39/68/39 15/69/15
f 39/70/39 40/71/40 15/72/15
f 17/73/17 41/74/41 16/75/16
f 41/76/41 39/77/39 16/78/16
f 12/79/12 42/80/42 11/81/11
f 42/82/42 43/83/43 11/84/11
f 13/85/13 44/86/44 14/87/14
f 44/88/44 37/89/37 14/90/14
f 9/91/9 45/92/45 10/93/10
f 45/94/45 46/95/46 10/96/10
f 29/97/29 47/98/47 27/99/27
f 47/100/47 48/101/48 27/102/27
f 28/103/28 49/104/49 30/105/30
f 49/106/49 50/107/50 30/108/30
f 33/109/33 51/110/51 31/111/31
f 51/112/51 52/113/52 31/114/31
f 32/115/32 53/116/53 34/117/34
f 53/118/53 54/119/54 34/120/34
f 34/121/34 54/122/54 35/123/35
f 54/124/54 55/125/55 35/126/35
f 36/127/36 56/128/56 33/129/33
f 56/130/56 51/131/51 33/132/33
f 43/133/43 42/134/42 57/135/57
f 41/136/41 43/137/43 57/138/57
f 41/139/41 57/140/57 58/141/58
f 39/142/39 41/143/41 58/144/58
f 39/145/39 58/146/58 59/147/59
f 40/148/40 39/149/39 59/150/59
f 44/151/44 60/152/60 37/153/37
f 60/154/60 61/155/61 37/156/37
f 37/157/37 61/158/61 38/159/38
f 61/160/61 62/161/62 38/162/38
f 38/163/38 62/164/62 45/165/45
f 62/166/62 46/167/46 45/168/45
f 53/169/53 63/170/63 54/171/54
f 63/172/63 64/173/64 54/174/54
f 54/175/54 64/176/64 55/177/55
f 64/178/64 65/179/65 55/180/55
f 55/181/55 65/182/65 49/183/49
f 65/184/65 50/185/50 49/186/49
f 48/187/48 47/188/47 66/189/66
f 56/190/56 48/191/48 66/192/66
f 56/193/56 66/194/66 67/195/67
f 51/196/51 56/197/56 67/198/67
f 51/199/51 67/200/67 68/201/68
f 52/202/52 51/203/51 68/204/68
f 40/205/40 59/206/59 4/207/4
f 2/208/2 40/209/40 4/210/4
f 15/211/15 40/212/40 2/213/2
f 13/214/13 15/215/15 2/216/2
f 1/217/1 13/218/13 2/219/2
f 44/220/44 13/221/13 1/222/1
f 60/223/60 44/224/44 1/225/1
f 3/226/3 60/227/60 1/228/1
f 52/229/52 68/230/68 20/231/20
f 19/232/19 52/233/52 20/234/20
f 31/235/31 52/236/52 19/237/19
f 32/238/32 31/239/31 19/240/19
f 21/241/21 32/242/32 19/243/19
f 53/244/53 32/245/32 21/246/21
f 63/247/63 53/248/53 21/249/21
f 22/250/22 63/251/63 21/252/21
f 5/253/5 45/254/45 9/255/9
f 38/256/38 45/257/45 5/258/5
f 5/259/5 9/260/9 6/261/6
f 7/262/7 38/263/38 5/264/5
f 9/265/9 11/266/11 6/267/6
f 7/268/7 18/269/18 38/270/38
f 11/271/11 43/272/43 6/273/6
f 17/274/17 18/275/18 7/276/7
f 6/277/6 43/278/43 8/279/8
f 8/280/8 17/281/17 7/282/7
f 43/283/43 41/284/41 8/285/8
f 41/286/41 17/287/17 8/288/8
f 26/289/26 35/290/35 55/291/55
f 36/292/36 35/293/35 26/294/26
f 26/295/26 55/296/55 25/297/25
f 24/298/24 36/299/36 26/300/26
f 55/301/55 49/302/49 25/303/25
f 24/304/24 56/305/56 36/306/36
f 49/307/49 28/308/28 25/309/25
f 48/310/48 56/311/56 24/312/24
f 25/313/25 28/314/28 23/315/23
f 23/316/23 48/317/48 24/318/24
f 28/319/28 27/320/27 23/321/23
f 27/322/27 48/323/48 23/324/23
