# Exported by Lightwave Blender addon
v -21.94152069091797 -0.25335371494293213 -0.19775554537773132
v -21.940902709960938 -0.2533535063266754 -0.2947448194026947
v -21.940902709960938 -0.15000931918621063 -0.29474347829818726
v -21.940902709960938 -0.15000930428504944 -0.32179468870162964
v -21.940902709960938 0.1388784795999527 -0.3217940330505371
v -21.940902709960938 0.13887806236743927 -0.2947428226470947
v -21.940902709960938 0.2536149024963379 -0.2947421371936798
v -21.94152069091797 0.25361427664756775 -0.19775554537773132
v -21.940902709960938 -0.2683032751083374 0.17250773310661316
v -21.940902709960938 -0.26221585273742676 0.04248744621872902
v -21.940902709960938 -0.2401142716407776 0.2827328145503998
v -21.940902709960938 -0.20494890213012695 -0.08753015846014023
v -21.940902709960938 -0.12988953292369843 0.3563821613788605
v -21.940902709960938 0.00013033462164457887 0.3822469413280487
v -21.940902709960938 0.1301494687795639 0.35638222098350525
v -21.9427490234375 0.24037505686283112 0.28273293375968933
v -21.940902709960938 0.2685634195804596 0.17250776290893555
v -21.940902709960938 0.2624759078025818 0.04248744621872902
v -21.9427490234375 0.20520898699760437 -0.08753015846014023
v 7.549333572387695 -0.1500016152858734 -0.32178956270217896
v 7.549333095550537 0.25362277030944824 -0.2947371304035187
v 7.549333095550537 0.13888579607009888 -0.2947377860546112
v 7.549333095550537 0.1388862431049347 -0.3217889964580536
v 7.549333095550537 0.25362205505371094 -0.19775046408176422
v 7.549333572387695 -0.2533457577228546 -0.294739693403244
v 7.549333572387695 -0.25334569811820984 -0.19775032997131348
v 7.549333572387695 -0.1500016450881958 -0.2947383522987366
v 7.549333095550537 0.2624838054180145 0.042492661625146866
v 7.549333095550537 0.26857131719589233 0.17251303791999817
v 7.549333095550537 0.00013821787433698773 0.3822523057460785
v 7.549333095550537 -0.26829543709754944 0.17251315712928772
v 7.549333095550537 0.13015741109848022 0.35638752579689026
v 7.549333095550537 -0.240106463432312 0.2827382981777191
v 7.549333095550537 0.24038299918174744 0.2827381193637848
v 7.549333095550537 -0.1298816055059433 0.35638758540153503
v 7.549333095550537 -0.26220816373825073 0.04249278083443642
v 7.549333572387695 -0.2533460855484009 -0.1977503001689911
v 7.549333095550537 -0.204941064119339 -0.08752479404211044
v 7.549333095550537 0.20521676540374756 -0.0875249132514
vt 0.8590654134750366 0.9612082242965698
vt 0.828355073928833 0.1139526441693306
vt 0.859065592288971 0.11382393538951874
vt 0.9873901605606079 0.07821982353925705
vt 0.9553768634796143 0.9614191651344299
vt 0.9553799629211426 0.07800150662660599
vt 0.7976498603820801 0.9611366391181946
vt 0.7669391632080078 0.11387664079666138
vt 0.7976499199867249 0.11375214904546738
vt 0.5519565939903259 0.9613240361213684
vt 0.5212458372116089 0.11391153186559677
vt 0.55196213722229 0.11379104852676392
vt 0.5826728343963623 0.9612036943435669
vt 0.55196213722229 0.11379104852676392
vt 0.5826783776283264 0.11367055773735046
vt 0.6748162508010864 0.9610166549682617
vt 0.6441056132316589 0.11374184489250183
vt 0.6748169660568237 0.11361895501613617
vt 0.42910173535346985 0.9611876606941223
vt 0.39839109778404236 0.11377660185098648
vt 0.4291072487831116 0.11365453153848648
vt 0.49052971601486206 0.11403428763151169
vt 0.45981305837631226 0.9613744616508484
vt 0.459818571805954 0.11384143680334091
vt 0.6133890748023987 0.9610830545425415
vt 0.5826783776283264 0.11367055773735046
vt 0.6133946180343628 0.11355006694793701
vt 0.459818571805954 0.11384143680334091
vt 0.42910173535346985 0.9611876606941223
vt 0.4291072487831116 0.11365453153848648
vt 0.6441056132316589 0.11374184489250183
vt 0.6133890748023987 0.9610830545425415
vt 0.6133946180343628 0.11355006694793701
vt 0.5212403535842896 0.9614446759223938
vt 0.49052971601486206 0.11403428763151169
vt 0.5212458372116089 0.11391153186559677
vt 0.7669408321380615 0.9612308740615845
vt 0.7362295389175415 0.11399863660335541
vt 0.7669391632080078 0.11387664079666138
vt 0.8593425750732422 0.9608310461044312
vt 0.8913618922233582 0.07753145694732666
vt 0.8913587927818298 0.960949182510376
vt 0.7976498603820801 0.9611366391181946
vt 0.828355073928833 0.1139526441693306
vt 0.8283549547195435 0.961337149143219
vt 0.8913587927818298 0.960949182510376
vt 0.9233696460723877 0.07778648287057877
vt 0.923366367816925 0.9612041115760803
vt 0.9553768634796143 0.9614191651344299
vt 0.9233696460723877 0.07778648287057877
vt 0.9553799629211426 0.07800150662660599
vt 0.6748162508010864 0.9610166549682617
vt 0.7055229544639587 0.11381186544895172
vt 0.705522358417511 0.9612095952033997
vt 0.705522358417511 0.9612095952033997
vt 0.7362295389175415 0.11399863660335541
vt 0.73623126745224 0.9613818526268005
vt 0.8590654134750366 0.9612082242965698
vt 0.8283549547195435 0.961337149143219
vt 0.828355073928833 0.1139526441693306
vt 0.9873901605606079 0.07821982353925705
vt 0.9873902797698975 0.9615673422813416
vt 0.9553768634796143 0.9614191651344299
vt 0.7976498603820801 0.9611366391181946
vt 0.7669408321380615 0.9612308740615845
vt 0.7669391632080078 0.11387664079666138
vt 0.5519565939903259 0.9613240361213684
vt 0.5212403535842896 0.9614446759223938
vt 0.5212458372116089 0.11391153186559677
vt 0.5826728343963623 0.9612036943435669
vt 0.5519565939903259 0.9613240361213684
vt 0.55196213722229 0.11379104852676392
vt 0.6748162508010864 0.9610166549682617
vt 0.6441027522087097 0.9612565040588379
vt 0.6441056132316589 0.11374184489250183
vt 0.42910173535346985 0.9611876606941223
vt 0.3983878195285797 0.9612634181976318
vt 0.39839109778404236 0.11377660185098648
vt 0.49052971601486206 0.11403428763151169
vt 0.49052417278289795 0.9615673422813416
vt 0.45981305837631226 0.9613744616508484
vt 0.6133890748023987 0.9610830545425415
vt 0.5826728343963623 0.9612036943435669
vt 0.5826783776283264 0.11367055773735046
vt 0.459818571805954 0.11384143680334091
vt 0.45981305837631226 0.9613744616508484
vt 0.42910173535346985 0.9611876606941223
vt 0.6441056132316589 0.11374184489250183
vt 0.6441027522087097 0.9612565040588379
vt 0.6133890748023987 0.9610830545425415
vt 0.5212403535842896 0.9614446759223938
vt 0.49052417278289795 0.9615673422813416
vt 0.49052971601486206 0.11403428763151169
vt 0.7669408321380615 0.9612308740615845
vt 0.73623126745224 0.9613818526268005
vt 0.7362295389175415 0.11399863660335541
vt 0.8593425750732422 0.9608310461044312
vt 0.8593457937240601 0.07741344720125198
vt 0.8913618922233582 0.07753145694732666
vt 0.7976498603820801 0.9611366391181946
vt 0.7976499199867249 0.11375214904546738
vt 0.828355073928833 0.1139526441693306
vt 0.8913587927818298 0.960949182510376
vt 0.8913618922233582 0.07753145694732666
vt 0.9233696460723877 0.07778648287057877
vt 0.9553768634796143 0.9614191651344299
vt 0.923366367816925 0.9612041115760803
vt 0.9233696460723877 0.07778648287057877
vt 0.6748162508010864 0.9610166549682617
vt 0.6748169660568237 0.11361895501613617
vt 0.7055229544639587 0.11381186544895172
vt 0.705522358417511 0.9612095952033997
vt 0.7055229544639587 0.11381186544895172
vt 0.7362295389175415 0.11399863660335541
vn 2.2334096172471618e-07 -0.9786567091941833 0.20550194382667542
vn 3.152555052565731e-07 -0.7085264325141907 -0.7056841850280762
vn 3.069159504320851e-07 -0.7071020007133484 -0.7071115970611572
vn 3.0691637675772654e-07 -0.7071051597595215 -0.7071083784103394
vn -6.254185080933894e-08 0.7071101665496826 -0.707103431224823
vn -6.467370639029468e-08 0.7071144580841064 -0.7070990800857544
vn -6.636612681631959e-08 0.7085358500480652 -0.7056748270988464
vn -2.9479099339368986e-07 0.9784448742866516 0.20650823414325714
vn 2.457170467096148e-07 -0.9948233962059021 0.10161886364221573
vn 2.9783348054479575e-07 -0.9734753370285034 -0.22879208624362946
vn 1.094423396352795e-07 -0.8161605596542358 0.5778251886367798
vn 2.603683526558598e-07 -1.0 0.0001649422338232398
vn -6.904824090270267e-08 -0.38268959522247314 0.9238770008087158
vn -1.8276416824392072e-07 4.380854363716935e-07 1.0
vn -2.684937783214991e-07 0.38349801301956177 0.9235417246818542
vn -3.2139058703251067e-07 0.8159970641136169 0.5780559182167053
vn -2.8511166760836204e-07 0.9947453141212463 0.10238028317689896
vn -2.1796336113766301e-07 0.9732996225357056 -0.22953826189041138
vn -2.637181353293272e-07 1.0 -0.0001540779194328934
vn 3.051430041978165e-07 -0.7071040272712708 -0.7071096301078796
vn -6.860270929109902e-08 0.7071115374565125 -0.7071020007133484
vn -6.610009251062365e-08 0.7071130275726318 -0.7071005702018738
vn -6.538768815289586e-08 0.7071130871772766 -0.7071003913879395
vn -2.9511480192923045e-07 0.9786722660064697 0.2054276317358017
vn 3.0870242540004256e-07 -0.7071024179458618 -0.7071111798286438
vn 2.627703281632421e-07 -0.9999999403953552 6.087866495363414e-07
vn 3.0727284183740267e-07 -0.7071004509925842 -0.7071130275726318
vn -2.201905999754672e-07 0.9734751582145691 -0.2287926971912384
vn -2.845780215920968e-07 0.9948237538337708 0.10161565989255905
vn -1.8110881683242042e-07 5.789945021206222e-07 1.0
vn 2.423333285150875e-07 -0.9948233962059021 0.10161963850259781
vn -2.692667635528778e-07 0.3826887011528015 0.9238774180412292
vn 1.1073144179363226e-07 -0.8161600232124329 0.5778259038925171
vn -3.228079492600955e-07 0.8161613941192627 0.5778239369392395
vn -6.619002590468881e-08 -0.3826891779899597 0.9238771796226501
vn 2.977529618419794e-07 -0.9734752178192139 -0.22879239916801453
vn 1.7023913301272842e-07 -0.9156032800674438 0.4020829200744629
vn 2.659052711351251e-07 -0.9999998211860657 -0.0005488393362611532
vn -2.6472207537153736e-07 0.9999998807907104 -0.0005484643043018878
f 5/3/5 22/3/22 23/3/23
f 26/6/26 2/6/2 25/6/25
f 7/9/7 24/9/24 21/9/21
f 13/12/13 33/12/33 35/12/35
f 14/15/14 35/15/35 30/15/30
f 17/18/17 34/18/34 29/18/29
f 12/21/12 37/21/37 38/21/38
f 31/24/31 10/24/10 36/24/36
f 15/27/15 30/27/30 32/27/32
f 36/30/36 12/30/12 38/30/38
f 34/33/34 15/33/15 32/33/32
f 11/36/11 31/36/31 33/36/33
f 8/39/8 39/39/39 24/39/24
f 5/42/5 20/42/20 4/42/4
f 7/45/7 22/45/22 6/45/6
f 4/48/4 27/48/27 3/48/3
f 2/51/2 27/51/27 25/51/25
f 17/54/17 28/54/28 18/54/18
f 18/57/18 39/57/39 19/57/19
f 5/60/5 6/60/6 22/60/22
f 26/63/26 1/63/1 2/63/2
f 7/66/7 8/66/8 24/66/24
f 13/69/13 11/69/11 33/69/33
f 14/72/14 13/72/13 35/72/35
f 17/75/17 16/75/16 34/75/34
f 12/78/12 1/78/1 37/78/37
f 31/81/31 9/81/9 10/81/10
f 15/84/15 14/84/14 30/84/30
f 36/87/36 10/87/10 12/87/12
f 34/90/34 16/90/16 15/90/15
f 11/93/11 9/93/9 31/93/31
f 8/96/8 19/96/19 39/96/39
f 5/99/5 23/99/23 20/99/20
f 7/102/7 21/102/21 22/102/22
f 4/105/4 20/105/20 27/105/27
f 2/108/2 3/108/3 27/108/27
f 17/111/17 29/111/29 28/111/28
f 18/114/18 28/114/28 39/114/39
