# Exported by Lightwave Blender addon
v 350.7680358886719 -1437.567138671875 717.2210693359375
v 350.76812744140625 -1437.56689453125 508.1148376464844
v 249.49325561523438 -1395.8984375 717.2210693359375
v 249.49307250976562 -1395.8988037109375 508.1148376464844
v 642.8391723632812 -1482.59912109375 1033.2349853515625
v 642.8392333984375 -1482.598876953125 824.1287231445312
v 590.6187744140625 -1461.1171875 1033.2347412109375
v 590.6187744140625 -1461.117431640625 824.1286010742188
v 541.5643310546875 -1440.9302978515625 1033.2349853515625
v 541.5641479492188 -1440.9307861328125 824.1287231445312
v 350.7680358886719 -1437.567138671875 1033.2349853515625
v 350.76812744140625 -1437.56689453125 824.1287231445312
v 298.54766845703125 -1416.0853271484375 1033.2347412109375
v 298.5475769042969 -1416.0855712890625 824.128662109375
v 249.49325561523438 -1395.8984375 1033.2349853515625
v 249.49307250976562 -1395.8988037109375 824.1287841796875
v 114.22164916992188 -1266.443603515625 1033.2349853515625
v 114.22173309326172 -1266.443359375 824.1287841796875
v 12.946823120117188 -1224.77490234375 1033.2349853515625
v 12.946609497070312 -1224.7752685546875 824.1287841796875
v 114.22164916992188 -1266.443603515625 717.2210693359375
v 114.22173309326172 -1266.443359375 508.1148376464844
v 62.001251220703125 -1244.9617919921875 717.2208251953125
v 62.00115966796875 -1244.9620361328125 508.11474609375
v 12.946823120117188 -1224.77490234375 717.2210693359375
v 12.946609497070312 -1224.7752685546875 508.1148681640625
v 642.8391723632812 -1482.59912109375 717.2210693359375
v 642.8392333984375 -1482.598876953125 508.1148376464844
v 541.5643310546875 -1440.9302978515625 717.2210693359375
v 541.5641479492188 -1440.9307861328125 508.1148376464844
v 623.4158325195312 -1534.1466064453125 379.3338317871094
v 623.4160766601562 -1534.146484375 170.22767639160156
v 571.195556640625 -1512.664794921875 379.3335876464844
v 571.1954345703125 -1512.6650390625 170.22752380371094
v 522.14111328125 -1492.4779052734375 379.3338317871094
v 522.1409301757812 -1492.4783935546875 170.22767639160156
v 93.38053894042969 -1317.411376953125 379.3338317871094
v 93.38063049316406 -1317.4112548828125 170.22767639160156
v 41.16015625 -1295.9295654296875 379.3336181640625
v 41.16004943847656 -1295.9298095703125 170.22752380371094
v -7.894270896911621 -1275.74267578125 379.3338623046875
v -7.894454002380371 -1275.7432861328125 170.22767639160156
vt 0.036407470703125 1.02459716796875
vt 0.036407470703125 0.3701171875
vt 0.459228515625 1.02459716796875
vt 0.036407470703125 0.3701171875
vt 0.459228515625 0.3701171875
vt 0.459228515625 1.02459716796875
vt 0.96435546875 0.95526123046875
vt 0.96435546875 0.30078125
vt 0.74609375 0.95526123046875
vt 0.96435546875 0.30078125
vt 0.74609375 0.30078125
vt 0.74609375 0.95526123046875
vt 0.53857421875 0.946319580078125
vt 0.744140625 0.946319580078125
vt 0.53857421875 0.2919921875
vt 0.744140625 0.946319580078125
vt 0.744140625 0.2919921875
vt 0.53857421875 0.2919921875
vt 0.5380859375 0.95526123046875
vt 0.5380859375 0.30078125
vt 0.744140625 0.95526123046875
vt 0.5380859375 0.30078125
vt 0.744140625 0.30078125
vt 0.744140625 0.95526123046875
vt 0.537109375 0.95526123046875
vt 0.74365234375 0.95526123046875
vt 0.537109375 0.30078125
vt 0.74365234375 0.95526123046875
vt 0.74365234375 0.30078125
vt 0.537109375 0.30078125
vt 0.01409149169921875 0.95526123046875
vt 0.01409149169921875 0.30078125
vt 0.43701171875 0.95526123046875
vt 0.01409149169921875 0.30078125
vt 0.43701171875 0.30078125
vt 0.43701171875 0.95526123046875
vt 0.765625 0.96173095703125
vt 0.765625 0.30712890625
vt 0.98388671875 0.96173095703125
vt 0.765625 0.30712890625
vt 0.98388671875 0.30712890625
vt 0.98388671875 0.96173095703125
vt 0.99267578125 0.95526123046875
vt 0.76416015625 0.95526123046875
vt 0.99267578125 0.30078125
vt 0.76416015625 0.95526123046875
vt 0.76416015625 0.30078125
vt 0.99267578125 0.30078125
vt 0.01409149169921875 0.95526123046875
vt 0.01409149169921875 0.30078125
vt 0.43701171875 0.95526123046875
vt 0.01409149169921875 0.30078125
vt 0.43701171875 0.30078125
vt 0.43701171875 0.95526123046875
vt 0.76513671875 0.95526123046875
vt 0.76513671875 0.30078125
vt 0.98291015625 0.95526123046875
vt 0.76513671875 0.30078125
vt 0.98291015625 0.30078125
vt 0.98291015625 0.95526123046875
vt 0.990234375 0.96319580078125
vt 0.76171875 0.96319580078125
vt 0.990234375 0.23193359375
vt 0.76171875 0.96319580078125
vt 0.76171875 0.23193359375
vt 0.990234375 0.23193359375
vt 0.01409149169921875 0.95526123046875
vt 0.01409149169921875 0.30078125
vt 0.2320556640625 0.95526123046875
vt 0.01409149169921875 0.30078125
vt 0.2320556640625 0.30078125
vt 0.2320556640625 0.95526123046875
vt 0.486083984375 0.95526123046875
vt 0.2578125 0.95526123046875
vt 0.486083984375 0.30078125
vt 0.2578125 0.95526123046875
vt 0.2578125 0.30078125
vt 0.486083984375 0.30078125
vn 0.3804946541786194 0.9247831702232361 1.2463161738196504e-06
vn 0.3804907500743866 0.924784779548645 -9.702301895231358e-07
vn 0.3804928660392761 0.9247838258743286 2.637770535329764e-07
vn 0.3804890215396881 0.9247854351997375 -1.9527690255927155e-06
vn 0.3804381191730499 0.9248064160346985 1.1907959560630843e-06
vn 0.3804316222667694 0.9248090386390686 -6.985654295021959e-07
vn 0.38049623370170593 0.9247825145721436 -7.298033892766398e-07
vn 0.38049080967903137 0.9247846603393555 -1.079726985153684e-06
vn 0.38055646419525146 0.9247577786445618 -2.4926475816755556e-06
vn 0.3805520534515381 0.9247594475746155 -1.3031386743023177e-06
vn 0.3804364502429962 0.9248069524765015 1.2463182201827294e-06
vn 0.38042938709259033 0.924809992313385 -8.278445307041693e-07
vn 0.3804955780506134 0.9247827529907227 -5.068722543910553e-07
vn 0.3804909884929657 0.9247846603393555 -1.2463170833143522e-06
vn 0.380556583404541 0.9247576594352722 -1.9534008970367722e-06
vn 0.3805544078350067 0.9247584939002991 -1.358131612505531e-06
vn 0.38049450516700745 0.9247832298278809 1.2324336466917885e-06
vn 0.3804905414581299 0.9247848391532898 -1.0129682550541474e-06
vn 0.38049277663230896 0.9247838854789734 2.3710300922630267e-07
vn 0.380488783121109 0.9247854948043823 -2.008298906730488e-06
vn 0.3804363012313843 0.9248071312904358 1.2324380804784596e-06
vn 0.3804291784763336 0.924809992313385 -8.301748266603681e-07
vn 0.38049545884132385 0.9247828125953674 -5.358091357265948e-07
vn 0.3804907500743866 0.9247847199440002 -1.2463170833143522e-06
vn 0.38055646419525146 0.9247576594352722 -2.00842555386771e-06
vn 0.3805541694164276 0.9247586131095886 -1.3668333167515812e-06
vn 0.3804953992366791 0.9247828722000122 1.1907856105608516e-06
vn 0.38049089908599854 0.9247846603393555 -1.3613390592581709e-06
vn 0.3804934322834015 0.9247837066650391 5.949219072931555e-08
vn 0.38048890233039856 0.9247854948043823 -2.4926325750129763e-06
vn 0.3804370164871216 0.9248068332672119 9.840531447480316e-07
vn 0.38043051958084106 0.9248095154762268 -9.180760116578313e-07
vn 0.38049569725990295 0.9247826933860779 -8.520285632585001e-07
vn 0.38049063086509705 0.924784779548645 -1.3018470781389624e-06
vn 0.3805563747882843 0.9247577786445618 -2.4926487185439328e-06
vn 0.3805527091026306 0.9247592091560364 -1.49016329942242e-06
vn 0.38043633103370667 0.924807071685791 7.064425062708324e-07
vn 0.3804307281970978 0.9248093962669373 -9.415819022251526e-07
vn 0.3804953396320343 0.9247828722000122 -1.189991962746717e-06
vn 0.3804898262023926 0.9247850775718689 -1.2740820238832384e-06
vn 0.38055649399757385 0.9247575998306274 -3.0318972221721197e-06
vn 0.3805510699748993 0.9247598648071289 -1.552060894027818e-06
f 1/1/1 2/2/2 3/3/3
f 2/4/2 4/5/4 3/6/3
f 5/7/5 6/8/6 7/9/7
f 6/10/6 8/11/8 7/12/7
f 9/13/9 7/14/7 10/15/10
f 7/16/7 8/17/8 10/18/10
f 11/19/11 12/20/12 13/21/13
f 12/22/12 14/23/14 13/24/13
f 15/25/15 13/26/13 16/27/16
f 13/28/13 14/29/14 16/30/16
f 17/31/17 18/32/18 19/33/19
f 18/34/18 20/35/20 19/36/19
f 21/37/21 22/38/22 23/39/23
f 22/40/22 24/41/24 23/42/23
f 25/43/25 23/44/23 26/45/26
f 23/46/23 24/47/24 26/48/26
f 27/49/27 28/50/28 29/51/29
f 28/52/28 30/53/30 29/54/29
f 31/55/31 32/56/32 33/57/33
f 32/58/32 34/59/34 33/60/33
f 35/61/35 33/62/33 36/63/36
f 33/64/33 34/65/34 36/66/36
f 37/67/37 38/68/38 39/69/39
f 38/70/38 40/71/40 39/72/39
f 41/73/41 39/74/39 42/75/42
f 39/76/39 40/77/40 42/78/42
