# Exported by Lightwave Blender addon
v 19.483678817749023 -120.82794952392578 490.3883056640625
v 18.887767791748047 -122.36212158203125 490.3883056640625
v 18.887767791748047 -122.36212921142578 493.98895263671875
v 19.483678817749023 -120.82794952392578 493.98895263671875
v 10.345645904541016 -119.04411315917969 461.9086608886719
v 10.345645904541016 -119.04411315917969 490.3883056640625
v 10.941556930541992 -117.50994110107422 490.3883056640625
v 10.941556930541992 -117.50994110107422 461.9086608886719
v 60.43334197998047 -136.73403930664062 490.3883056640625
v 60.43334197998047 -136.73403930664062 493.98895263671875
v 59.83742141723633 -138.2681884765625 493.98895263671875
v 59.83742141723633 -138.2681884765625 490.3883056640625
v 68.37954711914062 -141.58621215820312 461.9086608886719
v 68.9754638671875 -140.0520477294922 461.9086608886719
v 68.9754638671875 -140.0520477294922 490.3883056640625
v 68.37954711914062 -141.58621215820312 490.3883056640625
v 21.36278533935547 -123.32349395751953 494.3526306152344
v 21.958698272705078 -121.78934478759766 494.3526306152344
v 22.526960372924805 -123.77570343017578 494.71173095703125
v 23.12287139892578 -122.24154663085938 494.71173095703125
v 23.659263610839844 -124.21552276611328 495.2483215332031
v 24.255176544189453 -122.68135070800781 495.2483215332031
v 24.92972183227539 -124.7090072631836 496.21905517578125
v 25.525634765625 -123.17484283447266 496.21905517578125
v 26.321453094482422 -125.24959564208984 497.54351806640625
v 26.917369842529297 -123.7154312133789 497.54351806640625
v 28.584762573242188 -126.12873077392578 499.7445068359375
v 29.180679321289062 -124.5945816040039 499.7445068359375
v 30.21287727355957 -126.7611312866211 500.9902648925781
v 30.808792114257812 -125.22697448730469 500.9902648925781
v 31.652618408203125 -127.32036590576172 501.8485412597656
v 32.24853515625 -125.78621673583984 501.8485412597656
v 33.477848052978516 -128.02935791015625 502.6645202636719
v 34.07376480102539 -126.49517822265625 502.66455078125
v 36.257080078125 -127.34326171875 503.2425537109375
v 35.667362213134766 -128.87982177734375 503.24310302734375
v 37.84523010253906 -129.72576904296875 503.5563659667969
v 38.4385986328125 -128.19061279296875 503.5563659667969
v 39.36259460449219 -130.31517028808594 503.6219177246094
v 39.9585075378418 -128.78099060058594 503.6219177246094
v 41.478416442871094 -129.37136840820312 503.5563659667969
v 40.87995529174805 -130.90457153320312 503.5563659667969
v 43.05782699584961 -131.75050354003906 503.24310302734375
v 43.65993881225586 -130.21875 503.2425537109375
v 45.24734115600586 -132.60096740722656 502.6645202636719
v 45.84325408935547 -131.0668182373047 502.66455078125
v 47.66848373413086 -131.77578735351562 501.8485412597656
v 47.07257080078125 -133.3099365234375 501.8485412597656
v 49.10822677612305 -132.33502197265625 500.9902648925781
v 48.51231384277344 -133.8691864013672 500.9902648925781
v 50.73634338378906 -132.96743774414062 499.7445068359375
v 50.14042663574219 -134.5015869140625 499.7445068359375
v 52.99965286254883 -133.84657287597656 497.54351806640625
v 52.40373611450195 -135.38072204589844 497.54351806640625
v 54.39138412475586 -134.3871612548828 496.21905517578125
v 53.795467376708984 -135.9213104248047 496.21905517578125
v 55.661842346191406 -134.88064575195312 495.2483215332031
v 55.06592559814453 -136.414794921875 495.2483215332031
v 56.79414749145508 -135.32046508789062 494.71173095703125
v 56.19822692871094 -136.8546142578125 494.71173095703125
v 57.95832061767578 -135.7726593017578 494.3526306152344
v 57.362403869628906 -137.30682373046875 494.3526306152344
v 39.36259460449219 -130.31517028808594 461.9086608886719
v 39.95851135253906 -128.78099060058594 461.9086608886719
vt 0.86376953125 0.04150390625
vt 0.86376953125 0.06787109375
vt 0.80615234375 0.06787109375
vt 0.80615234375 0.06787109375
vt 0.80615234375 0.04150390625
vt 0.86376953125 0.04150390625
vt 0.9228515625 0.03466796875
vt 0.4677734375 0.03466796875
vt 0.4677734375 0.00830078125
vt 0.4677734375 0.00830078125
vt 0.9228515625 0.00830078125
vt 0.9228515625 0.03466796875
vt 0.00875091552734375 0.68408203125
vt 0.00875091552734375 0.65771484375
vt 0.1552734375 0.65771484375
vt 0.1552734375 0.65771484375
vt 0.1552734375 0.68408203125
vt 0.00875091552734375 0.68408203125
vt 0.87158203125 0.0419921875
vt 0.92919921875 0.0419921875
vt 0.92919921875 0.068359375
vt 0.92919921875 0.068359375
vt 0.87158203125 0.068359375
vt 0.87158203125 0.0419921875
vt 0.003078460693359375 0.03466796875
vt 0.003078460693359375 0.00830078125
vt 0.45849609375 0.00830078125
vt 0.45849609375 0.00830078125
vt 0.45849609375 0.03466796875
vt 0.003078460693359375 0.03466796875
vt 0.1552734375 0.6494140625
vt 0.00875091552734375 0.6494140625
vt 0.00875091552734375 0.623291015625
vt 0.00875091552734375 0.623291015625
vt 0.1552734375 0.623291015625
vt 0.1552734375 0.6494140625
vt 0.79296875 0.04150390625
vt 0.79296875 0.06787109375
vt 0.75048828125 0.06787109375
vt 0.75048828125 0.06787109375
vt 0.75048828125 0.04150390625
vt 0.79296875 0.04150390625
vt 0.75048828125 0.04150390625
vt 0.75048828125 0.06787109375
vt 0.7294921875 0.06787109375
vt 0.7294921875 0.06787109375
vt 0.7294921875 0.04150390625
vt 0.75048828125 0.04150390625
vt 0.7294921875 0.04150390625
vt 0.7294921875 0.06787109375
vt 0.70849609375 0.06787109375
vt 0.70849609375 0.06787109375
vt 0.70849609375 0.04150390625
vt 0.7294921875 0.04150390625
vt 0.70849609375 0.04150390625
vt 0.70849609375 0.06787109375
vt 0.681640625 0.06787109375
vt 0.681640625 0.06787109375
vt 0.681640625 0.04150390625
vt 0.70849609375 0.04150390625
vt 0.681640625 0.04150390625
vt 0.681640625 0.06787109375
vt 0.6494140625 0.06787109375
vt 0.6494140625 0.06787109375
vt 0.6494140625 0.04150390625
vt 0.681640625 0.04150390625
vt 0.6494140625 0.04150390625
vt 0.6494140625 0.06787109375
vt 0.59716796875 0.06787109375
vt 0.59716796875 0.06787109375
vt 0.59716796875 0.04150390625
vt 0.6494140625 0.04150390625
vt 0.59716796875 0.04150390625
vt 0.59716796875 0.06787109375
vt 0.56298828125 0.06787109375
vt 0.56298828125 0.06787109375
vt 0.56298828125 0.04150390625
vt 0.59716796875 0.04150390625
vt 0.56298828125 0.04150390625
vt 0.56298828125 0.06787109375
vt 0.5341796875 0.06787109375
vt 0.5341796875 0.04150390625
vt 0.56298828125 0.04150390625
vt 0.5341796875 0.06787109375
vt 0.5341796875 0.04150390625
vt 0.5341796875 0.06787109375
vt 0.50048828125 0.06787109375
vt 0.50048828125 0.06787109375
vt 0.50048828125 0.04150390625
vt 0.5341796875 0.04150390625
vt 0.4619140625 0.04150390625
vt 0.50048828125 0.04150390625
vt 0.50048828125 0.06787109375
vt 0.50048828125 0.06787109375
vt 0.4619140625 0.06787109375
vt 0.4619140625 0.04150390625
vt 0.4619140625 0.04150390625
vt 0.4619140625 0.06787109375
vt 0.42431640625 0.06787109375
vt 0.42431640625 0.06787109375
vt 0.42431640625 0.04150390625
vt 0.4619140625 0.04150390625
vt 0.42431640625 0.04150390625
vt 0.42431640625 0.06787109375
vt 0.398193359375 0.06787109375
vt 0.398193359375 0.06787109375
vt 0.398193359375 0.04150390625
vt 0.42431640625 0.04150390625
vt 0.3720703125 0.04150390625
vt 0.398193359375 0.04150390625
vt 0.398193359375 0.06787109375
vt 0.398193359375 0.06787109375
vt 0.3720703125 0.06787109375
vt 0.3720703125 0.04150390625
vt 0.3720703125 0.04150390625
vt 0.3720703125 0.06787109375
vt 0.33447265625 0.06787109375
vt 0.33447265625 0.06787109375
vt 0.334228515625 0.04150390625
vt 0.3720703125 0.04150390625
vt 0.334228515625 0.04150390625
vt 0.33447265625 0.06787109375
vt 0.295654296875 0.06787109375
vt 0.295654296875 0.06787109375
vt 0.295654296875 0.04150390625
vt 0.334228515625 0.04150390625
vt 0.26171875 0.04150390625
vt 0.295654296875 0.04150390625
vt 0.295654296875 0.06787109375
vt 0.295654296875 0.06787109375
vt 0.26171875 0.06787109375
vt 0.26171875 0.04150390625
vt 0.26171875 0.06787109375
vt 0.2333984375 0.04150390625
vt 0.26171875 0.04150390625
vt 0.26171875 0.06787109375
vt 0.2333984375 0.06787109375
vt 0.2333984375 0.04150390625
vt 0.1990966796875 0.04150390625
vt 0.2333984375 0.04150390625
vt 0.2333984375 0.06787109375
vt 0.2333984375 0.06787109375
vt 0.1990966796875 0.06787109375
vt 0.1990966796875 0.04150390625
vt 0.146728515625 0.04150390625
vt 0.1990966796875 0.04150390625
vt 0.1990966796875 0.06787109375
vt 0.1990966796875 0.06787109375
vt 0.146728515625 0.06787109375
vt 0.146728515625 0.04150390625
vt 0.11480712890625 0.04150390625
vt 0.146728515625 0.04150390625
vt 0.146728515625 0.06787109375
vt 0.146728515625 0.06787109375
vt 0.11480712890625 0.06787109375
vt 0.11480712890625 0.04150390625
vt 0.0880126953125 0.04150390625
vt 0.11480712890625 0.04150390625
vt 0.11480712890625 0.06787109375
vt 0.11480712890625 0.06787109375
vt 0.0880126953125 0.06787109375
vt 0.0880126953125 0.04150390625
vt 0.0667724609375 0.04150390625
vt 0.0880126953125 0.04150390625
vt 0.0880126953125 0.06787109375
vt 0.0880126953125 0.06787109375
vt 0.0667724609375 0.06787109375
vt 0.0667724609375 0.04150390625
vt 0.0460205078125 0.04150390625
vt 0.0667724609375 0.04150390625
vt 0.0667724609375 0.06787109375
vt 0.0667724609375 0.06787109375
vt 0.0460205078125 0.06787109375
vt 0.0460205078125 0.04150390625
vt 0.003177642822265625 0.04150390625
vt 0.0460205078125 0.04150390625
vt 0.0460205078125 0.06787109375
vt 0.0460205078125 0.06787109375
vt 0.003177642822265625 0.06787109375
vt 0.003177642822265625 0.04150390625
vt 0.1495361328125 0.549560546875
vt 0.0030727386474609375 0.549560546875
vt 0.0030994415283203125 0.09423828125
vt 0.1920166015625 0.613037109375
vt 0.1495361328125 0.607177734375
vt 0.1495361328125 0.549560546875
vt 0.0030994415283203125 0.09423828125
vt 0.50048828125 0.09423828125
vt 0.1495361328125 0.549560546875
vt 0.1495361328125 0.549560546875
vt 0.50048828125 0.09423828125
vt 0.1920166015625 0.613037109375
vt 0.2120361328125 0.61865234375
vt 0.1920166015625 0.613037109375
vt 0.50048828125 0.09423828125
vt 0.2314453125 0.627197265625
vt 0.2120361328125 0.61865234375
vt 0.50048828125 0.09423828125
vt 0.253173828125 0.642822265625
vt 0.2314453125 0.627197265625
vt 0.50048828125 0.09423828125
vt 0.277099609375 0.6640625
vt 0.253173828125 0.642822265625
vt 0.50048828125 0.09423828125
vt 0.31591796875 0.69921875
vt 0.277099609375 0.6640625
vt 0.50048828125 0.09423828125
vt 0.34375 0.71923828125
vt 0.31591796875 0.69921875
vt 0.50048828125 0.09423828125
vt 0.34375 0.71923828125
vt 0.50048828125 0.09423828125
vt 0.36865234375 0.73291015625
vt 0.39990234375 0.745849609375
vt 0.36865234375 0.73291015625
vt 0.50048828125 0.09423828125
vt 0.4375 0.755126953125
vt 0.39990234375 0.745849609375
vt 0.50048828125 0.09423828125
vt 0.474853515625 0.7601318359375
vt 0.4375 0.755126953125
vt 0.50048828125 0.09423828125
vt 0.50048828125 0.76123046875
vt 0.474853515625 0.7601318359375
vt 0.50048828125 0.09423828125
vt 0.50048828125 0.76123046875
vt 0.50048828125 0.09423828125
vt 0.52685546875 0.7601318359375
vt 0.50048828125 0.09423828125
vt 0.56396484375 0.755126953125
vt 0.52685546875 0.7601318359375
vt 0.56396484375 0.755126953125
vt 0.50048828125 0.09423828125
vt 0.6015625 0.745849609375
vt 0.6015625 0.745849609375
vt 0.50048828125 0.09423828125
vt 0.6328125 0.73291015625
vt 0.6328125 0.73291015625
vt 0.50048828125 0.09423828125
vt 0.65771484375 0.71923828125
vt 0.65771484375 0.71923828125
vt 0.50048828125 0.09423828125
vt 0.685546875 0.69921875
vt 0.685546875 0.69921875
vt 0.50048828125 0.09423828125
vt 0.724609375 0.6640625
vt 0.724609375 0.6640625
vt 0.50048828125 0.09423828125
vt 0.74853515625 0.642822265625
vt 0.74853515625 0.642822265625
vt 0.50048828125 0.09423828125
vt 0.77001953125 0.627197265625
vt 0.77001953125 0.627197265625
vt 0.50048828125 0.09423828125
vt 0.78955078125 0.61865234375
vt 0.78955078125 0.61865234375
vt 0.50048828125 0.09423828125
vt 0.8095703125 0.613037109375
vt 0.8095703125 0.613037109375
vt 0.50048828125 0.09423828125
vt 0.85205078125 0.549560546875
vt 0.85205078125 0.549560546875
vt 0.85205078125 0.607177734375
vt 0.8095703125 0.613037109375
vt 0.85205078125 0.549560546875
vt 0.50048828125 0.09423828125
vt 0.99853515625 0.09423828125
vt 0.99853515625 0.09423828125
vt 0.99853515625 0.549560546875
vt 0.85205078125 0.549560546875
vt 0.0031032562255859375 0.0986328125
vt 0.0031032562255859375 0.072265625
vt 0.50048828125 0.072265625
vt 0.50048828125 0.072265625
vt 0.50048828125 0.0986328125
vt 0.0031032562255859375 0.0986328125
vt 0.99853515625 0.0986328125
vt 0.50048828125 0.0986328125
vt 0.50048828125 0.072265625
vt 0.50048828125 0.072265625
vt 0.99853515625 0.072265625
vt 0.99853515625 0.0986328125
vn -0.6591156721115112 0.2560167610645294 0.707122266292572
vn -0.608562171459198 -0.7339938282966614 0.3015047013759613
vn -0.7815189957618713 -0.32385745644569397 0.5332395434379578
vn -0.7024333477020264 0.2728416621685028 0.6573771834373474
vn -0.7472222447395325 -0.32910478115081787 -0.5773637294769287
vn -0.7472195029258728 -0.329134464263916 0.5773504376411438
vn -0.6591414213180542 0.25602710247039795 0.7070944905281067
vn -0.6591308116912842 0.25602298974990845 -0.7071058750152588
vn 0.6591122150421143 -0.25602367520332336 0.7071229815483093
vn 0.7024284601211548 -0.27284911274909973 0.6573793292045593
vn 0.3580009341239929 -0.7664790153503418 0.5332401990890503
vn -0.04645717516541481 -0.9523324966430664 0.3015039563179016
vn 0.32915428280830383 -0.7472008466720581 -0.5773633122444153
vn 0.6591289043426514 -0.25602594017982483 -0.7071066498756409
vn 0.6591396927833557 -0.2560301423072815 0.7070950269699097
vn 0.32913216948509216 -0.7472206950187683 0.5773503184318542
vn -0.3948984146118164 -0.6229264736175537 0.6752908825874329
vn -0.19253836572170258 0.07478785514831543 0.9784353375434875
vn -0.4813616871833801 -0.5883545875549316 0.6497151851654053
vn -0.3178558647632599 0.12346415966749191 0.9400660991668701
vn -0.5793588757514954 -0.5587595105171204 0.5934062600135803
vn -0.4610869586467743 0.17909863591194153 0.8690928816795349
vn -0.6637139320373535 -0.5138610601425171 0.5435353517532349
vn -0.580505907535553 0.22548529505729675 0.7824125289916992
vn -0.6957604289054871 -0.48961368203163147 0.5255435109138489
vn -0.622323751449585 0.24173009395599365 0.744499683380127
vn -0.6721748113632202 -0.4836430251598358 0.5605981945991516
vn -0.5846546292304993 0.22709977626800537 0.7788482308387756
vn -0.6096091866493225 -0.5084497332572937 0.6081575155258179
vn -0.497807115316391 0.19336430728435516 0.8454574942588806
vn -0.5437931418418884 -0.5340060591697693 0.6473996639251709
vn -0.40630844235420227 0.15781983733177185 0.9000035524368286
vn -0.46101415157318115 -0.5614739656448364 0.6871775388717651
vn -0.2918097972869873 0.11332790553569794 0.9497388005256653
vn -0.17397840321063995 0.06724712997674942 0.9824506044387817
vn -0.3764704465866089 -0.5996612310409546 0.7061702609062195
vn -0.31021568179130554 -0.6270652413368225 0.714531660079956
vn -0.08085713535547256 0.031270842999219894 0.9962350726127625
vn -0.25279074907302856 -0.6507886648178101 0.715940535068512
vn -1.0799466565458715e-07 4.1536409867148905e-08 1.0
vn 0.08076344430446625 -0.03150387480854988 0.9962352514266968
vn -0.1944075971841812 -0.672056257724762 0.7145251035690308
vn -0.12701106071472168 -0.696554958820343 0.7061722874641418
vn 0.17375878989696503 -0.0678216814994812 0.9824500679969788
vn -0.038863323628902435 -0.7254481911659241 0.6871786713600159
vn 0.2917965352535248 -0.11336207389831543 0.9497388005256653
vn 0.40630683302879333 -0.1578265279531479 0.9000030159950256
vn 0.04074674844741821 -0.7610607743263245 0.6473994851112366
vn 0.4978061616420746 -0.19336244463920593 0.8454583883285522
vn 0.10655906796455383 -0.7866321206092834 0.6081570386886597
vn 0.5846549868583679 -0.22709956765174866 0.7788480520248413
vn 0.16946879029273987 -0.8105632662773132 0.5605957508087158
vn 0.6223235726356506 -0.24173206090927124 0.744499146938324
vn 0.18283817172050476 -0.8308885097503662 0.525542140007019
vn 0.5805053114891052 -0.22548839449882507 0.782412052154541
vn 0.14282722771167755 -0.8271458745002747 0.5435348153114319
vn 0.4610850214958191 -0.17910142242908478 0.8690933585166931
vn 0.05028185620903969 -0.8033312559127808 0.5934060215950012
vn 0.3178544342517853 -0.12346621602773666 0.9400662779808044
vn -0.04200078174471855 -0.7590141892433167 0.6497180461883545
vn 0.19253845512866974 -0.07478833943605423 0.9784353375434875
vn -0.12913024425506592 -0.7261599898338318 0.6752902865409851
vn -0.256013423204422 -0.659098207950592 -0.7071397304534912
vn 0.0 0.0 -1.0
f 1/1/1 2/2/2 3/3/3
f 3/4/3 4/5/4 1/6/1
f 5/7/5 6/8/6 7/9/7
f 7/10/7 8/11/8 5/12/5
f 2/13/2 1/14/1 7/15/7
f 7/16/7 6/17/6 2/18/2
f 9/19/9 10/20/10 11/21/11
f 11/22/11 12/23/12 9/24/9
f 13/25/13 14/26/14 15/27/15
f 15/28/15 16/29/16 13/30/13
f 12/31/12 16/32/16 15/33/15
f 15/34/15 9/35/9 12/36/12
f 4/37/4 3/38/3 17/39/17
f 17/40/17 18/41/18 4/42/4
f 18/43/18 17/44/17 19/45/19
f 19/46/19 20/47/20 18/48/18
f 20/49/20 19/50/19 21/51/21
f 21/52/21 22/53/22 20/54/20
f 22/55/22 21/56/21 23/57/23
f 23/58/23 24/59/24 22/60/22
f 24/61/24 23/62/23 25/63/25
f 25/64/25 26/65/26 24/66/24
f 26/67/26 25/68/25 27/69/27
f 27/70/27 28/71/28 26/72/26
f 28/73/28 27/74/27 29/75/29
f 29/76/29 30/77/30 28/78/28
f 30/79/30 29/80/29 31/81/31
f 32/82/32 30/83/30 31/84/31
f 32/85/32 31/86/31 33/87/33
f 33/88/33 34/89/34 32/90/32
f 35/91/35 34/92/34 33/93/33
f 33/94/33 36/95/36 35/96/35
f 35/97/35 36/98/36 37/99/37
f 37/100/37 38/101/38 35/102/35
f 38/103/38 37/104/37 39/105/39
f 39/106/39 40/107/40 38/108/38
f 41/109/41 40/110/40 39/111/39
f 39/112/39 42/113/42 41/114/41
f 41/115/41 42/116/42 43/117/43
f 43/118/43 44/119/44 41/120/41
f 44/121/44 43/122/43 45/123/45
f 45/124/45 46/125/46 44/126/44
f 47/127/47 46/128/46 45/129/45
f 45/130/45 48/131/48 47/132/47
f 48/133/48 49/134/49 47/135/47
f 48/136/48 50/137/50 49/138/49
f 51/139/51 49/140/49 50/141/50
f 50/142/50 52/143/52 51/144/51
f 53/145/53 51/146/51 52/147/52
f 52/148/52 54/149/54 53/150/53
f 55/151/55 53/152/53 54/153/54
f 54/154/54 56/155/56 55/156/55
f 57/157/57 55/158/55 56/159/56
f 56/160/56 58/161/58 57/162/57
f 59/163/59 57/164/57 58/165/58
f 58/166/58 60/167/60 59/168/59
f 61/169/61 59/170/59 60/171/60
f 60/172/60 62/173/62 61/174/61
f 10/175/10 61/176/61 62/177/62
f 62/178/62 11/179/11 10/180/10
f 2/181/2 6/182/6 5/183/5
f 17/184/17 3/185/3 2/186/2
f 5/187/5 63/188/63 2/189/2
f 2/190/2 63/191/63 17/192/17
f 19/193/19 17/194/17 63/195/63
f 21/196/21 19/197/19 63/198/63
f 23/199/23 21/200/21 63/201/63
f 25/202/25 23/203/23 63/204/63
f 27/205/27 25/206/25 63/207/63
f 29/208/29 27/209/27 63/210/63
f 29/211/29 63/212/63 31/213/31
f 33/214/33 31/215/31 63/216/63
f 36/217/36 33/218/33 63/219/63
f 37/220/37 36/221/36 63/222/63
f 39/223/39 37/224/37 63/225/63
f 39/226/39 63/227/63 42/228/42
f 63/229/63 43/230/43 42/231/42
f 43/232/43 63/233/63 45/234/45
f 45/235/45 63/236/63 48/237/48
f 48/238/48 63/239/63 50/240/50
f 50/241/50 63/242/63 52/243/52
f 52/244/52 63/245/63 54/246/54
f 54/247/54 63/248/63 56/249/56
f 56/250/56 63/251/63 58/252/58
f 58/253/58 63/254/63 60/255/60
f 60/256/60 63/257/63 62/258/62
f 62/259/62 63/260/63 12/261/12
f 12/262/12 11/263/11 62/264/62
f 12/265/12 63/266/63 13/267/13
f 13/268/13 16/269/16 12/270/12
f 5/271/5 8/272/8 64/273/64
f 64/274/64 63/275/63 5/276/5
f 13/277/13 63/278/63 64/279/64
f 64/280/64 14/281/14 13/282/13
