# Exported by Lightwave Blender addon
v -274.23858642578125 -1648.480712890625 853.8178100585938
v -274.2385559082031 -1648.480712890625 1014.1498413085938
v -259.4327087402344 -1654.3687744140625 853.8158569335938
v -259.43267822265625 -1654.368896484375 1014.150634765625
v -296.181640625 -1665.6455078125 853.8179321289062
v -296.1817932128906 -1665.6458740234375 1014.1497192382812
v -292.2909240722656 -1656.13037109375 853.8179321289062
v -292.2910461425781 -1656.1307373046875 1014.1497802734375
v -295.6369934082031 -1666.9554443359375 853.8178100585938
v -269.097900390625 -1678.010986328125 853.8158569335938
v -295.6371765136719 -1666.9560546875 1014.1497802734375
v -269.0980529785156 -1678.0113525390625 1014.150634765625
v -276.05419921875 -1648.5738525390625 853.8176879882812
v -282.97296142578125 -1652.186767578125 853.8158569335938
v -276.0541687011719 -1648.5738525390625 1014.1498413085938
v -282.9729919433594 -1652.18701171875 1014.150634765625
v -290.9651184082031 -1654.8853759765625 1014.1498413085938
v -290.9649658203125 -1654.885009765625 853.8176879882812
v -243.0553741455078 -1572.2205810546875 853.8178100585938
v -228.3656768798828 -1578.39306640625 853.8158569335938
v -243.05532836914062 -1572.2205810546875 1014.1498413085938
v -228.3656463623047 -1578.3931884765625 1014.150634765625
v -246.68492126464844 -1544.5989990234375 853.8179321289062
v -250.57559204101562 -1554.1138916015625 853.8179321289062
v -246.68472290039062 -1544.5985107421875 1014.1497192382812
v -250.57540893554688 -1554.1134033203125 1014.1497802734375
v -245.3783721923828 -1544.0457763671875 853.8178100585938
v -245.378173828125 -1544.04541015625 1014.1497802734375
v -218.69674682617188 -1554.752685546875 853.8158569335938
v -218.696533203125 -1554.752197265625 1014.150634765625
v -244.285400390625 -1570.8818359375 853.8176879882812
v -244.28538513183594 -1570.8818359375 1014.1498413085938
v -246.69046020507812 -1563.4564208984375 853.8158569335938
v -246.69032287597656 -1563.4561767578125 1014.150634765625
v -250.5020294189453 -1555.93115234375 1014.1498413085938
v -250.502197265625 -1555.9315185546875 853.8176879882812
v -282.0818786621094 -1652.6405029296875 852.8155517578125
v -290.9907531738281 -1655.5927734375 852.817626953125
v -282.0819091796875 -1652.640869140625 1015.1507568359375
v -275.1112976074219 -1649.2095947265625 1015.1500854492188
v -290.9908752441406 -1655.5931396484375 1015.14990234375
v -268.71929931640625 -1677.0860595703125 1015.1508178710938
v -295.2586364746094 -1666.0301513671875 1015.1499633789062
v -275.111328125 -1649.2095947265625 852.8171997070312
v -295.25848388671875 -1666.030029296875 852.8174438476562
v -268.7191467285156 -1677.08544921875 852.8153076171875
v -219.07496643066406 -1555.678466796875 852.8153076171875
v -245.75685119628906 -1544.971435546875 852.8174438476562
v -245.7566375732422 -1544.970947265625 1015.1499633789062
v -219.0747528076172 -1555.677978515625 1015.1508178710938
v -245.73667907714844 -1563.7568359375 852.8155517578125
v -243.167236328125 -1571.0888671875 852.8171997070312
v -243.1671905517578 -1571.0888671875 1015.1500854492188
v -245.73654174804688 -1563.7567138671875 1015.1507568359375
v -250.02447509765625 -1555.4080810546875 1015.14990234375
v -250.024658203125 -1555.408447265625 852.817626953125
v -264.4884948730469 -1666.747802734375 1015.1532592773438
v -262.751953125 -1662.4864501953125 1015.1532592773438
v -259.8111572265625 -1655.2945556640625 1015.1509399414062
v -259.8111877441406 -1655.29443359375 852.8151245117188
v -262.75189208984375 -1662.486083984375 852.8096313476562
v -264.4882507324219 -1666.7469482421875 852.8096313476562
v -227.98716735839844 -1577.467529296875 1015.1509399414062
v -225.04637145996094 -1570.2757568359375 1015.1532592773438
v -223.29959106445312 -1566.0184326171875 1015.1532592773438
v -223.2998809814453 -1566.01904296875 852.8096313476562
v -225.04649353027344 -1570.27587890625 852.8096313476562
v -227.9871826171875 -1577.4674072265625 852.8151245117188
vt 0.50341796875 -0.5869140625
vt 0.50341796875 0.21484375
vt 0.423828125 -0.5869140625
vt 0.50341796875 0.21484375
vt 0.423828125 0.21484375
vt 0.423828125 -0.5869140625
vt 0.50927734375 -0.5869140625
vt 0.50927734375 0.21484375
vt 0.458251953125 -0.5869140625
vt 0.50927734375 0.21484375
vt 0.458251953125 0.21484375
vt 0.458251953125 -0.5869140625
vt 0.43212890625 -0.5869140625
vt 0.57568359375 -0.5869140625
vt 0.43212890625 0.21484375
vt 0.57568359375 -0.5869140625
vt 0.57568359375 0.21484375
vt 0.43212890625 0.21484375
vt 0.392578125 -0.5869140625
vt 0.42236328125 -0.5869140625
vt 0.392578125 0.21484375
vt 0.42236328125 -0.5869140625
vt 0.42236328125 0.21484375
vt 0.392578125 0.21484375
vt 0.56884765625 0.21484375
vt 0.537109375 0.21484375
vt 0.56884765625 -0.5869140625
vt 0.537109375 0.21484375
vt 0.537109375 -0.5869140625
vt 0.56884765625 -0.5869140625
vt 0.49609375 -0.5869140625
vt 0.57568359375 -0.5869140625
vt 0.49609375 0.21484375
vt 0.57568359375 -0.5869140625
vt 0.57568359375 0.21484375
vt 0.49609375 0.21484375
vt -0.14404296875 -0.5869140625
vt -0.09271240234375 -0.5869140625
vt -0.14404296875 0.21484375
vt -0.09271240234375 -0.5869140625
vt -0.09271240234375 0.21484375
vt -0.14404296875 0.21484375
vt 0.5673828125 -0.5869140625
vt 0.5673828125 0.21484375
vt 0.423828125 -0.5869140625
vt 0.5673828125 0.21484375
vt 0.423828125 0.21484375
vt 0.423828125 -0.5869140625
vt -0.0270233154296875 -0.5869140625
vt -0.0270233154296875 0.21484375
vt -0.05682373046875 -0.5869140625
vt -0.0270233154296875 0.21484375
vt -0.05682373046875 0.21484375
vt -0.05682373046875 -0.5869140625
vt 0.430908203125 0.21484375
vt 0.430908203125 -0.5869140625
vt 0.462646484375 0.21484375
vt 0.430908203125 -0.5869140625
vt 0.462646484375 -0.5869140625
vt 0.462646484375 0.21484375
vt 0.537109375 -0.5869140625
vt 0.53173828125 -0.591796875
vt 0.56884765625 -0.5869140625
vt 0.53173828125 -0.591796875
vt 0.5673828125 -0.591796875
vt 0.56884765625 -0.5869140625
vt 0.42236328125 0.462890625
vt 0.4228515625 0.46826171875
vt 0.392578125 0.48828125
vt 0.4228515625 0.46826171875
vt 0.393798828125 0.49365234375
vt 0.392578125 0.48828125
vt 0.56884765625 0.21484375
vt 0.5673828125 0.2197265625
vt 0.537109375 0.21484375
vt 0.5673828125 0.2197265625
vt 0.53173828125 0.2197265625
vt 0.537109375 0.21484375
vt 0.57568359375 0.21484375
vt 0.57568359375 0.2197265625
vt 0.43212890625 0.21484375
vt 0.57568359375 0.2197265625
vt 0.43212890625 0.2197265625
vt 0.43212890625 0.21484375
vt 0.60693359375 0.48828125
vt 0.60595703125 0.49365234375
vt 0.5771484375 0.462890625
vt 0.60595703125 0.49365234375
vt 0.57666015625 0.46826171875
vt 0.5771484375 0.462890625
vt 0.43212890625 -0.5869140625
vt 0.43212890625 -0.591796875
vt 0.57568359375 -0.5869140625
vt 0.43212890625 -0.591796875
vt 0.57568359375 -0.591796875
vt 0.57568359375 -0.5869140625
vt 0.423828125 -0.5869140625
vt 0.423828125 -0.591796875
vt 0.5673828125 -0.5869140625
vt 0.423828125 -0.591796875
vt 0.5673828125 -0.591796875
vt 0.5673828125 -0.5869140625
vt 0.5673828125 0.21484375
vt 0.5673828125 0.2197265625
vt 0.423828125 0.21484375
vt 0.5673828125 0.2197265625
vt 0.423828125 0.2197265625
vt 0.423828125 0.21484375
vt 1.056640625 0.462890625
vt 1.056640625 0.46826171875
vt 1.0263671875 0.48828125
vt 1.056640625 0.46826171875
vt 1.02734375 0.49365234375
vt 1.0263671875 0.48828125
vt -0.0270233154296875 0.48828125
vt -0.0281829833984375 0.49365234375
vt -0.05682373046875 0.462890625
vt -0.0281829833984375 0.49365234375
vt -0.0572509765625 0.46826171875
vt -0.05682373046875 0.462890625
vt 0.462646484375 0.21484375
vt 0.4677734375 0.2197265625
vt 0.430908203125 0.21484375
vt 0.4677734375 0.2197265625
vt 0.43212890625 0.2197265625
vt 0.430908203125 0.21484375
vt 0.430908203125 -0.5869140625
vt 0.43212890625 -0.591796875
vt 0.462646484375 -0.5869140625
vt 0.43212890625 -0.591796875
vt 0.4677734375 -0.591796875
vt 0.462646484375 -0.5869140625
vt 0.509765625 0.4326171875
vt 0.51025390625 0.576171875
vt 0.454833984375 0.576171875
vt 0.453369140625 0.4326171875
vt 0.509765625 0.4326171875
vt 0.454833984375 0.576171875
vt 0.453369140625 0.4326171875
vt 0.454833984375 0.576171875
vt 0.431640625 0.576171875
vt 0.4228515625 0.46826171875
vt 0.453369140625 0.4326171875
vt 0.431640625 0.576171875
vt 0.4228515625 0.46826171875
vt 0.431640625 0.576171875
vt 0.392822265625 0.576171875
vt 0.393798828125 0.49365234375
vt 0.4228515625 0.46826171875
vt 0.392822265625 0.576171875
vt 0.60595703125 0.49365234375
vt 0.60693359375 0.576171875
vt 0.57666015625 0.46826171875
vt 0.60693359375 0.576171875
vt 0.56787109375 0.576171875
vt 0.57666015625 0.46826171875
vt 0.57666015625 0.46826171875
vt 0.56787109375 0.576171875
vt 0.54638671875 0.4326171875
vt 0.56787109375 0.576171875
vt 0.544921875 0.576171875
vt 0.54638671875 0.4326171875
vt 0.54638671875 0.4326171875
vt 0.544921875 0.576171875
vt 0.489990234375 0.4326171875
vt 0.544921875 0.576171875
vt 0.4892578125 0.576171875
vt 0.489990234375 0.4326171875
vt -0.0281829833984375 0.49365234375
vt -0.0273895263671875 0.576171875
vt -0.0572509765625 0.46826171875
vt -0.0273895263671875 0.576171875
vt -0.06622314453125 0.576171875
vt -0.0572509765625 0.46826171875
vt -0.0572509765625 0.46826171875
vt -0.06622314453125 0.576171875
vt -0.0877685546875 0.4326171875
vt -0.06622314453125 0.576171875
vt -0.0892333984375 0.576171875
vt -0.0877685546875 0.4326171875
vt -0.0877685546875 0.4326171875
vt -0.0892333984375 0.576171875
vt -0.14404296875 0.4326171875
vt -0.0892333984375 0.576171875
vt -0.14501953125 0.576171875
vt -0.14404296875 0.4326171875
vt 1.1435546875 0.4326171875
vt 1.14453125 0.576171875
vt 1.0888671875 0.576171875
vt 1.0869140625 0.4326171875
vt 1.1435546875 0.4326171875
vt 1.0888671875 0.576171875
vt 1.0869140625 0.4326171875
vt 1.0888671875 0.576171875
vt 1.0654296875 0.576171875
vt 1.056640625 0.46826171875
vt 1.0869140625 0.4326171875
vt 1.0654296875 0.576171875
vt 1.056640625 0.46826171875
vt 1.0654296875 0.576171875
vt 1.02734375 0.576171875
vt 1.02734375 0.49365234375
vt 1.056640625 0.46826171875
vt 1.02734375 0.576171875
vt 0.50634765625 0.2197265625
vt 0.423828125 0.2197265625
vt 0.423828125 0.21484375
vt 0.50341796875 0.21484375
vt 0.50634765625 0.2197265625
vt 0.423828125 0.21484375
vt 0.51171875 0.21484375
vt 0.50634765625 0.2197265625
vt 0.50341796875 0.21484375
vt 0.51171875 -0.5869140625
vt 0.51171875 0.21484375
vt 0.50341796875 0.21484375
vt 0.50341796875 -0.5869140625
vt 0.51171875 -0.5869140625
vt 0.50341796875 0.21484375
vt 0.50634765625 -0.591796875
vt 0.51171875 -0.5869140625
vt 0.50341796875 -0.5869140625
vt 0.423828125 -0.591796875
vt 0.50634765625 -0.591796875
vt 0.50341796875 -0.5869140625
vt 0.423828125 -0.5869140625
vt 0.423828125 -0.591796875
vt 0.50341796875 -0.5869140625
vt 0.493408203125 -0.591796875
vt 0.57568359375 -0.591796875
vt 0.57568359375 -0.5869140625
vt 0.49609375 -0.5869140625
vt 0.493408203125 -0.591796875
vt 0.57568359375 -0.5869140625
vt 0.488037109375 -0.5869140625
vt 0.493408203125 -0.591796875
vt 0.49609375 -0.5869140625
vt 0.488037109375 0.21484375
vt 0.488037109375 -0.5869140625
vt 0.49609375 -0.5869140625
vt 0.49609375 0.21484375
vt 0.488037109375 0.21484375
vt 0.49609375 -0.5869140625
vt 0.493408203125 0.2197265625
vt 0.488037109375 0.21484375
vt 0.49609375 0.21484375
vt 0.57568359375 0.2197265625
vt 0.493408203125 0.2197265625
vt 0.49609375 0.21484375
vt 0.57568359375 0.21484375
vt 0.57568359375 0.2197265625
vt 0.49609375 0.21484375
vt 0.50927734375 -0.5869140625
vt 0.509765625 -0.591796875
vt 0.5146484375 -0.5869140625
vt 0.453369140625 -0.591796875
vt 0.509765625 -0.591796875
vt 0.50927734375 -0.5869140625
vt 0.50927734375 -0.5869140625
vt 0.5146484375 -0.5869140625
vt 0.50927734375 0.21484375
vt 0.458251953125 -0.5869140625
vt 0.453369140625 -0.591796875
vt 0.50927734375 -0.5869140625
vt 0.5146484375 -0.5869140625
vt 0.5146484375 0.21484375
vt 0.50927734375 0.21484375
vt 0.458251953125 -0.5869140625
vt 0.449951171875 -0.5869140625
vt 0.453369140625 -0.591796875
vt 0.5146484375 0.21484375
vt 0.509765625 0.2197265625
vt 0.50927734375 0.21484375
vt 0.449951171875 0.21484375
vt 0.449951171875 -0.5869140625
vt 0.458251953125 -0.5869140625
vt 0.50927734375 0.21484375
vt 0.509765625 0.2197265625
vt 0.458251953125 0.21484375
vt 0.458251953125 0.21484375
vt 0.449951171875 0.21484375
vt 0.458251953125 -0.5869140625
vt 0.509765625 0.2197265625
vt 0.453369140625 0.2197265625
vt 0.458251953125 0.21484375
vt 0.453369140625 0.2197265625
vt 0.449951171875 0.21484375
vt 0.458251953125 0.21484375
vt -0.09271240234375 0.21484375
vt -0.08441162109375 0.21484375
vt -0.0877685546875 0.2197265625
vt -0.08441162109375 -0.5869140625
vt -0.08441162109375 0.21484375
vt -0.09271240234375 0.21484375
vt -0.09271240234375 0.21484375
vt -0.0877685546875 0.2197265625
vt -0.14404296875 0.21484375
vt -0.09271240234375 -0.5869140625
vt -0.08441162109375 -0.5869140625
vt -0.09271240234375 0.21484375
vt -0.0877685546875 0.2197265625
vt -0.14404296875 0.2197265625
vt -0.14404296875 0.21484375
vt -0.09271240234375 -0.5869140625
vt -0.0877685546875 -0.591796875
vt -0.08441162109375 -0.5869140625
vt -0.14404296875 0.2197265625
vt -0.1490478515625 0.21484375
vt -0.14404296875 0.21484375
vt -0.14404296875 -0.591796875
vt -0.0877685546875 -0.591796875
vt -0.09271240234375 -0.5869140625
vt -0.14404296875 0.21484375
vt -0.1490478515625 0.21484375
vt -0.14404296875 -0.5869140625
vt -0.14404296875 -0.5869140625
vt -0.14404296875 -0.591796875
vt -0.09271240234375 -0.5869140625
vt -0.1490478515625 0.21484375
vt -0.1490478515625 -0.5869140625
vt -0.14404296875 -0.5869140625
vt -0.1490478515625 -0.5869140625
vt -0.14404296875 -0.591796875
vt -0.14404296875 -0.5869140625
vn 0.17600855231285095 0.9222089648246765 -0.34431320428848267
vn 0.17601513862609863 0.9221713542938232 0.34441062808036804
vn 0.34151145815849304 0.8588765859603882 -0.3817077577114105
vn 0.341533362865448 0.8588297963142395 0.38179370760917664
vn -0.9398107528686523 0.016930921003222466 -0.34127572178840637
vn -0.9397940635681152 0.016950160264968872 0.34132078289985657
vn -0.7953314781188965 0.5042905807495117 -0.3363610506057739
vn -0.795316219329834 0.5042855143547058 0.3364049196243286
vn -0.6508431434631348 -0.6781880855560303 -0.3412682116031647
vn -0.35539764165878296 -0.8530751466751099 -0.3820408284664154
vn -0.6508244872093201 -0.678146243095398 0.34138715267181396
vn -0.35537391901016235 -0.8530738949775696 0.38206586241722107
vn -0.26952433586120605 0.8993236422538757 -0.344345360994339
vn -0.3591274619102478 0.8757434487342834 -0.3226469159126282
vn -0.265644371509552 0.9023011326789856 0.339537650346756
vn -0.36091479659080505 0.8759716749191284 0.32002192735671997
vn -0.4816414713859558 0.8366065621376038 0.2609807550907135
vn -0.48047688603401184 0.8369442224502563 -0.26204273104667664
vn -0.520601212978363 -0.7812777161598206 -0.34435370564460754
vn -0.3580954670906067 -0.8520945310592651 -0.381710022687912
vn -0.5205724239349365 -0.7812556028366089 0.344447523355484
vn -0.35806185007095337 -0.8520730137825012 0.38178959488868713
vn -0.6824448704719543 0.6463765501976013 -0.34127160906791687
vn -0.9208021759986877 0.19746336340904236 -0.3363504409790039
vn -0.6824074387550354 0.6463903188705444 0.3413204848766327
vn -0.9207805395126343 0.19746331870555878 0.3364097476005554
vn 0.010770945809781551 0.9398913383483887 -0.34130343794822693
vn 0.010813294909894466 0.9398850798606873 0.3413195013999939
vn 0.3441428244113922 0.8576744198799133 -0.38204747438430786
vn 0.3441435396671295 0.8576419949531555 0.3821195960044861
vn -0.8217652440071106 -0.45767056941986084 -0.33946946263313293
vn -0.8224385976791382 -0.45272207260131836 0.3444378674030304
vn -0.871269702911377 -0.3721254765987396 -0.32001814246177673
vn -0.8698204159736633 -0.37320026755332947 0.3226979970932007
vn -0.9292246699333191 -0.26049870252609253 0.26207247376441956
vn -0.9298379421234131 -0.25941202044487 -0.2609730064868927
vn -0.17007692158222198 0.3906417489051819 -0.9046948552131653
vn -0.34665927290916443 0.4250837564468384 -0.8361406922340393
vn -0.17232854664325714 0.38334766030311584 0.9073849320411682
vn -0.02096262015402317 0.4843943417072296 0.8745986223220825
vn -0.34734442830085754 0.4241587221622467 0.8363259434700012
vn -0.147752583026886 -0.35461992025375366 0.9232626557350159
vn -0.4467109739780426 -0.18561507761478424 0.8752121329307556
vn -0.024359388276934624 0.4846934676170349 -0.8743448257446289
vn -0.4468190371990204 -0.1857219636440277 -0.875134289264679
vn -0.14785484969615936 -0.3547578752040863 -0.9231931567192078
vn 0.1430697739124298 0.35670778155326843 -0.9231957793235779
vn -0.18870504200458527 0.44554832577705383 -0.8751440644264221
vn -0.1886291205883026 0.445499986410141 0.875184953212738
vn 0.143025204539299 0.35649198293685913 0.9232861399650574
vn -0.3916455805301666 -0.1528097242116928 -0.9073383212089539
vn -0.3544504940509796 -0.33103147149086 -0.874518632888794
vn -0.3568723499774933 -0.3285738527774811 0.8744605779647827
vn -0.3949269652366638 -0.1595049947500229 0.9047601819038391
vn -0.5450966954231262 -0.060447655618190765 0.8361911773681641
vn -0.5450996160507202 -0.05920178070664406 -0.8362783789634705
vn -0.00010918262705672532 -4.5388082071440294e-05 1.0
vn -4.3372252548579127e-05 0.00016999659419525415 0.9999999403953552
vn 0.1421760469675064 0.35766369104385376 0.9229640960693359
vn 0.14218932390213013 0.35795384645462036 -0.9228495359420776
vn -0.00010349234071327373 0.0004023135406896472 -0.9999999403953552
vn -0.00025930869742296636 -0.00010281796130584553 -1.0
vn -0.14916250109672546 -0.3548159599304199 0.9229605197906494
vn -0.00015005744353402406 -9.090497042052448e-05 0.9999999403953552
vn -4.609876123140566e-05 0.0001088845674530603 1.0
vn -0.00011297121818643063 0.000255055318120867 -1.0
vn -0.0003557292220648378 -0.00021453974477481097 -0.9999998211860657
vn -0.14934375882148743 -0.35502228140830994 -0.9228519201278687
f 1/1/1 2/2/2 3/3/3
f 2/4/2 4/5/4 3/6/3
f 5/7/5 6/8/6 7/9/7
f 6/10/6 8/11/8 7/12/7
f 9/13/9 10/14/10 11/15/11
f 10/16/10 12/17/12 11/18/11
f 13/19/13 14/20/14 15/21/15
f 14/22/14 16/23/16 15/24/15
f 17/25/17 16/26/16 18/27/18
f 16/28/16 14/29/14 18/30/18
f 19/31/19 20/32/20 21/33/21
f 20/34/20 22/35/22 21/36/21
f 23/37/23 24/38/24 25/39/25
f 24/40/24 26/41/26 25/42/25
f 27/43/27 28/44/28 29/45/29
f 28/46/28 30/47/30 29/48/29
f 31/49/31 32/50/32 33/51/33
f 32/52/32 34/53/34 33/54/33
f 35/55/35 36/56/36 34/57/34
f 36/58/36 33/59/33 34/60/34
f 14/61/14 37/62/37 18/63/18
f 37/64/37 38/65/38 18/66/18
f 16/67/16 39/68/39 15/69/15
f 39/70/39 40/71/40 15/72/15
f 17/73/17 41/74/41 16/75/16
f 41/76/41 39/77/39 16/78/16
f 12/79/12 42/80/42 11/81/11
f 42/82/42 43/83/43 11/84/11
f 13/85/13 44/86/44 14/87/14
f 44/88/44 37/89/37 14/90/14
f 9/91/9 45/92/45 10/93/10
f 45/94/45 46/95/46 10/96/10
f 29/97/29 47/98/47 27/99/27
f 47/100/47 48/101/48 27/102/27
f 28/103/28 49/104/49 30/105/30
f 49/106/49 50/107/50 30/108/30
f 33/109/33 51/110/51 31/111/31
f 51/112/51 52/113/52 31/114/31
f 32/115/32 53/116/53 34/117/34
f 53/118/53 54/119/54 34/120/34
f 34/121/34 54/122/54 35/123/35
f 54/124/54 55/125/55 35/126/35
f 36/127/36 56/128/56 33/129/33
f 56/130/56 51/131/51 33/132/33
f 43/133/43 42/134/42 57/135/57
f 41/136/41 43/137/43 57/138/57
f 41/139/41 57/140/57 58/141/58
f 39/142/39 41/143/41 58/144/58
f 39/145/39 58/146/58 59/147/59
f 40/148/40 39/149/39 59/150/59
f 44/151/44 60/152/60 37/153/37
f 60/154/60 61/155/61 37/156/37
f 37/157/37 61/158/61 38/159/38
f 61/160/61 62/161/62 38/162/38
f 38/163/38 62/164/62 45/165/45
f 62/166/62 46/167/46 45/168/45
f 53/169/53 63/170/63 54/171/54
f 63/172/63 64/173/64 54/174/54
f 54/175/54 64/176/64 55/177/55
f 64/178/64 65/179/65 55/180/55
f 55/181/55 65/182/65 49/183/49
f 65/184/65 50/185/50 49/186/49
f 48/187/48 47/188/47 66/189/66
f 56/190/56 48/191/48 66/192/66
f 56/193/56 66/194/66 67/195/67
f 51/196/51 56/197/56 67/198/67
f 51/199/51 67/200/67 68/201/68
f 52/202/52 51/203/51 68/204/68
f 40/205/40 59/206/59 4/207/4
f 2/208/2 40/209/40 4/210/4
f 15/211/15 40/212/40 2/213/2
f 13/214/13 15/215/15 2/216/2
f 1/217/1 13/218/13 2/219/2
f 44/220/44 13/221/13 1/222/1
f 60/223/60 44/224/44 1/225/1
f 3/226/3 60/227/60 1/228/1
f 52/229/52 68/230/68 20/231/20
f 19/232/19 52/233/52 20/234/20
f 31/235/31 52/236/52 19/237/19
f 32/238/32 31/239/31 19/240/19
f 21/241/21 32/242/32 19/243/19
f 53/244/53 32/245/32 21/246/21
f 63/247/63 53/248/53 21/249/21
f 22/250/22 63/251/63 21/252/21
f 5/253/5 45/254/45 9/255/9
f 38/256/38 45/257/45 5/258/5
f 5/259/5 9/260/9 6/261/6
f 7/262/7 38/263/38 5/264/5
f 9/265/9 11/266/11 6/267/6
f 7/268/7 18/269/18 38/270/38
f 11/271/11 43/272/43 6/273/6
f 17/274/17 18/275/18 7/276/7
f 6/277/6 43/278/43 8/279/8
f 8/280/8 17/281/17 7/282/7
f 43/283/43 41/284/41 8/285/8
f 41/286/41 17/287/17 8/288/8
f 26/289/26 35/290/35 55/291/55
f 36/292/36 35/293/35 26/294/26
f 26/295/26 55/296/55 25/297/25
f 24/298/24 36/299/36 26/300/26
f 55/301/55 49/302/49 25/303/25
f 24/304/24 56/305/56 36/306/36
f 49/307/49 28/308/28 25/309/25
f 48/310/48 56/311/56 24/312/24
f 25/313/25 28/314/28 23/315/23
f 23/316/23 48/317/48 24/318/24
f 28/319/28 27/320/27 23/321/23
f 27/322/27 48/323/48 23/324/23
