# Exported by Lightwave Blender addon
v -3.6417839527130127 581.3743286132812 1426.5599365234375
v 7.695953845977783 581.3743286132812 1418.3839111328125
v 20.097747802734375 581.3397827148438 1447.9627685546875
v 350.2655029296875 599.7943115234375 1683.07763671875
v 350.4509582519531 599.5413208007812 1675.618408203125
v 291.7577209472656 598.068603515625 1669.6092529296875
v 28.528839111328125 581.3639526367188 1502.8284912109375
v 39.866607666015625 581.3639526367188 1494.6524658203125
v 55.58244323730469 581.2908935546875 1530.4566650390625
v 49.41998291015625 581.2618408203125 1541.2772216796875
v 77.44486236572266 581.3975219726562 1567.0794677734375
v 77.48477935791016 581.3838500976562 1579.587890625
v 78.88123321533203 593.3336791992188 1579.497314453125
v 78.84131622314453 593.3473510742188 1566.9888916015625
v 56.969024658203125 593.1927490234375 1530.3428955078125
v 50.8072509765625 593.157958984375 1541.1612548828125
v 41.202850341796875 593.2904663085938 1494.557373046875
v 29.865081787109375 593.2904663085938 1502.7333984375
v 21.410369873046875 593.2573852539062 1447.8663330078125
v 10.0726318359375 593.2573852539062 1456.0423583984375
v 108.61325073242188 581.8820190429688 1597.362548828125
v 109.39773559570312 581.927734375 1606.7972412109375
v 147.93447875976562 582.6152954101562 1629.6142578125
v 147.91261291503906 582.6951293945312 1637.0718994140625
v 148.65858459472656 595.1251831054688 1636.8941650390625
v 148.68045043945312 595.0452880859375 1629.4364013671875
v 109.70446014404297 594.0770874023438 1597.206298828125
v 110.48502349853516 594.1226806640625 1606.643310546875
v 188.85765075683594 583.326171875 1647.3876953125
v 188.90504455566406 583.3530883789062 1654.71142578125
v 233.32907104492188 584.2291870117188 1663.3564453125
v 233.2333221435547 584.2192993164062 1670.814208984375
v 234.0474395751953 596.7025756835938 1670.6397705078125
v 234.1431884765625 596.7125244140625 1663.1820068359375
v 189.61431884765625 595.83837890625 1647.245849609375
v 189.66249084472656 595.8667602539062 1654.5694580078125
v 291.1507873535156 585.7032470703125 1669.8671875
v 290.99853515625 585.7940063476562 1677.35888671875
v 350.05987548828125 587.3265991210938 1675.9390869140625
v 349.8744201660156 587.5795288085938 1683.398193359375
v 291.60546875 598.1590576171875 1677.100830078125
v 233.32373046875 585.94384765625 1672.5206298828125
v 291.05145263671875 587.5426635742188 1679.0506591796875
v 349.88677978515625 589.367431640625 1685.08203125
v 148.01121520996094 584.4411010742188 1638.77783203125
v 188.9894256591797 585.0860595703125 1656.4312744140625
v 77.69116973876953 583.1008911132812 1581.3055419921875
v 109.6112289428711 583.661376953125 1608.46484375
v 48.87427520751953 582.9759521484375 1542.6671142578125
v 27.3177490234375 583.0838623046875 1503.8271484375
v 8.760009765625 581.3397827148438 1456.1387939453125
v 7.545715808868408 583.06005859375 1457.13720703125
v 28.26861572265625 591.5704956054688 1503.7593994140625
v -4.857451438903809 583.0947265625 1427.55810546875
v 8.4793701171875 591.5371704101562 1457.068603515625
v -3.9310600757598877 591.5665893554688 1427.48828125
v -2.3391716480255127 593.2869873046875 1426.4617919921875
v 8.998565673828125 593.2869873046875 1418.2857666015625
v 350.1671447753906 598.1237182617188 1684.8521728515625
v 233.91259765625 594.973388671875 1672.3944091796875
v 291.489013671875 596.45263671875 1678.8648681640625
v 148.54983520507812 593.4163818359375 1638.6495361328125
v 189.5370330810547 594.1444702148438 1656.3277587890625
v 78.6858901977539 591.61279296875 1581.240966796875
v 110.38893127441406 592.4094848632812 1608.354736328125
v 49.86205291748047 591.4344482421875 1542.584716796875
vt 3.455078125 -0.8388671875
vt 3.45703125 -0.8046875
vt 3.48828125 -0.6787109375
vt 4.0390625 1.310546875
vt 4.0390625 1.31689453125
vt 3.9453125 1.06744384765625
vt 3.515625 -0.455078125
vt 3.525390625 -0.4287109375
vt 3.5703125 -0.2265625
vt 3.560546875 -0.236328125
vt 3.515625 -0.455078125
vt 3.5703125 -0.2265625
vt 3.560546875 -0.236328125
vt 3.5703125 -0.2265625
vt 3.61328125 -0.0244140625
vt 3.60546875 -0.0166015625
vt 3.560546875 -0.236328125
vt 3.61328125 -0.0244140625
vt 3.576171875 -0.0234375
vt 3.580078125 -0.0302734375
vt 3.5390625 -0.2353515625
vt 3.53125 -0.2431640625
vt 3.576171875 -0.0234375
vt 3.5390625 -0.2353515625
vt 3.53125 -0.2431640625
vt 3.5390625 -0.2353515625
vt 3.49609375 -0.439453125
vt 3.486328125 -0.4638671875
vt 3.53125 -0.2431640625
vt 3.49609375 -0.439453125
vt 3.486328125 -0.4638671875
vt 3.49609375 -0.439453125
vt 3.4609375 -0.6953125
vt 3.453125 -0.7109375
vt 3.486328125 -0.4638671875
vt 3.4609375 -0.6953125
vt 3.60546875 -0.0166015625
vt 3.61328125 -0.0244140625
vt 3.673828125 0.1875
vt 3.66796875 0.1943359375
vt 3.60546875 -0.0166015625
vt 3.673828125 0.1875
vt 3.66796875 0.1943359375
vt 3.673828125 0.1875
vt 3.732421875 0.3994140625
vt 3.73046875 0.4052734375
vt 3.66796875 0.1943359375
vt 3.732421875 0.3994140625
vt 3.697265625 0.39892578125
vt 3.701171875 0.396484375
vt 3.640625 0.18310546875
vt 3.63671875 0.1875
vt 3.697265625 0.39892578125
vt 3.640625 0.18310546875
vt 3.63671875 0.1875
vt 3.640625 0.18310546875
vt 3.580078125 -0.0302734375
vt 3.576171875 -0.0234375
vt 3.63671875 0.1875
vt 3.580078125 -0.0302734375
vt 3.73046875 0.4052734375
vt 3.732421875 0.3994140625
vt 3.80859375 0.609130859375
vt 3.8046875 0.61669921875
vt 3.73046875 0.4052734375
vt 3.80859375 0.609130859375
vt 3.8046875 0.61669921875
vt 3.80859375 0.609130859375
vt 3.8828125 0.8187255859375
vt 3.880859375 0.8280029296875
vt 3.8046875 0.61669921875
vt 3.8828125 0.8187255859375
vt 3.84375 0.8233642578125
vt 3.84765625 0.81787109375
vt 3.775390625 0.607177734375
vt 3.771484375 0.611083984375
vt 3.84375 0.8233642578125
vt 3.775390625 0.607177734375
vt 3.771484375 0.611083984375
vt 3.775390625 0.607177734375
vt 3.701171875 0.396484375
vt 3.697265625 0.39892578125
vt 3.771484375 0.611083984375
vt 3.701171875 0.396484375
vt 3.880859375 0.8280029296875
vt 3.8828125 0.8187255859375
vt 3.982421875 1.07183837890625
vt 3.978515625 1.07421875
vt 3.880859375 0.8280029296875
vt 3.982421875 1.07183837890625
vt 3.978515625 1.07421875
vt 3.982421875 1.07183837890625
vt 4.078125 1.324951171875
vt 4.07421875 1.3203125
vt 3.978515625 1.07421875
vt 4.078125 1.324951171875
vt 3.84375 0.8233642578125
vt 3.943359375 1.06695556640625
vt 3.84765625 0.81787109375
vt 3.943359375 1.06695556640625
vt 3.9453125 1.06744384765625
vt 3.84765625 0.81787109375
vt 3.943359375 1.06695556640625
vt 4.0390625 1.310546875
vt 3.9453125 1.06744384765625
vt 3.875 0.8294677734375
vt 3.880859375 0.8280029296875
vt 3.97265625 1.07366943359375
vt 3.880859375 0.8280029296875
vt 3.978515625 1.07421875
vt 3.97265625 1.07366943359375
vt 3.978515625 1.07421875
vt 4.07421875 1.3203125
vt 3.97265625 1.07366943359375
vt 4.07421875 1.3203125
vt 4.0703125 1.31787109375
vt 3.97265625 1.07366943359375
vt 3.724609375 0.40576171875
vt 3.73046875 0.4052734375
vt 3.798828125 0.61767578125
vt 3.73046875 0.4052734375
vt 3.8046875 0.61669921875
vt 3.798828125 0.61767578125
vt 3.8046875 0.61669921875
vt 3.880859375 0.8280029296875
vt 3.798828125 0.61767578125
vt 3.880859375 0.8280029296875
vt 3.875 0.8294677734375
vt 3.798828125 0.61767578125
vt 3.6015625 -0.0166015625
vt 3.60546875 -0.0166015625
vt 3.662109375 0.19482421875
vt 3.60546875 -0.0166015625
vt 3.66796875 0.1943359375
vt 3.662109375 0.19482421875
vt 3.66796875 0.1943359375
vt 3.73046875 0.4052734375
vt 3.662109375 0.19482421875
vt 3.73046875 0.4052734375
vt 3.724609375 0.40576171875
vt 3.662109375 0.19482421875
vt 3.60546875 -0.0166015625
vt 3.6015625 -0.0166015625
vt 3.5546875 -0.23828125
vt 3.560546875 -0.236328125
vt 3.60546875 -0.0166015625
vt 3.5546875 -0.23828125
vt 3.515625 -0.455078125
vt 3.560546875 -0.236328125
vt 3.5546875 -0.23828125
vt 3.509765625 -0.4599609375
vt 3.515625 -0.455078125
vt 3.5546875 -0.23828125
vt 3.478515625 -0.703125
vt 3.515625 -0.455078125
vt 3.509765625 -0.4599609375
vt 3.515625 -0.455078125
vt 3.478515625 -0.703125
vt 3.525390625 -0.4287109375
vt 3.478515625 -0.703125
vt 3.48828125 -0.6787109375
vt 3.525390625 -0.4287109375
vt 3.478515625 -0.703125
vt 3.455078125 -0.8388671875
vt 3.48828125 -0.6787109375
vt 3.474609375 -0.70703125
vt 3.478515625 -0.703125
vt 3.509765625 -0.4599609375
vt 3.455078125 -0.8388671875
vt 3.478515625 -0.703125
vt 3.474609375 -0.70703125
vt 3.509765625 -0.4599609375
vt 3.490234375 -0.46484375
vt 3.474609375 -0.70703125
vt 3.451171875 -0.845703125
vt 3.455078125 -0.8388671875
vt 3.474609375 -0.70703125
vt 3.490234375 -0.46484375
vt 3.45703125 -0.7119140625
vt 3.474609375 -0.70703125
vt 3.474609375 -0.70703125
vt 3.45703125 -0.7119140625
vt 3.451171875 -0.845703125
vt 3.490234375 -0.46484375
vt 3.486328125 -0.4638671875
vt 3.45703125 -0.7119140625
vt 3.45703125 -0.7119140625
vt 3.431640625 -0.8603515625
vt 3.451171875 -0.845703125
vt 3.486328125 -0.4638671875
vt 3.453125 -0.7109375
vt 3.45703125 -0.7119140625
vt 3.45703125 -0.7119140625
vt 3.453125 -0.7109375
vt 3.431640625 -0.8603515625
vt 3.453125 -0.7109375
vt 3.4296875 -0.84375
vt 3.431640625 -0.8603515625
vt 3.4296875 -0.84375
vt 3.453125 -0.7109375
vt 3.45703125 -0.6865234375
vt 3.453125 -0.7109375
vt 3.4609375 -0.6953125
vt 3.45703125 -0.6865234375
vt 4.0703125 1.31787109375
vt 4.04296875 1.310546875
vt 3.97265625 1.07366943359375
vt 3.84765625 0.825439453125
vt 3.875 0.8294677734375
vt 3.97265625 1.07366943359375
vt 4.04296875 1.310546875
vt 3.947265625 1.0679931640625
vt 3.97265625 1.07366943359375
vt 3.947265625 1.0679931640625
vt 3.84765625 0.825439453125
vt 3.97265625 1.07366943359375
vt 4.04296875 1.310546875
vt 4.0390625 1.310546875
vt 3.947265625 1.0679931640625
vt 3.84375 0.8233642578125
vt 3.84765625 0.825439453125
vt 3.947265625 1.0679931640625
vt 4.0390625 1.310546875
vt 3.943359375 1.06695556640625
vt 3.947265625 1.0679931640625
vt 3.943359375 1.06695556640625
vt 3.84375 0.8233642578125
vt 3.947265625 1.0679931640625
vt 3.875 0.8294677734375
vt 3.84765625 0.825439453125
vt 3.798828125 0.61767578125
vt 3.701171875 0.400390625
vt 3.724609375 0.40576171875
vt 3.798828125 0.61767578125
vt 3.84765625 0.825439453125
vt 3.775390625 0.61279296875
vt 3.798828125 0.61767578125
vt 3.775390625 0.61279296875
vt 3.701171875 0.400390625
vt 3.798828125 0.61767578125
vt 3.84765625 0.825439453125
vt 3.84375 0.8233642578125
vt 3.775390625 0.61279296875
vt 3.697265625 0.39892578125
vt 3.701171875 0.400390625
vt 3.775390625 0.61279296875
vt 3.84375 0.8233642578125
vt 3.771484375 0.611083984375
vt 3.775390625 0.61279296875
vt 3.771484375 0.611083984375
vt 3.697265625 0.39892578125
vt 3.775390625 0.61279296875
vt 3.724609375 0.40576171875
vt 3.701171875 0.400390625
vt 3.662109375 0.19482421875
vt 3.580078125 -0.021484375
vt 3.6015625 -0.0166015625
vt 3.662109375 0.19482421875
vt 3.701171875 0.400390625
vt 3.640625 0.18896484375
vt 3.662109375 0.19482421875
vt 3.640625 0.18896484375
vt 3.580078125 -0.021484375
vt 3.662109375 0.19482421875
vt 3.701171875 0.400390625
vt 3.697265625 0.39892578125
vt 3.640625 0.18896484375
vt 3.576171875 -0.0234375
vt 3.580078125 -0.021484375
vt 3.640625 0.18896484375
vt 3.697265625 0.39892578125
vt 3.63671875 0.1875
vt 3.640625 0.18896484375
vt 3.63671875 0.1875
vt 3.576171875 -0.0234375
vt 3.640625 0.18896484375
vt 3.6015625 -0.0166015625
vt 3.580078125 -0.021484375
vt 3.5546875 -0.23828125
vt 3.490234375 -0.46484375
vt 3.509765625 -0.4599609375
vt 3.5546875 -0.23828125
vt 3.580078125 -0.021484375
vt 3.53515625 -0.2431640625
vt 3.5546875 -0.23828125
vt 3.53515625 -0.2431640625
vt 3.490234375 -0.46484375
vt 3.5546875 -0.23828125
vt 3.580078125 -0.021484375
vt 3.576171875 -0.0234375
vt 3.53515625 -0.2431640625
vt 3.486328125 -0.4638671875
vt 3.490234375 -0.46484375
vt 3.53515625 -0.2431640625
vt 3.576171875 -0.0234375
vt 3.53125 -0.2431640625
vt 3.53515625 -0.2431640625
vt 3.53125 -0.2431640625
vt 3.486328125 -0.4638671875
vt 3.53515625 -0.2431640625
vn -0.330265611410141 -0.9338347315788269 0.13739502429962158
vn -0.0006466970080509782 -0.9999994039535522 -0.0008967781905084848
vn -0.00024737362400628626 -0.9999999403953552 -0.00034303442225791514
vn -0.06176598742604256 0.9300944805145264 0.362090140581131
vn -0.021546637639403343 0.9991750717163086 -0.03442419692873955
vn -0.02403617464005947 0.9996210336685181 -0.013422302901744843
vn -0.38063231110572815 -0.90663081407547 0.18204310536384583
vn -0.00031898816814646125 -0.9999998807907104 -0.0004423439968377352
vn 0.0014422244857996702 -0.999997615814209 -0.001667645643465221
vn -0.40744665265083313 -0.8787165880203247 0.24868541955947876
vn 0.008300810120999813 -0.9999650120735168 -0.0010215084766969085
vn -0.39582812786102295 -0.8503662943840027 0.34669479727745056
vn -0.36966314911842346 0.876663863658905 0.3079116940498352
vn -0.01272314041852951 0.9999185800552368 0.0009791526244953275
vn -0.0023700387682765722 0.9999952912330627 0.0019750986248254776
vn -0.36022841930389404 0.9061890244483948 0.22148825228214264
vn 0.0003953390696551651 0.9999995231628418 0.0007902992656454444
vn -0.3341760039329529 0.9282857179641724 0.16313235461711884
vn 0.0001491926668677479 0.9999999403953552 0.00020688619406428188
vn -0.3355305790901184 0.9313355088233948 0.1415395736694336
vn 0.014570560306310654 -0.9998884797096252 0.0032733932603150606
vn -0.29270845651626587 -0.880963146686554 0.37178710103034973
vn 0.012087976559996605 -0.999872624874115 0.01041764859110117
vn -0.24010387063026428 -0.8860658407211304 0.39653176069259644
vn -0.24876318871974945 0.8996896743774414 0.3587133288383484
vn -0.015268544666469097 0.999828577041626 -0.010469971224665642
vn -0.021163424476981163 0.9997705221176147 -0.0033127719070762396
vn -0.2986319065093994 0.8952978253364563 0.33054614067077637
vn 0.01613493636250496 -0.999862015247345 0.003933409694582224
vn -0.13870231807231903 -0.9123106002807617 0.3852934241294861
vn 0.022358587011694908 -0.9997496604919434 -0.0008290850673802197
vn -0.08208531141281128 -0.9094932675361633 0.40753400325775146
vn -0.11555124819278717 0.9122231602668762 0.39306071400642395
vn -0.022245144471526146 0.9997524619102478 0.0005393913015723228
vn -0.017745811492204666 0.999836266040802 -0.003546310355886817
vn -0.1626105010509491 0.9175649881362915 0.3628116548061371
vn 0.026009265333414078 -0.9995887279510498 0.012082917615771294
vn -0.01739625446498394 -0.9173338413238525 0.39773842692375183
vn 0.02671583741903305 -0.9991028904914856 0.03286050260066986
vn -0.016759222373366356 -0.9013882875442505 0.43268734216690063
vn -0.06361683458089828 0.9280321598052979 0.3670275807380676
vn -0.20341242849826813 -0.35173770785331726 0.9137307405471802
vn -0.08930191397666931 -0.3616051971912384 0.9280446171760559
vn -0.08581652492284775 -0.33472537994384766 0.9383999109268188
vn -0.4737017750740051 -0.3114486336708069 0.8237757682800293
vn -0.33913901448249817 -0.34406498074531555 0.8755592107772827
vn -0.6973065137863159 -0.2314172238111496 0.6783875823020935
vn -0.6078320741653442 -0.2614106833934784 0.7498031258583069
vn -0.8113618493080139 -0.2519664466381073 0.5274513363838196
vn -0.8564723134040833 -0.3019796311855316 0.4186447560787201
vn -0.3810597062110901 -0.910565197467804 0.16020138561725616
vn -0.8782557845115662 -0.3027183413505554 0.37017330527305603
vn -0.8032276034355164 0.4463382661342621 0.39447125792503357
vn -0.870208740234375 -0.3313770294189453 0.36459001898765564
vn -0.8235980272293091 0.44833606481552124 0.347391813993454
vn -0.8195480108261108 0.45802754163742065 0.34431353211402893
vn -0.2978140711784363 0.9462843537330627 0.12590771913528442
vn 0.0005540203419514 0.9999995827674866 0.0007682627765461802
vn -0.10430736839771271 0.41489377617836 0.9038712382316589
vn -0.212960883975029 0.3859178423881531 0.8976162672042847
vn -0.10799966007471085 0.40155550837516785 0.9094443917274475
vn -0.47067371010780334 0.37369802594184875 0.7992596626281738
vn -0.3436065912246704 0.38867899775505066 0.8549052476882935
vn -0.6729140281677246 0.3614490032196045 0.6454001069068909
vn -0.5968179106712341 0.3610227704048157 0.7165687680244446
vn -0.7672837376594543 0.4028756022453308 0.49896594882011414
f 1/1/1 2/2/2 3/3/3
f 4/4/4 5/5/5 6/6/6
f 7/7/7 8/8/8 9/9/9
f 10/10/10 7/11/7 9/12/9
f 10/13/10 9/14/9 11/15/11
f 12/16/12 10/17/10 11/18/11
f 13/19/13 14/20/14 15/21/15
f 16/22/16 13/23/13 15/24/15
f 16/25/16 15/26/15 17/27/17
f 18/28/18 16/29/16 17/30/17
f 18/31/18 17/32/17 19/33/19
f 20/34/20 18/35/18 19/36/19
f 12/37/12 11/38/11 21/39/21
f 22/40/22 12/41/12 21/42/21
f 22/43/22 21/44/21 23/45/23
f 24/46/24 22/47/22 23/48/23
f 25/49/25 26/50/26 27/51/27
f 28/52/28 25/53/25 27/54/27
f 28/55/28 27/56/27 14/57/14
f 13/58/13 28/59/28 14/60/14
f 24/61/24 23/62/23 29/63/29
f 30/64/30 24/65/24 29/66/29
f 30/67/30 29/68/29 31/69/31
f 32/70/32 30/71/30 31/72/31
f 33/73/33 34/74/34 35/75/35
f 36/76/36 33/77/33 35/78/35
f 36/79/36 35/80/35 26/81/26
f 25/82/25 36/83/36 26/84/26
f 32/85/32 31/86/31 37/87/37
f 38/88/38 32/89/32 37/90/37
f 38/91/38 37/92/37 39/93/39
f 40/94/40 38/95/38 39/96/39
f 33/97/33 41/98/41 34/99/34
f 41/100/41 6/101/6 34/102/34
f 41/103/41 4/104/4 6/105/6
f 42/106/42 32/107/32 43/108/43
f 32/109/32 38/110/38 43/111/43
f 38/112/38 40/113/40 43/114/43
f 40/115/40 44/116/44 43/117/43
f 45/118/45 24/119/24 46/120/46
f 24/121/24 30/122/30 46/123/46
f 30/124/30 32/125/32 46/126/46
f 32/127/32 42/128/42 46/129/46
f 47/130/47 12/131/12 48/132/48
f 12/133/12 22/134/22 48/135/48
f 22/136/22 24/137/24 48/138/48
f 24/139/24 45/140/45 48/141/48
f 12/142/12 47/143/47 49/144/49
f 10/145/10 12/146/12 49/147/49
f 7/148/7 10/149/10 49/150/49
f 50/151/50 7/152/7 49/153/49
f 51/154/51 7/155/7 50/156/50
f 7/157/7 51/158/51 8/159/8
f 51/160/51 3/161/3 8/162/8
f 51/163/51 1/164/1 3/165/3
f 52/166/52 51/167/51 50/168/50
f 1/169/1 51/170/51 52/171/52
f 50/172/50 53/173/53 52/174/52
f 54/175/54 1/176/1 52/177/52
f 53/178/53 55/179/55 52/180/52
f 52/181/52 55/182/55 54/183/54
f 53/184/53 18/185/18 55/186/55
f 55/187/55 56/188/56 54/189/54
f 18/190/18 20/191/20 55/192/55
f 55/193/55 20/194/20 56/195/56
f 20/196/20 57/197/57 56/198/56
f 57/199/57 20/200/20 58/201/58
f 20/202/20 19/203/19 58/204/58
f 44/205/44 59/206/59 43/207/43
f 60/208/60 42/209/42 43/210/43
f 59/211/59 61/212/61 43/213/43
f 61/214/61 60/215/60 43/216/43
f 59/217/59 4/218/4 61/219/61
f 33/220/33 60/221/60 61/222/61
f 4/223/4 41/224/41 61/225/61
f 41/226/41 33/227/33 61/228/61
f 42/229/42 60/230/60 46/231/46
f 62/232/62 45/233/45 46/234/46
f 60/235/60 63/236/63 46/237/46
f 63/238/63 62/239/62 46/240/46
f 60/241/60 33/242/33 63/243/63
f 25/244/25 62/245/62 63/246/63
f 33/247/33 36/248/36 63/249/63
f 36/250/36 25/251/25 63/252/63
f 45/253/45 62/254/62 48/255/48
f 64/256/64 47/257/47 48/258/48
f 62/259/62 65/260/65 48/261/48
f 65/262/65 64/263/64 48/264/48
f 62/265/62 25/266/25 65/267/65
f 13/268/13 64/269/64 65/270/65
f 25/271/25 28/272/28 65/273/65
f 28/274/28 13/275/13 65/276/65
f 47/277/47 64/278/64 49/279/49
f 53/280/53 50/281/50 49/282/49
f 64/283/64 66/284/66 49/285/49
f 66/286/66 53/287/53 49/288/49
f 64/289/64 13/290/13 66/291/66
f 18/292/18 53/293/53 66/294/66
f 13/295/13 16/296/16 66/297/66
f 16/298/16 18/299/18 66/300/66
