# Exported by Lightwave Blender addon
v 377.15789794921875 -1434.5289306640625 90.05500030517578
v 416.50958251953125 -1450.6063232421875 90.05500030517578
v 392.2059326171875 -1397.693359375 90.05500030517578
v 431.55755615234375 -1413.770751953125 90.05488586425781
v 394.0892639160156 -1393.083251953125 21.999950408935547
v 394.0892333984375 -1393.083251953125 84.70953369140625
v 433.44091796875 -1409.16064453125 21.999950408935547
v 433.44085693359375 -1409.16064453125 84.70953369140625
v 392.70489501953125 -1396.471923828125 89.47595977783203
v 432.0565185546875 -1412.54931640625 89.47584533691406
v 393.8878173828125 -1393.5760498046875 86.07532501220703
v 433.23944091796875 -1409.6536865234375 86.07532501220703
v 391.6029357910156 -1396.9700927734375 89.26824951171875
v 376.38800048828125 -1434.21435546875 89.26824951171875
v 417.27947998046875 -1450.9208984375 89.26824951171875
v 432.4944763183594 -1413.6766357421875 89.26812744140625
v 393.0218200683594 -1393.4969482421875 21.999950408935547
v 393.02178955078125 -1393.496826171875 85.49628448486328
v 433.9132995605469 -1410.20361328125 85.49628448486328
v 433.9132995605469 -1410.20361328125 21.999950408935547
v 376.3880310058594 -1434.21435546875 21.999948501586914
v 376.38800048828125 -1434.21435546875 85.49628448486328
v 417.2795104980469 -1450.9208984375 21.999948501586914
v 417.27947998046875 -1450.9208984375 85.49628448486328
vt 0.60009765625 0.612060546875
vt 0.3994140625 0.612060546875
vt 0.60009765625 0.4130859375
vt 0.3994140625 0.612060546875
vt 0.3994140625 0.4130859375
vt 0.60009765625 0.4130859375
vt 0.60009765625 0.330078125
vt 0.60009765625 0.6435546875
vt 0.3994140625 0.330078125
vt 0.60009765625 0.6435546875
vt 0.3994140625 0.6435546875
vt 0.3994140625 0.330078125
vt 0.60009765625 0.66748046875
vt 0.3994140625 0.66748046875
vt 0.60009765625 0.650390625
vt 0.3994140625 0.66748046875
vt 0.3994140625 0.650390625
vt 0.60009765625 0.650390625
vt 0.412841796875 0.670166015625
vt 0.41064453125 0.666259765625
vt 0.61181640625 0.670166015625
vt 0.41064453125 0.666259765625
vt 0.61181640625 0.666259765625
vt 0.61181640625 0.670166015625
vt 0.3994140625 0.612060546875
vt 0.395263671875 0.612060546875
vt 0.3994140625 0.4130859375
vt 0.395263671875 0.612060546875
vt 0.3955078125 0.4111328125
vt 0.3994140625 0.4130859375
vt 0.387939453125 0.330078125
vt 0.391845703125 0.330078125
vt 0.387939453125 0.6435546875
vt 0.391845703125 0.330078125
vt 0.391845703125 0.6474609375
vt 0.387939453125 0.6435546875
vt 0.59326171875 0.66748046875
vt 0.5888671875 0.666259765625
vt 0.609375 0.650634765625
vt 0.5888671875 0.666259765625
vt 0.60791015625 0.6474609375
vt 0.609375 0.650634765625
vt 0.390625 0.650390625
vt 0.391845703125 0.6474609375
vt 0.40625 0.66748046875
vt 0.391845703125 0.6474609375
vt 0.41064453125 0.666259765625
vt 0.40625 0.66748046875
vt 0.3994140625 0.4130859375
vt 0.3955078125 0.4111328125
vt 0.3994140625 0.40673828125
vt 0.3994140625 0.4130859375
vt 0.3994140625 0.40673828125
vt 0.60009765625 0.4130859375
vt 0.3994140625 0.40673828125
vt 0.60009765625 0.40673828125
vt 0.60009765625 0.4130859375
vt 0.60009765625 0.4130859375
vt 0.60009765625 0.40673828125
vt 0.60400390625 0.4111328125
vt 0.6044921875 0.6474609375
vt 0.60009765625 0.650390625
vt 0.60009765625 0.6435546875
vt 0.60009765625 0.6435546875
vt 0.60009765625 0.650390625
vt 0.3994140625 0.6435546875
vt 0.60009765625 0.650390625
vt 0.3994140625 0.650390625
vt 0.3994140625 0.6435546875
vt 0.3994140625 0.650390625
vt 0.3955078125 0.6474609375
vt 0.3994140625 0.6435546875
vt 0.3994140625 0.6435546875
vt 0.3955078125 0.6474609375
vt 0.3994140625 0.330078125
vt 0.3955078125 0.6474609375
vt 0.3955078125 0.330078125
vt 0.3994140625 0.330078125
vt 0.61181640625 0.330078125
vt 0.61181640625 0.6474609375
vt 0.391845703125 0.330078125
vt 0.61181640625 0.6474609375
vt 0.391845703125 0.6474609375
vt 0.391845703125 0.330078125
vt 0.41064453125 0.666259765625
vt 0.391845703125 0.6474609375
vt 0.61181640625 0.6474609375
vt 0.61181640625 0.666259765625
vt 0.41064453125 0.666259765625
vt 0.61181640625 0.6474609375
vt 0.60791015625 0.330078125
vt 0.60791015625 0.6474609375
vt 0.387939453125 0.330078125
vt 0.60791015625 0.6474609375
vt 0.387939453125 0.6474609375
vt 0.387939453125 0.330078125
vt 0.387939453125 0.666259765625
vt 0.387939453125 0.6474609375
vt 0.60791015625 0.6474609375
vt 0.5888671875 0.666259765625
vt 0.387939453125 0.666259765625
vt 0.60791015625 0.6474609375
vn -0.34235310554504395 0.13985727727413177 0.9291039705276489
vn 0.3423596918582916 -0.13985782861709595 0.9291014671325684
vn -0.24382631480693817 0.28442320227622986 0.9271742701530457
vn 0.3732476830482483 0.03233854100108147 0.9271678924560547
vn 0.009063326753675938 0.999958872795105 4.550281929027733e-09
vn 0.04765161871910095 0.9883548617362976 0.14451289176940918
vn 0.6937533020973206 0.7202126383781433 1.4209136622866936e-07
vn 0.6580865383148193 0.7389318346977234 0.144574835896492
vn -0.0883079543709755 0.6432783007621765 0.7605226635932922
vn 0.5228090286254883 0.3984225392341614 0.7536113858222961
vn 0.05224263668060303 0.851017951965332 0.5225313901901245
vn 0.5632668137550354 0.6355281472206116 0.5280477404594421
vn -0.7316383719444275 0.5071129202842712 0.455567330121994
vn -0.8502644300460815 0.34734800457954407 0.3954741060733795
vn 0.8502687215805054 -0.3473495841026306 0.3954635560512543
vn 0.8791057467460632 -0.14522472023963928 0.45396357774734497
vn -0.7006828188896179 0.7134729027748108 -5.01778629313776e-07
vn -0.5994282364845276 0.7697812914848328 0.21936830878257751
vn 0.9654485583305359 0.12859556078910828 0.22665458917617798
vn 0.9998246431350708 0.01872437447309494 0.0
vn -0.9257326722145081 0.37817832827568054 -4.4492514916782966e-07
vn -0.9257329702377319 0.3781779408454895 -2.0159615132797626e-07
vn 0.9257321953773499 -0.37817955017089844 1.7159736387384328e-07
vn 0.9257320761680603 -0.3781799077987671 2.2246243247536768e-07
f 1/1/1 2/2/2 3/3/3
f 2/4/2 4/5/4 3/6/3
f 5/7/5 6/8/6 7/9/7
f 6/10/6 8/11/8 7/12/7
f 9/13/9 10/14/10 11/15/11
f 10/16/10 12/17/12 11/18/11
f 3/19/3 13/20/13 1/21/1
f 13/22/13 14/23/14 1/24/1
f 2/25/2 15/26/15 4/27/4
f 15/28/15 16/29/16 4/30/4
f 5/31/5 17/32/17 6/33/6
f 17/34/17 18/35/18 6/36/6
f 10/37/10 16/38/16 12/39/12
f 16/40/16 19/41/19 12/42/12
f 11/43/11 18/44/18 9/45/9
f 18/46/18 13/47/13 9/48/9
f 4/49/4 16/50/16 10/51/10
f 4/52/4 10/53/10 3/54/3
f 10/55/10 9/56/9 3/57/3
f 3/58/3 9/59/9 13/60/13
f 18/61/18 11/62/11 6/63/6
f 6/64/6 11/65/11 8/66/8
f 11/67/11 12/68/12 8/69/8
f 12/70/12 19/71/19 8/72/8
f 8/73/8 19/74/19 7/75/7
f 19/76/19 20/77/20 7/78/7
f 21/79/21 22/80/22 17/81/17
f 22/82/22 18/83/18 17/84/17
f 13/85/13 18/86/18 22/87/22
f 14/88/14 13/89/13 22/90/22
f 20/91/20 19/92/19 23/93/23
f 19/94/19 24/95/24 23/96/23
f 15/97/15 24/98/24 19/99/19
f 16/100/16 15/101/15 19/102/19
