# Exported by Lightwave Blender addon
v 325.47283935546875 -236.21485900878906 1424.0206298828125
v 334.7384033203125 -229.6808319091797 1415.8446044921875
v 345.7930603027344 -221.98550415039062 1447.9627685546875
v 518.401123046875 -83.1396713256836 1670.6397705078125
v 611.596435546875 -13.635467529296875 1683.07763671875
v 518.4736938476562 -83.07638549804688 1663.1820068359375
v 611.893798828125 -13.73531436920166 1675.618408203125
v 352.6693115234375 -217.10684204101562 1502.8284912109375
v 361.93487548828125 -210.5727996826172 1494.6524658203125
v 375.7200927734375 -200.7798614501953 1530.907958984375
v 370.67816162109375 -204.3504638671875 1541.7591552734375
v 394.15753173828125 -187.75112915039062 1568.3309326171875
v 394.1980895996094 -187.7393341064453 1580.83935546875
v 388.4525146484375 -177.1687774658203 1580.748779296875
v 388.4119873046875 -177.18055725097656 1568.2403564453125
v 369.9914855957031 -190.25433349609375 1530.7947998046875
v 364.9530029296875 -193.8291015625 1541.643798828125
v 356.153564453125 -200.0559844970703 1494.557373046875
v 346.88800048828125 -206.59005737304688 1502.7333984375
v 339.99761962890625 -211.48956298828125 1447.8663330078125
v 330.73199462890625 -218.02362060546875 1456.0423583984375
v 422.3564758300781 -168.16470336914062 1600.1197509765625
v 422.9478759765625 -167.6924285888672 1609.543701171875
v 456.1455078125 -144.2799530029297 1629.6142578125
v 456.0816650390625 -144.22726440429688 1637.0718994140625
v 449.5277404785156 -133.6391143798828 1636.8941650390625
v 449.5916748046875 -133.69180297851562 1629.4364013671875
v 416.2196044921875 -157.570068359375 1599.963623046875
v 416.8080139160156 -157.10011291503906 1609.3900146484375
v 489.5126953125 -120.01246643066406 1647.807373046875
v 489.5405578613281 -119.96469116210938 1655.1070556640625
v 525.0026245117188 -93.74729919433594 1663.3564453125
v 524.9300537109375 -93.81058502197266 1670.814208984375
v 618.6136474609375 -23.942983627319336 1675.9390869140625
v 618.31640625 -23.843135833740234 1683.398193359375
v 617.2960815429688 -22.374908447265625 1685.08203125
v 524.0100708007812 -92.34912872314453 1672.5206298828125
v 612.4788818359375 -15.057390213012695 1684.8521728515625
v 519.2875366210938 -84.63053131103516 1672.3944091796875
v 488.6120300292969 -118.49911499023438 1656.8267822265625
v 450.42364501953125 -135.09832763671875 1638.6495361328125
v 455.156005859375 -142.7435760498047 1638.77783203125
v 483.8420715332031 -110.77930450439453 1656.722412109375
v 482.95184326171875 -109.2996597290039 1654.9635009765625
v 482.92388916015625 -109.34908294677734 1647.6644287109375
v 393.37725830078125 -186.21714782714844 1582.55712890625
v 422.121337890625 -166.15394592285156 1611.210205078125
v 369.2406005859375 -203.2643280029297 1543.15234375
v 350.6883544921875 -216.3992462158203 1503.8271484375
v 336.5274658203125 -228.51954650878906 1456.1387939453125
v 334.54376220703125 -227.8134765625 1457.13720703125
v 346.57452392578125 -208.91567993164062 1503.7593994140625
v 323.4878845214844 -235.5094757080078 1425.018798828125
v 330.42132568359375 -220.34767150878906 1457.068603515625
v 319.362548828125 -228.05215454101562 1424.948974609375
v 319.6719665527344 -225.72877502441406 1423.9224853515625
v 328.9375305175781 -219.19471740722656 1415.7464599609375
v 389.2846374511719 -178.68768310546875 1582.4925537109375
v 417.7150573730469 -158.5568084716797 1611.1002197265625
v 365.1707763671875 -195.7823944091797 1543.0704345703125
vt 3.455078125 -0.8388671875
vt 3.45703125 -0.8046875
vt 3.48828125 -0.6787109375
vt 3.84375 0.8233642578125
vt 4.0390625 1.310546875
vt 3.84765625 0.81787109375
vt 4.0390625 1.310546875
vt 4.0390625 1.31689453125
vt 3.84765625 0.81787109375
vt 3.515625 -0.455078125
vt 3.525390625 -0.4287109375
vt 3.5703125 -0.2265625
vt 3.560546875 -0.236328125
vt 3.515625 -0.455078125
vt 3.5703125 -0.2265625
vt 3.560546875 -0.236328125
vt 3.5703125 -0.2265625
vt 3.61328125 -0.0244140625
vt 3.60546875 -0.0166015625
vt 3.560546875 -0.236328125
vt 3.61328125 -0.0244140625
vt 3.576171875 -0.0234375
vt 3.580078125 -0.0302734375
vt 3.5390625 -0.2353515625
vt 3.53125 -0.2431640625
vt 3.576171875 -0.0234375
vt 3.5390625 -0.2353515625
vt 3.53125 -0.2431640625
vt 3.5390625 -0.2353515625
vt 3.49609375 -0.439453125
vt 3.486328125 -0.4638671875
vt 3.53125 -0.2431640625
vt 3.49609375 -0.439453125
vt 3.486328125 -0.4638671875
vt 3.49609375 -0.439453125
vt 3.4609375 -0.6953125
vt 3.453125 -0.7109375
vt 3.486328125 -0.4638671875
vt 3.4609375 -0.6953125
vt 3.60546875 -0.0166015625
vt 3.61328125 -0.0244140625
vt 3.673828125 0.1875
vt 3.66796875 0.1943359375
vt 3.60546875 -0.0166015625
vt 3.673828125 0.1875
vt 3.66796875 0.1943359375
vt 3.673828125 0.1875
vt 3.732421875 0.3994140625
vt 3.73046875 0.4052734375
vt 3.66796875 0.1943359375
vt 3.732421875 0.3994140625
vt 3.697265625 0.39892578125
vt 3.701171875 0.396484375
vt 3.640625 0.18310546875
vt 3.63671875 0.1875
vt 3.697265625 0.39892578125
vt 3.640625 0.18310546875
vt 3.63671875 0.1875
vt 3.640625 0.18310546875
vt 3.580078125 -0.0302734375
vt 3.576171875 -0.0234375
vt 3.63671875 0.1875
vt 3.580078125 -0.0302734375
vt 3.73046875 0.4052734375
vt 3.732421875 0.3994140625
vt 3.80859375 0.609130859375
vt 3.8046875 0.61669921875
vt 3.73046875 0.4052734375
vt 3.80859375 0.609130859375
vt 3.8046875 0.61669921875
vt 3.80859375 0.609130859375
vt 3.8828125 0.8187255859375
vt 3.880859375 0.8280029296875
vt 3.8046875 0.61669921875
vt 3.8828125 0.8187255859375
vt 3.880859375 0.8280029296875
vt 3.8828125 0.8187255859375
vt 4.078125 1.324951171875
vt 4.07421875 1.3203125
vt 3.880859375 0.8280029296875
vt 4.078125 1.324951171875
vt 3.880859375 0.8280029296875
vt 4.07421875 1.3203125
vt 4.0703125 1.31787109375
vt 3.875 0.8294677734375
vt 3.880859375 0.8280029296875
vt 4.0703125 1.31787109375
vt 4.0703125 1.31787109375
vt 4.04296875 1.310546875
vt 3.875 0.8294677734375
vt 4.04296875 1.310546875
vt 3.84765625 0.825439453125
vt 3.875 0.8294677734375
vt 4.04296875 1.310546875
vt 4.0390625 1.310546875
vt 3.84765625 0.825439453125
vt 3.875 0.8294677734375
vt 3.84765625 0.825439453125
vt 3.798828125 0.61767578125
vt 4.0390625 1.310546875
vt 3.84375 0.8233642578125
vt 3.84765625 0.825439453125
vt 3.701171875 0.400390625
vt 3.724609375 0.40576171875
vt 3.798828125 0.61767578125
vt 3.84765625 0.825439453125
vt 3.84375 0.8233642578125
vt 3.775390625 0.61279296875
vt 3.84765625 0.825439453125
vt 3.775390625 0.61279296875
vt 3.798828125 0.61767578125
vt 3.775390625 0.61279296875
vt 3.701171875 0.400390625
vt 3.798828125 0.61767578125
vt 3.84375 0.8233642578125
vt 3.771484375 0.611083984375
vt 3.775390625 0.61279296875
vt 3.697265625 0.39892578125
vt 3.701171875 0.400390625
vt 3.775390625 0.61279296875
vt 3.771484375 0.611083984375
vt 3.697265625 0.39892578125
vt 3.775390625 0.61279296875
vt 3.84375 0.8233642578125
vt 3.84765625 0.81787109375
vt 3.775390625 0.607177734375
vt 3.771484375 0.611083984375
vt 3.84375 0.8233642578125
vt 3.775390625 0.607177734375
vt 3.771484375 0.611083984375
vt 3.775390625 0.607177734375
vt 3.701171875 0.396484375
vt 3.697265625 0.39892578125
vt 3.771484375 0.611083984375
vt 3.701171875 0.396484375
vt 3.724609375 0.40576171875
vt 3.73046875 0.4052734375
vt 3.798828125 0.61767578125
vt 3.73046875 0.4052734375
vt 3.8046875 0.61669921875
vt 3.798828125 0.61767578125
vt 3.8046875 0.61669921875
vt 3.880859375 0.8280029296875
vt 3.798828125 0.61767578125
vt 3.880859375 0.8280029296875
vt 3.875 0.8294677734375
vt 3.798828125 0.61767578125
vt 3.6015625 -0.0166015625
vt 3.60546875 -0.0166015625
vt 3.662109375 0.19482421875
vt 3.60546875 -0.0166015625
vt 3.66796875 0.1943359375
vt 3.662109375 0.19482421875
vt 3.66796875 0.1943359375
vt 3.73046875 0.4052734375
vt 3.662109375 0.19482421875
vt 3.73046875 0.4052734375
vt 3.724609375 0.40576171875
vt 3.662109375 0.19482421875
vt 3.60546875 -0.0166015625
vt 3.6015625 -0.0166015625
vt 3.5546875 -0.23828125
vt 3.560546875 -0.236328125
vt 3.60546875 -0.0166015625
vt 3.5546875 -0.23828125
vt 3.515625 -0.455078125
vt 3.560546875 -0.236328125
vt 3.5546875 -0.23828125
vt 3.509765625 -0.4599609375
vt 3.515625 -0.455078125
vt 3.5546875 -0.23828125
vt 3.478515625 -0.703125
vt 3.515625 -0.455078125
vt 3.509765625 -0.4599609375
vt 3.515625 -0.455078125
vt 3.478515625 -0.703125
vt 3.525390625 -0.4287109375
vt 3.478515625 -0.703125
vt 3.48828125 -0.6787109375
vt 3.525390625 -0.4287109375
vt 3.478515625 -0.703125
vt 3.455078125 -0.8388671875
vt 3.48828125 -0.6787109375
vt 3.474609375 -0.70703125
vt 3.478515625 -0.703125
vt 3.509765625 -0.4599609375
vt 3.455078125 -0.8388671875
vt 3.478515625 -0.703125
vt 3.474609375 -0.70703125
vt 3.509765625 -0.4599609375
vt 3.490234375 -0.46484375
vt 3.474609375 -0.70703125
vt 3.451171875 -0.845703125
vt 3.455078125 -0.8388671875
vt 3.474609375 -0.70703125
vt 3.490234375 -0.46484375
vt 3.45703125 -0.7119140625
vt 3.474609375 -0.70703125
vt 3.474609375 -0.70703125
vt 3.45703125 -0.7119140625
vt 3.451171875 -0.845703125
vt 3.490234375 -0.46484375
vt 3.486328125 -0.4638671875
vt 3.45703125 -0.7119140625
vt 3.45703125 -0.7119140625
vt 3.431640625 -0.8603515625
vt 3.451171875 -0.845703125
vt 3.486328125 -0.4638671875
vt 3.453125 -0.7109375
vt 3.45703125 -0.7119140625
vt 3.45703125 -0.7119140625
vt 3.453125 -0.7109375
vt 3.431640625 -0.8603515625
vt 3.453125 -0.7109375
vt 3.4296875 -0.84375
vt 3.431640625 -0.8603515625
vt 3.4296875 -0.84375
vt 3.453125 -0.7109375
vt 3.45703125 -0.6865234375
vt 3.453125 -0.7109375
vt 3.4609375 -0.6953125
vt 3.45703125 -0.6865234375
vt 3.724609375 0.40576171875
vt 3.701171875 0.400390625
vt 3.662109375 0.19482421875
vt 3.580078125 -0.021484375
vt 3.6015625 -0.0166015625
vt 3.662109375 0.19482421875
vt 3.701171875 0.400390625
vt 3.640625 0.18896484375
vt 3.662109375 0.19482421875
vt 3.640625 0.18896484375
vt 3.580078125 -0.021484375
vt 3.662109375 0.19482421875
vt 3.701171875 0.400390625
vt 3.697265625 0.39892578125
vt 3.640625 0.18896484375
vt 3.576171875 -0.0234375
vt 3.580078125 -0.021484375
vt 3.640625 0.18896484375
vt 3.697265625 0.39892578125
vt 3.63671875 0.1875
vt 3.640625 0.18896484375
vt 3.63671875 0.1875
vt 3.576171875 -0.0234375
vt 3.640625 0.18896484375
vt 3.6015625 -0.0166015625
vt 3.580078125 -0.021484375
vt 3.5546875 -0.23828125
vt 3.490234375 -0.46484375
vt 3.509765625 -0.4599609375
vt 3.5546875 -0.23828125
vt 3.580078125 -0.021484375
vt 3.53515625 -0.2431640625
vt 3.5546875 -0.23828125
vt 3.53515625 -0.2431640625
vt 3.490234375 -0.46484375
vt 3.5546875 -0.23828125
vt 3.580078125 -0.021484375
vt 3.576171875 -0.0234375
vt 3.53515625 -0.2431640625
vt 3.486328125 -0.4638671875
vt 3.490234375 -0.46484375
vt 3.53515625 -0.2431640625
vt 3.576171875 -0.0234375
vt 3.53125 -0.2431640625
vt 3.53515625 -0.2431640625
vt 3.53125 -0.2431640625
vt 3.486328125 -0.4638671875
vt 3.53515625 -0.2431640625
vn 0.26752960681915283 -0.9538370966911316 0.13646478950977325
vn 0.5751509666442871 -0.818044900894165 -0.001960642170161009
vn 0.5757468342781067 -0.8176274299621582 -0.000951174704823643
vn -0.6196026802062988 0.6793035268783569 0.3932419419288635
vn -0.5870129466056824 0.7236277461051941 0.36301350593566895
vn -0.5959856510162354 0.8029950261116028 0.0003506513894535601
vn -0.5927003622055054 0.8046882152557373 -0.03439939394593239
vn 0.21217498183250427 -0.959189236164093 0.186916783452034
vn 0.5767503976821899 -0.8169201016426086 0.0007496330654248595
vn 0.5777196884155273 -0.8162351846694946 4.99480556754861e-05
vn 0.17951343953609467 -0.9508432149887085 0.252333402633667
vn 0.5764298439025879 -0.8171460628509521 -0.0010323736350983381
vn 0.1572204828262329 -0.9241095185279846 0.3482862412929535
vn -0.7979156374931335 0.5152918100357056 0.3127377927303314
vn -0.5796359181404114 0.8148750066757202 0.000894213910214603
vn -0.5784656405448914 0.8157068490982056 0.00020829588174819946
vn -0.8126398324966431 0.5383678674697876 0.22310657799243927
vn -0.5766977071762085 0.8169575333595276 -0.0004105802800040692
vn -0.8084338903427124 0.5649018287658691 0.16528964042663574
vn -0.575823187828064 0.8175737857818604 0.0008214405970647931
vn -0.8107362389564514 0.5679132342338562 0.14206092059612274
vn 0.570059597492218 -0.8215885162353516 0.004942718893289566
vn 0.2667538821697235 -0.8861226439476013 0.37898412346839905
vn 0.5763747096061707 -0.8171189427375793 0.010433129034936428
vn 0.3335248529911041 -0.8570529818534851 0.392710417509079
vn -0.7020410895347595 0.615036129951477 0.3589829206466675
vn -0.5789515376091003 0.8152954578399658 -0.010413897223770618
vn -0.5743264555931091 0.8186101913452148 -0.005159779917448759
vn -0.7384551763534546 0.5804374814033508 0.34318551421165466
vn 0.5889567732810974 -0.8081573247909546 0.0034238100051879883
vn 0.4117617607116699 -0.8255513906478882 0.38589775562286377
vn 0.5960262417793274 -0.8029645085334778 -0.0008298660977743566
vn 0.46055901050567627 -0.7883634567260742 0.40788283944129944
vn 0.5963403582572937 -0.8020474314689636 0.033136241137981415
vn 0.5021365880966187 -0.7482016682624817 0.4336509704589844
vn 0.11803971976041794 -0.32613489031791687 0.9379246234893799
vn 0.0413440465927124 -0.4017161726951599 0.9148305058479309
vn -0.3272388279438019 0.2759336233139038 0.9037562608718872
vn -0.39295417070388794 0.19517414271831512 0.8986067771911621
vn -0.07827197015285492 -0.4763934016227722 0.8757413029670715
vn -0.5811548233032227 0.05285933241248131 0.8120744824409485
vn -0.18451890349388123 -0.5192093253135681 0.8344905376434326
vn -0.5041202306747437 0.11919736862182617 0.8553682565689087
vn -0.6620464324951172 0.6550227403640747 0.36419740319252014
vn -0.5903177261352539 0.8071653246879578 -0.003018480259925127
vn -0.4316418468952179 -0.587494969367981 0.684496283531189
vn -0.31187036633491516 -0.5515641570091248 0.7736366987228394
vn -0.5123285055160522 -0.6720331907272339 0.5346876382827759
vn -0.5222459435462952 -0.7384231686592102 0.4266033470630646
vn 0.2131480872631073 -0.9638774991035461 0.1597125083208084
vn -0.5432275533676147 -0.7536426186561584 0.3700360655784607
vn -0.9108015298843384 -0.09745369851589203 0.40117740631103516
vn -0.5206067562103271 -0.7721735239028931 0.36430302262306213
vn -0.9313392043113708 -0.10828788578510284 0.3476795256137848
vn -0.9335739016532898 -0.09756804257631302 0.344848096370697
vn -0.7881717085838318 0.6022244095802307 0.12692980468273163
vn -0.5752216577529907 0.817995548248291 0.0018429302144795656
vn -0.7508581876754761 -0.08184697479009628 0.6553724408149719
vn -0.6658173203468323 -0.01949784904718399 0.7458599805831909
vn -0.8560097217559814 -0.10800391435623169 0.5055517554283142
f 1/1/1 2/2/2 3/3/3
f 4/4/4 5/5/5 6/6/6
f 5/7/5 7/8/7 6/9/6
f 8/10/8 9/11/9 10/12/10
f 11/13/11 8/14/8 10/15/10
f 11/16/11 10/17/10 12/18/12
f 13/19/13 11/20/11 12/21/12
f 14/22/14 15/23/15 16/24/16
f 17/25/17 14/26/14 16/27/16
f 17/28/17 16/29/16 18/30/18
f 19/31/19 17/32/17 18/33/18
f 19/34/19 18/35/18 20/36/20
f 21/37/21 19/38/19 20/39/20
f 13/40/13 12/41/12 22/42/22
f 23/43/23 13/44/13 22/45/22
f 23/46/23 22/47/22 24/48/24
f 25/49/25 23/50/23 24/51/24
f 26/52/26 27/53/27 28/54/28
f 29/55/29 26/56/26 28/57/28
f 29/58/29 28/59/28 15/60/15
f 14/61/14 29/62/29 15/63/15
f 25/64/25 24/65/24 30/66/30
f 31/67/31 25/68/25 30/69/30
f 31/70/31 30/71/30 32/72/32
f 33/73/33 31/74/31 32/75/32
f 33/76/33 32/77/32 34/78/34
f 35/79/35 33/80/33 34/81/34
f 33/82/33 35/83/35 36/84/36
f 37/85/37 33/86/33 36/87/36
f 36/88/36 38/89/38 37/90/37
f 38/91/38 39/92/39 37/93/37
f 38/94/38 5/95/5 39/96/39
f 37/97/37 39/98/39 40/99/40
f 5/100/5 4/101/4 39/102/39
f 41/103/41 42/104/42 40/105/40
f 39/106/39 4/107/4 43/108/43
f 39/109/39 43/110/43 40/111/40
f 43/112/43 41/113/41 40/114/40
f 4/115/4 44/116/44 43/117/43
f 26/118/26 41/119/41 43/120/43
f 44/121/44 26/122/26 43/123/43
f 4/124/4 6/125/6 45/126/45
f 44/127/44 4/128/4 45/129/45
f 44/130/44 45/131/45 27/132/27
f 26/133/26 44/134/44 27/135/27
f 42/136/42 25/137/25 40/138/40
f 25/139/25 31/140/31 40/141/40
f 31/142/31 33/143/33 40/144/40
f 33/145/33 37/146/37 40/147/40
f 46/148/46 13/149/13 47/150/47
f 13/151/13 23/152/23 47/153/47
f 23/154/23 25/155/25 47/156/47
f 25/157/25 42/158/42 47/159/47
f 13/160/13 46/161/46 48/162/48
f 11/163/11 13/164/13 48/165/48
f 8/166/8 11/167/11 48/168/48
f 49/169/49 8/170/8 48/171/48
f 50/172/50 8/173/8 49/174/49
f 8/175/8 50/176/50 9/177/9
f 50/178/50 3/179/3 9/180/9
f 50/181/50 1/182/1 3/183/3
f 51/184/51 50/185/50 49/186/49
f 1/187/1 50/188/50 51/189/51
f 49/190/49 52/191/52 51/192/51
f 53/193/53 1/194/1 51/195/51
f 52/196/52 54/197/54 51/198/51
f 51/199/51 54/200/54 53/201/53
f 52/202/52 19/203/19 54/204/54
f 54/205/54 55/206/55 53/207/53
f 19/208/19 21/209/21 54/210/54
f 54/211/54 21/212/21 55/213/55
f 21/214/21 56/215/56 55/216/55
f 56/217/56 21/218/21 57/219/57
f 21/220/21 20/221/20 57/222/57
f 42/223/42 41/224/41 47/225/47
f 58/226/58 46/227/46 47/228/47
f 41/229/41 59/230/59 47/231/47
f 59/232/59 58/233/58 47/234/47
f 41/235/41 26/236/26 59/237/59
f 14/238/14 58/239/58 59/240/59
f 26/241/26 29/242/29 59/243/59
f 29/244/29 14/245/14 59/246/59
f 46/247/46 58/248/58 48/249/48
f 52/250/52 49/251/49 48/252/48
f 58/253/58 60/254/60 48/255/48
f 60/256/60 52/257/52 48/258/48
f 58/259/58 14/260/14 60/261/60
f 19/262/19 52/263/52 60/264/60
f 14/265/14 17/266/17 60/267/60
f 17/268/17 19/269/19 60/270/60
