# Exported by Lightwave Blender addon
v 174.80947875976562 908.7704467773438 1306.64794921875
v 174.80947875976562 908.7704467773438 1118.0250244140625
v 172.7939910888672 909.8694458007812 1306.64794921875
v 172.4567108154297 909.2510375976562 1307.352294921875
v 174.47219848632812 908.1520385742188 1307.3521728515625
v 172.7939910888672 909.8694458007812 1118.0250244140625
v 174.47219848632812 908.1520385742188 1117.3206787109375
v 130.8768768310547 833.0037231445312 1307.3521728515625
v 132.89236450195312 831.9046630859375 1307.3521728515625
v 172.4567108154297 909.2510375976562 1117.3206787109375
v 132.89236450195312 831.9046630859375 1117.320556640625
v 130.5395965576172 832.3853149414062 1306.647705078125
v 132.55508422851562 831.2863159179688 1306.647705078125
v 130.8768768310547 833.0037231445312 1117.320556640625
v 132.55508422851562 831.2863159179688 1118.0250244140625
v 130.5395965576172 832.3853149414062 1118.0250244140625
v 130.26576232910156 834.2171630859375 1117.8912353515625
v 129.831787109375 833.4212036132812 1118.7977294921875
v 129.831787109375 833.4212036132812 1305.875
v 171.10577392578125 909.1076049804688 1117.8912353515625
v 130.7937469482422 836.9697265625 1120.8948974609375
v 171.53976440429688 909.9035034179688 1118.7978515625
v 168.7572784423828 906.5858764648438 1120.89501953125
v 169.19125366210938 907.3817749023438 1121.8016357421875
v 171.53976440429688 909.9035034179688 1305.8751220703125
v 169.19125366210938 907.3817749023438 1302.8714599609375
v 168.2184295654297 906.4601440429688 1122.170166015625
v 171.10577392578125 909.1076049804688 1306.7816162109375
v 168.7572784423828 906.5858764648438 1303.7777099609375
v 168.2184295654297 906.4601440429688 1302.5029296875
v 130.7937469482422 836.9697265625 1303.7777099609375
v 130.26576232910156 834.2171630859375 1306.781494140625
v 130.35951232910156 836.1737670898438 1302.8712158203125
v 130.60739135742188 837.4909057617188 1302.5028076171875
v 130.35951232910156 836.1737670898438 1121.8013916015625
v 130.60739135742188 837.4909057617188 1122.169921875
vt 0.267578125 0.7080078125
vt 0.267578125 -0.255859375
vt 0.2763671875 0.704345703125
vt 0.267578125 0.7080078125
vt 0.2763671875 0.704345703125
vt 0.279541015625 0.70751953125
vt 0.27587890625 0.71630859375
vt 0.267578125 0.7080078125
vt 0.279541015625 0.70751953125
vt 0.267578125 -0.255859375
vt 0.276611328125 -0.251953125
vt 0.2763671875 0.704345703125
vt 0.267578125 -0.255859375
vt 0.27587890625 -0.263671875
vt 0.276611328125 -0.251953125
vt 0.27587890625 0.71630859375
vt 0.279541015625 0.70751953125
vt 0.7197265625 0.70751953125
vt 0.72314453125 0.71630859375
vt 0.27587890625 0.71630859375
vt 0.7197265625 0.70751953125
vt 0.27587890625 -0.263671875
vt 0.27978515625 -0.2548828125
vt 0.276611328125 -0.251953125
vt 0.27587890625 -0.263671875
vt 0.7236328125 -0.263671875
vt 0.27978515625 -0.2548828125
vt 0.72314453125 0.71630859375
vt 0.7197265625 0.70751953125
vt 0.72265625 0.704345703125
vt 0.7314453125 0.7080078125
vt 0.72314453125 0.71630859375
vt 0.72265625 0.704345703125
vt 0.7236328125 -0.263671875
vt 0.7197265625 -0.2548828125
vt 0.27978515625 -0.2548828125
vt 0.7236328125 -0.263671875
vt 0.73193359375 -0.255859375
vt 0.7197265625 -0.2548828125
vt 0.73193359375 -0.255859375
vt 0.7314453125 0.7080078125
vt 0.72265625 -0.251953125
vt 0.73193359375 -0.255859375
vt 0.72265625 -0.251953125
vt 0.7197265625 -0.2548828125
vt 0.7314453125 0.7080078125
vt 0.72265625 0.704345703125
vt 0.72265625 -0.251953125
vt 0.27978515625 -0.2548828125
vt 0.7197265625 -0.2548828125
vt 0.71533203125 -0.251953125
vt 0.72265625 -0.251953125
vt 0.71923828125 -0.248046875
vt 0.7197265625 -0.2548828125
vt 0.71923828125 -0.248046875
vt 0.71533203125 -0.251953125
vt 0.7197265625 -0.2548828125
vt 0.72265625 -0.251953125
vt 0.72265625 0.704345703125
vt 0.71923828125 0.7001953125
vt 0.71923828125 -0.248046875
vt 0.72265625 -0.251953125
vt 0.71923828125 0.7001953125
vt 0.283935546875 -0.251953125
vt 0.27978515625 -0.2548828125
vt 0.71533203125 -0.251953125
vt 0.27978515625 -0.2548828125
vt 0.283935546875 -0.251953125
vt 0.276611328125 -0.251953125
vt 0.71533203125 -0.251953125
vt 0.71923828125 -0.248046875
vt 0.7021484375 -0.2373046875
vt 0.283935546875 -0.251953125
vt 0.2802734375 -0.248046875
vt 0.276611328125 -0.251953125
vt 0.2763671875 0.704345703125
vt 0.276611328125 -0.251953125
vt 0.2802734375 -0.248046875
vt 0.283935546875 -0.251953125
vt 0.71533203125 -0.251953125
vt 0.300537109375 -0.2373046875
vt 0.71533203125 -0.251953125
vt 0.7021484375 -0.2373046875
vt 0.300537109375 -0.2373046875
vt 0.2802734375 -0.248046875
vt 0.283935546875 -0.251953125
vt 0.29638671875 -0.2333984375
vt 0.283935546875 -0.251953125
vt 0.300537109375 -0.2373046875
vt 0.29638671875 -0.2333984375
vt 0.2802734375 0.699951171875
vt 0.2763671875 0.704345703125
vt 0.2802734375 -0.248046875
vt 0.2763671875 0.704345703125
vt 0.2802734375 0.699951171875
vt 0.279541015625 0.70751953125
vt 0.2802734375 -0.248046875
vt 0.29638671875 -0.2333984375
vt 0.29638671875 0.68505859375
vt 0.2802734375 0.699951171875
vt 0.2802734375 -0.248046875
vt 0.29638671875 0.68505859375
vt 0.300537109375 -0.2373046875
vt 0.302490234375 -0.2314453125
vt 0.29638671875 -0.2333984375
vt 0.29638671875 0.68505859375
vt 0.29638671875 -0.2333984375
vt 0.302490234375 -0.2314453125
vt 0.2802734375 0.699951171875
vt 0.28369140625 0.70361328125
vt 0.279541015625 0.70751953125
vt 0.7197265625 0.70751953125
vt 0.279541015625 0.70751953125
vt 0.28369140625 0.70361328125
vt 0.2802734375 0.699951171875
vt 0.29638671875 0.68505859375
vt 0.300537109375 0.689208984375
vt 0.28369140625 0.70361328125
vt 0.2802734375 0.699951171875
vt 0.300537109375 0.689208984375
vt 0.29638671875 0.68505859375
vt 0.302490234375 0.68310546875
vt 0.300537109375 0.689208984375
vt 0.302490234375 0.68310546875
vt 0.29638671875 0.68505859375
vt 0.302490234375 -0.2314453125
vt 0.28369140625 0.70361328125
vt 0.300537109375 0.689208984375
vt 0.7021484375 0.689208984375
vt 0.7021484375 0.689208984375
vt 0.300537109375 0.689208984375
vt 0.302490234375 0.68310546875
vt 0.71533203125 0.703857421875
vt 0.7197265625 0.70751953125
vt 0.28369140625 0.70361328125
vt 0.71533203125 0.703857421875
vt 0.28369140625 0.70361328125
vt 0.7021484375 0.689208984375
vt 0.7197265625 0.70751953125
vt 0.71533203125 0.703857421875
vt 0.72265625 0.704345703125
vt 0.71533203125 0.703857421875
vt 0.71923828125 0.7001953125
vt 0.72265625 0.704345703125
vt 0.71533203125 0.703857421875
vt 0.7021484375 0.689208984375
vt 0.70654296875 0.68505859375
vt 0.71923828125 0.7001953125
vt 0.71533203125 0.703857421875
vt 0.70654296875 0.68505859375
vt 0.7001953125 0.68310546875
vt 0.7021484375 0.689208984375
vt 0.302490234375 0.68310546875
vt 0.7021484375 0.689208984375
vt 0.7001953125 0.68310546875
vt 0.70654296875 0.68505859375
vt 0.302490234375 0.68310546875
vt 0.302490234375 -0.2314453125
vt 0.7001953125 0.68310546875
vt 0.71923828125 0.7001953125
vt 0.70654296875 0.68505859375
vt 0.7060546875 -0.232421875
vt 0.7060546875 -0.232421875
vt 0.70654296875 0.68505859375
vt 0.7001953125 0.68310546875
vt 0.71923828125 -0.248046875
vt 0.71923828125 0.7001953125
vt 0.7060546875 -0.232421875
vt 0.71923828125 -0.248046875
vt 0.7060546875 -0.232421875
vt 0.7021484375 -0.2373046875
vt 0.302490234375 -0.2314453125
vt 0.7001953125 -0.2314453125
vt 0.7001953125 0.68310546875
vt 0.7001953125 -0.2314453125
vt 0.7060546875 -0.232421875
vt 0.7001953125 0.68310546875
vt 0.7060546875 -0.232421875
vt 0.7001953125 -0.2314453125
vt 0.7021484375 -0.2373046875
vt 0.302490234375 -0.2314453125
vt 0.300537109375 -0.2373046875
vt 0.7001953125 -0.2314453125
vt 0.300537109375 -0.2373046875
vt 0.7021484375 -0.2373046875
vt 0.7001953125 -0.2314453125
vn 0.4422975480556488 0.8111114501953125 0.38271564245224
vn 0.44228872656822205 0.8111268281936646 -0.3826930522918701
vn 0.15391220152378082 0.907895565032959 0.3899186849594116
vn -0.07633447647094727 0.48570019006729126 0.8707861304283142
vn 0.18322372436523438 0.3359179198741913 0.9238983988761902
vn 0.15390358865261078 0.9078975319862366 -0.38991767168045044
vn 0.1831958144903183 0.33596840500831604 -0.9238854646682739
vn -0.4496462941169739 -0.1989193707704544 0.870775043964386
vn -0.183211088180542 -0.3359915018081665 0.9238740801811218
vn -0.07631158083677292 0.48570600152015686 -0.8707847595214844
vn -0.1832219362258911 -0.3359975814819336 -0.923869788646698
vn -0.679876983165741 -0.6210917830467224 0.38988739252090454
vn -0.44229623675346375 -0.8111404180526733 0.38265544176101685
vn -0.449655681848526 -0.1989174336194992 -0.8707706928253174
vn -0.44230252504348755 -0.8111382126808167 -0.38265302777290344
vn -0.6798646450042725 -0.6211042404174805 -0.38988909125328064
vn -0.7826369404792786 0.21102149784564972 -0.5856188535690308
vn -0.9715006351470947 -0.13851416110992432 -0.19235458970069885
vn -0.9714982509613037 -0.13852821290493011 0.1923566460609436
vn -0.6051523685455322 0.5448008179664612 -0.5805020928382874
vn -0.8867771625518799 0.39295193552970886 -0.2433418184518814
vn -0.41898444294929504 0.8886982798576355 -0.18619182705879211
vn -0.8143104910850525 0.5276300311088562 -0.24187803268432617
vn -0.7416154742240906 0.6665590405464172 -0.07553618401288986
vn -0.41898080706596375 0.8886971473693848 0.18620549142360687
vn -0.7416232824325562 0.6665480732917786 0.07555507868528366
vn -0.8003404140472412 0.5851602554321289 -0.13054749369621277
vn -0.6051832437515259 0.544796884059906 0.5804736614227295
vn -0.814305305480957 0.5276209712028503 0.2419152408838272
vn -0.8003410696983337 0.5851515531539917 0.13058288395404816
vn -0.8867716193199158 0.3929634988307953 0.24334275722503662
vn -0.7826245427131653 0.2110150307416916 0.5856376886367798
vn -0.9689526557922363 0.23495317995548248 0.07699176669120789
vn -0.925351083278656 0.3558858633041382 0.1306544989347458
vn -0.9689503312110901 0.23495690524578094 -0.07700884342193604
vn -0.9253525733947754 0.3558882176876068 -0.1306379735469818
f 1/1/1 2/2/2 3/3/3
f 1/4/1 3/5/3 4/6/4
f 5/7/5 1/8/1 4/9/4
f 2/10/2 6/11/6 3/12/3
f 2/13/2 7/14/7 6/15/6
f 5/16/5 4/17/4 8/18/8
f 9/19/9 5/20/5 8/21/8
f 7/22/7 10/23/10 6/24/6
f 7/25/7 11/26/11 10/27/10
f 9/28/9 8/29/8 12/30/12
f 13/31/13 9/32/9 12/33/12
f 11/34/11 14/35/14 10/36/10
f 11/37/11 15/38/15 14/39/14
f 15/40/15 13/41/13 16/42/16
f 15/43/15 16/44/16 14/45/14
f 13/46/13 12/47/12 16/48/16
f 10/49/10 14/50/14 17/51/17
f 16/52/16 18/53/18 14/54/14
f 18/55/18 17/56/17 14/57/14
f 16/58/16 12/59/12 19/60/19
f 18/61/18 16/62/16 19/63/19
f 20/64/20 10/65/10 17/66/17
f 10/67/10 20/68/20 6/69/6
f 17/70/17 18/71/18 21/72/21
f 20/73/20 22/74/22 6/75/6
f 3/76/3 6/77/6 22/78/22
f 20/79/20 17/80/17 23/81/23
f 17/82/17 21/83/21 23/84/23
f 22/85/22 20/86/20 24/87/24
f 20/88/20 23/89/23 24/90/24
f 25/91/25 3/92/3 22/93/22
f 3/94/3 25/95/25 4/96/4
f 22/97/22 24/98/24 26/99/26
f 25/100/25 22/101/22 26/102/26
f 23/103/23 27/104/27 24/105/24
f 26/106/26 24/107/24 27/108/27
f 25/109/25 28/110/28 4/111/4
f 8/112/8 4/113/4 28/114/28
f 25/115/25 26/116/26 29/117/29
f 28/118/28 25/119/25 29/120/29
f 26/121/26 30/122/30 29/123/29
f 30/124/30 26/125/26 27/126/27
f 28/127/28 29/128/29 31/129/31
f 31/130/31 29/131/29 30/132/30
f 32/133/32 8/134/8 28/135/28
f 32/136/32 28/137/28 31/138/31
f 8/139/8 32/140/32 12/141/12
f 32/142/32 19/143/19 12/144/12
f 32/145/32 31/146/31 33/147/33
f 19/148/19 32/149/32 33/150/33
f 34/151/34 31/152/31 30/153/30
f 31/154/31 34/155/34 33/156/33
f 30/157/30 27/158/27 34/159/34
f 19/160/19 33/161/33 35/162/35
f 35/163/35 33/164/33 34/165/34
f 18/166/18 19/167/19 35/168/35
f 18/169/18 35/170/35 21/171/21
f 27/172/27 36/173/36 34/174/34
f 36/175/36 35/176/35 34/177/34
f 35/178/35 36/179/36 21/180/21
f 27/181/27 23/182/23 36/183/36
f 23/184/23 21/185/21 36/186/36
