# Exported by Lightwave Blender addon
v -0.8618767857551575 -1262.8504638671875 325.6703186035156
v -0.8618844151496887 -1262.8504638671875 351.20697021484375
v -6.750273704528809 -1277.65625 325.6683654785156
v -6.750273704528809 -1277.6563720703125 351.207763671875
v -23.084455490112305 -1238.8392333984375 325.6704406738281
v -46.27197265625 -1229.357666015625 351.20684814453125
v -8.511862754821777 -1244.7979736328125 325.6704406738281
v -8.512206077575684 -1244.7978515625 351.2069091796875
v -24.505773544311523 -1239.33837890625 325.38427734375
v -35.56120300292969 -1265.87744140625 325.38226318359375
v -48.21296691894531 -1229.6444091796875 351.4930419921875
v -59.268428802490234 -1256.1834716796875 351.49383544921875
v -0.9552262425422668 -1261.034912109375 325.6701965332031
v -4.568144798278809 -1254.1160888671875 325.6683654785156
v -0.9552262425422668 -1261.034912109375 351.20697021484375
v -4.568358421325684 -1254.115966796875 351.207763671875
v -7.266722679138184 -1246.1240234375 351.20697021484375
v -7.266371726989746 -1246.1240234375 325.67022705078125
v 94.38819885253906 -1301.798828125 325.6703186035156
v 88.21563720703125 -1316.48828125 325.6683654785156
v 94.38819885253906 -1301.798828125 351.20697021484375
v 88.21563720703125 -1316.4884033203125 351.207763671875
v 127.06756591796875 -1300.2374267578125 325.6704406738281
v 112.49496459960938 -1294.278564453125 325.6704406738281
v 150.25506591796875 -1309.718994140625 351.20684814453125
v 112.49531555175781 -1294.2786865234375 351.2069091796875
v 127.73191833496094 -1301.5894775390625 325.38427734375
v 151.4391326904297 -1311.2835693359375 351.4930419921875
v 117.02503967285156 -1328.2711181640625 325.38226318359375
v 140.7322235107422 -1337.965087890625 351.4938049316406
v 95.7269287109375 -1300.5687255859375 325.6701965332031
v 95.72691345214844 -1300.5687255859375 351.20697021484375
v 103.15240478515625 -1298.1636962890625 325.6683654785156
v 103.152587890625 -1298.163818359375 351.207763671875
v 110.67762756347656 -1294.3521728515625 351.20697021484375
v 110.67726135253906 -1294.3519287109375 325.67022705078125
v -5.021994590759277 -1255.007080078125 324.6680908203125
v -7.974165916442871 -1246.0982666015625 324.670166015625
v -5.0222272872924805 -1255.007080078125 352.2078857421875
v -1.5909837484359741 -1261.9776611328125 352.20721435546875
v -7.974547386169434 -1246.09814453125 352.20703125
v -58.99098587036133 -1256.296875 352.20782470703125
v -47.935516357421875 -1229.7578125 352.20697021484375
v -1.5909761190414429 -1261.9776611328125 324.6697692871094
v 151.16168212890625 -1311.1700439453125 352.20697021484375
v 140.4547576904297 -1337.8516845703125 352.2077941894531
v 102.85188293457031 -1299.1175537109375 324.6680908203125
v 95.51988220214844 -1301.6868896484375 324.6697692871094
v 95.51986694335938 -1301.686767578125 352.20721435546875
v 102.85209655761719 -1299.11767578125 352.2078857421875
v 111.20071411132812 -1294.8297119140625 352.20703125
v 111.2003173828125 -1294.82958984375 324.670166015625
v -19.129148483276367 -1272.600341796875 352.2104187011719
v -14.867724418640137 -1274.3370361328125 352.2104187011719
v -7.67587947845459 -1277.27783203125 352.20806884765625
v -7.675887107849121 -1277.2777099609375 324.66766357421875
v -14.86750316619873 -1274.3370361328125 324.66217041015625
v -19.128469467163086 -1272.6007080078125 324.66217041015625
v -22.932004928588867 -1239.9820556640625 324.6700744628906
v -33.98753356933594 -1266.5211181640625 324.6679992675781
v 89.1412353515625 -1316.8670654296875 352.20806884765625
v 96.33308410644531 -1319.807861328125 352.2104187011719
v 100.59033203125 -1321.5545654296875 352.2104187011719
v 126.15814208984375 -1300.9459228515625 324.6700744628906
v 115.45118713378906 -1327.627685546875 324.6679992675781
v 100.58964538574219 -1321.5543212890625 324.66217041015625
v 96.33285522460938 -1319.8076171875 324.66217041015625
v 89.1412353515625 -1316.866943359375 324.66766357421875
vt 0.50341796875 -0.4462890625
vt 0.50341796875 -0.318359375
vt 0.423828125 -0.4462890625
vt 0.50341796875 -0.318359375
vt 0.423828125 -0.318359375
vt 0.423828125 -0.4462890625
vt 0.587890625 -0.4462890625
vt 0.71337890625 -0.318359375
vt 0.50927734375 -0.4462890625
vt 0.71337890625 -0.318359375
vt 0.50927734375 -0.318359375
vt 0.50927734375 -0.4462890625
vt 0.43212890625 -0.4482421875
vt 0.57568359375 -0.4482421875
vt 0.43212890625 -0.3173828125
vt 0.57568359375 -0.4482421875
vt 0.57568359375 -0.3173828125
vt 0.43212890625 -0.3173828125
vt 0.44384765625 -0.4462890625
vt 0.4736328125 -0.4462890625
vt 0.44384765625 -0.318359375
vt 0.4736328125 -0.4462890625
vt 0.4736328125 -0.318359375
vt 0.44384765625 -0.318359375
vt 0.56884765625 -0.318359375
vt 0.537109375 -0.318359375
vt 0.56884765625 -0.4462890625
vt 0.537109375 -0.318359375
vt 0.537109375 -0.4462890625
vt 0.56884765625 -0.4462890625
vt 0.49609375 -0.4462890625
vt 0.57568359375 -0.4462890625
vt 0.49609375 -0.318359375
vt 0.57568359375 -0.4462890625
vt 0.57568359375 -0.318359375
vt 0.49609375 -0.318359375
vt -0.22265625 -0.4462890625
vt -0.1439208984375 -0.4462890625
vt -0.347900390625 -0.318359375
vt -0.1439208984375 -0.4462890625
vt -0.1439208984375 -0.318359375
vt -0.347900390625 -0.318359375
vt 0.5673828125 -0.4482421875
vt 0.5673828125 -0.3173828125
vt 0.423828125 -0.4482421875
vt 0.5673828125 -0.3173828125
vt 0.423828125 -0.3173828125
vt 0.423828125 -0.4482421875
vt -0.07830810546875 -0.4462890625
vt -0.07830810546875 -0.318359375
vt -0.10809326171875 -0.4462890625
vt -0.07830810546875 -0.318359375
vt -0.10809326171875 -0.318359375
vt -0.10809326171875 -0.4462890625
vt 0.430908203125 -0.318359375
vt 0.430908203125 -0.4462890625
vt 0.462646484375 -0.318359375
vt 0.430908203125 -0.4462890625
vt 0.462646484375 -0.4462890625
vt 0.462646484375 -0.318359375
vt 0.537109375 -0.4462890625
vt 0.53173828125 -0.451171875
vt 0.56884765625 -0.4462890625
vt 0.53173828125 -0.451171875
vt 0.5673828125 -0.451171875
vt 0.56884765625 -0.4462890625
vt 0.4736328125 0.462890625
vt 0.47412109375 0.46826171875
vt 0.44384765625 0.48828125
vt 0.47412109375 0.46826171875
vt 0.445068359375 0.49365234375
vt 0.44384765625 0.48828125
vt 0.56884765625 -0.318359375
vt 0.5673828125 -0.3134765625
vt 0.537109375 -0.318359375
vt 0.5673828125 -0.3134765625
vt 0.53173828125 -0.3134765625
vt 0.537109375 -0.318359375
vt 0.57568359375 -0.3173828125
vt 0.57568359375 -0.3134765625
vt 0.43212890625 -0.3173828125
vt 0.57568359375 -0.3134765625
vt 0.43212890625 -0.3134765625
vt 0.43212890625 -0.3173828125
vt 0.5556640625 0.48828125
vt 0.5546875 0.49365234375
vt 0.52587890625 0.462890625
vt 0.5546875 0.49365234375
vt 0.525390625 0.46826171875
vt 0.52587890625 0.462890625
vt 0.5673828125 -0.3173828125
vt 0.5673828125 -0.3134765625
vt 0.423828125 -0.3173828125
vt 0.5673828125 -0.3134765625
vt 0.423828125 -0.3134765625
vt 0.423828125 -0.3173828125
vt 1.107421875 0.462890625
vt 1.1083984375 0.46826171875
vt 1.078125 0.48828125
vt 1.1083984375 0.46826171875
vt 1.0791015625 0.49365234375
vt 1.078125 0.48828125
vt -0.07830810546875 0.48828125
vt -0.0794677734375 0.49365234375
vt -0.10809326171875 0.462890625
vt -0.0794677734375 0.49365234375
vt -0.1085205078125 0.46826171875
vt -0.10809326171875 0.462890625
vt 0.462646484375 -0.318359375
vt 0.4677734375 -0.3134765625
vt 0.430908203125 -0.318359375
vt 0.4677734375 -0.3134765625
vt 0.43212890625 -0.3134765625
vt 0.430908203125 -0.318359375
vt 0.430908203125 -0.4462890625
vt 0.43212890625 -0.451171875
vt 0.462646484375 -0.4462890625
vt 0.43212890625 -0.451171875
vt 0.4677734375 -0.451171875
vt 0.462646484375 -0.4462890625
vt 0.72021484375 0.4326171875
vt 0.72119140625 0.576171875
vt 0.505859375 0.576171875
vt 0.50439453125 0.4326171875
vt 0.72021484375 0.4326171875
vt 0.505859375 0.576171875
vt 0.50439453125 0.4326171875
vt 0.505859375 0.576171875
vt 0.483154296875 0.576171875
vt 0.47412109375 0.46826171875
vt 0.50439453125 0.4326171875
vt 0.483154296875 0.576171875
vt 0.47412109375 0.46826171875
vt 0.483154296875 0.576171875
vt 0.444091796875 0.576171875
vt 0.445068359375 0.49365234375
vt 0.47412109375 0.46826171875
vt 0.444091796875 0.576171875
vt 0.5546875 0.49365234375
vt 0.5556640625 0.576171875
vt 0.525390625 0.46826171875
vt 0.5556640625 0.576171875
vt 0.5166015625 0.576171875
vt 0.525390625 0.46826171875
vt 0.525390625 0.46826171875
vt 0.5166015625 0.576171875
vt 0.4951171875 0.4326171875
vt 0.5166015625 0.576171875
vt 0.49365234375 0.576171875
vt 0.4951171875 0.4326171875
vt 0.4951171875 0.4326171875
vt 0.49365234375 0.576171875
vt 0.414306640625 0.4326171875
vt 0.49365234375 0.576171875
vt 0.413330078125 0.576171875
vt 0.414306640625 0.4326171875
vt -0.0794677734375 0.49365234375
vt -0.07867431640625 0.576171875
vt -0.1085205078125 0.46826171875
vt -0.07867431640625 0.576171875
vt -0.11749267578125 0.576171875
vt -0.1085205078125 0.46826171875
vt -0.1085205078125 0.46826171875
vt -0.11749267578125 0.576171875
vt -0.1390380859375 0.4326171875
vt -0.11749267578125 0.576171875
vt -0.1405029296875 0.576171875
vt -0.1390380859375 0.4326171875
vt -0.1390380859375 0.4326171875
vt -0.1405029296875 0.576171875
vt -0.354736328125 0.4326171875
vt -0.1405029296875 0.576171875
vt -0.355712890625 0.576171875
vt -0.354736328125 0.4326171875
vt 1.2197265625 0.4326171875
vt 1.220703125 0.576171875
vt 1.1396484375 0.576171875
vt 1.138671875 0.4326171875
vt 1.2197265625 0.4326171875
vt 1.1396484375 0.576171875
vt 1.138671875 0.4326171875
vt 1.1396484375 0.576171875
vt 1.1171875 0.576171875
vt 1.1083984375 0.46826171875
vt 1.138671875 0.4326171875
vt 1.1171875 0.576171875
vt 1.1083984375 0.46826171875
vt 1.1171875 0.576171875
vt 1.078125 0.576171875
vt 1.0791015625 0.49365234375
vt 1.1083984375 0.46826171875
vt 1.078125 0.576171875
vt 1.228515625 0.576171875
vt 1.220703125 0.576171875
vt 1.2275390625 0.4326171875
vt 1.220703125 0.576171875
vt 1.2197265625 0.4326171875
vt 1.2275390625 0.4326171875
vt 1.2275390625 0.4326171875
vt 1.2197265625 0.4326171875
vt 1.22265625 0.42724609375
vt 0.41162109375 0.42724609375
vt 0.414306640625 0.4326171875
vt 0.406005859375 0.4326171875
vt 0.406005859375 0.4326171875
vt 0.414306640625 0.4326171875
vt 0.405029296875 0.576171875
vt 0.414306640625 0.4326171875
vt 0.413330078125 0.576171875
vt 0.405029296875 0.576171875
vt 0.50634765625 -0.3134765625
vt 0.423828125 -0.3134765625
vt 0.423828125 -0.318359375
vt 0.50341796875 -0.318359375
vt 0.50634765625 -0.3134765625
vt 0.423828125 -0.318359375
vt 0.51171875 -0.318359375
vt 0.50634765625 -0.3134765625
vt 0.50341796875 -0.318359375
vt 0.51171875 -0.4462890625
vt 0.51171875 -0.318359375
vt 0.50341796875 -0.318359375
vt 0.50341796875 -0.4462890625
vt 0.51171875 -0.4462890625
vt 0.50341796875 -0.318359375
vt 0.50634765625 -0.451171875
vt 0.51171875 -0.4462890625
vt 0.50341796875 -0.4462890625
vt 0.423828125 -0.451171875
vt 0.50634765625 -0.451171875
vt 0.50341796875 -0.4462890625
vt 0.423828125 -0.4462890625
vt 0.423828125 -0.451171875
vt 0.50341796875 -0.4462890625
vt 0.50439453125 -0.451171875
vt 0.58544921875 -0.451171875
vt 0.587890625 -0.4462890625
vt 0.50927734375 -0.4462890625
vt 0.50439453125 -0.451171875
vt 0.587890625 -0.4462890625
vt 0.50927734375 -0.4462890625
vt 0.5009765625 -0.4462890625
vt 0.50439453125 -0.451171875
vt 0.5009765625 -0.318359375
vt 0.5009765625 -0.4462890625
vt 0.50927734375 -0.4462890625
vt 0.50927734375 -0.318359375
vt 0.5009765625 -0.318359375
vt 0.50927734375 -0.4462890625
vt 0.50439453125 -0.3134765625
vt 0.5009765625 -0.318359375
vt 0.50927734375 -0.318359375
vt 0.72021484375 -0.3134765625
vt 0.50439453125 -0.3134765625
vt 0.50927734375 -0.318359375
vt 0.71337890625 -0.318359375
vt 0.72021484375 -0.3134765625
vt 0.50927734375 -0.318359375
vt 0.7216796875 -0.3173828125
vt 0.72021484375 -0.3134765625
vt 0.71337890625 -0.318359375
vt 0.59375 -0.4482421875
vt 0.7216796875 -0.3173828125
vt 0.71337890625 -0.318359375
vt 0.587890625 -0.4462890625
vt 0.59375 -0.4482421875
vt 0.71337890625 -0.318359375
vt 0.493408203125 -0.451171875
vt 0.57568359375 -0.451171875
vt 0.57568359375 -0.4462890625
vt 0.49609375 -0.4462890625
vt 0.493408203125 -0.451171875
vt 0.57568359375 -0.4462890625
vt 0.488037109375 -0.4462890625
vt 0.493408203125 -0.451171875
vt 0.49609375 -0.4462890625
vt 0.488037109375 -0.318359375
vt 0.488037109375 -0.4462890625
vt 0.49609375 -0.4462890625
vt 0.49609375 -0.318359375
vt 0.488037109375 -0.318359375
vt 0.49609375 -0.4462890625
vt 0.493408203125 -0.3134765625
vt 0.488037109375 -0.318359375
vt 0.49609375 -0.318359375
vt 0.57568359375 -0.3134765625
vt 0.493408203125 -0.3134765625
vt 0.49609375 -0.318359375
vt 0.57568359375 -0.318359375
vt 0.57568359375 -0.3134765625
vt 0.49609375 -0.318359375
vt -0.356201171875 -0.3173828125
vt -0.228271484375 -0.4482421875
vt -0.22265625 -0.4462890625
vt -0.347900390625 -0.318359375
vt -0.356201171875 -0.3173828125
vt -0.22265625 -0.4462890625
vt -0.354736328125 -0.3134765625
vt -0.356201171875 -0.3173828125
vt -0.347900390625 -0.318359375
vt -0.1390380859375 -0.3134765625
vt -0.354736328125 -0.3134765625
vt -0.347900390625 -0.318359375
vt -0.1439208984375 -0.318359375
vt -0.1390380859375 -0.3134765625
vt -0.347900390625 -0.318359375
vt -0.1439208984375 -0.318359375
vt -0.1357421875 -0.318359375
vt -0.1390380859375 -0.3134765625
vt -0.1357421875 -0.4462890625
vt -0.1357421875 -0.318359375
vt -0.1439208984375 -0.318359375
vt -0.1439208984375 -0.4462890625
vt -0.1357421875 -0.4462890625
vt -0.1439208984375 -0.318359375
vt -0.1439208984375 -0.4462890625
vt -0.1390380859375 -0.451171875
vt -0.1357421875 -0.4462890625
vt -0.2198486328125 -0.451171875
vt -0.1390380859375 -0.451171875
vt -0.1439208984375 -0.4462890625
vt -0.22265625 -0.4462890625
vt -0.2198486328125 -0.451171875
vt -0.1439208984375 -0.4462890625
vn 0.9221980571746826 -0.17596180737018585 -0.34436658024787903
vn 0.922164261341095 -0.1759682446718216 0.34445348381996155
vn 0.8588697910308838 -0.34152933955192566 -0.38170716166496277
vn 0.8588314652442932 -0.3415391743183136 0.3817845582962036
vn 0.16088953614234924 0.8825057148933411 -0.44192564487457275
vn 0.08944271504878998 0.9883245229721069 0.12334694713354111
vn 0.5042839646339417 0.7953258752822876 -0.3363843858242035
vn 0.5042948126792908 0.7953024506568909 0.33642345666885376
vn -0.3717023432254791 0.5293084979057312 -0.7626728415489197
vn -0.5189545154571533 0.21623046696186066 -0.8270009756088257
vn -0.6601347923278809 0.735884428024292 -0.1506529301404953
vn -0.9067203402519226 0.3777098059654236 -0.1875990927219391
vn 0.89930659532547 0.26956403255462646 -0.3443589210510254
vn 0.8757327198982239 0.3591228425502777 -0.32268086075782776
vn 0.9022874236106873 0.2656770646572113 0.3395482897758484
vn 0.8759673833847046 0.36091214418411255 0.32003679871559143
vn 0.8366148471832275 0.4816238284111023 0.2609870135784149
vn 0.8369367718696594 0.48048272728919983 -0.2620561420917511
vn -0.7812841534614563 0.5205914378166199 -0.34435391426086426
vn -0.852082371711731 0.3580988645553589 -0.3817340135574341
vn -0.781274139881134 0.520561695098877 0.34442153573036194
vn -0.8520647883415222 0.3580584228038788 0.381811261177063
vn 0.5035561919212341 0.742393434047699 -0.44190847873687744
vn 0.19746632874011993 0.9207877516746521 -0.3363882601261139
vn 0.6286481022834778 0.7678459286689758 0.12334522604942322
vn 0.1974380612373352 0.9207828640937805 0.3364180326461792
vn 0.6360786557197571 0.11720441281795502 -0.7626710534095764
vn 0.986609935760498 0.06252391636371613 -0.15063703060150146
vn 0.5217717289924622 -0.2093317061662674 -0.8270033001899719
vn 0.9115931987762451 -0.3658134341239929 -0.18755878508090973
vn -0.4576782286167145 0.8217570185661316 -0.3394790589809418
vn -0.45273980498313904 0.8224414587020874 0.34440791606903076
vn -0.3721230626106262 0.8712632656097412 -0.3200385868549347
vn -0.3731856942176819 0.8698129653930664 0.3227349817752838
vn -0.26052209734916687 0.9292157888412476 0.26208046078681946
vn -0.2593981921672821 0.9298318028450012 -0.26100826263427734
vn 0.39061734080314636 0.17006613314151764 -0.9047074913978577
vn 0.4250742197036743 0.346646249294281 -0.8361508846282959
vn 0.38334572315216064 0.17232589423656464 0.907386302947998
vn 0.4843612313270569 0.020990416407585144 0.8746162056922913
vn 0.4241583049297333 0.34734153747558594 0.8363273739814758
vn -0.5125158429145813 0.21352660655975342 0.8317053914070129
vn -0.3141272962093353 0.5929142832756042 0.7414692640304565
vn 0.4846503436565399 0.02438841201364994 -0.874367892742157
vn 0.6395495533943176 0.20296436548233032 0.7414727807044983
vn 0.5152533650398254 -0.20673741400241852 0.8317292332649231
vn -0.15280026197433472 0.3916308581829071 -0.9073463678359985
vn -0.33103543519973755 0.3544485569000244 -0.8745179772377014
vn -0.3286021947860718 0.35690543055534363 0.8744364380836487
vn -0.15948458015918732 0.39490196108818054 0.9047746062278748
vn -0.06045714393258095 0.5450876951217651 0.8361963629722595
vn -0.05919883772730827 0.5450592637062073 -0.8363049626350403
vn 2.7389329261495732e-05 9.826984023675323e-05 1.0
vn 0.00017223581380676478 4.3634219764498994e-05 1.0
vn 0.35767892003059387 -0.14217980206012726 0.9229576587677002
vn 0.35795003175735474 -0.1421961635351181 -0.9228498935699463
vn 0.00040231275488622487 0.00010349394142394885 -0.9999998807907104
vn -3.431584991631098e-05 0.00023979146499186754 -0.9999999403953552
vn -0.01932654157280922 0.3831527531147003 -0.9234827756881714
vn -0.18320946395397186 0.07639724761247635 -0.9801009893417358
vn -0.3547993004322052 0.14915579557418823 0.9229680299758911
vn -9.231574949808419e-05 0.00015181097842287272 1.0
vn 4.936021286994219e-05 8.907053415896371e-05 1.0
vn 0.2822681665420532 0.2598573565483093 -0.9234711527824402
vn 0.18424254655838013 -0.07385814189910889 -0.9801018238067627
vn 0.00019249830802436918 0.00014704464410897344 -0.9999999403953552
vn -0.0002145328326150775 0.00035572817432694137 -0.9999999403953552
vn -0.3550007939338684 0.14933818578720093 -0.9228610992431641
f 1/1/1 2/2/2 3/3/3
f 2/4/2 4/5/4 3/6/3
f 5/7/5 6/8/6 7/9/7
f 6/10/6 8/11/8 7/12/7
f 9/13/9 10/14/10 11/15/11
f 10/16/10 12/17/12 11/18/11
f 13/19/13 14/20/14 15/21/15
f 14/22/14 16/23/16 15/24/15
f 17/25/17 16/26/16 18/27/18
f 16/28/16 14/29/14 18/30/18
f 19/31/19 20/32/20 21/33/21
f 20/34/20 22/35/22 21/36/21
f 23/37/23 24/38/24 25/39/25
f 24/40/24 26/41/26 25/42/25
f 27/43/27 28/44/28 29/45/29
f 28/46/28 30/47/30 29/48/29
f 31/49/31 32/50/32 33/51/33
f 32/52/32 34/53/34 33/54/33
f 35/55/35 36/56/36 34/57/34
f 36/58/36 33/59/33 34/60/34
f 14/61/14 37/62/37 18/63/18
f 37/64/37 38/65/38 18/66/18
f 16/67/16 39/68/39 15/69/15
f 39/70/39 40/71/40 15/72/15
f 17/73/17 41/74/41 16/75/16
f 41/76/41 39/77/39 16/78/16
f 12/79/12 42/80/42 11/81/11
f 42/82/42 43/83/43 11/84/11
f 13/85/13 44/86/44 14/87/14
f 44/88/44 37/89/37 14/90/14
f 28/91/28 45/92/45 30/93/30
f 45/94/45 46/95/46 30/96/30
f 33/97/33 47/98/47 31/99/31
f 47/100/47 48/101/48 31/102/31
f 32/103/32 49/104/49 34/105/34
f 49/106/49 50/107/50 34/108/34
f 34/109/34 50/110/50 35/111/35
f 50/112/50 51/113/51 35/114/35
f 36/115/36 52/116/52 33/117/33
f 52/118/52 47/119/47 33/120/33
f 43/121/43 42/122/42 53/123/53
f 41/124/41 43/125/43 53/126/53
f 41/127/41 53/128/53 54/129/54
f 39/130/39 41/131/41 54/132/54
f 39/133/39 54/134/54 55/135/55
f 40/136/40 39/137/39 55/138/55
f 44/139/44 56/140/56 37/141/37
f 56/142/56 57/143/57 37/144/37
f 37/145/37 57/146/57 38/147/38
f 57/148/57 58/149/58 38/150/38
f 38/151/38 58/152/58 59/153/59
f 58/154/58 60/155/60 59/156/59
f 49/157/49 61/158/61 50/159/50
f 61/160/61 62/161/62 50/162/50
f 50/163/50 62/164/62 51/165/51
f 62/166/62 63/167/63 51/168/51
f 51/169/51 63/170/63 45/171/45
f 63/172/63 46/173/46 45/174/45
f 64/175/64 65/176/65 66/177/66
f 52/178/52 64/179/64 66/180/66
f 52/181/52 66/182/66 67/183/67
f 47/184/47 52/185/52 67/186/67
f 47/187/47 67/188/67 68/189/68
f 48/190/48 47/191/47 68/192/68
f 29/193/29 65/194/65 27/195/27
f 65/196/65 64/197/64 27/198/27
f 27/199/27 64/200/64 23/201/23
f 5/202/5 59/203/59 9/204/9
f 9/205/9 59/206/59 10/207/10
f 59/208/59 60/209/60 10/210/10
f 40/211/40 55/212/55 4/213/4
f 2/214/2 40/215/40 4/216/4
f 15/217/15 40/218/40 2/219/2
f 13/220/13 15/221/15 2/222/2
f 1/223/1 13/224/13 2/225/2
f 44/226/44 13/227/13 1/228/1
f 56/229/56 44/230/44 1/231/1
f 3/232/3 56/233/56 1/234/1
f 38/235/38 59/236/59 5/237/5
f 7/238/7 38/239/38 5/240/5
f 7/241/7 18/242/18 38/243/38
f 17/244/17 18/245/18 7/246/7
f 8/247/8 17/248/17 7/249/7
f 41/250/41 17/251/17 8/252/8
f 43/253/43 41/254/41 8/255/8
f 6/256/6 43/257/43 8/258/8
f 11/259/11 43/260/43 6/261/6
f 9/262/9 11/263/11 6/264/6
f 5/265/5 9/266/9 6/267/6
f 48/268/48 68/269/68 20/270/20
f 19/271/19 48/272/48 20/273/20
f 31/274/31 48/275/48 19/276/19
f 32/277/32 31/278/31 19/279/19
f 21/280/21 32/281/32 19/282/19
f 49/283/49 32/284/32 21/285/21
f 61/286/61 49/287/49 21/288/21
f 22/289/22 61/290/61 21/291/21
f 28/292/28 27/293/27 23/294/23
f 25/295/25 28/296/28 23/297/23
f 45/298/45 28/299/28 25/300/25
f 51/301/51 45/302/45 25/303/25
f 26/304/26 51/305/51 25/306/25
f 26/307/26 35/308/35 51/309/51
f 36/310/36 35/311/35 26/312/26
f 24/313/24 36/314/36 26/315/26
f 24/316/24 52/317/52 36/318/36
f 64/319/64 52/320/52 24/321/24
f 23/322/23 64/323/64 24/324/24
