# Exported by Lightwave Blender addon
v 210.86111450195312 1050.5999755859375 416.6864013671875
v 220.66452026367188 1045.314453125 407.3409118652344
v 203.12640380859375 1036.25390625 416.6864013671875
v 212.9298095703125 1030.968505859375 407.3409118652344
vt 0.0 1.0
vt 0.0 0.0
vt 1.0 1.0
vt 0.0 0.0
vt 1.0 0.0
vt 1.0 1.0
vn -0.5657939314842224 0.3050489127635956 -0.7660433053970337
vn -0.5657942295074463 0.305050253868103 -0.7660426497459412
vn -0.5657943487167358 0.30505049228668213 -0.7660424709320068
vn -0.5657945275306702 0.3050518035888672 -0.76604163646698
f 1/1/1 2/2/2 3/3/3
f 2/4/2 4/5/4 3/6/3
