# Exported by Lightwave Blender addon
v -227.0878143310547 -1515.2579345703125 1020.3807373046875
v -246.62815856933594 -1507.267822265625 1020.3807373046875
v -221.7091064453125 -1502.1041259765625 1020.3807373046875
v -241.2494354248047 -1494.114013671875 1020.3807373046875
v -227.0878143310547 -1515.2579345703125 1024.0206298828125
v -221.7091064453125 -1502.1041259765625 1024.0206298828125
v -246.62815856933594 -1507.267822265625 1024.020751953125
v -241.2494354248047 -1494.114013671875 1024.020751953125
v -227.0878143310547 -1515.2579345703125 844.5474243164062
v -246.62815856933594 -1507.267822265625 844.5471801757812
v -221.70912170410156 -1502.1041259765625 844.5474243164062
v -241.2494354248047 -1494.114013671875 844.5471801757812
v -227.0878143310547 -1515.2579345703125 848.1868286132812
v -221.70912170410156 -1502.1041259765625 848.1868286132812
v -246.62815856933594 -1507.267822265625 848.1868286132812
v -241.2494354248047 -1494.114013671875 848.1868286132812
vt 0.38525390625 0.2001953125
vt 0.0099945068359375 0.2001953125
vt 0.38525390625 0.01025390625
vt 0.0099945068359375 0.2001953125
vt 0.0099945068359375 0.01025390625
vt 0.38525390625 0.01025390625
vt 0.0099945068359375 0.421875
vt 0.0099945068359375 0.23193359375
vt 0.38525390625 0.421875
vt 0.0099945068359375 0.23193359375
vt 0.38525390625 0.23193359375
vt 0.38525390625 0.421875
vt 0.38525390625 0.9900054931640625
vt 0.0099945068359375 0.9900054931640625
vt 0.38525390625 0.843994140625
vt 0.0099945068359375 0.9900054931640625
vt 0.0099945068359375 0.843994140625
vt 0.38525390625 0.843994140625
vt 0.8125 0.8204345703125
vt 0.62255859375 0.8204345703125
vt 0.8125 0.674560546875
vt 0.62255859375 0.8204345703125
vt 0.62255859375 0.674560546875
vt 0.8125 0.674560546875
vt 0.7919921875 0.59912109375
vt 0.416748046875 0.59912109375
vt 0.7919921875 0.453125
vt 0.416748046875 0.59912109375
vt 0.416748046875 0.453125
vt 0.7919921875 0.453125
vt 0.38525390625 0.64306640625
vt 0.0099945068359375 0.64306640625
vt 0.38525390625 0.453125
vt 0.0099945068359375 0.64306640625
vt 0.0099945068359375 0.453125
vt 0.38525390625 0.453125
vt 0.416748046875 0.2001953125
vt 0.416748046875 0.01025390625
vt 0.7919921875 0.2001953125
vt 0.416748046875 0.01025390625
vt 0.7919921875 0.01025390625
vt 0.7919921875 0.2001953125
vt 0.7919921875 0.3779296875
vt 0.416748046875 0.3779296875
vt 0.7919921875 0.23193359375
vt 0.416748046875 0.3779296875
vt 0.416748046875 0.23193359375
vt 0.7919921875 0.23193359375
vt 0.5986328125 0.9900054931640625
vt 0.408935546875 0.9900054931640625
vt 0.5986328125 0.843994140625
vt 0.408935546875 0.9900054931640625
vt 0.408935546875 0.843994140625
vt 0.5986328125 0.843994140625
vt 0.38525390625 0.8204345703125
vt 0.0099945068359375 0.8204345703125
vt 0.38525390625 0.674560546875
vt 0.0099945068359375 0.8204345703125
vt 0.0099945068359375 0.674560546875
vt 0.38525390625 0.674560546875
vn -0.26762649416923523 -0.6544981598854065 -0.7071125507354736
vn -0.7529035210609436 -0.3158913850784302 -0.5773637890815735
vn 0.26762720942497253 0.654499351978302 -0.7071112394332886
vn -0.3158838748931885 0.7529149055480957 -0.5773530006408691
vn -0.26762497425079346 -0.6545053124427795 0.7071065306663513
vn 0.2676297426223755 0.6544947624206543 0.7071146368980408
vn -0.7529138922691345 -0.3158729076385498 0.5773603320121765
vn -0.3158609867095947 0.7529190182685852 0.5773601531982422
vn -0.2676200270652771 -0.6545040011405945 -0.7071097493171692
vn -0.7529004812240601 -0.3158921003341675 -0.5773674249649048
vn 0.2676357924938202 0.6544983386993408 -0.7071089148521423
vn -0.31588152050971985 0.7529130578041077 -0.5773568153381348
vn -0.26762840151786804 -0.6545027494430542 0.7071076035499573
vn 0.2676254212856293 0.65449458360672 0.7071163654327393
vn -0.7529154419898987 -0.31587255001068115 0.5773584842681885
vn -0.31586211919784546 0.7529199719429016 0.5773583650588989
f 1/1/1 2/2/2 3/3/3
f 2/4/2 4/5/4 3/6/3
f 5/7/5 6/8/6 7/9/7
f 6/10/6 8/11/8 7/12/7
f 3/13/3 4/14/4 6/15/6
f 4/16/4 8/17/8 6/18/6
f 4/19/4 2/20/2 8/21/8
f 2/22/2 7/23/7 8/24/8
f 2/25/2 1/26/1 7/27/7
f 1/28/1 5/29/5 7/30/7
f 9/31/9 10/32/10 11/33/11
f 10/34/10 12/35/12 11/36/11
f 13/37/13 14/38/14 15/39/15
f 14/40/14 16/41/16 15/42/15
f 11/43/11 12/44/12 14/45/14
f 12/46/12 16/47/16 14/48/14
f 12/49/12 10/50/10 16/51/16
f 10/52/10 15/53/15 16/54/16
f 10/55/10 9/56/9 15/57/15
f 9/58/9 13/59/13 15/60/15
