# Exported by Lightwave Blender addon
v 355.10052490234375 598.4760131835938 1678.2152099609375
v 623.289306640625 -12.55434513092041 1678.214599609375
v 547.4426879882812 950.7702026367188 1686.5081787109375
v 1126.942626953125 641.8976440429688 1670.384765625
v 1515.991455078125 430.7569580078125 1670.9776611328125
v 1242.25537109375 -257.6808776855469 1678.2174072265625
vt -1.9619140625 -1.326171875
vt 1.373046875 -1.291015625
vt -3.205078125 0.24951171875
vt 1.373046875 -1.291015625
vt -0.646484375 2.30859375
vt -3.205078125 0.24951171875
vt -0.646484375 2.30859375
vt 1.373046875 -1.291015625
vt 1.087890625 3.681640625
vt 1.373046875 -1.291015625
vt 3.71484375 1.0723876953125
vt 1.087890625 3.681640625
vn -0.02389206737279892 -0.01048752199858427 0.999659538269043
vn 0.006102308630943298 0.0014338343171402812 0.9999803304672241
vn 0.006634609308093786 -0.008086489513516426 0.999945342540741
vn 0.012800212018191814 0.002112156944349408 0.9999158978462219
vn 0.003543475177139044 0.00918839406222105 0.9999514818191528
vn 0.003594009904190898 0.009086644276976585 0.9999522566795349
f 1/1/1 2/2/2 3/3/3
f 2/4/2 4/5/4 3/6/3
f 4/7/4 2/8/2 5/9/5
f 2/10/2 6/11/6 5/12/5
