# Exported by Lightwave Blender addon
v -856.7705688476562 1136.878173828125 416.4197082519531
v -852.7589721679688 1130.689697265625 416.4197082519531
v -850.535400390625 1133.1551513671875 379.9544982910156
v -853.6121215820312 1137.901611328125 379.9544982910156
v -857.1505126953125 1144.243408203125 416.4197082519531
v -853.9034423828125 1143.5504150390625 379.9544982910156
v -853.7968139648438 1150.8118896484375 416.4197082519531
v -851.331298828125 1148.5882568359375 379.9544982910156
v -847.6082153320312 1154.8233642578125 416.4197082519531
v -846.5848388671875 1151.6651611328125 379.9544982910156
v -840.2429809570312 1155.203369140625 416.4197082519531
v -840.9359741210938 1151.9564208984375 379.9544982910156
v -833.6746215820312 1151.849609375 416.4197082519531
v -835.898193359375 1149.38427734375 379.9544982910156
v -829.6629638671875 1145.6612548828125 416.4197082519531
v -832.8214721679688 1144.6378173828125 379.9544982910156
v -829.2830810546875 1138.2958984375 416.4197082519531
v -832.5301513671875 1138.9888916015625 379.9544982910156
v -832.63671875 1131.7274169921875 416.4197082519531
v -835.1022338867188 1133.9510498046875 379.9544982910156
v -838.8253784179688 1127.7158203125 416.4197082519531
v -839.8486328125 1130.874267578125 379.9544982910156
v -846.1904907226562 1127.3359375 416.4197082519531
v -845.4976196289062 1130.5830078125 379.9544982910156
v -853.5695190429688 1134.55859375 379.9544982910156
v -851.3882446289062 1132.20947265625 379.9544982910156
v -853.8709716796875 1129.4566650390625 416.4197082519531
v -856.7152099609375 1132.5196533203125 416.4197082519531
v -858.3500366210938 1136.366455078125 416.4197082519531
v -854.823486328125 1137.509033203125 379.9544982910156
v -855.5380859375 1140.6341552734375 379.9544982910156
v -859.28173828125 1140.441162109375 416.4197082519531
v -858.774169921875 1144.5899658203125 416.4197082519531
v -855.1488647460938 1143.8162841796875 379.9544982910156
v -854.205078125 1146.8800048828125 379.9544982910156
v -857.5436401367188 1148.5845947265625 416.4197082519531
v -855.0297241210938 1151.9239501953125 416.4197082519531
v -852.2769775390625 1149.441162109375 379.9544982910156
v -849.9277954101562 1151.62255859375 379.9544982910156
v -851.9668579101562 1154.76806640625 416.4197082519531
v -848.1199951171875 1156.403076171875 416.4197082519531
v -846.9774169921875 1152.8765869140625 379.9544982910156
v -843.8522338867188 1153.591064453125 379.9544982910156
v -844.0453491210938 1157.334716796875 416.4197082519531
v -839.896484375 1156.8271484375 416.4197082519531
v -840.6701049804688 1153.2017822265625 379.9544982910156
v -837.6064453125 1152.258056640625 379.9544982910156
v -835.9017944335938 1155.5966796875 416.4197082519531
v -832.5625 1153.0826416015625 416.4197082519531
v -835.0452880859375 1150.329833984375 379.9544982910156
v -832.8639526367188 1147.980712890625 379.9544982910156
v -829.7183837890625 1150.019775390625 416.4197082519531
v -828.0834350585938 1146.1729736328125 416.4197082519531
v -831.6099853515625 1145.0303955078125 379.9544982910156
v -830.8954467773438 1141.9052734375 379.9544982910156
v -827.1517333984375 1142.0982666015625 416.4197082519531
v -827.6593017578125 1137.9493408203125 416.4197082519531
v -831.2847290039062 1138.72314453125 379.9544982910156
v -832.2284545898438 1135.659423828125 379.9544982910156
v -828.8897705078125 1133.9547119140625 416.4197082519531
v -831.4037475585938 1130.615478515625 416.4197082519531
v -834.1564331054688 1133.0982666015625 379.9544982910156
v -836.5057983398438 1130.9168701171875 379.9544982910156
v -834.4667358398438 1127.7711181640625 416.4197082519531
v -838.3135375976562 1126.1363525390625 416.4197082519531
v -839.4560546875 1129.662841796875 379.9544982910156
v -842.581298828125 1128.9483642578125 379.9544982910156
v -842.3881225585938 1125.2047119140625 416.4197082519531
v -846.537109375 1125.712158203125 416.4197082519531
v -845.7633666992188 1129.3375244140625 379.9544982910156
v -848.8270874023438 1130.2813720703125 379.9544982910156
v -850.5316772460938 1126.9427490234375 416.4197082519531
vt 0.0927734375 0.09716796875
vt 0.0162200927734375 0.09716796875
vt 0.0162200927734375 0.9044189453125
vt 0.0162200927734375 0.9044189453125
vt 0.0927734375 0.9044189453125
vt 0.0927734375 0.09716796875
vt 0.1728515625 0.09716796875
vt 0.0927734375 0.09716796875
vt 0.0927734375 0.9044189453125
vt 0.0927734375 0.9044189453125
vt 0.1728515625 0.9044189453125
vt 0.1728515625 0.09716796875
vt 0.2529296875 0.09716796875
vt 0.1728515625 0.09716796875
vt 0.1728515625 0.9044189453125
vt 0.1728515625 0.9044189453125
vt 0.2529296875 0.9044189453125
vt 0.2529296875 0.09716796875
vt 0.3330078125 0.09716796875
vt 0.2529296875 0.09716796875
vt 0.2529296875 0.9044189453125
vt 0.2529296875 0.9044189453125
vt 0.3330078125 0.9044189453125
vt 0.3330078125 0.09716796875
vt 0.4130859375 0.09716796875
vt 0.3330078125 0.09716796875
vt 0.3330078125 0.9044189453125
vt 0.3330078125 0.9044189453125
vt 0.4130859375 0.9044189453125
vt 0.4130859375 0.09716796875
vt 0.4931640625 0.09716796875
vt 0.4130859375 0.09716796875
vt 0.4130859375 0.9044189453125
vt 0.4130859375 0.9044189453125
vt 0.4931640625 0.9044189453125
vt 0.4931640625 0.09716796875
vt 0.5732421875 0.09716796875
vt 0.4931640625 0.09716796875
vt 0.4931640625 0.9044189453125
vt 0.4931640625 0.9044189453125
vt 0.5732421875 0.9044189453125
vt 0.5732421875 0.09716796875
vt 0.6533203125 0.09716796875
vt 0.5732421875 0.09716796875
vt 0.5732421875 0.9044189453125
vt 0.5732421875 0.9044189453125
vt 0.6533203125 0.9044189453125
vt 0.6533203125 0.09716796875
vt 0.7333984375 0.09716796875
vt 0.6533203125 0.09716796875
vt 0.6533203125 0.9044189453125
vt 0.6533203125 0.9044189453125
vt 0.7333984375 0.9044189453125
vt 0.7333984375 0.09716796875
vt 0.8134765625 0.09716796875
vt 0.7333984375 0.09716796875
vt 0.7333984375 0.9044189453125
vt 0.7333984375 0.9044189453125
vt 0.8134765625 0.9044189453125
vt 0.8134765625 0.09716796875
vt 0.8935546875 0.09716796875
vt 0.8134765625 0.09716796875
vt 0.8134765625 0.9044189453125
vt 0.8134765625 0.9044189453125
vt 0.8935546875 0.9044189453125
vt 0.8935546875 0.09716796875
vt 0.984375 0.09716796875
vt 0.8935546875 0.09716796875
vt 0.8935546875 0.9044189453125
vt 0.8935546875 0.9044189453125
vt 0.984375 0.9044189453125
vt 0.984375 0.09716796875
vt 0.05450439453125 0.9044189453125
vt 0.0162200927734375 0.9044189453125
vt 0.0162200927734375 0.09716796875
vt 0.0162200927734375 0.09716796875
vt 0.05450439453125 0.09716796875
vt 0.05450439453125 0.9044189453125
vt 0.05450439453125 0.9044189453125
vt 0.05450439453125 0.09716796875
vt 0.0927734375 0.09716796875
vt 0.0927734375 0.09716796875
vt 0.0927734375 0.9044189453125
vt 0.05450439453125 0.9044189453125
vt 0.1328125 0.9044189453125
vt 0.0927734375 0.9044189453125
vt 0.0927734375 0.09716796875
vt 0.0927734375 0.09716796875
vt 0.1328125 0.09716796875
vt 0.1328125 0.9044189453125
vt 0.1328125 0.9044189453125
vt 0.1328125 0.09716796875
vt 0.1728515625 0.09716796875
vt 0.1728515625 0.09716796875
vt 0.1728515625 0.9044189453125
vt 0.1328125 0.9044189453125
vt 0.212890625 0.9044189453125
vt 0.1728515625 0.9044189453125
vt 0.1728515625 0.09716796875
vt 0.1728515625 0.09716796875
vt 0.212890625 0.09716796875
vt 0.212890625 0.9044189453125
vt 0.212890625 0.9044189453125
vt 0.212890625 0.09716796875
vt 0.2529296875 0.09716796875
vt 0.2529296875 0.09716796875
vt 0.2529296875 0.9044189453125
vt 0.212890625 0.9044189453125
vt 0.29296875 0.9044189453125
vt 0.2529296875 0.9044189453125
vt 0.2529296875 0.09716796875
vt 0.2529296875 0.09716796875
vt 0.29296875 0.09716796875
vt 0.29296875 0.9044189453125
vt 0.29296875 0.9044189453125
vt 0.29296875 0.09716796875
vt 0.3330078125 0.09716796875
vt 0.3330078125 0.09716796875
vt 0.3330078125 0.9044189453125
vt 0.29296875 0.9044189453125
vt 0.373046875 0.9044189453125
vt 0.3330078125 0.9044189453125
vt 0.3330078125 0.09716796875
vt 0.3330078125 0.09716796875
vt 0.373046875 0.09716796875
vt 0.373046875 0.9044189453125
vt 0.373046875 0.9044189453125
vt 0.373046875 0.09716796875
vt 0.4130859375 0.09716796875
vt 0.4130859375 0.09716796875
vt 0.4130859375 0.9044189453125
vt 0.373046875 0.9044189453125
vt 0.453125 0.9044189453125
vt 0.4130859375 0.9044189453125
vt 0.4130859375 0.09716796875
vt 0.4130859375 0.09716796875
vt 0.453125 0.09716796875
vt 0.453125 0.9044189453125
vt 0.453125 0.9044189453125
vt 0.453125 0.09716796875
vt 0.4931640625 0.09716796875
vt 0.4931640625 0.09716796875
vt 0.4931640625 0.9044189453125
vt 0.453125 0.9044189453125
vt 0.533203125 0.9044189453125
vt 0.4931640625 0.9044189453125
vt 0.4931640625 0.09716796875
vt 0.4931640625 0.09716796875
vt 0.533203125 0.09716796875
vt 0.533203125 0.9044189453125
vt 0.533203125 0.9044189453125
vt 0.533203125 0.09716796875
vt 0.5732421875 0.09716796875
vt 0.5732421875 0.09716796875
vt 0.5732421875 0.9044189453125
vt 0.533203125 0.9044189453125
vt 0.61328125 0.9044189453125
vt 0.5732421875 0.9044189453125
vt 0.5732421875 0.09716796875
vt 0.5732421875 0.09716796875
vt 0.61328125 0.09716796875
vt 0.61328125 0.9044189453125
vt 0.61328125 0.9044189453125
vt 0.61328125 0.09716796875
vt 0.6533203125 0.09716796875
vt 0.6533203125 0.09716796875
vt 0.6533203125 0.9044189453125
vt 0.61328125 0.9044189453125
vt 0.693359375 0.9044189453125
vt 0.6533203125 0.9044189453125
vt 0.6533203125 0.09716796875
vt 0.6533203125 0.09716796875
vt 0.693359375 0.09716796875
vt 0.693359375 0.9044189453125
vt 0.693359375 0.9044189453125
vt 0.693359375 0.09716796875
vt 0.7333984375 0.09716796875
vt 0.7333984375 0.09716796875
vt 0.7333984375 0.9044189453125
vt 0.693359375 0.9044189453125
vt 0.7734375 0.9044189453125
vt 0.7333984375 0.9044189453125
vt 0.7333984375 0.09716796875
vt 0.7333984375 0.09716796875
vt 0.7734375 0.09716796875
vt 0.7734375 0.9044189453125
vt 0.7734375 0.9044189453125
vt 0.7734375 0.09716796875
vt 0.8134765625 0.09716796875
vt 0.8134765625 0.09716796875
vt 0.8134765625 0.9044189453125
vt 0.7734375 0.9044189453125
vt 0.853515625 0.9044189453125
vt 0.8134765625 0.9044189453125
vt 0.8134765625 0.09716796875
vt 0.8134765625 0.09716796875
vt 0.853515625 0.09716796875
vt 0.853515625 0.9044189453125
vt 0.853515625 0.9044189453125
vt 0.853515625 0.09716796875
vt 0.8935546875 0.09716796875
vt 0.8935546875 0.09716796875
vt 0.8935546875 0.9044189453125
vt 0.853515625 0.9044189453125
vt 0.93896484375 0.9044189453125
vt 0.8935546875 0.9044189453125
vt 0.8935546875 0.09716796875
vt 0.8935546875 0.09716796875
vt 0.93896484375 0.09716796875
vt 0.93896484375 0.9044189453125
vt 0.93896484375 0.9044189453125
vt 0.93896484375 0.09716796875
vt 0.984375 0.09716796875
vt 0.984375 0.09716796875
vt 0.984375 0.9044189453125
vt 0.93896484375 0.9044189453125
vn 0.9473927617073059 0.30696144700050354 0.09067283570766449
vn 0.6669921278953552 0.7395268678665161 0.09067276120185852
vn 0.6669910550117493 0.7395276427268982 0.09067346900701523
vn 0.9473956823348999 0.3069519102573395 0.0906752422451973
vn 0.9739458560943604 -0.20786415040493011 0.0906749814748764
vn 0.9739460945129395 -0.2078630030155182 0.09067527949810028
vn 0.7395215034484863 -0.6669977903366089 0.09067492932081223
vn 0.7395366430282593 -0.6669816374778748 0.09067128598690033
vn 0.3069571256637573 -0.9473945498466492 0.09066962450742722
vn 0.3069607615470886 -0.9473932981491089 0.09067022800445557
vn -0.20786839723587036 -0.9739453196525574 0.09067035466432571
vn -0.2078716903924942 -0.9739445447921753 0.09067114442586899
vn -0.666989266872406 -0.7395296692848206 0.09067085385322571
vn -0.6669901609420776 -0.7395286560058594 0.09067246317863464
vn -0.9473919868469238 -0.30696386098861694 0.09067326784133911
vn -0.9473959803581238 -0.30695095658302307 0.09067610651254654
vn -0.9739457964897156 0.20786455273628235 0.09067557752132416
vn -0.9739469289779663 0.20785897970199585 0.09067507833242416
vn -0.7395271062850952 0.6669915318489075 0.09067509323358536
vn -0.739536464214325 0.6669813990592957 0.09067323803901672
vn -0.30695223808288574 0.9473957419395447 0.09067333489656448
vn -0.30695420503616333 0.9473950862884521 0.09067417681217194
vn 0.20787090063095093 0.9739445447921753 0.09067393839359283
vn 0.20787234604358673 0.9739441871643066 0.09067437052726746
vn -0.8347263932228088 -0.5410864353179932 -0.10226058959960938
vn -0.6663129329681396 -0.7387815713882446 -0.10113741457462311
vn -0.6663075089454651 -0.7387863993644714 -0.10113826394081116
vn -0.8347278237342834 -0.541083812713623 -0.10226277261972427
vn -0.9464361667633057 -0.3066423237323761 -0.10113861411809921
vn -0.9464317560195923 -0.306656152009964 -0.10113798081874847
vn -0.9934366345405579 -0.05125022307038307 -0.10226011276245117
vn -0.9934373497962952 -0.05123422294855118 -0.10226108133792877
vn -0.9729582667350769 0.20766182243824005 -0.10113701969385147
vn -0.9729602932929993 0.20765288174152374 -0.10113571584224701
vn -0.885961651802063 0.4523438811302185 -0.1022590845823288
vn -0.8859639763832092 0.4523393213748932 -0.1022590771317482
vn -0.7387888431549072 0.6663048267364502 -0.10113710165023804
vn -0.7387866973876953 0.6663073897361755 -0.10113729536533356
vn -0.5411027073860168 0.8347160220146179 -0.10225963592529297
vn -0.5410981178283691 0.8347188234329224 -0.10226041078567505
vn -0.3066524267196655 0.9464329481124878 -0.10113789886236191
vn -0.3066483736038208 0.9464344382286072 -0.10113641619682312
vn -0.051221538335084915 0.9934381246566772 -0.10225977748632431
vn -0.05123006924986839 0.9934375882148743 -0.1022612527012825
vn 0.2076527178287506 0.9729602336883545 -0.101137675344944
vn 0.20765604078769684 0.972959578037262 -0.10113700479269028
vn 0.4523516595363617 0.8859575390815735 -0.10226090997457504
vn 0.4523453116416931 0.8859606981277466 -0.10226129740476608
vn 0.6663164496421814 0.7387781739234924 -0.10113843530416489
vn 0.666318953037262 0.7387760281562805 -0.10113851726055145
vn 0.8347188830375671 0.5410979986190796 -0.10226108133792877
vn 0.8347208499908447 0.5410948395729065 -0.10226181894540787
vn 0.94643235206604 0.3066541850566864 -0.1011388972401619
vn 0.94643235206604 0.3066543936729431 -0.10113798081874847
vn 0.9934372901916504 0.05123297870159149 -0.10226196050643921
vn 0.9934371709823608 0.051235951483249664 -0.10226273536682129
vn 0.9729597568511963 -0.2076539546251297 -0.1011398583650589
vn 0.9729599356651306 -0.2076529711484909 -0.10113963484764099
vn 0.8859716653823853 -0.4523240029811859 -0.10226056724786758
vn 0.8859601616859436 -0.45234593749046326 -0.10226351022720337
vn 0.7387865781784058 -0.6663070321083069 -0.10114087909460068
vn 0.7387840747833252 -0.6663104891777039 -0.10113606601953506
vn 0.5410928130149841 -0.834722638130188 -0.10225854068994522
vn 0.5410871505737305 -0.8347253203392029 -0.10226594656705856
vn 0.3066326975822449 -0.9464390873908997 -0.10114028304815292
vn 0.30665352940559387 -0.9464328289031982 -0.10113591700792313
vn 0.051237232983112335 -0.9934372901916504 -0.10225929319858551
vn 0.05124782770872116 -0.9934366345405579 -0.10226134955883026
vn -0.20765458047389984 -0.9729597568511963 -0.10113825649023056
vn -0.20765350759029388 -0.9729599952697754 -0.101137675344944
vn -0.4523524343967438 -0.8859571814537048 -0.10226008296012878
vn -0.4523509740829468 -0.8859578371047974 -0.1022605374455452
f 1/1/1 2/2/2 3/3/3
f 3/4/3 4/5/4 1/6/1
f 5/7/5 1/8/1 4/9/4
f 4/10/4 6/11/6 5/12/5
f 7/13/7 5/14/5 6/15/6
f 6/16/6 8/17/8 7/18/7
f 9/19/9 7/20/7 8/21/8
f 8/22/8 10/23/10 9/24/9
f 11/25/11 9/26/9 10/27/10
f 10/28/10 12/29/12 11/30/11
f 13/31/13 11/32/11 12/33/12
f 12/34/12 14/35/14 13/36/13
f 15/37/15 13/38/13 14/39/14
f 14/40/14 16/41/16 15/42/15
f 17/43/17 15/44/15 16/45/16
f 16/46/16 18/47/18 17/48/17
f 19/49/19 17/50/17 18/51/18
f 18/52/18 20/53/20 19/54/19
f 21/55/21 19/56/19 20/57/20
f 20/58/20 22/59/22 21/60/21
f 23/61/23 21/62/21 22/63/22
f 22/64/22 24/65/24 23/66/23
f 2/67/2 23/68/23 24/69/24
f 24/70/24 3/71/3 2/72/2
f 25/73/25 26/74/26 27/75/27
f 27/76/27 28/77/28 25/78/25
f 25/79/25 28/80/28 29/81/29
f 29/82/29 30/83/30 25/84/25
f 31/85/31 30/86/30 29/87/29
f 29/88/29 32/89/32 31/90/31
f 31/91/31 32/92/32 33/93/33
f 33/94/33 34/95/34 31/96/31
f 35/97/35 34/98/34 33/99/33
f 33/100/33 36/101/36 35/102/35
f 35/103/35 36/104/36 37/105/37
f 37/106/37 38/107/38 35/108/35
f 39/109/39 38/110/38 37/111/37
f 37/112/37 40/113/40 39/114/39
f 39/115/39 40/116/40 41/117/41
f 41/118/41 42/119/42 39/120/39
f 43/121/43 42/122/42 41/123/41
f 41/124/41 44/125/44 43/126/43
f 43/127/43 44/128/44 45/129/45
f 45/130/45 46/131/46 43/132/43
f 47/133/47 46/134/46 45/135/45
f 45/136/45 48/137/48 47/138/47
f 47/139/47 48/140/48 49/141/49
f 49/142/49 50/143/50 47/144/47
f 51/145/51 50/146/50 49/147/49
f 49/148/49 52/149/52 51/150/51
f 51/151/51 52/152/52 53/153/53
f 53/154/53 54/155/54 51/156/51
f 55/157/55 54/158/54 53/159/53
f 53/160/53 56/161/56 55/162/55
f 55/163/55 56/164/56 57/165/57
f 57/166/57 58/167/58 55/168/55
f 59/169/59 58/170/58 57/171/57
f 57/172/57 60/173/60 59/174/59
f 59/175/59 60/176/60 61/177/61
f 61/178/61 62/179/62 59/180/59
f 63/181/63 62/182/62 61/183/61
f 61/184/61 64/185/64 63/186/63
f 63/187/63 64/188/64 65/189/65
f 65/190/65 66/191/66 63/192/63
f 67/193/67 66/194/66 65/195/65
f 65/196/65 68/197/68 67/198/67
f 67/199/67 68/200/68 69/201/69
f 69/202/69 70/203/70 67/204/67
f 71/205/71 70/206/70 69/207/69
f 69/208/69 72/209/72 71/210/71
f 71/211/71 72/212/72 27/213/27
f 27/214/27 26/215/26 71/216/71
