# Exported by Lightwave Blender addon
v -13.187190055847168 -1351.428466796875 851.0769653320312
v -55.271514892578125 -1454.3475341796875 851.0770263671875
v -13.187182426452637 -1351.428466796875 1033.1571044921875
v -55.271507263183594 -1454.3475341796875 1033.1572265625
v -18.01885414123535 -1349.452880859375 845.8570556640625
v -128.63270568847656 -1304.2220458984375 845.85693359375
v -60.10316848754883 -1452.3719482421875 845.8569946289062
v -170.717041015625 -1407.14111328125 845.8569946289062
v -62.078887939453125 -1457.2034912109375 851.0769653320312
v -172.6927490234375 -1411.9727783203125 851.0770263671875
v -62.07887268066406 -1457.2034912109375 1033.1572265625
v -172.6927490234375 -1411.9727783203125 1033.1571044921875
v -60.10316848754883 -1452.3717041015625 1038.377197265625
v -170.717041015625 -1407.1409912109375 1038.3770751953125
v -18.018850326538086 -1349.45263671875 1038.377197265625
v -128.63270568847656 -1304.221923828125 1038.3770751953125
v -16.04314613342285 -1344.62109375 1033.1571044921875
v -126.6570053100586 -1299.39013671875 1033.1571044921875
v -16.043149948120117 -1344.62109375 851.0770263671875
v -126.6570053100586 -1299.3902587890625 851.0769653320312
vt 0.50390625 0.076171875
vt 1.0595703125 0.076171875
vt 0.50390625 0.9861984252929688
vt 1.0595703125 0.076171875
vt 1.0595703125 0.9861984252929688
vt 0.50390625 0.9861984252929688
vt 0.495849609375 1.68603515625
vt 0.495849609375 2.283203125
vt -0.06005859375 1.68603515625
vt 0.495849609375 2.283203125
vt -0.06005859375 2.283203125
vt -0.06005859375 1.68603515625
vt 0.923828125 1.68603515625
vt 0.923828125 2.283203125
vt 0.01380157470703125 1.68603515625
vt 0.923828125 2.283203125
vt 0.01380157470703125 2.283203125
vt 0.01380157470703125 1.68603515625
vt 1.0595703125 1.68603515625
vt 1.0595703125 2.283203125
vt 0.50390625 1.68603515625
vt 1.0595703125 2.283203125
vt 0.50390625 2.283203125
vt 0.50390625 1.68603515625
vt 0.98583984375 1.68603515625
vt 0.98583984375 2.283203125
vt 0.07574462890625 1.68603515625
vt 0.98583984375 2.283203125
vt 0.07574462890625 2.283203125
vt 0.07574462890625 1.68603515625
vt 1.0595703125 1.65966796875
vt 1.0595703125 1.68603515625
vt 0.50390625 1.65966796875
vt 1.0595703125 1.68603515625
vt 0.50390625 1.68603515625
vt 0.50390625 1.65966796875
vt 0.495849609375 1.65966796875
vt 0.495849609375 1.68603515625
vt -0.06005859375 1.65966796875
vt 0.495849609375 1.68603515625
vt -0.06005859375 1.68603515625
vt -0.06005859375 1.65966796875
vt -0.06005859375 2.283203125
vt -0.08612060546875 2.283203125
vt -0.06005859375 1.68603515625
vt -0.08612060546875 2.283203125
vt -0.08612060546875 1.68603515625
vt -0.06005859375 1.68603515625
vt 0.50390625 2.283203125
vt 0.477783203125 2.283203125
vt 0.50390625 1.68603515625
vt 0.477783203125 2.283203125
vt 0.477783203125 1.68603515625
vt 0.50390625 1.68603515625
vt 0.98583984375 1.65966796875
vt 1.01171875 1.68603515625
vt 0.98583984375 1.68603515625
vt 0.98583984375 1.65966796875
vt 0.98583984375 1.68603515625
vt 0.07574462890625 1.65966796875
vt 0.98583984375 1.68603515625
vt 0.07574462890625 1.68603515625
vt 0.07574462890625 1.65966796875
vt 0.07574462890625 1.65966796875
vt 0.07574462890625 1.68603515625
vt 0.0496826171875 1.68603515625
vt 0.0496826171875 1.68603515625
vt 0.07574462890625 1.68603515625
vt 0.0496826171875 2.283203125
vt 0.07574462890625 1.68603515625
vt 0.07574462890625 2.283203125
vt 0.0496826171875 2.283203125
vt 0.9501953125 1.68603515625
vt 0.923828125 1.68603515625
vt 0.923828125 1.65966796875
vt 0.923828125 1.65966796875
vt 0.923828125 1.68603515625
vt 0.01380157470703125 1.65966796875
vt 0.923828125 1.68603515625
vt 0.01380157470703125 1.68603515625
vt 0.01380157470703125 1.65966796875
vt 0.01380157470703125 1.68603515625
vt -0.01229095458984375 1.68603515625
vt 0.01380157470703125 1.65966796875
vt -0.01229095458984375 2.283203125
vt -0.01229095458984375 1.68603515625
vt 0.01380157470703125 1.68603515625
vt 0.01380157470703125 2.283203125
vt -0.01229095458984375 2.283203125
vt 0.01380157470703125 1.68603515625
vn -0.9397269487380981 0.015218532644212246 0.341587096452713
vn -0.6811590790748596 0.6475675702095032 0.3415822386741638
vn -0.9397279024124146 0.01522449217736721 -0.34158414602279663
vn -0.6811535358428955 0.6475706696510315 -0.34158775210380554
vn -0.4454570412635803 -0.18688084185123444 0.8755817413330078
vn -0.14483734965324402 -0.3542044460773468 0.923883855342865
vn -0.18688562512397766 0.4454590976238251 0.8755797743797302
vn 0.14484143257141113 0.3542157709598541 0.9238787889480591
vn 0.01522008702158928 0.9397293329238892 0.3415803015232086
vn 0.34967634081840515 0.8551492691040039 0.38268283009529114
vn 0.01522451639175415 0.939724862575531 -0.3415924310684204
vn 0.34967517852783203 0.8551464676856995 -0.3826901912689209
vn -0.18688927590847015 0.44545045495033264 -0.8755834102630615
vn 0.14483606815338135 0.354201078414917 -0.9238853454589844
vn -0.4454558193683624 -0.1868942677974701 -0.8755795359611511
vn -0.14483757317066193 -0.35420966148376465 -0.9238817691802979
vn -0.6475735306739807 -0.6811566948890686 -0.3415760397911072
vn -0.3496755361557007 -0.8551468253135681 -0.3826890289783478
vn -0.6475652456283569 -0.6811572909355164 0.34159043431282043
vn -0.3496764600276947 -0.8551475405693054 0.3826864957809448
f 1/1/1 2/2/2 3/3/3
f 2/4/2 4/5/4 3/6/3
f 5/7/5 6/8/6 7/9/7
f 6/10/6 8/11/8 7/12/7
f 9/13/9 10/14/10 11/15/11
f 10/16/10 12/17/12 11/18/11
f 13/19/13 14/20/14 15/21/15
f 14/22/14 16/23/16 15/24/15
f 17/25/17 18/26/18 19/27/19
f 18/28/18 20/29/20 19/30/19
f 4/31/4 13/32/13 3/33/3
f 13/34/13 15/35/15 3/36/3
f 1/37/1 5/38/5 2/39/2
f 5/40/5 7/41/7 2/42/2
f 8/43/8 10/44/10 7/45/7
f 10/46/10 9/47/9 7/48/7
f 16/49/16 18/50/18 15/51/15
f 18/52/18 17/53/17 15/54/15
f 3/55/3 15/56/15 17/57/17
f 3/58/3 17/59/17 1/60/1
f 17/61/17 19/62/19 1/63/1
f 1/64/1 19/65/19 5/66/5
f 5/67/5 19/68/19 6/69/6
f 19/70/19 20/71/20 6/72/6
f 7/73/7 9/74/9 2/75/2
f 2/76/2 9/77/9 4/78/4
f 9/79/9 11/80/11 4/81/4
f 11/82/11 13/83/13 4/84/4
f 14/85/14 13/86/13 11/87/11
f 12/88/12 14/89/14 11/90/11
