# Exported by Lightwave Blender addon
v -50.24869918823242 514.7698364257812 72.73847961425781
v -50.145591735839844 514.9610595703125 75.22180938720703
v -43.46189880371094 527.3577270507812 72.73847961425781
v -50.145591735839844 514.9611206054688 70.25514221191406
v -49.83940887451172 515.5289306640625 77.62967681884766
v -49.83940124511719 515.5289306640625 67.84727478027344
v -49.339439392089844 516.456298828125 79.88893127441406
v -49.339439392089844 516.456298828125 65.58802032470703
v -48.660892486572266 517.71484375 81.93092346191406
v -48.660888671875 517.71484375 63.54602813720703
v -47.824371337890625 519.2664184570312 83.693603515625
v -47.824371337890625 519.266357421875 61.783348083496094
v -46.85530090332031 521.0637817382812 85.12342834472656
v -46.85529327392578 521.0637817382812 60.35353469848633
v -45.78312301635742 523.0523681640625 86.17693328857422
v -45.78312301635742 523.0524291992188 59.300025939941406
v -44.64041519165039 525.171875 86.8221206665039
v -44.64040756225586 525.171875 58.654842376708984
v -43.4619026184082 527.3577880859375 87.03938293457031
v -43.461891174316406 527.3577270507812 58.43757629394531
v -42.28338623046875 529.5435791015625 86.8221206665039
v -42.28337860107422 529.5435791015625 58.654842376708984
v -41.14067840576172 531.6630249023438 86.17694091796875
v -41.14067459106445 531.6630249023438 59.300025939941406
v -40.068504333496094 533.6516723632812 85.12342834472656
v -40.0684928894043 533.6516723632812 60.353538513183594
v -39.09943389892578 535.4490966796875 83.69361114501953
v -39.09942626953125 535.4490356445312 61.78335952758789
v -38.262916564941406 537.0006103515625 81.9309310913086
v -38.26290512084961 537.0006103515625 63.54604721069336
v -37.5843620300293 538.2592163085938 79.88893127441406
v -37.584354400634766 538.2592163085938 65.58804321289062
v -37.08439636230469 539.1865234375 77.62967681884766
v -37.08439254760742 539.1865234375 67.84729766845703
v -36.7782096862793 539.75439453125 75.22180938720703
v -36.77820587158203 539.75439453125 70.25516510009766
v -36.67510223388672 539.9456176757812 72.73849487304688
vt 1.0 0.5
vt 0.9921875 0.5869140625
vt 0.499755859375 0.500244140625
vt 0.9921875 0.41357421875
vt 1.0 0.5
vt 0.499755859375 0.500244140625
vt 0.9921875 0.5869140625
vt 0.9697265625 0.671142578125
vt 0.499755859375 0.500244140625
vt 0.9697265625 0.3291015625
vt 0.9921875 0.41357421875
vt 0.499755859375 0.500244140625
vt 0.9697265625 0.671142578125
vt 0.9326171875 0.75
vt 0.499755859375 0.500244140625
vt 0.9326171875 0.25
vt 0.9697265625 0.3291015625
vt 0.499755859375 0.500244140625
vt 0.9326171875 0.75
vt 0.8828125 0.8214111328125
vt 0.499755859375 0.500244140625
vt 0.8828125 0.1787109375
vt 0.9326171875 0.25
vt 0.499755859375 0.500244140625
vt 0.8828125 0.8214111328125
vt 0.8212890625 0.883056640625
vt 0.499755859375 0.500244140625
vt 0.8212890625 0.1171875
vt 0.8828125 0.1787109375
vt 0.499755859375 0.500244140625
vt 0.8212890625 0.883056640625
vt 0.75 0.93304443359375
vt 0.499755859375 0.500244140625
vt 0.74951171875 0.0673828125
vt 0.8212890625 0.1171875
vt 0.499755859375 0.500244140625
vt 0.75 0.93304443359375
vt 0.6708984375 0.9698486328125
vt 0.499755859375 0.500244140625
vt 0.6708984375 0.0302734375
vt 0.74951171875 0.0673828125
vt 0.499755859375 0.500244140625
vt 0.6708984375 0.9698486328125
vt 0.58642578125 0.9924049377441406
vt 0.499755859375 0.500244140625
vt 0.58642578125 0.0078125
vt 0.6708984375 0.0302734375
vt 0.499755859375 0.500244140625
vt 0.58642578125 0.9924049377441406
vt 0.5 1.0
vt 0.499755859375 0.500244140625
vt 0.499755859375 0.0
vt 0.58642578125 0.0078125
vt 0.499755859375 0.500244140625
vt 0.5 1.0
vt 0.4130859375 0.9924049377441406
vt 0.499755859375 0.500244140625
vt 0.4130859375 0.0078125
vt 0.499755859375 0.0
vt 0.499755859375 0.500244140625
vt 0.4130859375 0.9924049377441406
vt 0.328857421875 0.9698486328125
vt 0.499755859375 0.500244140625
vt 0.328857421875 0.0302734375
vt 0.4130859375 0.0078125
vt 0.499755859375 0.500244140625
vt 0.328857421875 0.9698486328125
vt 0.25 0.93304443359375
vt 0.499755859375 0.500244140625
vt 0.2498779296875 0.0673828125
vt 0.328857421875 0.0302734375
vt 0.499755859375 0.500244140625
vt 0.25 0.93304443359375
vt 0.1785888671875 0.883056640625
vt 0.499755859375 0.500244140625
vt 0.1785888671875 0.1171875
vt 0.2498779296875 0.0673828125
vt 0.499755859375 0.500244140625
vt 0.1785888671875 0.883056640625
vt 0.116943359375 0.8214111328125
vt 0.499755859375 0.500244140625
vt 0.116943359375 0.1787109375
vt 0.1785888671875 0.1171875
vt 0.499755859375 0.500244140625
vt 0.116943359375 0.8214111328125
vt 0.06695556640625 0.7501220703125
vt 0.499755859375 0.500244140625
vt 0.06695556640625 0.25048828125
vt 0.116943359375 0.1787109375
vt 0.499755859375 0.500244140625
vt 0.06695556640625 0.7501220703125
vt 0.0301513671875 0.671142578125
vt 0.499755859375 0.500244140625
vt 0.0301513671875 0.3291015625
vt 0.06695556640625 0.25048828125
vt 0.499755859375 0.500244140625
vt 0.0301513671875 0.671142578125
vt 0.007595062255859375 0.5869140625
vt 0.499755859375 0.500244140625
vt 0.007595062255859375 0.41357421875
vt 0.0301513671875 0.3291015625
vt 0.499755859375 0.500244140625
vt 0.007595062255859375 0.5869140625
vt 0.0 0.500244140625
vt 0.499755859375 0.500244140625
vt 0.0 0.500244140625
vt 0.007595062255859375 0.41357421875
vt 0.499755859375 0.500244140625
vn -0.8802168369293213 0.47457167506217957 5.832232545799343e-06
vn -0.8802168369293213 0.4745718538761139 3.984417617175495e-06
vn -0.8802171349525452 0.47457122802734375 -3.997506041741872e-07
vn -0.8802157044410706 0.4745737314224243 -4.9664367907098494e-06
vn -0.8802177906036377 0.4745699465274811 -1.2922733958475874e-06
vn -0.8802170753479004 0.4745713174343109 -4.353712029114831e-06
vn -0.880217969417572 0.47456979751586914 -3.960893991461489e-06
vn -0.8802180886268616 0.4745694696903229 4.544957391772186e-06
vn -0.8802177309989929 0.4745701551437378 -2.3899572170194006e-06
vn -0.8802160620689392 0.4745732545852661 -2.2154456473799655e-06
vn -0.8802164196968079 0.47457247972488403 -7.183066372817848e-07
vn -0.8802167177200317 0.47457173466682434 -1.2554309023471433e-06
vn -0.8802137970924377 0.4745773673057556 3.605149004215491e-06
vn -0.8802186846733093 0.47456830739974976 1.8260362821820308e-06
vn -0.8802175521850586 0.47457045316696167 1.0238561571895843e-06
vn -0.8802171945571899 0.47457101941108704 8.861665605763847e-07
vn -0.8802217841148376 0.47456249594688416 -2.3015618353383616e-06
vn -0.8802154660224915 0.4745742678642273 -5.370735607357346e-07
vn -0.8802158832550049 0.47457337379455566 -2.261334429931594e-06
vn -0.8802159428596497 0.47457343339920044 -4.697637905337615e-07
vn -0.8802133202552795 0.47457820177078247 -1.09095822153904e-06
vn -0.8802165985107422 0.4745720624923706 -6.241717187549511e-07
vn -0.8802175521850586 0.4745704233646393 8.861658784553583e-07
vn -0.8802171945571899 0.4745710492134094 -8.794544328338816e-07
vn -0.8802189230918884 0.4745677411556244 2.1617026959575014e-06
vn -0.880216121673584 0.4745730459690094 4.833744355892122e-07
vn -0.8802174925804138 0.4745705723762512 -7.519311679970997e-07
vn -0.8802167177200317 0.4745720326900482 -1.154675601355848e-06
vn -0.8802177906036377 0.47457000613212585 1.4231820841814624e-06
vn -0.8802192211151123 0.474567174911499 -6.337398644973291e-06
vn -0.8802186250686646 0.47456830739974976 2.248913915536832e-06
vn -0.8802188038825989 0.47456806898117065 -3.6452968288358534e-06
vn -0.8802170157432556 0.4745713472366333 -4.346931291365763e-06
vn -0.8802171349525452 0.4745713174343109 3.638667294580955e-06
vn -0.8802167773246765 0.47457167506217957 -4.692697530117584e-06
vn -0.8802167773246765 0.4745718240737915 3.986106094089337e-06
vn -0.8802169561386108 0.47457146644592285 -6.763852411495463e-07
f 1/1/1 2/2/2 3/3/3
f 4/4/4 1/5/1 3/6/3
f 2/7/2 5/8/5 3/9/3
f 6/10/6 4/11/4 3/12/3
f 5/13/5 7/14/7 3/15/3
f 8/16/8 6/17/6 3/18/3
f 7/19/7 9/20/9 3/21/3
f 10/22/10 8/23/8 3/24/3
f 9/25/9 11/26/11 3/27/3
f 12/28/12 10/29/10 3/30/3
f 11/31/11 13/32/13 3/33/3
f 14/34/14 12/35/12 3/36/3
f 13/37/13 15/38/15 3/39/3
f 16/40/16 14/41/14 3/42/3
f 15/43/15 17/44/17 3/45/3
f 18/46/18 16/47/16 3/48/3
f 17/49/17 19/50/19 3/51/3
f 20/52/20 18/53/18 3/54/3
f 19/55/19 21/56/21 3/57/3
f 22/58/22 20/59/20 3/60/3
f 21/61/21 23/62/23 3/63/3
f 24/64/24 22/65/22 3/66/3
f 23/67/23 25/68/25 3/69/3
f 26/70/26 24/71/24 3/72/3
f 25/73/25 27/74/27 3/75/3
f 28/76/28 26/77/26 3/78/3
f 27/79/27 29/80/29 3/81/3
f 30/82/30 28/83/28 3/84/3
f 29/85/29 31/86/31 3/87/3
f 32/88/32 30/89/30 3/90/3
f 31/91/31 33/92/33 3/93/3
f 34/94/34 32/95/32 3/96/3
f 33/97/33 35/98/35 3/99/3
f 36/100/36 34/101/34 3/102/3
f 35/103/35 37/104/37 3/105/3
f 37/106/37 36/107/36 3/108/3
