# Exported by Lightwave Blender addon
v 193.2683563232422 -159.0989990234375 683.6412353515625
v 140.6340789794922 -138.98239135742188 683.6412353515625
v 193.26841735839844 -159.0989990234375 503.9362487792969
v 140.63412475585938 -138.98239135742188 503.9362487792969
v 247.52627563476562 -179.83624267578125 503.9362487792969
v 247.5261993408203 -179.8362579345703 683.6412353515625
v 194.58355712890625 -159.6017303466797 503.9362487792969
v 194.58355712890625 -159.60174560546875 683.6412353515625
vt 0.497802734375 0.9884872436523438
vt 0.251220703125 0.9884872436523438
vt 0.497802734375 0.22509765625
vt 0.251220703125 0.9884872436523438
vt 0.251220703125 0.22509765625
vt 0.497802734375 0.22509765625
vt 0.2491455078125 0.22509765625
vt 0.2491455078125 0.9884872436523438
vt 0.00260162353515625 0.22509765625
vt 0.2491455078125 0.9884872436523438
vt 0.00260162353515625 0.9884872436523438
vt 0.00260162353515625 0.22509765625
vn -0.35700953006744385 -0.9341008067131042 -1.2055215847794898e-07
vn -0.3570094704627991 -0.9341006875038147 -1.1482489270520091e-07
vn -0.3570094704627991 -0.9341007471084595 -9.666849365430608e-08
vn -0.3570094704627991 -0.9341008067131042 -9.094124919784008e-08
vn -0.3570098280906677 -0.9341006875038147 -2.308836002384851e-07
vn -0.35701021552085876 -0.9341005086898804 -1.0879202250180242e-07
vn -0.3570099174976349 -0.9341005682945251 -2.0140626588727173e-07
vn -0.35701024532318115 -0.9341003894805908 -7.931466683430699e-08
f 1/1/1 2/2/2 3/3/3
f 2/4/2 4/5/4 3/6/3
f 5/7/5 6/8/6 7/9/7
f 6/10/6 8/11/8 7/12/7
