# Exported by Lightwave Blender addon
v -353.64715576171875 -1868.5047607421875 943.5597534179688
v -332.2840576171875 -1816.2603759765625 943.5597534179688
v -335.7017822265625 -1814.8629150390625 942.9530639648438
v -357.06488037109375 -1867.1072998046875 942.9530639648438
v -336.158447265625 -1814.6761474609375 942.8720092773438
v -357.52154541015625 -1866.9205322265625 942.8720092773438
v -357.3853454589844 -1866.97607421875 939.6957397460938
v -336.022216796875 -1814.73193359375 939.69580078125
v -335.5653076171875 -1814.9188232421875 939.6162719726562
v -356.92840576171875 -1867.1630859375 939.6162719726562
v -332.0797119140625 -1816.343994140625 939.01025390625
v -353.44281005859375 -1868.5882568359375 939.01025390625
v -336.13702392578125 -1814.6849365234375 942.3726196289062
v -357.5001525878906 -1866.92919921875 942.3726196289062
v -336.04364013671875 -1814.72314453125 940.1952514648438
v -357.4067687988281 -1866.9674072265625 940.1952514648438
vt 0.341064453125 0.52587890625
vt 0.059051513671875 0.52587890625
vt 0.059051513671875 0.507568359375
vt 0.341064453125 0.507568359375
vt 0.341064453125 0.52587890625
vt 0.059051513671875 0.507568359375
vt 0.341064453125 0.507568359375
vt 0.059051513671875 0.507568359375
vt 0.059051513671875 0.505126953125
vt 0.341064453125 0.505126953125
vt 0.341064453125 0.507568359375
vt 0.059051513671875 0.505126953125
vt 0.65869140625 0.505859375
vt 0.94091796875 0.505859375
vt 0.94091796875 0.50830078125
vt 0.65869140625 0.50830078125
vt 0.65869140625 0.505859375
vt 0.94091796875 0.50830078125
vt 0.65869140625 0.50830078125
vt 0.94091796875 0.50830078125
vt 0.94091796875 0.527099609375
vt 0.65869140625 0.527099609375
vt 0.65869140625 0.50830078125
vt 0.94091796875 0.527099609375
vt 0.65869140625 0.3798828125
vt 0.94091796875 0.3798828125
vt 0.94091796875 0.38232421875
vt 0.65869140625 0.38232421875
vt 0.65869140625 0.3798828125
vt 0.94091796875 0.38232421875
vt 0.65869140625 0.38232421875
vt 0.94091796875 0.38232421875
vt 0.94091796875 0.3935546875
vt 0.65869140625 0.3935546875
vt 0.65869140625 0.38232421875
vt 0.94091796875 0.3935546875
vt 0.65869140625 0.3935546875
vt 0.94091796875 0.3935546875
vt 0.94091796875 0.39599609375
vt 0.65869140625 0.39599609375
vt 0.65869140625 0.3935546875
vt 0.94091796875 0.39599609375
vn -0.150072380900383 0.06136566027998924 0.9867687225341797
vn -0.150072380900383 0.06136566027998924 0.9867687225341797
vn -0.1500617116689682 0.06136129051446915 0.9867706894874573
vn -0.1500617265701294 0.06136129051446915 0.9867706298828125
vn -0.7192531228065491 0.2941076457500458 0.6294248700141907
vn -0.7191755175590515 0.2940768897533417 0.6295278072357178
vn -0.6905044317245483 0.2823537588119507 -0.665942907333374
vn -0.6905657052993774 0.2823790907859802 -0.6658686399459839
vn -0.14714230597019196 0.06016835942864418 -0.9872835874557495
vn -0.1470770537853241 0.060140982270240784 -0.9872950315475464
vn -0.14706657826900482 0.06013670936226845 -0.9872968196868896
vn -0.14706657826900482 0.06013670563697815 -0.9872968196868896
vn -0.9246135354042053 0.37808170914649963 -0.04630398377776146
vn -0.9246163368225098 0.37808358669281006 -0.046230096369981766
vn -0.924613356590271 0.3780823051929474 -0.046301573514938354
vn -0.9246152639389038 0.37808361649513245 -0.046252936124801636
f 1/1/1 2/2/2 3/3/3
f 4/4/4 1/5/1 3/6/3
f 4/7/4 3/8/3 5/9/5
f 6/10/6 4/11/4 5/12/5
f 7/13/7 8/14/8 9/15/9
f 10/16/10 7/17/7 9/18/9
f 10/19/10 9/20/9 11/21/11
f 12/22/12 10/23/10 11/24/11
f 6/25/6 5/26/5 13/27/13
f 14/28/14 6/29/6 13/30/13
f 14/31/14 13/32/13 15/33/15
f 16/34/16 14/35/14 15/36/15
f 16/37/16 15/38/15 8/39/8
f 7/40/7 16/41/16 8/42/8
