# Exported by Lightwave Blender addon
v 284.52337646484375 1070.3828125 771.9197998046875
v 527.8133544921875 936.1217041015625 771.9197998046875
v 284.52337646484375 1070.3829345703125 1087.0867919921875
v 527.8133544921875 936.1217041015625 1087.0867919921875
v 249.40086364746094 474.9716491699219 771.9197998046875
v 249.40599060058594 474.9837341308594 1087.086669921875
v 27.233108520507812 598.3226928710938 1087.086669921875
v 26.780532836914062 598.3516845703125 771.9197998046875
v 155.87828063964844 834.3528442382812 1087.0867919921875
v 123.67961120605469 780.2667846679688 1012.2598266601562
v 72.28291320800781 685.4403686523438 1012.2600708007812
v 72.28291320800781 685.4402465820312 817.6197509765625
v 155.65196228027344 834.3671875 771.9197998046875
v 123.67955017089844 780.2666015625 817.6197509765625
v 260.1269226074219 1030.794677734375 1012.2598266601562
v 208.7303009033203 935.96826171875 1012.2599487304688
v 208.73020935058594 935.9682006835938 817.6197509765625
v 260.1267395019531 1030.7945556640625 817.6196899414062
vt -0.06707763671875 0.785888671875
vt -0.06707763671875 -0.5166015625
vt 1.6123046875 0.785888671875
vt -0.06707763671875 -0.5166015625
vt 1.6123046875 -0.5166015625
vt 1.6123046875 0.785888671875
vt 2.001953125 1.66845703125
vt -0.494873046875 1.66845703125
vt 2.001953125 -0.029296875
vt -0.494873046875 1.66845703125
vt -0.49462890625 -0.029296875
vt 2.001953125 -0.029296875
vt 1.5947265625 1.059234619140625
vt -0.0863037109375 1.0592041015625
vt 1.5947265625 -0.130859375
vt -0.0863037109375 1.0592041015625
vt -0.0863037109375 -0.1337890625
vt 1.5947265625 -0.130859375
vt 0.309814453125 -0.0556640625
vt 1.572265625 -0.0556640625
vt 0.59912109375 0.3427734375
vt 1.572265625 -0.0556640625
vt 1.1064453125 0.3427734375
vt 0.59912109375 0.3427734375
vt 1.572265625 -0.0556640625
vt 1.572265625 1.62255859375
vt 1.1064453125 0.3427734375
vt 1.572265625 1.62255859375
vt 1.1064453125 1.37939453125
vt 1.1064453125 0.3427734375
vt 1.572265625 1.62255859375
vt 0.3095703125 1.62255859375
vt 1.1064453125 1.37939453125
vt 0.3095703125 1.62255859375
vt 0.59912109375 1.37939453125
vt 1.1064453125 1.37939453125
vt 0.3095703125 1.62255859375
vt 0.309814453125 -0.0556640625
vt 0.59912109375 1.37939453125
vt 0.309814453125 -0.0556640625
vt 0.59912109375 0.3427734375
vt 0.59912109375 1.37939453125
vt -0.953125 -0.0556640625
vt 0.309814453125 -0.0556640625
vt -0.7412109375 0.3427734375
vt 0.309814453125 -0.0556640625
vt -0.2337646484375 0.3427734375
vt -0.7412109375 0.3427734375
vt 0.309814453125 -0.0556640625
vt 0.3095703125 1.62255859375
vt -0.2337646484375 0.3427734375
vt 0.3095703125 1.62255859375
vt -0.2337646484375 1.37939453125
vt -0.2337646484375 0.3427734375
vt 0.3095703125 1.62255859375
vt -0.953125 1.62255859375
vt -0.2337646484375 1.37939453125
vt -0.953125 1.62255859375
vt -0.7412109375 1.37939453125
vt -0.2337646484375 1.37939453125
vt -0.953125 1.62255859375
vt -0.953125 -0.0556640625
vt -0.7412109375 1.37939453125
vt -0.953125 -0.0556640625
vt -0.7412109375 0.3427734375
vt -0.7412109375 1.37939453125
vt -1.08984375 0.600830078125
vt -0.99169921875 -0.66796875
vt 0.2489013671875 0.7138671875
vt -0.99169921875 -0.66796875
vt 1.69921875 -0.5576171875
vt 0.2489013671875 0.7138671875
vt 1.69921875 -0.5576171875
vt 1.587890625 0.826904296875
vt 0.2489013671875 0.7138671875
vt -1.02734375 1.26953125
vt -1.076171875 0.0
vt 0.26611328125 -0.0615234375
vt 1.6650390625 1.26513671875
vt -1.02734375 1.26953125
vt 0.26611328125 -0.0615234375
vt 1.6650390625 1.26513671875
vt 0.26611328125 -0.0615234375
vt 1.6083984375 -0.1220703125
vn 0.21725881099700928 -0.783484160900116 0.5821952819824219
vn -0.7900599241256714 -0.2116207629442215 0.5753451585769653
vn 0.22027529776096344 -0.7830422520637512 -0.5816558599472046
vn -0.7900568246841431 -0.21160022914409637 -0.5753568410873413
vn -0.21002088487148285 0.7876208424568176 0.5792622566223145
vn -0.20988766849040985 0.7876136898994446 -0.5793202519416809
vn 0.7806679010391235 0.2323044389486313 -0.5801657438278198
vn 0.7814137935638428 0.23256583511829376 0.5790557861328125
vn 0.6155865788459778 -0.33716097474098206 -0.7123029828071594
vn 0.868454098701477 -0.49554580450057983 -0.014893658459186554
vn 0.8830665946006775 -0.4690396189689636 -0.013972507789731026
vn 0.8812388777732849 -0.472099244594574 0.023245370015501976
vn 0.6151092052459717 -0.3381122946739197 0.7122645378112793
vn 0.8702937364578247 -0.4917987585067749 0.026884544640779495
vn 0.863676130771637 -0.5038400292396545 -0.014448869973421097
vn 0.8826062679290771 -0.4698910117149353 -0.01444775890558958
vn 0.8810571432113647 -0.4722028970718384 0.027622152119874954
vn 0.8652686476707458 -0.5005063414573669 0.028347197920084
f 1/1/1 2/2/2 3/3/3
f 2/4/2 4/5/4 3/6/3
f 2/7/2 5/8/5 4/9/4
f 5/10/5 6/11/6 4/12/4
f 6/13/6 5/14/5 7/15/7
f 5/16/5 8/17/8 7/18/7
f 9/19/9 7/20/7 10/21/10
f 7/22/7 11/23/11 10/24/10
f 7/25/7 8/26/8 11/27/11
f 8/28/8 12/29/12 11/30/11
f 8/31/8 13/32/13 12/33/12
f 13/34/13 14/35/14 12/36/12
f 13/37/13 9/38/9 14/39/14
f 9/40/9 10/41/10 14/42/14
f 3/43/3 9/44/9 15/45/15
f 9/46/9 16/47/16 15/48/15
f 9/49/9 13/50/13 16/51/16
f 13/52/13 17/53/17 16/54/16
f 13/55/13 1/56/1 17/57/17
f 1/58/1 18/59/18 17/60/17
f 1/61/1 3/62/3 18/63/18
f 3/64/3 15/65/15 18/66/18
f 8/67/8 5/68/5 13/69/13
f 5/70/5 2/71/2 13/72/13
f 2/73/2 1/74/1 13/75/13
f 6/76/6 7/77/7 9/78/9
f 4/79/4 6/80/6 9/81/9
f 4/82/4 9/83/9 3/84/3
