# Exported by Lightwave Blender addon
v 64.38790893554688 661.2872314453125 810.38427734375
v 64.3879165649414 661.2872314453125 817.3040771484375
v 34.54368591308594 677.5272827148438 810.3842163085938
v 34.54368591308594 677.5272827148438 817.3040771484375
v 34.23126220703125 678.5852661132812 817.3040771484375
v 34.23126220703125 678.5853881835938 810.3842163085938
v 108.78746032714844 815.3660888671875 810.3842163085938
v 108.78744506835938 815.3660888671875 817.3040771484375
v 109.84532165527344 815.6784057617188 817.3040771484375
v 109.8453369140625 815.678466796875 810.3842163085938
v 139.57020568847656 799.5028076171875 810.38427734375
v 139.57020568847656 799.5028076171875 817.3040771484375
v 139.1993408203125 798.8171997070312 809.6041870117188
v 109.47261047363281 814.9932250976562 809.6041870117188
v 64.76065063476562 661.972412109375 809.6041870117188
v 34.916412353515625 678.2124633789062 809.6041870117188
v 64.76065063476562 661.972412109375 818.0840454101562
v 34.916412353515625 678.2124633789062 818.0840454101562
v 109.47259521484375 814.9932250976562 818.0840454101562
v 139.1993408203125 798.8171997070312 818.0840454101562
vt 0.0019989013671875 0.678466796875
vt 0.0019989013671875 0.64794921875
vt 0.15185546875 0.678466796875
vt 0.0019989013671875 0.64794921875
vt 0.15185546875 0.64794921875
vt 0.15185546875 0.678466796875
vt 0.15185546875 0.64794921875
vt 0.1566162109375 0.64794921875
vt 0.15185546875 0.678466796875
vt 0.1566162109375 0.64794921875
vt 0.1566162109375 0.678466796875
vt 0.15185546875 0.678466796875
vt 0.1566162109375 0.678466796875
vt 0.1566162109375 0.64794921875
vt 0.84375 0.678466796875
vt 0.1566162109375 0.64794921875
vt 0.84375 0.64794921875
vt 0.84375 0.678466796875
vt 0.84375 0.678466796875
vt 0.84375 0.64794921875
vt 0.8486328125 0.64794921875
vt 0.8486328125 0.678466796875
vt 0.84375 0.678466796875
vt 0.8486328125 0.64794921875
vt 0.99755859375 0.678466796875
vt 0.8486328125 0.678466796875
vt 0.8486328125 0.64794921875
vt 0.99755859375 0.64794921875
vt 0.99755859375 0.678466796875
vt 0.8486328125 0.64794921875
vt 0.69970703125 0.32470703125
vt 0.6953125 0.32470703125
vt 0.69970703125 0.1748046875
vt 0.6953125 0.32470703125
vt 0.6953125 0.17529296875
vt 0.69970703125 0.1748046875
vt 0.6953125 0.1708984375
vt 0.69970703125 0.1748046875
vt 0.6953125 0.17529296875
vt 0.6953125 0.32470703125
vt 0.006671905517578125 0.32470703125
vt 0.6953125 0.17529296875
vt 0.6953125 0.1708984375
vt 0.6953125 0.17529296875
vt 0.006671905517578125 0.169921875
vt 0.006671905517578125 0.32470703125
vt 0.006671905517578125 0.1748046875
vt 0.6953125 0.17529296875
vt 0.6953125 0.17529296875
vt 0.006671905517578125 0.1748046875
vt 0.006671905517578125 0.169921875
vt 0.006671905517578125 0.1748046875
vt 0.006671905517578125 0.32470703125
vt 0.0022525787353515625 0.32470703125
vt 0.0022525787353515625 0.17431640625
vt 0.006671905517578125 0.169921875
vt 0.006671905517578125 0.1748046875
vt 0.0022525787353515625 0.17431640625
vt 0.006671905517578125 0.1748046875
vt 0.0022525787353515625 0.32470703125
vt 0.0022525787353515625 0.00244140625
vt 0.006671905517578125 0.00244140625
vt 0.0022525787353515625 0.15283203125
vt 0.006671905517578125 0.00244140625
vt 0.006671905517578125 0.15234375
vt 0.0022525787353515625 0.15283203125
vt 0.006671905517578125 0.15234375
vt 0.006671905517578125 0.15673828125
vt 0.0022525787353515625 0.15283203125
vt 0.006671905517578125 0.15673828125
vt 0.006671905517578125 0.15234375
vt 0.6953125 0.1572265625
vt 0.006671905517578125 0.15234375
vt 0.006671905517578125 0.00244140625
vt 0.6953125 0.15234375
vt 0.006671905517578125 0.15234375
vt 0.6953125 0.15234375
vt 0.6953125 0.1572265625
vt 0.006671905517578125 0.00244140625
vt 0.6953125 0.0029296875
vt 0.6953125 0.15234375
vt 0.6953125 0.15234375
vt 0.69970703125 0.1533203125
vt 0.6953125 0.1572265625
vt 0.6953125 0.15234375
vt 0.6953125 0.0029296875
vt 0.69970703125 0.0029296875
vt 0.69970703125 0.1533203125
vt 0.6953125 0.15234375
vt 0.69970703125 0.0029296875
vn -0.44159865379333496 -0.8115228414535522 -0.38265031576156616
vn -0.44159138202667236 -0.8115093111991882 0.38268736004829407
vn -0.7185267210006714 -0.6058422923088074 -0.3415764570236206
vn -0.7185126543045044 -0.6058503985404968 0.34159156680107117
vn -0.932314395904541 0.11875126510858536 0.3415963053703308
vn -0.9323146343231201 0.11877357959747314 -0.3415878117084503
vn -0.6055905222892761 0.7187330722808838 -0.3415886461734772
vn -0.6055696606636047 0.7187435626983643 0.3416037857532501
vn 0.11845093220472336 0.932349443435669 0.34160488843917847
vn 0.11842954903841019 0.9323566555976868 -0.34159237146377563
vn 0.4415959119796753 0.8114899396896362 -0.3827233910560608
vn 0.44158199429512024 0.8114795088768005 0.38276147842407227
vn 0.18289275467395782 0.33608800172805786 -0.9239020943641663
vn -0.13662241399288177 0.46335309743881226 -0.875578761100769
vn -0.1829417496919632 -0.33619093894958496 -0.9238550662994385
vn -0.46334847807884216 -0.13663223385810852 -0.8755797147750854
vn -0.18292681872844696 -0.33616337180137634 0.9238678812980652
vn -0.4633336365222931 -0.136612668633461 0.8755906820297241
vn -0.13660283386707306 0.4633501172065735 0.8755834102630615
vn 0.18286988139152527 0.3360607326030731 0.9239165186882019
f 1/1/1 2/2/2 3/3/3
f 2/4/2 4/5/4 3/6/3
f 4/7/4 5/8/5 3/9/3
f 5/10/5 6/11/6 3/12/3
f 6/13/6 5/14/5 7/15/7
f 5/16/5 8/17/8 7/18/7
f 7/19/7 8/20/8 9/21/9
f 10/22/10 7/23/7 9/24/9
f 11/25/11 10/26/10 9/27/9
f 12/28/12 11/29/11 9/30/9
f 11/31/11 13/32/13 10/33/10
f 13/34/13 14/35/14 10/36/10
f 7/37/7 10/38/10 14/39/14
f 13/40/13 15/41/15 14/42/14
f 7/43/7 14/44/14 6/45/6
f 15/46/15 16/47/16 14/48/14
f 14/49/14 16/50/16 6/51/6
f 16/52/16 15/53/15 1/54/1
f 3/55/3 6/56/6 16/57/16
f 3/58/3 16/59/16 1/60/1
f 2/61/2 17/62/17 4/63/4
f 17/64/17 18/65/18 4/66/4
f 18/67/18 5/68/5 4/69/4
f 5/70/5 18/71/18 8/72/8
f 18/73/18 17/74/17 19/75/19
f 18/76/18 19/77/19 8/78/8
f 17/79/17 20/80/20 19/81/19
f 19/82/19 9/83/9 8/84/8
f 19/85/19 20/86/20 12/87/12
f 9/88/9 19/89/19 12/90/12
