# Exported by Lightwave Blender addon
v -109.86422729492188 381.98712158203125 236.55738830566406
v -109.86422729492188 381.98712158203125 236.4978790283203
v -34.64984130859375 521.492431640625 236.5574188232422
v -34.64984130859375 521.492431640625 236.4978790283203
v -109.98734283447266 382.05352783203125 242.00758361816406
v -109.98514556884766 382.05230712890625 241.95213317871094
v -34.772972106933594 521.558837890625 242.00759887695312
v -34.77075958251953 521.5576782226562 241.9521484375
v -99.55628204345703 376.38385009765625 236.55740356445312
v -23.386083602905273 515.3695678710938 236.5574188232422
v -99.55628204345703 376.38385009765625 236.49786376953125
v -23.386083602905273 515.3695678710938 236.4978790283203
v -98.03455352783203 375.54986572265625 238.27816772460938
v -21.864355087280273 514.53564453125 238.27816772460938
v -98.00102233886719 375.531494140625 240.22781372070312
v -21.83083152770996 514.5172119140625 240.2278289794922
v -99.43362426757812 376.3166198730469 242.00758361816406
v -23.2634334564209 515.3023681640625 242.0076141357422
v -99.43582153320312 376.3178405761719 241.95213317871094
v -23.265607833862305 515.3035888671875 241.95216369628906
v -106.63570404052734 380.2464599609375 242.46519470214844
v -31.42133140563965 519.7518310546875 242.46519470214844
v -34.35101318359375 521.3313598632812 242.4652099609375
v -109.56539154052734 381.8260192871094 242.46517944335938
v -34.791114807128906 521.568603515625 242.4652099609375
v -110.00550079345703 382.06329345703125 242.46517944335938
v -34.64984130859375 521.492431640625 236.0438232421875
v -109.86422729492188 381.98712158203125 236.04380798339844
v -34.20973205566406 521.255126953125 236.04380798339844
v -109.42411804199219 381.7498474121094 236.04380798339844
v -31.267179489135742 519.668701171875 236.04388427734375
v -106.4815673828125 380.1633605957031 236.04388427734375
v -34.75261688232422 521.5478515625 241.49456787109375
v -109.96698760986328 382.0425109863281 241.4945526123047
v -35.15547180175781 521.7650146484375 241.28773498535156
v -110.36983489990234 382.25970458984375 241.2877197265625
v -35.81694793701172 522.1217041015625 240.94813537597656
v -111.03131866455078 382.6163635253906 240.94813537597656
v -36.21979522705078 522.3388671875 240.74131774902344
v -111.43416595458984 382.83355712890625 240.74131774902344
v -36.21092224121094 522.3341064453125 240.2278289794922
v -111.42530822753906 382.8287658691406 240.22779846191406
v -36.177268981933594 522.31591796875 238.27818298339844
v -111.39164733886719 382.8106384277344 238.27818298339844
v -36.16841125488281 522.3111572265625 237.76467895507812
v -111.38278198242188 382.8058776855469 237.76467895507812
v -35.76337432861328 522.0928344726562 237.5637969970703
v -110.97775268554688 382.58746337890625 237.5637969970703
v -35.054893493652344 521.7108154296875 237.21237182617188
v -110.26927185058594 382.20550537109375 237.2123565673828
v -34.64984130859375 521.492431640625 237.011474609375
v -109.86422729492188 381.98712158203125 237.011474609375
v -102.92633819580078 378.23077392578125 236.04388427734375
v -26.756155014038086 517.216552734375 236.04388427734375
v -99.9947509765625 376.6241760253906 236.0438232421875
v -23.824560165405273 515.6099243164062 236.04383850097656
v -99.55628204345703 376.38385009765625 236.04380798339844
v -23.386083602905273 515.3695678710938 236.04380798339844
v -99.55628204345703 376.38385009765625 237.01144409179688
v -23.38606834411621 515.3695678710938 237.011474609375
v -99.15274810791016 376.1626892089844 237.2123565673828
v -22.98255729675293 515.1484375 237.2123565673828
v -98.44690704345703 375.7758483886719 237.56378173828125
v -22.276716232299805 514.7615966796875 237.5637969970703
v -98.04338073730469 375.5547180175781 237.76467895507812
v -21.87318992614746 514.5404052734375 237.76470947265625
v -97.99219512939453 375.5266418457031 240.7412872314453
v -21.821989059448242 514.5123901367188 240.74131774902344
v -98.39353942871094 375.7466125488281 240.94810485839844
v -22.22334098815918 514.7323608398438 240.9481201171875
v -99.05255889892578 376.1077575683594 241.28773498535156
v -22.882352828979492 515.093505859375 241.28773498535156
v -99.45390319824219 376.3277282714844 241.4945526123047
v -23.28370475769043 515.3134765625 241.4945526123047
v -99.41554260253906 376.3067321777344 242.46517944335938
v -23.245344161987305 515.29248046875 242.46517944335938
v -99.85401153564453 376.5469970703125 242.46517944335938
v -23.683813095092773 515.5327758789062 242.46517944335938
v -102.77278137207031 378.1466369628906 242.4652099609375
v -26.602575302124023 517.1323852539062 242.4652099609375
vt -0.327880859375 0.8026123046875
vt -0.327880859375 0.8023681640625
vt 0.464111328125 0.8026123046875
vt -0.327880859375 0.8023681640625
vt 0.464111328125 0.8023681640625
vt 0.464111328125 0.8026123046875
vt -0.327880859375 0.7645263671875
vt -0.327880859375 0.7642822265625
vt 0.464111328125 0.7645263671875
vt -0.327880859375 0.7642822265625
vt 0.464111328125 0.7642822265625
vt 0.464111328125 0.7645263671875
vt -0.338623046875 0.44873046875
vt 0.453369140625 0.4541015625
vt -0.338623046875 0.44873046875
vt 0.453369140625 0.4541015625
vt 0.453369140625 0.45458984375
vt -0.338623046875 0.44873046875
vt -0.3388671875 0.46533203125
vt 0.453125 0.466796875
vt -0.3388671875 0.4765625
vt 0.453125 0.466796875
vt 0.453125 0.47509765625
vt -0.3388671875 0.4765625
vt -0.338623046875 0.49267578125
vt 0.453369140625 0.48681640625
vt -0.338623046875 0.49267578125
vt 0.453369140625 0.48681640625
vt 0.453369140625 0.4873046875
vt -0.338623046875 0.49267578125
vt -0.327880859375 0.74267578125
vt 0.464111328125 0.74267578125
vt 0.464111328125 0.75927734375
vt -0.327880859375 0.75927734375
vt -0.327880859375 0.74267578125
vt 0.464111328125 0.75927734375
vt -0.327880859375 0.75927734375
vt 0.464111328125 0.75927734375
vt 0.464111328125 0.76171875
vt -0.327880859375 0.76171875
vt -0.327880859375 0.75927734375
vt 0.464111328125 0.76171875
vt -0.327880859375 0.76171875
vt 0.464111328125 0.76171875
vt 0.464111328125 0.7642822265625
vt -0.327880859375 0.7642822265625
vt -0.327880859375 0.76171875
vt 0.464111328125 0.7642822265625
vt -0.327880859375 0.8026123046875
vt 0.464111328125 0.8026123046875
vt 0.464111328125 0.80517578125
vt -0.327880859375 0.80517578125
vt -0.327880859375 0.8026123046875
vt 0.464111328125 0.80517578125
vt -0.327880859375 0.80517578125
vt 0.464111328125 0.80517578125
vt 0.464111328125 0.8076171875
vt -0.327880859375 0.8076171875
vt -0.327880859375 0.80517578125
vt 0.464111328125 0.8076171875
vt -0.327880859375 0.8076171875
vt 0.464111328125 0.8076171875
vt 0.464111328125 0.8243408203125
vt -0.327880859375 0.8243408203125
vt -0.327880859375 0.8076171875
vt 0.464111328125 0.8243408203125
vt -0.327880859375 0.7645263671875
vt 0.464111328125 0.7645263671875
vt 0.464111328125 0.7669677734375
vt -0.327880859375 0.7669677734375
vt -0.327880859375 0.7645263671875
vt 0.464111328125 0.7669677734375
vt -0.327880859375 0.7669677734375
vt 0.464111328125 0.7669677734375
vt 0.464111328125 0.76953125
vt -0.327880859375 0.76953125
vt -0.327880859375 0.7669677734375
vt 0.464111328125 0.76953125
vt -0.327880859375 0.76953125
vt 0.464111328125 0.76953125
vt 0.464111328125 0.7735595703125
vt -0.327880859375 0.7735595703125
vt -0.327880859375 0.76953125
vt 0.464111328125 0.7735595703125
vt -0.327880859375 0.7735595703125
vt 0.464111328125 0.7735595703125
vt 0.464111328125 0.776123046875
vt -0.327880859375 0.776123046875
vt -0.327880859375 0.7735595703125
vt 0.464111328125 0.776123046875
vt -0.327880859375 0.776123046875
vt 0.464111328125 0.776123046875
vt 0.464111328125 0.778564453125
vt -0.327880859375 0.778564453125
vt -0.327880859375 0.776123046875
vt 0.464111328125 0.778564453125
vt -0.327880859375 0.778564453125
vt 0.464111328125 0.778564453125
vt 0.464111328125 0.7880859375
vt -0.327880859375 0.7880859375
vt -0.327880859375 0.778564453125
vt 0.464111328125 0.7880859375
vt -0.327880859375 0.7880859375
vt 0.464111328125 0.7880859375
vt 0.464111328125 0.79052734375
vt -0.327880859375 0.79052734375
vt -0.327880859375 0.7880859375
vt 0.464111328125 0.79052734375
vt -0.327880859375 0.79052734375
vt 0.464111328125 0.79052734375
vt 0.464111328125 0.7930908203125
vt -0.327880859375 0.7930908203125
vt -0.327880859375 0.79052734375
vt 0.464111328125 0.7930908203125
vt -0.327880859375 0.7930908203125
vt 0.464111328125 0.7930908203125
vt 0.464111328125 0.79736328125
vt -0.327880859375 0.79736328125
vt -0.327880859375 0.7930908203125
vt 0.464111328125 0.79736328125
vt -0.327880859375 0.79736328125
vt 0.464111328125 0.79736328125
vt 0.464111328125 0.7999267578125
vt -0.327880859375 0.7999267578125
vt -0.327880859375 0.79736328125
vt 0.464111328125 0.7999267578125
vt -0.327880859375 0.7999267578125
vt 0.464111328125 0.7999267578125
vt 0.464111328125 0.8023681640625
vt -0.327880859375 0.8023681640625
vt -0.327880859375 0.7999267578125
vt 0.464111328125 0.8023681640625
vt -0.338623046875 0.42724609375
vt 0.453369140625 0.4326171875
vt -0.338623046875 0.44384765625
vt 0.453369140625 0.4326171875
vt 0.453369140625 0.44921875
vt -0.338623046875 0.44384765625
vt -0.338623046875 0.44384765625
vt 0.453369140625 0.44921875
vt -0.338623046875 0.4462890625
vt 0.453369140625 0.44921875
vt 0.453369140625 0.45166015625
vt -0.338623046875 0.4462890625
vt -0.338623046875 0.4462890625
vt 0.453369140625 0.45166015625
vt -0.338623046875 0.44873046875
vt 0.453369140625 0.45166015625
vt 0.453369140625 0.4541015625
vt -0.338623046875 0.44873046875
vt -0.338623046875 0.44873046875
vt 0.453369140625 0.45458984375
vt -0.338623046875 0.451171875
vt 0.453369140625 0.45458984375
vt 0.453369140625 0.45703125
vt -0.338623046875 0.451171875
vt -0.338623046875 0.451171875
vt 0.453369140625 0.45703125
vt -0.338623046875 0.45361328125
vt 0.453369140625 0.45703125
vt 0.453369140625 0.4599609375
vt -0.338623046875 0.45361328125
vt -0.338623046875 0.45361328125
vt 0.453369140625 0.4599609375
vt -0.3388671875 0.4580078125
vt 0.453369140625 0.4599609375
vt 0.453369140625 0.4638671875
vt -0.3388671875 0.4580078125
vt -0.3388671875 0.4580078125
vt 0.453369140625 0.4638671875
vt -0.3388671875 0.46142578125
vt 0.453369140625 0.4638671875
vt 0.453125 0.4658203125
vt -0.3388671875 0.46142578125
vt -0.3388671875 0.46142578125
vt 0.453125 0.4658203125
vt -0.3388671875 0.46533203125
vt 0.453125 0.4658203125
vt 0.453125 0.466796875
vt -0.3388671875 0.46533203125
vt -0.3388671875 0.4765625
vt 0.453125 0.47509765625
vt -0.3388671875 0.48046875
vt 0.453125 0.47509765625
vt 0.453125 0.47607421875
vt -0.3388671875 0.48046875
vt -0.3388671875 0.48046875
vt 0.453125 0.47607421875
vt -0.3388671875 0.4833984375
vt 0.453125 0.47607421875
vt 0.453369140625 0.4775390625
vt -0.3388671875 0.4833984375
vt -0.3388671875 0.4833984375
vt 0.453369140625 0.4775390625
vt -0.338623046875 0.48779296875
vt 0.453369140625 0.4775390625
vt 0.453369140625 0.48193359375
vt -0.338623046875 0.48779296875
vt -0.338623046875 0.48779296875
vt 0.453369140625 0.48193359375
vt -0.338623046875 0.490234375
vt 0.453369140625 0.48193359375
vt 0.453369140625 0.484375
vt -0.338623046875 0.490234375
vt -0.338623046875 0.490234375
vt 0.453369140625 0.484375
vt -0.338623046875 0.49267578125
vt 0.453369140625 0.484375
vt 0.453369140625 0.48681640625
vt -0.338623046875 0.49267578125
vt -0.338623046875 0.49267578125
vt 0.453369140625 0.4873046875
vt -0.338623046875 0.4951171875
vt 0.453369140625 0.4873046875
vt 0.453369140625 0.48974609375
vt -0.338623046875 0.4951171875
vt -0.338623046875 0.4951171875
vt 0.453369140625 0.48974609375
vt -0.338623046875 0.49755859375
vt 0.453369140625 0.48974609375
vt 0.453369140625 0.4921875
vt -0.338623046875 0.49755859375
vt -0.338623046875 0.49755859375
vt 0.453369140625 0.4921875
vt -0.338623046875 0.51416015625
vt 0.453369140625 0.4921875
vt 0.453369140625 0.5087890625
vt -0.338623046875 0.51416015625
vn -0.8795111179351807 0.47587835788726807 0.0
vn 0.8800641894340515 -0.4748547673225403 0.0
vn 0.8803188800811768 -0.4743823707103729 0.0
vn -0.8796183466911316 0.4756801426410675 0.0
vn 0.7173106074333191 -0.3869548439979553 0.5794233083724976
vn -0.82614666223526 0.4452378749847412 0.3453187346458435
vn 0.8498526811599731 -0.45756852626800537 -0.26149868965148926
vn -0.8796685934066772 0.47494831681251526 0.024639254435896873
vn 0.8944271802902222 -0.4472135901451111 0.0
vn 0.8769463896751404 -0.48058822751045227 0.0
vn 0.8770803213119507 -0.4803437292575836 0.0
vn 0.31557121872901917 -0.17818892002105713 -0.9320212006568909
vn 0.8767709136009216 -0.48050835728645325 -0.019611043855547905
vn 0.8767714500427246 -0.48050859570503235 -0.019579948857426643
vn 0.8767709136009216 -0.48050829768180847 -0.01960545778274536
vn 0.8767707347869873 -0.48050835728645325 -0.019614465534687042
vn 0.5565395951271057 -0.30495956540107727 0.772828221321106
vn -0.8702348470687866 0.4773155152797699 -0.12190663069486618
vn -0.6921498775482178 0.3790876269340515 0.6141833662986755
vn 0.839026689529419 -0.4594030976295471 -0.2915184795856476
vn -4.017630544694839e-06 1.950275191120454e-06 1.0
vn 4.03534477300127e-06 -2.1756575279141543e-06 1.0
vn 1.917518147820374e-06 -1.14466695322335e-06 1.0
vn -2.109032720909454e-06 9.183304428006522e-07 0.9999999403953552
vn -0.6362537741661072 0.3430365025997162 0.6910189390182495
vn -0.636278510093689 0.34304967522621155 0.6909894943237305
vn -0.622431755065918 0.3355846107006073 -0.7070797085762024
vn -0.6224092841148376 0.33557239174842834 -0.707105278968811
vn -3.3369215088896453e-06 1.8536817378844717e-06 -1.0
vn 1.004420300887432e-05 -5.415338364400668e-06 -1.0
vn 2.0088582459720783e-05 -1.0830776773218531e-05 -1.0
vn 2.008842238865327e-05 -1.0830684914253652e-05 -0.9999999403953552
vn -0.7501219511032104 0.4044286012649536 0.5232157111167908
vn -0.750110924243927 0.4044226408004761 0.5232358574867249
vn -0.36248454451560974 0.19543364644050598 0.9112687110900879
vn -0.36247679591178894 0.1954295039176941 0.9112727046012878
vn -0.3624756336212158 0.19542886316776276 0.9112732410430908
vn -0.36246567964553833 0.19542357325553894 0.9112783670425415
vn -0.744187593460083 0.4012291729450226 0.5340412259101868
vn -0.7441859245300293 0.4012283384799957 0.5340441465377808
vn -0.8800485134124756 0.4744786322116852 -0.019611652940511703
vn -0.8800485134124756 0.4744788110256195 -0.019606590270996094
vn -0.8800486922264099 0.4744788408279419 -0.01959824562072754
vn -0.8800486922264099 0.47447890043258667 -0.01959926448762417
vn -0.7317048907279968 0.3944992423057556 -0.5558580756187439
vn -0.7317020893096924 0.39449766278266907 -0.5558629035949707
vn -0.3521905839443207 0.189883753657341 -0.9164637923240662
vn -0.3521905243396759 0.1898837387561798 -0.9164638519287109
vn -0.35218825936317444 0.1898825317621231 -0.9164649844169617
vn -0.35219088196754456 0.1898840069770813 -0.9164637327194214
vn -0.7364663481712341 0.3970663845539093 -0.547681987285614
vn -0.7364691495895386 0.3970678448677063 -0.5476772785186768
vn -1.601100666448474e-05 8.774719390203245e-06 -1.0
vn -1.2016258551739156e-05 6.69374139761203e-06 -1.0
vn -2.1336027202778496e-05 1.1748692486435175e-05 -0.9999999403953552
vn -3.271377499913797e-05 1.7983569705393165e-05 -1.0
vn 0.620094358921051 -0.33983850479125977 -0.7071016430854797
vn 0.620053231716156 -0.33981600403785706 -0.7071486115455627
vn 0.7337369322776794 -0.40211957693099976 -0.5476586222648621
vn 0.7337208390235901 -0.40211084485054016 -0.5476866364479065
vn 0.3508946895599365 -0.19230538606643677 -0.9164559841156006
vn 0.35088828206062317 -0.19230186939239502 -0.9164591431617737
vn 0.35088950395584106 -0.19230255484580994 -0.9164584875106812
vn 0.35089701414108276 -0.19230660796165466 -0.9164548516273499
vn 0.7289862036705017 -0.39951589703559875 -0.5558472871780396
vn 0.729010820388794 -0.3995293080806732 -0.5558052062988281
vn 0.7414120435714722 -0.4063259959220886 0.5340480804443359
vn 0.7413932681083679 -0.4063156843185425 0.5340819954872131
vn 0.3611392080783844 -0.1979200541973114 0.9112662672996521
vn 0.36111974716186523 -0.19790929555892944 0.9112761616706848
vn 0.3611392080783844 -0.19791996479034424 0.9112662672996521
vn 0.36113086342811584 -0.19791534543037415 0.9112705588340759
vn 0.7473008632659912 -0.4095531404018402 0.5232662558555603
vn 0.7473081350326538 -0.4095571041107178 0.5232528448104858
vn 0.6338866949081421 -0.3473973572254181 0.6910156607627869
vn 0.6338882446289062 -0.34739816188812256 0.6910139918327332
vn 4.020399501314387e-06 -2.2033523237041663e-06 1.0
vn 4.020326286990894e-06 -2.2033127606846392e-06 1.0
vn 8.040598004299682e-06 -4.406594143802067e-06 1.0
vn 8.04063802206656e-06 -4.406617790664313e-06 1.0
f 1/1/1 2/2/2 3/3/3
f 2/4/2 4/5/4 3/6/3
f 5/7/5 6/8/6 7/9/7
f 6/10/6 8/11/8 7/12/7
f 9/13/9 10/14/10 11/15/11
f 10/16/10 12/17/12 11/18/11
f 13/19/13 14/20/14 15/21/15
f 14/22/14 16/23/16 15/24/15
f 17/25/17 18/26/18 19/27/19
f 18/28/18 20/29/20 19/30/19
f 21/31/21 22/32/22 23/33/23
f 24/34/24 21/35/21 23/36/23
f 24/37/24 23/38/23 25/39/25
f 26/40/26 24/41/24 25/42/25
f 26/43/26 25/44/25 8/45/8
f 6/46/6 26/47/26 8/48/8
f 1/49/1 3/50/3 27/51/27
f 28/52/28 1/53/1 27/54/27
f 28/55/28 27/56/27 29/57/29
f 30/58/30 28/59/28 29/60/29
f 30/61/30 29/62/29 31/63/31
f 32/64/32 30/65/30 31/66/31
f 5/67/5 7/68/7 33/69/33
f 34/70/34 5/71/5 33/72/33
f 34/73/34 33/74/33 35/75/35
f 36/76/36 34/77/34 35/78/35
f 36/79/36 35/80/35 37/81/37
f 38/82/38 36/83/36 37/84/37
f 38/85/38 37/86/37 39/87/39
f 40/88/40 38/89/38 39/90/39
f 40/91/40 39/92/39 41/93/41
f 42/94/42 40/95/40 41/96/41
f 42/97/42 41/98/41 43/99/43
f 44/100/44 42/101/42 43/102/43
f 44/103/44 43/104/43 45/105/45
f 46/106/46 44/107/44 45/108/45
f 46/109/46 45/110/45 47/111/47
f 48/112/48 46/113/46 47/114/47
f 48/115/48 47/116/47 49/117/49
f 50/118/50 48/119/48 49/120/49
f 50/121/50 49/122/49 51/123/51
f 52/124/52 50/125/50 51/126/51
f 52/127/52 51/128/51 4/129/4
f 2/130/2 52/131/52 4/132/4
f 53/133/53 54/134/54 55/135/55
f 54/136/54 56/137/56 55/138/55
f 55/139/55 56/140/56 57/141/57
f 56/142/56 58/143/58 57/144/57
f 57/145/57 58/146/58 9/147/9
f 58/148/58 10/149/10 9/150/9
f 11/151/11 12/152/12 59/153/59
f 12/154/12 60/155/60 59/156/59
f 59/157/59 60/158/60 61/159/61
f 60/160/60 62/161/62 61/162/61
f 61/163/61 62/164/62 63/165/63
f 62/166/62 64/167/64 63/168/63
f 63/169/63 64/170/64 65/171/65
f 64/172/64 66/173/66 65/174/65
f 65/175/65 66/176/66 13/177/13
f 66/178/66 14/179/14 13/180/13
f 15/181/15 16/182/16 67/183/67
f 16/184/16 68/185/68 67/186/67
f 67/187/67 68/188/68 69/189/69
f 68/190/68 70/191/70 69/192/69
f 69/193/69 70/194/70 71/195/71
f 70/196/70 72/197/72 71/198/71
f 71/199/71 72/200/72 73/201/73
f 72/202/72 74/203/74 73/204/73
f 73/205/73 74/206/74 17/207/17
f 74/208/74 18/209/18 17/210/17
f 19/211/19 20/212/20 75/213/75
f 20/214/20 76/215/76 75/216/75
f 75/217/75 76/218/76 77/219/77
f 76/220/76 78/221/78 77/222/77
f 77/223/77 78/224/78 79/225/79
f 78/226/78 80/227/80 79/228/79
