# Exported by Lightwave Blender addon
v 733.4127197265625 3255.818359375 271.90087890625
v 667.7210083007812 3184.3291015625 271.90087890625
v 733.3990478515625 3255.803466796875 170.04026794433594
v 667.7416381835938 3184.3515625 170.04034423828125
v 260.7643127441406 2662.55126953125 107.00445556640625
v 472.3222961425781 2892.7802734375 107.00446319580078
v 260.7643127441406 2662.55126953125 232.7506103515625
v 472.3222961425781 2892.7802734375 232.7506103515625
v 668.1713256835938 3115.951171875 315.10894775390625
v 668.1713256835938 3115.951171875 366.6292419433594
v 602.7041625976562 3044.706298828125 366.6292419433594
v 602.7041625976562 3044.706298828125 315.10894775390625
v 536.2181396484375 2972.3525390625 366.6292724609375
v 536.2181396484375 2972.3525390625 315.1089782714844
vt 0.5810546875 -0.3916015625
vt 0.5810546875 0.24755859375
vt -0.06951904296875 -0.3916015625
vt 0.5810546875 0.24755859375
vt -0.06951904296875 0.2470703125
vt -0.06951904296875 -0.3916015625
vt 1.119140625 0.7962646484375
vt -0.1539306640625 0.7962646484375
vt 1.119140625 0.2763671875
vt -0.1539306640625 0.7962646484375
vt -0.1539306640625 0.2763671875
vt 1.119140625 0.2763671875
vt -0.96240234375 3.1171875
vt -0.96240234375 2.33984375
vt 0.496826171875 2.33984375
vt 0.496826171875 3.1171875
vt -0.96240234375 3.1171875
vt 0.496826171875 2.33984375
vt 0.496826171875 3.1171875
vt 0.496826171875 2.33984375
vt 1.978515625 2.33984375
vt 1.978515625 3.1171875
vt 0.496826171875 3.1171875
vt 1.978515625 2.33984375
vn 0.7363333106040955 -0.6766190528869629 9.8747797494525e-08
vn 0.7363332509994507 -0.6766190528869629 1.744006361548145e-08
vn 0.7363332509994507 -0.6766191124916077 1.228890589288767e-08
vn 0.7363331913948059 -0.6766191720962524 -6.904626559389726e-08
vn 0.7363335490226746 -0.6766186952590942 0.0
vn 0.7363335490226746 -0.6766186952590942 0.0
vn 0.7363335490226746 -0.6766186952590942 0.0
vn 0.7363336086273193 -0.676618754863739 0.0
vn 0.7363332509994507 -0.6766191720962524 0.0
vn 0.7363331913948059 -0.6766191124916077 0.0
vn 0.7363334894180298 -0.6766188740730286 0.0
vn 0.7363334894180298 -0.6766188740730286 0.0
vn 0.7363336682319641 -0.6766186356544495 0.0
vn 0.7363336682319641 -0.6766186356544495 0.0
f 1/1/1 2/2/2 3/3/3
f 2/4/2 4/5/4 3/6/3
f 5/7/5 6/8/6 7/9/7
f 6/10/6 8/11/8 7/12/7
f 9/13/9 10/14/10 11/15/11
f 12/16/12 9/17/9 11/18/11
f 12/19/12 11/20/11 13/21/13
f 14/22/14 12/23/12 13/24/13
