# Exported by Lightwave Blender addon
v 163.8453826904297 895.2072143554688 114.65108489990234
v 163.84571838378906 895.2070922851562 265.3385314941406
v 167.36622619628906 893.3088989257812 114.6511001586914
v 167.3665771484375 893.3086547851562 265.3385314941406
v 139.19873046875 841.0646362304688 114.65109252929688
v 139.19915771484375 841.064453125 294.7059020996094
v 135.67787170410156 842.9629516601562 114.65108489990234
v 135.67828369140625 842.9627075195312 294.7059020996094
v 227.02822875976562 1012.3961181640625 265.3385009765625
v 230.54908752441406 1010.4976806640625 265.3384704589844
v 260.99102783203125 1066.96044921875 294.7059020996094
v 257.47015380859375 1068.8587646484375 294.7059020996094
v 227.0278778076172 1012.3961181640625 117.4769287109375
v 230.5487518310547 1010.4979248046875 117.4769287109375
v 260.99066162109375 1066.960693359375 117.4769287109375
v 257.46978759765625 1068.85888671875 117.4769287109375
vt 0.5966796875 0.69580078125
vt -0.1566162109375 0.69580078125
vt 0.5966796875 0.67578125
vt -0.1566162109375 0.69580078125
vt -0.1566162109375 0.67578125
vt 0.5966796875 0.67578125
vt 0.403076171875 0.67578125
vt 1.302734375 0.67578125
vt 0.403076171875 0.69580078125
vt 1.302734375 0.67578125
vt 1.302734375 0.69580078125
vt 0.403076171875 0.69580078125
vt 0.8310546875 0.69580078125
vt 0.16552734375 0.69580078125
vt 0.8310546875 0.67578125
vt 0.16552734375 0.69580078125
vt 0.16552734375 0.67578125
vt 0.8310546875 0.67578125
vt -0.1280517578125 0.67578125
vt 1.154296875 0.67578125
vt -0.1280517578125 0.69580078125
vt 1.154296875 0.67578125
vt 1.154296875 0.69580078125
vt -0.1280517578125 0.69580078125
vt 1.15625 0.69580078125
vt 0.417236328125 0.69580078125
vt 1.15625 0.67578125
vt 0.417236328125 0.69580078125
vt 0.417236328125 0.67578125
vt 1.15625 0.67578125
vt -0.303466796875 0.67578125
vt 0.58251953125 0.67578125
vt -0.303466796875 0.69580078125
vt 0.58251953125 0.67578125
vt 0.58251953125 0.69580078125
vt -0.303466796875 0.69580078125
vt 0.8310546875 0.69580078125
vt 0.8310546875 0.67578125
vt 1.1279296875 0.69580078125
vt 0.8310546875 0.67578125
vt 1.1279296875 0.67578125
vt 1.1279296875 0.69580078125
vt 0.16552734375 0.67578125
vt 0.16552734375 0.69580078125
vt -0.155029296875 0.69580078125
vt -0.155029296875 0.67578125
vt 0.16552734375 0.67578125
vt -0.155029296875 0.69580078125
vt -0.1414794921875 -0.302734375
vt 0.1790771484375 -0.302734375
vt 0.1790771484375 0.4365234375
vt -0.1414794921875 0.58349609375
vt -0.1414794921875 -0.302734375
vt 0.1790771484375 0.4365234375
vt -0.1414794921875 0.58349609375
vt 0.1790771484375 0.4365234375
vt 0.8447265625 0.4365234375
vt 1.140625 0.58349609375
vt -0.1414794921875 0.58349609375
vt 0.8447265625 0.4365234375
vt 1.140625 0.58349609375
vt 0.8447265625 0.4365234375
vt 0.8447265625 -0.31640625
vt 1.140625 -0.31640625
vt 1.140625 0.58349609375
vt 0.8447265625 -0.31640625
vt 0.82080078125 0.404296875
vt 1.140625 0.404296875
vt 1.140625 1.289794921875
vt 0.82080078125 1.14306640625
vt 0.82080078125 0.404296875
vt 1.140625 1.289794921875
vt 0.82080078125 1.14306640625
vt 1.140625 1.289794921875
vt -0.1414794921875 1.289794921875
vt 0.1551513671875 1.14306640625
vt 0.82080078125 1.14306640625
vt -0.1414794921875 1.289794921875
vt 0.1551513671875 1.14306640625
vt -0.1414794921875 1.289794921875
vt -0.1414794921875 0.39013671875
vt 0.1551513671875 0.39013671875
vt 0.1551513671875 1.14306640625
vt -0.1414794921875 0.39013671875
vn -0.2341744601726532 0.7821875214576721 -0.5773603320121765
vn -0.6530911326408386 0.6946642398834229 -0.3015187978744507
vn 0.7821841239929199 0.2342008501291275 -0.5773541927337646
vn 0.939275324344635 -0.163869246840477 -0.3015108108520508
vn 0.23417523503303528 -0.7821878790855408 -0.5773596167564392
vn 0.23416857421398163 -0.7821885347366333 0.5773614645004272
vn -0.7821841239929199 -0.23420090973377228 -0.5773541927337646
vn -0.7821797132492065 -0.2342061996459961 0.577358067035675
vn -0.9392767548561096 0.16387267410755157 -0.3015044629573822
vn 0.653089702129364 -0.694663941860199 -0.30152252316474915
vn 0.7821826338768005 0.2342010736465454 0.5773561596870422
vn -0.2341608703136444 0.7821894884109497 0.5773630142211914
vn -0.7821860909461975 -0.23421385884284973 -0.5773463249206543
vn 0.23418386280536652 -0.7821787595748901 -0.577368438243866
vn 0.782184898853302 0.234213724732399 -0.5773479342460632
vn -0.23418821394443512 0.7821792960166931 -0.5773659348487854
f 1/1/1 2/2/2 3/3/3
f 2/4/2 4/5/4 3/6/3
f 5/7/5 6/8/6 7/9/7
f 6/10/6 8/11/8 7/12/7
f 2/13/2 9/14/9 4/15/4
f 9/16/9 10/17/10 4/18/4
f 6/19/6 11/20/11 8/21/8
f 11/22/11 12/23/12 8/24/8
f 9/25/9 13/26/13 10/27/10
f 13/28/13 14/29/14 10/30/10
f 11/31/11 15/32/15 12/33/12
f 15/34/15 16/35/16 12/36/12
f 1/37/1 3/38/3 7/39/7
f 3/40/3 5/41/5 7/42/7
f 14/43/14 13/44/13 16/45/16
f 15/46/15 14/47/14 16/48/16
f 16/49/16 13/50/13 9/51/9
f 12/52/12 16/53/16 9/54/9
f 12/55/12 9/56/9 2/57/2
f 8/58/8 12/59/12 2/60/2
f 8/61/8 2/62/2 1/63/1
f 7/64/7 8/65/8 1/66/1
f 14/67/14 15/68/15 11/69/11
f 10/70/10 14/71/14 11/72/11
f 10/73/10 11/74/11 6/75/6
f 4/76/4 10/77/10 6/78/6
f 4/79/4 6/80/6 5/81/5
f 3/82/3 4/83/4 5/84/5
