# Exported by Lightwave Blender addon
v 168.49285888671875 -162.72686767578125 549.8284301757812
v 168.18051147460938 -163.4534454345703 549.7823486328125
v 168.142578125 -163.5352783203125 550.5839233398438
v 168.45401000976562 -162.8268585205078 550.7667846679688
v 167.9660186767578 -163.95591735839844 551.6129150390625
v 168.2349853515625 -163.3470001220703 552.0407104492188
v 167.56185913085938 -164.91732788085938 552.6555786132812
v 167.7359161376953 -164.53338623046875 553.327880859375
v 167.0110321044922 -166.2267608642578 553.1572265625
v 167.0567626953125 -166.14862060546875 553.9468994140625
v 166.41883850097656 -167.63510131835938 552.9842529296875
v 166.32749938964844 -167.88255310058594 553.7335205078125
v 165.93357849121094 -168.78916931152344 552.1914672851562
v 165.7284698486328 -169.306884765625 552.7552490234375
v 165.62608337402344 -169.5194549560547 550.9407958984375
v 165.3492431640625 -170.20941162109375 551.2089233398438
v 165.5445098876953 -169.7215576171875 549.7823486328125
v 165.24371337890625 -170.45298767089844 549.8284301757812
v 165.5445098876953 -169.7215576171875 530.3729858398438
v 165.24371337890625 -170.4530029296875 530.326904296875
v 167.127685546875 -171.24530029296875 530.326904296875
v 167.44004821777344 -170.5187225341797 530.3729858398438
v 167.12771606445312 -171.2452850341797 549.8284301757812
v 167.4400634765625 -170.51873779296875 549.7823486328125
v 167.22799682617188 -170.99948120117188 551.2088623046875
v 167.52743530273438 -170.31906127929688 550.9407348632812
v 167.60777282714844 -170.09719848632812 552.7553100585938
v 167.8343048095703 -169.5885009765625 552.1914672851562
v 168.2067108154297 -168.67283630371094 553.7335815429688
v 168.31968688964844 -168.4344940185547 552.9842529296875
v 168.93585205078125 -166.93885803222656 553.9468994140625
v 168.91200256347656 -167.0261993408203 553.1572265625
v 169.615234375 -165.32373046875 553.327880859375
v 169.4625701904297 -165.71664428710938 552.6555786132812
v 170.1140594482422 -164.13722229003906 552.0407104492188
v 169.8669891357422 -164.75535583496094 551.6129150390625
v 170.33258056640625 -163.61688232421875 550.7667846679688
v 170.04412841796875 -164.3349609375 550.5838623046875
v 170.37684631347656 -163.5191650390625 549.8284301757812
v 170.07606506347656 -164.25059509277344 549.7823486328125
vt 0.68310546875 0.42041015625
vt 0.68310546875 0.423828125
vt 0.68017578125 0.423828125
vt 0.68017578125 0.42041015625
vt 0.68310546875 0.42041015625
vt 0.68017578125 0.423828125
vt 0.68017578125 0.42041015625
vt 0.68017578125 0.423828125
vt 0.67431640625 0.423828125
vt 0.67431640625 0.42041015625
vt 0.68017578125 0.42041015625
vt 0.67431640625 0.423828125
vt 0.67431640625 0.42041015625
vt 0.67431640625 0.423828125
vt 0.66552734375 0.423828125
vt 0.66552734375 0.42041015625
vt 0.67431640625 0.42041015625
vt 0.66552734375 0.423828125
vt 0.66552734375 0.42041015625
vt 0.66552734375 0.423828125
vt 0.65576171875 0.423828125
vt 0.65576171875 0.42041015625
vt 0.66552734375 0.42041015625
vt 0.65576171875 0.423828125
vt 0.65576171875 0.42041015625
vt 0.65576171875 0.423828125
vt 0.6455078125 0.423828125
vt 0.6455078125 0.42041015625
vt 0.65576171875 0.42041015625
vt 0.6455078125 0.423828125
vt 0.6455078125 0.42041015625
vt 0.6455078125 0.423828125
vt 0.6357421875 0.423828125
vt 0.6357421875 0.42041015625
vt 0.6455078125 0.42041015625
vt 0.6357421875 0.423828125
vt 0.6357421875 0.42041015625
vt 0.6357421875 0.423828125
vt 0.62646484375 0.423828125
vt 0.62646484375 0.42041015625
vt 0.6357421875 0.42041015625
vt 0.62646484375 0.423828125
vt 0.62646484375 0.42041015625
vt 0.62646484375 0.423828125
vt 0.619140625 0.423828125
vt 0.619140625 0.42041015625
vt 0.62646484375 0.42041015625
vt 0.619140625 0.423828125
vt 0.619140625 0.42041015625
vt 0.619140625 0.423828125
vt 0.5068359375 0.423828125
vt 0.5068359375 0.42041015625
vt 0.619140625 0.42041015625
vt 0.5068359375 0.423828125
vt 0.53125 0.04296875
vt 0.53125 0.04638671875
vt 0.42041015625 0.04296875
vt 0.53125 0.04638671875
vt 0.42041015625 0.04638671875
vt 0.42041015625 0.04296875
vt 0.42041015625 0.04296875
vt 0.42041015625 0.04638671875
vt 0.4130859375 0.04296875
vt 0.42041015625 0.04638671875
vt 0.4130859375 0.04638671875
vt 0.4130859375 0.04296875
vt 0.4130859375 0.04296875
vt 0.4130859375 0.04638671875
vt 0.40380859375 0.04296875
vt 0.4130859375 0.04638671875
vt 0.40380859375 0.04638671875
vt 0.40380859375 0.04296875
vt 0.40380859375 0.04296875
vt 0.40380859375 0.04638671875
vt 0.39404296875 0.04296875
vt 0.40380859375 0.04638671875
vt 0.39404296875 0.04638671875
vt 0.39404296875 0.04296875
vt 0.39404296875 0.04296875
vt 0.39404296875 0.04638671875
vt 0.384033203125 0.04296875
vt 0.39404296875 0.04638671875
vt 0.384033203125 0.04638671875
vt 0.384033203125 0.04296875
vt 0.384033203125 0.04296875
vt 0.384033203125 0.04638671875
vt 0.374267578125 0.04296875
vt 0.384033203125 0.04638671875
vt 0.374267578125 0.04638671875
vt 0.374267578125 0.04296875
vt 0.374267578125 0.04296875
vt 0.374267578125 0.04638671875
vt 0.365234375 0.04296875
vt 0.374267578125 0.04638671875
vt 0.365234375 0.04638671875
vt 0.365234375 0.04296875
vt 0.365234375 0.04296875
vt 0.365234375 0.04638671875
vt 0.359375 0.04296875
vt 0.365234375 0.04638671875
vt 0.359375 0.04638671875
vt 0.359375 0.04296875
vt 0.359375 0.04296875
vt 0.359375 0.04638671875
vt 0.3564453125 0.04296875
vt 0.359375 0.04638671875
vt 0.3564453125 0.04638671875
vt 0.3564453125 0.04296875
vt 0.7431640625 0.8634033203125
vt 0.7431640625 0.855712890625
vt 0.87255859375 0.8634033203125
vt 0.7431640625 0.855712890625
vt 0.87255859375 0.855712890625
vt 0.87255859375 0.8634033203125
vt 0.87255859375 0.8634033203125
vt 0.87255859375 0.855712890625
vt 0.88037109375 0.8634033203125
vt 0.87255859375 0.855712890625
vt 0.88037109375 0.855712890625
vt 0.88037109375 0.8634033203125
vt 0.88037109375 0.8634033203125
vt 0.88037109375 0.855712890625
vt 0.89013671875 0.8634033203125
vt 0.88037109375 0.855712890625
vt 0.89013671875 0.855712890625
vt 0.89013671875 0.8634033203125
vt 0.89013671875 0.8634033203125
vt 0.89013671875 0.855712890625
vt 0.900390625 0.8634033203125
vt 0.89013671875 0.855712890625
vt 0.900390625 0.855712890625
vt 0.900390625 0.8634033203125
vt 0.900390625 0.8634033203125
vt 0.900390625 0.855712890625
vt 0.91064453125 0.8634033203125
vt 0.900390625 0.855712890625
vt 0.91064453125 0.855712890625
vt 0.91064453125 0.8634033203125
vt 0.91064453125 0.8634033203125
vt 0.91064453125 0.855712890625
vt 0.9208984375 0.8634033203125
vt 0.91064453125 0.855712890625
vt 0.9208984375 0.855712890625
vt 0.9208984375 0.8634033203125
vt 0.9208984375 0.8634033203125
vt 0.9208984375 0.855712890625
vt 0.93115234375 0.8634033203125
vt 0.9208984375 0.855712890625
vt 0.93115234375 0.855712890625
vt 0.93115234375 0.8634033203125
vt 0.93115234375 0.8634033203125
vt 0.93115234375 0.855712890625
vt 0.9384765625 0.8634033203125
vt 0.93115234375 0.855712890625
vt 0.9384765625 0.855712890625
vt 0.9384765625 0.8634033203125
vt 0.9384765625 0.8634033203125
vt 0.9384765625 0.855712890625
vt 0.94384765625 0.8634033203125
vt 0.9384765625 0.855712890625
vt 0.94384765625 0.855712890625
vt 0.94384765625 0.8634033203125
vt -0.057830810546875 0.7896728515625
vt -0.057830810546875 0.7821044921875
vt -0.051513671875 0.7821044921875
vt -0.051513671875 0.7896728515625
vt -0.057830810546875 0.7896728515625
vt -0.051513671875 0.7821044921875
vt -0.051513671875 0.7896728515625
vt -0.051513671875 0.7821044921875
vt -0.04217529296875 0.7821044921875
vt -0.04217529296875 0.7896728515625
vt -0.051513671875 0.7896728515625
vt -0.04217529296875 0.7821044921875
vt -0.04217529296875 0.7896728515625
vt -0.04217529296875 0.7821044921875
vt -0.029876708984375 0.7821044921875
vt -0.029876708984375 0.7896728515625
vt -0.04217529296875 0.7896728515625
vt -0.029876708984375 0.7821044921875
vt -0.029876708984375 0.7896728515625
vt -0.029876708984375 0.7821044921875
vt -0.017181396484375 0.7821044921875
vt -0.017181396484375 0.7896728515625
vt -0.029876708984375 0.7896728515625
vt -0.017181396484375 0.7821044921875
vt -0.017181396484375 0.7896728515625
vt -0.017181396484375 0.7821044921875
vt -0.004207611083984375 0.7821044921875
vt -0.004207611083984375 0.7896728515625
vt -0.017181396484375 0.7896728515625
vt -0.004207611083984375 0.7821044921875
vt -0.004207611083984375 0.7896728515625
vt -0.004207611083984375 0.7821044921875
vt 0.0082244873046875 0.7821044921875
vt 0.0082244873046875 0.7896728515625
vt -0.004207611083984375 0.7896728515625
vt 0.0082244873046875 0.7821044921875
vt 0.0082244873046875 0.7896728515625
vt 0.0082244873046875 0.7821044921875
vt 0.0205230712890625 0.7821044921875
vt 0.0205230712890625 0.7896728515625
vt 0.0082244873046875 0.7896728515625
vt 0.0205230712890625 0.7821044921875
vt 0.0205230712890625 0.7896728515625
vt 0.0205230712890625 0.7821044921875
vt 0.0299072265625 0.7821044921875
vt 0.0299072265625 0.7896728515625
vt 0.0205230712890625 0.7896728515625
vt 0.0299072265625 0.7821044921875
vt 0.0299072265625 0.7896728515625
vt 0.0299072265625 0.7821044921875
vt 0.159912109375 0.7821044921875
vt 0.159912109375 0.7896728515625
vt 0.0299072265625 0.7896728515625
vt 0.159912109375 0.7821044921875
vn -0.3585399389266968 0.9299299120903015 0.08172821998596191
vn -0.9313086867332458 -0.3552597463130951 -0.08034133911132812
vn -0.9381345510482788 -0.29982802271842957 -0.17322427034378052
vn -0.33875247836112976 0.9202579259872437 0.19588811695575714
vn -0.9063047766685486 -0.2040710300207138 -0.3700900673866272
vn -0.3719916045665741 0.8260953426361084 0.42330700159072876
vn -0.8388678431510925 -0.0190874170511961 -0.5440003871917725
vn -0.44837531447410583 0.6253865957260132 0.6386322975158691
vn -0.734988272190094 0.23028844594955444 -0.6377770304679871
vn -0.5706748366355896 0.3326672911643982 0.750774621963501
vn -0.6240613460540771 0.49379202723503113 -0.6055715084075928
vn -0.7012511491775513 0.02262585423886776 0.7125552892684937
vn -0.5290467739105225 0.7162309288978577 -0.4551073908805847
vn -0.811647355556488 -0.23755057156085968 0.5336650609970093
vn -0.46368154883384705 0.852843165397644 -0.24012097716331482
vn -0.880730926990509 -0.3851882815361023 0.27557745575904846
vn -0.4113628566265106 0.9092903137207031 -0.06302119046449661
vn -0.911936342716217 -0.4043477177619934 0.06982052326202393
vn -0.3982349634170532 0.9172834157943726 6.407062613789094e-08
vn -0.9171246290206909 -0.39860057830810547 7.182083550105745e-07
vn 0.3566037714481354 -0.9342557191848755 1.7307188215909264e-07
vn 0.9341174960136414 0.3569657802581787 -5.20334253906185e-07
vn 0.34886741638183594 -0.9345674514770508 0.06982278823852539
vn 0.9375860095024109 0.3419944941997528 -0.06302450597286224
vn 0.3407680094242096 -0.8988577127456665 0.2755574584007263
vn 0.9338311553001404 0.2651471495628357 -0.24011768400669098
vn 0.3979165256023407 -0.7462356090545654 0.5336616635322571
vn 0.8819207549095154 0.1228669211268425 -0.45510369539260864
vn 0.5066275596618652 -0.4853461980819702 0.7125779986381531
vn 0.7894119620323181 -0.10063125938177109 -0.6055593490600586
vn 0.6368997097015381 -0.17517556250095367 0.7507811188697815
vn 0.6786698698997498 -0.36421334743499756 -0.6377741098403931
vn 0.7605733871459961 0.11695678532123566 0.6386306881904602
vn 0.5730927586555481 -0.6128774285316467 -0.5440090298652649
vn 0.8505855202674866 0.3119525611400604 0.4233083724975586
vn 0.4880492389202118 -0.790467381477356 -0.3700936436653137
vn 0.8946297764778137 0.40158259868621826 0.19587986171245575
vn 0.4418858587741852 -0.8801873326301575 -0.17322635650634766
vn 0.9153883457183838 0.3941923677921295 0.08171133697032928
vn 0.3975340723991394 -0.9140610098838806 -0.08036893606185913
f 1/1/1 2/2/2 3/3/3
f 4/4/4 1/5/1 3/6/3
f 4/7/4 3/8/3 5/9/5
f 6/10/6 4/11/4 5/12/5
f 6/13/6 5/14/5 7/15/7
f 8/16/8 6/17/6 7/18/7
f 8/19/8 7/20/7 9/21/9
f 10/22/10 8/23/8 9/24/9
f 10/25/10 9/26/9 11/27/11
f 12/28/12 10/29/10 11/30/11
f 12/31/12 11/32/11 13/33/13
f 14/34/14 12/35/12 13/36/13
f 14/37/14 13/38/13 15/39/15
f 16/40/16 14/41/14 15/42/15
f 16/43/16 15/44/15 17/45/17
f 18/46/18 16/47/16 17/48/17
f 18/49/18 17/50/17 19/51/19
f 20/52/20 18/53/18 19/54/19
f 21/55/21 22/56/22 23/57/23
f 22/58/22 24/59/24 23/60/23
f 23/61/23 24/62/24 25/63/25
f 24/64/24 26/65/26 25/66/25
f 25/67/25 26/68/26 27/69/27
f 26/70/26 28/71/28 27/72/27
f 27/73/27 28/74/28 29/75/29
f 28/76/28 30/77/30 29/78/29
f 29/79/29 30/80/30 31/81/31
f 30/82/30 32/83/32 31/84/31
f 31/85/31 32/86/32 33/87/33
f 32/88/32 34/89/34 33/90/33
f 33/91/33 34/92/34 35/93/35
f 34/94/34 36/95/36 35/96/35
f 35/97/35 36/98/36 37/99/37
f 36/100/36 38/101/38 37/102/37
f 37/103/37 38/104/38 39/105/39
f 38/106/38 40/107/40 39/108/39
f 22/109/22 19/110/19 24/111/24
f 19/112/19 17/113/17 24/114/24
f 24/115/24 17/116/17 26/117/26
f 17/118/17 15/119/15 26/120/26
f 26/121/26 15/122/15 28/123/28
f 15/124/15 13/125/13 28/126/28
f 28/127/28 13/128/13 30/129/30
f 13/130/13 11/131/11 30/132/30
f 30/133/30 11/134/11 32/135/32
f 11/136/11 9/137/9 32/138/32
f 32/139/32 9/140/9 34/141/34
f 9/142/9 7/143/7 34/144/34
f 34/145/34 7/146/7 36/147/36
f 7/148/7 5/149/5 36/150/36
f 36/151/36 5/152/5 38/153/38
f 5/154/5 3/155/3 38/156/38
f 38/157/38 3/158/3 40/159/40
f 3/160/3 2/161/2 40/162/40
f 39/163/39 1/164/1 4/165/4
f 37/166/37 39/167/39 4/168/4
f 37/169/37 4/170/4 6/171/6
f 35/172/35 37/173/37 6/174/6
f 35/175/35 6/176/6 8/177/8
f 33/178/33 35/179/35 8/180/8
f 33/181/33 8/182/8 10/183/10
f 31/184/31 33/185/33 10/186/10
f 31/187/31 10/188/10 12/189/12
f 29/190/29 31/191/31 12/192/12
f 29/193/29 12/194/12 14/195/14
f 27/196/27 29/197/29 14/198/14
f 27/199/27 14/200/14 16/201/16
f 25/202/25 27/203/27 16/204/16
f 25/205/25 16/206/16 18/207/18
f 23/208/23 25/209/25 18/210/18
f 23/211/23 18/212/18 20/213/20
f 21/214/21 23/215/23 20/216/20
