# Exported by Lightwave Blender addon
v 655.189453125 -1525.139404296875 352.168212890625
v 657.78515625 -1518.7916259765625 352.168212890625
v 678.8849487304688 -1534.82861328125 352.1682434082031
v 681.4805908203125 -1528.48095703125 352.168212890625
v 675.5396728515625 -1475.3720703125 410.53521728515625
v 675.7494506835938 -1474.859130859375 419.535888671875
v 699.2352294921875 -1485.061279296875 410.5352478027344
v 699.4449462890625 -1484.5484619140625 419.535888671875
v 677.2044677734375 -1471.30078125 422.2688293457031
v 677.2808227539062 -1471.1141357421875 427.8260498046875
v 700.8999633789062 -1480.9901123046875 422.2688293457031
v 700.976318359375 -1480.803466796875 427.8260498046875
v 676.916015625 -1472.0062255859375 428.8253479003906
v 653.8687133789062 -1528.369140625 428.8253479003906
v 700.611572265625 -1481.6954345703125 428.8254089355469
v 677.5642700195312 -1538.058349609375 428.8254089355469
v 676.1441040039062 -1473.8939208984375 420.7265930175781
v 676.8193359375 -1472.24267578125 421.0768737792969
v 699.839599609375 -1483.583251953125 420.7266540527344
v 700.514892578125 -1481.9320068359375 421.0768737792969
v 653.5074462890625 -1529.252685546875 427.8263854980469
v 654.793701171875 -1526.1070556640625 353.1672058105469
v 677.2030029296875 -1538.9420166015625 427.8263854980469
v 678.4892578125 -1535.79638671875 353.1672058105469
v 701.5231323242188 -1482.108154296875 427.8253479003906
v 678.5075073242188 -1538.393798828125 427.8254089355469
v 652.9607543945312 -1527.9476318359375 427.8253479003906
v 675.9763793945312 -1471.661865234375 427.8253479003906
v 675.1421508789062 -1476.34423828125 409.3883056640625
v 698.8377075195312 -1486.0335693359375 409.3883361816406
v 695.3790283203125 -1494.4918212890625 408.01318359375
v 671.6834716796875 -1484.8026123046875 408.01318359375
v 691.712158203125 -1503.459228515625 405.8852233886719
v 668.0166625976562 -1493.7698974609375 405.8852233886719
v 688.3776245117188 -1511.614013671875 402.5494384765625
v 664.68212890625 -1501.9246826171875 402.5494384765625
v 685.5415649414062 -1518.5498046875 397.4018249511719
v 661.8460693359375 -1508.8604736328125 397.40179443359375
v 683.5637817382812 -1523.3863525390625 389.4098205566406
v 659.8682250976562 -1513.6971435546875 389.4097900390625
v 682.4921264648438 -1526.0072021484375 378.5751953125
v 658.796630859375 -1516.3179931640625 378.5751953125
v 682.0245971679688 -1527.1505126953125 365.8454895019531
v 658.3291015625 -1517.461181640625 365.8454895019531
v 681.8712158203125 -1527.5257568359375 353.167724609375
v 658.1756591796875 -1517.83642578125 353.1676940917969
v 701.4445190429688 -1482.300537109375 422.0980529785156
v 674.2318725585938 -1475.92822265625 410.4056396484375
v 699.7786254882812 -1486.37451171875 410.4056701660156
v 675.8977661132812 -1471.854248046875 422.0980529785156
v 682.4181518554688 -1528.830322265625 353.168212890625
v 682.5723266601562 -1528.453125 365.9098205566406
v 683.0439453125 -1527.2998046875 378.7510070800781
v 684.1387939453125 -1524.622314453125 389.82049560546875
v 686.1912841796875 -1519.6029052734375 398.1142883300781
v 689.1265258789062 -1512.424560546875 403.4419250488281
v 692.5296020507812 -1504.102294921875 406.8462829589844
v 696.2357788085938 -1495.0386962890625 408.9970397949219
v 670.6890258789062 -1484.5924072265625 408.9970397949219
v 666.9828491210938 -1493.656005859375 406.8462829589844
v 663.579833984375 -1501.978271484375 403.44195556640625
v 660.64453125 -1509.1566162109375 398.1142883300781
v 658.592041015625 -1514.176025390625 389.8204650878906
v 657.4972534179688 -1516.853515625 378.7510070800781
v 657.0255737304688 -1518.0069580078125 365.9098205566406
v 656.8713989257812 -1518.384033203125 353.168212890625
v 654.2470092773438 -1524.802001953125 353.168212890625
v 674.4872436523438 -1475.3037109375 421.366455078125
v 679.7937622070312 -1535.248291015625 353.1682434082031
v 700.0339965820312 -1485.75 421.366455078125
vt 0.591796875 1.385009765625
vt 0.6259765625 1.385009765625
vt 0.591796875 1.5126953125
vt 0.6259765625 1.385009765625
vt 0.6259765625 1.5126953125
vt 0.591796875 1.5126953125
vt 0.576171875 1.385009765625
vt 0.62109375 1.385009765625
vt 0.576171875 1.5126953125
vt 0.62109375 1.385009765625
vt 0.62109375 1.5126953125
vt 0.576171875 1.5126953125
vt 0.634765625 1.385009765625
vt 0.66259765625 1.385009765625
vt 0.634765625 1.5126953125
vt 0.66259765625 1.385009765625
vt 0.66259765625 1.5126953125
vt 0.634765625 1.5126953125
vt 0.1209716796875 1.385009765625
vt 0.42529296875 1.385009765625
vt 0.1209716796875 1.5126953125
vt 0.42529296875 1.385009765625
vt 0.42529296875 1.5126953125
vt 0.1209716796875 1.5126953125
vt 0.86865234375 1.385009765625
vt 0.87744140625 1.385009765625
vt 0.86865234375 1.5126953125
vt 0.87744140625 1.385009765625
vt 0.87744140625 1.5126953125
vt 0.86865234375 1.5126953125
vt 0.3369140625 1.385009765625
vt 0.7099609375 1.385009765625
vt 0.3369140625 1.5126953125
vt 0.7099609375 1.385009765625
vt 0.7099609375 1.5126953125
vt 0.3369140625 1.5126953125
vt 0.12115478515625 1.517578125
vt 0.1209716796875 1.5126953125
vt 0.425048828125 1.517578125
vt 0.1209716796875 1.5126953125
vt 0.42529296875 1.5126953125
vt 0.425048828125 1.517578125
vt 0.425048828125 1.3798828125
vt 0.42529296875 1.385009765625
vt 0.12115478515625 1.3798828125
vt 0.42529296875 1.385009765625
vt 0.1209716796875 1.385009765625
vt 0.12115478515625 1.3798828125
vt 0.62109375 1.385009765625
vt 0.62744140625 1.385009765625
vt 0.62109375 1.5126953125
vt 0.62744140625 1.385009765625
vt 0.62744140625 1.5126953125
vt 0.62109375 1.5126953125
vt 0.66259765625 1.385009765625
vt 0.66796875 1.385009765625
vt 0.66259765625 1.5126953125
vt 0.66796875 1.385009765625
vt 0.66796875 1.5126953125
vt 0.66259765625 1.5126953125
vt 0.331787109375 1.385009765625
vt 0.3369140625 1.385009765625
vt 0.331787109375 1.5126953125
vt 0.3369140625 1.385009765625
vt 0.3369140625 1.5126953125
vt 0.331787109375 1.5126953125
vt 0.85546875 1.385009765625
vt 0.85546875 1.5126953125
vt 0.8095703125 1.5126953125
vt 0.8095703125 1.385009765625
vt 0.85546875 1.385009765625
vt 0.8095703125 1.5126953125
vt 0.8095703125 1.385009765625
vt 0.8095703125 1.5126953125
vt 0.76123046875 1.5126953125
vt 0.76123046875 1.385009765625
vt 0.8095703125 1.385009765625
vt 0.76123046875 1.5126953125
vt 0.76123046875 1.385009765625
vt 0.76123046875 1.5126953125
vt 0.71728515625 1.5126953125
vt 0.71728515625 1.385009765625
vt 0.76123046875 1.385009765625
vt 0.71728515625 1.5126953125
vt 0.71728515625 1.385009765625
vt 0.71728515625 1.5126953125
vt 0.6796875 1.5126953125
vt 0.6796875 1.385009765625
vt 0.71728515625 1.385009765625
vt 0.6796875 1.5126953125
vt 0.5107421875 1.385009765625
vt 0.5107421875 1.5126953125
vt 0.470703125 1.5126953125
vt 0.470703125 1.385009765625
vt 0.5107421875 1.385009765625
vt 0.470703125 1.5126953125
vt 0.470703125 1.385009765625
vt 0.470703125 1.5126953125
vt 0.416748046875 1.5126953125
vt 0.416748046875 1.385009765625
vt 0.470703125 1.385009765625
vt 0.416748046875 1.5126953125
vt 0.416748046875 1.385009765625
vt 0.416748046875 1.5126953125
vt 0.35302734375 1.5126953125
vt 0.35302734375 1.385009765625
vt 0.416748046875 1.385009765625
vt 0.35302734375 1.5126953125
vt 0.35302734375 1.385009765625
vt 0.35302734375 1.5126953125
vt 0.28955078125 1.5126953125
vt 0.28955078125 1.385009765625
vt 0.35302734375 1.385009765625
vt 0.28955078125 1.5126953125
vt 0.88330078125 0.6630859375
vt 0.87890625 0.668212890625
vt 0.87841796875 0.6630859375
vt 0.88232421875 0.63525390625
vt 0.88330078125 0.6630859375
vt 0.87841796875 0.6630859375
vt 0.87744140625 0.634521484375
vt 0.88232421875 0.63525390625
vt 0.87841796875 0.6630859375
vt 0.57080078125 1.385009765625
vt 0.57568359375 1.3798828125
vt 0.576171875 1.385009765625
vt 0.57080078125 1.385009765625
vt 0.576171875 1.385009765625
vt 0.57080078125 1.5126953125
vt 0.576171875 1.385009765625
vt 0.576171875 1.5126953125
vt 0.57080078125 1.5126953125
vt 0.57080078125 1.5126953125
vt 0.576171875 1.5126953125
vt 0.57568359375 1.517578125
vt 0.62890625 1.385009765625
vt 0.63427734375 1.3798828125
vt 0.634765625 1.385009765625
vt 0.62890625 1.5126953125
vt 0.62890625 1.385009765625
vt 0.634765625 1.385009765625
vt 0.634765625 1.5126953125
vt 0.62890625 1.5126953125
vt 0.634765625 1.385009765625
vt 0.62890625 1.5126953125
vt 0.634765625 1.5126953125
vt 0.63427734375 1.517578125
vt 0.6259765625 0.2900390625
vt 0.63134765625 0.2900390625
vt 0.62841796875 0.353515625
vt 0.63134765625 0.2900390625
vt 0.63330078125 0.353515625
vt 0.62841796875 0.353515625
vt 0.62841796875 0.353515625
vt 0.63330078125 0.353515625
vt 0.63427734375 0.41796875
vt 0.63330078125 0.353515625
vt 0.63916015625 0.4169921875
vt 0.63427734375 0.41796875
vt 0.63427734375 0.41796875
vt 0.63916015625 0.4169921875
vt 0.64892578125 0.47314453125
vt 0.63916015625 0.4169921875
vt 0.6533203125 0.47119140625
vt 0.64892578125 0.47314453125
vt 0.64892578125 0.47314453125
vt 0.6533203125 0.47119140625
vt 0.67578125 0.5146484375
vt 0.6533203125 0.47119140625
vt 0.6796875 0.510986328125
vt 0.67578125 0.5146484375
vt 0.67578125 0.5146484375
vt 0.6796875 0.510986328125
vt 0.71484375 0.541259765625
vt 0.6796875 0.510986328125
vt 0.71728515625 0.536865234375
vt 0.71484375 0.541259765625
vt 0.71484375 0.541259765625
vt 0.71728515625 0.536865234375
vt 0.759765625 0.558349609375
vt 0.71728515625 0.536865234375
vt 0.76123046875 0.553466796875
vt 0.759765625 0.558349609375
vt 0.759765625 0.558349609375
vt 0.76123046875 0.553466796875
vt 0.80859375 0.569091796875
vt 0.76123046875 0.553466796875
vt 0.8095703125 0.56396484375
vt 0.80859375 0.569091796875
vt 0.80859375 0.569091796875
vt 0.8095703125 0.56396484375
vt 0.85546875 0.575927734375
vt 0.8095703125 0.56396484375
vt 0.85546875 0.571044921875
vt 0.85546875 0.575927734375
vt 0.1441650390625 0.575927734375
vt 0.1444091796875 0.571044921875
vt 0.1910400390625 0.569091796875
vt 0.1444091796875 0.571044921875
vt 0.1900634765625 0.56396484375
vt 0.1910400390625 0.569091796875
vt 0.1910400390625 0.569091796875
vt 0.1900634765625 0.56396484375
vt 0.239990234375 0.558349609375
vt 0.1900634765625 0.56396484375
vt 0.238525390625 0.553466796875
vt 0.239990234375 0.558349609375
vt 0.239990234375 0.558349609375
vt 0.238525390625 0.553466796875
vt 0.284912109375 0.541259765625
vt 0.238525390625 0.553466796875
vt 0.282470703125 0.536865234375
vt 0.284912109375 0.541259765625
vt 0.284912109375 0.541259765625
vt 0.282470703125 0.536865234375
vt 0.32373046875 0.5146484375
vt 0.282470703125 0.536865234375
vt 0.320068359375 0.510986328125
vt 0.32373046875 0.5146484375
vt 0.32373046875 0.5146484375
vt 0.320068359375 0.510986328125
vt 0.350830078125 0.47314453125
vt 0.320068359375 0.510986328125
vt 0.34619140625 0.47119140625
vt 0.350830078125 0.47314453125
vt 0.350830078125 0.47314453125
vt 0.34619140625 0.47119140625
vt 0.365234375 0.41796875
vt 0.34619140625 0.47119140625
vt 0.3603515625 0.4169921875
vt 0.365234375 0.41796875
vt 0.365234375 0.41796875
vt 0.3603515625 0.4169921875
vt 0.371337890625 0.353515625
vt 0.3603515625 0.4169921875
vt 0.366455078125 0.353515625
vt 0.371337890625 0.353515625
vt 0.371337890625 0.353515625
vt 0.366455078125 0.353515625
vt 0.37353515625 0.2900390625
vt 0.366455078125 0.353515625
vt 0.368408203125 0.2900390625
vt 0.37353515625 0.2900390625
vt 0.408203125 0.2900390625
vt 0.4130859375 0.2900390625
vt 0.425048828125 0.6630859375
vt 0.4130859375 0.2900390625
vt 0.43017578125 0.6630859375
vt 0.425048828125 0.6630859375
vt 0.42529296875 0.668212890625
vt 0.425048828125 0.6630859375
vt 0.43017578125 0.6630859375
vt 0.37353515625 0.2900390625
vt 0.408203125 0.2900390625
vt 0.371337890625 0.353515625
vt 0.371337890625 0.353515625
vt 0.408203125 0.2900390625
vt 0.365234375 0.41796875
vt 0.408203125 0.2900390625
vt 0.425048828125 0.6630859375
vt 0.365234375 0.41796875
vt 0.425048828125 0.6630859375
vt 0.350830078125 0.47314453125
vt 0.365234375 0.41796875
vt 0.32373046875 0.5146484375
vt 0.350830078125 0.47314453125
vt 0.425048828125 0.6630859375
vt 0.284912109375 0.541259765625
vt 0.32373046875 0.5146484375
vt 0.425048828125 0.6630859375
vt 0.239990234375 0.558349609375
vt 0.284912109375 0.541259765625
vt 0.425048828125 0.6630859375
vt 0.1910400390625 0.569091796875
vt 0.239990234375 0.558349609375
vt 0.425048828125 0.6630859375
vt 0.1441650390625 0.575927734375
vt 0.1910400390625 0.569091796875
vt 0.425048828125 0.6630859375
vt 0.140869140625 0.630859375
vt 0.1441650390625 0.575927734375
vt 0.425048828125 0.6630859375
vt 0.12225341796875 0.634521484375
vt 0.140869140625 0.630859375
vt 0.425048828125 0.6630859375
vt 0.12115478515625 0.6630859375
vt 0.12225341796875 0.634521484375
vt 0.425048828125 0.6630859375
vt 0.57421875 0.668212890625
vt 0.5693359375 0.6630859375
vt 0.57470703125 0.6630859375
vt 0.57470703125 0.6630859375
vt 0.5693359375 0.6630859375
vt 0.59130859375 0.2900390625
vt 0.5693359375 0.6630859375
vt 0.58642578125 0.2900390625
vt 0.59130859375 0.2900390625
vt 0.1162109375 0.6630859375
vt 0.12115478515625 0.6630859375
vt 0.1209716796875 0.668212890625
vt 0.12115478515625 0.6630859375
vt 0.1162109375 0.6630859375
vt 0.12225341796875 0.634521484375
vt 0.1162109375 0.6630859375
vt 0.1171875 0.63525390625
vt 0.12225341796875 0.634521484375
vt 0.86865234375 0.627685546875
vt 0.87744140625 0.62939453125
vt 0.87744140625 0.634521484375
vt 0.85888671875 0.630859375
vt 0.86865234375 0.627685546875
vt 0.87744140625 0.634521484375
vt 0.86328125 0.62158203125
vt 0.86865234375 0.627685546875
vt 0.85888671875 0.630859375
vt 0.8603515625 0.57666015625
vt 0.86328125 0.62158203125
vt 0.85888671875 0.630859375
vt 0.85546875 0.575927734375
vt 0.8603515625 0.57666015625
vt 0.85888671875 0.630859375
vt 0.1363525390625 0.62158203125
vt 0.13916015625 0.57666015625
vt 0.1441650390625 0.575927734375
vt 0.140869140625 0.630859375
vt 0.1363525390625 0.62158203125
vt 0.1441650390625 0.575927734375
vt 0.1363525390625 0.62158203125
vt 0.140869140625 0.630859375
vt 0.1312255859375 0.627685546875
vt 0.12225341796875 0.62939453125
vt 0.1312255859375 0.627685546875
vt 0.140869140625 0.630859375
vt 0.12225341796875 0.634521484375
vt 0.12225341796875 0.62939453125
vt 0.140869140625 0.630859375
vt 0.85546875 0.575927734375
vt 0.85888671875 0.630859375
vt 0.80859375 0.569091796875
vt 0.80859375 0.569091796875
vt 0.85888671875 0.630859375
vt 0.759765625 0.558349609375
vt 0.87744140625 0.634521484375
vt 0.87841796875 0.6630859375
vt 0.85888671875 0.630859375
vt 0.85888671875 0.630859375
vt 0.87841796875 0.6630859375
vt 0.759765625 0.558349609375
vt 0.87841796875 0.6630859375
vt 0.57470703125 0.6630859375
vt 0.759765625 0.558349609375
vt 0.57470703125 0.6630859375
vt 0.71484375 0.541259765625
vt 0.759765625 0.558349609375
vt 0.67578125 0.5146484375
vt 0.71484375 0.541259765625
vt 0.57470703125 0.6630859375
vt 0.64892578125 0.47314453125
vt 0.67578125 0.5146484375
vt 0.57470703125 0.6630859375
vt 0.63427734375 0.41796875
vt 0.64892578125 0.47314453125
vt 0.57470703125 0.6630859375
vt 0.62841796875 0.353515625
vt 0.63427734375 0.41796875
vt 0.57470703125 0.6630859375
vt 0.6259765625 0.2900390625
vt 0.62841796875 0.353515625
vt 0.57470703125 0.6630859375
vt 0.59130859375 0.2900390625
vt 0.6259765625 0.2900390625
vt 0.57470703125 0.6630859375
vt 0.6259765625 1.385009765625
vt 0.6259765625 1.3798828125
vt 0.63134765625 1.385009765625
vt 0.6259765625 1.3798828125
vt 0.6259765625 1.385009765625
vt 0.59130859375 1.3798828125
vt 0.6259765625 1.385009765625
vt 0.63134765625 1.385009765625
vt 0.6259765625 1.5126953125
vt 0.6259765625 1.385009765625
vt 0.591796875 1.385009765625
vt 0.59130859375 1.3798828125
vt 0.63134765625 1.385009765625
vt 0.63134765625 1.5126953125
vt 0.6259765625 1.5126953125
vt 0.58642578125 1.385009765625
vt 0.59130859375 1.3798828125
vt 0.591796875 1.385009765625
vt 0.6259765625 1.517578125
vt 0.6259765625 1.5126953125
vt 0.63134765625 1.5126953125
vt 0.58642578125 1.5126953125
vt 0.58642578125 1.385009765625
vt 0.591796875 1.385009765625
vt 0.591796875 1.5126953125
vt 0.6259765625 1.5126953125
vt 0.6259765625 1.517578125
vt 0.591796875 1.5126953125
vt 0.58642578125 1.5126953125
vt 0.591796875 1.385009765625
vt 0.59130859375 1.517578125
vt 0.591796875 1.5126953125
vt 0.6259765625 1.517578125
vt 0.58642578125 1.5126953125
vt 0.591796875 1.5126953125
vt 0.59130859375 1.517578125
vn -0.4400678277015686 -0.17721685767173767 -0.880303680896759
vn -0.18891681730747223 0.43793657422065735 -0.8789323568344116
vn 0.1898268163204193 -0.4347645044326782 -0.8803099989891052
vn 0.44163045287132263 0.1800912469625473 -0.8789367079734802
vn 0.018846312537789345 0.938214898109436 -0.34553956985473633
vn -0.12626312673091888 0.9534199833869934 -0.27394887804985046
vn 0.6439391374588013 0.6825952529907227 -0.34555187821388245
vn 0.7581138610839844 0.5917996764183044 -0.2739279568195343
vn 0.02273733727633953 0.9475232362747192 -0.318877249956131
vn 0.017148392274975777 0.947738766670227 0.3185860514640808
vn 0.6476687788963318 0.6919886469841003 -0.3188680410385132
vn 0.6518418192863464 0.6882118582725525 0.3185385465621948
vn -0.18472473323345184 0.4540700316429138 0.8716061115264893
vn -0.45115798711776733 -0.19649042189121246 0.8705446124076843
vn 0.45000070333480835 0.19456826150417328 0.8715747594833374
vn 0.1842082440853119 -0.4562782943248749 0.8705615401268005
vn -0.2977256774902344 0.5341188311576843 -0.7912498712539673
vn -0.14067232608795166 0.547885537147522 -0.8246409893035889
vn 0.586635410785675 0.17247942090034485 -0.7912710309028625
vn 0.48426690697669983 0.29233044385910034 -0.8246384263038635
vn -0.6528962254524231 -0.6898926496505737 0.3126893937587738
vn -0.6421210765838623 -0.671255886554718 -0.37026476860046387
vn -0.017508862540125847 -0.9496894478797913 0.31270352005958557
vn -0.01218766625970602 -0.9288378357887268 -0.37028586864471436
vn 0.9429158568382263 -0.012733396142721176 0.3327874541282654
vn 0.6818591356277466 -0.6525309085845947 0.3305623233318329
vn -0.9437125325202942 0.01214172039180994 0.33054372668266296
vn -0.6816602945327759 0.6515910625457764 0.3328186869621277
vn -0.1531965434551239 0.5175246000289917 -0.8418426513671875
vn 0.4719150960445404 0.26189014315605164 -0.8418489098548889
vn 0.42050057649612427 0.009238379076123238 -0.9072452187538147
vn -0.29354286193847656 0.3012153208255768 -0.9072497487068176
vn 0.4601016938686371 0.09549111127853394 -0.882716178894043
vn -0.2613782286643982 0.3905092477798462 -0.8827139735221863
vn 0.5269021391868591 0.24454550445079803 -0.8139851093292236
vn -0.20459604263305664 0.5436592698097229 -0.813987135887146
vn 0.6225467324256897 0.45178189873695374 -0.6390060186386108
vn -0.12762273848056793 0.7585304379463196 -0.6390179991722107
vn 0.6877903342247009 0.6237075328826904 -0.37139394879341125
vn -0.053715046495199203 0.9269199967384338 -0.3713946044445038
vn 0.7044450640678406 0.6911749243736267 -0.16135139763355255
vn -0.018306098878383636 0.9867263436317444 -0.16135700047016144
vn 0.7054176330566406 0.7063046097755432 -0.059328842908144
vn -0.008472318761050701 0.9982028007507324 -0.059324271976947784
vn 0.6437459588050842 0.6743244528770447 -0.36177024245262146
vn 0.013158430345356464 0.9321736097335815 -0.36177223920822144
vn 0.9462553858757019 0.02148873172700405 -0.3227056860923767
vn -0.6649011969566345 0.6674456596374512 -0.3352949917316437
vn 0.942064642906189 0.010337014682590961 -0.3352721929550171
vn -0.660092294216156 0.6783267259597778 -0.32272469997406006
vn 0.9369282126426697 -0.01786619797348976 -0.3490649461746216
vn 0.9997015595436096 -0.003604351310059428 -0.02416307106614113
vn 0.9977583885192871 -0.019513403996825218 -0.06401120871305466
vn 0.9881482720375061 -0.06309305876493454 -0.13993601500988007
vn 0.9626967906951904 -0.13351190090179443 -0.23534977436065674
vn 0.9274864792823792 -0.20118528604507446 -0.31510859727859497
vn 0.9006833434104919 -0.25534918904304504 -0.35151997208595276
vn 0.8836852312088013 -0.28759095072746277 -0.3693126142024994
vn -0.832004964351654 0.41396796703338623 -0.3693214952945709
vn -0.8215452432632446 0.44888579845428467 -0.3515179753303528
vn -0.8027176856994629 0.5063110589981079 -0.31510859727859497
vn -0.7804170846939087 0.5792726278305054 -0.2353557050228119
vn -0.7492381930351257 0.6473485231399536 -0.13993586599826813
vn -0.7255416512489319 0.6851940751075745 -0.06402013450860977
vn -0.7158432006835938 0.6978428959846497 -0.024159355089068413
vn -0.681019127368927 0.6437099575996399 -0.34907084703445435
vn -0.9357478022575378 0.019122986122965813 -0.35215088725090027
vn -0.8603573441505432 0.49609607458114624 -0.11693569272756577
vn 0.6810440421104431 -0.6419997811317444 -0.3521580100059509
vn 0.9614517092704773 -0.24886620044708252 -0.11694590002298355
f 1/1/1 2/2/2 3/3/3
f 2/4/2 4/5/4 3/6/3
f 5/7/5 6/8/6 7/9/7
f 6/10/6 8/11/8 7/12/7
f 9/13/9 10/14/10 11/15/11
f 10/16/10 12/17/12 11/18/11
f 13/19/13 14/20/14 15/21/15
f 14/22/14 16/23/16 15/24/15
f 17/25/17 18/26/18 19/27/19
f 18/28/18 20/29/20 19/30/19
f 21/31/21 22/32/22 23/33/23
f 22/34/22 24/35/24 23/36/23
f 25/37/25 15/38/15 26/39/26
f 15/40/15 16/41/16 26/42/26
f 27/43/27 14/44/14 28/45/28
f 14/46/14 13/47/13 28/48/28
f 6/49/6 17/50/17 8/51/8
f 17/52/17 19/53/19 8/54/8
f 10/55/10 13/56/13 12/57/12
f 13/58/13 15/59/15 12/60/12
f 14/61/14 21/62/21 16/63/16
f 21/64/21 23/65/23 16/66/16
f 29/67/29 30/68/30 31/69/31
f 32/70/32 29/71/29 31/72/31
f 32/73/32 31/74/31 33/75/33
f 34/76/34 32/77/32 33/78/33
f 34/79/34 33/80/33 35/81/35
f 36/82/36 34/83/34 35/84/35
f 36/85/36 35/86/35 37/87/37
f 38/88/38 36/89/36 37/90/37
f 38/91/38 37/92/37 39/93/39
f 40/94/40 38/95/38 39/96/39
f 40/97/40 39/98/39 41/99/41
f 42/100/42 40/101/40 41/102/41
f 42/103/42 41/104/41 43/105/43
f 44/106/44 42/107/42 43/108/43
f 44/109/44 43/110/43 45/111/45
f 46/112/46 44/113/44 45/114/45
f 12/115/12 15/116/15 25/117/25
f 11/118/11 12/119/12 25/120/25
f 47/121/47 11/122/11 25/123/25
f 29/124/29 48/125/48 5/126/5
f 29/127/29 5/128/5 30/129/30
f 5/130/5 7/131/7 30/132/30
f 30/133/30 7/134/7 49/135/49
f 18/136/18 50/137/50 9/138/9
f 20/139/20 18/140/18 9/141/9
f 11/142/11 20/143/20 9/144/9
f 20/145/20 11/146/11 47/147/47
f 51/148/51 45/149/45 52/150/52
f 45/151/45 43/152/43 52/153/52
f 52/154/52 43/155/43 53/156/53
f 43/157/43 41/158/41 53/159/53
f 53/160/53 41/161/41 54/162/54
f 41/163/41 39/164/39 54/165/54
f 54/166/54 39/167/39 55/168/55
f 39/169/39 37/170/37 55/171/55
f 55/172/55 37/173/37 56/174/56
f 37/175/37 35/176/35 56/177/56
f 56/178/56 35/179/35 57/180/57
f 35/181/35 33/182/33 57/183/57
f 57/184/57 33/185/33 58/186/58
f 33/187/33 31/188/31 58/189/58
f 58/190/58 31/191/31 49/192/49
f 31/193/31 30/194/30 49/195/49
f 48/196/48 29/197/29 59/198/59
f 29/199/29 32/200/32 59/201/59
f 59/202/59 32/203/32 60/204/60
f 32/205/32 34/206/34 60/207/60
f 60/208/60 34/209/34 61/210/61
f 34/211/34 36/212/36 61/213/61
f 61/214/61 36/215/36 62/216/62
f 36/217/36 38/218/38 62/219/62
f 62/220/62 38/221/38 63/222/63
f 38/223/38 40/224/40 63/225/63
f 63/226/63 40/227/40 64/228/64
f 40/229/40 42/230/42 64/231/64
f 64/232/64 42/233/42 65/234/65
f 42/235/42 44/236/44 65/237/65
f 65/238/65 44/239/44 66/240/66
f 44/241/44 46/242/46 66/243/66
f 67/244/67 22/245/22 27/246/27
f 22/247/22 21/248/21 27/249/27
f 14/250/14 27/251/27 21/252/21
f 66/253/66 67/254/67 65/255/65
f 65/256/65 67/257/67 64/258/64
f 67/259/67 27/260/27 64/261/64
f 27/262/27 63/263/63 64/264/64
f 62/265/62 63/266/63 27/267/27
f 61/268/61 62/269/62 27/270/27
f 60/271/60 61/272/61 27/273/27
f 59/274/59 60/275/60 27/276/27
f 48/277/48 59/278/59 27/279/27
f 68/280/68 48/281/48 27/282/27
f 50/283/50 68/284/68 27/285/27
f 28/286/28 50/287/50 27/288/27
f 16/289/16 23/290/23 26/291/26
f 26/292/26 23/293/23 69/294/69
f 23/295/23 24/296/24 69/297/69
f 10/298/10 28/299/28 13/300/13
f 28/301/28 10/302/10 50/303/50
f 10/304/10 9/305/9 50/306/50
f 19/307/19 20/308/20 47/309/47
f 70/310/70 19/311/19 47/312/47
f 8/313/8 19/314/19 70/315/70
f 7/316/7 8/317/8 70/318/70
f 49/319/49 7/320/7 70/321/70
f 6/322/6 5/323/5 48/324/48
f 68/325/68 6/326/6 48/327/48
f 6/328/6 68/329/68 17/330/17
f 18/331/18 17/332/17 68/333/68
f 50/334/50 18/335/18 68/336/68
f 49/337/49 70/338/70 58/339/58
f 58/340/58 70/341/70 57/342/57
f 47/343/47 25/344/25 70/345/70
f 70/346/70 25/347/25 57/348/57
f 25/349/25 26/350/26 57/351/57
f 26/352/26 56/353/56 57/354/57
f 55/355/55 56/356/56 26/357/26
f 54/358/54 55/359/55 26/360/26
f 53/361/53 54/362/54 26/363/26
f 52/364/52 53/365/53 26/366/26
f 51/367/51 52/368/52 26/369/26
f 69/370/69 51/371/51 26/372/26
f 2/373/2 66/374/66 46/375/46
f 66/376/66 2/377/2 67/378/67
f 2/379/2 46/380/46 4/381/4
f 2/382/2 1/383/1 67/384/67
f 46/385/46 45/386/45 4/387/4
f 22/388/22 67/389/67 1/390/1
f 51/391/51 4/392/4 45/393/45
f 24/394/24 22/395/22 1/396/1
f 3/397/3 4/398/4 51/399/51
f 3/400/3 24/401/24 1/402/1
f 69/403/69 3/404/3 51/405/51
f 24/406/24 3/407/3 69/408/69
