# Exported by Lightwave Blender addon
v -21.905134201049805 172.50714111328125 926.0218505859375
v -128.80130004882812 122.66075897216797 926.0219116210938
v -23.8707332611084 176.95745849609375 924.4577026367188
v -134.9831085205078 125.14486694335938 924.4577026367188
v -104.19832611083984 69.62064361572266 951.205810546875
v -108.27434539794922 67.8323974609375 951.2630004882812
v -79.02513122558594 15.673957824707031 926.0198364257812
v -81.62568664550781 12.066533088684082 924.45556640625
v 24.783817291259766 64.08084869384766 926.0198364257812
v 25.61251449584961 62.07250213623047 924.4556274414062
v -135.23802185058594 125.69336700439453 924.8622436523438
v -24.104368209838867 177.51571655273438 924.8623046875
v -24.276063919067383 177.91453552246094 925.8640747070312
v -134.83885192871094 126.3582534790039 925.8641357421875
v -135.2102813720703 125.09744262695312 925.1064453125
v -135.3933868408203 125.49021911621094 926.1068115234375
v -108.49079895019531 67.74726867675781 951.8880615234375
v -108.49079895019531 67.74726867675781 952.9799194335938
v -82.35082244873047 11.694657325744629 925.1043701171875
v -82.1678237915039 11.302001953125 926.104736328125
v -81.36437225341797 11.513764381408691 924.8599853515625
v -81.18120574951172 11.120484352111816 925.8619384765625
v 25.84899139404297 61.508182525634766 924.8599853515625
v 26.020633697509766 61.10950469970703 925.8619384765625
vt -0.2320556640625 0.0302734375
vt -0.2333984375 0.66552734375
vt -0.259521484375 0.02978515625
vt -0.2333984375 0.66552734375
vt -0.26123046875 0.68994140625
vt -0.259521484375 0.02978515625
vt -0.2978515625 0.7197265625
vt -0.64111328125 0.71923828125
vt -0.26953125 0.69482421875
vt -0.64111328125 0.71923828125
vt -0.640625 0.6953125
vt -0.26953125 0.69482421875
vt -0.64111328125 0.71923828125
vt -0.98974609375 0.716552734375
vt -0.640625 0.6953125
vt -0.98974609375 0.716552734375
vt -1.00390625 0.695068359375
vt -0.640625 0.6953125
vt -1.0224609375 0.6630859375
vt -1.037109375 0.04638671875
vt -1.0068359375 0.68359375
vt -1.037109375 0.04638671875
vt -1.0224609375 0.04638671875
vt -1.0068359375 0.68359375
vt -0.259521484375 0.02978515625
vt -0.26123046875 0.68994140625
vt -0.265869140625 0.6904296875
vt -0.263427734375 0.029296875
vt -0.259521484375 0.02978515625
vt -0.265869140625 0.6904296875
vt -0.263427734375 0.029296875
vt -0.265869140625 0.6904296875
vt -0.269287109375 0.02880859375
vt -0.265869140625 0.6904296875
vt -0.26904296875 0.68505859375
vt -0.269287109375 0.02880859375
vt -0.265869140625 0.6904296875
vt -0.27001953125 0.691650390625
vt -0.26904296875 0.68505859375
vt -0.26953125 0.69482421875
vt -0.27001953125 0.691650390625
vt -0.265869140625 0.6904296875
vt -0.27001953125 0.691650390625
vt -0.271240234375 0.686767578125
vt -0.26904296875 0.68505859375
vt -0.27001953125 0.691650390625
vt -0.26953125 0.69482421875
vt -0.640625 0.69189453125
vt -0.27001953125 0.691650390625
vt -0.640625 0.69189453125
vt -0.271240234375 0.686767578125
vt -0.26953125 0.69482421875
vt -0.640625 0.6953125
vt -0.640625 0.69189453125
vt -0.640625 0.69189453125
vt -0.640625 0.6865234375
vt -0.271240234375 0.686767578125
vt -0.640625 0.69189453125
vt -0.640625 0.6953125
vt -1.00390625 0.689208984375
vt -0.640625 0.69189453125
vt -1.00390625 0.689208984375
vt -0.640625 0.6865234375
vt -0.640625 0.6953125
vt -1.00390625 0.695068359375
vt -1.00390625 0.689208984375
vt -1.00390625 0.689208984375
vt -1.001953125 0.686767578125
vt -0.640625 0.6865234375
vt -1.00390625 0.689208984375
vt -1.00390625 0.68310546875
vt -1.001953125 0.686767578125
vt -1.00390625 0.68310546875
vt -1.00390625 0.689208984375
vt -1.0068359375 0.68359375
vt -1.00390625 0.68310546875
vt -0.9990234375 0.682861328125
vt -1.001953125 0.686767578125
vt -1.00390625 0.68310546875
vt -1.0068359375 0.68359375
vt -1.017578125 0.0458984375
vt -1.00390625 0.68310546875
vt -1.017578125 0.0458984375
vt -0.9990234375 0.682861328125
vt -1.0068359375 0.68359375
vt -1.0224609375 0.04638671875
vt -1.017578125 0.0458984375
vt -1.017578125 0.0458984375
vt -1.0107421875 0.0458984375
vt -0.9990234375 0.682861328125
vn 0.12937699258327484 -0.27745166420936584 -0.9519884586334229
vn 0.09919328987598419 -0.3416453003883362 -0.9345796704292297
vn -0.06204412505030632 0.13305430114269257 -0.9891647696495056
vn -0.507201611995697 -0.13698109984397888 -0.850871741771698
vn -0.01543546374887228 -0.0016770371003076434 -0.9998793601989746
vn -0.5919365882873535 -0.2756635248661041 -0.7573775053024292
vn -0.15312474966049194 0.4819946587085724 -0.8626899719238281
vn -0.22816458344459534 -0.16650839149951935 -0.9592787623405457
vn -0.24709546566009521 0.5298992395401001 -0.8112648129463196
vn -0.014921036548912525 0.03199952468276024 -0.9993765354156494
vn -0.8364963531494141 0.39982616901397705 -0.3747174143791199
vn -0.3257465958595276 0.6985682249069214 -0.6370962262153625
vn -0.3877872824668884 0.8316149115562439 -0.39753952622413635
vn -0.6278912425041199 0.7101792097091675 -0.3184305727481842
vn -0.9562894105911255 -0.24506253004074097 -0.15954618155956268
vn -0.98271644115448 0.012309174984693527 -0.18470749258995056
vn -0.8983780741691589 -0.4188896119594574 -0.13209201395511627
vn -0.9063714742660522 -0.422481507062912 -6.000963139740634e-07
vn -0.6871605515480042 -0.5342304110527039 -0.49234968423843384
vn -0.6410319805145264 -0.7470676898956299 -0.17597685754299164
vn 0.04234278202056885 -0.7958447337150574 -0.6040182709693909
vn 0.0756656676530838 -0.9234097003936768 -0.3762834668159485
vn 0.3227572441101074 -0.6921549439430237 -0.6455612182617188
vn 0.38782021403312683 -0.8316834568977356 -0.3973640203475952
f 1/1/1 2/2/2 3/3/3
f 2/4/2 4/5/4 3/6/3
f 2/7/2 5/8/5 4/9/4
f 5/10/5 6/11/6 4/12/4
f 5/13/5 7/14/7 6/15/6
f 7/16/7 8/17/8 6/18/6
f 7/19/7 9/20/9 8/21/8
f 9/22/9 10/23/10 8/24/8
f 3/25/3 4/26/4 11/27/11
f 12/28/12 3/29/3 11/30/11
f 12/31/12 11/32/11 13/33/13
f 11/34/11 14/35/14 13/36/13
f 11/37/11 15/38/15 14/39/14
f 4/40/4 15/41/15 11/42/11
f 15/43/15 16/44/16 14/45/14
f 15/46/15 4/47/4 17/48/17
f 15/49/15 17/50/17 16/51/16
f 4/52/4 6/53/6 17/54/17
f 17/55/17 18/56/18 16/57/16
f 17/58/17 6/59/6 19/60/19
f 17/61/17 19/62/19 18/63/18
f 6/64/6 8/65/8 19/66/19
f 19/67/19 20/68/20 18/69/18
f 19/70/19 21/71/21 20/72/20
f 21/73/21 19/74/19 8/75/8
f 21/76/21 22/77/22 20/78/20
f 21/79/21 8/80/8 23/81/23
f 21/82/21 23/83/23 22/84/22
f 8/85/8 10/86/10 23/87/23
f 23/88/23 24/89/24 22/90/22
