# Exported by Lightwave Blender addon
v -2455.554443359375 1166.9718017578125 412.4184875488281
v -2448.972412109375 1170.2989501953125 412.4184875488281
v -2451.18603515625 1172.7733154296875 375.9532775878906
v -2456.234130859375 1170.221435546875 375.9532775878906
v -2462.91796875 1167.3812255859375 412.4184875488281
v -2461.8818359375 1170.5355224609375 375.9532775878906
v -2469.09033203125 1171.4178466796875 412.4184875488281
v -2466.615966796875 1173.6314697265625 375.9532775878906
v -2472.41748046875 1177.999755859375 412.4184875488281
v -2469.167724609375 1178.6796875 375.9532775878906
v -2472.0078125 1185.363525390625 412.4184875488281
v -2468.853759765625 1184.3272705078125 375.9532775878906
v -2467.971435546875 1191.53564453125 412.4184875488281
v -2465.757568359375 1189.061279296875 375.9532775878906
v -2461.389404296875 1194.8629150390625 412.4184875488281
v -2460.709716796875 1191.613037109375 375.9532775878906
v -2454.02587890625 1194.453369140625 412.4184875488281
v -2455.061767578125 1191.299072265625 375.9532775878906
v -2447.853271484375 1190.416748046875 412.4184875488281
v -2450.327880859375 1188.203125 375.9532775878906
v -2444.5263671875 1183.8348388671875 412.4184875488281
v -2447.776123046875 1183.1549072265625 375.9532775878906
v -2444.935791015625 1176.4710693359375 412.4184875488281
v -2448.09033203125 1177.50732421875 375.9532775878906
v -2452.906005859375 1169.9063720703125 375.9532775878906
v -2450.3369140625 1171.82421875 375.9532775878906
v -2447.865478515625 1169.0614013671875 412.4184875488281
v -2451.21484375 1166.5609130859375 412.4184875488281
v -2455.21435546875 1165.3465576171875 412.4184875488281
v -2455.9736328125 1168.9749755859375 375.9532775878906
v -2459.1572265625 1168.5985107421875 375.9532775878906
v -2459.365234375 1164.8558349609375 412.4184875488281
v -2463.43603515625 1165.803955078125 412.4184875488281
v -2462.279541015625 1169.32568359375 375.9532775878906
v -2465.224853515625 1170.591552734375 375.9532775878906
v -2467.2763671875 1167.454345703125 412.4184875488281
v -2470.327880859375 1170.310791015625 412.4184875488281
v -2467.565185546875 1172.782470703125 375.9532775878906
v -2469.48291015625 1175.351318359375 375.9532775878906
v -2472.828369140625 1173.6602783203125 412.4184875488281
v -2474.042724609375 1177.6597900390625 412.4184875488281
v -2470.4140625 1178.4189453125 375.9532775878906
v -2470.79052734375 1181.6025390625 375.9532775878906
v -2474.533447265625 1181.8106689453125 412.4184875488281
v -2473.585205078125 1185.881591796875 412.4184875488281
v -2470.0634765625 1184.724609375 375.9532775878906
v -2468.797607421875 1187.6700439453125 375.9532775878906
v -2471.93505859375 1189.7216796875 412.4184875488281
v -2469.078369140625 1192.773193359375 412.4184875488281
v -2466.606689453125 1190.0103759765625 375.9532775878906
v -2464.037841796875 1191.92822265625 375.9532775878906
v -2465.72900390625 1195.273681640625 412.4184875488281
v -2461.7294921875 1196.488037109375 412.4184875488281
v -2460.970458984375 1192.859619140625 375.9532775878906
v -2457.78662109375 1193.2359619140625 375.9532775878906
v -2457.57861328125 1196.978759765625 412.4184875488281
v -2453.507568359375 1196.03076171875 412.4184875488281
v -2454.66455078125 1192.5089111328125 375.9532775878906
v -2451.71923828125 1191.242919921875 375.9532775878906
v -2449.66748046875 1194.3802490234375 412.4184875488281
v -2446.6162109375 1191.523681640625 412.4184875488281
v -2449.37890625 1189.0521240234375 375.9532775878906
v -2447.461181640625 1186.4832763671875 375.9532775878906
v -2444.11572265625 1188.17431640625 412.4184875488281
v -2442.901123046875 1184.1748046875 412.4184875488281
v -2446.529541015625 1183.4156494140625 375.9532775878906
v -2446.153076171875 1180.2320556640625 375.9532775878906
v -2442.410400390625 1180.02392578125 412.4184875488281
v -2443.3583984375 1175.9530029296875 412.4184875488281
v -2446.88037109375 1177.1097412109375 375.9532775878906
v -2448.146240234375 1174.16455078125 375.9532775878906
v -2445.009033203125 1172.11279296875 412.4184875488281
vt 0.0927734375 0.09716796875
vt 0.0162200927734375 0.09716796875
vt 0.0162200927734375 0.9044189453125
vt 0.0162200927734375 0.9044189453125
vt 0.0927734375 0.9044189453125
vt 0.0927734375 0.09716796875
vt 0.1728515625 0.09716796875
vt 0.0927734375 0.09716796875
vt 0.0927734375 0.9044189453125
vt 0.0927734375 0.9044189453125
vt 0.1728515625 0.9044189453125
vt 0.1728515625 0.09716796875
vt 0.2529296875 0.09716796875
vt 0.1728515625 0.09716796875
vt 0.1728515625 0.9044189453125
vt 0.1728515625 0.9044189453125
vt 0.2529296875 0.9044189453125
vt 0.2529296875 0.09716796875
vt 0.3330078125 0.09716796875
vt 0.2529296875 0.09716796875
vt 0.2529296875 0.9044189453125
vt 0.2529296875 0.9044189453125
vt 0.3330078125 0.9044189453125
vt 0.3330078125 0.09716796875
vt 0.4130859375 0.09716796875
vt 0.3330078125 0.09716796875
vt 0.3330078125 0.9044189453125
vt 0.3330078125 0.9044189453125
vt 0.4130859375 0.9044189453125
vt 0.4130859375 0.09716796875
vt 0.4931640625 0.09716796875
vt 0.4130859375 0.09716796875
vt 0.4130859375 0.9044189453125
vt 0.4130859375 0.9044189453125
vt 0.4931640625 0.9044189453125
vt 0.4931640625 0.09716796875
vt 0.5732421875 0.09716796875
vt 0.4931640625 0.09716796875
vt 0.4931640625 0.9044189453125
vt 0.4931640625 0.9044189453125
vt 0.5732421875 0.9044189453125
vt 0.5732421875 0.09716796875
vt 0.6533203125 0.09716796875
vt 0.5732421875 0.09716796875
vt 0.5732421875 0.9044189453125
vt 0.5732421875 0.9044189453125
vt 0.6533203125 0.9044189453125
vt 0.6533203125 0.09716796875
vt 0.7333984375 0.09716796875
vt 0.6533203125 0.09716796875
vt 0.6533203125 0.9044189453125
vt 0.6533203125 0.9044189453125
vt 0.7333984375 0.9044189453125
vt 0.7333984375 0.09716796875
vt 0.8134765625 0.09716796875
vt 0.7333984375 0.09716796875
vt 0.7333984375 0.9044189453125
vt 0.7333984375 0.9044189453125
vt 0.8134765625 0.9044189453125
vt 0.8134765625 0.09716796875
vt 0.8935546875 0.09716796875
vt 0.8134765625 0.09716796875
vt 0.8134765625 0.9044189453125
vt 0.8134765625 0.9044189453125
vt 0.8935546875 0.9044189453125
vt 0.8935546875 0.09716796875
vt 0.984375 0.09716796875
vt 0.8935546875 0.09716796875
vt 0.8935546875 0.9044189453125
vt 0.8935546875 0.9044189453125
vt 0.984375 0.9044189453125
vt 0.984375 0.09716796875
vt 0.05450439453125 0.9044189453125
vt 0.0162200927734375 0.9044189453125
vt 0.0162200927734375 0.09716796875
vt 0.0162200927734375 0.09716796875
vt 0.05450439453125 0.09716796875
vt 0.05450439453125 0.9044189453125
vt 0.05450439453125 0.9044189453125
vt 0.05450439453125 0.09716796875
vt 0.0927734375 0.09716796875
vt 0.0927734375 0.09716796875
vt 0.0927734375 0.9044189453125
vt 0.05450439453125 0.9044189453125
vt 0.1328125 0.9044189453125
vt 0.0927734375 0.9044189453125
vt 0.0927734375 0.09716796875
vt 0.0927734375 0.09716796875
vt 0.1328125 0.09716796875
vt 0.1328125 0.9044189453125
vt 0.1328125 0.9044189453125
vt 0.1328125 0.09716796875
vt 0.1728515625 0.09716796875
vt 0.1728515625 0.09716796875
vt 0.1728515625 0.9044189453125
vt 0.1328125 0.9044189453125
vt 0.212890625 0.9044189453125
vt 0.1728515625 0.9044189453125
vt 0.1728515625 0.09716796875
vt 0.1728515625 0.09716796875
vt 0.212890625 0.09716796875
vt 0.212890625 0.9044189453125
vt 0.212890625 0.9044189453125
vt 0.212890625 0.09716796875
vt 0.2529296875 0.09716796875
vt 0.2529296875 0.09716796875
vt 0.2529296875 0.9044189453125
vt 0.212890625 0.9044189453125
vt 0.29296875 0.9044189453125
vt 0.2529296875 0.9044189453125
vt 0.2529296875 0.09716796875
vt 0.2529296875 0.09716796875
vt 0.29296875 0.09716796875
vt 0.29296875 0.9044189453125
vt 0.29296875 0.9044189453125
vt 0.29296875 0.09716796875
vt 0.3330078125 0.09716796875
vt 0.3330078125 0.09716796875
vt 0.3330078125 0.9044189453125
vt 0.29296875 0.9044189453125
vt 0.373046875 0.9044189453125
vt 0.3330078125 0.9044189453125
vt 0.3330078125 0.09716796875
vt 0.3330078125 0.09716796875
vt 0.373046875 0.09716796875
vt 0.373046875 0.9044189453125
vt 0.373046875 0.9044189453125
vt 0.373046875 0.09716796875
vt 0.4130859375 0.09716796875
vt 0.4130859375 0.09716796875
vt 0.4130859375 0.9044189453125
vt 0.373046875 0.9044189453125
vt 0.453125 0.9044189453125
vt 0.4130859375 0.9044189453125
vt 0.4130859375 0.09716796875
vt 0.4130859375 0.09716796875
vt 0.453125 0.09716796875
vt 0.453125 0.9044189453125
vt 0.453125 0.9044189453125
vt 0.453125 0.09716796875
vt 0.4931640625 0.09716796875
vt 0.4931640625 0.09716796875
vt 0.4931640625 0.9044189453125
vt 0.453125 0.9044189453125
vt 0.533203125 0.9044189453125
vt 0.4931640625 0.9044189453125
vt 0.4931640625 0.09716796875
vt 0.4931640625 0.09716796875
vt 0.533203125 0.09716796875
vt 0.533203125 0.9044189453125
vt 0.533203125 0.9044189453125
vt 0.533203125 0.09716796875
vt 0.5732421875 0.09716796875
vt 0.5732421875 0.09716796875
vt 0.5732421875 0.9044189453125
vt 0.533203125 0.9044189453125
vt 0.61328125 0.9044189453125
vt 0.5732421875 0.9044189453125
vt 0.5732421875 0.09716796875
vt 0.5732421875 0.09716796875
vt 0.61328125 0.09716796875
vt 0.61328125 0.9044189453125
vt 0.61328125 0.9044189453125
vt 0.61328125 0.09716796875
vt 0.6533203125 0.09716796875
vt 0.6533203125 0.09716796875
vt 0.6533203125 0.9044189453125
vt 0.61328125 0.9044189453125
vt 0.693359375 0.9044189453125
vt 0.6533203125 0.9044189453125
vt 0.6533203125 0.09716796875
vt 0.6533203125 0.09716796875
vt 0.693359375 0.09716796875
vt 0.693359375 0.9044189453125
vt 0.693359375 0.9044189453125
vt 0.693359375 0.09716796875
vt 0.7333984375 0.09716796875
vt 0.7333984375 0.09716796875
vt 0.7333984375 0.9044189453125
vt 0.693359375 0.9044189453125
vt 0.7734375 0.9044189453125
vt 0.7333984375 0.9044189453125
vt 0.7333984375 0.09716796875
vt 0.7333984375 0.09716796875
vt 0.7734375 0.09716796875
vt 0.7734375 0.9044189453125
vt 0.7734375 0.9044189453125
vt 0.7734375 0.09716796875
vt 0.8134765625 0.09716796875
vt 0.8134765625 0.09716796875
vt 0.8134765625 0.9044189453125
vt 0.7734375 0.9044189453125
vt 0.853515625 0.9044189453125
vt 0.8134765625 0.9044189453125
vt 0.8134765625 0.09716796875
vt 0.8134765625 0.09716796875
vt 0.853515625 0.09716796875
vt 0.853515625 0.9044189453125
vt 0.853515625 0.9044189453125
vt 0.853515625 0.09716796875
vt 0.8935546875 0.09716796875
vt 0.8935546875 0.09716796875
vt 0.8935546875 0.9044189453125
vt 0.853515625 0.9044189453125
vt 0.93896484375 0.9044189453125
vt 0.8935546875 0.9044189453125
vt 0.8935546875 0.09716796875
vt 0.8935546875 0.09716796875
vt 0.93896484375 0.09716796875
vt 0.93896484375 0.9044189453125
vt 0.93896484375 0.9044189453125
vt 0.93896484375 0.09716796875
vt 0.984375 0.09716796875
vt 0.984375 0.09716796875
vt 0.984375 0.9044189453125
vt 0.93896484375 0.9044189453125
vn -0.20393644273281097 0.9747762084007263 0.09067075699567795
vn -0.6639872789382935 0.7422256469726562 0.09067555516958237
vn -0.6640157699584961 0.7422008514404297 0.09066981077194214
vn -0.20394544303417206 0.9747744202613831 0.09067046642303467
vn 0.3107759952545166 0.9461483955383301 0.09067294746637344
vn 0.31077075004577637 0.9461501836776733 0.09067250043153763
vn 0.7422187924385071 0.6639954447746277 0.09067252278327942
vn 0.7422170042991638 0.663997232913971 0.09067311882972717
vn 0.9747785925865173 0.20392417907714844 0.09067276120185852
vn 0.9747762084007263 0.20393702387809753 0.0906703993678093
vn 0.9461456537246704 -0.3107845187187195 0.0906713679432869
vn 0.9461471438407898 -0.3107796311378479 0.09067244827747345
vn 0.6640000939369202 -0.7422145009040833 0.0906728208065033
vn 0.6639883518218994 -0.7422246932983398 0.09067552536725998
vn 0.20393452048301697 -0.9747761487960815 0.0906761884689331
vn 0.2039550542831421 -0.9747721552848816 0.09067327529191971
vn -0.3107724189758301 -0.946149468421936 0.09067375957965851
vn -0.3107689917087555 -0.9461504817008972 0.09067420661449432
vn -0.7422241568565369 -0.6639890074729919 0.09067445248365402
vn -0.7422255873680115 -0.6639873385429382 0.09067536890506744
vn -0.9747778177261353 -0.2039271891117096 0.09067486971616745
vn -0.9747790098190308 -0.2039203643798828 0.09067727625370026
vn -0.9461449384689331 0.3107846677303314 0.09067849069833755
vn -0.9461492300033569 0.31077224016189575 0.0906759575009346
vn 0.4487551748752594 -0.8877847790718079 -0.10225946456193924
vn 0.6633313298225403 -0.7414602041244507 -0.10113474726676941
vn 0.6633304357528687 -0.7414606213569641 -0.10113731771707535
vn 0.4487699866294861 -0.8877770900726318 -0.10226088762283325
vn 0.20371995866298676 -0.9737914204597473 -0.10113615542650223
vn 0.20373104512691498 -0.9737889170646667 -0.10113753378391266
vn -0.05523811653256416 -0.9932231307029724 -0.10225740820169449
vn -0.05525603145360947 -0.993222177028656 -0.1022564247250557
vn -0.31045830249786377 -0.9451920390129089 -0.10113256424665451
vn -0.3104687035083771 -0.9451887011528015 -0.10113073140382767
vn -0.5444658994674683 -0.8325266242027283 -0.10225659608840942
vn -0.5444358587265015 -0.8325462341308594 -0.10225602984428406
vn -0.7414605617523193 -0.6633309125900269 -0.10113483667373657
vn -0.7414738535881042 -0.6633158326148987 -0.1011366918683052
vn -0.8877967000007629 -0.44873058795928955 -0.10226358473300934
vn -0.8877812027931213 -0.44876205921173096 -0.10225939750671387
vn -0.9737915396690369 -0.2037176638841629 -0.10113891959190369
vn -0.9737957715988159 -0.20369550585746765 -0.10114330798387527
vn -0.9932231307029724 0.05522932857275009 -0.10226195305585861
vn -0.9932209253311157 0.05526703968644142 -0.1022632047533989
vn -0.9451926350593567 0.3104539215564728 -0.10113900899887085
vn -0.9451939463615417 0.31045132875442505 -0.10113484412431717
vn -0.8325297236442566 0.5444601774215698 -0.10226082056760788
vn -0.8325424790382385 0.5444403290748596 -0.10226336121559143
vn -0.6633224487304688 0.7414676547050476 -0.10113849490880966
vn -0.6633270978927612 0.7414634227752686 -0.1011391431093216
vn -0.44878333806991577 0.8877703547477722 -0.10226070880889893
vn -0.4487699866294861 0.8877770900726318 -0.10226088762283325
vn -0.2037188857793808 0.9737914204597473 -0.10113760828971863
vn -0.203719362616539 0.9737914800643921 -0.10113617777824402
vn 0.05524919182062149 0.9932222366333008 -0.10225936025381088
vn 0.05523552745580673 0.9932230114936829 -0.10225971788167953
vn 0.31046271324157715 0.945189893245697 -0.10113829374313354
vn 0.31047508120536804 0.9451858401298523 -0.10113798081874847
vn 0.5444716215133667 0.8325225710868835 -0.10225903242826462
vn 0.5444815158843994 0.8325156569480896 -0.10226239264011383
vn 0.7414736151695251 0.663316011428833 -0.10113701969385147
vn 0.7414647340774536 0.6633264422416687 -0.10113450139760971
vn 0.8877653479576111 0.4487939178943634 -0.1022578701376915
vn 0.8877649307250977 0.44879424571990967 -0.10225939750671387
vn 0.9737856388092041 0.20374728739261627 -0.10113615542650223
vn 0.9737815260887146 0.20376694202423096 -0.10113686323165894
vn 0.9932218790054321 -0.05525368079543114 -0.10226142406463623
vn 0.9932230710983276 -0.05523918941617012 -0.10225660353899002
vn 0.9451867341995239 -0.31047314405441284 -0.10113586485385895
vn 0.9451798796653748 -0.31049296259880066 -0.10113904625177383
vn 0.8325353860855103 -0.5444520115852356 -0.10225886106491089
vn 0.8325226902961731 -0.5444712042808533 -0.10225963592529297
f 1/1/1 2/2/2 3/3/3
f 3/4/3 4/5/4 1/6/1
f 5/7/5 1/8/1 4/9/4
f 4/10/4 6/11/6 5/12/5
f 7/13/7 5/14/5 6/15/6
f 6/16/6 8/17/8 7/18/7
f 9/19/9 7/20/7 8/21/8
f 8/22/8 10/23/10 9/24/9
f 11/25/11 9/26/9 10/27/10
f 10/28/10 12/29/12 11/30/11
f 13/31/13 11/32/11 12/33/12
f 12/34/12 14/35/14 13/36/13
f 15/37/15 13/38/13 14/39/14
f 14/40/14 16/41/16 15/42/15
f 17/43/17 15/44/15 16/45/16
f 16/46/16 18/47/18 17/48/17
f 19/49/19 17/50/17 18/51/18
f 18/52/18 20/53/20 19/54/19
f 21/55/21 19/56/19 20/57/20
f 20/58/20 22/59/22 21/60/21
f 23/61/23 21/62/21 22/63/22
f 22/64/22 24/65/24 23/66/23
f 2/67/2 23/68/23 24/69/24
f 24/70/24 3/71/3 2/72/2
f 25/73/25 26/74/26 27/75/27
f 27/76/27 28/77/28 25/78/25
f 25/79/25 28/80/28 29/81/29
f 29/82/29 30/83/30 25/84/25
f 31/85/31 30/86/30 29/87/29
f 29/88/29 32/89/32 31/90/31
f 31/91/31 32/92/32 33/93/33
f 33/94/33 34/95/34 31/96/31
f 35/97/35 34/98/34 33/99/33
f 33/100/33 36/101/36 35/102/35
f 35/103/35 36/104/36 37/105/37
f 37/106/37 38/107/38 35/108/35
f 39/109/39 38/110/38 37/111/37
f 37/112/37 40/113/40 39/114/39
f 39/115/39 40/116/40 41/117/41
f 41/118/41 42/119/42 39/120/39
f 43/121/43 42/122/42 41/123/41
f 41/124/41 44/125/44 43/126/43
f 43/127/43 44/128/44 45/129/45
f 45/130/45 46/131/46 43/132/43
f 47/133/47 46/134/46 45/135/45
f 45/136/45 48/137/48 47/138/47
f 47/139/47 48/140/48 49/141/49
f 49/142/49 50/143/50 47/144/47
f 51/145/51 50/146/50 49/147/49
f 49/148/49 52/149/52 51/150/51
f 51/151/51 52/152/52 53/153/53
f 53/154/53 54/155/54 51/156/51
f 55/157/55 54/158/54 53/159/53
f 53/160/53 56/161/56 55/162/55
f 55/163/55 56/164/56 57/165/57
f 57/166/57 58/167/58 55/168/55
f 59/169/59 58/170/58 57/171/57
f 57/172/57 60/173/60 59/174/59
f 59/175/59 60/176/60 61/177/61
f 61/178/61 62/179/62 59/180/59
f 63/181/63 62/182/62 61/183/61
f 61/184/61 64/185/64 63/186/63
f 63/187/63 64/188/64 65/189/65
f 65/190/65 66/191/66 63/192/63
f 67/193/67 66/194/66 65/195/65
f 65/196/65 68/197/68 67/198/67
f 67/199/67 68/200/68 69/201/69
f 69/202/69 70/203/70 67/204/67
f 71/205/71 70/206/70 69/207/69
f 69/208/69 72/209/72 71/210/71
f 71/211/71 72/212/72 27/213/27
f 27/214/27 26/215/26 71/216/71
