# Exported by Lightwave Blender addon
v 882.037841796875 -473.2152404785156 397.9435729980469
v 882.774658203125 -473.5066833496094 397.6153259277344
v 882.552734375 -474.0677795410156 397.943603515625
v 882.03173828125 -473.8617248535156 398.17572021484375
v 882.4609375 -474.3001708984375 398.7360534667969
v 881.7325439453125 -473.094482421875 398.7360534667969
v 881.81591796875 -473.7763366699219 398.736083984375
v 882.037841796875 -473.21527099609375 399.5285339355469
v 882.03173828125 -473.8616943359375 399.29644775390625
v 882.774658203125 -473.5067138671875 399.8567810058594
v 882.552734375 -474.0677795410156 399.5285339355469
v 883.5117797851562 -473.79815673828125 399.5285339355469
v 883.073974609375 -474.27386474609375 399.29644775390625
v 883.81689453125 -473.9189147949219 398.7360534667969
v 883.2897338867188 -474.3592529296875 398.736083984375
v 883.5117797851562 -473.79815673828125 397.9435729980469
v 883.073974609375 -474.2738952636719 398.17572021484375
vt 0.87451171875 0.375
vt 0.99951171875 0.375
vt 0.99951171875 0.75
vt 0.87451171875 0.75
vt 0.87451171875 0.375
vt 0.99951171875 0.75
vt 0.87451171875 1.0
vt 0.87451171875 0.75
vt 0.99951171875 0.75
vt 0.75 0.375
vt 0.87451171875 0.375
vt 0.87451171875 0.75
vt 0.75 0.75
vt 0.75 0.375
vt 0.87451171875 0.75
vt 0.75 1.0
vt 0.75 0.75
vt 0.87451171875 0.75
vt 0.625 0.375
vt 0.75 0.375
vt 0.75 0.75
vt 0.625 0.75
vt 0.625 0.375
vt 0.75 0.75
vt 0.625 1.0
vt 0.625 0.75
vt 0.75 0.75
vt 0.5 0.375
vt 0.625 0.375
vt 0.625 0.75
vt 0.5 0.75
vt 0.5 0.375
vt 0.625 0.75
vt 0.5 1.0
vt 0.5 0.75
vt 0.625 0.75
vt 0.375 0.375
vt 0.5 0.375
vt 0.5 0.75
vt 0.375 0.75
vt 0.375 0.375
vt 0.5 0.75
vt 0.375 1.0
vt 0.375 0.75
vt 0.5 0.75
vt 0.25 0.375
vt 0.375 0.375
vt 0.375 0.75
vt 0.25 0.75
vt 0.25 0.375
vt 0.375 0.75
vt 0.25 1.0
vt 0.25 0.75
vt 0.375 0.75
vt 0.125 0.375
vt 0.25 0.375
vt 0.25 0.75
vt 0.125 0.75
vt 0.125 0.375
vt 0.25 0.75
vt 0.125 1.0
vt 0.125 0.75
vt 0.25 0.75
vt 0.0 0.375
vt 0.125 0.375
vt 0.125 0.75
vt 0.0 0.75
vt 0.0 0.375
vt 0.125 0.75
vt 0.0 1.0
vt 0.0 0.75
vt 0.125 0.75
vn -0.7533560991287231 -0.2159341722726822 -0.6211497187614441
vn -0.17579321563243866 -0.44439801573753357 -0.8784117102622986
vn -0.26802515983581543 -0.6775575876235962 -0.6848928928375244
vn -0.718361496925354 -0.4994448721408844 -0.48426392674446106
vn -0.3677719831466675 -0.9299160838127136 1.970135599549394e-06
vn -0.9926097989082336 -0.12134985625743866 -6.677350484096678e-06
vn -0.9048779606819153 -0.4256709814071655 3.642020601546392e-05
vn -0.7533843517303467 -0.2159099578857422 0.6211238503456116
vn -0.7183685898780823 -0.4994066655635834 0.4842927157878876
vn -0.17578338086605072 -0.44438034296035767 0.878422737121582
vn -0.26801255345344543 -0.6775638461112976 0.6848916411399841
vn 0.4018380045890808 -0.6728605628013611 0.6211159825325012
vn 0.18240471184253693 -0.8556601405143738 0.48432856798171997
vn 0.6410730481147766 -0.7674798369407654 2.6750349206849933e-06
vn 0.36889567971229553 -0.9294708371162415 2.1047264453954995e-05
vn 0.4018241763114929 -0.6728764772415161 -0.6211075186729431
vn 0.18239767849445343 -0.8556814193725586 -0.48429375886917114
f 1/1/1 2/2/2 3/3/3
f 4/4/4 1/5/1 3/6/3
f 5/7/5 4/8/4 3/9/3
f 6/10/6 1/11/1 4/12/4
f 7/13/7 6/14/6 4/15/4
f 5/16/5 7/17/7 4/18/4
f 8/19/8 6/20/6 7/21/7
f 9/22/9 8/23/8 7/24/7
f 5/25/5 9/26/9 7/27/7
f 10/28/10 8/29/8 9/30/9
f 11/31/11 10/32/10 9/33/9
f 5/34/5 11/35/11 9/36/9
f 12/37/12 10/38/10 11/39/11
f 13/40/13 12/41/12 11/42/11
f 5/43/5 13/44/13 11/45/11
f 14/46/14 12/47/12 13/48/13
f 15/49/15 14/50/14 13/51/13
f 5/52/5 15/53/15 13/54/13
f 16/55/16 14/56/14 15/57/15
f 17/58/17 16/59/16 15/60/15
f 5/61/5 17/62/17 15/63/15
f 2/64/2 16/65/16 17/66/17
f 3/67/3 2/68/2 17/69/17
f 5/70/5 3/71/3 17/72/17
