# Exported by Lightwave Blender addon
v 279.31640625 -1384.998291015625 1017.130859375
v 280.348388671875 -1377.8914794921875 1024.045654296875
v 333.83721923828125 -1407.2923583984375 1017.130615234375
v 338.1632995605469 -1401.5323486328125 1024.045654296875
v 272.2562255859375 -1406.68505859375 1010.542236328125
v 278.0916748046875 -1392.4193115234375 1010.5433349609375
v 323.8337707519531 -1427.775390625 1010.5427856445312
v 329.6649169921875 -1413.5086669921875 1010.5438842773438
v 280.23114013671875 -1377.0789794921875 1025.75
v 274.1790771484375 -1374.3599853515625 1051.9013671875
v 338.83319091796875 -1401.0364990234375 1025.75
v 345.06414794921875 -1403.8209228515625 1051.9017333984375
v 278.57830810546875 -1390.7891845703125 1011.2642822265625
v 330.44586181640625 -1411.9989013671875 1011.264892578125
v 262.31494140625 -1402.6182861328125 1052.9024658203125
v 333.91229248046875 -1431.89501953125 1052.9017333984375
v 273.5359802246094 -1375.1790771484375 1052.9013671875
v 344.958984375 -1404.8564453125 1052.9017333984375
v 345.65179443359375 -1405.1375732421875 1051.9339599609375
v 334.6043701171875 -1432.177978515625 1051.9339599609375
v 261.6164245605469 -1402.3326416015625 1051.93310546875
v 272.836669921875 -1374.8955078125 1051.931884765625
v 339.16925048828125 -1402.257080078125 1024.7501220703125
v 328.04486083984375 -1429.4954833984375 1024.750244140625
v 334.38616943359375 -1408.59716796875 1017.130615234375
v 326.19537353515625 -1428.74072265625 1017.130615234375
v 331.0152282714844 -1413.4486083984375 1011.5177612304688
v 324.9715576171875 -1428.2406005859375 1011.5161743164062
v 277.1512451171875 -1391.424560546875 1011.5123291015625
v 271.1016845703125 -1406.212890625 1011.5111694335938
v 278.011962890625 -1385.5452880859375 1017.130859375
v 269.7741394042969 -1405.669677734375 1017.130859375
v 279.13287353515625 -1377.7078857421875 1024.75
v 267.98455810546875 -1404.9364013671875 1024.7501220703125
vt -0.88623046875 0.46240234375
vt -0.89501953125 0.427734375
vt -0.591796875 0.46240234375
vt -0.89501953125 0.427734375
vt -0.5830078125 0.427734375
vt -0.591796875 0.46240234375
vt -0.8779296875 0.576171875
vt -0.8779296875 0.49951171875
vt -0.599609375 0.576171875
vt -0.8779296875 0.49951171875
vt -0.599609375 0.49951171875
vt -0.599609375 0.576171875
vt 1.896484375 0.4814453125
vt 1.9296875 0.612060546875
vt 1.580078125 0.4814453125
vt 1.9296875 0.612060546875
vt 1.5458984375 0.612060546875
vt 1.580078125 0.4814453125
vt 1.87890625 0.4091796875
vt 1.8857421875 0.4384765625
vt 1.5986328125 0.4091796875
vt 1.8857421875 0.4384765625
vt 1.591796875 0.4384765625
vt 1.5986328125 0.4091796875
vt 1.931640625 0.576171875
vt 1.544921875 0.576171875
vt 1.931640625 0.42822265625
vt 1.544921875 0.576171875
vt 1.544921875 0.43017578125
vt 1.931640625 0.42822265625
vt 0.56982421875 0.6123046875
vt 0.56982421875 0.616943359375
vt 0.423828125 0.6123046875
vt 0.56982421875 0.616943359375
vt 0.423828125 0.616943359375
vt 0.423828125 0.6123046875
vt 0.57568359375 0.6123046875
vt 0.57568359375 0.616943359375
vt 0.427734375 0.6123046875
vt 0.57568359375 0.616943359375
vt 0.427734375 0.616943359375
vt 0.427734375 0.6123046875
vt 0.56982421875 0.6123046875
vt 0.423828125 0.6123046875
vt 0.57080078125 0.4765625
vt 0.423828125 0.6123046875
vt 0.423828125 0.4765625
vt 0.57080078125 0.4765625
vt 0.57080078125 0.4765625
vt 0.423828125 0.4765625
vt 0.5322265625 0.4384765625
vt 0.423828125 0.4765625
vt 0.423828125 0.4384765625
vt 0.5322265625 0.4384765625
vt 0.5322265625 0.4384765625
vt 0.423828125 0.4384765625
vt 0.50341796875 0.41015625
vt 0.423828125 0.4384765625
vt 0.423828125 0.41015625
vt 0.50341796875 0.41015625
vt 0.49609375 0.41015625
vt 0.57568359375 0.41015625
vt 0.46728515625 0.4384765625
vt 0.57568359375 0.41015625
vt 0.57568359375 0.4384765625
vt 0.46728515625 0.4384765625
vt 0.46728515625 0.4384765625
vt 0.57568359375 0.4384765625
vt 0.428955078125 0.4765625
vt 0.57568359375 0.4384765625
vt 0.57568359375 0.4765625
vt 0.428955078125 0.4765625
vt 0.428955078125 0.4765625
vt 0.57568359375 0.4765625
vt 0.427734375 0.6123046875
vt 0.57568359375 0.4765625
vt 0.57568359375 0.6123046875
vt 0.427734375 0.6123046875
vt -0.5830078125 0.427734375
vt -0.57666015625 0.42919921875
vt -0.591796875 0.46240234375
vt -0.57666015625 0.42919921875
vt -0.5869140625 0.4677734375
vt -0.591796875 0.46240234375
vt -0.591796875 0.46240234375
vt -0.5869140625 0.4677734375
vt -0.5986328125 0.49072265625
vt -0.5869140625 0.4677734375
vt -0.59326171875 0.49658203125
vt -0.5986328125 0.49072265625
vt -0.59326171875 0.576171875
vt -0.599609375 0.576171875
vt -0.59326171875 0.49658203125
vt -0.599609375 0.576171875
vt -0.599609375 0.49951171875
vt -0.59326171875 0.49658203125
vt -0.59326171875 0.49658203125
vt -0.599609375 0.49951171875
vt -0.5986328125 0.49072265625
vt -0.87890625 0.49072265625
vt -0.5986328125 0.49072265625
vt -0.599609375 0.49951171875
vt -0.8779296875 0.49951171875
vt -0.87890625 0.49072265625
vt -0.599609375 0.49951171875
vt -0.8779296875 0.576171875
vt -0.88427734375 0.576171875
vt -0.8779296875 0.49951171875
vt -0.88427734375 0.576171875
vt -0.88427734375 0.49658203125
vt -0.8779296875 0.49951171875
vt -0.87890625 0.49072265625
vt -0.8779296875 0.49951171875
vt -0.88427734375 0.49658203125
vt -0.87890625 0.49072265625
vt -0.88427734375 0.49658203125
vt -0.88623046875 0.46240234375
vt -0.88427734375 0.49658203125
vt -0.8916015625 0.4677734375
vt -0.88623046875 0.46240234375
vt -0.88623046875 0.46240234375
vt -0.8916015625 0.4677734375
vt -0.89501953125 0.427734375
vt -0.8916015625 0.4677734375
vt -0.90087890625 0.42919921875
vt -0.89501953125 0.427734375
vt 1.580078125 0.4814453125
vt 1.576171875 0.4765625
vt 1.5830078125 0.47265625
vt 1.541015625 0.6123046875
vt 1.576171875 0.4765625
vt 1.580078125 0.4814453125
vt 1.580078125 0.4814453125
vt 1.5830078125 0.47265625
vt 1.896484375 0.4814453125
vt 1.5458984375 0.612060546875
vt 1.541015625 0.6123046875
vt 1.580078125 0.4814453125
vt 1.5830078125 0.47265625
vt 1.89453125 0.47265625
vt 1.896484375 0.4814453125
vt 1.5458984375 0.612060546875
vt 1.544921875 0.616943359375
vt 1.541015625 0.6123046875
vt 1.900390625 0.4765625
vt 1.896484375 0.4814453125
vt 1.89453125 0.47265625
vt 1.931640625 0.616943359375
vt 1.544921875 0.616943359375
vt 1.5458984375 0.612060546875
vt 1.896484375 0.4814453125
vt 1.900390625 0.4765625
vt 1.9296875 0.612060546875
vt 1.9296875 0.612060546875
vt 1.931640625 0.616943359375
vt 1.5458984375 0.612060546875
vt 1.900390625 0.4765625
vt 1.935546875 0.6123046875
vt 1.9296875 0.612060546875
vt 1.935546875 0.6123046875
vt 1.931640625 0.616943359375
vt 1.9296875 0.612060546875
vn -0.014577132649719715 0.701471745967865 -0.7125480771064758
vn 0.058896709233522415 0.8064953088760376 -0.5882996320724487
vn 0.5001587271690369 0.4957035779953003 -0.7100135684013367
vn 0.5213695764541626 0.615973949432373 -0.5905504822731018
vn -0.3000909984111786 0.12282601743936539 -0.9459698796272278
vn -0.20459455251693726 0.2598268985748291 -0.943732500076294
vn 0.30433428287506104 -0.12426231801509857 -0.9444254636764526
vn 0.3325701951980591 0.040347009897232056 -0.9422149658203125
vn 0.055689409375190735 0.972985029220581 -0.22405070066452026
vn 0.010818813927471638 0.9616813659667969 0.2739563584327698
vn 0.645379364490509 0.7315766215324402 -0.2197299748659134
vn 0.6677097082138062 0.6909638047218323 0.2770066261291504
vn -0.06993831694126129 0.6002826690673828 -0.7967240810394287
vn 0.46908068656921387 0.37894001603126526 -0.7977266907691956
vn -0.40645748376846313 0.16625571250915527 0.8984160423278809
vn 0.408136785030365 -0.1667403131723404 0.8975645303726196
vn -0.23703601956367493 0.4808090627193451 0.8441780209541321
vn 0.5086706280708313 0.17546717822551727 0.8428910970687866
vn 0.9836260676383972 -0.018232034519314766 0.17929720878601074
vn 0.9070349931716919 -0.37053486704826355 0.1999790370464325
vn -0.9058660268783569 0.37045741081237793 0.20534856617450714
vn -0.714596152305603 0.6756970286369324 0.18106858432292938
vn 0.905105471611023 0.12217950820922852 -0.40725475549697876
vn 0.895778238773346 -0.3652205765247345 -0.2533681094646454
vn 0.8692476153373718 -0.04055100679397583 -0.4927109181880951
vn 0.8988190293312073 -0.36615630984306335 -0.24094344675540924
vn 0.8014430999755859 -0.14317546784877777 -0.5806803703308105
vn 0.7813019752502441 -0.31916460394859314 -0.5363777279853821
vn -0.6631876230239868 0.45824819803237915 -0.5917690992355347
vn -0.7740985751152039 0.3167991042137146 -0.5480965375900269
vn -0.646449863910675 0.5757448673248291 -0.5006200671195984
vn -0.8968607187271118 0.3671588897705078 -0.24664780497550964
vn -0.5613231658935547 0.7226086258888245 -0.4034266471862793
vn -0.8970857858657837 0.3671807646751404 -0.24579553306102753
f 1/1/1 2/2/2 3/3/3
f 2/4/2 4/5/4 3/6/3
f 5/7/5 6/8/6 7/9/7
f 6/10/6 8/11/8 7/12/7
f 9/13/9 10/14/10 11/15/11
f 10/16/10 12/17/12 11/18/11
f 13/19/13 1/20/1 14/21/14
f 1/22/1 3/23/3 14/24/14
f 15/25/15 16/26/16 17/27/17
f 16/28/16 18/29/18 17/30/17
f 19/31/19 18/32/18 20/33/20
f 18/34/18 16/35/16 20/36/20
f 21/37/21 15/38/15 22/39/22
f 15/40/15 17/41/17 22/42/22
f 19/43/19 20/44/20 23/45/23
f 20/46/20 24/47/24 23/48/23
f 23/49/23 24/50/24 25/51/25
f 24/52/24 26/53/26 25/54/25
f 25/55/25 26/56/26 27/57/27
f 26/58/26 28/59/28 27/60/27
f 29/61/29 30/62/30 31/63/31
f 30/64/30 32/65/32 31/66/31
f 31/67/31 32/68/32 33/69/33
f 32/70/32 34/71/34 33/72/33
f 33/73/33 34/74/34 22/75/22
f 34/76/34 21/77/21 22/78/22
f 4/79/4 23/80/23 3/81/3
f 23/82/23 25/83/25 3/84/3
f 3/85/3 25/86/25 14/87/14
f 25/88/25 27/89/27 14/90/14
f 28/91/28 7/92/7 27/93/27
f 7/94/7 8/95/8 27/96/27
f 27/97/27 8/98/8 14/99/14
f 13/100/13 14/101/14 8/102/8
f 6/103/6 13/104/13 8/105/8
f 5/106/5 30/107/30 6/108/6
f 30/109/30 29/110/29 6/111/6
f 13/112/13 6/113/6 29/114/29
f 13/115/13 29/116/29 1/117/1
f 29/118/29 31/119/31 1/120/1
f 1/121/1 31/122/31 2/123/2
f 31/124/31 33/125/33 2/126/2
f 11/127/11 23/128/23 4/129/4
f 19/130/19 23/131/23 11/132/11
f 11/133/11 4/134/4 9/135/9
f 12/136/12 19/137/19 11/138/11
f 4/139/4 2/140/2 9/141/9
f 12/142/12 18/143/18 19/144/19
f 33/145/33 9/146/9 2/147/2
f 17/148/17 18/149/18 12/150/12
f 9/151/9 33/152/33 10/153/10
f 10/154/10 17/155/17 12/156/12
f 33/157/33 22/158/22 10/159/10
f 22/160/22 17/161/17 10/162/10
