# Exported by Lightwave Blender addon
v -114.57473754882812 346.64434814453125 488.1791687011719
v -114.57473754882812 346.64434814453125 495.0990905761719
v -144.34075927734375 363.02740478515625 488.1791687011719
v -144.34075927734375 363.02734375 495.09906005859375
v -144.6481170654297 364.0868835449219 495.09906005859375
v -144.6481170654297 364.08685302734375 488.1791687011719
v -69.43699645996094 500.5086669921875 488.1791687011719
v -69.43699645996094 500.5086669921875 495.09906005859375
v -68.37763977050781 500.8159484863281 495.09906005859375
v -68.37763214111328 500.81591796875 488.1791687011719
v -38.73063659667969 484.4979553222656 488.1791687011719
v -38.73065185546875 484.4979553222656 495.0990905761719
v -39.10479736328125 483.81414794921875 487.3991394042969
v -68.75363159179688 500.13250732421875 487.3991394042969
v -114.19872283935547 347.32781982421875 487.3991394042969
v -143.96475219726562 363.71075439453125 487.3991394042969
v -114.19872283935547 347.32781982421875 495.87908935546875
v -143.96475219726562 363.71075439453125 495.8790588378906
v -68.75364685058594 500.13250732421875 495.8790588378906
v -39.10478973388672 483.81414794921875 495.87908935546875
vt 0.0019989013671875 0.678466796875
vt 0.0019989013671875 0.64794921875
vt 0.15185546875 0.678466796875
vt 0.0019989013671875 0.64794921875
vt 0.15185546875 0.64794921875
vt 0.15185546875 0.678466796875
vt 0.15185546875 0.64794921875
vt 0.1566162109375 0.64794921875
vt 0.15185546875 0.678466796875
vt 0.1566162109375 0.64794921875
vt 0.1566162109375 0.678466796875
vt 0.15185546875 0.678466796875
vt 0.1566162109375 0.678466796875
vt 0.1566162109375 0.64794921875
vt 0.84375 0.678466796875
vt 0.1566162109375 0.64794921875
vt 0.84375 0.64794921875
vt 0.84375 0.678466796875
vt 0.84375 0.678466796875
vt 0.84375 0.64794921875
vt 0.8486328125 0.64794921875
vt 0.8486328125 0.678466796875
vt 0.84375 0.678466796875
vt 0.8486328125 0.64794921875
vt 0.99755859375 0.678466796875
vt 0.8486328125 0.678466796875
vt 0.8486328125 0.64794921875
vt 0.99755859375 0.64794921875
vt 0.99755859375 0.678466796875
vt 0.8486328125 0.64794921875
vt 0.69970703125 0.32470703125
vt 0.6953125 0.32470703125
vt 0.69970703125 0.1748046875
vt 0.6953125 0.32470703125
vt 0.6953125 0.17529296875
vt 0.69970703125 0.1748046875
vt 0.6953125 0.1708984375
vt 0.69970703125 0.1748046875
vt 0.6953125 0.17529296875
vt 0.6953125 0.32470703125
vt 0.006671905517578125 0.32470703125
vt 0.6953125 0.17529296875
vt 0.6953125 0.1708984375
vt 0.6953125 0.17529296875
vt 0.006671905517578125 0.169921875
vt 0.006671905517578125 0.32470703125
vt 0.006671905517578125 0.1748046875
vt 0.6953125 0.17529296875
vt 0.6953125 0.17529296875
vt 0.006671905517578125 0.1748046875
vt 0.006671905517578125 0.169921875
vt 0.006671905517578125 0.1748046875
vt 0.006671905517578125 0.32470703125
vt 0.0022525787353515625 0.32470703125
vt 0.0022525787353515625 0.17431640625
vt 0.006671905517578125 0.169921875
vt 0.006671905517578125 0.1748046875
vt 0.0022525787353515625 0.17431640625
vt 0.006671905517578125 0.1748046875
vt 0.0022525787353515625 0.32470703125
vt 0.0022525787353515625 0.00244140625
vt 0.006671905517578125 0.00244140625
vt 0.0022525787353515625 0.15283203125
vt 0.006671905517578125 0.00244140625
vt 0.006671905517578125 0.15234375
vt 0.0022525787353515625 0.15283203125
vt 0.006671905517578125 0.15234375
vt 0.006671905517578125 0.15673828125
vt 0.0022525787353515625 0.15283203125
vt 0.006671905517578125 0.15673828125
vt 0.006671905517578125 0.15234375
vt 0.6953125 0.1572265625
vt 0.006671905517578125 0.15234375
vt 0.006671905517578125 0.00244140625
vt 0.6953125 0.15234375
vt 0.006671905517578125 0.15234375
vt 0.6953125 0.15234375
vt 0.6953125 0.1572265625
vt 0.006671905517578125 0.00244140625
vt 0.6953125 0.0029296875
vt 0.6953125 0.15234375
vt 0.6953125 0.15234375
vt 0.69970703125 0.1533203125
vt 0.6953125 0.1572265625
vt 0.6953125 0.15234375
vt 0.6953125 0.0029296875
vt 0.69970703125 0.0029296875
vt 0.69970703125 0.1533203125
vt 0.6953125 0.15234375
vt 0.69970703125 0.0029296875
vn -0.4454788565635681 -0.8093835115432739 -0.3826836049556732
vn -0.44547733664512634 -0.8093789219856262 0.3826953172683716
vn -0.7214149832725525 -0.6024025082588196 -0.34157225489616394
vn -0.7214124798774719 -0.602398157119751 0.34158551692962646
vn -0.931735098361969 0.12322767823934555 0.34159111976623535
vn -0.9317400455474854 0.12321341037750244 -0.34158310294151306
vn -0.6021233797073364 0.7216380834579468 -0.34159329533576965
vn -0.6021286249160767 0.7216296792030334 0.3416019380092621
vn 0.1229046955704689 0.9317721724510193 0.34160664677619934
vn 0.12291775643825531 0.9317761659622192 -0.3415910005569458
vn 0.4454781413078308 0.8093581199645996 -0.3827383518218994
vn 0.4454706311225891 0.8093575239181519 0.38274848461151123
vn 0.1844942569732666 0.335195392370224 -0.923907995223999
vn -0.13438959419727325 0.46400895714759827 -0.8755771517753601
vn -0.1845349669456482 -0.335280179977417 -0.9238691329956055
vn -0.46400001645088196 -0.13440755009651184 -0.8755789995193481
vn -0.18453346192836761 -0.3352743983268738 0.9238714575767517
vn -0.46398892998695374 -0.13439178466796875 0.8755872845649719
vn -0.134388267993927 0.4639950692653656 0.8755845427513123
vn 0.18448497354984283 0.3351927697658539 0.9239107370376587
f 1/1/1 2/2/2 3/3/3
f 2/4/2 4/5/4 3/6/3
f 4/7/4 5/8/5 3/9/3
f 5/10/5 6/11/6 3/12/3
f 6/13/6 5/14/5 7/15/7
f 5/16/5 8/17/8 7/18/7
f 7/19/7 8/20/8 9/21/9
f 10/22/10 7/23/7 9/24/9
f 11/25/11 10/26/10 9/27/9
f 12/28/12 11/29/11 9/30/9
f 11/31/11 13/32/13 10/33/10
f 13/34/13 14/35/14 10/36/10
f 7/37/7 10/38/10 14/39/14
f 13/40/13 15/41/15 14/42/14
f 7/43/7 14/44/14 6/45/6
f 15/46/15 16/47/16 14/48/14
f 14/49/14 16/50/16 6/51/6
f 16/52/16 15/53/15 1/54/1
f 3/55/3 6/56/6 16/57/16
f 3/58/3 16/59/16 1/60/1
f 2/61/2 17/62/17 4/63/4
f 17/64/17 18/65/18 4/66/4
f 18/67/18 5/68/5 4/69/4
f 5/70/5 18/71/18 8/72/8
f 18/73/18 17/74/17 19/75/19
f 18/76/18 19/77/19 8/78/8
f 17/79/17 20/80/20 19/81/19
f 19/82/19 9/83/9 8/84/8
f 19/85/19 20/86/20 12/87/12
f 9/88/9 19/89/19 12/90/12
