# Exported by Lightwave Blender addon
v 122.23591613769531 -178.6225128173828 416.6373291015625
v 122.00045013427734 -179.21783447265625 415.528564453125
v 121.41317749023438 -178.29710388183594 416.6373596191406
v 121.1777114868164 -178.89242553710938 415.52850341796875
v 121.5295181274414 -180.40846252441406 415.528564453125
v 120.70677947998047 -180.0830535888672 415.52850341796875
v 121.29405212402344 -181.00376892089844 416.6373291015625
v 120.47132873535156 -180.67835998535156 416.6373596191406
v 121.5295181274414 -180.40846252441406 417.7462158203125
v 120.70677947998047 -180.0830535888672 417.7461853027344
v 122.00045013427734 -179.21783447265625 417.7462158203125
v 121.1777114868164 -178.89242553710938 417.7461853027344
v 141.81407165527344 -186.36618041992188 416.6373596191406
v 141.57859802246094 -186.9615020751953 417.7461853027344
v 142.63681030273438 -186.6916046142578 416.6373596191406
v 142.40135192871094 -187.2869110107422 417.7461853027344
v 141.10768127441406 -188.15213012695312 417.7461853027344
v 141.93043518066406 -188.4775390625 417.7461853027344
v 140.87222290039062 -188.74745178222656 416.6373596191406
v 141.69496154785156 -189.07286071777344 416.6373596191406
v 141.10768127441406 -188.15213012695312 415.5285339355469
v 141.93043518066406 -188.4775390625 415.5285339355469
v 141.57859802246094 -186.9615020751953 415.5285339355469
v 142.40135192871094 -187.2869110107422 415.5285339355469
v 140.53941345214844 -189.62205505371094 416.7762756347656
v 139.64669799804688 -189.2689666748047 416.7762756347656
v 140.63938903808594 -189.36927795410156 415.7618103027344
v 139.74667358398438 -189.0161895751953 415.7617492675781
v 140.9125518798828 -188.6786651611328 415.0191345214844
v 140.01983642578125 -188.3255615234375 415.0190734863281
v 141.28567504882812 -187.73526000976562 414.7472839355469
v 140.39297485351562 -187.38217163085938 414.7472839355469
v 145.96585083007812 -175.90249633789062 414.7472839355469
v 144.72213745117188 -176.43687438964844 414.7472839355469
v 135.81947326660156 -172.91563415527344 414.7472229003906
v 136.17047119140625 -172.02818298339844 414.7472229003906
v 144.72213745117188 -176.43687438964844 418.8052978515625
v 135.81947326660156 -172.9156494140625 418.8053283691406
v 144.72213745117188 -176.43687438964844 416.7762756347656
v 135.81947326660156 -172.91563415527344 416.7762756347656
v 136.17047119140625 -172.02818298339844 418.8053283691406
v 145.96585083007812 -175.9025115966797 418.8052978515625
v 136.17047119140625 -172.02818298339844 416.7762756347656
v 145.96585083007812 -175.9025115966797 416.7762756347656
v 120.94866943359375 -181.8734130859375 416.7762756347656
v 121.84136962890625 -182.22650146484375 416.7762756347656
v 121.94136047363281 -181.97372436523438 417.7908020019531
v 121.04864501953125 -181.62063598632812 417.7907409667969
v 122.21450805664062 -181.28309631347656 418.5334777832031
v 121.32180786132812 -180.9300079345703 418.5334167480469
v 122.587646484375 -180.33970642089844 418.8052673339844
v 121.6949462890625 -179.9866180419922 418.8052673339844
v 126.91679382324219 -169.3944091796875 418.8052673339844
v 126.37510681152344 -168.1538543701172 418.8052978515625
v 126.37510681152344 -168.1538543701172 414.7472839355469
v 126.37510681152344 -168.1538543701172 416.77630615234375
v 139.74667358398438 -189.0161895751953 417.790771484375
v 140.63938903808594 -189.36927795410156 417.790771484375
v 140.01983642578125 -188.3255615234375 418.533447265625
v 140.9125518798828 -188.6786651611328 418.533447265625
v 140.39297485351562 -187.38217163085938 418.8052978515625
v 141.2856903076172 -187.73526000976562 418.8052978515625
v 121.04864501953125 -181.62062072753906 415.76177978515625
v 121.94134521484375 -181.9737091064453 415.76177978515625
v 121.32180786132812 -180.9300079345703 415.01910400390625
v 122.21450805664062 -181.28309631347656 415.01910400390625
v 121.69493865966797 -179.98660278320312 414.74725341796875
v 122.587646484375 -180.33970642089844 414.74725341796875
v 126.91679382324219 -169.3944091796875 414.74725341796875
v 126.91679382324219 -169.3944091796875 416.7762756347656
v 141.2856903076172 -187.73526000976562 416.7762756347656
v 121.6949462890625 -179.9866180419922 416.7762756347656
v 140.39297485351562 -187.38217163085938 416.7762756347656
v 122.587646484375 -180.33970642089844 416.7762756347656
vt 0.256103515625 0.29248046875
vt 0.256103515625 0.318359375
vt 0.2384033203125 0.29248046875
vt 0.256103515625 0.318359375
vt 0.2384033203125 0.318359375
vt 0.2384033203125 0.29248046875
vt 0.333740234375 0.28173828125
vt 0.333740234375 0.30712890625
vt 0.316162109375 0.28173828125
vt 0.333740234375 0.30712890625
vt 0.316162109375 0.30712890625
vt 0.316162109375 0.28173828125
vt 0.259033203125 0.33740234375
vt 0.259033203125 0.36328125
vt 0.241455078125 0.33740234375
vt 0.259033203125 0.36328125
vt 0.241455078125 0.36328125
vt 0.241455078125 0.33740234375
vt 0.284423828125 0.3369140625
vt 0.284423828125 0.31103515625
vt 0.30224609375 0.3369140625
vt 0.284423828125 0.31103515625
vt 0.30224609375 0.31103515625
vt 0.30224609375 0.3369140625
vt 0.296630859375 0.25390625
vt 0.296630859375 0.22802734375
vt 0.314208984375 0.25390625
vt 0.296630859375 0.22802734375
vt 0.314208984375 0.22802734375
vt 0.314208984375 0.25390625
vt 0.332275390625 0.26025390625
vt 0.332275390625 0.234375
vt 0.35009765625 0.26025390625
vt 0.332275390625 0.234375
vt 0.35009765625 0.234375
vt 0.35009765625 0.26025390625
vt 0.256103515625 0.29248046875
vt 0.256103515625 0.318359375
vt 0.2384033203125 0.29248046875
vt 0.256103515625 0.318359375
vt 0.2384033203125 0.318359375
vt 0.2384033203125 0.29248046875
vt 0.333740234375 0.28173828125
vt 0.333740234375 0.30712890625
vt 0.316162109375 0.28173828125
vt 0.333740234375 0.30712890625
vt 0.316162109375 0.30712890625
vt 0.316162109375 0.28173828125
vt 0.259033203125 0.33740234375
vt 0.259033203125 0.36328125
vt 0.241455078125 0.33740234375
vt 0.259033203125 0.36328125
vt 0.241455078125 0.36328125
vt 0.241455078125 0.33740234375
vt 0.284423828125 0.3369140625
vt 0.284423828125 0.31103515625
vt 0.30224609375 0.3369140625
vt 0.284423828125 0.31103515625
vt 0.30224609375 0.31103515625
vt 0.30224609375 0.3369140625
vt 0.296630859375 0.25390625
vt 0.296630859375 0.22802734375
vt 0.314208984375 0.25390625
vt 0.296630859375 0.22802734375
vt 0.314208984375 0.22802734375
vt 0.314208984375 0.25390625
vt 0.332275390625 0.26025390625
vt 0.332275390625 0.234375
vt 0.35009765625 0.26025390625
vt 0.332275390625 0.234375
vt 0.35009765625 0.234375
vt 0.35009765625 0.26025390625
vt 0.9951171875 0.41064453125
vt 0.97607421875 0.41064453125
vt 0.9951171875 0.3896484375
vt 0.97607421875 0.41064453125
vt 0.97607421875 0.3896484375
vt 0.9951171875 0.3896484375
vt 0.9951171875 0.3896484375
vt 0.97607421875 0.3896484375
vt 0.99560546875 0.36865234375
vt 0.97607421875 0.3896484375
vt 0.97607421875 0.36865234375
vt 0.99560546875 0.36865234375
vt 0.99560546875 0.36865234375
vt 0.97607421875 0.36865234375
vt 0.99560546875 0.34765625
vt 0.97607421875 0.36865234375
vt 0.97607421875 0.34765625
vt 0.99560546875 0.34765625
vt 0.99560546875 0.34765625
vt 0.97607421875 0.34765625
vt 0.9951171875 0.09326171875
vt 0.97607421875 0.34765625
vt 0.9755859375 0.1123046875
vt 0.9951171875 0.09326171875
vt 0.9755859375 0.1123046875
vt 0.7841796875 0.1123046875
vt 0.9951171875 0.09326171875
vt 0.7841796875 0.1123046875
vt 0.7841796875 0.09326171875
vt 0.9951171875 0.09326171875
vt 0.98779296875 0.078125
vt 0.81982421875 0.078125
vt 0.98779296875 0.04296875
vt 0.81982421875 0.078125
vt 0.81982421875 0.04296875
vt 0.98779296875 0.04296875
vt 0.98779296875 0.00732421875
vt 0.98779296875 0.04296875
vt 0.81982421875 0.04296875
vt 0.81982421875 0.00732421875
vt 0.98779296875 0.00732421875
vt 0.81982421875 0.04296875
vt 0.50341796875 0.38720703125
vt 0.66259765625 0.38720703125
vt 0.50341796875 0.41796875
vt 0.66259765625 0.38720703125
vt 0.66259765625 0.41796875
vt 0.50341796875 0.41796875
vt 0.50341796875 0.41796875
vt 0.66259765625 0.41796875
vt 0.50341796875 0.44873046875
vt 0.66259765625 0.41796875
vt 0.66259765625 0.44873046875
vt 0.50341796875 0.44873046875
vt 0.82080078125 0.234375
vt 0.80126953125 0.234375
vt 0.80126953125 0.25537109375
vt 0.82080078125 0.25537109375
vt 0.82080078125 0.234375
vt 0.80126953125 0.25537109375
vt 0.82080078125 0.25537109375
vt 0.80126953125 0.25537109375
vt 0.8017578125 0.2763671875
vt 0.82080078125 0.2763671875
vt 0.82080078125 0.25537109375
vt 0.8017578125 0.2763671875
vt 0.82080078125 0.2763671875
vt 0.8017578125 0.2763671875
vt 0.8017578125 0.29736328125
vt 0.82080078125 0.29736328125
vt 0.82080078125 0.2763671875
vt 0.8017578125 0.29736328125
vt 0.82080078125 0.29736328125
vt 0.8017578125 0.29736328125
vt 0.80126953125 0.53271484375
vt 0.8203125 0.5517578125
vt 0.82080078125 0.29736328125
vt 0.80126953125 0.53271484375
vt 0.60986328125 0.5517578125
vt 0.8203125 0.5517578125
vt 0.80126953125 0.53271484375
vt 0.60986328125 0.53271484375
vt 0.60986328125 0.5517578125
vt 0.80126953125 0.53271484375
vt 0.50341796875 0.44873046875
vt 0.66259765625 0.44873046875
vt 0.66259765625 0.41796875
vt 0.50341796875 0.41796875
vt 0.50341796875 0.44873046875
vt 0.66259765625 0.41796875
vt 0.50341796875 0.41796875
vt 0.66259765625 0.41796875
vt 0.66259765625 0.38720703125
vt 0.50341796875 0.38720703125
vt 0.50341796875 0.41796875
vt 0.66259765625 0.38720703125
vt 0.80126953125 0.25537109375
vt 0.80126953125 0.234375
vt 0.82080078125 0.234375
vt 0.82080078125 0.25537109375
vt 0.80126953125 0.25537109375
vt 0.82080078125 0.234375
vt 0.8017578125 0.2763671875
vt 0.80126953125 0.25537109375
vt 0.82080078125 0.25537109375
vt 0.82080078125 0.2763671875
vt 0.8017578125 0.2763671875
vt 0.82080078125 0.25537109375
vt 0.8017578125 0.29736328125
vt 0.8017578125 0.2763671875
vt 0.82080078125 0.2763671875
vt 0.82080078125 0.29736328125
vt 0.8017578125 0.29736328125
vt 0.82080078125 0.2763671875
vt 0.80126953125 0.53271484375
vt 0.8017578125 0.29736328125
vt 0.82080078125 0.29736328125
vt 0.8203125 0.5517578125
vt 0.80126953125 0.53271484375
vt 0.82080078125 0.29736328125
vt 0.80126953125 0.53271484375
vt 0.8203125 0.5517578125
vt 0.60986328125 0.5517578125
vt 0.60986328125 0.53271484375
vt 0.80126953125 0.53271484375
vt 0.60986328125 0.5517578125
vt 0.9951171875 0.41064453125
vt 0.9951171875 0.3896484375
vt 0.97607421875 0.41064453125
vt 0.9951171875 0.3896484375
vt 0.97607421875 0.3896484375
vt 0.97607421875 0.41064453125
vt 0.9951171875 0.3896484375
vt 0.99560546875 0.36865234375
vt 0.97607421875 0.3896484375
vt 0.99560546875 0.36865234375
vt 0.97607421875 0.36865234375
vt 0.97607421875 0.3896484375
vt 0.99560546875 0.36865234375
vt 0.99560546875 0.34765625
vt 0.97607421875 0.36865234375
vt 0.99560546875 0.34765625
vt 0.97607421875 0.34765625
vt 0.97607421875 0.36865234375
vt 0.99560546875 0.34765625
vt 0.9951171875 0.09326171875
vt 0.97607421875 0.34765625
vt 0.9951171875 0.09326171875
vt 0.9755859375 0.1123046875
vt 0.97607421875 0.34765625
vt 0.9755859375 0.1123046875
vt 0.9951171875 0.09326171875
vt 0.7841796875 0.1123046875
vt 0.9951171875 0.09326171875
vt 0.7841796875 0.09326171875
vt 0.7841796875 0.1123046875
vt 0.98779296875 0.078125
vt 0.98779296875 0.04296875
vt 0.81982421875 0.078125
vt 0.98779296875 0.04296875
vt 0.81982421875 0.04296875
vt 0.81982421875 0.078125
vt 0.81982421875 0.04296875
vt 0.98779296875 0.04296875
vt 0.98779296875 0.00732421875
vt 0.81982421875 0.00732421875
vt 0.81982421875 0.04296875
vt 0.98779296875 0.00732421875
vt 0.252197265625 0.27734375
vt 0.2301025390625 0.2646484375
vt 0.2301025390625 0.23876953125
vt 0.252197265625 0.22607421875
vt 0.252197265625 0.27734375
vt 0.2301025390625 0.23876953125
vt 0.252197265625 0.22607421875
vt 0.2744140625 0.23876953125
vt 0.252197265625 0.27734375
vt 0.2744140625 0.23876953125
vt 0.2744140625 0.2646484375
vt 0.252197265625 0.27734375
vt 0.252197265625 0.27734375
vt 0.2301025390625 0.2646484375
vt 0.2301025390625 0.23876953125
vt 0.252197265625 0.22607421875
vt 0.252197265625 0.27734375
vt 0.2301025390625 0.23876953125
vt 0.252197265625 0.22607421875
vt 0.2744140625 0.23876953125
vt 0.252197265625 0.27734375
vt 0.2744140625 0.23876953125
vt 0.2744140625 0.2646484375
vt 0.252197265625 0.27734375
vt 0.83251953125 0.37744140625
vt 0.83251953125 0.123046875
vt 0.87255859375 0.123046875
vt 0.87255859375 0.37744140625
vt 0.83251953125 0.37744140625
vt 0.87255859375 0.123046875
vt 0.837890625 0.39794921875
vt 0.83251953125 0.37744140625
vt 0.87255859375 0.37744140625
vt 0.87255859375 0.37744140625
vt 0.87255859375 0.123046875
vt 0.91357421875 0.123046875
vt 0.8525390625 0.41259765625
vt 0.837890625 0.39794921875
vt 0.87255859375 0.37744140625
vt 0.91357421875 0.37744140625
vt 0.87255859375 0.37744140625
vt 0.91357421875 0.123046875
vt 0.87255859375 0.41796875
vt 0.8525390625 0.41259765625
vt 0.87255859375 0.37744140625
vt 0.87255859375 0.37744140625
vt 0.91357421875 0.37744140625
vt 0.908203125 0.39794921875
vt 0.87255859375 0.41796875
vt 0.87255859375 0.37744140625
vt 0.89306640625 0.41259765625
vt 0.87255859375 0.37744140625
vt 0.908203125 0.39794921875
vt 0.89306640625 0.41259765625
vt 0.87255859375 0.123046875
vt 0.83251953125 0.123046875
vt 0.83251953125 0.37744140625
vt 0.87255859375 0.37744140625
vt 0.87255859375 0.123046875
vt 0.83251953125 0.37744140625
vt 0.91357421875 0.123046875
vt 0.87255859375 0.123046875
vt 0.87255859375 0.37744140625
vt 0.837890625 0.39794921875
vt 0.87255859375 0.37744140625
vt 0.83251953125 0.37744140625
vt 0.91357421875 0.37744140625
vt 0.91357421875 0.123046875
vt 0.87255859375 0.37744140625
vt 0.8525390625 0.41259765625
vt 0.87255859375 0.37744140625
vt 0.837890625 0.39794921875
vt 0.87255859375 0.37744140625
vt 0.908203125 0.39794921875
vt 0.91357421875 0.37744140625
vt 0.87255859375 0.41796875
vt 0.87255859375 0.37744140625
vt 0.8525390625 0.41259765625
vt 0.87255859375 0.37744140625
vt 0.89306640625 0.41259765625
vt 0.908203125 0.39794921875
vt 0.87255859375 0.41796875
vt 0.89306640625 0.41259765625
vt 0.87255859375 0.37744140625
vt 0.9873046875 0.89434814453125
vt 0.7587890625 0.89434814453125
vt 0.9873046875 0.855224609375
vt 0.7587890625 0.8157958984375
vt 0.9873046875 0.8157958984375
vt 0.9873046875 0.855224609375
vt 0.7587890625 0.89434814453125
vt 0.7587890625 0.855224609375
vt 0.9873046875 0.855224609375
vt 0.7587890625 0.855224609375
vt 0.7587890625 0.8157958984375
vt 0.9873046875 0.855224609375
vt 0.7587890625 0.855224609375
vt 0.7587890625 0.89434814453125
vt 0.7392578125 0.88909912109375
vt 0.7392578125 0.821044921875
vt 0.7587890625 0.8157958984375
vt 0.7587890625 0.855224609375
vt 0.7587890625 0.855224609375
vt 0.7392578125 0.88909912109375
vt 0.724609375 0.874755859375
vt 0.7392578125 0.821044921875
vt 0.7587890625 0.855224609375
vt 0.724609375 0.8353271484375
vt 0.7587890625 0.855224609375
vt 0.724609375 0.874755859375
vt 0.71923828125 0.8551025390625
vt 0.7587890625 0.855224609375
vt 0.71923828125 0.8551025390625
vt 0.724609375 0.8353271484375
vt 0.9873046875 0.89434814453125
vt 0.9873046875 0.855224609375
vt 0.7587890625 0.89434814453125
vt 0.9873046875 0.855224609375
vt 0.9873046875 0.8157958984375
vt 0.7587890625 0.8157958984375
vt 0.9873046875 0.855224609375
vt 0.7587890625 0.855224609375
vt 0.7587890625 0.89434814453125
vt 0.7587890625 0.855224609375
vt 0.9873046875 0.855224609375
vt 0.7587890625 0.8157958984375
vt 0.7587890625 0.855224609375
vt 0.7392578125 0.88909912109375
vt 0.7587890625 0.89434814453125
vt 0.7392578125 0.821044921875
vt 0.7587890625 0.855224609375
vt 0.7587890625 0.8157958984375
vt 0.7587890625 0.855224609375
vt 0.724609375 0.874755859375
vt 0.7392578125 0.88909912109375
vt 0.7392578125 0.821044921875
vt 0.724609375 0.8353271484375
vt 0.7587890625 0.855224609375
vt 0.7587890625 0.855224609375
vt 0.71923828125 0.8551025390625
vt 0.724609375 0.874755859375
vt 0.7587890625 0.855224609375
vt 0.724609375 0.8353271484375
vt 0.71923828125 0.8551025390625
vn 0.36778873205184937 0.929909348487854 -2.171072810597252e-05
vn 0.18394698202610016 0.46494606137275696 -0.8660188913345337
vn -0.2757735550403595 0.9612226486206055 1.2496710155573965e-07
vn -0.42148974537849426 0.5927765369415283 -0.6862669587135315
vn -0.18383890390396118 -0.46496644616127014 -0.8660309314727783
vn -0.7129450440406799 -0.14408084750175476 -0.6862580180168152
vn -0.36778998374938965 -0.9299089312553406 -2.843582842615433e-05
vn -0.8586840033531189 -0.5125054121017456 1.3113501154293772e-05
vn -0.18392032384872437 -0.4649461507797241 0.8660244941711426
vn -0.7129722833633423 -0.14406554400920868 0.6862330436706543
vn 0.18386952579021454 0.4649626910686493 0.8660264015197754
vn -0.4215170443058014 0.5927956104278564 0.6862337589263916
vn 0.3678067922592163 0.929902195930481 -1.6540327578695724e-06
vn 0.18389898538589478 0.46495285630226135 0.8660253882408142
vn 0.8586792349815369 0.5125133395195007 7.79111996962456e-06
vn 0.7129553556442261 0.14407777786254883 0.6862479448318481
vn -0.18389225006103516 -0.4649474024772644 0.8660298585891724
vn 0.4215207099914551 -0.5927858352661133 0.6862398386001587
vn -0.36779478192329407 -0.9299070835113525 6.922841293999227e-06
vn 0.27578482031822205 -0.9612194299697876 -3.645564902399201e-06
vn -0.18389661610126495 -0.46495527029037476 -0.8660246729850769
vn 0.42152437567710876 -0.5927778482437134 -0.6862446069717407
vn 0.18388999998569489 0.4649418890476227 -0.8660332560539246
vn 0.7129582166671753 0.14408154785633087 -0.6862442493438721
vn 0.328934907913208 -0.9443526268005371 2.651354634508607e-06
vn -0.8859121203422546 -0.4638530910015106 -5.655144377669785e-06
vn 0.36625251173973083 -0.8500252962112427 -0.3785710334777832
vn -0.84859299659729 -0.3695281147956848 -0.37860116362571716
vn 0.4681994616985321 -0.5923108458518982 -0.6557112336158752
vn -0.7466493844985962 -0.11179578304290771 -0.6557563543319702
vn 0.5960267782211304 -0.3388013243675232 -0.7279874682426453
vn -0.666528046131134 0.16058355569839478 -0.7279789447784424
vn 0.7492251396179199 0.32452985644340515 -0.5773577690124512
vn -0.39127570390701294 -0.1694803088903427 -0.9045329093933105
vn -0.26007211208343506 -0.6575360298156738 -0.7071130275726318
vn 0.26007187366485596 0.657533586025238 -0.7071154713630676
vn -0.39127954840660095 -0.16948570311069489 0.9045302271842957
vn -0.26007238030433655 -0.6575335264205933 0.7071152329444885
vn -0.9176167845726013 -0.3974662125110626 -3.286629919330153e-07
vn -0.36780086159706116 -0.9299046397209167 -3.4965610211656895e-06
vn 0.2600722312927246 0.6575372219085693 0.7071120142936707
vn 0.7492152452468872 0.3245179355144501 0.5773773789405823
vn 0.3678017556667328 0.9299042820930481 0.0
vn 0.9176183938980103 0.3974626660346985 1.0446311762279947e-06
vn -0.8859128952026367 -0.4638517498970032 2.875484142350615e-06
vn 0.3289305865764618 -0.9443540573120117 -1.6502024664077908e-05
vn 0.36623573303222656 -0.8500221371650696 0.37859439849853516
vn -0.8486104011535645 -0.36950528621673584 0.3785845935344696
vn 0.46815499663352966 -0.5922880172729492 0.6557635068893433
vn -0.7466788291931152 -0.11177560687065125 0.6557262539863586
vn 0.5960232019424438 -0.3388073444366455 0.72798752784729
vn -0.6665328741073608 0.16056248545646667 0.7279790639877319
vn 0.16948655247688293 -0.3912975490093231 0.9045222997665405
vn -0.32452619075775146 0.7492067813873291 0.5773836970329285
vn -0.3245294392108917 0.7492287158966064 -0.5773534774780273
vn -0.3974694311618805 0.9176154732704163 2.2080638473198633e-07
vn -0.8486031889915466 -0.3695217967033386 0.3785848021507263
vn 0.3662416338920593 -0.8500200510025024 0.3785935640335083
vn -0.7466734647750854 -0.1118023619055748 0.655727744102478
vn 0.46817746758461 -0.5923042297363281 0.6557328701019287
vn -0.6665255427360535 0.1605556607246399 0.7279874086380005
vn 0.5960309505462646 -0.3388127386569977 0.7279788255691528
vn -0.8486068248748779 -0.3695145547389984 -0.37858355045318604
vn 0.36624079942703247 -0.8500185608863831 -0.3785976469516754
vn -0.7466714978218079 -0.11180825531482697 -0.6557289958000183
vn 0.4681772291660309 -0.5923047065734863 -0.6557326912879944
vn -0.6665302515029907 0.16055576503276825 -0.7279831171035767
vn 0.5960262417793274 -0.33881446719169617 -0.7279818654060364
vn 0.16947832703590393 -0.39125847816467285 -0.9045407176017761
vn 0.39746764302253723 -0.9176161289215088 -3.286612297870306e-07
vn 0.929904580116272 -0.36780083179473877 -2.327474703633925e-06
vn -0.9299043416976929 0.36780157685279846 2.3048946786730085e-06
vn -0.9299038052558899 0.3678026497364044 1.2041062591450213e-09
vn 0.9299044013023376 -0.36780160665512085 -8.131845561365481e-07
f 1/1/1 2/2/2 3/3/3
f 2/4/2 4/5/4 3/6/3
f 2/7/2 5/8/5 4/9/4
f 5/10/5 6/11/6 4/12/4
f 5/13/5 7/14/7 6/15/6
f 7/16/7 8/17/8 6/18/6
f 7/19/7 9/20/9 8/21/8
f 9/22/9 10/23/10 8/24/8
f 9/25/9 11/26/11 10/27/10
f 11/28/11 12/29/12 10/30/10
f 11/31/11 1/32/1 12/33/12
f 1/34/1 3/35/3 12/36/12
f 13/37/13 14/38/14 15/39/15
f 14/40/14 16/41/16 15/42/15
f 14/43/14 17/44/17 16/45/16
f 17/46/17 18/47/18 16/48/16
f 17/49/17 19/50/19 18/51/18
f 19/52/19 20/53/20 18/54/18
f 19/55/19 21/56/21 20/57/20
f 21/58/21 22/59/22 20/60/20
f 21/61/21 23/62/23 22/63/22
f 23/64/23 24/65/24 22/66/22
f 23/67/23 13/68/13 24/69/24
f 13/70/13 15/71/15 24/72/24
f 25/73/25 26/74/26 27/75/27
f 26/76/26 28/77/28 27/78/27
f 27/79/27 28/80/28 29/81/29
f 28/82/28 30/83/30 29/84/29
f 29/85/29 30/86/30 31/87/31
f 30/88/30 32/89/32 31/90/31
f 31/91/31 32/92/32 33/93/33
f 32/94/32 34/95/34 33/96/33
f 34/97/34 35/98/35 33/99/33
f 35/100/35 36/101/36 33/102/33
f 37/103/37 38/104/38 39/105/39
f 38/106/38 40/107/40 39/108/39
f 34/109/34 39/110/39 40/111/40
f 35/112/35 34/113/34 40/114/40
f 41/115/41 42/116/42 43/117/43
f 42/118/42 44/119/44 43/120/43
f 43/121/43 44/122/44 36/123/36
f 44/124/44 33/125/33 36/126/36
f 45/127/45 46/128/46 47/129/47
f 48/130/48 45/131/45 47/132/47
f 48/133/48 47/134/47 49/135/49
f 50/136/50 48/137/48 49/138/49
f 50/139/50 49/140/49 51/141/51
f 52/142/52 50/143/50 51/144/51
f 52/145/52 51/146/51 53/147/53
f 54/148/54 52/149/52 53/150/53
f 41/151/41 54/152/54 53/153/53
f 38/154/38 41/155/41 53/156/53
f 36/157/36 55/158/55 56/159/56
f 43/160/43 36/161/36 56/162/56
f 43/163/43 56/164/56 54/165/54
f 41/166/41 43/167/43 54/168/54
f 57/169/57 26/170/26 25/171/25
f 58/172/58 57/173/57 25/174/25
f 59/175/59 57/176/57 58/177/58
f 60/178/60 59/179/59 58/180/58
f 61/181/61 59/182/59 60/183/60
f 62/184/62 61/185/61 60/186/60
f 37/187/37 61/188/61 62/189/62
f 42/190/42 37/191/37 62/192/62
f 37/193/37 42/194/42 41/195/41
f 38/196/38 37/197/37 41/198/41
f 45/199/45 63/200/63 46/201/46
f 63/202/63 64/203/64 46/204/46
f 63/205/63 65/206/65 64/207/64
f 65/208/65 66/209/66 64/210/64
f 65/211/65 67/212/67 66/213/66
f 67/214/67 68/215/68 66/216/66
f 67/217/67 55/218/55 68/219/68
f 55/220/55 69/221/69 68/222/68
f 69/223/69 55/224/55 35/225/35
f 55/226/55 36/227/36 35/228/35
f 53/229/53 70/230/70 38/231/38
f 70/232/70 40/233/40 38/234/38
f 40/235/40 70/236/70 69/237/69
f 35/238/35 40/239/40 69/240/69
f 8/241/8 10/242/10 12/243/12
f 3/244/3 8/245/8 12/246/12
f 3/247/3 4/248/4 8/249/8
f 4/250/4 6/251/6 8/252/8
f 20/253/20 22/254/22 24/255/24
f 15/256/15 20/257/20 24/258/24
f 15/259/15 16/260/16 20/261/20
f 16/262/16 18/263/18 20/264/20
f 31/265/31 33/266/33 44/267/44
f 71/268/71 31/269/31 44/270/44
f 29/271/29 31/272/31 71/273/71
f 71/274/71 44/275/44 42/276/42
f 27/277/27 29/278/29 71/279/71
f 62/280/62 71/281/71 42/282/42
f 25/283/25 27/284/27 71/285/71
f 71/286/71 62/287/62 60/288/60
f 25/289/25 71/290/71 58/291/58
f 71/292/71 60/293/60 58/294/58
f 56/295/56 55/296/55 67/297/67
f 72/298/72 56/299/56 67/300/67
f 54/301/54 56/302/56 72/303/72
f 65/304/65 72/305/72 67/306/67
f 52/307/52 54/308/54 72/309/72
f 63/310/63 72/311/72 65/312/65
f 72/313/72 50/314/50 52/315/52
f 45/316/45 72/317/72 63/318/63
f 72/319/72 48/320/48 50/321/50
f 45/322/45 48/323/48 72/324/72
f 34/325/34 32/326/32 39/327/39
f 61/328/61 37/329/37 39/330/39
f 32/331/32 73/332/73 39/333/39
f 73/334/73 61/335/61 39/336/39
f 73/337/73 32/338/32 30/339/30
f 59/340/59 61/341/61 73/342/73
f 73/343/73 30/344/30 28/345/28
f 59/346/59 73/347/73 57/348/57
f 73/349/73 28/350/28 26/351/26
f 73/352/73 26/353/26 57/354/57
f 69/355/69 70/356/70 68/357/68
f 70/358/70 53/359/53 51/360/51
f 70/361/70 74/362/74 68/363/68
f 74/364/74 70/365/70 51/366/51
f 74/367/74 66/368/66 68/369/68
f 49/370/49 74/371/74 51/372/51
f 74/373/74 64/374/64 66/375/66
f 49/376/49 47/377/47 74/378/74
f 74/379/74 46/380/46 64/381/64
f 74/382/74 47/383/47 46/384/46
