# Exported by Lightwave Blender addon
v 1620.5833740234375 2998.46533203125 1066.685546875
v 1620.5833740234375 2998.46533203125 886.9805908203125
v 1591.85400390625 2949.991943359375 886.9805908203125
v 1591.85400390625 2949.991943359375 1066.685546875
v 1562.238525390625 2900.023193359375 1066.685546875
v 1591.135986328125 2948.780517578125 1066.685546875
v 1591.13623046875 2948.78076171875 886.9805908203125
v 1562.238525390625 2900.023193359375 886.9805908203125
vt 0.251220703125 0.9884872436523438
vt 0.251220703125 0.22509765625
vt 0.497802734375 0.22509765625
vt 0.497802734375 0.22509765625
vt 0.497802734375 0.9884872436523438
vt 0.251220703125 0.9884872436523438
vt 0.2491455078125 0.9884872436523438
vt 0.00260162353515625 0.9884872436523438
vt 0.00260162353515625 0.22509765625
vt 0.00260162353515625 0.22509765625
vt 0.2491455078125 0.22509765625
vt 0.2491455078125 0.9884872436523438
vn -0.8602572679519653 0.5098601579666138 0.0
vn -0.8602572679519653 0.5098601579666138 0.0
vn -0.8602572679519653 0.5098601579666138 0.0
vn -0.8602572679519653 0.5098601579666138 0.0
vn -0.8602586388587952 0.5098579525947571 -3.8346072983586055e-07
vn -0.8602587580680847 0.5098576545715332 -4.7604225983377546e-07
vn -0.860258162021637 0.5098586678504944 -9.258113919941025e-08
vn -0.8602579832077026 0.5098589062690735 0.0
f 1/1/1 2/2/2 3/3/3
f 3/4/3 4/5/4 1/6/1
f 5/7/5 6/8/6 7/9/7
f 7/10/7 8/11/8 5/12/5
