# Exported by Lightwave Blender addon
v 261.4256591796875 -1395.5706787109375 635.0213012695312
v 339.235107421875 -1427.387451171875 635.0213623046875
v 340.63262939453125 -1423.9698486328125 634.4147338867188
v 262.82318115234375 -1392.1529541015625 634.4146728515625
v 340.8193359375 -1423.5130615234375 634.3336791992188
v 263.0098876953125 -1391.6961669921875 634.3336181640625
v 262.9542236328125 -1391.83251953125 631.1573486328125
v 340.763671875 -1423.6494140625 631.1574096679688
v 340.57684326171875 -1424.1063232421875 631.0779418945312
v 262.76739501953125 -1392.2894287109375 631.0779418945312
v 339.15155029296875 -1427.5919189453125 630.4718627929688
v 261.34210205078125 -1395.7750244140625 630.4718627929688
v 340.81060791015625 -1423.5345458984375 633.8341674804688
v 263.00115966796875 -1391.7176513671875 633.8341674804688
v 340.77239990234375 -1423.6278076171875 631.6568603515625
v 262.96295166015625 -1391.81103515625 631.6568603515625
vt 0.41015625 0.52587890625
vt -0.00998687744140625 0.52587890625
vt -0.00998687744140625 0.507568359375
vt 0.41015625 0.507568359375
vt 0.41015625 0.52587890625
vt -0.00998687744140625 0.507568359375
vt 0.41015625 0.507568359375
vt -0.00998687744140625 0.507568359375
vt -0.00998687744140625 0.505126953125
vt 0.41015625 0.505126953125
vt 0.41015625 0.507568359375
vt -0.00998687744140625 0.505126953125
vt 0.58935546875 0.505859375
vt 1.009765625 0.505859375
vt 1.009765625 0.50830078125
vt 0.58935546875 0.50830078125
vt 0.58935546875 0.505859375
vt 1.009765625 0.50830078125
vt 0.58935546875 0.50830078125
vt 1.009765625 0.50830078125
vt 1.009765625 0.527099609375
vt 0.58935546875 0.527099609375
vt 0.58935546875 0.50830078125
vt 1.009765625 0.527099609375
vt 0.58935546875 0.3798828125
vt 1.009765625 0.3798828125
vt 1.009765625 0.38232421875
vt 0.58935546875 0.38232421875
vt 0.58935546875 0.3798828125
vt 1.009765625 0.38232421875
vt 0.58935546875 0.38232421875
vt 1.009765625 0.38232421875
vt 1.009765625 0.3935546875
vt 0.58935546875 0.3935546875
vt 0.58935546875 0.38232421875
vt 1.009765625 0.3935546875
vt 0.58935546875 0.3935546875
vt 1.009765625 0.3935546875
vt 1.009765625 0.39599609375
vt 0.58935546875 0.39599609375
vt 0.58935546875 0.3935546875
vt 1.009765625 0.39599609375
vn 0.061358753591775894 0.1500571221113205 0.9867714643478394
vn 0.06136034429073334 0.15006156265735626 0.9867706894874573
vn 0.061352889984846115 0.1500430554151535 0.9867740273475647
vn 0.061352089047431946 0.15004082024097443 0.9867743849754333
vn 0.2941078245639801 0.7192533612251282 0.629424512386322
vn 0.2941139042377472 0.7192683219909668 0.6294044852256775
vn 0.2823382019996643 0.690468966960907 -0.6659862995147705
vn 0.2823033332824707 0.6903848052024841 -0.666088342666626
vn 0.06014958769083023 0.14709720015525818 -0.9872913360595703
vn 0.06012682616710663 0.14704249799251556 -0.9873009920120239
vn 0.06014186516404152 0.14707927405834198 -0.987294614315033
vn 0.06014186516404152 0.14707928895950317 -0.987294614315033
vn 0.37808167934417725 0.924613356590271 -0.04630686715245247
vn 0.3780805468559265 0.9246124029159546 -0.046335116028785706
vn 0.37807905673980713 0.9246087074279785 -0.046422868967056274
vn 0.3780805766582489 0.9246124625205994 -0.04633314907550812
f 1/1/1 2/2/2 3/3/3
f 4/4/4 1/5/1 3/6/3
f 4/7/4 3/8/3 5/9/5
f 6/10/6 4/11/4 5/12/5
f 7/13/7 8/14/8 9/15/9
f 10/16/10 7/17/7 9/18/9
f 10/19/10 9/20/9 11/21/11
f 12/22/12 10/23/10 11/24/11
f 6/25/6 5/26/5 13/27/13
f 14/28/14 6/29/6 13/30/13
f 14/31/14 13/32/13 15/33/15
f 16/34/16 14/35/14 15/36/15
f 16/37/16 15/38/15 8/39/8
f 7/40/7 16/41/16 8/42/8
