# Exported by Lightwave Blender addon
v 242.27825927734375 1031.5018310546875 540.0186157226562
v 242.27825927734375 1031.5018310546875 498.68023681640625
v 198.03965759277344 951.4359741210938 540.0186157226562
v 198.03965759277344 951.43603515625 498.6802062988281
vt 0.0013761520385742188 0.2392578125
vt 0.0013761520385742188 0.00732421875
vt 0.57177734375 0.2392578125
vt 0.0013761520385742188 0.00732421875
vt 0.57177734375 0.00732421875
vt 0.57177734375 0.2392578125
vn -0.8752800822257996 0.4836164712905884 0.0
vn -0.87527996301651 0.483616441488266 1.9293867126179975e-07
vn -0.87527996301651 0.4836166799068451 5.211095412960276e-07
vn -0.87527996301651 0.48361676931381226 7.140483830880839e-07
f 1/1/1 2/2/2 3/3/3
f 2/4/2 4/5/4 3/6/3
