# Exported by Lightwave Blender addon
v -118.877685546875 439.01361083984375 416.6864318847656
v -109.07428741455078 433.7281188964844 407.3409423828125
v -126.61239624023438 424.6675720214844 416.6864318847656
v -116.8089828491211 419.3820495605469 407.3409423828125
vt 0.0 1.0
vt 0.0 0.0
vt 1.0 1.0
vt 0.0 0.0
vt 1.0 0.0
vt 1.0 1.0
vn -0.5657942295074463 0.3050496578216553 -0.7660427093505859
vn -0.5657942295074463 0.3050490617752075 -0.7660431265830994
vn -0.5657942295074463 0.30504894256591797 -0.7660431861877441
vn -0.565794050693512 0.3050483167171478 -0.7660435438156128
f 1/1/1 2/2/2 3/3/3
f 2/4/2 4/5/4 3/6/3
