# Exported by Lightwave Blender addon
v 419.83642578125 -256.8240051269531 548.8751220703125
v 419.87677001953125 -256.7201232910156 550.7334594726562
v 524.902587890625 -297.6558837890625 548.8750610351562
v 524.9429931640625 -297.552001953125 550.7334594726562
v 419.81134033203125 -256.88848876953125 551.6834106445312
v 524.8775634765625 -297.7203674316406 551.6834106445312
v 419.5420837402344 -257.581298828125 552.4701538085938
v 524.6082763671875 -298.4132080078125 552.4700927734375
v 523.89013671875 -300.2611083984375 553.0780029296875
v 418.8239440917969 -259.42919921875 553.0780639648438
v 523.1719970703125 -301.5655212402344 552.6842041015625
v 418.1058044433594 -260.733642578125 552.6842041015625
v 522.9027709960938 -302.59991455078125 551.8233032226562
v 417.8365478515625 -261.76800537109375 551.8233642578125
v 417.7711181640625 -262.1383056640625 550.7334594726562
v 522.8372802734375 -302.9701843261719 550.7334594726562
v 522.8372802734375 -302.97021484375 548.8751831054688
v 417.7710876464844 -262.1383056640625 548.875244140625
v 417.8691101074219 -261.8861083984375 548.723876953125
v 522.935302734375 -302.718017578125 548.723876953125
v 524.8013305664062 -297.9165344238281 548.723876953125
v 419.735107421875 -257.08465576171875 548.7239379882812
vt 0.23583984375 0.36962890625
vt 0.23583984375 0.35888671875
vt 0.8974609375 0.36962890625
vt 0.23583984375 0.35888671875
vt 0.8974609375 0.35888671875
vt 0.8974609375 0.36962890625
vt 0.23583984375 0.35888671875
vt 0.23583984375 0.353515625
vt 0.8974609375 0.35888671875
vt 0.23583984375 0.353515625
vt 0.8974609375 0.353515625
vt 0.8974609375 0.35888671875
vt 0.23583984375 0.353515625
vt 0.23583984375 0.34814453125
vt 0.8974609375 0.353515625
vt 0.23583984375 0.34814453125
vt 0.8974609375 0.34814453125
vt 0.8974609375 0.353515625
vt 0.8974609375 0.34130859375
vt 0.8974609375 0.34814453125
vt 0.23583984375 0.34814453125
vt 0.23583984375 0.34130859375
vt 0.8974609375 0.34130859375
vt 0.23583984375 0.34814453125
vt 0.8974609375 0.3359375
vt 0.8974609375 0.34130859375
vt 0.23583984375 0.34130859375
vt 0.23583984375 0.3359375
vt 0.8974609375 0.3359375
vt 0.23583984375 0.34130859375
vt 0.8974609375 0.330078125
vt 0.8974609375 0.3359375
vt 0.23583984375 0.3359375
vt 0.23583984375 0.330078125
vt 0.8974609375 0.330078125
vt 0.23583984375 0.3359375
vt 0.8974609375 0.330078125
vt 0.23583984375 0.330078125
vt 0.23583984375 0.32373046875
vt 0.8974609375 0.32373046875
vt 0.8974609375 0.330078125
vt 0.23583984375 0.32373046875
vt 0.8974609375 0.31298828125
vt 0.8974609375 0.32373046875
vt 0.23583984375 0.32373046875
vt 0.23583984375 0.31298828125
vt 0.8974609375 0.31298828125
vt 0.23583984375 0.32373046875
vt 0.23583984375 0.31298828125
vt 0.23583984375 0.31201171875
vt 0.8974609375 0.31298828125
vt 0.23583984375 0.31201171875
vt 0.8974609375 0.31201171875
vt 0.8974609375 0.31298828125
vt 0.8974609375 0.29541015625
vt 0.8974609375 0.31201171875
vt 0.23583984375 0.31201171875
vt 0.23583984375 0.29541015625
vt 0.8974609375 0.29541015625
vt 0.23583984375 0.31201171875
vt 0.8974609375 0.29541015625
vt 0.23583984375 0.29541015625
vt 0.23583984375 0.29443359375
vt 0.8974609375 0.29443359375
vt 0.8974609375 0.29541015625
vt 0.23583984375 0.29443359375
vn 0.305446594953537 0.7859578728675842 -0.5375618934631348
vn 0.36149492859840393 0.9301775693893433 0.06396090984344482
vn 0.3054463863372803 0.7859575748443604 -0.5375622510910034
vn 0.36149492859840393 0.9301778674125671 0.06395699083805084
vn 0.32255467772483826 0.8299789428710938 0.4550752639770508
vn 0.32254984974861145 0.8299657106399536 0.4551028609275818
vn 0.19108112156391144 0.4916779696941376 0.8495532870292664
vn 0.19107218086719513 0.49165409803390503 0.8495691418647766
vn 0.011077635921537876 0.028502803295850754 0.9995323419570923
vn 0.002590816468000412 0.00666572293266654 0.9999743700027466
vn -0.16361120343208313 -0.4209953844547272 0.8921851515769958
vn -0.16528187692165375 -0.42529410123825073 0.8898352384567261
vn -0.3002640902996063 -0.7726216912269592 0.5593720078468323
vn -0.294409841299057 -0.7575587034225464 0.5826042294502258
vn -0.35723185539245605 -0.9192078709602356 0.1656571477651596
vn -0.357622355222702 -0.92021244764328 0.1591077744960785
vn -0.31245651841163635 -0.803994357585907 -0.5059288144111633
vn -0.31247368454933167 -0.8040375709533691 -0.5058494806289673
vn -0.09138042479753494 -0.2351331263780594 -0.9676580429077148
vn -0.09135008603334427 -0.23505650460720062 -0.9676795601844788
vn 0.08884942531585693 0.22862276434898376 -0.9694520831108093
vn 0.0888482928276062 0.228620707988739 -0.9694527387619019
f 1/1/1 2/2/2 3/3/3
f 2/4/2 4/5/4 3/6/3
f 2/7/2 5/8/5 4/9/4
f 5/10/5 6/11/6 4/12/4
f 5/13/5 7/14/7 6/15/6
f 7/16/7 8/17/8 6/18/6
f 9/19/9 8/20/8 7/21/7
f 10/22/10 9/23/9 7/24/7
f 11/25/11 9/26/9 10/27/10
f 12/28/12 11/29/11 10/30/10
f 13/31/13 11/32/11 12/33/12
f 14/34/14 13/35/13 12/36/12
f 13/37/13 14/38/14 15/39/15
f 16/40/16 13/41/13 15/42/15
f 17/43/17 16/44/16 15/45/15
f 18/46/18 17/47/17 15/48/15
f 18/49/18 19/50/19 17/51/17
f 19/52/19 20/53/20 17/54/17
f 21/55/21 20/56/20 19/57/19
f 22/58/22 21/59/21 19/60/19
f 21/61/21 22/62/22 1/63/1
f 3/64/3 21/65/21 1/66/1
