# Exported by Lightwave Blender addon
v 1126.074951171875 -547.0576171875 742.0863647460938
v 1118.5711669921875 -565.9061279296875 742.0863647460938
v 4.249161243438721 -103.49583435058594 742.0859985351562
v -11.727156639099121 -120.19806671142578 742.0859375
v 1126.17431640625 -546.8521118164062 777.0894775390625
v 7.502335071563721 -106.51261901855469 777.0891723632812
v 1114.735107421875 -575.6023559570312 777.0894775390625
v -14.887190818786621 -124.83418273925781 777.089111328125
v 1118.2705078125 -566.6619262695312 761.5989990234375
v 1114.6795654296875 -575.7385864257812 768.433349609375
v -12.289534568786621 -120.78596496582031 761.5986938476562
v -15.231245994567871 -124.94575500488281 768.253662109375
v 275.84942626953125 1097.921875 777.0899047851562
v 249.2360382080078 1112.43115234375 777.0899047851562
v -172.70164489746094 275.3197326660156 777.0892944335938
v -202.19358825683594 274.5707092285156 777.0892944335938
v -196.25413513183594 274.1833801269531 761.5988159179688
v -202.45494079589844 274.5201721191406 768.3029174804688
v 257.6796875 1107.8275146484375 761.5994873046875
v 249.1070098876953 1112.50146484375 768.4338989257812
v -196.17930603027344 274.1544494628906 742.899658203125
v 257.6796875 1107.8277587890625 742.9002075195312
v -12.289534568786621 -120.78596496582031 742.8994140625
v 1118.270263671875 -566.6619262695312 742.8998413085938
v -15.516768455505371 -125.34941101074219 776.2756958007812
v 1114.4344482421875 -576.3582153320312 776.2760009765625
v -15.516768455505371 -125.34944152832031 769.7130737304688
v 1114.4344482421875 -576.3582153320312 769.71337890625
v 248.5218048095703 1112.8204345703125 776.2764282226562
v -203.00694274902344 274.5500793457031 776.2758178710938
v 248.52186584472656 1112.820556640625 769.7138061523438
v -203.00694274902344 274.5500793457031 769.7131958007812
v -172.78123474121094 274.0144348144531 742.086181640625
v -195.36253356933594 274.1482849121094 742.086181640625
v 275.849609375 1097.921875 742.0867309570312
v 258.39398193359375 1107.4384765625 742.0867309570312
v 1126.0848388671875 -547.0374145507812 769.7130737304688
v 1126.074951171875 -547.057861328125 768.08642578125
v 1126.074951171875 -547.057861328125 761.5989990234375
v 275.84930419921875 1097.922119140625 761.5994873046875
v 275.849365234375 1097.922119140625 768.0869140625
v 275.849365234375 1097.922119140625 769.7138061523438
v -13.526106834411621 -119.62196350097656 761.5986938476562
v -13.525984764099121 -119.62193298339844 742.8994140625
v -196.23033142089844 272.5228576660156 742.899658203125
v -196.30503845214844 272.5519104003906 761.5988159179688
v -16.468549728393555 -123.77934265136719 768.2536010742188
v -202.50047302246094 272.8877258300781 768.3026733398438
v 6.261307239532471 -105.35115051269531 777.0891723632812
v -16.124555587768555 -123.66780090332031 777.089111328125
v -202.23899841308594 272.9383850097656 777.0892944335938
v -172.74888610839844 273.6905212402344 777.0892944335938
v -172.83006286621094 272.3840026855469 742.086181640625
v -195.41355895996094 272.5168151855469 742.086181640625
v -12.963789939880371 -119.03407287597656 742.0859375
v 3.0106358528137207 -102.33204650878906 742.0859985351562
v -16.754072189331055 -124.18287658691406 776.2756958007812
v -203.05223083496094 272.9176330566406 776.2758178710938
v -203.05223083496094 272.9176330566406 769.7131958007812
v -16.754072189331055 -124.18290710449219 769.7130737304688
vt 6.0859375 0.19091796875
vt 6.0859375 0.29248046875
vt 0.057342529296875 0.19140625
vt 6.0859375 0.29248046875
vt 0.0137939453125 0.298828125
vt 0.057342529296875 0.19140625
vt 5.99609375 0.92950439453125
vt -0.013397216796875 0.8902587890625
vt 5.99609375 0.77490234375
vt -0.013397216796875 0.8902587890625
vt -0.0831298828125 0.7635498046875
vt 5.99609375 0.77490234375
vt 6.02734375 0.642822265625
vt 6.02734375 0.701904296875
vt -0.04534912109375 0.648193359375
vt 6.02734375 0.701904296875
vt -0.0513916015625 0.68896484375
vt -0.04534912109375 0.648193359375
vt -7.203125 0.9207763671875
vt -7.203125 0.769287109375
vt -2.45703125 0.88916015625
vt -7.203125 0.769287109375
vt -2.384765625 0.760986328125
vt -2.45703125 0.88916015625
vt -2.400390625 0.630126953125
vt -2.38671875 0.67333984375
vt -7.20703125 0.622314453125
vt -2.38671875 0.67333984375
vt -7.20703125 0.681396484375
vt -7.20703125 0.622314453125
vt -2.3984375 0.49462890625
vt -2.3984375 0.588134765625
vt -7.203125 0.48681640625
vt -2.3984375 0.588134765625
vt -7.203125 0.580078125
vt -7.203125 0.48681640625
vt 5.9609375 0.5927734375
vt -0.111328125 0.59814453125
vt -0.1114501953125 0.5048828125
vt 5.9609375 0.4990234375
vt 5.9609375 0.5927734375
vt -0.1114501953125 0.5048828125
vt -0.1114501953125 0.5048828125
vt -0.10986328125 0.49951171875
vt 5.9609375 0.4990234375
vt -0.10986328125 0.49951171875
vt 5.9609375 0.4931640625
vt 5.9609375 0.4990234375
vt 6.0078125 0.42724609375
vt -0.07110595703125 0.41552734375
vt -0.07305908203125 0.41015625
vt 6.0078125 0.42138671875
vt 6.0078125 0.42724609375
vt -0.07305908203125 0.41015625
vt 6.0078125 0.42138671875
vt -0.07305908203125 0.41015625
vt -0.072998046875 0.376953125
vt 6.0078125 0.38916015625
vt 6.0078125 0.42138671875
vt -0.072998046875 0.376953125
vt 6.0078125 0.38916015625
vt -0.072998046875 0.376953125
vt -0.0723876953125 0.369140625
vt 6.0078125 0.3818359375
vt 6.0078125 0.38916015625
vt -0.0723876953125 0.369140625
vt -2.388671875 0.41259765625
vt -7.20703125 0.4208984375
vt -7.20703125 0.4150390625
vt -2.38671875 0.4072265625
vt -2.388671875 0.41259765625
vt -7.20703125 0.4150390625
vt -2.38671875 0.4072265625
vt -7.20703125 0.4150390625
vt -7.20703125 0.38232421875
vt -2.38671875 0.37451171875
vt -2.38671875 0.4072265625
vt -7.20703125 0.38232421875
vt -2.38671875 0.37451171875
vt -7.20703125 0.38232421875
vt -7.20703125 0.375
vt -2.38671875 0.3671875
vt -2.38671875 0.37451171875
vt -7.20703125 0.375
vt -2.455078125 0.19091796875
vt -2.400390625 0.29052734375
vt -7.20703125 0.18310546875
vt -2.400390625 0.29052734375
vt -7.20703125 0.28271484375
vt -7.20703125 0.18310546875
vt -7.20703125 0.28271484375
vt -2.400390625 0.29052734375
vt -2.3984375 0.29638671875
vt -7.20703125 0.2880859375
vt -7.20703125 0.28271484375
vt -2.3984375 0.29638671875
vt 0.0225982666015625 0.1142578125
vt 0.0185394287109375 0.1103515625
vt 0.0185394287109375 0.0771484375
vt 0.17724609375 0.1142578125
vt 0.0225982666015625 0.1142578125
vt 0.0185394287109375 0.0771484375
vt 0.17626953125 0.0771484375
vt 0.17724609375 0.1142578125
vt 0.0185394287109375 0.0771484375
vt 0.17626953125 0.0771484375
vt 0.0185394287109375 0.0771484375
vt 0.0218658447265625 0.07080078125
vt 0.1761474609375 0.0693359375
vt 0.17626953125 0.0771484375
vt 0.0218658447265625 0.07080078125
vt 0.1761474609375 0.0693359375
vt 0.0218658447265625 0.07080078125
vt 0.0706787109375 0.03662109375
vt 0.1761474609375 0.03662109375
vt 0.1761474609375 0.0693359375
vt 0.0706787109375 0.03662109375
vt 0.1761474609375 0.03662109375
vt 0.0706787109375 0.03662109375
vt 0.0748291015625 -0.060546875
vt 0.17626953125 -0.060546875
vt 0.1761474609375 0.03662109375
vt 0.0748291015625 -0.060546875
vt 0.0706787109375 0.03662109375
vt 0.07073974609375 -0.056640625
vt 0.0748291015625 -0.060546875
vt 0.05462646484375 -0.060546875
vt 0.058685302734375 -0.056640625
vt 0.05877685546875 0.03662109375
vt -0.044769287109375 -0.060546875
vt 0.05462646484375 -0.060546875
vt 0.05877685546875 0.03662109375
vt -0.044677734375 0.03662109375
vt -0.044769287109375 -0.060546875
vt 0.05877685546875 0.03662109375
vt -0.044677734375 0.03662109375
vt 0.05877685546875 0.03662109375
vt 0.10760498046875 0.07080078125
vt -0.044647216796875 0.0693359375
vt -0.044677734375 0.03662109375
vt 0.10760498046875 0.07080078125
vt -0.044647216796875 0.0693359375
vt 0.10760498046875 0.07080078125
vt 0.11090087890625 0.0771484375
vt -0.044647216796875 0.0771484375
vt -0.044647216796875 0.0693359375
vt 0.11090087890625 0.0771484375
vt -0.044647216796875 0.0771484375
vt 0.11090087890625 0.0771484375
vt 0.10687255859375 0.1142578125
vt -0.044647216796875 0.1142578125
vt -0.044647216796875 0.0771484375
vt 0.10687255859375 0.1142578125
vt 0.11090087890625 0.0771484375
vt 0.11090087890625 0.1103515625
vt 0.10687255859375 0.1142578125
vt -0.1151123046875 0.50390625
vt -0.115478515625 0.597412109375
vt -0.12396240234375 0.597412109375
vt -0.12359619140625 0.50390625
vt -0.1151123046875 0.50390625
vt -0.12396240234375 0.597412109375
vt -0.12359619140625 0.50390625
vt -0.12396240234375 0.597412109375
vt -2.28515625 0.49462890625
vt -0.12396240234375 0.597412109375
vt -2.287109375 0.587890625
vt -2.28515625 0.49462890625
vt -2.287109375 0.587890625
vt -2.294921875 0.587646484375
vt -2.28515625 0.49462890625
vt -2.294921875 0.587646484375
vt -2.29296875 0.494140625
vt -2.28515625 0.49462890625
vt -0.12384033203125 0.6357421875
vt -0.111328125 0.67578125
vt -0.11962890625 0.677490234375
vt -0.132080078125 0.6376953125
vt -0.12384033203125 0.6357421875
vt -0.11962890625 0.677490234375
vt -0.132080078125 0.6376953125
vt -0.11962890625 0.677490234375
vt -2.294921875 0.629150390625
vt -0.11962890625 0.677490234375
vt -2.30859375 0.67236328125
vt -2.294921875 0.629150390625
vt -2.30859375 0.67236328125
vt -2.31640625 0.669921875
vt -2.294921875 0.629150390625
vt -2.31640625 0.669921875
vt -2.302734375 0.626708984375
vt -2.294921875 0.629150390625
vt -0.10845947265625 0.7664794921875
vt -0.1441650390625 0.90667724609375
vt -0.1519775390625 0.90350341796875
vt -0.11639404296875 0.763427734375
vt -0.10845947265625 0.7664794921875
vt -0.1519775390625 0.90350341796875
vt -0.11639404296875 0.763427734375
vt -0.1519775390625 0.90350341796875
vt -2.306640625 0.7584228515625
vt -0.1519775390625 0.90350341796875
vt -2.24609375 0.89361572265625
vt -2.306640625 0.7584228515625
vt -2.24609375 0.89361572265625
vt -2.25390625 0.89727783203125
vt -2.306640625 0.7584228515625
vt -2.25390625 0.89727783203125
vt -2.3125 0.7620849609375
vt -2.306640625 0.7584228515625
vt -2.2734375 0.28759765625
vt -2.224609375 0.18505859375
vt -2.216796875 0.18896484375
vt -2.265625 0.291015625
vt -2.2734375 0.28759765625
vt -2.216796875 0.18896484375
vt -2.2734375 0.28759765625
vt -2.265625 0.291015625
vt -2.275390625 0.29296875
vt -2.265625 0.291015625
vt -2.267578125 0.29638671875
vt -2.275390625 0.29296875
vt -2.267578125 0.29638671875
vt -2.265625 0.291015625
vt -0.103271484375 0.3037109375
vt -0.10491943359375 0.29833984375
vt -2.265625 0.291015625
vt -2.216796875 0.18896484375
vt -2.265625 0.291015625
vt -0.10491943359375 0.29833984375
vt -0.103271484375 0.3037109375
vt -0.146484375 0.1904296875
vt -0.10491943359375 0.29833984375
vt -2.216796875 0.18896484375
vt -0.146484375 0.1904296875
vt -0.1385498046875 0.18701171875
vt -0.10491943359375 0.29833984375
vt -0.1385498046875 0.18701171875
vt -0.0970458984375 0.29541015625
vt -0.10491943359375 0.29833984375
vt -0.10491943359375 0.29833984375
vt -0.0970458984375 0.29541015625
vt -0.103271484375 0.3037109375
vt -0.0970458984375 0.29541015625
vt -0.09515380859375 0.30078125
vt -0.103271484375 0.3037109375
vt -0.12005615234375 0.412109375
vt -0.1201171875 0.41796875
vt -0.1290283203125 0.41748046875
vt -0.1285400390625 0.412109375
vt -0.12005615234375 0.412109375
vt -0.1290283203125 0.41748046875
vt -0.11981201171875 0.37890625
vt -0.12005615234375 0.412109375
vt -0.1285400390625 0.412109375
vt -0.1285400390625 0.412109375
vt -0.1290283203125 0.41748046875
vt -2.326171875 0.4072265625
vt -0.1290283203125 0.41748046875
vt -2.326171875 0.41259765625
vt -2.326171875 0.4072265625
vt -2.326171875 0.4072265625
vt -2.326171875 0.41259765625
vt -2.333984375 0.41357421875
vt -2.333984375 0.40771484375
vt -2.326171875 0.4072265625
vt -2.333984375 0.41357421875
vt -2.326171875 0.4072265625
vt -2.333984375 0.40771484375
vt -2.326171875 0.37451171875
vt -0.1285400390625 0.412109375
vt -2.326171875 0.4072265625
vt -2.326171875 0.37451171875
vt -2.333984375 0.40771484375
vt -2.333984375 0.37451171875
vt -2.326171875 0.37451171875
vt -0.1282958984375 0.37890625
vt -0.11981201171875 0.37890625
vt -0.1285400390625 0.412109375
vt -0.1282958984375 0.37890625
vt -0.1285400390625 0.412109375
vt -2.326171875 0.37451171875
vt -0.12054443359375 0.37109375
vt -0.11981201171875 0.37890625
vt -0.1282958984375 0.37890625
vt -0.1292724609375 0.37158203125
vt -0.12054443359375 0.37109375
vt -0.1282958984375 0.37890625
vt -0.1292724609375 0.37158203125
vt -0.1282958984375 0.37890625
vt -2.326171875 0.3671875
vt -0.1282958984375 0.37890625
vt -2.326171875 0.37451171875
vt -2.326171875 0.3671875
vt -2.326171875 0.3671875
vt -2.326171875 0.37451171875
vt -2.333984375 0.37451171875
vt -2.333984375 0.36669921875
vt -2.326171875 0.3671875
vt -2.333984375 0.37451171875
vn 0.6574460864067078 -0.2617359459400177 -0.7065825462341309
vn 0.4763757884502411 -0.508701741695404 -0.7171391844749451
vn 1.532312012386683e-06 2.1719902179029305e-06 -1.0
vn -0.22158633172512054 -0.36441126465797424 -0.9044909477233887
vn 0.6525336503982544 -0.25933122634887695 0.712002158164978
vn -1.2452408100216417e-06 -1.7866753978523775e-06 0.9999999403953552
vn 0.4755430221557617 -0.5092014670372009 0.7173372507095337
vn -0.22297105193138123 -0.37391403317451477 0.9002622365951538
vn 0.584976077079773 -0.7682581543922424 -0.25996628403663635
vn 0.40145570039749146 -0.7694187760353088 -0.4968181252479553
vn -0.5044042468070984 -0.7965040802955627 -0.3334031403064728
vn -0.47699588537216187 -0.7474157214164734 -0.46243342757225037
vn 0.33847275376319885 0.6208377480506897 0.7071044445037842
vn 0.03957632929086685 0.6954569220542908 0.7174770832061768
vn 7.923694589351271e-09 -4.269900841791241e-07 1.0
vn -0.4227030277252197 0.12875723838806152 0.8970750570297241
vn -0.8901729583740234 0.25217926502227783 -0.3794704079627991
vn -0.8293221592903137 0.22216729819774628 -0.5127050876617432
vn -0.042583953589200974 0.9648019075393677 -0.25950679183006287
vn -0.18448206782341003 0.8476365804672241 -0.4974721372127533
vn -0.9021997451782227 0.23587627708911896 -0.361106812953949
vn -0.3283858299255371 0.8965889811515808 -0.29713788628578186
vn -0.50373774766922 -0.783538818359375 -0.36375153064727783
vn 0.32161393761634827 -0.8990914821624756 -0.29698294401168823
vn -0.5095809102058411 -0.7823581099510193 0.35811033844947815
vn 0.3200061619281769 -0.8996081352233887 0.2971554398536682
vn -0.5316375494003296 -0.8318306803703308 -0.15943460166454315
vn 0.33987104892730713 -0.9232064485549927 -0.17938116192817688
vn -0.3302710950374603 0.8958442807197571 0.2972944378852844
vn -0.9049279689788818 0.2317708432674408 0.3569142520427704
vn -0.330331414937973 0.9266538023948669 -0.1794266700744629
vn -0.9519450068473816 0.24933424592018127 -0.1778566539287567
vn 2.251521857843386e-09 3.798449768055434e-07 -0.9999999403953552
vn -0.41940805315971375 0.1280992031097412 -0.8987143039703369
vn 0.3384164869785309 0.6207484006881714 -0.7072098255157471
vn 0.040666740387678146 0.6955835819244385 -0.7172933220863342
vn 0.9293264746665955 -0.369255930185318 -0.0015058127464726567
vn 0.9292293787002563 -0.3695027530193329 -0.0007109299185685813
vn 0.9290825128555298 -0.36987248063087463 -3.816807293333113e-06
vn 0.478659063577652 0.878000795841217 -7.716923391853925e-06
vn 0.4786659777164459 0.8779970407485962 -3.021944849024294e-06
vn 0.47866886854171753 0.8779956102371216 1.1103997167083435e-05
vn -0.7753218412399292 -0.5459336042404175 -0.317541241645813
vn -0.7518240809440613 -0.5496009588241577 -0.36427924036979675
vn -0.9142018556594849 -0.1807243973016739 -0.36273083090782166
vn -0.9052956104278564 -0.19919565320014954 -0.3751811385154724
vn -0.7244677543640137 -0.5261539816856384 -0.4453182816505432
vn -0.8432585000991821 -0.1753375083208084 -0.5081061720848083
vn -1.5494060789933428e-06 -1.3845584589944337e-06 1.0
vn -0.342303603887558 -0.24494130909442902 0.9071007966995239
vn -0.42290300130844116 -0.09790567308664322 0.9008705019950867
vn 4.463966085666016e-09 -1.750252920373896e-07 0.9999999403953552
vn 3.336381482199613e-08 3.6182493090564094e-07 -1.0
vn -0.4237326979637146 -0.09836586564779282 -0.9004302620887756
vn -0.3492937386035919 -0.24322979152202606 -0.9048940539360046
vn 2.0355553260742454e-06 1.7074775087166927e-06 -1.0
vn -0.7524269819259644 -0.5468684434890747 0.3671357035636902
vn -0.9140328764915466 -0.1844242662191391 0.36129146814346313
vn -0.9648805260658264 -0.19502303004264832 -0.17598792910575867
vn -0.7972361445426941 -0.5841242074966431 -0.15235938131809235
f 1/1/1 2/2/2 3/3/3
f 2/4/2 4/5/4 3/6/3
f 5/7/5 6/8/6 7/9/7
f 6/10/6 8/11/8 7/12/7
f 9/13/9 10/14/10 11/15/11
f 10/16/10 12/17/12 11/18/11
f 13/19/13 14/20/14 15/21/15
f 14/22/14 16/23/16 15/24/15
f 17/25/17 18/26/18 19/27/19
f 18/28/18 20/29/20 19/30/19
f 21/31/21 17/32/17 22/33/22
f 17/34/17 19/35/19 22/36/22
f 9/37/9 11/38/11 23/39/23
f 24/40/24 9/41/9 23/42/23
f 23/43/23 4/44/4 24/45/24
f 4/46/4 2/47/2 24/48/24
f 7/49/7 8/50/8 25/51/25
f 26/52/26 7/53/7 25/54/25
f 26/55/26 25/56/25 27/57/27
f 28/58/28 26/59/26 27/60/27
f 28/61/28 27/62/27 12/63/12
f 10/64/10 28/65/28 12/66/12
f 16/67/16 14/68/14 29/69/29
f 30/70/30 16/71/16 29/72/29
f 30/73/30 29/74/29 31/75/31
f 32/76/32 30/77/30 31/78/31
f 32/79/32 31/80/31 20/81/20
f 18/82/18 32/83/32 20/84/20
f 33/85/33 34/86/34 35/87/35
f 34/88/34 36/89/36 35/90/35
f 36/91/36 34/92/34 21/93/21
f 22/94/22 36/95/36 21/96/21
f 7/97/7 26/98/26 28/99/28
f 5/100/5 7/101/7 28/102/28
f 37/103/37 5/104/5 28/105/28
f 37/106/37 28/107/28 10/108/10
f 38/109/38 37/110/37 10/111/10
f 38/112/38 10/113/10 9/114/9
f 39/115/39 38/116/38 9/117/9
f 39/118/39 9/119/9 2/120/2
f 1/121/1 39/122/39 2/123/2
f 9/124/9 24/125/24 2/126/2
f 36/127/36 22/128/22 19/129/19
f 35/130/35 36/131/36 19/132/19
f 40/133/40 35/134/35 19/135/19
f 40/136/40 19/137/19 20/138/20
f 41/139/41 40/140/40 20/141/20
f 41/142/41 20/143/20 31/144/31
f 42/145/42 41/146/41 31/147/31
f 42/148/42 31/149/31 14/150/14
f 13/151/13 42/152/42 14/153/14
f 31/154/31 29/155/29 14/156/14
f 23/157/23 11/158/11 43/159/43
f 44/160/44 23/161/23 43/162/43
f 44/163/44 43/164/43 45/165/45
f 43/166/43 46/167/46 45/168/45
f 46/169/46 17/170/17 45/171/45
f 17/172/17 21/173/21 45/174/45
f 11/175/11 12/176/12 47/177/47
f 43/178/43 11/179/11 47/180/47
f 43/181/43 47/182/47 46/183/46
f 47/184/47 48/185/48 46/186/46
f 48/187/48 18/188/18 46/189/46
f 18/190/18 17/191/17 46/192/46
f 8/193/8 6/194/6 49/195/49
f 50/196/50 8/197/8 49/198/49
f 50/199/50 49/200/49 51/201/51
f 49/202/49 52/203/52 51/204/51
f 52/205/52 15/206/15 51/207/51
f 15/208/15 16/209/16 51/210/51
f 34/211/34 33/212/33 53/213/53
f 54/214/54 34/215/34 53/216/53
f 34/217/34 54/218/54 21/219/21
f 54/220/54 45/221/45 21/222/21
f 45/223/45 54/224/54 44/225/44
f 55/226/55 54/227/54 53/228/53
f 54/229/54 55/230/55 44/231/44
f 56/232/56 55/233/55 53/234/53
f 56/235/56 3/236/3 55/237/55
f 3/238/3 4/239/4 55/240/55
f 55/241/55 4/242/4 44/243/44
f 4/244/4 23/245/23 44/246/44
f 25/247/25 8/248/8 50/249/50
f 57/250/57 25/251/25 50/252/50
f 27/253/27 25/254/25 57/255/57
f 57/256/57 50/257/50 58/258/58
f 50/259/50 51/260/51 58/261/58
f 58/262/58 51/263/51 16/264/16
f 30/265/30 58/266/58 16/267/16
f 58/268/58 30/269/30 59/270/59
f 57/271/57 58/272/58 59/273/59
f 30/274/30 32/275/32 59/276/59
f 60/277/60 27/278/27 57/279/57
f 60/280/60 57/281/57 59/282/59
f 12/283/12 27/284/27 60/285/60
f 47/286/47 12/287/12 60/288/60
f 47/289/47 60/290/60 48/291/48
f 60/292/60 59/293/59 48/294/48
f 48/295/48 59/296/59 32/297/32
f 18/298/18 48/299/48 32/300/32
