# Exported by Lightwave Blender addon
v 242.3719024658203 986.6589965820312 683.6412963867188
v 269.9328918457031 1035.80615234375 683.6412963867188
v 242.3719024658203 986.6590576171875 503.9363098144531
v 269.932861328125 1035.80615234375 503.9363098144531
v 213.96060180664062 935.995849609375 503.9363098144531
v 213.96063232421875 935.995849609375 683.6412963867188
v 241.68321228027344 985.430908203125 503.9363098144531
v 241.6831512451172 985.4308471679688 683.6412963867188
vt 0.497802734375 0.9884872436523438
vt 0.251220703125 0.9884872436523438
vt 0.497802734375 0.22509765625
vt 0.251220703125 0.9884872436523438
vt 0.251220703125 0.22509765625
vt 0.497802734375 0.22509765625
vt 0.2491455078125 0.22509765625
vt 0.2491455078125 0.9884872436523438
vt 0.00260162353515625 0.22509765625
vt 0.2491455078125 0.9884872436523438
vt 0.00260162353515625 0.9884872436523438
vt 0.00260162353515625 0.22509765625
vn -0.8722140192985535 0.4891245365142822 1.5671764685976086e-07
vn -0.8722139000892639 0.48912447690963745 1.550546642192785e-07
vn -0.8722139000892639 0.4891245663166046 1.4978273554788757e-07
vn -0.8722139000892639 0.4891245663166046 1.4811973869655048e-07
vn -0.8722127079963684 0.4891268014907837 1.4811953974458447e-07
vn -0.8722130060195923 0.48912620544433594 -7.600114315664541e-08
vn -0.872212827205658 0.48912665247917175 9.400871192610794e-08
vn -0.8722131252288818 0.4891260862350464 -1.301120278185408e-07
f 1/1/1 2/2/2 3/3/3
f 2/4/2 4/5/4 3/6/3
f 5/7/5 6/8/6 7/9/7
f 6/10/6 8/11/8 7/12/7
