# Exported by Lightwave Blender addon
v -2.5826332569122314 -113.06507110595703 291.0734558105469
v -2.5822441577911377 -113.06526947021484 46.06332015991211
v 17.507347106933594 -120.28392791748047 291.0733947753906
v 17.507728576660156 -120.28389739990234 46.063316345214844
vt -0.07470703125 1.197021484375
vt -0.07470703125 -0.02734375
vt 0.0208587646484375 1.197021484375
vt -0.07470703125 -0.02734375
vt 0.0208587646484375 -0.02734375
vt 0.0208587646484375 1.197021484375
vn -0.3381580114364624 -0.9410893321037292 2.248947055250028e-07
vn -0.3381492495536804 -0.9410926103591919 -5.956567861176154e-07
vn -0.3381574749946594 -0.9410895109176636 1.768504063193177e-07
vn -0.33814868330955505 -0.9410926103591919 -6.437014690163778e-07
f 1/1/1 2/2/2 3/3/3
f 2/4/2 4/5/4 3/6/3
