# Exported by Lightwave Blender addon
v 61.17953109741211 -1239.29052734375 813.4063720703125
v 61.179542541503906 -1239.29052734375 998.7984008789062
v 63.54719161987305 -1235.916259765625 998.7984008789062
v 63.54719161987305 -1235.916259765625 813.4063720703125
v 63.83437728881836 -1235.507080078125 998.7984619140625
v 63.83439254760742 -1235.507080078125 813.4064331054688
v 68.21647644042969 -1237.3023681640625 813.4063720703125
v 68.21647644042969 -1237.3023681640625 998.7982788085938
v 68.1293716430664 -1237.7947998046875 998.79833984375
v 68.12936401367188 -1237.7947998046875 813.4064331054688
v 67.3743896484375 -1242.0621337890625 998.7984008789062
v 67.3743896484375 -1242.0621337890625 813.4064331054688
v 64.29705810546875 -1235.696533203125 998.7984008789062
v 64.29705810546875 -1235.696533203125 813.4064331054688
v 67.7538070678711 -1237.11279296875 998.7982788085938
v 67.75379943847656 -1237.11279296875 813.4063720703125
vt 0.2763671875 0.52587890625
vt -0.64990234375 0.52587890625
vt -0.64990234375 0.505859375
vt 0.2763671875 0.505859375
vt 0.2763671875 0.52587890625
vt -0.64990234375 0.505859375
vt 0.2763671875 0.505859375
vt -0.64990234375 0.505859375
vt -0.64990234375 0.50341796875
vt 0.2763671875 0.50341796875
vt 0.2763671875 0.505859375
vt -0.64990234375 0.50341796875
vt 0.72314453125 0.50341796875
vt 1.6494140625 0.50341796875
vt 1.6494140625 0.505859375
vt 0.72314453125 0.505859375
vt 0.72314453125 0.50341796875
vt 1.6494140625 0.505859375
vt 0.72314453125 0.505859375
vt 1.6494140625 0.505859375
vt 1.6494140625 0.527099609375
vt 0.72314453125 0.527099609375
vt 0.72314453125 0.505859375
vt 1.6494140625 0.527099609375
vt 0.72314453125 0.34912109375
vt 1.6494140625 0.34912109375
vt 1.6494140625 0.3515625
vt 0.72314453125 0.3515625
vt 0.72314453125 0.34912109375
vt 1.6494140625 0.3515625
vt 0.72314453125 0.3515625
vt 1.6494140625 0.3515625
vt 1.6494140625 0.3701171875
vt 0.72314453125 0.3701171875
vt 0.72314453125 0.3515625
vt 1.6494140625 0.3701171875
vt 0.72314453125 0.3701171875
vt 1.6494140625 0.3701171875
vt 1.6494140625 0.37255859375
vt 0.72314453125 0.37255859375
vt 0.72314453125 0.3701171875
vt 1.6494140625 0.37255859375
vn -0.8185847997665405 0.5743855834007263 7.150622871598955e-10
vn -0.8185860514640808 0.5743837952613831 5.05306196885158e-08
vn -0.8185516595840454 0.5744329690933228 2.490698669532776e-08
vn -0.8185438513755798 0.574444055557251 -3.3624562689738013e-08
vn -0.28124603629112244 0.9596356749534607 1.9880120660786815e-08
vn -0.28124091029167175 0.9596371650695801 -4.306683365484787e-08
vn 0.8759296536445618 0.48243874311447144 -2.599323778440521e-08
vn 0.8759517073631287 0.48239871859550476 -1.0003432748817431e-08
vn 0.9847103953361511 -0.17419935762882233 -2.0297672875813078e-08
vn 0.9847092628479004 -0.1742059290409088 -2.057388392984194e-08
vn 0.9847075343132019 -0.174215629696846 -3.992068187130826e-08
vn 0.9847078919410706 -0.1742139756679535 0.0
vn 0.37902718782424927 0.9253855347633362 1.5567897193591307e-08
vn 0.3790329098701477 0.9253831505775452 -7.816534974836031e-09
vn 0.37913578748703003 0.9253411293029785 -7.902929866077102e-09
vn 0.3791334629058838 0.9253419637680054 -7.931325818333335e-09
f 1/1/1 2/2/2 3/3/3
f 4/4/4 1/5/1 3/6/3
f 4/7/4 3/8/3 5/9/5
f 6/10/6 4/11/4 5/12/5
f 7/13/7 8/14/8 9/15/9
f 10/16/10 7/17/7 9/18/9
f 10/19/10 9/20/9 11/21/11
f 12/22/12 10/23/10 11/24/11
f 6/25/6 5/26/5 13/27/13
f 14/28/14 6/29/6 13/30/13
f 14/31/14 13/32/13 15/33/15
f 16/34/16 14/35/14 15/36/15
f 16/37/16 15/38/15 8/39/8
f 7/40/7 16/41/16 8/42/8
