# Exported by Lightwave Blender addon
v 549.3146362304688 -289.1305847167969 802.5702514648438
v 549.3146362304688 -289.1305847167969 809.4901123046875
v 536.7693481445312 -320.70648193359375 802.5702514648438
v 536.7693481445312 -320.70648193359375 809.4901733398438
v 535.7564086914062 -321.1434631347656 809.4901733398438
v 535.7564697265625 -321.14349365234375 802.5702514648438
v 399.49639892578125 -267.0303955078125 801.9268188476562
v 399.49639892578125 -267.0303955078125 808.8467407226562
v 399.0594787597656 -266.01763916015625 808.8467407226562
v 399.0594787597656 -266.01763916015625 801.9268188476562
v 411.5550537109375 -234.56797790527344 801.9268188476562
v 411.5550537109375 -234.56797790527344 808.8467407226562
v 412.2801818847656 -234.85397338867188 801.1467895507812
v 399.784423828125 -266.3055114746094 801.1467895507812
v 548.5896606445312 -288.84271240234375 801.7902221679688
v 536.04443359375 -320.4185791015625 801.7901611328125
v 548.5896606445312 -288.84271240234375 810.2701416015625
v 536.04443359375 -320.4185791015625 810.2701416015625
v 399.784423828125 -266.3055114746094 809.6267700195312
v 412.2801818847656 -234.85397338867188 809.6268310546875
vt -0.03179931640625 1.1904296875
vt -0.031768798828125 1.2337646484375
vt -0.244384765625 1.1905517578125
vt -0.031768798828125 1.2337646484375
vt -0.244384765625 1.2337646484375
vt -0.244384765625 1.1905517578125
vt -0.244384765625 1.2337646484375
vt -0.251220703125 1.2337646484375
vt -0.244384765625 1.1905517578125
vt -0.251220703125 1.2337646484375
vt -0.251220703125 1.1905517578125
vt -0.244384765625 1.1905517578125
vt -0.251220703125 1.1905517578125
vt -0.251220703125 1.2337646484375
vt -1.16796875 1.1865234375
vt -0.251220703125 1.2337646484375
vt -1.16796875 1.2298583984375
vt -1.16796875 1.1865234375
vt -1.16796875 1.1865234375
vt -1.16796875 1.2298583984375
vt -1.1748046875 1.2298583984375
vt -1.17578125 1.1865234375
vt -1.16796875 1.1865234375
vt -1.1748046875 1.2298583984375
vt -1.38671875 1.1866455078125
vt -1.17578125 1.1865234375
vt -1.1748046875 1.2298583984375
vt -1.38671875 1.22998046875
vt -1.38671875 1.1866455078125
vt -1.1748046875 1.2298583984375
vt -1.158203125 0.76904296875
vt -1.1513671875 0.76904296875
vt -1.158203125 0.9930496215820312
vt -1.1513671875 0.76904296875
vt -1.1513671875 0.9930496215820312
vt -1.158203125 0.9930496215820312
vt -1.15234375 0.9996368885040283
vt -1.158203125 0.9930496215820312
vt -1.1513671875 0.9930496215820312
vt -1.1513671875 0.76904296875
vt -0.1827392578125 0.76904296875
vt -1.1513671875 0.9930496215820312
vt -1.15234375 0.9996368885040283
vt -1.1513671875 0.9930496215820312
vt -0.18115234375 0.9996368885040283
vt -0.1827392578125 0.76904296875
vt -0.1827392578125 0.9930496215820312
vt -1.1513671875 0.9930496215820312
vt -1.1513671875 0.9930496215820312
vt -0.1827392578125 0.9930496215820312
vt -0.18115234375 0.9996368885040283
vt -0.1827392578125 0.9930496215820312
vt -0.1827392578125 0.76904296875
vt -0.1773681640625 0.76904296875
vt -0.1773681640625 0.9930496215820312
vt -0.18115234375 0.9996368885040283
vt -0.1827392578125 0.9930496215820312
vt -0.1773681640625 0.9930496215820312
vt -0.1827392578125 0.9930496215820312
vt -0.1773681640625 0.76904296875
vt -0.173828125 0.662109375
vt -0.1790771484375 0.662109375
vt -0.1739501953125 0.43798828125
vt -0.1790771484375 0.662109375
vt -0.1795654296875 0.43798828125
vt -0.1739501953125 0.43798828125
vt -0.1795654296875 0.43798828125
vt -0.1778564453125 0.431640625
vt -0.1739501953125 0.43798828125
vt -0.1778564453125 0.431640625
vt -0.1795654296875 0.43798828125
vt -1.1494140625 0.431640625
vt -0.1795654296875 0.43798828125
vt -0.1790771484375 0.662109375
vt -1.1484375 0.43798828125
vt -0.1795654296875 0.43798828125
vt -1.1484375 0.43798828125
vt -1.1494140625 0.431640625
vt -0.1790771484375 0.662109375
vt -1.1474609375 0.662109375
vt -1.1484375 0.43798828125
vt -1.1484375 0.43798828125
vt -1.1552734375 0.43798828125
vt -1.1494140625 0.431640625
vt -1.1484375 0.43798828125
vt -1.1474609375 0.662109375
vt -1.1552734375 0.662109375
vt -1.1552734375 0.43798828125
vt -1.1484375 0.43798828125
vt -1.1552734375 0.662109375
vn 0.8586009740829468 -0.3411259353160858 -0.38267138600349426
vn 0.8586000204086304 -0.34112605452537537 0.38267356157302856
vn 0.6876259446144104 -0.6407088041305542 -0.3415593206882477
vn 0.6876075267791748 -0.6407127976417542 0.341589093208313
vn -0.006497914902865887 -0.9395978450775146 0.3422187268733978
vn -0.004980489611625671 -0.9400752186775208 -0.3409307599067688
vn -0.6399599313735962 -0.6879972815513611 -0.3422149419784546
vn -0.6413632035255432 -0.6873137354850769 0.3409592807292938
vn -0.9398311972618103 0.005805131047964096 0.3415897786617279
vn -0.9398325085639954 0.00580540532246232 -0.34158623218536377
vn -0.858568549156189 0.34112632274627686 -0.3827439248561859
vn -0.8585771918296814 0.3411228358745575 0.38272756338119507
vn -0.35358139872550964 0.14048480987548828 -0.92479407787323
vn -0.4418005645275116 -0.19207051396369934 -0.8763110637664795
vn 0.3576643466949463 -0.14209996163845062 -0.922975480556488
vn 0.1931408941745758 -0.4442664384841919 -0.8748279213905334
vn 0.3539007604122162 -0.14060625433921814 0.9246535897254944
vn 0.18959808349609375 -0.4428806006908417 0.8763043880462646
vn -0.4452999532222748 -0.19063539803028107 0.8748520016670227
vn -0.35737380385398865 0.1419835388660431 0.9231059551239014
f 1/1/1 2/2/2 3/3/3
f 2/4/2 4/5/4 3/6/3
f 4/7/4 5/8/5 3/9/3
f 5/10/5 6/11/6 3/12/3
f 6/13/6 5/14/5 7/15/7
f 5/16/5 8/17/8 7/18/7
f 7/19/7 8/20/8 9/21/9
f 10/22/10 7/23/7 9/24/9
f 11/25/11 10/26/10 9/27/9
f 12/28/12 11/29/11 9/30/9
f 11/31/11 13/32/13 10/33/10
f 13/34/13 14/35/14 10/36/10
f 7/37/7 10/38/10 14/39/14
f 13/40/13 15/41/15 14/42/14
f 7/43/7 14/44/14 6/45/6
f 15/46/15 16/47/16 14/48/14
f 14/49/14 16/50/16 6/51/6
f 16/52/16 15/53/15 1/54/1
f 3/55/3 6/56/6 16/57/16
f 3/58/3 16/59/16 1/60/1
f 2/61/2 17/62/17 4/63/4
f 17/64/17 18/65/18 4/66/4
f 18/67/18 5/68/5 4/69/4
f 5/70/5 18/71/18 8/72/8
f 18/73/18 17/74/17 19/75/19
f 18/76/18 19/77/19 8/78/8
f 17/79/17 20/80/20 19/81/19
f 19/82/19 9/83/9 8/84/8
f 19/85/19 20/86/20 12/87/12
f 9/88/9 19/89/19 12/90/12
