# Exported by Lightwave Blender addon
v -211.22474670410156 -1835.7379150390625 851.076904296875
v -253.30905151367188 -1938.656982421875 851.0770263671875
v -211.22474670410156 -1835.7379150390625 1033.1571044921875
v -253.30905151367188 -1938.656982421875 1033.1572265625
v -216.05641174316406 -1833.7623291015625 845.8569946289062
v -326.6702575683594 -1788.531494140625 845.8568725585938
v -258.1407165527344 -1936.681396484375 845.8569946289062
v -368.7545471191406 -1891.4505615234375 845.85693359375
v -260.1164245605469 -1941.512939453125 851.0769653320312
v -370.7302551269531 -1896.2821044921875 851.0769653320312
v -260.1164245605469 -1941.512939453125 1033.1572265625
v -370.7302551269531 -1896.2821044921875 1033.1571044921875
v -258.1407165527344 -1936.6812744140625 1038.377197265625
v -368.7545471191406 -1891.4503173828125 1038.3770751953125
v -216.05641174316406 -1833.7620849609375 1038.377197265625
v -326.6702575683594 -1788.5313720703125 1038.3770751953125
v -214.08070373535156 -1828.9306640625 1033.1571044921875
v -324.6945495605469 -1783.69970703125 1033.1571044921875
v -214.08070373535156 -1828.9306640625 851.0769653320312
v -324.6945495605469 -1783.69970703125 851.076904296875
vt 0.50390625 0.076171875
vt 1.0595703125 0.076171875
vt 0.50390625 0.9861984252929688
vt 1.0595703125 0.076171875
vt 1.0595703125 0.9861984252929688
vt 0.50390625 0.9861984252929688
vt 0.495849609375 1.68603515625
vt 0.495849609375 2.283203125
vt -0.06005859375 1.68603515625
vt 0.495849609375 2.283203125
vt -0.06005859375 2.283203125
vt -0.06005859375 1.68603515625
vt 0.923828125 1.68603515625
vt 0.923828125 2.283203125
vt 0.01380157470703125 1.68603515625
vt 0.923828125 2.283203125
vt 0.01380157470703125 2.283203125
vt 0.01380157470703125 1.68603515625
vt 1.0595703125 1.68603515625
vt 1.0595703125 2.283203125
vt 0.50390625 1.68603515625
vt 1.0595703125 2.283203125
vt 0.50390625 2.283203125
vt 0.50390625 1.68603515625
vt 0.98583984375 1.68603515625
vt 0.98583984375 2.283203125
vt 0.07574462890625 1.68603515625
vt 0.98583984375 2.283203125
vt 0.07574462890625 2.283203125
vt 0.07574462890625 1.68603515625
vt 1.0595703125 1.65966796875
vt 1.0595703125 1.68603515625
vt 0.50390625 1.65966796875
vt 1.0595703125 1.68603515625
vt 0.50390625 1.68603515625
vt 0.50390625 1.65966796875
vt 0.495849609375 1.65966796875
vt 0.495849609375 1.68603515625
vt -0.06005859375 1.65966796875
vt 0.495849609375 1.68603515625
vt -0.06005859375 1.68603515625
vt -0.06005859375 1.65966796875
vt -0.06005859375 2.283203125
vt -0.08612060546875 2.283203125
vt -0.06005859375 1.68603515625
vt -0.08612060546875 2.283203125
vt -0.08612060546875 1.68603515625
vt -0.06005859375 1.68603515625
vt 0.50390625 2.283203125
vt 0.477783203125 2.283203125
vt 0.50390625 1.68603515625
vt 0.477783203125 2.283203125
vt 0.477783203125 1.68603515625
vt 0.50390625 1.68603515625
vt 0.98583984375 1.65966796875
vt 1.01171875 1.68603515625
vt 0.98583984375 1.68603515625
vt 0.98583984375 1.65966796875
vt 0.98583984375 1.68603515625
vt 0.07574462890625 1.65966796875
vt 0.98583984375 1.68603515625
vt 0.07574462890625 1.68603515625
vt 0.07574462890625 1.65966796875
vt 0.07574462890625 1.65966796875
vt 0.07574462890625 1.68603515625
vt 0.0496826171875 1.68603515625
vt 0.0496826171875 1.68603515625
vt 0.07574462890625 1.68603515625
vt 0.0496826171875 2.283203125
vt 0.07574462890625 1.68603515625
vt 0.07574462890625 2.283203125
vt 0.0496826171875 2.283203125
vt 0.9501953125 1.68603515625
vt 0.923828125 1.68603515625
vt 0.923828125 1.65966796875
vt 0.923828125 1.65966796875
vt 0.923828125 1.68603515625
vt 0.01380157470703125 1.65966796875
vt 0.923828125 1.68603515625
vt 0.01380157470703125 1.68603515625
vt 0.01380157470703125 1.65966796875
vt 0.01380157470703125 1.68603515625
vt -0.01229095458984375 1.68603515625
vt 0.01380157470703125 1.65966796875
vt -0.01229095458984375 2.283203125
vt -0.01229095458984375 1.68603515625
vt 0.01380157470703125 1.68603515625
vt 0.01380157470703125 2.283203125
vt -0.01229095458984375 2.283203125
vt 0.01380157470703125 1.68603515625
vn -0.9397270083427429 0.015215955674648285 0.34158679842948914
vn -0.6811591386795044 0.6475675106048584 0.34158262610435486
vn -0.9397280216217041 0.015222027897834778 -0.3415836989879608
vn -0.6811550259590149 0.6475706696510315 -0.3415847718715668
vn -0.44545742869377136 -0.18688444793224335 0.8755807876586914
vn -0.14483784139156342 -0.35420429706573486 0.9238837957382202
vn -0.1868850737810135 0.4454592764377594 0.875579833984375
vn 0.1448432207107544 0.3542211353778839 0.9238765239715576
vn 0.015220386907458305 0.9397293925285339 0.3415801525115967
vn 0.3496776223182678 0.8551511168479919 0.3826775848865509
vn 0.015225870534777641 0.9397265315055847 -0.34158775210380554
vn 0.34967613220214844 0.8551461100578308 -0.3826902508735657
vn -0.18688936531543732 0.44545668363571167 -0.8755801916122437
vn 0.14483648538589478 0.35420092940330505 -0.9238853454589844
vn -0.44545653462409973 -0.1868981420993805 -0.8755784630775452
vn -0.1448391228914261 -0.3542133867740631 -0.9238801002502441
vn -0.6475730538368225 -0.6811587810516357 -0.34157252311706543
vn -0.34967637062072754 -0.8551482558250427 -0.38268524408340454
vn -0.6475647687911987 -0.6811594367027283 0.3415871560573578
vn -0.34967735409736633 -0.8551473021507263 0.38268640637397766
f 1/1/1 2/2/2 3/3/3
f 2/4/2 4/5/4 3/6/3
f 5/7/5 6/8/6 7/9/7
f 6/10/6 8/11/8 7/12/7
f 9/13/9 10/14/10 11/15/11
f 10/16/10 12/17/12 11/18/11
f 13/19/13 14/20/14 15/21/15
f 14/22/14 16/23/16 15/24/15
f 17/25/17 18/26/18 19/27/19
f 18/28/18 20/29/20 19/30/19
f 4/31/4 13/32/13 3/33/3
f 13/34/13 15/35/15 3/36/3
f 1/37/1 5/38/5 2/39/2
f 5/40/5 7/41/7 2/42/2
f 8/43/8 10/44/10 7/45/7
f 10/46/10 9/47/9 7/48/7
f 16/49/16 18/50/18 15/51/15
f 18/52/18 17/53/17 15/54/15
f 3/55/3 15/56/15 17/57/17
f 3/58/3 17/59/17 1/60/1
f 17/61/17 19/62/19 1/63/1
f 1/64/1 19/65/19 5/66/5
f 5/67/5 19/68/19 6/69/6
f 19/70/19 20/71/20 6/72/6
f 7/73/7 9/74/9 2/75/2
f 2/76/2 9/77/9 4/78/4
f 9/79/9 11/80/11 4/81/4
f 11/82/11 13/83/13 4/84/4
f 14/85/14 13/86/13 11/87/11
f 12/88/12 14/89/14 11/90/11
