# Exported by Lightwave Blender addon
v 464.3636779785156 -306.7834167480469 1474.4908447265625
v 464.3636779785156 -306.7834167480469 1428.5582275390625
v 566.6589965820312 -344.8382568359375 1474.4908447265625
v 566.6589965820312 -344.8382568359375 1428.5582275390625
vt 0.0020961761474609375 0.48193359375
vt 0.0020961761474609375 0.2509765625
vt 0.57861328125 0.48193359375
vt 0.0020961761474609375 0.2509765625
vt 0.57861328125 0.2509765625
vt 0.57861328125 0.48193359375
vn -0.3486649692058563 -0.9372473955154419 0.0
vn -0.3486650288105011 -0.9372474551200867 0.0
vn -0.3486650288105011 -0.9372474551200867 0.0
vn -0.3486649692058563 -0.9372473955154419 0.0
f 1/1/1 2/2/2 3/3/3
f 2/4/2 4/5/4 3/6/3
