# Exported by Lightwave Blender addon
v 156.38328552246094 2412.992431640625 27.344350814819336
v 276.62249755859375 2301.7880859375 27.34434700012207
v 248.1648712158203 2515.90087890625 27.344356536865234
v 372.6233825683594 2402.289794921875 27.344350814819336
vt 7.46875 4.30859375
vt 8.0078125 3.8125
vt 7.875 4.78125
vt 8.0078125 3.8125
vt 8.4609375 4.234375
vt 7.875 4.78125
vn -1.0794962257421048e-08 -4.597549008167334e-08 1.0
vn -1.2980708730125912e-09 -4.4713271307728064e-08 1.0
vn -3.2451519249576677e-09 -4.497205452480557e-08 1.0
vn 6.050956624648052e-09 -4.3736513077874406e-08 1.0
f 1/1/1 2/2/2 3/3/3
f 2/4/2 4/5/4 3/6/3
