# Exported by Lightwave Blender addon
v -190.29840087890625 228.18824768066406 267.9391784667969
v -177.4108428955078 234.4593505859375 265.4967346191406
v -183.16714477539062 213.5328826904297 267.9391784667969
v -170.27957153320312 219.80393981933594 265.4967041015625
vt 0.0 1.0
vt 0.0 0.0
vt 1.0 1.0
vt 0.0 0.0
vt 1.0 0.0
vt 1.0 1.0
vn -0.1510586440563202 -0.07350467145442963 -0.9857882857322693
vn -0.15105989575386047 -0.07350429892539978 -0.9857879877090454
vn -0.151060089468956 -0.0735042542219162 -0.9857880473136902
vn -0.15106135606765747 -0.07350388169288635 -0.9857878684997559
f 1/1/1 2/2/2 3/3/3
f 2/4/2 4/5/4 3/6/3
