# Exported by Lightwave Blender addon
v -150.70156860351562 328.0353088378906 490.3883361816406
v -152.15151977539062 328.81402587890625 490.3883361816406
v -152.15151977539062 328.81402587890625 493.9889831542969
v -150.70156860351562 328.03533935546875 493.9889831542969
v -147.81568908691406 336.8872985839844 461.90869140625
v -147.81568908691406 336.8872985839844 490.3883361816406
v -146.36570739746094 336.10858154296875 490.3883361816406
v -146.36570739746094 336.10858154296875 461.90869140625
v -171.4869842529297 289.3333435058594 490.3883361816406
v -171.4869842529297 289.3333435058594 493.9889831542969
v -172.93695068359375 290.112060546875 493.9889831542969
v -172.93695068359375 290.112060546875 490.3883361816406
v -177.27279663085938 282.0387878417969 461.90869140625
v -175.82286071777344 281.26007080078125 461.90869140625
v -175.82286071777344 281.26007080078125 490.3883361816406
v -177.27279663085938 282.0387878417969 490.3883361816406
v -153.40780639648438 326.474853515625 494.3526611328125
v -151.9578399658203 325.6961669921875 494.3526611328125
v -153.99871826171875 325.3746032714844 494.7117614746094
v -152.5487518310547 324.59588623046875 494.7117614746094
v -154.57347106933594 324.304443359375 495.24835205078125
v -153.12350463867188 323.5257263183594 495.24835205078125
v -155.21832275390625 323.1037292480469 496.2190856933594
v -153.76837158203125 322.32501220703125 496.2190856933594
v -155.9247589111328 321.7883605957031 497.5435485839844
v -154.47479248046875 321.0096740722656 497.5435485839844
v -157.0735626220703 319.6492919921875 499.7445373535156
v -155.6236114501953 318.8705749511719 499.7445373535156
v -157.8999786376953 318.11053466796875 500.99029541015625
v -156.45001220703125 317.33184814453125 500.99029541015625
v -158.63076782226562 316.74981689453125 501.84857177734375
v -157.18080139160156 315.97113037109375 501.84857177734375
v -159.55723571777344 315.0247802734375 502.66455078125
v -158.10726928710938 314.2460632324219 502.6645812988281
v -159.21548461914062 312.1825866699219 503.2425842285156
v -160.66859436035156 312.9554443359375 503.2431335449219
v -161.7740478515625 310.8971252441406 503.556396484375
v -160.3227996826172 310.1208190917969 503.556396484375
v -162.5442352294922 309.4630432128906 503.6219482421875
v -161.0942840576172 308.684326171875 503.6219482421875
v -161.8657684326172 307.24786376953125 503.556396484375
v -163.31443786621094 308.0289611816406 503.556396484375
v -164.41989135742188 305.97064208984375 503.2431335449219
v -162.9730682373047 305.1860656738281 503.2425842285156
v -165.53125 303.90130615234375 502.66455078125
v -164.08128356933594 303.1225891113281 502.6645812988281
v -165.00775146484375 301.3975524902344 501.84857177734375
v -166.45770263671875 302.17626953125 501.84857177734375
v -165.73854064941406 300.0368347167969 500.99029541015625
v -167.18849182128906 300.8155517578125 500.99029541015625
v -166.56494140625 298.4980773925781 499.7445373535156
v -168.014892578125 299.27679443359375 499.7445373535156
v -167.71376037597656 296.3590087890625 497.5435485839844
v -169.16371154785156 297.1377258300781 497.5435485839844
v -168.42018127441406 295.0436706542969 496.2190856933594
v -169.87014770507812 295.8223876953125 496.2190856933594
v -169.06504821777344 293.8429260253906 495.24835205078125
v -170.51499938964844 294.62164306640625 495.24835205078125
v -169.63980102539062 292.77276611328125 494.7117614746094
v -171.08975219726562 293.5514831542969 494.7117614746094
v -170.230712890625 291.6725158691406 494.3526611328125
v -171.6806640625 292.45123291015625 494.3526611328125
v -162.5442352294922 309.4630432128906 461.90869140625
v -161.09426879882812 308.684326171875 461.90869140625
vt 0.86376953125 0.04150390625
vt 0.86376953125 0.06787109375
vt 0.80615234375 0.06787109375
vt 0.80615234375 0.06787109375
vt 0.80615234375 0.04150390625
vt 0.86376953125 0.04150390625
vt 0.9228515625 0.03466796875
vt 0.4677734375 0.03466796875
vt 0.4677734375 0.00830078125
vt 0.4677734375 0.00830078125
vt 0.9228515625 0.00830078125
vt 0.9228515625 0.03466796875
vt 0.00875091552734375 0.68408203125
vt 0.00875091552734375 0.65771484375
vt 0.1552734375 0.65771484375
vt 0.1552734375 0.65771484375
vt 0.1552734375 0.68408203125
vt 0.00875091552734375 0.68408203125
vt 0.87158203125 0.0419921875
vt 0.92919921875 0.0419921875
vt 0.92919921875 0.068359375
vt 0.92919921875 0.068359375
vt 0.87158203125 0.068359375
vt 0.87158203125 0.0419921875
vt 0.003078460693359375 0.03466796875
vt 0.003078460693359375 0.00830078125
vt 0.45849609375 0.00830078125
vt 0.45849609375 0.00830078125
vt 0.45849609375 0.03466796875
vt 0.003078460693359375 0.03466796875
vt 0.1552734375 0.6494140625
vt 0.00875091552734375 0.6494140625
vt 0.00875091552734375 0.623291015625
vt 0.00875091552734375 0.623291015625
vt 0.1552734375 0.623291015625
vt 0.1552734375 0.6494140625
vt 0.79296875 0.04150390625
vt 0.79296875 0.06787109375
vt 0.75048828125 0.06787109375
vt 0.75048828125 0.06787109375
vt 0.75048828125 0.04150390625
vt 0.79296875 0.04150390625
vt 0.75048828125 0.04150390625
vt 0.75048828125 0.06787109375
vt 0.7294921875 0.06787109375
vt 0.7294921875 0.06787109375
vt 0.7294921875 0.04150390625
vt 0.75048828125 0.04150390625
vt 0.7294921875 0.04150390625
vt 0.7294921875 0.06787109375
vt 0.70849609375 0.06787109375
vt 0.70849609375 0.06787109375
vt 0.70849609375 0.04150390625
vt 0.7294921875 0.04150390625
vt 0.70849609375 0.04150390625
vt 0.70849609375 0.06787109375
vt 0.681640625 0.06787109375
vt 0.681640625 0.06787109375
vt 0.681640625 0.04150390625
vt 0.70849609375 0.04150390625
vt 0.681640625 0.04150390625
vt 0.681640625 0.06787109375
vt 0.6494140625 0.06787109375
vt 0.6494140625 0.06787109375
vt 0.6494140625 0.04150390625
vt 0.681640625 0.04150390625
vt 0.6494140625 0.04150390625
vt 0.6494140625 0.06787109375
vt 0.59716796875 0.06787109375
vt 0.59716796875 0.06787109375
vt 0.59716796875 0.04150390625
vt 0.6494140625 0.04150390625
vt 0.59716796875 0.04150390625
vt 0.59716796875 0.06787109375
vt 0.56298828125 0.06787109375
vt 0.56298828125 0.06787109375
vt 0.56298828125 0.04150390625
vt 0.59716796875 0.04150390625
vt 0.56298828125 0.04150390625
vt 0.56298828125 0.06787109375
vt 0.5341796875 0.06787109375
vt 0.5341796875 0.04150390625
vt 0.56298828125 0.04150390625
vt 0.5341796875 0.06787109375
vt 0.5341796875 0.04150390625
vt 0.5341796875 0.06787109375
vt 0.50048828125 0.06787109375
vt 0.50048828125 0.06787109375
vt 0.50048828125 0.04150390625
vt 0.5341796875 0.04150390625
vt 0.4619140625 0.04150390625
vt 0.50048828125 0.04150390625
vt 0.50048828125 0.06787109375
vt 0.50048828125 0.06787109375
vt 0.4619140625 0.06787109375
vt 0.4619140625 0.04150390625
vt 0.4619140625 0.04150390625
vt 0.4619140625 0.06787109375
vt 0.42431640625 0.06787109375
vt 0.42431640625 0.06787109375
vt 0.42431640625 0.04150390625
vt 0.4619140625 0.04150390625
vt 0.42431640625 0.04150390625
vt 0.42431640625 0.06787109375
vt 0.398193359375 0.06787109375
vt 0.398193359375 0.06787109375
vt 0.398193359375 0.04150390625
vt 0.42431640625 0.04150390625
vt 0.3720703125 0.04150390625
vt 0.398193359375 0.04150390625
vt 0.398193359375 0.06787109375
vt 0.398193359375 0.06787109375
vt 0.3720703125 0.06787109375
vt 0.3720703125 0.04150390625
vt 0.3720703125 0.04150390625
vt 0.3720703125 0.06787109375
vt 0.33447265625 0.06787109375
vt 0.33447265625 0.06787109375
vt 0.334228515625 0.04150390625
vt 0.3720703125 0.04150390625
vt 0.334228515625 0.04150390625
vt 0.33447265625 0.06787109375
vt 0.295654296875 0.06787109375
vt 0.295654296875 0.06787109375
vt 0.295654296875 0.04150390625
vt 0.334228515625 0.04150390625
vt 0.26171875 0.04150390625
vt 0.295654296875 0.04150390625
vt 0.295654296875 0.06787109375
vt 0.295654296875 0.06787109375
vt 0.26171875 0.06787109375
vt 0.26171875 0.04150390625
vt 0.26171875 0.06787109375
vt 0.2333984375 0.04150390625
vt 0.26171875 0.04150390625
vt 0.26171875 0.06787109375
vt 0.2333984375 0.06787109375
vt 0.2333984375 0.04150390625
vt 0.1990966796875 0.04150390625
vt 0.2333984375 0.04150390625
vt 0.2333984375 0.06787109375
vt 0.2333984375 0.06787109375
vt 0.1990966796875 0.06787109375
vt 0.1990966796875 0.04150390625
vt 0.146728515625 0.04150390625
vt 0.1990966796875 0.04150390625
vt 0.1990966796875 0.06787109375
vt 0.1990966796875 0.06787109375
vt 0.146728515625 0.06787109375
vt 0.146728515625 0.04150390625
vt 0.11480712890625 0.04150390625
vt 0.146728515625 0.04150390625
vt 0.146728515625 0.06787109375
vt 0.146728515625 0.06787109375
vt 0.11480712890625 0.06787109375
vt 0.11480712890625 0.04150390625
vt 0.0880126953125 0.04150390625
vt 0.11480712890625 0.04150390625
vt 0.11480712890625 0.06787109375
vt 0.11480712890625 0.06787109375
vt 0.0880126953125 0.06787109375
vt 0.0880126953125 0.04150390625
vt 0.0667724609375 0.04150390625
vt 0.0880126953125 0.04150390625
vt 0.0880126953125 0.06787109375
vt 0.0880126953125 0.06787109375
vt 0.0667724609375 0.06787109375
vt 0.0667724609375 0.04150390625
vt 0.0460205078125 0.04150390625
vt 0.0667724609375 0.04150390625
vt 0.0667724609375 0.06787109375
vt 0.0667724609375 0.06787109375
vt 0.0460205078125 0.06787109375
vt 0.0460205078125 0.04150390625
vt 0.003177642822265625 0.04150390625
vt 0.0460205078125 0.04150390625
vt 0.0460205078125 0.06787109375
vt 0.0460205078125 0.06787109375
vt 0.003177642822265625 0.06787109375
vt 0.003177642822265625 0.04150390625
vt 0.1495361328125 0.549560546875
vt 0.0030727386474609375 0.549560546875
vt 0.0030994415283203125 0.09423828125
vt 0.1920166015625 0.613037109375
vt 0.1495361328125 0.607177734375
vt 0.1495361328125 0.549560546875
vt 0.0030994415283203125 0.09423828125
vt 0.50048828125 0.09423828125
vt 0.1495361328125 0.549560546875
vt 0.1495361328125 0.549560546875
vt 0.50048828125 0.09423828125
vt 0.1920166015625 0.613037109375
vt 0.2120361328125 0.61865234375
vt 0.1920166015625 0.613037109375
vt 0.50048828125 0.09423828125
vt 0.2314453125 0.627197265625
vt 0.2120361328125 0.61865234375
vt 0.50048828125 0.09423828125
vt 0.253173828125 0.642822265625
vt 0.2314453125 0.627197265625
vt 0.50048828125 0.09423828125
vt 0.277099609375 0.6640625
vt 0.253173828125 0.642822265625
vt 0.50048828125 0.09423828125
vt 0.31591796875 0.69921875
vt 0.277099609375 0.6640625
vt 0.50048828125 0.09423828125
vt 0.34375 0.71923828125
vt 0.31591796875 0.69921875
vt 0.50048828125 0.09423828125
vt 0.34375 0.71923828125
vt 0.50048828125 0.09423828125
vt 0.36865234375 0.73291015625
vt 0.39990234375 0.745849609375
vt 0.36865234375 0.73291015625
vt 0.50048828125 0.09423828125
vt 0.4375 0.755126953125
vt 0.39990234375 0.745849609375
vt 0.50048828125 0.09423828125
vt 0.474853515625 0.7601318359375
vt 0.4375 0.755126953125
vt 0.50048828125 0.09423828125
vt 0.50048828125 0.76123046875
vt 0.474853515625 0.7601318359375
vt 0.50048828125 0.09423828125
vt 0.50048828125 0.76123046875
vt 0.50048828125 0.09423828125
vt 0.52685546875 0.7601318359375
vt 0.50048828125 0.09423828125
vt 0.56396484375 0.755126953125
vt 0.52685546875 0.7601318359375
vt 0.56396484375 0.755126953125
vt 0.50048828125 0.09423828125
vt 0.6015625 0.745849609375
vt 0.6015625 0.745849609375
vt 0.50048828125 0.09423828125
vt 0.6328125 0.73291015625
vt 0.6328125 0.73291015625
vt 0.50048828125 0.09423828125
vt 0.65771484375 0.71923828125
vt 0.65771484375 0.71923828125
vt 0.50048828125 0.09423828125
vt 0.685546875 0.69921875
vt 0.685546875 0.69921875
vt 0.50048828125 0.09423828125
vt 0.724609375 0.6640625
vt 0.724609375 0.6640625
vt 0.50048828125 0.09423828125
vt 0.74853515625 0.642822265625
vt 0.74853515625 0.642822265625
vt 0.50048828125 0.09423828125
vt 0.77001953125 0.627197265625
vt 0.77001953125 0.627197265625
vt 0.50048828125 0.09423828125
vt 0.78955078125 0.61865234375
vt 0.78955078125 0.61865234375
vt 0.50048828125 0.09423828125
vt 0.8095703125 0.613037109375
vt 0.8095703125 0.613037109375
vt 0.50048828125 0.09423828125
vt 0.85205078125 0.549560546875
vt 0.85205078125 0.549560546875
vt 0.85205078125 0.607177734375
vt 0.8095703125 0.613037109375
vt 0.85205078125 0.549560546875
vt 0.50048828125 0.09423828125
vt 0.99853515625 0.09423828125
vt 0.99853515625 0.09423828125
vt 0.99853515625 0.549560546875
vt 0.85205078125 0.549560546875
vt 0.0031032562255859375 0.0986328125
vt 0.0031032562255859375 0.072265625
vt 0.50048828125 0.072265625
vt 0.50048828125 0.072265625
vt 0.50048828125 0.0986328125
vt 0.0031032562255859375 0.0986328125
vt 0.99853515625 0.0986328125
vt 0.50048828125 0.0986328125
vt 0.50048828125 0.072265625
vt 0.50048828125 0.072265625
vt 0.99853515625 0.072265625
vt 0.99853515625 0.0986328125
vn 0.334554523229599 0.6229386329650879 0.7071214318275452
vn -0.6542248725891113 0.6936020851135254 0.3015061914920807
vn -0.22604481875896454 0.8152052164077759 0.5332393646240234
vn 0.3565344512462616 0.6638843417167664 0.6573741436004639
vn -0.23544089496135712 0.7818050384521484 -0.5773634314537048
vn -0.2354707419872284 0.7818055748939514 0.5773504972457886
vn 0.3345651626586914 0.6229649186134338 0.7070932984352112
vn 0.3345596492290497 0.6229545474052429 -0.7071050405502319
vn -0.33455514907836914 -0.6229397058486938 0.7071201205253601
vn -0.3565402030944824 -0.66387540102005 0.6573799848556519
vn -0.8044445514678955 -0.26177096366882324 0.5332399010658264
vn -0.9395405054092407 0.16235028207302094 0.3015062212944031
vn -0.7817899584770203 -0.2354888617992401 -0.5773640871047974
vn -0.33456742763519287 -0.6229493618011475 -0.7071057558059692
vn -0.334572970867157 -0.6229597330093384 0.7070941925048828
vn -0.7818071842193604 -0.23546506464481354 0.5773506164550781
vn -0.5700687170028687 0.4679828882217407 0.6752877831459045
vn 0.0977274477481842 0.18197230994701385 0.978435218334198
vn -0.5251989960670471 0.5495776534080505 0.6497156023979187
vn 0.16133621335029602 0.3004071116447449 0.9400670528411865
vn -0.4838680028915405 0.6432295441627502 0.5934033393859863
vn 0.23403911292552948 0.43577808141708374 0.8690932989120483
vn -0.42900457978248596 0.7214707136154175 0.5435394048690796
vn 0.29465338587760925 0.5486433506011963 0.7824127674102783
vn -0.4010361135005951 0.7503186464309692 0.5255396962165833
vn 0.3158728778362274 0.5881720781326294 0.7444984316825867
vn -0.39798080921173096 0.7261819839477539 0.5605987310409546
vn 0.2967599332332611 0.5525646805763245 0.7788491249084473
vn -0.43024346232414246 0.667113184928894 0.6081534624099731
vn 0.25267118215560913 0.4704906940460205 0.8454559445381165
vn -0.463643342256546 0.6049075722694397 0.6473960876464844
vn 0.20622606575489044 0.38401150703430176 0.9000033140182495
vn -0.5010055303573608 0.526099443435669 0.6871774196624756
vn 0.14809732139110565 0.27579352259635925 0.9497395157814026
vn 0.08797945082187653 0.16447024047374725 0.9824506044387817
vn -0.5492255091667175 0.4468509256839752 0.706169605255127
vn -0.5845144987106323 0.384433776140213 0.7145302295684814
vn 0.04090636223554611 0.07643583416938782 0.9962350726127625
vn -0.6150683760643005 0.3303314745426178 0.7159414291381836
vn -1.3410364374522032e-07 -2.4803239284665324e-07 0.9999999403953552
vn -0.04112568497657776 -0.07631434500217438 0.9962353110313416
vn -0.6432995200157166 0.27498555183410645 0.7145268321037292
vn -0.6758428812026978 0.2110861837863922 0.7061720490455627
vn -0.08852271735668182 -0.16418157517910004 0.9824500679969788
vn -0.7152796983718872 0.12712043523788452 0.6871792078018188
vn -0.14812925457954407 -0.27577856183052063 0.9497388005256653
vn -0.20623919367790222 -0.38400521874427795 0.9000030159950256
vn -0.7603452205657959 0.05245159938931465 0.6473978161811829
vn -0.2526792883872986 -0.47048234939575195 0.8454582095146179
vn -0.7937577366828918 -0.009749256074428558 0.6081558465957642
vn -0.2967627942562103 -0.5525647401809692 0.7788478136062622
vn -0.8251867890357971 -0.06926630437374115 0.5605969429016113
vn -0.3158833682537079 -0.5881667137145996 0.7444981336593628
vn -0.8469918370246887 -0.08005271106958389 0.5255440473556519
vn -0.29465344548225403 -0.5486415028572083 0.7824141383171082
vn -0.8383946418762207 -0.04079599305987358 0.5435348153114319
vn -0.23403826355934143 -0.4357745349407196 0.8690953254699707
vn -0.8034602403640747 0.04814517870545387 0.5934084057807922
vn -0.16133901476860046 -0.30040910840034485 0.9400660991668701
vn -0.7482110261917114 0.13433179259300232 0.6497194170951843
vn -0.09773112088441849 -0.18197286128997803 0.978434681892395
vn -0.7049698233604431 0.21679845452308655 0.6752895712852478
vn -0.6229233741760254 0.33454930782318115 -0.7071374654769897
vn 0.0 0.0 -1.0
f 1/1/1 2/2/2 3/3/3
f 3/4/3 4/5/4 1/6/1
f 5/7/5 6/8/6 7/9/7
f 7/10/7 8/11/8 5/12/5
f 2/13/2 1/14/1 7/15/7
f 7/16/7 6/17/6 2/18/2
f 9/19/9 10/20/10 11/21/11
f 11/22/11 12/23/12 9/24/9
f 13/25/13 14/26/14 15/27/15
f 15/28/15 16/29/16 13/30/13
f 12/31/12 16/32/16 15/33/15
f 15/34/15 9/35/9 12/36/12
f 4/37/4 3/38/3 17/39/17
f 17/40/17 18/41/18 4/42/4
f 18/43/18 17/44/17 19/45/19
f 19/46/19 20/47/20 18/48/18
f 20/49/20 19/50/19 21/51/21
f 21/52/21 22/53/22 20/54/20
f 22/55/22 21/56/21 23/57/23
f 23/58/23 24/59/24 22/60/22
f 24/61/24 23/62/23 25/63/25
f 25/64/25 26/65/26 24/66/24
f 26/67/26 25/68/25 27/69/27
f 27/70/27 28/71/28 26/72/26
f 28/73/28 27/74/27 29/75/29
f 29/76/29 30/77/30 28/78/28
f 30/79/30 29/80/29 31/81/31
f 32/82/32 30/83/30 31/84/31
f 32/85/32 31/86/31 33/87/33
f 33/88/33 34/89/34 32/90/32
f 35/91/35 34/92/34 33/93/33
f 33/94/33 36/95/36 35/96/35
f 35/97/35 36/98/36 37/99/37
f 37/100/37 38/101/38 35/102/35
f 38/103/38 37/104/37 39/105/39
f 39/106/39 40/107/40 38/108/38
f 41/109/41 40/110/40 39/111/39
f 39/112/39 42/113/42 41/114/41
f 41/115/41 42/116/42 43/117/43
f 43/118/43 44/119/44 41/120/41
f 44/121/44 43/122/43 45/123/45
f 45/124/45 46/125/46 44/126/44
f 47/127/47 46/128/46 45/129/45
f 45/130/45 48/131/48 47/132/47
f 48/133/48 49/134/49 47/135/47
f 48/136/48 50/137/50 49/138/49
f 51/139/51 49/140/49 50/141/50
f 50/142/50 52/143/52 51/144/51
f 53/145/53 51/146/51 52/147/52
f 52/148/52 54/149/54 53/150/53
f 55/151/55 53/152/53 54/153/54
f 54/154/54 56/155/56 55/156/55
f 57/157/57 55/158/55 56/159/56
f 56/160/56 58/161/58 57/162/57
f 59/163/59 57/164/57 58/165/58
f 58/166/58 60/167/60 59/168/59
f 61/169/61 59/170/59 60/171/60
f 60/172/60 62/173/62 61/174/61
f 10/175/10 61/176/61 62/177/62
f 62/178/62 11/179/11 10/180/10
f 2/181/2 6/182/6 5/183/5
f 17/184/17 3/185/3 2/186/2
f 5/187/5 63/188/63 2/189/2
f 2/190/2 63/191/63 17/192/17
f 19/193/19 17/194/17 63/195/63
f 21/196/21 19/197/19 63/198/63
f 23/199/23 21/200/21 63/201/63
f 25/202/25 23/203/23 63/204/63
f 27/205/27 25/206/25 63/207/63
f 29/208/29 27/209/27 63/210/63
f 29/211/29 63/212/63 31/213/31
f 33/214/33 31/215/31 63/216/63
f 36/217/36 33/218/33 63/219/63
f 37/220/37 36/221/36 63/222/63
f 39/223/39 37/224/37 63/225/63
f 39/226/39 63/227/63 42/228/42
f 63/229/63 43/230/43 42/231/42
f 43/232/43 63/233/63 45/234/45
f 45/235/45 63/236/63 48/237/48
f 48/238/48 63/239/63 50/240/50
f 50/241/50 63/242/63 52/243/52
f 52/244/52 63/245/63 54/246/54
f 54/247/54 63/248/63 56/249/56
f 56/250/56 63/251/63 58/252/58
f 58/253/58 63/254/63 60/255/60
f 60/256/60 63/257/63 62/258/62
f 62/259/62 63/260/63 12/261/12
f 12/262/12 11/263/11 62/264/62
f 12/265/12 63/266/63 13/267/13
f 13/268/13 16/269/16 12/270/12
f 5/271/5 8/272/8 64/273/64
f 64/274/64 63/275/63 5/276/5
f 13/277/13 63/278/63 64/279/64
f 64/280/64 14/281/14 13/282/13
