# Exported by Lightwave Blender addon
v 837.474609375 -1459.449462890625 705.2587280273438
v 1251.824462890625 -1618.5035400390625 705.2586669921875
v 837.42138671875 -1459.435791015625 368.11663818359375
v 1251.823486328125 -1618.5068359375 376.77899169921875
v 1765.264892578125 -1815.5947265625 705.2586669921875
v 837.424560546875 -1459.439697265625 30.14936065673828
v 1765.325439453125 -1815.62548828125 366.04510498046875
v 1251.821533203125 -1618.5118408203125 30.119199752807617
v 1765.31982421875 -1815.625244140625 30.15654945373535
v 1971.1405029296875 -1281.1287841796875 705.2587280273438
v 1556.7904052734375 -1122.07470703125 705.2587280273438
v 1971.19384765625 -1281.142578125 368.1166687011719
v 1556.7916259765625 -1122.071533203125 376.7790222167969
v 1043.350341796875 -924.9833374023438 705.2587280273438
v 1971.1905517578125 -1281.138671875 30.149368286132812
v 1043.28955078125 -924.9526977539062 366.0451354980469
v 1556.7935791015625 -1122.06640625 30.119220733642578
v 1043.29541015625 -924.9528198242188 30.156587600708008
vt 2.71875 2.1875
vt 0.499755859375 2.1875
vt 2.71875 0.50244140625
vt 0.499755859375 2.1875
vt 0.499755859375 0.545654296875
vt 2.71875 0.50244140625
vt 0.499755859375 0.545654296875
vt 0.499755859375 2.1875
vt -2.248046875 2.1875
vt 2.71875 -1.1875
vt 2.71875 0.50244140625
vt 0.499755859375 0.545654296875
vt -2.25 0.4921875
vt 0.499755859375 0.545654296875
vt -2.248046875 2.1875
vt 0.499755859375 -1.1875
vt 2.71875 -1.1875
vt 0.499755859375 0.545654296875
vt 0.499755859375 0.545654296875
vt -2.25 0.4921875
vt -2.25 -1.1875
vt 0.499755859375 -1.1875
vt 0.499755859375 0.545654296875
vt -2.25 -1.1875
vt 2.71875 2.1875
vt 0.499755859375 2.1875
vt 2.71875 0.50244140625
vt 0.499755859375 2.1875
vt 0.499755859375 0.545654296875
vt 2.71875 0.50244140625
vt 0.499755859375 0.545654296875
vt 0.499755859375 2.1875
vt -2.248046875 2.1875
vt 2.71875 -1.1875
vt 2.71875 0.50244140625
vt 0.499755859375 0.545654296875
vt -2.25 0.4921875
vt 0.499755859375 0.545654296875
vt -2.248046875 2.1875
vt 0.499755859375 -1.1875
vt 2.71875 -1.1875
vt 0.499755859375 0.545654296875
vt 0.499755859375 0.545654296875
vt -2.25 0.4921875
vt -2.25 -1.1875
vt 0.499755859375 -1.1875
vt 0.499755859375 0.545654296875
vt -2.25 -1.1875
vn 0.35836806893348694 0.9335804581642151 -1.8743729015113786e-05
vn 0.3583662211894989 0.9335811138153076 -1.2151250302849803e-05
vn 0.35836389660835266 0.9335819482803345 -1.1347004146955442e-05
vn 0.35836687684059143 0.9335808753967285 -1.2143033018219285e-05
vn 0.3583715260028839 0.9335790872573853 -1.7171274521388113e-05
vn 0.35836470127105713 0.9335817098617554 -1.0848757483472582e-05
vn 0.35837358236312866 0.9335781931877136 -1.2902915841550566e-05
vn 0.3583678901195526 0.9335803985595703 -1.55168745550327e-05
vn 0.3583716154098511 0.9335790276527405 -8.958956641436089e-06
vn -0.3583679497241974 -0.9335804581642151 -1.8482669474906288e-05
vn -0.3583664000034332 -0.9335810542106628 -1.2033345228701364e-05
vn -0.3583638668060303 -0.933582067489624 -1.1188773896719795e-05
vn -0.35836705565452576 -0.9335808157920837 -1.219267778651556e-05
vn -0.3583718240261078 -0.9335790276527405 -1.6758349374867976e-05
vn -0.35836467146873474 -0.9335817098617554 -1.0902539543167222e-05
vn -0.35837382078170776 -0.9335781931877136 -1.291708667849889e-05
vn -0.3583681881427765 -0.9335802793502808 -1.5833560610190034e-05
vn -0.35837191343307495 -0.9335788488388062 -9.461697118240409e-06
f 1/1/1 2/2/2 3/3/3
f 2/4/2 4/5/4 3/6/3
f 4/7/4 2/8/2 5/9/5
f 6/10/6 3/11/3 4/12/4
f 7/13/7 4/14/4 5/15/5
f 8/16/8 6/17/6 4/18/4
f 4/19/4 7/20/7 9/21/9
f 8/22/8 4/23/4 9/24/9
f 10/25/10 11/26/11 12/27/12
f 11/28/11 13/29/13 12/30/12
f 13/31/13 11/32/11 14/33/14
f 15/34/15 12/35/12 13/36/13
f 16/37/16 13/38/13 14/39/14
f 17/40/17 15/41/15 13/42/13
f 13/43/13 16/44/16 18/45/18
f 17/46/17 13/47/13 18/48/18
