# Exported by Lightwave Blender addon
v 112.25362396240234 809.919189453125 96.55410766601562
v 112.25360870361328 809.9190673828125 50.899139404296875
v 0.469338059425354 602.5865478515625 96.55451202392578
v 0.46928465366363525 602.58642578125 50.89954376220703
vt -0.0888671875 0.644287109375
vt -0.0888671875 0.416015625
vt 1.0888671875 0.644287109375
vt -0.0888671875 0.416015625
vt 1.0888671875 0.416015625
vt 1.0888671875 0.644287109375
vn -0.8802164793014526 0.47457244992256165 -9.747060403242358e-07
vn -0.8802164793014526 0.47457244992256165 -8.850838639773428e-07
vn -0.8802163600921631 0.4745725691318512 -3.2886441658774856e-07
vn -0.8802163600921631 0.4745725691318512 -2.3924229708427447e-07
f 1/1/1 2/2/2 3/3/3
f 2/4/2 4/5/4 3/6/3
