# Exported by Lightwave Blender addon
v 212.66038513183594 990.2457885742188 53.44955062866211
v 212.6604461669922 990.245849609375 96.33293151855469
v 208.33807373046875 992.5763549804688 96.33293914794922
v 208.3380126953125 992.576171875 53.44955062866211
v 207.89796447753906 992.8135375976562 96.33293914794922
v 207.8979034423828 992.8134765625 53.44955825805664
v 208.13577270507812 993.2533569335938 96.33293914794922
v 208.13571166992188 993.25341796875 53.449554443359375
v 208.2903289794922 993.5392456054688 96.33293151855469
v 208.290283203125 993.5391845703125 53.449554443359375
v 208.52813720703125 993.9791259765625 96.33293914794922
v 208.52809143066406 993.9791259765625 53.44955062866211
v 208.2122344970703 994.36669921875 96.33293914794922
v 208.2122039794922 994.3666381835938 53.44955062866211
v 207.6944122314453 995.0018920898438 96.33293914794922
v 207.69435119628906 995.0020751953125 53.44955062866211
v 207.37850952148438 995.3894653320312 96.33292388916016
v 207.3784637451172 995.3895263671875 53.44955062866211
v 207.61578369140625 995.82958984375 96.33293914794922
v 207.61573791503906 995.8297119140625 53.449546813964844
v 208.42385864257812 997.3284912109375 96.33293914794922
v 208.42381286621094 997.3284301757812 53.449546813964844
v 208.66114807128906 997.7686157226562 96.33293151855469
v 208.6610870361328 997.7686767578125 53.449546813964844
v 209.15850830078125 997.7172241210938 96.33293151855469
v 209.158447265625 997.7173461914062 53.44954299926758
v 209.9777374267578 997.6327514648438 96.33293151855469
v 209.97767639160156 997.6326904296875 53.44954299926758
v 210.47508239746094 997.581298828125 96.33293151855469
v 210.4750213623047 997.5812377929688 53.44955062866211
v 210.71237182617188 998.0214233398438 96.33293151855469
v 210.7123260498047 998.0213623046875 53.44954299926758
v 210.8382110595703 998.2548217773438 96.33293151855469
v 210.83815002441406 998.2548217773438 53.44954299926758
v 211.07550048828125 998.6949462890625 96.33293151855469
v 211.075439453125 998.6948852539062 53.44954299926758
v 211.51560974121094 998.4576416015625 96.33293151855469
v 211.5155487060547 998.4575805664062 53.44954299926758
v 216.02720642089844 996.0252075195312 96.33292388916016
v 216.02716064453125 996.025146484375 53.44953918457031
vt -0.24658203125 0.12109375
vt 0.365478515625 0.12109375
vt 0.365478515625 0.19091796875
vt -0.24658203125 0.19091796875
vt -0.24658203125 0.12109375
vt 0.365478515625 0.19091796875
vt -0.24658203125 0.19091796875
vt 0.365478515625 0.19091796875
vt 0.365478515625 0.1982421875
vt -0.24658203125 0.1982421875
vt -0.24658203125 0.19091796875
vt 0.365478515625 0.1982421875
vt -0.24658203125 0.1982421875
vt 0.365478515625 0.1982421875
vt 0.365478515625 0.205078125
vt -0.24658203125 0.205078125
vt -0.24658203125 0.1982421875
vt 0.365478515625 0.205078125
vt -0.24658203125 0.205078125
vt 0.365478515625 0.205078125
vt 0.365478515625 0.2099609375
vt -0.24658203125 0.2099609375
vt -0.24658203125 0.205078125
vt 0.365478515625 0.2099609375
vt -0.24658203125 0.2099609375
vt 0.365478515625 0.2099609375
vt 0.365478515625 0.216796875
vt -0.24658203125 0.216796875
vt -0.24658203125 0.2099609375
vt 0.365478515625 0.216796875
vt -0.24658203125 0.216796875
vt 0.365478515625 0.216796875
vt 0.365478515625 0.22412109375
vt -0.24658203125 0.22412109375
vt -0.24658203125 0.216796875
vt 0.365478515625 0.22412109375
vt -0.24658203125 0.22412109375
vt 0.365478515625 0.22412109375
vt 0.365478515625 0.23583984375
vt -0.24658203125 0.23583984375
vt -0.24658203125 0.22412109375
vt 0.365478515625 0.23583984375
vt -0.24658203125 0.23583984375
vt 0.365478515625 0.23583984375
vt 0.365478515625 0.2431640625
vt -0.24658203125 0.2431640625
vt -0.24658203125 0.23583984375
vt 0.365478515625 0.2431640625
vt -0.24658203125 0.2431640625
vt 0.365478515625 0.2431640625
vt 0.365478515625 0.25
vt -0.24658203125 0.25
vt -0.24658203125 0.2431640625
vt 0.365478515625 0.25
vt -0.24658203125 0.25
vt 0.365478515625 0.25
vt 0.365478515625 0.2744140625
vt -0.24658203125 0.2744140625
vt -0.24658203125 0.25
vt 0.365478515625 0.2744140625
vt -0.24658203125 0.2744140625
vt 0.365478515625 0.2744140625
vt 0.365478515625 0.28173828125
vt -0.24658203125 0.28173828125
vt -0.24658203125 0.2744140625
vt 0.365478515625 0.28173828125
vt -0.24658203125 0.28173828125
vt 0.365478515625 0.28173828125
vt 0.365478515625 0.28857421875
vt -0.24658203125 0.28857421875
vt -0.24658203125 0.28173828125
vt 0.365478515625 0.28857421875
vt -0.24658203125 0.28857421875
vt 0.365478515625 0.28857421875
vt 0.365478515625 0.30029296875
vt -0.24658203125 0.30029296875
vt -0.24658203125 0.28857421875
vt 0.365478515625 0.30029296875
vt -0.24658203125 0.30029296875
vt 0.365478515625 0.30029296875
vt 0.365478515625 0.3076171875
vt -0.24658203125 0.3076171875
vt -0.24658203125 0.30029296875
vt 0.365478515625 0.3076171875
vt -0.24658203125 0.3076171875
vt 0.365478515625 0.3076171875
vt 0.365478515625 0.31494140625
vt -0.24658203125 0.31494140625
vt -0.24658203125 0.3076171875
vt 0.365478515625 0.31494140625
vt -0.24658203125 0.31494140625
vt 0.365478515625 0.31494140625
vt 0.365478515625 0.318359375
vt -0.24658203125 0.318359375
vt -0.24658203125 0.31494140625
vt 0.365478515625 0.318359375
vt -0.24658203125 0.318359375
vt 0.365478515625 0.318359375
vt 0.365478515625 0.32568359375
vt -0.24658203125 0.32568359375
vt -0.24658203125 0.318359375
vt 0.365478515625 0.32568359375
vt -0.24658203125 0.32568359375
vt 0.365478515625 0.32568359375
vt 0.365478515625 0.3330078125
vt -0.24658203125 0.3330078125
vt -0.24658203125 0.32568359375
vt 0.365478515625 0.3330078125
vt -0.24658203125 0.3330078125
vt 0.365478515625 0.3330078125
vt 0.365478515625 0.40576171875
vt -0.24658203125 0.40576171875
vt -0.24658203125 0.3330078125
vt 0.365478515625 0.40576171875
vn -0.474567174911499 -0.8802192211151123 4.251859081705334e-06
vn -0.47458505630493164 -0.8802096843719482 1.9282551875221543e-06
vn -0.47449737787246704 -0.8802570104598999 3.2720165563659975e-06
vn -0.4745822548866272 -0.8802111744880676 3.190200004610233e-06
vn -0.9581241607666016 -0.28635311126708984 3.5312036743562203e-06
vn -0.9581403732299805 -0.2862989604473114 2.721597866184311e-06
vn -0.8796641826629639 0.47559526562690735 1.2569896625791444e-06
vn -0.8796395063400269 0.4756409227848053 1.0991791441483656e-06
vn -0.8796774744987488 0.47557058930397034 1.0915046004811302e-06
vn -0.8796391487121582 0.4756416380405426 5.977637442811101e-07
vn -0.9955732822418213 -0.09398812800645828 6.585381129298185e-07
vn -0.9955676794052124 -0.09404832124710083 1.434843966308108e-06
vn -0.775107741355896 -0.631829023361206 1.141473035204399e-06
vn -0.7751407623291016 -0.6317886710166931 -5.3574535030520565e-08
vn -0.7751085162162781 -0.6318281292915344 -9.026805258827153e-08
vn -0.7751172184944153 -0.6318174600601196 -8.389695267396746e-07
vn -0.9955176711082458 -0.09457504749298096 1.9164312803354733e-08
vn -0.995509684085846 -0.09466013312339783 1.3311267821336514e-06
vn -0.880233108997345 0.474541574716568 1.9552339836081956e-06
vn -0.880234956741333 0.4745381474494934 1.302972350458731e-06
vn -0.8802263736724854 0.4745541512966156 1.2517245977505809e-06
vn -0.8802481293678284 0.4745136797428131 1.0901045470745885e-06
vn -0.4677022397518158 0.8838860392570496 9.300311489823798e-07
vn -0.46780744194984436 0.8838303685188293 2.7690475690178573e-06
vn 0.10267456620931625 0.9947149157524109 1.9827657524729148e-06
vn 0.10272327810525894 0.9947099685668945 5.87541990171303e-07
vn 0.10273830592632294 0.9947083592414856 5.35741264684475e-07
vn 0.10284696519374847 0.9946971535682678 -1.5621543525412562e-06
vn -0.4676388204097748 0.8839196562767029 -5.924847528149257e-07
vn -0.46763214468955994 0.8839231729507446 -7.795477472427592e-07
vn -0.8802175521850586 0.4745703637599945 4.1958901420002803e-07
vn -0.8802489638328552 0.4745119512081146 7.565453188362881e-07
vn -0.8802177906036377 0.47457003593444824 7.604144798278867e-07
vn -0.880241870880127 0.47452521324157715 9.175612376566278e-07
vn -0.28682687878608704 0.9579824209213257 -4.811705593965598e-07
vn -0.28679195046424866 0.9579929113388062 -9.552475148666417e-07
vn 0.4745853543281555 0.8802094459533691 -1.928254505401128e-06
vn 0.47458478808403015 0.8802098035812378 -1.8491487026039977e-06
vn 0.47457051277160645 0.8802175521850586 -1.915296479637618e-06
vn 0.47456932067871094 0.8802181482315063 -1.7572139086041716e-06
f 1/1/1 2/2/2 3/3/3
f 4/4/4 1/5/1 3/6/3
f 4/7/4 3/8/3 5/9/5
f 6/10/6 4/11/4 5/12/5
f 6/13/6 5/14/5 7/15/7
f 8/16/8 6/17/6 7/18/7
f 8/19/8 7/20/7 9/21/9
f 10/22/10 8/23/8 9/24/9
f 10/25/10 9/26/9 11/27/11
f 12/28/12 10/29/10 11/30/11
f 12/31/12 11/32/11 13/33/13
f 14/34/14 12/35/12 13/36/13
f 14/37/14 13/38/13 15/39/15
f 16/40/16 14/41/14 15/42/15
f 16/43/16 15/44/15 17/45/17
f 18/46/18 16/47/16 17/48/17
f 18/49/18 17/50/17 19/51/19
f 20/52/20 18/53/18 19/54/19
f 20/55/20 19/56/19 21/57/21
f 22/58/22 20/59/20 21/60/21
f 22/61/22 21/62/21 23/63/23
f 24/64/24 22/65/22 23/66/23
f 24/67/24 23/68/23 25/69/25
f 26/70/26 24/71/24 25/72/25
f 26/73/26 25/74/25 27/75/27
f 28/76/28 26/77/26 27/78/27
f 28/79/28 27/80/27 29/81/29
f 30/82/30 28/83/28 29/84/29
f 30/85/30 29/86/29 31/87/31
f 32/88/32 30/89/30 31/90/31
f 32/91/32 31/92/31 33/93/33
f 34/94/34 32/95/32 33/96/33
f 34/97/34 33/98/33 35/99/35
f 36/100/36 34/101/34 35/102/35
f 36/103/36 35/104/35 37/105/37
f 38/106/38 36/107/36 37/108/37
f 38/109/38 37/110/37 39/111/39
f 40/112/40 38/113/38 39/114/39
