# Exported by Lightwave Blender addon
v 215.7346954345703 118.66661071777344 1095.60986328125
v 215.7346954345703 118.66661071777344 1102.5296630859375
v 184.16102600097656 106.11579895019531 1095.6097412109375
v 184.16102600097656 106.11581420898438 1102.5296630859375
v 160.8543701171875 256.2999267578125 1101.8863525390625
v 160.8543701171875 256.2999267578125 1094.9664306640625
v 129.4065704345703 243.7996368408203 1101.8863525390625
v 129.40658569335938 243.7996368408203 1094.9664306640625
v 183.14793395996094 106.55248260498047 1102.5296630859375
v 183.14791870117188 106.55247497558594 1095.6097412109375
v 128.969970703125 242.7866973876953 1094.9664306640625
v 128.969970703125 242.78668212890625 1101.8863525390625
v 161.14410400390625 255.5762939453125 1094.1864013671875
v 129.69483947753906 243.0748291015625 1094.1864013671875
v 215.4464569091797 119.39141845703125 1094.8297119140625
v 183.87277221679688 106.84062194824219 1094.8297119140625
v 215.4464569091797 119.39141845703125 1103.3096923828125
v 183.87277221679688 106.84062194824219 1103.3096923828125
v 129.69482421875 243.0748291015625 1102.666259765625
v 161.14410400390625 255.5762939453125 1102.666259765625
vt 0.763671875 0.578125
vt 0.763671875 0.5380859375
vt 0.9609375 0.578125
vt 0.763671875 0.5380859375
vt 0.9609375 0.5380859375
vt 0.9609375 0.578125
vt 0.9599609375 0.72119140625
vt 0.9599609375 0.7611083984375
vt 0.763671875 0.72119140625
vt 0.9599609375 0.7611083984375
vt 0.763671875 0.7611083984375
vt 0.763671875 0.72119140625
vt 0.0019989013671875 0.90594482421875
vt 0.008331298828125 0.90594482421875
vt 0.0019989013671875 0.946014404296875
vt 0.008331298828125 0.90594482421875
vt 0.008331298828125 0.946014404296875
vt 0.0019989013671875 0.946014404296875
vt 0.008331298828125 0.946014404296875
vt 0.008331298828125 0.90594482421875
vt 0.85791015625 0.946014404296875
vt 0.008331298828125 0.90594482421875
vt 0.85791015625 0.90594482421875
vt 0.85791015625 0.946014404296875
vt 0.85791015625 0.946014404296875
vt 0.85791015625 0.90594482421875
vt 0.8642578125 0.90594482421875
vt 0.8642578125 0.946014404296875
vt 0.85791015625 0.946014404296875
vt 0.8642578125 0.90594482421875
vt 0.86767578125 0.50390625
vt 0.86181640625 0.50390625
vt 0.86767578125 0.30810546875
vt 0.86181640625 0.50390625
vt 0.86181640625 0.30810546875
vt 0.86767578125 0.30810546875
vt 0.86181640625 0.30224609375
vt 0.86767578125 0.30810546875
vt 0.86181640625 0.30810546875
vt 0.86181640625 0.50390625
vt 0.0109710693359375 0.506591796875
vt 0.86181640625 0.30810546875
vt 0.86181640625 0.30224609375
vt 0.86181640625 0.30810546875
vt 0.0109710693359375 0.30224609375
vt 0.0109710693359375 0.506591796875
vt 0.0109710693359375 0.30810546875
vt 0.86181640625 0.30810546875
vt 0.86181640625 0.30810546875
vt 0.0109710693359375 0.30810546875
vt 0.0109710693359375 0.30224609375
vt 0.0109710693359375 0.30810546875
vt 0.0109710693359375 0.506591796875
vt 0.004749298095703125 0.506591796875
vt 0.004749298095703125 0.30810546875
vt 0.0109710693359375 0.30224609375
vt 0.0109710693359375 0.30810546875
vt 0.004749298095703125 0.30810546875
vt 0.0109710693359375 0.30810546875
vt 0.004749298095703125 0.506591796875
vt 0.0078277587890625 0.03564453125
vt 0.013916015625 0.03564453125
vt 0.0078277587890625 0.23291015625
vt 0.013916015625 0.03564453125
vt 0.013916015625 0.23291015625
vt 0.0078277587890625 0.23291015625
vt 0.013916015625 0.23291015625
vt 0.013916015625 0.23828125
vt 0.0078277587890625 0.23291015625
vt 0.013916015625 0.23828125
vt 0.013916015625 0.23291015625
vt 0.865234375 0.23828125
vt 0.013916015625 0.23291015625
vt 0.013916015625 0.03564453125
vt 0.865234375 0.23291015625
vt 0.013916015625 0.23291015625
vt 0.865234375 0.23291015625
vt 0.865234375 0.23828125
vt 0.013916015625 0.03564453125
vt 0.865234375 0.03564453125
vt 0.865234375 0.23291015625
vt 0.865234375 0.23291015625
vt 0.87109375 0.23291015625
vt 0.865234375 0.23828125
vt 0.865234375 0.23291015625
vt 0.865234375 0.03564453125
vt 0.87109375 0.03564453125
vt 0.87109375 0.23291015625
vt 0.865234375 0.23291015625
vt 0.87109375 0.03564453125
vn 0.3412829637527466 -0.8585549592971802 -0.38263460993766785
vn 0.34127724170684814 -0.8585405349731445 0.38267239928245544
vn 0.006047987844794989 -0.9398314952850342 -0.3415847420692444
vn 0.006050754804164171 -0.9398329257965088 0.3415808379650116
vn -0.3412554860115051 0.8585025072097778 0.3827768564224243
vn -0.34125566482543945 0.8585191369056702 -0.38273951411247253
vn -0.6408795118331909 0.6874350905418396 0.34162333607673645
vn -0.6408822536468506 0.6874492168426514 -0.34158962965011597
vn -0.6877486109733582 -0.6402324438095093 0.3422050178050995
vn -0.6870639324188232 -0.6416358351707458 -0.34094956517219543
vn -0.9395946264266968 -0.006854369305074215 -0.3422206938266754
vn -0.9400506615638733 -0.00537367258220911 0.3409924805164337
vn -0.1405399739742279 0.35356518626213074 -0.9247919917106628
vn -0.442927747964859 0.1894480437040329 -0.8763130307197571
vn 0.1421782523393631 -0.3576738238334656 -0.9229598641395569
vn -0.19050203263759613 -0.4453792870044708 -0.8748406767845154
vn 0.1406691074371338 -0.35387715697288513 0.9246530532836914
vn -0.191937655210495 -0.4418865442276001 0.8762968182563782
vn -0.4442542791366577 0.19296115636825562 0.8748738169670105
vn -0.14203177392482758 0.35730186104774475 0.9231263995170593
f 1/1/1 2/2/2 3/3/3
f 2/4/2 4/5/4 3/6/3
f 5/7/5 6/8/6 7/9/7
f 6/10/6 8/11/8 7/12/7
f 4/13/4 9/14/9 3/15/3
f 9/16/9 10/17/10 3/18/3
f 10/19/10 9/20/9 11/21/11
f 9/22/9 12/23/12 11/24/11
f 11/25/11 12/26/12 7/27/7
f 8/28/8 11/29/11 7/30/7
f 6/31/6 13/32/13 8/33/8
f 13/34/13 14/35/14 8/36/8
f 11/37/11 8/38/8 14/39/14
f 13/40/13 15/41/15 14/42/14
f 11/43/11 14/44/14 10/45/10
f 15/46/15 16/47/16 14/48/14
f 14/49/14 16/50/16 10/51/10
f 16/52/16 15/53/15 1/54/1
f 3/55/3 10/56/10 16/57/16
f 3/58/3 16/59/16 1/60/1
f 2/61/2 17/62/17 4/63/4
f 17/64/17 18/65/18 4/66/4
f 18/67/18 9/68/9 4/69/4
f 9/70/9 18/71/18 12/72/12
f 18/73/18 17/74/17 19/75/19
f 18/76/18 19/77/19 12/78/12
f 17/79/17 20/80/20 19/81/19
f 19/82/19 7/83/7 12/84/12
f 19/85/19 20/86/20 5/87/5
f 7/88/7 19/89/19 5/90/5
