# Exported by Lightwave Blender addon
v -117.90731048583984 -1607.5260009765625 526.1521606445312
v -159.99163818359375 -1710.4451904296875 526.1522827148438
v -117.90731048583984 -1607.5260009765625 708.232421875
v -159.99163818359375 -1710.4451904296875 708.2324829101562
v -122.73898315429688 -1605.5504150390625 520.9322509765625
v -233.3528289794922 -1560.3197021484375 520.9322509765625
v -164.82330322265625 -1708.4693603515625 520.9323120117188
v -275.4371643066406 -1663.23876953125 520.9322509765625
v -166.7989959716797 -1713.30126953125 526.1522827148438
v -277.4128112792969 -1668.0703125 526.1522827148438
v -166.7989959716797 -1713.30126953125 708.2324829101562
v -277.4128112792969 -1668.0703125 708.232421875
v -164.82330322265625 -1708.46923828125 713.4524536132812
v -275.4371032714844 -1663.2386474609375 713.4524536132812
v -122.73897552490234 -1605.55029296875 713.4524536132812
v -233.3528289794922 -1560.3194580078125 713.452392578125
v -120.76327514648438 -1600.7188720703125 708.2323608398438
v -231.3771209716797 -1555.4879150390625 708.2323608398438
v -120.76327514648438 -1600.71875 526.1522216796875
v -231.37713623046875 -1555.4879150390625 526.1522827148438
vt 0.50390625 0.076171875
vt 1.0595703125 0.076171875
vt 0.50390625 0.9861984252929688
vt 1.0595703125 0.076171875
vt 1.0595703125 0.9861984252929688
vt 0.50390625 0.9861984252929688
vt 0.495849609375 1.68603515625
vt 0.495849609375 2.283203125
vt -0.06005859375 1.68603515625
vt 0.495849609375 2.283203125
vt -0.06005859375 2.283203125
vt -0.06005859375 1.68603515625
vt 0.923828125 1.68603515625
vt 0.923828125 2.283203125
vt 0.01380157470703125 1.68603515625
vt 0.923828125 2.283203125
vt 0.01380157470703125 2.283203125
vt 0.01380157470703125 1.68603515625
vt 1.0595703125 1.68603515625
vt 1.0595703125 2.283203125
vt 0.50390625 1.68603515625
vt 1.0595703125 2.283203125
vt 0.50390625 2.283203125
vt 0.50390625 1.68603515625
vt 0.98583984375 1.68603515625
vt 0.98583984375 2.283203125
vt 0.07574462890625 1.68603515625
vt 0.98583984375 2.283203125
vt 0.07574462890625 2.283203125
vt 0.07574462890625 1.68603515625
vt 1.0595703125 1.65966796875
vt 1.0595703125 1.68603515625
vt 0.50390625 1.65966796875
vt 1.0595703125 1.68603515625
vt 0.50390625 1.68603515625
vt 0.50390625 1.65966796875
vt 0.495849609375 1.65966796875
vt 0.495849609375 1.68603515625
vt -0.06005859375 1.65966796875
vt 0.495849609375 1.68603515625
vt -0.06005859375 1.68603515625
vt -0.06005859375 1.65966796875
vt -0.06005859375 2.283203125
vt -0.08612060546875 2.283203125
vt -0.06005859375 1.68603515625
vt -0.08612060546875 2.283203125
vt -0.08612060546875 1.68603515625
vt -0.06005859375 1.68603515625
vt 0.50390625 2.283203125
vt 0.477783203125 2.283203125
vt 0.50390625 1.68603515625
vt 0.477783203125 2.283203125
vt 0.477783203125 1.68603515625
vt 0.50390625 1.68603515625
vt 0.98583984375 1.65966796875
vt 1.01171875 1.68603515625
vt 0.98583984375 1.68603515625
vt 0.98583984375 1.65966796875
vt 0.98583984375 1.68603515625
vt 0.07574462890625 1.65966796875
vt 0.98583984375 1.68603515625
vt 0.07574462890625 1.68603515625
vt 0.07574462890625 1.65966796875
vt 0.07574462890625 1.65966796875
vt 0.07574462890625 1.68603515625
vt 0.0496826171875 1.68603515625
vt 0.0496826171875 1.68603515625
vt 0.07574462890625 1.68603515625
vt 0.0496826171875 2.283203125
vt 0.07574462890625 1.68603515625
vt 0.07574462890625 2.283203125
vt 0.0496826171875 2.283203125
vt 0.9501953125 1.68603515625
vt 0.923828125 1.68603515625
vt 0.923828125 1.65966796875
vt 0.923828125 1.65966796875
vt 0.923828125 1.68603515625
vt 0.01380157470703125 1.65966796875
vt 0.923828125 1.68603515625
vt 0.01380157470703125 1.68603515625
vt 0.01380157470703125 1.65966796875
vt 0.01380157470703125 1.68603515625
vt -0.01229095458984375 1.68603515625
vt 0.01380157470703125 1.65966796875
vt -0.01229095458984375 2.283203125
vt -0.01229095458984375 1.68603515625
vt 0.01380157470703125 1.68603515625
vt 0.01380157470703125 2.283203125
vt -0.01229095458984375 2.283203125
vt 0.01380157470703125 1.68603515625
vn -0.9397269487380981 0.015215405263006687 0.34158700704574585
vn -0.6811591386795044 0.6475622057914734 0.3415924310684204
vn -0.9397273063659668 0.01521716546267271 -0.34158608317375183
vn -0.6811564564704895 0.6475654244422913 -0.34159189462661743
vn -0.4454565942287445 -0.18688488006591797 0.8755812048912048
vn -0.14483700692653656 -0.3542049825191498 0.9238837361335754
vn -0.18688315153121948 0.44544199109077454 0.8755889534950256
vn 0.14484262466430664 0.35422179102897644 0.9238764047622681
vn 0.015213355422019958 0.9397246241569519 0.34159359335899353
vn 0.34967735409736633 0.8551511168479919 0.3826778531074524
vn 0.015217116102576256 0.9397220611572266 -0.3416006565093994
vn 0.3496781289577484 0.85514897108078 -0.38268202543258667
vn -0.1868913322687149 0.4454398453235626 -0.8755882978439331
vn 0.1448390781879425 0.35420799255371094 -0.9238821864128113
vn -0.4454548954963684 -0.1868981420993805 -0.8755792379379272
vn -0.1448427140712738 -0.3542199730873108 -0.9238770604133606
vn -0.6475703120231628 -0.6811614632606506 -0.34157246351242065
vn -0.3496776223182678 -0.8551504611968994 -0.3826788365840912
vn -0.6475639343261719 -0.6811601519584656 0.3415873050689697
vn -0.3496761918067932 -0.8551480174064636 0.3826858103275299
f 1/1/1 2/2/2 3/3/3
f 2/4/2 4/5/4 3/6/3
f 5/7/5 6/8/6 7/9/7
f 6/10/6 8/11/8 7/12/7
f 9/13/9 10/14/10 11/15/11
f 10/16/10 12/17/12 11/18/11
f 13/19/13 14/20/14 15/21/15
f 14/22/14 16/23/16 15/24/15
f 17/25/17 18/26/18 19/27/19
f 18/28/18 20/29/20 19/30/19
f 4/31/4 13/32/13 3/33/3
f 13/34/13 15/35/15 3/36/3
f 1/37/1 5/38/5 2/39/2
f 5/40/5 7/41/7 2/42/2
f 8/43/8 10/44/10 7/45/7
f 10/46/10 9/47/9 7/48/7
f 16/49/16 18/50/18 15/51/15
f 18/52/18 17/53/17 15/54/15
f 3/55/3 15/56/15 17/57/17
f 3/58/3 17/59/17 1/60/1
f 17/61/17 19/62/19 1/63/1
f 1/64/1 19/65/19 5/66/5
f 5/67/5 19/68/19 6/69/6
f 19/70/19 20/71/20 6/72/6
f 7/73/7 9/74/9 2/75/2
f 2/76/2 9/77/9 4/78/4
f 9/79/9 11/80/11 4/81/4
f 11/82/11 13/83/13 4/84/4
f 14/85/14 13/86/13 11/87/11
f 12/88/12 14/89/14 11/90/11
