# Exported by Lightwave Blender addon
v 429.8397521972656 -264.8934326171875 820.5621337890625
v 429.7861022949219 -264.87255859375 871.0996704101562
v 429.21630859375 -266.363525390625 820.5620727539062
v 429.205078125 -266.3085021972656 871.0776977539062
v 428.94451904296875 -266.52410888671875 871.0735473632812
v 428.9512634277344 -266.5770568847656 820.5620727539062
v 428.0119934082031 -266.2120361328125 820.5620727539062
v 428.05279541015625 -266.17755126953125 871.0735473632812
v 428.0062255859375 -265.84259033203125 871.0776977539062
v 427.9607238769531 -265.87554931640625 820.5620727539062
v 428.49359130859375 -264.3702392578125 820.5621337890625
v 428.54730224609375 -264.39111328125 871.0996704101562
v 516.3924560546875 -298.5304260253906 820.56201171875
v 516.3388061523438 -298.5095520019531 871.0996704101562
v 515.7689819335938 -300.00048828125 820.5620727539062
v 515.7577514648438 -299.94549560546875 871.07763671875
v 515.4972534179688 -300.16107177734375 871.073486328125
v 515.5039672851562 -300.21405029296875 820.5621337890625
v 514.564697265625 -299.84906005859375 820.5621337890625
v 514.6055297851562 -299.8145751953125 871.073486328125
v 514.5589599609375 -299.4795837402344 871.07763671875
v 514.513427734375 -299.5125732421875 820.5620727539062
v 515.0463256835938 -298.00726318359375 820.56201171875
v 515.0999755859375 -298.0281066894531 871.0996704101562
v 420.9986572265625 -260.6265869140625 862.199951171875
v 523.7900390625 -300.57440185546875 862.1998901367188
v 419.7838439941406 -263.75244140625 862.2234497070312
v 522.5751953125 -303.70025634765625 862.223388671875
v 522.4689331054688 -303.97357177734375 862.438720703125
v 419.6776123046875 -264.0257568359375 862.4387817382812
v 419.6776428222656 -264.0257568359375 863.5399780273438
v 522.468994140625 -303.97357177734375 863.5400390625
v 522.5751953125 -303.70025634765625 863.7554321289062
v 419.7838439941406 -263.75244140625 863.7555541992188
v 420.9986267089844 -260.6265869140625 863.7789916992188
v 523.7899780273438 -300.57440185546875 863.7789916992188
v 420.99859619140625 -260.6265869140625 819.3058471679688
v 523.7899169921875 -300.57440185546875 819.305908203125
v 419.7838134765625 -263.75244140625 819.329345703125
v 522.5751953125 -303.70025634765625 819.3294067382812
v 522.4689331054688 -303.9735412597656 819.5447387695312
v 419.6775817871094 -264.0257568359375 819.5447998046875
v 419.6776123046875 -264.0257568359375 820.64599609375
v 522.4689331054688 -303.9735412597656 820.64599609375
v 522.5751953125 -303.70025634765625 820.8613891601562
v 419.7838134765625 -263.75244140625 820.8613891601562
v 420.9986572265625 -260.6265869140625 820.8849487304688
v 523.7899780273438 -300.57440185546875 820.885009765625
v 420.11187744140625 -259.9075622558594 870.4086303710938
v 420.11187744140625 -259.90753173828125 870.9287719726562
v 525.2135620117188 -300.72454833984375 870.9287109375
v 525.2135620117188 -300.72454833984375 870.4085693359375
v 525.0985107421875 -301.0224609375 870.22998046875
v 419.99993896484375 -260.2065734863281 870.22998046875
v 419.0143737792969 -262.8393249511719 870.22998046875
v 524.10498046875 -303.5954284667969 870.2299194335938
v 523.9899291992188 -303.89337158203125 870.4085693359375
v 418.90240478515625 -263.13836669921875 870.40869140625
v 418.90240478515625 -263.13836669921875 870.9288330078125
v 523.9899291992188 -303.89337158203125 870.9286499023438
vt 0.96044921875 0.53076171875
vt 0.6474609375 0.5302734375
vt 0.96044921875 0.525390625
vt 0.6474609375 0.5302734375
vt 0.6474609375 0.525146484375
vt 0.96044921875 0.525390625
vt 0.96044921875 0.525390625
vt 0.6474609375 0.525146484375
vt 0.6474609375 0.523681640625
vt 0.96044921875 0.52392578125
vt 0.96044921875 0.525390625
vt 0.6474609375 0.523681640625
vt 0.96044921875 0.52392578125
vt 0.6474609375 0.523681640625
vt 0.96044921875 0.517822265625
vt 0.6474609375 0.523681640625
vt 0.6474609375 0.517822265625
vt 0.96044921875 0.517822265625
vt 0.6474609375 0.517822265625
vt 0.6474609375 0.5166015625
vt 0.96044921875 0.517822265625
vt 0.6474609375 0.5166015625
vt 0.96044921875 0.516357421875
vt 0.96044921875 0.517822265625
vt 0.96044921875 0.510986328125
vt 0.96044921875 0.516357421875
vt 0.6474609375 0.5166015625
vt 0.6474609375 0.51123046875
vt 0.96044921875 0.510986328125
vt 0.6474609375 0.5166015625
vt 0.96044921875 0.41748046875
vt 0.6474609375 0.4169921875
vt 0.96044921875 0.412109375
vt 0.6474609375 0.4169921875
vt 0.6474609375 0.41162109375
vt 0.96044921875 0.412109375
vt 0.96044921875 0.412109375
vt 0.6474609375 0.41162109375
vt 0.6474609375 0.41015625
vt 0.96044921875 0.41064453125
vt 0.96044921875 0.412109375
vt 0.6474609375 0.41015625
vt 0.96044921875 0.41064453125
vt 0.6474609375 0.41015625
vt 0.96044921875 0.404296875
vt 0.6474609375 0.41015625
vt 0.6474609375 0.404296875
vt 0.96044921875 0.404296875
vt 0.6474609375 0.404296875
vt 0.6474609375 0.40283203125
vt 0.96044921875 0.404296875
vt 0.6474609375 0.40283203125
vt 0.96044921875 0.40283203125
vt 0.96044921875 0.404296875
vt 0.96044921875 0.3974609375
vt 0.96044921875 0.40283203125
vt 0.6474609375 0.40283203125
vt 0.6474609375 0.39794921875
vt 0.96044921875 0.3974609375
vt 0.6474609375 0.40283203125
vt 1.3857421875 0.06787109375
vt 2.08984375 0.06787109375
vt 1.3857421875 0.07958984375
vt 2.08984375 0.06787109375
vt 2.08984375 0.07958984375
vt 1.3857421875 0.07958984375
vt 1.3857421875 0.07958984375
vt 2.08984375 0.07958984375
vt 2.08984375 0.08154296875
vt 1.3857421875 0.08154296875
vt 1.3857421875 0.07958984375
vt 2.08984375 0.08154296875
vt 1.3857421875 0.08154296875
vt 2.08984375 0.08154296875
vt 1.3857421875 0.08837890625
vt 2.08984375 0.08154296875
vt 2.08984375 0.08837890625
vt 1.3857421875 0.08837890625
vt 2.08984375 0.08837890625
vt 2.08984375 0.08984375
vt 1.3857421875 0.08837890625
vt 2.08984375 0.08984375
vt 1.3857421875 0.08984375
vt 1.3857421875 0.08837890625
vt 1.3857421875 0.1015625
vt 1.3857421875 0.08984375
vt 2.08984375 0.08984375
vt 2.08984375 0.1015625
vt 1.3857421875 0.1015625
vt 2.08984375 0.08984375
vt 2.0859375 0.27880859375
vt 1.3837890625 0.27880859375
vt 2.0859375 0.26708984375
vt 1.3837890625 0.27880859375
vt 1.3837890625 0.26708984375
vt 2.0859375 0.26708984375
vt 2.0859375 0.26708984375
vt 1.3837890625 0.26708984375
vt 1.3837890625 0.26513671875
vt 2.0859375 0.26513671875
vt 2.0859375 0.26708984375
vt 1.3837890625 0.26513671875
vt 2.0859375 0.26513671875
vt 1.3837890625 0.26513671875
vt 2.0859375 0.25830078125
vt 1.3837890625 0.26513671875
vt 1.3837890625 0.25830078125
vt 2.0859375 0.25830078125
vt 1.3837890625 0.25830078125
vt 1.3837890625 0.2568359375
vt 2.0859375 0.25830078125
vt 1.3837890625 0.2568359375
vt 2.0859375 0.2568359375
vt 2.0859375 0.25830078125
vt 2.0859375 0.2451171875
vt 2.0859375 0.2568359375
vt 1.3837890625 0.2568359375
vt 1.3837890625 0.2451171875
vt 2.0859375 0.2451171875
vt 1.3837890625 0.2568359375
vt 0.2203369140625 0.26953125
vt 0.2203369140625 0.26611328125
vt 0.9130859375 0.26611328125
vt 0.9130859375 0.26904296875
vt 0.2203369140625 0.26953125
vt 0.9130859375 0.26611328125
vt 0.2203369140625 0.26953125
vt 0.9130859375 0.26904296875
vt 0.9130859375 0.27099609375
vt 0.2203369140625 0.27099609375
vt 0.2203369140625 0.26953125
vt 0.9130859375 0.27099609375
vt 0.2203369140625 0.27099609375
vt 0.9130859375 0.27099609375
vt 0.2205810546875 0.2802734375
vt 0.9130859375 0.27099609375
vt 0.9130859375 0.27978515625
vt 0.2205810546875 0.2802734375
vt 0.9130859375 0.27978515625
vt 0.9130859375 0.28173828125
vt 0.2205810546875 0.2802734375
vt 0.9130859375 0.28173828125
vt 0.2205810546875 0.28173828125
vt 0.2205810546875 0.2802734375
vt 0.2205810546875 0.28173828125
vt 0.9130859375 0.28173828125
vt 0.2205810546875 0.28466796875
vt 0.9130859375 0.28173828125
vt 0.9130859375 0.28466796875
vt 0.2205810546875 0.28466796875
vn 0.9206334352493286 -0.3904264569282532 0.0011385924881324172
vn 0.9268599152565002 -0.37540680170059204 0.0006252792663872242
vn 0.7980237007141113 -0.6026251316070557 0.0010457896860316396
vn 0.8081584572792053 -0.588964581489563 0.000821185705717653
vn 0.16184444725513458 -0.9868157505989075 0.0011073023779317737
vn 0.1531420648097992 -0.9882035851478577 0.0010563192190602422
vn -0.7802979946136475 -0.6254069209098816 0.0011073697824031115
vn -0.7857754230499268 -0.6185110807418823 0.0010569969890639186
vn -0.9938040971755981 0.11114085465669632 0.0010450986446812749
vn -0.9955477714538574 0.09425439685583115 0.0008352385484613478
vn -0.9425709247589111 0.3340054154396057 0.0006413174560293555
vn -0.9370173811912537 0.34928086400032043 0.0011401224182918668
vn 0.9206237196922302 -0.3904494643211365 0.0011385891120880842
vn 0.9268530011177063 -0.3754239082336426 0.0006250754813663661
vn 0.7980671525001526 -0.6025674939155579 0.0010457872413098812
vn 0.8081681728363037 -0.5889511704444885 0.0008208184153772891
vn 0.16189421713352203 -0.9868075251579285 0.0011071301996707916
vn 0.15325072407722473 -0.9881867170333862 0.0010568232974037528
vn -0.7803113460540771 -0.6253901720046997 0.0011082354467362165
vn -0.7857607007026672 -0.6185296177864075 0.0010574751067906618
vn -0.9938051700592041 0.11113126575946808 0.001044715172611177
vn -0.9955450296401978 0.09428364038467407 0.000835762417409569
vn -0.9425653219223022 0.3340214490890503 0.0006416370160877705
vn -0.9370302557945251 0.3492462933063507 0.0011387766571715474
vn -0.0025386183988302946 -0.006530696526169777 -0.9999754428863525
vn -0.002538611413910985 -0.00653067696839571 -0.9999754428863525
vn -0.11401765048503876 -0.2933819591999054 -0.9491717219352722
vn -0.11401034891605377 -0.2933632731437683 -0.9491784572601318
vn -0.3231712281703949 -0.8315643668174744 -0.45173126459121704
vn -0.3231731951236725 -0.831569254398346 -0.45172083377838135
vn -0.3232160210609436 -0.831681489944458 0.45148342847824097
vn -0.32318294048309326 -0.8315944671630859 0.45166733860969543
vn -0.11404862999916077 -0.2934625744819641 0.9491430521011353
vn -0.11410751938819885 -0.2936176061630249 0.9490880966186523
vn -0.0025307629257440567 -0.006515006069093943 0.9999755620956421
vn -0.0025447048246860504 -0.006547883152961731 0.999975323677063
vn -0.0025375986006110907 -0.006531124468892813 -0.9999755024909973
vn -0.002537611871957779 -0.006531163118779659 -0.9999755024909973
vn -0.11406438052654266 -0.29350408911705017 -0.9491283893585205
vn -0.11401747167110443 -0.29338449239730835 -0.9491709470748901
vn -0.3231700658798218 -0.8315630555152893 -0.4517344832420349
vn -0.3231950104236603 -0.8316262364387512 -0.4516001045703888
vn -0.3231838047504425 -0.8315978646278381 0.45166051387786865
vn -0.32318150997161865 -0.8315919041633606 0.45167309045791626
vn -0.11404678225517273 -0.2934577763080597 0.9491448402404785
vn -0.1140456274151802 -0.2934555113315582 0.9491455554962158
vn -0.002544824732467532 -0.0065481639467179775 0.999975323677063
vn -0.00255181104876101 -0.006564640440046787 0.9999752044677734
vn 0.31265267729759216 0.8050639033317566 -0.5041036009788513
vn 0.36201584339141846 0.9321718811988831 -5.4692081903340295e-05
vn 0.36201563477516174 0.9321720600128174 -1.6034458383273886e-07
vn 0.3122103214263916 0.8039266467094421 -0.5061882138252258
vn 0.09119723737239838 0.23482976853847504 -0.9677489399909973
vn 0.09201247245073318 0.2369268536567688 -0.9671605229377747
vn -0.0906154066324234 -0.23365214467048645 -0.9680885672569275
vn -0.09128201752901077 -0.2353714406490326 -0.9676094055175781
vn -0.3119444251060486 -0.8043542504310608 -0.5056727528572083
vn -0.31157854199409485 -0.8034093976020813 -0.507397472858429
vn -0.36158016324043274 -0.9323409795761108 0.0
vn -0.36158016324043274 -0.9323410987854004 0.0
f 1/1/1 2/2/2 3/3/3
f 2/4/2 4/5/4 3/6/3
f 3/7/3 4/8/4 5/9/5
f 6/10/6 3/11/3 5/12/5
f 6/13/6 5/14/5 7/15/7
f 5/16/5 8/17/8 7/18/7
f 8/19/8 9/20/9 7/21/7
f 9/22/9 10/23/10 7/24/7
f 11/25/11 10/26/10 9/27/9
f 12/28/12 11/29/11 9/30/9
f 13/31/13 14/32/14 15/33/15
f 14/34/14 16/35/16 15/36/15
f 15/37/15 16/38/16 17/39/17
f 18/40/18 15/41/15 17/42/17
f 18/43/18 17/44/17 19/45/19
f 17/46/17 20/47/20 19/48/19
f 20/49/20 21/50/21 19/51/19
f 21/52/21 22/53/22 19/54/19
f 23/55/23 22/56/22 21/57/21
f 24/58/24 23/59/23 21/60/21
f 25/61/25 26/62/26 27/63/27
f 26/64/26 28/65/28 27/66/27
f 27/67/27 28/68/28 29/69/29
f 30/70/30 27/71/27 29/72/29
f 30/73/30 29/74/29 31/75/31
f 29/76/29 32/77/32 31/78/31
f 32/79/32 33/80/33 31/81/31
f 33/82/33 34/83/34 31/84/31
f 35/85/35 34/86/34 33/87/33
f 36/88/36 35/89/35 33/90/33
f 37/91/37 38/92/38 39/93/39
f 38/94/38 40/95/40 39/96/39
f 39/97/39 40/98/40 41/99/41
f 42/100/42 39/101/39 41/102/41
f 42/103/42 41/104/41 43/105/43
f 41/106/41 44/107/44 43/108/43
f 44/109/44 45/110/45 43/111/43
f 45/112/45 46/113/46 43/114/43
f 47/115/47 46/116/46 45/117/45
f 48/118/48 47/119/47 45/120/45
f 49/121/49 50/122/50 51/123/51
f 52/124/52 49/125/49 51/126/51
f 49/127/49 52/128/52 53/129/53
f 54/130/54 49/131/49 53/132/53
f 54/133/54 53/134/53 55/135/55
f 53/136/53 56/137/56 55/138/55
f 56/139/56 57/140/57 55/141/55
f 57/142/57 58/143/58 55/144/55
f 58/145/58 57/146/57 59/147/59
f 57/148/57 60/149/60 59/150/59
