# Exported by Lightwave Blender addon
v 1357.533447265625 1772.5322265625 2421.601806640625
v 789.0913696289062 1071.7391357421875 2421.602294921875
v 1611.0374755859375 1568.1903076171875 2421.601806640625
v 1042.5015869140625 867.5538940429688 2421.6025390625
v 524.7049560546875 1284.918701171875 2021.6025390625
v 337.7760314941406 1053.0902099609375 2021.6031494140625
v 365.4886474609375 1056.0611572265625 2082.498291015625
v 540.0469970703125 1272.548095703125 2082.497314453125
v 1092.998291015625 1985.8583984375 2021.60302734375
v 1108.393310546875 1973.5531005859375 2082.496826171875
v 1134.9542236328125 1952.135498046875 2169.2099609375
v 566.711669921875 1251.0482177734375 2169.07568359375
v 415.5272521972656 1062.6473388671875 2171.18701171875
v 1161.79345703125 1930.4940185546875 2225.965576171875
v 593.4939575195312 1229.453369140625 2225.9658203125
v 462.0527648925781 1066.7586669921875 2225.966552734375
v 615.6829223632812 1211.5618896484375 2266.146484375
v 502.80938720703125 1069.2469482421875 2265.313720703125
v 1183.047607421875 1913.3565673828125 2265.73388671875
v 547.5651245117188 1070.896484375 2300.076904296875
v 640.756103515625 1191.344970703125 2303.311279296875
v 1209.6116943359375 1891.9371337890625 2302.525390625
v 1242.048583984375 1865.7945556640625 2340.01025390625
v 672.7550048828125 1165.5438232421875 2341.482666015625
v 603.7149658203125 1071.875244140625 2335.140869140625
v 663.473876953125 1071.967041015625 2364.60302734375
v 709.1043701171875 1136.2342529296875 2372.670654296875
v 1278.576904296875 1836.330322265625 2370.9609375
v 602.16162109375 839.9097900390625 2021.6033935546875
v 614.5324096679688 855.2518310546875 2082.498046875
v 855.6248168945312 635.7725219726562 2021.6031494140625
v 867.87158203125 650.9785766601562 2082.498046875
v 890.0283813476562 678.4569091796875 2168.105224609375
v 636.71923828125 882.7679443359375 2168.063720703125
v 657.9170532226562 909.057373046875 2225.966796875
v 911.2445678710938 704.7687377929688 2225.966552734375
v 673.3523559570312 928.2001953125 2264.5927734375
v 925.52978515625 722.4851684570312 2264.736572265625
v 943.78759765625 745.1288452148438 2301.207763671875
v 690.3253784179688 949.2504272460938 2301.46044921875
v 711.0359497070312 974.9357299804688 2339.33154296875
v 964.604248046875 770.9456176757812 2338.876953125
v 988.6481323242188 800.76513671875 2371.02734375
v 735.0408325195312 1004.7062377929688 2371.554443359375
vt -2.76171875 -2.322265625
vt -2.748046875 2.1884765625
vt -4.390625 -2.322265625
vt -2.748046875 2.1884765625
vt -4.375 2.1875
vt -4.390625 -2.322265625
vt 3.927734375 -0.533203125
vt 5.41796875 -0.533203125
vt 5.31640625 -0.212890625
vt 3.927734375 -0.212890625
vt 3.927734375 -0.533203125
vt 5.31640625 -0.212890625
vt 3.927734375 -0.533203125
vt 3.927734375 -0.212890625
vt -0.5830078125 -0.533203125
vt 3.927734375 -0.212890625
vt -0.583984375 -0.212890625
vt -0.5830078125 -0.533203125
vt -0.583984375 -0.212890625
vt 3.927734375 -0.212890625
vt -0.583984375 0.2529296875
vt 3.927734375 -0.212890625
vt 5.31640625 -0.212890625
vt 3.927734375 0.251953125
vt 3.927734375 -0.212890625
vt 3.927734375 0.251953125
vt -0.583984375 0.2529296875
vt 5.31640625 -0.212890625
vt 5.1328125 0.26318359375
vt 3.927734375 0.251953125
vt -0.583984375 0.2529296875
vt 3.927734375 0.251953125
vt -0.58447265625 0.5859375
vt 3.927734375 0.251953125
vt 5.1328125 0.26318359375
vt 3.927734375 0.584716796875
vt 3.927734375 0.251953125
vt 3.927734375 0.584716796875
vt -0.58447265625 0.5859375
vt 5.1328125 0.26318359375
vt 4.97265625 0.5830078125
vt 3.927734375 0.584716796875
vt 3.927734375 0.584716796875
vt 3.927734375 0.833251953125
vt -0.58447265625 0.5859375
vt 3.927734375 0.584716796875
vt 4.97265625 0.5830078125
vt 3.927734375 0.833251953125
vt 4.97265625 0.5830078125
vt 4.8359375 0.826416015625
vt 3.927734375 0.833251953125
vt 3.927734375 0.833251953125
vt -0.58349609375 0.827392578125
vt -0.58447265625 0.5859375
vt 4.8359375 0.826416015625
vt 4.69140625 1.0709228515625
vt 3.927734375 0.833251953125
vt 3.927734375 0.833251953125
vt 3.9296875 1.0791015625
vt -0.58349609375 0.827392578125
vt 4.69140625 1.0709228515625
vt 3.9296875 1.0791015625
vt 3.927734375 0.833251953125
vt 3.9296875 1.0791015625
vt -0.5830078125 1.078125
vt -0.58349609375 0.827392578125
vt -0.5830078125 1.078125
vt 3.9296875 1.0791015625
vt -0.58251953125 1.358642578125
vt 3.9296875 1.0791015625
vt 4.69140625 1.0709228515625
vt 3.9296875 1.3564453125
vt 3.9296875 1.0791015625
vt 3.9296875 1.3564453125
vt -0.58251953125 1.358642578125
vt 4.69140625 1.0709228515625
vt 4.51171875 1.35498046875
vt 3.9296875 1.3564453125
vt 4.51171875 1.35498046875
vt 4.32421875 1.634765625
vt 3.9296875 1.3564453125
vt 3.9296875 1.3564453125
vt 3.9296875 1.634765625
vt -0.58251953125 1.358642578125
vt 4.32421875 1.634765625
vt 3.9296875 1.634765625
vt 3.9296875 1.3564453125
vt 3.9296875 1.634765625
vt -0.58203125 1.64013671875
vt -0.58251953125 1.358642578125
vt 3.9296875 1.634765625
vt 4.32421875 1.634765625
vt 3.9296875 2.203125
vt -0.58203125 1.64013671875
vt 3.9296875 1.634765625
vt -0.58203125 2.20703125
vt 3.9296875 1.634765625
vt 3.9296875 2.203125
vt -0.58203125 2.20703125
vt -10.609375 2.4990234375
vt -10.7109375 2.1787109375
vt -9.015625 2.169921875
vt -9.0078125 2.490234375
vt -10.609375 2.4990234375
vt -9.015625 2.169921875
vt -9.015625 2.169921875
vt -7.38671875 2.1650390625
vt -9.0078125 2.490234375
vt -7.38671875 2.1650390625
vt -7.38671875 2.484375
vt -9.0078125 2.490234375
vt -9.0078125 2.490234375
vt -7.38671875 2.484375
vt -7.3828125 2.9482421875
vt -9.0078125 2.490234375
vt -9.0078125 2.953125
vt -10.609375 2.4990234375
vt -9.0078125 2.953125
vt -9.0078125 2.490234375
vt -7.3828125 2.9482421875
vt -9.0078125 2.953125
vt -10.4375 2.9775390625
vt -10.609375 2.4990234375
vt -9.0078125 2.953125
vt -7.3828125 2.9482421875
vt -9.0078125 3.287109375
vt -10.4375 2.9775390625
vt -9.0078125 2.953125
vt -9.0078125 3.287109375
vt -7.3828125 2.9482421875
vt -7.3828125 3.283203125
vt -9.0078125 3.287109375
vt -10.265625 3.294921875
vt -10.4375 2.9775390625
vt -9.0078125 3.287109375
vt -9.0078125 3.287109375
vt -7.3828125 3.283203125
vt -9.0078125 3.515625
vt -9.0078125 3.287109375
vt -9.0078125 3.515625
vt -10.265625 3.294921875
vt -7.3828125 3.283203125
vt -7.3828125 3.5078125
vt -9.0078125 3.515625
vt -9.0078125 3.515625
vt -10.109375 3.53515625
vt -10.265625 3.294921875
vt -7.3828125 3.5078125
vt -7.37890625 3.7421875
vt -9.0078125 3.515625
vt -9.0078125 3.515625
vt -9.0078125 3.744140625
vt -10.109375 3.53515625
vt -7.37890625 3.7421875
vt -9.0078125 3.744140625
vt -9.0078125 3.515625
vt -9.0078125 3.744140625
vt -9.9453125 3.76171875
vt -10.109375 3.53515625
vt -9.0078125 3.744140625
vt -7.37890625 3.7421875
vt -9.0078125 3.9921875
vt -9.9453125 3.76171875
vt -9.0078125 3.744140625
vt -9.0078125 3.9921875
vt -7.37890625 3.7421875
vt -7.37890625 3.994140625
vt -9.0078125 3.9921875
vt -9.7265625 4.013671875
vt -9.9453125 3.76171875
vt -9.0078125 3.9921875
vt -7.37890625 3.994140625
vt -7.37890625 4.244140625
vt -9.0078125 3.9921875
vt -9.7265625 4.013671875
vt -9.0078125 3.9921875
vt -9.0078125 4.2421875
vt -7.37890625 4.244140625
vt -9.0078125 4.2421875
vt -9.0078125 3.9921875
vt -9.4921875 4.251953125
vt -9.7265625 4.013671875
vt -9.0078125 4.2421875
vt -9.0078125 4.2421875
vt -7.37890625 4.244140625
vt -7.37890625 4.7421875
vt -9.4921875 4.251953125
vt -9.0078125 4.2421875
vt -9.0078125 4.740234375
vt -9.0078125 4.740234375
vt -9.0078125 4.2421875
vt -7.37890625 4.7421875
vn -0.17658670246601105 0.14463956654071808 0.9735997915267944
vn -0.27205249667167664 -0.05866427719593048 0.9604925513267517
vn 2.4854111302374804e-07 5.72048008962156e-07 1.0
vn -0.16396082937717438 -0.20474863052368164 0.9649844169616699
vn -0.7398371696472168 0.5981870889663696 0.3079173266887665
vn -0.9041027426719666 -0.09693539142608643 0.41617506742477417
vn -0.8887949585914612 -0.09663628786802292 0.44800105690956116
vn -0.7318716645240784 0.5916898250579834 0.33803409337997437
vn -0.7390332221984863 0.5991781949996948 0.30792105197906494
vn -0.7312736511230469 0.5928871035575867 0.3372293710708618
vn -0.6959221363067627 0.5640863180160522 0.4444083571434021
vn -0.6964300870895386 0.5638848543167114 0.4438682794570923
vn -0.8279834985733032 -0.08294803649187088 0.5545836091041565
vn -0.6526152491569519 0.5284317135810852 0.5430039167404175
vn -0.6496928930282593 0.526237428188324 0.548610270023346
vn -0.7362468838691711 -0.08132603019475937 0.6718084812164307
vn -0.6136807799339294 0.487613707780838 0.6209901571273804
vn -0.6659058332443237 -0.08078262954950333 0.7416492104530334
vn -0.6067916750907898 0.4920705258846283 0.6242359280586243
vn -0.5943489074707031 -0.07554829865694046 0.8006508350372314
vn -0.5678709149360657 0.44082364439964294 0.6951237916946411
vn -0.5443577766418457 0.44279804825782776 0.7124637961387634
vn -0.4739944338798523 0.3866344690322876 0.7911024689674377
vn -0.4948793053627014 0.3571951687335968 0.7921528816223145
vn -0.504862368106842 -0.08201061189174652 0.8592952489852905
vn -0.44112756848335266 -0.059546273201704025 0.8954668045043945
vn -0.4205729365348816 0.2646529972553253 0.8678001761436462
vn -0.38631531596183777 0.3163527250289917 0.8664186596870422
vn -0.5969843864440918 -0.740807294845581 0.3079189956188202
vn -0.5890860557556152 -0.7307106256484985 0.3450210690498352
vn -0.5976036190986633 -0.7412522435188293 0.3056388199329376
vn -0.5894903540611267 -0.7310844659805298 0.34353551268577576
vn -0.5625110268592834 -0.6975433826446533 0.44386324286460876
vn -0.5622559785842896 -0.6979411244392395 0.4435611069202423
vn -0.5354689955711365 -0.6649265885353088 0.5207163095474243
vn -0.5429856777191162 -0.6696423292160034 0.5067006945610046
vn -0.5192300081253052 -0.64052814245224 0.5657948851585388
vn -0.5212218761444092 -0.6385482549667358 0.5662012100219727
vn -0.4828830361366272 -0.596849262714386 0.6407768130302429
vn -0.49560171365737915 -0.601250946521759 0.6267983913421631
vn -0.4544013738632202 -0.5293381214141846 0.7164638042449951
vn -0.437188982963562 -0.5450384616851807 0.7154011726379395
vn -0.3609130382537842 -0.45070430636405945 0.8164602518081665
vn -0.3896900713443756 -0.4182942807674408 0.8204703330993652
f 1/1/1 2/2/2 3/3/3
f 2/4/2 4/5/4 3/6/3
f 5/7/5 6/8/6 7/9/7
f 8/10/8 5/11/5 7/12/7
f 5/13/5 8/14/8 9/15/9
f 8/16/8 10/17/10 9/18/9
f 10/19/10 8/20/8 11/21/11
f 8/22/8 7/23/7 12/24/12
f 8/25/8 12/26/12 11/27/11
f 7/28/7 13/29/13 12/30/12
f 11/31/11 12/32/12 14/33/14
f 12/34/12 13/35/13 15/36/15
f 12/37/12 15/38/15 14/39/14
f 13/40/13 16/41/16 15/42/15
f 15/43/15 17/44/17 14/45/14
f 15/46/15 16/47/16 17/48/17
f 16/49/16 18/50/18 17/51/17
f 17/52/17 19/53/19 14/54/14
f 18/55/18 20/56/20 17/57/17
f 17/58/17 21/59/21 19/60/19
f 20/61/20 21/62/21 17/63/17
f 21/64/21 22/65/22 19/66/19
f 22/67/22 21/68/21 23/69/23
f 21/70/21 20/71/20 24/72/24
f 21/73/21 24/74/24 23/75/23
f 20/76/20 25/77/25 24/78/24
f 25/79/25 26/80/26 24/81/24
f 24/82/24 27/83/27 23/84/23
f 26/85/26 27/86/27 24/87/24
f 27/88/27 28/89/28 23/90/23
f 27/91/27 26/92/26 2/93/2
f 28/94/28 27/95/27 1/96/1
f 27/97/27 2/98/2 1/99/1
f 7/100/7 6/101/6 29/102/29
f 30/103/30 7/104/7 29/105/29
f 29/106/29 31/107/31 30/108/30
f 31/109/31 32/110/32 30/111/30
f 30/112/30 32/113/32 33/114/33
f 30/115/30 34/116/34 7/117/7
f 34/118/34 30/119/30 33/120/33
f 34/121/34 13/122/13 7/123/7
f 34/124/34 33/125/33 35/126/35
f 13/127/13 34/128/34 35/129/35
f 33/130/33 36/131/36 35/132/35
f 16/133/16 13/134/13 35/135/35
f 35/136/35 36/137/36 37/138/37
f 35/139/35 37/140/37 16/141/16
f 36/142/36 38/143/38 37/144/37
f 37/145/37 18/146/18 16/147/16
f 38/148/38 39/149/39 37/150/37
f 37/151/37 40/152/40 18/153/18
f 39/154/39 40/155/40 37/156/37
f 40/157/40 20/158/20 18/159/18
f 40/160/40 39/161/39 41/162/41
f 20/163/20 40/164/40 41/165/41
f 39/166/39 42/167/42 41/168/41
f 25/169/25 20/170/20 41/171/41
f 42/172/42 43/173/43 41/174/41
f 25/175/25 41/176/41 44/177/44
f 43/178/43 44/179/44 41/180/41
f 26/181/26 25/182/25 44/183/44
f 44/184/44 43/185/43 4/186/4
f 26/187/26 44/188/44 2/189/2
f 2/190/2 44/191/44 4/192/4
