# Exported by Lightwave Blender addon
v -98.37826538085938 -45.54322052001953 23.828378677368164
v -16.821439743041992 -7.278250694274902 23.85116195678711
v -17.176267623901367 -7.4447197914123535 37.68031692504883
v -98.37826538085938 -45.54322052001953 37.68032455444336
v -113.47486114501953 203.57606506347656 23.850698471069336
v -196.04502868652344 165.22581481933594 23.828433990478516
v -196.04502868652344 165.22581481933594 37.68037796020508
v -113.82660675048828 203.4126739501953 37.680301666259766
v -17.374807357788086 -7.016228675842285 39.04750442504883
v -98.57683563232422 -45.114749908447266 39.04750442504883
v -195.84649658203125 164.79733276367188 39.04755783081055
v -113.62799072265625 202.98414611816406 39.047489166259766
v -17.970449447631836 -5.730785369873047 39.503231048583984
v -99.17245483398438 -43.829307556152344 39.50324630737305
v -102.80123901367188 -44.899452209472656 39.503238677978516
v -102.20559692382812 -46.18489074707031 39.047508239746094
v -105.08122253417969 -44.640621185302734 39.503238677978516
v -105.01160430908203 -45.839500427246094 39.047508239746094
v -106.88147735595703 -43.27608871459961 39.503238677978516
v -107.42161560058594 -44.059181213378906 39.04750442504883
v -108.21855926513672 -40.46762466430664 39.503238677978516
v -109.41603088378906 -41.02227783203125 39.04751205444336
v -198.7041473388672 154.3370361328125 39.503299713134766
v -199.7326202392578 153.8848114013672 39.04756546020508
v -199.59664916992188 157.37547302246094 39.5032844543457
v -200.76022338867188 157.36949157714844 39.047550201416016
v -199.44093322753906 159.8712158203125 39.503299713134766
v -200.53131103515625 160.40277099609375 39.04756546020508
v -198.4137725830078 161.4364471435547 39.503292083740234
v -199.00942993164062 162.7218780517578 39.047550201416016
v -195.25083923339844 163.51190185546875 39.503299713134766
v -113.04266357421875 201.7203826904297 39.49550247192383
v -102.00703430175781 -46.61335754394531 37.68031311035156
v -105.13140869140625 -46.22880554199219 37.680320739746094
v -107.75139617919922 -44.38956069946289 37.68032455444336
v -109.86697387695312 -41.09563064575195 37.68032455444336
v -200.0802001953125 153.58831787109375 37.68037033081055
v -201.2255401611328 157.3316192626953 37.68037033081055
v -200.93478393554688 160.51895141601562 37.68038558959961
v -199.2079620361328 163.15037536621094 37.68037033081055
v -102.00703430175781 -46.61336135864258 23.828371047973633
v -105.13140869140625 -46.22880172729492 23.828378677368164
v -107.75139617919922 -44.38956069946289 23.828378677368164
v -109.86697387695312 -41.09562683105469 23.828378677368164
v -200.0802001953125 153.58831787109375 23.828426361083984
v -201.2255401611328 157.3316192626953 23.828426361083984
v -200.93478393554688 160.5189666748047 23.828441619873047
v -199.2079620361328 163.15037536621094 23.828426361083984
v -20.71100425720215 0.5521672964096069 39.50321578979492
v -102.05335235595703 -37.61223220825195 39.503238677978516
v -110.17770385742188 195.38189697265625 39.50322341918945
v -192.3607635498047 157.27500915527344 39.5032844543457
v -105.44920349121094 -39.18502426147461 39.503238677978516
v -195.75660705566406 155.7022247314453 39.5032844543457
v -107.13728332519531 -39.966861724853516 39.50324630737305
v -197.2677001953125 155.00234985351562 39.503292083740234
vt 0.99267578125 0.27587890625
vt 0.99267578125 0.946380615234375
vt 0.958984375 0.946380615234375
vt 0.958984375 0.946380615234375
vt 0.958984375 0.27587890625
vt 0.99267578125 0.27587890625
vt 0.94091796875 0.27587890625
vt 0.94091796875 0.94647216796875
vt 0.90673828125 0.94647216796875
vt 0.90673828125 0.94647216796875
vt 0.90673828125 0.27587890625
vt 0.94091796875 0.27587890625
vt 0.95166015625 0.946136474609375
vt 0.947265625 0.945831298828125
vt 0.947265625 0.275390625
vt 0.947265625 0.275390625
vt 0.95166015625 0.27587890625
vt 0.95166015625 0.946136474609375
vt 0.8994140625 0.947296142578125
vt 0.89453125 0.947845458984375
vt 0.89453125 0.27734375
vt 0.89453125 0.27734375
vt 0.8994140625 0.27685546875
vt 0.8994140625 0.947296142578125
vt 0.8857421875 0.95037841796875
vt 0.88037109375 0.950408935546875
vt 0.88037109375 0.23486328125
vt 0.88037109375 0.23486328125
vt 0.88623046875 0.23486328125
vt 0.8857421875 0.95037841796875
vt 0.88623046875 0.23486328125
vt 0.88037109375 0.23486328125
vt 0.87841796875 0.205078125
vt 0.87841796875 0.205078125
vt 0.8837890625 0.20458984375
vt 0.88623046875 0.23486328125
vt 0.8837890625 0.20458984375
vt 0.87841796875 0.205078125
vt 0.87353515625 0.18994140625
vt 0.87353515625 0.18994140625
vt 0.8779296875 0.18603515625
vt 0.8837890625 0.20458984375
vt 0.8779296875 0.18603515625
vt 0.87353515625 0.18994140625
vt 0.8662109375 0.181640625
vt 0.8662109375 0.181640625
vt 0.8681640625 0.17431640625
vt 0.8779296875 0.18603515625
vt 0.8681640625 0.17431640625
vt 0.8662109375 0.181640625
vt 0.8544921875 0.18115234375
vt 0.8544921875 0.18115234375
vt 0.8544921875 0.17041015625
vt 0.8681640625 0.17431640625
vt 0.8544921875 0.17041015625
vt 0.8544921875 0.18115234375
vt 0.048858642578125 0.1796875
vt 0.048858642578125 0.1796875
vt 0.04876708984375 0.17041015625
vt 0.8544921875 0.17041015625
vt 0.04876708984375 0.17041015625
vt 0.048858642578125 0.1796875
vt 0.037109375 0.18359375
vt 0.037109375 0.18359375
vt 0.035308837890625 0.17431640625
vt 0.04876708984375 0.17041015625
vt 0.035308837890625 0.17431640625
vt 0.037109375 0.18359375
vt 0.028839111328125 0.19287109375
vt 0.028839111328125 0.19287109375
vt 0.02520751953125 0.18603515625
vt 0.035308837890625 0.17431640625
vt 0.02520751953125 0.18603515625
vt 0.028839111328125 0.19287109375
vt 0.02508544921875 0.205078125
vt 0.02508544921875 0.205078125
vt 0.01947021484375 0.20458984375
vt 0.02520751953125 0.18603515625
vt 0.01947021484375 0.20458984375
vt 0.02508544921875 0.205078125
vt 0.0229644775390625 0.23486328125
vt 0.0229644775390625 0.23486328125
vt 0.017333984375 0.23486328125
vt 0.01947021484375 0.20458984375
vt 0.017333984375 0.23486328125
vt 0.0229644775390625 0.23486328125
vt 0.022979736328125 0.95037841796875
vt 0.022979736328125 0.95037841796875
vt 0.017364501953125 0.950347900390625
vt 0.017333984375 0.23486328125
vt 0.919921875 0.1318359375
vt 0.91943359375 0.1435546875
vt 0.90478515625 0.1435546875
vt 0.90478515625 0.1435546875
vt 0.9052734375 0.1318359375
vt 0.919921875 0.1318359375
vt 0.9052734375 0.1318359375
vt 0.90478515625 0.1435546875
vt 0.8935546875 0.1435546875
vt 0.8935546875 0.1435546875
vt 0.8935546875 0.1318359375
vt 0.9052734375 0.1318359375
vt 0.8935546875 0.1318359375
vt 0.8935546875 0.1435546875
vt 0.88232421875 0.1435546875
vt 0.88232421875 0.1435546875
vt 0.88232421875 0.1318359375
vt 0.8935546875 0.1318359375
vt 0.88232421875 0.1318359375
vt 0.88232421875 0.1435546875
vt 0.8681640625 0.1435546875
vt 0.8681640625 0.1435546875
vt 0.86767578125 0.1318359375
vt 0.88232421875 0.1318359375
vt 0.86767578125 0.1318359375
vt 0.8681640625 0.1435546875
vt 0.0767822265625 0.1435546875
vt 0.0767822265625 0.1435546875
vt 0.077392578125 0.1318359375
vt 0.86767578125 0.1318359375
vt 0.077392578125 0.1318359375
vt 0.0767822265625 0.1435546875
vt 0.06304931640625 0.1435546875
vt 0.06304931640625 0.1435546875
vt 0.0631103515625 0.1318359375
vt 0.077392578125 0.1318359375
vt 0.0631103515625 0.1318359375
vt 0.06304931640625 0.1435546875
vt 0.051361083984375 0.1435546875
vt 0.051361083984375 0.1435546875
vt 0.051422119140625 0.1318359375
vt 0.0631103515625 0.1318359375
vt 0.051422119140625 0.1318359375
vt 0.051361083984375 0.1435546875
vt 0.04046630859375 0.1435546875
vt 0.04046630859375 0.1435546875
vt 0.03973388671875 0.1318359375
vt 0.051422119140625 0.1318359375
vt 0.03973388671875 0.1318359375
vt 0.04046630859375 0.1435546875
vt 0.0257415771484375 0.1435546875
vt 0.0257415771484375 0.1435546875
vt 0.0254669189453125 0.1318359375
vt 0.03973388671875 0.1318359375
vt 0.90576171875 0.021484375
vt 0.92041015625 0.021484375
vt 0.92041015625 0.1064453125
vt 0.92041015625 0.1064453125
vt 0.90576171875 0.1064453125
vt 0.90576171875 0.021484375
vt 0.89404296875 0.021484375
vt 0.90576171875 0.021484375
vt 0.90576171875 0.1064453125
vt 0.90576171875 0.1064453125
vt 0.89404296875 0.1064453125
vt 0.89404296875 0.021484375
vt 0.88232421875 0.021484375
vt 0.89404296875 0.021484375
vt 0.89404296875 0.1064453125
vt 0.89404296875 0.1064453125
vt 0.88232421875 0.1064453125
vt 0.88232421875 0.021484375
vt 0.86767578125 0.021484375
vt 0.88232421875 0.021484375
vt 0.88232421875 0.1064453125
vt 0.88232421875 0.1064453125
vt 0.86767578125 0.1064453125
vt 0.86767578125 0.021484375
vt 0.07733154296875 0.021484375
vt 0.86767578125 0.021484375
vt 0.86767578125 0.1064453125
vt 0.86767578125 0.1064453125
vt 0.07733154296875 0.1064453125
vt 0.07733154296875 0.021484375
vt 0.06298828125 0.021484375
vt 0.07733154296875 0.021484375
vt 0.07733154296875 0.1064453125
vt 0.07733154296875 0.1064453125
vt 0.06298828125 0.1064453125
vt 0.06298828125 0.021484375
vt 0.05120849609375 0.021484375
vt 0.06298828125 0.021484375
vt 0.06298828125 0.1064453125
vt 0.06298828125 0.1064453125
vt 0.05120849609375 0.1064453125
vt 0.05120849609375 0.021484375
vt 0.039398193359375 0.021484375
vt 0.05120849609375 0.021484375
vt 0.05120849609375 0.1064453125
vt 0.05120849609375 0.1064453125
vt 0.039398193359375 0.1064453125
vt 0.039398193359375 0.021484375
vt 0.0250396728515625 0.021484375
vt 0.039398193359375 0.021484375
vt 0.039398193359375 0.1064453125
vt 0.039398193359375 0.1064453125
vt 0.0250396728515625 0.1064453125
vt 0.0250396728515625 0.021484375
vt 0.87060546875 0.2529296875
vt 0.87060546875 0.95208740234375
vt 0.84521484375 0.952117919921875
vt 0.84521484375 0.952117919921875
vt 0.84521484375 0.2529296875
vt 0.87060546875 0.2529296875
vt 0.84521484375 0.2529296875
vt 0.84521484375 0.952117919921875
vt 0.05810546875 0.952117919921875
vt 0.8681640625 0.22412109375
vt 0.87060546875 0.2529296875
vt 0.84521484375 0.2529296875
vt 0.05810546875 0.952117919921875
vt 0.05810546875 0.2529296875
vt 0.84521484375 0.2529296875
vt 0.05810546875 0.2529296875
vt 0.05810546875 0.952117919921875
vt 0.03289794921875 0.952056884765625
vt 0.03289794921875 0.952056884765625
vt 0.032867431640625 0.2529296875
vt 0.05810546875 0.2529296875
vt 0.05810546875 0.2529296875
vt 0.032867431640625 0.2529296875
vt 0.034942626953125 0.22412109375
vt 0.84521484375 0.2529296875
vt 0.84521484375 0.22412109375
vt 0.8681640625 0.22412109375
vt 0.84521484375 0.22412109375
vt 0.84521484375 0.2529296875
vt 0.05810546875 0.2529296875
vt 0.86376953125 0.208984375
vt 0.8681640625 0.22412109375
vt 0.84521484375 0.22412109375
vt 0.034942626953125 0.22412109375
vt 0.058135986328125 0.22412109375
vt 0.05810546875 0.2529296875
vt 0.05810546875 0.2529296875
vt 0.058135986328125 0.22412109375
vt 0.84521484375 0.22412109375
vt 0.058135986328125 0.22412109375
vt 0.034942626953125 0.22412109375
vt 0.03863525390625 0.2119140625
vt 0.84521484375 0.22412109375
vt 0.84521484375 0.2099609375
vt 0.86376953125 0.208984375
vt 0.84521484375 0.2099609375
vt 0.84521484375 0.22412109375
vt 0.058135986328125 0.22412109375
vt 0.84521484375 0.20068359375
vt 0.8564453125 0.201171875
vt 0.86376953125 0.208984375
vt 0.86376953125 0.208984375
vt 0.84521484375 0.2099609375
vt 0.84521484375 0.20068359375
vt 0.03863525390625 0.2119140625
vt 0.058135986328125 0.21142578125
vt 0.058135986328125 0.22412109375
vt 0.058135986328125 0.22412109375
vt 0.058135986328125 0.21142578125
vt 0.84521484375 0.2099609375
vt 0.84521484375 0.20068359375
vt 0.84521484375 0.2099609375
vt 0.058135986328125 0.21142578125
vt 0.058135986328125 0.21142578125
vt 0.03863525390625 0.2119140625
vt 0.046722412109375 0.203125
vt 0.058135986328125 0.21142578125
vt 0.05816650390625 0.19921875
vt 0.84521484375 0.20068359375
vt 0.046722412109375 0.203125
vt 0.05816650390625 0.19921875
vt 0.058135986328125 0.21142578125
vn 0.3548247814178467 -0.9349328279495239 3.083440702766893e-08
vn 0.42475426197052 -0.9053086638450623 6.315266318779322e-07
vn 0.41899415850639343 -0.8930315375328064 0.16413047909736633
vn 0.35052376985549927 -0.9221063852310181 0.1638679951429367
vn -0.42123857140541077 0.9069498181343079 1.2229168078192743e-06
vn -0.48622244596481323 0.873835027217865 0.0
vn -0.47918984293937683 0.8622742891311646 0.16389086842536926
vn -0.41552990674972534 0.8946591019630432 0.1640734225511551
vn 0.2968267500400543 -0.6326472163200378 0.715298056602478
vn 0.25208789110183716 -0.66454017162323 0.7034473419189453
vn -0.3454911708831787 0.6206911206245422 0.703831136226654
vn -0.2947169542312622 0.6345435976982117 0.7144902348518372
vn 0.0651664212346077 -0.1388932764530182 0.9881609082221985
vn 0.057197146117687225 -0.15231850743293762 0.986674964427948
vn 0.006828353274613619 -0.18744505941867828 0.9822513461112976
vn 0.05818948149681091 -0.7365044355392456 0.6739251613616943
vn -0.10838686674833298 -0.21224351227283478 0.9711874723434448
vn -0.278097927570343 -0.7177795171737671 0.6383213400840759
vn -0.21308165788650513 -0.15864257514476776 0.9640688896179199
vn -0.556255042552948 -0.5258772969245911 0.6434543132781982
vn -0.1523568481206894 -0.08234436064958572 0.9848892688751221
vn -0.6346251964569092 -0.35288622975349426 0.6875479817390442
vn -0.18778878450393677 -0.07009817659854889 0.9797049164772034
vn -0.6973394751548767 -0.2601698040962219 0.6678541898727417
vn -0.20503243803977966 -0.025787198916077614 0.9784153699874878
vn -0.741715133190155 -0.08062487840652466 0.6658515334129333
vn -0.1988525390625 0.062029603868722916 0.9780643582344055
vn -0.7148664593696594 0.2513653337955475 0.6525192856788635
vn -0.14012417197227478 0.1261300891637802 0.982067346572876
vn -0.5242507457733154 0.5203176140785217 0.6741147637367249
vn -0.07945297658443451 0.14166966080665588 0.9867202639579773
vn -0.06574861705303192 0.1415681689977646 0.9877426624298096
vn 0.08756493777036667 -0.9842131733894348 0.15380775928497314
vn -0.3575974702835083 -0.9226818084716797 0.14416080713272095
vn -0.7108471393585205 -0.6850948333740234 0.15918982028961182
vn -0.8673902750015259 -0.4741062521934509 0.15118682384490967
vn -0.9228834509849548 -0.35363486409187317 0.15240910649299622
vn -0.981913685798645 -0.10362634807825089 0.1584520787000656
vn -0.9345199465751648 0.3250393569469452 0.14498943090438843
vn -0.6940702199935913 0.7032809853553772 0.15382607281208038
vn 0.0820569172501564 -0.996627688407898 1.6247065559582552e-07
vn -0.3590710163116455 -0.9333102107048035 -1.5373078809943763e-08
vn -0.7215075492858887 -0.6924065947532654 -9.824633906418967e-08
vn -0.8764191269874573 -0.4815489649772644 -7.110630662054973e-08
vn -0.9339712262153625 -0.3573480248451233 -2.380933450396583e-09
vn -0.994702935218811 -0.10279141366481781 0.0
vn -0.9441264271736145 0.32958343625068665 3.189376229784102e-07
vn -0.7070897817611694 0.7071237564086914 2.647310850534268e-07
vn -2.5238250600523315e-07 1.0440253390697762e-06 0.9999999403953552
vn -1.3295220924192108e-07 2.6974748834618367e-07 1.0
vn -0.00023387039254885167 0.0005058521055616438 0.9999998211860657
vn 1.3325494364835322e-05 1.9954522940679453e-05 1.0
vn 1.815003770389012e-06 3.909824499714887e-07 1.0
vn 2.441859123791801e-06 2.828767833307211e-07 1.0
vn -6.616692189709283e-07 -1.2343502930889372e-06 1.0
vn 3.3685632843116764e-06 1.8301369664186495e-06 1.0
f 1/1/1 2/2/2 3/3/3
f 3/4/3 4/5/4 1/6/1
f 5/7/5 6/8/6 7/9/7
f 7/10/7 8/11/8 5/12/5
f 3/13/3 9/14/9 10/15/10
f 10/16/10 4/17/4 3/18/3
f 7/19/7 11/20/11 12/21/12
f 12/22/12 8/23/8 7/24/7
f 9/25/9 13/26/13 14/27/14
f 14/28/14 10/29/10 9/30/9
f 10/31/10 14/32/14 15/33/15
f 15/34/15 16/35/16 10/36/10
f 16/37/16 15/38/15 17/39/17
f 17/40/17 18/41/18 16/42/16
f 18/43/18 17/44/17 19/45/19
f 19/46/19 20/47/20 18/48/18
f 20/49/20 19/50/19 21/51/21
f 21/52/21 22/53/22 20/54/20
f 22/55/22 21/56/21 23/57/23
f 23/58/23 24/59/24 22/60/22
f 24/61/24 23/62/23 25/63/25
f 25/64/25 26/65/26 24/66/24
f 26/67/26 25/68/25 27/69/27
f 27/70/27 28/71/28 26/72/26
f 28/73/28 27/74/27 29/75/29
f 29/76/29 30/77/30 28/78/28
f 30/79/30 29/80/29 31/81/31
f 31/82/31 11/83/11 30/84/30
f 11/85/11 31/86/31 32/87/32
f 32/88/32 12/89/12 11/90/11
f 4/91/4 10/92/10 16/93/16
f 16/94/16 33/95/33 4/96/4
f 33/97/33 16/98/16 18/99/18
f 18/100/18 34/101/34 33/102/33
f 34/103/34 18/104/18 20/105/20
f 20/106/20 35/107/35 34/108/34
f 35/109/35 20/110/20 22/111/22
f 22/112/22 36/113/36 35/114/35
f 36/115/36 22/116/22 24/117/24
f 24/118/24 37/119/37 36/120/36
f 37/121/37 24/122/24 26/123/26
f 26/124/26 38/125/38 37/126/37
f 38/127/38 26/128/26 28/129/28
f 28/130/28 39/131/39 38/132/38
f 39/133/39 28/134/28 30/135/30
f 30/136/30 40/137/40 39/138/39
f 40/139/40 30/140/30 11/141/11
f 11/142/11 7/143/7 40/144/40
f 41/145/41 1/146/1 4/147/4
f 4/148/4 33/149/33 41/150/41
f 42/151/42 41/152/41 33/153/33
f 33/154/33 34/155/34 42/156/42
f 43/157/43 42/158/42 34/159/34
f 34/160/34 35/161/35 43/162/43
f 44/163/44 43/164/43 35/165/35
f 35/166/35 36/167/36 44/168/44
f 45/169/45 44/170/44 36/171/36
f 36/172/36 37/173/37 45/174/45
f 46/175/46 45/176/45 37/177/37
f 37/178/37 38/179/38 46/180/46
f 47/181/47 46/182/46 38/183/38
f 38/184/38 39/185/39 47/186/47
f 48/187/48 47/188/47 39/189/39
f 39/190/39 40/191/40 48/192/48
f 6/193/6 48/194/48 40/195/40
f 40/196/40 7/197/7 6/198/6
f 14/199/14 13/200/13 49/201/49
f 49/202/49 50/203/50 14/204/14
f 50/205/50 49/206/49 51/207/51
f 15/208/15 14/209/14 50/210/50
f 51/211/51 52/212/52 50/213/50
f 52/214/52 51/215/51 32/216/32
f 32/217/32 31/218/31 52/219/52
f 52/220/52 31/221/31 29/222/29
f 50/223/50 53/224/53 15/225/15
f 53/226/53 50/227/50 52/228/52
f 17/229/17 15/230/15 53/231/53
f 29/232/29 54/233/54 52/234/52
f 52/235/52 54/236/54 53/237/53
f 54/238/54 29/239/29 27/240/27
f 53/241/53 55/242/55 17/243/17
f 55/244/55 53/245/53 54/246/54
f 21/247/21 19/248/19 17/249/17
f 17/250/17 55/251/55 21/252/21
f 27/253/27 56/254/56 54/255/54
f 54/256/54 56/257/56 55/258/55
f 21/259/21 55/260/55 56/261/56
f 56/262/56 27/263/27 25/264/25
f 56/265/56 23/266/23 21/267/21
f 25/268/25 23/269/23 56/270/56
