# Exported by Lightwave Blender addon
v 211.02232360839844 1014.4754028320312 1048.30517578125
v 225.01927185058594 1006.9192504882812 1048.30517578125
v 222.9930877685547 1003.1672973632812 1010.76025390625
v 213.0642547607422 1008.5272216796875 1010.76025390625
v 211.688232421875 1007.935546875 1010.7562866210938
v 209.6458282470703 1013.8849487304688 1048.30908203125
v 207.94676208496094 1009.7079467773438 1044.333251953125
v 199.71421813964844 994.4609375 1044.333251953125
v 197.1535186767578 990.7487182617188 1048.3092041015625
v 209.57896423339844 1005.0486450195312 1014.6907348632812
v 203.24948120117188 992.3067016601562 1010.7562866210938
v 203.50955200195312 990.8316650390625 1010.76025390625
v 213.4376220703125 985.47216796875 1010.7601928710938
v 211.41087341308594 981.7185668945312 1048.3052978515625
v 197.41502380371094 989.2741088867188 1048.3052978515625
v 204.50611877441406 995.653564453125 1014.6906127929688
v 205.2006072998047 996.4444580078125 1015.4282836914062
v 200.4499969482422 994.9281005859375 1043.3433837890625
v 204.9477996826172 996.0784912109375 1015.8201293945312
v 209.2986602783203 1004.0342407226562 1015.42822265625
v 206.44638061523438 996.8017578125 1016.5642700195312
v 209.46600341796875 1004.4462890625 1015.8200073242188
v 209.68324279785156 1002.7965698242188 1016.5642700195312
v 209.85072326660156 1003.208251953125 1016.9561157226562
v 207.959716796875 1008.8364868164062 1043.3433837890625
v 206.59046936035156 997.2213745117188 1017.1533203125
v 207.74951171875 1008.54931640625 1043.735107421875
v 208.4643096923828 1007.2467041015625 1042.4471435546875
v 200.57473754882812 995.2613525390625 1043.735107421875
v 208.25424194335938 1006.959228515625 1042.8389892578125
v 202.18116760253906 995.711669921875 1042.8389892578125
v 202.05599975585938 995.3783569335938 1042.4471435546875
v 206.19398498535156 996.4358520507812 1016.9561157226562
v 202.42062377929688 995.9246215820312 1041.949462890625
v 202.51654052734375 996.1800537109375 1042.2498779296875
v 208.04653930664062 1006.4219970703125 1042.2498779296875
v 206.39700317382812 996.9408569335938 1017.4537353515625
v 208.20758056640625 1006.642333984375 1041.949462890625
v 203.27537536621094 1002.38427734375 1039.6031494140625
v 203.09788513183594 1002.176513671875 1039.143310546875
v 203.35171508789062 1002.6465454101562 1039.143310546875
v 205.76248168945312 1000.736083984375 1019.81982421875
v 209.5398406982422 1002.761474609375 1017.4536743164062
v 206.01849365234375 1001.210205078125 1019.81982421875
v 206.06854248046875 1000.8770141601562 1019.3300170898438
v 209.41148376464844 1002.4459228515625 1017.1532592773438
v 222.38340759277344 1002.0383911132812 1009.8427124023438
v 212.5567626953125 1007.3431396484375 1009.8427734375
v 214.0473175048828 986.60107421875 1009.8428344726562
v 204.22134399414062 991.9055786132812 1009.8428344726562
v 211.91146850585938 982.6455688476562 1049.22265625
v 197.79869079589844 990.2642211914062 1049.22265625
v 224.5186767578125 1005.9921875 1049.2225341796875
v 210.4049072265625 1013.6113891601562 1049.2225341796875
vt 0.200439453125 0.27783203125
vt 0.1224365234375 0.25927734375
vt 0.1668701171875 0.07373046875
vt 0.2222900390625 0.0869140625
vt 0.200439453125 0.27783203125
vt 0.1668701171875 0.07373046875
vt 0.200439453125 0.27783203125
vt 0.2222900390625 0.0869140625
vt 0.229736328125 0.087890625
vt 0.2080078125 0.27880859375
vt 0.200439453125 0.27783203125
vt 0.229736328125 0.087890625
vt 0.2080078125 0.27880859375
vt 0.229736328125 0.087890625
vt 0.23046875 0.2587890625
vt 0.2080078125 0.27880859375
vt 0.23046875 0.2587890625
vt 0.318359375 0.25927734375
vt 0.3408203125 0.279296875
vt 0.2080078125 0.27880859375
vt 0.318359375 0.25927734375
vt 0.229736328125 0.087890625
vt 0.2474365234375 0.107421875
vt 0.23046875 0.2587890625
vt 0.229736328125 0.087890625
vt 0.319580078125 0.087890625
vt 0.2474365234375 0.107421875
vt 0.319580078125 0.087890625
vt 0.3271484375 0.08740234375
vt 0.3408203125 0.279296875
vt 0.3271484375 0.08740234375
vt 0.382568359375 0.07421875
vt 0.426513671875 0.259765625
vt 0.348388671875 0.2783203125
vt 0.3271484375 0.08740234375
vt 0.426513671875 0.259765625
vt 0.3271484375 0.08740234375
vt 0.348388671875 0.2783203125
vt 0.3408203125 0.279296875
vt 0.319580078125 0.087890625
vt 0.3408203125 0.279296875
vt 0.3017578125 0.10791015625
vt 0.319580078125 0.087890625
vt 0.3017578125 0.10791015625
vt 0.2474365234375 0.107421875
vt 0.3408203125 0.279296875
vt 0.318359375 0.25927734375
vt 0.3017578125 0.10791015625
vt 0.2474365234375 0.107421875
vt 0.3017578125 0.10791015625
vt 0.296630859375 0.11083984375
vt 0.3017578125 0.10791015625
vt 0.318359375 0.25927734375
vt 0.31494140625 0.25390625
vt 0.3017578125 0.10791015625
vt 0.29931640625 0.11328125
vt 0.296630859375 0.11083984375
vt 0.29931640625 0.11328125
vt 0.3017578125 0.10791015625
vt 0.31494140625 0.25390625
vt 0.252685546875 0.11083984375
vt 0.2474365234375 0.107421875
vt 0.296630859375 0.11083984375
vt 0.296630859375 0.11083984375
vt 0.29931640625 0.11328125
vt 0.291748046875 0.1171875
vt 0.2474365234375 0.107421875
vt 0.252685546875 0.11083984375
vt 0.25 0.11328125
vt 0.23046875 0.2587890625
vt 0.2474365234375 0.107421875
vt 0.25 0.11328125
vt 0.252685546875 0.11083984375
vt 0.296630859375 0.11083984375
vt 0.257568359375 0.1171875
vt 0.296630859375 0.11083984375
vt 0.291748046875 0.1171875
vt 0.257568359375 0.1171875
vt 0.25 0.11328125
vt 0.252685546875 0.11083984375
vt 0.25537109375 0.11865234375
vt 0.252685546875 0.11083984375
vt 0.257568359375 0.1171875
vt 0.25537109375 0.11865234375
vt 0.23388671875 0.25390625
vt 0.23046875 0.2587890625
vt 0.25 0.11328125
vt 0.257568359375 0.1171875
vt 0.291748046875 0.1171875
vt 0.289794921875 0.11962890625
vt 0.23046875 0.2587890625
vt 0.23388671875 0.25390625
vt 0.236083984375 0.25634765625
vt 0.318359375 0.25927734375
vt 0.23046875 0.2587890625
vt 0.236083984375 0.25634765625
vt 0.23388671875 0.25390625
vt 0.25 0.11328125
vt 0.2406005859375 0.248046875
vt 0.25 0.11328125
vt 0.25537109375 0.11865234375
vt 0.2406005859375 0.248046875
vt 0.312744140625 0.25634765625
vt 0.318359375 0.25927734375
vt 0.236083984375 0.25634765625
vt 0.318359375 0.25927734375
vt 0.312744140625 0.25634765625
vt 0.31494140625 0.25390625
vt 0.236083984375 0.25634765625
vt 0.23388671875 0.25390625
vt 0.2423095703125 0.25
vt 0.23388671875 0.25390625
vt 0.2406005859375 0.248046875
vt 0.2423095703125 0.25
vt 0.312744140625 0.25634765625
vt 0.236083984375 0.25634765625
vt 0.306640625 0.25
vt 0.236083984375 0.25634765625
vt 0.2423095703125 0.25
vt 0.306640625 0.25
vt 0.31494140625 0.25390625
vt 0.312744140625 0.25634765625
vt 0.308349609375 0.24853515625
vt 0.312744140625 0.25634765625
vt 0.306640625 0.25
vt 0.308349609375 0.24853515625
vt 0.31494140625 0.25390625
vt 0.308349609375 0.24853515625
vt 0.2939453125 0.11865234375
vt 0.29931640625 0.11328125
vt 0.31494140625 0.25390625
vt 0.2939453125 0.11865234375
vt 0.29931640625 0.11328125
vt 0.2939453125 0.11865234375
vt 0.291748046875 0.1171875
vt 0.291748046875 0.1171875
vt 0.2939453125 0.11865234375
vt 0.289794921875 0.11962890625
vt 0.308349609375 0.24853515625
vt 0.306640625 0.25
vt 0.305908203125 0.24609375
vt 0.2939453125 0.11865234375
vt 0.308349609375 0.24853515625
vt 0.305908203125 0.24609375
vt 0.306640625 0.25
vt 0.2423095703125 0.25
vt 0.30419921875 0.248046875
vt 0.306640625 0.25
vt 0.30419921875 0.248046875
vt 0.305908203125 0.24609375
vt 0.2423095703125 0.25
vt 0.2447509765625 0.248046875
vt 0.30419921875 0.248046875
vt 0.2423095703125 0.25
vt 0.2406005859375 0.248046875
vt 0.2447509765625 0.248046875
vt 0.2919921875 0.12109375
vt 0.2939453125 0.11865234375
vt 0.305908203125 0.24609375
vt 0.2939453125 0.11865234375
vt 0.2919921875 0.12109375
vt 0.289794921875 0.11962890625
vt 0.2406005859375 0.248046875
vt 0.242919921875 0.24609375
vt 0.2447509765625 0.248046875
vt 0.2406005859375 0.248046875
vt 0.25537109375 0.11865234375
vt 0.242919921875 0.24609375
vt 0.30419921875 0.248046875
vt 0.2447509765625 0.248046875
vt 0.2744140625 0.2333984375
vt 0.2447509765625 0.248046875
vt 0.242919921875 0.24609375
vt 0.2744140625 0.2333984375
vt 0.30419921875 0.248046875
vt 0.2744140625 0.2333984375
vt 0.275146484375 0.232421875
vt 0.305908203125 0.24609375
vt 0.30419921875 0.248046875
vt 0.275146484375 0.232421875
vt 0.242919921875 0.24609375
vt 0.273681640625 0.232421875
vt 0.2744140625 0.2333984375
vt 0.2744140625 0.2333984375
vt 0.273681640625 0.232421875
vt 0.275146484375 0.232421875
vt 0.305908203125 0.24609375
vt 0.275146484375 0.232421875
vt 0.275390625 0.13525390625
vt 0.275146484375 0.232421875
vt 0.273681640625 0.232421875
vt 0.275390625 0.13525390625
vt 0.2919921875 0.12109375
vt 0.305908203125 0.24609375
vt 0.275390625 0.13525390625
vt 0.242919921875 0.24609375
vt 0.257080078125 0.12109375
vt 0.273681640625 0.232421875
vt 0.25537109375 0.11865234375
vt 0.257080078125 0.12109375
vt 0.242919921875 0.24609375
vt 0.273681640625 0.232421875
vt 0.273681640625 0.13525390625
vt 0.275390625 0.13525390625
vt 0.257080078125 0.12109375
vt 0.273681640625 0.13525390625
vt 0.273681640625 0.232421875
vt 0.2919921875 0.12109375
vt 0.275390625 0.13525390625
vt 0.274658203125 0.13330078125
vt 0.274658203125 0.13330078125
vt 0.275390625 0.13525390625
vt 0.273681640625 0.13525390625
vt 0.289794921875 0.11962890625
vt 0.2919921875 0.12109375
vt 0.274658203125 0.13330078125
vt 0.257080078125 0.12109375
vt 0.25927734375 0.11962890625
vt 0.273681640625 0.13525390625
vt 0.25927734375 0.11962890625
vt 0.274658203125 0.13330078125
vt 0.273681640625 0.13525390625
vt 0.25927734375 0.11962890625
vt 0.257080078125 0.12109375
vt 0.25537109375 0.11865234375
vt 0.25927734375 0.11962890625
vt 0.289794921875 0.11962890625
vt 0.274658203125 0.13330078125
vt 0.257568359375 0.1171875
vt 0.25927734375 0.11962890625
vt 0.25537109375 0.11865234375
vt 0.25927734375 0.11962890625
vt 0.257568359375 0.1171875
vt 0.289794921875 0.11962890625
vt 0.70947265625 0.20654296875
vt 0.71728515625 0.20654296875
vt 0.70947265625 0.26318359375
vt 0.71728515625 0.20654296875
vt 0.71728515625 0.26318359375
vt 0.70947265625 0.26318359375
vt 0.70947265625 0.26318359375
vt 0.71728515625 0.26318359375
vt 0.71728515625 0.26904296875
vt 0.71728515625 0.20654296875
vt 0.806640625 0.2060546875
vt 0.71728515625 0.26318359375
vt 0.71728515625 0.26904296875
vt 0.71728515625 0.26318359375
vt 0.806640625 0.26904296875
vt 0.806640625 0.2060546875
vt 0.806640625 0.26318359375
vt 0.71728515625 0.26318359375
vt 0.71728515625 0.26318359375
vt 0.806640625 0.26318359375
vt 0.806640625 0.26904296875
vt 0.806640625 0.26318359375
vt 0.806640625 0.2060546875
vt 0.8134765625 0.2060546875
vt 0.806640625 0.26318359375
vt 0.8134765625 0.26318359375
vt 0.806640625 0.26904296875
vt 0.8134765625 0.26318359375
vt 0.806640625 0.26318359375
vt 0.8134765625 0.2060546875
vt 0.70654296875 0.0966796875
vt 0.71337890625 0.09619140625
vt 0.70654296875 0.17724609375
vt 0.71337890625 0.09619140625
vt 0.71337890625 0.17724609375
vt 0.70654296875 0.17724609375
vt 0.71337890625 0.18310546875
vt 0.70654296875 0.17724609375
vt 0.71337890625 0.17724609375
vt 0.71337890625 0.17724609375
vt 0.71337890625 0.09619140625
vt 0.84716796875 0.0966796875
vt 0.71337890625 0.18310546875
vt 0.71337890625 0.17724609375
vt 0.84716796875 0.18310546875
vt 0.84716796875 0.17724609375
vt 0.71337890625 0.17724609375
vt 0.84716796875 0.0966796875
vt 0.71337890625 0.17724609375
vt 0.84716796875 0.17724609375
vt 0.84716796875 0.18310546875
vt 0.84716796875 0.17724609375
vt 0.84716796875 0.0966796875
vt 0.85400390625 0.0966796875
vt 0.84716796875 0.18310546875
vt 0.84716796875 0.17724609375
vt 0.85400390625 0.17724609375
vt 0.85400390625 0.17724609375
vt 0.84716796875 0.17724609375
vt 0.85400390625 0.0966796875
vn 0.06741128861904144 0.9566330313682556 0.2833881676197052
vn 0.44278213381767273 0.8202062249183655 0.36222338676452637
vn 0.40949901938438416 0.7585623264312744 -0.5068469047546387
vn 0.06758227199316025 0.8779357075691223 -0.47398486733436584
vn -0.6152740120887756 0.6469170451164246 -0.4504842460155487
vn -0.6658249497413635 0.7063857316970825 0.24020013213157654
vn -0.8901643753051758 0.4243707060813904 -0.16588185727596283
vn -0.8431101441383362 0.5115101933479309 -0.1658993363380432
vn -0.9558717608451843 0.1691731959581375 0.24018645286560059
vn -0.903505265712738 0.4243812561035156 -0.05982320383191109
vn -0.8783866763114929 0.15958477556705475 -0.4505212903022766
vn -0.6969270706176758 -0.538122832775116 -0.47404271364212036
vn -0.40947455167770386 -0.7585141062736511 -0.5069386959075928
vn -0.4427809715270996 -0.8202067017555237 0.36222371459007263
vn -0.7628101706504822 -0.5812345147132874 0.283349871635437
vn -0.8504464030265808 0.5226510167121887 -0.05980704352259636
vn -0.7540078163146973 0.566993772983551 0.3316478431224823
vn -0.571970522403717 0.7933686971664429 -0.20836462080478668
vn -0.5915223360061646 0.8023658990859985 0.07943706959486008
vn -0.8876516222953796 0.31945520639419556 0.3316972255706787
vn -0.7829915285110474 0.5524486899375916 0.2858750820159912
vn -0.9953623414039612 0.05430636927485466 0.07940156012773514
vn -0.8914083242416382 0.35165509581565857 0.2858845293521881
vn -0.9939805269241333 0.0994853675365448 0.04588384926319122
vn -0.977130651473999 0.04289495572447777 -0.20826858282089233
vn -0.8777331113815308 0.3789232075214386 -0.29326051473617554
vn -0.8098915219306946 0.2715676426887512 -0.5199294686317444
vn -0.980153501033783 0.07114522159099579 -0.1850336194038391
vn -0.6713489294052124 0.528196394443512 -0.5199031233787537
vn -0.810867190361023 0.30281737446784973 -0.500795304775238
vn -0.6979426145553589 0.5119280219078064 -0.5008051991462708
vn -0.5971109867095947 0.7805296182632446 -0.18501868844032288
vn -0.628413200378418 0.7765219211578369 0.04594016820192337
vn -0.9361515641212463 0.34432554244995117 -0.0711352527141571
vn -0.919920027256012 0.39106935262680054 0.028493477031588554
vn -0.8323982954025269 0.5536018013954163 0.02526291273534298
vn -0.9243670105934143 0.31850287318229675 -0.21000327169895172
vn -0.8032656311988831 0.5910361409187317 -0.07375991344451904
vn -0.8112515807151794 0.44019731879234314 0.38483408093452454
vn -0.9592800140380859 0.28241264820098877 0.004991446156054735
vn -0.7579310536384583 0.6523334383964539 0.001306678750552237
vn -0.93488609790802 0.22256924211978912 -0.27649784088134766
vn -0.7737561464309692 0.5990720391273499 -0.20594720542430878
vn -0.692635178565979 0.670611560344696 -0.2655874788761139
vn -0.7402769923210144 0.3970959186553955 -0.5424985885620117
vn -0.7974591255187988 0.5260404348373413 -0.29553401470184326
vn 0.14510577917099 0.2688034176826477 -0.9522022008895874
vn -0.14868803322315216 0.3828672766685486 -0.9117589592933655
vn -0.14506825804710388 -0.26871976256370544 -0.9522315263748169
vn -0.4016290009021759 -0.08571400493383408 -0.9117825031280518
vn -0.1665358543395996 -0.30849024653434753 0.9365359544754028
vn -0.49539172649383545 -0.10259627550840378 0.8625897169113159
vn 0.16655418276786804 0.30852407217025757 0.936521589756012
vn -0.18600890040397644 0.4704737365245819 0.8625863194465637
f 1/1/1 2/2/2 3/3/3
f 4/4/4 1/5/1 3/6/3
f 1/7/1 4/8/4 5/9/5
f 6/10/6 1/11/1 5/12/5
f 6/13/6 5/14/5 7/15/7
f 6/16/6 7/17/7 8/18/8
f 9/19/9 6/20/6 8/21/8
f 5/22/5 10/23/10 7/24/7
f 5/25/5 11/26/11 10/27/10
f 11/28/11 12/29/12 9/30/9
f 12/31/12 13/32/13 14/33/14
f 15/34/15 12/35/12 14/36/14
f 12/37/12 15/38/15 9/39/9
f 11/40/11 9/41/9 16/42/16
f 11/43/11 16/44/16 10/45/10
f 9/46/9 8/47/8 16/48/16
f 10/49/10 16/50/16 17/51/17
f 16/52/16 8/53/8 18/54/18
f 16/55/16 19/56/19 17/57/17
f 19/58/19 16/59/16 18/60/18
f 20/61/20 10/62/10 17/63/17
f 17/64/17 19/65/19 21/66/21
f 10/67/10 20/68/20 22/69/22
f 7/70/7 10/71/10 22/72/22
f 20/73/20 17/74/17 23/75/23
f 17/76/17 21/77/21 23/78/23
f 22/79/22 20/80/20 24/81/24
f 20/82/20 23/83/23 24/84/24
f 25/85/25 7/86/7 22/87/22
f 23/88/23 21/89/21 26/90/26
f 7/91/7 25/92/25 27/93/27
f 8/94/8 7/95/7 27/96/27
f 25/97/25 22/98/22 28/99/28
f 22/100/22 24/101/24 28/102/28
f 29/103/29 8/104/8 27/105/27
f 8/106/8 29/107/29 18/108/18
f 27/109/27 25/110/25 30/111/30
f 25/112/25 28/113/28 30/114/30
f 29/115/29 27/116/27 31/117/31
f 27/118/27 30/119/30 31/120/31
f 18/121/18 29/122/29 32/123/32
f 29/124/29 31/125/31 32/126/32
f 18/127/18 32/128/32 33/129/33
f 19/130/19 18/131/18 33/132/33
f 19/133/19 33/134/33 21/135/21
f 21/136/21 33/137/33 26/138/26
f 32/139/32 31/140/31 34/141/34
f 33/142/33 32/143/32 34/144/34
f 31/145/31 30/146/30 35/147/35
f 31/148/31 35/149/35 34/150/34
f 30/151/30 36/152/36 35/153/35
f 30/154/30 28/155/28 36/156/36
f 37/157/37 33/158/33 34/159/34
f 33/160/33 37/161/37 26/162/26
f 28/163/28 38/164/38 36/165/36
f 28/166/28 24/167/24 38/168/38
f 35/169/35 36/170/36 39/171/39
f 36/172/36 38/173/38 39/174/39
f 35/175/35 39/176/39 40/177/40
f 34/178/34 35/179/35 40/180/40
f 38/181/38 41/182/41 39/183/39
f 39/184/39 41/185/41 40/186/40
f 34/187/34 40/188/40 42/189/42
f 40/190/40 41/191/41 42/192/42
f 37/193/37 34/194/34 42/195/42
f 38/196/38 43/197/43 41/198/41
f 24/199/24 43/200/43 38/201/38
f 41/202/41 44/203/44 42/204/42
f 43/205/43 44/206/44 41/207/41
f 37/208/37 42/209/42 45/210/45
f 45/211/45 42/212/42 44/213/44
f 26/214/26 37/215/37 45/216/45
f 43/217/43 46/218/46 44/219/44
f 46/220/46 45/221/45 44/222/44
f 46/223/46 43/224/43 24/225/24
f 46/226/46 26/227/26 45/228/45
f 23/229/23 46/230/46 24/231/24
f 46/232/46 23/233/23 26/234/26
f 3/235/3 47/236/47 4/237/4
f 47/238/47 48/239/48 4/240/4
f 4/241/4 48/242/48 5/243/5
f 47/244/47 49/245/49 48/246/48
f 5/247/5 48/248/48 11/249/11
f 49/250/49 50/251/50 48/252/48
f 48/253/48 50/254/50 11/255/11
f 50/256/50 49/257/49 13/258/13
f 50/259/50 12/260/12 11/261/11
f 12/262/12 50/263/50 13/264/13
f 14/265/14 51/266/51 15/267/15
f 51/268/51 52/269/52 15/270/15
f 9/271/9 15/272/15 52/273/52
f 52/274/52 51/275/51 53/276/53
f 9/277/9 52/278/52 6/279/6
f 54/280/54 52/281/52 53/282/53
f 52/283/52 54/284/54 6/285/6
f 54/286/54 53/287/53 2/288/2
f 6/289/6 54/290/54 1/291/1
f 1/292/1 54/293/54 2/294/2
