# Exported by Lightwave Blender addon
v 60.30739974975586 664.4962768554688 488.1791687011719
v 60.307411193847656 664.4962768554688 495.0990905761719
v 30.463180541992188 680.736328125 488.1791687011719
v 30.463180541992188 680.736328125 495.09906005859375
v 30.1507568359375 681.79443359375 495.09906005859375
v 30.1507568359375 681.79443359375 488.1791687011719
v 104.70695495605469 818.5751953125 488.1791687011719
v 104.70693969726562 818.5751953125 495.09906005859375
v 105.76481628417969 818.8875732421875 495.09906005859375
v 105.76482391357422 818.8875732421875 488.1791687011719
v 135.4897003173828 802.7119140625 488.1791687011719
v 135.4897003173828 802.7119140625 495.0990905761719
v 135.11883544921875 802.0263061523438 487.3991394042969
v 105.39210510253906 818.2023315429688 487.3991394042969
v 60.68014144897461 665.1815795898438 487.3991394042969
v 30.835906982421875 681.421630859375 487.3991394042969
v 60.68014144897461 665.1815795898438 495.87908935546875
v 30.835906982421875 681.421630859375 495.8790588378906
v 105.39208984375 818.2023315429688 495.8790588378906
v 135.11883544921875 802.0263061523438 495.87908935546875
vt 0.0019989013671875 0.678466796875
vt 0.0019989013671875 0.64794921875
vt 0.15185546875 0.678466796875
vt 0.0019989013671875 0.64794921875
vt 0.15185546875 0.64794921875
vt 0.15185546875 0.678466796875
vt 0.15185546875 0.64794921875
vt 0.1566162109375 0.64794921875
vt 0.15185546875 0.678466796875
vt 0.1566162109375 0.64794921875
vt 0.1566162109375 0.678466796875
vt 0.15185546875 0.678466796875
vt 0.1566162109375 0.678466796875
vt 0.1566162109375 0.64794921875
vt 0.84375 0.678466796875
vt 0.1566162109375 0.64794921875
vt 0.84375 0.64794921875
vt 0.84375 0.678466796875
vt 0.84375 0.678466796875
vt 0.84375 0.64794921875
vt 0.8486328125 0.64794921875
vt 0.8486328125 0.678466796875
vt 0.84375 0.678466796875
vt 0.8486328125 0.64794921875
vt 0.99755859375 0.678466796875
vt 0.8486328125 0.678466796875
vt 0.8486328125 0.64794921875
vt 0.99755859375 0.64794921875
vt 0.99755859375 0.678466796875
vt 0.8486328125 0.64794921875
vt 0.69970703125 0.32470703125
vt 0.6953125 0.32470703125
vt 0.69970703125 0.1748046875
vt 0.6953125 0.32470703125
vt 0.6953125 0.17529296875
vt 0.69970703125 0.1748046875
vt 0.6953125 0.1708984375
vt 0.69970703125 0.1748046875
vt 0.6953125 0.17529296875
vt 0.6953125 0.32470703125
vt 0.006671905517578125 0.32470703125
vt 0.6953125 0.17529296875
vt 0.6953125 0.1708984375
vt 0.6953125 0.17529296875
vt 0.006671905517578125 0.169921875
vt 0.006671905517578125 0.32470703125
vt 0.006671905517578125 0.1748046875
vt 0.6953125 0.17529296875
vt 0.6953125 0.17529296875
vt 0.006671905517578125 0.1748046875
vt 0.006671905517578125 0.169921875
vt 0.006671905517578125 0.1748046875
vt 0.006671905517578125 0.32470703125
vt 0.0022525787353515625 0.32470703125
vt 0.0022525787353515625 0.17431640625
vt 0.006671905517578125 0.169921875
vt 0.006671905517578125 0.1748046875
vt 0.0022525787353515625 0.17431640625
vt 0.006671905517578125 0.1748046875
vt 0.0022525787353515625 0.32470703125
vt 0.0022525787353515625 0.00244140625
vt 0.006671905517578125 0.00244140625
vt 0.0022525787353515625 0.15283203125
vt 0.006671905517578125 0.00244140625
vt 0.006671905517578125 0.15234375
vt 0.0022525787353515625 0.15283203125
vt 0.006671905517578125 0.15234375
vt 0.006671905517578125 0.15673828125
vt 0.0022525787353515625 0.15283203125
vt 0.006671905517578125 0.15673828125
vt 0.006671905517578125 0.15234375
vt 0.6953125 0.1572265625
vt 0.006671905517578125 0.15234375
vt 0.006671905517578125 0.00244140625
vt 0.6953125 0.15234375
vt 0.006671905517578125 0.15234375
vt 0.6953125 0.15234375
vt 0.6953125 0.1572265625
vt 0.006671905517578125 0.00244140625
vt 0.6953125 0.0029296875
vt 0.6953125 0.15234375
vt 0.6953125 0.15234375
vt 0.69970703125 0.1533203125
vt 0.6953125 0.1572265625
vt 0.6953125 0.15234375
vt 0.6953125 0.0029296875
vt 0.69970703125 0.0029296875
vt 0.69970703125 0.1533203125
vt 0.6953125 0.15234375
vt 0.69970703125 0.0029296875
vn -0.441590279340744 -0.8115072250366211 -0.3826932907104492
vn -0.4415886402130127 -0.8115034699440002 0.38270318508148193
vn -0.7185187935829163 -0.6058392524719238 -0.3415984511375427
vn -0.7185150980949402 -0.6058399081230164 0.3416050374507904
vn -0.9323154091835022 0.11876660585403442 0.3415880501270294
vn -0.9323183298110962 0.11876391619443893 -0.34158122539520264
vn -0.6055919528007507 0.7187310457229614 -0.3415905237197876
vn -0.6055879592895508 0.7187305092811584 0.34159886837005615
vn 0.11842804402112961 0.9323511719703674 0.3416079878807068
vn 0.1184278354048729 0.9323558211326599 -0.3415956497192383
vn 0.44159209728240967 0.8114829659461975 -0.382742315530777
vn 0.44158411026000977 0.811482310295105 0.38275307416915894
vn 0.18288348615169525 0.33607247471809387 -0.9239096641540527
vn -0.13662098348140717 0.46335330605506897 -0.8755789399147034
vn -0.18292105197906494 -0.3361527919769287 -0.9238728880882263
vn -0.4633459150791168 -0.13659797608852386 -0.8755863308906555
vn -0.18292003870010376 -0.336149126291275 0.9238744974136353
vn -0.46333733201026917 -0.13659290969371796 0.8755917549133301
vn -0.13661372661590576 0.4633456766605377 0.8755841255187988
vn 0.1828734576702118 0.3360690176486969 0.9239128828048706
f 1/1/1 2/2/2 3/3/3
f 2/4/2 4/5/4 3/6/3
f 4/7/4 5/8/5 3/9/3
f 5/10/5 6/11/6 3/12/3
f 6/13/6 5/14/5 7/15/7
f 5/16/5 8/17/8 7/18/7
f 7/19/7 8/20/8 9/21/9
f 10/22/10 7/23/7 9/24/9
f 11/25/11 10/26/10 9/27/9
f 12/28/12 11/29/11 9/30/9
f 11/31/11 13/32/13 10/33/10
f 13/34/13 14/35/14 10/36/10
f 7/37/7 10/38/10 14/39/14
f 13/40/13 15/41/15 14/42/14
f 7/43/7 14/44/14 6/45/6
f 15/46/15 16/47/16 14/48/14
f 14/49/14 16/50/16 6/51/6
f 16/52/16 15/53/15 1/54/1
f 3/55/3 6/56/6 16/57/16
f 3/58/3 16/59/16 1/60/1
f 2/61/2 17/62/17 4/63/4
f 17/64/17 18/65/18 4/66/4
f 18/67/18 5/68/5 4/69/4
f 5/70/5 18/71/18 8/72/8
f 18/73/18 17/74/17 19/75/19
f 18/76/18 19/77/19 8/78/8
f 17/79/17 20/80/20 19/81/19
f 19/82/19 9/83/9 8/84/8
f 19/85/19 20/86/20 12/87/12
f 9/88/9 19/89/19 12/90/12
