# Exported by Lightwave Blender addon
v 130.096923828125 -51.10877227783203 926.0217895507812
v 86.39883422851562 -160.6620635986328 926.0218505859375
v 125.61581420898438 -49.21440887451172 924.4576416015625
v 80.19427490234375 -163.08885192871094 924.4576416015625
v 140.6626739501953 -182.43341064453125 951.2057495117188
v 138.91941833496094 -186.5288848876953 951.262939453125
v 195.9630889892578 -204.4742889404297 926.019775390625
v 196.54100036621094 -208.8836669921875 924.45556640625
v 238.3991241455078 -98.08487701416016 926.019775390625
v 240.37887573242188 -98.97975158691406 924.45556640625
v 79.63278198242188 -162.86402893066406 924.8621826171875
v 125.06310272216797 -48.96790313720703 924.8622436523438
v 124.66477966308594 -48.795082092285156 925.864013671875
v 79.4678955078125 -162.1062469482422 925.8640747070312
v 80.06132507324219 -163.27903747558594 925.1063842773438
v 79.65882873535156 -163.1184539794922 926.1067504882812
v 138.8201141357422 -186.7391815185547 951.8880004882812
v 138.8201141357422 -186.7391815185547 952.9798583984375
v 196.26768493652344 -209.65139770507812 925.1043701171875
v 196.67002868652344 -209.8119659423828 926.104736328125
v 197.11009216308594 -209.10719299316406 924.8599853515625
v 197.5129852294922 -209.2681121826172 925.8619384765625
v 240.9377899169922 -99.22870635986328 924.8599243164062
v 241.3359832763672 -99.4014663696289 925.8618774414062
vt -0.2320556640625 0.0302734375
vt -0.2333984375 0.66552734375
vt -0.259521484375 0.02978515625
vt -0.2333984375 0.66552734375
vt -0.26123046875 0.68994140625
vt -0.259521484375 0.02978515625
vt -0.2978515625 0.7197265625
vt -0.64111328125 0.71923828125
vt -0.26953125 0.69482421875
vt -0.64111328125 0.71923828125
vt -0.640625 0.6953125
vt -0.26953125 0.69482421875
vt -0.64111328125 0.71923828125
vt -0.98974609375 0.716552734375
vt -0.640625 0.6953125
vt -0.98974609375 0.716552734375
vt -1.00390625 0.695068359375
vt -0.640625 0.6953125
vt -1.0224609375 0.6630859375
vt -1.037109375 0.04638671875
vt -1.0068359375 0.68359375
vt -1.037109375 0.04638671875
vt -1.0224609375 0.04638671875
vt -1.0068359375 0.68359375
vt -0.259521484375 0.02978515625
vt -0.26123046875 0.68994140625
vt -0.265869140625 0.6904296875
vt -0.263427734375 0.029296875
vt -0.259521484375 0.02978515625
vt -0.265869140625 0.6904296875
vt -0.263427734375 0.029296875
vt -0.265869140625 0.6904296875
vt -0.269287109375 0.02880859375
vt -0.265869140625 0.6904296875
vt -0.26904296875 0.68505859375
vt -0.269287109375 0.02880859375
vt -0.265869140625 0.6904296875
vt -0.27001953125 0.691650390625
vt -0.26904296875 0.68505859375
vt -0.26953125 0.69482421875
vt -0.27001953125 0.691650390625
vt -0.265869140625 0.6904296875
vt -0.27001953125 0.691650390625
vt -0.271240234375 0.686767578125
vt -0.26904296875 0.68505859375
vt -0.27001953125 0.691650390625
vt -0.26953125 0.69482421875
vt -0.640625 0.69189453125
vt -0.27001953125 0.691650390625
vt -0.640625 0.69189453125
vt -0.271240234375 0.686767578125
vt -0.26953125 0.69482421875
vt -0.640625 0.6953125
vt -0.640625 0.69189453125
vt -0.640625 0.69189453125
vt -0.640625 0.6865234375
vt -0.271240234375 0.686767578125
vt -0.640625 0.69189453125
vt -0.640625 0.6953125
vt -1.00390625 0.689208984375
vt -0.640625 0.69189453125
vt -1.00390625 0.689208984375
vt -0.640625 0.6865234375
vt -0.640625 0.6953125
vt -1.00390625 0.695068359375
vt -1.00390625 0.689208984375
vt -1.00390625 0.689208984375
vt -1.001953125 0.686767578125
vt -0.640625 0.6865234375
vt -1.00390625 0.689208984375
vt -1.00390625 0.68310546875
vt -1.001953125 0.686767578125
vt -1.00390625 0.68310546875
vt -1.00390625 0.689208984375
vt -1.0068359375 0.68359375
vt -1.00390625 0.68310546875
vt -0.9990234375 0.682861328125
vt -1.001953125 0.686767578125
vt -1.00390625 0.68310546875
vt -1.0068359375 0.68359375
vt -1.017578125 0.0458984375
vt -1.00390625 0.68310546875
vt -1.017578125 0.0458984375
vt -0.9990234375 0.682861328125
vt -1.0068359375 0.68359375
vt -1.0224609375 0.04638671875
vt -1.017578125 0.0458984375
vt -1.017578125 0.0458984375
vt -1.0107421875 0.0458984375
vt -0.9990234375 0.682861328125
vn 0.2843474745750427 -0.11341967433691025 -0.951988697052002
vn 0.306351900100708 -0.1808568239212036 -0.9345797300338745
vn -0.1363566368818283 0.054389216005802155 -0.9891656041145325
vn -0.27555257081985474 -0.44732892513275146 -0.8508629202842712
vn -0.010091597214341164 -0.011798842810094357 -0.9998794794082642
vn -0.24223309755325317 -0.6064056158065796 -0.7573608160018921
vn -0.4417972266674042 0.24610941112041473 -0.862696647644043
vn -0.052072107791900635 -0.27762243151664734 -0.9592779874801636
vn -0.5430700778961182 0.21661686897277832 -0.8112655878067017
vn -0.03278975188732147 0.013078991323709488 -0.9993767142295837
vn -0.8832162022590637 -0.28198710083961487 -0.3747166395187378
vn -0.7159321904182434 0.2855677902698517 -0.6370967030525208
vn -0.8522889018058777 0.33995699882507324 -0.39753347635269165
vn -0.9439452290534973 0.08698571473360062 -0.31843507289886475
vn -0.5285674929618835 -0.8337659239768982 -0.15953323245048523
vn -0.7241644263267517 -0.6644309759140015 -0.18470889329910278
vn -0.36727002263069153 -0.9206891059875488 -0.13207726180553436
vn -0.37062984704971313 -0.9287806749343872 -5.275786065794819e-07
vn -0.1343996822834015 -0.8599620461463928 -0.4923434853553772
vn 0.045043691992759705 -0.9833648204803467 -0.1759674996137619
vn 0.5761827230453491 -0.5506174564361572 -0.6040146946907043
vn 0.6878609657287598 -0.6206924915313721 -0.3762819468975067
vn 0.7093624472618103 -0.2829466760158539 -0.6455587148666382
vn 0.8523578643798828 -0.3399839401245117 -0.39736276865005493
f 1/1/1 2/2/2 3/3/3
f 2/4/2 4/5/4 3/6/3
f 2/7/2 5/8/5 4/9/4
f 5/10/5 6/11/6 4/12/4
f 5/13/5 7/14/7 6/15/6
f 7/16/7 8/17/8 6/18/6
f 7/19/7 9/20/9 8/21/8
f 9/22/9 10/23/10 8/24/8
f 3/25/3 4/26/4 11/27/11
f 12/28/12 3/29/3 11/30/11
f 12/31/12 11/32/11 13/33/13
f 11/34/11 14/35/14 13/36/13
f 11/37/11 15/38/15 14/39/14
f 4/40/4 15/41/15 11/42/11
f 15/43/15 16/44/16 14/45/14
f 15/46/15 4/47/4 17/48/17
f 15/49/15 17/50/17 16/51/16
f 4/52/4 6/53/6 17/54/17
f 17/55/17 18/56/18 16/57/16
f 17/58/17 6/59/6 19/60/19
f 17/61/17 19/62/19 18/63/18
f 6/64/6 8/65/8 19/66/19
f 19/67/19 20/68/20 18/69/18
f 19/70/19 21/71/21 20/72/20
f 21/73/21 19/74/19 8/75/8
f 21/76/21 22/77/22 20/78/20
f 21/79/21 8/80/8 23/81/23
f 21/82/21 23/83/23 22/84/22
f 8/85/8 10/86/10 23/87/23
f 23/88/23 24/89/24 22/90/22
