# Exported by Lightwave Blender addon
v 941.3855590820312 -475.9306335449219 693.360595703125
v 941.3856811523438 -475.9307556152344 492.69903564453125
v 950.5791625976562 -452.6824951171875 693.360595703125
v 950.5791625976562 -452.6824951171875 492.69903564453125
v 1057.6270751953125 -521.8978271484375 492.69903564453125
v 1057.6270751953125 -521.8978271484375 693.360595703125
v 1066.8204345703125 -498.6497497558594 492.69903564453125
v 1066.8204345703125 -498.6497497558594 693.360595703125
v 406.6757507324219 -264.48193359375 693.3604736328125
v 406.6758728027344 -264.48193359375 492.7615966796875
v 415.86920166015625 -241.23370361328125 693.3604736328125
v 415.86920166015625 -241.23370361328125 492.7615966796875
v 522.917236328125 -310.4490966796875 492.7615966796875
v 522.917236328125 -310.44921875 693.3604736328125
v 532.110595703125 -287.20086669921875 492.7615966796875
v 532.110595703125 -287.20086669921875 693.3604736328125
v 685.6549072265625 -374.802978515625 693.3604736328125
v 685.6549072265625 -374.802978515625 492.7615966796875
v 694.8482666015625 -351.5546875 693.3604736328125
v 694.8482666015625 -351.5546875 492.7615966796875
v 801.8963623046875 -420.7701416015625 492.7615966796875
v 801.8963623046875 -420.7701416015625 693.3604736328125
v 811.089599609375 -397.5218505859375 492.7615966796875
v 811.089599609375 -397.5218505859375 693.3604736328125
v 345.03070068359375 -240.10467529296875 427.08935546875
v 406.6758728027344 -264.48193359375 427.0893249511719
v 345.03070068359375 -240.10467529296875 492.76153564453125
v 522.9171142578125 -310.44921875 427.08935546875
v 345.0306396484375 -240.10467529296875 693.3604125976562
v 604.2862548828125 -342.626220703125 427.08935546875
v 345.03070068359375 -240.1046905517578 750.53076171875
v 406.6759033203125 -264.48193359375 750.531005859375
v 522.9171142578125 -310.44921875 750.531005859375
v 604.2861328125 -342.6260986328125 750.531005859375
v 604.2861328125 -342.6260986328125 693.3604125976562
v 685.6549072265625 -374.802978515625 750.5308837890625
v 801.896240234375 -420.7701416015625 750.5308837890625
v 604.2861328125 -342.6260986328125 492.76153564453125
v 685.6549072265625 -374.802978515625 427.0893249511719
v 801.8961181640625 -420.7701416015625 427.08935546875
v 883.2651977539062 -452.9471435546875 750.5308837890625
v 883.2651977539062 -452.9471435546875 427.08935546875
v 883.2651977539062 -452.9471435546875 693.3604125976562
v 941.3858032226562 -475.9307556152344 750.5308837890625
v 1057.627197265625 -521.89794921875 749.529052734375
v 883.2651977539062 -452.9471435546875 492.7302551269531
v 1126.074951171875 -547.0577392578125 749.5292358398438
v 1126.07470703125 -547.0574951171875 693.360595703125
v 1126.07470703125 -547.0574951171875 492.6990966796875
v 1126.07470703125 -547.0574951171875 427.089599609375
v 1057.6270751953125 -521.89794921875 427.0894775390625
v 941.3856811523438 -475.9307556152344 427.0894470214844
v 1058.997802734375 -521.543212890625 367.3901062011719
v 1126.07470703125 -547.0574951171875 367.3901062011719
v 942.1229858398438 -476.2222595214844 367.3899841308594
v 883.2651977539062 -452.9471435546875 367.389892578125
v 883.2651977539062 -452.9471130371094 166.75979614257812
v 1058.997802734375 -521.5433349609375 166.7286376953125
v 1126.07470703125 -547.0574951171875 166.7286376953125
v 1126.07470703125 -547.0574951171875 39.26382064819336
v 1058.997802734375 -521.5433349609375 39.26369857788086
v 942.1231079101562 -476.22222900390625 166.74398803710938
v 883.2651977539062 -452.9471130371094 39.263580322265625
v 942.1231079101562 -476.22222900390625 39.263580322265625
vt 2.265625 3.080078125
vt 2.265625 2.080078125
vt 2.390625 3.080078125
vt 2.265625 2.080078125
vt 2.390625 2.080078125
vt 2.390625 3.080078125
vt 2.888671875 2.080078125
vt 2.888671875 3.080078125
vt 2.763671875 2.080078125
vt 2.888671875 3.080078125
vt 2.763671875 3.080078125
vt 2.763671875 2.080078125
vt 2.888671875 3.080078125
vt 2.265625 3.080078125
vt 2.888671875 2.95703125
vt 2.265625 3.080078125
vt 2.265625 2.95703125
vt 2.888671875 2.95703125
vt -0.60400390625 3.08203125
vt -0.60400390625 2.080078125
vt -0.4794921875 3.08203125
vt -0.60400390625 2.080078125
vt -0.4794921875 2.080078125
vt -0.4794921875 3.08203125
vt 0.019500732421875 2.080078125
vt 0.019500732421875 3.08203125
vt -0.10528564453125 2.080078125
vt 0.019500732421875 3.08203125
vt -0.10528564453125 3.08203125
vt -0.10528564453125 2.080078125
vt 0.019500732421875 3.08203125
vt -0.60400390625 3.08203125
vt 0.0194854736328125 2.95703125
vt -0.60400390625 3.08203125
vt -0.6044921875 2.95703125
vt 0.0194854736328125 2.95703125
vt 0.89306640625 3.08203125
vt 0.89306640625 2.080078125
vt 1.017578125 3.08203125
vt 0.89306640625 2.080078125
vt 1.017578125 2.080078125
vt 1.017578125 3.08203125
vt 1.5166015625 2.080078125
vt 1.5166015625 3.080078125
vt 1.3916015625 2.080078125
vt 1.5166015625 3.080078125
vt 1.3916015625 3.080078125
vt 1.3916015625 2.080078125
vt 1.5166015625 3.080078125
vt 0.89306640625 3.08203125
vt 1.5166015625 2.95703125
vt 0.89306640625 3.08203125
vt 0.89306640625 2.95703125
vt 1.5166015625 2.95703125
vt 2.888671875 2.080078125
vt 2.888671875 2.205078125
vt 2.265625 2.080078125
vt 2.888671875 2.205078125
vt 2.265625 2.205078125
vt 2.265625 2.080078125
vt 1.5166015625 2.080078125
vt 1.5166015625 2.205078125
vt 0.89306640625 2.080078125
vt 1.5166015625 2.205078125
vt 0.89306640625 2.205078125
vt 0.89306640625 2.080078125
vt 0.019500732421875 2.080078125
vt 0.0195159912109375 2.205078125
vt -0.60400390625 2.080078125
vt 0.0195159912109375 2.205078125
vt -0.60400390625 2.205078125
vt -0.60400390625 2.080078125
vt -0.93505859375 1.7529296875
vt -0.6044921875 1.7529296875
vt -0.93505859375 2.080078125
vt -0.6044921875 1.7529296875
vt -0.60400390625 2.080078125
vt -0.93505859375 2.080078125
vt -0.6044921875 1.7529296875
vt 0.01947021484375 1.75244140625
vt -0.60400390625 2.080078125
vt -0.93505859375 2.080078125
vt -0.60400390625 2.080078125
vt -0.93505859375 3.08203125
vt 0.01947021484375 1.75244140625
vt 0.019500732421875 2.080078125
vt -0.60400390625 2.080078125
vt -0.60400390625 2.080078125
vt -0.60400390625 3.08203125
vt -0.93505859375 3.08203125
vt 0.01947021484375 1.75244140625
vt 0.4560546875 1.75244140625
vt 0.019500732421875 2.080078125
vt -0.93505859375 3.3671875
vt -0.93505859375 3.08203125
vt -0.60400390625 3.08203125
vt -0.60400390625 3.3671875
vt -0.93505859375 3.3671875
vt -0.60400390625 3.08203125
vt 0.01953125 3.3671875
vt -0.60400390625 3.3671875
vt -0.60400390625 3.08203125
vt 0.019500732421875 3.08203125
vt 0.01953125 3.3671875
vt -0.60400390625 3.08203125
vt 0.456298828125 3.3671875
vt 0.01953125 3.3671875
vt 0.019500732421875 3.08203125
vt 0.456298828125 3.08203125
vt 0.456298828125 3.3671875
vt 0.019500732421875 3.08203125
vt 0.456298828125 3.08203125
vt 0.019500732421875 3.08203125
vt 0.019500732421875 2.080078125
vt 0.456298828125 3.3671875
vt 0.456298828125 3.08203125
vt 0.89306640625 3.08203125
vt 0.89306640625 3.3671875
vt 0.456298828125 3.3671875
vt 0.89306640625 3.08203125
vt 1.5166015625 3.3671875
vt 0.89306640625 3.3671875
vt 0.89306640625 3.08203125
vt 0.4560546875 2.080078125
vt 0.456298828125 3.08203125
vt 0.019500732421875 2.080078125
vt 0.456298828125 3.08203125
vt 0.4560546875 2.080078125
vt 0.89306640625 3.08203125
vt 0.4560546875 1.75244140625
vt 0.4560546875 2.080078125
vt 0.019500732421875 2.080078125
vt 1.5166015625 3.080078125
vt 1.5166015625 3.3671875
vt 0.89306640625 3.08203125
vt 0.4560546875 2.080078125
vt 0.89306640625 2.080078125
vt 0.89306640625 3.08203125
vt 0.4560546875 2.080078125
vt 0.4560546875 1.75244140625
vt 0.89306640625 2.080078125
vt 0.4560546875 1.75244140625
vt 0.892578125 1.75244140625
vt 0.89306640625 2.080078125
vt 0.892578125 1.75244140625
vt 1.5166015625 1.75244140625
vt 0.89306640625 2.080078125
vt 1.5166015625 1.75244140625
vt 1.5166015625 2.080078125
vt 0.89306640625 2.080078125
vt 1.953125 3.3671875
vt 1.5166015625 3.3671875
vt 1.5166015625 3.080078125
vt 1.5166015625 1.75244140625
vt 1.95703125 1.75244140625
vt 1.5166015625 2.080078125
vt 1.953125 3.080078125
vt 1.953125 3.3671875
vt 1.5166015625 3.080078125
vt 1.953125 3.080078125
vt 1.5166015625 3.080078125
vt 1.5166015625 2.080078125
vt 1.953125 3.3671875
vt 1.953125 3.080078125
vt 2.265625 3.080078125
vt 2.265625 3.3671875
vt 1.953125 3.3671875
vt 2.265625 3.080078125
vt 2.888671875 3.361328125
vt 2.265625 3.3671875
vt 2.265625 3.080078125
vt 1.953125 2.080078125
vt 1.953125 3.080078125
vt 1.5166015625 2.080078125
vt 1.953125 3.080078125
vt 1.953125 2.080078125
vt 2.265625 3.080078125
vt 1.95703125 1.75244140625
vt 1.953125 2.080078125
vt 1.5166015625 2.080078125
vt 2.888671875 3.080078125
vt 2.888671875 3.361328125
vt 2.265625 3.080078125
vt 3.251953125 3.361328125
vt 2.888671875 3.361328125
vt 2.888671875 3.080078125
vt 1.953125 2.080078125
vt 2.265625 2.080078125
vt 2.265625 3.080078125
vt 3.251953125 3.080078125
vt 3.251953125 3.361328125
vt 2.888671875 3.080078125
vt 1.953125 2.080078125
vt 1.95703125 1.75244140625
vt 2.265625 2.080078125
vt 3.251953125 3.080078125
vt 2.888671875 3.080078125
vt 2.888671875 2.080078125
vt 3.251953125 2.080078125
vt 3.251953125 3.080078125
vt 2.888671875 2.080078125
vt 3.251953125 1.7548828125
vt 3.251953125 2.080078125
vt 2.888671875 2.080078125
vt 2.888671875 1.75244140625
vt 2.888671875 2.080078125
vt 2.265625 2.080078125
vt 2.888671875 1.75244140625
vt 3.251953125 1.7548828125
vt 2.888671875 2.080078125
vt 1.95703125 1.75244140625
vt 2.26953125 1.75244140625
vt 2.265625 2.080078125
vt 2.26953125 1.75244140625
vt 2.888671875 1.75244140625
vt 2.265625 2.080078125
vt 3.251953125 1.7548828125
vt 2.888671875 1.75244140625
vt 2.892578125 1.444580078125
vt 2.888671875 1.75244140625
vt 2.26953125 1.75244140625
vt 2.892578125 1.444580078125
vt 3.25 1.4443359375
vt 3.251953125 1.7548828125
vt 2.892578125 1.444580078125
vt 2.26953125 1.75244140625
vt 1.95703125 1.75244140625
vt 2.26953125 1.44482421875
vt 2.26953125 1.75244140625
vt 2.26953125 1.44482421875
vt 2.892578125 1.444580078125
vt 1.95703125 1.75244140625
vt 1.9560546875 1.44482421875
vt 2.26953125 1.44482421875
vt 1.9560546875 1.44482421875
vt 1.9560546875 0.41015625
vt 2.26953125 1.44482421875
vt 3.25 1.4443359375
vt 2.892578125 1.444580078125
vt 2.892578125 0.40966796875
vt 2.892578125 1.444580078125
vt 2.26953125 1.44482421875
vt 2.892578125 0.40966796875
vt 3.25 0.40966796875
vt 3.25 1.4443359375
vt 2.892578125 0.40966796875
vt 3.25 -0.248046875
vt 3.25 0.40966796875
vt 2.892578125 0.40966796875
vt 2.892578125 -0.248046875
vt 3.25 -0.248046875
vt 2.892578125 0.40966796875
vt 1.9560546875 0.41015625
vt 2.26953125 0.41015625
vt 2.26953125 1.44482421875
vt 2.26953125 1.44482421875
vt 2.26953125 0.41015625
vt 2.892578125 0.40966796875
vt 2.892578125 -0.248046875
vt 2.892578125 0.40966796875
vt 2.26953125 0.41015625
vt 1.9560546875 0.41015625
vt 1.955078125 -0.2470703125
vt 2.26953125 0.41015625
vt 2.26953125 -0.2470703125
vt 2.892578125 -0.248046875
vt 2.26953125 0.41015625
vt 1.955078125 -0.2470703125
vt 2.26953125 -0.2470703125
vt 2.26953125 0.41015625
vn -0.052243683487176895 -0.9520319104194641 -0.3015059232711792
vn -0.05224912241101265 -0.9520329236984253 0.30150192975997925
vn 0.6575579047203064 -0.2600344717502594 -0.7071065306663513
vn 0.6575590372085571 -0.26003047823905945 0.7071070075035095
vn -0.6020084619522095 -0.7388198971748352 0.3028711676597595
vn -0.6020076274871826 -0.738821804523468 -0.30286797881126404
vn -0.6575685739517212 0.26003286242485046 0.7070973515510559
vn -0.6575672626495361 0.2600323557853699 -0.707098662853241
vn -0.052247144281864166 -0.9520325064659119 -0.30150359869003296
vn -0.05223707854747772 -0.9520302414894104 0.30151212215423584
vn 0.6575607657432556 -0.2600303888320923 -0.7071055173873901
vn 0.6575612425804138 -0.26002737879753113 0.7071060538291931
vn -0.613015353679657 -0.7302754521369934 0.30151301622390747
vn -0.6130146980285645 -0.7302771806716919 -0.3015098571777344
vn -0.6575690507888794 0.26003125309944153 0.7070972919464111
vn -0.6575676202774048 0.26002946496009827 -0.7070993781089783
vn -0.052238233387470245 -0.9520303606987 -0.3015120327472687
vn -0.052245013415813446 -0.9520321488380432 0.3015051484107971
vn 0.6575626134872437 -0.2600281536579132 -0.7071045637130737
vn 0.6575610637664795 -0.26002752780914307 0.7071060538291931
vn -0.6130152940750122 -0.7302761077880859 0.3015110194683075
vn -0.6130152344703674 -0.7302771806716919 -0.3015088438987732
vn -0.6575692296028137 0.26002731919288635 0.7070987224578857
vn -0.6575676798820496 0.2600266933441162 -0.7071003317832947
vn -0.36773601174354553 -0.9299301505088806 0.0
vn -0.3677370250225067 -0.9299297332763672 0.0
vn -0.36773601174354553 -0.9299302697181702 -5.966693095160736e-08
vn -0.3677366375923157 -0.9299299716949463 2.024245759457699e-06
vn -0.367736279964447 -0.9299300909042358 -2.9076627328095128e-08
vn -0.3677363097667694 -0.9299301505088806 1.104273110286158e-06
vn -0.36773601174354553 -0.9299302101135254 5.313639235282608e-07
vn -0.36773690581321716 -0.9299298524856567 9.89998625300359e-07
vn -0.36773645877838135 -0.9299300312995911 -5.439705432763731e-07
vn -0.36773595213890076 -0.9299302697181702 -1.446502295721075e-07
vn -0.3677361011505127 -0.9299302101135254 -1.0442519737807743e-07
vn -0.3677365779876709 -0.9299299120903015 0.0
vn -0.3677367866039276 -0.9299299716949463 -6.779837349313311e-07
vn -0.36773666739463806 -0.9299300909042358 5.225037966738455e-07
vn -0.36773645877838135 -0.9299300909042358 0.0
vn -0.3677365481853485 -0.9299300312995911 1.1740640957214055e-06
vn -0.3677373230457306 -0.9299297332763672 -2.413325432826241e-07
vn -0.36773771047592163 -0.9299294948577881 3.9311153443577496e-08
vn -0.3677373230457306 -0.9299297332763672 0.0
vn -0.36773738265037537 -0.9299296736717224 -4.125745363126043e-07
vn -0.3564271032810211 -0.9343231320381165 -1.14572628717724e-06
vn -0.3677377700805664 -0.9299294948577881 6.908912553171831e-08
vn -0.3450067937374115 -0.9386001229286194 -2.0410732304299017e-06
vn -0.34500640630722046 -0.9386003017425537 -1.2900832189188804e-06
vn -0.34500643610954285 -0.9386003017425537 0.0
vn -0.347944051027298 -0.9375105500221252 -0.002981084631755948
vn -0.3564586043357849 -0.9342859387397766 -0.006867364048957825
vn -0.36663904786109924 -0.9303627610206604 -0.0009674218017607927
vn -0.3581137955188751 -0.9336676001548767 -0.004385723266750574
vn -0.3555227220058441 -0.9346676468849182 2.2213150430161477e-07
vn -0.36462926864624023 -0.9311527609825134 2.1930683942628093e-05
vn -0.3677375614643097 -0.9299296140670776 -7.072524965678895e-08
vn -0.36773696541786194 -0.9299299120903015 -1.6084844389752107e-07
vn -0.35853463411331177 -0.9335164427757263 2.4550109500864892e-08
vn -0.35552138090133667 -0.9346681833267212 0.0
vn -0.3555213510990143 -0.9346681237220764 0.0
vn -0.35853469371795654 -0.9335163831710815 0.0
vn -0.3646424412727356 -0.931147575378418 -1.8172544002936775e-07
vn -0.3677368760108948 -0.929929792881012 0.0
vn -0.36464253067970276 -0.931147575378418 0.0
f 1/1/1 2/2/2 3/3/3
f 2/4/2 4/5/4 3/6/3
f 5/7/5 6/8/6 7/9/7
f 6/10/6 8/11/8 7/12/7
f 6/13/6 1/14/1 8/15/8
f 1/16/1 3/17/3 8/18/8
f 9/19/9 10/20/10 11/21/11
f 10/22/10 12/23/12 11/24/11
f 13/25/13 14/26/14 15/27/15
f 14/28/14 16/29/16 15/30/15
f 14/31/14 9/32/9 16/33/16
f 9/34/9 11/35/11 16/36/16
f 17/37/17 18/38/18 19/39/19
f 18/40/18 20/41/20 19/42/19
f 21/43/21 22/44/22 23/45/23
f 22/46/22 24/47/24 23/48/23
f 22/49/22 17/50/17 24/51/24
f 17/52/17 19/53/19 24/54/24
f 5/55/5 7/56/7 2/57/2
f 7/58/7 4/59/4 2/60/2
f 21/61/21 23/62/23 18/63/18
f 23/64/23 20/65/20 18/66/18
f 13/67/13 15/68/15 10/69/10
f 15/70/15 12/71/12 10/72/10
f 25/73/25 26/74/26 27/75/27
f 26/76/26 10/77/10 27/78/27
f 26/79/26 28/80/28 10/81/10
f 27/82/27 10/83/10 29/84/29
f 28/85/28 13/86/13 10/87/10
f 10/88/10 9/89/9 29/90/29
f 28/91/28 30/92/30 13/93/13
f 31/94/31 29/95/29 9/96/9
f 32/97/32 31/98/31 9/99/9
f 33/100/33 32/101/32 9/102/9
f 14/103/14 33/104/33 9/105/9
f 34/106/34 33/107/33 14/108/14
f 35/109/35 34/110/34 14/111/14
f 35/112/35 14/113/14 13/114/13
f 34/115/34 35/116/35 17/117/17
f 36/118/36 34/119/34 17/120/17
f 37/121/37 36/122/36 17/123/17
f 38/124/38 35/125/35 13/126/13
f 35/127/35 38/128/38 17/129/17
f 30/130/30 38/131/38 13/132/13
f 22/133/22 37/134/37 17/135/17
f 38/136/38 18/137/18 17/138/17
f 38/139/38 30/140/30 18/141/18
f 30/142/30 39/143/39 18/144/18
f 39/145/39 40/146/40 18/147/18
f 40/148/40 21/149/21 18/150/18
f 41/151/41 37/152/37 22/153/22
f 40/154/40 42/155/42 21/156/21
f 43/157/43 41/158/41 22/159/22
f 43/160/43 22/161/22 21/162/21
f 41/163/41 43/164/43 1/165/1
f 44/166/44 41/167/41 1/168/1
f 45/169/45 44/170/44 1/171/1
f 46/172/46 43/173/43 21/174/21
f 43/175/43 46/176/46 1/177/1
f 42/178/42 46/179/46 21/180/21
f 6/181/6 45/182/45 1/183/1
f 47/184/47 45/185/45 6/186/6
f 46/187/46 2/188/2 1/189/1
f 48/190/48 47/191/47 6/192/6
f 46/193/46 42/194/42 2/195/2
f 48/196/48 6/197/6 5/198/5
f 49/199/49 48/200/48 5/201/5
f 50/202/50 49/203/49 5/204/5
f 51/205/51 5/206/5 2/207/2
f 51/208/51 50/209/50 5/210/5
f 42/211/42 52/212/52 2/213/2
f 52/214/52 51/215/51 2/216/2
f 50/217/50 51/218/51 53/219/53
f 51/220/51 52/221/52 53/222/53
f 54/223/54 50/224/50 53/225/53
f 52/226/52 42/227/42 55/228/55
f 52/229/52 55/230/55 53/231/53
f 42/232/42 56/233/56 55/234/55
f 56/235/56 57/236/57 55/237/55
f 54/238/54 53/239/53 58/240/58
f 53/241/53 55/242/55 58/243/58
f 59/244/59 54/245/54 58/246/58
f 60/247/60 59/248/59 58/249/58
f 61/250/61 60/251/60 58/252/58
f 57/253/57 62/254/62 55/255/55
f 55/256/55 62/257/62 58/258/58
f 61/259/61 58/260/58 62/261/62
f 57/262/57 63/263/63 62/264/62
f 64/265/64 61/266/61 62/267/62
f 63/268/63 64/269/64 62/270/62
