# Exported by Lightwave Blender addon
v 297.7259826660156 -1410.4140625 813.4063720703125
v 297.7259521484375 -1410.4140625 998.79833984375
v 300.0936279296875 -1407.039794921875 998.79833984375
v 300.0936279296875 -1407.039794921875 813.4063720703125
v 300.38079833984375 -1406.6304931640625 998.7984008789062
v 300.3808288574219 -1406.6304931640625 813.4064331054688
v 304.7629089355469 -1408.4259033203125 813.4063720703125
v 304.7629089355469 -1408.4259033203125 998.7982177734375
v 304.67578125 -1408.9183349609375 998.7982788085938
v 304.67578125 -1408.9183349609375 813.4064331054688
v 303.92083740234375 -1413.185791015625 998.79833984375
v 303.9208068847656 -1413.185791015625 813.4064331054688
v 300.8434753417969 -1406.820068359375 998.79833984375
v 300.8434753417969 -1406.820068359375 813.4064331054688
v 304.30023193359375 -1408.236328125 998.7982177734375
v 304.30023193359375 -1408.236328125 813.4063720703125
vt 0.2763671875 0.52587890625
vt -0.64990234375 0.52587890625
vt -0.64990234375 0.505859375
vt 0.2763671875 0.505859375
vt 0.2763671875 0.52587890625
vt -0.64990234375 0.505859375
vt 0.2763671875 0.505859375
vt -0.64990234375 0.505859375
vt -0.64990234375 0.50341796875
vt 0.2763671875 0.50341796875
vt 0.2763671875 0.505859375
vt -0.64990234375 0.50341796875
vt 0.72314453125 0.50341796875
vt 1.6494140625 0.50341796875
vt 1.6494140625 0.505859375
vt 0.72314453125 0.505859375
vt 0.72314453125 0.50341796875
vt 1.6494140625 0.505859375
vt 0.72314453125 0.505859375
vt 1.6494140625 0.505859375
vt 1.6494140625 0.527099609375
vt 0.72314453125 0.527099609375
vt 0.72314453125 0.505859375
vt 1.6494140625 0.527099609375
vt 0.72314453125 0.34912109375
vt 1.6494140625 0.34912109375
vt 1.6494140625 0.3515625
vt 0.72314453125 0.3515625
vt 0.72314453125 0.34912109375
vt 1.6494140625 0.3515625
vt 0.72314453125 0.3515625
vt 1.6494140625 0.3515625
vt 1.6494140625 0.3701171875
vt 0.72314453125 0.3701171875
vt 0.72314453125 0.3515625
vt 1.6494140625 0.3701171875
vt 0.72314453125 0.3701171875
vt 1.6494140625 0.3701171875
vt 1.6494140625 0.37255859375
vt 0.72314453125 0.37255859375
vt 0.72314453125 0.3701171875
vt 1.6494140625 0.37255859375
vn -0.818586528301239 0.5743831992149353 -1.9065995449096818e-09
vn -0.8185831308364868 0.5743881464004517 -1.347478786328793e-07
vn -0.8185976147651672 0.5743674635887146 -6.641845828880832e-08
vn -0.8185849785804749 0.574385404586792 -6.727629653369149e-08
vn -0.28120994567871094 0.9596462249755859 3.9790258199445816e-08
vn -0.28120893239974976 0.9596465826034546 -8.618442848273844e-08
vn 0.8759315609931946 0.4824354648590088 0.0
vn 0.875961184501648 0.48238158226013184 0.0
vn 0.9847077131271362 -0.1742148995399475 0.0
vn 0.9847069978713989 -0.17421822249889374 -7.980464289403244e-08
vn 0.9847099184989929 -0.17420241236686707 -2.4098474327161057e-09
vn 0.9847087264060974 -0.17420914769172668 -1.6202450581204175e-07
vn 0.37913277745246887 0.9253422617912292 3.115363966799123e-08
vn 0.37914344668388367 0.9253378510475159 0.0
vn 0.37913277745246887 0.925342321395874 0.0
vn 0.37913277745246887 0.925342321395874 0.0
f 1/1/1 2/2/2 3/3/3
f 4/4/4 1/5/1 3/6/3
f 4/7/4 3/8/3 5/9/5
f 6/10/6 4/11/4 5/12/5
f 7/13/7 8/14/8 9/15/9
f 10/16/10 7/17/7 9/18/9
f 10/19/10 9/20/9 11/21/11
f 12/22/12 10/23/10 11/24/11
f 6/25/6 5/26/5 13/27/13
f 14/28/14 6/29/6 13/30/13
f 14/31/14 13/32/13 15/33/15
f 16/34/16 14/35/14 15/36/15
f 16/37/16 15/38/15 8/39/8
f 7/40/7 16/41/16 8/42/8
