# Exported by Lightwave Blender addon
v 78.4333724975586 738.6351928710938 53.4498405456543
v 78.43341827392578 738.63525390625 96.3332290649414
v 74.11105346679688 740.9656982421875 96.33323669433594
v 74.11100006103516 740.9656372070312 53.44984436035156
v 73.67094421386719 741.2029418945312 96.33323669433594
v 73.67089080810547 741.2029418945312 53.44984817504883
v 73.90875244140625 741.6427612304688 96.33323669433594
v 73.90869903564453 741.6427612304688 53.44984817504883
v 74.06331634521484 741.9286499023438 96.3332290649414
v 74.06326293945312 741.9286499023438 53.44984817504883
v 74.3011245727539 742.3684692382812 96.33323669433594
v 74.30107116699219 742.3684692382812 53.4498405456543
v 73.9852294921875 742.7560424804688 96.33323669433594
v 73.98517608642578 742.7560424804688 53.44984436035156
v 73.4673843383789 743.391357421875 96.33323669433594
v 73.46733856201172 743.391357421875 53.4498405456543
v 73.1514892578125 743.7789306640625 96.33324432373047
v 73.15144348144531 743.7789306640625 53.44984436035156
v 73.3887710571289 744.2190551757812 96.33324432373047
v 73.38871765136719 744.2190551757812 53.44984817504883
v 74.19685363769531 745.7178955078125 96.3332290649414
v 74.19679260253906 745.7178344726562 53.44983673095703
v 74.43412780761719 746.1580200195312 96.3332290649414
v 74.43408203125 746.157958984375 53.4498405456543
v 74.93148803710938 746.1066284179688 96.3332290649414
v 74.93144226074219 746.1066284179688 53.44983673095703
v 75.75070190429688 746.0220947265625 96.3332290649414
v 75.75065612792969 746.0220336914062 53.44983673095703
v 76.24806213378906 745.9707641601562 96.3332290649414
v 76.24801635742188 745.970703125 53.4498405456543
v 76.4853515625 746.4108276367188 96.3332290649414
v 76.48529815673828 746.4108276367188 53.44983673095703
v 76.61119079589844 746.6442260742188 96.3332290649414
v 76.61112976074219 746.6442260742188 53.44983673095703
v 76.84848022460938 747.0843505859375 96.3332290649414
v 76.84841918945312 747.0843505859375 53.44983673095703
v 77.28858184814453 746.8470458984375 96.3332290649414
v 77.28852844238281 746.8470458984375 53.44983673095703
v 81.80018615722656 744.4146118164062 96.33322143554688
v 81.80014038085938 744.41455078125 53.449832916259766
vt -0.24658203125 0.12109375
vt 0.365478515625 0.12109375
vt 0.365478515625 0.19091796875
vt -0.24658203125 0.19091796875
vt -0.24658203125 0.12109375
vt 0.365478515625 0.19091796875
vt -0.24658203125 0.19091796875
vt 0.365478515625 0.19091796875
vt 0.365478515625 0.1982421875
vt -0.24658203125 0.1982421875
vt -0.24658203125 0.19091796875
vt 0.365478515625 0.1982421875
vt -0.24658203125 0.1982421875
vt 0.365478515625 0.1982421875
vt 0.365478515625 0.205078125
vt -0.24658203125 0.205078125
vt -0.24658203125 0.1982421875
vt 0.365478515625 0.205078125
vt -0.24658203125 0.205078125
vt 0.365478515625 0.205078125
vt 0.365478515625 0.2099609375
vt -0.24658203125 0.2099609375
vt -0.24658203125 0.205078125
vt 0.365478515625 0.2099609375
vt -0.24658203125 0.2099609375
vt 0.365478515625 0.2099609375
vt 0.365478515625 0.216796875
vt -0.24658203125 0.216796875
vt -0.24658203125 0.2099609375
vt 0.365478515625 0.216796875
vt -0.24658203125 0.216796875
vt 0.365478515625 0.216796875
vt 0.365478515625 0.22412109375
vt -0.24658203125 0.22412109375
vt -0.24658203125 0.216796875
vt 0.365478515625 0.22412109375
vt -0.24658203125 0.22412109375
vt 0.365478515625 0.22412109375
vt 0.365478515625 0.23583984375
vt -0.24658203125 0.23583984375
vt -0.24658203125 0.22412109375
vt 0.365478515625 0.23583984375
vt -0.24658203125 0.23583984375
vt 0.365478515625 0.23583984375
vt 0.365478515625 0.2431640625
vt -0.24658203125 0.2431640625
vt -0.24658203125 0.23583984375
vt 0.365478515625 0.2431640625
vt -0.24658203125 0.2431640625
vt 0.365478515625 0.2431640625
vt 0.365478515625 0.25
vt -0.24658203125 0.25
vt -0.24658203125 0.2431640625
vt 0.365478515625 0.25
vt -0.24658203125 0.25
vt 0.365478515625 0.25
vt 0.365478515625 0.2744140625
vt -0.24658203125 0.2744140625
vt -0.24658203125 0.25
vt 0.365478515625 0.2744140625
vt -0.24658203125 0.2744140625
vt 0.365478515625 0.2744140625
vt 0.365478515625 0.28173828125
vt -0.24658203125 0.28173828125
vt -0.24658203125 0.2744140625
vt 0.365478515625 0.28173828125
vt -0.24658203125 0.28173828125
vt 0.365478515625 0.28173828125
vt 0.365478515625 0.28857421875
vt -0.24658203125 0.28857421875
vt -0.24658203125 0.28173828125
vt 0.365478515625 0.28857421875
vt -0.24658203125 0.28857421875
vt 0.365478515625 0.28857421875
vt 0.365478515625 0.30029296875
vt -0.24658203125 0.30029296875
vt -0.24658203125 0.28857421875
vt 0.365478515625 0.30029296875
vt -0.24658203125 0.30029296875
vt 0.365478515625 0.30029296875
vt 0.365478515625 0.3076171875
vt -0.24658203125 0.3076171875
vt -0.24658203125 0.30029296875
vt 0.365478515625 0.3076171875
vt -0.24658203125 0.3076171875
vt 0.365478515625 0.3076171875
vt 0.365478515625 0.31494140625
vt -0.24658203125 0.31494140625
vt -0.24658203125 0.3076171875
vt 0.365478515625 0.31494140625
vt -0.24658203125 0.31494140625
vt 0.365478515625 0.31494140625
vt 0.365478515625 0.318359375
vt -0.24658203125 0.318359375
vt -0.24658203125 0.31494140625
vt 0.365478515625 0.318359375
vt -0.24658203125 0.318359375
vt 0.365478515625 0.318359375
vt 0.365478515625 0.32568359375
vt -0.24658203125 0.32568359375
vt -0.24658203125 0.318359375
vt 0.365478515625 0.32568359375
vt -0.24658203125 0.32568359375
vt 0.365478515625 0.32568359375
vt 0.365478515625 0.3330078125
vt -0.24658203125 0.3330078125
vt -0.24658203125 0.32568359375
vt 0.365478515625 0.3330078125
vt -0.24658203125 0.3330078125
vt 0.365478515625 0.3330078125
vt 0.365478515625 0.40576171875
vt -0.24658203125 0.40576171875
vt -0.24658203125 0.3330078125
vt 0.365478515625 0.40576171875
vn -0.4745754599571228 -0.8802148699760437 1.8371155192653532e-06
vn -0.47457602620124817 -0.880214512348175 1.759385099830979e-06
vn -0.4745407998561859 -0.8802334666252136 1.8046250715997303e-06
vn -0.47458741068840027 -0.8802082538604736 1.2217723224239307e-06
vn -0.9581398367881775 -0.2863008975982666 2.073124960588757e-06
vn -0.9581565856933594 -0.286244660615921 1.1931085737160174e-06
vn -0.8796589970588684 0.475604772567749 1.0955017160085845e-06
vn -0.8796589970588684 0.475604772567749 1.0954605613733293e-06
vn -0.8796590566635132 0.475604772567749 1.0955029665637994e-06
vn -0.8796590566635132 0.4756048321723938 1.0954615845548688e-06
vn -0.9955765008926392 -0.09395371377468109 1.2398619446685188e-06
vn -0.9955762624740601 -0.09395713359117508 1.2397056252666516e-06
vn -0.7751345038414001 -0.6317962408065796 9.653304005041718e-07
vn -0.7751367688179016 -0.6317934393882751 8.972634759629727e-07
vn -0.7751345038414001 -0.6317962408065796 8.95539983503113e-07
vn -0.7751367688179016 -0.6317934393882751 8.274517426798411e-07
vn -0.9955193996429443 -0.0945577621459961 1.0626781659084372e-06
vn -0.9955185055732727 -0.09456698596477509 1.1561435258045094e-06
vn -0.8802248239517212 0.4745567739009857 1.0184869552176679e-06
vn -0.8802250623703003 0.474556565284729 8.436507528131187e-07
vn -0.8802279233932495 0.4745510518550873 8.302673109028547e-07
vn -0.8802186250686646 0.4745683968067169 4.2233912722622335e-07
vn -0.46771082282066345 0.8838815689086914 -5.717253088732832e-07
vn -0.46774712204933167 0.883862316608429 8.684759933430541e-08
vn 0.10271218419075012 0.9947110414505005 -8.12261646387924e-07
vn 0.10268846899271011 0.994713544845581 -8.088508138826e-07
vn 0.10265269875526428 0.9947172403335571 -8.261071116066887e-07
vn 0.10268890857696533 0.9947134852409363 -1.5254006484610727e-06
vn -0.4677228033542633 0.8838752508163452 -7.587274808429356e-07
vn -0.4677577316761017 0.8838567733764648 -2.618241126128851e-07
vn -0.8802040219306946 0.4745955169200897 6.832148642388347e-07
vn -0.880226731300354 0.47455325722694397 1.1742350807253388e-06
vn -0.8802176117897034 0.47457024455070496 1.1748061297112145e-06
vn -0.8802236318588257 0.47455909848213196 1.2527200397016713e-06
vn -0.28682181239128113 0.9579839706420898 4.0822726532496745e-07
vn -0.28682103753089905 0.9579841494560242 4.673680962241633e-07
vn 0.47458821535110474 0.8802079558372498 -6.329441930574831e-07
vn 0.4745890200138092 0.8802074193954468 -1.1319876875859336e-06
vn 0.4745706021785736 0.880217432975769 -6.796400384700974e-07
vn 0.47457846999168396 0.8802131414413452 -1.7615424212635844e-06
f 1/1/1 2/2/2 3/3/3
f 4/4/4 1/5/1 3/6/3
f 4/7/4 3/8/3 5/9/5
f 6/10/6 4/11/4 5/12/5
f 6/13/6 5/14/5 7/15/7
f 8/16/8 6/17/6 7/18/7
f 8/19/8 7/20/7 9/21/9
f 10/22/10 8/23/8 9/24/9
f 10/25/10 9/26/9 11/27/11
f 12/28/12 10/29/10 11/30/11
f 12/31/12 11/32/11 13/33/13
f 14/34/14 12/35/12 13/36/13
f 14/37/14 13/38/13 15/39/15
f 16/40/16 14/41/14 15/42/15
f 16/43/16 15/44/15 17/45/17
f 18/46/18 16/47/16 17/48/17
f 18/49/18 17/50/17 19/51/19
f 20/52/20 18/53/18 19/54/19
f 20/55/20 19/56/19 21/57/21
f 22/58/22 20/59/20 21/60/21
f 22/61/22 21/62/21 23/63/23
f 24/64/24 22/65/22 23/66/23
f 24/67/24 23/68/23 25/69/25
f 26/70/26 24/71/24 25/72/25
f 26/73/26 25/74/25 27/75/27
f 28/76/28 26/77/26 27/78/27
f 28/79/28 27/80/27 29/81/29
f 30/82/30 28/83/28 29/84/29
f 30/85/30 29/86/29 31/87/31
f 32/88/32 30/89/30 31/90/31
f 32/91/32 31/92/31 33/93/33
f 34/94/34 32/95/32 33/96/33
f 34/97/34 33/98/33 35/99/35
f 36/100/36 34/101/34 35/102/35
f 36/103/36 35/104/35 37/105/37
f 38/106/38 36/107/36 37/108/37
f 38/109/38 37/110/37 39/111/39
f 40/112/40 38/113/38 39/114/39
