# Exported by Lightwave Blender addon
v 102.78133392333984 732.7288818359375 683.6412963867188
v 129.12266540527344 782.5403442382812 683.6412963867188
v 102.78126525878906 732.72900390625 503.936279296875
v 129.12257385253906 782.5404663085938 503.936279296875
v 75.62738037109375 681.3810424804688 503.936279296875
v 75.62734985351562 681.3809814453125 683.6412963867188
v 102.12301635742188 731.4842529296875 503.936279296875
v 102.12306213378906 731.4842529296875 683.6412963867188
vt 0.497802734375 0.9884872436523438
vt 0.251220703125 0.9884872436523438
vt 0.497802734375 0.22509765625
vt 0.251220703125 0.9884872436523438
vt 0.251220703125 0.22509765625
vt 0.497802734375 0.22509765625
vt 0.2491455078125 0.22509765625
vt 0.2491455078125 0.9884872436523438
vt 0.00260162353515625 0.22509765625
vt 0.2491455078125 0.9884872436523438
vt 0.00260162353515625 0.9884872436523438
vt 0.00260162353515625 0.22509765625
vn -0.8840038180351257 0.46747949719429016 6.509812351396249e-07
vn -0.8840038776397705 0.4674794673919678 6.735983788530575e-07
vn -0.8840040564537048 0.46747925877571106 7.452987347278395e-07
vn -0.8840040564537048 0.4674791991710663 7.679157647544343e-07
vn -0.8840038180351257 0.4674798548221588 8.653361582844354e-09
vn -0.8840034604072571 0.467480331659317 1.830718900919237e-07
vn -0.8840036392211914 0.467479944229126 5.07642496927474e-08
vn -0.8840034008026123 0.46748045086860657 2.251827169175158e-07
f 1/1/1 2/2/2 3/3/3
f 2/4/2 4/5/4 3/6/3
f 5/7/5 6/8/6 7/9/7
f 6/10/6 8/11/8 7/12/7
