# Exported by Lightwave Blender addon
v 59.67652893066406 -1398.3914794921875 526.1522827148438
v -43.24254608154297 -1356.30712890625 526.1522827148438
v 59.676544189453125 -1398.3914794921875 708.232421875
v -43.242530822753906 -1356.30712890625 708.232421875
v 61.6522216796875 -1393.559814453125 520.9322509765625
v 120.96337890625 -1248.5118408203125 520.9322509765625
v -41.26683807373047 -1351.4755859375 520.9322509765625
v 18.044300079345703 -1206.4276123046875 520.9322509765625
v -46.0985107421875 -1349.4998779296875 526.1522216796875
v 13.212635040283203 -1204.4517822265625 526.1522216796875
v -46.09849548339844 -1349.499755859375 708.232421875
v 13.212646484375 -1204.4517822265625 708.2323608398438
v -41.26683044433594 -1351.4754638671875 713.452392578125
v 18.0443115234375 -1206.427490234375 713.452392578125
v 61.652244567871094 -1393.5596923828125 713.452392578125
v 120.96337890625 -1248.5118408203125 713.452392578125
v 66.48390197753906 -1395.5355224609375 708.232421875
v 125.79505920410156 -1250.487548828125 708.2323608398438
v 66.48390197753906 -1395.5355224609375 526.1522216796875
v 125.7950439453125 -1250.487548828125 526.1522216796875
vt 0.50390625 0.076171875
vt 1.0595703125 0.076171875
vt 0.50390625 0.9861984252929688
vt 1.0595703125 0.076171875
vt 1.0595703125 0.9861984252929688
vt 0.50390625 0.9861984252929688
vt 0.495849609375 1.5439453125
vt 0.495849609375 2.3271484375
vt -0.06005859375 1.5439453125
vt 0.495849609375 2.3271484375
vt -0.06005859375 2.3271484375
vt -0.06005859375 1.5439453125
vt 0.923828125 1.5439453125
vt 0.923828125 2.3271484375
vt 0.01380157470703125 1.5439453125
vt 0.923828125 2.3271484375
vt 0.01380157470703125 2.3271484375
vt 0.01380157470703125 1.5439453125
vt 1.0595703125 1.5439453125
vt 1.0595703125 2.3271484375
vt 0.50390625 1.5439453125
vt 1.0595703125 2.3271484375
vt 0.50390625 2.3271484375
vt 0.50390625 1.5439453125
vt 0.98583984375 1.5439453125
vt 0.98583984375 2.3271484375
vt 0.07574462890625 1.5439453125
vt 0.98583984375 2.3271484375
vt 0.07574462890625 2.3271484375
vt 0.07574462890625 1.5439453125
vt -0.06005859375 2.3271484375
vt -0.08612060546875 2.3271484375
vt -0.06005859375 1.5439453125
vt -0.08612060546875 2.3271484375
vt -0.08612060546875 1.5439453125
vt -0.06005859375 1.5439453125
vt 0.0496826171875 1.5439453125
vt 0.07574462890625 1.5439453125
vt 0.0496826171875 2.3271484375
vt 0.07574462890625 1.5439453125
vt 0.07574462890625 2.3271484375
vt 0.0496826171875 2.3271484375
vt 0.01380157470703125 2.3271484375
vt -0.01229095458984375 2.3271484375
vt 0.01380157470703125 1.5439453125
vt -0.01229095458984375 2.3271484375
vt -0.01229095458984375 1.5439453125
vt 0.01380157470703125 1.5439453125
vt 0.50390625 2.3271484375
vt 0.477783203125 2.3271484375
vt 0.50390625 1.5439453125
vt 0.477783203125 2.3271484375
vt 0.477783203125 1.5439453125
vt 0.50390625 1.5439453125
vt 0.50390625 0.076171875
vt 0.477783203125 0.076171875
vt 0.50390625 0.0498046875
vt 0.477783203125 0.9861984252929688
vt 0.477783203125 0.076171875
vt 0.50390625 0.076171875
vt 0.50390625 0.076171875
vt 0.50390625 0.0498046875
vt 1.0595703125 0.076171875
vt 0.50390625 0.9861984252929688
vt 0.477783203125 0.9861984252929688
vt 0.50390625 0.076171875
vt 0.50390625 0.0498046875
vt 1.0595703125 0.0498046875
vt 1.0595703125 0.076171875
vt 0.50390625 0.9861984252929688
vt 0.50390625 1.0122909545898438
vt 0.477783203125 0.9861984252929688
vt 1.0595703125 0.0498046875
vt 1.0859375 0.076171875
vt 1.0595703125 0.076171875
vt 1.0595703125 1.0122909545898438
vt 0.50390625 1.0122909545898438
vt 0.50390625 0.9861984252929688
vt 1.0595703125 0.076171875
vt 1.0859375 0.076171875
vt 1.0595703125 0.9861984252929688
vt 1.0595703125 0.9861984252929688
vt 1.0595703125 1.0122909545898438
vt 0.50390625 0.9861984252929688
vt 1.0859375 0.076171875
vt 1.0859375 0.9861984252929688
vt 1.0595703125 0.9861984252929688
vt 1.0859375 0.9861984252929688
vt 1.0595703125 1.0122909545898438
vt 1.0595703125 0.9861984252929688
vn 0.015221296809613705 0.9397287964820862 0.3415817320346832
vn 0.6475663781166077 0.6811602115631104 0.3415822684764862
vn 0.015222891233861446 0.9397246837615967 -0.3415931761264801
vn 0.6475705504417419 0.6811552047729492 -0.34158459305763245
vn -0.18688301742076874 0.4454610049724579 0.875579297542572
vn -0.3542117178440094 0.14483967423439026 0.9238806962966919
vn 0.4454568028450012 0.18689031898975372 0.8755799531936646
vn 0.3542128801345825 -0.14484015107154846 0.9238802194595337
vn 0.9397276639938354 -0.015216405503451824 0.3415850102901459
vn 0.8551508784294128 -0.3496771454811096 0.3826786279678345
vn 0.9397279620170593 -0.015229280106723309 -0.3415836989879608
vn 0.855149507522583 -0.34967684745788574 -0.3826819658279419
vn 0.4454570412635803 0.186890110373497 -0.8755798935890198
vn 0.3542141616344452 -0.14484083652496338 -0.9238796234130859
vn -0.18688830733299255 0.4454478621482849 -0.8755849599838257
vn -0.35421499609947205 0.14484111964702606 -0.9238792061805725
vn -0.6811535358428955 0.6475705504417419 -0.341587632894516
vn -0.8551515936851501 0.3496776223182678 -0.3826764225959778
vn -0.6811606287956238 0.647564709186554 0.3415847420692444
vn -0.855148434638977 0.3496762216091156 0.3826849162578583
f 1/1/1 2/2/2 3/3/3
f 2/4/2 4/5/4 3/6/3
f 5/7/5 6/8/6 7/9/7
f 6/10/6 8/11/8 7/12/7
f 9/13/9 10/14/10 11/15/11
f 10/16/10 12/17/12 11/18/11
f 13/19/13 14/20/14 15/21/15
f 14/22/14 16/23/16 15/24/15
f 17/25/17 18/26/18 19/27/19
f 18/28/18 20/29/20 19/30/19
f 8/31/8 10/32/10 7/33/7
f 10/34/10 9/35/9 7/36/7
f 5/37/5 19/38/19 6/39/6
f 19/40/19 20/41/20 6/42/6
f 12/43/12 14/44/14 11/45/11
f 14/46/14 13/47/13 11/48/11
f 16/49/16 18/50/18 15/51/15
f 18/52/18 17/53/17 15/54/15
f 1/55/1 19/56/19 5/57/5
f 17/58/17 19/59/19 1/60/1
f 1/61/1 5/62/5 2/63/2
f 3/64/3 17/65/17 1/66/1
f 5/67/5 7/68/7 2/69/2
f 3/70/3 15/71/15 17/72/17
f 7/73/7 9/74/9 2/75/2
f 13/76/13 15/77/15 3/78/3
f 2/79/2 9/80/9 4/81/4
f 4/82/4 13/83/13 3/84/3
f 9/85/9 11/86/11 4/87/4
f 11/88/11 13/89/13 4/90/4
