# Exported by Lightwave Blender addon
v 54.15495300292969 -119.21385192871094 277.2442932128906
v 308.27459716796875 -219.7240753173828 277.2442626953125
v 304.5566711425781 -229.12420654296875 277.2442626953125
v 50.436981201171875 -128.61395263671875 277.2442932128906
v 304.3727722167969 -229.5891571044922 277.2442626953125
v 50.253082275390625 -129.0789031982422 277.2442932128906
v 304.37933349609375 -229.57252502441406 277.74395751953125
v 50.25965881347656 -129.06228637695312 277.7439880371094
v 304.3922119140625 -229.5399627685547 278.7223205566406
v 50.27253723144531 -129.02972412109375 278.72235107421875
v 304.3987731933594 -229.52333068847656 279.22198486328125
v 50.27911376953125 -129.0131072998047 279.2220153808594
v 304.23895263671875 -229.9274139404297 279.4693298339844
v 50.119293212890625 -129.41717529296875 279.4693603515625
v 303.56689453125 -231.62660217285156 280.5094299316406
v 49.447235107421875 -131.11634826660156 280.50946044921875
v 303.4070739746094 -232.03065490722656 280.75677490234375
v 49.28741455078125 -131.52041625976562 280.7568054199219
v 303.409423828125 -232.0248260498047 281.2567443847656
v 49.28971862792969 -131.5145721435547 281.25677490234375
v 303.413330078125 -232.014892578125 282.1034240722656
v 49.29364013671875 -131.504638671875 282.10345458984375
v 303.4156494140625 -232.00904846191406 282.6033935546875
v 49.29595947265625 -131.49879455566406 282.6034240722656
v 303.598876953125 -231.54583740234375 282.6465759277344
v 49.47917175292969 -131.03558349609375 282.6466064453125
v 304.27056884765625 -229.84754943847656 282.8049011230469
v 50.15087890625 -129.33729553222656 282.804931640625
v 304.4537658691406 -229.3843231201172 282.8481140136719
v 50.33409118652344 -128.8740692138672 282.84814453125
v 304.455322265625 -229.38037109375 283.34808349609375
v 50.335662841796875 -128.87013244628906 283.3481140136719
v 304.45806884765625 -229.37339782714844 284.2305908203125
v 50.338409423828125 -128.86318969726562 284.2306213378906
v 304.4596252441406 -229.36949157714844 284.7305603027344
v 50.3399658203125 -128.85922241210938 284.7305908203125
v 304.27642822265625 -229.8326416015625 284.77423095703125
v 50.156768798828125 -129.32240295410156 284.7742614746094
v 303.616455078125 -231.50132751464844 284.9315490722656
v 49.49678039550781 -130.9910888671875 284.9316101074219
v 303.4332580566406 -231.9644775390625 284.9752502441406
v 49.31358337402344 -131.45425415039062 284.97528076171875
v 303.435546875 -231.95864868164062 285.4751892089844
v 49.315887451171875 -131.4484100341797 285.4752197265625
v 303.4394836425781 -231.94871520996094 286.3218994140625
v 49.31982421875 -131.4384765625 286.3218994140625
v 303.4418029785156 -231.94287109375 286.82183837890625
v 49.32212829589844 -131.4326171875 286.8218688964844
v 303.6029357910156 -231.5354766845703 287.0627746582031
v 49.4832763671875 -131.02523803710938 287.06280517578125
v 304.3070983886719 -229.75514221191406 288.1156921386719
v 50.18742370605469 -129.24490356445312 288.11572265625
v 304.4682312011719 -229.3477325439453 288.35662841796875
v 50.34857177734375 -128.83749389648438 288.3566589355469
v 304.4682312011719 -229.3477325439453 288.85662841796875
v 50.34857177734375 -128.83749389648438 288.8566589355469
v 304.4682312011719 -229.3477325439453 289.8282775878906
v 50.34857177734375 -128.83749389648438 289.82830810546875
v 304.4682312011719 -229.3477325439453 290.3282775878906
v 50.34857177734375 -128.83749389648438 290.32830810546875
v 304.65216064453125 -228.88278198242188 290.3282775878906
v 50.532470703125 -128.37255859375 290.32830810546875
v 308.3788146972656 -219.46067810058594 290.3281555175781
v 54.259124755859375 -118.95044708251953 290.32818603515625
vt 0.194091796875 0.961151123046875
vt 1.5595703125 0.961151123046875
vt 1.5595703125 1.0116653442382812
vt 0.194091796875 1.0116653442382812
vt 0.194091796875 0.961151123046875
vt 1.5595703125 1.0116653442382812
vt 0.194091796875 1.0116653442382812
vt 1.5595703125 1.0116653442382812
vt 1.5595703125 1.0141677856445312
vt 0.194091796875 1.0141677856445312
vt 0.194091796875 1.0116653442382812
vt 1.5595703125 1.0141677856445312
vt 0.194091796875 1.0141677856445312
vt 1.5595703125 1.0141677856445312
vt 1.5595703125 1.01666259765625
vt 0.194091796875 1.01666259765625
vt 0.194091796875 1.0141677856445312
vt 1.5595703125 1.01666259765625
vt 0.194091796875 1.01666259765625
vt 1.5595703125 1.01666259765625
vt 1.5595703125 1.02154541015625
vt 0.194091796875 1.02154541015625
vt 0.194091796875 1.01666259765625
vt 1.5595703125 1.02154541015625
vt 0.194091796875 1.02154541015625
vt 1.5595703125 1.02154541015625
vt 1.5595703125 1.0240478515625
vt 0.194091796875 1.0240478515625
vt 0.194091796875 1.02154541015625
vt 1.5595703125 1.0240478515625
vt 0.194091796875 1.0240478515625
vt 1.5595703125 1.0240478515625
vt 1.5595703125 1.0262298583984375
vt 0.194091796875 1.0262298583984375
vt 0.194091796875 1.0240478515625
vt 1.5595703125 1.0262298583984375
vt 0.194091796875 1.0262298583984375
vt 1.5595703125 1.0262298583984375
vt 1.5595703125 1.03533935546875
vt 0.194091796875 1.03533935546875
vt 0.194091796875 1.0262298583984375
vt 1.5595703125 1.03533935546875
vt 0.194091796875 1.03533935546875
vt 1.5595703125 1.03533935546875
vt 1.5595703125 1.03753662109375
vt 0.194091796875 1.03753662109375
vt 0.194091796875 1.03533935546875
vt 1.5595703125 1.03753662109375
vt 0.194091796875 1.03753662109375
vt 1.5595703125 1.03753662109375
vt 1.5595703125 1.0400390625
vt 0.194091796875 1.0400390625
vt 0.194091796875 1.03753662109375
vt 1.5595703125 1.0400390625
vt 0.194091796875 1.0400390625
vt 1.5595703125 1.0400390625
vt 1.5595703125 1.04425048828125
vt 0.194091796875 1.04425048828125
vt 0.194091796875 1.0400390625
vt 1.5595703125 1.04425048828125
vt 0.194091796875 1.04425048828125
vt 1.5595703125 1.04425048828125
vt 1.5595703125 1.0467529296875
vt 0.194091796875 1.0467529296875
vt 0.194091796875 1.04425048828125
vt 1.5595703125 1.0467529296875
vt 0.194091796875 1.0467529296875
vt 1.5595703125 1.0467529296875
vt 1.5595703125 1.04925537109375
vt 0.194091796875 1.04925537109375
vt 0.194091796875 1.0467529296875
vt 1.5595703125 1.04925537109375
vt 0.194091796875 1.04925537109375
vt 1.5595703125 1.04925537109375
vt 1.5595703125 1.058380126953125
vt 0.194091796875 1.058380126953125
vt 0.194091796875 1.04925537109375
vt 1.5595703125 1.058380126953125
vt 0.194091796875 1.058380126953125
vt 1.5595703125 1.058380126953125
vt 1.5595703125 1.060882568359375
vt 0.194091796875 1.060882568359375
vt 0.194091796875 1.058380126953125
vt 1.5595703125 1.060882568359375
vt 0.194091796875 1.060882568359375
vt 1.5595703125 1.060882568359375
vt 1.5595703125 1.0633544921875
vt 0.194091796875 1.0633544921875
vt 0.194091796875 1.060882568359375
vt 1.5595703125 1.0633544921875
vt 0.194091796875 1.0633544921875
vt 1.5595703125 1.0633544921875
vt 1.5595703125 1.0677490234375
vt 0.194091796875 1.0677490234375
vt 0.194091796875 1.0633544921875
vt 1.5595703125 1.0677490234375
vt 0.194091796875 1.0677490234375
vt 1.5595703125 1.0677490234375
vt 1.5595703125 1.07025146484375
vt 0.194091796875 1.07025146484375
vt 0.194091796875 1.0677490234375
vt 1.5595703125 1.07025146484375
vt 0.194091796875 1.07025146484375
vt 1.5595703125 1.07025146484375
vt 1.5595703125 1.07275390625
vt 0.194091796875 1.07275390625
vt 0.194091796875 1.07025146484375
vt 1.5595703125 1.07275390625
vt 0.194091796875 1.07275390625
vt 1.5595703125 1.07275390625
vt 1.5595703125 1.08172607421875
vt 0.194091796875 1.08172607421875
vt 0.194091796875 1.07275390625
vt 1.5595703125 1.08172607421875
vt 0.194091796875 1.08172607421875
vt 1.5595703125 1.08172607421875
vt 1.5595703125 1.084228515625
vt 0.194091796875 1.084228515625
vt 0.194091796875 1.08172607421875
vt 1.5595703125 1.084228515625
vt 0.194091796875 1.084228515625
vt 1.5595703125 1.084228515625
vt 1.5595703125 1.08673095703125
vt 0.194091796875 1.08673095703125
vt 0.194091796875 1.084228515625
vt 1.5595703125 1.08673095703125
vt 0.194091796875 1.08673095703125
vt 1.5595703125 1.08673095703125
vt 1.5595703125 1.0909423828125
vt 0.194091796875 1.0909423828125
vt 0.194091796875 1.08673095703125
vt 1.5595703125 1.0909423828125
vt 0.194091796875 1.0909423828125
vt 1.5595703125 1.0909423828125
vt 1.5595703125 1.09344482421875
vt 0.194091796875 1.09344482421875
vt 0.194091796875 1.0909423828125
vt 1.5595703125 1.09344482421875
vt 0.194091796875 1.09344482421875
vt 1.5595703125 1.09344482421875
vt 1.5595703125 1.09564208984375
vt 0.194091796875 1.09564208984375
vt 0.194091796875 1.09344482421875
vt 1.5595703125 1.09564208984375
vt 0.194091796875 1.09564208984375
vt 1.5595703125 1.09564208984375
vt 1.5595703125 1.105224609375
vt 0.194091796875 1.105224609375
vt 0.194091796875 1.09564208984375
vt 1.5595703125 1.105224609375
vt 0.194091796875 1.105224609375
vt 1.5595703125 1.105224609375
vt 1.5595703125 1.107421875
vt 0.194091796875 1.107421875
vt 0.194091796875 1.105224609375
vt 1.5595703125 1.107421875
vt 0.194091796875 1.107421875
vt 1.5595703125 1.107421875
vt 1.5595703125 1.10992431640625
vt 0.194091796875 1.10992431640625
vt 0.194091796875 1.107421875
vt 1.5595703125 1.10992431640625
vt 0.194091796875 1.10992431640625
vt 1.5595703125 1.10992431640625
vt 1.5595703125 1.11474609375
vt 0.194091796875 1.11474609375
vt 0.194091796875 1.10992431640625
vt 1.5595703125 1.11474609375
vt 0.194091796875 1.11474609375
vt 1.5595703125 1.11474609375
vt 1.5595703125 1.11724853515625
vt 0.194091796875 1.11724853515625
vt 0.194091796875 1.11474609375
vt 1.5595703125 1.11724853515625
vt 0.194091796875 1.11724853515625
vt 1.5595703125 1.11724853515625
vt 1.5595703125 1.1197509765625
vt 0.194091796875 1.1197509765625
vt 0.194091796875 1.11724853515625
vt 1.5595703125 1.1197509765625
vt 0.194091796875 1.1197509765625
vt 1.5595703125 1.1197509765625
vt 1.5595703125 1.17041015625
vt 0.194091796875 1.17041015625
vt 0.194091796875 1.1197509765625
vt 1.5595703125 1.17041015625
vn -1.0384581372591128e-07 4.1073562329074775e-08 -1.0
vn -1.0384604109958673e-07 4.1073029422022955e-08 -1.0
vn -1.03845927412749e-07 4.107326034841208e-08 -1.0
vn -1.03845827936766e-07 4.1073530354651666e-08 -1.0
vn -0.26468533277511597 -0.6692026853561401 -0.6943410634994507
vn -0.2646738588809967 -0.6691737174987793 -0.6943733096122742
vn -0.3675638437271118 -0.9293103218078613 0.03576295077800751
vn -0.36756402254104614 -0.92931067943573 0.03575439751148224
vn -0.3675638735294342 -0.9293104410171509 0.03576405718922615
vn -0.36756396293640137 -0.9293106198310852 0.035755496472120285
vn -0.3212135136127472 -0.8121228814125061 -0.4871121644973755
vn -0.3212137222290039 -0.8121234178543091 -0.48711133003234863
vn -0.18194480240345 -0.4600101411342621 -0.8690723776817322
vn -0.18194757401943207 -0.4600170850753784 -0.8690680265426636
vn -0.18194931745529175 -0.4600214958190918 -0.8690654039382935
vn -0.18194758892059326 -0.4600171148777008 -0.8690680861473083
vn -0.3191201984882355 -0.8068301677703857 -0.497179239988327
vn -0.3191155791282654 -0.8068186640739441 -0.49720123410224915
vn -0.3677700161933899 -0.9298315644264221 0.012587330304086208
vn -0.3677700459957123 -0.9298315644264221 0.01258799433708191
vn -0.3677700161933899 -0.9298315644264221 0.012590305879712105
vn -0.3677700161933899 -0.9298314452171326 0.01259361207485199
vn -0.2694995105266571 -0.681374728679657 0.6805134415626526
vn -0.26950427889823914 -0.6813869476318359 0.6804993152618408
vn -0.03176534175872803 -0.08031249791383743 0.9962635040283203
vn -0.03176547586917877 -0.0803128257393837 0.9962634444236755
vn -0.031776390969753265 -0.0803404375910759 0.9962608218193054
vn -0.03177616745233536 -0.08033986389636993 0.996260941028595
vn -0.27001458406448364 -0.6826769709587097 0.6790024042129517
vn -0.2700210213661194 -0.6826933026313782 0.6789833903312683
vn -0.3677859306335449 -0.929871678352356 0.008493630215525627
vn -0.36778590083122253 -0.9298719167709351 0.008469019085168839
vn -0.3677859902381897 -0.9298721551895142 0.008451041765511036
vn -0.3677859604358673 -0.9298717379570007 0.008491686545312405
vn -0.27223819494247437 -0.6882987022399902 -0.6724070310592651
vn -0.2722457945346832 -0.688317596912384 -0.6723846793174744
vn -0.03212357312440872 -0.08121759444475174 -0.9961785674095154
vn -0.032125744968652725 -0.08122294396162033 -0.996178150177002
vn -0.0321347713470459 -0.0812457799911499 -0.9961758852005005
vn -0.03212621808052063 -0.08122415840625763 -0.9961779713630676
vn -0.2727530896663666 -0.6896003484725952 -0.6708630323410034
vn -0.27274566888809204 -0.6895816326141357 -0.6708853840827942
vn -0.3677700459957123 -0.9298316836357117 0.01257169246673584
vn -0.3677699863910675 -0.9298314452171326 0.012591698206961155
vn -0.3677699565887451 -0.9298314452171326 0.012597081251442432
vn -0.3677700161933899 -0.9298313856124878 0.012605493888258934
vn -0.3154118061065674 -0.7974545359611511 0.5143750309944153
vn -0.3154108226299286 -0.7974520921707153 0.5143795609474182
vn -0.17723865807056427 -0.4481120705604553 0.8762317895889282
vn -0.17724016308784485 -0.44811591506004333 0.876229465007782
vn -0.177236407995224 -0.44810643792152405 0.8762350678443909
vn -0.17723578214645386 -0.4481047987937927 0.876236081123352
vn -0.3165927231311798 -0.8004403710365295 0.5089835524559021
vn -0.31659093499183655 -0.8004359006881714 0.5089917182922363
vn -0.36779916286468506 -0.9299052357673645 0.0
vn -0.36779916286468506 -0.9299052357673645 0.0
vn -0.36779916286468506 -0.9299052357673645 0.0
vn -0.36779916286468506 -0.9299052357673645 0.0
vn -0.2600657343864441 -0.6575233936309814 0.7071271538734436
vn -0.26007694005966187 -0.6575518250465393 0.7070965766906738
vn 2.3194354525912786e-06 5.560594217968173e-06 1.0
vn 2.319403847650392e-06 5.560514637181768e-06 1.0
vn 4.534946583589772e-06 1.1162063856318127e-05 0.9999999403953552
vn 4.5349438551056664e-06 1.1162057489855215e-05 1.0
f 1/1/1 2/2/2 3/3/3
f 4/4/4 1/5/1 3/6/3
f 4/7/4 3/8/3 5/9/5
f 6/10/6 4/11/4 5/12/5
f 6/13/6 5/14/5 7/15/7
f 8/16/8 6/17/6 7/18/7
f 8/19/8 7/20/7 9/21/9
f 10/22/10 8/23/8 9/24/9
f 10/25/10 9/26/9 11/27/11
f 12/28/12 10/29/10 11/30/11
f 12/31/12 11/32/11 13/33/13
f 14/34/14 12/35/12 13/36/13
f 14/37/14 13/38/13 15/39/15
f 16/40/16 14/41/14 15/42/15
f 16/43/16 15/44/15 17/45/17
f 18/46/18 16/47/16 17/48/17
f 18/49/18 17/50/17 19/51/19
f 20/52/20 18/53/18 19/54/19
f 20/55/20 19/56/19 21/57/21
f 22/58/22 20/59/20 21/60/21
f 22/61/22 21/62/21 23/63/23
f 24/64/24 22/65/22 23/66/23
f 24/67/24 23/68/23 25/69/25
f 26/70/26 24/71/24 25/72/25
f 26/73/26 25/74/25 27/75/27
f 28/76/28 26/77/26 27/78/27
f 28/79/28 27/80/27 29/81/29
f 30/82/30 28/83/28 29/84/29
f 30/85/30 29/86/29 31/87/31
f 32/88/32 30/89/30 31/90/31
f 32/91/32 31/92/31 33/93/33
f 34/94/34 32/95/32 33/96/33
f 34/97/34 33/98/33 35/99/35
f 36/100/36 34/101/34 35/102/35
f 36/103/36 35/104/35 37/105/37
f 38/106/38 36/107/36 37/108/37
f 38/109/38 37/110/37 39/111/39
f 40/112/40 38/113/38 39/114/39
f 40/115/40 39/116/39 41/117/41
f 42/118/42 40/119/40 41/120/41
f 42/121/42 41/122/41 43/123/43
f 44/124/44 42/125/42 43/126/43
f 44/127/44 43/128/43 45/129/45
f 46/130/46 44/131/44 45/132/45
f 46/133/46 45/134/45 47/135/47
f 48/136/48 46/137/46 47/138/47
f 48/139/48 47/140/47 49/141/49
f 50/142/50 48/143/48 49/144/49
f 50/145/50 49/146/49 51/147/51
f 52/148/52 50/149/50 51/150/51
f 52/151/52 51/152/51 53/153/53
f 54/154/54 52/155/52 53/156/53
f 54/157/54 53/158/53 55/159/55
f 56/160/56 54/161/54 55/162/55
f 56/163/56 55/164/55 57/165/57
f 58/166/58 56/167/56 57/168/57
f 58/169/58 57/170/57 59/171/59
f 60/172/60 58/173/58 59/174/59
f 60/175/60 59/176/59 61/177/61
f 62/178/62 60/179/60 61/180/61
f 62/181/62 61/182/61 63/183/63
f 64/184/64 62/185/62 63/186/63
