# Exported by Lightwave Blender addon
v -184.0005645751953 267.6600341796875 433.9111328125
v 266.244384765625 1102.0439453125 433.9111022949219
v -193.350830078125 267.70294189453125 433.9111328125
v 258.98553466796875 1105.9610595703125 433.9109191894531
v -189.1019287109375 267.6376953125 426.27581787109375
v -193.30384826660156 267.6568603515625 431.04180908203125
v 262.30291748046875 1104.1708984375 426.27587890625
v 259.0406494140625 1105.9312744140625 431.04144287109375
v -193.9430694580078 267.6294860839844 432.0032958984375
v -193.7288055419922 267.06683349609375 432.06109619140625
v -192.99217224121094 267.0630187988281 431.0943603515625
v -194.11439514160156 267.6311950683594 433.1759948730469
v 258.424072265625 1106.2640380859375 433.17578125
v 258.5601806640625 1106.1905517578125 431.9932556152344
v 263.21051025390625 1103.68115234375 425.77154541015625
v -187.90829467773438 267.677978515625 425.7714538574219
v -11.589509963989258 -117.03507995605469 426.2714538574219
v -14.715714454650879 -120.5612564086914 431.0453796386719
v -189.08697509765625 266.4397277832031 426.27294921875
v -193.25750732421875 266.4624328613281 431.0442199707031
v -15.039569854736328 -120.94023895263672 432.0000305175781
v -14.395614624023438 -121.25701904296875 432.2170715332031
v -14.124813079833984 -120.91747283935547 431.3527526855469
v -8.199851036071777 -114.19819641113281 433.2720642089844
v -8.536492347717285 -113.59481811523438 433.9111022949219
v -14.124787330627441 -120.91749572753906 433.0360107421875
v -14.715750694274902 -120.5612564086914 433.9111022949219
v -10.937554359436035 -116.29906463623047 425.7713928222656
v -11.22547721862793 -117.63045501708984 427.024169921875
v -10.580914497375488 -116.89543914794922 426.4104309082031
v -193.88119506835938 266.4899597167969 432.0001525878906
v -8.199021339416504 -114.19727325439453 426.41064453125
v -8.536460876464844 -113.59480285644531 425.7713928222656
v -188.9521026611328 267.0426330566406 426.41046142578125
v -194.0523681640625 266.4911193847656 433.1757507324219
v -15.039596557617188 -120.94025421142578 433.20794677734375
v -14.395612716674805 -121.25702667236328 433.0126953125
v -193.72970581054688 267.06683349609375 433.0045471191406
v -7.789348602294922 -114.70299530029297 425.7718505859375
v -10.011505126953125 -117.30900573730469 425.771484375
v -184.25900268554688 267.01873779296875 433.2720947265625
v -192.92340087890625 267.0627136230469 433.2720031738281
v -187.33782958984375 267.0343933105469 426.4105224609375
v -183.99978637695312 267.66009521484375 425.77142333984375
v -184.2576904296875 267.01873779296875 426.4106750488281
v 266.2454833984375 1102.0433349609375 425.77191162109375
v 883.6845092773438 -468.25799560546875 425.7713928222656
v 882.4158935546875 -471.4635314941406 425.77142333984375
v 882.0359497070312 -472.4225769042969 426.2757263183594
v -10.777584075927734 -118.21551513671875 426.2632751464844
v -14.189553260803223 -122.2014389038086 431.996337890625
v -14.189583778381348 -122.20143127441406 433.17572021484375
v 880.411376953125 -476.5228271484375 433.17596435546875
v 880.468017578125 -476.3792724609375 431.9934997558594
v -13.796300888061523 -121.75225067138672 431.0539245605469
v -184.02841186523438 266.3749694824219 425.7718811035156
v -187.92742919921875 266.396728515625 425.77154541015625
v 880.6458740234375 -475.9299011230469 433.9111022949219
v -13.796282768249512 -121.75222778320312 433.9108581542969
v 882.194580078125 -472.046875 433.9111022949219
v -7.789353370666504 -114.70296478271484 433.9110412597656
v 883.6842041015625 -468.2584533691406 433.9111022949219
v 883.9194946289062 -467.6644287109375 433.2720642089844
v -7.373438835144043 -114.18052673339844 433.2720642089844
v 880.6691284179688 -475.8713684082031 431.04180908203125
v -193.32000732421875 266.4267578125 433.910888671875
v -184.02967834472656 266.375 433.91107177734375
vt -1.6982421875 2.7421875
vt 3.041015625 2.6591796875
vt -1.71875 2.783203125
vt 3.041015625 2.6591796875
vt 3.041015625 2.7001953125
vt -1.71875 2.783203125
vt 3.033203125 2.953125
vt 3.04296875 2.9765625
vt -1.7177734375 2.953125
vt 3.04296875 2.9765625
vt -1.7177734375 2.9765625
vt -1.7177734375 2.953125
vt 0.450927734375 0.7451171875
vt 0.4541015625 0.739501953125
vt 0.453125 0.7451171875
vt 0.4541015625 0.739501953125
vt 0.45654296875 0.7392578125
vt 0.453125 0.7451171875
vt 3.044921875 2.98828125
vt 3.04296875 2.9912109375
vt -1.71875 2.98828125
vt 3.04296875 2.9912109375
vt -1.7177734375 2.9912109375
vt -1.71875 2.98828125
vt -1.71875 2.9873046875
vt -1.7177734375 2.98046875
vt 3.044921875 2.9873046875
vt -1.7177734375 2.98046875
vt 3.04296875 2.98046875
vt 3.044921875 2.9873046875
vt -1.7177734375 2.982421875
vt -1.7177734375 2.9765625
vt 3.044921875 2.982421875
vt -1.7177734375 2.9765625
vt 3.04296875 2.9765625
vt 3.044921875 2.982421875
vt -1.7177734375 2.681640625
vt -1.7177734375 2.6767578125
vt 3.033203125 2.7646484375
vt -1.7177734375 2.6767578125
vt 3.029296875 2.759765625
vt 3.033203125 2.7646484375
vt 2.140625 0.71484375
vt 2.138671875 0.739501953125
vt 0.4755859375 0.7158203125
vt 2.138671875 0.739501953125
vt 0.45703125 0.73974609375
vt 0.4755859375 0.7158203125
vt 2.13671875 0.744873046875
vt 2.138671875 0.73974609375
vt 2.140625 0.7421875
vt 2.138671875 0.73974609375
vt 2.142578125 0.73828125
vt 2.140625 0.7421875
vt -3.150390625 -1.15234375
vt -3.1484375 -1.150390625
vt -3.330078125 -1.1875
vt -3.1484375 -1.150390625
vt -3.193359375 -1.13671875
vt -3.330078125 -1.1875
vt 2.142578125 0.7158203125
vt 2.14453125 0.712646484375
vt 2.146484375 0.72021484375
vt 2.14453125 0.712646484375
vt 2.146484375 0.714599609375
vt 2.146484375 0.72021484375
vt 2.880859375 0.738037109375
vt 2.884765625 0.739501953125
vt 2.884765625 0.7451171875
vt 2.884765625 0.739501953125
vt 2.88671875 0.7451171875
vt 2.884765625 0.7451171875
vt 4.1640625 -1.146484375
vt 4.1640625 -1.142578125
vt 4.1484375 -1.15234375
vt 4.1640625 -1.142578125
vt 4.1484375 -1.150390625
vt 4.1484375 -1.15234375
vt 2.873046875 0.716552734375
vt 2.876953125 0.7158203125
vt 2.8828125 0.739990234375
vt 2.876953125 0.7158203125
vt 2.884765625 0.739501953125
vt 2.8828125 0.739990234375
vt 0.453369140625 0.749755859375
vt 0.454345703125 0.74365234375
vt 2.13671875 0.749755859375
vt 0.454345703125 0.74365234375
vt 2.13671875 0.74365234375
vt 2.13671875 0.749755859375
vt 0.453857421875 0.7451171875
vt 0.45703125 0.739501953125
vt 2.13671875 0.7451171875
vt 0.45703125 0.739501953125
vt 2.138671875 0.739501953125
vt 2.13671875 0.7451171875
vt -3.193359375 -1.13671875
vt -3.181640625 -1.1328125
vt -3.330078125 -1.1875
vt -3.181640625 -1.1328125
vt -3.26953125 -1.166015625
vt -3.330078125 -1.1875
vt 2.138671875 0.7392578125
vt 2.142578125 0.7158203125
vt 2.142578125 0.73828125
vt 2.142578125 0.7158203125
vt 2.14453125 0.7197265625
vt 2.142578125 0.73828125
vt 0.450439453125 0.749755859375
vt 0.451416015625 0.74365234375
vt 0.452880859375 0.74951171875
vt 0.451416015625 0.74365234375
vt 0.45361328125 0.74462890625
vt 0.452880859375 0.74951171875
vt 2.884765625 0.74951171875
vt 2.8828125 0.743408203125
vt 2.88671875 0.749755859375
vt 2.8828125 0.743408203125
vt 2.88671875 0.74365234375
vt 2.88671875 0.749755859375
vt 4.15234375 -1.15234375
vt 4.15234375 -1.15625
vt 4.16796875 -1.146484375
vt 4.15234375 -1.15625
vt 4.16796875 -1.150390625
vt 4.16796875 -1.146484375
vt -1.86328125 0.50439453125
vt -1.859375 0.504638671875
vt -1.8828125 0.543212890625
vt -1.859375 0.504638671875
vt -1.880859375 0.54638671875
vt -1.8828125 0.543212890625
vt -1.8828125 0.543212890625
vt -1.880859375 0.54638671875
vt -1.8857421875 0.547119140625
vt -1.880859375 0.54638671875
vt -1.8828125 0.549560546875
vt -1.8857421875 0.547119140625
vt 2.8828125 0.54345703125
vt 2.880859375 0.5458984375
vt 2.873046875 0.525390625
vt 2.880859375 0.5458984375
vt 2.87109375 0.52734375
vt 2.873046875 0.525390625
vt 2.87109375 0.52734375
vt 2.8671875 0.52197265625
vt 2.873046875 0.525390625
vt 2.8671875 0.52197265625
vt 2.869140625 0.51806640625
vt 2.873046875 0.525390625
vt 2.859375 0.504638671875
vt 2.86328125 0.50439453125
vt 2.869140625 0.51806640625
vt 2.8671875 0.52197265625
vt 2.859375 0.504638671875
vt 2.869140625 0.51806640625
vt 2.859375 0.504638671875
vt 2.8671875 0.52197265625
vt -1.87890625 0.421875
vt 2.8671875 0.52197265625
vt -1.8798828125 0.43896484375
vt -1.87890625 0.421875
vt 4.16796875 -1.150390625
vt 4.15234375 -1.15625
vt 3.671875 -5.9453125
vt 3.689453125 -5.9453125
vt 4.16796875 -1.150390625
vt 3.671875 -5.9453125
vt 4.16796875 -1.150390625
vt 3.689453125 -5.9453125
vt 3.6953125 -5.94921875
vt 4.17578125 -1.1484375
vt 4.16796875 -1.150390625
vt 3.6953125 -5.94921875
vt 2.140625 0.74658203125
vt 2.14453125 0.74365234375
vt 2.140625 0.7509765625
vt 2.14453125 0.74365234375
vt 2.14453125 0.749755859375
vt 2.140625 0.7509765625
vt 2.14453125 0.749755859375
vt 2.14453125 0.74365234375
vt 6.94921875 0.749755859375
vt 2.14453125 0.74365234375
vt 6.94921875 0.74365234375
vt 6.94921875 0.749755859375
vt 4.171875 0.71533203125
vt 4.171875 0.71240234375
vt 4.171875 0.718505859375
vt 4.171875 0.71240234375
vt 4.17578125 0.715576171875
vt 4.171875 0.718505859375
vt 4.17578125 0.715576171875
vt 4.1953125 0.73974609375
vt 4.171875 0.718505859375
vt 4.1953125 0.73974609375
vt 4.1953125 0.7421875
vt 4.171875 0.718505859375
vt 4.1484375 -1.150390625
vt 4.1640625 -1.142578125
vt 2.865234375 0.501953125
vt 4.1640625 -1.142578125
vt 2.873046875 0.519287109375
vt 2.865234375 0.501953125
vt 2.873046875 0.519287109375
vt 4.1640625 -1.142578125
vt 4.171875 -1.142578125
vt 2.86328125 0.50439453125
vt 2.865234375 0.501953125
vt 2.873046875 0.519287109375
vt 2.876953125 0.5244140625
vt 2.873046875 0.519287109375
vt 4.171875 -1.142578125
vt 2.869140625 0.51806640625
vt 2.86328125 0.50439453125
vt 2.873046875 0.519287109375
vt 2.869140625 0.51806640625
vt 2.873046875 0.519287109375
vt 2.876953125 0.5244140625
vt 2.873046875 0.525146484375
vt 2.869140625 0.51806640625
vt 2.876953125 0.5244140625
vt -2.716796875 -5.94921875
vt -2.712890625 -5.94921875
vt -3.201171875 -1.14453125
vt -2.712890625 -5.94921875
vt -3.197265625 -1.14453125
vt -3.201171875 -1.14453125
vt -3.201171875 -1.14453125
vt -3.197265625 -1.14453125
vt -3.19921875 -1.140625
vt -2.693359375 -5.94921875
vt -3.197265625 -1.14453125
vt -2.712890625 -5.94921875
vt -3.197265625 -1.14453125
vt -3.1953125 -1.142578125
vt -3.19921875 -1.140625
vt -2.693359375 -5.94921875
vt -3.15234375 -1.15625
vt -3.197265625 -1.14453125
vt -3.197265625 -1.14453125
vt -3.15234375 -1.15625
vt -3.1953125 -1.142578125
vt -3.15234375 -1.15625
vt -3.15234375 -1.15234375
vt -3.1953125 -1.142578125
vt -2.693359375 -5.94921875
vt -2.671875 -5.9453125
vt -3.15234375 -1.15625
vt -3.15234375 -1.15625
vt -2.671875 -5.9453125
vt -2.669921875 -5.9453125
vt -3.1484375 -1.15625
vt -3.15234375 -1.15625
vt -2.669921875 -5.9453125
vt 2.14453125 0.73974609375
vt 2.1484375 0.7158203125
vt 6.94921875 0.7158203125
vt 6.94921875 0.739501953125
vt 2.14453125 0.73974609375
vt 6.94921875 0.7158203125
vt 2.14453125 0.73974609375
vt 6.94921875 0.739501953125
vt 6.94921875 0.7451171875
vt 2.14453125 0.7451171875
vt 2.14453125 0.73974609375
vt 6.94921875 0.7451171875
vt 2.14453125 0.73974609375
vt 2.14453125 0.7451171875
vt 2.140625 0.7470703125
vt 2.142578125 0.7421875
vt 2.14453125 0.73974609375
vt 2.140625 0.7470703125
vt -3.197265625 -1.13671875
vt -3.1953125 -1.138671875
vt -1.8876953125 0.546630859375
vt -3.1953125 -1.138671875
vt -1.88671875 0.543212890625
vt -1.8876953125 0.546630859375
vt -1.8876953125 0.546630859375
vt -1.88671875 0.543212890625
vt -1.884765625 0.546875
vt -1.88671875 0.543212890625
vt -1.8828125 0.542724609375
vt -1.884765625 0.546875
vt -1.865234375 0.501953125
vt -1.88671875 0.543212890625
vt -3.1953125 -1.138671875
vt -1.88671875 0.543212890625
vt -1.865234375 0.501953125
vt -1.8828125 0.542724609375
vt -3.1484375 -1.150390625
vt -1.865234375 0.501953125
vt -3.1953125 -1.138671875
vt -1.865234375 0.501953125
vt -1.86328125 0.50439453125
vt -1.8828125 0.542724609375
vn -0.0014801761135458946 -0.2932634949684143 0.956030547618866
vn -1.932278428284917e-05 1.0680497325665783e-05 0.9999999403953552
vn -0.4008691608905792 -0.22728031873703003 0.8874951004981995
vn -0.3652871549129486 0.19711455702781677 0.9097863435745239
vn -0.6081702709197998 0.0006700964295305312 -0.7938063144683838
vn -0.7952200174331665 -0.0010789938969537616 -0.6063200235366821
vn -0.5549178719520569 0.29944121837615967 -0.7761450409889221
vn -0.7308076620101929 0.39435267448425293 -0.5571409463882446
vn -0.945379376411438 0.024533120915293694 -0.32504749298095703
vn -0.945095419883728 -0.027876315638422966 -0.32560330629348755
vn -0.7725955843925476 -0.030283629894256592 -0.6341758370399475
vn -0.9464088082313538 -0.07932528853416443 0.3130783140659332
vn -0.8427063822746277 0.45473670959472656 0.28820234537124634
vn -0.8338581919670105 0.4499605596065521 -0.319712370634079
vn -0.19836804270744324 0.10704223066568375 -0.974264919757843
vn -0.18214631080627441 -0.26603299379348755 -0.9465987682342529
vn -0.2362608015537262 -0.5541510581970215 -0.7981838583946228
vn -0.5172573328018188 -0.6226193904876709 -0.587188184261322
vn -0.5568355321884155 0.06530705094337463 -0.8280514478683472
vn -0.79567950963974 -0.0009591269190423191 -0.6057171821594238
vn -0.7139694690704346 -0.6253790259361267 -0.3148791491985321
vn -0.8524743914604187 -0.4306671619415283 -0.2963329255580902
vn -0.6058673858642578 -0.5533527135848999 -0.5715988874435425
vn 0.05817454308271408 -0.08623714745044708 0.9945746660232544
vn 0.2237491011619568 -0.20732857286930084 0.9523398280143738
vn -0.13499580323696136 -0.08314207941293716 0.9873517751693726
vn -0.1025119423866272 -0.5444270968437195 0.8325205445289612
vn 0.052423443645238876 -0.3704473078250885 -0.927372932434082
vn -0.4809610843658447 -0.42461442947387695 -0.7670586705207825
vn -0.24047650396823883 -0.24987490475177765 -0.9379410743713379
vn -0.936821460723877 -0.06176801398396492 -0.3443112373352051
vn 0.07766272872686386 -0.07029010355472565 -0.9944987893104553
vn 0.22598464787006378 -0.20065006613731384 -0.9532420635223389
vn -0.45448532700538635 -0.08244408667087555 -0.8869307041168213
vn -0.9434322118759155 0.05712185055017471 0.32660821080207825
vn -0.5938818454742432 -0.6516906023025513 0.4718089699745178
vn -0.6967841982841492 -0.033892672508955 0.7164797186851501
vn -0.8938009738922119 -0.016433412209153175 0.44816258549690247
vn -0.2686016857624054 0.23599982261657715 -0.9338935613632202
vn -0.37591540813446045 0.04179955646395683 -0.9257107377052307
vn -4.259354682289995e-05 -0.006310413591563702 0.999980092048645
vn -0.12399192154407501 -0.0007609121385030448 0.9922829270362854
vn -0.036080390214920044 -0.013355771079659462 -0.9992595911026001
vn -0.0014547466998919845 -0.29338109493255615 -0.9559944868087769
vn 0.00024732272140681744 -0.006168106105178595 -0.9999809265136719
vn 9.326302097178996e-05 -5.021539982408285e-05 -0.9999999403953552
vn -3.2283605833072215e-06 -7.960190487210639e-06 -1.0
vn -0.0831812396645546 -0.20960666239261627 -0.974241316318512
vn -0.2321796417236328 -0.585946798324585 -0.7763755917549133
vn -0.5635276436805725 -0.23731347918510437 -0.791276752948761
vn -0.7428653836250305 -0.6123648881912231 -0.2704814374446869
vn -0.7295015454292297 -0.6063676476478577 0.3164578378200531
vn -0.3525274991989136 -0.8903074264526367 0.28823110461235046
vn -0.34877708554267883 -0.8809859156608582 -0.3197161555290222
vn -0.6345815062522888 -0.48790082335472107 -0.5993822813034058
vn 0.0017629936337471008 0.3012408912181854 -0.9535464644432068
vn -0.23115098476409912 0.3425981104373932 -0.9106019139289856
vn -0.15278439223766327 -0.38575389981269836 0.9098631143569946
vn -0.4936811625957489 -0.1465768665075302 0.8572012782096863
vn -1.69782836678678e-07 2.386904673912227e-09 1.0
vn -0.12913700938224792 0.37712788581848145 0.9171140789985657
vn 0.14095038175582886 0.35539984703063965 0.9240258932113647
vn 0.2607060372829437 0.6573581695556641 0.7070449590682983
vn 0.2606845200061798 0.6573036909103394 0.707103431224823
vn -0.30562081933021545 -0.7719451189041138 -0.557401716709137
vn -0.3972095549106598 0.24160173535346985 0.8853548169136047
vn 0.0015246594557538629 0.30130940675735474 0.953525185585022
f 1/1/1 2/2/2 3/3/3
f 2/4/2 4/5/4 3/6/3
f 5/7/5 6/8/6 7/9/7
f 6/10/6 8/11/8 7/12/7
f 9/13/9 6/14/6 10/15/10
f 6/16/6 11/17/11 10/18/10
f 12/19/12 3/20/3 13/21/13
f 3/22/3 4/23/4 13/24/13
f 13/25/13 14/26/14 12/27/12
f 14/28/14 9/29/9 12/30/12
f 14/31/14 8/32/8 9/33/9
f 8/34/8 6/35/6 9/36/9
f 7/37/7 15/38/15 5/39/5
f 15/40/15 16/41/16 5/42/5
f 17/43/17 18/44/18 19/45/19
f 18/46/18 20/47/20 19/48/19
f 21/49/21 18/50/18 22/51/22
f 18/52/18 23/53/23 22/54/22
f 24/55/24 25/56/25 26/57/26
f 25/58/25 27/59/27 26/60/26
f 17/61/17 28/62/28 29/63/29
f 28/64/28 30/65/30 29/66/29
f 11/67/11 20/68/20 10/69/10
f 20/70/20 31/71/31 10/72/10
f 30/73/30 28/74/28 32/75/32
f 28/76/28 33/77/33 32/78/32
f 34/79/34 19/80/19 11/81/11
f 19/82/19 20/83/20 11/84/11
f 35/85/35 31/86/31 36/87/36
f 31/88/31 21/89/21 36/90/36
f 31/91/31 20/92/20 21/93/21
f 20/94/20 18/95/18 21/96/21
f 27/97/27 36/98/36 26/99/26
f 36/100/36 37/101/37 26/102/26
f 18/103/18 17/104/17 23/105/23
f 17/106/17 29/107/29 23/108/23
f 12/109/12 9/110/9 38/111/38
f 9/112/9 10/113/10 38/114/38
f 38/115/38 10/116/10 35/117/35
f 10/118/10 31/119/31 35/120/35
f 32/121/32 39/122/39 30/123/30
f 39/124/39 40/125/40 30/126/30
f 41/127/41 1/128/1 42/129/42
f 1/130/1 3/131/3 42/132/42
f 42/133/42 3/134/3 38/135/38
f 3/136/3 12/137/12 38/138/38
f 11/139/11 6/140/6 34/141/34
f 6/142/6 5/143/5 34/144/34
f 5/145/5 16/146/16 34/147/34
f 16/148/16 43/149/43 34/150/34
f 44/151/44 45/152/45 43/153/43
f 16/154/16 44/155/44 43/156/43
f 44/157/44 16/158/16 46/159/46
f 16/160/16 15/161/15 46/162/46
f 40/163/40 39/164/39 47/165/47
f 48/166/48 40/167/40 47/168/47
f 40/169/40 48/170/48 49/171/49
f 50/172/50 40/173/40 49/174/49
f 22/175/22 51/176/51 37/177/37
f 51/178/51 52/179/52 37/180/37
f 52/181/52 51/182/51 53/183/53
f 51/184/51 54/185/54 53/186/53
f 30/187/30 40/188/40 29/189/29
f 40/190/40 50/191/50 29/192/29
f 50/193/50 55/194/55 29/195/29
f 55/196/55 23/197/23 29/198/29
f 33/199/33 28/200/28 56/201/56
f 28/202/28 57/203/57 56/204/56
f 57/205/57 28/206/28 17/207/17
f 45/208/45 56/209/56 57/210/57
f 19/211/19 57/212/57 17/213/17
f 43/214/43 45/215/45 57/216/57
f 43/217/43 57/218/57 19/219/19
f 34/220/34 43/221/43 19/222/19
f 53/223/53 58/224/58 52/225/52
f 58/226/58 59/227/59 52/228/52
f 52/229/52 59/230/59 37/231/37
f 60/232/60 59/233/59 58/234/58
f 59/235/59 26/236/26 37/237/37
f 60/238/60 61/239/61 59/240/59
f 59/241/59 61/242/61 26/243/26
f 61/244/61 24/245/24 26/246/26
f 60/247/60 62/248/62 61/249/61
f 61/250/61 62/251/62 63/252/63
f 64/253/64 61/254/61 63/255/63
f 55/256/55 50/257/50 49/258/49
f 65/259/65 55/260/55 49/261/49
f 55/262/55 65/263/65 54/264/54
f 51/265/51 55/266/55 54/267/54
f 55/268/55 51/269/51 22/270/22
f 23/271/23 55/272/55 22/273/22
f 36/274/36 27/275/27 35/276/35
f 27/277/27 66/278/66 35/279/35
f 35/280/35 66/281/66 38/282/38
f 66/283/66 42/284/42 38/285/38
f 67/286/67 66/287/66 27/288/27
f 66/289/66 67/290/67 42/291/42
f 25/292/25 67/293/67 27/294/27
f 67/295/67 41/296/41 42/297/42
