# Exported by Lightwave Blender addon
v 1267.67724609375 4523.64892578125 1045.6776123046875
v 1267.67724609375 4523.64892578125 962.51416015625
v 1445.6607666015625 4562.03271484375 1045.6776123046875
v 1445.6607666015625 4562.03271484375 962.51416015625
v 1682.038330078125 4306.6572265625 1045.6776123046875
v 1682.038330078125 4306.6572265625 962.51416015625
v 1792.045166015625 4161.57080078125 1045.6776123046875
v 1792.045166015625 4161.57080078125 962.5140991210938
v 1507.9610595703125 4536.24462890625 1045.6776123046875
v 1507.961181640625 4536.24462890625 962.51416015625
v 1622.466796875 4385.22509765625 1045.6776123046875
v 1622.466796875 4385.22509765625 962.51416015625
vt 0.0020961761474609375 0.989898681640625
vt 0.0020961761474609375 0.747314453125
vt 0.57861328125 0.989898681640625
vt 0.0020961761474609375 0.747314453125
vt 0.57861328125 0.747314453125
vt 0.57861328125 0.989898681640625
vt 0.0020961761474609375 0.989898681640625
vt 0.0020961761474609375 0.747314453125
vt 0.57861328125 0.989898681640625
vt 0.0020961761474609375 0.747314453125
vt 0.57861328125 0.747314453125
vt 0.57861328125 0.989898681640625
vt 0.0020961761474609375 0.989898681640625
vt 0.0020961761474609375 0.747314453125
vt 0.57861328125 0.989898681640625
vt 0.0020961761474609375 0.747314453125
vt 0.57861328125 0.747314453125
vt 0.57861328125 0.989898681640625
vn 0.21081259846687317 -0.9775264263153076 0.0
vn 0.21081264317035675 -0.9775265455245972 0.0
vn 0.21081264317035675 -0.9775265455245972 0.0
vn 0.21081259846687317 -0.9775264263153076 0.0
vn -0.7968465685844421 -0.604181706905365 0.0
vn -0.7968465089797974 -0.604181706905365 0.0
vn -0.7968465089797974 -0.604181706905365 0.0
vn -0.7968465685844421 -0.6041817665100098 0.0
vn -0.7968457937240601 -0.6041828393936157 -1.169639062936767e-06
vn -0.7968457937240601 -0.6041827201843262 -8.617420803602727e-07
vn -0.7968459725379944 -0.6041825413703918 -3.078970394199132e-07
vn -0.7968460321426392 -0.6041824221611023 0.0
f 1/1/1 2/2/2 3/3/3
f 2/4/2 4/5/4 3/6/3
f 5/7/5 6/8/6 7/9/7
f 6/10/6 8/11/8 7/12/7
f 9/13/9 10/14/10 11/15/11
f 10/16/10 12/17/12 11/18/11
