# Exported by Lightwave Blender addon
v 1086.9793701171875 -508.5539855957031 488.17913818359375
v 1086.9793701171875 -508.553955078125 495.09906005859375
v 1074.43408203125 -540.1298828125 488.17913818359375
v 1074.43408203125 -540.1298217773438 495.0990295410156
v 1073.421142578125 -540.5668334960938 495.0990295410156
v 1073.421142578125 -540.5668334960938 488.17913818359375
v 928.6890258789062 -482.94561767578125 488.17913818359375
v 928.6890258789062 -482.94561767578125 495.0990295410156
v 928.2520751953125 -481.9328308105469 495.0990295410156
v 928.2520751953125 -481.932861328125 488.17913818359375
v 940.7476806640625 -450.483154296875 488.17913818359375
v 940.7476806640625 -450.483154296875 495.09906005859375
v 941.4727172851562 -450.7691650390625 487.39910888671875
v 928.9769287109375 -482.22076416015625 487.39910888671875
v 1086.2545166015625 -508.26611328125 487.39910888671875
v 1073.7091064453125 -539.8419189453125 487.39910888671875
v 1086.2545166015625 -508.26611328125 495.8790588378906
v 1073.7091064453125 -539.8419189453125 495.8790283203125
v 928.97705078125 -482.22076416015625 495.8790283203125
v 941.4727172851562 -450.7691650390625 495.8790588378906
vt -0.22021484375 0.717041015625
vt -0.22021484375 0.6767578125
vt -0.022064208984375 0.717041015625
vt -0.22021484375 0.6767578125
vt -0.022064208984375 0.6767578125
vt -0.022064208984375 0.717041015625
vt -0.022064208984375 0.6767578125
vt -0.0156402587890625 0.6767578125
vt -0.022064208984375 0.717041015625
vt -0.0156402587890625 0.6767578125
vt -0.0156402587890625 0.717041015625
vt -0.022064208984375 0.717041015625
vt -0.0156402587890625 0.717041015625
vt -0.0156402587890625 0.6767578125
vt 0.89306640625 0.717041015625
vt -0.0156402587890625 0.6767578125
vt 0.89306640625 0.6767578125
vt 0.89306640625 0.717041015625
vt 0.89306640625 0.717041015625
vt 0.89306640625 0.6767578125
vt 0.8994140625 0.6767578125
vt 0.8994140625 0.717041015625
vt 0.89306640625 0.717041015625
vt 0.8994140625 0.6767578125
vt 1.0966796875 0.717041015625
vt 0.8994140625 0.717041015625
vt 0.8994140625 0.6767578125
vt 1.0966796875 0.6767578125
vt 1.0966796875 0.717041015625
vt 0.8994140625 0.6767578125
vt 0.9599609375 0.543212890625
vt 0.95361328125 0.543212890625
vt 0.9599609375 0.35009765625
vt 0.95361328125 0.543212890625
vt 0.95361328125 0.345703125
vt 0.9599609375 0.35009765625
vt 0.95556640625 0.33984375
vt 0.9599609375 0.35009765625
vt 0.95361328125 0.345703125
vt 0.95361328125 0.543212890625
vt 0.045135498046875 0.543212890625
vt 0.95361328125 0.345703125
vt 0.95556640625 0.33984375
vt 0.95361328125 0.345703125
vt 0.045654296875 0.33984375
vt 0.045135498046875 0.543212890625
vt 0.045135498046875 0.345703125
vt 0.95361328125 0.345703125
vt 0.95361328125 0.345703125
vt 0.045135498046875 0.345703125
vt 0.045654296875 0.33984375
vt 0.045135498046875 0.345703125
vt 0.045135498046875 0.543212890625
vt 0.038909912109375 0.543212890625
vt 0.038909912109375 0.33935546875
vt 0.045654296875 0.33984375
vt 0.045135498046875 0.345703125
vt 0.038909912109375 0.33935546875
vt 0.045135498046875 0.345703125
vt 0.038909912109375 0.543212890625
vt 0.04180908203125 0.0556640625
vt 0.048065185546875 0.0556640625
vt 0.04180908203125 0.25146484375
vt 0.048065185546875 0.0556640625
vt 0.048065185546875 0.25341796875
vt 0.04180908203125 0.25146484375
vt 0.048065185546875 0.25341796875
vt 0.046722412109375 0.25927734375
vt 0.04180908203125 0.25146484375
vt 0.046722412109375 0.25927734375
vt 0.048065185546875 0.25341796875
vt 0.95654296875 0.25927734375
vt 0.048065185546875 0.25341796875
vt 0.048065185546875 0.0556640625
vt 0.95654296875 0.25341796875
vt 0.048065185546875 0.25341796875
vt 0.95654296875 0.25341796875
vt 0.95654296875 0.25927734375
vt 0.048065185546875 0.0556640625
vt 0.95654296875 0.0556640625
vt 0.95654296875 0.25341796875
vt 0.95654296875 0.25341796875
vt 0.962890625 0.25732421875
vt 0.95654296875 0.25927734375
vt 0.95654296875 0.25341796875
vt 0.95654296875 0.0556640625
vt 0.962890625 0.0556640625
vt 0.962890625 0.25732421875
vt 0.95654296875 0.25341796875
vt 0.962890625 0.0556640625
vn 0.8586108684539795 -0.34113284945487976 -0.3826430141925812
vn 0.8586089015007019 -0.3411308526992798 0.38264942169189453
vn 0.6875951290130615 -0.6407228112220764 -0.34159499406814575
vn 0.6876134276390076 -0.6407018899917603 0.3415974974632263
vn -0.006133164279162884 -0.9398283362388611 0.3415919244289398
vn -0.006150930188596249 -0.9398301839828491 -0.3415866792201996
vn -0.6409469246864319 -0.6874055862426758 -0.34155628085136414
vn -0.6409506797790527 -0.6873878836631775 0.3415847718715668
vn -0.9398252964019775 0.00580247538164258 0.3416062593460083
vn -0.9398417472839355 0.0057982588186860085 -0.3415610194206238
vn -0.8585793375968933 0.3411310911178589 -0.3827151954174042
vn -0.8585777282714844 0.34112247824668884 0.38272687792778015
vn -0.3555983901023865 0.14128631353378296 -0.9238981604576111
vn -0.44367945194244385 -0.1912013441324234 -0.8755515813827515
vn 0.3557046055793762 -0.14132530987262726 -0.9238513708114624
vn 0.1911623775959015 -0.4436204731464386 -0.8755900263786316
vn 0.35570400953292847 -0.14132435619831085 0.923851728439331
vn 0.19116409122943878 -0.4436187744140625 0.8755905032157898
vn -0.4436316192150116 -0.19119006395339966 0.8755782246589661
vn -0.355594277381897 0.14127610623836517 0.9239014983177185
f 1/1/1 2/2/2 3/3/3
f 2/4/2 4/5/4 3/6/3
f 4/7/4 5/8/5 3/9/3
f 5/10/5 6/11/6 3/12/3
f 6/13/6 5/14/5 7/15/7
f 5/16/5 8/17/8 7/18/7
f 7/19/7 8/20/8 9/21/9
f 10/22/10 7/23/7 9/24/9
f 11/25/11 10/26/10 9/27/9
f 12/28/12 11/29/11 9/30/9
f 11/31/11 13/32/13 10/33/10
f 13/34/13 14/35/14 10/36/10
f 7/37/7 10/38/10 14/39/14
f 13/40/13 15/41/15 14/42/14
f 7/43/7 14/44/14 6/45/6
f 15/46/15 16/47/16 14/48/14
f 14/49/14 16/50/16 6/51/6
f 16/52/16 15/53/15 1/54/1
f 3/55/3 6/56/6 16/57/16
f 3/58/3 16/59/16 1/60/1
f 2/61/2 17/62/17 4/63/4
f 17/64/17 18/65/18 4/66/4
f 18/67/18 5/68/5 4/69/4
f 5/70/5 18/71/18 8/72/8
f 18/73/18 17/74/17 19/75/19
f 18/76/18 19/77/19 8/78/8
f 17/79/17 20/80/20 19/81/19
f 19/82/19 9/83/9 8/84/8
f 19/85/19 20/86/20 12/87/12
f 9/88/9 19/89/19 12/90/12
