# Exported by Lightwave Blender addon
v 570.3738403320312 -1506.99365234375 159.5052490234375
v 570.3739013671875 -1506.99365234375 344.897216796875
v 572.7415161132812 -1503.619384765625 344.897216796875
v 572.7415161132812 -1503.619384765625 159.50526428222656
v 573.0286865234375 -1503.2100830078125 344.897216796875
v 573.0286865234375 -1503.2100830078125 159.50526428222656
v 577.4107666015625 -1505.00537109375 159.5052490234375
v 577.4108276367188 -1505.00537109375 344.897216796875
v 577.3236694335938 -1505.497802734375 344.897216796875
v 577.3236694335938 -1505.497802734375 159.5052490234375
v 576.5687255859375 -1509.7652587890625 344.897216796875
v 576.5687255859375 -1509.7652587890625 159.50526428222656
v 573.4913940429688 -1503.399658203125 344.897216796875
v 573.4913940429688 -1503.399658203125 159.50526428222656
v 576.9481201171875 -1504.81591796875 344.897216796875
v 576.9481201171875 -1504.81591796875 159.5052490234375
vt 0.2763671875 0.52587890625
vt -0.64990234375 0.52587890625
vt -0.64990234375 0.505859375
vt 0.2763671875 0.505859375
vt 0.2763671875 0.52587890625
vt -0.64990234375 0.505859375
vt 0.2763671875 0.505859375
vt -0.64990234375 0.505859375
vt -0.64990234375 0.50341796875
vt 0.2763671875 0.50341796875
vt 0.2763671875 0.505859375
vt -0.64990234375 0.50341796875
vt 0.72314453125 0.50341796875
vt 1.6494140625 0.50341796875
vt 1.6494140625 0.505859375
vt 0.72314453125 0.505859375
vt 0.72314453125 0.50341796875
vt 1.6494140625 0.505859375
vt 0.72314453125 0.505859375
vt 1.6494140625 0.505859375
vt 1.6494140625 0.527099609375
vt 0.72314453125 0.527099609375
vt 0.72314453125 0.505859375
vt 1.6494140625 0.527099609375
vt 0.72314453125 0.34912109375
vt 1.6494140625 0.34912109375
vt 1.6494140625 0.3515625
vt 0.72314453125 0.3515625
vt 0.72314453125 0.34912109375
vt 1.6494140625 0.3515625
vt 0.72314453125 0.3515625
vt 1.6494140625 0.3515625
vt 1.6494140625 0.3701171875
vt 0.72314453125 0.3701171875
vt 0.72314453125 0.3515625
vt 1.6494140625 0.3701171875
vt 0.72314453125 0.3701171875
vt 1.6494140625 0.3701171875
vt 1.6494140625 0.37255859375
vt 0.72314453125 0.37255859375
vt 0.72314453125 0.3701171875
vt 1.6494140625 0.37255859375
vn -0.8185831904411316 0.5743879675865173 3.813240834205089e-09
vn -0.8185901045799255 0.574378252029419 2.69498031002513e-07
vn -0.8186009526252747 0.5743626356124878 1.3284319777540077e-07
vn -0.8185976147651672 0.5743674635887146 0.0
vn -0.2812264859676361 0.9596413969993591 0.0
vn -0.28122544288635254 0.9596417546272278 0.0
vn 0.8758886456489563 0.48251333832740784 -8.049553201772142e-08
vn 0.8758950233459473 0.4825016260147095 -2.0837286740515992e-07
vn 0.984702467918396 -0.17424435913562775 -1.6181138562387787e-07
vn 0.9847128987312317 -0.17418530583381653 0.0
vn 0.9847098588943481 -0.1742023080587387 0.0
vn 0.9847099184989929 -0.1742023229598999 0.0
vn 0.3791235089302063 0.9253460764884949 0.0
vn 0.3791234493255615 0.9253461360931396 0.0
vn 0.3790189027786255 0.9253888130187988 0.0
vn 0.37904027104377747 0.9253801703453064 -6.227257642876793e-08
f 1/1/1 2/2/2 3/3/3
f 4/4/4 1/5/1 3/6/3
f 4/7/4 3/8/3 5/9/5
f 6/10/6 4/11/4 5/12/5
f 7/13/7 8/14/8 9/15/9
f 10/16/10 7/17/7 9/18/9
f 10/19/10 9/20/9 11/21/11
f 12/22/12 10/23/10 11/24/11
f 6/25/6 5/26/5 13/27/13
f 14/28/14 6/29/6 13/30/13
f 14/31/14 13/32/13 15/33/15
f 16/34/16 14/35/14 15/36/15
f 16/37/16 15/38/15 8/39/8
f 7/40/7 16/41/16 8/42/8
