# Exported by Lightwave Blender addon
v -182.61419677734375 280.3069152832031 371.73675537109375
v -182.3961639404297 280.71136474609375 376.98846435546875
v -168.26158142089844 306.9276123046875 371.73675537109375
v -182.3961639404297 280.71136474609375 366.48504638671875
v -181.74864196777344 281.9123229980469 382.0805969238281
v -181.74864196777344 281.912353515625 361.3929138183594
v -180.69131469726562 283.8734130859375 386.8584289550781
v -180.69129943847656 283.8734130859375 356.6150817871094
v -179.25633239746094 286.53497314453125 391.1767883300781
v -179.25633239746094 286.5350036621094 352.29669189453125
v -177.4872589111328 289.816162109375 394.90447998046875
v -177.48724365234375 289.816162109375 348.5690002441406
v -175.43788146972656 293.61724853515625 397.9282531738281
v -175.4378662109375 293.6172790527344 345.5452575683594
v -173.17047119140625 297.8227844238281 400.15618896484375
v -173.1704559326172 297.82281494140625 343.31732177734375
v -170.75389099121094 302.30499267578125 401.5206298828125
v -170.75387573242188 302.30499267578125 341.952880859375
v -168.2615966796875 306.9276123046875 401.98004150390625
v -168.26156616210938 306.9276123046875 341.493408203125
v -165.769287109375 311.5502624511719 401.5206298828125
v -165.76927185058594 311.5502624511719 341.952880859375
v -163.3527069091797 316.03240966796875 400.15618896484375
v -163.35269165039062 316.0324401855469 343.31732177734375
v -161.0852813720703 320.2379455566406 397.9282531738281
v -161.08526611328125 320.23797607421875 345.5452575683594
v -159.03590393066406 324.0390625 394.90447998046875
v -159.035888671875 324.0390930175781 348.56903076171875
v -157.266845703125 327.32025146484375 391.1767883300781
v -157.26683044433594 327.32025146484375 352.2967224121094
v -155.8318634033203 329.9817810058594 386.8584289550781
v -155.83184814453125 329.9818115234375 356.6151123046875
v -154.7745361328125 331.94287109375 382.0805969238281
v -154.77452087402344 331.94287109375 361.3929443359375
v -154.12701416015625 333.1438903808594 376.98846435546875
v -154.12701416015625 333.1438903808594 366.4850769042969
v -153.90896606445312 333.5483093261719 371.73675537109375
vt 1.0 0.5
vt 0.9921875 0.5869140625
vt 0.499755859375 0.500244140625
vt 0.9921875 0.41357421875
vt 1.0 0.5
vt 0.499755859375 0.500244140625
vt 0.9921875 0.5869140625
vt 0.9697265625 0.671142578125
vt 0.499755859375 0.500244140625
vt 0.9697265625 0.3291015625
vt 0.9921875 0.41357421875
vt 0.499755859375 0.500244140625
vt 0.9697265625 0.671142578125
vt 0.9326171875 0.75
vt 0.499755859375 0.500244140625
vt 0.9326171875 0.25
vt 0.9697265625 0.3291015625
vt 0.499755859375 0.500244140625
vt 0.9326171875 0.75
vt 0.8828125 0.8214111328125
vt 0.499755859375 0.500244140625
vt 0.8828125 0.1787109375
vt 0.9326171875 0.25
vt 0.499755859375 0.500244140625
vt 0.8828125 0.8214111328125
vt 0.8212890625 0.883056640625
vt 0.499755859375 0.500244140625
vt 0.8212890625 0.1171875
vt 0.8828125 0.1787109375
vt 0.499755859375 0.500244140625
vt 0.8212890625 0.883056640625
vt 0.75 0.93304443359375
vt 0.499755859375 0.500244140625
vt 0.74951171875 0.0673828125
vt 0.8212890625 0.1171875
vt 0.499755859375 0.500244140625
vt 0.75 0.93304443359375
vt 0.6708984375 0.9698486328125
vt 0.499755859375 0.500244140625
vt 0.6708984375 0.0302734375
vt 0.74951171875 0.0673828125
vt 0.499755859375 0.500244140625
vt 0.6708984375 0.9698486328125
vt 0.58642578125 0.9924049377441406
vt 0.499755859375 0.500244140625
vt 0.58642578125 0.0078125
vt 0.6708984375 0.0302734375
vt 0.499755859375 0.500244140625
vt 0.58642578125 0.9924049377441406
vt 0.5 1.0
vt 0.499755859375 0.500244140625
vt 0.499755859375 0.0
vt 0.58642578125 0.0078125
vt 0.499755859375 0.500244140625
vt 0.5 1.0
vt 0.4130859375 0.9924049377441406
vt 0.499755859375 0.500244140625
vt 0.4130859375 0.0078125
vt 0.499755859375 0.0
vt 0.499755859375 0.500244140625
vt 0.4130859375 0.9924049377441406
vt 0.328857421875 0.9698486328125
vt 0.499755859375 0.500244140625
vt 0.328857421875 0.0302734375
vt 0.4130859375 0.0078125
vt 0.499755859375 0.500244140625
vt 0.328857421875 0.9698486328125
vt 0.25 0.93304443359375
vt 0.499755859375 0.500244140625
vt 0.2498779296875 0.0673828125
vt 0.328857421875 0.0302734375
vt 0.499755859375 0.500244140625
vt 0.25 0.93304443359375
vt 0.1785888671875 0.883056640625
vt 0.499755859375 0.500244140625
vt 0.1785888671875 0.1171875
vt 0.2498779296875 0.0673828125
vt 0.499755859375 0.500244140625
vt 0.1785888671875 0.883056640625
vt 0.116943359375 0.8214111328125
vt 0.499755859375 0.500244140625
vt 0.116943359375 0.1787109375
vt 0.1785888671875 0.1171875
vt 0.499755859375 0.500244140625
vt 0.116943359375 0.8214111328125
vt 0.06695556640625 0.7501220703125
vt 0.499755859375 0.500244140625
vt 0.06695556640625 0.25048828125
vt 0.116943359375 0.1787109375
vt 0.499755859375 0.500244140625
vt 0.06695556640625 0.7501220703125
vt 0.0301513671875 0.671142578125
vt 0.499755859375 0.500244140625
vt 0.0301513671875 0.3291015625
vt 0.06695556640625 0.25048828125
vt 0.499755859375 0.500244140625
vt 0.0301513671875 0.671142578125
vt 0.007595062255859375 0.5869140625
vt 0.499755859375 0.500244140625
vt 0.007595062255859375 0.41357421875
vt 0.0301513671875 0.3291015625
vt 0.499755859375 0.500244140625
vt 0.007595062255859375 0.5869140625
vt 0.0 0.500244140625
vt 0.499755859375 0.500244140625
vt 0.0 0.500244140625
vt 0.007595062255859375 0.41357421875
vt 0.499755859375 0.500244140625
vn -0.8802171349525452 0.47457122802734375 1.5008838616381581e-09
vn -0.8802167773246765 0.4745718836784363 -5.29878150246077e-07
vn -0.8802170753479004 0.4745713770389557 -1.1840775471227971e-07
vn -0.8802168369293213 0.4745716154575348 1.8943884469990735e-06
vn -0.8802167177200317 0.4745718836784363 1.7652970427661785e-06
vn -0.8802162408828735 0.47457268834114075 -2.7980597678833874e-06
vn -0.8802171349525452 0.47457119822502136 -3.302431821339269e-07
vn -0.8802172541618347 0.4745708703994751 1.140710139679868e-07
vn -0.8802167773246765 0.4745717942714691 3.482532520138193e-07
vn -0.880216658115387 0.4745721220970154 -3.604399623213794e-08
vn -0.8802163600921631 0.4745725989341736 1.405033003720746e-06
vn -0.8802160620689392 0.47457319498062134 -2.5698946046759374e-06
vn -0.8802173137664795 0.4745708703994751 2.882107708046533e-07
vn -0.8802177906036377 0.47456982731819153 4.2631361907297105e-07
vn -0.8802181482315063 0.4745692312717438 -7.895787348388694e-07
vn -0.8802175521850586 0.4745704233646393 3.422519228024612e-07
vn -0.8802176713943481 0.47457006573677063 -5.973242878098972e-07
vn -0.8802164793014526 0.4745723605155945 -3.062257007968583e-07
vn -0.8802173733711243 0.47457078099250793 -4.442131569248886e-07
vn -0.8802173137664795 0.47457075119018555 -4.4421366851565836e-07
vn -0.8802165985107422 0.4745723009109497 -7.745724701635481e-07
vn -0.8802176713943481 0.47457003593444824 -1.2597965337590722e-07
vn -0.8802164196968079 0.47457265853881836 -5.584135465142026e-07
vn -0.8802169561386108 0.47457146644592285 1.2008820249320706e-07
vn -0.8802171945571899 0.47457101941108704 1.7412735076050012e-07
vn -0.8802171945571899 0.47457098960876465 -1.4410535698061722e-07
vn -0.8802173733711243 0.47457075119018555 3.0022013675079506e-07
vn -0.8802168369293213 0.47457170486450195 6.064485660317587e-07
vn -0.8802168965339661 0.47457146644592285 -7.085251354510547e-07
vn -0.8802167773246765 0.4745718538761139 4.203139098990505e-07
vn -0.8802167773246765 0.4745717942714691 -8.466276426588593e-07
vn -0.8802168369293213 0.4745717942714691 8.586326885051676e-07
vn -0.8802171945571899 0.474571168422699 8.346140134563029e-07
vn -0.8802168965339661 0.47457155585289 -9.006604955175135e-07
vn -0.8802172541618347 0.4745710492134094 4.6684175458722166e-07
vn -0.8802173137664795 0.4745708703994751 -1.7262626670344616e-06
vn -0.8802170753479004 0.47457122802734375 1.5032175504359202e-09
f 1/1/1 2/2/2 3/3/3
f 4/4/4 1/5/1 3/6/3
f 2/7/2 5/8/5 3/9/3
f 6/10/6 4/11/4 3/12/3
f 5/13/5 7/14/7 3/15/3
f 8/16/8 6/17/6 3/18/3
f 7/19/7 9/20/9 3/21/3
f 10/22/10 8/23/8 3/24/3
f 9/25/9 11/26/11 3/27/3
f 12/28/12 10/29/10 3/30/3
f 11/31/11 13/32/13 3/33/3
f 14/34/14 12/35/12 3/36/3
f 13/37/13 15/38/15 3/39/3
f 16/40/16 14/41/14 3/42/3
f 15/43/15 17/44/17 3/45/3
f 18/46/18 16/47/16 3/48/3
f 17/49/17 19/50/19 3/51/3
f 20/52/20 18/53/18 3/54/3
f 19/55/19 21/56/21 3/57/3
f 22/58/22 20/59/20 3/60/3
f 21/61/21 23/62/23 3/63/3
f 24/64/24 22/65/22 3/66/3
f 23/67/23 25/68/25 3/69/3
f 26/70/26 24/71/24 3/72/3
f 25/73/25 27/74/27 3/75/3
f 28/76/28 26/77/26 3/78/3
f 27/79/27 29/80/29 3/81/3
f 30/82/30 28/83/28 3/84/3
f 29/85/29 31/86/31 3/87/3
f 32/88/32 30/89/30 3/90/3
f 31/91/31 33/92/33 3/93/3
f 34/94/34 32/95/32 3/96/3
f 33/97/33 35/98/35 3/99/3
f 36/100/36 34/101/34 3/102/3
f 35/103/35 37/104/37 3/105/3
f 37/106/37 36/107/36 3/108/3
