# Exported by Lightwave Blender addon
v 38.83544158935547 -1449.3592529296875 188.26515197753906
v -64.08363342285156 -1407.27490234375 188.26515197753906
v 38.83544921875 -1449.3592529296875 370.3453063964844
v -64.0836181640625 -1407.2750244140625 370.3453063964844
v 40.81114196777344 -1444.5277099609375 183.04515075683594
v 100.12228393554688 -1299.479736328125 183.04513549804688
v -62.10792922973633 -1402.443359375 183.04515075683594
v -2.796790361404419 -1257.3953857421875 183.04513549804688
v -66.93958282470703 -1400.467529296875 188.26515197753906
v -7.62845516204834 -1255.4195556640625 188.26513671875
v -66.93958282470703 -1400.4676513671875 370.3453063964844
v -7.628447532653809 -1255.419677734375 370.3453369140625
v -62.107913970947266 -1402.4432373046875 375.5653076171875
v -2.796778917312622 -1257.395263671875 375.5653076171875
v 40.81114959716797 -1444.527587890625 375.5653076171875
v 100.12229919433594 -1299.4796142578125 375.5653076171875
v 45.64281463623047 -1446.5032958984375 370.3453063964844
v 104.95396423339844 -1301.455322265625 370.3453369140625
v 45.64280700683594 -1446.5032958984375 188.26515197753906
v 104.95394897460938 -1301.455322265625 188.26513671875
vt 0.50390625 0.076171875
vt 1.0595703125 0.076171875
vt 0.50390625 0.9861984252929688
vt 1.0595703125 0.076171875
vt 1.0595703125 0.9861984252929688
vt 0.50390625 0.9861984252929688
vt 0.495849609375 1.5439453125
vt 0.495849609375 2.3271484375
vt -0.06005859375 1.5439453125
vt 0.495849609375 2.3271484375
vt -0.06005859375 2.3271484375
vt -0.06005859375 1.5439453125
vt 0.923828125 1.5439453125
vt 0.923828125 2.3271484375
vt 0.01380157470703125 1.5439453125
vt 0.923828125 2.3271484375
vt 0.01380157470703125 2.3271484375
vt 0.01380157470703125 1.5439453125
vt 1.0595703125 1.5439453125
vt 1.0595703125 2.3271484375
vt 0.50390625 1.5439453125
vt 1.0595703125 2.3271484375
vt 0.50390625 2.3271484375
vt 0.50390625 1.5439453125
vt 0.98583984375 1.5439453125
vt 0.98583984375 2.3271484375
vt 0.07574462890625 1.5439453125
vt 0.98583984375 2.3271484375
vt 0.07574462890625 2.3271484375
vt 0.07574462890625 1.5439453125
vt -0.06005859375 2.3271484375
vt -0.08612060546875 2.3271484375
vt -0.06005859375 1.5439453125
vt -0.08612060546875 2.3271484375
vt -0.08612060546875 1.5439453125
vt -0.06005859375 1.5439453125
vt 0.0496826171875 1.5439453125
vt 0.07574462890625 1.5439453125
vt 0.0496826171875 2.3271484375
vt 0.07574462890625 1.5439453125
vt 0.07574462890625 2.3271484375
vt 0.0496826171875 2.3271484375
vt 0.01380157470703125 2.3271484375
vt -0.01229095458984375 2.3271484375
vt 0.01380157470703125 1.5439453125
vt -0.01229095458984375 2.3271484375
vt -0.01229095458984375 1.5439453125
vt 0.01380157470703125 1.5439453125
vt 0.50390625 2.3271484375
vt 0.477783203125 2.3271484375
vt 0.50390625 1.5439453125
vt 0.477783203125 2.3271484375
vt 0.477783203125 1.5439453125
vt 0.50390625 1.5439453125
vt 0.50390625 0.076171875
vt 0.477783203125 0.076171875
vt 0.50390625 0.0498046875
vt 0.477783203125 0.9861984252929688
vt 0.477783203125 0.076171875
vt 0.50390625 0.076171875
vt 0.50390625 0.076171875
vt 0.50390625 0.0498046875
vt 1.0595703125 0.076171875
vt 0.50390625 0.9861984252929688
vt 0.477783203125 0.9861984252929688
vt 0.50390625 0.076171875
vt 0.50390625 0.0498046875
vt 1.0595703125 0.0498046875
vt 1.0595703125 0.076171875
vt 0.50390625 0.9861984252929688
vt 0.50390625 1.0122909545898438
vt 0.477783203125 0.9861984252929688
vt 1.0595703125 0.0498046875
vt 1.0859375 0.076171875
vt 1.0595703125 0.076171875
vt 1.0595703125 1.0122909545898438
vt 0.50390625 1.0122909545898438
vt 0.50390625 0.9861984252929688
vt 1.0595703125 0.076171875
vt 1.0859375 0.076171875
vt 1.0595703125 0.9861984252929688
vt 1.0595703125 0.9861984252929688
vt 1.0595703125 1.0122909545898438
vt 0.50390625 0.9861984252929688
vt 1.0859375 0.076171875
vt 1.0859375 0.9861984252929688
vt 1.0595703125 0.9861984252929688
vt 1.0859375 0.9861984252929688
vt 1.0595703125 1.0122909545898438
vt 1.0595703125 0.9861984252929688
vn 0.015220708213746548 0.9397300481796265 0.3415783941745758
vn 0.6475693583488464 0.6811568737030029 0.3415833115577698
vn 0.015223360620439053 0.9397267699241638 -0.341587096452713
vn 0.6475693583488464 0.6811551451683044 -0.34158700704574585
vn -0.1868860125541687 0.4454665780067444 0.8755759596824646
vn -0.3542165458202362 0.1448417454957962 0.9238784313201904
vn 0.44545838236808777 0.18688929080963135 0.875579297542572
vn 0.35421428084373474 -0.14484062790870667 0.9238795638084412
vn 0.9397281408309937 -0.01522205863147974 0.3415834605693817
vn 0.8551512360572815 -0.34967726469039917 0.3826774060726166
vn 0.9397285580635071 -0.015227948315441608 -0.3415820300579071
vn 0.8551484942436218 -0.34967613220214844 -0.38268476724624634
vn 0.4454575777053833 0.18688537180423737 -0.8755805492401123
vn 0.3542117178440094 -0.1448395997285843 -0.9238807559013367
vn -0.18688897788524628 0.4454553723335266 -0.8755809664726257
vn -0.3542129695415497 0.14484021067619324 -0.9238801598548889
vn -0.6811552047729492 0.6475711464881897 -0.3415834307670593
vn -0.8551508188247681 0.3496772348880768 -0.3826785087585449
vn -0.6811633706092834 0.6475645899772644 0.3415795564651489
vn -0.8551504015922546 0.34967708587646484 0.38267964124679565
f 1/1/1 2/2/2 3/3/3
f 2/4/2 4/5/4 3/6/3
f 5/7/5 6/8/6 7/9/7
f 6/10/6 8/11/8 7/12/7
f 9/13/9 10/14/10 11/15/11
f 10/16/10 12/17/12 11/18/11
f 13/19/13 14/20/14 15/21/15
f 14/22/14 16/23/16 15/24/15
f 17/25/17 18/26/18 19/27/19
f 18/28/18 20/29/20 19/30/19
f 8/31/8 10/32/10 7/33/7
f 10/34/10 9/35/9 7/36/7
f 5/37/5 19/38/19 6/39/6
f 19/40/19 20/41/20 6/42/6
f 12/43/12 14/44/14 11/45/11
f 14/46/14 13/47/13 11/48/11
f 16/49/16 18/50/18 15/51/15
f 18/52/18 17/53/17 15/54/15
f 1/55/1 19/56/19 5/57/5
f 17/58/17 19/59/19 1/60/1
f 1/61/1 5/62/5 2/63/2
f 3/64/3 17/65/17 1/66/1
f 5/67/5 7/68/7 2/69/2
f 3/70/3 15/71/15 17/72/17
f 7/73/7 9/74/9 2/75/2
f 13/76/13 15/77/15 3/78/3
f 2/79/2 9/80/9 4/81/4
f 4/82/4 13/83/13 3/84/3
f 9/85/9 11/86/11 4/87/4
f 11/88/11 13/89/13 4/90/4
