# Exported by Lightwave Blender addon
v 3359.76708984375 -1398.758544921875 1410.064208984375
v 3359.76708984375 -1398.758544921875 1230.359130859375
v 3412.112548828125 -1419.615234375 1230.359130859375
v 3412.112548828125 -1419.615234375 1410.064208984375
v 3466.0732421875 -1441.115234375 1410.064208984375
v 3413.420654296875 -1420.136474609375 1410.064208984375
v 3413.420654296875 -1420.136474609375 1230.359130859375
v 3466.0732421875 -1441.115234375 1230.359130859375
vt 0.251220703125 0.9884872436523438
vt 0.251220703125 0.22509765625
vt 0.497802734375 0.22509765625
vt 0.497802734375 0.22509765625
vt 0.497802734375 0.9884872436523438
vt 0.251220703125 0.9884872436523438
vt 0.2491455078125 0.9884872436523438
vt 0.00260162353515625 0.9884872436523438
vt 0.00260162353515625 0.22509765625
vt 0.00260162353515625 0.22509765625
vt 0.2491455078125 0.22509765625
vt 0.2491455078125 0.9884872436523438
vn -0.3701435327529907 -0.9289745092391968 0.0
vn -0.3701435327529907 -0.9289746284484863 0.0
vn -0.3701435327529907 -0.9289745092391968 0.0
vn -0.3701435327529907 -0.9289746284484863 0.0
vn -0.370138943195343 -0.9289764165878296 0.0
vn -0.370138943195343 -0.9289764165878296 0.0
vn -0.370138943195343 -0.9289764165878296 0.0
vn -0.370138943195343 -0.9289764165878296 0.0
f 1/1/1 2/2/2 3/3/3
f 3/4/3 4/5/4 1/6/1
f 5/7/5 6/8/6 7/9/7
f 7/10/7 8/11/8 5/12/5
