# Exported by Lightwave Blender addon
v 567.8678588867188 -324.67724609375 1013.832763671875
v 567.8678588867188 -324.6772155761719 825.2100219726562
v 567.0120239257812 -326.8074951171875 1013.832763671875
v 567.6656494140625 -327.07012939453125 1014.5372314453125
v 568.521484375 -324.9398498535156 1014.5372314453125
v 567.0120239257812 -326.8074645996094 825.2100219726562
v 568.521484375 -324.9398193359375 824.505615234375
v 648.2527465820312 -359.447021484375 1014.5372314453125
v 649.1085205078125 -357.31683349609375 1014.5372314453125
v 567.6656494140625 -327.0700988769531 824.505615234375
v 649.1085205078125 -357.3168029785156 824.5054931640625
v 648.9063720703125 -359.70965576171875 1013.832763671875
v 649.7621459960938 -357.5794677734375 1013.832763671875
v 648.2527465820312 -359.4469909667969 824.5054931640625
v 649.7621459960938 -357.5794372558594 825.2098388671875
v 648.9063720703125 -359.7096252441406 825.2098388671875
v 647.119140625 -360.1958312988281 825.076171875
v 647.9603271484375 -360.53375244140625 825.9825439453125
v 647.9603271484375 -360.5337829589844 1013.0599365234375
v 567.9661254882812 -328.3948974609375 825.0762939453125
v 644.32373046875 -359.993408203125 828.0799560546875
v 567.125 -328.0570068359375 825.9827880859375
v 570.7452392578125 -330.432373046875 828.0799560546875
v 569.904052734375 -330.094482421875 828.9864501953125
v 567.125 -328.0570373535156 1013.06005859375
v 569.904052734375 -330.0945129394531 1010.0563354492188
v 570.9331665039062 -330.95281982421875 829.35498046875
v 567.9661254882812 -328.3949279785156 1013.9666748046875
v 570.7452392578125 -330.4324035644531 1010.9629516601562
v 570.9331665039062 -330.9528503417969 1009.6878662109375
v 644.32373046875 -359.9934387207031 1010.9627685546875
v 647.119140625 -360.19586181640625 1013.9664916992188
v 645.1650390625 -360.3315734863281 1010.0562744140625
v 643.827880859375 -360.23944091796875 1009.6878051757812
v 645.1650390625 -360.33154296875 828.9863891601562
v 643.827880859375 -360.2394104003906 829.3549194335938
vt 0.267578125 0.7080078125
vt 0.267578125 -0.255859375
vt 0.2763671875 0.704345703125
vt 0.267578125 0.7080078125
vt 0.2763671875 0.704345703125
vt 0.279541015625 0.70751953125
vt 0.27587890625 0.71630859375
vt 0.267578125 0.7080078125
vt 0.279541015625 0.70751953125
vt 0.267578125 -0.255859375
vt 0.276611328125 -0.251953125
vt 0.2763671875 0.704345703125
vt 0.267578125 -0.255859375
vt 0.27587890625 -0.263671875
vt 0.276611328125 -0.251953125
vt 0.27587890625 0.71630859375
vt 0.279541015625 0.70751953125
vt 0.7197265625 0.70751953125
vt 0.72314453125 0.71630859375
vt 0.27587890625 0.71630859375
vt 0.7197265625 0.70751953125
vt 0.27587890625 -0.263671875
vt 0.27978515625 -0.2548828125
vt 0.276611328125 -0.251953125
vt 0.27587890625 -0.263671875
vt 0.7236328125 -0.263671875
vt 0.27978515625 -0.2548828125
vt 0.72314453125 0.71630859375
vt 0.7197265625 0.70751953125
vt 0.72265625 0.704345703125
vt 0.7314453125 0.7080078125
vt 0.72314453125 0.71630859375
vt 0.72265625 0.704345703125
vt 0.7236328125 -0.263671875
vt 0.7197265625 -0.2548828125
vt 0.27978515625 -0.2548828125
vt 0.7236328125 -0.263671875
vt 0.73193359375 -0.255859375
vt 0.7197265625 -0.2548828125
vt 0.73193359375 -0.255859375
vt 0.7314453125 0.7080078125
vt 0.72265625 -0.251953125
vt 0.73193359375 -0.255859375
vt 0.72265625 -0.251953125
vt 0.7197265625 -0.2548828125
vt 0.7314453125 0.7080078125
vt 0.72265625 0.704345703125
vt 0.72265625 -0.251953125
vt 0.27978515625 -0.2548828125
vt 0.7197265625 -0.2548828125
vt 0.71533203125 -0.251953125
vt 0.72265625 -0.251953125
vt 0.71923828125 -0.248046875
vt 0.7197265625 -0.2548828125
vt 0.71923828125 -0.248046875
vt 0.71533203125 -0.251953125
vt 0.7197265625 -0.2548828125
vt 0.72265625 -0.251953125
vt 0.72265625 0.704345703125
vt 0.71923828125 0.7001953125
vt 0.71923828125 -0.248046875
vt 0.72265625 -0.251953125
vt 0.71923828125 0.7001953125
vt 0.283935546875 -0.251953125
vt 0.27978515625 -0.2548828125
vt 0.71533203125 -0.251953125
vt 0.27978515625 -0.2548828125
vt 0.283935546875 -0.251953125
vt 0.276611328125 -0.251953125
vt 0.71533203125 -0.251953125
vt 0.71923828125 -0.248046875
vt 0.7021484375 -0.2373046875
vt 0.283935546875 -0.251953125
vt 0.2802734375 -0.248046875
vt 0.276611328125 -0.251953125
vt 0.2763671875 0.704345703125
vt 0.276611328125 -0.251953125
vt 0.2802734375 -0.248046875
vt 0.283935546875 -0.251953125
vt 0.71533203125 -0.251953125
vt 0.300537109375 -0.2373046875
vt 0.71533203125 -0.251953125
vt 0.7021484375 -0.2373046875
vt 0.300537109375 -0.2373046875
vt 0.2802734375 -0.248046875
vt 0.283935546875 -0.251953125
vt 0.29638671875 -0.2333984375
vt 0.283935546875 -0.251953125
vt 0.300537109375 -0.2373046875
vt 0.29638671875 -0.2333984375
vt 0.2802734375 0.699951171875
vt 0.2763671875 0.704345703125
vt 0.2802734375 -0.248046875
vt 0.2763671875 0.704345703125
vt 0.2802734375 0.699951171875
vt 0.279541015625 0.70751953125
vt 0.2802734375 -0.248046875
vt 0.29638671875 -0.2333984375
vt 0.29638671875 0.68505859375
vt 0.2802734375 0.699951171875
vt 0.2802734375 -0.248046875
vt 0.29638671875 0.68505859375
vt 0.300537109375 -0.2373046875
vt 0.302490234375 -0.2314453125
vt 0.29638671875 -0.2333984375
vt 0.29638671875 0.68505859375
vt 0.29638671875 -0.2333984375
vt 0.302490234375 -0.2314453125
vt 0.2802734375 0.699951171875
vt 0.28369140625 0.70361328125
vt 0.279541015625 0.70751953125
vt 0.7197265625 0.70751953125
vt 0.279541015625 0.70751953125
vt 0.28369140625 0.70361328125
vt 0.2802734375 0.699951171875
vt 0.29638671875 0.68505859375
vt 0.300537109375 0.689208984375
vt 0.28369140625 0.70361328125
vt 0.2802734375 0.699951171875
vt 0.300537109375 0.689208984375
vt 0.29638671875 0.68505859375
vt 0.302490234375 0.68310546875
vt 0.300537109375 0.689208984375
vt 0.302490234375 0.68310546875
vt 0.29638671875 0.68505859375
vt 0.302490234375 -0.2314453125
vt 0.28369140625 0.70361328125
vt 0.300537109375 0.689208984375
vt 0.7021484375 0.689208984375
vt 0.7021484375 0.689208984375
vt 0.300537109375 0.689208984375
vt 0.302490234375 0.68310546875
vt 0.71533203125 0.703857421875
vt 0.7197265625 0.70751953125
vt 0.28369140625 0.70361328125
vt 0.71533203125 0.703857421875
vt 0.28369140625 0.70361328125
vt 0.7021484375 0.689208984375
vt 0.7197265625 0.70751953125
vt 0.71533203125 0.703857421875
vt 0.72265625 0.704345703125
vt 0.71533203125 0.703857421875
vt 0.71923828125 0.7001953125
vt 0.72265625 0.704345703125
vt 0.71533203125 0.703857421875
vt 0.7021484375 0.689208984375
vt 0.70654296875 0.68505859375
vt 0.71923828125 0.7001953125
vt 0.71533203125 0.703857421875
vt 0.70654296875 0.68505859375
vt 0.7001953125 0.68310546875
vt 0.7021484375 0.689208984375
vt 0.302490234375 0.68310546875
vt 0.7021484375 0.689208984375
vt 0.7001953125 0.68310546875
vt 0.70654296875 0.68505859375
vt 0.302490234375 0.68310546875
vt 0.302490234375 -0.2314453125
vt 0.7001953125 0.68310546875
vt 0.71923828125 0.7001953125
vt 0.70654296875 0.68505859375
vt 0.7060546875 -0.232421875
vt 0.7060546875 -0.232421875
vt 0.70654296875 0.68505859375
vt 0.7001953125 0.68310546875
vt 0.71923828125 -0.248046875
vt 0.71923828125 0.7001953125
vt 0.7060546875 -0.232421875
vt 0.71923828125 -0.248046875
vt 0.7060546875 -0.232421875
vt 0.7021484375 -0.2373046875
vt 0.302490234375 -0.2314453125
vt 0.7001953125 -0.2314453125
vt 0.7001953125 0.68310546875
vt 0.7001953125 -0.2314453125
vt 0.7060546875 -0.232421875
vt 0.7001953125 0.68310546875
vt 0.7060546875 -0.232421875
vt 0.7001953125 -0.2314453125
vt 0.7021484375 -0.2373046875
vt 0.302490234375 -0.2314453125
vt 0.300537109375 -0.2373046875
vt 0.7001953125 -0.2314453125
vt 0.300537109375 -0.2373046875
vt 0.7021484375 -0.2373046875
vt 0.7001953125 -0.2314453125
vn -0.857292890548706 0.3444189131259918 0.3826543688774109
vn -0.8572822213172913 0.344416081905365 -0.38268113136291504
vn -0.9196828007698059 0.04667336866259575 0.3898784816265106
vn -0.4734892249107361 -0.13260439038276672 0.8707605600357056
vn -0.3551177680492401 0.142667755484581 0.9238708019256592
vn -0.9196757078170776 0.04664420709013939 -0.3898985683917999
vn -0.35509249567985535 0.14265911281108856 -0.9238818883895874
vn 0.2501338720321655 -0.4233036935329437 0.8707738518714905
vn 0.355099081993103 -0.14265620708465576 0.9238796830177307
vn -0.47346848249435425 -0.13262401521205902 -0.8707688450813293
vn 0.3550669848918915 -0.1426432877779007 -0.9238941669464111
vn 0.6963344812393188 -0.6025803685188293 0.38989120721817017
vn 0.8572913408279419 -0.34440508484840393 0.3826705813407898
vn 0.25010326504707336 -0.42329171299934387 -0.8707883358001709
vn 0.8572786450386047 -0.34439995884895325 -0.38270363211631775
vn 0.6963340640068054 -0.6025577187538147 -0.3899270296096802
vn -0.11805426329374313 -0.8019366264343262 -0.5856284499168396
vn 0.2511664032936096 -0.9486344456672668 -0.19237501919269562
vn 0.2511839270591736 -0.9486372470855713 0.19233840703964233
vn -0.47028735280036926 -0.6647514700889587 -0.5804612636566162
vn -0.28653937578201294 -0.9266520142555237 -0.24333351850509644
vn -0.8335716724395752 -0.520085871219635 -0.18619607388973236
vn -0.4287636876106262 -0.8704295754432678 -0.24189679324626923
vn -0.5752391815185547 -0.8144893646240234 -0.07554411143064499
vn -0.8335814476013184 -0.5200734734535217 0.1861865222454071
vn -0.5752447247505188 -0.8144858479499817 0.0755394771695137
vn -0.487527459859848 -0.8632913827896118 -0.1305561661720276
vn -0.4702944755554199 -0.6647240519523621 0.5804869532585144
vn -0.4287653863430023 -0.8704307079315186 0.24188970029354095
vn -0.48752787709236145 -0.8632922172546387 0.13054995238780975
vn -0.2865479290485382 -0.9266497492790222 0.24333234131336212
vn -0.11803555488586426 -0.8019452095031738 0.5856205821037292
vn -0.12001819908618927 -0.9897822737693787 0.0769849345088005
vn -0.24521851539611816 -0.9606249332427979 0.13064272701740265
vn -0.12002382427453995 -0.9897804856300354 -0.07699865847826004
vn -0.24522031843662262 -0.9606250524520874 -0.13063915073871613
f 1/1/1 2/2/2 3/3/3
f 1/4/1 3/5/3 4/6/4
f 5/7/5 1/8/1 4/9/4
f 2/10/2 6/11/6 3/12/3
f 2/13/2 7/14/7 6/15/6
f 5/16/5 4/17/4 8/18/8
f 9/19/9 5/20/5 8/21/8
f 7/22/7 10/23/10 6/24/6
f 7/25/7 11/26/11 10/27/10
f 9/28/9 8/29/8 12/30/12
f 13/31/13 9/32/9 12/33/12
f 11/34/11 14/35/14 10/36/10
f 11/37/11 15/38/15 14/39/14
f 15/40/15 13/41/13 16/42/16
f 15/43/15 16/44/16 14/45/14
f 13/46/13 12/47/12 16/48/16
f 10/49/10 14/50/14 17/51/17
f 16/52/16 18/53/18 14/54/14
f 18/55/18 17/56/17 14/57/14
f 16/58/16 12/59/12 19/60/19
f 18/61/18 16/62/16 19/63/19
f 20/64/20 10/65/10 17/66/17
f 10/67/10 20/68/20 6/69/6
f 17/70/17 18/71/18 21/72/21
f 20/73/20 22/74/22 6/75/6
f 3/76/3 6/77/6 22/78/22
f 20/79/20 17/80/17 23/81/23
f 17/82/17 21/83/21 23/84/23
f 22/85/22 20/86/20 24/87/24
f 20/88/20 23/89/23 24/90/24
f 25/91/25 3/92/3 22/93/22
f 3/94/3 25/95/25 4/96/4
f 22/97/22 24/98/24 26/99/26
f 25/100/25 22/101/22 26/102/26
f 23/103/23 27/104/27 24/105/24
f 26/106/26 24/107/24 27/108/27
f 25/109/25 28/110/28 4/111/4
f 8/112/8 4/113/4 28/114/28
f 25/115/25 26/116/26 29/117/29
f 28/118/28 25/119/25 29/120/29
f 26/121/26 30/122/30 29/123/29
f 30/124/30 26/125/26 27/126/27
f 28/127/28 29/128/29 31/129/31
f 31/130/31 29/131/29 30/132/30
f 32/133/32 8/134/8 28/135/28
f 32/136/32 28/137/28 31/138/31
f 8/139/8 32/140/32 12/141/12
f 32/142/32 19/143/19 12/144/12
f 32/145/32 31/146/31 33/147/33
f 19/148/19 32/149/32 33/150/33
f 34/151/34 31/152/31 30/153/30
f 31/154/31 34/155/34 33/156/33
f 30/157/30 27/158/27 34/159/34
f 19/160/19 33/161/33 35/162/35
f 35/163/35 33/164/33 34/165/34
f 18/166/18 19/167/19 35/168/35
f 18/169/18 35/170/35 21/171/21
f 27/172/27 36/173/36 34/174/34
f 36/175/36 35/176/35 34/177/34
f 35/178/35 36/179/36 21/180/21
f 27/181/27 23/182/23 36/183/36
f 23/184/23 21/185/21 36/186/36
