# Exported by Lightwave Blender addon
v -2804.76708984375 1987.606689453125 1592.552001953125
v -2804.76708984375 1987.606689453125 1362.40478515625
v -2741.091552734375 2139.158935546875 1592.552001953125
v -2741.091552734375 2139.158935546875 1362.40478515625
v -2915.9375 1723.0135498046875 1592.552001953125
v -2915.9375 1723.0135498046875 1362.40478515625
v -2884.099609375 1798.7896728515625 1592.552001953125
v -2884.099609375 1798.7896728515625 1362.40478515625
v -2852.261962890625 1874.5655517578125 1362.40478515625
v -2852.261962890625 1874.5655517578125 1592.552001953125
v -2915.9375 1723.0135498046875 1188.0777587890625
v -2915.9375 1723.0135498046875 957.9303588867188
v -2884.099609375 1798.7896728515625 1188.0777587890625
v -2884.099609375 1798.7896728515625 957.9303588867188
v -2852.261962890625 1874.5655517578125 957.9303588867188
v -2852.261962890625 1874.5655517578125 1188.0777587890625
v -2804.645263671875 1987.8966064453125 1188.0777587890625
v -2804.645263671875 1987.896728515625 957.9303588867188
v -2772.8076171875 2063.6728515625 1188.0777587890625
v -2772.8076171875 2063.6728515625 957.9303588867188
v -2740.9697265625 2139.44873046875 957.9303588867188
v -2740.9697265625 2139.44873046875 1188.0777587890625
v -2774.221435546875 1457.8477783203125 1592.552001953125
v -2774.2216796875 1457.84765625 1362.40478515625
v -2886.616455078125 1577.8057861328125 1592.552001953125
v -2886.616455078125 1577.8057861328125 1362.40478515625
v -2775.81298828125 1458.85986328125 1183.9461669921875
v -2775.813232421875 1458.85986328125 953.7987670898438
v -2888.2080078125 1578.81787109375 1183.9462890625
v -2888.2080078125 1578.818115234375 953.7988891601562
v -2777.948974609375 2015.79248046875 1919.5364990234375
v -2777.948974609375 2015.79248046875 1783.212890625
v -2736.4296875 2114.61083984375 1919.5364990234375
v -2736.429931640625 2114.610595703125 1783.212890625
v -2893.024658203125 1741.9044189453125 1919.5364990234375
v -2893.024658203125 1741.904296875 1783.212890625
v -2851.50537109375 1840.722412109375 1919.5364990234375
v -2851.505615234375 1840.722412109375 1783.212890625
v -2795.134033203125 1490.800048828125 1919.5364990234375
v -2795.134033203125 1490.800048828125 1784.1898193359375
v -2865.322998046875 1571.8084716796875 1919.53662109375
v -2865.322998046875 1571.808349609375 1784.1898193359375
vt 0.01358795166015625 0.956207275390625
vt 0.01358795166015625 0.298828125
vt 0.483154296875 0.956207275390625
vt 0.01358795166015625 0.298828125
vt 0.483154296875 0.298828125
vt 0.483154296875 0.956207275390625
vt 0.76953125 0.956207275390625
vt 0.76953125 0.298828125
vt 1.00390625 0.956207275390625
vt 0.76953125 0.298828125
vt 1.00390625 0.298828125
vt 1.00390625 0.956207275390625
vt 0.99267578125 0.298828125
vt 0.7578125 0.298828125
vt 0.99267578125 0.956207275390625
vt 0.7578125 0.298828125
vt 0.7578125 0.956207275390625
vt 0.99267578125 0.956207275390625
vt 0.52587890625 0.956207275390625
vt 0.52587890625 0.298828125
vt 0.74658203125 0.956207275390625
vt 0.52587890625 0.298828125
vt 0.74658203125 0.298828125
vt 0.74658203125 0.956207275390625
vt 0.7470703125 0.30078125
vt 0.5263671875 0.30078125
vt 0.7470703125 0.957916259765625
vt 0.5263671875 0.30078125
vt 0.5263671875 0.957916259765625
vt 0.7470703125 0.957916259765625
vt 0.52587890625 0.956207275390625
vt 0.52587890625 0.298828125
vt 0.74658203125 0.956207275390625
vt 0.52587890625 0.298828125
vt 0.74658203125 0.298828125
vt 0.74658203125 0.956207275390625
vt 0.7470703125 0.30078125
vt 0.5263671875 0.30078125
vt 0.7470703125 0.957916259765625
vt 0.5263671875 0.30078125
vt 0.5263671875 0.957916259765625
vt 0.7470703125 0.957916259765625
vt 0.01358795166015625 0.956207275390625
vt 0.01358795166015625 0.298828125
vt 0.483154296875 0.956207275390625
vt 0.01358795166015625 0.298828125
vt 0.483154296875 0.298828125
vt 0.483154296875 0.956207275390625
vt 0.01358795166015625 0.956207275390625
vt 0.01358795166015625 0.298828125
vt 0.483154296875 0.956207275390625
vt 0.01358795166015625 0.298828125
vt 0.483154296875 0.298828125
vt 0.483154296875 0.956207275390625
vt 0.01358795166015625 0.956207275390625
vt 0.01358795166015625 0.298828125
vt 0.483154296875 0.956207275390625
vt 0.01358795166015625 0.298828125
vt 0.483154296875 0.298828125
vt 0.483154296875 0.956207275390625
vt 0.01358795166015625 0.956207275390625
vt 0.01358795166015625 0.298828125
vt 0.483154296875 0.956207275390625
vt 0.01358795166015625 0.298828125
vt 0.483154296875 0.298828125
vt 0.483154296875 0.956207275390625
vt 0.01358795166015625 0.956207275390625
vt 0.01358795166015625 0.298828125
vt 0.483154296875 0.956207275390625
vt 0.01358795166015625 0.298828125
vt 0.483154296875 0.298828125
vt 0.483154296875 0.956207275390625
vn 0.9219308495521545 -0.38735446333885193 0.0
vn 0.9219308495521545 -0.3873544931411743 0.0
vn 0.9219308495521545 -0.3873544931411743 0.0
vn 0.9219308495521545 -0.38735446333885193 0.0
vn 0.9219303131103516 -0.3873557150363922 0.0
vn 0.9219303131103516 -0.3873556852340698 0.0
vn 0.9219306111335754 -0.3873549997806549 0.0
vn 0.9219306111335754 -0.3873549997806549 0.0
vn 0.9219309687614441 -0.3873542547225952 0.0
vn 0.9219309091567993 -0.3873542845249176 0.0
vn 0.9219303131103516 -0.3873557448387146 0.0
vn 0.9219303727149963 -0.387355774641037 0.0
vn 0.9219306707382202 -0.3873550295829773 0.0
vn 0.9219306111335754 -0.3873549997806549 0.0
vn 0.9219309687614441 -0.38735431432724 0.0
vn 0.9219309091567993 -0.3873542845249176 0.0
vn 0.9219315648078918 -0.38735270500183105 -2.0545211043554445e-07
vn 0.9219314455986023 -0.38735318183898926 -4.4861625525527415e-08
vn 0.921930730342865 -0.3873548209667206 -8.029526554764743e-08
vn 0.9219306111335754 -0.38735508918762207 0.0
vn 0.9219298958778381 -0.38735684752464294 0.0
vn 0.9219298958778381 -0.38735684752464294 0.0
vn 0.7297362685203552 0.6837286353111267 -1.1367560546204913e-06
vn 0.7297369241714478 0.6837279796600342 -4.488594811391522e-07
vn 0.7297368049621582 0.6837282180786133 -6.878967724333052e-07
vn 0.7297374606132507 0.6837275624275208 0.0
vn 0.7297362685203552 0.6837286353111267 -7.741050467302557e-07
vn 0.7297371625900269 0.6837277412414551 1.3324441283657507e-07
vn 0.729736864566803 0.683728039264679 -1.8205103913260245e-07
vn 0.7297378182411194 0.6837271451950073 7.252985483319208e-07
vn 0.9219302535057068 -0.3873560130596161 0.0
vn 0.9219304323196411 -0.38735535740852356 -5.512595748768945e-07
vn 0.9219303727149963 -0.3873555064201355 -4.0610612472846697e-07
vn 0.9219306707382202 -0.38735488057136536 -9.57366523834935e-07
vn 0.921929657459259 -0.3873572051525116 3.46857120803179e-07
vn 0.9219303131103516 -0.38735589385032654 -8.03571708729578e-07
vn 0.9219301342964172 -0.3873562812805176 -5.006480705560534e-07
vn 0.9219306707382202 -0.38735485076904297 -1.651076672715135e-06
vn 0.7557737231254578 0.6548328399658203 0.0
vn 0.7557734847068787 0.6548331379890442 -3.3875770100166847e-07
vn 0.7557734847068787 0.6548330187797546 -2.518415556096443e-07
vn 0.7557732462882996 0.6548333764076233 -5.905992566113127e-07
f 1/1/1 2/2/2 3/3/3
f 2/4/2 4/5/4 3/6/3
f 5/7/5 6/8/6 7/9/7
f 6/10/6 8/11/8 7/12/7
f 8/13/8 9/14/9 7/15/7
f 9/16/9 10/17/10 7/18/7
f 11/19/11 12/20/12 13/21/13
f 12/22/12 14/23/14 13/24/13
f 14/25/14 15/26/15 13/27/13
f 15/28/15 16/29/16 13/30/13
f 17/31/17 18/32/18 19/33/19
f 18/34/18 20/35/20 19/36/19
f 20/37/20 21/38/21 19/39/19
f 21/40/21 22/41/22 19/42/19
f 23/43/23 24/44/24 25/45/25
f 24/46/24 26/47/26 25/48/25
f 27/49/27 28/50/28 29/51/29
f 28/52/28 30/53/30 29/54/29
f 31/55/31 32/56/32 33/57/33
f 32/58/32 34/59/34 33/60/33
f 35/61/35 36/62/36 37/63/37
f 36/64/36 38/65/38 37/66/37
f 39/67/39 40/68/40 41/69/41
f 40/70/40 42/71/42 41/72/41
