# Exported by Lightwave Blender addon
v -96.43787384033203 400.4184875488281 549.7235107421875
v -97.11592102050781 400.8255615234375 549.6774291992188
v -97.1919174194336 400.8741455078125 550.47900390625
v -96.53173828125 400.47039794921875 550.661865234375
v -97.41217041015625 401.0037536621094 551.1926879882812
v -96.8042221069336 400.63128662109375 551.5460815429688
v -97.75792694091797 401.2073974609375 551.8232421875
v -97.23128509521484 400.88330078125 552.3255004882812
v -98.21165466308594 401.474853515625 552.349853515625
v -97.79094696044922 401.21337890625 552.9752197265625
v -98.75530242919922 401.79547119140625 552.7514038085938
v -98.46184539794922 401.60894775390625 553.4706420898438
v -99.37107849121094 402.15869140625 553.0072631835938
v -99.22245788574219 402.0572814941406 553.78662109375
v -100.04315185546875 402.5549621582031 553.0972900390625
v -100.04917907714844 402.54473876953125 553.8973388671875
v -100.71522521972656 402.9512634277344 553.0072631835938
v -100.87588500976562 403.0322265625 553.78662109375
v -101.33113098144531 403.31427001953125 552.7513427734375
v -101.63636779785156 403.4807434082031 553.4706420898438
v -101.87480926513672 403.6347961425781 552.349853515625
v -102.30725860595703 403.8763427734375 552.9752197265625
v -102.32846069335938 403.90234375 551.8233032226562
v -102.86698150634766 404.2063293457031 552.3255004882812
v -102.67402648925781 404.1063232421875 551.1927490234375
v -103.29422760009766 404.4580078125 551.5460815429688
v -102.89405059814453 404.23638916015625 550.47900390625
v -103.56689453125 404.61859130859375 550.661865234375
v -102.97335815429688 404.2793273925781 549.6774291992188
v -103.65777587890625 404.67559814453125 549.7235107421875
v -102.97335815429688 404.2793273925781 530.26806640625
v -103.65779113769531 404.67559814453125 530.2219848632812
v -104.69586944580078 402.9150695800781 530.2219848632812
v -104.01780700683594 402.5079650878906 530.26806640625
v -104.69585418701172 402.9150085449219 549.7235107421875
v -104.01780700683594 402.5079650878906 549.6774291992188
v -104.60199737548828 402.86309814453125 550.661865234375
v -103.94181823730469 402.45941162109375 550.4789428710938
v -104.32951354980469 402.7022705078125 551.5460815429688
v -103.7215576171875 402.32977294921875 551.1926879882812
v -103.90245056152344 402.4501953125 552.3255615234375
v -103.37580871582031 402.1260986328125 551.8232421875
v -103.34278869628906 402.1201171875 552.9752197265625
v -102.92208099365234 401.8586730957031 552.349853515625
v -102.67185974121094 401.724609375 553.470703125
v -102.37844848632812 401.5380554199219 552.7513427734375
v -101.91127014160156 401.2762451171875 553.78662109375
v -101.7626724243164 401.1748352050781 553.0072631835938
v -101.08455657958984 400.7887878417969 553.8973388671875
v -101.09059143066406 400.778564453125 553.0972900390625
v -100.25784301757812 400.30133056640625 553.78662109375
v -100.41851043701172 400.38226318359375 553.0072631835938
v -99.4973373413086 399.852783203125 553.4706420898438
v -99.80261993408203 400.0192565917969 552.7513427734375
v -98.82647705078125 399.4571838378906 552.9752197265625
v -99.25891876220703 399.69873046875 552.349853515625
v -98.26675415039062 399.127197265625 552.3255615234375
v -98.80526733398438 399.43115234375 551.8232421875
v -97.83950805664062 398.87548828125 551.5460815429688
v -98.45970916748047 399.2271728515625 551.1926879882812
v -97.56684112548828 398.71490478515625 550.661865234375
v -98.23967742919922 399.09716796875 550.4789428710938
v -97.47595977783203 398.6579284667969 549.7235107421875
v -98.16036987304688 399.05419921875 549.6774291992188
vt 9.546875 -24.875
vt 8.125 -24.796875
vt 7.90625 -26.6875
vt 9.296875 -27.015625
vt 9.546875 -24.875
vt 7.90625 -26.6875
vt 9.296875 -27.015625
vt 7.90625 -26.6875
vt 7.296875 -28.40625
vt 8.578125 -29.03125
vt 9.296875 -27.015625
vt 7.296875 -28.40625
vt 8.578125 -29.03125
vt 7.296875 -28.40625
vt 6.3359375 -29.90625
vt 7.44921875 -30.796875
vt 8.578125 -29.03125
vt 6.3359375 -29.90625
vt 7.44921875 -30.796875
vt 6.3359375 -29.90625
vt 5.078125 -31.15625
vt 5.96875 -32.28125
vt 7.44921875 -30.796875
vt 5.078125 -31.15625
vt 5.96875 -32.28125
vt 5.078125 -31.15625
vt 3.5703125 -32.125
vt 4.1953125 -33.40625
vt 5.96875 -32.28125
vt 3.5703125 -32.125
vt 4.1953125 -33.40625
vt 3.5703125 -32.125
vt 1.8623046875 -32.71875
vt 2.185546875 -34.125
vt 4.1953125 -33.40625
vt 1.8623046875 -32.71875
vt 2.185546875 -34.125
vt 1.8623046875 -32.71875
vt 1.3113021850585938e-06 -32.9375
vt 1.9669532775878906e-06 -34.375
vt 2.185546875 -34.125
vt 1.3113021850585938e-06 -32.9375
vt 1.9669532775878906e-06 -34.375
vt 1.3113021850585938e-06 -32.9375
vt -1.8623046875 -32.71875
vt -2.185546875 -34.125
vt 1.9669532775878906e-06 -34.375
vt -1.8623046875 -32.71875
vt -2.185546875 -34.125
vt -1.8623046875 -32.71875
vt -3.5703125 -32.125
vt -4.1953125 -33.40625
vt -2.185546875 -34.125
vt -3.5703125 -32.125
vt -4.1953125 -33.40625
vt -3.5703125 -32.125
vt -5.078125 -31.15625
vt -5.96875 -32.28125
vt -4.1953125 -33.40625
vt -5.078125 -31.15625
vt -5.96875 -32.28125
vt -5.078125 -31.15625
vt -6.3359375 -29.90625
vt -7.44921875 -30.796875
vt -5.96875 -32.28125
vt -6.3359375 -29.90625
vt -7.44921875 -30.796875
vt -6.3359375 -29.90625
vt -7.296875 -28.40625
vt -8.578125 -29.03125
vt -7.44921875 -30.796875
vt -7.296875 -28.40625
vt -8.578125 -29.03125
vt -7.296875 -28.40625
vt -7.90625 -26.6875
vt -9.296875 -27.015625
vt -8.578125 -29.03125
vt -7.90625 -26.6875
vt -9.296875 -27.015625
vt -7.90625 -26.6875
vt -8.125 -24.796875
vt -9.546875 -24.875
vt -9.296875 -27.015625
vt -8.125 -24.796875
vt -9.546875 -24.875
vt -8.125 -24.796875
vt -8.125 20.4375
vt -9.546875 20.515625
vt -9.546875 -24.875
vt -8.125 20.4375
vt -9.546875 20.515625
vt -8.125 20.4375
vt -9.546875 -24.875
vt -8.125 20.4375
vt -8.125 -24.796875
vt -9.546875 -24.875
vt -9.546875 -24.875
vt -8.125 -24.796875
vt -9.296875 -27.015625
vt -8.125 -24.796875
vt -7.90625 -26.6875
vt -9.296875 -27.015625
vt -9.296875 -27.015625
vt -7.90625 -26.6875
vt -8.578125 -29.03125
vt -7.90625 -26.6875
vt -7.296875 -28.40625
vt -8.578125 -29.03125
vt -8.578125 -29.03125
vt -7.296875 -28.40625
vt -7.44921875 -30.796875
vt -7.296875 -28.40625
vt -6.3359375 -29.90625
vt -7.44921875 -30.796875
vt -7.44921875 -30.796875
vt -6.3359375 -29.90625
vt -5.96875 -32.28125
vt -6.3359375 -29.90625
vt -5.078125 -31.15625
vt -5.96875 -32.28125
vt -5.96875 -32.28125
vt -5.078125 -31.15625
vt -4.1953125 -33.40625
vt -5.078125 -31.15625
vt -3.5703125 -32.125
vt -4.1953125 -33.40625
vt -4.1953125 -33.40625
vt -3.5703125 -32.125
vt -2.185546875 -34.125
vt -3.5703125 -32.125
vt -1.8623046875 -32.71875
vt -2.185546875 -34.125
vt -2.185546875 -34.125
vt -1.8623046875 -32.71875
vt 1.9669532775878906e-06 -34.375
vt -1.8623046875 -32.71875
vt 1.3113021850585938e-06 -32.9375
vt 1.9669532775878906e-06 -34.375
vt 1.9669532775878906e-06 -34.375
vt 1.3113021850585938e-06 -32.9375
vt 2.185546875 -34.125
vt 1.3113021850585938e-06 -32.9375
vt 1.8623046875 -32.71875
vt 2.185546875 -34.125
vt 2.185546875 -34.125
vt 1.8623046875 -32.71875
vt 4.1953125 -33.40625
vt 1.8623046875 -32.71875
vt 3.5703125 -32.125
vt 4.1953125 -33.40625
vt 4.1953125 -33.40625
vt 3.5703125 -32.125
vt 5.96875 -32.28125
vt 3.5703125 -32.125
vt 5.078125 -31.15625
vt 5.96875 -32.28125
vt 5.96875 -32.28125
vt 5.078125 -31.15625
vt 7.44921875 -30.796875
vt 5.078125 -31.15625
vt 6.3359375 -29.90625
vt 7.44921875 -30.796875
vt 7.44921875 -30.796875
vt 6.3359375 -29.90625
vt 8.578125 -29.03125
vt 6.3359375 -29.90625
vt 7.296875 -28.40625
vt 8.578125 -29.03125
vt 8.578125 -29.03125
vt 7.296875 -28.40625
vt 9.296875 -27.015625
vt 7.296875 -28.40625
vt 7.90625 -26.6875
vt 9.296875 -27.015625
vt 9.296875 -27.015625
vt 7.90625 -26.6875
vt 9.546875 -24.875
vt 7.90625 -26.6875
vt 8.125 -24.796875
vt 9.546875 -24.875
vt -8.125 20.4375
vt -8.125 20.4375
vt -8.125 -24.796875
vt -8.125 20.4375
vt -8.125 -24.796875
vt -8.125 -24.796875
vt -8.125 -24.796875
vt -8.125 -24.796875
vt -7.90625 -26.6875
vt -8.125 -24.796875
vt -7.90625 -26.6875
vt -7.90625 -26.6875
vt -7.90625 -26.6875
vt -7.90625 -26.6875
vt -7.296875 -28.40625
vt -7.90625 -26.6875
vt -7.296875 -28.40625
vt -7.296875 -28.40625
vt -7.296875 -28.40625
vt -7.296875 -28.40625
vt -6.3359375 -29.90625
vt -7.296875 -28.40625
vt -6.3359375 -29.90625
vt -6.3359375 -29.90625
vt -6.3359375 -29.90625
vt -6.3359375 -29.90625
vt -5.078125 -31.15625
vt -6.3359375 -29.90625
vt -5.078125 -31.15625
vt -5.078125 -31.15625
vt -5.078125 -31.15625
vt -5.078125 -31.15625
vt -3.5703125 -32.125
vt -5.078125 -31.15625
vt -3.5703125 -32.125
vt -3.5703125 -32.125
vt -3.5703125 -32.125
vt -3.5703125 -32.125
vt -1.8623046875 -32.71875
vt -3.5703125 -32.125
vt -1.8623046875 -32.71875
vt -1.8623046875 -32.71875
vt -1.8623046875 -32.71875
vt -1.8623046875 -32.71875
vt 1.3113021850585938e-06 -32.9375
vt -1.8623046875 -32.71875
vt 1.3113021850585938e-06 -32.9375
vt 1.3113021850585938e-06 -32.9375
vt 1.3113021850585938e-06 -32.9375
vt 1.3113021850585938e-06 -32.9375
vt 1.8623046875 -32.71875
vt 1.3113021850585938e-06 -32.9375
vt 1.8623046875 -32.71875
vt 1.8623046875 -32.71875
vt 1.8623046875 -32.71875
vt 1.8623046875 -32.71875
vt 3.5703125 -32.125
vt 1.8623046875 -32.71875
vt 3.5703125 -32.125
vt 3.5703125 -32.125
vt 3.5703125 -32.125
vt 3.5703125 -32.125
vt 5.078125 -31.15625
vt 3.5703125 -32.125
vt 5.078125 -31.15625
vt 5.078125 -31.15625
vt 5.078125 -31.15625
vt 5.078125 -31.15625
vt 6.3359375 -29.90625
vt 5.078125 -31.15625
vt 6.3359375 -29.90625
vt 6.3359375 -29.90625
vt 6.3359375 -29.90625
vt 6.3359375 -29.90625
vt 7.296875 -28.40625
vt 6.3359375 -29.90625
vt 7.296875 -28.40625
vt 7.296875 -28.40625
vt 7.296875 -28.40625
vt 7.296875 -28.40625
vt 7.90625 -26.6875
vt 7.296875 -28.40625
vt 7.90625 -26.6875
vt 7.90625 -26.6875
vt 7.90625 -26.6875
vt 7.90625 -26.6875
vt 8.125 -24.796875
vt 7.90625 -26.6875
vt 8.125 -24.796875
vt 8.125 -24.796875
vt 9.546875 -24.875
vt 9.546875 -24.875
vt 9.296875 -27.015625
vt 9.296875 -27.015625
vt 9.546875 -24.875
vt 9.296875 -27.015625
vt 9.296875 -27.015625
vt 9.296875 -27.015625
vt 8.578125 -29.03125
vt 8.578125 -29.03125
vt 9.296875 -27.015625
vt 8.578125 -29.03125
vt 8.578125 -29.03125
vt 8.578125 -29.03125
vt 7.44921875 -30.796875
vt 7.44921875 -30.796875
vt 8.578125 -29.03125
vt 7.44921875 -30.796875
vt 7.44921875 -30.796875
vt 7.44921875 -30.796875
vt 5.96875 -32.28125
vt 5.96875 -32.28125
vt 7.44921875 -30.796875
vt 5.96875 -32.28125
vt 5.96875 -32.28125
vt 5.96875 -32.28125
vt 4.1953125 -33.40625
vt 4.1953125 -33.40625
vt 5.96875 -32.28125
vt 4.1953125 -33.40625
vt 4.1953125 -33.40625
vt 4.1953125 -33.40625
vt 2.185546875 -34.125
vt 2.185546875 -34.125
vt 4.1953125 -33.40625
vt 2.185546875 -34.125
vt 2.185546875 -34.125
vt 2.185546875 -34.125
vt 1.9669532775878906e-06 -34.375
vt 1.9669532775878906e-06 -34.375
vt 2.185546875 -34.125
vt 1.9669532775878906e-06 -34.375
vt 1.9669532775878906e-06 -34.375
vt 1.9669532775878906e-06 -34.375
vt -2.185546875 -34.125
vt -2.185546875 -34.125
vt 1.9669532775878906e-06 -34.375
vt -2.185546875 -34.125
vt -2.185546875 -34.125
vt -2.185546875 -34.125
vt -4.1953125 -33.40625
vt -4.1953125 -33.40625
vt -2.185546875 -34.125
vt -4.1953125 -33.40625
vt -4.1953125 -33.40625
vt -4.1953125 -33.40625
vt -5.96875 -32.28125
vt -5.96875 -32.28125
vt -4.1953125 -33.40625
vt -5.96875 -32.28125
vt -5.96875 -32.28125
vt -5.96875 -32.28125
vt -7.44921875 -30.796875
vt -7.44921875 -30.796875
vt -5.96875 -32.28125
vt -7.44921875 -30.796875
vt -7.44921875 -30.796875
vt -7.44921875 -30.796875
vt -8.578125 -29.03125
vt -8.578125 -29.03125
vt -7.44921875 -30.796875
vt -8.578125 -29.03125
vt -8.578125 -29.03125
vt -8.578125 -29.03125
vt -9.296875 -27.015625
vt -9.296875 -27.015625
vt -8.578125 -29.03125
vt -9.296875 -27.015625
vt -9.296875 -27.015625
vt -9.296875 -27.015625
vt -9.546875 -24.875
vt -9.546875 -24.875
vt -9.296875 -27.015625
vt -9.546875 -24.875
vt -9.546875 -24.875
vt -9.546875 -24.875
vt -9.546875 20.515625
vt -9.546875 20.515625
vt -9.546875 -24.875
vt -9.546875 20.515625
vn 0.9696507453918457 0.23043271899223328 0.08172039687633514
vn -0.22699567675590515 0.9705756902694702 -0.08034845441579819
vn -0.18915851414203644 0.9701230525970459 -0.15192219614982605
vn 0.9612659811973572 0.2185453474521637 0.16794505715370178
vn -0.14646407961845398 0.9437798857688904 -0.29635757207870483
vn 0.9131574630737305 0.24840620160102844 0.32316842675209045
vn -0.07871308922767639 0.90302574634552 -0.4223136007785797
vn 0.8382857441902161 0.29323557019233704 0.45966294407844543
vn 0.0109576266258955 0.8500360250473022 -0.5266104936599731
vn 0.7405384182929993 0.3509138822555542 0.5731163024902344
vn 0.11966792494058609 0.7865467667579651 -0.605824887752533
vn 0.6226791739463806 0.4198771119117737 0.6602832078933716
vn 0.2435411661863327 0.7144542336463928 -0.6559290289878845
vn 0.487975150346756 0.4984663426876068 0.7165274024009705
vn 0.3754843473434448 0.6367909908294678 -0.6734305024147034
vn 0.34394192695617676 0.5833023190498352 0.7358412146568298
vn 0.5072674751281738 0.5589905977249146 -0.6559032797813416
vn 0.19995880126953125 0.6683288812637329 0.7164866328239441
vn 0.6303863525390625 0.48542627692222595 -0.6057841777801514
vn 0.06605187803506851 0.7481182217597961 0.6602698564529419
vn 0.7385308742523193 0.421043336391449 -0.5265878438949585
vn -0.05138197913765907 0.8178412318229675 0.5731453895568848
vn 0.8283320665359497 0.3681319057941437 -0.42230889201164246
vn -0.1491912305355072 0.8754415512084961 0.45972171425819397
vn 0.8967887163162231 0.3285272717475891 -0.29637789726257324
vn -0.22474488615989685 0.9192523956298828 0.3232102692127228
vn 0.9398357272148132 0.3052108585834503 -0.1534765362739563
vn -0.2735574543476105 0.9473013281822205 0.16669262945652008
vn 0.9613881707191467 0.2724683880805969 -0.03864941745996475
vn -0.26911816000938416 0.9621874690055847 0.04207983613014221
vn 0.9624448418617249 0.2714773118495941 -2.762718906978989e-07
vn -0.27185654640197754 0.9623377919197083 1.2774577271557064e-06
vn -0.9736781120300293 -0.22792766988277435 4.879857229411755e-08
vn 0.2283095419406891 -0.9735885262489319 -1.6067630213001394e-06
vn -0.9722157716751099 -0.2302740514278412 0.042075902223587036
vn 0.2269703894853592 -0.9731349945068359 -0.038636598736047745
vn -0.9613329172134399 -0.21920759975910187 0.1666945219039917
vn 0.1879323124885559 -0.9701180458068848 -0.15346820652484894
vn -0.9131842851638794 -0.24827326834201813 0.32319456338882446
vn 0.14657223224639893 -0.9437437653541565 -0.29641908407211304
vn -0.8382679224014282 -0.2931749224662781 0.4597340226173401
vn 0.07882123440504074 -0.9030176401138306 -0.42231082916259766
vn -0.740503191947937 -0.35095566511154175 0.5731361508369446
vn -0.010902336798608303 -0.8500576615333557 -0.5265766978263855
vn -0.6226485371589661 -0.41987937688827515 0.6603105068206787
vn -0.11966456472873688 -0.7865882515907288 -0.6057716608047485
vn -0.48801326751708984 -0.4984704554080963 0.7164985537528992
vn -0.24360927939414978 -0.7144584655761719 -0.6558989882469177
vn -0.3439340591430664 -0.583308219909668 0.7358402013778687
vn -0.37547793984413147 -0.6367990374565125 -0.673426628112793
vn -0.1999693363904953 -0.6682789921760559 0.7165300846099854
vn -0.5073199272155762 -0.5589438676834106 -0.6559025645256042
vn -0.06598732620477676 -0.7480989098548889 0.6602981090545654
vn -0.6303449869155884 -0.48541587591171265 -0.6058356761932373
vn 0.05137862265110016 -0.8178483247756958 0.5731356143951416
vn -0.7385134696960449 -0.42105793952941895 -0.5266004204750061
vn 0.14918139576911926 -0.8754662275314331 0.4596777856349945
vn -0.8282920718193054 -0.36822509765625 -0.4223061501979828
vn 0.22464677691459656 -0.9192916750907898 0.3231668770313263
vn -0.8967496156692505 -0.32866472005844116 -0.2963435649871826
vn 0.27404093742370605 -0.9469423890113831 0.16793353855609894
vn -0.9404633641242981 -0.30405107140541077 -0.1519259363412857
vn 0.26770830154418945 -0.9600298404693604 0.08170005679130554
vn -0.9591634273529053 -0.2711954116821289 -0.08036643266677856
f 1/1/1 2/2/2 3/3/3
f 4/4/4 1/5/1 3/6/3
f 4/7/4 3/8/3 5/9/5
f 6/10/6 4/11/4 5/12/5
f 6/13/6 5/14/5 7/15/7
f 8/16/8 6/17/6 7/18/7
f 8/19/8 7/20/7 9/21/9
f 10/22/10 8/23/8 9/24/9
f 10/25/10 9/26/9 11/27/11
f 12/28/12 10/29/10 11/30/11
f 12/31/12 11/32/11 13/33/13
f 14/34/14 12/35/12 13/36/13
f 14/37/14 13/38/13 15/39/15
f 16/40/16 14/41/14 15/42/15
f 16/43/16 15/44/15 17/45/17
f 18/46/18 16/47/16 17/48/17
f 18/49/18 17/50/17 19/51/19
f 20/52/20 18/53/18 19/54/19
f 20/55/20 19/56/19 21/57/21
f 22/58/22 20/59/20 21/60/21
f 22/61/22 21/62/21 23/63/23
f 24/64/24 22/65/22 23/66/23
f 24/67/24 23/68/23 25/69/25
f 26/70/26 24/71/24 25/72/25
f 26/73/26 25/74/25 27/75/27
f 28/76/28 26/77/26 27/78/27
f 28/79/28 27/80/27 29/81/29
f 30/82/30 28/83/28 29/84/29
f 30/85/30 29/86/29 31/87/31
f 32/88/32 30/89/30 31/90/31
f 33/91/33 34/92/34 35/93/35
f 34/94/34 36/95/36 35/96/35
f 35/97/35 36/98/36 37/99/37
f 36/100/36 38/101/38 37/102/37
f 37/103/37 38/104/38 39/105/39
f 38/106/38 40/107/40 39/108/39
f 39/109/39 40/110/40 41/111/41
f 40/112/40 42/113/42 41/114/41
f 41/115/41 42/116/42 43/117/43
f 42/118/42 44/119/44 43/120/43
f 43/121/43 44/122/44 45/123/45
f 44/124/44 46/125/46 45/126/45
f 45/127/45 46/128/46 47/129/47
f 46/130/46 48/131/48 47/132/47
f 47/133/47 48/134/48 49/135/49
f 48/136/48 50/137/50 49/138/49
f 49/139/49 50/140/50 51/141/51
f 50/142/50 52/143/52 51/144/51
f 51/145/51 52/146/52 53/147/53
f 52/148/52 54/149/54 53/150/53
f 53/151/53 54/152/54 55/153/55
f 54/154/54 56/155/56 55/156/55
f 55/157/55 56/158/56 57/159/57
f 56/160/56 58/161/58 57/162/57
f 57/163/57 58/164/58 59/165/59
f 58/166/58 60/167/60 59/168/59
f 59/169/59 60/170/60 61/171/61
f 60/172/60 62/173/62 61/174/61
f 61/175/61 62/176/62 63/177/63
f 62/178/62 64/179/64 63/180/63
f 34/181/34 31/182/31 36/183/36
f 31/184/31 29/185/29 36/186/36
f 36/187/36 29/188/29 38/189/38
f 29/190/29 27/191/27 38/192/38
f 38/193/38 27/194/27 40/195/40
f 27/196/27 25/197/25 40/198/40
f 40/199/40 25/200/25 42/201/42
f 25/202/25 23/203/23 42/204/42
f 42/205/42 23/206/23 44/207/44
f 23/208/23 21/209/21 44/210/44
f 44/211/44 21/212/21 46/213/46
f 21/214/21 19/215/19 46/216/46
f 46/217/46 19/218/19 48/219/48
f 19/220/19 17/221/17 48/222/48
f 48/223/48 17/224/17 50/225/50
f 17/226/17 15/227/15 50/228/50
f 50/229/50 15/230/15 52/231/52
f 15/232/15 13/233/13 52/234/52
f 52/235/52 13/236/13 54/237/54
f 13/238/13 11/239/11 54/240/54
f 54/241/54 11/242/11 56/243/56
f 11/244/11 9/245/9 56/246/56
f 56/247/56 9/248/9 58/249/58
f 9/250/9 7/251/7 58/252/58
f 58/253/58 7/254/7 60/255/60
f 7/256/7 5/257/5 60/258/60
f 60/259/60 5/260/5 62/261/62
f 5/262/5 3/263/3 62/264/62
f 62/265/62 3/266/3 64/267/64
f 3/268/3 2/269/2 64/270/64
f 63/271/63 1/272/1 4/273/4
f 61/274/61 63/275/63 4/276/4
f 61/277/61 4/278/4 6/279/6
f 59/280/59 61/281/61 6/282/6
f 59/283/59 6/284/6 8/285/8
f 57/286/57 59/287/59 8/288/8
f 57/289/57 8/290/8 10/291/10
f 55/292/55 57/293/57 10/294/10
f 55/295/55 10/296/10 12/297/12
f 53/298/53 55/299/55 12/300/12
f 53/301/53 12/302/12 14/303/14
f 51/304/51 53/305/53 14/306/14
f 51/307/51 14/308/14 16/309/16
f 49/310/49 51/311/51 16/312/16
f 49/313/49 16/314/16 18/315/18
f 47/316/47 49/317/49 18/318/18
f 47/319/47 18/320/18 20/321/20
f 45/322/45 47/323/47 20/324/20
f 45/325/45 20/326/20 22/327/22
f 43/328/43 45/329/45 22/330/22
f 43/331/43 22/332/22 24/333/24
f 41/334/41 43/335/43 24/336/24
f 41/337/41 24/338/24 26/339/26
f 39/340/39 41/341/41 26/342/26
f 39/343/39 26/344/26 28/345/28
f 37/346/37 39/347/39 28/348/28
f 37/349/37 28/350/28 30/351/30
f 35/352/35 37/353/37 30/354/30
f 35/355/35 30/356/30 32/357/32
f 33/358/33 35/359/35 32/360/32
