# Exported by Lightwave Blender addon
v 1548.9639892578125 2912.70556640625 306.35980224609375
v 1566.437744140625 2936.871337890625 306.35980224609375
v 1563.5882568359375 2938.931884765625 306.35980224609375
v 1546.1143798828125 2914.76611328125 306.35980224609375
v 1563.5882568359375 2938.931884765625 300.71685791015625
v 1546.1143798828125 2914.76611328125 300.71685791015625
v 1548.9639892578125 2912.70556640625 300.7168884277344
v 1566.437744140625 2936.871337890625 300.71685791015625
v 1546.4295654296875 2914.890869140625 147.87644958496094
v 1549.00634765625 2913.02783203125 147.87644958496094
v 1549.00634765625 2913.02783203125 300.9715881347656
v 1546.4295654296875 2914.890869140625 300.9715881347656
v 1549.1090087890625 2918.59619140625 300.9715881347656
v 1549.1090087890625 2918.59619140625 147.87644958496094
v 1551.685546875 2916.7333984375 147.87644958496094
v 1551.685546875 2916.7333984375 300.9715881347656
v 1550.991455078125 2917.359375 300.5901794433594
v 1563.1065673828125 2934.114990234375 300.5901794433594
v 1550.991455078125 2917.359375 148.05728149414062
v 1563.1064453125 2934.114501953125 148.05726623535156
v 1566.301513671875 2936.946533203125 147.87646484375
v 1563.724853515625 2938.809814453125 147.87646484375
v 1563.724853515625 2938.809814453125 300.9715881347656
v 1566.301513671875 2936.946533203125 300.9715881347656
v 1563.6221923828125 2933.241455078125 300.9715881347656
v 1563.6221923828125 2933.241455078125 147.87644958496094
v 1561.0455322265625 2935.104248046875 147.87646484375
v 1561.0455322265625 2935.104248046875 300.9715881347656
v 1548.9639892578125 2912.70556640625 147.8520965576172
v 1566.437744140625 2936.871337890625 147.85211181640625
v 1563.5882568359375 2938.931884765625 147.85211181640625
v 1546.1143798828125 2914.76611328125 147.8520965576172
v 1563.5882568359375 2938.931884765625 142.20912170410156
v 1546.1143798828125 2914.76611328125 142.2091064453125
v 1548.9639892578125 2912.70556640625 142.20913696289062
v 1566.437744140625 2936.871337890625 142.20912170410156
v 1566.7957763671875 2937.227294921875 306.35980224609375
v 1553.7838134765625 2910.39404296875 306.35980224609375
v 1556.9478759765625 2908.859619140625 306.35980224609375
v 1569.9598388671875 2935.692626953125 306.35980224609375
v 1556.9478759765625 2908.859619140625 300.71685791015625
v 1569.9598388671875 2935.692626953125 300.71685791015625
v 1566.7957763671875 2937.227294921875 300.7168884277344
v 1553.7838134765625 2910.39404296875 300.71685791015625
v 1569.671142578125 2935.51513671875 147.87648010253906
v 1566.81005859375 2936.90234375 147.87649536132812
v 1566.81005859375 2936.902099609375 300.9715881347656
v 1569.671142578125 2935.514892578125 300.9715881347656
v 1567.6759033203125 2931.400634765625 300.9715881347656
v 1567.6759033203125 2931.400634765625 147.87646484375
v 1564.81494140625 2932.787841796875 147.87648010253906
v 1564.81494140625 2932.787841796875 300.9715881347656
v 1556.553955078125 2913.621826171875 300.5902099609375
v 1565.5755615234375 2932.22607421875 300.5902099609375
v 1565.5755615234375 2932.22607421875 148.05728149414062
v 1556.553955078125 2913.621826171875 148.0572509765625
v 1554.03369140625 2910.55517578125 147.87646484375
v 1556.8946533203125 2909.167724609375 147.87648010253906
v 1556.8946533203125 2909.167724609375 300.9715881347656
v 1554.03369140625 2910.55517578125 300.9715881347656
v 1556.02880859375 2914.669677734375 300.9715881347656
v 1556.02880859375 2914.669677734375 147.87646484375
v 1558.889892578125 2913.2822265625 147.87648010253906
v 1558.889892578125 2913.2822265625 300.9715881347656
v 1566.7957763671875 2937.227294921875 147.85211181640625
v 1553.7838134765625 2910.39404296875 147.8520965576172
v 1556.9478759765625 2908.859619140625 147.8520965576172
v 1569.9598388671875 2935.692626953125 147.85211181640625
v 1556.9478759765625 2908.859619140625 142.2091064453125
v 1569.9598388671875 2935.692626953125 142.20912170410156
v 1566.7957763671875 2937.227294921875 142.2091522216797
v 1553.7838134765625 2910.39404296875 142.2091064453125
vt 0.327880859375 0.35302734375
vt 0.327880859375 0.43212890625
vt 0.318603515625 0.43212890625
vt 0.318603515625 0.43212890625
vt 0.318603515625 0.35302734375
vt 0.327880859375 0.35302734375
vt 0.3154296875 0.43212890625
vt 0.300537109375 0.43212890625
vt 0.300537109375 0.3525390625
vt 0.300537109375 0.3525390625
vt 0.3154296875 0.3525390625
vt 0.3154296875 0.43212890625
vt 0.27001953125 0.35205078125
vt 0.284912109375 0.35205078125
vt 0.284912109375 0.431640625
vt 0.284912109375 0.431640625
vt 0.27001953125 0.431640625
vt 0.27001953125 0.35205078125
vt 0.269775390625 0.34521484375
vt 0.269775390625 0.3359375
vt 0.284912109375 0.3359375
vt 0.284912109375 0.3359375
vt 0.284912109375 0.34521484375
vt 0.269775390625 0.34521484375
vt 0.2880859375 0.34521484375
vt 0.2880859375 0.3359375
vt 0.30322265625 0.3359375
vt 0.30322265625 0.3359375
vt 0.30322265625 0.34521484375
vt 0.2880859375 0.34521484375
vt 0.287841796875 0.3525390625
vt 0.29736328125 0.3525390625
vt 0.29736328125 0.43212890625
vt 0.29736328125 0.43212890625
vt 0.287841796875 0.43212890625
vt 0.287841796875 0.3525390625
vt 0.8583984375 0.9782562255859375
vt 0.8486328125 0.9782562255859375
vt 0.8486328125 0.57080078125
vt 0.8486328125 0.57080078125
vt 0.8583984375 0.57080078125
vt 0.8583984375 0.9782562255859375
vt 0.81201171875 0.5712890625
vt 0.81201171875 0.978668212890625
vt 0.7998046875 0.978668212890625
vt 0.7998046875 0.978668212890625
vt 0.7998046875 0.5712890625
vt 0.81201171875 0.5712890625
vt 0.84521484375 0.572021484375
vt 0.84521484375 0.979339599609375
vt 0.8330078125 0.979339599609375
vt 0.8330078125 0.979339599609375
vt 0.8330078125 0.572021484375
vt 0.84521484375 0.572021484375
vt 0.82763671875 0.980072021484375
vt 0.81787109375 0.980072021484375
vt 0.81787109375 0.57275390625
vt 0.81787109375 0.57275390625
vt 0.82763671875 0.57275390625
vt 0.82763671875 0.980072021484375
vt 0.432373046875 0.01123046875
vt 0.377197265625 0.01123046875
vt 0.432373046875 0.4169921875
vt 0.377197265625 0.4169921875
vt 0.432373046875 0.4169921875
vt 0.377197265625 0.01123046875
vt 0.8583984375 0.9782562255859375
vt 0.8486328125 0.9782562255859375
vt 0.8486328125 0.57080078125
vt 0.8486328125 0.57080078125
vt 0.8583984375 0.57080078125
vt 0.8583984375 0.9782562255859375
vt 0.81201171875 0.5712890625
vt 0.81201171875 0.978668212890625
vt 0.7998046875 0.978668212890625
vt 0.7998046875 0.978668212890625
vt 0.7998046875 0.5712890625
vt 0.81201171875 0.5712890625
vt 0.84521484375 0.572021484375
vt 0.84521484375 0.979339599609375
vt 0.8330078125 0.979339599609375
vt 0.8330078125 0.979339599609375
vt 0.8330078125 0.572021484375
vt 0.84521484375 0.572021484375
vt 0.82763671875 0.980072021484375
vt 0.81787109375 0.980072021484375
vt 0.81787109375 0.57275390625
vt 0.81787109375 0.57275390625
vt 0.82763671875 0.57275390625
vt 0.82763671875 0.980072021484375
vt 0.327880859375 0.35302734375
vt 0.327880859375 0.43212890625
vt 0.318603515625 0.43212890625
vt 0.318603515625 0.43212890625
vt 0.318603515625 0.35302734375
vt 0.327880859375 0.35302734375
vt 0.3154296875 0.43212890625
vt 0.300537109375 0.43212890625
vt 0.300537109375 0.3525390625
vt 0.300537109375 0.3525390625
vt 0.3154296875 0.3525390625
vt 0.3154296875 0.43212890625
vt 0.27001953125 0.35205078125
vt 0.284912109375 0.35205078125
vt 0.284912109375 0.431640625
vt 0.284912109375 0.431640625
vt 0.27001953125 0.431640625
vt 0.27001953125 0.35205078125
vt 0.269775390625 0.34521484375
vt 0.269775390625 0.3359375
vt 0.284912109375 0.3359375
vt 0.284912109375 0.3359375
vt 0.284912109375 0.34521484375
vt 0.269775390625 0.34521484375
vt 0.2880859375 0.34521484375
vt 0.2880859375 0.3359375
vt 0.30322265625 0.3359375
vt 0.30322265625 0.3359375
vt 0.30322265625 0.34521484375
vt 0.2880859375 0.34521484375
vt 0.287841796875 0.3525390625
vt 0.29736328125 0.3525390625
vt 0.29736328125 0.43212890625
vt 0.29736328125 0.43212890625
vt 0.287841796875 0.43212890625
vt 0.287841796875 0.3525390625
vt 0.327880859375 0.35302734375
vt 0.327880859375 0.43212890625
vt 0.318603515625 0.43212890625
vt 0.318603515625 0.43212890625
vt 0.318603515625 0.35302734375
vt 0.327880859375 0.35302734375
vt 0.3154296875 0.43212890625
vt 0.300537109375 0.43212890625
vt 0.300537109375 0.3525390625
vt 0.300537109375 0.3525390625
vt 0.3154296875 0.3525390625
vt 0.3154296875 0.43212890625
vt 0.27001953125 0.35205078125
vt 0.284912109375 0.35205078125
vt 0.284912109375 0.431640625
vt 0.284912109375 0.431640625
vt 0.27001953125 0.431640625
vt 0.27001953125 0.35205078125
vt 0.269775390625 0.34521484375
vt 0.269775390625 0.3359375
vt 0.284912109375 0.3359375
vt 0.284912109375 0.3359375
vt 0.284912109375 0.34521484375
vt 0.269775390625 0.34521484375
vt 0.2880859375 0.34521484375
vt 0.2880859375 0.3359375
vt 0.30322265625 0.3359375
vt 0.30322265625 0.3359375
vt 0.30322265625 0.34521484375
vt 0.2880859375 0.34521484375
vt 0.287841796875 0.3525390625
vt 0.29736328125 0.3525390625
vt 0.29736328125 0.43212890625
vt 0.29736328125 0.43212890625
vt 0.287841796875 0.43212890625
vt 0.287841796875 0.3525390625
vt 0.8583984375 0.9782562255859375
vt 0.8486328125 0.9782562255859375
vt 0.8486328125 0.57080078125
vt 0.8486328125 0.57080078125
vt 0.8583984375 0.57080078125
vt 0.8583984375 0.9782562255859375
vt 0.81201171875 0.5712890625
vt 0.81201171875 0.978668212890625
vt 0.7998046875 0.978668212890625
vt 0.7998046875 0.978668212890625
vt 0.7998046875 0.5712890625
vt 0.81201171875 0.5712890625
vt 0.84521484375 0.572021484375
vt 0.84521484375 0.979339599609375
vt 0.8330078125 0.979339599609375
vt 0.8330078125 0.979339599609375
vt 0.8330078125 0.572021484375
vt 0.84521484375 0.572021484375
vt 0.82763671875 0.980072021484375
vt 0.81787109375 0.980072021484375
vt 0.81787109375 0.57275390625
vt 0.81787109375 0.57275390625
vt 0.82763671875 0.57275390625
vt 0.82763671875 0.980072021484375
vt 0.377197265625 0.01123046875
vt 0.432373046875 0.01123046875
vt 0.432373046875 0.4169921875
vt 0.432373046875 0.4169921875
vt 0.377197265625 0.4169921875
vt 0.377197265625 0.01123046875
vt 0.8583984375 0.9782562255859375
vt 0.8486328125 0.9782562255859375
vt 0.8486328125 0.57080078125
vt 0.8486328125 0.57080078125
vt 0.8583984375 0.57080078125
vt 0.8583984375 0.9782562255859375
vt 0.81201171875 0.5712890625
vt 0.81201171875 0.978668212890625
vt 0.7998046875 0.978668212890625
vt 0.7998046875 0.978668212890625
vt 0.7998046875 0.5712890625
vt 0.81201171875 0.5712890625
vt 0.84521484375 0.572021484375
vt 0.84521484375 0.979339599609375
vt 0.8330078125 0.979339599609375
vt 0.8330078125 0.979339599609375
vt 0.8330078125 0.572021484375
vt 0.84521484375 0.572021484375
vt 0.82763671875 0.980072021484375
vt 0.81787109375 0.980072021484375
vt 0.81787109375 0.57275390625
vt 0.81787109375 0.57275390625
vt 0.82763671875 0.57275390625
vt 0.82763671875 0.980072021484375
vt 0.327880859375 0.35302734375
vt 0.327880859375 0.43212890625
vt 0.318603515625 0.43212890625
vt 0.318603515625 0.43212890625
vt 0.318603515625 0.35302734375
vt 0.327880859375 0.35302734375
vt 0.3154296875 0.43212890625
vt 0.300537109375 0.43212890625
vt 0.300537109375 0.3525390625
vt 0.300537109375 0.3525390625
vt 0.3154296875 0.3525390625
vt 0.3154296875 0.43212890625
vt 0.27001953125 0.35205078125
vt 0.284912109375 0.35205078125
vt 0.284912109375 0.431640625
vt 0.284912109375 0.431640625
vt 0.27001953125 0.431640625
vt 0.27001953125 0.35205078125
vt 0.269775390625 0.34521484375
vt 0.269775390625 0.3359375
vt 0.284912109375 0.3359375
vt 0.284912109375 0.3359375
vt 0.284912109375 0.34521484375
vt 0.269775390625 0.34521484375
vt 0.2880859375 0.34521484375
vt 0.2880859375 0.3359375
vt 0.30322265625 0.3359375
vt 0.30322265625 0.3359375
vt 0.30322265625 0.34521484375
vt 0.2880859375 0.34521484375
vt 0.287841796875 0.3525390625
vt 0.29736328125 0.3525390625
vt 0.29736328125 0.43212890625
vt 0.29736328125 0.43212890625
vt 0.287841796875 0.43212890625
vt 0.287841796875 0.3525390625
vn 0.12954488396644592 -0.8061506152153015 0.5773552656173706
vn 0.8061529397964478 0.1295456737279892 0.577351987361908
vn -0.12953543663024902 0.8061529994010925 0.5773541927337646
vn -0.8061527609825134 -0.12955263257026672 0.5773507952690125
vn -0.12954454123973846 0.8061536550521851 -0.5773512125015259
vn -0.8061469197273254 -0.1295618712902069 -0.5773568749427795
vn 0.12955544888973236 -0.8061533570289612 -0.5773493051528931
vn 0.8061491250991821 0.12955376505851746 -0.5773556232452393
vn -0.9873300194740295 -0.15868033468723297 0.0
vn 0.15871840715408325 -0.9873238801956177 0.0
vn 0.1587197333574295 -0.9873237013816833 0.0
vn -0.9873297214508057 -0.1586817055940628 0.0
vn -0.15869179368019104 0.9873281717300415 0.0
vn -0.15869015455245972 0.9873284697532654 0.0
vn 0.9873228073120117 0.1587255448102951 0.0
vn 0.9873225092887878 0.1587270051240921 0.0
vn -0.8103615641593933 0.5859302878379822 0.0
vn -0.8103610873222351 0.5859308242797852 -1.0496695068695772e-07
vn -0.8103566765785217 0.5859369039535522 -1.1190983286724077e-06
vn -0.8103561997413635 0.5859375596046448 -1.2240672049301793e-06
vn 0.9873377084732056 0.1586325317621231 0.0
vn -0.15866602957248688 0.987332284450531 0.0
vn -0.15866781771183014 0.9873319864273071 0.0
vn 0.9873372912406921 0.15863507986068726 0.0
vn 0.15869708359241486 -0.9873273372650146 0.0
vn 0.15869702398777008 -0.9873272776603699 0.0
vn -0.9873223900794983 -0.15872761607170105 0.0
vn -0.9873223900794983 -0.15872740745544434 0.0
vn 0.12954483926296234 -0.8061508536338806 0.5773550868034363
vn 0.8061528205871582 0.12954556941986084 0.5773521661758423
vn -0.12953543663024902 0.806152880191803 0.577354371547699
vn -0.8061528205871582 -0.12955278158187866 0.5773505568504333
vn -0.12954452633857727 0.8061537742614746 -0.5773510932922363
vn -0.8061468601226807 -0.1295619010925293 -0.5773569345474243
vn 0.12955547869205475 -0.8061532378196716 -0.5773494243621826
vn 0.8061491250991821 0.1295538991689682 -0.5773554444313049
vn -0.26753783226013184 0.7714201211929321 0.5773513913154602
vn -0.7714086771011353 -0.26756998896598816 0.5773517489433289
vn 0.2675595283508301 -0.7714100480079651 0.5773547291755676
vn 0.7714153528213501 0.2675437927246094 0.5773547887802124
vn 0.2675687074661255 -0.7714090347290039 -0.5773517489433289
vn 0.7714080810546875 0.2675519585609436 -0.5773609280586243
vn -0.2675486207008362 0.7714208364486694 -0.5773454308509827
vn -0.771403431892395 -0.26757723093032837 -0.5773552656173706
vn 0.9447692632675171 0.3277362585067749 1.0053257710751495e-06
vn -0.32775089144706726 0.944764256477356 1.5066149217091152e-06
vn -0.3277437090873718 0.9447667598724365 1.0239650691801216e-06
vn 0.9447718858718872 0.32772842049598694 5.226282269177318e-07
vn 0.3277231752872467 -0.94477379322052 -4.826757162845752e-07
vn 0.3277326226234436 -0.9447705149650574 0.0
vn -0.9447667598724365 -0.3277434706687927 4.826487156606163e-07
vn -0.9447705149650574 -0.32773250341415405 0.0
vn -0.8997882008552551 0.4363269805908203 0.0
vn -0.8997881412506104 0.43632692098617554 0.0
vn -0.8997882008552551 0.4363269507884979 0.0
vn -0.8997882604598999 0.4363269507884979 0.0
vn -0.9447791576385498 -0.32770785689353943 0.0
vn 0.3276980519294739 -0.9447824954986572 0.0
vn 0.3276998996734619 -0.9447817802429199 0.0
vn -0.9447780251502991 -0.32771092653274536 0.0
vn -0.327721506357193 0.9447744488716125 0.0
vn -0.3277202844619751 0.9447748064994812 0.0
vn 0.9447792172431946 0.32770758867263794 0.0
vn 0.9447792768478394 0.3277074992656708 0.0
vn -0.2675376236438751 0.7714199423789978 0.5773515701293945
vn -0.7714086771011353 -0.26757001876831055 0.5773515105247498
vn 0.2675597667694092 -0.7714101672172546 0.5773545503616333
vn 0.7714152932167053 0.2675437033176422 0.5773549675941467
vn 0.2675687372684479 -0.7714090347290039 -0.5773519277572632
vn 0.771408200263977 0.2675519287586212 -0.5773606896400452
vn -0.26754850149154663 0.7714210152626038 -0.5773451328277588
vn -0.7714033126831055 -0.2675771117210388 -0.5773555636405945
f 1/1/1 2/2/2 3/3/3
f 3/4/3 4/5/4 1/6/1
f 3/7/3 5/8/5 6/9/6
f 6/10/6 4/11/4 3/12/3
f 1/13/1 7/14/7 8/15/8
f 8/16/8 2/17/2 1/18/1
f 1/19/1 4/20/4 6/21/6
f 6/22/6 7/23/7 1/24/1
f 3/25/3 2/26/2 8/27/8
f 8/28/8 5/29/5 3/30/3
f 7/31/7 6/32/6 5/33/5
f 5/34/5 8/35/8 7/36/7
f 9/37/9 10/38/10 11/39/11
f 11/40/11 12/41/12 9/42/9
f 9/43/9 12/44/12 13/45/13
f 13/46/13 14/47/14 9/48/9
f 11/49/11 10/50/10 15/51/15
f 15/52/15 16/53/16 11/54/11
f 15/55/15 14/56/14 13/57/13
f 13/58/13 16/59/16 15/60/15
f 17/61/17 18/62/18 19/63/19
f 20/64/20 19/65/19 18/66/18
f 21/67/21 22/68/22 23/69/23
f 23/70/23 24/71/24 21/72/21
f 21/73/21 24/74/24 25/75/25
f 25/76/25 26/77/26 21/78/21
f 23/79/23 22/80/22 27/81/27
f 27/82/27 28/83/28 23/84/23
f 27/85/27 26/86/26 25/87/25
f 25/88/25 28/89/28 27/90/27
f 29/91/29 30/92/30 31/93/31
f 31/94/31 32/95/32 29/96/29
f 31/97/31 33/98/33 34/99/34
f 34/100/34 32/101/32 31/102/31
f 29/103/29 35/104/35 36/105/36
f 36/106/36 30/107/30 29/108/29
f 29/109/29 32/110/32 34/111/34
f 34/112/34 35/113/35 29/114/29
f 31/115/31 30/116/30 36/117/36
f 36/118/36 33/119/33 31/120/31
f 35/121/35 34/122/34 33/123/33
f 33/124/33 36/125/36 35/126/35
f 37/127/37 38/128/38 39/129/39
f 39/130/39 40/131/40 37/132/37
f 39/133/39 41/134/41 42/135/42
f 42/136/42 40/137/40 39/138/39
f 37/139/37 43/140/43 44/141/44
f 44/142/44 38/143/38 37/144/37
f 37/145/37 40/146/40 42/147/42
f 42/148/42 43/149/43 37/150/37
f 39/151/39 38/152/38 44/153/44
f 44/154/44 41/155/41 39/156/39
f 43/157/43 42/158/42 41/159/41
f 41/160/41 44/161/44 43/162/43
f 45/163/45 46/164/46 47/165/47
f 47/166/47 48/167/48 45/168/45
f 45/169/45 48/170/48 49/171/49
f 49/172/49 50/173/50 45/174/45
f 47/175/47 46/176/46 51/177/51
f 51/178/51 52/179/52 47/180/47
f 51/181/51 50/182/50 49/183/49
f 49/184/49 52/185/52 51/186/51
f 53/187/53 54/188/54 55/189/55
f 55/190/55 56/191/56 53/192/53
f 57/193/57 58/194/58 59/195/59
f 59/196/59 60/197/60 57/198/57
f 57/199/57 60/200/60 61/201/61
f 61/202/61 62/203/62 57/204/57
f 59/205/59 58/206/58 63/207/63
f 63/208/63 64/209/64 59/210/59
f 63/211/63 62/212/62 61/213/61
f 61/214/61 64/215/64 63/216/63
f 65/217/65 66/218/66 67/219/67
f 67/220/67 68/221/68 65/222/65
f 67/223/67 69/224/69 70/225/70
f 70/226/70 68/227/68 67/228/67
f 65/229/65 71/230/71 72/231/72
f 72/232/72 66/233/66 65/234/65
f 65/235/65 68/236/68 70/237/70
f 70/238/70 71/239/71 65/240/65
f 67/241/67 66/242/66 72/243/72
f 72/244/72 69/245/69 67/246/67
f 71/247/71 70/248/70 69/249/69
f 69/250/69 72/251/72 71/252/71
