# Exported by Lightwave Blender addon
v 588.2940673828125 -1614.546875 526.1522216796875
v 485.375 -1572.4625244140625 526.1522827148438
v 588.2941284179688 -1614.546875 708.2323608398438
v 485.375 -1572.462646484375 708.2323608398438
v 590.269775390625 -1609.71533203125 520.9321899414062
v 649.5809326171875 -1464.6673583984375 520.9322509765625
v 487.3507080078125 -1567.6309814453125 520.9322509765625
v 546.6618041992188 -1422.5830078125 520.9322509765625
v 482.51904296875 -1565.6551513671875 526.1522216796875
v 541.8302001953125 -1420.607177734375 526.1522216796875
v 482.51904296875 -1565.6552734375 708.2323608398438
v 541.8302001953125 -1420.6072998046875 708.2323608398438
v 487.3507080078125 -1567.630859375 713.4523315429688
v 546.6618041992188 -1422.5828857421875 713.452392578125
v 590.2698364257812 -1609.7152099609375 713.4523315429688
v 649.5809326171875 -1464.667236328125 713.452392578125
v 595.1014404296875 -1611.6910400390625 708.2323608398438
v 654.41259765625 -1466.64306640625 708.2323608398438
v 595.1014404296875 -1611.6910400390625 526.1521606445312
v 654.41259765625 -1466.6429443359375 526.1522216796875
vt 0.50390625 0.076171875
vt 1.0595703125 0.076171875
vt 0.50390625 0.9861984252929688
vt 1.0595703125 0.076171875
vt 1.0595703125 0.9861984252929688
vt 0.50390625 0.9861984252929688
vt 0.495849609375 1.5439453125
vt 0.495849609375 2.3271484375
vt -0.06005859375 1.5439453125
vt 0.495849609375 2.3271484375
vt -0.06005859375 2.3271484375
vt -0.06005859375 1.5439453125
vt 0.923828125 1.5439453125
vt 0.923828125 2.3271484375
vt 0.01380157470703125 1.5439453125
vt 0.923828125 2.3271484375
vt 0.01380157470703125 2.3271484375
vt 0.01380157470703125 1.5439453125
vt 1.0595703125 1.5439453125
vt 1.0595703125 2.3271484375
vt 0.50390625 1.5439453125
vt 1.0595703125 2.3271484375
vt 0.50390625 2.3271484375
vt 0.50390625 1.5439453125
vt 0.98583984375 1.5439453125
vt 0.98583984375 2.3271484375
vt 0.07574462890625 1.5439453125
vt 0.98583984375 2.3271484375
vt 0.07574462890625 2.3271484375
vt 0.07574462890625 1.5439453125
vt -0.06005859375 2.3271484375
vt -0.08612060546875 2.3271484375
vt -0.06005859375 1.5439453125
vt -0.08612060546875 2.3271484375
vt -0.08612060546875 1.5439453125
vt -0.06005859375 1.5439453125
vt 0.0496826171875 1.5439453125
vt 0.07574462890625 1.5439453125
vt 0.0496826171875 2.3271484375
vt 0.07574462890625 1.5439453125
vt 0.07574462890625 2.3271484375
vt 0.0496826171875 2.3271484375
vt 0.01380157470703125 2.3271484375
vt -0.01229095458984375 2.3271484375
vt 0.01380157470703125 1.5439453125
vt -0.01229095458984375 2.3271484375
vt -0.01229095458984375 1.5439453125
vt 0.01380157470703125 1.5439453125
vt 0.50390625 2.3271484375
vt 0.477783203125 2.3271484375
vt 0.50390625 1.5439453125
vt 0.477783203125 2.3271484375
vt 0.477783203125 1.5439453125
vt 0.50390625 1.5439453125
vt 0.50390625 0.076171875
vt 0.477783203125 0.076171875
vt 0.50390625 0.0498046875
vt 0.477783203125 0.9861984252929688
vt 0.477783203125 0.076171875
vt 0.50390625 0.076171875
vt 0.50390625 0.076171875
vt 0.50390625 0.0498046875
vt 1.0595703125 0.076171875
vt 0.50390625 0.9861984252929688
vt 0.477783203125 0.9861984252929688
vt 0.50390625 0.076171875
vt 0.50390625 0.0498046875
vt 1.0595703125 0.0498046875
vt 1.0595703125 0.076171875
vt 0.50390625 0.9861984252929688
vt 0.50390625 1.0122909545898438
vt 0.477783203125 0.9861984252929688
vt 1.0595703125 0.0498046875
vt 1.0859375 0.076171875
vt 1.0595703125 0.076171875
vt 1.0595703125 1.0122909545898438
vt 0.50390625 1.0122909545898438
vt 0.50390625 0.9861984252929688
vt 1.0595703125 0.076171875
vt 1.0859375 0.076171875
vt 1.0595703125 0.9861984252929688
vt 1.0595703125 0.9861984252929688
vt 1.0595703125 1.0122909545898438
vt 0.50390625 0.9861984252929688
vt 1.0859375 0.076171875
vt 1.0859375 0.9861984252929688
vt 1.0595703125 0.9861984252929688
vt 1.0859375 0.9861984252929688
vt 1.0595703125 1.0122909545898438
vt 1.0595703125 0.9861984252929688
vn 0.015228476375341415 0.9397301077842712 0.34157779812812805
vn 0.6475690603256226 0.6811580657958984 0.341581791639328
vn 0.015228698030114174 0.9397260546684265 -0.3415891230106354
vn 0.6475692391395569 0.6811545491218567 -0.34158822894096375
vn -0.18688158690929413 0.4454652965068817 0.8755775094032288
vn -0.3542151153087616 0.14484074711799622 0.9238791465759277
vn 0.4454573392868042 0.1868910789489746 0.8755795955657959
vn 0.3542157709598541 -0.14484119415283203 0.9238788485527039
vn 0.9397275447845459 -0.015220863744616508 0.34158557653427124
vn 0.8551519513130188 -0.34967759251594543 0.3826756477355957
vn 0.9397282004356384 -0.015228379517793655 -0.34158313274383545
vn 0.8551506400108337 -0.3496772050857544 -0.38267892599105835
vn 0.44545629620552063 0.1868850290775299 -0.8755812644958496
vn 0.3542171120643616 -0.14484168589115143 -0.9238783121109009
vn -0.1868879497051239 0.44545260071754456 -0.8755825161933899
vn -0.354211688041687 0.14483992755413055 -0.9238806962966919
vn -0.6811502575874329 0.6475753784179688 -0.34158509969711304
vn -0.8551505208015442 0.34967708587646484 -0.3826795816421509
vn -0.6811564564704895 0.6475698351860046 0.3415832221508026
vn -0.855150043964386 0.3496764898300171 0.38268110156059265
f 1/1/1 2/2/2 3/3/3
f 2/4/2 4/5/4 3/6/3
f 5/7/5 6/8/6 7/9/7
f 6/10/6 8/11/8 7/12/7
f 9/13/9 10/14/10 11/15/11
f 10/16/10 12/17/12 11/18/11
f 13/19/13 14/20/14 15/21/15
f 14/22/14 16/23/16 15/24/15
f 17/25/17 18/26/18 19/27/19
f 18/28/18 20/29/20 19/30/19
f 8/31/8 10/32/10 7/33/7
f 10/34/10 9/35/9 7/36/7
f 5/37/5 19/38/19 6/39/6
f 19/40/19 20/41/20 6/42/6
f 12/43/12 14/44/14 11/45/11
f 14/46/14 13/47/13 11/48/11
f 16/49/16 18/50/18 15/51/15
f 18/52/18 17/53/17 15/54/15
f 1/55/1 19/56/19 5/57/5
f 17/58/17 19/59/19 1/60/1
f 1/61/1 5/62/5 2/63/2
f 3/64/3 17/65/17 1/66/1
f 5/67/5 7/68/7 2/69/2
f 3/70/3 15/71/15 17/72/17
f 7/73/7 9/74/9 2/75/2
f 13/76/13 15/77/15 3/78/3
f 2/79/2 9/80/9 4/81/4
f 4/82/4 13/83/13 3/84/3
f 9/85/9 11/86/11 4/87/4
f 11/88/11 13/89/13 4/90/4
