# Exported by Lightwave Blender addon
v 365.3699951171875 -283.3406677246094 414.8278503417969
v 365.5292663574219 -282.93798828125 414.4644775390625
v 365.40606689453125 -283.2494201660156 415.38458251953125
v 365.724609375 -282.4440612792969 414.6578369140625
v 365.7607421875 -282.3527526855469 415.21453857421875
v 365.6014709472656 -282.7554626464844 415.577880859375
v 366.4768371582031 -280.863037109375 412.552978515625
v 366.6360778808594 -280.4603576660156 412.18963623046875
v 366.83148193359375 -279.9664001464844 412.3829345703125
v 366.70831298828125 -280.2778015136719 413.30303955078125
v 366.512939453125 -280.77178955078125 413.10968017578125
v 366.8675842285156 -279.8751220703125 412.93963623046875
v 362.8758850097656 -282.2486572265625 415.384521484375
v 363.0712585449219 -281.75469970703125 415.577880859375
v 362.83978271484375 -282.3399353027344 414.82781982421875
v 363.23052978515625 -281.3520202636719 415.21453857421875
v 362.9990539550781 -281.9372253417969 414.4644775390625
v 363.1944274902344 -281.44329833984375 414.6578369140625
v 357.2774963378906 -280.1399230957031 414.82781982421875
v 357.5073547363281 -279.76513671875 414.4645080566406
v 357.7380065917969 -279.28515625 414.6578369140625
v 357.2783203125 -280.0346984863281 415.384521484375
v 356.4300842285156 -279.5809020996094 414.65313720703125
v 357.50897216796875 -279.5546875 415.5779113769531
v 356.3375549316406 -279.41412353515625 415.1907043457031
v 357.7388610839844 -279.1799011230469 415.21453857421875
v 356.66156005859375 -278.99566650390625 415.4032287597656
v 357.0780334472656 -278.7439880371094 415.07830810546875
v 357.1705322265625 -278.9107971191406 414.5408630371094
v 356.8465576171875 -279.3292236328125 414.3282470703125
v 356.9010009765625 -278.45831298828125 414.27099609375
v 356.508544921875 -278.76177978515625 413.98980712890625
v 355.95513916015625 -278.7834777832031 414.1775207519531
v 356.7400207519531 -278.1765441894531 414.7398681640625
v 356.53118896484375 -278.16070556640625 413.5138244628906
v 356.1866149902344 -278.1982421875 414.9275817871094
v 356.919189453125 -277.97576904296875 413.88885498046875
v 356.7626647949219 -277.5754699707031 414.26385498046875
v 355.7941589355469 -278.501708984375 414.64642333984375
v 356.2181396484375 -277.3600769042969 414.2638854980469
v 355.8301696777344 -277.5450439453125 413.88885498046875
v 355.9866638183594 -277.9453125 413.5137939453125
v 356.7727355957031 -276.72222900390625 413.5950012207031
v 356.46258544921875 -276.8176574707031 413.1260986328125
v 356.541259765625 -277.3074645996094 412.8449401855469
v 357.1615905761719 -277.11663818359375 413.78271484375
v 357.6715393066406 -276.4635009765625 413.1156921386719
v 357.2402648925781 -277.6064758300781 413.5015869140625
v 357.80316162109375 -276.93194580078125 413.4405822753906
v 356.93011474609375 -277.7018737792969 413.0326843261719
v 357.75323486328125 -277.45880126953125 413.22802734375
v 357.5716857910156 -277.5171813964844 412.6905822753906
v 357.4400634765625 -277.0487060546875 412.3656311035156
v 357.489990234375 -276.5218811035156 412.5782775878906
v 358.4486083984375 -277.2220153808594 412.1896057128906
v 358.60870361328125 -276.714111328125 412.3829345703125
v 358.6800842285156 -276.63677978515625 412.9396667480469
v 358.35992431640625 -277.6526184082031 412.5530090332031
v 364.1915588378906 -278.9222717285156 412.3829345703125
v 358.4313049316406 -277.5753173828125 413.10968017578125
v 363.9961853027344 -279.41619873046875 412.18963623046875
v 363.8369140625 -279.8188781738281 412.55303955078125
v 358.5914001464844 -277.0673828125 413.3030700683594
v 363.8730163574219 -279.7276306152344 413.10968017578125
v 364.0683898925781 -279.233642578125 413.30303955078125
v 364.2276611328125 -278.8309631347656 412.93963623046875
vt 0.0 1.0
vt 0.0 1.0
vt 0.0 1.0
vt 0.0 1.0
vt 0.0 1.0
vt 0.0 1.0
vt 0.0 1.0
vt 0.0 1.0
vt 0.0 1.0
vt 0.0 1.0
vt 0.0 1.0
vt 0.0 1.0
vt 0.0 1.0
vt 0.0 1.0
vt 0.0 1.0
vt 0.0 1.0
vt 0.0 1.0
vt 0.0 1.0
vt 0.0 1.0
vt 0.0 1.0
vt 0.0 1.0
vt 0.0 1.0
vt 0.0 1.0
vt 0.0 1.0
vt 0.0 1.0
vt 0.0 1.0
vt 0.0 1.0
vt 0.0 1.0
vt 0.0 1.0
vt 0.0 1.0
vt 0.0 1.0
vt 0.0 1.0
vt 0.0 1.0
vt 0.0 1.0
vt 0.0 1.0
vt 0.0 1.0
vt 0.0 1.0
vt 0.0 1.0
vt 0.0 1.0
vt 0.0 1.0
vt 0.0 1.0
vt 0.0 1.0
vt 0.0 1.0
vt 0.0 1.0
vt 0.0 1.0
vt 0.0 1.0
vt 0.0 1.0
vt 0.0 1.0
vt 0.0 1.0
vt 0.0 1.0
vt 0.0 1.0
vt 0.0 1.0
vt 0.0 1.0
vt 0.0 1.0
vt 0.0 1.0
vt 0.0 1.0
vt 0.0 1.0
vt 0.0 1.0
vt 0.0 1.0
vt 0.0 1.0
vt 0.0 1.0
vt 0.0 1.0
vt 0.0 1.0
vt 0.0 1.0
vt 0.0 1.0
vt 0.0 1.0
vt 0.0 1.0
vt 0.0 1.0
vt 0.0 1.0
vt 0.0 1.0
vt 0.0 1.0
vt 0.0 1.0
vt 0.0 1.0
vt 0.0 1.0
vt 0.0 1.0
vt 0.0 1.0
vt 0.0 1.0
vt 0.0 1.0
vt 0.0 1.0
vt 0.0 1.0
vt 0.0 1.0
vt 0.0 1.0
vt 0.0 1.0
vt 0.0 1.0
vt 0.0 1.0
vt 0.0 1.0
vt 0.0 1.0
vt 0.0 1.0
vt 0.0 1.0
vt 0.0 1.0
vt 0.0 1.0
vt 0.0 1.0
vt 0.0 1.0
vt 0.0 1.0
vt 0.0 1.0
vt 0.0 1.0
vt 0.0 1.0
vt 0.0 1.0
vt 0.0 1.0
vt 0.0 1.0
vt 0.0 1.0
vt 0.0 1.0
vt 0.0 1.0
vt 0.0 1.0
vt 0.0 1.0
vt 0.0 1.0
vt 0.0 1.0
vt 0.0 1.0
vt 0.0 1.0
vt 0.0 1.0
vt 0.0 1.0
vt 0.0 1.0
vt 0.0 1.0
vt 0.0 1.0
vt 0.0 1.0
vt 0.0 1.0
vt 0.0 1.0
vt 0.0 1.0
vt 0.0 1.0
vt 0.0 1.0
vt 0.0 1.0
vt 0.0 1.0
vt 0.0 1.0
vt 0.0 1.0
vt 0.0 1.0
vt 0.0 1.0
vt 0.0 1.0
vt 0.0 1.0
vt 0.0 1.0
vt 0.0 1.0
vt 0.0 1.0
vt 0.0 1.0
vt 0.0 1.0
vt 0.0 1.0
vt 0.0 1.0
vt 0.0 1.0
vt 0.0 1.0
vt 0.0 1.0
vt 0.0 1.0
vt 0.0 1.0
vt 0.0 1.0
vt 0.0 1.0
vt 0.0 1.0
vt 0.0 1.0
vt 0.0 1.0
vt 0.0 1.0
vt 0.0 1.0
vt 0.0 1.0
vt 0.0 1.0
vt 0.0 1.0
vt 0.0 1.0
vt 0.0 1.0
vt 0.0 1.0
vt 0.0 1.0
vt 0.0 1.0
vt 0.0 1.0
vt 0.0 1.0
vt 0.0 1.0
vt 0.0 1.0
vt 0.0 1.0
vt 0.0 1.0
vt 0.0 1.0
vt 0.0 1.0
vt 0.0 1.0
vt 0.0 1.0
vt 0.0 1.0
vt 0.0 1.0
vt 0.0 1.0
vt 0.0 1.0
vt 0.0 1.0
vt 0.0 1.0
vt 0.0 1.0
vt 0.0 1.0
vt 0.0 1.0
vt 0.0 1.0
vt 0.0 1.0
vt 0.0 1.0
vt 0.0 1.0
vt 0.0 1.0
vt 0.0 1.0
vt 0.0 1.0
vt 0.0 1.0
vt 0.0 1.0
vt 0.0 1.0
vt 0.0 1.0
vt 0.0 1.0
vt 0.0 1.0
vt 0.0 1.0
vt 0.0 1.0
vt 0.0 1.0
vt 0.0 1.0
vt 0.0 1.0
vt 0.0 1.0
vt 0.0 1.0
vt 0.0 1.0
vt 0.0 1.0
vt 0.0 1.0
vt 0.0 1.0
vt 0.0 1.0
vt 0.0 1.0
vt 0.0 1.0
vt 0.0 1.0
vt 0.0 1.0
vt 0.0 1.0
vt 0.0 1.0
vt 0.0 1.0
vt 0.0 1.0
vt 0.0 1.0
vt 0.0 1.0
vt 0.0 1.0
vt 0.0 1.0
vt 0.0 1.0
vt 0.0 1.0
vt 0.0 1.0
vt 0.0 1.0
vt 0.0 1.0
vt 0.0 1.0
vt 0.0 1.0
vt 0.0 1.0
vt 0.0 1.0
vt 0.0 1.0
vt 0.0 1.0
vt 0.0 1.0
vt 0.0 1.0
vt 0.0 1.0
vt 0.0 1.0
vt 0.0 1.0
vt 0.0 1.0
vt 0.0 1.0
vt 0.0 1.0
vt 0.0 1.0
vt 0.0 1.0
vt 0.0 1.0
vt 0.0 1.0
vt 0.0 1.0
vt 0.0 1.0
vt 0.0 1.0
vt 0.0 1.0
vt 0.0 1.0
vt 0.0 1.0
vt 0.0 1.0
vt 0.0 1.0
vt 0.0 1.0
vt 0.0 1.0
vt 0.0 1.0
vt 0.0 1.0
vt 0.0 1.0
vt 0.0 1.0
vt 0.0 1.0
vt 0.0 1.0
vt 0.0 1.0
vt 0.0 1.0
vt 0.0 1.0
vt 0.0 1.0
vt 0.0 1.0
vt 0.0 1.0
vt 0.0 1.0
vt 0.0 1.0
vt 0.0 1.0
vt 0.0 1.0
vt 0.0 1.0
vt 0.0 1.0
vt 0.0 1.0
vt 0.0 1.0
vt 0.0 1.0
vt 0.0 1.0
vt 0.0 1.0
vt 0.0 1.0
vt 0.0 1.0
vt 0.0 1.0
vt 0.0 1.0
vt 0.0 1.0
vt 0.0 1.0
vt 0.0 1.0
vt 0.0 1.0
vt 0.0 1.0
vt 0.0 1.0
vt 0.0 1.0
vt 0.0 1.0
vt 0.0 1.0
vt 0.0 1.0
vt 0.0 1.0
vt 0.0 1.0
vt 0.0 1.0
vt 0.0 1.0
vt 0.0 1.0
vt 0.0 1.0
vt 0.0 1.0
vt 0.0 1.0
vt 0.0 1.0
vt 0.0 1.0
vt 0.0 1.0
vt 0.0 1.0
vt 0.0 1.0
vt 0.0 1.0
vt 0.0 1.0
vt 0.0 1.0
vt 0.0 1.0
vt 0.0 1.0
vt 0.0 1.0
vt 0.0 1.0
vt 0.0 1.0
vt 0.0 1.0
vt 0.0 1.0
vt 0.0 1.0
vt 0.0 1.0
vt 0.0 1.0
vt 0.0 1.0
vt 0.0 1.0
vt 0.0 1.0
vt 0.0 1.0
vt 0.0 1.0
vt 0.0 1.0
vt 0.0 1.0
vt 0.0 1.0
vt 0.0 1.0
vt 0.0 1.0
vt 0.0 1.0
vt 0.0 1.0
vt 0.0 1.0
vt 0.0 1.0
vt 0.0 1.0
vt 0.0 1.0
vt 0.0 1.0
vt 0.0 1.0
vt 0.0 1.0
vt 0.0 1.0
vt 0.0 1.0
vt 0.0 1.0
vt 0.0 1.0
vt 0.0 1.0
vt 0.0 1.0
vt 0.0 1.0
vt 0.0 1.0
vt 0.0 1.0
vt 0.0 1.0
vt 0.0 1.0
vt 0.0 1.0
vt 0.0 1.0
vt 0.0 1.0
vt 0.0 1.0
vt 0.0 1.0
vt 0.0 1.0
vt 0.0 1.0
vt 0.0 1.0
vt 0.0 1.0
vt 0.0 1.0
vt 0.0 1.0
vt 0.0 1.0
vt 0.0 1.0
vt 0.0 1.0
vt 0.0 1.0
vt 0.0 1.0
vt 0.0 1.0
vt 0.0 1.0
vt 0.0 1.0
vt 0.0 1.0
vt 0.0 1.0
vt 0.0 1.0
vt 0.0 1.0
vt 0.0 1.0
vt 0.0 1.0
vt 0.0 1.0
vt 0.0 1.0
vt 0.0 1.0
vt 0.0 1.0
vt 0.0 1.0
vt 0.0 1.0
vt 0.0 1.0
vt 0.0 1.0
vt 0.0 1.0
vt 0.0 1.0
vt 0.0 1.0
vt 0.0 1.0
vt 0.0 1.0
vt 0.0 1.0
vt 0.0 1.0
vt 0.0 1.0
vt 0.0 1.0
vt 0.0 1.0
vt 0.0 1.0
vt 0.0 1.0
vt 0.0 1.0
vt 0.0 1.0
vn 0.2934037148952484 -0.9167648553848267 -0.2710284888744354
vn 0.516653299331665 -0.3522864282131195 -0.7803612947463989
vn 0.34395143389701843 -0.788837194442749 0.5093459486961365
vn 0.7905001640319824 0.3401127755641937 -0.509345293045044
vn 0.8411130905151367 0.4680599868297577 0.2710137367248535
vn 0.61788409948349 -0.0964273139834404 0.780333936214447
vn 0.2933730185031891 -0.9167659878730774 -0.27105796337127686
vn 0.5165877938270569 -0.3523269593715668 -0.7803862690925598
vn 0.7904905676841736 0.3401000201702118 -0.5093688368797302
vn 0.617845892906189 -0.09638707339763641 0.7803691625595093
vn 0.34398990869522095 -0.7888422608375549 0.5093122124671936
vn 0.8411175012588501 0.4680611193180084 0.2709983289241791
vn -0.28175869584083557 -0.7123594284057617 0.6427722573280334
vn 0.06385798007249832 0.16146010160446167 0.9848110675811768
vn -0.34561291337013245 -0.8738186955451965 -0.34204185009002686
vn 0.3456158936023712 0.8738226294517517 0.34202876687049866
vn -0.06385108828544617 -0.16143089532852173 -0.9848163723945618
vn 0.28175294399261475 0.7123622894287109 -0.6427715420722961
vn -0.41374626755714417 -0.8547742366790771 -0.3133288323879242
vn -0.02176796831190586 -0.22343505918979645 -0.9744757413864136
vn 0.40300893783569336 0.6570419073104858 -0.6370869874954224
vn -0.40299102663993835 -0.6570993065834045 0.6370390057563782
vn -0.5891736149787903 -0.735784113407135 -0.3339105546474457
vn -0.012483099475502968 0.15981774032115936 0.9870675802230835
vn -0.7117776274681091 -0.4301190972328186 0.5553109049797058
vn 0.39674264192581177 0.8347908854484558 0.381732314825058
vn -0.19441044330596924 0.26226332783699036 0.945210337638855
vn 0.5175066590309143 0.7241230010986328 0.4558866322040558
vn 0.7117665410041809 0.43016260862350464 -0.5552913546562195
vn 0.08991075307130814 -0.35706454515457153 -0.9297423958778381
vn 0.9463484287261963 0.03713899850845337 -0.3210066258907318
vn 0.19057054817676544 -0.5245620012283325 -0.8297696113586426
vn -0.7180972099304199 -0.5195366144180298 -0.4630531370639801
vn 0.6180486083030701 0.5562984943389893 0.5554710030555725
vn 0.18195927143096924 -0.6974405646324158 -0.6931575536727905
vn -0.3232632875442505 0.4787123501300812 0.8162935972213745
vn 0.9299035668373108 -0.36780333518981934 2.1912615920882672e-05
vn 0.6098076105117798 0.3842674493789673 0.6931618452072144
vn -0.9463533759117126 -0.03710601478815079 0.32099583745002747
vn -0.31498730182647705 0.7014727592468262 0.6393113732337952
vn -0.9299063682556152 0.3677965998649597 3.883202680299291e-06
vn -0.7096102833747864 -0.2962031960487366 -0.6393096446990967
vn -0.16841380298137665 0.8701955080032349 0.46302977204322815
vn -0.6649029850959778 0.6744206547737122 -0.32103097438812256
vn -0.5632562637329102 -0.12803684175014496 -0.8163020610809326
vn 0.49784621596336365 0.25229132175445557 0.8297579288482666
vn 0.07353556901216507 0.9397526383399963 0.3338523209095001
vn 0.6649259328842163 -0.6744042038917542 0.3210178315639496
vn 0.3097725808620453 0.19900399446487427 0.9297518134117126
vn 0.0703115314245224 -0.8285664319992065 -0.5554582476615906
vn 0.22495712339878082 -0.8006463050842285 0.5553015470504761
vn -0.11782937496900558 -0.8821985721588135 -0.4558968245983124
vn -0.3212239146232605 -0.05822903290390968 -0.9452113509178162
vn -0.22496391832828522 0.8006892800331116 -0.5552367568016052
vn -0.11842028051614761 -0.10812997817993164 -0.9870585203170776
vn 0.15551146864891052 0.7549538612365723 -0.6370721459388733
vn 0.2828858494758606 0.906554102897644 0.3132655918598175
vn -0.2816171646118164 -0.8803296089172363 -0.38172173500061035
vn 0.2817397713661194 0.7123181223869324 -0.6428263187408447
vn -0.1555418074131012 -0.7549746632575989 0.6370399594306946
vn -0.06388819962739944 -0.16153115034103394 -0.9847974181175232
vn -0.3456198275089264 -0.8738313913345337 -0.34200233221054077
vn 0.1369011104106903 0.177908793091774 0.9744776487350464
vn -0.28175416588783264 -0.7123633623123169 0.6427697539329529
vn 0.06388003379106522 0.16150043904781342 0.9848029017448425
vn 0.34562766551971436 0.8738425970077515 0.3419656753540039
f 1/1/1 2/2/2 3/3/3
f 2/4/2 4/5/4 3/6/3
f 4/7/4 5/8/5 3/9/3
f 5/10/5 6/11/6 3/12/3
f 7/13/7 8/14/8 9/15/9
f 7/16/7 9/17/9 10/18/10
f 11/19/11 7/20/7 10/21/10
f 12/22/12 10/23/10 9/24/9
f 3/25/3 13/26/13 1/27/1
f 14/28/14 13/29/13 3/30/3
f 6/31/6 14/32/14 3/33/3
f 13/34/13 15/35/15 1/36/1
f 1/37/1 15/38/15 2/39/2
f 16/40/16 14/41/14 6/42/6
f 5/43/5 16/44/16 6/45/6
f 15/46/15 17/47/17 2/48/2
f 2/49/2 17/50/17 4/51/4
f 4/52/4 18/53/18 5/54/5
f 17/55/17 18/56/18 4/57/4
f 18/58/18 16/59/16 5/60/5
f 15/61/15 19/62/19 17/63/17
f 17/64/17 20/65/20 18/66/18
f 19/67/19 20/68/20 17/69/17
f 18/70/18 21/71/21 16/72/16
f 20/73/20 21/74/21 18/75/18
f 22/76/22 19/77/19 15/78/15
f 13/79/13 22/80/22 15/81/15
f 19/82/19 23/83/23 20/84/20
f 24/85/24 22/86/22 13/87/13
f 14/88/14 24/89/24 13/90/13
f 22/91/22 25/92/25 19/93/19
f 25/94/25 23/95/23 19/96/19
f 16/97/16 26/98/26 14/99/14
f 26/100/26 24/101/24 14/102/14
f 21/103/21 26/104/26 16/105/16
f 24/106/24 27/107/27 22/108/22
f 27/109/27 25/110/25 22/111/22
f 26/112/26 28/113/28 24/114/24
f 28/115/28 27/116/27 24/117/24
f 21/118/21 29/119/29 26/120/26
f 29/121/29 28/122/28 26/123/26
f 20/124/20 30/125/30 21/126/21
f 30/127/30 29/128/29 21/129/21
f 23/130/23 30/131/30 20/132/20
f 29/133/29 31/134/31 28/135/28
f 30/136/30 32/137/32 29/138/29
f 32/139/32 31/140/31 29/141/29
f 23/142/23 33/143/33 30/144/30
f 33/145/33 32/146/32 30/147/30
f 31/148/31 34/149/34 28/150/28
f 28/151/28 34/152/34 27/153/27
f 32/154/32 35/155/35 31/156/31
f 34/157/34 36/158/36 27/159/27
f 27/160/27 36/161/36 25/162/25
f 31/163/31 37/164/37 34/165/34
f 35/166/35 37/167/37 31/168/31
f 34/169/34 38/170/38 36/171/36
f 37/172/37 38/173/38 34/174/34
f 36/175/36 39/176/39 25/177/25
f 25/178/25 39/179/39 23/180/23
f 39/181/39 33/182/33 23/183/23
f 36/184/36 40/185/40 39/186/39
f 38/187/38 40/188/40 36/189/36
f 39/190/39 41/191/41 33/192/33
f 40/193/40 41/194/41 39/195/39
f 33/196/33 42/197/42 32/198/32
f 41/199/41 42/200/42 33/201/33
f 42/202/42 35/203/35 32/204/32
f 40/205/40 43/206/43 41/207/41
f 41/208/41 44/209/44 42/210/42
f 43/211/43 44/212/44 41/213/41
f 42/214/42 45/215/45 35/216/35
f 44/217/44 45/218/45 42/219/42
f 46/220/46 43/221/43 40/222/40
f 38/223/38 46/224/46 40/225/40
f 43/226/43 47/227/47 44/228/44
f 48/229/48 46/230/46 38/231/38
f 37/232/37 48/233/48 38/234/38
f 46/235/46 49/236/49 43/237/43
f 49/238/49 47/239/47 43/240/43
f 35/241/35 50/242/50 37/243/37
f 50/244/50 48/245/48 37/246/37
f 45/247/45 50/248/50 35/249/35
f 48/250/48 51/251/51 46/252/46
f 51/253/51 49/254/49 46/255/46
f 50/256/50 52/257/52 48/258/48
f 52/259/52 51/260/51 48/261/48
f 45/262/45 53/263/53 50/264/50
f 53/265/53 52/266/52 50/267/50
f 44/268/44 54/269/54 45/270/45
f 54/271/54 53/272/53 45/273/45
f 47/274/47 54/275/54 44/276/44
f 53/277/53 55/278/55 52/279/52
f 54/280/54 56/281/56 53/282/53
f 56/283/56 55/284/55 53/285/53
f 47/286/47 57/287/57 54/288/54
f 57/289/57 56/290/56 54/291/54
f 55/292/55 58/293/58 52/294/52
f 52/295/52 58/296/58 51/297/51
f 56/298/56 59/299/59 55/300/55
f 58/301/58 60/302/60 51/303/51
f 51/304/51 60/305/60 49/306/49
f 55/307/55 61/308/61 58/309/58
f 59/310/59 61/311/61 55/312/55
f 58/313/58 62/314/62 60/315/60
f 61/316/61 62/317/62 58/318/58
f 60/319/60 63/320/63 49/321/49
f 49/322/49 63/323/63 47/324/47
f 63/325/63 57/326/57 47/327/47
f 60/328/60 64/329/64 63/330/63
f 62/331/62 64/332/64 60/333/60
f 63/334/63 65/335/65 57/336/57
f 64/337/64 65/338/65 63/339/63
f 57/340/57 66/341/66 56/342/56
f 65/343/65 66/344/66 57/345/57
f 66/346/66 59/347/59 56/348/56
f 64/349/64 11/350/11 65/351/65
f 7/352/7 11/353/11 64/354/64
f 62/355/62 7/356/7 64/357/64
f 11/358/11 10/359/10 65/360/65
f 65/361/65 10/362/10 66/363/66
f 8/364/8 7/365/7 62/366/62
f 61/367/61 8/368/8 62/369/62
f 10/370/10 12/371/12 66/372/66
f 66/373/66 12/374/12 59/375/59
f 9/376/9 8/377/8 61/378/61
f 12/379/12 9/380/9 59/381/59
f 59/382/59 9/383/9 61/384/61
