# Exported by Lightwave Blender addon
v 2248.156494140625 -950.9923095703125 739.9761352539062
v 2248.156494140625 -950.9923095703125 560.2711181640625
v 2300.502197265625 -971.8489990234375 560.2711181640625
v 2300.502197265625 -971.8489990234375 739.9761352539062
v 2354.46240234375 -993.3489990234375 739.9761352539062
v 2301.810302734375 -972.3701171875 739.9761352539062
v 2301.810302734375 -972.3700561523438 560.2711181640625
v 2354.46240234375 -993.348876953125 560.2711181640625
vt 0.251220703125 0.9884872436523438
vt 0.251220703125 0.22509765625
vt 0.497802734375 0.22509765625
vt 0.497802734375 0.22509765625
vt 0.497802734375 0.9884872436523438
vt 0.251220703125 0.9884872436523438
vt 0.2491455078125 0.9884872436523438
vt 0.00260162353515625 0.9884872436523438
vt 0.00260162353515625 0.22509765625
vt 0.00260162353515625 0.22509765625
vt 0.2491455078125 0.22509765625
vt 0.2491455078125 0.9884872436523438
vn -0.3701420724391937 -0.9289751648902893 0.0
vn -0.3701420724391937 -0.9289752244949341 0.0
vn -0.3701420724391937 -0.9289751648902893 0.0
vn -0.3701420724391937 -0.9289752244949341 0.0
vn -0.3701435625553131 -0.9289745092391968 -3.7687991039092594e-07
vn -0.3701437711715698 -0.9289745092391968 -3.155176386826497e-07
vn -0.37014299631118774 -0.9289747476577759 -5.69673261452408e-07
vn -0.3701428472995758 -0.9289748668670654 -6.310355615823937e-07
f 1/1/1 2/2/2 3/3/3
f 3/4/3 4/5/4 1/6/1
f 5/7/5 6/8/6 7/9/7
f 7/10/7 8/11/8 5/12/5
