# Exported by Lightwave Blender addon
v 3439.728515625 -1385.67578125 31.899112701416016
v 3439.728515625 -1385.67578125 313.9610900878906
v 3342.36474609375 -1346.41357421875 31.89911460876465
v 3342.364990234375 -1346.413330078125 313.9610900878906
vt 1.0361328125 -1.462890625
vt 1.0361328125 1.13134765625
vt 0.07086181640625 -1.462890625
vt 1.0361328125 1.13134765625
vt 0.07086181640625 1.13134765625
vt 0.07086181640625 -1.462890625
vn -0.3739897906780243 -0.9274327754974365 0.0
vn -0.3739919662475586 -0.9274319410324097 8.709523058314517e-07
vn -0.3739905059337616 -0.9274325966835022 2.555038634000084e-07
vn -0.3739926517009735 -0.9274317026138306 1.1264565955571015e-06
f 1/1/1 2/2/2 3/3/3
f 2/4/2 4/5/4 3/6/3
