# Exported by Lightwave Blender addon
v 2527.321044921875 -1063.442138671875 1066.6854248046875
v 2527.321044921875 -1063.442138671875 886.9804077148438
v 2579.666748046875 -1084.298828125 886.9804077148438
v 2579.666748046875 -1084.298828125 1066.6854248046875
v 2633.626708984375 -1105.798828125 1066.6854248046875
v 2580.974609375 -1084.820068359375 1066.6854248046875
v 2580.974609375 -1084.820068359375 886.9804077148438
v 2633.626953125 -1105.798828125 886.9804077148438
vt 0.251220703125 0.9884872436523438
vt 0.251220703125 0.22509765625
vt 0.497802734375 0.22509765625
vt 0.497802734375 0.22509765625
vt 0.497802734375 0.9884872436523438
vt 0.251220703125 0.9884872436523438
vt 0.2491455078125 0.9884872436523438
vt 0.00260162353515625 0.9884872436523438
vt 0.00260162353515625 0.22509765625
vt 0.00260162353515625 0.22509765625
vt 0.2491455078125 0.22509765625
vt 0.2491455078125 0.9884872436523438
vn -0.3701420724391937 -0.9289751648902893 0.0
vn -0.3701420724391937 -0.9289752244949341 0.0
vn -0.3701420724391937 -0.9289751648902893 0.0
vn -0.3701420724391937 -0.9289752244949341 0.0
vn -0.3701416254043579 -0.9289753437042236 -9.779689236211198e-08
vn -0.3701419234275818 -0.9289752840995789 0.0
vn -0.3701407313346863 -0.9289757609367371 -4.050626216667297e-07
vn -0.37014040350914 -0.9289758205413818 -5.028591658629011e-07
f 1/1/1 2/2/2 3/3/3
f 3/4/3 4/5/4 1/6/1
f 5/7/5 6/8/6 7/9/7
f 7/10/7 8/11/8 5/12/5
