# Exported by Lightwave Blender addon
v -96.24357604980469 400.2803649902344 549.7235107421875
v -96.92185974121094 400.6870422363281 549.6774291992188
v -96.99787902832031 400.735595703125 550.47900390625
v -96.33746337890625 400.3322448730469 550.661865234375
v -97.39114379882812 400.966796875 551.5079345703125
v -96.82364654541016 400.61883544921875 551.935791015625
v -98.28987121582031 401.4958801269531 552.5506591796875
v -97.93267059326172 401.27203369140625 553.2229614257812
v -99.51392364501953 402.2168273925781 553.0523071289062
v -99.44259643554688 402.1610412597656 553.8419799804688
v -100.83043670654297 402.99200439453125 552.8793334960938
v -101.06346130371094 403.1155700683594 553.6286010742188
v -101.90927124023438 403.6271667480469 552.0865478515625
v -102.39491271972656 403.899658203125 552.6503295898438
v -102.59190368652344 404.029541015625 550.8358764648438
v -103.23863983154297 404.3961181640625 551.10400390625
v -102.78128051757812 404.1374206542969 549.6774291992188
v -103.46592712402344 404.5333251953125 549.7235107421875
v -102.78128814697266 404.1374206542969 530.26806640625
v -103.4659423828125 404.5333251953125 530.2219848632812
v -104.50300598144531 402.77215576171875 530.2219848632812
v -103.82471466064453 402.36541748046875 530.26806640625
v -104.50299835205078 402.77215576171875 549.7235107421875
v -103.82471466064453 402.36541748046875 549.6774291992188
v -104.27281951904297 402.639892578125 551.1039428710938
v -103.6385269165039 402.252197265625 550.8358154296875
v -103.42938232421875 402.1429138183594 552.650390625
v -102.95555114746094 401.8503723144531 552.0865478515625
v -102.09788513183594 401.35888671875 553.628662109375
v -101.87678527832031 401.215087890625 552.8793334960938
v -100.47695922851562 400.40447998046875 553.8419799804688
v -100.56033325195312 400.4397888183594 553.0523071289062
v -98.9671630859375 399.5152587890625 553.2229614257812
v -99.33613586425781 399.7190856933594 552.5506591796875
v -97.85800170898438 398.8623046875 551.935791015625
v -98.43755340576172 399.1897888183594 551.5079956054688
v -97.37155151367188 398.5761413574219 550.661865234375
v -98.04460906982422 398.9580078125 550.4789428710938
v -97.28063201904297 398.5191955566406 549.7235107421875
v -97.96528625488281 398.91510009765625 549.6774291992188
vt 0.68310546875 0.42041015625
vt 0.68310546875 0.423828125
vt 0.68017578125 0.423828125
vt 0.68017578125 0.42041015625
vt 0.68310546875 0.42041015625
vt 0.68017578125 0.423828125
vt 0.68017578125 0.42041015625
vt 0.68017578125 0.423828125
vt 0.67431640625 0.423828125
vt 0.67431640625 0.42041015625
vt 0.68017578125 0.42041015625
vt 0.67431640625 0.423828125
vt 0.67431640625 0.42041015625
vt 0.67431640625 0.423828125
vt 0.66552734375 0.423828125
vt 0.66552734375 0.42041015625
vt 0.67431640625 0.42041015625
vt 0.66552734375 0.423828125
vt 0.66552734375 0.42041015625
vt 0.66552734375 0.423828125
vt 0.65576171875 0.423828125
vt 0.65576171875 0.42041015625
vt 0.66552734375 0.42041015625
vt 0.65576171875 0.423828125
vt 0.65576171875 0.42041015625
vt 0.65576171875 0.423828125
vt 0.6455078125 0.423828125
vt 0.6455078125 0.42041015625
vt 0.65576171875 0.42041015625
vt 0.6455078125 0.423828125
vt 0.6455078125 0.42041015625
vt 0.6455078125 0.423828125
vt 0.6357421875 0.423828125
vt 0.6357421875 0.42041015625
vt 0.6455078125 0.42041015625
vt 0.6357421875 0.423828125
vt 0.6357421875 0.42041015625
vt 0.6357421875 0.423828125
vt 0.62646484375 0.423828125
vt 0.62646484375 0.42041015625
vt 0.6357421875 0.42041015625
vt 0.62646484375 0.423828125
vt 0.62646484375 0.42041015625
vt 0.62646484375 0.423828125
vt 0.619140625 0.423828125
vt 0.619140625 0.42041015625
vt 0.62646484375 0.42041015625
vt 0.619140625 0.423828125
vt 0.619140625 0.42041015625
vt 0.619140625 0.423828125
vt 0.5068359375 0.423828125
vt 0.5068359375 0.42041015625
vt 0.619140625 0.42041015625
vt 0.5068359375 0.423828125
vt 0.53125 0.04296875
vt 0.53125 0.04638671875
vt 0.42041015625 0.04296875
vt 0.53125 0.04638671875
vt 0.42041015625 0.04638671875
vt 0.42041015625 0.04296875
vt 0.42041015625 0.04296875
vt 0.42041015625 0.04638671875
vt 0.4130859375 0.04296875
vt 0.42041015625 0.04638671875
vt 0.4130859375 0.04638671875
vt 0.4130859375 0.04296875
vt 0.4130859375 0.04296875
vt 0.4130859375 0.04638671875
vt 0.40380859375 0.04296875
vt 0.4130859375 0.04638671875
vt 0.40380859375 0.04638671875
vt 0.40380859375 0.04296875
vt 0.40380859375 0.04296875
vt 0.40380859375 0.04638671875
vt 0.39404296875 0.04296875
vt 0.40380859375 0.04638671875
vt 0.39404296875 0.04638671875
vt 0.39404296875 0.04296875
vt 0.39404296875 0.04296875
vt 0.39404296875 0.04638671875
vt 0.384033203125 0.04296875
vt 0.39404296875 0.04638671875
vt 0.384033203125 0.04638671875
vt 0.384033203125 0.04296875
vt 0.384033203125 0.04296875
vt 0.384033203125 0.04638671875
vt 0.374267578125 0.04296875
vt 0.384033203125 0.04638671875
vt 0.374267578125 0.04638671875
vt 0.374267578125 0.04296875
vt 0.374267578125 0.04296875
vt 0.374267578125 0.04638671875
vt 0.365234375 0.04296875
vt 0.374267578125 0.04638671875
vt 0.365234375 0.04638671875
vt 0.365234375 0.04296875
vt 0.365234375 0.04296875
vt 0.365234375 0.04638671875
vt 0.359375 0.04296875
vt 0.365234375 0.04638671875
vt 0.359375 0.04638671875
vt 0.359375 0.04296875
vt 0.359375 0.04296875
vt 0.359375 0.04638671875
vt 0.3564453125 0.04296875
vt 0.359375 0.04638671875
vt 0.3564453125 0.04638671875
vt 0.3564453125 0.04296875
vt 0.7431640625 0.8634033203125
vt 0.7431640625 0.855712890625
vt 0.87255859375 0.8634033203125
vt 0.7431640625 0.855712890625
vt 0.87255859375 0.855712890625
vt 0.87255859375 0.8634033203125
vt 0.87255859375 0.8634033203125
vt 0.87255859375 0.855712890625
vt 0.88037109375 0.8634033203125
vt 0.87255859375 0.855712890625
vt 0.88037109375 0.855712890625
vt 0.88037109375 0.8634033203125
vt 0.88037109375 0.8634033203125
vt 0.88037109375 0.855712890625
vt 0.89013671875 0.8634033203125
vt 0.88037109375 0.855712890625
vt 0.89013671875 0.855712890625
vt 0.89013671875 0.8634033203125
vt 0.89013671875 0.8634033203125
vt 0.89013671875 0.855712890625
vt 0.900390625 0.8634033203125
vt 0.89013671875 0.855712890625
vt 0.900390625 0.855712890625
vt 0.900390625 0.8634033203125
vt 0.900390625 0.8634033203125
vt 0.900390625 0.855712890625
vt 0.91064453125 0.8634033203125
vt 0.900390625 0.855712890625
vt 0.91064453125 0.855712890625
vt 0.91064453125 0.8634033203125
vt 0.91064453125 0.8634033203125
vt 0.91064453125 0.855712890625
vt 0.9208984375 0.8634033203125
vt 0.91064453125 0.855712890625
vt 0.9208984375 0.855712890625
vt 0.9208984375 0.8634033203125
vt 0.9208984375 0.8634033203125
vt 0.9208984375 0.855712890625
vt 0.93115234375 0.8634033203125
vt 0.9208984375 0.855712890625
vt 0.93115234375 0.855712890625
vt 0.93115234375 0.8634033203125
vt 0.93115234375 0.8634033203125
vt 0.93115234375 0.855712890625
vt 0.9384765625 0.8634033203125
vt 0.93115234375 0.855712890625
vt 0.9384765625 0.855712890625
vt 0.9384765625 0.8634033203125
vt 0.9384765625 0.8634033203125
vt 0.9384765625 0.855712890625
vt 0.94384765625 0.8634033203125
vt 0.9384765625 0.855712890625
vt 0.94384765625 0.855712890625
vt 0.94384765625 0.8634033203125
vt -0.057830810546875 0.7896728515625
vt -0.057830810546875 0.7821044921875
vt -0.051513671875 0.7821044921875
vt -0.051513671875 0.7896728515625
vt -0.057830810546875 0.7896728515625
vt -0.051513671875 0.7821044921875
vt -0.051513671875 0.7896728515625
vt -0.051513671875 0.7821044921875
vt -0.04217529296875 0.7821044921875
vt -0.04217529296875 0.7896728515625
vt -0.051513671875 0.7896728515625
vt -0.04217529296875 0.7821044921875
vt -0.04217529296875 0.7896728515625
vt -0.04217529296875 0.7821044921875
vt -0.029876708984375 0.7821044921875
vt -0.029876708984375 0.7896728515625
vt -0.04217529296875 0.7896728515625
vt -0.029876708984375 0.7821044921875
vt -0.029876708984375 0.7896728515625
vt -0.029876708984375 0.7821044921875
vt -0.017181396484375 0.7821044921875
vt -0.017181396484375 0.7896728515625
vt -0.029876708984375 0.7896728515625
vt -0.017181396484375 0.7821044921875
vt -0.017181396484375 0.7896728515625
vt -0.017181396484375 0.7821044921875
vt -0.004207611083984375 0.7821044921875
vt -0.004207611083984375 0.7896728515625
vt -0.017181396484375 0.7896728515625
vt -0.004207611083984375 0.7821044921875
vt -0.004207611083984375 0.7896728515625
vt -0.004207611083984375 0.7821044921875
vt 0.0082244873046875 0.7821044921875
vt 0.0082244873046875 0.7896728515625
vt -0.004207611083984375 0.7896728515625
vt 0.0082244873046875 0.7821044921875
vt 0.0082244873046875 0.7896728515625
vt 0.0082244873046875 0.7821044921875
vt 0.0205230712890625 0.7821044921875
vt 0.0205230712890625 0.7896728515625
vt 0.0082244873046875 0.7896728515625
vt 0.0205230712890625 0.7821044921875
vt 0.0205230712890625 0.7896728515625
vt 0.0205230712890625 0.7821044921875
vt 0.0299072265625 0.7821044921875
vt 0.0299072265625 0.7896728515625
vt 0.0205230712890625 0.7896728515625
vt 0.0299072265625 0.7821044921875
vt 0.0299072265625 0.7896728515625
vt 0.0299072265625 0.7821044921875
vt 0.159912109375 0.7821044921875
vt 0.159912109375 0.7896728515625
vt 0.0299072265625 0.7896728515625
vt 0.159912109375 0.7821044921875
vn 0.9695186018943787 0.23099157214164734 0.08171021938323975
vn -0.22756008803844452 0.9704422354698181 -0.08036342263221741
vn -0.1716986894607544 0.9697991013526917 -0.17323148250579834
vn 0.9572864770889282 0.21268047392368317 0.1958816945552826
vn -0.08109055459499359 0.9254465699195862 -0.37009868025779724
vn 0.8684131503105164 0.2582039535045624 0.42330753803253174
vn 0.09324736893177032 0.8339016437530518 -0.543978750705719
vn 0.679715096950531 0.36072608828544617 0.6386423707008362
vn 0.3264945447444916 0.6976031064987183 -0.6377705335617065
vn 0.40597662329673767 0.5210680365562439 0.7507804036140442
vn 0.5727900266647339 0.55246502161026 -0.605552613735199
vn 0.116163469851017 0.6919234395027161 0.7125643491744995
vn 0.780531644821167 0.42853474617004395 -0.4551134705543518
vn -0.12689907848834991 0.8361233472824097 0.5336612462997437
vn 0.9071772694587708 0.3455003499984741 -0.24012276530265808
vn -0.26397743821144104 0.9243192076683044 0.27559027075767517
vn 0.9561258554458618 0.28610050678253174 -0.06300672143697739
vn -0.278780460357666 0.9578122496604919 0.06983588635921478
vn 0.9622920751571655 0.27201858162879944 -2.954113824671367e-07
vn -0.27239930629730225 0.9621843099594116 -1.2666204085576283e-08
vn -0.9735482335090637 -0.2284814417362213 3.8070504615461687e-07
vn 0.22885975241661072 -0.9734594821929932 1.4161440731186303e-07
vn -0.9728257060050964 -0.22076120972633362 0.06981979310512543
vn 0.21356533467769623 -0.9748947024345398 -0.06301048398017883
vn -0.9363412857055664 -0.21754543483257294 0.27557024359703064
vn 0.13793975114822388 -0.9608978629112244 -0.24009937047958374
vn -0.7927393317222595 -0.29455435276031494 0.5336684584617615
vn 0.0038253669627010822 -0.8904311656951904 -0.4551019072532654
vn -0.548721969127655 -0.43720293045043945 0.7125712633132935
vn -0.20524978637695312 -0.7688670754432678 -0.6055707931518555
vn -0.25875478982925415 -0.6077593564987183 0.7507827281951904
vn -0.45168551802635193 -0.6238839626312256 -0.6377687454223633
vn 0.014225233346223831 -0.7693852186203003 0.6386266350746155
vn -0.6839918494224548 -0.4860106408596039 -0.5440117120742798
vn 0.19543257355690002 -0.8846514821052551 0.42331770062446594
vn -0.8486232757568359 -0.37798580527305603 -0.3700881004333496
vn 0.2783643901348114 -0.9402868151664734 0.19589245319366455
vn -0.9313633441925049 -0.3202494978904724 -0.17321200668811798
vn 0.26826047897338867 -0.9598747491836548 0.08171199262142181
vn -0.9590122103691101 -0.2717297375202179 -0.08036556094884872
f 1/1/1 2/2/2 3/3/3
f 4/4/4 1/5/1 3/6/3
f 4/7/4 3/8/3 5/9/5
f 6/10/6 4/11/4 5/12/5
f 6/13/6 5/14/5 7/15/7
f 8/16/8 6/17/6 7/18/7
f 8/19/8 7/20/7 9/21/9
f 10/22/10 8/23/8 9/24/9
f 10/25/10 9/26/9 11/27/11
f 12/28/12 10/29/10 11/30/11
f 12/31/12 11/32/11 13/33/13
f 14/34/14 12/35/12 13/36/13
f 14/37/14 13/38/13 15/39/15
f 16/40/16 14/41/14 15/42/15
f 16/43/16 15/44/15 17/45/17
f 18/46/18 16/47/16 17/48/17
f 18/49/18 17/50/17 19/51/19
f 20/52/20 18/53/18 19/54/19
f 21/55/21 22/56/22 23/57/23
f 22/58/22 24/59/24 23/60/23
f 23/61/23 24/62/24 25/63/25
f 24/64/24 26/65/26 25/66/25
f 25/67/25 26/68/26 27/69/27
f 26/70/26 28/71/28 27/72/27
f 27/73/27 28/74/28 29/75/29
f 28/76/28 30/77/30 29/78/29
f 29/79/29 30/80/30 31/81/31
f 30/82/30 32/83/32 31/84/31
f 31/85/31 32/86/32 33/87/33
f 32/88/32 34/89/34 33/90/33
f 33/91/33 34/92/34 35/93/35
f 34/94/34 36/95/36 35/96/35
f 35/97/35 36/98/36 37/99/37
f 36/100/36 38/101/38 37/102/37
f 37/103/37 38/104/38 39/105/39
f 38/106/38 40/107/40 39/108/39
f 22/109/22 19/110/19 24/111/24
f 19/112/19 17/113/17 24/114/24
f 24/115/24 17/116/17 26/117/26
f 17/118/17 15/119/15 26/120/26
f 26/121/26 15/122/15 28/123/28
f 15/124/15 13/125/13 28/126/28
f 28/127/28 13/128/13 30/129/30
f 13/130/13 11/131/11 30/132/30
f 30/133/30 11/134/11 32/135/32
f 11/136/11 9/137/9 32/138/32
f 32/139/32 9/140/9 34/141/34
f 9/142/9 7/143/7 34/144/34
f 34/145/34 7/146/7 36/147/36
f 7/148/7 5/149/5 36/150/36
f 36/151/36 5/152/5 38/153/38
f 5/154/5 3/155/3 38/156/38
f 38/157/38 3/158/3 40/159/40
f 3/160/3 2/161/2 40/162/40
f 39/163/39 1/164/1 4/165/4
f 37/166/37 39/167/39 4/168/4
f 37/169/37 4/170/4 6/171/6
f 35/172/35 37/173/37 6/174/6
f 35/175/35 6/176/6 8/177/8
f 33/178/33 35/179/35 8/180/8
f 33/181/33 8/182/8 10/183/10
f 31/184/31 33/185/33 10/186/10
f 31/187/31 10/188/10 12/189/12
f 29/190/29 31/191/31 12/192/12
f 29/193/29 12/194/12 14/195/14
f 27/196/27 29/197/29 14/198/14
f 27/199/27 14/200/14 16/201/16
f 25/202/25 27/203/27 16/204/16
f 25/205/25 16/206/16 18/207/18
f 23/208/23 25/209/25 18/210/18
f 23/211/23 18/212/18 20/213/20
f 21/214/21 23/215/23 20/216/20
