# Exported by Lightwave Blender addon
v 675.2335815429688 -257.1446838378906 1436.9813232421875
v 707.7989501953125 -168.50611877441406 1436.9813232421875
v 465.26611328125 -182.9192352294922 1436.9813232421875
v 497.85882568359375 -93.67561340332031 1436.9813232421875
v 465.26580810546875 -182.91941833496094 1587.10595703125
v 497.85882568359375 -93.67562866210938 1587.10595703125
v 707.7862548828125 -168.50283813476562 1587.10595703125
v 675.234130859375 -257.1400146484375 1587.10595703125
v 597.0870361328125 -228.9624481201172 1455.4381103515625
v 517.85400390625 -200.2876434326172 1455.4381103515625
v 517.85400390625 -200.2876434326172 1547.5611572265625
v 597.0870361328125 -228.96258544921875 1547.5615234375
vt -1.09375 0.708984375
vt -0.9951171875 -0.5595703125
vt 1.5849609375 0.9351806640625
vt -0.9951171875 -0.5595703125
vt 1.6953125 -0.44921875
vt 1.5849609375 0.9351806640625
vt -0.057464599609375 0.7880859375
vt -0.057464599609375 -0.5146484375
vt 1.6220703125 0.7880859375
vt -0.057464599609375 -0.5146484375
vt 1.6220703125 -0.5146484375
vt 1.6220703125 0.7880859375
vt 1.498046875 1.67626953125
vt -0.99951171875 1.67626953125
vt 1.498046875 -0.021484375
vt -0.99951171875 1.67626953125
vt -0.9990234375 -0.021484375
vt 1.498046875 -0.021484375
vt 1.6044921875 1.06341552734375
vt -0.07611083984375 1.0633544921875
vt 1.6044921875 -0.126953125
vt -0.07611083984375 1.0633544921875
vt -0.07611083984375 -0.12890625
vt 1.6044921875 -0.126953125
vt 1.6650390625 1.1640625
vt -1.02734375 1.16845703125
vt 1.609375 -0.2236328125
vt -1.02734375 1.16845703125
vt -1.0751953125 -0.1005859375
vt 1.609375 -0.2236328125
vt -1.09375 0.708984375
vt 1.5849609375 0.9351806640625
vt -1.09375 0.708984375
vt 1.5849609375 0.9351806640625
vt 1.5849609375 0.9351806640625
vt -1.09375 0.708984375
vt -0.057464599609375 0.7880859375
vt 1.6220703125 0.7880859375
vt -0.057464599609375 0.7880859375
vt 1.6220703125 0.7880859375
vt 1.6220703125 0.7880859375
vt -0.057464599609375 0.7880859375
vt 1.6044921875 -0.126953125
vt -0.07611083984375 -0.12890625
vt 1.6044921875 -0.126953125
vt -0.07611083984375 -0.12890625
vt -0.07611083984375 -0.12890625
vt 1.6044921875 -0.126953125
vt 1.609375 -0.2236328125
vt -1.0751953125 -0.1005859375
vt 1.609375 -0.2236328125
vt -1.0751953125 -0.1005859375
vt -1.0751953125 -0.1005859375
vt 1.609375 -0.2236328125
vn -0.34531232714653015 0.7397586703300476 0.5775087475776672
vn -0.7397136092185974 -0.3465791940689087 0.5768073797225952
vn 0.7373825311660767 0.3545508086681366 0.5749441385269165
vn 0.347006231546402 -0.7387719750404358 0.5777565836906433
vn 0.7380158305168152 0.35350748896598816 -0.574773907661438
vn 0.34699809551239014 -0.738777220249176 -0.5777546763420105
vn -0.7396530508995056 -0.3466266691684723 -0.5768564343452454
vn -0.3453460931777954 0.7397036552429199 -0.577559232711792
vn 0.33569177985191345 0.9417760968208313 -0.01920277252793312
vn 0.32916855812072754 0.9429160356521606 -0.050569597631692886
vn 0.32446208596229553 0.9457947611808777 0.014014838263392448
vn 0.33984118700027466 0.9404817223548889 -0.0014310638653114438
f 1/1/1 2/2/2 3/3/3
f 2/4/2 4/5/4 3/6/3
f 3/7/3 4/8/4 5/9/5
f 4/10/4 6/11/6 5/12/5
f 4/13/4 2/14/2 6/15/6
f 2/16/2 7/17/7 6/18/6
f 7/19/7 2/20/2 8/21/8
f 2/22/2 1/23/1 8/24/8
f 6/25/6 7/26/7 5/27/5
f 7/28/7 8/29/8 5/30/5
f 1/31/1 3/32/3 9/33/9
f 3/34/3 10/35/10 9/36/9
f 3/37/3 5/38/5 10/39/10
f 5/40/5 11/41/11 10/42/10
f 8/43/8 1/44/1 12/45/12
f 1/46/1 9/47/9 12/48/12
f 5/49/5 8/50/8 11/51/11
f 8/52/8 12/53/12 11/54/11
