# Exported by Lightwave Blender addon
v 42.769981384277344 -1213.8748779296875 1017.1309204101562
v 43.80194854736328 -1206.7679443359375 1024.045654296875
v 97.29080200195312 -1236.1688232421875 1017.1306762695312
v 101.61688232421875 -1230.4088134765625 1024.045654296875
v 35.709781646728516 -1235.5615234375 1010.5422973632812
v 41.54523468017578 -1221.295654296875 1010.5433959960938
v 87.287353515625 -1256.6519775390625 1010.5428466796875
v 93.11845397949219 -1242.3851318359375 1010.5439453125
v 43.6846923828125 -1205.95556640625 1025.75
v 37.63264846801758 -1203.2364501953125 1051.9013671875
v 102.28675842285156 -1229.9130859375 1025.75
v 108.51771545410156 -1232.6973876953125 1051.9017333984375
v 42.03187561035156 -1219.665771484375 1011.2643432617188
v 93.89945220947266 -1240.8753662109375 1011.2649536132812
v 25.768495559692383 -1231.4947509765625 1052.9024658203125
v 97.3658447265625 -1260.7713623046875 1052.9017333984375
v 36.98957443237305 -1204.0555419921875 1052.9013671875
v 108.41255187988281 -1233.73291015625 1052.9017333984375
v 109.10537719726562 -1234.0140380859375 1051.9339599609375
v 98.05795288085938 -1261.054443359375 1051.9339599609375
v 25.06999969482422 -1231.2091064453125 1051.93310546875
v 36.29023361206055 -1203.7720947265625 1051.931884765625
v 102.62283325195312 -1231.133544921875 1024.7501220703125
v 91.4984130859375 -1258.3719482421875 1024.750244140625
v 97.83975219726562 -1237.4736328125 1017.1306762695312
v 89.64895629882812 -1257.6171875 1017.1306762695312
v 94.46880340576172 -1242.3250732421875 1011.517822265625
v 88.42513275146484 -1257.1170654296875 1011.5162353515625
v 40.60481643676758 -1220.301025390625 1011.5123901367188
v 34.55527877807617 -1235.08935546875 1011.51123046875
v 41.46553039550781 -1214.4217529296875 1017.1309204101562
v 33.22772979736328 -1234.546142578125 1017.1309204101562
v 42.58646011352539 -1206.58447265625 1024.75
v 31.438148498535156 -1233.8128662109375 1024.7501220703125
vt -0.88623046875 0.46240234375
vt -0.89501953125 0.427734375
vt -0.591796875 0.46240234375
vt -0.89501953125 0.427734375
vt -0.5830078125 0.427734375
vt -0.591796875 0.46240234375
vt -0.8779296875 0.576171875
vt -0.8779296875 0.49951171875
vt -0.599609375 0.576171875
vt -0.8779296875 0.49951171875
vt -0.599609375 0.49951171875
vt -0.599609375 0.576171875
vt 1.896484375 0.4814453125
vt 1.9296875 0.612060546875
vt 1.580078125 0.4814453125
vt 1.9296875 0.612060546875
vt 1.5458984375 0.612060546875
vt 1.580078125 0.4814453125
vt 1.87890625 0.4091796875
vt 1.8857421875 0.4384765625
vt 1.5986328125 0.4091796875
vt 1.8857421875 0.4384765625
vt 1.591796875 0.4384765625
vt 1.5986328125 0.4091796875
vt 1.931640625 0.576171875
vt 1.544921875 0.576171875
vt 1.931640625 0.42822265625
vt 1.544921875 0.576171875
vt 1.544921875 0.43017578125
vt 1.931640625 0.42822265625
vt 0.56982421875 0.6123046875
vt 0.56982421875 0.616943359375
vt 0.423828125 0.6123046875
vt 0.56982421875 0.616943359375
vt 0.423828125 0.616943359375
vt 0.423828125 0.6123046875
vt 0.57568359375 0.6123046875
vt 0.57568359375 0.616943359375
vt 0.427734375 0.6123046875
vt 0.57568359375 0.616943359375
vt 0.427734375 0.616943359375
vt 0.427734375 0.6123046875
vt 0.56982421875 0.6123046875
vt 0.423828125 0.6123046875
vt 0.57080078125 0.4765625
vt 0.423828125 0.6123046875
vt 0.423828125 0.4765625
vt 0.57080078125 0.4765625
vt 0.57080078125 0.4765625
vt 0.423828125 0.4765625
vt 0.5322265625 0.4384765625
vt 0.423828125 0.4765625
vt 0.423828125 0.4384765625
vt 0.5322265625 0.4384765625
vt 0.5322265625 0.4384765625
vt 0.423828125 0.4384765625
vt 0.50341796875 0.41015625
vt 0.423828125 0.4384765625
vt 0.423828125 0.41015625
vt 0.50341796875 0.41015625
vt 0.49609375 0.41015625
vt 0.57568359375 0.41015625
vt 0.46728515625 0.4384765625
vt 0.57568359375 0.41015625
vt 0.57568359375 0.4384765625
vt 0.46728515625 0.4384765625
vt 0.46728515625 0.4384765625
vt 0.57568359375 0.4384765625
vt 0.428955078125 0.4765625
vt 0.57568359375 0.4384765625
vt 0.57568359375 0.4765625
vt 0.428955078125 0.4765625
vt 0.428955078125 0.4765625
vt 0.57568359375 0.4765625
vt 0.427734375 0.6123046875
vt 0.57568359375 0.4765625
vt 0.57568359375 0.6123046875
vt 0.427734375 0.6123046875
vt -0.5830078125 0.427734375
vt -0.57666015625 0.42919921875
vt -0.591796875 0.46240234375
vt -0.57666015625 0.42919921875
vt -0.5869140625 0.4677734375
vt -0.591796875 0.46240234375
vt -0.591796875 0.46240234375
vt -0.5869140625 0.4677734375
vt -0.5986328125 0.49072265625
vt -0.5869140625 0.4677734375
vt -0.59326171875 0.49658203125
vt -0.5986328125 0.49072265625
vt -0.59326171875 0.576171875
vt -0.599609375 0.576171875
vt -0.59326171875 0.49658203125
vt -0.599609375 0.576171875
vt -0.599609375 0.49951171875
vt -0.59326171875 0.49658203125
vt -0.59326171875 0.49658203125
vt -0.599609375 0.49951171875
vt -0.5986328125 0.49072265625
vt -0.87890625 0.49072265625
vt -0.5986328125 0.49072265625
vt -0.599609375 0.49951171875
vt -0.8779296875 0.49951171875
vt -0.87890625 0.49072265625
vt -0.599609375 0.49951171875
vt -0.8779296875 0.576171875
vt -0.88427734375 0.576171875
vt -0.8779296875 0.49951171875
vt -0.88427734375 0.576171875
vt -0.88427734375 0.49658203125
vt -0.8779296875 0.49951171875
vt -0.87890625 0.49072265625
vt -0.8779296875 0.49951171875
vt -0.88427734375 0.49658203125
vt -0.87890625 0.49072265625
vt -0.88427734375 0.49658203125
vt -0.88623046875 0.46240234375
vt -0.88427734375 0.49658203125
vt -0.8916015625 0.4677734375
vt -0.88623046875 0.46240234375
vt -0.88623046875 0.46240234375
vt -0.8916015625 0.4677734375
vt -0.89501953125 0.427734375
vt -0.8916015625 0.4677734375
vt -0.90087890625 0.42919921875
vt -0.89501953125 0.427734375
vt 1.580078125 0.4814453125
vt 1.576171875 0.4765625
vt 1.5830078125 0.47265625
vt 1.541015625 0.6123046875
vt 1.576171875 0.4765625
vt 1.580078125 0.4814453125
vt 1.580078125 0.4814453125
vt 1.5830078125 0.47265625
vt 1.896484375 0.4814453125
vt 1.5458984375 0.612060546875
vt 1.541015625 0.6123046875
vt 1.580078125 0.4814453125
vt 1.5830078125 0.47265625
vt 1.89453125 0.47265625
vt 1.896484375 0.4814453125
vt 1.5458984375 0.612060546875
vt 1.544921875 0.616943359375
vt 1.541015625 0.6123046875
vt 1.900390625 0.4765625
vt 1.896484375 0.4814453125
vt 1.89453125 0.47265625
vt 1.931640625 0.616943359375
vt 1.544921875 0.616943359375
vt 1.5458984375 0.612060546875
vt 1.896484375 0.4814453125
vt 1.900390625 0.4765625
vt 1.9296875 0.612060546875
vt 1.9296875 0.612060546875
vt 1.931640625 0.616943359375
vt 1.5458984375 0.612060546875
vt 1.900390625 0.4765625
vt 1.935546875 0.6123046875
vt 1.9296875 0.612060546875
vt 1.935546875 0.6123046875
vt 1.931640625 0.616943359375
vt 1.9296875 0.612060546875
vn -0.014544791541993618 0.7014641761779785 -0.7125563025474548
vn 0.05887217819690704 0.8065133690834045 -0.588277280330658
vn 0.5001572966575623 0.49570244550704956 -0.7100153565406799
vn 0.5213718414306641 0.615989625453949 -0.590532124042511
vn -0.300095796585083 0.12282700091600418 -0.9459682106971741
vn -0.2045944482088089 0.2598530650138855 -0.9437253475189209
vn 0.3043368458747864 -0.12426324933767319 -0.944424569606781
vn 0.33256176114082336 0.04034821689128876 -0.942218005657196
vn 0.055680807679891586 0.9729894399642944 -0.22403377294540405
vn 0.01078420877456665 0.9616849422454834 0.2739449143409729
vn 0.6453722715377808 0.7315895557403564 -0.21970774233341217
vn 0.667706310749054 0.6909672617912292 0.2770065367221832
vn -0.06991291791200638 0.6002970933914185 -0.7967155575752258
vn 0.4690817892551422 0.3789353370666504 -0.7977283000946045
vn -0.406462162733078 0.16625817120075226 0.8984134197235107
vn 0.4081265330314636 -0.1667371243238449 0.8975697755813599
vn -0.23704512417316437 0.48082101345062256 0.8441687226295471
vn 0.5086670517921448 0.17546845972537994 0.8428930044174194
vn 0.9836253523826599 -0.018227409571409225 0.1793009638786316
vn 0.9070325493812561 -0.3705351650714874 0.19998927414417267
vn -0.9058666229248047 0.3704589307308197 0.2053431272506714
vn -0.7146256566047668 0.6756694912910461 0.18105477094650269
vn 0.9051058292388916 0.12219559401273727 -0.4072488844394684
vn 0.8957779407501221 -0.3652211129665375 -0.2533681392669678
vn 0.8692471981048584 -0.04055190458893776 -0.4927116334438324
vn 0.8988191485404968 -0.36615636944770813 -0.24094334244728088
vn 0.8014401197433472 -0.14317792654037476 -0.5806839466094971
vn 0.7813030481338501 -0.31916505098342896 -0.5363759398460388
vn -0.6631805896759033 0.45826455950737 -0.5917643308639526
vn -0.7741019129753113 0.31679901480674744 -0.5480916500091553
vn -0.6464281678199768 0.5757557153701782 -0.50063556432724
vn -0.8968605995178223 0.3671588599681854 -0.24664829671382904
vn -0.5613461136817932 0.7226012945175171 -0.4034079611301422
vn -0.8970849514007568 0.3671818673610687 -0.24579674005508423
f 1/1/1 2/2/2 3/3/3
f 2/4/2 4/5/4 3/6/3
f 5/7/5 6/8/6 7/9/7
f 6/10/6 8/11/8 7/12/7
f 9/13/9 10/14/10 11/15/11
f 10/16/10 12/17/12 11/18/11
f 13/19/13 1/20/1 14/21/14
f 1/22/1 3/23/3 14/24/14
f 15/25/15 16/26/16 17/27/17
f 16/28/16 18/29/18 17/30/17
f 19/31/19 18/32/18 20/33/20
f 18/34/18 16/35/16 20/36/20
f 21/37/21 15/38/15 22/39/22
f 15/40/15 17/41/17 22/42/22
f 19/43/19 20/44/20 23/45/23
f 20/46/20 24/47/24 23/48/23
f 23/49/23 24/50/24 25/51/25
f 24/52/24 26/53/26 25/54/25
f 25/55/25 26/56/26 27/57/27
f 26/58/26 28/59/28 27/60/27
f 29/61/29 30/62/30 31/63/31
f 30/64/30 32/65/32 31/66/31
f 31/67/31 32/68/32 33/69/33
f 32/70/32 34/71/34 33/72/33
f 33/73/33 34/74/34 22/75/22
f 34/76/34 21/77/21 22/78/22
f 4/79/4 23/80/23 3/81/3
f 23/82/23 25/83/25 3/84/3
f 3/85/3 25/86/25 14/87/14
f 25/88/25 27/89/27 14/90/14
f 28/91/28 7/92/7 27/93/27
f 7/94/7 8/95/8 27/96/27
f 27/97/27 8/98/8 14/99/14
f 13/100/13 14/101/14 8/102/8
f 6/103/6 13/104/13 8/105/8
f 5/106/5 30/107/30 6/108/6
f 30/109/30 29/110/29 6/111/6
f 13/112/13 6/113/6 29/114/29
f 13/115/13 29/116/29 1/117/1
f 29/118/29 31/119/31 1/120/1
f 1/121/1 31/122/31 2/123/2
f 31/124/31 33/125/33 2/126/2
f 11/127/11 23/128/23 4/129/4
f 19/130/19 23/131/23 11/132/11
f 11/133/11 4/134/4 9/135/9
f 12/136/12 19/137/19 11/138/11
f 4/139/4 2/140/2 9/141/9
f 12/142/12 18/143/18 19/144/19
f 33/145/33 9/146/9 2/147/2
f 17/148/17 18/149/18 12/150/12
f 9/151/9 33/152/33 10/153/10
f 10/154/10 17/155/17 12/156/12
f 33/157/33 22/158/22 10/159/10
f 22/160/22 17/161/17 10/162/10
