# Exported by Lightwave Blender addon
v 829.2798461914062 -400.3613586425781 480.365234375
v 829.2798461914062 -400.3613586425781 487.28515625
v 816.7345581054688 -431.9372253417969 480.365234375
v 816.7345581054688 -431.937255859375 487.2851257324219
v 815.7216186523438 -432.3742370605469 487.2851257324219
v 815.7216796875 -432.3742370605469 480.365234375
v 679.4616088867188 -378.2611999511719 479.7218017578125
v 679.461669921875 -378.2611999511719 486.6417541503906
v 679.024658203125 -377.2484130859375 486.6417541503906
v 679.024658203125 -377.2484130859375 479.7218017578125
v 691.520263671875 -345.79876708984375 479.7218322753906
v 691.520263671875 -345.79876708984375 486.64178466796875
v 692.245361328125 -346.084716796875 478.94183349609375
v 679.7496337890625 -377.53631591796875 478.94183349609375
v 828.5548095703125 -400.073486328125 479.5852355957031
v 816.0097045898438 -431.64935302734375 479.5852355957031
v 828.5548095703125 -400.073486328125 488.065185546875
v 816.0097045898438 -431.64935302734375 488.0651550292969
v 679.7495727539062 -377.53631591796875 487.4217834472656
v 692.245361328125 -346.084716796875 487.4217834472656
vt 2.5546875 2.013671875
vt 2.5546875 2.0576171875
vt 2.341796875 2.013671875
vt 2.5546875 2.0576171875
vt 2.341796875 2.0576171875
vt 2.341796875 2.013671875
vt 2.341796875 2.0576171875
vt 2.3359375 2.0576171875
vt 2.341796875 2.013671875
vt 2.3359375 2.0576171875
vt 2.3359375 2.013671875
vt 2.341796875 2.013671875
vt 2.3359375 2.013671875
vt 2.3359375 2.0576171875
vt 1.41796875 2.009765625
vt 2.3359375 2.0576171875
vt 1.41796875 2.0537109375
vt 1.41796875 2.009765625
vt 1.41796875 2.009765625
vt 1.41796875 2.0537109375
vt 1.4111328125 2.0537109375
vt 1.4111328125 2.009765625
vt 1.41796875 2.009765625
vt 1.4111328125 2.0537109375
vt 1.19921875 2.009765625
vt 1.4111328125 2.009765625
vt 1.4111328125 2.0537109375
vt 1.19921875 2.0537109375
vt 1.19921875 2.009765625
vt 1.4111328125 2.0537109375
vt 1.427734375 1.5927734375
vt 1.435546875 1.5927734375
vt 1.427734375 1.81689453125
vt 1.435546875 1.5927734375
vt 1.435546875 1.81689453125
vt 1.427734375 1.81689453125
vt 1.4345703125 1.8232421875
vt 1.427734375 1.81689453125
vt 1.435546875 1.81689453125
vt 1.435546875 1.5927734375
vt 2.404296875 1.5927734375
vt 1.435546875 1.81689453125
vt 1.4345703125 1.8232421875
vt 1.435546875 1.81689453125
vt 2.404296875 1.8232421875
vt 2.404296875 1.5927734375
vt 2.404296875 1.81689453125
vt 1.435546875 1.81689453125
vt 1.435546875 1.81689453125
vt 2.404296875 1.81689453125
vt 2.404296875 1.8232421875
vt 2.404296875 1.81689453125
vt 2.404296875 1.5927734375
vt 2.408203125 1.5927734375
vt 2.408203125 1.81689453125
vt 2.404296875 1.8232421875
vt 2.404296875 1.81689453125
vt 2.408203125 1.81689453125
vt 2.404296875 1.81689453125
vt 2.408203125 1.5927734375
vt 2.412109375 1.48583984375
vt 2.408203125 1.48583984375
vt 2.412109375 1.26171875
vt 2.408203125 1.48583984375
vt 2.40625 1.26171875
vt 2.412109375 1.26171875
vt 2.40625 1.26171875
vt 2.408203125 1.255126953125
vt 2.412109375 1.26171875
vt 2.408203125 1.255126953125
vt 2.40625 1.26171875
vt 1.4375 1.255126953125
vt 2.40625 1.26171875
vt 2.408203125 1.48583984375
vt 1.4384765625 1.26171875
vt 2.40625 1.26171875
vt 1.4384765625 1.26171875
vt 1.4375 1.255126953125
vt 2.408203125 1.48583984375
vt 1.4384765625 1.48583984375
vt 1.4384765625 1.26171875
vt 1.4384765625 1.26171875
vt 1.431640625 1.26171875
vt 1.4375 1.255126953125
vt 1.4384765625 1.26171875
vt 1.4384765625 1.48583984375
vt 1.431640625 1.48583984375
vt 1.431640625 1.26171875
vt 1.4384765625 1.26171875
vt 1.431640625 1.48583984375
vn 0.8585924506187439 -0.3411220908164978 -0.3826940357685089
vn 0.8585938811302185 -0.34112489223480225 0.3826883137226105
vn 0.6876246333122253 -0.640706479549408 -0.34156638383865356
vn 0.6876142024993896 -0.6407214999198914 0.34155920147895813
vn -0.006501362193375826 -0.9396037459373474 0.34220239520072937
vn -0.004984760656952858 -0.9400683641433716 -0.34094974398612976
vn -0.6399509310722351 -0.6879979372024536 -0.3422306478023529
vn -0.6413411498069763 -0.6873418688774109 0.34094399213790894
vn -0.9398348331451416 0.0057815928012132645 0.3415803015232086
vn -0.9398239850997925 0.005800518672913313 -0.3416098654270172
vn -0.8585684895515442 0.3411276340484619 -0.38274291157722473
vn -0.8585702180862427 0.3411214053630829 0.38274461030960083
vn -0.3535817563533783 0.1404857039451599 -0.9247938990592957
vn -0.4417755603790283 -0.19206726551055908 -0.8763244152069092
vn 0.3576417565345764 -0.14209122955799103 -0.9229856133460999
vn 0.1931474208831787 -0.444252610206604 -0.8748334646224976
vn 0.3538869321346283 -0.14060212671756744 0.9246593713760376
vn 0.18962496519088745 -0.44289934635162354 0.8762890696525574
vn -0.44531866908073425 -0.19065125286579132 0.8748390674591064
vn -0.3573576807975769 0.14197897911071777 0.9231128692626953
f 1/1/1 2/2/2 3/3/3
f 2/4/2 4/5/4 3/6/3
f 4/7/4 5/8/5 3/9/3
f 5/10/5 6/11/6 3/12/3
f 6/13/6 5/14/5 7/15/7
f 5/16/5 8/17/8 7/18/7
f 7/19/7 8/20/8 9/21/9
f 10/22/10 7/23/7 9/24/9
f 11/25/11 10/26/10 9/27/9
f 12/28/12 11/29/11 9/30/9
f 11/31/11 13/32/13 10/33/10
f 13/34/13 14/35/14 10/36/10
f 7/37/7 10/38/10 14/39/14
f 13/40/13 15/41/15 14/42/14
f 7/43/7 14/44/14 6/45/6
f 15/46/15 16/47/16 14/48/14
f 14/49/14 16/50/16 6/51/6
f 16/52/16 15/53/15 1/54/1
f 3/55/3 6/56/6 16/57/16
f 3/58/3 16/59/16 1/60/1
f 2/61/2 17/62/17 4/63/4
f 17/64/17 18/65/18 4/66/4
f 18/67/18 5/68/5 4/69/4
f 5/70/5 18/71/18 8/72/8
f 18/73/18 17/74/17 19/75/19
f 18/76/18 19/77/19 8/78/8
f 17/79/17 20/80/20 19/81/19
f 19/82/19 9/83/9 8/84/8
f 19/85/19 20/86/20 12/87/12
f 9/88/9 19/89/19 12/90/12
