# Exported by Lightwave Blender addon
v 5686.10693359375 -4022.207275390625 470.8363037109375
v 5638.06103515625 -3971.596923828125 470.83624267578125
v 5107.396484375 -4472.603515625 470.8362731933594
v 5092.59326171875 -4395.7431640625 470.8362121582031
v 5639.94482421875 -3974.245849609375 444.1598205566406
v 5639.94482421875 -3974.245849609375 441.01849365234375
v 5095.19140625 -4398.01904296875 444.1597900390625
v 5095.19140625 -4398.01904296875 441.0184631347656
v 5643.3818359375 -3978.412109375 435.09246826171875
v 5686.0908203125 -4022.23291015625 435.0924377441406
v 5097.8095703125 -4402.57373046875 435.0924377441406
v 5107.46533203125 -4472.59033203125 435.0924072265625
v 5637.07373046875 -3970.548095703125 447.05224609375
v 5092.31640625 -4394.3212890625 447.0522155761719
v 5092.31640625 -4394.3212890625 469.3899230957031
v 5637.07373046875 -3970.548095703125 469.38995361328125
v 5641.49951171875 -3976.247802734375 439.5722351074219
v 5096.75390625 -4400.02490234375 439.57220458984375
v 5096.08984375 -4399.17041015625 439.57220458984375
v 5640.83935546875 -3975.3935546875 439.5722351074219
v 5094.3125 -4396.87548828125 445.60601806640625
v 5639.05810546875 -3973.106689453125 445.6060485839844
v 5093.20703125 -4395.4609375 445.6059875488281
v 5637.96044921875 -3971.687744140625 445.60601806640625
v 5097.62890625 -4401.15380859375 436.5386657714844
v 5642.38232421875 -3977.373046875 436.5386962890625
v 5097.6328125 -4401.15673828125 438.1259460449219
v 5642.38623046875 -3977.3798828125 438.1259765625
v 5107.669921875 -4474.02197265625 469.3900146484375
v 5687.10986328125 -4023.2607421875 469.3900451660156
v 5687.10986328125 -4023.2607421875 436.5386962890625
v 5107.669921875 -4474.02197265625 436.5386657714844
vt 1.595703125 0.7608642578125
vt 1.6298828125 0.41357421875
vt 5.26171875 0.7615966796875
vt 1.6298828125 0.41357421875
vt 5.08203125 0.4130859375
vt 5.26171875 0.7615966796875
vt 1.630859375 0.543701171875
vt 1.630859375 0.52783203125
vt 5.08203125 0.543701171875
vt 1.630859375 0.52783203125
vt 5.08203125 0.52783203125
vt 5.08203125 0.543701171875
vt -0.63037109375 0.45703125
vt -0.59619140625 0.7608642578125
vt -4.0859375 0.4560546875
vt -0.59619140625 0.7608642578125
vt -4.26171875 0.7618408203125
vt -4.0859375 0.4560546875
vt 1.630859375 0.55810546875
vt 5.08203125 0.55810546875
vt 5.08203125 0.669677734375
vt 1.630859375 0.669677734375
vt 1.630859375 0.55810546875
vt 5.08203125 0.669677734375
vt 1.630859375 0.669677734375
vt 5.08203125 0.669677734375
vt 5.08203125 0.677001953125
vt 1.6298828125 0.677001953125
vt 1.630859375 0.669677734375
vt 5.08203125 0.677001953125
vt -0.63134765625 0.44287109375
vt -4.08203125 0.44287109375
vt -4.08203125 0.4375
vt -0.63134765625 0.4375
vt -0.63134765625 0.44287109375
vt -4.08203125 0.4375
vt -0.63134765625 0.4375
vt -4.08203125 0.4375
vt -4.08203125 0.43017578125
vt -0.63134765625 0.43017578125
vt -0.63134765625 0.4375
vt -4.08203125 0.43017578125
vt -0.63134765625 0.43017578125
vt -4.08203125 0.43017578125
vt -4.08203125 0.4228515625
vt -0.63134765625 0.4228515625
vt -0.63134765625 0.43017578125
vt -4.08203125 0.4228515625
vt -0.63134765625 0.4228515625
vt -4.08203125 0.4228515625
vt -4.08203125 0.4140625
vt -0.63134765625 0.4140625
vt -0.63134765625 0.4228515625
vt -4.08203125 0.4140625
vt -0.63134765625 0.4140625
vt -4.08203125 0.4140625
vt -4.08203125 0.40673828125
vt -0.63134765625 0.40673828125
vt -0.63134765625 0.4140625
vt -4.08203125 0.40673828125
vt 1.6298828125 0.49853515625
vt 5.0859375 0.49853515625
vt 5.08203125 0.505615234375
vt 1.630859375 0.505615234375
vt 1.6298828125 0.49853515625
vt 5.08203125 0.505615234375
vt 1.630859375 0.505615234375
vt 5.08203125 0.505615234375
vt 5.08203125 0.513427734375
vt 1.630859375 0.513427734375
vt 1.630859375 0.505615234375
vt 5.08203125 0.513427734375
vt 1.630859375 0.513427734375
vt 5.08203125 0.513427734375
vt 5.08203125 0.520751953125
vt 1.630859375 0.520751953125
vt 1.630859375 0.513427734375
vt 5.08203125 0.520751953125
vt -4.26171875 0.677001953125
vt -4.265625 0.669677734375
vt -0.59619140625 0.677001953125
vt -4.265625 0.669677734375
vt -0.595703125 0.669677734375
vt -0.59619140625 0.677001953125
vt -0.595703125 0.505615234375
vt -0.595703125 0.669677734375
vt -4.265625 0.669677734375
vt -4.265625 0.505615234375
vt -0.595703125 0.505615234375
vt -4.265625 0.669677734375
vt -0.595703125 0.505615234375
vt -4.265625 0.505615234375
vt -4.26171875 0.49853515625
vt -0.59619140625 0.49853515625
vt -0.595703125 0.505615234375
vt -4.26171875 0.49853515625
vn 0.2475399374961853 -0.31820496916770935 0.9151335954666138
vn -0.2237951159477234 0.2878088057041168 0.9311723113059998
vn 0.31607499718666077 -0.40612223744392395 0.857415497303009
vn -0.1889325976371765 0.24287158250808716 0.9514819979667664
vn -0.5673851370811462 0.729362964630127 -0.3822351098060608
vn -0.566890299320221 0.728728175163269 -0.3841753304004669
vn -0.5675593614578247 0.7295882105827332 -0.38154610991477966
vn -0.5667324662208557 0.7285204529762268 -0.3848014771938324
vn -0.2223578542470932 0.28583261370658875 -0.9321248531341553
vn 0.2506975531578064 -0.3220996558666229 -0.9129088521003723
vn -0.18645378947257996 0.23982377350330353 -0.9527431130409241
vn 0.32739129662513733 -0.4208512604236603 -0.845990002155304
vn -0.567358136177063 0.7293347120285034 -0.3823292553424835
vn -0.5673129558563232 0.7292744517326355 -0.382511168718338
vn -0.5654358267784119 0.7268635630607605 0.3898099362850189
vn -0.565705418586731 0.727340817451477 0.38852620124816895
vn -0.23572224378585815 0.3030099868774414 -0.9233742356300354
vn -0.2363588660955429 0.30383288860321045 -0.9229409694671631
vn -0.2336258739233017 0.30031752586364746 -0.9247854351997375
vn -0.23429539799690247 0.30118292570114136 -0.924334704875946
vn -0.23549556732177734 0.30272573232650757 -0.9235252737998962
vn -0.2350395768880844 0.3021383583545685 -0.9238336682319641
vn -0.23523662984371185 0.3023928701877594 -0.9237003326416016
vn -0.23538163304328918 0.30258142948150635 -0.9236016273498535
vn -0.5677897334098816 0.7300844192504883 -0.38025179505348206
vn -0.5660901665687561 0.7276903986930847 -0.3873096704483032
vn -0.5682049989700317 0.7304078936576843 -0.37900853157043457
vn -0.568277895450592 0.7305010557174683 -0.37871941924095154
vn 0.5829751491546631 -0.7492719292640686 0.31421560049057007
vn 0.5694452524185181 -0.732004702091217 0.3740338385105133
vn 0.5703740119934082 -0.7330484986305237 -0.37055838108062744
vn 0.5848585367202759 -0.7518179416656494 -0.30448365211486816
f 1/1/1 2/2/2 3/3/3
f 2/4/2 4/5/4 3/6/3
f 5/7/5 6/8/6 7/9/7
f 6/10/6 8/11/8 7/12/7
f 9/13/9 10/14/10 11/15/11
f 10/16/10 12/17/12 11/18/11
f 13/19/13 14/20/14 15/21/15
f 16/22/16 13/23/13 15/24/15
f 16/25/16 15/26/15 4/27/4
f 2/28/2 16/29/16 4/30/4
f 17/31/17 18/32/18 19/33/19
f 20/34/20 17/35/17 19/36/19
f 20/37/20 19/38/19 8/39/8
f 6/40/6 20/41/20 8/42/8
f 5/43/5 7/44/7 21/45/21
f 22/46/22 5/47/5 21/48/21
f 22/49/22 21/50/21 23/51/23
f 24/52/24 22/53/22 23/54/23
f 24/55/24 23/56/23 14/57/14
f 13/58/13 24/59/24 14/60/14
f 9/61/9 11/62/11 25/63/25
f 26/64/26 9/65/9 25/66/25
f 26/67/26 25/68/25 27/69/27
f 28/70/28 26/71/26 27/72/27
f 28/73/28 27/74/27 18/75/18
f 17/76/17 28/77/28 18/78/18
f 3/79/3 29/80/29 1/81/1
f 29/82/29 30/83/30 1/84/1
f 31/85/31 30/86/30 29/87/29
f 32/88/32 31/89/31 29/90/29
f 31/91/31 32/92/32 12/93/12
f 10/94/10 31/95/31 12/96/12
