# Exported by Lightwave Blender addon
v 970.1181640625 -486.6860656738281 1376.9188232421875
v 882.1328735351562 -452.2049865722656 1376.9188232421875
v 882.1278686523438 -452.2250671386719 1343.169677734375
v 970.1119384765625 -486.7070617675781 1342.7423095703125
v 1063.7772216796875 -523.3902587890625 1376.9188232421875
v 1103.5272216796875 -538.9876098632812 1335.0201416015625
v 1103.5335693359375 -538.9705810546875 1376.9188232421875
v 1063.769287109375 -523.4124145507812 1342.2869873046875
v 1103.7835693359375 -538.9226684570312 1304.2340087890625
v 970.1805419921875 -486.3665771484375 1311.6873779296875
v 1064.2822265625 -523.253662109375 1311.69091796875
v 1103.739013671875 -539.0354614257812 1204.97265625
v 882.5010986328125 -451.9967346191406 1311.6910400390625
v 1064.231201171875 -523.3817749023438 1212.356689453125
v 1103.5335693359375 -538.9705810546875 1071.93359375
v 959.7720947265625 -481.9698181152344 1290.440673828125
v 949.2213134765625 -477.88916015625 1279.1282958984375
v 973.0665283203125 -487.11181640625 1297.7037353515625
v 942.4471435546875 -475.26904296875 1264.873779296875
v 987.8038940429688 -492.8114929199219 1300.206298828125
v 882.4697875976562 -452.08905029296875 1213.3092041015625
v 1002.5411376953125 -498.511474609375 1297.7037353515625
v 940.113037109375 -474.36614990234375 1249.0723876953125
v 1015.8358154296875 -503.6535339355469 1290.440673828125
v 942.4471435546875 -475.26898193359375 1233.2713623046875
v 1026.3865966796875 -507.7341613769531 1279.1282958984375
v 1033.16064453125 -510.3540954589844 1264.873779296875
v 1035.4947509765625 -511.2569885253906 1249.0723876953125
v 1033.1605224609375 -510.3541564941406 1233.2713623046875
v 1063.9720458984375 -523.4671630859375 1071.525634765625
v 1026.38671875 -507.7341003417969 1219.0169677734375
v 1103.52734375 -538.9876708984375 1037.199951171875
v 1015.8358154296875 -503.6535339355469 1207.70458984375
v 1063.769287109375 -523.4124755859375 1037.3016357421875
v 1103.78369140625 -538.9227294921875 999.2486572265625
v 970.1495971679688 -486.52618408203125 1071.398193359375
v 1002.5411987304688 -498.5116882324219 1200.4415283203125
v 987.8038330078125 -492.8114929199219 1197.93896484375
v 973.0665893554688 -487.1116943359375 1200.4415283203125
v 970.1119384765625 -486.7070617675781 1037.757080078125
v 1064.2822265625 -523.2537231445312 1006.7056884765625
v 1103.739013671875 -539.0354614257812 899.987548828125
v 882.1279907226562 -452.2250671386719 1038.1842041015625
v 882.2811279296875 -452.20623779296875 1071.5255126953125
v 970.1805419921875 -486.3665771484375 1006.7020874023438
v 882.501220703125 -451.996826171875 1006.70556640625
v 920.192138671875 -466.7539367675781 1153.7327880859375
v 882.4284057617188 -452.11474609375 1182.2230224609375
v 959.7720947265625 -481.9698181152344 1207.70458984375
v 949.2213134765625 -477.88916015625 1219.0169677734375
v 959.7720336914062 -481.9698791503906 985.4552001953125
v 949.221435546875 -477.88916015625 974.14306640625
v 973.066650390625 -487.11181640625 992.7183837890625
v 942.4471435546875 -475.2690124511719 959.888427734375
v 987.8038940429688 -492.8115539550781 995.220947265625
v 882.4697875976562 -452.0890197753906 908.3240966796875
v 1002.5411376953125 -498.511474609375 992.7183837890625
v 940.113037109375 -474.3661804199219 944.0870361328125
v 942.447265625 -475.2689514160156 928.2861328125
v 1015.8358154296875 -503.65350341796875 985.4552001953125
v 1026.38671875 -507.73419189453125 974.14306640625
v 1033.16064453125 -510.35400390625 959.888427734375
v 928.1593017578125 -469.77899169921875 889.6837158203125
v 949.221435546875 -477.88916015625 914.0317993164062
v 882.4293212890625 -452.2074890136719 766.1322021484375
v 936.0126953125 -472.8104248046875 884.7833862304688
v 959.7720336914062 -481.9698791503906 902.7194213867188
v 944.8131103515625 -476.2135009765625 876.3018798828125
v 973.0667114257812 -487.1116638183594 895.4561767578125
v 972.5926513671875 -486.9892272949219 874.1718139648438
v 970.1809692382812 -486.3663330078125 765.87744140625
v 987.8038940429688 -492.8114929199219 892.9534912109375
v 985.549560546875 -491.987060546875 876.6982421875
v 1002.5413208007812 -498.5116882324219 895.456298828125
v 999.1007080078125 -497.22039794921875 881.6793823242188
v 1023.1756591796875 -507.32928466796875 766.0213623046875
v 1015.8358154296875 -503.65350341796875 902.71923828125
v 1018.741455078125 -504.8492431640625 894.5079345703125
v 1026.38671875 -507.73406982421875 914.0316772460938
v 1064.166748046875 -523.5439453125 766.1322021484375
v 1033.16064453125 -510.35418701171875 928.2860107421875
v 1064.231201171875 -523.3817749023438 907.3713989257812
v 1035.494873046875 -511.2569885253906 944.087158203125
v 1108.69189453125 -541.0763549804688 768.4993896484375
vt 0.360595703125 1.919921875
vt -0.1119384765625 1.919921875
vt -0.1119384765625 1.7509765625
vt 0.360595703125 1.7490234375
vt 0.360595703125 1.919921875
vt -0.1119384765625 1.7509765625
vt 0.86376953125 1.919921875
vt 0.360595703125 1.919921875
vt 0.360595703125 1.7490234375
vt 1.0771484375 1.71044921875
vt 1.0771484375 1.919921875
vt 0.86376953125 1.919921875
vt 0.86376953125 1.74658203125
vt 1.0771484375 1.71044921875
vt 0.86376953125 1.919921875
vt 0.86376953125 1.74658203125
vt 0.86376953125 1.919921875
vt 0.360595703125 1.7490234375
vt 1.0771484375 1.71044921875
vt 0.86376953125 1.74658203125
vt 1.078125 1.55615234375
vt 0.3603515625 1.59375
vt 0.360595703125 1.7490234375
vt -0.1119384765625 1.7509765625
vt 0.86376953125 1.74658203125
vt 0.86572265625 1.59375
vt 1.078125 1.55615234375
vt 0.86572265625 1.59375
vt 0.86376953125 1.74658203125
vt 0.360595703125 1.7490234375
vt 0.3603515625 1.59375
vt 0.86572265625 1.59375
vt 0.360595703125 1.7490234375
vt 1.078125 1.55615234375
vt 0.86572265625 1.59375
vt 1.078125 1.06005859375
vt -0.110595703125 1.59375
vt 0.3603515625 1.59375
vt -0.1119384765625 1.7509765625
vt 0.86572265625 1.59375
vt 0.86572265625 1.09698486328125
vt 1.078125 1.06005859375
vt 1.0771484375 0.39501953125
vt 1.078125 1.06005859375
vt 0.86572265625 1.09698486328125
vt 0.3603515625 1.59375
vt -0.110595703125 1.59375
vt 0.3037109375 1.487548828125
vt 0.3037109375 1.487548828125
vt -0.110595703125 1.59375
vt 0.247314453125 1.430908203125
vt 0.375244140625 1.5234375
vt 0.3603515625 1.59375
vt 0.3037109375 1.487548828125
vt 0.247314453125 1.430908203125
vt -0.110595703125 1.59375
vt 0.2109375 1.359619140625
vt 0.4541015625 1.5361328125
vt 0.3603515625 1.59375
vt 0.375244140625 1.5234375
vt 0.2109375 1.359619140625
vt -0.110595703125 1.59375
vt -0.110595703125 1.10174560546875
vt 0.533203125 1.5234375
vt 0.3603515625 1.59375
vt 0.4541015625 1.5361328125
vt 0.86572265625 1.59375
vt 0.3603515625 1.59375
vt 0.533203125 1.5234375
vt 0.2109375 1.359619140625
vt -0.110595703125 1.10174560546875
vt 0.198486328125 1.280517578125
vt 0.6044921875 1.487548828125
vt 0.86572265625 1.59375
vt 0.533203125 1.5234375
vt 0.198486328125 1.280517578125
vt -0.110595703125 1.10174560546875
vt 0.2109375 1.2015380859375
vt 0.6611328125 1.430908203125
vt 0.86572265625 1.59375
vt 0.6044921875 1.487548828125
vt 0.697265625 1.359619140625
vt 0.86572265625 1.59375
vt 0.6611328125 1.430908203125
vt 0.697265625 1.359619140625
vt 0.86572265625 1.09698486328125
vt 0.86572265625 1.59375
vt 0.7099609375 1.280517578125
vt 0.86572265625 1.09698486328125
vt 0.697265625 1.359619140625
vt 0.697265625 1.2015380859375
vt 0.86572265625 1.09698486328125
vt 0.7099609375 1.280517578125
vt 0.697265625 1.2015380859375
vt 0.86474609375 0.392578125
vt 0.86572265625 1.09698486328125
vt 0.86474609375 0.392578125
vt 1.0771484375 0.39501953125
vt 0.86572265625 1.09698486328125
vt 0.6611328125 1.1302490234375
vt 0.86474609375 0.392578125
vt 0.697265625 1.2015380859375
vt 1.0771484375 0.22119140625
vt 1.0771484375 0.39501953125
vt 0.86474609375 0.392578125
vt 0.6044921875 1.07373046875
vt 0.86474609375 0.392578125
vt 0.6611328125 1.1302490234375
vt 0.86376953125 0.2216796875
vt 1.0771484375 0.22119140625
vt 0.86474609375 0.392578125
vt 1.0771484375 0.22119140625
vt 0.86376953125 0.2216796875
vt 1.078125 0.03125
vt 0.360595703125 0.39208984375
vt 0.86474609375 0.392578125
vt 0.6044921875 1.07373046875
vt 0.533203125 1.03741455078125
vt 0.360595703125 0.39208984375
vt 0.6044921875 1.07373046875
vt 0.4541015625 1.0248870849609375
vt 0.360595703125 0.39208984375
vt 0.533203125 1.03741455078125
vt 0.375244140625 1.03741455078125
vt 0.360595703125 0.39208984375
vt 0.4541015625 1.0248870849609375
vt 0.86376953125 0.2216796875
vt 0.86474609375 0.392578125
vt 0.360595703125 0.2236328125
vt 0.86474609375 0.392578125
vt 0.360595703125 0.39208984375
vt 0.360595703125 0.2236328125
vt 0.86376953125 0.2216796875
vt 0.86572265625 0.068359375
vt 1.078125 0.03125
vt 0.86572265625 0.068359375
vt 0.86376953125 0.2216796875
vt 0.360595703125 0.2236328125
vt 1.078125 0.03125
vt 0.86572265625 0.068359375
vt 1.078125 -0.46484375
vt 0.360595703125 0.2236328125
vt 0.360595703125 0.39208984375
vt -0.1119384765625 0.22607421875
vt 0.360595703125 0.39208984375
vt -0.11126708984375 0.392578125
vt -0.1119384765625 0.22607421875
vt 0.3603515625 0.068359375
vt 0.360595703125 0.2236328125
vt -0.1119384765625 0.22607421875
vt 0.3603515625 0.068359375
vt 0.86572265625 0.068359375
vt 0.360595703125 0.2236328125
vt -0.110595703125 0.068359375
vt 0.3603515625 0.068359375
vt -0.1119384765625 0.22607421875
vt 0.091796875 0.8038330078125
vt -0.11126708984375 0.392578125
vt 0.360595703125 0.39208984375
vt 0.091796875 0.8038330078125
vt 0.360595703125 0.39208984375
vt 0.375244140625 1.03741455078125
vt -0.1107177734375 0.9462890625
vt -0.11126708984375 0.392578125
vt 0.091796875 0.8038330078125
vt 0.303955078125 1.07373046875
vt 0.091796875 0.8038330078125
vt 0.375244140625 1.03741455078125
vt -0.110595703125 1.10174560546875
vt -0.1107177734375 0.9462890625
vt 0.091796875 0.8038330078125
vt 0.247314453125 1.1302490234375
vt 0.091796875 0.8038330078125
vt 0.303955078125 1.07373046875
vt 0.2109375 1.2015380859375
vt -0.110595703125 1.10174560546875
vt 0.091796875 0.8038330078125
vt 0.2109375 1.2015380859375
vt 0.091796875 0.8038330078125
vt 0.247314453125 1.1302490234375
vt 0.3603515625 0.068359375
vt -0.110595703125 0.068359375
vt 0.303955078125 -0.037109375
vt 0.303955078125 -0.037109375
vt -0.110595703125 0.068359375
vt 0.247314453125 -0.09375
vt 0.375244140625 -0.0009765625
vt 0.3603515625 0.068359375
vt 0.303955078125 -0.037109375
vt 0.247314453125 -0.09375
vt -0.110595703125 0.068359375
vt 0.2110595703125 -0.1650390625
vt 0.4541015625 0.01123046875
vt 0.3603515625 0.068359375
vt 0.375244140625 -0.0009765625
vt 0.2110595703125 -0.1650390625
vt -0.110595703125 0.068359375
vt -0.11053466796875 -0.423828125
vt 0.533203125 -0.0009765625
vt 0.3603515625 0.068359375
vt 0.4541015625 0.01123046875
vt 0.2110595703125 -0.1650390625
vt -0.11053466796875 -0.423828125
vt 0.198486328125 -0.244140625
vt 0.86572265625 0.068359375
vt 0.3603515625 0.068359375
vt 0.533203125 -0.0009765625
vt 0.198486328125 -0.244140625
vt -0.11053466796875 -0.423828125
vt 0.2110595703125 -0.3232421875
vt 0.6044921875 -0.037109375
vt 0.86572265625 0.068359375
vt 0.533203125 -0.0009765625
vt 0.6611328125 -0.09375
vt 0.86572265625 0.068359375
vt 0.6044921875 -0.037109375
vt 0.697265625 -0.1650390625
vt 0.86572265625 0.068359375
vt 0.6611328125 -0.09375
vt 0.2110595703125 -0.3232421875
vt -0.11053466796875 -0.423828125
vt 0.1343994140625 -0.5166015625
vt 0.2110595703125 -0.3232421875
vt 0.1343994140625 -0.5166015625
vt 0.247314453125 -0.39453125
vt -0.11053466796875 -0.423828125
vt -0.11053466796875 -1.134765625
vt 0.1343994140625 -0.5166015625
vt 0.1343994140625 -0.5166015625
vt 0.176513671875 -0.541015625
vt 0.247314453125 -0.39453125
vt 0.1343994140625 -0.5166015625
vt -0.11053466796875 -1.134765625
vt 0.176513671875 -0.541015625
vt 0.247314453125 -0.39453125
vt 0.176513671875 -0.541015625
vt 0.303955078125 -0.451171875
vt 0.176513671875 -0.541015625
vt 0.2237548828125 -0.583984375
vt 0.303955078125 -0.451171875
vt 0.176513671875 -0.541015625
vt -0.11053466796875 -1.134765625
vt 0.2237548828125 -0.583984375
vt 0.303955078125 -0.451171875
vt 0.2237548828125 -0.583984375
vt 0.375244140625 -0.4873046875
vt 0.2237548828125 -0.583984375
vt -0.11053466796875 -1.134765625
vt 0.372802734375 -0.59375
vt 0.2237548828125 -0.583984375
vt 0.372802734375 -0.59375
vt 0.375244140625 -0.4873046875
vt -0.11053466796875 -1.134765625
vt 0.3603515625 -1.134765625
vt 0.372802734375 -0.59375
vt 0.375244140625 -0.4873046875
vt 0.372802734375 -0.59375
vt 0.454345703125 -0.5
vt 0.372802734375 -0.59375
vt 0.442138671875 -0.58203125
vt 0.454345703125 -0.5
vt 0.372802734375 -0.59375
vt 0.3603515625 -1.134765625
vt 0.442138671875 -0.58203125
vt 0.454345703125 -0.5
vt 0.442138671875 -0.58203125
vt 0.533203125 -0.4873046875
vt 0.442138671875 -0.58203125
vt 0.3603515625 -1.134765625
vt 0.5146484375 -0.556640625
vt 0.442138671875 -0.58203125
vt 0.5146484375 -0.556640625
vt 0.533203125 -0.4873046875
vt 0.5146484375 -0.556640625
vt 0.3603515625 -1.134765625
vt 0.6455078125 -1.134765625
vt 0.533203125 -0.4873046875
vt 0.5146484375 -0.556640625
vt 0.6044921875 -0.451171875
vt 0.6201171875 -0.4921875
vt 0.5146484375 -0.556640625
vt 0.6455078125 -1.134765625
vt 0.5146484375 -0.556640625
vt 0.6201171875 -0.4921875
vt 0.6044921875 -0.451171875
vt 0.6044921875 -0.451171875
vt 0.6201171875 -0.4921875
vt 0.6611328125 -0.39453125
vt 0.6455078125 -1.134765625
vt 0.86572265625 -1.134765625
vt 0.6201171875 -0.4921875
vt 0.6201171875 -0.4921875
vt 0.86572265625 -1.134765625
vt 0.6611328125 -0.39453125
vt 0.6611328125 -0.39453125
vt 0.86572265625 -1.134765625
vt 0.697265625 -0.3232421875
vt 0.697265625 -0.3232421875
vt 0.86572265625 -1.134765625
vt 0.86572265625 -0.427734375
vt 0.697265625 -0.3232421875
vt 0.86572265625 -0.427734375
vt 0.7099609375 -0.244140625
vt 0.86572265625 -1.134765625
vt 1.1044921875 -1.123046875
vt 0.86572265625 -0.427734375
vt 0.7099609375 -0.244140625
vt 0.86572265625 -0.427734375
vt 0.697265625 -0.1650390625
vt 1.1044921875 -1.123046875
vt 1.078125 -0.46484375
vt 0.86572265625 -0.427734375
vt 0.697265625 -0.1650390625
vt 0.86572265625 -0.427734375
vt 0.86572265625 0.068359375
vt 0.86572265625 0.068359375
vt 0.86572265625 -0.427734375
vt 1.078125 -0.46484375
vn -0.3648790717124939 -0.9310547113418579 0.00063513737404719
vn -0.3648768961429596 -0.9310556054115295 0.0006080832099542022
vn -0.364910751581192 -0.9310280084609985 -0.005193139426410198
vn -0.36490756273269653 -0.9310293197631836 -0.005182300694286823
vn -0.36482319235801697 -0.9310765862464905 0.0006143407081253827
vn -0.3652071952819824 -0.93092280626297 -0.0025366959162056446
vn -0.3648763597011566 -0.9310559034347534 0.0004336862766649574
vn -0.3656359314918518 -0.9307478666305542 -0.004315401427447796
vn -0.3680785298347473 -0.9297909736633301 -0.0026009560097008944
vn -0.3622976541519165 -0.9319121241569519 -0.01674092561006546
vn -0.3699933588504791 -0.9290012121200562 -0.007857603020966053
vn -0.36829376220703125 -0.929709255695343 0.0006623186054639518
vn -0.3634253740310669 -0.9316020011901855 -0.0062910085543990135
vn -0.3769403398036957 -0.9262369275093079 0.0010932316072285175
vn -0.36519697308540344 -0.9309300184249878 0.0007772530661895871
vn -0.36126357316970825 -0.9323990941047668 -0.010975297540426254
vn -0.3615139424800873 -0.9323664903640747 0.0006429912173189223
vn -0.35332879424095154 -0.9352144002914429 -0.023080090060830116
vn -0.36121201515197754 -0.9324834942817688 0.0005524720181711018
vn -0.3645309805870056 -0.930446207523346 -0.03724479675292969
vn -0.36085766553878784 -0.9326202869415283 0.0009715447085909545
vn -0.36561450362205505 -0.9301990866661072 -0.03249150887131691
vn -0.36047032475471497 -0.9327707290649414 -2.0899735318380408e-05
vn -0.3694113790988922 -0.9291479587554932 -0.01481229905039072
vn -0.3603679835796356 -0.9328101277351379 0.00048741084174253047
vn -0.3723430037498474 -0.9280516505241394 -0.008989591151475906
vn -0.3824689984321594 -0.9239658117294312 -0.002178249415010214
vn -0.3924296796321869 -0.919775664806366 -0.003403267590329051
vn -0.38187775015830994 -0.924206018447876 0.0035540093667805195
vn -0.36598533391952515 -0.9306181073188782 0.0021829705219715834
vn -0.3686410188674927 -0.9295572638511658 0.005215806420892477
vn -0.3647938072681427 -0.9310867190361023 -0.0017421639058738947
vn -0.3655240535736084 -0.9307849407196045 0.00561560271307826
vn -0.36559590697288513 -0.9307634234428406 -0.004359300713986158
vn -0.36786699295043945 -0.9298754334449768 -0.0023476011119782925
vn -0.36488330364227295 -0.9310411810874939 0.004736421629786491
vn -0.3623640835285187 -0.9320262670516968 0.004391903523355722
vn -0.3607940673828125 -0.9326368570327759 0.004011613316833973
vn -0.36070603132247925 -0.9326748251914978 0.0029916975181549788
vn -0.36520248651504517 -0.9309231638908386 -0.0030440373811870813
vn -0.36999332904815674 -0.9290010333061218 -0.007858087308704853
vn -0.36825406551361084 -0.9297248125076294 0.0009033568203449249
vn -0.36449310183525085 -0.9311972856521606 -0.004053029231727123
vn -0.36334848403930664 -0.9316504001617432 0.0023225336335599422
vn -0.3622974455356598 -0.9319121837615967 -0.016740495339035988
vn -0.363425076007843 -0.9316021800041199 -0.006290020886808634
vn -0.36157140135765076 -0.9323418140411377 0.002205700846388936
vn -0.3606235384941101 -0.9327106475830078 0.0012509290827438235
vn -0.3600412607192993 -0.9329357743263245 0.0010186763247475028
vn -0.3596315085887909 -0.9330941438674927 0.0007596970535814762
vn -0.36126258969306946 -0.9323995113372803 -0.010976104065775871
vn -0.36151477694511414 -0.9323661923408508 0.0006384852458722889
vn -0.3533267676830292 -0.9352151155471802 -0.023082604631781578
vn -0.36121198534965515 -0.9324834942817688 0.000553243444301188
vn -0.36452779173851013 -0.9304478168487549 -0.03723377734422684
vn -0.3608540892601013 -0.9326218962669373 0.000806621101219207
vn -0.36561453342437744 -0.9301990270614624 -0.032492127269506454
vn -0.3604713976383209 -0.9327702522277832 -2.028164453804493e-05
vn -0.36040258407592773 -0.9327967762947083 0.0003677257045637816
vn -0.36941176652908325 -0.9291476607322693 -0.01481495052576065
vn -0.372342973947525 -0.9280516505241394 -0.008991934359073639
vn -0.3824702203273773 -0.9239652156829834 -0.002179517410695553
vn -0.3602927327156067 -0.9328389167785645 0.0006875982508063316
vn -0.35994356870651245 -0.9329739212989807 0.0005500335246324539
vn -0.36183229088783264 -0.9322412014007568 0.0019135355250909925
vn -0.35998350381851196 -0.9329585433006287 0.0005689796525985003
vn -0.3602321147918701 -0.9328624606132507 0.0007115066982805729
vn -0.3607397675514221 -0.9326658248901367 0.0011598721612244844
vn -0.3606584072113037 -0.9326955676078796 0.0021055552642792463
vn -0.3610542118549347 -0.9325414299964905 0.00251378258690238
vn -0.3647180199623108 -0.9311112761497498 0.0035470679868012667
vn -0.3607760965824127 -0.9326484799385071 0.0027311984449625015
vn -0.3607415556907654 -0.9326618313789368 0.0027249183040112257
vn -0.36184215545654297 -0.932234525680542 0.0029886222910135984
vn -0.36315619945526123 -0.9317200183868408 0.003908068407326937
vn -0.3676817715167999 -0.9299381375312805 0.0050247712060809135
vn -0.3655555248260498 -0.9307723045349121 0.005674431100487709
vn -0.3659343719482422 -0.9306221604347229 0.0058633130975067616
vn -0.36862343549728394 -0.9295641779899597 0.0052033718675374985
vn -0.36834633350372314 -0.9296836853027344 0.0030251943971961737
vn -0.38187485933303833 -0.9242072701454163 0.0035454232711344957
vn -0.3770008683204651 -0.9262121915817261 0.0011638880241662264
vn -0.3924287259578705 -0.919776201248169 -0.0034010533709079027
vn -0.36677685379981995 -0.9303082823753357 0.001110829645767808
f 1/1/1 2/2/2 3/3/3
f 4/4/4 1/5/1 3/6/3
f 5/7/5 1/8/1 4/9/4
f 6/10/6 7/11/7 5/12/5
f 8/13/8 6/14/6 5/15/5
f 8/16/8 5/17/5 4/18/4
f 6/19/6 8/20/8 9/21/9
f 10/22/10 4/23/4 3/24/3
f 8/25/8 11/26/11 9/27/9
f 11/28/11 8/29/8 4/30/4
f 10/31/10 11/32/11 4/33/4
f 9/34/9 11/35/11 12/36/12
f 13/37/13 10/38/10 3/39/3
f 11/40/11 14/41/14 12/42/12
f 15/43/15 12/44/12 14/45/14
f 10/46/10 13/47/13 16/48/16
f 16/49/16 13/50/13 17/51/17
f 18/52/18 10/53/10 16/54/16
f 17/55/17 13/56/13 19/57/19
f 20/58/20 10/59/10 18/60/18
f 19/61/19 13/62/13 21/63/21
f 22/64/22 10/65/10 20/66/20
f 11/67/11 10/68/10 22/69/22
f 19/70/19 21/71/21 23/72/23
f 24/73/24 11/74/11 22/75/22
f 23/76/23 21/77/21 25/78/25
f 26/79/26 11/80/11 24/81/24
f 27/82/27 11/83/11 26/84/26
f 27/85/27 14/86/14 11/87/11
f 28/88/28 14/89/14 27/90/27
f 29/91/29 14/92/14 28/93/28
f 29/94/29 30/95/30 14/96/14
f 30/97/30 15/98/15 14/99/14
f 31/100/31 30/101/30 29/102/29
f 32/103/32 15/104/15 30/105/30
f 33/106/33 30/107/30 31/108/31
f 34/109/34 32/110/32 30/111/30
f 32/112/32 34/113/34 35/114/35
f 36/115/36 30/116/30 33/117/33
f 37/118/37 36/119/36 33/120/33
f 38/121/38 36/122/36 37/123/37
f 39/124/39 36/125/36 38/126/38
f 34/127/34 30/128/30 40/129/40
f 30/130/30 36/131/36 40/132/40
f 34/133/34 41/134/41 35/135/35
f 41/136/41 34/137/34 40/138/40
f 35/139/35 41/140/41 42/141/42
f 40/142/40 36/143/36 43/144/43
f 36/145/36 44/146/44 43/147/43
f 45/148/45 40/149/40 43/150/43
f 45/151/45 41/152/41 40/153/40
f 46/154/46 45/155/45 43/156/43
f 47/157/47 44/158/44 36/159/36
f 47/160/47 36/161/36 39/162/39
f 48/163/48 44/164/44 47/165/47
f 49/166/49 47/167/47 39/168/39
f 21/169/21 48/170/48 47/171/47
f 50/172/50 47/173/47 49/174/49
f 25/175/25 21/176/21 47/177/47
f 25/178/25 47/179/47 50/180/50
f 45/181/45 46/182/46 51/183/51
f 51/184/51 46/185/46 52/186/52
f 53/187/53 45/188/45 51/189/51
f 52/190/52 46/191/46 54/192/54
f 55/193/55 45/194/45 53/195/53
f 54/196/54 46/197/46 56/198/56
f 57/199/57 45/200/45 55/201/55
f 54/202/54 56/203/56 58/204/58
f 41/205/41 45/206/45 57/207/57
f 58/208/58 56/209/56 59/210/59
f 60/211/60 41/212/41 57/213/57
f 61/214/61 41/215/41 60/216/60
f 62/217/62 41/218/41 61/219/61
f 59/220/59 56/221/56 63/222/63
f 59/223/59 63/224/63 64/225/64
f 56/226/56 65/227/65 63/228/63
f 63/229/63 66/230/66 64/231/64
f 63/232/63 65/233/65 66/234/66
f 64/235/64 66/236/66 67/237/67
f 66/238/66 68/239/68 67/240/67
f 66/241/66 65/242/65 68/243/68
f 67/244/67 68/245/68 69/246/69
f 68/247/68 65/248/65 70/249/70
f 68/250/68 70/251/70 69/252/69
f 65/253/65 71/254/71 70/255/70
f 69/256/69 70/257/70 72/258/72
f 70/259/70 73/260/73 72/261/72
f 70/262/70 71/263/71 73/264/73
f 72/265/72 73/266/73 74/267/74
f 73/268/73 71/269/71 75/270/75
f 73/271/73 75/272/75 74/273/74
f 75/274/75 71/275/71 76/276/76
f 74/277/74 75/278/75 77/279/77
f 78/280/78 75/281/75 76/282/76
f 75/283/75 78/284/78 77/285/77
f 77/286/77 78/287/78 79/288/79
f 76/289/76 80/290/80 78/291/78
f 78/292/78 80/293/80 79/294/79
f 79/295/79 80/296/80 81/297/81
f 81/298/81 80/299/80 82/300/82
f 81/301/81 82/302/82 83/303/83
f 80/304/80 84/305/84 82/306/82
f 83/307/83 82/308/82 62/309/62
f 84/310/84 42/311/42 82/312/82
f 62/313/62 82/314/82 41/315/41
f 41/316/41 82/317/82 42/318/42
