# Exported by Lightwave Blender addon
v -174.95681762695312 247.30715942382812 257.9350891113281
v -174.61326599121094 246.59303283691406 257.6068115234375
v -175.15699768066406 246.33145141601562 257.9350891113281
v -175.39993286132812 246.83642578125 258.1672058105469
v -175.38221740722656 246.2230987548828 258.7275695800781
v -175.09912109375 247.60296630859375 258.7275390625
v -175.50054931640625 247.04559326171875 258.7275695800781
v -174.95680236816406 247.30715942382812 259.52001953125
v -175.39993286132812 246.83642578125 259.2879333496094
v -174.61326599121094 246.593017578125 259.8482666015625
v -175.15699768066406 246.33145141601562 259.5200500488281
v -174.26971435546875 245.87887573242188 259.52001953125
v -174.9140625 245.82647705078125 259.2879333496094
v -174.12741088867188 245.5830841064453 258.7275390625
v -174.81344604492188 245.61732482910156 258.7275695800781
v -174.26971435546875 245.87887573242188 257.9350891113281
v -174.9140625 245.82647705078125 258.1672058105469
v -160.0166473388672 214.85891723632812 257.93505859375
v -159.47288513183594 215.12049865722656 257.6067810058594
v -159.1293487548828 214.4063720703125 257.9350280761719
v -159.77369689941406 214.3539581298828 258.16717529296875
v -160.2418670654297 214.75057983398438 258.7275085449219
v -158.98704528808594 214.11056518554688 258.7275085449219
v -159.67308044433594 214.14479064941406 258.7275390625
v -159.1293487548828 214.4063720703125 259.5199890136719
v -159.77369689941406 214.3539581298828 259.28790283203125
v -159.47288513183594 215.12049865722656 259.8482360839844
v -160.01661682128906 214.85891723632812 259.52001953125
v -159.81643676757812 215.83462524414062 259.5199890136719
v -160.2595672607422 215.3638916015625 259.28790283203125
v -159.95875549316406 216.13043212890625 258.7275085449219
v -160.3601837158203 215.57305908203125 258.7275390625
v -159.81643676757812 215.83462524414062 257.93505859375
v -160.2595672607422 215.3638916015625 258.16717529296875
v -175.15708923339844 246.33157348632812 118.29588317871094
v -174.6133575439453 246.59312438964844 118.62413787841797
v -174.9569091796875 247.30726623535156 118.29588317871094
v -175.4000244140625 246.8365478515625 118.06378173828125
v -175.38230895996094 246.22323608398438 117.50340270996094
v -175.09921264648438 247.60308837890625 117.50340270996094
v -175.50064086914062 247.04571533203125 117.50341033935547
v -174.9569091796875 247.30728149414062 116.71092224121094
v -175.4000244140625 246.8365478515625 116.94303131103516
v -174.6133575439453 246.5931396484375 116.3826675415039
v -175.15708923339844 246.33157348632812 116.71092224121094
v -174.26980590820312 245.87899780273438 116.71092224121094
v -174.91416931152344 245.82659912109375 116.94303131103516
v -174.12750244140625 245.58322143554688 117.50340270996094
v -174.8135528564453 245.617431640625 117.50340270996094
v -174.26980590820312 245.87899780273438 118.29588317871094
v -174.91416931152344 245.82659912109375 118.06375885009766
v -159.1294403076172 214.406494140625 118.29586029052734
v -159.4729766845703 215.12060546875 118.62409973144531
v -160.01673889160156 214.85903930664062 118.29586029052734
v -159.77378845214844 214.35406494140625 118.06372833251953
v -160.24195861816406 214.75070190429688 117.50336456298828
v -158.9871368408203 214.11068725585938 117.50337982177734
v -159.67318725585938 214.1448974609375 117.50337982177734
v -159.1294403076172 214.406494140625 116.71088409423828
v -159.77378845214844 214.35406494140625 116.94300842285156
v -159.47300720214844 215.12060546875 116.38262939453125
v -160.01673889160156 214.85903930664062 116.71089935302734
v -159.81654357910156 215.83474731445312 116.71088409423828
v -160.25965881347656 215.364013671875 116.94300842285156
v -159.95884704589844 216.13055419921875 117.50337982177734
v -160.3602752685547 215.57318115234375 117.50337982177734
v -159.81654357910156 215.83474731445312 118.29586029052734
v -160.25965881347656 215.364013671875 118.06372833251953
vt 0.87451171875 0.375
vt 0.99951171875 0.375
vt 0.99951171875 0.75
vt 0.87451171875 0.75
vt 0.87451171875 0.375
vt 0.99951171875 0.75
vt 0.87451171875 1.0
vt 0.87451171875 0.75
vt 0.99951171875 0.75
vt 0.75 0.375
vt 0.87451171875 0.375
vt 0.87451171875 0.75
vt 0.75 0.75
vt 0.75 0.375
vt 0.87451171875 0.75
vt 0.75 1.0
vt 0.75 0.75
vt 0.87451171875 0.75
vt 0.625 0.375
vt 0.75 0.375
vt 0.75 0.75
vt 0.625 0.75
vt 0.625 0.375
vt 0.75 0.75
vt 0.625 1.0
vt 0.625 0.75
vt 0.75 0.75
vt 0.5 0.375
vt 0.625 0.375
vt 0.625 0.75
vt 0.5 0.75
vt 0.5 0.375
vt 0.625 0.75
vt 0.5 1.0
vt 0.5 0.75
vt 0.625 0.75
vt 0.375 0.375
vt 0.5 0.375
vt 0.5 0.75
vt 0.375 0.75
vt 0.375 0.375
vt 0.5 0.75
vt 0.375 1.0
vt 0.375 0.75
vt 0.5 0.75
vt 0.25 0.375
vt 0.375 0.375
vt 0.375 0.75
vt 0.25 0.75
vt 0.25 0.375
vt 0.375 0.75
vt 0.25 1.0
vt 0.25 0.75
vt 0.375 0.75
vt 0.125 0.375
vt 0.25 0.375
vt 0.25 0.75
vt 0.125 0.75
vt 0.125 0.375
vt 0.25 0.75
vt 0.125 1.0
vt 0.125 0.75
vt 0.25 0.75
vt 0.0 0.375
vt 0.125 0.375
vt 0.125 0.75
vt 0.0 0.75
vt 0.0 0.375
vt 0.125 0.75
vt 0.0 1.0
vt 0.0 0.75
vt 0.125 0.75
vt 0.99951171875 0.75
vt 0.99951171875 0.375
vt 0.87451171875 0.375
vt 0.87451171875 0.75
vt 0.99951171875 0.75
vt 0.87451171875 0.375
vt 0.87451171875 1.0
vt 0.99951171875 0.75
vt 0.87451171875 0.75
vt 0.87451171875 0.75
vt 0.87451171875 0.375
vt 0.75 0.375
vt 0.75 0.75
vt 0.87451171875 0.75
vt 0.75 0.375
vt 0.75 1.0
vt 0.87451171875 0.75
vt 0.75 0.75
vt 0.75 0.75
vt 0.75 0.375
vt 0.625 0.375
vt 0.625 0.75
vt 0.75 0.75
vt 0.625 0.375
vt 0.625 1.0
vt 0.75 0.75
vt 0.625 0.75
vt 0.625 0.75
vt 0.625 0.375
vt 0.5 0.375
vt 0.5 0.75
vt 0.625 0.75
vt 0.5 0.375
vt 0.5 1.0
vt 0.625 0.75
vt 0.5 0.75
vt 0.5 0.75
vt 0.5 0.375
vt 0.375 0.375
vt 0.375 0.75
vt 0.5 0.75
vt 0.375 0.375
vt 0.375 1.0
vt 0.5 0.75
vt 0.375 0.75
vt 0.375 0.75
vt 0.375 0.375
vt 0.25 0.375
vt 0.25 0.75
vt 0.375 0.75
vt 0.25 0.375
vt 0.25 1.0
vt 0.375 0.75
vt 0.25 0.75
vt 0.25 0.75
vt 0.25 0.375
vt 0.125 0.375
vt 0.125 0.75
vt 0.25 0.75
vt 0.125 0.375
vt 0.125 1.0
vt 0.25 0.75
vt 0.125 0.75
vt 0.125 0.75
vt 0.125 0.375
vt 0.0 0.375
vt 0.0 0.75
vt 0.125 0.75
vt 0.0 0.375
vt 0.0 1.0
vt 0.125 0.75
vt 0.0 0.75
vt 0.99951171875 0.75
vt 0.99951171875 0.375
vt 0.87451171875 0.375
vt 0.87451171875 0.75
vt 0.99951171875 0.75
vt 0.87451171875 0.375
vt 0.87451171875 1.0
vt 0.99951171875 0.75
vt 0.87451171875 0.75
vt 0.87451171875 0.75
vt 0.87451171875 0.375
vt 0.75 0.375
vt 0.75 0.75
vt 0.87451171875 0.75
vt 0.75 0.375
vt 0.75 1.0
vt 0.87451171875 0.75
vt 0.75 0.75
vt 0.75 0.75
vt 0.75 0.375
vt 0.625 0.375
vt 0.625 0.75
vt 0.75 0.75
vt 0.625 0.375
vt 0.625 1.0
vt 0.75 0.75
vt 0.625 0.75
vt 0.625 0.75
vt 0.625 0.375
vt 0.5 0.375
vt 0.5 0.75
vt 0.625 0.75
vt 0.5 0.375
vt 0.5 1.0
vt 0.625 0.75
vt 0.5 0.75
vt 0.5 0.75
vt 0.5 0.375
vt 0.375 0.375
vt 0.375 0.75
vt 0.5 0.75
vt 0.375 0.375
vt 0.375 1.0
vt 0.5 0.75
vt 0.375 0.75
vt 0.375 0.75
vt 0.375 0.375
vt 0.25 0.375
vt 0.25 0.75
vt 0.375 0.75
vt 0.25 0.375
vt 0.25 1.0
vt 0.375 0.75
vt 0.25 0.75
vt 0.25 0.75
vt 0.25 0.375
vt 0.125 0.375
vt 0.125 0.75
vt 0.25 0.75
vt 0.125 0.375
vt 0.125 1.0
vt 0.25 0.75
vt 0.125 0.75
vt 0.125 0.75
vt 0.125 0.375
vt 0.0 0.375
vt 0.0 0.75
vt 0.125 0.75
vt 0.0 0.375
vt 0.0 1.0
vt 0.125 0.75
vt 0.0 0.75
vt 0.87451171875 0.375
vt 0.99951171875 0.375
vt 0.99951171875 0.75
vt 0.87451171875 0.75
vt 0.87451171875 0.375
vt 0.99951171875 0.75
vt 0.87451171875 1.0
vt 0.87451171875 0.75
vt 0.99951171875 0.75
vt 0.75 0.375
vt 0.87451171875 0.375
vt 0.87451171875 0.75
vt 0.75 0.75
vt 0.75 0.375
vt 0.87451171875 0.75
vt 0.75 1.0
vt 0.75 0.75
vt 0.87451171875 0.75
vt 0.625 0.375
vt 0.75 0.375
vt 0.75 0.75
vt 0.625 0.75
vt 0.625 0.375
vt 0.75 0.75
vt 0.625 1.0
vt 0.625 0.75
vt 0.75 0.75
vt 0.5 0.375
vt 0.625 0.375
vt 0.625 0.75
vt 0.5 0.75
vt 0.5 0.375
vt 0.625 0.75
vt 0.5 1.0
vt 0.5 0.75
vt 0.625 0.75
vt 0.375 0.375
vt 0.5 0.375
vt 0.5 0.75
vt 0.375 0.75
vt 0.375 0.375
vt 0.5 0.75
vt 0.375 1.0
vt 0.375 0.75
vt 0.5 0.75
vt 0.25 0.375
vt 0.375 0.375
vt 0.375 0.75
vt 0.25 0.75
vt 0.25 0.375
vt 0.375 0.75
vt 0.25 1.0
vt 0.25 0.75
vt 0.375 0.75
vt 0.125 0.375
vt 0.25 0.375
vt 0.25 0.75
vt 0.125 0.75
vt 0.125 0.375
vt 0.25 0.75
vt 0.125 1.0
vt 0.125 0.75
vt 0.25 0.75
vt 0.0 0.375
vt 0.125 0.375
vt 0.125 0.75
vt 0.0 0.75
vt 0.0 0.375
vt 0.125 0.75
vt 0.0 1.0
vt 0.0 0.75
vt 0.125 0.75
vn -0.6999150514602661 0.3525574803352356 -0.6211458444595337
vn -0.4306661784648895 -0.2071813941001892 -0.8784090876579285
vn -0.6565948724746704 -0.3158683478832245 -0.6849164366722107
vn -0.8665492534637451 0.12057208269834518 -0.4843085706233978
vn -0.9011420011520386 -0.43352383375167847 -3.950942684127767e-09
vn -0.8114489912986755 0.5844231843948364 -1.0095456673298031e-05
vn -0.953511118888855 0.30135783553123474 1.4706239198858384e-05
vn -0.6998929977416992 0.3526008129119873 0.6211461424827576
vn -0.8665371537208557 0.1205878034234047 0.48432621359825134
vn -0.43061429262161255 -0.20714056491851807 0.8784441351890564
vn -0.6565720438957214 -0.31586217880249023 0.6849411725997925
vn -0.1613566130399704 -0.7669088244438171 0.6211400628089905
vn -0.44661781191825867 -0.7523122429847717 0.4843127131462097
vn -0.04984818771481514 -0.9987568259239197 -5.67082906854921e-06
vn -0.3596659302711487 -0.9330810308456421 6.49959417842183e-07
vn -0.16138644516468048 -0.7669200301170349 -0.6211185455322266
vn -0.44663041830062866 -0.7523096203804016 -0.484305202960968
vn -0.656592607498169 -0.3158731460571289 -0.6849161982536316
vn -0.4306575655937195 -0.20715689659118652 -0.8784191608428955
vn -0.16139476001262665 -0.7668993473052979 -0.6211417317390442
vn -0.4466208517551422 -0.7523207664489746 -0.4842965602874756
vn -0.9011439085006714 -0.43352004885673523 -4.3618738345685415e-06
vn -0.04982777312397957 -0.9987578392028809 -1.724111643852666e-05
vn -0.3596556782722473 -0.9330851435661316 1.0557781934039667e-05
vn -0.16134336590766907 -0.7669093012809753 0.6211429238319397
vn -0.44661304354667664 -0.7523025870323181 0.48433226346969604
vn -0.4306044578552246 -0.20716293156147003 0.8784436583518982
vn -0.6565587520599365 -0.3158663809299469 0.6849518418312073
vn -0.6998821496963501 0.3525843322277069 0.6211677193641663
vn -0.866535484790802 0.12058127671480179 0.4843308627605438
vn -0.811448872089386 0.5844235420227051 -8.872098987922072e-06
vn -0.953508734703064 0.30136537551879883 -1.9922904357372317e-06
vn -0.699911892414093 0.3525780439376831 -0.6211377382278442
vn -0.8665444254875183 0.1205931082367897 -0.4843118488788605
vn -0.6565886735916138 -0.3158673048019409 0.6849226951599121
vn -0.430643767118454 -0.20719148218631744 0.8784177303314209
vn -0.6998986601829529 0.3525688648223877 0.6211578845977783
vn -0.8665426969528198 0.12057484686374664 0.48431962728500366
vn -0.9011489748954773 -0.4335095286369324 3.055363890780427e-07
vn -0.8114487528800964 0.5844235420227051 5.625122867058963e-06
vn -0.9535119533538818 0.3013550937175751 -2.6337768304074416e-06
vn -0.6999157667160034 0.3525773584842682 -0.6211336255073547
vn -0.866546630859375 0.12057337909936905 -0.4843127727508545
vn -0.4306478500366211 -0.20716576278209686 -0.8784217834472656
vn -0.6565878987312317 -0.31586962938308716 -0.684922456741333
vn -0.16137713193893433 -0.7669132947921753 -0.6211292147636414
vn -0.446634441614151 -0.7523037195205688 -0.48431065678596497
vn -0.049811847507953644 -0.9987586736679077 -1.4737058336322661e-05
vn -0.3596633970737457 -0.9330821633338928 -2.0629743175959447e-06
vn -0.16137509047985077 -0.7669211626052856 0.6211199164390564
vn -0.44664686918258667 -0.7522972822189331 0.4843091666698456
vn -0.16136325895786285 -0.7668989896774292 0.6211504340171814
vn -0.4306299388408661 -0.20716027915477753 0.8784318566322327
vn -0.6565850973129272 -0.31585702300071716 0.6849309802055359
vn -0.446613073348999 -0.7523202896118164 0.48430463671684265
vn -0.9011483788490295 -0.43351083993911743 -3.8034452245483408e-06
vn -0.04980697110295296 -0.998758852481842 1.3742506780545227e-05
vn -0.35965827107429504 -0.9330840706825256 3.950762220483739e-06
vn -0.1613561511039734 -0.7669165134429932 -0.6211305856704712
vn -0.4466142952442169 -0.7523114681243896 -0.48431718349456787
vn -0.4306534230709076 -0.2071906328201294 -0.878413200378418
vn -0.6565994024276733 -0.31586822867393494 -0.6849120855331421
vn -0.6999188661575317 0.35256049036979675 -0.6211399435997009
vn -0.866549551486969 0.12058398872613907 -0.48430490493774414
vn -0.8114511370658875 0.5844203233718872 -4.84762858832255e-06
vn -0.9535101652145386 0.3013610243797302 8.562580660509411e-06
vn -0.6999199986457825 0.35255295038223267 0.6211428642272949
vn -0.8665462136268616 0.1205785796046257 0.4843122959136963
f 1/1/1 2/2/2 3/3/3
f 4/4/4 1/5/1 3/6/3
f 5/7/5 4/8/4 3/9/3
f 6/10/6 1/11/1 4/12/4
f 7/13/7 6/14/6 4/15/4
f 5/16/5 7/17/7 4/18/4
f 8/19/8 6/20/6 7/21/7
f 9/22/9 8/23/8 7/24/7
f 5/25/5 9/26/9 7/27/7
f 10/28/10 8/29/8 9/30/9
f 11/31/11 10/32/10 9/33/9
f 5/34/5 11/35/11 9/36/9
f 12/37/12 10/38/10 11/39/11
f 13/40/13 12/41/12 11/42/11
f 5/43/5 13/44/13 11/45/11
f 14/46/14 12/47/12 13/48/13
f 15/49/15 14/50/14 13/51/13
f 5/52/5 15/53/15 13/54/13
f 16/55/16 14/56/14 15/57/15
f 17/58/17 16/59/16 15/60/15
f 5/61/5 17/62/17 15/63/15
f 2/64/2 16/65/16 17/66/17
f 3/67/3 2/68/2 17/69/17
f 5/70/5 3/71/3 17/72/17
f 18/73/18 19/74/19 20/75/20
f 21/76/21 18/77/18 20/78/20
f 22/79/22 18/80/18 21/81/21
f 21/82/21 20/83/20 23/84/23
f 24/85/24 21/86/21 23/87/23
f 22/88/22 21/89/21 24/90/24
f 24/91/24 23/92/23 25/93/25
f 26/94/26 24/95/24 25/96/25
f 22/97/22 24/98/24 26/99/26
f 26/100/26 25/101/25 27/102/27
f 28/103/28 26/104/26 27/105/27
f 22/106/22 26/107/26 28/108/28
f 28/109/28 27/110/27 29/111/29
f 30/112/30 28/113/28 29/114/29
f 22/115/22 28/116/28 30/117/30
f 30/118/30 29/119/29 31/120/31
f 32/121/32 30/122/30 31/123/31
f 22/124/22 30/125/30 32/126/32
f 32/127/32 31/128/31 33/129/33
f 34/130/34 32/131/32 33/132/33
f 22/133/22 32/134/32 34/135/34
f 34/136/34 33/137/33 19/138/19
f 18/139/18 34/140/34 19/141/19
f 22/142/22 34/143/34 18/144/18
f 35/145/35 36/146/36 37/147/37
f 38/148/38 35/149/35 37/150/37
f 39/151/39 35/152/35 38/153/38
f 38/154/38 37/155/37 40/156/40
f 41/157/41 38/158/38 40/159/40
f 39/160/39 38/161/38 41/162/41
f 41/163/41 40/164/40 42/165/42
f 43/166/43 41/167/41 42/168/42
f 39/169/39 41/170/41 43/171/43
f 43/172/43 42/173/42 44/174/44
f 45/175/45 43/176/43 44/177/44
f 39/178/39 43/179/43 45/180/45
f 45/181/45 44/182/44 46/183/46
f 47/184/47 45/185/45 46/186/46
f 39/187/39 45/188/45 47/189/47
f 47/190/47 46/191/46 48/192/48
f 49/193/49 47/194/47 48/195/48
f 39/196/39 47/197/47 49/198/49
f 49/199/49 48/200/48 50/201/50
f 51/202/51 49/203/49 50/204/50
f 39/205/39 49/206/49 51/207/51
f 51/208/51 50/209/50 36/210/36
f 35/211/35 51/212/51 36/213/36
f 39/214/39 51/215/51 35/216/35
f 52/217/52 53/218/53 54/219/54
f 55/220/55 52/221/52 54/222/54
f 56/223/56 55/224/55 54/225/54
f 57/226/57 52/227/52 55/228/55
f 58/229/58 57/230/57 55/231/55
f 56/232/56 58/233/58 55/234/55
f 59/235/59 57/236/57 58/237/58
f 60/238/60 59/239/59 58/240/58
f 56/241/56 60/242/60 58/243/58
f 61/244/61 59/245/59 60/246/60
f 62/247/62 61/248/61 60/249/60
f 56/250/56 62/251/62 60/252/60
f 63/253/63 61/254/61 62/255/62
f 64/256/64 63/257/63 62/258/62
f 56/259/56 64/260/64 62/261/62
f 65/262/65 63/263/63 64/264/64
f 66/265/66 65/266/65 64/267/64
f 56/268/56 66/269/66 64/270/64
f 67/271/67 65/272/65 66/273/66
f 68/274/68 67/275/67 66/276/66
f 56/277/56 68/278/68 66/279/66
f 53/280/53 67/281/67 68/282/68
f 54/283/54 53/284/53 68/285/68
f 56/286/56 54/287/54 68/288/68
