# Exported by Lightwave Blender addon
v 534.073486328125 -1492.150146484375 244.5927276611328
v 611.8829956054688 -1523.967041015625 244.5927276611328
v 613.280517578125 -1520.54931640625 243.98609924316406
v 535.4710693359375 -1488.7325439453125 243.986083984375
v 613.46728515625 -1520.092529296875 243.90504455566406
v 535.6577758789062 -1488.2757568359375 243.90504455566406
v 535.6021118164062 -1488.4119873046875 240.7288055419922
v 613.4115600585938 -1520.2288818359375 240.72882080078125
v 613.2247314453125 -1520.685791015625 240.6493682861328
v 535.4152221679688 -1488.868896484375 240.6493377685547
v 611.7994384765625 -1524.17138671875 240.0432891845703
v 533.9899291992188 -1492.3544921875 240.04327392578125
v 613.45849609375 -1520.114013671875 243.4055633544922
v 535.6490478515625 -1488.2972412109375 243.40554809570312
v 613.4203491210938 -1520.2073974609375 241.228271484375
v 535.61083984375 -1488.3905029296875 241.228271484375
vt 0.41015625 0.52587890625
vt -0.00998687744140625 0.52587890625
vt -0.00998687744140625 0.507568359375
vt 0.41015625 0.507568359375
vt 0.41015625 0.52587890625
vt -0.00998687744140625 0.507568359375
vt 0.41015625 0.507568359375
vt -0.00998687744140625 0.507568359375
vt -0.00998687744140625 0.505126953125
vt 0.41015625 0.505126953125
vt 0.41015625 0.507568359375
vt -0.00998687744140625 0.505126953125
vt 0.58935546875 0.505859375
vt 1.009765625 0.505859375
vt 1.009765625 0.50830078125
vt 0.58935546875 0.50830078125
vt 0.58935546875 0.505859375
vt 1.009765625 0.50830078125
vt 0.58935546875 0.50830078125
vt 1.009765625 0.50830078125
vt 1.009765625 0.527099609375
vt 0.58935546875 0.527099609375
vt 0.58935546875 0.50830078125
vt 1.009765625 0.527099609375
vt 0.58935546875 0.3798828125
vt 1.009765625 0.3798828125
vt 1.009765625 0.38232421875
vt 0.58935546875 0.38232421875
vt 0.58935546875 0.3798828125
vt 1.009765625 0.38232421875
vt 0.58935546875 0.38232421875
vt 1.009765625 0.38232421875
vt 1.009765625 0.3935546875
vt 0.58935546875 0.3935546875
vt 0.58935546875 0.38232421875
vt 1.009765625 0.3935546875
vt 0.58935546875 0.3935546875
vt 1.009765625 0.3935546875
vt 1.009765625 0.39599609375
vt 0.58935546875 0.39599609375
vt 0.58935546875 0.3935546875
vt 1.009765625 0.39599609375
vn 0.0613618865609169 0.1500638872385025 0.9867702126502991
vn 0.061359331011772156 0.15005671977996826 0.9867715239524841
vn 0.061351194977760315 0.15003731846809387 0.9867749810218811
vn 0.0613483227789402 0.15003058314323425 0.9867761135101318
vn 0.29411208629608154 0.7192660570144653 0.629408061504364
vn 0.2941085398197174 0.7192566990852356 0.6294204592704773
vn 0.2823446989059448 0.6904844045639038 -0.665967583656311
vn 0.2823357880115509 0.6904632449150085 -0.6659932732582092
vn 0.06014396622776985 0.14708375930786133 -0.9872938394546509
vn 0.06014746427536011 0.14709235727787018 -0.9872922897338867
vn 0.06014210730791092 0.14707905054092407 -0.9872945547103882
vn 0.06014050915837288 0.1470755934715271 -0.9872952699661255
vn 0.37807953357696533 0.9246119856834412 -0.04635196924209595
vn 0.37808093428611755 0.9246136546134949 -0.04630822315812111
vn 0.3780801296234131 0.9246117472648621 -0.04635313153266907
vn 0.3780815005302429 0.924613356590271 -0.04630938917398453
f 1/1/1 2/2/2 3/3/3
f 4/4/4 1/5/1 3/6/3
f 4/7/4 3/8/3 5/9/5
f 6/10/6 4/11/4 5/12/5
f 7/13/7 8/14/8 9/15/9
f 10/16/10 7/17/7 9/18/9
f 10/19/10 9/20/9 11/21/11
f 12/22/12 10/23/10 11/24/11
f 6/25/6 5/26/5 13/27/13
f 14/28/14 6/29/6 13/30/13
f 14/31/14 13/32/13 15/33/15
f 16/34/16 14/35/14 15/36/15
f 16/37/16 15/38/15 8/39/8
f 7/40/7 16/41/16 8/42/8
