# Exported by Lightwave Blender addon
v 263.72882080078125 -182.11688232421875 480.365234375
v 263.72882080078125 -182.11688232421875 487.28515625
v 251.70384216308594 -213.89453125 480.365234375
v 251.70384216308594 -213.89453125 487.2851257324219
v 250.6981964111328 -214.34811401367188 487.2851257324219
v 250.69821166992188 -214.34811401367188 480.365234375
v 113.56790161132812 -162.4801025390625 479.7218017578125
v 113.5678939819336 -162.4801025390625 486.6417541503906
v 113.1143798828125 -161.47462463378906 486.6417541503906
v 113.1143798828125 -161.474609375 479.7218017578125
v 125.091796875 -129.823974609375 479.7218322753906
v 125.091796875 -129.823974609375 486.64178466796875
v 125.8215103149414 -130.09803771972656 478.94183349609375
v 113.84395599365234 -161.75054931640625 478.94183349609375
v 262.999267578125 -181.84092712402344 479.5852355957031
v 250.97427368164062 -213.6185760498047 479.5852355957031
v 262.999267578125 -181.84092712402344 488.065185546875
v 250.97427368164062 -213.6185760498047 488.0651550292969
v 113.84396362304688 -161.75057983398438 487.4217834472656
v 125.8215103149414 -130.09803771972656 487.4217834472656
vt 2.3125 1.498046875
vt 2.3125 1.54150390625
vt 2.099609375 1.498291015625
vt 2.3125 1.54150390625
vt 2.099609375 1.54150390625
vt 2.099609375 1.498291015625
vt 2.099609375 1.54150390625
vt 2.091796875 1.54150390625
vt 2.099609375 1.498291015625
vt 2.091796875 1.54150390625
vt 2.091796875 1.498291015625
vt 2.099609375 1.498291015625
vt 2.091796875 1.498291015625
vt 2.091796875 1.54150390625
vt 1.17578125 1.494140625
vt 2.091796875 1.54150390625
vt 1.17578125 1.53759765625
vt 1.17578125 1.494140625
vt 1.17578125 1.494140625
vt 1.17578125 1.53759765625
vt 1.1689453125 1.53759765625
vt 1.1689453125 1.494140625
vt 1.17578125 1.494140625
vt 1.1689453125 1.53759765625
vt 0.95703125 1.494384765625
vt 1.1689453125 1.494140625
vt 1.1689453125 1.53759765625
vt 0.95703125 1.53759765625
vt 0.95703125 1.494384765625
vt 1.1689453125 1.53759765625
vt 1.185546875 1.07666015625
vt 1.1923828125 1.07666015625
vt 1.185546875 1.30078125
vt 1.1923828125 1.07666015625
vt 1.1923828125 1.30078125
vt 1.185546875 1.30078125
vt 1.19140625 1.307373046875
vt 1.185546875 1.30078125
vt 1.1923828125 1.30078125
vt 1.1923828125 1.07666015625
vt 2.162109375 1.07666015625
vt 1.1923828125 1.30078125
vt 1.19140625 1.307373046875
vt 1.1923828125 1.30078125
vt 2.162109375 1.307373046875
vt 2.162109375 1.07666015625
vt 2.162109375 1.30078125
vt 1.1923828125 1.30078125
vt 1.1923828125 1.30078125
vt 2.162109375 1.30078125
vt 2.162109375 1.307373046875
vt 2.162109375 1.30078125
vt 2.162109375 1.07666015625
vt 2.166015625 1.07666015625
vt 2.166015625 1.30078125
vt 2.162109375 1.307373046875
vt 2.162109375 1.30078125
vt 2.166015625 1.30078125
vt 2.162109375 1.30078125
vt 2.166015625 1.07666015625
vt 2.169921875 0.969696044921875
vt 2.1640625 0.969696044921875
vt 2.169921875 0.74560546875
vt 2.1640625 0.969696044921875
vt 2.1640625 0.74560546875
vt 2.169921875 0.74560546875
vt 2.1640625 0.74560546875
vt 2.166015625 0.739013671875
vt 2.169921875 0.74560546875
vt 2.166015625 0.739013671875
vt 2.1640625 0.74560546875
vt 1.1953125 0.739013671875
vt 2.1640625 0.74560546875
vt 2.1640625 0.969696044921875
vt 1.1962890625 0.74560546875
vt 2.1640625 0.74560546875
vt 1.1962890625 0.74560546875
vt 1.1953125 0.739013671875
vt 2.1640625 0.969696044921875
vt 1.1962890625 0.969696044921875
vt 1.1962890625 0.74560546875
vt 1.1962890625 0.74560546875
vt 1.189453125 0.74560546875
vt 1.1953125 0.739013671875
vt 1.1962890625 0.74560546875
vt 1.1962890625 0.969696044921875
vt 1.189453125 0.969696044921875
vt 1.189453125 0.74560546875
vt 1.1962890625 0.74560546875
vt 1.189453125 0.969696044921875
vn 0.8640862703323364 -0.32697901129722595 -0.38267430663108826
vn 0.864088773727417 -0.3269801735877991 0.38266751170158386
vn 0.6980416774749756 -0.6293296813964844 -0.34158745408058167
vn 0.6980444192886353 -0.629331648349762 0.3415781557559967
vn 0.008940532803535461 -0.9395818710327148 0.3422074317932129
vn 0.01044257078319788 -0.940020740032196 -0.3409574627876282
vn -0.6285662651062012 -0.698412299156189 -0.34223508834838867
vn -0.6299881339073181 -0.6977556943893433 0.3409572243690491
vn -0.939798891544342 -0.009630952030420303 0.3415922522544861
vn -0.9397951364517212 -0.009630615822970867 -0.3416026532649994
vn -0.864052951335907 0.32698020339012146 -0.38274839520454407
vn -0.8640543222427368 0.3269738256931305 0.38275083899497986
vn -0.3558368980884552 0.1346581131219864 -0.9247958064079285
vn -0.4385702311992645 -0.19928894937038422 -0.8763219118118286
vn 0.3599470555782318 -0.136207714676857 -0.9229764342308044
vn 0.20039644837379456 -0.44101041555404663 -0.874843418598175
vn 0.35616832971572876 -0.1347784548997879 0.9246506094932556
vn 0.1968517303466797 -0.4397191107273102 0.8762970566749573
vn -0.4421079158782959 -0.19792523980140686 0.8748521208763123
vn -0.35963600873947144 0.13608883321285248 0.9231151938438416
f 1/1/1 2/2/2 3/3/3
f 2/4/2 4/5/4 3/6/3
f 4/7/4 5/8/5 3/9/3
f 5/10/5 6/11/6 3/12/3
f 6/13/6 5/14/5 7/15/7
f 5/16/5 8/17/8 7/18/7
f 7/19/7 8/20/8 9/21/9
f 10/22/10 7/23/7 9/24/9
f 11/25/11 10/26/10 9/27/9
f 12/28/12 11/29/11 9/30/9
f 11/31/11 13/32/13 10/33/10
f 13/34/13 14/35/14 10/36/10
f 7/37/7 10/38/10 14/39/14
f 13/40/13 15/41/15 14/42/14
f 7/43/7 14/44/14 6/45/6
f 15/46/15 16/47/16 14/48/14
f 14/49/14 16/50/16 6/51/6
f 16/52/16 15/53/15 1/54/1
f 3/55/3 6/56/6 16/57/16
f 3/58/3 16/59/16 1/60/1
f 2/61/2 17/62/17 4/63/4
f 17/64/17 18/65/18 4/66/4
f 18/67/18 5/68/5 4/69/4
f 5/70/5 18/71/18 8/72/8
f 18/73/18 17/74/17 19/75/19
f 18/76/18 19/77/19 8/78/8
f 17/79/17 20/80/20 19/81/19
f 19/82/19 9/83/9 8/84/8
f 19/85/19 20/86/20 12/87/12
f 9/88/9 19/89/19 12/90/12
