# Exported by Lightwave Blender addon
v 1775.00439453125 3256.79052734375 319.14263916015625
v 1775.0042724609375 3256.79052734375 139.43759155273438
v 1746.2750244140625 3208.317138671875 139.43759155273438
v 1746.27490234375 3208.317138671875 319.14263916015625
v 1716.659423828125 3158.348388671875 319.14263916015625
v 1745.556884765625 3207.105712890625 319.14263916015625
v 1745.5572509765625 3207.10595703125 139.43759155273438
v 1716.659423828125 3158.348388671875 139.43759155273438
vt 0.251220703125 0.9884872436523438
vt 0.251220703125 0.22509765625
vt 0.497802734375 0.22509765625
vt 0.497802734375 0.22509765625
vt 0.497802734375 0.9884872436523438
vt 0.251220703125 0.9884872436523438
vt 0.2491455078125 0.9884872436523438
vt 0.00260162353515625 0.9884872436523438
vt 0.00260162353515625 0.22509765625
vt 0.00260162353515625 0.22509765625
vt 0.2491455078125 0.22509765625
vt 0.2491455078125 0.9884872436523438
vn -0.8602567315101624 0.509861171245575 -3.58307715941919e-07
vn -0.8602583408355713 0.5098585486412048 5.843575081598829e-07
vn -0.8602578639984131 0.5098591446876526 3.583085401714925e-07
vn -0.8602563738822937 0.5098617672920227 -5.843562576046679e-07
vn -0.8602584600448608 0.5098581910133362 -8.54171389619296e-07
vn -0.8602588176727295 0.5098576545715332 -1.060399881680496e-06
vn -0.8602573871612549 0.5098599791526794 -2.0622722729513043e-07
vn -0.8602569699287415 0.5098605155944824 0.0
f 1/1/1 2/2/2 3/3/3
f 3/4/3 4/5/4 1/6/1
f 5/7/5 6/8/6 7/9/7
f 7/10/7 8/11/8 5/12/5
