# Exported by Lightwave Blender addon
v -348.3284606933594 -1871.843994140625 725.0363159179688
v -349.632568359375 -1872.3909912109375 726.0362548828125
v -348.5568542480469 -1872.4024658203125 724.1182861328125
v -325.88177490234375 -1816.9493408203125 724.1190795898438
v -326.6559143066406 -1816.20068359375 726.0354614257812
v -326.10870361328125 -1817.504638671875 725.0354614257812
v -365.7996520996094 -1854.4786376953125 701.1167602539062
v -373.0693359375 -1853.8447265625 708.031494140625
v -350.47637939453125 -1817.0048828125 701.1165161132812
v -356.3703918457031 -1813.006591796875 708.0315551757812
v -344.1299133300781 -1861.580322265625 694.5281372070312
v -358.3959045410156 -1855.74560546875 694.5292358398438
v -330.094482421875 -1827.2559814453125 694.5286865234375
v -344.3608703613281 -1821.423828125 694.52978515625
v -360.0245056152344 -1855.255126953125 695.2501831054688
v -345.8615417480469 -1820.6204833984375 695.2507934570312
v -349.2544860839844 -1871.465087890625 772.02099609375
v -327.0347900390625 -1817.1258544921875 772.0201416015625
v -375.7666931152344 -1860.6236572265625 772.0198364257812
v -353.1478576660156 -1806.453369140625 772.0202026367188
v -376.151611328125 -1861.546630859375 726.03515625
v -376.1520690917969 -1861.5462646484375 771.0198364257812
v -349.6329650878906 -1872.3907470703125 771.02099609375
v -348.3288879394531 -1871.843505859375 771.02099609375
v -326.109130859375 -1817.50439453125 771.0202026367188
v -352.7621765136719 -1805.5308837890625 726.0354614257812
v -326.65631103515625 -1816.2003173828125 771.0201416015625
v -352.7625732421875 -1805.530517578125 771.0202026367188
v -354.0735168457031 -1806.074951171875 771.0202026367188
v -376.6922912597656 -1860.2452392578125 771.0198364257812
v -376.6918640136719 -1860.2454833984375 725.0350952148438
v -352.9250793457031 -1805.896728515625 724.1190795898438
v -355.661865234375 -1812.0404052734375 708.7359008789062
v -328.4256286621094 -1823.1700439453125 708.7360229492188
v -349.1719055175781 -1816.456787109375 701.1165161132812
v -329.0354919433594 -1824.665283203125 701.1165161132812
v -344.4049987792969 -1820.0419921875 695.4948120117188
v -329.6163635253906 -1826.08642578125 695.4933471679688
v -359.3887023925781 -1856.6796875 695.4999389648438
v -344.5995178222656 -1862.728515625 695.4987182617188
v -365.25262451171875 -1855.7828369140625 701.1167602539062
v -345.1268615722656 -1864.0172119140625 701.1167602539062
v -373.2730407714844 -1855.1094970703125 708.73583984375
v -346.0423278808594 -1866.252197265625 708.7359008789062
v -375.9895324707031 -1861.1844482421875 724.1171264648438
v -354.0731201171875 -1806.0751953125 725.0354614257812
v -373.9476013183594 -1854.12353515625 709.73583984375
v -356.8379211425781 -1812.2666015625 709.7359008789062
vt -0.8857421875 0.557861328125
vt -0.890625 0.562744140625
vt -0.888671875 0.55322265625
vt -0.5888671875 0.55322265625
vt -0.5869140625 0.562744140625
vt -0.591796875 0.557861328125
vt -0.83837890625 0.46240234375
vt -0.84912109375 0.427734375
vt -0.6357421875 0.46240234375
vt -0.84912109375 0.427734375
vt -0.62841796875 0.427734375
vt -0.6357421875 0.46240234375
vt -0.830078125 0.576171875
vt -0.830078125 0.49951171875
vt -0.64453125 0.576171875
vt -0.830078125 0.49951171875
vt -0.64453125 0.49951171875
vt -0.64453125 0.576171875
vt 1.8310546875 0.4091796875
vt 1.837890625 0.4384765625
vt 1.6435546875 0.4091796875
vt 1.837890625 0.4384765625
vt 1.6357421875 0.4384765625
vt 1.6435546875 0.4091796875
vt 1.8857421875 0.5712890625
vt 1.591796875 0.5712890625
vt 1.8857421875 0.42822265625
vt 1.591796875 0.5712890625
vt 1.591796875 0.43017578125
vt 1.8857421875 0.42822265625
vt 0.427734375 0.562744140625
vt 0.57080078125 0.562744140625
vt 0.427734375 0.78759765625
vt 0.57080078125 0.562744140625
vt 0.57080078125 0.7877197265625
vt 0.427734375 0.78759765625
vt -0.8857421875 0.557861328125
vt -0.591796875 0.557861328125
vt -0.8857421875 0.7877197265625
vt -0.591796875 0.557861328125
vt -0.591796875 0.78759765625
vt -0.8857421875 0.7877197265625
vt 0.4287109375 0.562744140625
vt 0.56982421875 0.562744140625
vt 0.4287109375 0.78759765625
vt 0.56982421875 0.562744140625
vt 0.56982421875 0.78759765625
vt 0.4287109375 0.78759765625
vt 1.591796875 0.7926025390625
vt 1.591796875 0.78759765625
vt 1.8857421875 0.7926025390625
vt 1.591796875 0.78759765625
vt 1.8857421875 0.78759765625
vt 1.8857421875 0.7926025390625
vt 1.8857421875 0.557861328125
vt 1.890625 0.562744140625
vt 1.8857421875 0.78759765625
vt 1.890625 0.562744140625
vt 1.890625 0.78759765625
vt 1.8857421875 0.78759765625
vt 0.423828125 0.557861328125
vt 0.4287109375 0.562744140625
vt 0.423828125 0.78759765625
vt 0.4287109375 0.562744140625
vt 0.4287109375 0.78759765625
vt 0.423828125 0.78759765625
vt 0.56982421875 0.55322265625
vt 0.423828125 0.55322265625
vt 0.57080078125 0.4765625
vt 0.423828125 0.55322265625
vt 0.423828125 0.4765625
vt 0.57080078125 0.4765625
vt 0.57080078125 0.4765625
vt 0.423828125 0.4765625
vt 0.5322265625 0.4384765625
vt 0.423828125 0.4765625
vt 0.423828125 0.4384765625
vt 0.5322265625 0.4384765625
vt 0.5322265625 0.4384765625
vt 0.423828125 0.4384765625
vt 0.50341796875 0.41015625
vt 0.423828125 0.4384765625
vt 0.423828125 0.41015625
vt 0.50341796875 0.41015625
vt 0.49609375 0.41015625
vt 0.57568359375 0.41015625
vt 0.46728515625 0.4384765625
vt 0.57568359375 0.41015625
vt 0.57568359375 0.4384765625
vt 0.46728515625 0.4384765625
vt 0.46728515625 0.4384765625
vt 0.57568359375 0.4384765625
vt 0.428955078125 0.4765625
vt 0.57568359375 0.4384765625
vt 0.57568359375 0.4765625
vt 0.428955078125 0.4765625
vt 0.428955078125 0.4765625
vt 0.57568359375 0.4765625
vt 0.427734375 0.55322265625
vt 0.57568359375 0.4765625
vt 0.57568359375 0.55322265625
vt 0.427734375 0.55322265625
vt 0.57568359375 0.7877197265625
vt 0.57080078125 0.7926025390625
vt 0.57080078125 0.7877197265625
vt 0.57568359375 0.557861328125
vt 0.57568359375 0.7877197265625
vt 0.57080078125 0.7877197265625
vt 0.57080078125 0.562744140625
vt 0.57568359375 0.557861328125
vt 0.57080078125 0.7877197265625
vt -0.62841796875 0.427734375
vt -0.62255859375 0.42919921875
vt -0.6357421875 0.46240234375
vt -0.62255859375 0.42919921875
vt -0.630859375 0.4677734375
vt -0.6357421875 0.46240234375
vt -0.6357421875 0.46240234375
vt -0.630859375 0.4677734375
vt -0.64404296875 0.49072265625
vt -0.630859375 0.4677734375
vt -0.63818359375 0.49658203125
vt -0.64404296875 0.49072265625
vt -0.63818359375 0.576171875
vt -0.64453125 0.576171875
vt -0.63818359375 0.49658203125
vt -0.64453125 0.576171875
vt -0.64453125 0.49951171875
vt -0.63818359375 0.49658203125
vt -0.63818359375 0.49658203125
vt -0.64453125 0.49951171875
vt -0.64404296875 0.49072265625
vt -0.8310546875 0.49072265625
vt -0.64404296875 0.49072265625
vt -0.64453125 0.49951171875
vt -0.830078125 0.49951171875
vt -0.8310546875 0.49072265625
vt -0.64453125 0.49951171875
vt -0.830078125 0.576171875
vt -0.83642578125 0.576171875
vt -0.830078125 0.49951171875
vt -0.83642578125 0.576171875
vt -0.83642578125 0.49658203125
vt -0.830078125 0.49951171875
vt -0.8310546875 0.49072265625
vt -0.830078125 0.49951171875
vt -0.83642578125 0.49658203125
vt -0.8310546875 0.49072265625
vt -0.83642578125 0.49658203125
vt -0.83837890625 0.46240234375
vt -0.83642578125 0.49658203125
vt -0.84326171875 0.4677734375
vt -0.83837890625 0.46240234375
vt -0.83837890625 0.46240234375
vt -0.84326171875 0.4677734375
vt -0.84912109375 0.427734375
vt -0.84326171875 0.4677734375
vt -0.85546875 0.42919921875
vt -0.84912109375 0.427734375
vt 1.8857421875 0.5712890625
vt 1.8857421875 0.576171875
vt 1.591796875 0.5712890625
vt 1.8857421875 0.576171875
vt 1.591796875 0.576171875
vt 1.591796875 0.5712890625
vt 1.5869140625 0.5712890625
vt 1.591796875 0.5712890625
vt 1.591796875 0.576171875
vt 0.4287109375 0.7926025390625
vt 0.4287109375 0.78759765625
vt 0.56982421875 0.7926025390625
vt 0.4287109375 0.78759765625
vt 0.56982421875 0.78759765625
vt 0.56982421875 0.7926025390625
vt 0.57470703125 0.78759765625
vt 0.56982421875 0.7926025390625
vt 0.56982421875 0.78759765625
vt 0.57470703125 0.557861328125
vt 0.57470703125 0.78759765625
vt 0.56982421875 0.78759765625
vt 0.56982421875 0.562744140625
vt 0.57470703125 0.557861328125
vt 0.56982421875 0.78759765625
vt 0.57470703125 0.557861328125
vt 0.56982421875 0.562744140625
vt 0.56982421875 0.55322265625
vt 0.423828125 0.55322265625
vt 0.56982421875 0.55322265625
vt 0.56982421875 0.562744140625
vt 0.4287109375 0.562744140625
vt 0.423828125 0.55322265625
vt 0.56982421875 0.562744140625
vt 0.427734375 0.55322265625
vt 0.427734375 0.562744140625
vt 0.4228515625 0.557861328125
vt 0.427734375 0.562744140625
vt 0.427734375 0.55322265625
vt 0.57080078125 0.562744140625
vt 0.427734375 0.55322265625
vt 0.57568359375 0.55322265625
vt 0.57080078125 0.562744140625
vt 1.890625 0.42822265625
vt 1.8857421875 0.42822265625
vt 1.8857421875 0.42333984375
vt 1.8857421875 0.42822265625
vt 1.890625 0.42822265625
vt 1.8857421875 0.5712890625
vt 1.890625 0.42822265625
vt 1.890625 0.5712890625
vt 1.8857421875 0.5712890625
vt 1.85546875 0.4765625
vt 1.888671875 0.55322265625
vt 1.8857421875 0.557861328125
vt 1.8515625 0.4814453125
vt 1.85546875 0.4765625
vt 1.8857421875 0.557861328125
vt 1.85546875 0.4765625
vt 1.8515625 0.4814453125
vt 1.8486328125 0.47265625
vt 1.6279296875 0.47265625
vt 1.8486328125 0.47265625
vt 1.8515625 0.4814453125
vt 1.6259765625 0.4814453125
vt 1.6279296875 0.47265625
vt 1.8515625 0.4814453125
vt 1.6259765625 0.4814453125
vt 1.6220703125 0.4765625
vt 1.6279296875 0.47265625
vt 1.5888671875 0.55322265625
vt 1.6220703125 0.4765625
vt 1.6259765625 0.4814453125
vt 1.591796875 0.557861328125
vt 1.5888671875 0.55322265625
vt 1.6259765625 0.4814453125
vt 1.8515625 0.4814453125
vt 1.8857421875 0.557861328125
vt 1.6259765625 0.4814453125
vt 1.8857421875 0.557861328125
vt 1.591796875 0.557861328125
vt 1.6259765625 0.4814453125
vt 1.591796875 0.557861328125
vt 1.8857421875 0.557861328125
vt 1.591796875 0.78759765625
vt 1.8857421875 0.557861328125
vt 1.8857421875 0.78759765625
vt 1.591796875 0.78759765625
vn 0.7014418840408325 -0.6989094614982605 0.13965938985347748
vn -0.03756382316350937 -0.9983545541763306 -0.04332684725522995
vn -0.14566786587238312 -0.9726460576057434 -0.18094369769096375
vn 0.5772806406021118 0.7955777645111084 -0.18385599553585052
vn 0.6724945306777954 0.7387809753417969 -0.044202256947755814
vn 0.9902154207229614 0.007564186118543148 0.13934244215488434
vn -0.696380078792572 -0.008786582387983799 -0.7176192998886108
vn -0.7985881567001343 0.06434973329305649 -0.598427951335907
vn -0.49297845363616943 0.5066759586334229 -0.7072847485542297
vn -0.6164084076881409 0.5231921672821045 -0.5884816646575928
vn -0.12343097478151321 -0.30161306262016296 -0.9454070329666138
vn -0.26043590903282166 -0.20608903467655182 -0.9432393312454224
vn 0.1211245059967041 0.2965456247329712 -0.9473064541816711
vn -0.04340558871626854 0.3246214985847473 -0.9448475241661072
vn -0.6012586951255798 -0.07123769074678421 -0.7958726286888123
vn -0.37977272272109985 0.46067339181900024 -0.8022173047065735
vn 0.1868811994791031 -0.44544458389282227 0.875588059425354
vn 0.4454256296157837 0.18695184588432312 0.8755826950073242
vn -0.4455240070819855 -0.18498463928699493 0.8759503960609436
vn -0.1855505406856537 0.44677209854125977 0.8751946687698364
vn -0.6865617632865906 -0.722718358039856 -0.07944270223379135
vn -0.6489415764808655 -0.6797426342964172 0.341796338558197
vn -0.015201578848063946 -0.9397226572036743 0.34159961342811584
vn 0.6811884641647339 -0.6475348472595215 0.34158575534820557
vn 0.9397188425064087 -0.01519626472145319 0.34161025285720825
vn 0.020631592720746994 0.9966402053833008 -0.07926297932863235
vn 0.6474952101707458 0.6812313199043274 0.3415755033493042
vn 0.017059436067938805 0.9397826790809631 0.34134647250175476
vn -0.6778078675270081 0.6512008309364319 0.34134113788604736
vn -0.9395522475242615 0.020188815891742706 0.3418099880218506
vn -0.9926595687866211 -0.06555318087339401 -0.10163568705320358
vn 0.01994565688073635 0.9554153084754944 -0.2945907413959503
vn -0.13173933327198029 0.8791334629058838 -0.45800554752349854
vn 0.35986635088920593 0.8815160393714905 -0.30565616488456726
vn 0.04638133570551872 0.8764936327934265 -0.47917401790618896
vn 0.36720797419548035 0.8999119997024536 -0.23519468307495117
vn 0.13921959698200226 0.7864895462989807 -0.6017076373100281
vn 0.313774436712265 0.7678328156471252 -0.5585503578186035
vn -0.45951735973358154 -0.6656838059425354 -0.5879700779914856
vn -0.3177819550037384 -0.7767512202262878 -0.543757438659668
vn -0.5689055919647217 -0.6334244608879089 -0.5245187878608704
vn -0.36446869373321533 -0.8907593488693237 -0.2714964747428894
vn -0.6998550295829773 -0.527068555355072 -0.4820804297924042
vn -0.35471123456954956 -0.8670507669448853 -0.34986135363578796
vn -0.6561642289161682 -0.6936089992523193 -0.2972460389137268
vn -0.654988169670105 0.7496470808982849 -0.09497237950563431
vn -0.96175217628479 0.07792703062295914 -0.2626025080680847
vn -0.7390018701553345 0.6259735822677612 -0.24906495213508606
f 1/1/1 2/2/2 3/3/3
f 4/4/4 5/5/5 6/6/6
f 7/7/7 8/8/8 9/9/9
f 8/10/8 10/11/10 9/12/9
f 11/13/11 12/14/12 13/15/13
f 12/16/12 14/17/14 13/18/13
f 15/19/15 7/20/7 16/21/16
f 7/22/7 9/23/9 16/24/16
f 17/25/17 18/26/18 19/27/19
f 18/28/18 20/29/20 19/30/19
f 21/31/21 2/32/2 22/33/22
f 2/34/2 23/35/23 22/36/22
f 1/37/1 6/38/6 24/39/24
f 6/40/6 25/41/25 24/42/24
f 5/43/5 26/44/26 27/45/27
f 26/46/26 28/47/28 27/48/27
f 20/49/20 29/50/29 19/51/19
f 29/52/29 30/53/30 19/54/19
f 31/55/31 21/56/21 30/57/30
f 21/58/21 22/59/22 30/60/30
f 6/61/6 5/62/5 25/63/25
f 5/64/5 27/65/27 25/66/25
f 32/67/32 4/68/4 33/69/33
f 4/70/4 34/71/34 33/72/33
f 33/73/33 34/74/34 35/75/35
f 34/76/34 36/77/36 35/78/35
f 35/79/35 36/80/36 37/81/37
f 36/82/36 38/83/38 37/84/37
f 39/85/39 40/86/40 41/87/41
f 40/88/40 42/89/42 41/90/41
f 41/91/41 42/92/42 43/93/43
f 42/94/42 44/95/44 43/96/43
f 43/97/43 44/98/44 45/99/45
f 44/100/44 3/101/3 45/102/45
f 24/103/24 17/104/17 23/105/23
f 1/106/1 24/107/24 23/108/23
f 2/109/2 1/110/1 23/111/23
f 10/112/10 33/113/33 9/114/9
f 33/115/33 35/116/35 9/117/9
f 9/118/9 35/119/35 16/120/16
f 35/121/35 37/122/37 16/123/16
f 38/124/38 13/125/13 37/126/37
f 13/127/13 14/128/14 37/129/37
f 37/130/37 14/131/14 16/132/16
f 15/133/15 16/134/16 14/135/14
f 12/136/12 15/137/15 14/138/14
f 11/139/11 40/140/40 12/141/12
f 40/142/40 39/143/39 12/144/12
f 15/145/15 12/146/12 39/147/39
f 15/148/15 39/149/39 7/150/7
f 39/151/39 41/152/41 7/153/7
f 7/154/7 41/155/41 8/156/8
f 41/157/41 43/158/43 8/159/8
f 17/160/17 24/161/24 18/162/18
f 24/163/24 25/164/25 18/165/18
f 27/166/27 18/167/18 25/168/25
f 18/169/18 27/170/27 20/171/20
f 27/172/27 28/173/28 20/174/20
f 29/175/29 20/176/20 28/177/28
f 46/178/46 29/179/29 28/180/28
f 26/181/26 46/182/46 28/183/28
f 46/184/46 26/185/26 32/186/32
f 4/187/4 32/188/32 26/189/26
f 5/190/5 4/191/4 26/192/26
f 45/193/45 21/194/21 31/195/31
f 21/196/21 45/197/45 2/198/2
f 45/199/45 3/200/3 2/201/2
f 22/202/22 19/203/19 30/204/30
f 19/205/19 22/206/22 17/207/17
f 22/208/22 23/209/23 17/210/17
f 43/211/43 45/212/45 31/213/31
f 47/214/47 43/215/43 31/216/31
f 43/217/43 47/218/47 8/219/8
f 10/220/10 8/221/8 47/222/47
f 48/223/48 10/224/10 47/225/47
f 48/226/48 33/227/33 10/228/10
f 32/229/32 33/230/33 48/231/48
f 46/232/46 32/233/32 48/234/48
f 47/235/47 31/236/31 48/237/48
f 31/238/31 46/239/46 48/240/48
f 46/241/46 31/242/31 29/243/29
f 31/244/31 30/245/30 29/246/29
