# Exported by Lightwave Blender addon
v -54.904911041259766 -70.4922103881836 269.0178527832031
v -42.0173454284668 -64.22116088867188 266.5754089355469
v -47.77363967895508 -85.14759063720703 269.0178527832031
v -34.886077880859375 -78.87654113769531 266.57537841796875
vt 0.0 1.0
vt 0.0 0.0
vt 1.0 1.0
vt 0.0 0.0
vt 1.0 0.0
vt 1.0 1.0
vn -0.15105877816677094 -0.07350482791662216 -0.9857881665229797
vn -0.15106002986431122 -0.07350446283817291 -0.9857879281044006
vn -0.15106022357940674 -0.07350441068410873 -0.9857879877090454
vn -0.15106146037578583 -0.07350404560565948 -0.9857878088951111
f 1/1/1 2/2/2 3/3/3
f 2/4/2 4/5/4 3/6/3
