# Exported by Lightwave Blender addon
v -1722.757568359375 364.6725769042969 413.7490234375
v -1716.182373046875 368.0132141113281 413.7490234375
v -1718.4012451171875 370.4830627441406 377.2838134765625
v -1723.4439697265625 367.9208984375 377.2838134765625
v -1730.1219482421875 365.0669860839844 413.7490234375
v -1729.092529296875 368.2234191894531 377.2838134765625
v -1736.302734375 369.0907897949219 413.7490234375
v -1733.8328857421875 371.3095397949219 377.2838134765625
v -1739.643310546875 375.66583251953125 413.7490234375
v -1736.3948974609375 376.3523864746094 377.2838134765625
v -1739.2489013671875 383.03033447265625 413.7490234375
v -1736.0926513671875 382.000732421875 377.2838134765625
v -1735.2252197265625 389.2109680175781 413.7490234375
v -1733.00634765625 386.7410888671875 377.2838134765625
v -1728.6500244140625 392.5516357421875 413.7490234375
v -1727.9635009765625 389.3032531738281 377.2838134765625
v -1721.2857666015625 392.1572265625 413.7490234375
v -1722.3150634765625 389.0007629394531 377.2838134765625
v -1715.10498046875 388.1333923339844 413.7490234375
v -1717.5748291015625 385.9146423339844 377.2838134765625
v -1711.7642822265625 381.558349609375 413.7490234375
v -1715.0125732421875 380.87176513671875 377.2838134765625
v -1712.1588134765625 374.19384765625 413.7490234375
v -1715.3150634765625 375.2234191894531 377.2838134765625
v -1720.1151123046875 367.6127014160156 377.2838134765625
v -1717.55029296875 369.5357360839844 377.2838134765625
v -1715.0728759765625 366.778076171875 413.7490234375
v -1718.4171142578125 364.2707214355469 413.7490234375
v -1722.4141845703125 363.048095703125 413.7490234375
v -1723.1807861328125 366.67498779296875 377.2838134765625
v -1726.36376953125 366.2920227050781 377.2838134765625
v -1726.56396484375 362.548828125 413.7490234375
v -1730.6368408203125 363.48846435546875 413.7490234375
v -1729.4874267578125 367.01275634765625 377.2838134765625
v -1732.435302734375 368.27252197265625 377.2838134765625
v -1734.4805908203125 365.1310119628906 413.7490234375
v -1737.53759765625 367.981201171875 413.7490234375
v -1734.7801513671875 370.4585266113281 377.2838134765625
v -1736.7032470703125 373.02349853515625 377.2838134765625
v -1740.0452880859375 371.32550048828125 413.7490234375
v -1741.267822265625 375.3224792480469 413.7490234375
v -1737.6407470703125 376.08905029296875 377.2838134765625
v -1738.023681640625 379.27191162109375 377.2838134765625
v -1741.76708984375 379.472412109375 413.7490234375
v -1740.827392578125 383.54522705078125 413.7490234375
v -1737.3031005859375 382.3956298828125 377.2838134765625
v -1736.0433349609375 385.343505859375 377.2838134765625
v -1739.1846923828125 387.3887634277344 413.7490234375
v -1736.334716796875 390.44610595703125 413.7490234375
v -1733.857177734375 387.68841552734375 377.2838134765625
v -1731.292236328125 389.6114501953125 377.2838134765625
v -1732.990478515625 392.9534606933594 413.7490234375
v -1728.993408203125 394.1761169433594 413.7490234375
v -1728.226806640625 390.5491943359375 377.2838134765625
v -1725.044189453125 390.9321594238281 377.2838134765625
v -1724.8436279296875 394.6754150390625 413.7490234375
v -1720.770751953125 393.7357177734375 413.7490234375
v -1721.9202880859375 390.21142578125 377.2838134765625
v -1718.972412109375 388.95166015625 377.2838134765625
v -1716.927001953125 392.0931701660156 413.7490234375
v -1713.8697509765625 389.24298095703125 413.7490234375
v -1716.6275634765625 386.7656555175781 377.2838134765625
v -1714.7044677734375 384.20068359375 377.2838134765625
v -1711.3623046875 385.8987121582031 413.7490234375
v -1710.1397705078125 381.9017028808594 413.7490234375
v -1713.7667236328125 381.1351013183594 377.2838134765625
v -1713.3837890625 377.9522705078125 377.2838134765625
v -1709.640625 377.75177001953125 413.7490234375
v -1710.580078125 373.678955078125 413.7490234375
v -1714.1044921875 374.82855224609375 377.2838134765625
v -1715.3642578125 371.880615234375 377.2838134765625
v -1712.22265625 369.8354187011719 413.7490234375
vt 0.0927734375 0.09716796875
vt 0.0162200927734375 0.09716796875
vt 0.0162200927734375 0.9044189453125
vt 0.0162200927734375 0.9044189453125
vt 0.0927734375 0.9044189453125
vt 0.0927734375 0.09716796875
vt 0.1728515625 0.09716796875
vt 0.0927734375 0.09716796875
vt 0.0927734375 0.9044189453125
vt 0.0927734375 0.9044189453125
vt 0.1728515625 0.9044189453125
vt 0.1728515625 0.09716796875
vt 0.2529296875 0.09716796875
vt 0.1728515625 0.09716796875
vt 0.1728515625 0.9044189453125
vt 0.1728515625 0.9044189453125
vt 0.2529296875 0.9044189453125
vt 0.2529296875 0.09716796875
vt 0.3330078125 0.09716796875
vt 0.2529296875 0.09716796875
vt 0.2529296875 0.9044189453125
vt 0.2529296875 0.9044189453125
vt 0.3330078125 0.9044189453125
vt 0.3330078125 0.09716796875
vt 0.4130859375 0.09716796875
vt 0.3330078125 0.09716796875
vt 0.3330078125 0.9044189453125
vt 0.3330078125 0.9044189453125
vt 0.4130859375 0.9044189453125
vt 0.4130859375 0.09716796875
vt 0.4931640625 0.09716796875
vt 0.4130859375 0.09716796875
vt 0.4130859375 0.9044189453125
vt 0.4130859375 0.9044189453125
vt 0.4931640625 0.9044189453125
vt 0.4931640625 0.09716796875
vt 0.5732421875 0.09716796875
vt 0.4931640625 0.09716796875
vt 0.4931640625 0.9044189453125
vt 0.4931640625 0.9044189453125
vt 0.5732421875 0.9044189453125
vt 0.5732421875 0.09716796875
vt 0.6533203125 0.09716796875
vt 0.5732421875 0.09716796875
vt 0.5732421875 0.9044189453125
vt 0.5732421875 0.9044189453125
vt 0.6533203125 0.9044189453125
vt 0.6533203125 0.09716796875
vt 0.7333984375 0.09716796875
vt 0.6533203125 0.09716796875
vt 0.6533203125 0.9044189453125
vt 0.6533203125 0.9044189453125
vt 0.7333984375 0.9044189453125
vt 0.7333984375 0.09716796875
vt 0.8134765625 0.09716796875
vt 0.7333984375 0.09716796875
vt 0.7333984375 0.9044189453125
vt 0.7333984375 0.9044189453125
vt 0.8134765625 0.9044189453125
vt 0.8134765625 0.09716796875
vt 0.8935546875 0.09716796875
vt 0.8134765625 0.09716796875
vt 0.8134765625 0.9044189453125
vt 0.8134765625 0.9044189453125
vt 0.8935546875 0.9044189453125
vt 0.8935546875 0.09716796875
vt 0.984375 0.09716796875
vt 0.8935546875 0.09716796875
vt 0.8935546875 0.9044189453125
vt 0.8935546875 0.9044189453125
vt 0.984375 0.9044189453125
vt 0.984375 0.09716796875
vt 0.05450439453125 0.9044189453125
vt 0.0162200927734375 0.9044189453125
vt 0.0162200927734375 0.09716796875
vt 0.0162200927734375 0.09716796875
vt 0.05450439453125 0.09716796875
vt 0.05450439453125 0.9044189453125
vt 0.05450439453125 0.9044189453125
vt 0.05450439453125 0.09716796875
vt 0.0927734375 0.09716796875
vt 0.0927734375 0.09716796875
vt 0.0927734375 0.9044189453125
vt 0.05450439453125 0.9044189453125
vt 0.1328125 0.9044189453125
vt 0.0927734375 0.9044189453125
vt 0.0927734375 0.09716796875
vt 0.0927734375 0.09716796875
vt 0.1328125 0.09716796875
vt 0.1328125 0.9044189453125
vt 0.1328125 0.9044189453125
vt 0.1328125 0.09716796875
vt 0.1728515625 0.09716796875
vt 0.1728515625 0.09716796875
vt 0.1728515625 0.9044189453125
vt 0.1328125 0.9044189453125
vt 0.212890625 0.9044189453125
vt 0.1728515625 0.9044189453125
vt 0.1728515625 0.09716796875
vt 0.1728515625 0.09716796875
vt 0.212890625 0.09716796875
vt 0.212890625 0.9044189453125
vt 0.212890625 0.9044189453125
vt 0.212890625 0.09716796875
vt 0.2529296875 0.09716796875
vt 0.2529296875 0.09716796875
vt 0.2529296875 0.9044189453125
vt 0.212890625 0.9044189453125
vt 0.29296875 0.9044189453125
vt 0.2529296875 0.9044189453125
vt 0.2529296875 0.09716796875
vt 0.2529296875 0.09716796875
vt 0.29296875 0.09716796875
vt 0.29296875 0.9044189453125
vt 0.29296875 0.9044189453125
vt 0.29296875 0.09716796875
vt 0.3330078125 0.09716796875
vt 0.3330078125 0.09716796875
vt 0.3330078125 0.9044189453125
vt 0.29296875 0.9044189453125
vt 0.373046875 0.9044189453125
vt 0.3330078125 0.9044189453125
vt 0.3330078125 0.09716796875
vt 0.3330078125 0.09716796875
vt 0.373046875 0.09716796875
vt 0.373046875 0.9044189453125
vt 0.373046875 0.9044189453125
vt 0.373046875 0.09716796875
vt 0.4130859375 0.09716796875
vt 0.4130859375 0.09716796875
vt 0.4130859375 0.9044189453125
vt 0.373046875 0.9044189453125
vt 0.453125 0.9044189453125
vt 0.4130859375 0.9044189453125
vt 0.4130859375 0.09716796875
vt 0.4130859375 0.09716796875
vt 0.453125 0.09716796875
vt 0.453125 0.9044189453125
vt 0.453125 0.9044189453125
vt 0.453125 0.09716796875
vt 0.4931640625 0.09716796875
vt 0.4931640625 0.09716796875
vt 0.4931640625 0.9044189453125
vt 0.453125 0.9044189453125
vt 0.533203125 0.9044189453125
vt 0.4931640625 0.9044189453125
vt 0.4931640625 0.09716796875
vt 0.4931640625 0.09716796875
vt 0.533203125 0.09716796875
vt 0.533203125 0.9044189453125
vt 0.533203125 0.9044189453125
vt 0.533203125 0.09716796875
vt 0.5732421875 0.09716796875
vt 0.5732421875 0.09716796875
vt 0.5732421875 0.9044189453125
vt 0.533203125 0.9044189453125
vt 0.61328125 0.9044189453125
vt 0.5732421875 0.9044189453125
vt 0.5732421875 0.09716796875
vt 0.5732421875 0.09716796875
vt 0.61328125 0.09716796875
vt 0.61328125 0.9044189453125
vt 0.61328125 0.9044189453125
vt 0.61328125 0.09716796875
vt 0.6533203125 0.09716796875
vt 0.6533203125 0.09716796875
vt 0.6533203125 0.9044189453125
vt 0.61328125 0.9044189453125
vt 0.693359375 0.9044189453125
vt 0.6533203125 0.9044189453125
vt 0.6533203125 0.09716796875
vt 0.6533203125 0.09716796875
vt 0.693359375 0.09716796875
vt 0.693359375 0.9044189453125
vt 0.693359375 0.9044189453125
vt 0.693359375 0.09716796875
vt 0.7333984375 0.09716796875
vt 0.7333984375 0.09716796875
vt 0.7333984375 0.9044189453125
vt 0.693359375 0.9044189453125
vt 0.7734375 0.9044189453125
vt 0.7333984375 0.9044189453125
vt 0.7333984375 0.09716796875
vt 0.7333984375 0.09716796875
vt 0.7734375 0.09716796875
vt 0.7734375 0.9044189453125
vt 0.7734375 0.9044189453125
vt 0.7734375 0.09716796875
vt 0.8134765625 0.09716796875
vt 0.8134765625 0.09716796875
vt 0.8134765625 0.9044189453125
vt 0.7734375 0.9044189453125
vt 0.853515625 0.9044189453125
vt 0.8134765625 0.9044189453125
vt 0.8134765625 0.09716796875
vt 0.8134765625 0.09716796875
vt 0.853515625 0.09716796875
vt 0.853515625 0.9044189453125
vt 0.853515625 0.9044189453125
vt 0.853515625 0.09716796875
vt 0.8935546875 0.09716796875
vt 0.8935546875 0.09716796875
vt 0.8935546875 0.9044189453125
vt 0.853515625 0.9044189453125
vt 0.93896484375 0.9044189453125
vt 0.8935546875 0.9044189453125
vt 0.8935546875 0.09716796875
vt 0.8935546875 0.09716796875
vt 0.93896484375 0.09716796875
vt 0.93896484375 0.9044189453125
vt 0.93896484375 0.9044189453125
vt 0.93896484375 0.09716796875
vt 0.984375 0.09716796875
vt 0.984375 0.09716796875
vt 0.984375 0.9044189453125
vt 0.93896484375 0.9044189453125
vn -0.20592935383319855 0.9743569493293762 0.09067343920469284
vn -0.6655283570289612 0.7408443093299866 0.09067284315824509
vn -0.6655253767967224 0.7408468723297119 0.0906735509634018
vn -0.20594295859336853 0.9743542075157166 0.09067210555076599
vn 0.30882546305656433 0.9467868208885193 0.09067211300134659
vn 0.3088270425796509 0.9467862844467163 0.09067301452159882
vn 0.7408486008644104 0.6655237078666687 0.09067245572805405
vn 0.7408533692359924 0.6655181050300598 0.09067458659410477
vn 0.9743568897247314 0.20592957735061646 0.09067417681217194
vn 0.9743536710739136 0.20594574511051178 0.09067127108573914
vn 0.9467877745628357 -0.30882275104522705 0.09067221730947495
vn 0.9467902779579163 -0.3088148832321167 0.09067252278327942
vn 0.6655243635177612 -0.7408480048179626 0.09067316353321075
vn 0.6655155420303345 -0.7408555150032043 0.09067539125680923
vn 0.20593047142028809 -0.9743566513061523 0.09067478030920029
vn 0.2059394270181656 -0.9743548035621643 0.09067396074533463
vn -0.3088267147541046 -0.9467864632606506 0.09067224711179733
vn -0.3088306784629822 -0.946785032749176 0.0906735360622406
vn -0.7408452033996582 -0.6655275225639343 0.0906718522310257
vn -0.7408462762832642 -0.665526270866394 0.09067265689373016
vn -0.9743569493293762 -0.20593003928661346 0.09067262709140778
vn -0.9743541479110718 -0.2059437334537506 0.09067060798406601
vn -0.9467872977256775 0.30882513523101807 0.09067005664110184
vn -0.9467863440513611 0.30882734060287476 0.09067189693450928
vn 0.4505980908870697 -0.8868504762649536 -0.102261483669281
vn 0.6648566126823425 -0.7400922179222107 -0.10113885998725891
vn 0.6648533344268799 -0.740095317363739 -0.10113820433616638
vn 0.4505946934223175 -0.8868523836135864 -0.102260522544384
vn 0.2057265192270279 -0.9733692407608032 -0.10113752633333206
vn 0.2057262659072876 -0.9733693599700928 -0.1011379212141037
vn -0.05320648476481438 -0.9933336973190308 -0.10226060450077057
vn -0.05319458246231079 -0.9933345317840576 -0.10225895047187805
vn -0.3085034489631653 -0.9458313584327698 -0.10113655775785446
vn -0.30852237343788147 -0.9458252191543579 -0.10113704949617386
vn -0.5427413582801819 -0.8336516618728638 -0.10225819796323776
vn -0.5427536964416504 -0.8336433172225952 -0.102261483669281
vn -0.7400936484336853 -0.6648553609848022 -0.10113714635372162
vn -0.7400971055030823 -0.6648522019386292 -0.10113292932510376
vn -0.8868637681007385 -0.4505721628665924 -0.10226131975650787
vn -0.8868431448936462 -0.45061248540878296 -0.10226200520992279
vn -0.9733712077140808 -0.20571614801883698 -0.10114066302776337
vn -0.9733747243881226 -0.20569811761379242 -0.10114257782697678
vn -0.9933345913887024 0.05318503826856613 -0.10226313769817352
vn -0.9933332800865173 0.05320614203810692 -0.1022651419043541
vn -0.9458211660385132 0.3085339367389679 -0.10113868862390518
vn -0.9458330273628235 0.30849799513816833 -0.10113860666751862
vn -0.8336465358734131 0.5427482724189758 -0.1022631973028183
vn -0.8336538076400757 0.542738139629364 -0.10225756466388702
vn -0.6648673415184021 0.7400826215744019 -0.10113935172557831
vn -0.6648399829864502 0.7401068806648254 -0.10114168375730515
vn -0.4506012201309204 0.8868488073348999 -0.10226268321275711
vn -0.4505981504917145 0.8868502378463745 -0.10226425528526306
vn -0.20573419332504272 0.9733675718307495 -0.10113909840583801
vn -0.2057482898235321 0.973364531993866 -0.10113871842622757
vn 0.05319124087691307 0.9933344721794128 -0.10226145386695862
vn 0.05319907143712044 0.9933341145515442 -0.10226112604141235
vn 0.3085094392299652 0.9458291530609131 -0.10113886743783951
vn 0.3085140287876129 0.9458277821540833 -0.10113808512687683
vn 0.5427396297454834 0.8336523175239563 -0.10226210206747055
vn 0.5427373647689819 0.8336535692214966 -0.10226326435804367
vn 0.7400943636894226 0.6648539900779724 -0.10114113241434097
vn 0.7400962114334106 0.66485196352005 -0.10114028304815292
vn 0.886849582195282 0.45059970021247864 -0.10226303339004517
vn 0.8868528008460999 0.4505927860736847 -0.10226531326770782
vn 0.9733738899230957 0.20570404827594757 -0.10113932937383652
vn 0.9733676910400391 0.20573297142982483 -0.10113952308893204
vn 0.9933336973190308 -0.053200725466012955 -0.10226316004991531
vn 0.9933346509933472 -0.05319247767329216 -0.10225854814052582
vn 0.9458330869674683 -0.30849742889404297 -0.10113876312971115
vn 0.9458279609680176 -0.30851200222969055 -0.10114172101020813
vn 0.8336532711982727 -0.5427379012107849 -0.10226339101791382
vn 0.8336494565010071 -0.5427439212799072 -0.10226218402385712
f 1/1/1 2/2/2 3/3/3
f 3/4/3 4/5/4 1/6/1
f 5/7/5 1/8/1 4/9/4
f 4/10/4 6/11/6 5/12/5
f 7/13/7 5/14/5 6/15/6
f 6/16/6 8/17/8 7/18/7
f 9/19/9 7/20/7 8/21/8
f 8/22/8 10/23/10 9/24/9
f 11/25/11 9/26/9 10/27/10
f 10/28/10 12/29/12 11/30/11
f 13/31/13 11/32/11 12/33/12
f 12/34/12 14/35/14 13/36/13
f 15/37/15 13/38/13 14/39/14
f 14/40/14 16/41/16 15/42/15
f 17/43/17 15/44/15 16/45/16
f 16/46/16 18/47/18 17/48/17
f 19/49/19 17/50/17 18/51/18
f 18/52/18 20/53/20 19/54/19
f 21/55/21 19/56/19 20/57/20
f 20/58/20 22/59/22 21/60/21
f 23/61/23 21/62/21 22/63/22
f 22/64/22 24/65/24 23/66/23
f 2/67/2 23/68/23 24/69/24
f 24/70/24 3/71/3 2/72/2
f 25/73/25 26/74/26 27/75/27
f 27/76/27 28/77/28 25/78/25
f 25/79/25 28/80/28 29/81/29
f 29/82/29 30/83/30 25/84/25
f 31/85/31 30/86/30 29/87/29
f 29/88/29 32/89/32 31/90/31
f 31/91/31 32/92/32 33/93/33
f 33/94/33 34/95/34 31/96/31
f 35/97/35 34/98/34 33/99/33
f 33/100/33 36/101/36 35/102/35
f 35/103/35 36/104/36 37/105/37
f 37/106/37 38/107/38 35/108/35
f 39/109/39 38/110/38 37/111/37
f 37/112/37 40/113/40 39/114/39
f 39/115/39 40/116/40 41/117/41
f 41/118/41 42/119/42 39/120/39
f 43/121/43 42/122/42 41/123/41
f 41/124/41 44/125/44 43/126/43
f 43/127/43 44/128/44 45/129/45
f 45/130/45 46/131/46 43/132/43
f 47/133/47 46/134/46 45/135/45
f 45/136/45 48/137/48 47/138/47
f 47/139/47 48/140/48 49/141/49
f 49/142/49 50/143/50 47/144/47
f 51/145/51 50/146/50 49/147/49
f 49/148/49 52/149/52 51/150/51
f 51/151/51 52/152/52 53/153/53
f 53/154/53 54/155/54 51/156/51
f 55/157/55 54/158/54 53/159/53
f 53/160/53 56/161/56 55/162/55
f 55/163/55 56/164/56 57/165/57
f 57/166/57 58/167/58 55/168/55
f 59/169/59 58/170/58 57/171/57
f 57/172/57 60/173/60 59/174/59
f 59/175/59 60/176/60 61/177/61
f 61/178/61 62/179/62 59/180/59
f 63/181/63 62/182/62 61/183/61
f 61/184/61 64/185/64 63/186/63
f 63/187/63 64/188/64 65/189/65
f 65/190/65 66/191/66 63/192/63
f 67/193/67 66/194/66 65/195/65
f 65/196/65 68/197/68 67/198/67
f 67/199/67 68/200/68 69/201/69
f 69/202/69 70/203/70 67/204/67
f 71/205/71 70/206/70 69/207/69
f 69/208/69 72/209/72 71/210/71
f 71/211/71 72/212/72 27/213/27
f 27/214/27 26/215/26 71/216/71
