# Exported by Lightwave Blender addon
v 553.4967651367188 -1440.6025390625 582.4797973632812
v 631.3062133789062 -1472.41943359375 582.4798583984375
v 632.7037353515625 -1469.0018310546875 581.8732299804688
v 554.894287109375 -1437.1849365234375 581.8731689453125
v 632.8905029296875 -1468.5450439453125 581.7921752929688
v 555.0809936523438 -1436.7281494140625 581.7921142578125
v 555.0253295898438 -1436.864501953125 578.6158447265625
v 632.8347778320312 -1468.6812744140625 578.6159057617188
v 632.64794921875 -1469.13818359375 578.5364379882812
v 554.8385009765625 -1437.3214111328125 578.5364379882812
v 631.22265625 -1472.623779296875 577.9303588867188
v 553.4132080078125 -1440.8070068359375 577.9303588867188
v 632.8817138671875 -1468.5665283203125 581.2926635742188
v 555.072265625 -1436.7496337890625 581.2926635742188
v 632.8435668945312 -1468.6597900390625 579.1153564453125
v 555.0340576171875 -1436.8428955078125 579.1153564453125
vt 0.41015625 0.52587890625
vt -0.00998687744140625 0.52587890625
vt -0.00998687744140625 0.507568359375
vt 0.41015625 0.507568359375
vt 0.41015625 0.52587890625
vt -0.00998687744140625 0.507568359375
vt 0.41015625 0.507568359375
vt -0.00998687744140625 0.507568359375
vt -0.00998687744140625 0.505126953125
vt 0.41015625 0.505126953125
vt 0.41015625 0.507568359375
vt -0.00998687744140625 0.505126953125
vt 0.58935546875 0.505859375
vt 1.009765625 0.505859375
vt 1.009765625 0.50830078125
vt 0.58935546875 0.50830078125
vt 0.58935546875 0.505859375
vt 1.009765625 0.50830078125
vt 0.58935546875 0.50830078125
vt 1.009765625 0.50830078125
vt 1.009765625 0.527099609375
vt 0.58935546875 0.527099609375
vt 0.58935546875 0.50830078125
vt 1.009765625 0.527099609375
vt 0.58935546875 0.3798828125
vt 1.009765625 0.3798828125
vt 1.009765625 0.38232421875
vt 0.58935546875 0.38232421875
vt 0.58935546875 0.3798828125
vt 1.009765625 0.38232421875
vt 0.58935546875 0.38232421875
vt 1.009765625 0.38232421875
vt 1.009765625 0.3935546875
vt 0.58935546875 0.3935546875
vt 0.58935546875 0.38232421875
vt 1.009765625 0.3935546875
vt 0.58935546875 0.3935546875
vt 1.009765625 0.3935546875
vt 1.009765625 0.39599609375
vt 0.58935546875 0.39599609375
vt 0.58935546875 0.3935546875
vt 1.009765625 0.39599609375
vn 0.061360541731119156 0.1500614881515503 0.986770749092102
vn 0.06136054918169975 0.1500614732503891 0.986770749092102
vn 0.06135161593556404 0.1500396430492401 0.9867746233940125
vn 0.06135298311710358 0.1500430554151535 0.9867740273475647
vn 0.29411232471466064 0.7192647457122803 0.6294094324111938
vn 0.2941145598888397 0.7192699909210205 0.6294022798538208
vn 0.28231409192085266 0.6904126405715942 -0.666054904460907
vn 0.282340407371521 0.6904739737510681 -0.6659801602363586
vn 0.06014939025044441 0.14709728956222534 -0.9872913956642151
vn 0.06012662500143051 0.14704255759716034 -0.9873009920120239
vn 0.0601416751742363 0.14707934856414795 -0.987294614315033
vn 0.0601416677236557 0.14707934856414795 -0.987294614315033
vn 0.3780812621116638 0.9246127009391785 -0.046324536204338074
vn 0.37808147072792053 0.9246132969856262 -0.04630959406495094
vn 0.37808117270469666 0.9246125817298889 -0.046327535063028336
vn 0.3780789077281952 0.9246088862419128 -0.04641924798488617
f 1/1/1 2/2/2 3/3/3
f 4/4/4 1/5/1 3/6/3
f 4/7/4 3/8/3 5/9/5
f 6/10/6 4/11/4 5/12/5
f 7/13/7 8/14/8 9/15/9
f 10/16/10 7/17/7 9/18/9
f 10/19/10 9/20/9 11/21/11
f 12/22/12 10/23/10 11/24/11
f 6/25/6 5/26/5 13/27/13
f 14/28/14 6/29/6 13/30/13
f 14/31/14 13/32/13 15/33/15
f 16/34/16 14/35/14 15/36/15
f 16/37/16 15/38/15 8/39/8
f 7/40/7 16/41/16 8/42/8
