# Exported by Lightwave Blender addon
v 1310.847900390625 2480.319580078125 1410.0643310546875
v 1310.847900390625 2480.319580078125 1230.3592529296875
v 1282.1185302734375 2431.84619140625 1230.3592529296875
v 1282.11865234375 2431.84619140625 1410.0643310546875
v 1252.503173828125 2381.87744140625 1410.0643310546875
v 1281.400634765625 2430.635009765625 1410.0643310546875
v 1281.4007568359375 2430.635009765625 1230.3592529296875
v 1252.5030517578125 2381.87744140625 1230.3592529296875
vt 0.251220703125 0.9884872436523438
vt 0.251220703125 0.22509765625
vt 0.497802734375 0.22509765625
vt 0.497802734375 0.22509765625
vt 0.497802734375 0.9884872436523438
vt 0.251220703125 0.9884872436523438
vt 0.2491455078125 0.9884872436523438
vt 0.00260162353515625 0.9884872436523438
vt 0.00260162353515625 0.22509765625
vt 0.00260162353515625 0.22509765625
vt 0.2491455078125 0.22509765625
vt 0.2491455078125 0.9884872436523438
vn -0.8602579832077026 0.5098588466644287 4.7133289626799524e-07
vn -0.8602572679519653 0.5098601579666138 0.0
vn -0.8602574467658997 0.5098598599433899 1.1302433478022067e-07
vn -0.8602582812309265 0.5098586082458496 5.84357451316464e-07
vn -0.8602595925331116 0.5098564624786377 -3.5706491985365574e-07
vn -0.8602599501609802 0.5098557472229004 -5.843585881848412e-07
vn -0.8602584004402161 0.5098583698272705 3.570640672023728e-07
vn -0.8602580428123474 0.5098589658737183 5.843573376296263e-07
f 1/1/1 2/2/2 3/3/3
f 3/4/3 4/5/4 1/6/1
f 5/7/5 6/8/6 7/9/7
f 7/10/7 8/11/8 5/12/5
