# Exported by Lightwave Blender addon
v -3632.45751953125 3545.4072265625 1509.960693359375
v -3121.1865234375 3051.751708984375 1510.0406494140625
v -3217.977294921875 3974.615966796875 1504.0213623046875
v -3036.082763671875 2969.641357421875 1510.1181640625
v -2285.015380859375 3072.767578125 1507.8299560546875
v -2698.12890625 2644.244384765625 1511.040283203125
v -2694.015380859375 2632.597412109375 1506.4927978515625
v -2703.388427734375 2634.401611328125 1506.1033935546875
v -2650.755859375 2142.228759765625 1104.02099609375
v -2641.37353515625 2142.392578125 1104.02099609375
v -2004.169677734375 2802.2353515625 1104.02099609375
v -2276.925048828125 3064.967041015625 1503.2144775390625
v -2275.638916015625 3072.968994140625 1501.3682861328125
v -2004.3336181640625 2811.617431640625 1104.02099609375
v -3222.69384765625 3978.94970703125 1104.02099609375
v -3860.06201171875 3319.266845703125 1104.0208740234375
v -3222.75830078125 3979.20703125 1497.384765625
v -3639.680419921875 3547.47802734375 1503.4664306640625
v -3213.310302734375 3979.112060546875 1104.02099609375
v -3213.374755859375 3979.37060546875 1497.38623046875
v -3639.924072265625 3537.67529296875 1505.0360107421875
v -3859.89892578125 3309.885498046875 1104.0208740234375
v -3633.92333984375 3300.164306640625 1294.201416015625
v -3697.84326171875 3233.966552734375 1177.2552490234375
v -3618.83349609375 3157.667236328125 1177.2552490234375
v -3554.90576171875 3223.872314453125 1294.214599609375
v -3658.47998046875 3115.377197265625 1104.0208740234375
v -3128.652099609375 3044.0185546875 1505.1046142578125
v -3303.01220703125 2853.308837890625 1177.828125
v -3348.666259765625 2816.1943359375 1104.0208740234375
v -3239.36181640625 2919.223388671875 1294.275634765625
v -3220.643310546875 2773.766845703125 1177.828125
v -3263.60693359375 2734.052978515625 1104.0208740234375
v -3043.55078125 2961.9091796875 1505.173095703125
v -3156.9853515625 2839.68896484375 1294.2900390625
v -2855.729248046875 2550.912353515625 1291.80615234375
v -2919.388671875 2483.33544921875 1173.362548828125
v -2964.815673828125 2445.513916015625 1104.02099609375
v -2841.767578125 2408.425537109375 1173.406494140625
v -2777.345947265625 2475.14111328125 1291.7344970703125
vt -11.875 7.265625
vt -11.875 3.619140625
vt -8.8125 7.265625
vt -11.875 3.619140625
vt -11.875 3.013671875
vt -8.8125 7.265625
vt -11.875 3.013671875
vt -8.8203125 0.6083984375
vt -8.8125 7.265625
vt -11.875 3.013671875
vt -11.875 0.60595703125
vt -8.8203125 0.6083984375
vt -11.90625 0.544921875
vt -11.875 0.60595703125
vt -11.9296875 0.583984375
vt -8.8203125 0.6083984375
vt -11.875 0.60595703125
vt -11.90625 0.544921875
vt -11.90625 0.544921875
vt -11.9375 0.576904296875
vt -13.5546875 -2.26953125
vt -13.515625 -2.296875
vt -11.90625 0.544921875
vt -13.5546875 -2.26953125
vt -11.90625 0.544921875
vt -13.515625 -2.296875
vt -8.8046875 -2.275390625
vt -8.8203125 0.546875
vt -8.8203125 0.6083984375
vt -11.90625 0.544921875
vt -8.8203125 0.546875
vt -11.90625 0.544921875
vt -8.8046875 -2.275390625
vt -8.8203125 0.546875
vt -8.78125 0.559326171875
vt -8.8203125 0.6083984375
vt -8.8046875 -2.275390625
vt -8.765625 -2.251953125
vt -8.8203125 0.546875
vt -8.765625 -2.251953125
vt -8.78125 0.559326171875
vt -8.8203125 0.546875
vt -13.5390625 -4.49609375
vt -8.828125 -4.54296875
vt -13.5234375 -2.423828125
vt -8.828125 -4.54296875
vt -10.4375 -2.423828125
vt -13.5234375 -2.423828125
vt -13.515625 -2.3203125
vt -13.5234375 -2.423828125
vt -10.4375 -2.423828125
vt -10.453125 -2.3203125
vt -13.515625 -2.3203125
vt -10.4375 -2.423828125
vt -7.0234375 4.0390625
vt 1.62109375 4.0390625
vt -5.0859375 6.078125
vt -5.0546875 6.125
vt -5.0859375 6.078125
vt 1.6171875 6.109375
vt 1.62109375 4.0390625
vt 1.6240234375 6.0703125
vt -5.0859375 6.078125
vt -5.0859375 6.078125
vt 1.6240234375 6.0703125
vt 1.6171875 6.109375
vt 1.62109375 4.0390625
vt 1.6884765625 4.041015625
vt 1.6240234375 6.0703125
vt 1.6240234375 6.0703125
vt 1.681640625 6.078125
vt 1.6171875 6.109375
vt 1.6884765625 4.041015625
vt 1.681640625 6.078125
vt 1.6240234375 6.0703125
vt -6.69140625 4.017578125
vt -6.72265625 3.955078125
vt -6.65625 3.927734375
vt -6.65625 3.927734375
vt -6.72265625 3.955078125
vt -6.72265625 1.321044921875
vt -6.65625 1.29931640625
vt -6.65625 3.927734375
vt -6.72265625 1.321044921875
vt -3.0 3.982421875
vt -6.6484375 3.98046875
vt -6.65625 3.927734375
vt -5.77734375 2.5419921875
vt -6.65625 3.927734375
vt -6.65625 1.29931640625
vt -5.77734375 1.77880859375
vt -5.77734375 2.5419921875
vt -6.65625 1.29931640625
vt -5.2109375 1.77880859375
vt -5.77734375 1.77880859375
vt -6.65625 1.29931640625
vt -5.21484375 2.5419921875
vt -6.65625 3.927734375
vt -5.77734375 2.5419921875
vt -5.20703125 1.299560546875
vt -5.2109375 1.77880859375
vt -6.65625 1.29931640625
vt -3.0 3.921875
vt -6.65625 3.927734375
vt -5.21484375 2.5419921875
vt -3.0 3.921875
vt -3.0 3.982421875
vt -6.65625 3.927734375
vt -2.962890625 1.78271484375
vt -5.2109375 1.77880859375
vt -5.20703125 1.299560546875
vt -5.2109375 1.77880859375
vt -2.962890625 1.78271484375
vt -5.21484375 2.5419921875
vt -2.998046875 1.300048828125
vt -2.962890625 1.78271484375
vt -5.20703125 1.299560546875
vt -2.962890625 1.78271484375
vt -2.962890625 2.5419921875
vt -5.21484375 2.5419921875
vt -2.962890625 2.5419921875
vt -3.0 3.921875
vt -5.21484375 2.5419921875
vt -2.373046875 1.7841796875
vt -2.962890625 1.78271484375
vt -2.998046875 1.300048828125
vt -2.390625 1.30078125
vt -2.373046875 1.7841796875
vt -2.998046875 1.300048828125
vt -2.392578125 3.919921875
vt -3.0 3.921875
vt -2.962890625 2.5419921875
vt -3.0 3.921875
vt -2.392578125 3.919921875
vt -3.0 3.982421875
vt -2.375 2.5419921875
vt -2.392578125 3.919921875
vt -2.962890625 2.5419921875
vt -2.392578125 3.919921875
vt -2.392578125 3.98046875
vt -3.0 3.982421875
vt -0.2337646484375 2.5283203125
vt -2.375 2.5419921875
vt -2.373046875 1.7841796875
vt -2.392578125 3.919921875
vt -2.375 2.5419921875
vt -0.2337646484375 2.5283203125
vt -0.2242431640625 1.76025390625
vt -2.373046875 1.7841796875
vt -2.390625 1.30078125
vt -0.2242431640625 1.76025390625
vt -0.2337646484375 2.5283203125
vt -2.373046875 1.7841796875
vt -0.255615234375 1.2958984375
vt -0.2242431640625 1.76025390625
vt -2.390625 1.30078125
vt 0.334228515625 1.7607421875
vt -0.2242431640625 1.76025390625
vt -0.255615234375 1.2958984375
vt 1.994140625 1.30419921875
vt 0.334228515625 1.7607421875
vt -0.255615234375 1.2958984375
vt 1.994140625 1.30419921875
vt 0.328125 2.5263671875
vt 0.334228515625 1.7607421875
vt 1.994140625 1.30419921875
vt 0.0267181396484375 3.916015625
vt 0.328125 2.5263671875
vt 0.0267181396484375 3.916015625
vt -0.2337646484375 2.5283203125
vt 0.328125 2.5263671875
vt 0.0267181396484375 3.916015625
vt -2.392578125 3.919921875
vt -0.2337646484375 2.5283203125
vt -2.392578125 3.919921875
vt 0.0267181396484375 3.916015625
vt -2.392578125 3.98046875
vt 0.0267181396484375 3.916015625
vt 0.01336669921875 3.9765625
vt -2.392578125 3.98046875
vn -0.36483386158943176 0.1123737320303917 0.9242663383483887
vn -0.14546534419059753 -0.15008766949176788 0.9779127240180969
vn -0.00598881533369422 0.4871358871459961 0.87330561876297
vn -0.1475318819284439 -0.1505683809518814 0.9775293469429016
vn 0.3409091830253601 0.13826900720596313 0.9298723340034485
vn -0.009410166181623936 -0.23036478459835052 0.973058819770813
vn 0.17773234844207764 -0.5083388686180115 0.842616617679596
vn -0.32864025235176086 -0.5069379210472107 0.7968748211860657
vn -0.201555535197258 -0.6309670209884644 0.7491703033447266
vn 0.2304779589176178 -0.6025670170783997 0.76406329870224
vn 0.6794866323471069 -0.3086813986301422 0.6655926704406738
vn 0.5913847088813782 -0.19093431532382965 0.7834591269493103
vn 0.7562620639801025 0.43961411714553833 0.4845689833164215
vn 0.8675331473350525 0.23273131251335144 0.43957072496414185
vn -0.39858677983283997 0.9171303510665894 -0.0006669180002063513
vn -0.9025413990020752 0.2226850837469101 0.3685518205165863
vn -0.3913910686969757 0.8553385138511658 0.3394247889518738
vn -0.7720826268196106 0.45536693930625916 0.44331619143486023
vn 0.3668275475502014 0.9302888512611389 -0.00039582003955729306
vn 0.36241212487220764 0.8676764369010925 0.34028691053390503
vn -0.6621630787849426 -0.19347812235355377 0.7239518761634827
vn -0.719749391078949 -0.3552165627479553 0.5964745879173279
vn -0.5452876091003418 -0.5644084811210632 0.61976158618927
vn -0.5447418689727783 -0.5650832653045654 0.6196266412734985
vn -0.5451065897941589 -0.5644717216491699 0.6198630928993225
vn -0.5452603697776794 -0.5646328926086426 0.6195812821388245
vn -0.5447026491165161 -0.5640528798103333 0.6205992698669434
vn -0.42938074469566345 -0.44448307156562805 0.7861723303794861
vn -0.5451115369796753 -0.5644821524620056 0.6198495626449585
vn -0.5447102785110474 -0.5640653967857361 0.6205810904502869
vn -0.545261800289154 -0.564634382724762 0.61957848072052
vn -0.5418074131011963 -0.5678552985191345 0.6196653842926025
vn -0.5415710806846619 -0.5652243494987488 0.6222717761993408
vn -0.42955052852630615 -0.4457595944404602 0.7853564620018005
vn -0.542074978351593 -0.5676801800727844 0.6195918321609497
vn -0.5455801486968994 -0.5695201754570007 0.614808201789856
vn -0.5343161225318909 -0.5572271943092346 0.6356131434440613
vn -0.5299623012542725 -0.5487843155860901 0.6465104222297668
vn -0.539664089679718 -0.5527524948120117 0.6350018382072449
vn -0.557864785194397 -0.5611746907234192 0.6114488840103149
f 1/1/1 2/2/2 3/3/3
f 2/4/2 4/5/4 3/6/3
f 4/7/4 5/8/5 3/9/3
f 4/10/4 6/11/6 5/12/5
f 7/13/7 6/14/6 8/15/8
f 5/16/5 6/17/6 7/18/7
f 7/19/7 8/20/8 9/21/9
f 10/22/10 7/23/7 9/24/9
f 7/25/7 10/26/10 11/27/11
f 12/28/12 5/29/5 7/30/7
f 12/31/12 7/32/7 11/33/11
f 12/34/12 13/35/13 5/36/5
f 11/37/11 14/38/14 12/39/12
f 14/40/14 13/41/13 12/42/12
f 15/43/15 16/44/16 17/45/17
f 16/46/16 18/47/18 17/48/17
f 3/49/3 17/50/17 18/51/18
f 1/52/1 3/53/3 18/54/18
f 14/55/14 19/56/19 13/57/13
f 5/58/5 13/59/13 3/60/3
f 19/61/19 20/62/20 13/63/13
f 13/64/13 20/65/20 3/66/3
f 19/67/19 15/68/15 20/69/20
f 20/70/20 17/71/17 3/72/3
f 15/73/15 17/74/17 20/75/20
f 1/76/1 18/77/18 21/78/21
f 21/79/21 18/80/18 16/81/16
f 22/82/22 21/83/21 16/84/16
f 2/85/2 1/86/1 21/87/21
f 23/88/23 21/89/21 22/90/22
f 24/91/24 23/92/23 22/93/22
f 25/94/25 24/95/24 22/96/22
f 26/97/26 21/98/21 23/99/23
f 27/100/27 25/101/25 22/102/22
f 28/103/28 21/104/21 26/105/26
f 28/106/28 2/107/2 21/108/21
f 29/109/29 25/110/25 27/111/27
f 25/112/25 29/113/29 26/114/26
f 30/115/30 29/116/29 27/117/27
f 29/118/29 31/119/31 26/120/26
f 31/121/31 28/122/28 26/123/26
f 32/124/32 29/125/29 30/126/30
f 33/127/33 32/128/32 30/129/30
f 34/130/34 28/131/28 31/132/31
f 28/133/28 34/134/34 2/135/2
f 35/136/35 34/137/34 31/138/31
f 34/139/34 4/140/4 2/141/2
f 36/142/36 35/143/35 32/144/32
f 34/145/34 35/146/35 36/147/36
f 37/148/37 32/149/32 33/150/33
f 37/151/37 36/152/36 32/153/32
f 38/154/38 37/155/37 33/156/33
f 39/157/39 37/158/37 38/159/38
f 9/160/9 39/161/39 38/162/38
f 9/163/9 40/164/40 39/165/39
f 9/166/9 8/167/8 40/168/40
f 8/169/8 36/170/36 40/171/40
f 8/172/8 34/173/34 36/174/36
f 34/175/34 8/176/8 4/177/4
f 8/178/8 6/179/6 4/180/4
