# Exported by Lightwave Blender addon
v 356.195556640625 -224.1266632080078 774.7584228515625
v 470.78875732421875 93.58401489257812 774.7584838867188
v 356.195068359375 -224.12673950195312 1067.9781494140625
v 470.7886047363281 93.5841064453125 1067.9781494140625
v 1036.810546875 -122.55921936035156 774.7584228515625
v 1036.7974853515625 -122.5567855834961 1067.9781494140625
v 909.8217163085938 -444.3414001464844 1067.9781494140625
v 909.8901977539062 -444.7896423339844 774.7584228515625
v 425.49127197265625 -251.4616241455078 817.61962890625
v 425.49102783203125 -251.4616241455078 1012.2598876953125
v 625.835693359375 -331.38092041015625 1067.9781494140625
v 526.0166015625 -290.5549011230469 1012.260009765625
v 625.869140625 -331.5992431640625 774.7584228515625
v 526.0166015625 -290.5549621582031 817.6196899414062
v 706.8967895507812 -362.97711181640625 1012.2598876953125
v 807.42236328125 -402.0703430175781 1012.2598876953125
v 807.4225463867188 -402.0704345703125 817.61962890625
v 706.8968505859375 -362.97711181640625 817.6196899414062
vt -0.11224365234375 1.276611328125
vt -0.11224365234375 -0.28125
vt 1.5439453125 1.276611328125
vt -0.11224365234375 -0.28125
vt 1.5439453125 -0.28125
vt 1.5439453125 1.276611328125
vt 1.6220703125 1.689453125
vt -1.15625 1.689453125
vt 1.6220703125 0.0234375
vt -1.15625 1.689453125
vt -1.15625 0.0234375
vt 1.6220703125 0.0234375
vt 1.5537109375 0.92755126953125
vt -0.1177978515625 0.92755126953125
vt 1.5537109375 -0.65234375
vt -0.1177978515625 0.92755126953125
vt -0.1177978515625 -0.6552734375
vt 1.5537109375 -0.65234375
vt -0.6201171875 1.66064453125
vt -0.6201171875 -0.013671875
vt -0.279052734375 1.42578125
vt -0.6201171875 -0.013671875
vt -0.279052734375 0.359375
vt -0.279052734375 1.42578125
vt -0.6201171875 -0.013671875
vt 0.70556640625 -0.013671875
vt -0.279052734375 0.359375
vt 0.70556640625 -0.013671875
vt 0.216064453125 0.359375
vt -0.279052734375 0.359375
vt 0.70556640625 -0.013671875
vt 0.70556640625 1.66064453125
vt 0.216064453125 0.359375
vt 0.70556640625 1.66064453125
vt 0.216064453125 1.42578125
vt 0.216064453125 0.359375
vt 0.70556640625 1.66064453125
vt -0.6201171875 1.66064453125
vt 0.216064453125 1.42578125
vt -0.6201171875 1.66064453125
vt -0.279052734375 1.42578125
vt 0.216064453125 1.42578125
vt 0.70556640625 -0.013671875
vt 2.1015625 -0.013671875
vt 1.1044921875 0.359375
vt 2.1015625 -0.013671875
vt 1.6005859375 0.359375
vt 1.1044921875 0.359375
vt 2.1015625 -0.013671875
vt 2.1015625 1.66064453125
vt 1.6005859375 0.359375
vt 2.1015625 1.66064453125
vt 1.6005859375 1.42578125
vt 1.6005859375 0.359375
vt 2.1015625 1.66064453125
vt 0.70556640625 1.66064453125
vt 1.6005859375 1.42578125
vt 0.70556640625 1.66064453125
vt 1.1044921875 1.42578125
vt 1.6005859375 1.42578125
vt 0.70556640625 1.66064453125
vt 0.70556640625 -0.013671875
vt 1.1044921875 1.42578125
vt 0.70556640625 -0.013671875
vt 1.1044921875 0.359375
vt 1.1044921875 1.42578125
vt 1.83984375 -0.435546875
vt 1.7177734375 1.291259765625
vt 0.314697265625 -0.537109375
vt 1.7177734375 1.291259765625
vt -1.30078125 1.046844482421875
vt 0.314697265625 -0.537109375
vt -1.30078125 1.046844482421875
vt -1.1328125 -0.6328125
vt 0.314697265625 -0.537109375
vt 1.755859375 -0.525390625
vt 1.80859375 1.203369140625
vt 0.28125 1.245849609375
vt -1.2705078125 -0.3984375
vt 1.755859375 -0.525390625
vt 0.28125 1.245849609375
vt -1.2705078125 -0.3984375
vt 0.28125 1.245849609375
vt -1.1689453125 1.2861328125
vn 0.7429730296134949 0.33590880036354065 0.5789268016815186
vn 0.3406240940093994 -0.7428006529808044 0.5763874053955078
vn 0.7433227300643921 0.3353869915008545 -0.5787804126739502
vn 0.3406132757663727 -0.7427929639816284 -0.5764036774635315
vn -0.7475219964981079 -0.3295050859451294 0.5767471790313721
vn -0.7475089430809021 -0.3294331133365631 -0.5768051743507385
vn -0.3215072751045227 0.7512969970703125 -0.5763557553291321
vn -0.3202689588069916 0.7525275945663452 0.5754390358924866
vn 0.36444422602653503 0.9312135577201843 0.004672241397202015
vn 0.36797019839286804 0.9298305511474609 0.003620101371780038
vn 0.26225656270980835 0.6583037376403809 -0.7055903077125549
vn 0.36965394020080566 0.9289801716804504 0.018758155405521393
vn 0.2625660300254822 0.6590272784233093 0.7047994136810303
vn 0.3739253580570221 0.9273508787155151 -0.014147649519145489
vn 0.3662930727005005 0.9304693937301636 0.007488788105547428
vn 0.3711516261100769 0.928292453289032 0.02279628813266754
vn 0.37578216195106506 0.9264407157897949 -0.022257454693317413
vn 0.3621270954608917 0.9321268200874329 -0.0018804556457325816
f 1/1/1 2/2/2 3/3/3
f 2/4/2 4/5/4 3/6/3
f 2/7/2 5/8/5 4/9/4
f 5/10/5 6/11/6 4/12/4
f 6/13/6 5/14/5 7/15/7
f 5/16/5 8/17/8 7/18/7
f 1/19/1 3/20/3 9/21/9
f 3/22/3 10/23/10 9/24/9
f 3/25/3 11/26/11 10/27/10
f 11/28/11 12/29/12 10/30/10
f 11/31/11 13/32/13 12/33/12
f 13/34/13 14/35/14 12/36/12
f 13/37/13 1/38/1 14/39/14
f 1/40/1 9/41/9 14/42/14
f 11/43/11 7/44/7 15/45/15
f 7/46/7 16/47/16 15/48/15
f 7/49/7 8/50/8 16/51/16
f 8/52/8 17/53/17 16/54/16
f 8/55/8 13/56/13 17/57/17
f 13/58/13 18/59/18 17/60/17
f 13/61/13 11/62/11 18/63/18
f 11/64/11 15/65/15 18/66/18
f 8/67/8 5/68/5 13/69/13
f 5/70/5 2/71/2 13/72/13
f 2/73/2 1/74/1 13/75/13
f 6/76/6 7/77/7 11/78/11
f 4/79/4 6/80/6 11/81/11
f 4/82/4 11/83/11 3/84/3
